%TF.GenerationSoftware,KiCad,Pcbnew,9.0.2*%
%TF.CreationDate,2025-08-01T15:36:05+09:00*%
%TF.ProjectId,NeoPixel,4e656f50-6978-4656-9c2e-6b696361645f,rev?*%
%TF.SameCoordinates,Original*%
%TF.FileFunction,Soldermask,Bot*%
%TF.FilePolarity,Negative*%
%FSLAX46Y46*%
G04 Gerber Fmt 4.6, Leading zero omitted, Abs format (unit mm)*
G04 Created by KiCad (PCBNEW 9.0.2) date 2025-08-01 15:36:05*
%MOMM*%
%LPD*%
G01*
G04 APERTURE LIST*
%ADD10R,2.000000X3.000000*%
%ADD11R,1.000000X1.000000*%
%ADD12R,1.350000X1.350000*%
G04 APERTURE END LIST*
D10*
%TO.C,J1*%
X153750000Y-108050000D03*
%TD*%
D11*
%TO.C,J4*%
X158330000Y-109880000D03*
%TD*%
D12*
%TO.C,J2*%
X151400000Y-107250000D03*
%TD*%
D11*
%TO.C,J4*%
X165330000Y-109880000D03*
%TD*%
%TO.C,J3*%
X193330000Y-108680000D03*
%TD*%
%TO.C,J3*%
X151330000Y-108680000D03*
%TD*%
D12*
%TO.C,J2*%
X193400000Y-107250000D03*
%TD*%
D11*
%TO.C,J3*%
X172330000Y-108680000D03*
%TD*%
%TO.C,J4*%
X172330000Y-109880000D03*
%TD*%
%TO.C,J4*%
X200330000Y-109880000D03*
%TD*%
%TO.C,J3*%
X207330000Y-108680000D03*
%TD*%
%TO.C,J3*%
X200330000Y-108680000D03*
%TD*%
D12*
%TO.C,J2*%
X200400000Y-107250000D03*
%TD*%
%TO.C,J2*%
X207400000Y-107250000D03*
%TD*%
D10*
%TO.C,J1*%
X202750000Y-108050000D03*
%TD*%
D11*
%TO.C,J3*%
X200330000Y-108680000D03*
%TD*%
%TO.C,J4*%
X200330000Y-109880000D03*
%TD*%
D12*
%TO.C,J2*%
X200400000Y-107250000D03*
%TD*%
D10*
%TO.C,J1*%
X202750000Y-108050000D03*
%TD*%
D11*
%TO.C,J3*%
X158330000Y-108680000D03*
%TD*%
%TO.C,J4*%
X207330000Y-109880000D03*
%TD*%
D10*
%TO.C,J1*%
X209750000Y-108050000D03*
%TD*%
D11*
%TO.C,J4*%
X214330000Y-109880000D03*
%TD*%
D12*
%TO.C,J2*%
X214400000Y-107250000D03*
%TD*%
D10*
%TO.C,J1*%
X167750000Y-108050000D03*
%TD*%
%TO.C,J1*%
X160750000Y-108050000D03*
%TD*%
D12*
%TO.C,J2*%
X172400000Y-107250000D03*
%TD*%
D10*
%TO.C,J1*%
X216750000Y-108050000D03*
%TD*%
D12*
%TO.C,J2*%
X158400000Y-107250000D03*
%TD*%
D11*
%TO.C,J4*%
X193330000Y-109880000D03*
%TD*%
D10*
%TO.C,J1*%
X174750000Y-108050000D03*
%TD*%
D11*
%TO.C,J4*%
X221330000Y-109880000D03*
%TD*%
D10*
%TO.C,J1*%
X195750000Y-108050000D03*
%TD*%
D11*
%TO.C,J3*%
X221330000Y-108680000D03*
%TD*%
%TO.C,J4*%
X179330000Y-109880000D03*
%TD*%
D12*
%TO.C,J2*%
X179400000Y-107250000D03*
%TD*%
D11*
%TO.C,J3*%
X179330000Y-108680000D03*
%TD*%
D12*
%TO.C,J2*%
X221400000Y-107250000D03*
%TD*%
D10*
%TO.C,J1*%
X181750000Y-108050000D03*
%TD*%
D11*
%TO.C,J3*%
X186330000Y-108680000D03*
%TD*%
D12*
%TO.C,J2*%
X186400000Y-107250000D03*
%TD*%
D11*
%TO.C,J4*%
X186330000Y-109880000D03*
%TD*%
%TO.C,J4*%
X151330000Y-109880000D03*
%TD*%
D10*
%TO.C,J1*%
X223750000Y-108050000D03*
%TD*%
D11*
%TO.C,J3*%
X165330000Y-108680000D03*
%TD*%
D12*
%TO.C,J2*%
X165400000Y-107250000D03*
%TD*%
D10*
%TO.C,J1*%
X188750000Y-108050000D03*
%TD*%
D11*
%TO.C,J3*%
X214330000Y-108680000D03*
%TD*%
D10*
%TO.C,J1*%
X153750000Y-102050000D03*
%TD*%
D11*
%TO.C,J4*%
X158330000Y-103880000D03*
%TD*%
D12*
%TO.C,J2*%
X151400000Y-101250000D03*
%TD*%
D11*
%TO.C,J4*%
X165330000Y-103880000D03*
%TD*%
%TO.C,J3*%
X193330000Y-102680000D03*
%TD*%
%TO.C,J3*%
X151330000Y-102680000D03*
%TD*%
D12*
%TO.C,J2*%
X193400000Y-101250000D03*
%TD*%
D11*
%TO.C,J3*%
X172330000Y-102680000D03*
%TD*%
%TO.C,J4*%
X172330000Y-103880000D03*
%TD*%
%TO.C,J4*%
X200330000Y-103880000D03*
%TD*%
%TO.C,J3*%
X207330000Y-102680000D03*
%TD*%
%TO.C,J3*%
X200330000Y-102680000D03*
%TD*%
D12*
%TO.C,J2*%
X200400000Y-101250000D03*
%TD*%
%TO.C,J2*%
X207400000Y-101250000D03*
%TD*%
D10*
%TO.C,J1*%
X202750000Y-102050000D03*
%TD*%
D11*
%TO.C,J3*%
X200330000Y-102680000D03*
%TD*%
%TO.C,J4*%
X200330000Y-103880000D03*
%TD*%
D12*
%TO.C,J2*%
X200400000Y-101250000D03*
%TD*%
D10*
%TO.C,J1*%
X202750000Y-102050000D03*
%TD*%
D11*
%TO.C,J3*%
X158330000Y-102680000D03*
%TD*%
%TO.C,J4*%
X207330000Y-103880000D03*
%TD*%
D10*
%TO.C,J1*%
X209750000Y-102050000D03*
%TD*%
D11*
%TO.C,J4*%
X214330000Y-103880000D03*
%TD*%
D12*
%TO.C,J2*%
X214400000Y-101250000D03*
%TD*%
D10*
%TO.C,J1*%
X167750000Y-102050000D03*
%TD*%
%TO.C,J1*%
X160750000Y-102050000D03*
%TD*%
D12*
%TO.C,J2*%
X172400000Y-101250000D03*
%TD*%
D10*
%TO.C,J1*%
X216750000Y-102050000D03*
%TD*%
D12*
%TO.C,J2*%
X158400000Y-101250000D03*
%TD*%
D11*
%TO.C,J4*%
X193330000Y-103880000D03*
%TD*%
D10*
%TO.C,J1*%
X174750000Y-102050000D03*
%TD*%
D11*
%TO.C,J4*%
X221330000Y-103880000D03*
%TD*%
D10*
%TO.C,J1*%
X195750000Y-102050000D03*
%TD*%
D11*
%TO.C,J3*%
X221330000Y-102680000D03*
%TD*%
%TO.C,J4*%
X179330000Y-103880000D03*
%TD*%
D12*
%TO.C,J2*%
X179400000Y-101250000D03*
%TD*%
D11*
%TO.C,J3*%
X179330000Y-102680000D03*
%TD*%
D12*
%TO.C,J2*%
X221400000Y-101250000D03*
%TD*%
D10*
%TO.C,J1*%
X181750000Y-102050000D03*
%TD*%
D11*
%TO.C,J3*%
X186330000Y-102680000D03*
%TD*%
D12*
%TO.C,J2*%
X186400000Y-101250000D03*
%TD*%
D11*
%TO.C,J4*%
X186330000Y-103880000D03*
%TD*%
%TO.C,J4*%
X151330000Y-103880000D03*
%TD*%
D10*
%TO.C,J1*%
X223750000Y-102050000D03*
%TD*%
D11*
%TO.C,J3*%
X165330000Y-102680000D03*
%TD*%
D12*
%TO.C,J2*%
X165400000Y-101250000D03*
%TD*%
D10*
%TO.C,J1*%
X188750000Y-102050000D03*
%TD*%
D11*
%TO.C,J3*%
X214330000Y-102680000D03*
%TD*%
D10*
%TO.C,J1*%
X153750000Y-96050000D03*
%TD*%
D11*
%TO.C,J4*%
X158330000Y-97880000D03*
%TD*%
D12*
%TO.C,J2*%
X151400000Y-95250000D03*
%TD*%
D11*
%TO.C,J4*%
X165330000Y-97880000D03*
%TD*%
%TO.C,J3*%
X193330000Y-96680000D03*
%TD*%
%TO.C,J3*%
X151330000Y-96680000D03*
%TD*%
D12*
%TO.C,J2*%
X193400000Y-95250000D03*
%TD*%
D11*
%TO.C,J3*%
X172330000Y-96680000D03*
%TD*%
%TO.C,J4*%
X172330000Y-97880000D03*
%TD*%
%TO.C,J4*%
X200330000Y-97880000D03*
%TD*%
%TO.C,J3*%
X207330000Y-96680000D03*
%TD*%
%TO.C,J3*%
X200330000Y-96680000D03*
%TD*%
D12*
%TO.C,J2*%
X200400000Y-95250000D03*
%TD*%
%TO.C,J2*%
X207400000Y-95250000D03*
%TD*%
D10*
%TO.C,J1*%
X202750000Y-96050000D03*
%TD*%
D11*
%TO.C,J3*%
X200330000Y-96680000D03*
%TD*%
%TO.C,J4*%
X200330000Y-97880000D03*
%TD*%
D12*
%TO.C,J2*%
X200400000Y-95250000D03*
%TD*%
D10*
%TO.C,J1*%
X202750000Y-96050000D03*
%TD*%
D11*
%TO.C,J3*%
X158330000Y-96680000D03*
%TD*%
%TO.C,J4*%
X207330000Y-97880000D03*
%TD*%
D10*
%TO.C,J1*%
X209750000Y-96050000D03*
%TD*%
D11*
%TO.C,J4*%
X214330000Y-97880000D03*
%TD*%
D12*
%TO.C,J2*%
X214400000Y-95250000D03*
%TD*%
D10*
%TO.C,J1*%
X167750000Y-96050000D03*
%TD*%
%TO.C,J1*%
X160750000Y-96050000D03*
%TD*%
D12*
%TO.C,J2*%
X172400000Y-95250000D03*
%TD*%
D10*
%TO.C,J1*%
X216750000Y-96050000D03*
%TD*%
D12*
%TO.C,J2*%
X158400000Y-95250000D03*
%TD*%
D11*
%TO.C,J4*%
X193330000Y-97880000D03*
%TD*%
D10*
%TO.C,J1*%
X174750000Y-96050000D03*
%TD*%
D11*
%TO.C,J4*%
X221330000Y-97880000D03*
%TD*%
D10*
%TO.C,J1*%
X195750000Y-96050000D03*
%TD*%
D11*
%TO.C,J3*%
X221330000Y-96680000D03*
%TD*%
%TO.C,J4*%
X179330000Y-97880000D03*
%TD*%
D12*
%TO.C,J2*%
X179400000Y-95250000D03*
%TD*%
D11*
%TO.C,J3*%
X179330000Y-96680000D03*
%TD*%
D12*
%TO.C,J2*%
X221400000Y-95250000D03*
%TD*%
D10*
%TO.C,J1*%
X181750000Y-96050000D03*
%TD*%
D11*
%TO.C,J3*%
X186330000Y-96680000D03*
%TD*%
D12*
%TO.C,J2*%
X186400000Y-95250000D03*
%TD*%
D11*
%TO.C,J4*%
X186330000Y-97880000D03*
%TD*%
%TO.C,J4*%
X151330000Y-97880000D03*
%TD*%
D10*
%TO.C,J1*%
X223750000Y-96050000D03*
%TD*%
D11*
%TO.C,J3*%
X165330000Y-96680000D03*
%TD*%
D12*
%TO.C,J2*%
X165400000Y-95250000D03*
%TD*%
D10*
%TO.C,J1*%
X188750000Y-96050000D03*
%TD*%
D11*
%TO.C,J3*%
X214330000Y-96680000D03*
%TD*%
D10*
%TO.C,J1*%
X153750000Y-90050000D03*
%TD*%
D11*
%TO.C,J4*%
X158330000Y-91880000D03*
%TD*%
D12*
%TO.C,J2*%
X151400000Y-89250000D03*
%TD*%
D11*
%TO.C,J4*%
X165330000Y-91880000D03*
%TD*%
%TO.C,J3*%
X193330000Y-90680000D03*
%TD*%
%TO.C,J3*%
X151330000Y-90680000D03*
%TD*%
D12*
%TO.C,J2*%
X193400000Y-89250000D03*
%TD*%
D11*
%TO.C,J3*%
X172330000Y-90680000D03*
%TD*%
%TO.C,J4*%
X172330000Y-91880000D03*
%TD*%
%TO.C,J4*%
X200330000Y-91880000D03*
%TD*%
%TO.C,J3*%
X207330000Y-90680000D03*
%TD*%
%TO.C,J3*%
X200330000Y-90680000D03*
%TD*%
D12*
%TO.C,J2*%
X200400000Y-89250000D03*
%TD*%
%TO.C,J2*%
X207400000Y-89250000D03*
%TD*%
D10*
%TO.C,J1*%
X202750000Y-90050000D03*
%TD*%
D11*
%TO.C,J3*%
X200330000Y-90680000D03*
%TD*%
%TO.C,J4*%
X200330000Y-91880000D03*
%TD*%
D12*
%TO.C,J2*%
X200400000Y-89250000D03*
%TD*%
D10*
%TO.C,J1*%
X202750000Y-90050000D03*
%TD*%
D11*
%TO.C,J3*%
X158330000Y-90680000D03*
%TD*%
%TO.C,J4*%
X207330000Y-91880000D03*
%TD*%
D10*
%TO.C,J1*%
X209750000Y-90050000D03*
%TD*%
D11*
%TO.C,J4*%
X214330000Y-91880000D03*
%TD*%
D12*
%TO.C,J2*%
X214400000Y-89250000D03*
%TD*%
D10*
%TO.C,J1*%
X167750000Y-90050000D03*
%TD*%
%TO.C,J1*%
X160750000Y-90050000D03*
%TD*%
D12*
%TO.C,J2*%
X172400000Y-89250000D03*
%TD*%
D10*
%TO.C,J1*%
X216750000Y-90050000D03*
%TD*%
D12*
%TO.C,J2*%
X158400000Y-89250000D03*
%TD*%
D11*
%TO.C,J4*%
X193330000Y-91880000D03*
%TD*%
D10*
%TO.C,J1*%
X174750000Y-90050000D03*
%TD*%
D11*
%TO.C,J4*%
X221330000Y-91880000D03*
%TD*%
D10*
%TO.C,J1*%
X195750000Y-90050000D03*
%TD*%
D11*
%TO.C,J3*%
X221330000Y-90680000D03*
%TD*%
%TO.C,J4*%
X179330000Y-91880000D03*
%TD*%
D12*
%TO.C,J2*%
X179400000Y-89250000D03*
%TD*%
D11*
%TO.C,J3*%
X179330000Y-90680000D03*
%TD*%
D12*
%TO.C,J2*%
X221400000Y-89250000D03*
%TD*%
D10*
%TO.C,J1*%
X181750000Y-90050000D03*
%TD*%
D11*
%TO.C,J3*%
X186330000Y-90680000D03*
%TD*%
D12*
%TO.C,J2*%
X186400000Y-89250000D03*
%TD*%
D11*
%TO.C,J4*%
X186330000Y-91880000D03*
%TD*%
%TO.C,J4*%
X151330000Y-91880000D03*
%TD*%
D10*
%TO.C,J1*%
X223750000Y-90050000D03*
%TD*%
D11*
%TO.C,J3*%
X165330000Y-90680000D03*
%TD*%
D12*
%TO.C,J2*%
X165400000Y-89250000D03*
%TD*%
D10*
%TO.C,J1*%
X188750000Y-90050000D03*
%TD*%
D11*
%TO.C,J3*%
X214330000Y-90680000D03*
%TD*%
D10*
%TO.C,J1*%
X153750000Y-84050000D03*
%TD*%
D11*
%TO.C,J4*%
X158330000Y-85880000D03*
%TD*%
D12*
%TO.C,J2*%
X151400000Y-83250000D03*
%TD*%
D11*
%TO.C,J4*%
X165330000Y-85880000D03*
%TD*%
%TO.C,J3*%
X193330000Y-84680000D03*
%TD*%
%TO.C,J3*%
X151330000Y-84680000D03*
%TD*%
D12*
%TO.C,J2*%
X193400000Y-83250000D03*
%TD*%
D11*
%TO.C,J3*%
X172330000Y-84680000D03*
%TD*%
%TO.C,J4*%
X172330000Y-85880000D03*
%TD*%
%TO.C,J4*%
X200330000Y-85880000D03*
%TD*%
%TO.C,J3*%
X207330000Y-84680000D03*
%TD*%
%TO.C,J3*%
X200330000Y-84680000D03*
%TD*%
D12*
%TO.C,J2*%
X200400000Y-83250000D03*
%TD*%
%TO.C,J2*%
X207400000Y-83250000D03*
%TD*%
D10*
%TO.C,J1*%
X202750000Y-84050000D03*
%TD*%
D11*
%TO.C,J3*%
X200330000Y-84680000D03*
%TD*%
%TO.C,J4*%
X200330000Y-85880000D03*
%TD*%
D12*
%TO.C,J2*%
X200400000Y-83250000D03*
%TD*%
D10*
%TO.C,J1*%
X202750000Y-84050000D03*
%TD*%
D11*
%TO.C,J3*%
X158330000Y-84680000D03*
%TD*%
%TO.C,J4*%
X207330000Y-85880000D03*
%TD*%
D10*
%TO.C,J1*%
X209750000Y-84050000D03*
%TD*%
D11*
%TO.C,J4*%
X214330000Y-85880000D03*
%TD*%
D12*
%TO.C,J2*%
X214400000Y-83250000D03*
%TD*%
D10*
%TO.C,J1*%
X167750000Y-84050000D03*
%TD*%
%TO.C,J1*%
X160750000Y-84050000D03*
%TD*%
D12*
%TO.C,J2*%
X172400000Y-83250000D03*
%TD*%
D10*
%TO.C,J1*%
X216750000Y-84050000D03*
%TD*%
D12*
%TO.C,J2*%
X158400000Y-83250000D03*
%TD*%
D11*
%TO.C,J4*%
X193330000Y-85880000D03*
%TD*%
D10*
%TO.C,J1*%
X174750000Y-84050000D03*
%TD*%
D11*
%TO.C,J4*%
X221330000Y-85880000D03*
%TD*%
D10*
%TO.C,J1*%
X195750000Y-84050000D03*
%TD*%
D11*
%TO.C,J3*%
X221330000Y-84680000D03*
%TD*%
%TO.C,J4*%
X179330000Y-85880000D03*
%TD*%
D12*
%TO.C,J2*%
X179400000Y-83250000D03*
%TD*%
D11*
%TO.C,J3*%
X179330000Y-84680000D03*
%TD*%
D12*
%TO.C,J2*%
X221400000Y-83250000D03*
%TD*%
D10*
%TO.C,J1*%
X181750000Y-84050000D03*
%TD*%
D11*
%TO.C,J3*%
X186330000Y-84680000D03*
%TD*%
D12*
%TO.C,J2*%
X186400000Y-83250000D03*
%TD*%
D11*
%TO.C,J4*%
X186330000Y-85880000D03*
%TD*%
%TO.C,J4*%
X151330000Y-85880000D03*
%TD*%
D10*
%TO.C,J1*%
X223750000Y-84050000D03*
%TD*%
D11*
%TO.C,J3*%
X165330000Y-84680000D03*
%TD*%
D12*
%TO.C,J2*%
X165400000Y-83250000D03*
%TD*%
D10*
%TO.C,J1*%
X188750000Y-84050000D03*
%TD*%
D11*
%TO.C,J3*%
X214330000Y-84680000D03*
%TD*%
D10*
%TO.C,J1*%
X153750000Y-78050000D03*
%TD*%
D11*
%TO.C,J4*%
X158330000Y-79880000D03*
%TD*%
D12*
%TO.C,J2*%
X151400000Y-77250000D03*
%TD*%
D11*
%TO.C,J4*%
X165330000Y-79880000D03*
%TD*%
%TO.C,J3*%
X193330000Y-78680000D03*
%TD*%
%TO.C,J3*%
X151330000Y-78680000D03*
%TD*%
D12*
%TO.C,J2*%
X193400000Y-77250000D03*
%TD*%
D11*
%TO.C,J3*%
X172330000Y-78680000D03*
%TD*%
%TO.C,J4*%
X172330000Y-79880000D03*
%TD*%
%TO.C,J4*%
X200330000Y-79880000D03*
%TD*%
%TO.C,J3*%
X207330000Y-78680000D03*
%TD*%
%TO.C,J3*%
X200330000Y-78680000D03*
%TD*%
D12*
%TO.C,J2*%
X200400000Y-77250000D03*
%TD*%
%TO.C,J2*%
X207400000Y-77250000D03*
%TD*%
D10*
%TO.C,J1*%
X202750000Y-78050000D03*
%TD*%
D11*
%TO.C,J3*%
X200330000Y-78680000D03*
%TD*%
%TO.C,J4*%
X200330000Y-79880000D03*
%TD*%
D12*
%TO.C,J2*%
X200400000Y-77250000D03*
%TD*%
D10*
%TO.C,J1*%
X202750000Y-78050000D03*
%TD*%
D11*
%TO.C,J3*%
X158330000Y-78680000D03*
%TD*%
%TO.C,J4*%
X207330000Y-79880000D03*
%TD*%
D10*
%TO.C,J1*%
X209750000Y-78050000D03*
%TD*%
D11*
%TO.C,J4*%
X214330000Y-79880000D03*
%TD*%
D12*
%TO.C,J2*%
X214400000Y-77250000D03*
%TD*%
D10*
%TO.C,J1*%
X167750000Y-78050000D03*
%TD*%
%TO.C,J1*%
X160750000Y-78050000D03*
%TD*%
D12*
%TO.C,J2*%
X172400000Y-77250000D03*
%TD*%
D10*
%TO.C,J1*%
X216750000Y-78050000D03*
%TD*%
D12*
%TO.C,J2*%
X158400000Y-77250000D03*
%TD*%
D11*
%TO.C,J4*%
X193330000Y-79880000D03*
%TD*%
D10*
%TO.C,J1*%
X174750000Y-78050000D03*
%TD*%
D11*
%TO.C,J4*%
X221330000Y-79880000D03*
%TD*%
D10*
%TO.C,J1*%
X195750000Y-78050000D03*
%TD*%
D11*
%TO.C,J3*%
X221330000Y-78680000D03*
%TD*%
%TO.C,J4*%
X179330000Y-79880000D03*
%TD*%
D12*
%TO.C,J2*%
X179400000Y-77250000D03*
%TD*%
D11*
%TO.C,J3*%
X179330000Y-78680000D03*
%TD*%
D12*
%TO.C,J2*%
X221400000Y-77250000D03*
%TD*%
D10*
%TO.C,J1*%
X181750000Y-78050000D03*
%TD*%
D11*
%TO.C,J3*%
X186330000Y-78680000D03*
%TD*%
D12*
%TO.C,J2*%
X186400000Y-77250000D03*
%TD*%
D11*
%TO.C,J4*%
X186330000Y-79880000D03*
%TD*%
%TO.C,J4*%
X151330000Y-79880000D03*
%TD*%
D10*
%TO.C,J1*%
X223750000Y-78050000D03*
%TD*%
D11*
%TO.C,J3*%
X165330000Y-78680000D03*
%TD*%
D12*
%TO.C,J2*%
X165400000Y-77250000D03*
%TD*%
D10*
%TO.C,J1*%
X188750000Y-78050000D03*
%TD*%
D11*
%TO.C,J3*%
X214330000Y-78680000D03*
%TD*%
D10*
%TO.C,J1*%
X153750000Y-72050000D03*
%TD*%
D11*
%TO.C,J4*%
X158330000Y-73880000D03*
%TD*%
D12*
%TO.C,J2*%
X151400000Y-71250000D03*
%TD*%
D11*
%TO.C,J4*%
X165330000Y-73880000D03*
%TD*%
%TO.C,J3*%
X193330000Y-72680000D03*
%TD*%
%TO.C,J3*%
X151330000Y-72680000D03*
%TD*%
D12*
%TO.C,J2*%
X193400000Y-71250000D03*
%TD*%
D11*
%TO.C,J3*%
X172330000Y-72680000D03*
%TD*%
%TO.C,J4*%
X172330000Y-73880000D03*
%TD*%
%TO.C,J4*%
X200330000Y-73880000D03*
%TD*%
%TO.C,J3*%
X207330000Y-72680000D03*
%TD*%
%TO.C,J3*%
X200330000Y-72680000D03*
%TD*%
D12*
%TO.C,J2*%
X200400000Y-71250000D03*
%TD*%
%TO.C,J2*%
X207400000Y-71250000D03*
%TD*%
D10*
%TO.C,J1*%
X202750000Y-72050000D03*
%TD*%
D11*
%TO.C,J3*%
X200330000Y-72680000D03*
%TD*%
%TO.C,J4*%
X200330000Y-73880000D03*
%TD*%
D12*
%TO.C,J2*%
X200400000Y-71250000D03*
%TD*%
D10*
%TO.C,J1*%
X202750000Y-72050000D03*
%TD*%
D11*
%TO.C,J3*%
X158330000Y-72680000D03*
%TD*%
%TO.C,J4*%
X207330000Y-73880000D03*
%TD*%
D10*
%TO.C,J1*%
X209750000Y-72050000D03*
%TD*%
D11*
%TO.C,J4*%
X214330000Y-73880000D03*
%TD*%
D12*
%TO.C,J2*%
X214400000Y-71250000D03*
%TD*%
D10*
%TO.C,J1*%
X167750000Y-72050000D03*
%TD*%
%TO.C,J1*%
X160750000Y-72050000D03*
%TD*%
D12*
%TO.C,J2*%
X172400000Y-71250000D03*
%TD*%
D10*
%TO.C,J1*%
X216750000Y-72050000D03*
%TD*%
D12*
%TO.C,J2*%
X158400000Y-71250000D03*
%TD*%
D11*
%TO.C,J4*%
X193330000Y-73880000D03*
%TD*%
D10*
%TO.C,J1*%
X174750000Y-72050000D03*
%TD*%
D11*
%TO.C,J4*%
X221330000Y-73880000D03*
%TD*%
D10*
%TO.C,J1*%
X195750000Y-72050000D03*
%TD*%
D11*
%TO.C,J3*%
X221330000Y-72680000D03*
%TD*%
%TO.C,J4*%
X179330000Y-73880000D03*
%TD*%
D12*
%TO.C,J2*%
X179400000Y-71250000D03*
%TD*%
D11*
%TO.C,J3*%
X179330000Y-72680000D03*
%TD*%
D12*
%TO.C,J2*%
X221400000Y-71250000D03*
%TD*%
D10*
%TO.C,J1*%
X181750000Y-72050000D03*
%TD*%
D11*
%TO.C,J3*%
X186330000Y-72680000D03*
%TD*%
D12*
%TO.C,J2*%
X186400000Y-71250000D03*
%TD*%
D11*
%TO.C,J4*%
X186330000Y-73880000D03*
%TD*%
%TO.C,J4*%
X151330000Y-73880000D03*
%TD*%
D10*
%TO.C,J1*%
X223750000Y-72050000D03*
%TD*%
D11*
%TO.C,J3*%
X165330000Y-72680000D03*
%TD*%
D12*
%TO.C,J2*%
X165400000Y-71250000D03*
%TD*%
D10*
%TO.C,J1*%
X188750000Y-72050000D03*
%TD*%
D11*
%TO.C,J3*%
X214330000Y-72680000D03*
%TD*%
D10*
%TO.C,J1*%
X153750000Y-66050000D03*
%TD*%
D11*
%TO.C,J4*%
X158330000Y-67880000D03*
%TD*%
D12*
%TO.C,J2*%
X151400000Y-65250000D03*
%TD*%
D11*
%TO.C,J4*%
X165330000Y-67880000D03*
%TD*%
%TO.C,J3*%
X193330000Y-66680000D03*
%TD*%
%TO.C,J3*%
X151330000Y-66680000D03*
%TD*%
D12*
%TO.C,J2*%
X193400000Y-65250000D03*
%TD*%
D11*
%TO.C,J3*%
X172330000Y-66680000D03*
%TD*%
%TO.C,J4*%
X172330000Y-67880000D03*
%TD*%
%TO.C,J4*%
X200330000Y-67880000D03*
%TD*%
%TO.C,J3*%
X207330000Y-66680000D03*
%TD*%
%TO.C,J3*%
X200330000Y-66680000D03*
%TD*%
D12*
%TO.C,J2*%
X200400000Y-65250000D03*
%TD*%
%TO.C,J2*%
X207400000Y-65250000D03*
%TD*%
D10*
%TO.C,J1*%
X202750000Y-66050000D03*
%TD*%
D11*
%TO.C,J3*%
X200330000Y-66680000D03*
%TD*%
%TO.C,J4*%
X200330000Y-67880000D03*
%TD*%
D12*
%TO.C,J2*%
X200400000Y-65250000D03*
%TD*%
D10*
%TO.C,J1*%
X202750000Y-66050000D03*
%TD*%
D11*
%TO.C,J3*%
X158330000Y-66680000D03*
%TD*%
%TO.C,J4*%
X207330000Y-67880000D03*
%TD*%
D10*
%TO.C,J1*%
X209750000Y-66050000D03*
%TD*%
D11*
%TO.C,J4*%
X214330000Y-67880000D03*
%TD*%
D12*
%TO.C,J2*%
X214400000Y-65250000D03*
%TD*%
D10*
%TO.C,J1*%
X167750000Y-66050000D03*
%TD*%
%TO.C,J1*%
X160750000Y-66050000D03*
%TD*%
D12*
%TO.C,J2*%
X172400000Y-65250000D03*
%TD*%
D10*
%TO.C,J1*%
X216750000Y-66050000D03*
%TD*%
D12*
%TO.C,J2*%
X158400000Y-65250000D03*
%TD*%
D11*
%TO.C,J4*%
X193330000Y-67880000D03*
%TD*%
D10*
%TO.C,J1*%
X174750000Y-66050000D03*
%TD*%
D11*
%TO.C,J4*%
X221330000Y-67880000D03*
%TD*%
D10*
%TO.C,J1*%
X195750000Y-66050000D03*
%TD*%
D11*
%TO.C,J3*%
X221330000Y-66680000D03*
%TD*%
%TO.C,J4*%
X179330000Y-67880000D03*
%TD*%
D12*
%TO.C,J2*%
X179400000Y-65250000D03*
%TD*%
D11*
%TO.C,J3*%
X179330000Y-66680000D03*
%TD*%
D12*
%TO.C,J2*%
X221400000Y-65250000D03*
%TD*%
D10*
%TO.C,J1*%
X181750000Y-66050000D03*
%TD*%
D11*
%TO.C,J3*%
X186330000Y-66680000D03*
%TD*%
D12*
%TO.C,J2*%
X186400000Y-65250000D03*
%TD*%
D11*
%TO.C,J4*%
X186330000Y-67880000D03*
%TD*%
%TO.C,J4*%
X151330000Y-67880000D03*
%TD*%
D10*
%TO.C,J1*%
X223750000Y-66050000D03*
%TD*%
D11*
%TO.C,J3*%
X165330000Y-66680000D03*
%TD*%
D12*
%TO.C,J2*%
X165400000Y-65250000D03*
%TD*%
D10*
%TO.C,J1*%
X188750000Y-66050000D03*
%TD*%
D11*
%TO.C,J3*%
X214330000Y-66680000D03*
%TD*%
D10*
%TO.C,J1*%
X153750000Y-60050000D03*
%TD*%
D11*
%TO.C,J4*%
X158330000Y-61880000D03*
%TD*%
D12*
%TO.C,J2*%
X151400000Y-59250000D03*
%TD*%
D11*
%TO.C,J4*%
X165330000Y-61880000D03*
%TD*%
%TO.C,J3*%
X193330000Y-60680000D03*
%TD*%
%TO.C,J3*%
X151330000Y-60680000D03*
%TD*%
D12*
%TO.C,J2*%
X193400000Y-59250000D03*
%TD*%
D11*
%TO.C,J3*%
X172330000Y-60680000D03*
%TD*%
%TO.C,J4*%
X172330000Y-61880000D03*
%TD*%
%TO.C,J4*%
X200330000Y-61880000D03*
%TD*%
%TO.C,J3*%
X207330000Y-60680000D03*
%TD*%
%TO.C,J3*%
X200330000Y-60680000D03*
%TD*%
D12*
%TO.C,J2*%
X200400000Y-59250000D03*
%TD*%
%TO.C,J2*%
X207400000Y-59250000D03*
%TD*%
D10*
%TO.C,J1*%
X202750000Y-60050000D03*
%TD*%
D11*
%TO.C,J3*%
X200330000Y-60680000D03*
%TD*%
%TO.C,J4*%
X200330000Y-61880000D03*
%TD*%
D12*
%TO.C,J2*%
X200400000Y-59250000D03*
%TD*%
D10*
%TO.C,J1*%
X202750000Y-60050000D03*
%TD*%
D11*
%TO.C,J3*%
X158330000Y-60680000D03*
%TD*%
%TO.C,J4*%
X207330000Y-61880000D03*
%TD*%
D10*
%TO.C,J1*%
X209750000Y-60050000D03*
%TD*%
D11*
%TO.C,J4*%
X214330000Y-61880000D03*
%TD*%
D12*
%TO.C,J2*%
X214400000Y-59250000D03*
%TD*%
D10*
%TO.C,J1*%
X167750000Y-60050000D03*
%TD*%
%TO.C,J1*%
X160750000Y-60050000D03*
%TD*%
D12*
%TO.C,J2*%
X172400000Y-59250000D03*
%TD*%
D10*
%TO.C,J1*%
X216750000Y-60050000D03*
%TD*%
D12*
%TO.C,J2*%
X158400000Y-59250000D03*
%TD*%
D11*
%TO.C,J4*%
X193330000Y-61880000D03*
%TD*%
D10*
%TO.C,J1*%
X174750000Y-60050000D03*
%TD*%
D11*
%TO.C,J4*%
X221330000Y-61880000D03*
%TD*%
D10*
%TO.C,J1*%
X195750000Y-60050000D03*
%TD*%
D11*
%TO.C,J3*%
X221330000Y-60680000D03*
%TD*%
%TO.C,J4*%
X179330000Y-61880000D03*
%TD*%
D12*
%TO.C,J2*%
X179400000Y-59250000D03*
%TD*%
D11*
%TO.C,J3*%
X179330000Y-60680000D03*
%TD*%
D12*
%TO.C,J2*%
X221400000Y-59250000D03*
%TD*%
D10*
%TO.C,J1*%
X181750000Y-60050000D03*
%TD*%
D11*
%TO.C,J3*%
X186330000Y-60680000D03*
%TD*%
D12*
%TO.C,J2*%
X186400000Y-59250000D03*
%TD*%
D11*
%TO.C,J4*%
X186330000Y-61880000D03*
%TD*%
%TO.C,J4*%
X151330000Y-61880000D03*
%TD*%
D10*
%TO.C,J1*%
X223750000Y-60050000D03*
%TD*%
D11*
%TO.C,J3*%
X165330000Y-60680000D03*
%TD*%
D12*
%TO.C,J2*%
X165400000Y-59250000D03*
%TD*%
D10*
%TO.C,J1*%
X188750000Y-60050000D03*
%TD*%
D11*
%TO.C,J3*%
X214330000Y-60680000D03*
%TD*%
D10*
%TO.C,J1*%
X153750000Y-54050000D03*
%TD*%
D11*
%TO.C,J4*%
X158330000Y-55880000D03*
%TD*%
D12*
%TO.C,J2*%
X151400000Y-53250000D03*
%TD*%
D11*
%TO.C,J4*%
X165330000Y-55880000D03*
%TD*%
%TO.C,J3*%
X193330000Y-54680000D03*
%TD*%
%TO.C,J3*%
X151330000Y-54680000D03*
%TD*%
D12*
%TO.C,J2*%
X193400000Y-53250000D03*
%TD*%
D11*
%TO.C,J3*%
X172330000Y-54680000D03*
%TD*%
%TO.C,J4*%
X172330000Y-55880000D03*
%TD*%
%TO.C,J4*%
X200330000Y-55880000D03*
%TD*%
%TO.C,J3*%
X207330000Y-54680000D03*
%TD*%
%TO.C,J3*%
X200330000Y-54680000D03*
%TD*%
D12*
%TO.C,J2*%
X200400000Y-53250000D03*
%TD*%
%TO.C,J2*%
X207400000Y-53250000D03*
%TD*%
D10*
%TO.C,J1*%
X202750000Y-54050000D03*
%TD*%
D11*
%TO.C,J3*%
X200330000Y-54680000D03*
%TD*%
%TO.C,J4*%
X200330000Y-55880000D03*
%TD*%
D12*
%TO.C,J2*%
X200400000Y-53250000D03*
%TD*%
D10*
%TO.C,J1*%
X202750000Y-54050000D03*
%TD*%
D11*
%TO.C,J3*%
X158330000Y-54680000D03*
%TD*%
%TO.C,J4*%
X207330000Y-55880000D03*
%TD*%
D10*
%TO.C,J1*%
X209750000Y-54050000D03*
%TD*%
D11*
%TO.C,J4*%
X214330000Y-55880000D03*
%TD*%
D12*
%TO.C,J2*%
X214400000Y-53250000D03*
%TD*%
D10*
%TO.C,J1*%
X167750000Y-54050000D03*
%TD*%
%TO.C,J1*%
X160750000Y-54050000D03*
%TD*%
D12*
%TO.C,J2*%
X172400000Y-53250000D03*
%TD*%
D10*
%TO.C,J1*%
X216750000Y-54050000D03*
%TD*%
D12*
%TO.C,J2*%
X158400000Y-53250000D03*
%TD*%
D11*
%TO.C,J4*%
X193330000Y-55880000D03*
%TD*%
D10*
%TO.C,J1*%
X174750000Y-54050000D03*
%TD*%
D11*
%TO.C,J4*%
X221330000Y-55880000D03*
%TD*%
D10*
%TO.C,J1*%
X195750000Y-54050000D03*
%TD*%
D11*
%TO.C,J3*%
X221330000Y-54680000D03*
%TD*%
%TO.C,J4*%
X179330000Y-55880000D03*
%TD*%
D12*
%TO.C,J2*%
X179400000Y-53250000D03*
%TD*%
D11*
%TO.C,J3*%
X179330000Y-54680000D03*
%TD*%
D12*
%TO.C,J2*%
X221400000Y-53250000D03*
%TD*%
D10*
%TO.C,J1*%
X181750000Y-54050000D03*
%TD*%
D11*
%TO.C,J3*%
X186330000Y-54680000D03*
%TD*%
D12*
%TO.C,J2*%
X186400000Y-53250000D03*
%TD*%
D11*
%TO.C,J4*%
X186330000Y-55880000D03*
%TD*%
%TO.C,J4*%
X151330000Y-55880000D03*
%TD*%
D10*
%TO.C,J1*%
X223750000Y-54050000D03*
%TD*%
D11*
%TO.C,J3*%
X165330000Y-54680000D03*
%TD*%
D12*
%TO.C,J2*%
X165400000Y-53250000D03*
%TD*%
D10*
%TO.C,J1*%
X188750000Y-54050000D03*
%TD*%
D11*
%TO.C,J3*%
X214330000Y-54680000D03*
%TD*%
D10*
%TO.C,J1*%
X153750000Y-48050000D03*
%TD*%
D11*
%TO.C,J4*%
X158330000Y-49880000D03*
%TD*%
D12*
%TO.C,J2*%
X151400000Y-47250000D03*
%TD*%
D11*
%TO.C,J4*%
X165330000Y-49880000D03*
%TD*%
%TO.C,J3*%
X193330000Y-48680000D03*
%TD*%
%TO.C,J3*%
X151330000Y-48680000D03*
%TD*%
D12*
%TO.C,J2*%
X193400000Y-47250000D03*
%TD*%
D11*
%TO.C,J3*%
X172330000Y-48680000D03*
%TD*%
%TO.C,J4*%
X172330000Y-49880000D03*
%TD*%
%TO.C,J4*%
X200330000Y-49880000D03*
%TD*%
%TO.C,J3*%
X207330000Y-48680000D03*
%TD*%
%TO.C,J3*%
X200330000Y-48680000D03*
%TD*%
D12*
%TO.C,J2*%
X200400000Y-47250000D03*
%TD*%
%TO.C,J2*%
X207400000Y-47250000D03*
%TD*%
D10*
%TO.C,J1*%
X202750000Y-48050000D03*
%TD*%
D11*
%TO.C,J3*%
X200330000Y-48680000D03*
%TD*%
%TO.C,J4*%
X200330000Y-49880000D03*
%TD*%
D12*
%TO.C,J2*%
X200400000Y-47250000D03*
%TD*%
D10*
%TO.C,J1*%
X202750000Y-48050000D03*
%TD*%
D11*
%TO.C,J3*%
X158330000Y-48680000D03*
%TD*%
%TO.C,J4*%
X207330000Y-49880000D03*
%TD*%
D10*
%TO.C,J1*%
X209750000Y-48050000D03*
%TD*%
D11*
%TO.C,J4*%
X214330000Y-49880000D03*
%TD*%
D12*
%TO.C,J2*%
X214400000Y-47250000D03*
%TD*%
D10*
%TO.C,J1*%
X167750000Y-48050000D03*
%TD*%
%TO.C,J1*%
X160750000Y-48050000D03*
%TD*%
D12*
%TO.C,J2*%
X172400000Y-47250000D03*
%TD*%
D10*
%TO.C,J1*%
X216750000Y-48050000D03*
%TD*%
D12*
%TO.C,J2*%
X158400000Y-47250000D03*
%TD*%
D11*
%TO.C,J4*%
X193330000Y-49880000D03*
%TD*%
D10*
%TO.C,J1*%
X174750000Y-48050000D03*
%TD*%
D11*
%TO.C,J4*%
X221330000Y-49880000D03*
%TD*%
D10*
%TO.C,J1*%
X195750000Y-48050000D03*
%TD*%
D11*
%TO.C,J3*%
X221330000Y-48680000D03*
%TD*%
%TO.C,J4*%
X179330000Y-49880000D03*
%TD*%
D12*
%TO.C,J2*%
X179400000Y-47250000D03*
%TD*%
D11*
%TO.C,J3*%
X179330000Y-48680000D03*
%TD*%
D12*
%TO.C,J2*%
X221400000Y-47250000D03*
%TD*%
D10*
%TO.C,J1*%
X181750000Y-48050000D03*
%TD*%
D11*
%TO.C,J3*%
X186330000Y-48680000D03*
%TD*%
D12*
%TO.C,J2*%
X186400000Y-47250000D03*
%TD*%
D11*
%TO.C,J4*%
X186330000Y-49880000D03*
%TD*%
%TO.C,J4*%
X151330000Y-49880000D03*
%TD*%
D10*
%TO.C,J1*%
X223750000Y-48050000D03*
%TD*%
D11*
%TO.C,J3*%
X165330000Y-48680000D03*
%TD*%
D12*
%TO.C,J2*%
X165400000Y-47250000D03*
%TD*%
D10*
%TO.C,J1*%
X188750000Y-48050000D03*
%TD*%
D11*
%TO.C,J3*%
X214330000Y-48680000D03*
%TD*%
D10*
%TO.C,J1*%
X223750000Y-42050000D03*
%TD*%
D12*
%TO.C,J2*%
X221400000Y-41250000D03*
%TD*%
D11*
%TO.C,J3*%
X221330000Y-42680000D03*
%TD*%
%TO.C,J4*%
X221330000Y-43880000D03*
%TD*%
D10*
%TO.C,J1*%
X216750000Y-42050000D03*
%TD*%
D12*
%TO.C,J2*%
X214400000Y-41250000D03*
%TD*%
D11*
%TO.C,J3*%
X214330000Y-42680000D03*
%TD*%
%TO.C,J4*%
X214330000Y-43880000D03*
%TD*%
D10*
%TO.C,J1*%
X209750000Y-42050000D03*
%TD*%
D12*
%TO.C,J2*%
X207400000Y-41250000D03*
%TD*%
D11*
%TO.C,J3*%
X207330000Y-42680000D03*
%TD*%
%TO.C,J4*%
X207330000Y-43880000D03*
%TD*%
D10*
%TO.C,J1*%
X202750000Y-42050000D03*
%TD*%
D12*
%TO.C,J2*%
X200400000Y-41250000D03*
%TD*%
D11*
%TO.C,J3*%
X200330000Y-42680000D03*
%TD*%
%TO.C,J4*%
X200330000Y-43880000D03*
%TD*%
D10*
%TO.C,J1*%
X202750000Y-42050000D03*
%TD*%
D12*
%TO.C,J2*%
X200400000Y-41250000D03*
%TD*%
D11*
%TO.C,J3*%
X200330000Y-42680000D03*
%TD*%
%TO.C,J4*%
X200330000Y-43880000D03*
%TD*%
D10*
%TO.C,J1*%
X195750000Y-42050000D03*
%TD*%
D12*
%TO.C,J2*%
X193400000Y-41250000D03*
%TD*%
D11*
%TO.C,J3*%
X193330000Y-42680000D03*
%TD*%
%TO.C,J4*%
X193330000Y-43880000D03*
%TD*%
D10*
%TO.C,J1*%
X188750000Y-42050000D03*
%TD*%
D12*
%TO.C,J2*%
X186400000Y-41250000D03*
%TD*%
D11*
%TO.C,J3*%
X186330000Y-42680000D03*
%TD*%
%TO.C,J4*%
X186330000Y-43880000D03*
%TD*%
D10*
%TO.C,J1*%
X181750000Y-42050000D03*
%TD*%
D12*
%TO.C,J2*%
X179400000Y-41250000D03*
%TD*%
D11*
%TO.C,J3*%
X179330000Y-42680000D03*
%TD*%
%TO.C,J4*%
X179330000Y-43880000D03*
%TD*%
D10*
%TO.C,J1*%
X174750000Y-42050000D03*
%TD*%
D12*
%TO.C,J2*%
X172400000Y-41250000D03*
%TD*%
D11*
%TO.C,J3*%
X172330000Y-42680000D03*
%TD*%
%TO.C,J4*%
X172330000Y-43880000D03*
%TD*%
D10*
%TO.C,J1*%
X167750000Y-42050000D03*
%TD*%
D12*
%TO.C,J2*%
X165400000Y-41250000D03*
%TD*%
D11*
%TO.C,J3*%
X165330000Y-42680000D03*
%TD*%
%TO.C,J4*%
X165330000Y-43880000D03*
%TD*%
D10*
%TO.C,J1*%
X160750000Y-42050000D03*
%TD*%
D12*
%TO.C,J2*%
X158400000Y-41250000D03*
%TD*%
D11*
%TO.C,J3*%
X158330000Y-42680000D03*
%TD*%
%TO.C,J4*%
X158330000Y-43880000D03*
%TD*%
%TO.C,J3*%
X151330000Y-42680000D03*
%TD*%
D12*
%TO.C,J2*%
X151400000Y-41250000D03*
%TD*%
D10*
%TO.C,J1*%
X153750000Y-42050000D03*
%TD*%
D11*
%TO.C,J4*%
X151330000Y-43880000D03*
%TD*%
G36*
X156943039Y-104769685D02*
G01*
X156988794Y-104822489D01*
X157000000Y-104874000D01*
X157000000Y-105000000D01*
X163000000Y-105000000D01*
X163000000Y-104874000D01*
X163019685Y-104806961D01*
X163072489Y-104761206D01*
X163124000Y-104750000D01*
X163876000Y-104750000D01*
X163943039Y-104769685D01*
X163988794Y-104822489D01*
X164000000Y-104874000D01*
X164000000Y-105000000D01*
X170000000Y-105000000D01*
X170000000Y-104874000D01*
X170019685Y-104806961D01*
X170072489Y-104761206D01*
X170124000Y-104750000D01*
X170876000Y-104750000D01*
X170943039Y-104769685D01*
X170988794Y-104822489D01*
X171000000Y-104874000D01*
X171000000Y-105000000D01*
X177000000Y-105000000D01*
X177000000Y-104874000D01*
X177019685Y-104806961D01*
X177072489Y-104761206D01*
X177124000Y-104750000D01*
X177876000Y-104750000D01*
X177943039Y-104769685D01*
X177988794Y-104822489D01*
X178000000Y-104874000D01*
X178000000Y-105000000D01*
X184000000Y-105000000D01*
X184000000Y-104874000D01*
X184019685Y-104806961D01*
X184072489Y-104761206D01*
X184124000Y-104750000D01*
X184876000Y-104750000D01*
X184943039Y-104769685D01*
X184988794Y-104822489D01*
X185000000Y-104874000D01*
X185000000Y-105000000D01*
X191000000Y-105000000D01*
X191000000Y-104874000D01*
X191019685Y-104806961D01*
X191072489Y-104761206D01*
X191124000Y-104750000D01*
X191876000Y-104750000D01*
X191943039Y-104769685D01*
X191988794Y-104822489D01*
X192000000Y-104874000D01*
X192000000Y-105000000D01*
X198000000Y-105000000D01*
X198000000Y-104874000D01*
X198019685Y-104806961D01*
X198072489Y-104761206D01*
X198124000Y-104750000D01*
X198876000Y-104750000D01*
X198943039Y-104769685D01*
X198988794Y-104822489D01*
X199000000Y-104874000D01*
X199000000Y-105000000D01*
X205000000Y-105000000D01*
X205000000Y-104874000D01*
X205019685Y-104806961D01*
X205072489Y-104761206D01*
X205124000Y-104750000D01*
X205876000Y-104750000D01*
X205943039Y-104769685D01*
X205988794Y-104822489D01*
X206000000Y-104874000D01*
X206000000Y-105000000D01*
X212000000Y-105000000D01*
X212000000Y-104874000D01*
X212019685Y-104806961D01*
X212072489Y-104761206D01*
X212124000Y-104750000D01*
X212876000Y-104750000D01*
X212943039Y-104769685D01*
X212988794Y-104822489D01*
X213000000Y-104874000D01*
X213000000Y-105000000D01*
X219000000Y-105000000D01*
X219000000Y-104874000D01*
X219019685Y-104806961D01*
X219072489Y-104761206D01*
X219124000Y-104750000D01*
X219876000Y-104750000D01*
X219943039Y-104769685D01*
X219988794Y-104822489D01*
X220000000Y-104874000D01*
X220000000Y-105000000D01*
X225876000Y-105000000D01*
X225943039Y-105019685D01*
X225988794Y-105072489D01*
X226000000Y-105124000D01*
X226000000Y-105876000D01*
X225980315Y-105943039D01*
X225927511Y-105988794D01*
X225876000Y-106000000D01*
X220000000Y-106000000D01*
X220000000Y-106126000D01*
X219980315Y-106193039D01*
X219927511Y-106238794D01*
X219876000Y-106250000D01*
X219124000Y-106250000D01*
X219056961Y-106230315D01*
X219011206Y-106177511D01*
X219000000Y-106126000D01*
X219000000Y-106000000D01*
X213000000Y-106000000D01*
X213000000Y-106126000D01*
X212980315Y-106193039D01*
X212927511Y-106238794D01*
X212876000Y-106250000D01*
X212124000Y-106250000D01*
X212056961Y-106230315D01*
X212011206Y-106177511D01*
X212000000Y-106126000D01*
X212000000Y-106000000D01*
X206000000Y-106000000D01*
X206000000Y-106126000D01*
X205980315Y-106193039D01*
X205927511Y-106238794D01*
X205876000Y-106250000D01*
X205124000Y-106250000D01*
X205056961Y-106230315D01*
X205011206Y-106177511D01*
X205000000Y-106126000D01*
X205000000Y-106000000D01*
X199000000Y-106000000D01*
X199000000Y-106126000D01*
X198980315Y-106193039D01*
X198927511Y-106238794D01*
X198876000Y-106250000D01*
X198124000Y-106250000D01*
X198056961Y-106230315D01*
X198011206Y-106177511D01*
X198000000Y-106126000D01*
X198000000Y-106000000D01*
X192000000Y-106000000D01*
X192000000Y-106126000D01*
X191980315Y-106193039D01*
X191927511Y-106238794D01*
X191876000Y-106250000D01*
X191124000Y-106250000D01*
X191056961Y-106230315D01*
X191011206Y-106177511D01*
X191000000Y-106126000D01*
X191000000Y-106000000D01*
X185000000Y-106000000D01*
X185000000Y-106126000D01*
X184980315Y-106193039D01*
X184927511Y-106238794D01*
X184876000Y-106250000D01*
X184124000Y-106250000D01*
X184056961Y-106230315D01*
X184011206Y-106177511D01*
X184000000Y-106126000D01*
X184000000Y-106000000D01*
X178000000Y-106000000D01*
X178000000Y-106126000D01*
X177980315Y-106193039D01*
X177927511Y-106238794D01*
X177876000Y-106250000D01*
X177124000Y-106250000D01*
X177056961Y-106230315D01*
X177011206Y-106177511D01*
X177000000Y-106126000D01*
X177000000Y-106000000D01*
X171000000Y-106000000D01*
X171000000Y-106126000D01*
X170980315Y-106193039D01*
X170927511Y-106238794D01*
X170876000Y-106250000D01*
X170124000Y-106250000D01*
X170056961Y-106230315D01*
X170011206Y-106177511D01*
X170000000Y-106126000D01*
X170000000Y-106000000D01*
X164000000Y-106000000D01*
X164000000Y-106126000D01*
X163980315Y-106193039D01*
X163927511Y-106238794D01*
X163876000Y-106250000D01*
X163124000Y-106250000D01*
X163056961Y-106230315D01*
X163011206Y-106177511D01*
X163000000Y-106126000D01*
X163000000Y-106000000D01*
X157000000Y-106000000D01*
X157000000Y-106126000D01*
X156980315Y-106193039D01*
X156927511Y-106238794D01*
X156876000Y-106250000D01*
X156124000Y-106250000D01*
X156056961Y-106230315D01*
X156011206Y-106177511D01*
X156000000Y-106126000D01*
X156000000Y-106000000D01*
X150124000Y-106000000D01*
X150056961Y-105980315D01*
X150011206Y-105927511D01*
X150000000Y-105876000D01*
X150000000Y-105124000D01*
X150019685Y-105056961D01*
X150072489Y-105011206D01*
X150124000Y-105000000D01*
X156000000Y-105000000D01*
X156000000Y-104874000D01*
X156019685Y-104806961D01*
X156072489Y-104761206D01*
X156124000Y-104750000D01*
X156876000Y-104750000D01*
X156943039Y-104769685D01*
G37*
G36*
X156943039Y-98769685D02*
G01*
X156988794Y-98822489D01*
X157000000Y-98874000D01*
X157000000Y-99000000D01*
X163000000Y-99000000D01*
X163000000Y-98874000D01*
X163019685Y-98806961D01*
X163072489Y-98761206D01*
X163124000Y-98750000D01*
X163876000Y-98750000D01*
X163943039Y-98769685D01*
X163988794Y-98822489D01*
X164000000Y-98874000D01*
X164000000Y-99000000D01*
X170000000Y-99000000D01*
X170000000Y-98874000D01*
X170019685Y-98806961D01*
X170072489Y-98761206D01*
X170124000Y-98750000D01*
X170876000Y-98750000D01*
X170943039Y-98769685D01*
X170988794Y-98822489D01*
X171000000Y-98874000D01*
X171000000Y-99000000D01*
X177000000Y-99000000D01*
X177000000Y-98874000D01*
X177019685Y-98806961D01*
X177072489Y-98761206D01*
X177124000Y-98750000D01*
X177876000Y-98750000D01*
X177943039Y-98769685D01*
X177988794Y-98822489D01*
X178000000Y-98874000D01*
X178000000Y-99000000D01*
X184000000Y-99000000D01*
X184000000Y-98874000D01*
X184019685Y-98806961D01*
X184072489Y-98761206D01*
X184124000Y-98750000D01*
X184876000Y-98750000D01*
X184943039Y-98769685D01*
X184988794Y-98822489D01*
X185000000Y-98874000D01*
X185000000Y-99000000D01*
X191000000Y-99000000D01*
X191000000Y-98874000D01*
X191019685Y-98806961D01*
X191072489Y-98761206D01*
X191124000Y-98750000D01*
X191876000Y-98750000D01*
X191943039Y-98769685D01*
X191988794Y-98822489D01*
X192000000Y-98874000D01*
X192000000Y-99000000D01*
X198000000Y-99000000D01*
X198000000Y-98874000D01*
X198019685Y-98806961D01*
X198072489Y-98761206D01*
X198124000Y-98750000D01*
X198876000Y-98750000D01*
X198943039Y-98769685D01*
X198988794Y-98822489D01*
X199000000Y-98874000D01*
X199000000Y-99000000D01*
X205000000Y-99000000D01*
X205000000Y-98874000D01*
X205019685Y-98806961D01*
X205072489Y-98761206D01*
X205124000Y-98750000D01*
X205876000Y-98750000D01*
X205943039Y-98769685D01*
X205988794Y-98822489D01*
X206000000Y-98874000D01*
X206000000Y-99000000D01*
X212000000Y-99000000D01*
X212000000Y-98874000D01*
X212019685Y-98806961D01*
X212072489Y-98761206D01*
X212124000Y-98750000D01*
X212876000Y-98750000D01*
X212943039Y-98769685D01*
X212988794Y-98822489D01*
X213000000Y-98874000D01*
X213000000Y-99000000D01*
X219000000Y-99000000D01*
X219000000Y-98874000D01*
X219019685Y-98806961D01*
X219072489Y-98761206D01*
X219124000Y-98750000D01*
X219876000Y-98750000D01*
X219943039Y-98769685D01*
X219988794Y-98822489D01*
X220000000Y-98874000D01*
X220000000Y-99000000D01*
X225876000Y-99000000D01*
X225943039Y-99019685D01*
X225988794Y-99072489D01*
X226000000Y-99124000D01*
X226000000Y-99876000D01*
X225980315Y-99943039D01*
X225927511Y-99988794D01*
X225876000Y-100000000D01*
X220000000Y-100000000D01*
X220000000Y-100126000D01*
X219980315Y-100193039D01*
X219927511Y-100238794D01*
X219876000Y-100250000D01*
X219124000Y-100250000D01*
X219056961Y-100230315D01*
X219011206Y-100177511D01*
X219000000Y-100126000D01*
X219000000Y-100000000D01*
X213000000Y-100000000D01*
X213000000Y-100126000D01*
X212980315Y-100193039D01*
X212927511Y-100238794D01*
X212876000Y-100250000D01*
X212124000Y-100250000D01*
X212056961Y-100230315D01*
X212011206Y-100177511D01*
X212000000Y-100126000D01*
X212000000Y-100000000D01*
X206000000Y-100000000D01*
X206000000Y-100126000D01*
X205980315Y-100193039D01*
X205927511Y-100238794D01*
X205876000Y-100250000D01*
X205124000Y-100250000D01*
X205056961Y-100230315D01*
X205011206Y-100177511D01*
X205000000Y-100126000D01*
X205000000Y-100000000D01*
X199000000Y-100000000D01*
X199000000Y-100126000D01*
X198980315Y-100193039D01*
X198927511Y-100238794D01*
X198876000Y-100250000D01*
X198124000Y-100250000D01*
X198056961Y-100230315D01*
X198011206Y-100177511D01*
X198000000Y-100126000D01*
X198000000Y-100000000D01*
X192000000Y-100000000D01*
X192000000Y-100126000D01*
X191980315Y-100193039D01*
X191927511Y-100238794D01*
X191876000Y-100250000D01*
X191124000Y-100250000D01*
X191056961Y-100230315D01*
X191011206Y-100177511D01*
X191000000Y-100126000D01*
X191000000Y-100000000D01*
X185000000Y-100000000D01*
X185000000Y-100126000D01*
X184980315Y-100193039D01*
X184927511Y-100238794D01*
X184876000Y-100250000D01*
X184124000Y-100250000D01*
X184056961Y-100230315D01*
X184011206Y-100177511D01*
X184000000Y-100126000D01*
X184000000Y-100000000D01*
X178000000Y-100000000D01*
X178000000Y-100126000D01*
X177980315Y-100193039D01*
X177927511Y-100238794D01*
X177876000Y-100250000D01*
X177124000Y-100250000D01*
X177056961Y-100230315D01*
X177011206Y-100177511D01*
X177000000Y-100126000D01*
X177000000Y-100000000D01*
X171000000Y-100000000D01*
X171000000Y-100126000D01*
X170980315Y-100193039D01*
X170927511Y-100238794D01*
X170876000Y-100250000D01*
X170124000Y-100250000D01*
X170056961Y-100230315D01*
X170011206Y-100177511D01*
X170000000Y-100126000D01*
X170000000Y-100000000D01*
X164000000Y-100000000D01*
X164000000Y-100126000D01*
X163980315Y-100193039D01*
X163927511Y-100238794D01*
X163876000Y-100250000D01*
X163124000Y-100250000D01*
X163056961Y-100230315D01*
X163011206Y-100177511D01*
X163000000Y-100126000D01*
X163000000Y-100000000D01*
X157000000Y-100000000D01*
X157000000Y-100126000D01*
X156980315Y-100193039D01*
X156927511Y-100238794D01*
X156876000Y-100250000D01*
X156124000Y-100250000D01*
X156056961Y-100230315D01*
X156011206Y-100177511D01*
X156000000Y-100126000D01*
X156000000Y-100000000D01*
X150124000Y-100000000D01*
X150056961Y-99980315D01*
X150011206Y-99927511D01*
X150000000Y-99876000D01*
X150000000Y-99124000D01*
X150019685Y-99056961D01*
X150072489Y-99011206D01*
X150124000Y-99000000D01*
X156000000Y-99000000D01*
X156000000Y-98874000D01*
X156019685Y-98806961D01*
X156072489Y-98761206D01*
X156124000Y-98750000D01*
X156876000Y-98750000D01*
X156943039Y-98769685D01*
G37*
G36*
X156943039Y-92769685D02*
G01*
X156988794Y-92822489D01*
X157000000Y-92874000D01*
X157000000Y-93000000D01*
X163000000Y-93000000D01*
X163000000Y-92874000D01*
X163019685Y-92806961D01*
X163072489Y-92761206D01*
X163124000Y-92750000D01*
X163876000Y-92750000D01*
X163943039Y-92769685D01*
X163988794Y-92822489D01*
X164000000Y-92874000D01*
X164000000Y-93000000D01*
X170000000Y-93000000D01*
X170000000Y-92874000D01*
X170019685Y-92806961D01*
X170072489Y-92761206D01*
X170124000Y-92750000D01*
X170876000Y-92750000D01*
X170943039Y-92769685D01*
X170988794Y-92822489D01*
X171000000Y-92874000D01*
X171000000Y-93000000D01*
X177000000Y-93000000D01*
X177000000Y-92874000D01*
X177019685Y-92806961D01*
X177072489Y-92761206D01*
X177124000Y-92750000D01*
X177876000Y-92750000D01*
X177943039Y-92769685D01*
X177988794Y-92822489D01*
X178000000Y-92874000D01*
X178000000Y-93000000D01*
X184000000Y-93000000D01*
X184000000Y-92874000D01*
X184019685Y-92806961D01*
X184072489Y-92761206D01*
X184124000Y-92750000D01*
X184876000Y-92750000D01*
X184943039Y-92769685D01*
X184988794Y-92822489D01*
X185000000Y-92874000D01*
X185000000Y-93000000D01*
X191000000Y-93000000D01*
X191000000Y-92874000D01*
X191019685Y-92806961D01*
X191072489Y-92761206D01*
X191124000Y-92750000D01*
X191876000Y-92750000D01*
X191943039Y-92769685D01*
X191988794Y-92822489D01*
X192000000Y-92874000D01*
X192000000Y-93000000D01*
X198000000Y-93000000D01*
X198000000Y-92874000D01*
X198019685Y-92806961D01*
X198072489Y-92761206D01*
X198124000Y-92750000D01*
X198876000Y-92750000D01*
X198943039Y-92769685D01*
X198988794Y-92822489D01*
X199000000Y-92874000D01*
X199000000Y-93000000D01*
X205000000Y-93000000D01*
X205000000Y-92874000D01*
X205019685Y-92806961D01*
X205072489Y-92761206D01*
X205124000Y-92750000D01*
X205876000Y-92750000D01*
X205943039Y-92769685D01*
X205988794Y-92822489D01*
X206000000Y-92874000D01*
X206000000Y-93000000D01*
X212000000Y-93000000D01*
X212000000Y-92874000D01*
X212019685Y-92806961D01*
X212072489Y-92761206D01*
X212124000Y-92750000D01*
X212876000Y-92750000D01*
X212943039Y-92769685D01*
X212988794Y-92822489D01*
X213000000Y-92874000D01*
X213000000Y-93000000D01*
X219000000Y-93000000D01*
X219000000Y-92874000D01*
X219019685Y-92806961D01*
X219072489Y-92761206D01*
X219124000Y-92750000D01*
X219876000Y-92750000D01*
X219943039Y-92769685D01*
X219988794Y-92822489D01*
X220000000Y-92874000D01*
X220000000Y-93000000D01*
X225876000Y-93000000D01*
X225943039Y-93019685D01*
X225988794Y-93072489D01*
X226000000Y-93124000D01*
X226000000Y-93876000D01*
X225980315Y-93943039D01*
X225927511Y-93988794D01*
X225876000Y-94000000D01*
X220000000Y-94000000D01*
X220000000Y-94126000D01*
X219980315Y-94193039D01*
X219927511Y-94238794D01*
X219876000Y-94250000D01*
X219124000Y-94250000D01*
X219056961Y-94230315D01*
X219011206Y-94177511D01*
X219000000Y-94126000D01*
X219000000Y-94000000D01*
X213000000Y-94000000D01*
X213000000Y-94126000D01*
X212980315Y-94193039D01*
X212927511Y-94238794D01*
X212876000Y-94250000D01*
X212124000Y-94250000D01*
X212056961Y-94230315D01*
X212011206Y-94177511D01*
X212000000Y-94126000D01*
X212000000Y-94000000D01*
X206000000Y-94000000D01*
X206000000Y-94126000D01*
X205980315Y-94193039D01*
X205927511Y-94238794D01*
X205876000Y-94250000D01*
X205124000Y-94250000D01*
X205056961Y-94230315D01*
X205011206Y-94177511D01*
X205000000Y-94126000D01*
X205000000Y-94000000D01*
X199000000Y-94000000D01*
X199000000Y-94126000D01*
X198980315Y-94193039D01*
X198927511Y-94238794D01*
X198876000Y-94250000D01*
X198124000Y-94250000D01*
X198056961Y-94230315D01*
X198011206Y-94177511D01*
X198000000Y-94126000D01*
X198000000Y-94000000D01*
X192000000Y-94000000D01*
X192000000Y-94126000D01*
X191980315Y-94193039D01*
X191927511Y-94238794D01*
X191876000Y-94250000D01*
X191124000Y-94250000D01*
X191056961Y-94230315D01*
X191011206Y-94177511D01*
X191000000Y-94126000D01*
X191000000Y-94000000D01*
X185000000Y-94000000D01*
X185000000Y-94126000D01*
X184980315Y-94193039D01*
X184927511Y-94238794D01*
X184876000Y-94250000D01*
X184124000Y-94250000D01*
X184056961Y-94230315D01*
X184011206Y-94177511D01*
X184000000Y-94126000D01*
X184000000Y-94000000D01*
X178000000Y-94000000D01*
X178000000Y-94126000D01*
X177980315Y-94193039D01*
X177927511Y-94238794D01*
X177876000Y-94250000D01*
X177124000Y-94250000D01*
X177056961Y-94230315D01*
X177011206Y-94177511D01*
X177000000Y-94126000D01*
X177000000Y-94000000D01*
X171000000Y-94000000D01*
X171000000Y-94126000D01*
X170980315Y-94193039D01*
X170927511Y-94238794D01*
X170876000Y-94250000D01*
X170124000Y-94250000D01*
X170056961Y-94230315D01*
X170011206Y-94177511D01*
X170000000Y-94126000D01*
X170000000Y-94000000D01*
X164000000Y-94000000D01*
X164000000Y-94126000D01*
X163980315Y-94193039D01*
X163927511Y-94238794D01*
X163876000Y-94250000D01*
X163124000Y-94250000D01*
X163056961Y-94230315D01*
X163011206Y-94177511D01*
X163000000Y-94126000D01*
X163000000Y-94000000D01*
X157000000Y-94000000D01*
X157000000Y-94126000D01*
X156980315Y-94193039D01*
X156927511Y-94238794D01*
X156876000Y-94250000D01*
X156124000Y-94250000D01*
X156056961Y-94230315D01*
X156011206Y-94177511D01*
X156000000Y-94126000D01*
X156000000Y-94000000D01*
X150124000Y-94000000D01*
X150056961Y-93980315D01*
X150011206Y-93927511D01*
X150000000Y-93876000D01*
X150000000Y-93124000D01*
X150019685Y-93056961D01*
X150072489Y-93011206D01*
X150124000Y-93000000D01*
X156000000Y-93000000D01*
X156000000Y-92874000D01*
X156019685Y-92806961D01*
X156072489Y-92761206D01*
X156124000Y-92750000D01*
X156876000Y-92750000D01*
X156943039Y-92769685D01*
G37*
G36*
X156943039Y-86769685D02*
G01*
X156988794Y-86822489D01*
X157000000Y-86874000D01*
X157000000Y-87000000D01*
X163000000Y-87000000D01*
X163000000Y-86874000D01*
X163019685Y-86806961D01*
X163072489Y-86761206D01*
X163124000Y-86750000D01*
X163876000Y-86750000D01*
X163943039Y-86769685D01*
X163988794Y-86822489D01*
X164000000Y-86874000D01*
X164000000Y-87000000D01*
X170000000Y-87000000D01*
X170000000Y-86874000D01*
X170019685Y-86806961D01*
X170072489Y-86761206D01*
X170124000Y-86750000D01*
X170876000Y-86750000D01*
X170943039Y-86769685D01*
X170988794Y-86822489D01*
X171000000Y-86874000D01*
X171000000Y-87000000D01*
X177000000Y-87000000D01*
X177000000Y-86874000D01*
X177019685Y-86806961D01*
X177072489Y-86761206D01*
X177124000Y-86750000D01*
X177876000Y-86750000D01*
X177943039Y-86769685D01*
X177988794Y-86822489D01*
X178000000Y-86874000D01*
X178000000Y-87000000D01*
X184000000Y-87000000D01*
X184000000Y-86874000D01*
X184019685Y-86806961D01*
X184072489Y-86761206D01*
X184124000Y-86750000D01*
X184876000Y-86750000D01*
X184943039Y-86769685D01*
X184988794Y-86822489D01*
X185000000Y-86874000D01*
X185000000Y-87000000D01*
X191000000Y-87000000D01*
X191000000Y-86874000D01*
X191019685Y-86806961D01*
X191072489Y-86761206D01*
X191124000Y-86750000D01*
X191876000Y-86750000D01*
X191943039Y-86769685D01*
X191988794Y-86822489D01*
X192000000Y-86874000D01*
X192000000Y-87000000D01*
X198000000Y-87000000D01*
X198000000Y-86874000D01*
X198019685Y-86806961D01*
X198072489Y-86761206D01*
X198124000Y-86750000D01*
X198876000Y-86750000D01*
X198943039Y-86769685D01*
X198988794Y-86822489D01*
X199000000Y-86874000D01*
X199000000Y-87000000D01*
X205000000Y-87000000D01*
X205000000Y-86874000D01*
X205019685Y-86806961D01*
X205072489Y-86761206D01*
X205124000Y-86750000D01*
X205876000Y-86750000D01*
X205943039Y-86769685D01*
X205988794Y-86822489D01*
X206000000Y-86874000D01*
X206000000Y-87000000D01*
X212000000Y-87000000D01*
X212000000Y-86874000D01*
X212019685Y-86806961D01*
X212072489Y-86761206D01*
X212124000Y-86750000D01*
X212876000Y-86750000D01*
X212943039Y-86769685D01*
X212988794Y-86822489D01*
X213000000Y-86874000D01*
X213000000Y-87000000D01*
X219000000Y-87000000D01*
X219000000Y-86874000D01*
X219019685Y-86806961D01*
X219072489Y-86761206D01*
X219124000Y-86750000D01*
X219876000Y-86750000D01*
X219943039Y-86769685D01*
X219988794Y-86822489D01*
X220000000Y-86874000D01*
X220000000Y-87000000D01*
X225876000Y-87000000D01*
X225943039Y-87019685D01*
X225988794Y-87072489D01*
X226000000Y-87124000D01*
X226000000Y-87876000D01*
X225980315Y-87943039D01*
X225927511Y-87988794D01*
X225876000Y-88000000D01*
X220000000Y-88000000D01*
X220000000Y-88126000D01*
X219980315Y-88193039D01*
X219927511Y-88238794D01*
X219876000Y-88250000D01*
X219124000Y-88250000D01*
X219056961Y-88230315D01*
X219011206Y-88177511D01*
X219000000Y-88126000D01*
X219000000Y-88000000D01*
X213000000Y-88000000D01*
X213000000Y-88126000D01*
X212980315Y-88193039D01*
X212927511Y-88238794D01*
X212876000Y-88250000D01*
X212124000Y-88250000D01*
X212056961Y-88230315D01*
X212011206Y-88177511D01*
X212000000Y-88126000D01*
X212000000Y-88000000D01*
X206000000Y-88000000D01*
X206000000Y-88126000D01*
X205980315Y-88193039D01*
X205927511Y-88238794D01*
X205876000Y-88250000D01*
X205124000Y-88250000D01*
X205056961Y-88230315D01*
X205011206Y-88177511D01*
X205000000Y-88126000D01*
X205000000Y-88000000D01*
X199000000Y-88000000D01*
X199000000Y-88126000D01*
X198980315Y-88193039D01*
X198927511Y-88238794D01*
X198876000Y-88250000D01*
X198124000Y-88250000D01*
X198056961Y-88230315D01*
X198011206Y-88177511D01*
X198000000Y-88126000D01*
X198000000Y-88000000D01*
X192000000Y-88000000D01*
X192000000Y-88126000D01*
X191980315Y-88193039D01*
X191927511Y-88238794D01*
X191876000Y-88250000D01*
X191124000Y-88250000D01*
X191056961Y-88230315D01*
X191011206Y-88177511D01*
X191000000Y-88126000D01*
X191000000Y-88000000D01*
X185000000Y-88000000D01*
X185000000Y-88126000D01*
X184980315Y-88193039D01*
X184927511Y-88238794D01*
X184876000Y-88250000D01*
X184124000Y-88250000D01*
X184056961Y-88230315D01*
X184011206Y-88177511D01*
X184000000Y-88126000D01*
X184000000Y-88000000D01*
X178000000Y-88000000D01*
X178000000Y-88126000D01*
X177980315Y-88193039D01*
X177927511Y-88238794D01*
X177876000Y-88250000D01*
X177124000Y-88250000D01*
X177056961Y-88230315D01*
X177011206Y-88177511D01*
X177000000Y-88126000D01*
X177000000Y-88000000D01*
X171000000Y-88000000D01*
X171000000Y-88126000D01*
X170980315Y-88193039D01*
X170927511Y-88238794D01*
X170876000Y-88250000D01*
X170124000Y-88250000D01*
X170056961Y-88230315D01*
X170011206Y-88177511D01*
X170000000Y-88126000D01*
X170000000Y-88000000D01*
X164000000Y-88000000D01*
X164000000Y-88126000D01*
X163980315Y-88193039D01*
X163927511Y-88238794D01*
X163876000Y-88250000D01*
X163124000Y-88250000D01*
X163056961Y-88230315D01*
X163011206Y-88177511D01*
X163000000Y-88126000D01*
X163000000Y-88000000D01*
X157000000Y-88000000D01*
X157000000Y-88126000D01*
X156980315Y-88193039D01*
X156927511Y-88238794D01*
X156876000Y-88250000D01*
X156124000Y-88250000D01*
X156056961Y-88230315D01*
X156011206Y-88177511D01*
X156000000Y-88126000D01*
X156000000Y-88000000D01*
X150124000Y-88000000D01*
X150056961Y-87980315D01*
X150011206Y-87927511D01*
X150000000Y-87876000D01*
X150000000Y-87124000D01*
X150019685Y-87056961D01*
X150072489Y-87011206D01*
X150124000Y-87000000D01*
X156000000Y-87000000D01*
X156000000Y-86874000D01*
X156019685Y-86806961D01*
X156072489Y-86761206D01*
X156124000Y-86750000D01*
X156876000Y-86750000D01*
X156943039Y-86769685D01*
G37*
G36*
X156943039Y-80769685D02*
G01*
X156988794Y-80822489D01*
X157000000Y-80874000D01*
X157000000Y-81000000D01*
X163000000Y-81000000D01*
X163000000Y-80874000D01*
X163019685Y-80806961D01*
X163072489Y-80761206D01*
X163124000Y-80750000D01*
X163876000Y-80750000D01*
X163943039Y-80769685D01*
X163988794Y-80822489D01*
X164000000Y-80874000D01*
X164000000Y-81000000D01*
X170000000Y-81000000D01*
X170000000Y-80874000D01*
X170019685Y-80806961D01*
X170072489Y-80761206D01*
X170124000Y-80750000D01*
X170876000Y-80750000D01*
X170943039Y-80769685D01*
X170988794Y-80822489D01*
X171000000Y-80874000D01*
X171000000Y-81000000D01*
X177000000Y-81000000D01*
X177000000Y-80874000D01*
X177019685Y-80806961D01*
X177072489Y-80761206D01*
X177124000Y-80750000D01*
X177876000Y-80750000D01*
X177943039Y-80769685D01*
X177988794Y-80822489D01*
X178000000Y-80874000D01*
X178000000Y-81000000D01*
X184000000Y-81000000D01*
X184000000Y-80874000D01*
X184019685Y-80806961D01*
X184072489Y-80761206D01*
X184124000Y-80750000D01*
X184876000Y-80750000D01*
X184943039Y-80769685D01*
X184988794Y-80822489D01*
X185000000Y-80874000D01*
X185000000Y-81000000D01*
X191000000Y-81000000D01*
X191000000Y-80874000D01*
X191019685Y-80806961D01*
X191072489Y-80761206D01*
X191124000Y-80750000D01*
X191876000Y-80750000D01*
X191943039Y-80769685D01*
X191988794Y-80822489D01*
X192000000Y-80874000D01*
X192000000Y-81000000D01*
X198000000Y-81000000D01*
X198000000Y-80874000D01*
X198019685Y-80806961D01*
X198072489Y-80761206D01*
X198124000Y-80750000D01*
X198876000Y-80750000D01*
X198943039Y-80769685D01*
X198988794Y-80822489D01*
X199000000Y-80874000D01*
X199000000Y-81000000D01*
X205000000Y-81000000D01*
X205000000Y-80874000D01*
X205019685Y-80806961D01*
X205072489Y-80761206D01*
X205124000Y-80750000D01*
X205876000Y-80750000D01*
X205943039Y-80769685D01*
X205988794Y-80822489D01*
X206000000Y-80874000D01*
X206000000Y-81000000D01*
X212000000Y-81000000D01*
X212000000Y-80874000D01*
X212019685Y-80806961D01*
X212072489Y-80761206D01*
X212124000Y-80750000D01*
X212876000Y-80750000D01*
X212943039Y-80769685D01*
X212988794Y-80822489D01*
X213000000Y-80874000D01*
X213000000Y-81000000D01*
X219000000Y-81000000D01*
X219000000Y-80874000D01*
X219019685Y-80806961D01*
X219072489Y-80761206D01*
X219124000Y-80750000D01*
X219876000Y-80750000D01*
X219943039Y-80769685D01*
X219988794Y-80822489D01*
X220000000Y-80874000D01*
X220000000Y-81000000D01*
X225876000Y-81000000D01*
X225943039Y-81019685D01*
X225988794Y-81072489D01*
X226000000Y-81124000D01*
X226000000Y-81876000D01*
X225980315Y-81943039D01*
X225927511Y-81988794D01*
X225876000Y-82000000D01*
X220000000Y-82000000D01*
X220000000Y-82126000D01*
X219980315Y-82193039D01*
X219927511Y-82238794D01*
X219876000Y-82250000D01*
X219124000Y-82250000D01*
X219056961Y-82230315D01*
X219011206Y-82177511D01*
X219000000Y-82126000D01*
X219000000Y-82000000D01*
X213000000Y-82000000D01*
X213000000Y-82126000D01*
X212980315Y-82193039D01*
X212927511Y-82238794D01*
X212876000Y-82250000D01*
X212124000Y-82250000D01*
X212056961Y-82230315D01*
X212011206Y-82177511D01*
X212000000Y-82126000D01*
X212000000Y-82000000D01*
X206000000Y-82000000D01*
X206000000Y-82126000D01*
X205980315Y-82193039D01*
X205927511Y-82238794D01*
X205876000Y-82250000D01*
X205124000Y-82250000D01*
X205056961Y-82230315D01*
X205011206Y-82177511D01*
X205000000Y-82126000D01*
X205000000Y-82000000D01*
X199000000Y-82000000D01*
X199000000Y-82126000D01*
X198980315Y-82193039D01*
X198927511Y-82238794D01*
X198876000Y-82250000D01*
X198124000Y-82250000D01*
X198056961Y-82230315D01*
X198011206Y-82177511D01*
X198000000Y-82126000D01*
X198000000Y-82000000D01*
X192000000Y-82000000D01*
X192000000Y-82126000D01*
X191980315Y-82193039D01*
X191927511Y-82238794D01*
X191876000Y-82250000D01*
X191124000Y-82250000D01*
X191056961Y-82230315D01*
X191011206Y-82177511D01*
X191000000Y-82126000D01*
X191000000Y-82000000D01*
X185000000Y-82000000D01*
X185000000Y-82126000D01*
X184980315Y-82193039D01*
X184927511Y-82238794D01*
X184876000Y-82250000D01*
X184124000Y-82250000D01*
X184056961Y-82230315D01*
X184011206Y-82177511D01*
X184000000Y-82126000D01*
X184000000Y-82000000D01*
X178000000Y-82000000D01*
X178000000Y-82126000D01*
X177980315Y-82193039D01*
X177927511Y-82238794D01*
X177876000Y-82250000D01*
X177124000Y-82250000D01*
X177056961Y-82230315D01*
X177011206Y-82177511D01*
X177000000Y-82126000D01*
X177000000Y-82000000D01*
X171000000Y-82000000D01*
X171000000Y-82126000D01*
X170980315Y-82193039D01*
X170927511Y-82238794D01*
X170876000Y-82250000D01*
X170124000Y-82250000D01*
X170056961Y-82230315D01*
X170011206Y-82177511D01*
X170000000Y-82126000D01*
X170000000Y-82000000D01*
X164000000Y-82000000D01*
X164000000Y-82126000D01*
X163980315Y-82193039D01*
X163927511Y-82238794D01*
X163876000Y-82250000D01*
X163124000Y-82250000D01*
X163056961Y-82230315D01*
X163011206Y-82177511D01*
X163000000Y-82126000D01*
X163000000Y-82000000D01*
X157000000Y-82000000D01*
X157000000Y-82126000D01*
X156980315Y-82193039D01*
X156927511Y-82238794D01*
X156876000Y-82250000D01*
X156124000Y-82250000D01*
X156056961Y-82230315D01*
X156011206Y-82177511D01*
X156000000Y-82126000D01*
X156000000Y-82000000D01*
X150124000Y-82000000D01*
X150056961Y-81980315D01*
X150011206Y-81927511D01*
X150000000Y-81876000D01*
X150000000Y-81124000D01*
X150019685Y-81056961D01*
X150072489Y-81011206D01*
X150124000Y-81000000D01*
X156000000Y-81000000D01*
X156000000Y-80874000D01*
X156019685Y-80806961D01*
X156072489Y-80761206D01*
X156124000Y-80750000D01*
X156876000Y-80750000D01*
X156943039Y-80769685D01*
G37*
G36*
X156943039Y-74769685D02*
G01*
X156988794Y-74822489D01*
X157000000Y-74874000D01*
X157000000Y-75000000D01*
X163000000Y-75000000D01*
X163000000Y-74874000D01*
X163019685Y-74806961D01*
X163072489Y-74761206D01*
X163124000Y-74750000D01*
X163876000Y-74750000D01*
X163943039Y-74769685D01*
X163988794Y-74822489D01*
X164000000Y-74874000D01*
X164000000Y-75000000D01*
X170000000Y-75000000D01*
X170000000Y-74874000D01*
X170019685Y-74806961D01*
X170072489Y-74761206D01*
X170124000Y-74750000D01*
X170876000Y-74750000D01*
X170943039Y-74769685D01*
X170988794Y-74822489D01*
X171000000Y-74874000D01*
X171000000Y-75000000D01*
X177000000Y-75000000D01*
X177000000Y-74874000D01*
X177019685Y-74806961D01*
X177072489Y-74761206D01*
X177124000Y-74750000D01*
X177876000Y-74750000D01*
X177943039Y-74769685D01*
X177988794Y-74822489D01*
X178000000Y-74874000D01*
X178000000Y-75000000D01*
X184000000Y-75000000D01*
X184000000Y-74874000D01*
X184019685Y-74806961D01*
X184072489Y-74761206D01*
X184124000Y-74750000D01*
X184876000Y-74750000D01*
X184943039Y-74769685D01*
X184988794Y-74822489D01*
X185000000Y-74874000D01*
X185000000Y-75000000D01*
X191000000Y-75000000D01*
X191000000Y-74874000D01*
X191019685Y-74806961D01*
X191072489Y-74761206D01*
X191124000Y-74750000D01*
X191876000Y-74750000D01*
X191943039Y-74769685D01*
X191988794Y-74822489D01*
X192000000Y-74874000D01*
X192000000Y-75000000D01*
X198000000Y-75000000D01*
X198000000Y-74874000D01*
X198019685Y-74806961D01*
X198072489Y-74761206D01*
X198124000Y-74750000D01*
X198876000Y-74750000D01*
X198943039Y-74769685D01*
X198988794Y-74822489D01*
X199000000Y-74874000D01*
X199000000Y-75000000D01*
X205000000Y-75000000D01*
X205000000Y-74874000D01*
X205019685Y-74806961D01*
X205072489Y-74761206D01*
X205124000Y-74750000D01*
X205876000Y-74750000D01*
X205943039Y-74769685D01*
X205988794Y-74822489D01*
X206000000Y-74874000D01*
X206000000Y-75000000D01*
X212000000Y-75000000D01*
X212000000Y-74874000D01*
X212019685Y-74806961D01*
X212072489Y-74761206D01*
X212124000Y-74750000D01*
X212876000Y-74750000D01*
X212943039Y-74769685D01*
X212988794Y-74822489D01*
X213000000Y-74874000D01*
X213000000Y-75000000D01*
X219000000Y-75000000D01*
X219000000Y-74874000D01*
X219019685Y-74806961D01*
X219072489Y-74761206D01*
X219124000Y-74750000D01*
X219876000Y-74750000D01*
X219943039Y-74769685D01*
X219988794Y-74822489D01*
X220000000Y-74874000D01*
X220000000Y-75000000D01*
X225876000Y-75000000D01*
X225943039Y-75019685D01*
X225988794Y-75072489D01*
X226000000Y-75124000D01*
X226000000Y-75876000D01*
X225980315Y-75943039D01*
X225927511Y-75988794D01*
X225876000Y-76000000D01*
X220000000Y-76000000D01*
X220000000Y-76126000D01*
X219980315Y-76193039D01*
X219927511Y-76238794D01*
X219876000Y-76250000D01*
X219124000Y-76250000D01*
X219056961Y-76230315D01*
X219011206Y-76177511D01*
X219000000Y-76126000D01*
X219000000Y-76000000D01*
X213000000Y-76000000D01*
X213000000Y-76126000D01*
X212980315Y-76193039D01*
X212927511Y-76238794D01*
X212876000Y-76250000D01*
X212124000Y-76250000D01*
X212056961Y-76230315D01*
X212011206Y-76177511D01*
X212000000Y-76126000D01*
X212000000Y-76000000D01*
X206000000Y-76000000D01*
X206000000Y-76126000D01*
X205980315Y-76193039D01*
X205927511Y-76238794D01*
X205876000Y-76250000D01*
X205124000Y-76250000D01*
X205056961Y-76230315D01*
X205011206Y-76177511D01*
X205000000Y-76126000D01*
X205000000Y-76000000D01*
X199000000Y-76000000D01*
X199000000Y-76126000D01*
X198980315Y-76193039D01*
X198927511Y-76238794D01*
X198876000Y-76250000D01*
X198124000Y-76250000D01*
X198056961Y-76230315D01*
X198011206Y-76177511D01*
X198000000Y-76126000D01*
X198000000Y-76000000D01*
X192000000Y-76000000D01*
X192000000Y-76126000D01*
X191980315Y-76193039D01*
X191927511Y-76238794D01*
X191876000Y-76250000D01*
X191124000Y-76250000D01*
X191056961Y-76230315D01*
X191011206Y-76177511D01*
X191000000Y-76126000D01*
X191000000Y-76000000D01*
X185000000Y-76000000D01*
X185000000Y-76126000D01*
X184980315Y-76193039D01*
X184927511Y-76238794D01*
X184876000Y-76250000D01*
X184124000Y-76250000D01*
X184056961Y-76230315D01*
X184011206Y-76177511D01*
X184000000Y-76126000D01*
X184000000Y-76000000D01*
X178000000Y-76000000D01*
X178000000Y-76126000D01*
X177980315Y-76193039D01*
X177927511Y-76238794D01*
X177876000Y-76250000D01*
X177124000Y-76250000D01*
X177056961Y-76230315D01*
X177011206Y-76177511D01*
X177000000Y-76126000D01*
X177000000Y-76000000D01*
X171000000Y-76000000D01*
X171000000Y-76126000D01*
X170980315Y-76193039D01*
X170927511Y-76238794D01*
X170876000Y-76250000D01*
X170124000Y-76250000D01*
X170056961Y-76230315D01*
X170011206Y-76177511D01*
X170000000Y-76126000D01*
X170000000Y-76000000D01*
X164000000Y-76000000D01*
X164000000Y-76126000D01*
X163980315Y-76193039D01*
X163927511Y-76238794D01*
X163876000Y-76250000D01*
X163124000Y-76250000D01*
X163056961Y-76230315D01*
X163011206Y-76177511D01*
X163000000Y-76126000D01*
X163000000Y-76000000D01*
X157000000Y-76000000D01*
X157000000Y-76126000D01*
X156980315Y-76193039D01*
X156927511Y-76238794D01*
X156876000Y-76250000D01*
X156124000Y-76250000D01*
X156056961Y-76230315D01*
X156011206Y-76177511D01*
X156000000Y-76126000D01*
X156000000Y-76000000D01*
X150124000Y-76000000D01*
X150056961Y-75980315D01*
X150011206Y-75927511D01*
X150000000Y-75876000D01*
X150000000Y-75124000D01*
X150019685Y-75056961D01*
X150072489Y-75011206D01*
X150124000Y-75000000D01*
X156000000Y-75000000D01*
X156000000Y-74874000D01*
X156019685Y-74806961D01*
X156072489Y-74761206D01*
X156124000Y-74750000D01*
X156876000Y-74750000D01*
X156943039Y-74769685D01*
G37*
G36*
X156943039Y-68769685D02*
G01*
X156988794Y-68822489D01*
X157000000Y-68874000D01*
X157000000Y-69000000D01*
X163000000Y-69000000D01*
X163000000Y-68874000D01*
X163019685Y-68806961D01*
X163072489Y-68761206D01*
X163124000Y-68750000D01*
X163876000Y-68750000D01*
X163943039Y-68769685D01*
X163988794Y-68822489D01*
X164000000Y-68874000D01*
X164000000Y-69000000D01*
X170000000Y-69000000D01*
X170000000Y-68874000D01*
X170019685Y-68806961D01*
X170072489Y-68761206D01*
X170124000Y-68750000D01*
X170876000Y-68750000D01*
X170943039Y-68769685D01*
X170988794Y-68822489D01*
X171000000Y-68874000D01*
X171000000Y-69000000D01*
X177000000Y-69000000D01*
X177000000Y-68874000D01*
X177019685Y-68806961D01*
X177072489Y-68761206D01*
X177124000Y-68750000D01*
X177876000Y-68750000D01*
X177943039Y-68769685D01*
X177988794Y-68822489D01*
X178000000Y-68874000D01*
X178000000Y-69000000D01*
X184000000Y-69000000D01*
X184000000Y-68874000D01*
X184019685Y-68806961D01*
X184072489Y-68761206D01*
X184124000Y-68750000D01*
X184876000Y-68750000D01*
X184943039Y-68769685D01*
X184988794Y-68822489D01*
X185000000Y-68874000D01*
X185000000Y-69000000D01*
X191000000Y-69000000D01*
X191000000Y-68874000D01*
X191019685Y-68806961D01*
X191072489Y-68761206D01*
X191124000Y-68750000D01*
X191876000Y-68750000D01*
X191943039Y-68769685D01*
X191988794Y-68822489D01*
X192000000Y-68874000D01*
X192000000Y-69000000D01*
X198000000Y-69000000D01*
X198000000Y-68874000D01*
X198019685Y-68806961D01*
X198072489Y-68761206D01*
X198124000Y-68750000D01*
X198876000Y-68750000D01*
X198943039Y-68769685D01*
X198988794Y-68822489D01*
X199000000Y-68874000D01*
X199000000Y-69000000D01*
X205000000Y-69000000D01*
X205000000Y-68874000D01*
X205019685Y-68806961D01*
X205072489Y-68761206D01*
X205124000Y-68750000D01*
X205876000Y-68750000D01*
X205943039Y-68769685D01*
X205988794Y-68822489D01*
X206000000Y-68874000D01*
X206000000Y-69000000D01*
X212000000Y-69000000D01*
X212000000Y-68874000D01*
X212019685Y-68806961D01*
X212072489Y-68761206D01*
X212124000Y-68750000D01*
X212876000Y-68750000D01*
X212943039Y-68769685D01*
X212988794Y-68822489D01*
X213000000Y-68874000D01*
X213000000Y-69000000D01*
X219000000Y-69000000D01*
X219000000Y-68874000D01*
X219019685Y-68806961D01*
X219072489Y-68761206D01*
X219124000Y-68750000D01*
X219876000Y-68750000D01*
X219943039Y-68769685D01*
X219988794Y-68822489D01*
X220000000Y-68874000D01*
X220000000Y-69000000D01*
X225876000Y-69000000D01*
X225943039Y-69019685D01*
X225988794Y-69072489D01*
X226000000Y-69124000D01*
X226000000Y-69876000D01*
X225980315Y-69943039D01*
X225927511Y-69988794D01*
X225876000Y-70000000D01*
X220000000Y-70000000D01*
X220000000Y-70126000D01*
X219980315Y-70193039D01*
X219927511Y-70238794D01*
X219876000Y-70250000D01*
X219124000Y-70250000D01*
X219056961Y-70230315D01*
X219011206Y-70177511D01*
X219000000Y-70126000D01*
X219000000Y-70000000D01*
X213000000Y-70000000D01*
X213000000Y-70126000D01*
X212980315Y-70193039D01*
X212927511Y-70238794D01*
X212876000Y-70250000D01*
X212124000Y-70250000D01*
X212056961Y-70230315D01*
X212011206Y-70177511D01*
X212000000Y-70126000D01*
X212000000Y-70000000D01*
X206000000Y-70000000D01*
X206000000Y-70126000D01*
X205980315Y-70193039D01*
X205927511Y-70238794D01*
X205876000Y-70250000D01*
X205124000Y-70250000D01*
X205056961Y-70230315D01*
X205011206Y-70177511D01*
X205000000Y-70126000D01*
X205000000Y-70000000D01*
X199000000Y-70000000D01*
X199000000Y-70126000D01*
X198980315Y-70193039D01*
X198927511Y-70238794D01*
X198876000Y-70250000D01*
X198124000Y-70250000D01*
X198056961Y-70230315D01*
X198011206Y-70177511D01*
X198000000Y-70126000D01*
X198000000Y-70000000D01*
X192000000Y-70000000D01*
X192000000Y-70126000D01*
X191980315Y-70193039D01*
X191927511Y-70238794D01*
X191876000Y-70250000D01*
X191124000Y-70250000D01*
X191056961Y-70230315D01*
X191011206Y-70177511D01*
X191000000Y-70126000D01*
X191000000Y-70000000D01*
X185000000Y-70000000D01*
X185000000Y-70126000D01*
X184980315Y-70193039D01*
X184927511Y-70238794D01*
X184876000Y-70250000D01*
X184124000Y-70250000D01*
X184056961Y-70230315D01*
X184011206Y-70177511D01*
X184000000Y-70126000D01*
X184000000Y-70000000D01*
X178000000Y-70000000D01*
X178000000Y-70126000D01*
X177980315Y-70193039D01*
X177927511Y-70238794D01*
X177876000Y-70250000D01*
X177124000Y-70250000D01*
X177056961Y-70230315D01*
X177011206Y-70177511D01*
X177000000Y-70126000D01*
X177000000Y-70000000D01*
X171000000Y-70000000D01*
X171000000Y-70126000D01*
X170980315Y-70193039D01*
X170927511Y-70238794D01*
X170876000Y-70250000D01*
X170124000Y-70250000D01*
X170056961Y-70230315D01*
X170011206Y-70177511D01*
X170000000Y-70126000D01*
X170000000Y-70000000D01*
X164000000Y-70000000D01*
X164000000Y-70126000D01*
X163980315Y-70193039D01*
X163927511Y-70238794D01*
X163876000Y-70250000D01*
X163124000Y-70250000D01*
X163056961Y-70230315D01*
X163011206Y-70177511D01*
X163000000Y-70126000D01*
X163000000Y-70000000D01*
X157000000Y-70000000D01*
X157000000Y-70126000D01*
X156980315Y-70193039D01*
X156927511Y-70238794D01*
X156876000Y-70250000D01*
X156124000Y-70250000D01*
X156056961Y-70230315D01*
X156011206Y-70177511D01*
X156000000Y-70126000D01*
X156000000Y-70000000D01*
X150124000Y-70000000D01*
X150056961Y-69980315D01*
X150011206Y-69927511D01*
X150000000Y-69876000D01*
X150000000Y-69124000D01*
X150019685Y-69056961D01*
X150072489Y-69011206D01*
X150124000Y-69000000D01*
X156000000Y-69000000D01*
X156000000Y-68874000D01*
X156019685Y-68806961D01*
X156072489Y-68761206D01*
X156124000Y-68750000D01*
X156876000Y-68750000D01*
X156943039Y-68769685D01*
G37*
G36*
X156943039Y-62769685D02*
G01*
X156988794Y-62822489D01*
X157000000Y-62874000D01*
X157000000Y-63000000D01*
X163000000Y-63000000D01*
X163000000Y-62874000D01*
X163019685Y-62806961D01*
X163072489Y-62761206D01*
X163124000Y-62750000D01*
X163876000Y-62750000D01*
X163943039Y-62769685D01*
X163988794Y-62822489D01*
X164000000Y-62874000D01*
X164000000Y-63000000D01*
X170000000Y-63000000D01*
X170000000Y-62874000D01*
X170019685Y-62806961D01*
X170072489Y-62761206D01*
X170124000Y-62750000D01*
X170876000Y-62750000D01*
X170943039Y-62769685D01*
X170988794Y-62822489D01*
X171000000Y-62874000D01*
X171000000Y-63000000D01*
X177000000Y-63000000D01*
X177000000Y-62874000D01*
X177019685Y-62806961D01*
X177072489Y-62761206D01*
X177124000Y-62750000D01*
X177876000Y-62750000D01*
X177943039Y-62769685D01*
X177988794Y-62822489D01*
X178000000Y-62874000D01*
X178000000Y-63000000D01*
X184000000Y-63000000D01*
X184000000Y-62874000D01*
X184019685Y-62806961D01*
X184072489Y-62761206D01*
X184124000Y-62750000D01*
X184876000Y-62750000D01*
X184943039Y-62769685D01*
X184988794Y-62822489D01*
X185000000Y-62874000D01*
X185000000Y-63000000D01*
X191000000Y-63000000D01*
X191000000Y-62874000D01*
X191019685Y-62806961D01*
X191072489Y-62761206D01*
X191124000Y-62750000D01*
X191876000Y-62750000D01*
X191943039Y-62769685D01*
X191988794Y-62822489D01*
X192000000Y-62874000D01*
X192000000Y-63000000D01*
X198000000Y-63000000D01*
X198000000Y-62874000D01*
X198019685Y-62806961D01*
X198072489Y-62761206D01*
X198124000Y-62750000D01*
X198876000Y-62750000D01*
X198943039Y-62769685D01*
X198988794Y-62822489D01*
X199000000Y-62874000D01*
X199000000Y-63000000D01*
X205000000Y-63000000D01*
X205000000Y-62874000D01*
X205019685Y-62806961D01*
X205072489Y-62761206D01*
X205124000Y-62750000D01*
X205876000Y-62750000D01*
X205943039Y-62769685D01*
X205988794Y-62822489D01*
X206000000Y-62874000D01*
X206000000Y-63000000D01*
X212000000Y-63000000D01*
X212000000Y-62874000D01*
X212019685Y-62806961D01*
X212072489Y-62761206D01*
X212124000Y-62750000D01*
X212876000Y-62750000D01*
X212943039Y-62769685D01*
X212988794Y-62822489D01*
X213000000Y-62874000D01*
X213000000Y-63000000D01*
X219000000Y-63000000D01*
X219000000Y-62874000D01*
X219019685Y-62806961D01*
X219072489Y-62761206D01*
X219124000Y-62750000D01*
X219876000Y-62750000D01*
X219943039Y-62769685D01*
X219988794Y-62822489D01*
X220000000Y-62874000D01*
X220000000Y-63000000D01*
X225876000Y-63000000D01*
X225943039Y-63019685D01*
X225988794Y-63072489D01*
X226000000Y-63124000D01*
X226000000Y-63876000D01*
X225980315Y-63943039D01*
X225927511Y-63988794D01*
X225876000Y-64000000D01*
X220000000Y-64000000D01*
X220000000Y-64126000D01*
X219980315Y-64193039D01*
X219927511Y-64238794D01*
X219876000Y-64250000D01*
X219124000Y-64250000D01*
X219056961Y-64230315D01*
X219011206Y-64177511D01*
X219000000Y-64126000D01*
X219000000Y-64000000D01*
X213000000Y-64000000D01*
X213000000Y-64126000D01*
X212980315Y-64193039D01*
X212927511Y-64238794D01*
X212876000Y-64250000D01*
X212124000Y-64250000D01*
X212056961Y-64230315D01*
X212011206Y-64177511D01*
X212000000Y-64126000D01*
X212000000Y-64000000D01*
X206000000Y-64000000D01*
X206000000Y-64126000D01*
X205980315Y-64193039D01*
X205927511Y-64238794D01*
X205876000Y-64250000D01*
X205124000Y-64250000D01*
X205056961Y-64230315D01*
X205011206Y-64177511D01*
X205000000Y-64126000D01*
X205000000Y-64000000D01*
X199000000Y-64000000D01*
X199000000Y-64126000D01*
X198980315Y-64193039D01*
X198927511Y-64238794D01*
X198876000Y-64250000D01*
X198124000Y-64250000D01*
X198056961Y-64230315D01*
X198011206Y-64177511D01*
X198000000Y-64126000D01*
X198000000Y-64000000D01*
X192000000Y-64000000D01*
X192000000Y-64126000D01*
X191980315Y-64193039D01*
X191927511Y-64238794D01*
X191876000Y-64250000D01*
X191124000Y-64250000D01*
X191056961Y-64230315D01*
X191011206Y-64177511D01*
X191000000Y-64126000D01*
X191000000Y-64000000D01*
X185000000Y-64000000D01*
X185000000Y-64126000D01*
X184980315Y-64193039D01*
X184927511Y-64238794D01*
X184876000Y-64250000D01*
X184124000Y-64250000D01*
X184056961Y-64230315D01*
X184011206Y-64177511D01*
X184000000Y-64126000D01*
X184000000Y-64000000D01*
X178000000Y-64000000D01*
X178000000Y-64126000D01*
X177980315Y-64193039D01*
X177927511Y-64238794D01*
X177876000Y-64250000D01*
X177124000Y-64250000D01*
X177056961Y-64230315D01*
X177011206Y-64177511D01*
X177000000Y-64126000D01*
X177000000Y-64000000D01*
X171000000Y-64000000D01*
X171000000Y-64126000D01*
X170980315Y-64193039D01*
X170927511Y-64238794D01*
X170876000Y-64250000D01*
X170124000Y-64250000D01*
X170056961Y-64230315D01*
X170011206Y-64177511D01*
X170000000Y-64126000D01*
X170000000Y-64000000D01*
X164000000Y-64000000D01*
X164000000Y-64126000D01*
X163980315Y-64193039D01*
X163927511Y-64238794D01*
X163876000Y-64250000D01*
X163124000Y-64250000D01*
X163056961Y-64230315D01*
X163011206Y-64177511D01*
X163000000Y-64126000D01*
X163000000Y-64000000D01*
X157000000Y-64000000D01*
X157000000Y-64126000D01*
X156980315Y-64193039D01*
X156927511Y-64238794D01*
X156876000Y-64250000D01*
X156124000Y-64250000D01*
X156056961Y-64230315D01*
X156011206Y-64177511D01*
X156000000Y-64126000D01*
X156000000Y-64000000D01*
X150124000Y-64000000D01*
X150056961Y-63980315D01*
X150011206Y-63927511D01*
X150000000Y-63876000D01*
X150000000Y-63124000D01*
X150019685Y-63056961D01*
X150072489Y-63011206D01*
X150124000Y-63000000D01*
X156000000Y-63000000D01*
X156000000Y-62874000D01*
X156019685Y-62806961D01*
X156072489Y-62761206D01*
X156124000Y-62750000D01*
X156876000Y-62750000D01*
X156943039Y-62769685D01*
G37*
G36*
X156943039Y-56769685D02*
G01*
X156988794Y-56822489D01*
X157000000Y-56874000D01*
X157000000Y-57000000D01*
X163000000Y-57000000D01*
X163000000Y-56874000D01*
X163019685Y-56806961D01*
X163072489Y-56761206D01*
X163124000Y-56750000D01*
X163876000Y-56750000D01*
X163943039Y-56769685D01*
X163988794Y-56822489D01*
X164000000Y-56874000D01*
X164000000Y-57000000D01*
X170000000Y-57000000D01*
X170000000Y-56874000D01*
X170019685Y-56806961D01*
X170072489Y-56761206D01*
X170124000Y-56750000D01*
X170876000Y-56750000D01*
X170943039Y-56769685D01*
X170988794Y-56822489D01*
X171000000Y-56874000D01*
X171000000Y-57000000D01*
X177000000Y-57000000D01*
X177000000Y-56874000D01*
X177019685Y-56806961D01*
X177072489Y-56761206D01*
X177124000Y-56750000D01*
X177876000Y-56750000D01*
X177943039Y-56769685D01*
X177988794Y-56822489D01*
X178000000Y-56874000D01*
X178000000Y-57000000D01*
X184000000Y-57000000D01*
X184000000Y-56874000D01*
X184019685Y-56806961D01*
X184072489Y-56761206D01*
X184124000Y-56750000D01*
X184876000Y-56750000D01*
X184943039Y-56769685D01*
X184988794Y-56822489D01*
X185000000Y-56874000D01*
X185000000Y-57000000D01*
X191000000Y-57000000D01*
X191000000Y-56874000D01*
X191019685Y-56806961D01*
X191072489Y-56761206D01*
X191124000Y-56750000D01*
X191876000Y-56750000D01*
X191943039Y-56769685D01*
X191988794Y-56822489D01*
X192000000Y-56874000D01*
X192000000Y-57000000D01*
X198000000Y-57000000D01*
X198000000Y-56874000D01*
X198019685Y-56806961D01*
X198072489Y-56761206D01*
X198124000Y-56750000D01*
X198876000Y-56750000D01*
X198943039Y-56769685D01*
X198988794Y-56822489D01*
X199000000Y-56874000D01*
X199000000Y-57000000D01*
X205000000Y-57000000D01*
X205000000Y-56874000D01*
X205019685Y-56806961D01*
X205072489Y-56761206D01*
X205124000Y-56750000D01*
X205876000Y-56750000D01*
X205943039Y-56769685D01*
X205988794Y-56822489D01*
X206000000Y-56874000D01*
X206000000Y-57000000D01*
X212000000Y-57000000D01*
X212000000Y-56874000D01*
X212019685Y-56806961D01*
X212072489Y-56761206D01*
X212124000Y-56750000D01*
X212876000Y-56750000D01*
X212943039Y-56769685D01*
X212988794Y-56822489D01*
X213000000Y-56874000D01*
X213000000Y-57000000D01*
X219000000Y-57000000D01*
X219000000Y-56874000D01*
X219019685Y-56806961D01*
X219072489Y-56761206D01*
X219124000Y-56750000D01*
X219876000Y-56750000D01*
X219943039Y-56769685D01*
X219988794Y-56822489D01*
X220000000Y-56874000D01*
X220000000Y-57000000D01*
X225876000Y-57000000D01*
X225943039Y-57019685D01*
X225988794Y-57072489D01*
X226000000Y-57124000D01*
X226000000Y-57876000D01*
X225980315Y-57943039D01*
X225927511Y-57988794D01*
X225876000Y-58000000D01*
X220000000Y-58000000D01*
X220000000Y-58126000D01*
X219980315Y-58193039D01*
X219927511Y-58238794D01*
X219876000Y-58250000D01*
X219124000Y-58250000D01*
X219056961Y-58230315D01*
X219011206Y-58177511D01*
X219000000Y-58126000D01*
X219000000Y-58000000D01*
X213000000Y-58000000D01*
X213000000Y-58126000D01*
X212980315Y-58193039D01*
X212927511Y-58238794D01*
X212876000Y-58250000D01*
X212124000Y-58250000D01*
X212056961Y-58230315D01*
X212011206Y-58177511D01*
X212000000Y-58126000D01*
X212000000Y-58000000D01*
X206000000Y-58000000D01*
X206000000Y-58126000D01*
X205980315Y-58193039D01*
X205927511Y-58238794D01*
X205876000Y-58250000D01*
X205124000Y-58250000D01*
X205056961Y-58230315D01*
X205011206Y-58177511D01*
X205000000Y-58126000D01*
X205000000Y-58000000D01*
X199000000Y-58000000D01*
X199000000Y-58126000D01*
X198980315Y-58193039D01*
X198927511Y-58238794D01*
X198876000Y-58250000D01*
X198124000Y-58250000D01*
X198056961Y-58230315D01*
X198011206Y-58177511D01*
X198000000Y-58126000D01*
X198000000Y-58000000D01*
X192000000Y-58000000D01*
X192000000Y-58126000D01*
X191980315Y-58193039D01*
X191927511Y-58238794D01*
X191876000Y-58250000D01*
X191124000Y-58250000D01*
X191056961Y-58230315D01*
X191011206Y-58177511D01*
X191000000Y-58126000D01*
X191000000Y-58000000D01*
X185000000Y-58000000D01*
X185000000Y-58126000D01*
X184980315Y-58193039D01*
X184927511Y-58238794D01*
X184876000Y-58250000D01*
X184124000Y-58250000D01*
X184056961Y-58230315D01*
X184011206Y-58177511D01*
X184000000Y-58126000D01*
X184000000Y-58000000D01*
X178000000Y-58000000D01*
X178000000Y-58126000D01*
X177980315Y-58193039D01*
X177927511Y-58238794D01*
X177876000Y-58250000D01*
X177124000Y-58250000D01*
X177056961Y-58230315D01*
X177011206Y-58177511D01*
X177000000Y-58126000D01*
X177000000Y-58000000D01*
X171000000Y-58000000D01*
X171000000Y-58126000D01*
X170980315Y-58193039D01*
X170927511Y-58238794D01*
X170876000Y-58250000D01*
X170124000Y-58250000D01*
X170056961Y-58230315D01*
X170011206Y-58177511D01*
X170000000Y-58126000D01*
X170000000Y-58000000D01*
X164000000Y-58000000D01*
X164000000Y-58126000D01*
X163980315Y-58193039D01*
X163927511Y-58238794D01*
X163876000Y-58250000D01*
X163124000Y-58250000D01*
X163056961Y-58230315D01*
X163011206Y-58177511D01*
X163000000Y-58126000D01*
X163000000Y-58000000D01*
X157000000Y-58000000D01*
X157000000Y-58126000D01*
X156980315Y-58193039D01*
X156927511Y-58238794D01*
X156876000Y-58250000D01*
X156124000Y-58250000D01*
X156056961Y-58230315D01*
X156011206Y-58177511D01*
X156000000Y-58126000D01*
X156000000Y-58000000D01*
X150124000Y-58000000D01*
X150056961Y-57980315D01*
X150011206Y-57927511D01*
X150000000Y-57876000D01*
X150000000Y-57124000D01*
X150019685Y-57056961D01*
X150072489Y-57011206D01*
X150124000Y-57000000D01*
X156000000Y-57000000D01*
X156000000Y-56874000D01*
X156019685Y-56806961D01*
X156072489Y-56761206D01*
X156124000Y-56750000D01*
X156876000Y-56750000D01*
X156943039Y-56769685D01*
G37*
G36*
X156943039Y-50769685D02*
G01*
X156988794Y-50822489D01*
X157000000Y-50874000D01*
X157000000Y-51000000D01*
X163000000Y-51000000D01*
X163000000Y-50874000D01*
X163019685Y-50806961D01*
X163072489Y-50761206D01*
X163124000Y-50750000D01*
X163876000Y-50750000D01*
X163943039Y-50769685D01*
X163988794Y-50822489D01*
X164000000Y-50874000D01*
X164000000Y-51000000D01*
X170000000Y-51000000D01*
X170000000Y-50874000D01*
X170019685Y-50806961D01*
X170072489Y-50761206D01*
X170124000Y-50750000D01*
X170876000Y-50750000D01*
X170943039Y-50769685D01*
X170988794Y-50822489D01*
X171000000Y-50874000D01*
X171000000Y-51000000D01*
X177000000Y-51000000D01*
X177000000Y-50874000D01*
X177019685Y-50806961D01*
X177072489Y-50761206D01*
X177124000Y-50750000D01*
X177876000Y-50750000D01*
X177943039Y-50769685D01*
X177988794Y-50822489D01*
X178000000Y-50874000D01*
X178000000Y-51000000D01*
X184000000Y-51000000D01*
X184000000Y-50874000D01*
X184019685Y-50806961D01*
X184072489Y-50761206D01*
X184124000Y-50750000D01*
X184876000Y-50750000D01*
X184943039Y-50769685D01*
X184988794Y-50822489D01*
X185000000Y-50874000D01*
X185000000Y-51000000D01*
X191000000Y-51000000D01*
X191000000Y-50874000D01*
X191019685Y-50806961D01*
X191072489Y-50761206D01*
X191124000Y-50750000D01*
X191876000Y-50750000D01*
X191943039Y-50769685D01*
X191988794Y-50822489D01*
X192000000Y-50874000D01*
X192000000Y-51000000D01*
X198000000Y-51000000D01*
X198000000Y-50874000D01*
X198019685Y-50806961D01*
X198072489Y-50761206D01*
X198124000Y-50750000D01*
X198876000Y-50750000D01*
X198943039Y-50769685D01*
X198988794Y-50822489D01*
X199000000Y-50874000D01*
X199000000Y-51000000D01*
X205000000Y-51000000D01*
X205000000Y-50874000D01*
X205019685Y-50806961D01*
X205072489Y-50761206D01*
X205124000Y-50750000D01*
X205876000Y-50750000D01*
X205943039Y-50769685D01*
X205988794Y-50822489D01*
X206000000Y-50874000D01*
X206000000Y-51000000D01*
X212000000Y-51000000D01*
X212000000Y-50874000D01*
X212019685Y-50806961D01*
X212072489Y-50761206D01*
X212124000Y-50750000D01*
X212876000Y-50750000D01*
X212943039Y-50769685D01*
X212988794Y-50822489D01*
X213000000Y-50874000D01*
X213000000Y-51000000D01*
X219000000Y-51000000D01*
X219000000Y-50874000D01*
X219019685Y-50806961D01*
X219072489Y-50761206D01*
X219124000Y-50750000D01*
X219876000Y-50750000D01*
X219943039Y-50769685D01*
X219988794Y-50822489D01*
X220000000Y-50874000D01*
X220000000Y-51000000D01*
X225876000Y-51000000D01*
X225943039Y-51019685D01*
X225988794Y-51072489D01*
X226000000Y-51124000D01*
X226000000Y-51876000D01*
X225980315Y-51943039D01*
X225927511Y-51988794D01*
X225876000Y-52000000D01*
X220000000Y-52000000D01*
X220000000Y-52126000D01*
X219980315Y-52193039D01*
X219927511Y-52238794D01*
X219876000Y-52250000D01*
X219124000Y-52250000D01*
X219056961Y-52230315D01*
X219011206Y-52177511D01*
X219000000Y-52126000D01*
X219000000Y-52000000D01*
X213000000Y-52000000D01*
X213000000Y-52126000D01*
X212980315Y-52193039D01*
X212927511Y-52238794D01*
X212876000Y-52250000D01*
X212124000Y-52250000D01*
X212056961Y-52230315D01*
X212011206Y-52177511D01*
X212000000Y-52126000D01*
X212000000Y-52000000D01*
X206000000Y-52000000D01*
X206000000Y-52126000D01*
X205980315Y-52193039D01*
X205927511Y-52238794D01*
X205876000Y-52250000D01*
X205124000Y-52250000D01*
X205056961Y-52230315D01*
X205011206Y-52177511D01*
X205000000Y-52126000D01*
X205000000Y-52000000D01*
X199000000Y-52000000D01*
X199000000Y-52126000D01*
X198980315Y-52193039D01*
X198927511Y-52238794D01*
X198876000Y-52250000D01*
X198124000Y-52250000D01*
X198056961Y-52230315D01*
X198011206Y-52177511D01*
X198000000Y-52126000D01*
X198000000Y-52000000D01*
X192000000Y-52000000D01*
X192000000Y-52126000D01*
X191980315Y-52193039D01*
X191927511Y-52238794D01*
X191876000Y-52250000D01*
X191124000Y-52250000D01*
X191056961Y-52230315D01*
X191011206Y-52177511D01*
X191000000Y-52126000D01*
X191000000Y-52000000D01*
X185000000Y-52000000D01*
X185000000Y-52126000D01*
X184980315Y-52193039D01*
X184927511Y-52238794D01*
X184876000Y-52250000D01*
X184124000Y-52250000D01*
X184056961Y-52230315D01*
X184011206Y-52177511D01*
X184000000Y-52126000D01*
X184000000Y-52000000D01*
X178000000Y-52000000D01*
X178000000Y-52126000D01*
X177980315Y-52193039D01*
X177927511Y-52238794D01*
X177876000Y-52250000D01*
X177124000Y-52250000D01*
X177056961Y-52230315D01*
X177011206Y-52177511D01*
X177000000Y-52126000D01*
X177000000Y-52000000D01*
X171000000Y-52000000D01*
X171000000Y-52126000D01*
X170980315Y-52193039D01*
X170927511Y-52238794D01*
X170876000Y-52250000D01*
X170124000Y-52250000D01*
X170056961Y-52230315D01*
X170011206Y-52177511D01*
X170000000Y-52126000D01*
X170000000Y-52000000D01*
X164000000Y-52000000D01*
X164000000Y-52126000D01*
X163980315Y-52193039D01*
X163927511Y-52238794D01*
X163876000Y-52250000D01*
X163124000Y-52250000D01*
X163056961Y-52230315D01*
X163011206Y-52177511D01*
X163000000Y-52126000D01*
X163000000Y-52000000D01*
X157000000Y-52000000D01*
X157000000Y-52126000D01*
X156980315Y-52193039D01*
X156927511Y-52238794D01*
X156876000Y-52250000D01*
X156124000Y-52250000D01*
X156056961Y-52230315D01*
X156011206Y-52177511D01*
X156000000Y-52126000D01*
X156000000Y-52000000D01*
X150124000Y-52000000D01*
X150056961Y-51980315D01*
X150011206Y-51927511D01*
X150000000Y-51876000D01*
X150000000Y-51124000D01*
X150019685Y-51056961D01*
X150072489Y-51011206D01*
X150124000Y-51000000D01*
X156000000Y-51000000D01*
X156000000Y-50874000D01*
X156019685Y-50806961D01*
X156072489Y-50761206D01*
X156124000Y-50750000D01*
X156876000Y-50750000D01*
X156943039Y-50769685D01*
G37*
G36*
X156943039Y-44769685D02*
G01*
X156988794Y-44822489D01*
X157000000Y-44874000D01*
X157000000Y-45000000D01*
X163000000Y-45000000D01*
X163000000Y-44874000D01*
X163019685Y-44806961D01*
X163072489Y-44761206D01*
X163124000Y-44750000D01*
X163876000Y-44750000D01*
X163943039Y-44769685D01*
X163988794Y-44822489D01*
X164000000Y-44874000D01*
X164000000Y-45000000D01*
X170000000Y-45000000D01*
X170000000Y-44874000D01*
X170019685Y-44806961D01*
X170072489Y-44761206D01*
X170124000Y-44750000D01*
X170876000Y-44750000D01*
X170943039Y-44769685D01*
X170988794Y-44822489D01*
X171000000Y-44874000D01*
X171000000Y-45000000D01*
X177000000Y-45000000D01*
X177000000Y-44874000D01*
X177019685Y-44806961D01*
X177072489Y-44761206D01*
X177124000Y-44750000D01*
X177876000Y-44750000D01*
X177943039Y-44769685D01*
X177988794Y-44822489D01*
X178000000Y-44874000D01*
X178000000Y-45000000D01*
X184000000Y-45000000D01*
X184000000Y-44874000D01*
X184019685Y-44806961D01*
X184072489Y-44761206D01*
X184124000Y-44750000D01*
X184876000Y-44750000D01*
X184943039Y-44769685D01*
X184988794Y-44822489D01*
X185000000Y-44874000D01*
X185000000Y-45000000D01*
X191000000Y-45000000D01*
X191000000Y-44874000D01*
X191019685Y-44806961D01*
X191072489Y-44761206D01*
X191124000Y-44750000D01*
X191876000Y-44750000D01*
X191943039Y-44769685D01*
X191988794Y-44822489D01*
X192000000Y-44874000D01*
X192000000Y-45000000D01*
X198000000Y-45000000D01*
X198000000Y-44874000D01*
X198019685Y-44806961D01*
X198072489Y-44761206D01*
X198124000Y-44750000D01*
X198876000Y-44750000D01*
X198943039Y-44769685D01*
X198988794Y-44822489D01*
X199000000Y-44874000D01*
X199000000Y-45000000D01*
X205000000Y-45000000D01*
X205000000Y-44874000D01*
X205019685Y-44806961D01*
X205072489Y-44761206D01*
X205124000Y-44750000D01*
X205876000Y-44750000D01*
X205943039Y-44769685D01*
X205988794Y-44822489D01*
X206000000Y-44874000D01*
X206000000Y-45000000D01*
X212000000Y-45000000D01*
X212000000Y-44874000D01*
X212019685Y-44806961D01*
X212072489Y-44761206D01*
X212124000Y-44750000D01*
X212876000Y-44750000D01*
X212943039Y-44769685D01*
X212988794Y-44822489D01*
X213000000Y-44874000D01*
X213000000Y-45000000D01*
X219000000Y-45000000D01*
X219000000Y-44874000D01*
X219019685Y-44806961D01*
X219072489Y-44761206D01*
X219124000Y-44750000D01*
X219876000Y-44750000D01*
X219943039Y-44769685D01*
X219988794Y-44822489D01*
X220000000Y-44874000D01*
X220000000Y-45000000D01*
X225876000Y-45000000D01*
X225943039Y-45019685D01*
X225988794Y-45072489D01*
X226000000Y-45124000D01*
X226000000Y-45876000D01*
X225980315Y-45943039D01*
X225927511Y-45988794D01*
X225876000Y-46000000D01*
X220000000Y-46000000D01*
X220000000Y-46126000D01*
X219980315Y-46193039D01*
X219927511Y-46238794D01*
X219876000Y-46250000D01*
X219124000Y-46250000D01*
X219056961Y-46230315D01*
X219011206Y-46177511D01*
X219000000Y-46126000D01*
X219000000Y-46000000D01*
X213000000Y-46000000D01*
X213000000Y-46126000D01*
X212980315Y-46193039D01*
X212927511Y-46238794D01*
X212876000Y-46250000D01*
X212124000Y-46250000D01*
X212056961Y-46230315D01*
X212011206Y-46177511D01*
X212000000Y-46126000D01*
X212000000Y-46000000D01*
X206000000Y-46000000D01*
X206000000Y-46126000D01*
X205980315Y-46193039D01*
X205927511Y-46238794D01*
X205876000Y-46250000D01*
X205124000Y-46250000D01*
X205056961Y-46230315D01*
X205011206Y-46177511D01*
X205000000Y-46126000D01*
X205000000Y-46000000D01*
X199000000Y-46000000D01*
X199000000Y-46126000D01*
X198980315Y-46193039D01*
X198927511Y-46238794D01*
X198876000Y-46250000D01*
X198124000Y-46250000D01*
X198056961Y-46230315D01*
X198011206Y-46177511D01*
X198000000Y-46126000D01*
X198000000Y-46000000D01*
X192000000Y-46000000D01*
X192000000Y-46126000D01*
X191980315Y-46193039D01*
X191927511Y-46238794D01*
X191876000Y-46250000D01*
X191124000Y-46250000D01*
X191056961Y-46230315D01*
X191011206Y-46177511D01*
X191000000Y-46126000D01*
X191000000Y-46000000D01*
X185000000Y-46000000D01*
X185000000Y-46126000D01*
X184980315Y-46193039D01*
X184927511Y-46238794D01*
X184876000Y-46250000D01*
X184124000Y-46250000D01*
X184056961Y-46230315D01*
X184011206Y-46177511D01*
X184000000Y-46126000D01*
X184000000Y-46000000D01*
X178000000Y-46000000D01*
X178000000Y-46126000D01*
X177980315Y-46193039D01*
X177927511Y-46238794D01*
X177876000Y-46250000D01*
X177124000Y-46250000D01*
X177056961Y-46230315D01*
X177011206Y-46177511D01*
X177000000Y-46126000D01*
X177000000Y-46000000D01*
X171000000Y-46000000D01*
X171000000Y-46126000D01*
X170980315Y-46193039D01*
X170927511Y-46238794D01*
X170876000Y-46250000D01*
X170124000Y-46250000D01*
X170056961Y-46230315D01*
X170011206Y-46177511D01*
X170000000Y-46126000D01*
X170000000Y-46000000D01*
X164000000Y-46000000D01*
X164000000Y-46126000D01*
X163980315Y-46193039D01*
X163927511Y-46238794D01*
X163876000Y-46250000D01*
X163124000Y-46250000D01*
X163056961Y-46230315D01*
X163011206Y-46177511D01*
X163000000Y-46126000D01*
X163000000Y-46000000D01*
X157000000Y-46000000D01*
X157000000Y-46126000D01*
X156980315Y-46193039D01*
X156927511Y-46238794D01*
X156876000Y-46250000D01*
X156124000Y-46250000D01*
X156056961Y-46230315D01*
X156011206Y-46177511D01*
X156000000Y-46126000D01*
X156000000Y-46000000D01*
X150124000Y-46000000D01*
X150056961Y-45980315D01*
X150011206Y-45927511D01*
X150000000Y-45876000D01*
X150000000Y-45124000D01*
X150019685Y-45056961D01*
X150072489Y-45011206D01*
X150124000Y-45000000D01*
X156000000Y-45000000D01*
X156000000Y-44874000D01*
X156019685Y-44806961D01*
X156072489Y-44761206D01*
X156124000Y-44750000D01*
X156876000Y-44750000D01*
X156943039Y-44769685D01*
G37*
G36*
X219943039Y-40019685D02*
G01*
X219988794Y-40072489D01*
X220000000Y-40124000D01*
X220000000Y-45000000D01*
X220126000Y-45000000D01*
X220193039Y-45019685D01*
X220238794Y-45072489D01*
X220250000Y-45124000D01*
X220250000Y-45876000D01*
X220230315Y-45943039D01*
X220177511Y-45988794D01*
X220126000Y-46000000D01*
X220000000Y-46000000D01*
X220000000Y-51000000D01*
X220126000Y-51000000D01*
X220193039Y-51019685D01*
X220238794Y-51072489D01*
X220250000Y-51124000D01*
X220250000Y-51876000D01*
X220230315Y-51943039D01*
X220177511Y-51988794D01*
X220126000Y-52000000D01*
X220000000Y-52000000D01*
X220000000Y-57000000D01*
X220126000Y-57000000D01*
X220193039Y-57019685D01*
X220238794Y-57072489D01*
X220250000Y-57124000D01*
X220250000Y-57876000D01*
X220230315Y-57943039D01*
X220177511Y-57988794D01*
X220126000Y-58000000D01*
X220000000Y-58000000D01*
X220000000Y-63000000D01*
X220126000Y-63000000D01*
X220193039Y-63019685D01*
X220238794Y-63072489D01*
X220250000Y-63124000D01*
X220250000Y-63876000D01*
X220230315Y-63943039D01*
X220177511Y-63988794D01*
X220126000Y-64000000D01*
X220000000Y-64000000D01*
X220000000Y-69000000D01*
X220126000Y-69000000D01*
X220193039Y-69019685D01*
X220238794Y-69072489D01*
X220250000Y-69124000D01*
X220250000Y-69876000D01*
X220230315Y-69943039D01*
X220177511Y-69988794D01*
X220126000Y-70000000D01*
X220000000Y-70000000D01*
X220000000Y-75000000D01*
X220126000Y-75000000D01*
X220193039Y-75019685D01*
X220238794Y-75072489D01*
X220250000Y-75124000D01*
X220250000Y-75876000D01*
X220230315Y-75943039D01*
X220177511Y-75988794D01*
X220126000Y-76000000D01*
X220000000Y-76000000D01*
X220000000Y-81000000D01*
X220126000Y-81000000D01*
X220193039Y-81019685D01*
X220238794Y-81072489D01*
X220250000Y-81124000D01*
X220250000Y-81876000D01*
X220230315Y-81943039D01*
X220177511Y-81988794D01*
X220126000Y-82000000D01*
X220000000Y-82000000D01*
X220000000Y-87000000D01*
X220126000Y-87000000D01*
X220193039Y-87019685D01*
X220238794Y-87072489D01*
X220250000Y-87124000D01*
X220250000Y-87876000D01*
X220230315Y-87943039D01*
X220177511Y-87988794D01*
X220126000Y-88000000D01*
X220000000Y-88000000D01*
X220000000Y-93000000D01*
X220126000Y-93000000D01*
X220193039Y-93019685D01*
X220238794Y-93072489D01*
X220250000Y-93124000D01*
X220250000Y-93876000D01*
X220230315Y-93943039D01*
X220177511Y-93988794D01*
X220126000Y-94000000D01*
X220000000Y-94000000D01*
X220000000Y-99000000D01*
X220126000Y-99000000D01*
X220193039Y-99019685D01*
X220238794Y-99072489D01*
X220250000Y-99124000D01*
X220250000Y-99876000D01*
X220230315Y-99943039D01*
X220177511Y-99988794D01*
X220126000Y-100000000D01*
X220000000Y-100000000D01*
X220000000Y-105000000D01*
X220126000Y-105000000D01*
X220193039Y-105019685D01*
X220238794Y-105072489D01*
X220250000Y-105124000D01*
X220250000Y-105876000D01*
X220230315Y-105943039D01*
X220177511Y-105988794D01*
X220126000Y-106000000D01*
X220000000Y-106000000D01*
X220000000Y-110876000D01*
X219980315Y-110943039D01*
X219927511Y-110988794D01*
X219876000Y-111000000D01*
X219124000Y-111000000D01*
X219056961Y-110980315D01*
X219011206Y-110927511D01*
X219000000Y-110876000D01*
X219000000Y-106000000D01*
X218874000Y-106000000D01*
X218806961Y-105980315D01*
X218761206Y-105927511D01*
X218750000Y-105876000D01*
X218750000Y-105124000D01*
X218769685Y-105056961D01*
X218822489Y-105011206D01*
X218874000Y-105000000D01*
X219000000Y-105000000D01*
X219000000Y-100000000D01*
X218874000Y-100000000D01*
X218806961Y-99980315D01*
X218761206Y-99927511D01*
X218750000Y-99876000D01*
X218750000Y-99124000D01*
X218769685Y-99056961D01*
X218822489Y-99011206D01*
X218874000Y-99000000D01*
X219000000Y-99000000D01*
X219000000Y-94000000D01*
X218874000Y-94000000D01*
X218806961Y-93980315D01*
X218761206Y-93927511D01*
X218750000Y-93876000D01*
X218750000Y-93124000D01*
X218769685Y-93056961D01*
X218822489Y-93011206D01*
X218874000Y-93000000D01*
X219000000Y-93000000D01*
X219000000Y-88000000D01*
X218874000Y-88000000D01*
X218806961Y-87980315D01*
X218761206Y-87927511D01*
X218750000Y-87876000D01*
X218750000Y-87124000D01*
X218769685Y-87056961D01*
X218822489Y-87011206D01*
X218874000Y-87000000D01*
X219000000Y-87000000D01*
X219000000Y-82000000D01*
X218874000Y-82000000D01*
X218806961Y-81980315D01*
X218761206Y-81927511D01*
X218750000Y-81876000D01*
X218750000Y-81124000D01*
X218769685Y-81056961D01*
X218822489Y-81011206D01*
X218874000Y-81000000D01*
X219000000Y-81000000D01*
X219000000Y-76000000D01*
X218874000Y-76000000D01*
X218806961Y-75980315D01*
X218761206Y-75927511D01*
X218750000Y-75876000D01*
X218750000Y-75124000D01*
X218769685Y-75056961D01*
X218822489Y-75011206D01*
X218874000Y-75000000D01*
X219000000Y-75000000D01*
X219000000Y-70000000D01*
X218874000Y-70000000D01*
X218806961Y-69980315D01*
X218761206Y-69927511D01*
X218750000Y-69876000D01*
X218750000Y-69124000D01*
X218769685Y-69056961D01*
X218822489Y-69011206D01*
X218874000Y-69000000D01*
X219000000Y-69000000D01*
X219000000Y-64000000D01*
X218874000Y-64000000D01*
X218806961Y-63980315D01*
X218761206Y-63927511D01*
X218750000Y-63876000D01*
X218750000Y-63124000D01*
X218769685Y-63056961D01*
X218822489Y-63011206D01*
X218874000Y-63000000D01*
X219000000Y-63000000D01*
X219000000Y-58000000D01*
X218874000Y-58000000D01*
X218806961Y-57980315D01*
X218761206Y-57927511D01*
X218750000Y-57876000D01*
X218750000Y-57124000D01*
X218769685Y-57056961D01*
X218822489Y-57011206D01*
X218874000Y-57000000D01*
X219000000Y-57000000D01*
X219000000Y-52000000D01*
X218874000Y-52000000D01*
X218806961Y-51980315D01*
X218761206Y-51927511D01*
X218750000Y-51876000D01*
X218750000Y-51124000D01*
X218769685Y-51056961D01*
X218822489Y-51011206D01*
X218874000Y-51000000D01*
X219000000Y-51000000D01*
X219000000Y-46000000D01*
X218874000Y-46000000D01*
X218806961Y-45980315D01*
X218761206Y-45927511D01*
X218750000Y-45876000D01*
X218750000Y-45124000D01*
X218769685Y-45056961D01*
X218822489Y-45011206D01*
X218874000Y-45000000D01*
X219000000Y-45000000D01*
X219000000Y-40124000D01*
X219019685Y-40056961D01*
X219072489Y-40011206D01*
X219124000Y-40000000D01*
X219876000Y-40000000D01*
X219943039Y-40019685D01*
G37*
G36*
X212943039Y-40019685D02*
G01*
X212988794Y-40072489D01*
X213000000Y-40124000D01*
X213000000Y-45000000D01*
X213126000Y-45000000D01*
X213193039Y-45019685D01*
X213238794Y-45072489D01*
X213250000Y-45124000D01*
X213250000Y-45876000D01*
X213230315Y-45943039D01*
X213177511Y-45988794D01*
X213126000Y-46000000D01*
X213000000Y-46000000D01*
X213000000Y-51000000D01*
X213126000Y-51000000D01*
X213193039Y-51019685D01*
X213238794Y-51072489D01*
X213250000Y-51124000D01*
X213250000Y-51876000D01*
X213230315Y-51943039D01*
X213177511Y-51988794D01*
X213126000Y-52000000D01*
X213000000Y-52000000D01*
X213000000Y-57000000D01*
X213126000Y-57000000D01*
X213193039Y-57019685D01*
X213238794Y-57072489D01*
X213250000Y-57124000D01*
X213250000Y-57876000D01*
X213230315Y-57943039D01*
X213177511Y-57988794D01*
X213126000Y-58000000D01*
X213000000Y-58000000D01*
X213000000Y-63000000D01*
X213126000Y-63000000D01*
X213193039Y-63019685D01*
X213238794Y-63072489D01*
X213250000Y-63124000D01*
X213250000Y-63876000D01*
X213230315Y-63943039D01*
X213177511Y-63988794D01*
X213126000Y-64000000D01*
X213000000Y-64000000D01*
X213000000Y-69000000D01*
X213126000Y-69000000D01*
X213193039Y-69019685D01*
X213238794Y-69072489D01*
X213250000Y-69124000D01*
X213250000Y-69876000D01*
X213230315Y-69943039D01*
X213177511Y-69988794D01*
X213126000Y-70000000D01*
X213000000Y-70000000D01*
X213000000Y-75000000D01*
X213126000Y-75000000D01*
X213193039Y-75019685D01*
X213238794Y-75072489D01*
X213250000Y-75124000D01*
X213250000Y-75876000D01*
X213230315Y-75943039D01*
X213177511Y-75988794D01*
X213126000Y-76000000D01*
X213000000Y-76000000D01*
X213000000Y-81000000D01*
X213126000Y-81000000D01*
X213193039Y-81019685D01*
X213238794Y-81072489D01*
X213250000Y-81124000D01*
X213250000Y-81876000D01*
X213230315Y-81943039D01*
X213177511Y-81988794D01*
X213126000Y-82000000D01*
X213000000Y-82000000D01*
X213000000Y-87000000D01*
X213126000Y-87000000D01*
X213193039Y-87019685D01*
X213238794Y-87072489D01*
X213250000Y-87124000D01*
X213250000Y-87876000D01*
X213230315Y-87943039D01*
X213177511Y-87988794D01*
X213126000Y-88000000D01*
X213000000Y-88000000D01*
X213000000Y-93000000D01*
X213126000Y-93000000D01*
X213193039Y-93019685D01*
X213238794Y-93072489D01*
X213250000Y-93124000D01*
X213250000Y-93876000D01*
X213230315Y-93943039D01*
X213177511Y-93988794D01*
X213126000Y-94000000D01*
X213000000Y-94000000D01*
X213000000Y-99000000D01*
X213126000Y-99000000D01*
X213193039Y-99019685D01*
X213238794Y-99072489D01*
X213250000Y-99124000D01*
X213250000Y-99876000D01*
X213230315Y-99943039D01*
X213177511Y-99988794D01*
X213126000Y-100000000D01*
X213000000Y-100000000D01*
X213000000Y-105000000D01*
X213126000Y-105000000D01*
X213193039Y-105019685D01*
X213238794Y-105072489D01*
X213250000Y-105124000D01*
X213250000Y-105876000D01*
X213230315Y-105943039D01*
X213177511Y-105988794D01*
X213126000Y-106000000D01*
X213000000Y-106000000D01*
X213000000Y-110876000D01*
X212980315Y-110943039D01*
X212927511Y-110988794D01*
X212876000Y-111000000D01*
X212124000Y-111000000D01*
X212056961Y-110980315D01*
X212011206Y-110927511D01*
X212000000Y-110876000D01*
X212000000Y-106000000D01*
X211874000Y-106000000D01*
X211806961Y-105980315D01*
X211761206Y-105927511D01*
X211750000Y-105876000D01*
X211750000Y-105124000D01*
X211769685Y-105056961D01*
X211822489Y-105011206D01*
X211874000Y-105000000D01*
X212000000Y-105000000D01*
X212000000Y-100000000D01*
X211874000Y-100000000D01*
X211806961Y-99980315D01*
X211761206Y-99927511D01*
X211750000Y-99876000D01*
X211750000Y-99124000D01*
X211769685Y-99056961D01*
X211822489Y-99011206D01*
X211874000Y-99000000D01*
X212000000Y-99000000D01*
X212000000Y-94000000D01*
X211874000Y-94000000D01*
X211806961Y-93980315D01*
X211761206Y-93927511D01*
X211750000Y-93876000D01*
X211750000Y-93124000D01*
X211769685Y-93056961D01*
X211822489Y-93011206D01*
X211874000Y-93000000D01*
X212000000Y-93000000D01*
X212000000Y-88000000D01*
X211874000Y-88000000D01*
X211806961Y-87980315D01*
X211761206Y-87927511D01*
X211750000Y-87876000D01*
X211750000Y-87124000D01*
X211769685Y-87056961D01*
X211822489Y-87011206D01*
X211874000Y-87000000D01*
X212000000Y-87000000D01*
X212000000Y-82000000D01*
X211874000Y-82000000D01*
X211806961Y-81980315D01*
X211761206Y-81927511D01*
X211750000Y-81876000D01*
X211750000Y-81124000D01*
X211769685Y-81056961D01*
X211822489Y-81011206D01*
X211874000Y-81000000D01*
X212000000Y-81000000D01*
X212000000Y-76000000D01*
X211874000Y-76000000D01*
X211806961Y-75980315D01*
X211761206Y-75927511D01*
X211750000Y-75876000D01*
X211750000Y-75124000D01*
X211769685Y-75056961D01*
X211822489Y-75011206D01*
X211874000Y-75000000D01*
X212000000Y-75000000D01*
X212000000Y-70000000D01*
X211874000Y-70000000D01*
X211806961Y-69980315D01*
X211761206Y-69927511D01*
X211750000Y-69876000D01*
X211750000Y-69124000D01*
X211769685Y-69056961D01*
X211822489Y-69011206D01*
X211874000Y-69000000D01*
X212000000Y-69000000D01*
X212000000Y-64000000D01*
X211874000Y-64000000D01*
X211806961Y-63980315D01*
X211761206Y-63927511D01*
X211750000Y-63876000D01*
X211750000Y-63124000D01*
X211769685Y-63056961D01*
X211822489Y-63011206D01*
X211874000Y-63000000D01*
X212000000Y-63000000D01*
X212000000Y-58000000D01*
X211874000Y-58000000D01*
X211806961Y-57980315D01*
X211761206Y-57927511D01*
X211750000Y-57876000D01*
X211750000Y-57124000D01*
X211769685Y-57056961D01*
X211822489Y-57011206D01*
X211874000Y-57000000D01*
X212000000Y-57000000D01*
X212000000Y-52000000D01*
X211874000Y-52000000D01*
X211806961Y-51980315D01*
X211761206Y-51927511D01*
X211750000Y-51876000D01*
X211750000Y-51124000D01*
X211769685Y-51056961D01*
X211822489Y-51011206D01*
X211874000Y-51000000D01*
X212000000Y-51000000D01*
X212000000Y-46000000D01*
X211874000Y-46000000D01*
X211806961Y-45980315D01*
X211761206Y-45927511D01*
X211750000Y-45876000D01*
X211750000Y-45124000D01*
X211769685Y-45056961D01*
X211822489Y-45011206D01*
X211874000Y-45000000D01*
X212000000Y-45000000D01*
X212000000Y-40124000D01*
X212019685Y-40056961D01*
X212072489Y-40011206D01*
X212124000Y-40000000D01*
X212876000Y-40000000D01*
X212943039Y-40019685D01*
G37*
G36*
X205943039Y-40019685D02*
G01*
X205988794Y-40072489D01*
X206000000Y-40124000D01*
X206000000Y-45000000D01*
X206126000Y-45000000D01*
X206193039Y-45019685D01*
X206238794Y-45072489D01*
X206250000Y-45124000D01*
X206250000Y-45876000D01*
X206230315Y-45943039D01*
X206177511Y-45988794D01*
X206126000Y-46000000D01*
X206000000Y-46000000D01*
X206000000Y-51000000D01*
X206126000Y-51000000D01*
X206193039Y-51019685D01*
X206238794Y-51072489D01*
X206250000Y-51124000D01*
X206250000Y-51876000D01*
X206230315Y-51943039D01*
X206177511Y-51988794D01*
X206126000Y-52000000D01*
X206000000Y-52000000D01*
X206000000Y-57000000D01*
X206126000Y-57000000D01*
X206193039Y-57019685D01*
X206238794Y-57072489D01*
X206250000Y-57124000D01*
X206250000Y-57876000D01*
X206230315Y-57943039D01*
X206177511Y-57988794D01*
X206126000Y-58000000D01*
X206000000Y-58000000D01*
X206000000Y-63000000D01*
X206126000Y-63000000D01*
X206193039Y-63019685D01*
X206238794Y-63072489D01*
X206250000Y-63124000D01*
X206250000Y-63876000D01*
X206230315Y-63943039D01*
X206177511Y-63988794D01*
X206126000Y-64000000D01*
X206000000Y-64000000D01*
X206000000Y-69000000D01*
X206126000Y-69000000D01*
X206193039Y-69019685D01*
X206238794Y-69072489D01*
X206250000Y-69124000D01*
X206250000Y-69876000D01*
X206230315Y-69943039D01*
X206177511Y-69988794D01*
X206126000Y-70000000D01*
X206000000Y-70000000D01*
X206000000Y-75000000D01*
X206126000Y-75000000D01*
X206193039Y-75019685D01*
X206238794Y-75072489D01*
X206250000Y-75124000D01*
X206250000Y-75876000D01*
X206230315Y-75943039D01*
X206177511Y-75988794D01*
X206126000Y-76000000D01*
X206000000Y-76000000D01*
X206000000Y-81000000D01*
X206126000Y-81000000D01*
X206193039Y-81019685D01*
X206238794Y-81072489D01*
X206250000Y-81124000D01*
X206250000Y-81876000D01*
X206230315Y-81943039D01*
X206177511Y-81988794D01*
X206126000Y-82000000D01*
X206000000Y-82000000D01*
X206000000Y-87000000D01*
X206126000Y-87000000D01*
X206193039Y-87019685D01*
X206238794Y-87072489D01*
X206250000Y-87124000D01*
X206250000Y-87876000D01*
X206230315Y-87943039D01*
X206177511Y-87988794D01*
X206126000Y-88000000D01*
X206000000Y-88000000D01*
X206000000Y-93000000D01*
X206126000Y-93000000D01*
X206193039Y-93019685D01*
X206238794Y-93072489D01*
X206250000Y-93124000D01*
X206250000Y-93876000D01*
X206230315Y-93943039D01*
X206177511Y-93988794D01*
X206126000Y-94000000D01*
X206000000Y-94000000D01*
X206000000Y-99000000D01*
X206126000Y-99000000D01*
X206193039Y-99019685D01*
X206238794Y-99072489D01*
X206250000Y-99124000D01*
X206250000Y-99876000D01*
X206230315Y-99943039D01*
X206177511Y-99988794D01*
X206126000Y-100000000D01*
X206000000Y-100000000D01*
X206000000Y-105000000D01*
X206126000Y-105000000D01*
X206193039Y-105019685D01*
X206238794Y-105072489D01*
X206250000Y-105124000D01*
X206250000Y-105876000D01*
X206230315Y-105943039D01*
X206177511Y-105988794D01*
X206126000Y-106000000D01*
X206000000Y-106000000D01*
X206000000Y-110876000D01*
X205980315Y-110943039D01*
X205927511Y-110988794D01*
X205876000Y-111000000D01*
X205124000Y-111000000D01*
X205056961Y-110980315D01*
X205011206Y-110927511D01*
X205000000Y-110876000D01*
X205000000Y-106000000D01*
X204874000Y-106000000D01*
X204806961Y-105980315D01*
X204761206Y-105927511D01*
X204750000Y-105876000D01*
X204750000Y-105124000D01*
X204769685Y-105056961D01*
X204822489Y-105011206D01*
X204874000Y-105000000D01*
X205000000Y-105000000D01*
X205000000Y-100000000D01*
X204874000Y-100000000D01*
X204806961Y-99980315D01*
X204761206Y-99927511D01*
X204750000Y-99876000D01*
X204750000Y-99124000D01*
X204769685Y-99056961D01*
X204822489Y-99011206D01*
X204874000Y-99000000D01*
X205000000Y-99000000D01*
X205000000Y-94000000D01*
X204874000Y-94000000D01*
X204806961Y-93980315D01*
X204761206Y-93927511D01*
X204750000Y-93876000D01*
X204750000Y-93124000D01*
X204769685Y-93056961D01*
X204822489Y-93011206D01*
X204874000Y-93000000D01*
X205000000Y-93000000D01*
X205000000Y-88000000D01*
X204874000Y-88000000D01*
X204806961Y-87980315D01*
X204761206Y-87927511D01*
X204750000Y-87876000D01*
X204750000Y-87124000D01*
X204769685Y-87056961D01*
X204822489Y-87011206D01*
X204874000Y-87000000D01*
X205000000Y-87000000D01*
X205000000Y-82000000D01*
X204874000Y-82000000D01*
X204806961Y-81980315D01*
X204761206Y-81927511D01*
X204750000Y-81876000D01*
X204750000Y-81124000D01*
X204769685Y-81056961D01*
X204822489Y-81011206D01*
X204874000Y-81000000D01*
X205000000Y-81000000D01*
X205000000Y-76000000D01*
X204874000Y-76000000D01*
X204806961Y-75980315D01*
X204761206Y-75927511D01*
X204750000Y-75876000D01*
X204750000Y-75124000D01*
X204769685Y-75056961D01*
X204822489Y-75011206D01*
X204874000Y-75000000D01*
X205000000Y-75000000D01*
X205000000Y-70000000D01*
X204874000Y-70000000D01*
X204806961Y-69980315D01*
X204761206Y-69927511D01*
X204750000Y-69876000D01*
X204750000Y-69124000D01*
X204769685Y-69056961D01*
X204822489Y-69011206D01*
X204874000Y-69000000D01*
X205000000Y-69000000D01*
X205000000Y-64000000D01*
X204874000Y-64000000D01*
X204806961Y-63980315D01*
X204761206Y-63927511D01*
X204750000Y-63876000D01*
X204750000Y-63124000D01*
X204769685Y-63056961D01*
X204822489Y-63011206D01*
X204874000Y-63000000D01*
X205000000Y-63000000D01*
X205000000Y-58000000D01*
X204874000Y-58000000D01*
X204806961Y-57980315D01*
X204761206Y-57927511D01*
X204750000Y-57876000D01*
X204750000Y-57124000D01*
X204769685Y-57056961D01*
X204822489Y-57011206D01*
X204874000Y-57000000D01*
X205000000Y-57000000D01*
X205000000Y-52000000D01*
X204874000Y-52000000D01*
X204806961Y-51980315D01*
X204761206Y-51927511D01*
X204750000Y-51876000D01*
X204750000Y-51124000D01*
X204769685Y-51056961D01*
X204822489Y-51011206D01*
X204874000Y-51000000D01*
X205000000Y-51000000D01*
X205000000Y-46000000D01*
X204874000Y-46000000D01*
X204806961Y-45980315D01*
X204761206Y-45927511D01*
X204750000Y-45876000D01*
X204750000Y-45124000D01*
X204769685Y-45056961D01*
X204822489Y-45011206D01*
X204874000Y-45000000D01*
X205000000Y-45000000D01*
X205000000Y-40124000D01*
X205019685Y-40056961D01*
X205072489Y-40011206D01*
X205124000Y-40000000D01*
X205876000Y-40000000D01*
X205943039Y-40019685D01*
G37*
G36*
X198943039Y-40019685D02*
G01*
X198988794Y-40072489D01*
X199000000Y-40124000D01*
X199000000Y-45000000D01*
X199126000Y-45000000D01*
X199193039Y-45019685D01*
X199238794Y-45072489D01*
X199250000Y-45124000D01*
X199250000Y-45876000D01*
X199230315Y-45943039D01*
X199177511Y-45988794D01*
X199126000Y-46000000D01*
X199000000Y-46000000D01*
X199000000Y-51000000D01*
X199126000Y-51000000D01*
X199193039Y-51019685D01*
X199238794Y-51072489D01*
X199250000Y-51124000D01*
X199250000Y-51876000D01*
X199230315Y-51943039D01*
X199177511Y-51988794D01*
X199126000Y-52000000D01*
X199000000Y-52000000D01*
X199000000Y-57000000D01*
X199126000Y-57000000D01*
X199193039Y-57019685D01*
X199238794Y-57072489D01*
X199250000Y-57124000D01*
X199250000Y-57876000D01*
X199230315Y-57943039D01*
X199177511Y-57988794D01*
X199126000Y-58000000D01*
X199000000Y-58000000D01*
X199000000Y-63000000D01*
X199126000Y-63000000D01*
X199193039Y-63019685D01*
X199238794Y-63072489D01*
X199250000Y-63124000D01*
X199250000Y-63876000D01*
X199230315Y-63943039D01*
X199177511Y-63988794D01*
X199126000Y-64000000D01*
X199000000Y-64000000D01*
X199000000Y-69000000D01*
X199126000Y-69000000D01*
X199193039Y-69019685D01*
X199238794Y-69072489D01*
X199250000Y-69124000D01*
X199250000Y-69876000D01*
X199230315Y-69943039D01*
X199177511Y-69988794D01*
X199126000Y-70000000D01*
X199000000Y-70000000D01*
X199000000Y-75000000D01*
X199126000Y-75000000D01*
X199193039Y-75019685D01*
X199238794Y-75072489D01*
X199250000Y-75124000D01*
X199250000Y-75876000D01*
X199230315Y-75943039D01*
X199177511Y-75988794D01*
X199126000Y-76000000D01*
X199000000Y-76000000D01*
X199000000Y-81000000D01*
X199126000Y-81000000D01*
X199193039Y-81019685D01*
X199238794Y-81072489D01*
X199250000Y-81124000D01*
X199250000Y-81876000D01*
X199230315Y-81943039D01*
X199177511Y-81988794D01*
X199126000Y-82000000D01*
X199000000Y-82000000D01*
X199000000Y-87000000D01*
X199126000Y-87000000D01*
X199193039Y-87019685D01*
X199238794Y-87072489D01*
X199250000Y-87124000D01*
X199250000Y-87876000D01*
X199230315Y-87943039D01*
X199177511Y-87988794D01*
X199126000Y-88000000D01*
X199000000Y-88000000D01*
X199000000Y-93000000D01*
X199126000Y-93000000D01*
X199193039Y-93019685D01*
X199238794Y-93072489D01*
X199250000Y-93124000D01*
X199250000Y-93876000D01*
X199230315Y-93943039D01*
X199177511Y-93988794D01*
X199126000Y-94000000D01*
X199000000Y-94000000D01*
X199000000Y-99000000D01*
X199126000Y-99000000D01*
X199193039Y-99019685D01*
X199238794Y-99072489D01*
X199250000Y-99124000D01*
X199250000Y-99876000D01*
X199230315Y-99943039D01*
X199177511Y-99988794D01*
X199126000Y-100000000D01*
X199000000Y-100000000D01*
X199000000Y-105000000D01*
X199126000Y-105000000D01*
X199193039Y-105019685D01*
X199238794Y-105072489D01*
X199250000Y-105124000D01*
X199250000Y-105876000D01*
X199230315Y-105943039D01*
X199177511Y-105988794D01*
X199126000Y-106000000D01*
X199000000Y-106000000D01*
X199000000Y-110876000D01*
X198980315Y-110943039D01*
X198927511Y-110988794D01*
X198876000Y-111000000D01*
X198124000Y-111000000D01*
X198056961Y-110980315D01*
X198011206Y-110927511D01*
X198000000Y-110876000D01*
X198000000Y-106000000D01*
X197874000Y-106000000D01*
X197806961Y-105980315D01*
X197761206Y-105927511D01*
X197750000Y-105876000D01*
X197750000Y-105124000D01*
X197769685Y-105056961D01*
X197822489Y-105011206D01*
X197874000Y-105000000D01*
X198000000Y-105000000D01*
X198000000Y-100000000D01*
X197874000Y-100000000D01*
X197806961Y-99980315D01*
X197761206Y-99927511D01*
X197750000Y-99876000D01*
X197750000Y-99124000D01*
X197769685Y-99056961D01*
X197822489Y-99011206D01*
X197874000Y-99000000D01*
X198000000Y-99000000D01*
X198000000Y-94000000D01*
X197874000Y-94000000D01*
X197806961Y-93980315D01*
X197761206Y-93927511D01*
X197750000Y-93876000D01*
X197750000Y-93124000D01*
X197769685Y-93056961D01*
X197822489Y-93011206D01*
X197874000Y-93000000D01*
X198000000Y-93000000D01*
X198000000Y-88000000D01*
X197874000Y-88000000D01*
X197806961Y-87980315D01*
X197761206Y-87927511D01*
X197750000Y-87876000D01*
X197750000Y-87124000D01*
X197769685Y-87056961D01*
X197822489Y-87011206D01*
X197874000Y-87000000D01*
X198000000Y-87000000D01*
X198000000Y-82000000D01*
X197874000Y-82000000D01*
X197806961Y-81980315D01*
X197761206Y-81927511D01*
X197750000Y-81876000D01*
X197750000Y-81124000D01*
X197769685Y-81056961D01*
X197822489Y-81011206D01*
X197874000Y-81000000D01*
X198000000Y-81000000D01*
X198000000Y-76000000D01*
X197874000Y-76000000D01*
X197806961Y-75980315D01*
X197761206Y-75927511D01*
X197750000Y-75876000D01*
X197750000Y-75124000D01*
X197769685Y-75056961D01*
X197822489Y-75011206D01*
X197874000Y-75000000D01*
X198000000Y-75000000D01*
X198000000Y-70000000D01*
X197874000Y-70000000D01*
X197806961Y-69980315D01*
X197761206Y-69927511D01*
X197750000Y-69876000D01*
X197750000Y-69124000D01*
X197769685Y-69056961D01*
X197822489Y-69011206D01*
X197874000Y-69000000D01*
X198000000Y-69000000D01*
X198000000Y-64000000D01*
X197874000Y-64000000D01*
X197806961Y-63980315D01*
X197761206Y-63927511D01*
X197750000Y-63876000D01*
X197750000Y-63124000D01*
X197769685Y-63056961D01*
X197822489Y-63011206D01*
X197874000Y-63000000D01*
X198000000Y-63000000D01*
X198000000Y-58000000D01*
X197874000Y-58000000D01*
X197806961Y-57980315D01*
X197761206Y-57927511D01*
X197750000Y-57876000D01*
X197750000Y-57124000D01*
X197769685Y-57056961D01*
X197822489Y-57011206D01*
X197874000Y-57000000D01*
X198000000Y-57000000D01*
X198000000Y-52000000D01*
X197874000Y-52000000D01*
X197806961Y-51980315D01*
X197761206Y-51927511D01*
X197750000Y-51876000D01*
X197750000Y-51124000D01*
X197769685Y-51056961D01*
X197822489Y-51011206D01*
X197874000Y-51000000D01*
X198000000Y-51000000D01*
X198000000Y-46000000D01*
X197874000Y-46000000D01*
X197806961Y-45980315D01*
X197761206Y-45927511D01*
X197750000Y-45876000D01*
X197750000Y-45124000D01*
X197769685Y-45056961D01*
X197822489Y-45011206D01*
X197874000Y-45000000D01*
X198000000Y-45000000D01*
X198000000Y-40124000D01*
X198019685Y-40056961D01*
X198072489Y-40011206D01*
X198124000Y-40000000D01*
X198876000Y-40000000D01*
X198943039Y-40019685D01*
G37*
G36*
X191943039Y-40019685D02*
G01*
X191988794Y-40072489D01*
X192000000Y-40124000D01*
X192000000Y-45000000D01*
X192126000Y-45000000D01*
X192193039Y-45019685D01*
X192238794Y-45072489D01*
X192250000Y-45124000D01*
X192250000Y-45876000D01*
X192230315Y-45943039D01*
X192177511Y-45988794D01*
X192126000Y-46000000D01*
X192000000Y-46000000D01*
X192000000Y-51000000D01*
X192126000Y-51000000D01*
X192193039Y-51019685D01*
X192238794Y-51072489D01*
X192250000Y-51124000D01*
X192250000Y-51876000D01*
X192230315Y-51943039D01*
X192177511Y-51988794D01*
X192126000Y-52000000D01*
X192000000Y-52000000D01*
X192000000Y-57000000D01*
X192126000Y-57000000D01*
X192193039Y-57019685D01*
X192238794Y-57072489D01*
X192250000Y-57124000D01*
X192250000Y-57876000D01*
X192230315Y-57943039D01*
X192177511Y-57988794D01*
X192126000Y-58000000D01*
X192000000Y-58000000D01*
X192000000Y-63000000D01*
X192126000Y-63000000D01*
X192193039Y-63019685D01*
X192238794Y-63072489D01*
X192250000Y-63124000D01*
X192250000Y-63876000D01*
X192230315Y-63943039D01*
X192177511Y-63988794D01*
X192126000Y-64000000D01*
X192000000Y-64000000D01*
X192000000Y-69000000D01*
X192126000Y-69000000D01*
X192193039Y-69019685D01*
X192238794Y-69072489D01*
X192250000Y-69124000D01*
X192250000Y-69876000D01*
X192230315Y-69943039D01*
X192177511Y-69988794D01*
X192126000Y-70000000D01*
X192000000Y-70000000D01*
X192000000Y-75000000D01*
X192126000Y-75000000D01*
X192193039Y-75019685D01*
X192238794Y-75072489D01*
X192250000Y-75124000D01*
X192250000Y-75876000D01*
X192230315Y-75943039D01*
X192177511Y-75988794D01*
X192126000Y-76000000D01*
X192000000Y-76000000D01*
X192000000Y-81000000D01*
X192126000Y-81000000D01*
X192193039Y-81019685D01*
X192238794Y-81072489D01*
X192250000Y-81124000D01*
X192250000Y-81876000D01*
X192230315Y-81943039D01*
X192177511Y-81988794D01*
X192126000Y-82000000D01*
X192000000Y-82000000D01*
X192000000Y-87000000D01*
X192126000Y-87000000D01*
X192193039Y-87019685D01*
X192238794Y-87072489D01*
X192250000Y-87124000D01*
X192250000Y-87876000D01*
X192230315Y-87943039D01*
X192177511Y-87988794D01*
X192126000Y-88000000D01*
X192000000Y-88000000D01*
X192000000Y-93000000D01*
X192126000Y-93000000D01*
X192193039Y-93019685D01*
X192238794Y-93072489D01*
X192250000Y-93124000D01*
X192250000Y-93876000D01*
X192230315Y-93943039D01*
X192177511Y-93988794D01*
X192126000Y-94000000D01*
X192000000Y-94000000D01*
X192000000Y-99000000D01*
X192126000Y-99000000D01*
X192193039Y-99019685D01*
X192238794Y-99072489D01*
X192250000Y-99124000D01*
X192250000Y-99876000D01*
X192230315Y-99943039D01*
X192177511Y-99988794D01*
X192126000Y-100000000D01*
X192000000Y-100000000D01*
X192000000Y-105000000D01*
X192126000Y-105000000D01*
X192193039Y-105019685D01*
X192238794Y-105072489D01*
X192250000Y-105124000D01*
X192250000Y-105876000D01*
X192230315Y-105943039D01*
X192177511Y-105988794D01*
X192126000Y-106000000D01*
X192000000Y-106000000D01*
X192000000Y-110876000D01*
X191980315Y-110943039D01*
X191927511Y-110988794D01*
X191876000Y-111000000D01*
X191124000Y-111000000D01*
X191056961Y-110980315D01*
X191011206Y-110927511D01*
X191000000Y-110876000D01*
X191000000Y-106000000D01*
X190874000Y-106000000D01*
X190806961Y-105980315D01*
X190761206Y-105927511D01*
X190750000Y-105876000D01*
X190750000Y-105124000D01*
X190769685Y-105056961D01*
X190822489Y-105011206D01*
X190874000Y-105000000D01*
X191000000Y-105000000D01*
X191000000Y-100000000D01*
X190874000Y-100000000D01*
X190806961Y-99980315D01*
X190761206Y-99927511D01*
X190750000Y-99876000D01*
X190750000Y-99124000D01*
X190769685Y-99056961D01*
X190822489Y-99011206D01*
X190874000Y-99000000D01*
X191000000Y-99000000D01*
X191000000Y-94000000D01*
X190874000Y-94000000D01*
X190806961Y-93980315D01*
X190761206Y-93927511D01*
X190750000Y-93876000D01*
X190750000Y-93124000D01*
X190769685Y-93056961D01*
X190822489Y-93011206D01*
X190874000Y-93000000D01*
X191000000Y-93000000D01*
X191000000Y-88000000D01*
X190874000Y-88000000D01*
X190806961Y-87980315D01*
X190761206Y-87927511D01*
X190750000Y-87876000D01*
X190750000Y-87124000D01*
X190769685Y-87056961D01*
X190822489Y-87011206D01*
X190874000Y-87000000D01*
X191000000Y-87000000D01*
X191000000Y-82000000D01*
X190874000Y-82000000D01*
X190806961Y-81980315D01*
X190761206Y-81927511D01*
X190750000Y-81876000D01*
X190750000Y-81124000D01*
X190769685Y-81056961D01*
X190822489Y-81011206D01*
X190874000Y-81000000D01*
X191000000Y-81000000D01*
X191000000Y-76000000D01*
X190874000Y-76000000D01*
X190806961Y-75980315D01*
X190761206Y-75927511D01*
X190750000Y-75876000D01*
X190750000Y-75124000D01*
X190769685Y-75056961D01*
X190822489Y-75011206D01*
X190874000Y-75000000D01*
X191000000Y-75000000D01*
X191000000Y-70000000D01*
X190874000Y-70000000D01*
X190806961Y-69980315D01*
X190761206Y-69927511D01*
X190750000Y-69876000D01*
X190750000Y-69124000D01*
X190769685Y-69056961D01*
X190822489Y-69011206D01*
X190874000Y-69000000D01*
X191000000Y-69000000D01*
X191000000Y-64000000D01*
X190874000Y-64000000D01*
X190806961Y-63980315D01*
X190761206Y-63927511D01*
X190750000Y-63876000D01*
X190750000Y-63124000D01*
X190769685Y-63056961D01*
X190822489Y-63011206D01*
X190874000Y-63000000D01*
X191000000Y-63000000D01*
X191000000Y-58000000D01*
X190874000Y-58000000D01*
X190806961Y-57980315D01*
X190761206Y-57927511D01*
X190750000Y-57876000D01*
X190750000Y-57124000D01*
X190769685Y-57056961D01*
X190822489Y-57011206D01*
X190874000Y-57000000D01*
X191000000Y-57000000D01*
X191000000Y-52000000D01*
X190874000Y-52000000D01*
X190806961Y-51980315D01*
X190761206Y-51927511D01*
X190750000Y-51876000D01*
X190750000Y-51124000D01*
X190769685Y-51056961D01*
X190822489Y-51011206D01*
X190874000Y-51000000D01*
X191000000Y-51000000D01*
X191000000Y-46000000D01*
X190874000Y-46000000D01*
X190806961Y-45980315D01*
X190761206Y-45927511D01*
X190750000Y-45876000D01*
X190750000Y-45124000D01*
X190769685Y-45056961D01*
X190822489Y-45011206D01*
X190874000Y-45000000D01*
X191000000Y-45000000D01*
X191000000Y-40124000D01*
X191019685Y-40056961D01*
X191072489Y-40011206D01*
X191124000Y-40000000D01*
X191876000Y-40000000D01*
X191943039Y-40019685D01*
G37*
G36*
X184943039Y-40019685D02*
G01*
X184988794Y-40072489D01*
X185000000Y-40124000D01*
X185000000Y-45000000D01*
X185126000Y-45000000D01*
X185193039Y-45019685D01*
X185238794Y-45072489D01*
X185250000Y-45124000D01*
X185250000Y-45876000D01*
X185230315Y-45943039D01*
X185177511Y-45988794D01*
X185126000Y-46000000D01*
X185000000Y-46000000D01*
X185000000Y-51000000D01*
X185126000Y-51000000D01*
X185193039Y-51019685D01*
X185238794Y-51072489D01*
X185250000Y-51124000D01*
X185250000Y-51876000D01*
X185230315Y-51943039D01*
X185177511Y-51988794D01*
X185126000Y-52000000D01*
X185000000Y-52000000D01*
X185000000Y-57000000D01*
X185126000Y-57000000D01*
X185193039Y-57019685D01*
X185238794Y-57072489D01*
X185250000Y-57124000D01*
X185250000Y-57876000D01*
X185230315Y-57943039D01*
X185177511Y-57988794D01*
X185126000Y-58000000D01*
X185000000Y-58000000D01*
X185000000Y-63000000D01*
X185126000Y-63000000D01*
X185193039Y-63019685D01*
X185238794Y-63072489D01*
X185250000Y-63124000D01*
X185250000Y-63876000D01*
X185230315Y-63943039D01*
X185177511Y-63988794D01*
X185126000Y-64000000D01*
X185000000Y-64000000D01*
X185000000Y-69000000D01*
X185126000Y-69000000D01*
X185193039Y-69019685D01*
X185238794Y-69072489D01*
X185250000Y-69124000D01*
X185250000Y-69876000D01*
X185230315Y-69943039D01*
X185177511Y-69988794D01*
X185126000Y-70000000D01*
X185000000Y-70000000D01*
X185000000Y-75000000D01*
X185126000Y-75000000D01*
X185193039Y-75019685D01*
X185238794Y-75072489D01*
X185250000Y-75124000D01*
X185250000Y-75876000D01*
X185230315Y-75943039D01*
X185177511Y-75988794D01*
X185126000Y-76000000D01*
X185000000Y-76000000D01*
X185000000Y-81000000D01*
X185126000Y-81000000D01*
X185193039Y-81019685D01*
X185238794Y-81072489D01*
X185250000Y-81124000D01*
X185250000Y-81876000D01*
X185230315Y-81943039D01*
X185177511Y-81988794D01*
X185126000Y-82000000D01*
X185000000Y-82000000D01*
X185000000Y-87000000D01*
X185126000Y-87000000D01*
X185193039Y-87019685D01*
X185238794Y-87072489D01*
X185250000Y-87124000D01*
X185250000Y-87876000D01*
X185230315Y-87943039D01*
X185177511Y-87988794D01*
X185126000Y-88000000D01*
X185000000Y-88000000D01*
X185000000Y-93000000D01*
X185126000Y-93000000D01*
X185193039Y-93019685D01*
X185238794Y-93072489D01*
X185250000Y-93124000D01*
X185250000Y-93876000D01*
X185230315Y-93943039D01*
X185177511Y-93988794D01*
X185126000Y-94000000D01*
X185000000Y-94000000D01*
X185000000Y-99000000D01*
X185126000Y-99000000D01*
X185193039Y-99019685D01*
X185238794Y-99072489D01*
X185250000Y-99124000D01*
X185250000Y-99876000D01*
X185230315Y-99943039D01*
X185177511Y-99988794D01*
X185126000Y-100000000D01*
X185000000Y-100000000D01*
X185000000Y-105000000D01*
X185126000Y-105000000D01*
X185193039Y-105019685D01*
X185238794Y-105072489D01*
X185250000Y-105124000D01*
X185250000Y-105876000D01*
X185230315Y-105943039D01*
X185177511Y-105988794D01*
X185126000Y-106000000D01*
X185000000Y-106000000D01*
X185000000Y-110876000D01*
X184980315Y-110943039D01*
X184927511Y-110988794D01*
X184876000Y-111000000D01*
X184124000Y-111000000D01*
X184056961Y-110980315D01*
X184011206Y-110927511D01*
X184000000Y-110876000D01*
X184000000Y-106000000D01*
X183874000Y-106000000D01*
X183806961Y-105980315D01*
X183761206Y-105927511D01*
X183750000Y-105876000D01*
X183750000Y-105124000D01*
X183769685Y-105056961D01*
X183822489Y-105011206D01*
X183874000Y-105000000D01*
X184000000Y-105000000D01*
X184000000Y-100000000D01*
X183874000Y-100000000D01*
X183806961Y-99980315D01*
X183761206Y-99927511D01*
X183750000Y-99876000D01*
X183750000Y-99124000D01*
X183769685Y-99056961D01*
X183822489Y-99011206D01*
X183874000Y-99000000D01*
X184000000Y-99000000D01*
X184000000Y-94000000D01*
X183874000Y-94000000D01*
X183806961Y-93980315D01*
X183761206Y-93927511D01*
X183750000Y-93876000D01*
X183750000Y-93124000D01*
X183769685Y-93056961D01*
X183822489Y-93011206D01*
X183874000Y-93000000D01*
X184000000Y-93000000D01*
X184000000Y-88000000D01*
X183874000Y-88000000D01*
X183806961Y-87980315D01*
X183761206Y-87927511D01*
X183750000Y-87876000D01*
X183750000Y-87124000D01*
X183769685Y-87056961D01*
X183822489Y-87011206D01*
X183874000Y-87000000D01*
X184000000Y-87000000D01*
X184000000Y-82000000D01*
X183874000Y-82000000D01*
X183806961Y-81980315D01*
X183761206Y-81927511D01*
X183750000Y-81876000D01*
X183750000Y-81124000D01*
X183769685Y-81056961D01*
X183822489Y-81011206D01*
X183874000Y-81000000D01*
X184000000Y-81000000D01*
X184000000Y-76000000D01*
X183874000Y-76000000D01*
X183806961Y-75980315D01*
X183761206Y-75927511D01*
X183750000Y-75876000D01*
X183750000Y-75124000D01*
X183769685Y-75056961D01*
X183822489Y-75011206D01*
X183874000Y-75000000D01*
X184000000Y-75000000D01*
X184000000Y-70000000D01*
X183874000Y-70000000D01*
X183806961Y-69980315D01*
X183761206Y-69927511D01*
X183750000Y-69876000D01*
X183750000Y-69124000D01*
X183769685Y-69056961D01*
X183822489Y-69011206D01*
X183874000Y-69000000D01*
X184000000Y-69000000D01*
X184000000Y-64000000D01*
X183874000Y-64000000D01*
X183806961Y-63980315D01*
X183761206Y-63927511D01*
X183750000Y-63876000D01*
X183750000Y-63124000D01*
X183769685Y-63056961D01*
X183822489Y-63011206D01*
X183874000Y-63000000D01*
X184000000Y-63000000D01*
X184000000Y-58000000D01*
X183874000Y-58000000D01*
X183806961Y-57980315D01*
X183761206Y-57927511D01*
X183750000Y-57876000D01*
X183750000Y-57124000D01*
X183769685Y-57056961D01*
X183822489Y-57011206D01*
X183874000Y-57000000D01*
X184000000Y-57000000D01*
X184000000Y-52000000D01*
X183874000Y-52000000D01*
X183806961Y-51980315D01*
X183761206Y-51927511D01*
X183750000Y-51876000D01*
X183750000Y-51124000D01*
X183769685Y-51056961D01*
X183822489Y-51011206D01*
X183874000Y-51000000D01*
X184000000Y-51000000D01*
X184000000Y-46000000D01*
X183874000Y-46000000D01*
X183806961Y-45980315D01*
X183761206Y-45927511D01*
X183750000Y-45876000D01*
X183750000Y-45124000D01*
X183769685Y-45056961D01*
X183822489Y-45011206D01*
X183874000Y-45000000D01*
X184000000Y-45000000D01*
X184000000Y-40124000D01*
X184019685Y-40056961D01*
X184072489Y-40011206D01*
X184124000Y-40000000D01*
X184876000Y-40000000D01*
X184943039Y-40019685D01*
G37*
G36*
X177943039Y-40019685D02*
G01*
X177988794Y-40072489D01*
X178000000Y-40124000D01*
X178000000Y-45000000D01*
X178126000Y-45000000D01*
X178193039Y-45019685D01*
X178238794Y-45072489D01*
X178250000Y-45124000D01*
X178250000Y-45876000D01*
X178230315Y-45943039D01*
X178177511Y-45988794D01*
X178126000Y-46000000D01*
X178000000Y-46000000D01*
X178000000Y-51000000D01*
X178126000Y-51000000D01*
X178193039Y-51019685D01*
X178238794Y-51072489D01*
X178250000Y-51124000D01*
X178250000Y-51876000D01*
X178230315Y-51943039D01*
X178177511Y-51988794D01*
X178126000Y-52000000D01*
X178000000Y-52000000D01*
X178000000Y-57000000D01*
X178126000Y-57000000D01*
X178193039Y-57019685D01*
X178238794Y-57072489D01*
X178250000Y-57124000D01*
X178250000Y-57876000D01*
X178230315Y-57943039D01*
X178177511Y-57988794D01*
X178126000Y-58000000D01*
X178000000Y-58000000D01*
X178000000Y-63000000D01*
X178126000Y-63000000D01*
X178193039Y-63019685D01*
X178238794Y-63072489D01*
X178250000Y-63124000D01*
X178250000Y-63876000D01*
X178230315Y-63943039D01*
X178177511Y-63988794D01*
X178126000Y-64000000D01*
X178000000Y-64000000D01*
X178000000Y-69000000D01*
X178126000Y-69000000D01*
X178193039Y-69019685D01*
X178238794Y-69072489D01*
X178250000Y-69124000D01*
X178250000Y-69876000D01*
X178230315Y-69943039D01*
X178177511Y-69988794D01*
X178126000Y-70000000D01*
X178000000Y-70000000D01*
X178000000Y-75000000D01*
X178126000Y-75000000D01*
X178193039Y-75019685D01*
X178238794Y-75072489D01*
X178250000Y-75124000D01*
X178250000Y-75876000D01*
X178230315Y-75943039D01*
X178177511Y-75988794D01*
X178126000Y-76000000D01*
X178000000Y-76000000D01*
X178000000Y-81000000D01*
X178126000Y-81000000D01*
X178193039Y-81019685D01*
X178238794Y-81072489D01*
X178250000Y-81124000D01*
X178250000Y-81876000D01*
X178230315Y-81943039D01*
X178177511Y-81988794D01*
X178126000Y-82000000D01*
X178000000Y-82000000D01*
X178000000Y-87000000D01*
X178126000Y-87000000D01*
X178193039Y-87019685D01*
X178238794Y-87072489D01*
X178250000Y-87124000D01*
X178250000Y-87876000D01*
X178230315Y-87943039D01*
X178177511Y-87988794D01*
X178126000Y-88000000D01*
X178000000Y-88000000D01*
X178000000Y-93000000D01*
X178126000Y-93000000D01*
X178193039Y-93019685D01*
X178238794Y-93072489D01*
X178250000Y-93124000D01*
X178250000Y-93876000D01*
X178230315Y-93943039D01*
X178177511Y-93988794D01*
X178126000Y-94000000D01*
X178000000Y-94000000D01*
X178000000Y-99000000D01*
X178126000Y-99000000D01*
X178193039Y-99019685D01*
X178238794Y-99072489D01*
X178250000Y-99124000D01*
X178250000Y-99876000D01*
X178230315Y-99943039D01*
X178177511Y-99988794D01*
X178126000Y-100000000D01*
X178000000Y-100000000D01*
X178000000Y-105000000D01*
X178126000Y-105000000D01*
X178193039Y-105019685D01*
X178238794Y-105072489D01*
X178250000Y-105124000D01*
X178250000Y-105876000D01*
X178230315Y-105943039D01*
X178177511Y-105988794D01*
X178126000Y-106000000D01*
X178000000Y-106000000D01*
X178000000Y-110876000D01*
X177980315Y-110943039D01*
X177927511Y-110988794D01*
X177876000Y-111000000D01*
X177124000Y-111000000D01*
X177056961Y-110980315D01*
X177011206Y-110927511D01*
X177000000Y-110876000D01*
X177000000Y-106000000D01*
X176874000Y-106000000D01*
X176806961Y-105980315D01*
X176761206Y-105927511D01*
X176750000Y-105876000D01*
X176750000Y-105124000D01*
X176769685Y-105056961D01*
X176822489Y-105011206D01*
X176874000Y-105000000D01*
X177000000Y-105000000D01*
X177000000Y-100000000D01*
X176874000Y-100000000D01*
X176806961Y-99980315D01*
X176761206Y-99927511D01*
X176750000Y-99876000D01*
X176750000Y-99124000D01*
X176769685Y-99056961D01*
X176822489Y-99011206D01*
X176874000Y-99000000D01*
X177000000Y-99000000D01*
X177000000Y-94000000D01*
X176874000Y-94000000D01*
X176806961Y-93980315D01*
X176761206Y-93927511D01*
X176750000Y-93876000D01*
X176750000Y-93124000D01*
X176769685Y-93056961D01*
X176822489Y-93011206D01*
X176874000Y-93000000D01*
X177000000Y-93000000D01*
X177000000Y-88000000D01*
X176874000Y-88000000D01*
X176806961Y-87980315D01*
X176761206Y-87927511D01*
X176750000Y-87876000D01*
X176750000Y-87124000D01*
X176769685Y-87056961D01*
X176822489Y-87011206D01*
X176874000Y-87000000D01*
X177000000Y-87000000D01*
X177000000Y-82000000D01*
X176874000Y-82000000D01*
X176806961Y-81980315D01*
X176761206Y-81927511D01*
X176750000Y-81876000D01*
X176750000Y-81124000D01*
X176769685Y-81056961D01*
X176822489Y-81011206D01*
X176874000Y-81000000D01*
X177000000Y-81000000D01*
X177000000Y-76000000D01*
X176874000Y-76000000D01*
X176806961Y-75980315D01*
X176761206Y-75927511D01*
X176750000Y-75876000D01*
X176750000Y-75124000D01*
X176769685Y-75056961D01*
X176822489Y-75011206D01*
X176874000Y-75000000D01*
X177000000Y-75000000D01*
X177000000Y-70000000D01*
X176874000Y-70000000D01*
X176806961Y-69980315D01*
X176761206Y-69927511D01*
X176750000Y-69876000D01*
X176750000Y-69124000D01*
X176769685Y-69056961D01*
X176822489Y-69011206D01*
X176874000Y-69000000D01*
X177000000Y-69000000D01*
X177000000Y-64000000D01*
X176874000Y-64000000D01*
X176806961Y-63980315D01*
X176761206Y-63927511D01*
X176750000Y-63876000D01*
X176750000Y-63124000D01*
X176769685Y-63056961D01*
X176822489Y-63011206D01*
X176874000Y-63000000D01*
X177000000Y-63000000D01*
X177000000Y-58000000D01*
X176874000Y-58000000D01*
X176806961Y-57980315D01*
X176761206Y-57927511D01*
X176750000Y-57876000D01*
X176750000Y-57124000D01*
X176769685Y-57056961D01*
X176822489Y-57011206D01*
X176874000Y-57000000D01*
X177000000Y-57000000D01*
X177000000Y-52000000D01*
X176874000Y-52000000D01*
X176806961Y-51980315D01*
X176761206Y-51927511D01*
X176750000Y-51876000D01*
X176750000Y-51124000D01*
X176769685Y-51056961D01*
X176822489Y-51011206D01*
X176874000Y-51000000D01*
X177000000Y-51000000D01*
X177000000Y-46000000D01*
X176874000Y-46000000D01*
X176806961Y-45980315D01*
X176761206Y-45927511D01*
X176750000Y-45876000D01*
X176750000Y-45124000D01*
X176769685Y-45056961D01*
X176822489Y-45011206D01*
X176874000Y-45000000D01*
X177000000Y-45000000D01*
X177000000Y-40124000D01*
X177019685Y-40056961D01*
X177072489Y-40011206D01*
X177124000Y-40000000D01*
X177876000Y-40000000D01*
X177943039Y-40019685D01*
G37*
G36*
X170943039Y-40019685D02*
G01*
X170988794Y-40072489D01*
X171000000Y-40124000D01*
X171000000Y-45000000D01*
X171126000Y-45000000D01*
X171193039Y-45019685D01*
X171238794Y-45072489D01*
X171250000Y-45124000D01*
X171250000Y-45876000D01*
X171230315Y-45943039D01*
X171177511Y-45988794D01*
X171126000Y-46000000D01*
X171000000Y-46000000D01*
X171000000Y-51000000D01*
X171126000Y-51000000D01*
X171193039Y-51019685D01*
X171238794Y-51072489D01*
X171250000Y-51124000D01*
X171250000Y-51876000D01*
X171230315Y-51943039D01*
X171177511Y-51988794D01*
X171126000Y-52000000D01*
X171000000Y-52000000D01*
X171000000Y-57000000D01*
X171126000Y-57000000D01*
X171193039Y-57019685D01*
X171238794Y-57072489D01*
X171250000Y-57124000D01*
X171250000Y-57876000D01*
X171230315Y-57943039D01*
X171177511Y-57988794D01*
X171126000Y-58000000D01*
X171000000Y-58000000D01*
X171000000Y-63000000D01*
X171126000Y-63000000D01*
X171193039Y-63019685D01*
X171238794Y-63072489D01*
X171250000Y-63124000D01*
X171250000Y-63876000D01*
X171230315Y-63943039D01*
X171177511Y-63988794D01*
X171126000Y-64000000D01*
X171000000Y-64000000D01*
X171000000Y-69000000D01*
X171126000Y-69000000D01*
X171193039Y-69019685D01*
X171238794Y-69072489D01*
X171250000Y-69124000D01*
X171250000Y-69876000D01*
X171230315Y-69943039D01*
X171177511Y-69988794D01*
X171126000Y-70000000D01*
X171000000Y-70000000D01*
X171000000Y-75000000D01*
X171126000Y-75000000D01*
X171193039Y-75019685D01*
X171238794Y-75072489D01*
X171250000Y-75124000D01*
X171250000Y-75876000D01*
X171230315Y-75943039D01*
X171177511Y-75988794D01*
X171126000Y-76000000D01*
X171000000Y-76000000D01*
X171000000Y-81000000D01*
X171126000Y-81000000D01*
X171193039Y-81019685D01*
X171238794Y-81072489D01*
X171250000Y-81124000D01*
X171250000Y-81876000D01*
X171230315Y-81943039D01*
X171177511Y-81988794D01*
X171126000Y-82000000D01*
X171000000Y-82000000D01*
X171000000Y-87000000D01*
X171126000Y-87000000D01*
X171193039Y-87019685D01*
X171238794Y-87072489D01*
X171250000Y-87124000D01*
X171250000Y-87876000D01*
X171230315Y-87943039D01*
X171177511Y-87988794D01*
X171126000Y-88000000D01*
X171000000Y-88000000D01*
X171000000Y-93000000D01*
X171126000Y-93000000D01*
X171193039Y-93019685D01*
X171238794Y-93072489D01*
X171250000Y-93124000D01*
X171250000Y-93876000D01*
X171230315Y-93943039D01*
X171177511Y-93988794D01*
X171126000Y-94000000D01*
X171000000Y-94000000D01*
X171000000Y-99000000D01*
X171126000Y-99000000D01*
X171193039Y-99019685D01*
X171238794Y-99072489D01*
X171250000Y-99124000D01*
X171250000Y-99876000D01*
X171230315Y-99943039D01*
X171177511Y-99988794D01*
X171126000Y-100000000D01*
X171000000Y-100000000D01*
X171000000Y-105000000D01*
X171126000Y-105000000D01*
X171193039Y-105019685D01*
X171238794Y-105072489D01*
X171250000Y-105124000D01*
X171250000Y-105876000D01*
X171230315Y-105943039D01*
X171177511Y-105988794D01*
X171126000Y-106000000D01*
X171000000Y-106000000D01*
X171000000Y-110876000D01*
X170980315Y-110943039D01*
X170927511Y-110988794D01*
X170876000Y-111000000D01*
X170124000Y-111000000D01*
X170056961Y-110980315D01*
X170011206Y-110927511D01*
X170000000Y-110876000D01*
X170000000Y-106000000D01*
X169874000Y-106000000D01*
X169806961Y-105980315D01*
X169761206Y-105927511D01*
X169750000Y-105876000D01*
X169750000Y-105124000D01*
X169769685Y-105056961D01*
X169822489Y-105011206D01*
X169874000Y-105000000D01*
X170000000Y-105000000D01*
X170000000Y-100000000D01*
X169874000Y-100000000D01*
X169806961Y-99980315D01*
X169761206Y-99927511D01*
X169750000Y-99876000D01*
X169750000Y-99124000D01*
X169769685Y-99056961D01*
X169822489Y-99011206D01*
X169874000Y-99000000D01*
X170000000Y-99000000D01*
X170000000Y-94000000D01*
X169874000Y-94000000D01*
X169806961Y-93980315D01*
X169761206Y-93927511D01*
X169750000Y-93876000D01*
X169750000Y-93124000D01*
X169769685Y-93056961D01*
X169822489Y-93011206D01*
X169874000Y-93000000D01*
X170000000Y-93000000D01*
X170000000Y-88000000D01*
X169874000Y-88000000D01*
X169806961Y-87980315D01*
X169761206Y-87927511D01*
X169750000Y-87876000D01*
X169750000Y-87124000D01*
X169769685Y-87056961D01*
X169822489Y-87011206D01*
X169874000Y-87000000D01*
X170000000Y-87000000D01*
X170000000Y-82000000D01*
X169874000Y-82000000D01*
X169806961Y-81980315D01*
X169761206Y-81927511D01*
X169750000Y-81876000D01*
X169750000Y-81124000D01*
X169769685Y-81056961D01*
X169822489Y-81011206D01*
X169874000Y-81000000D01*
X170000000Y-81000000D01*
X170000000Y-76000000D01*
X169874000Y-76000000D01*
X169806961Y-75980315D01*
X169761206Y-75927511D01*
X169750000Y-75876000D01*
X169750000Y-75124000D01*
X169769685Y-75056961D01*
X169822489Y-75011206D01*
X169874000Y-75000000D01*
X170000000Y-75000000D01*
X170000000Y-70000000D01*
X169874000Y-70000000D01*
X169806961Y-69980315D01*
X169761206Y-69927511D01*
X169750000Y-69876000D01*
X169750000Y-69124000D01*
X169769685Y-69056961D01*
X169822489Y-69011206D01*
X169874000Y-69000000D01*
X170000000Y-69000000D01*
X170000000Y-64000000D01*
X169874000Y-64000000D01*
X169806961Y-63980315D01*
X169761206Y-63927511D01*
X169750000Y-63876000D01*
X169750000Y-63124000D01*
X169769685Y-63056961D01*
X169822489Y-63011206D01*
X169874000Y-63000000D01*
X170000000Y-63000000D01*
X170000000Y-58000000D01*
X169874000Y-58000000D01*
X169806961Y-57980315D01*
X169761206Y-57927511D01*
X169750000Y-57876000D01*
X169750000Y-57124000D01*
X169769685Y-57056961D01*
X169822489Y-57011206D01*
X169874000Y-57000000D01*
X170000000Y-57000000D01*
X170000000Y-52000000D01*
X169874000Y-52000000D01*
X169806961Y-51980315D01*
X169761206Y-51927511D01*
X169750000Y-51876000D01*
X169750000Y-51124000D01*
X169769685Y-51056961D01*
X169822489Y-51011206D01*
X169874000Y-51000000D01*
X170000000Y-51000000D01*
X170000000Y-46000000D01*
X169874000Y-46000000D01*
X169806961Y-45980315D01*
X169761206Y-45927511D01*
X169750000Y-45876000D01*
X169750000Y-45124000D01*
X169769685Y-45056961D01*
X169822489Y-45011206D01*
X169874000Y-45000000D01*
X170000000Y-45000000D01*
X170000000Y-40124000D01*
X170019685Y-40056961D01*
X170072489Y-40011206D01*
X170124000Y-40000000D01*
X170876000Y-40000000D01*
X170943039Y-40019685D01*
G37*
G36*
X163943039Y-40019685D02*
G01*
X163988794Y-40072489D01*
X164000000Y-40124000D01*
X164000000Y-45000000D01*
X164126000Y-45000000D01*
X164193039Y-45019685D01*
X164238794Y-45072489D01*
X164250000Y-45124000D01*
X164250000Y-45876000D01*
X164230315Y-45943039D01*
X164177511Y-45988794D01*
X164126000Y-46000000D01*
X164000000Y-46000000D01*
X164000000Y-51000000D01*
X164126000Y-51000000D01*
X164193039Y-51019685D01*
X164238794Y-51072489D01*
X164250000Y-51124000D01*
X164250000Y-51876000D01*
X164230315Y-51943039D01*
X164177511Y-51988794D01*
X164126000Y-52000000D01*
X164000000Y-52000000D01*
X164000000Y-57000000D01*
X164126000Y-57000000D01*
X164193039Y-57019685D01*
X164238794Y-57072489D01*
X164250000Y-57124000D01*
X164250000Y-57876000D01*
X164230315Y-57943039D01*
X164177511Y-57988794D01*
X164126000Y-58000000D01*
X164000000Y-58000000D01*
X164000000Y-63000000D01*
X164126000Y-63000000D01*
X164193039Y-63019685D01*
X164238794Y-63072489D01*
X164250000Y-63124000D01*
X164250000Y-63876000D01*
X164230315Y-63943039D01*
X164177511Y-63988794D01*
X164126000Y-64000000D01*
X164000000Y-64000000D01*
X164000000Y-69000000D01*
X164126000Y-69000000D01*
X164193039Y-69019685D01*
X164238794Y-69072489D01*
X164250000Y-69124000D01*
X164250000Y-69876000D01*
X164230315Y-69943039D01*
X164177511Y-69988794D01*
X164126000Y-70000000D01*
X164000000Y-70000000D01*
X164000000Y-75000000D01*
X164126000Y-75000000D01*
X164193039Y-75019685D01*
X164238794Y-75072489D01*
X164250000Y-75124000D01*
X164250000Y-75876000D01*
X164230315Y-75943039D01*
X164177511Y-75988794D01*
X164126000Y-76000000D01*
X164000000Y-76000000D01*
X164000000Y-81000000D01*
X164126000Y-81000000D01*
X164193039Y-81019685D01*
X164238794Y-81072489D01*
X164250000Y-81124000D01*
X164250000Y-81876000D01*
X164230315Y-81943039D01*
X164177511Y-81988794D01*
X164126000Y-82000000D01*
X164000000Y-82000000D01*
X164000000Y-87000000D01*
X164126000Y-87000000D01*
X164193039Y-87019685D01*
X164238794Y-87072489D01*
X164250000Y-87124000D01*
X164250000Y-87876000D01*
X164230315Y-87943039D01*
X164177511Y-87988794D01*
X164126000Y-88000000D01*
X164000000Y-88000000D01*
X164000000Y-93000000D01*
X164126000Y-93000000D01*
X164193039Y-93019685D01*
X164238794Y-93072489D01*
X164250000Y-93124000D01*
X164250000Y-93876000D01*
X164230315Y-93943039D01*
X164177511Y-93988794D01*
X164126000Y-94000000D01*
X164000000Y-94000000D01*
X164000000Y-99000000D01*
X164126000Y-99000000D01*
X164193039Y-99019685D01*
X164238794Y-99072489D01*
X164250000Y-99124000D01*
X164250000Y-99876000D01*
X164230315Y-99943039D01*
X164177511Y-99988794D01*
X164126000Y-100000000D01*
X164000000Y-100000000D01*
X164000000Y-105000000D01*
X164126000Y-105000000D01*
X164193039Y-105019685D01*
X164238794Y-105072489D01*
X164250000Y-105124000D01*
X164250000Y-105876000D01*
X164230315Y-105943039D01*
X164177511Y-105988794D01*
X164126000Y-106000000D01*
X164000000Y-106000000D01*
X164000000Y-110876000D01*
X163980315Y-110943039D01*
X163927511Y-110988794D01*
X163876000Y-111000000D01*
X163124000Y-111000000D01*
X163056961Y-110980315D01*
X163011206Y-110927511D01*
X163000000Y-110876000D01*
X163000000Y-106000000D01*
X162874000Y-106000000D01*
X162806961Y-105980315D01*
X162761206Y-105927511D01*
X162750000Y-105876000D01*
X162750000Y-105124000D01*
X162769685Y-105056961D01*
X162822489Y-105011206D01*
X162874000Y-105000000D01*
X163000000Y-105000000D01*
X163000000Y-100000000D01*
X162874000Y-100000000D01*
X162806961Y-99980315D01*
X162761206Y-99927511D01*
X162750000Y-99876000D01*
X162750000Y-99124000D01*
X162769685Y-99056961D01*
X162822489Y-99011206D01*
X162874000Y-99000000D01*
X163000000Y-99000000D01*
X163000000Y-94000000D01*
X162874000Y-94000000D01*
X162806961Y-93980315D01*
X162761206Y-93927511D01*
X162750000Y-93876000D01*
X162750000Y-93124000D01*
X162769685Y-93056961D01*
X162822489Y-93011206D01*
X162874000Y-93000000D01*
X163000000Y-93000000D01*
X163000000Y-88000000D01*
X162874000Y-88000000D01*
X162806961Y-87980315D01*
X162761206Y-87927511D01*
X162750000Y-87876000D01*
X162750000Y-87124000D01*
X162769685Y-87056961D01*
X162822489Y-87011206D01*
X162874000Y-87000000D01*
X163000000Y-87000000D01*
X163000000Y-82000000D01*
X162874000Y-82000000D01*
X162806961Y-81980315D01*
X162761206Y-81927511D01*
X162750000Y-81876000D01*
X162750000Y-81124000D01*
X162769685Y-81056961D01*
X162822489Y-81011206D01*
X162874000Y-81000000D01*
X163000000Y-81000000D01*
X163000000Y-76000000D01*
X162874000Y-76000000D01*
X162806961Y-75980315D01*
X162761206Y-75927511D01*
X162750000Y-75876000D01*
X162750000Y-75124000D01*
X162769685Y-75056961D01*
X162822489Y-75011206D01*
X162874000Y-75000000D01*
X163000000Y-75000000D01*
X163000000Y-70000000D01*
X162874000Y-70000000D01*
X162806961Y-69980315D01*
X162761206Y-69927511D01*
X162750000Y-69876000D01*
X162750000Y-69124000D01*
X162769685Y-69056961D01*
X162822489Y-69011206D01*
X162874000Y-69000000D01*
X163000000Y-69000000D01*
X163000000Y-64000000D01*
X162874000Y-64000000D01*
X162806961Y-63980315D01*
X162761206Y-63927511D01*
X162750000Y-63876000D01*
X162750000Y-63124000D01*
X162769685Y-63056961D01*
X162822489Y-63011206D01*
X162874000Y-63000000D01*
X163000000Y-63000000D01*
X163000000Y-58000000D01*
X162874000Y-58000000D01*
X162806961Y-57980315D01*
X162761206Y-57927511D01*
X162750000Y-57876000D01*
X162750000Y-57124000D01*
X162769685Y-57056961D01*
X162822489Y-57011206D01*
X162874000Y-57000000D01*
X163000000Y-57000000D01*
X163000000Y-52000000D01*
X162874000Y-52000000D01*
X162806961Y-51980315D01*
X162761206Y-51927511D01*
X162750000Y-51876000D01*
X162750000Y-51124000D01*
X162769685Y-51056961D01*
X162822489Y-51011206D01*
X162874000Y-51000000D01*
X163000000Y-51000000D01*
X163000000Y-46000000D01*
X162874000Y-46000000D01*
X162806961Y-45980315D01*
X162761206Y-45927511D01*
X162750000Y-45876000D01*
X162750000Y-45124000D01*
X162769685Y-45056961D01*
X162822489Y-45011206D01*
X162874000Y-45000000D01*
X163000000Y-45000000D01*
X163000000Y-40124000D01*
X163019685Y-40056961D01*
X163072489Y-40011206D01*
X163124000Y-40000000D01*
X163876000Y-40000000D01*
X163943039Y-40019685D01*
G37*
G36*
X156943039Y-40019685D02*
G01*
X156988794Y-40072489D01*
X157000000Y-40124000D01*
X157000000Y-45000000D01*
X157126000Y-45000000D01*
X157193039Y-45019685D01*
X157238794Y-45072489D01*
X157250000Y-45124000D01*
X157250000Y-45876000D01*
X157230315Y-45943039D01*
X157177511Y-45988794D01*
X157126000Y-46000000D01*
X157000000Y-46000000D01*
X157000000Y-51000000D01*
X157126000Y-51000000D01*
X157193039Y-51019685D01*
X157238794Y-51072489D01*
X157250000Y-51124000D01*
X157250000Y-51876000D01*
X157230315Y-51943039D01*
X157177511Y-51988794D01*
X157126000Y-52000000D01*
X157000000Y-52000000D01*
X157000000Y-57000000D01*
X157126000Y-57000000D01*
X157193039Y-57019685D01*
X157238794Y-57072489D01*
X157250000Y-57124000D01*
X157250000Y-57876000D01*
X157230315Y-57943039D01*
X157177511Y-57988794D01*
X157126000Y-58000000D01*
X157000000Y-58000000D01*
X157000000Y-63000000D01*
X157126000Y-63000000D01*
X157193039Y-63019685D01*
X157238794Y-63072489D01*
X157250000Y-63124000D01*
X157250000Y-63876000D01*
X157230315Y-63943039D01*
X157177511Y-63988794D01*
X157126000Y-64000000D01*
X157000000Y-64000000D01*
X157000000Y-69000000D01*
X157126000Y-69000000D01*
X157193039Y-69019685D01*
X157238794Y-69072489D01*
X157250000Y-69124000D01*
X157250000Y-69876000D01*
X157230315Y-69943039D01*
X157177511Y-69988794D01*
X157126000Y-70000000D01*
X157000000Y-70000000D01*
X157000000Y-75000000D01*
X157126000Y-75000000D01*
X157193039Y-75019685D01*
X157238794Y-75072489D01*
X157250000Y-75124000D01*
X157250000Y-75876000D01*
X157230315Y-75943039D01*
X157177511Y-75988794D01*
X157126000Y-76000000D01*
X157000000Y-76000000D01*
X157000000Y-81000000D01*
X157126000Y-81000000D01*
X157193039Y-81019685D01*
X157238794Y-81072489D01*
X157250000Y-81124000D01*
X157250000Y-81876000D01*
X157230315Y-81943039D01*
X157177511Y-81988794D01*
X157126000Y-82000000D01*
X157000000Y-82000000D01*
X157000000Y-87000000D01*
X157126000Y-87000000D01*
X157193039Y-87019685D01*
X157238794Y-87072489D01*
X157250000Y-87124000D01*
X157250000Y-87876000D01*
X157230315Y-87943039D01*
X157177511Y-87988794D01*
X157126000Y-88000000D01*
X157000000Y-88000000D01*
X157000000Y-93000000D01*
X157126000Y-93000000D01*
X157193039Y-93019685D01*
X157238794Y-93072489D01*
X157250000Y-93124000D01*
X157250000Y-93876000D01*
X157230315Y-93943039D01*
X157177511Y-93988794D01*
X157126000Y-94000000D01*
X157000000Y-94000000D01*
X157000000Y-99000000D01*
X157126000Y-99000000D01*
X157193039Y-99019685D01*
X157238794Y-99072489D01*
X157250000Y-99124000D01*
X157250000Y-99876000D01*
X157230315Y-99943039D01*
X157177511Y-99988794D01*
X157126000Y-100000000D01*
X157000000Y-100000000D01*
X157000000Y-105000000D01*
X157126000Y-105000000D01*
X157193039Y-105019685D01*
X157238794Y-105072489D01*
X157250000Y-105124000D01*
X157250000Y-105876000D01*
X157230315Y-105943039D01*
X157177511Y-105988794D01*
X157126000Y-106000000D01*
X157000000Y-106000000D01*
X157000000Y-110876000D01*
X156980315Y-110943039D01*
X156927511Y-110988794D01*
X156876000Y-111000000D01*
X156124000Y-111000000D01*
X156056961Y-110980315D01*
X156011206Y-110927511D01*
X156000000Y-110876000D01*
X156000000Y-106000000D01*
X155874000Y-106000000D01*
X155806961Y-105980315D01*
X155761206Y-105927511D01*
X155750000Y-105876000D01*
X155750000Y-105124000D01*
X155769685Y-105056961D01*
X155822489Y-105011206D01*
X155874000Y-105000000D01*
X156000000Y-105000000D01*
X156000000Y-100000000D01*
X155874000Y-100000000D01*
X155806961Y-99980315D01*
X155761206Y-99927511D01*
X155750000Y-99876000D01*
X155750000Y-99124000D01*
X155769685Y-99056961D01*
X155822489Y-99011206D01*
X155874000Y-99000000D01*
X156000000Y-99000000D01*
X156000000Y-94000000D01*
X155874000Y-94000000D01*
X155806961Y-93980315D01*
X155761206Y-93927511D01*
X155750000Y-93876000D01*
X155750000Y-93124000D01*
X155769685Y-93056961D01*
X155822489Y-93011206D01*
X155874000Y-93000000D01*
X156000000Y-93000000D01*
X156000000Y-88000000D01*
X155874000Y-88000000D01*
X155806961Y-87980315D01*
X155761206Y-87927511D01*
X155750000Y-87876000D01*
X155750000Y-87124000D01*
X155769685Y-87056961D01*
X155822489Y-87011206D01*
X155874000Y-87000000D01*
X156000000Y-87000000D01*
X156000000Y-82000000D01*
X155874000Y-82000000D01*
X155806961Y-81980315D01*
X155761206Y-81927511D01*
X155750000Y-81876000D01*
X155750000Y-81124000D01*
X155769685Y-81056961D01*
X155822489Y-81011206D01*
X155874000Y-81000000D01*
X156000000Y-81000000D01*
X156000000Y-76000000D01*
X155874000Y-76000000D01*
X155806961Y-75980315D01*
X155761206Y-75927511D01*
X155750000Y-75876000D01*
X155750000Y-75124000D01*
X155769685Y-75056961D01*
X155822489Y-75011206D01*
X155874000Y-75000000D01*
X156000000Y-75000000D01*
X156000000Y-70000000D01*
X155874000Y-70000000D01*
X155806961Y-69980315D01*
X155761206Y-69927511D01*
X155750000Y-69876000D01*
X155750000Y-69124000D01*
X155769685Y-69056961D01*
X155822489Y-69011206D01*
X155874000Y-69000000D01*
X156000000Y-69000000D01*
X156000000Y-64000000D01*
X155874000Y-64000000D01*
X155806961Y-63980315D01*
X155761206Y-63927511D01*
X155750000Y-63876000D01*
X155750000Y-63124000D01*
X155769685Y-63056961D01*
X155822489Y-63011206D01*
X155874000Y-63000000D01*
X156000000Y-63000000D01*
X156000000Y-58000000D01*
X155874000Y-58000000D01*
X155806961Y-57980315D01*
X155761206Y-57927511D01*
X155750000Y-57876000D01*
X155750000Y-57124000D01*
X155769685Y-57056961D01*
X155822489Y-57011206D01*
X155874000Y-57000000D01*
X156000000Y-57000000D01*
X156000000Y-52000000D01*
X155874000Y-52000000D01*
X155806961Y-51980315D01*
X155761206Y-51927511D01*
X155750000Y-51876000D01*
X155750000Y-51124000D01*
X155769685Y-51056961D01*
X155822489Y-51011206D01*
X155874000Y-51000000D01*
X156000000Y-51000000D01*
X156000000Y-46000000D01*
X155874000Y-46000000D01*
X155806961Y-45980315D01*
X155761206Y-45927511D01*
X155750000Y-45876000D01*
X155750000Y-45124000D01*
X155769685Y-45056961D01*
X155822489Y-45011206D01*
X155874000Y-45000000D01*
X156000000Y-45000000D01*
X156000000Y-40124000D01*
X156019685Y-40056961D01*
X156072489Y-40011206D01*
X156124000Y-40000000D01*
X156876000Y-40000000D01*
X156943039Y-40019685D01*
G37*
M02*
