%TF.GenerationSoftware,KiCad,Pcbnew,9.0.2*%
%TF.CreationDate,2025-08-01T15:36:05+09:00*%
%TF.ProjectId,NeoPixel,4e656f50-6978-4656-9c2e-6b696361645f,rev?*%
%TF.SameCoordinates,Original*%
%TF.FileFunction,Paste,Bot*%
%TF.FilePolarity,Positive*%
%FSLAX46Y46*%
G04 Gerber Fmt 4.6, Leading zero omitted, Abs format (unit mm)*
G04 Created by KiCad (PCBNEW 9.0.2) date 2025-08-01 15:36:05*
%MOMM*%
%LPD*%
G01*
G04 APERTURE LIST*
%ADD10R,2.000000X3.000000*%
G04 APERTURE END LIST*
D10*
%TO.C,J1*%
X153750000Y-108050000D03*
%TD*%
%TO.C,J1*%
X202750000Y-108050000D03*
%TD*%
%TO.C,J1*%
X202750000Y-108050000D03*
%TD*%
%TO.C,J1*%
X209750000Y-108050000D03*
%TD*%
%TO.C,J1*%
X167750000Y-108050000D03*
%TD*%
%TO.C,J1*%
X160750000Y-108050000D03*
%TD*%
%TO.C,J1*%
X216750000Y-108050000D03*
%TD*%
%TO.C,J1*%
X174750000Y-108050000D03*
%TD*%
%TO.C,J1*%
X195750000Y-108050000D03*
%TD*%
%TO.C,J1*%
X181750000Y-108050000D03*
%TD*%
%TO.C,J1*%
X223750000Y-108050000D03*
%TD*%
%TO.C,J1*%
X188750000Y-108050000D03*
%TD*%
%TO.C,J1*%
X153750000Y-102050000D03*
%TD*%
%TO.C,J1*%
X202750000Y-102050000D03*
%TD*%
%TO.C,J1*%
X202750000Y-102050000D03*
%TD*%
%TO.C,J1*%
X209750000Y-102050000D03*
%TD*%
%TO.C,J1*%
X167750000Y-102050000D03*
%TD*%
%TO.C,J1*%
X160750000Y-102050000D03*
%TD*%
%TO.C,J1*%
X216750000Y-102050000D03*
%TD*%
%TO.C,J1*%
X174750000Y-102050000D03*
%TD*%
%TO.C,J1*%
X195750000Y-102050000D03*
%TD*%
%TO.C,J1*%
X181750000Y-102050000D03*
%TD*%
%TO.C,J1*%
X223750000Y-102050000D03*
%TD*%
%TO.C,J1*%
X188750000Y-102050000D03*
%TD*%
%TO.C,J1*%
X153750000Y-96050000D03*
%TD*%
%TO.C,J1*%
X202750000Y-96050000D03*
%TD*%
%TO.C,J1*%
X202750000Y-96050000D03*
%TD*%
%TO.C,J1*%
X209750000Y-96050000D03*
%TD*%
%TO.C,J1*%
X167750000Y-96050000D03*
%TD*%
%TO.C,J1*%
X160750000Y-96050000D03*
%TD*%
%TO.C,J1*%
X216750000Y-96050000D03*
%TD*%
%TO.C,J1*%
X174750000Y-96050000D03*
%TD*%
%TO.C,J1*%
X195750000Y-96050000D03*
%TD*%
%TO.C,J1*%
X181750000Y-96050000D03*
%TD*%
%TO.C,J1*%
X223750000Y-96050000D03*
%TD*%
%TO.C,J1*%
X188750000Y-96050000D03*
%TD*%
%TO.C,J1*%
X153750000Y-90050000D03*
%TD*%
%TO.C,J1*%
X202750000Y-90050000D03*
%TD*%
%TO.C,J1*%
X202750000Y-90050000D03*
%TD*%
%TO.C,J1*%
X209750000Y-90050000D03*
%TD*%
%TO.C,J1*%
X167750000Y-90050000D03*
%TD*%
%TO.C,J1*%
X160750000Y-90050000D03*
%TD*%
%TO.C,J1*%
X216750000Y-90050000D03*
%TD*%
%TO.C,J1*%
X174750000Y-90050000D03*
%TD*%
%TO.C,J1*%
X195750000Y-90050000D03*
%TD*%
%TO.C,J1*%
X181750000Y-90050000D03*
%TD*%
%TO.C,J1*%
X223750000Y-90050000D03*
%TD*%
%TO.C,J1*%
X188750000Y-90050000D03*
%TD*%
%TO.C,J1*%
X153750000Y-84050000D03*
%TD*%
%TO.C,J1*%
X202750000Y-84050000D03*
%TD*%
%TO.C,J1*%
X202750000Y-84050000D03*
%TD*%
%TO.C,J1*%
X209750000Y-84050000D03*
%TD*%
%TO.C,J1*%
X167750000Y-84050000D03*
%TD*%
%TO.C,J1*%
X160750000Y-84050000D03*
%TD*%
%TO.C,J1*%
X216750000Y-84050000D03*
%TD*%
%TO.C,J1*%
X174750000Y-84050000D03*
%TD*%
%TO.C,J1*%
X195750000Y-84050000D03*
%TD*%
%TO.C,J1*%
X181750000Y-84050000D03*
%TD*%
%TO.C,J1*%
X223750000Y-84050000D03*
%TD*%
%TO.C,J1*%
X188750000Y-84050000D03*
%TD*%
%TO.C,J1*%
X153750000Y-78050000D03*
%TD*%
%TO.C,J1*%
X202750000Y-78050000D03*
%TD*%
%TO.C,J1*%
X202750000Y-78050000D03*
%TD*%
%TO.C,J1*%
X209750000Y-78050000D03*
%TD*%
%TO.C,J1*%
X167750000Y-78050000D03*
%TD*%
%TO.C,J1*%
X160750000Y-78050000D03*
%TD*%
%TO.C,J1*%
X216750000Y-78050000D03*
%TD*%
%TO.C,J1*%
X174750000Y-78050000D03*
%TD*%
%TO.C,J1*%
X195750000Y-78050000D03*
%TD*%
%TO.C,J1*%
X181750000Y-78050000D03*
%TD*%
%TO.C,J1*%
X223750000Y-78050000D03*
%TD*%
%TO.C,J1*%
X188750000Y-78050000D03*
%TD*%
%TO.C,J1*%
X153750000Y-72050000D03*
%TD*%
%TO.C,J1*%
X202750000Y-72050000D03*
%TD*%
%TO.C,J1*%
X202750000Y-72050000D03*
%TD*%
%TO.C,J1*%
X209750000Y-72050000D03*
%TD*%
%TO.C,J1*%
X167750000Y-72050000D03*
%TD*%
%TO.C,J1*%
X160750000Y-72050000D03*
%TD*%
%TO.C,J1*%
X216750000Y-72050000D03*
%TD*%
%TO.C,J1*%
X174750000Y-72050000D03*
%TD*%
%TO.C,J1*%
X195750000Y-72050000D03*
%TD*%
%TO.C,J1*%
X181750000Y-72050000D03*
%TD*%
%TO.C,J1*%
X223750000Y-72050000D03*
%TD*%
%TO.C,J1*%
X188750000Y-72050000D03*
%TD*%
%TO.C,J1*%
X153750000Y-66050000D03*
%TD*%
%TO.C,J1*%
X202750000Y-66050000D03*
%TD*%
%TO.C,J1*%
X202750000Y-66050000D03*
%TD*%
%TO.C,J1*%
X209750000Y-66050000D03*
%TD*%
%TO.C,J1*%
X167750000Y-66050000D03*
%TD*%
%TO.C,J1*%
X160750000Y-66050000D03*
%TD*%
%TO.C,J1*%
X216750000Y-66050000D03*
%TD*%
%TO.C,J1*%
X174750000Y-66050000D03*
%TD*%
%TO.C,J1*%
X195750000Y-66050000D03*
%TD*%
%TO.C,J1*%
X181750000Y-66050000D03*
%TD*%
%TO.C,J1*%
X223750000Y-66050000D03*
%TD*%
%TO.C,J1*%
X188750000Y-66050000D03*
%TD*%
%TO.C,J1*%
X153750000Y-60050000D03*
%TD*%
%TO.C,J1*%
X202750000Y-60050000D03*
%TD*%
%TO.C,J1*%
X202750000Y-60050000D03*
%TD*%
%TO.C,J1*%
X209750000Y-60050000D03*
%TD*%
%TO.C,J1*%
X167750000Y-60050000D03*
%TD*%
%TO.C,J1*%
X160750000Y-60050000D03*
%TD*%
%TO.C,J1*%
X216750000Y-60050000D03*
%TD*%
%TO.C,J1*%
X174750000Y-60050000D03*
%TD*%
%TO.C,J1*%
X195750000Y-60050000D03*
%TD*%
%TO.C,J1*%
X181750000Y-60050000D03*
%TD*%
%TO.C,J1*%
X223750000Y-60050000D03*
%TD*%
%TO.C,J1*%
X188750000Y-60050000D03*
%TD*%
%TO.C,J1*%
X153750000Y-54050000D03*
%TD*%
%TO.C,J1*%
X202750000Y-54050000D03*
%TD*%
%TO.C,J1*%
X202750000Y-54050000D03*
%TD*%
%TO.C,J1*%
X209750000Y-54050000D03*
%TD*%
%TO.C,J1*%
X167750000Y-54050000D03*
%TD*%
%TO.C,J1*%
X160750000Y-54050000D03*
%TD*%
%TO.C,J1*%
X216750000Y-54050000D03*
%TD*%
%TO.C,J1*%
X174750000Y-54050000D03*
%TD*%
%TO.C,J1*%
X195750000Y-54050000D03*
%TD*%
%TO.C,J1*%
X181750000Y-54050000D03*
%TD*%
%TO.C,J1*%
X223750000Y-54050000D03*
%TD*%
%TO.C,J1*%
X188750000Y-54050000D03*
%TD*%
%TO.C,J1*%
X153750000Y-48050000D03*
%TD*%
%TO.C,J1*%
X202750000Y-48050000D03*
%TD*%
%TO.C,J1*%
X202750000Y-48050000D03*
%TD*%
%TO.C,J1*%
X209750000Y-48050000D03*
%TD*%
%TO.C,J1*%
X167750000Y-48050000D03*
%TD*%
%TO.C,J1*%
X160750000Y-48050000D03*
%TD*%
%TO.C,J1*%
X216750000Y-48050000D03*
%TD*%
%TO.C,J1*%
X174750000Y-48050000D03*
%TD*%
%TO.C,J1*%
X195750000Y-48050000D03*
%TD*%
%TO.C,J1*%
X181750000Y-48050000D03*
%TD*%
%TO.C,J1*%
X223750000Y-48050000D03*
%TD*%
%TO.C,J1*%
X188750000Y-48050000D03*
%TD*%
%TO.C,J1*%
X223750000Y-42050000D03*
%TD*%
%TO.C,J1*%
X216750000Y-42050000D03*
%TD*%
%TO.C,J1*%
X209750000Y-42050000D03*
%TD*%
%TO.C,J1*%
X202750000Y-42050000D03*
%TD*%
%TO.C,J1*%
X202750000Y-42050000D03*
%TD*%
%TO.C,J1*%
X195750000Y-42050000D03*
%TD*%
%TO.C,J1*%
X188750000Y-42050000D03*
%TD*%
%TO.C,J1*%
X181750000Y-42050000D03*
%TD*%
%TO.C,J1*%
X174750000Y-42050000D03*
%TD*%
%TO.C,J1*%
X167750000Y-42050000D03*
%TD*%
%TO.C,J1*%
X160750000Y-42050000D03*
%TD*%
%TO.C,J1*%
X153750000Y-42050000D03*
%TD*%
M02*
