M48
; DRILL file {KiCad 9.0.2} date 2025-08-01T15:36:03+0900
; FORMAT={-:-/ absolute / metric / decimal}
; #@! TF.CreationDate,2025-08-01T15:36:03+09:00
; #@! TF.GenerationSoftware,Kicad,Pcbnew,9.0.2
; #@! TF.FileFunction,Plated,1,2,PTH
FMAT,2
METRIC
; #@! TA.AperFunction,Plated,PTH,ViaDrill
T1C0.300
; #@! TA.AperFunction,Plated,PTH,ComponentDrill
T2C0.650
; #@! TA.AperFunction,Plated,PTH,ComponentDrill
T3C0.800
%
G90
G05
T1
X153.635Y-42.569
X153.635Y-48.569
X153.635Y-54.569
X153.635Y-60.569
X153.635Y-66.569
X153.635Y-72.569
X153.635Y-78.569
X153.635Y-84.569
X153.635Y-90.569
X153.635Y-96.569
X153.635Y-102.569
X153.635Y-108.569
X154.575Y-41.2
X154.575Y-47.2
X154.575Y-53.2
X154.575Y-59.2
X154.575Y-65.2
X154.575Y-71.2
X154.575Y-77.2
X154.575Y-83.2
X154.575Y-89.2
X154.575Y-95.2
X154.575Y-101.2
X154.575Y-107.2
X154.715Y-43.9
X154.715Y-49.9
X154.715Y-55.9
X154.715Y-61.9
X154.715Y-67.9
X154.715Y-73.9
X154.715Y-79.9
X154.715Y-85.9
X154.715Y-91.9
X154.715Y-97.9
X154.715Y-103.9
X154.715Y-109.9
X160.635Y-42.569
X160.635Y-48.569
X160.635Y-54.569
X160.635Y-60.569
X160.635Y-66.569
X160.635Y-72.569
X160.635Y-78.569
X160.635Y-84.569
X160.635Y-90.569
X160.635Y-96.569
X160.635Y-102.569
X160.635Y-108.569
X161.575Y-41.2
X161.575Y-47.2
X161.575Y-53.2
X161.575Y-59.2
X161.575Y-65.2
X161.575Y-71.2
X161.575Y-77.2
X161.575Y-83.2
X161.575Y-89.2
X161.575Y-95.2
X161.575Y-101.2
X161.575Y-107.2
X161.715Y-43.9
X161.715Y-49.9
X161.715Y-55.9
X161.715Y-61.9
X161.715Y-67.9
X161.715Y-73.9
X161.715Y-79.9
X161.715Y-85.9
X161.715Y-91.9
X161.715Y-97.9
X161.715Y-103.9
X161.715Y-109.9
X167.635Y-42.569
X167.635Y-48.569
X167.635Y-54.569
X167.635Y-60.569
X167.635Y-66.569
X167.635Y-72.569
X167.635Y-78.569
X167.635Y-84.569
X167.635Y-90.569
X167.635Y-96.569
X167.635Y-102.569
X167.635Y-108.569
X168.575Y-41.2
X168.575Y-47.2
X168.575Y-53.2
X168.575Y-59.2
X168.575Y-65.2
X168.575Y-71.2
X168.575Y-77.2
X168.575Y-83.2
X168.575Y-89.2
X168.575Y-95.2
X168.575Y-101.2
X168.575Y-107.2
X168.715Y-43.9
X168.715Y-49.9
X168.715Y-55.9
X168.715Y-61.9
X168.715Y-67.9
X168.715Y-73.9
X168.715Y-79.9
X168.715Y-85.9
X168.715Y-91.9
X168.715Y-97.9
X168.715Y-103.9
X168.715Y-109.9
X174.635Y-42.569
X174.635Y-48.569
X174.635Y-54.569
X174.635Y-60.569
X174.635Y-66.569
X174.635Y-72.569
X174.635Y-78.569
X174.635Y-84.569
X174.635Y-90.569
X174.635Y-96.569
X174.635Y-102.569
X174.635Y-108.569
X175.575Y-41.2
X175.575Y-47.2
X175.575Y-53.2
X175.575Y-59.2
X175.575Y-65.2
X175.575Y-71.2
X175.575Y-77.2
X175.575Y-83.2
X175.575Y-89.2
X175.575Y-95.2
X175.575Y-101.2
X175.575Y-107.2
X175.715Y-43.9
X175.715Y-49.9
X175.715Y-55.9
X175.715Y-61.9
X175.715Y-67.9
X175.715Y-73.9
X175.715Y-79.9
X175.715Y-85.9
X175.715Y-91.9
X175.715Y-97.9
X175.715Y-103.9
X175.715Y-109.9
X181.635Y-42.569
X181.635Y-48.569
X181.635Y-54.569
X181.635Y-60.569
X181.635Y-66.569
X181.635Y-72.569
X181.635Y-78.569
X181.635Y-84.569
X181.635Y-90.569
X181.635Y-96.569
X181.635Y-102.569
X181.635Y-108.569
X182.575Y-41.2
X182.575Y-47.2
X182.575Y-53.2
X182.575Y-59.2
X182.575Y-65.2
X182.575Y-71.2
X182.575Y-77.2
X182.575Y-83.2
X182.575Y-89.2
X182.575Y-95.2
X182.575Y-101.2
X182.575Y-107.2
X182.715Y-43.9
X182.715Y-49.9
X182.715Y-55.9
X182.715Y-61.9
X182.715Y-67.9
X182.715Y-73.9
X182.715Y-79.9
X182.715Y-85.9
X182.715Y-91.9
X182.715Y-97.9
X182.715Y-103.9
X182.715Y-109.9
X188.635Y-42.569
X188.635Y-48.569
X188.635Y-54.569
X188.635Y-60.569
X188.635Y-66.569
X188.635Y-72.569
X188.635Y-78.569
X188.635Y-84.569
X188.635Y-90.569
X188.635Y-96.569
X188.635Y-102.569
X188.635Y-108.569
X189.575Y-41.2
X189.575Y-47.2
X189.575Y-53.2
X189.575Y-59.2
X189.575Y-65.2
X189.575Y-71.2
X189.575Y-77.2
X189.575Y-83.2
X189.575Y-89.2
X189.575Y-95.2
X189.575Y-101.2
X189.575Y-107.2
X189.715Y-43.9
X189.715Y-49.9
X189.715Y-55.9
X189.715Y-61.9
X189.715Y-67.9
X189.715Y-73.9
X189.715Y-79.9
X189.715Y-85.9
X189.715Y-91.9
X189.715Y-97.9
X189.715Y-103.9
X189.715Y-109.9
X195.635Y-42.569
X195.635Y-48.569
X195.635Y-54.569
X195.635Y-60.569
X195.635Y-66.569
X195.635Y-72.569
X195.635Y-78.569
X195.635Y-84.569
X195.635Y-90.569
X195.635Y-96.569
X195.635Y-102.569
X195.635Y-108.569
X196.575Y-41.2
X196.575Y-47.2
X196.575Y-53.2
X196.575Y-59.2
X196.575Y-65.2
X196.575Y-71.2
X196.575Y-77.2
X196.575Y-83.2
X196.575Y-89.2
X196.575Y-95.2
X196.575Y-101.2
X196.575Y-107.2
X196.715Y-43.9
X196.715Y-49.9
X196.715Y-55.9
X196.715Y-61.9
X196.715Y-67.9
X196.715Y-73.9
X196.715Y-79.9
X196.715Y-85.9
X196.715Y-91.9
X196.715Y-97.9
X196.715Y-103.9
X196.715Y-109.9
X202.635Y-42.569
X202.635Y-42.569
X202.635Y-48.569
X202.635Y-48.569
X202.635Y-54.569
X202.635Y-54.569
X202.635Y-60.569
X202.635Y-60.569
X202.635Y-66.569
X202.635Y-66.569
X202.635Y-72.569
X202.635Y-72.569
X202.635Y-78.569
X202.635Y-78.569
X202.635Y-84.569
X202.635Y-84.569
X202.635Y-90.569
X202.635Y-90.569
X202.635Y-96.569
X202.635Y-96.569
X202.635Y-102.569
X202.635Y-102.569
X202.635Y-108.569
X202.635Y-108.569
X203.575Y-41.2
X203.575Y-41.2
X203.575Y-47.2
X203.575Y-47.2
X203.575Y-53.2
X203.575Y-53.2
X203.575Y-59.2
X203.575Y-59.2
X203.575Y-65.2
X203.575Y-65.2
X203.575Y-71.2
X203.575Y-71.2
X203.575Y-77.2
X203.575Y-77.2
X203.575Y-83.2
X203.575Y-83.2
X203.575Y-89.2
X203.575Y-89.2
X203.575Y-95.2
X203.575Y-95.2
X203.575Y-101.2
X203.575Y-101.2
X203.575Y-107.2
X203.575Y-107.2
X203.715Y-43.9
X203.715Y-43.9
X203.715Y-49.9
X203.715Y-49.9
X203.715Y-55.9
X203.715Y-55.9
X203.715Y-61.9
X203.715Y-61.9
X203.715Y-67.9
X203.715Y-67.9
X203.715Y-73.9
X203.715Y-73.9
X203.715Y-79.9
X203.715Y-79.9
X203.715Y-85.9
X203.715Y-85.9
X203.715Y-91.9
X203.715Y-91.9
X203.715Y-97.9
X203.715Y-97.9
X203.715Y-103.9
X203.715Y-103.9
X203.715Y-109.9
X203.715Y-109.9
X209.635Y-42.569
X209.635Y-48.569
X209.635Y-54.569
X209.635Y-60.569
X209.635Y-66.569
X209.635Y-72.569
X209.635Y-78.569
X209.635Y-84.569
X209.635Y-90.569
X209.635Y-96.569
X209.635Y-102.569
X209.635Y-108.569
X210.575Y-41.2
X210.575Y-47.2
X210.575Y-53.2
X210.575Y-59.2
X210.575Y-65.2
X210.575Y-71.2
X210.575Y-77.2
X210.575Y-83.2
X210.575Y-89.2
X210.575Y-95.2
X210.575Y-101.2
X210.575Y-107.2
X210.715Y-43.9
X210.715Y-49.9
X210.715Y-55.9
X210.715Y-61.9
X210.715Y-67.9
X210.715Y-73.9
X210.715Y-79.9
X210.715Y-85.9
X210.715Y-91.9
X210.715Y-97.9
X210.715Y-103.9
X210.715Y-109.9
X216.635Y-42.569
X216.635Y-48.569
X216.635Y-54.569
X216.635Y-60.569
X216.635Y-66.569
X216.635Y-72.569
X216.635Y-78.569
X216.635Y-84.569
X216.635Y-90.569
X216.635Y-96.569
X216.635Y-102.569
X216.635Y-108.569
X217.575Y-41.2
X217.575Y-47.2
X217.575Y-53.2
X217.575Y-59.2
X217.575Y-65.2
X217.575Y-71.2
X217.575Y-77.2
X217.575Y-83.2
X217.575Y-89.2
X217.575Y-95.2
X217.575Y-101.2
X217.575Y-107.2
X217.715Y-43.9
X217.715Y-49.9
X217.715Y-55.9
X217.715Y-61.9
X217.715Y-67.9
X217.715Y-73.9
X217.715Y-79.9
X217.715Y-85.9
X217.715Y-91.9
X217.715Y-97.9
X217.715Y-103.9
X217.715Y-109.9
X223.635Y-42.569
X223.635Y-48.569
X223.635Y-54.569
X223.635Y-60.569
X223.635Y-66.569
X223.635Y-72.569
X223.635Y-78.569
X223.635Y-84.569
X223.635Y-90.569
X223.635Y-96.569
X223.635Y-102.569
X223.635Y-108.569
X224.575Y-41.2
X224.575Y-47.2
X224.575Y-53.2
X224.575Y-59.2
X224.575Y-65.2
X224.575Y-71.2
X224.575Y-77.2
X224.575Y-83.2
X224.575Y-89.2
X224.575Y-95.2
X224.575Y-101.2
X224.575Y-107.2
X224.715Y-43.9
X224.715Y-49.9
X224.715Y-55.9
X224.715Y-61.9
X224.715Y-67.9
X224.715Y-73.9
X224.715Y-79.9
X224.715Y-85.9
X224.715Y-91.9
X224.715Y-97.9
X224.715Y-103.9
X224.715Y-109.9
T2
X151.33Y-42.68
X151.33Y-43.88
X151.33Y-48.68
X151.33Y-49.88
X151.33Y-54.68
X151.33Y-55.88
X151.33Y-60.68
X151.33Y-61.88
X151.33Y-66.68
X151.33Y-67.88
X151.33Y-72.68
X151.33Y-73.88
X151.33Y-78.68
X151.33Y-79.88
X151.33Y-84.68
X151.33Y-85.88
X151.33Y-90.68
X151.33Y-91.88
X151.33Y-96.68
X151.33Y-97.88
X151.33Y-102.68
X151.33Y-103.88
X151.33Y-108.68
X151.33Y-109.88
X158.33Y-42.68
X158.33Y-43.88
X158.33Y-48.68
X158.33Y-49.88
X158.33Y-54.68
X158.33Y-55.88
X158.33Y-60.68
X158.33Y-61.88
X158.33Y-66.68
X158.33Y-67.88
X158.33Y-72.68
X158.33Y-73.88
X158.33Y-78.68
X158.33Y-79.88
X158.33Y-84.68
X158.33Y-85.88
X158.33Y-90.68
X158.33Y-91.88
X158.33Y-96.68
X158.33Y-97.88
X158.33Y-102.68
X158.33Y-103.88
X158.33Y-108.68
X158.33Y-109.88
X165.33Y-42.68
X165.33Y-43.88
X165.33Y-48.68
X165.33Y-49.88
X165.33Y-54.68
X165.33Y-55.88
X165.33Y-60.68
X165.33Y-61.88
X165.33Y-66.68
X165.33Y-67.88
X165.33Y-72.68
X165.33Y-73.88
X165.33Y-78.68
X165.33Y-79.88
X165.33Y-84.68
X165.33Y-85.88
X165.33Y-90.68
X165.33Y-91.88
X165.33Y-96.68
X165.33Y-97.88
X165.33Y-102.68
X165.33Y-103.88
X165.33Y-108.68
X165.33Y-109.88
X172.33Y-42.68
X172.33Y-43.88
X172.33Y-48.68
X172.33Y-49.88
X172.33Y-54.68
X172.33Y-55.88
X172.33Y-60.68
X172.33Y-61.88
X172.33Y-66.68
X172.33Y-67.88
X172.33Y-72.68
X172.33Y-73.88
X172.33Y-78.68
X172.33Y-79.88
X172.33Y-84.68
X172.33Y-85.88
X172.33Y-90.68
X172.33Y-91.88
X172.33Y-96.68
X172.33Y-97.88
X172.33Y-102.68
X172.33Y-103.88
X172.33Y-108.68
X172.33Y-109.88
X179.33Y-42.68
X179.33Y-43.88
X179.33Y-48.68
X179.33Y-49.88
X179.33Y-54.68
X179.33Y-55.88
X179.33Y-60.68
X179.33Y-61.88
X179.33Y-66.68
X179.33Y-67.88
X179.33Y-72.68
X179.33Y-73.88
X179.33Y-78.68
X179.33Y-79.88
X179.33Y-84.68
X179.33Y-85.88
X179.33Y-90.68
X179.33Y-91.88
X179.33Y-96.68
X179.33Y-97.88
X179.33Y-102.68
X179.33Y-103.88
X179.33Y-108.68
X179.33Y-109.88
X186.33Y-42.68
X186.33Y-43.88
X186.33Y-48.68
X186.33Y-49.88
X186.33Y-54.68
X186.33Y-55.88
X186.33Y-60.68
X186.33Y-61.88
X186.33Y-66.68
X186.33Y-67.88
X186.33Y-72.68
X186.33Y-73.88
X186.33Y-78.68
X186.33Y-79.88
X186.33Y-84.68
X186.33Y-85.88
X186.33Y-90.68
X186.33Y-91.88
X186.33Y-96.68
X186.33Y-97.88
X186.33Y-102.68
X186.33Y-103.88
X186.33Y-108.68
X186.33Y-109.88
X193.33Y-42.68
X193.33Y-43.88
X193.33Y-48.68
X193.33Y-49.88
X193.33Y-54.68
X193.33Y-55.88
X193.33Y-60.68
X193.33Y-61.88
X193.33Y-66.68
X193.33Y-67.88
X193.33Y-72.68
X193.33Y-73.88
X193.33Y-78.68
X193.33Y-79.88
X193.33Y-84.68
X193.33Y-85.88
X193.33Y-90.68
X193.33Y-91.88
X193.33Y-96.68
X193.33Y-97.88
X193.33Y-102.68
X193.33Y-103.88
X193.33Y-108.68
X193.33Y-109.88
X200.33Y-42.68
X200.33Y-42.68
X200.33Y-43.88
X200.33Y-43.88
X200.33Y-48.68
X200.33Y-48.68
X200.33Y-49.88
X200.33Y-49.88
X200.33Y-54.68
X200.33Y-54.68
X200.33Y-55.88
X200.33Y-55.88
X200.33Y-60.68
X200.33Y-60.68
X200.33Y-61.88
X200.33Y-61.88
X200.33Y-66.68
X200.33Y-66.68
X200.33Y-67.88
X200.33Y-67.88
X200.33Y-72.68
X200.33Y-72.68
X200.33Y-73.88
X200.33Y-73.88
X200.33Y-78.68
X200.33Y-78.68
X200.33Y-79.88
X200.33Y-79.88
X200.33Y-84.68
X200.33Y-84.68
X200.33Y-85.88
X200.33Y-85.88
X200.33Y-90.68
X200.33Y-90.68
X200.33Y-91.88
X200.33Y-91.88
X200.33Y-96.68
X200.33Y-96.68
X200.33Y-97.88
X200.33Y-97.88
X200.33Y-102.68
X200.33Y-102.68
X200.33Y-103.88
X200.33Y-103.88
X200.33Y-108.68
X200.33Y-108.68
X200.33Y-109.88
X200.33Y-109.88
X207.33Y-42.68
X207.33Y-43.88
X207.33Y-48.68
X207.33Y-49.88
X207.33Y-54.68
X207.33Y-55.88
X207.33Y-60.68
X207.33Y-61.88
X207.33Y-66.68
X207.33Y-67.88
X207.33Y-72.68
X207.33Y-73.88
X207.33Y-78.68
X207.33Y-79.88
X207.33Y-84.68
X207.33Y-85.88
X207.33Y-90.68
X207.33Y-91.88
X207.33Y-96.68
X207.33Y-97.88
X207.33Y-102.68
X207.33Y-103.88
X207.33Y-108.68
X207.33Y-109.88
X214.33Y-42.68
X214.33Y-43.88
X214.33Y-48.68
X214.33Y-49.88
X214.33Y-54.68
X214.33Y-55.88
X214.33Y-60.68
X214.33Y-61.88
X214.33Y-66.68
X214.33Y-67.88
X214.33Y-72.68
X214.33Y-73.88
X214.33Y-78.68
X214.33Y-79.88
X214.33Y-84.68
X214.33Y-85.88
X214.33Y-90.68
X214.33Y-91.88
X214.33Y-96.68
X214.33Y-97.88
X214.33Y-102.68
X214.33Y-103.88
X214.33Y-108.68
X214.33Y-109.88
X221.33Y-42.68
X221.33Y-43.88
X221.33Y-48.68
X221.33Y-49.88
X221.33Y-54.68
X221.33Y-55.88
X221.33Y-60.68
X221.33Y-61.88
X221.33Y-66.68
X221.33Y-67.88
X221.33Y-72.68
X221.33Y-73.88
X221.33Y-78.68
X221.33Y-79.88
X221.33Y-84.68
X221.33Y-85.88
X221.33Y-90.68
X221.33Y-91.88
X221.33Y-96.68
X221.33Y-97.88
X221.33Y-102.68
X221.33Y-103.88
X221.33Y-108.68
X221.33Y-109.88
T3
X151.4Y-41.25
X151.4Y-47.25
X151.4Y-53.25
X151.4Y-59.25
X151.4Y-65.25
X151.4Y-71.25
X151.4Y-77.25
X151.4Y-83.25
X151.4Y-89.25
X151.4Y-95.25
X151.4Y-101.25
X151.4Y-107.25
X158.4Y-41.25
X158.4Y-47.25
X158.4Y-53.25
X158.4Y-59.25
X158.4Y-65.25
X158.4Y-71.25
X158.4Y-77.25
X158.4Y-83.25
X158.4Y-89.25
X158.4Y-95.25
X158.4Y-101.25
X158.4Y-107.25
X165.4Y-41.25
X165.4Y-47.25
X165.4Y-53.25
X165.4Y-59.25
X165.4Y-65.25
X165.4Y-71.25
X165.4Y-77.25
X165.4Y-83.25
X165.4Y-89.25
X165.4Y-95.25
X165.4Y-101.25
X165.4Y-107.25
X172.4Y-41.25
X172.4Y-47.25
X172.4Y-53.25
X172.4Y-59.25
X172.4Y-65.25
X172.4Y-71.25
X172.4Y-77.25
X172.4Y-83.25
X172.4Y-89.25
X172.4Y-95.25
X172.4Y-101.25
X172.4Y-107.25
X179.4Y-41.25
X179.4Y-47.25
X179.4Y-53.25
X179.4Y-59.25
X179.4Y-65.25
X179.4Y-71.25
X179.4Y-77.25
X179.4Y-83.25
X179.4Y-89.25
X179.4Y-95.25
X179.4Y-101.25
X179.4Y-107.25
X186.4Y-41.25
X186.4Y-47.25
X186.4Y-53.25
X186.4Y-59.25
X186.4Y-65.25
X186.4Y-71.25
X186.4Y-77.25
X186.4Y-83.25
X186.4Y-89.25
X186.4Y-95.25
X186.4Y-101.25
X186.4Y-107.25
X193.4Y-41.25
X193.4Y-47.25
X193.4Y-53.25
X193.4Y-59.25
X193.4Y-65.25
X193.4Y-71.25
X193.4Y-77.25
X193.4Y-83.25
X193.4Y-89.25
X193.4Y-95.25
X193.4Y-101.25
X193.4Y-107.25
X200.4Y-41.25
X200.4Y-41.25
X200.4Y-47.25
X200.4Y-47.25
X200.4Y-53.25
X200.4Y-53.25
X200.4Y-59.25
X200.4Y-59.25
X200.4Y-65.25
X200.4Y-65.25
X200.4Y-71.25
X200.4Y-71.25
X200.4Y-77.25
X200.4Y-77.25
X200.4Y-83.25
X200.4Y-83.25
X200.4Y-89.25
X200.4Y-89.25
X200.4Y-95.25
X200.4Y-95.25
X200.4Y-101.25
X200.4Y-101.25
X200.4Y-107.25
X200.4Y-107.25
X207.4Y-41.25
X207.4Y-47.25
X207.4Y-53.25
X207.4Y-59.25
X207.4Y-65.25
X207.4Y-71.25
X207.4Y-77.25
X207.4Y-83.25
X207.4Y-89.25
X207.4Y-95.25
X207.4Y-101.25
X207.4Y-107.25
X214.4Y-41.25
X214.4Y-47.25
X214.4Y-53.25
X214.4Y-59.25
X214.4Y-65.25
X214.4Y-71.25
X214.4Y-77.25
X214.4Y-83.25
X214.4Y-89.25
X214.4Y-95.25
X214.4Y-101.25
X214.4Y-107.25
X221.4Y-41.25
X221.4Y-47.25
X221.4Y-53.25
X221.4Y-59.25
X221.4Y-65.25
X221.4Y-71.25
X221.4Y-77.25
X221.4Y-83.25
X221.4Y-89.25
X221.4Y-95.25
X221.4Y-101.25
X221.4Y-107.25
M30
