%TF.GenerationSoftware,KiCad,Pcbnew,10.0.2*%
%TF.CreationDate,2026-05-28T11:14:38+09:00*%
%TF.ProjectId,ammeter2,616d6d65-7465-4723-922e-6b696361645f,rev?*%
%TF.SameCoordinates,Original*%
%TF.FileFunction,Copper,L1,Top*%
%TF.FilePolarity,Positive*%
%FSLAX46Y46*%
G04 Gerber Fmt 4.6, Leading zero omitted, Abs format (unit mm)*
G04 Created by KiCad (PCBNEW 10.0.2) date 2026-05-28 11:14:38*
%MOMM*%
%LPD*%
G01*
G04 APERTURE LIST*
G04 Aperture macros list*
%AMRoundRect*
0 Rectangle with rounded corners*
0 $1 Rounding radius*
0 $2 $3 $4 $5 $6 $7 $8 $9 X,Y pos of 4 corners*
0 Add a 4 corners polygon primitive as box body*
4,1,4,$2,$3,$4,$5,$6,$7,$8,$9,$2,$3,0*
0 Add four circle primitives for the rounded corners*
1,1,$1+$1,$2,$3*
1,1,$1+$1,$4,$5*
1,1,$1+$1,$6,$7*
1,1,$1+$1,$8,$9*
0 Add four rect primitives between the rounded corners*
20,1,$1+$1,$2,$3,$4,$5,0*
20,1,$1+$1,$4,$5,$6,$7,0*
20,1,$1+$1,$6,$7,$8,$9,0*
20,1,$1+$1,$8,$9,$2,$3,0*%
G04 Aperture macros list end*
%TA.AperFunction,SMDPad,CuDef*%
%ADD10R,0.500000X0.500000*%
%TD*%
%TA.AperFunction,SMDPad,CuDef*%
%ADD11RoundRect,0.150000X0.425000X-0.150000X0.425000X0.150000X-0.425000X0.150000X-0.425000X-0.150000X0*%
%TD*%
%TA.AperFunction,SMDPad,CuDef*%
%ADD12RoundRect,0.075000X0.500000X-0.075000X0.500000X0.075000X-0.500000X0.075000X-0.500000X-0.075000X0*%
%TD*%
%TA.AperFunction,SMDPad,CuDef*%
%ADD13RoundRect,0.250000X0.750000X-0.840000X0.750000X0.840000X-0.750000X0.840000X-0.750000X-0.840000X0*%
%TD*%
%TA.AperFunction,SMDPad,CuDef*%
%ADD14RoundRect,0.150000X-0.425000X0.150000X-0.425000X-0.150000X0.425000X-0.150000X0.425000X0.150000X0*%
%TD*%
%TA.AperFunction,SMDPad,CuDef*%
%ADD15RoundRect,0.075000X-0.500000X0.075000X-0.500000X-0.075000X0.500000X-0.075000X0.500000X0.075000X0*%
%TD*%
%TA.AperFunction,SMDPad,CuDef*%
%ADD16RoundRect,0.250000X-0.750000X0.840000X-0.750000X-0.840000X0.750000X-0.840000X0.750000X0.840000X0*%
%TD*%
%TA.AperFunction,SMDPad,CuDef*%
%ADD17RoundRect,0.087500X0.087500X-0.662500X0.087500X0.662500X-0.087500X0.662500X-0.087500X-0.662500X0*%
%TD*%
%TA.AperFunction,SMDPad,CuDef*%
%ADD18RoundRect,0.150000X-0.512500X-0.150000X0.512500X-0.150000X0.512500X0.150000X-0.512500X0.150000X0*%
%TD*%
%TA.AperFunction,SMDPad,CuDef*%
%ADD19RoundRect,0.150000X0.825000X0.150000X-0.825000X0.150000X-0.825000X-0.150000X0.825000X-0.150000X0*%
%TD*%
%TA.AperFunction,ViaPad*%
%ADD20C,0.500000*%
%TD*%
%TA.AperFunction,ViaPad*%
%ADD21C,0.600000*%
%TD*%
%TA.AperFunction,Conductor*%
%ADD22C,0.200000*%
%TD*%
%TA.AperFunction,Conductor*%
%ADD23C,0.300000*%
%TD*%
%TA.AperFunction,Conductor*%
%ADD24C,0.600000*%
%TD*%
%TA.AperFunction,Conductor*%
%ADD25C,0.400000*%
%TD*%
G04 APERTURE END LIST*
D10*
%TO.P,C11,1*%
%TO.N,Net-(U5-Vcc)*%
X108500000Y-51700000D03*
%TO.P,C11,2*%
%TO.N,GND*%
X107300000Y-51700000D03*
%TD*%
%TO.P,R8,1*%
%TO.N,/#res*%
X111700000Y-51100000D03*
%TO.P,R8,2*%
%TO.N,+3V3*%
X110500000Y-51100000D03*
%TD*%
%TO.P,R13,1*%
%TO.N,Net-(R13-Pad1)*%
X108550000Y-54750000D03*
%TO.P,R13,2*%
%TO.N,/UPDI*%
X109750000Y-54750000D03*
%TD*%
%TO.P,R12,1*%
%TO.N,Net-(R12-Pad1)*%
X118000000Y-51000000D03*
%TO.P,R12,2*%
%TO.N,/Tx2*%
X118000000Y-52200000D03*
%TD*%
D11*
%TO.P,J3,A1,GND_A1*%
%TO.N,GND*%
X119320000Y-60700000D03*
%TO.P,J3,A4,VBUS_A4*%
%TO.N,/ref*%
X119320000Y-59900000D03*
D12*
%TO.P,J3,A5,CC1_A5*%
%TO.N,Net-(J1-CC1)*%
X119320000Y-58750000D03*
%TO.P,J3,A6,D+_A6*%
%TO.N,Net-(J1-D+-PadA6)*%
X119320000Y-57750000D03*
%TO.P,J3,A7,D-_A7*%
%TO.N,Net-(J1-D--PadA7)*%
X119320000Y-57250000D03*
%TO.P,J3,A8,SBU1_A8*%
%TO.N,/3*%
X119320000Y-56250000D03*
D11*
%TO.P,J3,A9,VBUS_A9*%
%TO.N,/ref*%
X119320000Y-55100000D03*
%TO.P,J3,A12,GND_A12*%
%TO.N,GND*%
X119320000Y-54300000D03*
%TO.P,J3,B1,GND_B1*%
X119320000Y-54300000D03*
%TO.P,J3,B4,VBUS_B4*%
%TO.N,/ref*%
X119320000Y-55100000D03*
D12*
%TO.P,J3,B5,CC2_B5*%
%TO.N,Net-(J1-CC2)*%
X119320000Y-55750000D03*
%TO.P,J3,B6,D+_B6*%
%TO.N,Net-(J1-D+-PadA6)*%
X119320000Y-56750000D03*
%TO.P,J3,B7,D-_B7*%
%TO.N,Net-(J1-D--PadA7)*%
X119320000Y-58250000D03*
%TO.P,J3,B8,SBU2_B8*%
%TO.N,/4*%
X119320000Y-59250000D03*
D11*
%TO.P,J3,B9,VBUS_B9*%
%TO.N,/ref*%
X119320000Y-59900000D03*
%TO.P,J3,B12,GND_B12*%
%TO.N,GND*%
X119320000Y-60700000D03*
D13*
%TO.P,J3,SH,SHIELD_SH*%
X119895000Y-62610000D03*
X123825000Y-62610000D03*
X119895000Y-52390000D03*
X123825000Y-52390000D03*
%TD*%
D10*
%TO.P,C7,1*%
%TO.N,Net-(U4-V3)*%
X106800000Y-56600000D03*
%TO.P,C7,2*%
%TO.N,GND*%
X106800000Y-55400000D03*
%TD*%
D14*
%TO.P,J1,A1,GND_A1*%
%TO.N,GND*%
X105680000Y-54300000D03*
%TO.P,J1,A4,VBUS_A4*%
%TO.N,VBUS*%
X105680000Y-55100000D03*
D15*
%TO.P,J1,A5,CC1_A5*%
%TO.N,Net-(J1-CC1)*%
X105680000Y-56250000D03*
%TO.P,J1,A6,D+_A6*%
%TO.N,Net-(J1-D+-PadA6)*%
X105680000Y-57250000D03*
%TO.P,J1,A7,D-_A7*%
%TO.N,Net-(J1-D--PadA7)*%
X105680000Y-57750000D03*
%TO.P,J1,A8,SBU1_A8*%
%TO.N,/1*%
X105680000Y-58750000D03*
D14*
%TO.P,J1,A9,VBUS_A9*%
%TO.N,VBUS*%
X105680000Y-59900000D03*
%TO.P,J1,A12,GND_A12*%
%TO.N,GND*%
X105680000Y-60700000D03*
%TO.P,J1,B1,GND_B1*%
X105680000Y-60700000D03*
%TO.P,J1,B4,VBUS_B4*%
%TO.N,VBUS*%
X105680000Y-59900000D03*
D15*
%TO.P,J1,B5,CC2_B5*%
%TO.N,Net-(J1-CC2)*%
X105680000Y-59250000D03*
%TO.P,J1,B6,D+_B6*%
%TO.N,Net-(J1-D+-PadA6)*%
X105680000Y-58250000D03*
%TO.P,J1,B7,D-_B7*%
%TO.N,Net-(J1-D--PadA7)*%
X105680000Y-56750000D03*
%TO.P,J1,B8,SBU2_B8*%
%TO.N,/2*%
X105680000Y-55750000D03*
D14*
%TO.P,J1,B9,VBUS_B9*%
%TO.N,VBUS*%
X105680000Y-55100000D03*
%TO.P,J1,B12,GND_B12*%
%TO.N,GND*%
X105680000Y-54300000D03*
D16*
%TO.P,J1,SH,SHIELD_SH*%
X105105000Y-52390000D03*
X101175000Y-52390000D03*
X105105000Y-62610000D03*
X101175000Y-62610000D03*
%TD*%
D10*
%TO.P,R9,1*%
%TO.N,/SCL*%
X109800000Y-53400000D03*
%TO.P,R9,2*%
%TO.N,+3V3*%
X108600000Y-53400000D03*
%TD*%
%TO.P,C10,1*%
%TO.N,Net-(U5-VCOMH)*%
X109200000Y-50900000D03*
%TO.P,C10,2*%
%TO.N,GND*%
X108000000Y-50900000D03*
%TD*%
D17*
%TO.P,U4,1,UD+_1*%
%TO.N,/D+*%
X107100000Y-62400000D03*
%TO.P,U4,2,UD-_2*%
%TO.N,/D-*%
X107600000Y-62400000D03*
%TO.P,U4,3,GND_3*%
%TO.N,GND*%
X108100000Y-62400000D03*
%TO.P,U4,4,~{RTS}_4*%
%TO.N,/#RTS*%
X108600000Y-62400000D03*
%TO.P,U4,5,~{CTS}_5*%
%TO.N,unconnected-(U4-~{CTS}-Pad5)*%
X109100000Y-62400000D03*
%TO.P,U4,6,TNOW_6*%
%TO.N,/#DTR*%
X109100000Y-58200000D03*
%TO.P,U4,7,VCC_7*%
%TO.N,+3V3*%
X108600000Y-58200000D03*
%TO.P,U4,8,TXD_8*%
%TO.N,/Tx*%
X108100000Y-58200000D03*
%TO.P,U4,9,RXD_9*%
%TO.N,/Rx*%
X107600000Y-58200000D03*
%TO.P,U4,10,V3_10*%
%TO.N,Net-(U4-V3)*%
X107100000Y-58200000D03*
%TD*%
D10*
%TO.P,R11,1*%
%TO.N,Net-(R11-Pad1)*%
X118000000Y-54200000D03*
%TO.P,R11,2*%
%TO.N,/Rx3*%
X118000000Y-53000000D03*
%TD*%
D18*
%TO.P,U3,1*%
%TO.N,/V0*%
X113762500Y-61550000D03*
%TO.P,U3,2,GND_2*%
%TO.N,GND*%
X113762500Y-62500000D03*
%TO.P,U3,3,+_3*%
%TO.N,VBUS*%
X113762500Y-63450000D03*
%TO.P,U3,4,-_4*%
%TO.N,/ref*%
X116037500Y-63450000D03*
%TO.P,U3,5,REF_5*%
%TO.N,Net-(U2--)*%
X116037500Y-62500000D03*
%TO.P,U3,6,V+_6*%
%TO.N,+3V3*%
X116037500Y-61550000D03*
%TD*%
D19*
%TO.P,U7,1,VCC_1*%
%TO.N,+3V3*%
X116375000Y-59910000D03*
%TO.P,U7,2,PA4_2*%
%TO.N,/V0*%
X116375000Y-58640000D03*
%TO.P,U7,3,PA5_3*%
%TO.N,/V1*%
X116375000Y-57370000D03*
%TO.P,U7,4,PA6_4*%
%TO.N,/sw2*%
X116375000Y-56100000D03*
%TO.P,U7,5,PA7_5*%
%TO.N,/sw1*%
X116375000Y-54830000D03*
%TO.P,U7,6,PB3_6*%
%TO.N,/Rx3*%
X116375000Y-53560000D03*
%TO.P,U7,7,PB2_7*%
%TO.N,/Tx2*%
X116375000Y-52290000D03*
%TO.P,U7,8,PB1_8*%
%TO.N,/SDA*%
X111425000Y-52290000D03*
%TO.P,U7,9,PB0_9*%
%TO.N,/SCL*%
X111425000Y-53560000D03*
%TO.P,U7,10,~{RESET}/PA0_10*%
%TO.N,/UPDI*%
X111425000Y-54830000D03*
%TO.P,U7,11,PA1_11*%
%TO.N,unconnected-(U7-PA1-Pad11)*%
X111425000Y-56100000D03*
%TO.P,U7,12,PA2_12*%
%TO.N,/V2*%
X111425000Y-57370000D03*
%TO.P,U7,13,PA3_13*%
%TO.N,unconnected-(U7-PA3-Pad13)*%
X111425000Y-58640000D03*
%TO.P,U7,14,GND_14*%
%TO.N,GND*%
X111425000Y-59910000D03*
%TD*%
D10*
%TO.P,R10,1*%
%TO.N,/SDA*%
X109800000Y-52600000D03*
%TO.P,R10,2*%
%TO.N,+3V3*%
X108600000Y-52600000D03*
%TD*%
D20*
%TO.N,VBUS*%
X104781908Y-55415810D03*
%TO.N,/UPDI*%
X107400000Y-54700000D03*
%TO.N,Net-(U5-Vcc)*%
X108500000Y-51700000D03*
%TO.N,GND*%
X117400000Y-63000000D03*
X120500000Y-51800000D03*
X100900000Y-57100000D03*
X119300000Y-51800000D03*
X113500000Y-54000000D03*
X103190000Y-59320000D03*
X121700000Y-63600000D03*
X119320000Y-54300000D03*
X122700000Y-62800000D03*
X101280000Y-63825000D03*
X101280000Y-59895000D03*
X120600000Y-62400000D03*
X119000000Y-63537500D03*
X114800000Y-60100000D03*
X122700000Y-63400000D03*
X123100000Y-51700000D03*
X111500000Y-59962744D03*
X119825000Y-50825000D03*
X107600000Y-56367542D03*
X101175000Y-62610000D03*
X106600000Y-50900000D03*
X122500000Y-61400000D03*
X105105000Y-62610000D03*
D21*
X103150000Y-53637500D03*
D20*
X105300000Y-50900000D03*
X119320000Y-60700000D03*
X124012500Y-58950000D03*
X104300000Y-50800000D03*
X124300000Y-51700000D03*
X123975000Y-50825000D03*
X124100000Y-54100000D03*
X111500000Y-63825000D03*
X113762500Y-62500000D03*
X124100000Y-54900000D03*
X105680000Y-54300000D03*
X112910000Y-52000000D03*
%TO.N,/#res*%
X111700000Y-51400000D03*
%TO.N,+3V3*%
X116375000Y-59962744D03*
X112684092Y-54050000D03*
X116037500Y-61550000D03*
X123700000Y-61120000D03*
X109801974Y-56550002D03*
D21*
X102700000Y-52475000D03*
X102100000Y-57700000D03*
D20*
X101300000Y-50900000D03*
D21*
X103600000Y-52475000D03*
D20*
X106600000Y-52700000D03*
X122000000Y-55300000D03*
X124100000Y-55700000D03*
X120821985Y-61142472D03*
D21*
X103100000Y-57700000D03*
D20*
%TO.N,/ref*%
X116037500Y-63450000D03*
X119600000Y-59900000D03*
X119000000Y-55100000D03*
X119000000Y-59900000D03*
X119600000Y-55100000D03*
%TO.N,Net-(J1-CC1)*%
X104965171Y-56250001D03*
X114400000Y-58262744D03*
%TO.N,Net-(J1-D+-PadA6)*%
X118373477Y-57491078D03*
X104950799Y-58257906D03*
%TO.N,Net-(J1-D--PadA7)*%
X117992998Y-58144202D03*
X104732662Y-57488817D03*
%TO.N,Net-(J1-CC2)*%
X107400655Y-60373863D03*
X120300000Y-55800000D03*
%TO.N,VBUS*%
X113200000Y-55900000D03*
D21*
X103200000Y-51700000D03*
D20*
X107823926Y-60867160D03*
D21*
X103200000Y-51000000D03*
D20*
X114200000Y-63450000D03*
%TO.N,/SCL*%
X111425000Y-53560000D03*
%TO.N,Net-(U5-VCOMH)*%
X109200000Y-50900000D03*
%TO.N,/D+*%
X106951513Y-61432995D03*
%TO.N,/D-*%
X107599999Y-61477373D03*
%TO.N,/#RTS*%
X107600000Y-57050000D03*
X107450002Y-55367542D03*
X108605460Y-61469200D03*
%TO.N,/Tx*%
X108242661Y-56750000D03*
%TO.N,/Rx*%
X109900000Y-57912744D03*
%TO.N,/V0*%
X113762500Y-61550000D03*
X115200000Y-58262744D03*
%TO.N,Net-(U2--)*%
X117400000Y-61800000D03*
X116037500Y-62500000D03*
X117750000Y-59962744D03*
%TO.N,/V1*%
X117400000Y-57400000D03*
%TO.N,/sw2*%
X117300000Y-56400000D03*
%TO.N,/sw1*%
X122000000Y-54100000D03*
X116400000Y-55050000D03*
%TO.N,/SDA*%
X110430000Y-52290000D03*
%TO.N,/V2*%
X112300000Y-57100000D03*
%TO.N,Net-(R13-Pad1)*%
X108550000Y-54750000D03*
%TO.N,Net-(R11-Pad1)*%
X118000000Y-54200000D03*
X109002259Y-56642610D03*
%TO.N,Net-(R12-Pad1)*%
X118000000Y-51000000D03*
X113650000Y-55250000D03*
%TD*%
%TO.N,/UPDI*%
D22*
X107400000Y-54700000D02*
X107850000Y-54250000D01*
X107850000Y-54250000D02*
X109189997Y-54250000D01*
X109189997Y-54250000D02*
X109709999Y-54770002D01*
%TO.N,VBUS*%
D23*
X104824495Y-55415810D02*
X104781908Y-55415810D01*
X105140305Y-55100000D02*
X104824495Y-55415810D01*
X105680000Y-55100000D02*
X105140305Y-55100000D01*
%TO.N,Net-(J1-CC1)*%
D22*
X104965171Y-56250001D02*
X105025067Y-56250001D01*
X105025067Y-56250001D02*
X105025068Y-56250000D01*
X105025068Y-56250000D02*
X105680000Y-56250000D01*
%TO.N,GND*%
D24*
X105680000Y-52965000D02*
X105105000Y-52390000D01*
D22*
X107600000Y-56367542D02*
X107567545Y-56367542D01*
D25*
X106800000Y-54933738D02*
X106166262Y-54300000D01*
D24*
X119320000Y-52965000D02*
X119895000Y-52390000D01*
X105680000Y-62035000D02*
X105105000Y-62610000D01*
X105680000Y-54300000D02*
X105680000Y-52965000D01*
X105680000Y-60700000D02*
X105680000Y-62035000D01*
D25*
X106166262Y-54300000D02*
X105680000Y-54300000D01*
D22*
X118900000Y-54300000D02*
X118300000Y-54900000D01*
D23*
X108100000Y-62400000D02*
X108100000Y-63500000D01*
D22*
X119320000Y-54300000D02*
X118900000Y-54300000D01*
D25*
X106800000Y-55400000D02*
X106800000Y-54933738D01*
D24*
X119320000Y-62035000D02*
X119895000Y-62610000D01*
X119320000Y-60700000D02*
X119320000Y-62035000D01*
X119320000Y-54300000D02*
X119320000Y-52965000D01*
%TO.N,+3V3*%
D22*
X109151976Y-57200000D02*
X108870278Y-57200000D01*
X108675000Y-57676976D02*
X108600000Y-57751976D01*
X108600000Y-57751976D02*
X108600000Y-58200000D01*
D23*
X108600000Y-52600000D02*
X106700000Y-52600000D01*
D22*
X108870278Y-57200000D02*
X108675000Y-57395278D01*
X109801974Y-56550002D02*
X109151976Y-57200000D01*
D23*
X108600000Y-53400000D02*
X108600000Y-52600000D01*
X110100000Y-51100000D02*
X110500000Y-51100000D01*
D22*
X108675000Y-57395278D02*
X108675000Y-57676976D01*
D23*
X108600000Y-52600000D02*
X110100000Y-51100000D01*
D22*
X116375000Y-59962744D02*
X116375000Y-59910000D01*
D23*
X106700000Y-52600000D02*
X106600000Y-52700000D01*
%TO.N,/Tx2*%
D22*
X116375000Y-52290000D02*
X117910000Y-52290000D01*
X117910000Y-52290000D02*
X118000000Y-52200000D01*
%TO.N,Net-(J1-CC1)*%
X117400000Y-59300000D02*
X117937256Y-58762744D01*
X115400000Y-59300000D02*
X117400000Y-59300000D01*
X114400000Y-58262744D02*
X114500000Y-58362744D01*
X114500000Y-58400000D02*
X115400000Y-59300000D01*
X119307256Y-58762744D02*
X119320000Y-58750000D01*
X114500000Y-58362744D02*
X114500000Y-58400000D01*
X117937256Y-58762744D02*
X119307256Y-58762744D01*
%TO.N,Net-(J1-D+-PadA6)*%
X119320000Y-57750000D02*
X118783302Y-57750000D01*
X118495000Y-57461698D02*
X118495000Y-57000001D01*
X118495000Y-57461698D02*
X118402857Y-57461698D01*
X106216698Y-57250000D02*
X106505000Y-57538302D01*
X118745001Y-56750000D02*
X119320000Y-56750000D01*
X105680000Y-58250000D02*
X105143302Y-58250000D01*
X105680000Y-57250000D02*
X106216698Y-57250000D01*
X106505000Y-57538302D02*
X106505000Y-57999999D01*
X106505000Y-57999999D02*
X106254999Y-58250000D01*
X106254999Y-58250000D02*
X105680000Y-58250000D01*
X118783302Y-57750000D02*
X118495000Y-57461698D01*
X118402857Y-57461698D02*
X118373477Y-57491078D01*
X118495000Y-57000001D02*
X118745001Y-56750000D01*
%TO.N,Net-(J1-D--PadA7)*%
X105105001Y-56750000D02*
X104855000Y-57000001D01*
X119856698Y-57250000D02*
X120145000Y-57538302D01*
X105143302Y-57750000D02*
X105680000Y-57750000D01*
X118595384Y-58250000D02*
X119320000Y-58250000D01*
X117992998Y-58144202D02*
X118489586Y-58144202D01*
X118489586Y-58144202D02*
X118595384Y-58250000D01*
X120145000Y-57538302D02*
X120145000Y-57999999D01*
X120145000Y-57999999D02*
X119894999Y-58250000D01*
X119320000Y-57250000D02*
X119856698Y-57250000D01*
X104855000Y-57000001D02*
X104855000Y-57461698D01*
X104855000Y-57461698D02*
X105143302Y-57750000D01*
X105680000Y-56750000D02*
X105105001Y-56750000D01*
X119894999Y-58250000D02*
X119320000Y-58250000D01*
X105679999Y-56750001D02*
X105680000Y-56750000D01*
%TO.N,Net-(J1-CC2)*%
X106276792Y-59250000D02*
X107400655Y-60373863D01*
X120300000Y-55800000D02*
X120250000Y-55750000D01*
X105680000Y-59250000D02*
X106276792Y-59250000D01*
X120250000Y-55750000D02*
X119320000Y-55750000D01*
%TO.N,VBUS*%
D23*
X107767228Y-60923858D02*
X107823926Y-60867160D01*
X106148974Y-59900000D02*
X107172832Y-60923858D01*
X105680000Y-59900000D02*
X106148974Y-59900000D01*
X107172832Y-60923858D02*
X107767228Y-60923858D01*
%TO.N,/SCL*%
D22*
X111425000Y-53560000D02*
X109960000Y-53560000D01*
X109960000Y-53560000D02*
X109800000Y-53400000D01*
%TO.N,/D+*%
X106951513Y-61432995D02*
X107100000Y-61581482D01*
X107100000Y-61581482D02*
X107100000Y-62400000D01*
%TO.N,/D-*%
X107599999Y-61599567D02*
X107600000Y-61599568D01*
X107599999Y-61477373D02*
X107599999Y-61599567D01*
X107600000Y-61599568D02*
X107600000Y-62400000D01*
%TO.N,/#RTS*%
X108600000Y-62400000D02*
X108600000Y-61474660D01*
X108600000Y-61474660D02*
X108605460Y-61469200D01*
%TO.N,/Tx*%
X108100000Y-57400000D02*
X108100000Y-58200000D01*
X108242661Y-57257339D02*
X108100000Y-57400000D01*
X108242661Y-56750000D02*
X108242661Y-57257339D01*
%TO.N,/Rx*%
X109400000Y-59200000D02*
X107850001Y-59200000D01*
X107850001Y-59200000D02*
X107600000Y-58949999D01*
X109900000Y-58700000D02*
X109400000Y-59200000D01*
X109900000Y-57912744D02*
X109900000Y-58700000D01*
X107600000Y-58949999D02*
X107600000Y-58200000D01*
%TO.N,/Rx3*%
X117440000Y-53560000D02*
X118000000Y-53000000D01*
X116375000Y-53560000D02*
X117440000Y-53560000D01*
%TO.N,/UPDI*%
X109830000Y-54830000D02*
X109750000Y-54750000D01*
X109730001Y-54750000D02*
X109750000Y-54750000D01*
X111425000Y-54830000D02*
X109830000Y-54830000D01*
X109709999Y-54770002D02*
X109730001Y-54750000D01*
%TO.N,/V0*%
X115577256Y-58640000D02*
X115200000Y-58262744D01*
X116375000Y-58640000D02*
X115577256Y-58640000D01*
%TO.N,/V1*%
D23*
X116375000Y-57370000D02*
X117370000Y-57370000D01*
X117370000Y-57370000D02*
X117400000Y-57400000D01*
%TO.N,/sw2*%
D22*
X116375000Y-56100000D02*
X117000000Y-56100000D01*
X117000000Y-56100000D02*
X117300000Y-56400000D01*
%TO.N,/SDA*%
X110110000Y-52290000D02*
X109800000Y-52600000D01*
X111425000Y-52290000D02*
X110110000Y-52290000D01*
X110430000Y-52290000D02*
X111425000Y-52290000D01*
%TO.N,Net-(U4-V3)*%
X107100000Y-56900000D02*
X107100000Y-58200000D01*
X106800000Y-56600000D02*
X107100000Y-56900000D01*
%TD*%
%TA.AperFunction,Conductor*%
%TO.N,GND*%
G36*
X118524678Y-54566929D02*
G01*
X118580614Y-54608797D01*
X118592752Y-54628653D01*
X118600729Y-54644970D01*
X118612489Y-54713843D01*
X118600730Y-54753890D01*
X118554426Y-54848606D01*
X118554426Y-54848607D01*
X118544500Y-54916739D01*
X118544500Y-55283260D01*
X118554426Y-55351392D01*
X118554427Y-55351395D01*
X118586680Y-55417369D01*
X118598440Y-55486242D01*
X118578383Y-55540719D01*
X118560484Y-55567506D01*
X118560483Y-55567509D01*
X118544500Y-55647863D01*
X118544500Y-55852129D01*
X118545928Y-55859306D01*
X118557351Y-55916740D01*
X118560486Y-55932498D01*
X118565159Y-55943780D01*
X118563714Y-55944378D01*
X118580436Y-55997788D01*
X118564482Y-56055938D01*
X118565159Y-56056219D01*
X118562926Y-56061609D01*
X118561950Y-56065168D01*
X118560550Y-56067345D01*
X118560484Y-56067505D01*
X118544500Y-56147863D01*
X118544500Y-56352131D01*
X118560338Y-56431758D01*
X118554109Y-56501350D01*
X118526401Y-56543628D01*
X118310489Y-56759541D01*
X118254541Y-56815488D01*
X118254535Y-56815496D01*
X118214982Y-56884005D01*
X118214979Y-56884010D01*
X118203206Y-56927950D01*
X118196280Y-56953798D01*
X118194500Y-56960440D01*
X118194500Y-57002626D01*
X118174815Y-57069665D01*
X118152297Y-57095821D01*
X118143096Y-57103896D01*
X118096864Y-57130589D01*
X118012988Y-57214465D01*
X118008742Y-57221818D01*
X117995303Y-57233614D01*
X117974219Y-57243404D01*
X117955442Y-57257113D01*
X117943123Y-57257845D01*
X117931933Y-57263042D01*
X117908902Y-57259880D01*
X117885695Y-57261260D01*
X117874937Y-57255217D01*
X117862713Y-57253539D01*
X117845047Y-57238426D01*
X117824778Y-57227041D01*
X117811949Y-57210113D01*
X117809619Y-57208120D01*
X117809080Y-57206327D01*
X117806119Y-57202420D01*
X117797066Y-57186740D01*
X117760489Y-57123387D01*
X117676613Y-57039511D01*
X117671952Y-57036820D01*
X117570972Y-56978517D01*
X117522757Y-56927950D01*
X117509535Y-56859343D01*
X117535503Y-56794478D01*
X117570975Y-56763743D01*
X117576613Y-56760489D01*
X117660489Y-56676613D01*
X117719799Y-56573886D01*
X117750500Y-56459309D01*
X117750500Y-56340691D01*
X117719799Y-56226114D01*
X117660489Y-56123387D01*
X117586818Y-56049716D01*
X117553334Y-55988392D01*
X117550500Y-55962035D01*
X117550500Y-55916739D01*
X117541087Y-55852133D01*
X117540573Y-55848607D01*
X117489198Y-55743517D01*
X117489196Y-55743515D01*
X117489196Y-55743514D01*
X117406485Y-55660803D01*
X117301391Y-55609426D01*
X117233261Y-55599500D01*
X117233260Y-55599500D01*
X116786964Y-55599500D01*
X116765718Y-55593261D01*
X116743630Y-55591682D01*
X116732846Y-55583609D01*
X116719925Y-55579815D01*
X116705425Y-55563081D01*
X116687697Y-55549810D01*
X116682989Y-55537189D01*
X116674170Y-55527011D01*
X116671018Y-55505093D01*
X116663280Y-55484346D01*
X116666142Y-55471185D01*
X116664226Y-55457853D01*
X116673425Y-55437709D01*
X116678132Y-55416073D01*
X116691400Y-55398347D01*
X116693251Y-55394297D01*
X116699283Y-55387819D01*
X116720283Y-55366819D01*
X116781606Y-55333334D01*
X116807964Y-55330500D01*
X117233261Y-55330500D01*
X117255971Y-55327191D01*
X117301393Y-55320573D01*
X117406483Y-55269198D01*
X117489198Y-55186483D01*
X117540573Y-55081393D01*
X117550500Y-55013260D01*
X117550500Y-54765839D01*
X117570185Y-54698800D01*
X117622989Y-54653045D01*
X117692147Y-54643101D01*
X117698668Y-54644217D01*
X117730252Y-54650500D01*
X118269750Y-54650500D01*
X118269751Y-54650499D01*
X118288661Y-54646738D01*
X118328229Y-54638868D01*
X118328229Y-54638867D01*
X118328231Y-54638867D01*
X118373452Y-54608651D01*
X118404707Y-54587767D01*
X118405510Y-54588969D01*
X118454986Y-54561949D01*
X118524678Y-54566929D01*
G37*
%TD.AperFunction*%
%TA.AperFunction,Conductor*%
G36*
X102762724Y-50520185D02*
G01*
X102808479Y-50572989D01*
X102818423Y-50642147D01*
X102803072Y-50686501D01*
X102799502Y-50692683D01*
X102799500Y-50692686D01*
X102777814Y-50730247D01*
X102733608Y-50806812D01*
X102724530Y-50840693D01*
X102699500Y-50934108D01*
X102699500Y-51065892D01*
X102729167Y-51176613D01*
X102733609Y-51193188D01*
X102733609Y-51193189D01*
X102788348Y-51288000D01*
X102804821Y-51355900D01*
X102788348Y-51412000D01*
X102733609Y-51506810D01*
X102733609Y-51506811D01*
X102733608Y-51506813D01*
X102733608Y-51506814D01*
X102699500Y-51634108D01*
X102699500Y-51765892D01*
X102708486Y-51799427D01*
X102715178Y-51824403D01*
X102713515Y-51894253D01*
X102674352Y-51952115D01*
X102627497Y-51976271D01*
X102583789Y-51987982D01*
X102531091Y-52002102D01*
X102461243Y-52000440D01*
X102403381Y-51961278D01*
X102375876Y-51897050D01*
X102374999Y-51882328D01*
X102374999Y-51543553D01*
X102374998Y-51543552D01*
X101528553Y-52389999D01*
X101528553Y-52390000D01*
X102374998Y-53236446D01*
X102374999Y-53236445D01*
X102374999Y-53067671D01*
X102394684Y-53000632D01*
X102447488Y-52954877D01*
X102516646Y-52944933D01*
X102531069Y-52947891D01*
X102634108Y-52975500D01*
X102634111Y-52975500D01*
X102765890Y-52975500D01*
X102765892Y-52975500D01*
X102893186Y-52941392D01*
X103007314Y-52875500D01*
X103062319Y-52820495D01*
X103123642Y-52787010D01*
X103193334Y-52791994D01*
X103237681Y-52820495D01*
X103292686Y-52875500D01*
X103384015Y-52928229D01*
X103405807Y-52940811D01*
X103406814Y-52941392D01*
X103534108Y-52975500D01*
X103534110Y-52975500D01*
X103665890Y-52975500D01*
X103665892Y-52975500D01*
X103748908Y-52953256D01*
X103818757Y-52954919D01*
X103876619Y-52994082D01*
X103904123Y-53058310D01*
X103905000Y-53073031D01*
X103905000Y-53236446D01*
X104751447Y-52390000D01*
X104751447Y-52389999D01*
X103905000Y-51543552D01*
X103828884Y-51575080D01*
X103827504Y-51575228D01*
X103826405Y-51576076D01*
X103792876Y-51578951D01*
X103759415Y-51582549D01*
X103758173Y-51581927D01*
X103756791Y-51582046D01*
X103727021Y-51566333D01*
X103696936Y-51551273D01*
X103695830Y-51549870D01*
X103695000Y-51549432D01*
X103692005Y-51545017D01*
X103673452Y-51521480D01*
X103667493Y-51510926D01*
X103666392Y-51506814D01*
X103611362Y-51411499D01*
X103611058Y-51410961D01*
X103603288Y-51377532D01*
X103595178Y-51344100D01*
X103595368Y-51343452D01*
X103595241Y-51342905D01*
X103596864Y-51338357D01*
X103611650Y-51288000D01*
X103666392Y-51193186D01*
X103683722Y-51128509D01*
X104197062Y-51128509D01*
X105105000Y-52036447D01*
X105105001Y-52036447D01*
X105711149Y-51430297D01*
X106850000Y-51430297D01*
X106850000Y-51450000D01*
X107050000Y-51450000D01*
X107050000Y-51250000D01*
X107030297Y-51250000D01*
X106971966Y-51261602D01*
X106971965Y-51261603D01*
X106905808Y-51305808D01*
X106861603Y-51371965D01*
X106861602Y-51371966D01*
X106850000Y-51430297D01*
X105711149Y-51430297D01*
X105938756Y-51202689D01*
X107550000Y-51202689D01*
X107550000Y-51450000D01*
X107750000Y-51450000D01*
X107750000Y-51430305D01*
X107749609Y-51428341D01*
X107749703Y-51427287D01*
X107749403Y-51424239D01*
X107749980Y-51424182D01*
X107752021Y-51401362D01*
X107750000Y-51401362D01*
X107750000Y-51150000D01*
X107551517Y-51150000D01*
X107552725Y-51192324D01*
X107550000Y-51202689D01*
X105938756Y-51202689D01*
X106012935Y-51128510D01*
X105939602Y-51102850D01*
X105909207Y-51100000D01*
X104300803Y-51100000D01*
X104270392Y-51102852D01*
X104270391Y-51102852D01*
X104197062Y-51128509D01*
X103683722Y-51128509D01*
X103700500Y-51065892D01*
X103700500Y-50934108D01*
X103666392Y-50806814D01*
X103600500Y-50692686D01*
X103600497Y-50692683D01*
X103596928Y-50686501D01*
X103580455Y-50618601D01*
X103603307Y-50552574D01*
X103658228Y-50509383D01*
X103704315Y-50500500D01*
X107426000Y-50500500D01*
X107493039Y-50520185D01*
X107538794Y-50572989D01*
X107550000Y-50624500D01*
X107550000Y-50650000D01*
X108450000Y-50650000D01*
X108450000Y-50624500D01*
X108452550Y-50615814D01*
X108451262Y-50606853D01*
X108462240Y-50582812D01*
X108469685Y-50557461D01*
X108476525Y-50551533D01*
X108480287Y-50543297D01*
X108502521Y-50529007D01*
X108522489Y-50511706D01*
X108533003Y-50509418D01*
X108539065Y-50505523D01*
X108574000Y-50500500D01*
X108625500Y-50500500D01*
X108692539Y-50520185D01*
X108738294Y-50572989D01*
X108749500Y-50624500D01*
X108749500Y-51125500D01*
X108729815Y-51192539D01*
X108677011Y-51238294D01*
X108625500Y-51249500D01*
X108574000Y-51249500D01*
X108506961Y-51229815D01*
X108461206Y-51177011D01*
X108456811Y-51156811D01*
X108450000Y-51150000D01*
X108250000Y-51150000D01*
X108248284Y-51151715D01*
X108230315Y-51212913D01*
X108177511Y-51258668D01*
X108173456Y-51260434D01*
X108171768Y-51261132D01*
X108105447Y-51305447D01*
X108061132Y-51371769D01*
X108061131Y-51371770D01*
X108049500Y-51430247D01*
X108049500Y-51969752D01*
X108061131Y-52028229D01*
X108061132Y-52028231D01*
X108080094Y-52056608D01*
X108083131Y-52066308D01*
X108089787Y-52073989D01*
X108093395Y-52099087D01*
X108100973Y-52123285D01*
X108098284Y-52133085D01*
X108099731Y-52143147D01*
X108089196Y-52166214D01*
X108082489Y-52190665D01*
X108074928Y-52197456D01*
X108070706Y-52206703D01*
X108049372Y-52220413D01*
X108030511Y-52237356D01*
X108018913Y-52239987D01*
X108011928Y-52244477D01*
X107976993Y-52249500D01*
X107822406Y-52249500D01*
X107755367Y-52229815D01*
X107709612Y-52177011D01*
X107699668Y-52107853D01*
X107719303Y-52056610D01*
X107738396Y-52028033D01*
X107738397Y-52028033D01*
X107749999Y-51969702D01*
X107750000Y-51969699D01*
X107750000Y-51950000D01*
X106850000Y-51950000D01*
X106850000Y-51969702D01*
X106861602Y-52028033D01*
X106880697Y-52056610D01*
X106901574Y-52123287D01*
X106883089Y-52190667D01*
X106831110Y-52237357D01*
X106777594Y-52249500D01*
X106540689Y-52249500D01*
X106461091Y-52270828D01*
X106391242Y-52269165D01*
X106333379Y-52230002D01*
X106305876Y-52165773D01*
X106304999Y-52151053D01*
X106304999Y-51543553D01*
X106304998Y-51543552D01*
X105458553Y-52389999D01*
X105458553Y-52390001D01*
X106304998Y-53236446D01*
X106309177Y-53234714D01*
X106324684Y-53181907D01*
X106377488Y-53136152D01*
X106446646Y-53126208D01*
X106461082Y-53129168D01*
X106540691Y-53150500D01*
X106540694Y-53150500D01*
X106659306Y-53150500D01*
X106659309Y-53150500D01*
X106773886Y-53119799D01*
X106876613Y-53060489D01*
X106950283Y-52986819D01*
X107011606Y-52953334D01*
X107037964Y-52950500D01*
X108034160Y-52950500D01*
X108101199Y-52970185D01*
X108146954Y-53022989D01*
X108156898Y-53092147D01*
X108155777Y-53098691D01*
X108149500Y-53130247D01*
X108149500Y-53669752D01*
X108161131Y-53728229D01*
X108161132Y-53728231D01*
X108180094Y-53756608D01*
X108200973Y-53823285D01*
X108182489Y-53890665D01*
X108130511Y-53937356D01*
X108076993Y-53949500D01*
X107810438Y-53949500D01*
X107759486Y-53963152D01*
X107734010Y-53969979D01*
X107698139Y-53990690D01*
X107698137Y-53990691D01*
X107665490Y-54009539D01*
X107665487Y-54009541D01*
X107461848Y-54213181D01*
X107400525Y-54246666D01*
X107374167Y-54249500D01*
X107340691Y-54249500D01*
X107226114Y-54280201D01*
X107226112Y-54280201D01*
X107226112Y-54280202D01*
X107123387Y-54339511D01*
X107123384Y-54339513D01*
X107039513Y-54423384D01*
X107039511Y-54423387D01*
X107018091Y-54460488D01*
X106980201Y-54526114D01*
X106949500Y-54640691D01*
X106949500Y-54759309D01*
X106980201Y-54873886D01*
X107033387Y-54966006D01*
X107037537Y-54981494D01*
X107044977Y-54993071D01*
X107050000Y-55028006D01*
X107050000Y-55126140D01*
X107033389Y-55188136D01*
X107030206Y-55193649D01*
X107030203Y-55193654D01*
X107016331Y-55245426D01*
X106999502Y-55308233D01*
X106999502Y-55426851D01*
X107029690Y-55539513D01*
X107030204Y-55541431D01*
X107033385Y-55546940D01*
X107050000Y-55608943D01*
X107050000Y-55850000D01*
X107069699Y-55850000D01*
X107069702Y-55849999D01*
X107128032Y-55838397D01*
X107178243Y-55804847D01*
X107244921Y-55783969D01*
X107279221Y-55788173D01*
X107390693Y-55818042D01*
X107390696Y-55818042D01*
X107509308Y-55818042D01*
X107509311Y-55818042D01*
X107623888Y-55787341D01*
X107726615Y-55728031D01*
X107810491Y-55644155D01*
X107869801Y-55541428D01*
X107900502Y-55426851D01*
X107900502Y-55308233D01*
X107869801Y-55193656D01*
X107810491Y-55090929D01*
X107804228Y-55084666D01*
X107770743Y-55023343D01*
X107775727Y-54953651D01*
X107784517Y-54934995D01*
X107819799Y-54873886D01*
X107850500Y-54759309D01*
X107850500Y-54725833D01*
X107859144Y-54696392D01*
X107865668Y-54666406D01*
X107869422Y-54661390D01*
X107870185Y-54658794D01*
X107886819Y-54638152D01*
X107887819Y-54637152D01*
X107949142Y-54603667D01*
X108018834Y-54608651D01*
X108074767Y-54650523D01*
X108099184Y-54715987D01*
X108099500Y-54724833D01*
X108099500Y-55019752D01*
X108111131Y-55078229D01*
X108111132Y-55078230D01*
X108155447Y-55144552D01*
X108221769Y-55188867D01*
X108221770Y-55188868D01*
X108280247Y-55200499D01*
X108280250Y-55200500D01*
X108280252Y-55200500D01*
X108819750Y-55200500D01*
X108819751Y-55200499D01*
X108843955Y-55195685D01*
X108878229Y-55188868D01*
X108878229Y-55188867D01*
X108878231Y-55188867D01*
X108944552Y-55144552D01*
X108988867Y-55078231D01*
X108988867Y-55078229D01*
X108988868Y-55078229D01*
X109000499Y-55019752D01*
X109000500Y-55019750D01*
X109000500Y-54784836D01*
X109006738Y-54763590D01*
X109008318Y-54741502D01*
X109016390Y-54730718D01*
X109020185Y-54717797D01*
X109036918Y-54703297D01*
X109050190Y-54685569D01*
X109062810Y-54680861D01*
X109072989Y-54672042D01*
X109094906Y-54668890D01*
X109115654Y-54661152D01*
X109128814Y-54664014D01*
X109142147Y-54662098D01*
X109162290Y-54671297D01*
X109183927Y-54676004D01*
X109201652Y-54689272D01*
X109205703Y-54691123D01*
X109212181Y-54697155D01*
X109263181Y-54748155D01*
X109296666Y-54809478D01*
X109299500Y-54835836D01*
X109299500Y-55019752D01*
X109311131Y-55078229D01*
X109311132Y-55078230D01*
X109355447Y-55144552D01*
X109421769Y-55188867D01*
X109421770Y-55188868D01*
X109480247Y-55200499D01*
X109480250Y-55200500D01*
X109480252Y-55200500D01*
X110019750Y-55200500D01*
X110019751Y-55200499D01*
X110043955Y-55195685D01*
X110078229Y-55188868D01*
X110078231Y-55188867D01*
X110134305Y-55151399D01*
X110152351Y-55145747D01*
X110168262Y-55135523D01*
X110199219Y-55131071D01*
X110200982Y-55130520D01*
X110203197Y-55130500D01*
X110207003Y-55130500D01*
X110274042Y-55150185D01*
X110307923Y-55182450D01*
X110310805Y-55186487D01*
X110393514Y-55269196D01*
X110393515Y-55269196D01*
X110393517Y-55269198D01*
X110498607Y-55320573D01*
X110532673Y-55325536D01*
X110566739Y-55330500D01*
X110566740Y-55330500D01*
X112283261Y-55330500D01*
X112305971Y-55327191D01*
X112351393Y-55320573D01*
X112456483Y-55269198D01*
X112539198Y-55186483D01*
X112590573Y-55081393D01*
X112600500Y-55013260D01*
X112600500Y-54646740D01*
X112599864Y-54642372D01*
X112609680Y-54573195D01*
X112655339Y-54520308D01*
X112722342Y-54500500D01*
X112743398Y-54500500D01*
X112743401Y-54500500D01*
X112857978Y-54469799D01*
X112960705Y-54410489D01*
X113044581Y-54326613D01*
X113103891Y-54223886D01*
X113134592Y-54109309D01*
X113134592Y-53990691D01*
X113103891Y-53876114D01*
X113044581Y-53773387D01*
X112960705Y-53689511D01*
X112857978Y-53630201D01*
X112743401Y-53599500D01*
X112724500Y-53599500D01*
X112657461Y-53579815D01*
X112611706Y-53527011D01*
X112600500Y-53475500D01*
X112600500Y-53376739D01*
X112590573Y-53308608D01*
X112566566Y-53259500D01*
X112539198Y-53203517D01*
X112539196Y-53203515D01*
X112539196Y-53203514D01*
X112456485Y-53120803D01*
X112351391Y-53069426D01*
X112283261Y-53059500D01*
X112283260Y-53059500D01*
X110566740Y-53059500D01*
X110566739Y-53059500D01*
X110498607Y-53069426D01*
X110498606Y-53069426D01*
X110398996Y-53118122D01*
X110398459Y-53118213D01*
X110398055Y-53118577D01*
X110364014Y-53124093D01*
X110330123Y-53129880D01*
X110329624Y-53129667D01*
X110329086Y-53129755D01*
X110297457Y-53115988D01*
X110265826Y-53102536D01*
X110265353Y-53102014D01*
X110265022Y-53101870D01*
X110241436Y-53075614D01*
X110236945Y-53068893D01*
X110216066Y-53002215D01*
X110234549Y-52934835D01*
X110236945Y-52931108D01*
X110238867Y-52928231D01*
X110238868Y-52928229D01*
X110250499Y-52869752D01*
X110250500Y-52869750D01*
X110250500Y-52864500D01*
X110253050Y-52855814D01*
X110251762Y-52846853D01*
X110262740Y-52822812D01*
X110270185Y-52797461D01*
X110277025Y-52791533D01*
X110280787Y-52783297D01*
X110303021Y-52769007D01*
X110322989Y-52751706D01*
X110333503Y-52749418D01*
X110339565Y-52745523D01*
X110374500Y-52740500D01*
X110387948Y-52740500D01*
X110442407Y-52753098D01*
X110498607Y-52780573D01*
X110517303Y-52783297D01*
X110566739Y-52790500D01*
X110566740Y-52790500D01*
X112283261Y-52790500D01*
X112307213Y-52787010D01*
X112351393Y-52780573D01*
X112456483Y-52729198D01*
X112539198Y-52646483D01*
X112590573Y-52541393D01*
X112600500Y-52473260D01*
X112600500Y-52106740D01*
X112590573Y-52038607D01*
X112539198Y-51933517D01*
X112539196Y-51933515D01*
X112539196Y-51933514D01*
X112456485Y-51850803D01*
X112351391Y-51799426D01*
X112283261Y-51789500D01*
X112283260Y-51789500D01*
X112210089Y-51789500D01*
X112143050Y-51769815D01*
X112097295Y-51717011D01*
X112087351Y-51647853D01*
X112102702Y-51603500D01*
X112116875Y-51578951D01*
X112119799Y-51573886D01*
X112150500Y-51459309D01*
X112150500Y-51340691D01*
X112150500Y-50830252D01*
X112150500Y-50830249D01*
X112150499Y-50830247D01*
X112138868Y-50771770D01*
X112138867Y-50771769D01*
X112087767Y-50695293D01*
X112090915Y-50693189D01*
X112067801Y-50650858D01*
X112072785Y-50581166D01*
X112114657Y-50525233D01*
X112180121Y-50500816D01*
X112188967Y-50500500D01*
X117446496Y-50500500D01*
X117513535Y-50520185D01*
X117559290Y-50572989D01*
X117569234Y-50642147D01*
X117561199Y-50671432D01*
X117549500Y-50730247D01*
X117549500Y-51269752D01*
X117561131Y-51328229D01*
X117561132Y-51328230D01*
X117605447Y-51394552D01*
X117671769Y-51438867D01*
X117671770Y-51438868D01*
X117730247Y-51450499D01*
X117730250Y-51450500D01*
X117730252Y-51450500D01*
X118269750Y-51450500D01*
X118269751Y-51450499D01*
X118284568Y-51447552D01*
X118328229Y-51438868D01*
X118328229Y-51438867D01*
X118328231Y-51438867D01*
X118394552Y-51394552D01*
X118438867Y-51328231D01*
X118438867Y-51328229D01*
X118438868Y-51328229D01*
X118450499Y-51269752D01*
X118450500Y-51269750D01*
X118450500Y-51128509D01*
X118987062Y-51128509D01*
X119895000Y-52036447D01*
X119895001Y-52036447D01*
X120802935Y-51128510D01*
X120729602Y-51102850D01*
X120699207Y-51100000D01*
X119090803Y-51100000D01*
X119060392Y-51102852D01*
X119060391Y-51102852D01*
X118987062Y-51128509D01*
X118450500Y-51128509D01*
X118450500Y-50730249D01*
X118450499Y-50730247D01*
X118436485Y-50659790D01*
X118437612Y-50659565D01*
X118431473Y-50602489D01*
X118462745Y-50540009D01*
X118522832Y-50504353D01*
X118553504Y-50500500D01*
X124375500Y-50500500D01*
X124442539Y-50520185D01*
X124488294Y-50572989D01*
X124499500Y-50624500D01*
X124499500Y-50976000D01*
X124479815Y-51043039D01*
X124427011Y-51088794D01*
X124375500Y-51100000D01*
X123020803Y-51100000D01*
X122990392Y-51102852D01*
X122990391Y-51102852D01*
X122917062Y-51128509D01*
X123788681Y-52000128D01*
X123822166Y-52061451D01*
X123825000Y-52087809D01*
X123825000Y-52692190D01*
X123805315Y-52759229D01*
X123788681Y-52779871D01*
X122917062Y-53651488D01*
X122917063Y-53651489D01*
X122990392Y-53677148D01*
X122990394Y-53677149D01*
X123020792Y-53679999D01*
X124375500Y-53679999D01*
X124442539Y-53699684D01*
X124488294Y-53752487D01*
X124499500Y-53803999D01*
X124499500Y-55195685D01*
X124479815Y-55262724D01*
X124427011Y-55308479D01*
X124357853Y-55318423D01*
X124313499Y-55303072D01*
X124279184Y-55283260D01*
X124273886Y-55280201D01*
X124159309Y-55249500D01*
X124040691Y-55249500D01*
X123926114Y-55280201D01*
X123926112Y-55280201D01*
X123926112Y-55280202D01*
X123823387Y-55339511D01*
X123823384Y-55339513D01*
X123739513Y-55423384D01*
X123739511Y-55423387D01*
X123692338Y-55505093D01*
X123680201Y-55526114D01*
X123649500Y-55640691D01*
X123649500Y-55759309D01*
X123680201Y-55873886D01*
X123739511Y-55976613D01*
X123823387Y-56060489D01*
X123926114Y-56119799D01*
X124040691Y-56150500D01*
X124040694Y-56150500D01*
X124159306Y-56150500D01*
X124159309Y-56150500D01*
X124273886Y-56119799D01*
X124313501Y-56096927D01*
X124381397Y-56080454D01*
X124447425Y-56103305D01*
X124490617Y-56158225D01*
X124499500Y-56204314D01*
X124499500Y-61196000D01*
X124479815Y-61263039D01*
X124427011Y-61308794D01*
X124375500Y-61320000D01*
X124273372Y-61320000D01*
X124206333Y-61300315D01*
X124160578Y-61247511D01*
X124151577Y-61187436D01*
X124150500Y-61187436D01*
X124150500Y-61180247D01*
X124150434Y-61179807D01*
X124150499Y-61179311D01*
X124150500Y-61179309D01*
X124150500Y-61060691D01*
X124119799Y-60946114D01*
X124060489Y-60843387D01*
X123976613Y-60759511D01*
X123873886Y-60700201D01*
X123759309Y-60669500D01*
X123640691Y-60669500D01*
X123526114Y-60700201D01*
X123526112Y-60700201D01*
X123526112Y-60700202D01*
X123423387Y-60759511D01*
X123423384Y-60759513D01*
X123339513Y-60843384D01*
X123339511Y-60843387D01*
X123294775Y-60920872D01*
X123280201Y-60946114D01*
X123249500Y-61060691D01*
X123249500Y-61060693D01*
X123249500Y-61179311D01*
X123249567Y-61179821D01*
X123249500Y-61180250D01*
X123249500Y-61187436D01*
X123248379Y-61187436D01*
X123238798Y-61248856D01*
X123192415Y-61301109D01*
X123126628Y-61320000D01*
X123020804Y-61320000D01*
X122990392Y-61322852D01*
X122990391Y-61322852D01*
X122917062Y-61348509D01*
X123788681Y-62220128D01*
X123822166Y-62281451D01*
X123825000Y-62307809D01*
X123825000Y-62912190D01*
X123805315Y-62979229D01*
X123788681Y-62999871D01*
X122917062Y-63871488D01*
X122917063Y-63871489D01*
X122990392Y-63897148D01*
X122990394Y-63897149D01*
X123020792Y-63899999D01*
X124375500Y-63899999D01*
X124442539Y-63919684D01*
X124488294Y-63972487D01*
X124499500Y-64023999D01*
X124499500Y-64375500D01*
X124479815Y-64442539D01*
X124427011Y-64488294D01*
X124375500Y-64499500D01*
X100624500Y-64499500D01*
X100557461Y-64479815D01*
X100511706Y-64427011D01*
X100500500Y-64375500D01*
X100500500Y-64023999D01*
X100520185Y-63956960D01*
X100572989Y-63911205D01*
X100624500Y-63899999D01*
X101979196Y-63899999D01*
X102009608Y-63897148D01*
X102082935Y-63871488D01*
X102082936Y-63871488D01*
X104197062Y-63871488D01*
X104197063Y-63871489D01*
X104270392Y-63897148D01*
X104270394Y-63897149D01*
X104300792Y-63899999D01*
X105909196Y-63899999D01*
X105939608Y-63897148D01*
X106012936Y-63871488D01*
X105105000Y-62963553D01*
X104197062Y-63871488D01*
X102082936Y-63871488D01*
X101211319Y-62999871D01*
X101177834Y-62938548D01*
X101175000Y-62912190D01*
X101175000Y-62609999D01*
X101528553Y-62609999D01*
X101528553Y-62610000D01*
X102374998Y-63456446D01*
X103905000Y-63456446D01*
X104751447Y-62610000D01*
X104751447Y-62609999D01*
X105458553Y-62609999D01*
X105458553Y-62610001D01*
X106304998Y-63456446D01*
X106304999Y-63456445D01*
X106304999Y-61763553D01*
X106304998Y-61763552D01*
X105458553Y-62609999D01*
X104751447Y-62609999D01*
X103905000Y-61763552D01*
X103905000Y-63456446D01*
X102374998Y-63456446D01*
X102374999Y-63456445D01*
X102374999Y-61763553D01*
X102374998Y-61763552D01*
X101528553Y-62609999D01*
X101175000Y-62609999D01*
X101175000Y-62307808D01*
X101194685Y-62240769D01*
X101211319Y-62220127D01*
X102082936Y-61348510D01*
X102009602Y-61322850D01*
X101979207Y-61320000D01*
X100624500Y-61320000D01*
X100557461Y-61300315D01*
X100511706Y-61247511D01*
X100500500Y-61196000D01*
X100500500Y-60319234D01*
X102924500Y-60319234D01*
X102924500Y-60470765D01*
X102963719Y-60617136D01*
X102993952Y-60669500D01*
X103039485Y-60748365D01*
X103146635Y-60855515D01*
X103232697Y-60905203D01*
X103277861Y-60931279D01*
X103277865Y-60931281D01*
X103424234Y-60970500D01*
X103424236Y-60970500D01*
X103575764Y-60970500D01*
X103575766Y-60970500D01*
X103722135Y-60931281D01*
X103853365Y-60855515D01*
X103960515Y-60748365D01*
X103960515Y-60748364D01*
X103966262Y-60742618D01*
X103968503Y-60744859D01*
X104012821Y-60712446D01*
X104082563Y-60708236D01*
X104142541Y-60741421D01*
X104144485Y-60743365D01*
X104251635Y-60850515D01*
X104382865Y-60926281D01*
X104529234Y-60965500D01*
X104529236Y-60965500D01*
X104680763Y-60965500D01*
X104680766Y-60965500D01*
X104795314Y-60934807D01*
X104865160Y-60936470D01*
X104923023Y-60975632D01*
X104927549Y-60981460D01*
X105030807Y-61122878D01*
X105039505Y-61147074D01*
X105051828Y-61169642D01*
X105051129Y-61179410D01*
X105054443Y-61188628D01*
X105048678Y-61213685D01*
X105046844Y-61239334D01*
X105040973Y-61247175D01*
X105038778Y-61256719D01*
X105020381Y-61274682D01*
X105004972Y-61295267D01*
X104995796Y-61298689D01*
X104988788Y-61305533D01*
X104963596Y-61310699D01*
X104939508Y-61319684D01*
X104930662Y-61320000D01*
X104300803Y-61320000D01*
X104270392Y-61322852D01*
X104270391Y-61322852D01*
X104197062Y-61348509D01*
X105105000Y-62256447D01*
X105105001Y-62256447D01*
X106012936Y-61348509D01*
X105969558Y-61333331D01*
X105923260Y-61318771D01*
X105898669Y-61302295D01*
X105872706Y-61288090D01*
X105869968Y-61283066D01*
X105865214Y-61279881D01*
X105853432Y-61252721D01*
X105839273Y-61226739D01*
X105839685Y-61221033D01*
X105837408Y-61215783D01*
X105838085Y-61211637D01*
X105538128Y-60911681D01*
X105504643Y-60850358D01*
X105509627Y-60780667D01*
X105551498Y-60724733D01*
X105616963Y-60700316D01*
X105625809Y-60700000D01*
X105982191Y-60700000D01*
X106049230Y-60719685D01*
X106069872Y-60736319D01*
X106347499Y-61013946D01*
X106349469Y-61011977D01*
X106358132Y-61007246D01*
X106364153Y-60999420D01*
X106388292Y-60990776D01*
X106410791Y-60978491D01*
X106422392Y-60978567D01*
X106429934Y-60975867D01*
X106465101Y-60978848D01*
X106503422Y-60987714D01*
X106564300Y-61022003D01*
X106596975Y-61083762D01*
X106591073Y-61153382D01*
X106582859Y-61170523D01*
X106531715Y-61259105D01*
X106531714Y-61259109D01*
X106501013Y-61373686D01*
X106501013Y-61492304D01*
X106531714Y-61606881D01*
X106591024Y-61709608D01*
X106674900Y-61793484D01*
X106674902Y-61793485D01*
X106675986Y-61794317D01*
X106676670Y-61795254D01*
X106680647Y-61799231D01*
X106680026Y-61799851D01*
X106717189Y-61850745D01*
X106724500Y-61892693D01*
X106724500Y-63105496D01*
X106724501Y-63105505D01*
X106727293Y-63129580D01*
X106727294Y-63129584D01*
X106770781Y-63228073D01*
X106770784Y-63228077D01*
X106770785Y-63228079D01*
X106846921Y-63304215D01*
X106945420Y-63347707D01*
X106969495Y-63350500D01*
X107230504Y-63350499D01*
X107254580Y-63347707D01*
X107299914Y-63327689D01*
X107369190Y-63318618D01*
X107400086Y-63327689D01*
X107445420Y-63347707D01*
X107469495Y-63350500D01*
X107730504Y-63350499D01*
X107754580Y-63347707D01*
X107800532Y-63327416D01*
X107869808Y-63318344D01*
X107900706Y-63327416D01*
X107925000Y-63338142D01*
X107925000Y-63263782D01*
X107927550Y-63255096D01*
X107926262Y-63246135D01*
X107935566Y-63213695D01*
X107972705Y-63129584D01*
X107972707Y-63129580D01*
X107975500Y-63105505D01*
X107975499Y-62523998D01*
X107978049Y-62515313D01*
X107976761Y-62506353D01*
X107987738Y-62482316D01*
X107995183Y-62456961D01*
X108002025Y-62451032D01*
X108005786Y-62442797D01*
X108028017Y-62428510D01*
X108047987Y-62411206D01*
X108058502Y-62408918D01*
X108064564Y-62405023D01*
X108099499Y-62400000D01*
X108100500Y-62400000D01*
X108167539Y-62419685D01*
X108213294Y-62472489D01*
X108224500Y-62524000D01*
X108224500Y-63105496D01*
X108224501Y-63105505D01*
X108227293Y-63129580D01*
X108227293Y-63129581D01*
X108264434Y-63213695D01*
X108275000Y-63263782D01*
X108275000Y-63338142D01*
X108299292Y-63327416D01*
X108368571Y-63318344D01*
X108399463Y-63327414D01*
X108445420Y-63347707D01*
X108469495Y-63350500D01*
X108730504Y-63350499D01*
X108754580Y-63347707D01*
X108799914Y-63327689D01*
X108869190Y-63318618D01*
X108900086Y-63327689D01*
X108945420Y-63347707D01*
X108969495Y-63350500D01*
X109230504Y-63350499D01*
X109254580Y-63347707D01*
X109320460Y-63318618D01*
X109353073Y-63304218D01*
X109353074Y-63304217D01*
X109353079Y-63304215D01*
X109390555Y-63266739D01*
X112899500Y-63266739D01*
X112899500Y-63633260D01*
X112909426Y-63701391D01*
X112960803Y-63806485D01*
X113043514Y-63889196D01*
X113043515Y-63889196D01*
X113043517Y-63889198D01*
X113148607Y-63940573D01*
X113182673Y-63945536D01*
X113216739Y-63950500D01*
X113216740Y-63950500D01*
X114308261Y-63950500D01*
X114330971Y-63947191D01*
X114376393Y-63940573D01*
X114481483Y-63889198D01*
X114564198Y-63806483D01*
X114615573Y-63701393D01*
X114625500Y-63633260D01*
X114625500Y-63618934D01*
X114629725Y-63586840D01*
X114650500Y-63509309D01*
X114650500Y-63390691D01*
X114629725Y-63313157D01*
X114625500Y-63281064D01*
X114625500Y-63266739D01*
X114617549Y-63212167D01*
X114615573Y-63198607D01*
X114564198Y-63093517D01*
X114564196Y-63093515D01*
X114564196Y-63093514D01*
X114533010Y-63062328D01*
X114499525Y-63001005D01*
X114504509Y-62931313D01*
X114533010Y-62886966D01*
X114563785Y-62856190D01*
X114563787Y-62856188D01*
X114615088Y-62751249D01*
X114615270Y-62750000D01*
X112909730Y-62750000D01*
X112909911Y-62751249D01*
X112961212Y-62856188D01*
X112991990Y-62886966D01*
X113025475Y-62948289D01*
X113020491Y-63017981D01*
X112991990Y-63062328D01*
X112960803Y-63093514D01*
X112909426Y-63198608D01*
X112899500Y-63266739D01*
X109390555Y-63266739D01*
X109429215Y-63228079D01*
X109472707Y-63129580D01*
X109475500Y-63105505D01*
X109475499Y-61694496D01*
X109472707Y-61670420D01*
X109451369Y-61622094D01*
X109429218Y-61571926D01*
X109429216Y-61571923D01*
X109429215Y-61571921D01*
X109353079Y-61495785D01*
X109353076Y-61495783D01*
X109353075Y-61495783D01*
X109320686Y-61481481D01*
X109320682Y-61481480D01*
X109254580Y-61452293D01*
X109230505Y-61449500D01*
X109150193Y-61449500D01*
X109138859Y-61447374D01*
X109117585Y-61436540D01*
X109094682Y-61429815D01*
X109087022Y-61420976D01*
X109076598Y-61415667D01*
X109064557Y-61395049D01*
X109048927Y-61377011D01*
X109045234Y-61366739D01*
X112899500Y-61366739D01*
X112899500Y-61733260D01*
X112909426Y-61801391D01*
X112960803Y-61906485D01*
X112991990Y-61937672D01*
X113025475Y-61998995D01*
X113020491Y-62068687D01*
X112991990Y-62113034D01*
X112961214Y-62143809D01*
X112961212Y-62143811D01*
X112909911Y-62248750D01*
X112909729Y-62249999D01*
X112909730Y-62250000D01*
X114615270Y-62250000D01*
X114615270Y-62249999D01*
X114615088Y-62248750D01*
X114563787Y-62143811D01*
X114533010Y-62113034D01*
X114499525Y-62051711D01*
X114504509Y-61982019D01*
X114533010Y-61937672D01*
X114564196Y-61906485D01*
X114564198Y-61906483D01*
X114615573Y-61801393D01*
X114625500Y-61733260D01*
X114625500Y-61366740D01*
X114625500Y-61366739D01*
X115174500Y-61366739D01*
X115174500Y-61733260D01*
X115184426Y-61801391D01*
X115235803Y-61906485D01*
X115266637Y-61937319D01*
X115300122Y-61998642D01*
X115295138Y-62068334D01*
X115266637Y-62112681D01*
X115235803Y-62143514D01*
X115184426Y-62248608D01*
X115174500Y-62316739D01*
X115174500Y-62683260D01*
X115184426Y-62751391D01*
X115235803Y-62856485D01*
X115266637Y-62887319D01*
X115300122Y-62948642D01*
X115295138Y-63018334D01*
X115266637Y-63062681D01*
X115235803Y-63093514D01*
X115184426Y-63198608D01*
X115174500Y-63266739D01*
X115174500Y-63633260D01*
X115184426Y-63701391D01*
X115235803Y-63806485D01*
X115318514Y-63889196D01*
X115318515Y-63889196D01*
X115318517Y-63889198D01*
X115423607Y-63940573D01*
X115457673Y-63945536D01*
X115491739Y-63950500D01*
X115491740Y-63950500D01*
X116583261Y-63950500D01*
X116605971Y-63947191D01*
X116651393Y-63940573D01*
X116756483Y-63889198D01*
X116774193Y-63871488D01*
X118987062Y-63871488D01*
X118987063Y-63871489D01*
X119060392Y-63897148D01*
X119060394Y-63897149D01*
X119090792Y-63899999D01*
X120699196Y-63899999D01*
X120729608Y-63897148D01*
X120802935Y-63871488D01*
X119895000Y-62963553D01*
X118987062Y-63871488D01*
X116774193Y-63871488D01*
X116839198Y-63806483D01*
X116890573Y-63701393D01*
X116900500Y-63633260D01*
X116900500Y-63456446D01*
X118695000Y-63456446D01*
X119541447Y-62610000D01*
X119541447Y-62609999D01*
X118695000Y-61763552D01*
X118695000Y-63456446D01*
X116900500Y-63456446D01*
X116900500Y-63266740D01*
X116898803Y-63255096D01*
X116892549Y-63212167D01*
X116890573Y-63198607D01*
X116839198Y-63093517D01*
X116839196Y-63093515D01*
X116839196Y-63093514D01*
X116808363Y-63062681D01*
X116774878Y-63001358D01*
X116779862Y-62931666D01*
X116808363Y-62887319D01*
X116839196Y-62856485D01*
X116839198Y-62856483D01*
X116890573Y-62751393D01*
X116900500Y-62683260D01*
X116900500Y-62316740D01*
X116890573Y-62248607D01*
X116890572Y-62248605D01*
X116889722Y-62242769D01*
X116899535Y-62173591D01*
X116945190Y-62120701D01*
X117012192Y-62100890D01*
X117079269Y-62120448D01*
X117100107Y-62137209D01*
X117123387Y-62160489D01*
X117226114Y-62219799D01*
X117340691Y-62250500D01*
X117340694Y-62250500D01*
X117459306Y-62250500D01*
X117459309Y-62250500D01*
X117573886Y-62219799D01*
X117676613Y-62160489D01*
X117760489Y-62076613D01*
X117819799Y-61973886D01*
X117850500Y-61859309D01*
X117850500Y-61740691D01*
X117819799Y-61626114D01*
X117760489Y-61523387D01*
X117676613Y-61439511D01*
X117573886Y-61380201D01*
X117459309Y-61349500D01*
X117340691Y-61349500D01*
X117226114Y-61380201D01*
X117226112Y-61380201D01*
X117226112Y-61380202D01*
X117123387Y-61439511D01*
X117123384Y-61439513D01*
X117112181Y-61450717D01*
X117050858Y-61484202D01*
X116981166Y-61479218D01*
X116925233Y-61437346D01*
X116900816Y-61371882D01*
X116900760Y-61370332D01*
X116900500Y-61366740D01*
X116895632Y-61333331D01*
X116890573Y-61298607D01*
X116839198Y-61193517D01*
X116839196Y-61193515D01*
X116839196Y-61193514D01*
X116756485Y-61110803D01*
X116651391Y-61059426D01*
X116583261Y-61049500D01*
X116583260Y-61049500D01*
X115491740Y-61049500D01*
X115491739Y-61049500D01*
X115423608Y-61059426D01*
X115318514Y-61110803D01*
X115235803Y-61193514D01*
X115184426Y-61298608D01*
X115174500Y-61366739D01*
X114625500Y-61366739D01*
X114615573Y-61298607D01*
X114564198Y-61193517D01*
X114564196Y-61193515D01*
X114564196Y-61193514D01*
X114481485Y-61110803D01*
X114376391Y-61059426D01*
X114308261Y-61049500D01*
X114308260Y-61049500D01*
X113216740Y-61049500D01*
X113216739Y-61049500D01*
X113148608Y-61059426D01*
X113043514Y-61110803D01*
X112960803Y-61193514D01*
X112909426Y-61298608D01*
X112899500Y-61366739D01*
X109045234Y-61366739D01*
X109041948Y-61357600D01*
X109025259Y-61295314D01*
X109024131Y-61293361D01*
X109004356Y-61259109D01*
X108965949Y-61192587D01*
X108882073Y-61108711D01*
X108779346Y-61049401D01*
X108664769Y-61018700D01*
X108546151Y-61018700D01*
X108431574Y-61049401D01*
X108431572Y-61049402D01*
X108430520Y-61049684D01*
X108360670Y-61048021D01*
X108302807Y-61008859D01*
X108275303Y-60944630D01*
X108274426Y-60929909D01*
X108274426Y-60807853D01*
X108274426Y-60807851D01*
X108243725Y-60693274D01*
X108184415Y-60590547D01*
X108100539Y-60506671D01*
X107997812Y-60447361D01*
X107943059Y-60432689D01*
X107883401Y-60396326D01*
X107852872Y-60333479D01*
X107851682Y-60319234D01*
X108704500Y-60319234D01*
X108704500Y-60470765D01*
X108743719Y-60617136D01*
X108773952Y-60669500D01*
X108819485Y-60748365D01*
X108926635Y-60855515D01*
X109039821Y-60920863D01*
X109039835Y-60920872D01*
X109057859Y-60931278D01*
X109057860Y-60931278D01*
X109057865Y-60931281D01*
X109204234Y-60970500D01*
X109204236Y-60970500D01*
X109355764Y-60970500D01*
X109355766Y-60970500D01*
X109502135Y-60931281D01*
X109633365Y-60855515D01*
X109740515Y-60748365D01*
X109816281Y-60617135D01*
X109855500Y-60470766D01*
X109855500Y-60319234D01*
X109816281Y-60172865D01*
X109809656Y-60161391D01*
X109808853Y-60160000D01*
X110259730Y-60160000D01*
X110259911Y-60161249D01*
X110311212Y-60266188D01*
X110393811Y-60348787D01*
X110498748Y-60400087D01*
X110498751Y-60400088D01*
X110566780Y-60409999D01*
X111174999Y-60409999D01*
X111675000Y-60409999D01*
X112283218Y-60409999D01*
X112351249Y-60400087D01*
X112456191Y-60348784D01*
X112538787Y-60266188D01*
X112590088Y-60161249D01*
X112590270Y-60160000D01*
X111675000Y-60160000D01*
X111675000Y-60409999D01*
X111174999Y-60409999D01*
X111175000Y-60409998D01*
X111175000Y-60160000D01*
X110259730Y-60160000D01*
X109808853Y-60160000D01*
X109795361Y-60136631D01*
X109740515Y-60041635D01*
X109633365Y-59934485D01*
X109551195Y-59887044D01*
X109502136Y-59858719D01*
X109415804Y-59835587D01*
X109355766Y-59819500D01*
X109204234Y-59819500D01*
X109057863Y-59858719D01*
X108926635Y-59934485D01*
X108926632Y-59934487D01*
X108819487Y-60041632D01*
X108819485Y-60041635D01*
X108743719Y-60172863D01*
X108704500Y-60319234D01*
X107851682Y-60319234D01*
X107851529Y-60317398D01*
X107851155Y-60314557D01*
X107851155Y-60314554D01*
X107820454Y-60199977D01*
X107761144Y-60097250D01*
X107677268Y-60013374D01*
X107574541Y-59954064D01*
X107459964Y-59923363D01*
X107459961Y-59923363D01*
X107426488Y-59923363D01*
X107359449Y-59903678D01*
X107338807Y-59887044D01*
X107111762Y-59659999D01*
X110259729Y-59659999D01*
X110259730Y-59660000D01*
X111175000Y-59660000D01*
X111675000Y-59660000D01*
X112590270Y-59660000D01*
X112590270Y-59659999D01*
X112590088Y-59658750D01*
X112538787Y-59553811D01*
X112456188Y-59471212D01*
X112351251Y-59419912D01*
X112351248Y-59419911D01*
X112283220Y-59410000D01*
X111675000Y-59410000D01*
X111675000Y-59660000D01*
X111175000Y-59660000D01*
X111175000Y-59410000D01*
X110566782Y-59410000D01*
X110498750Y-59419912D01*
X110393808Y-59471215D01*
X110311212Y-59553811D01*
X110259911Y-59658750D01*
X110259729Y-59659999D01*
X107111762Y-59659999D01*
X106794997Y-59343234D01*
X106761512Y-59281911D01*
X106766496Y-59212219D01*
X106808368Y-59156286D01*
X106873832Y-59131869D01*
X106932766Y-59142119D01*
X106945420Y-59147707D01*
X106969495Y-59150500D01*
X107230504Y-59150499D01*
X107254580Y-59147707D01*
X107258838Y-59145827D01*
X107328116Y-59136754D01*
X107391302Y-59166576D01*
X107396608Y-59171579D01*
X107506941Y-59281911D01*
X107609541Y-59384511D01*
X107665490Y-59440460D01*
X107665492Y-59440461D01*
X107665496Y-59440464D01*
X107718754Y-59471212D01*
X107734012Y-59480021D01*
X107810439Y-59500500D01*
X107810441Y-59500500D01*
X109439560Y-59500500D01*
X109439562Y-59500500D01*
X109515989Y-59480021D01*
X109584511Y-59440460D01*
X109640460Y-59384511D01*
X110095301Y-58929669D01*
X110156622Y-58896186D01*
X110226313Y-58901170D01*
X110282247Y-58943041D01*
X110294378Y-58962887D01*
X110302262Y-58979014D01*
X110310803Y-58996485D01*
X110393514Y-59079196D01*
X110393515Y-59079196D01*
X110393517Y-59079198D01*
X110498607Y-59130573D01*
X110525628Y-59134510D01*
X110566739Y-59140500D01*
X110566740Y-59140500D01*
X112283261Y-59140500D01*
X112308970Y-59136754D01*
X112351393Y-59130573D01*
X112456483Y-59079198D01*
X112539198Y-58996483D01*
X112590573Y-58891393D01*
X112600500Y-58823260D01*
X112600500Y-58456740D01*
X112600446Y-58456372D01*
X112590573Y-58388608D01*
X112589549Y-58386513D01*
X112539198Y-58283517D01*
X112539196Y-58283515D01*
X112539196Y-58283514D01*
X112459117Y-58203435D01*
X113949500Y-58203435D01*
X113949500Y-58322053D01*
X113980201Y-58436630D01*
X114039511Y-58539357D01*
X114123387Y-58623233D01*
X114226114Y-58682543D01*
X114340691Y-58713244D01*
X114340694Y-58713244D01*
X114348751Y-58714305D01*
X114348444Y-58716630D01*
X114403950Y-58732929D01*
X114424592Y-58749563D01*
X115187607Y-59512578D01*
X115221092Y-59573901D01*
X115216108Y-59643593D01*
X115211332Y-59654709D01*
X115209428Y-59658603D01*
X115209425Y-59658611D01*
X115199500Y-59726739D01*
X115199500Y-60093260D01*
X115209426Y-60161391D01*
X115260803Y-60266485D01*
X115343514Y-60349196D01*
X115343515Y-60349196D01*
X115343517Y-60349198D01*
X115448607Y-60400573D01*
X115482673Y-60405536D01*
X115516739Y-60410500D01*
X115516740Y-60410500D01*
X116305450Y-60410500D01*
X116315691Y-60413244D01*
X116434309Y-60413244D01*
X116444550Y-60410500D01*
X117233260Y-60410500D01*
X117233261Y-60410500D01*
X117267326Y-60405536D01*
X117301393Y-60400573D01*
X117406483Y-60349198D01*
X117406484Y-60349196D01*
X117407764Y-60348571D01*
X117476637Y-60336811D01*
X117524223Y-60352583D01*
X117576114Y-60382543D01*
X117690691Y-60413244D01*
X117690694Y-60413244D01*
X117809306Y-60413244D01*
X117809309Y-60413244D01*
X117923886Y-60382543D01*
X118026613Y-60323233D01*
X118110489Y-60239357D01*
X118169799Y-60136630D01*
X118200500Y-60022053D01*
X118200500Y-59903435D01*
X118169799Y-59788858D01*
X118110489Y-59686131D01*
X118026613Y-59602255D01*
X117923886Y-59542945D01*
X117861722Y-59526288D01*
X117802064Y-59489923D01*
X117771535Y-59427076D01*
X117779830Y-59357701D01*
X117806134Y-59318836D01*
X118025408Y-59099563D01*
X118086731Y-59066078D01*
X118113089Y-59063244D01*
X118420500Y-59063244D01*
X118487539Y-59082929D01*
X118533294Y-59135733D01*
X118544500Y-59187243D01*
X118544500Y-59352129D01*
X118550941Y-59384511D01*
X118560485Y-59432495D01*
X118578380Y-59459277D01*
X118578382Y-59459279D01*
X118599260Y-59525956D01*
X118586681Y-59582630D01*
X118554426Y-59648608D01*
X118544500Y-59716739D01*
X118544500Y-60083260D01*
X118554426Y-60151391D01*
X118600730Y-60246108D01*
X118612488Y-60314981D01*
X118600730Y-60355028D01*
X118554911Y-60448752D01*
X118545000Y-60516780D01*
X118545000Y-60883212D01*
X118554913Y-60951251D01*
X118554912Y-60951251D01*
X118569387Y-60980859D01*
X118604648Y-60982915D01*
X118650529Y-61011976D01*
X118652500Y-61013947D01*
X118930128Y-60736319D01*
X118991451Y-60702834D01*
X119017809Y-60700000D01*
X119374190Y-60700000D01*
X119441229Y-60719685D01*
X119486984Y-60772489D01*
X119496928Y-60841647D01*
X119467903Y-60905203D01*
X119461871Y-60911681D01*
X119160546Y-61213004D01*
X119161567Y-61222500D01*
X119155081Y-61235455D01*
X119153295Y-61249829D01*
X119139757Y-61266069D01*
X119130292Y-61284979D01*
X119117007Y-61293361D01*
X119108558Y-61303498D01*
X119085129Y-61313477D01*
X119076740Y-61318771D01*
X119030413Y-61333341D01*
X118987063Y-61348509D01*
X118987063Y-61348510D01*
X119895000Y-62256447D01*
X121094998Y-63456446D01*
X122625000Y-63456446D01*
X123471447Y-62610000D01*
X123471447Y-62609999D01*
X122625000Y-61763552D01*
X122625000Y-63456446D01*
X121094998Y-63456446D01*
X121094999Y-63456445D01*
X121094999Y-61715803D01*
X121093885Y-61703930D01*
X121070196Y-61622094D01*
X121070317Y-61590417D01*
X121068703Y-61558790D01*
X121070449Y-61555666D01*
X121070463Y-61552224D01*
X121084432Y-61530669D01*
X121101622Y-61499936D01*
X121182474Y-61419085D01*
X121241784Y-61316358D01*
X121272485Y-61201781D01*
X121272485Y-61083163D01*
X121241784Y-60968586D01*
X121182474Y-60865859D01*
X121098598Y-60781983D01*
X120996682Y-60723141D01*
X120948468Y-60672574D01*
X120935246Y-60603967D01*
X120938905Y-60583678D01*
X120970500Y-60465766D01*
X120970500Y-60314234D01*
X120931281Y-60167865D01*
X120855515Y-60036635D01*
X120748365Y-59929485D01*
X120674855Y-59887044D01*
X120617136Y-59853719D01*
X120532200Y-59830961D01*
X120470766Y-59814500D01*
X120319234Y-59814500D01*
X120319232Y-59814500D01*
X120251592Y-59832624D01*
X120181743Y-59830961D01*
X120123880Y-59791798D01*
X120100620Y-59748112D01*
X120095500Y-59730851D01*
X120095500Y-59716740D01*
X120085573Y-59648607D01*
X120048778Y-59573341D01*
X120045839Y-59563433D01*
X120045769Y-59538419D01*
X120041559Y-59513758D01*
X120045670Y-59502589D01*
X120045646Y-59493564D01*
X120053549Y-59481190D01*
X120061615Y-59459282D01*
X120079515Y-59432495D01*
X120095500Y-59352133D01*
X120095499Y-59147868D01*
X120079515Y-59067505D01*
X120079513Y-59067502D01*
X120074841Y-59056222D01*
X120076285Y-59055623D01*
X120059563Y-59002211D01*
X120075517Y-58944056D01*
X120074842Y-58943777D01*
X120077070Y-58938396D01*
X120078049Y-58934831D01*
X120079452Y-58932647D01*
X120079516Y-58932493D01*
X120095499Y-58852136D01*
X120095500Y-58852133D01*
X120095499Y-58647868D01*
X120079661Y-58568240D01*
X120085890Y-58498651D01*
X120113598Y-58456372D01*
X120247920Y-58322050D01*
X120385460Y-58184510D01*
X120406615Y-58147868D01*
X120425021Y-58115988D01*
X120445500Y-58039561D01*
X120445500Y-57498740D01*
X120440484Y-57480021D01*
X120435721Y-57462244D01*
X120425023Y-57422317D01*
X120425022Y-57422315D01*
X120425022Y-57422314D01*
X120385460Y-57353791D01*
X120246134Y-57214465D01*
X120104316Y-57072646D01*
X120070831Y-57011323D01*
X120075815Y-56941631D01*
X120077439Y-56937504D01*
X120079511Y-56932500D01*
X120079515Y-56932495D01*
X120080785Y-56926114D01*
X120092045Y-56869500D01*
X120095500Y-56852133D01*
X120095499Y-56647868D01*
X120079515Y-56567505D01*
X120079513Y-56567502D01*
X120074841Y-56556222D01*
X120076285Y-56555623D01*
X120059563Y-56502211D01*
X120063810Y-56467753D01*
X120069113Y-56448061D01*
X120079515Y-56432495D01*
X120095500Y-56352133D01*
X120095499Y-56350089D01*
X120098132Y-56340317D01*
X120114276Y-56313906D01*
X120128632Y-56286462D01*
X120132345Y-56284347D01*
X120134573Y-56280703D01*
X120162440Y-56267210D01*
X120189348Y-56251888D01*
X120194639Y-56251620D01*
X120197459Y-56250255D01*
X120204589Y-56251116D01*
X120234057Y-56249626D01*
X120240689Y-56250499D01*
X120240691Y-56250500D01*
X120240693Y-56250500D01*
X120359306Y-56250500D01*
X120359309Y-56250500D01*
X120473886Y-56219799D01*
X120576613Y-56160489D01*
X120660489Y-56076613D01*
X120719799Y-55973886D01*
X120750500Y-55859309D01*
X120750500Y-55740691D01*
X120719799Y-55626114D01*
X120660489Y-55523387D01*
X120576613Y-55439511D01*
X120501817Y-55396327D01*
X120490448Y-55384403D01*
X120476000Y-55376485D01*
X120466834Y-55359637D01*
X120453602Y-55345759D01*
X120450484Y-55329582D01*
X120442611Y-55315110D01*
X120444008Y-55295982D01*
X120440380Y-55277152D01*
X120446503Y-55261857D01*
X120447704Y-55245426D01*
X120451259Y-55240691D01*
X121549500Y-55240691D01*
X121549500Y-55359309D01*
X121580201Y-55473886D01*
X121639511Y-55576613D01*
X121723387Y-55660489D01*
X121826114Y-55719799D01*
X121940691Y-55750500D01*
X121940694Y-55750500D01*
X122059306Y-55750500D01*
X122059309Y-55750500D01*
X122173886Y-55719799D01*
X122276613Y-55660489D01*
X122360489Y-55576613D01*
X122419799Y-55473886D01*
X122450500Y-55359309D01*
X122450500Y-55240691D01*
X122419799Y-55126114D01*
X122360489Y-55023387D01*
X122276613Y-54939511D01*
X122173886Y-54880201D01*
X122059309Y-54849500D01*
X121940691Y-54849500D01*
X121826114Y-54880201D01*
X121826112Y-54880201D01*
X121826112Y-54880202D01*
X121723387Y-54939511D01*
X121723384Y-54939513D01*
X121639513Y-55023384D01*
X121639511Y-55023387D01*
X121607847Y-55078231D01*
X121580201Y-55126114D01*
X121549500Y-55240691D01*
X120451259Y-55240691D01*
X120459219Y-55230091D01*
X120466348Y-55212287D01*
X120480145Y-55202229D01*
X120489662Y-55189557D01*
X120513145Y-55178172D01*
X120520665Y-55172691D01*
X120526099Y-55170673D01*
X120617135Y-55146281D01*
X120748365Y-55070515D01*
X120855515Y-54963365D01*
X120931281Y-54832135D01*
X120970500Y-54685766D01*
X120970500Y-54534234D01*
X120931281Y-54387865D01*
X120855515Y-54256635D01*
X120748365Y-54149485D01*
X120731850Y-54139950D01*
X120731849Y-54139949D01*
X120617137Y-54073720D01*
X120617136Y-54073719D01*
X120617135Y-54073719D01*
X120493871Y-54040691D01*
X121549500Y-54040691D01*
X121549500Y-54159309D01*
X121580201Y-54273886D01*
X121639511Y-54376613D01*
X121723387Y-54460489D01*
X121826114Y-54519799D01*
X121940691Y-54550500D01*
X121940694Y-54550500D01*
X122059306Y-54550500D01*
X122059309Y-54550500D01*
X122173886Y-54519799D01*
X122276613Y-54460489D01*
X122360489Y-54376613D01*
X122419799Y-54273886D01*
X122450500Y-54159309D01*
X122450500Y-54040691D01*
X122419799Y-53926114D01*
X122360489Y-53823387D01*
X122276613Y-53739511D01*
X122173886Y-53680201D01*
X122059309Y-53649500D01*
X121940691Y-53649500D01*
X121826114Y-53680201D01*
X121826112Y-53680201D01*
X121826112Y-53680202D01*
X121723387Y-53739511D01*
X121723384Y-53739513D01*
X121639513Y-53823384D01*
X121639511Y-53823387D01*
X121585762Y-53916483D01*
X121580201Y-53926114D01*
X121549500Y-54040691D01*
X120493871Y-54040691D01*
X120470766Y-54034500D01*
X120319234Y-54034500D01*
X120204688Y-54065192D01*
X120134838Y-54063529D01*
X120076976Y-54024366D01*
X120072450Y-54018539D01*
X119969192Y-53877121D01*
X119960493Y-53852924D01*
X119948171Y-53830357D01*
X119948869Y-53820588D01*
X119945556Y-53811371D01*
X119951320Y-53786313D01*
X119953155Y-53760665D01*
X119959025Y-53752823D01*
X119961221Y-53743280D01*
X119979617Y-53725316D01*
X119995027Y-53704732D01*
X120004202Y-53701309D01*
X120011211Y-53694466D01*
X120036402Y-53689299D01*
X120060491Y-53680315D01*
X120069337Y-53679999D01*
X120699196Y-53679999D01*
X120729608Y-53677148D01*
X120802936Y-53651488D01*
X119895000Y-52743553D01*
X118987063Y-53651488D01*
X118987063Y-53651489D01*
X119046869Y-53672416D01*
X119074540Y-53680559D01*
X119100356Y-53697171D01*
X119127290Y-53711907D01*
X119129468Y-53715905D01*
X119133296Y-53718368D01*
X119146030Y-53746294D01*
X119160724Y-53773258D01*
X119160395Y-53777799D01*
X119162284Y-53781941D01*
X119161427Y-53787875D01*
X119461872Y-54088319D01*
X119495357Y-54149642D01*
X119490373Y-54219333D01*
X119448502Y-54275267D01*
X119383037Y-54299684D01*
X119374191Y-54300000D01*
X119017809Y-54300000D01*
X118950770Y-54280315D01*
X118930128Y-54263681D01*
X118652500Y-53986053D01*
X118648500Y-53986053D01*
X118595987Y-54014726D01*
X118526296Y-54009740D01*
X118470363Y-53967868D01*
X118448014Y-53917750D01*
X118438868Y-53871770D01*
X118438867Y-53871769D01*
X118394552Y-53805447D01*
X118328230Y-53761132D01*
X118328229Y-53761131D01*
X118269752Y-53749500D01*
X118269748Y-53749500D01*
X117974833Y-53749500D01*
X117953587Y-53743261D01*
X117931499Y-53741682D01*
X117920715Y-53733609D01*
X117907794Y-53729815D01*
X117893294Y-53713081D01*
X117875566Y-53699810D01*
X117870858Y-53687189D01*
X117862039Y-53677011D01*
X117858887Y-53655093D01*
X117851149Y-53634346D01*
X117854011Y-53621185D01*
X117852095Y-53607853D01*
X117861294Y-53587709D01*
X117866001Y-53566073D01*
X117879269Y-53548347D01*
X117881120Y-53544297D01*
X117887152Y-53537819D01*
X117938152Y-53486819D01*
X117999475Y-53453334D01*
X118025833Y-53450500D01*
X118269750Y-53450500D01*
X118269751Y-53450499D01*
X118284568Y-53447552D01*
X118328229Y-53438868D01*
X118328229Y-53438867D01*
X118328231Y-53438867D01*
X118394552Y-53394552D01*
X118438867Y-53328231D01*
X118438867Y-53328229D01*
X118438868Y-53328229D01*
X118449383Y-53275367D01*
X118481768Y-53213456D01*
X118542483Y-53178882D01*
X118612253Y-53182621D01*
X118668925Y-53223487D01*
X118669939Y-53226065D01*
X118695000Y-53236446D01*
X119541447Y-52390000D01*
X119541447Y-52389999D01*
X120248553Y-52389999D01*
X120248553Y-52390001D01*
X121094998Y-53236446D01*
X122625000Y-53236446D01*
X123471447Y-52390000D01*
X123471447Y-52389999D01*
X122625000Y-51543552D01*
X122625000Y-53236446D01*
X121094998Y-53236446D01*
X121094999Y-53236445D01*
X121094999Y-51543553D01*
X121094998Y-51543552D01*
X120248553Y-52389999D01*
X119541447Y-52389999D01*
X118695000Y-51543552D01*
X118695000Y-51900441D01*
X118675315Y-51967480D01*
X118622511Y-52013235D01*
X118553353Y-52023179D01*
X118489797Y-51994154D01*
X118452023Y-51935376D01*
X118449383Y-51924632D01*
X118438868Y-51871770D01*
X118438867Y-51871769D01*
X118394552Y-51805447D01*
X118328230Y-51761132D01*
X118328229Y-51761131D01*
X118269752Y-51749500D01*
X118269748Y-51749500D01*
X117730252Y-51749500D01*
X117730247Y-51749500D01*
X117671770Y-51761131D01*
X117671769Y-51761132D01*
X117605447Y-51805448D01*
X117591528Y-51826278D01*
X117537914Y-51871081D01*
X117468589Y-51879787D01*
X117416284Y-51854760D01*
X117414847Y-51856773D01*
X117406486Y-51850804D01*
X117406484Y-51850803D01*
X117406483Y-51850802D01*
X117301393Y-51799427D01*
X117301391Y-51799426D01*
X117233261Y-51789500D01*
X117233260Y-51789500D01*
X115516740Y-51789500D01*
X115516739Y-51789500D01*
X115448608Y-51799426D01*
X115343514Y-51850803D01*
X115260803Y-51933514D01*
X115209426Y-52038608D01*
X115199500Y-52106739D01*
X115199500Y-52473260D01*
X115209426Y-52541391D01*
X115209427Y-52541393D01*
X115260165Y-52645181D01*
X115260803Y-52646485D01*
X115343514Y-52729196D01*
X115343515Y-52729196D01*
X115343517Y-52729198D01*
X115448607Y-52780573D01*
X115467303Y-52783297D01*
X115516739Y-52790500D01*
X115516740Y-52790500D01*
X117233261Y-52790500D01*
X117282697Y-52783297D01*
X117301393Y-52780573D01*
X117371040Y-52746524D01*
X117372709Y-52746239D01*
X117373989Y-52745131D01*
X117407008Y-52740383D01*
X117439912Y-52734765D01*
X117441471Y-52735427D01*
X117443147Y-52735187D01*
X117473498Y-52749047D01*
X117504209Y-52762108D01*
X117505161Y-52763508D01*
X117506703Y-52764212D01*
X117524744Y-52792285D01*
X117543517Y-52819872D01*
X117543855Y-52822022D01*
X117544477Y-52822990D01*
X117549500Y-52857925D01*
X117549500Y-52974167D01*
X117529815Y-53041206D01*
X117513182Y-53061846D01*
X117506142Y-53068887D01*
X117501150Y-53073879D01*
X117439825Y-53107361D01*
X117370134Y-53102374D01*
X117359012Y-53097595D01*
X117301391Y-53069426D01*
X117233261Y-53059500D01*
X117233260Y-53059500D01*
X115516740Y-53059500D01*
X115516739Y-53059500D01*
X115448608Y-53069426D01*
X115343514Y-53120803D01*
X115260803Y-53203514D01*
X115209426Y-53308608D01*
X115199500Y-53376739D01*
X115199500Y-53743260D01*
X115209426Y-53811391D01*
X115260803Y-53916485D01*
X115343514Y-53999196D01*
X115343515Y-53999196D01*
X115343517Y-53999198D01*
X115448607Y-54050573D01*
X115474249Y-54054309D01*
X115516739Y-54060500D01*
X115516740Y-54060500D01*
X117233261Y-54060500D01*
X117275751Y-54054309D01*
X117301393Y-54050573D01*
X117371040Y-54016524D01*
X117372709Y-54016239D01*
X117373989Y-54015131D01*
X117407008Y-54010383D01*
X117439912Y-54004765D01*
X117441471Y-54005427D01*
X117443147Y-54005187D01*
X117473498Y-54019047D01*
X117504209Y-54032108D01*
X117505161Y-54033508D01*
X117506703Y-54034212D01*
X117524744Y-54062285D01*
X117543517Y-54089872D01*
X117543855Y-54092022D01*
X117544477Y-54092990D01*
X117549500Y-54127925D01*
X117549500Y-54262074D01*
X117529815Y-54329113D01*
X117477011Y-54374868D01*
X117407853Y-54384812D01*
X117371040Y-54373475D01*
X117301391Y-54339426D01*
X117233261Y-54329500D01*
X117233260Y-54329500D01*
X115516740Y-54329500D01*
X115516739Y-54329500D01*
X115448608Y-54339426D01*
X115343514Y-54390803D01*
X115260803Y-54473514D01*
X115209426Y-54578608D01*
X115199500Y-54646739D01*
X115199500Y-55013260D01*
X115209426Y-55081391D01*
X115260803Y-55186485D01*
X115343514Y-55269196D01*
X115343515Y-55269196D01*
X115343517Y-55269198D01*
X115448607Y-55320573D01*
X115482673Y-55325536D01*
X115516739Y-55330500D01*
X115516740Y-55330500D01*
X115992036Y-55330500D01*
X116021476Y-55339144D01*
X116051463Y-55345668D01*
X116056478Y-55349422D01*
X116059075Y-55350185D01*
X116079717Y-55366819D01*
X116100717Y-55387819D01*
X116134202Y-55449142D01*
X116129218Y-55518834D01*
X116087346Y-55574767D01*
X116021882Y-55599184D01*
X116013036Y-55599500D01*
X115516739Y-55599500D01*
X115448608Y-55609426D01*
X115343514Y-55660803D01*
X115260803Y-55743514D01*
X115209426Y-55848608D01*
X115199500Y-55916739D01*
X115199500Y-56283260D01*
X115209426Y-56351391D01*
X115260803Y-56456485D01*
X115343514Y-56539196D01*
X115343515Y-56539196D01*
X115343517Y-56539198D01*
X115448607Y-56590573D01*
X115482673Y-56595536D01*
X115516739Y-56600500D01*
X115516740Y-56600500D01*
X116823976Y-56600500D01*
X116835493Y-56603882D01*
X116847445Y-56602741D01*
X116868399Y-56613544D01*
X116891015Y-56620185D01*
X116900427Y-56630056D01*
X116909547Y-56634758D01*
X116931361Y-56662498D01*
X116939511Y-56676613D01*
X116943488Y-56683501D01*
X116959959Y-56751402D01*
X116937107Y-56817428D01*
X116882185Y-56860618D01*
X116836100Y-56869500D01*
X115516739Y-56869500D01*
X115448608Y-56879426D01*
X115343514Y-56930803D01*
X115260803Y-57013514D01*
X115209426Y-57118608D01*
X115199500Y-57186739D01*
X115199500Y-57553260D01*
X115209426Y-57621392D01*
X115217833Y-57638588D01*
X115229593Y-57707461D01*
X115202250Y-57771758D01*
X115144486Y-57811066D01*
X115138532Y-57812822D01*
X115026114Y-57842945D01*
X115026112Y-57842945D01*
X115026112Y-57842946D01*
X114923387Y-57902255D01*
X114923384Y-57902257D01*
X114887681Y-57937961D01*
X114826358Y-57971446D01*
X114756666Y-57966462D01*
X114712319Y-57937961D01*
X114676615Y-57902257D01*
X114676613Y-57902255D01*
X114573886Y-57842945D01*
X114459309Y-57812244D01*
X114340691Y-57812244D01*
X114226114Y-57842945D01*
X114226112Y-57842945D01*
X114226112Y-57842946D01*
X114123387Y-57902255D01*
X114123384Y-57902257D01*
X114039513Y-57986128D01*
X114039511Y-57986131D01*
X113982997Y-58084016D01*
X113980201Y-58088858D01*
X113949500Y-58203435D01*
X112459117Y-58203435D01*
X112456485Y-58200803D01*
X112351391Y-58149426D01*
X112283261Y-58139500D01*
X112283260Y-58139500D01*
X110566740Y-58139500D01*
X110566739Y-58139500D01*
X110491092Y-58150521D01*
X110488277Y-58152021D01*
X110459138Y-58149629D01*
X110429915Y-58150037D01*
X110424731Y-58146806D01*
X110418642Y-58146307D01*
X110395425Y-58128545D01*
X110370617Y-58113086D01*
X110368001Y-58107564D01*
X110363149Y-58103852D01*
X110353219Y-58076353D01*
X110340709Y-58049941D01*
X110340964Y-58042416D01*
X110339419Y-58038136D01*
X110341969Y-58012826D01*
X110342305Y-58002960D01*
X110342806Y-58000764D01*
X110350500Y-57972053D01*
X110350500Y-57967099D01*
X110353333Y-57954703D01*
X110367671Y-57929084D01*
X110379545Y-57902246D01*
X110384536Y-57898953D01*
X110387458Y-57893734D01*
X110413368Y-57879935D01*
X110437869Y-57863775D01*
X110444696Y-57863252D01*
X110449129Y-57860892D01*
X110461871Y-57861937D01*
X110492096Y-57859624D01*
X110498606Y-57860572D01*
X110498607Y-57860573D01*
X110566740Y-57870500D01*
X112283261Y-57870500D01*
X112307158Y-57867018D01*
X112351393Y-57860573D01*
X112456483Y-57809198D01*
X112539198Y-57726483D01*
X112590573Y-57621393D01*
X112600500Y-57553260D01*
X112600500Y-57487964D01*
X112620185Y-57420925D01*
X112636819Y-57400283D01*
X112644419Y-57392683D01*
X112660489Y-57376613D01*
X112719799Y-57273886D01*
X112750500Y-57159309D01*
X112750500Y-57040691D01*
X112719799Y-56926114D01*
X112660489Y-56823387D01*
X112576613Y-56739511D01*
X112513408Y-56703019D01*
X112465194Y-56652452D01*
X112451972Y-56583845D01*
X112477940Y-56518980D01*
X112487730Y-56507951D01*
X112539196Y-56456485D01*
X112539198Y-56456483D01*
X112590573Y-56351393D01*
X112600500Y-56283260D01*
X112600500Y-56225408D01*
X112620185Y-56158369D01*
X112672989Y-56112614D01*
X112742147Y-56102670D01*
X112805703Y-56131695D01*
X112831887Y-56163408D01*
X112839508Y-56176609D01*
X112839510Y-56176611D01*
X112839511Y-56176613D01*
X112923387Y-56260489D01*
X113026114Y-56319799D01*
X113140691Y-56350500D01*
X113140694Y-56350500D01*
X113259306Y-56350500D01*
X113259309Y-56350500D01*
X113373886Y-56319799D01*
X113476613Y-56260489D01*
X113560489Y-56176613D01*
X113619799Y-56073886D01*
X113650500Y-55959309D01*
X113650500Y-55840691D01*
X113650499Y-55840689D01*
X113649439Y-55832635D01*
X113651773Y-55832327D01*
X113653142Y-55774533D01*
X113692297Y-55716665D01*
X113739162Y-55692500D01*
X113823886Y-55669799D01*
X113926613Y-55610489D01*
X114010489Y-55526613D01*
X114069799Y-55423886D01*
X114100500Y-55309309D01*
X114100500Y-55190691D01*
X114069799Y-55076114D01*
X114010489Y-54973387D01*
X113926613Y-54889511D01*
X113823886Y-54830201D01*
X113709309Y-54799500D01*
X113590691Y-54799500D01*
X113476114Y-54830201D01*
X113476112Y-54830201D01*
X113476112Y-54830202D01*
X113373387Y-54889511D01*
X113373384Y-54889513D01*
X113289513Y-54973384D01*
X113289511Y-54973387D01*
X113233434Y-55070515D01*
X113230201Y-55076114D01*
X113199500Y-55190691D01*
X113199500Y-55190693D01*
X113199500Y-55309307D01*
X113200561Y-55317365D01*
X113198229Y-55317672D01*
X113196851Y-55375485D01*
X113157686Y-55433347D01*
X113110835Y-55457499D01*
X113026114Y-55480200D01*
X112923387Y-55539511D01*
X112923384Y-55539513D01*
X112839513Y-55623384D01*
X112839511Y-55623387D01*
X112780200Y-55726114D01*
X112777580Y-55735895D01*
X112741214Y-55795554D01*
X112678367Y-55826082D01*
X112608991Y-55817786D01*
X112555114Y-55773300D01*
X112546406Y-55758261D01*
X112542612Y-55750500D01*
X112539198Y-55743517D01*
X112539196Y-55743515D01*
X112539196Y-55743514D01*
X112456485Y-55660803D01*
X112351391Y-55609426D01*
X112283261Y-55599500D01*
X112283260Y-55599500D01*
X110566740Y-55599500D01*
X110566739Y-55599500D01*
X110498608Y-55609426D01*
X110393514Y-55660803D01*
X110310803Y-55743514D01*
X110259426Y-55848608D01*
X110249500Y-55916739D01*
X110249500Y-56073415D01*
X110229815Y-56140454D01*
X110177011Y-56186209D01*
X110107853Y-56196153D01*
X110063499Y-56180802D01*
X110056247Y-56176615D01*
X109975860Y-56130203D01*
X109861283Y-56099502D01*
X109742665Y-56099502D01*
X109628088Y-56130203D01*
X109628086Y-56130203D01*
X109628086Y-56130204D01*
X109525361Y-56189512D01*
X109442836Y-56272038D01*
X109381512Y-56305522D01*
X109311821Y-56300538D01*
X109279673Y-56282735D01*
X109278877Y-56282124D01*
X109261408Y-56272038D01*
X109176145Y-56222811D01*
X109061568Y-56192110D01*
X108942950Y-56192110D01*
X108828373Y-56222811D01*
X108828371Y-56222811D01*
X108828371Y-56222812D01*
X108725646Y-56282121D01*
X108649306Y-56358461D01*
X108587982Y-56391945D01*
X108518291Y-56386961D01*
X108499625Y-56378166D01*
X108416550Y-56330202D01*
X108416551Y-56330202D01*
X108377726Y-56319799D01*
X108301970Y-56299500D01*
X108183352Y-56299500D01*
X108068775Y-56330201D01*
X108068773Y-56330201D01*
X108068773Y-56330202D01*
X107966048Y-56389511D01*
X107966045Y-56389513D01*
X107882174Y-56473384D01*
X107882170Y-56473390D01*
X107836829Y-56551920D01*
X107786261Y-56600135D01*
X107717654Y-56613356D01*
X107697351Y-56609693D01*
X107659310Y-56599500D01*
X107659309Y-56599500D01*
X107540691Y-56599500D01*
X107443550Y-56625529D01*
X107426106Y-56630203D01*
X107421945Y-56631927D01*
X107352476Y-56639391D01*
X107289998Y-56608113D01*
X107254350Y-56548021D01*
X107250500Y-56517363D01*
X107250500Y-56330249D01*
X107250499Y-56330247D01*
X107238868Y-56271770D01*
X107238867Y-56271769D01*
X107194552Y-56205447D01*
X107128230Y-56161132D01*
X107128229Y-56161131D01*
X107069752Y-56149500D01*
X107069748Y-56149500D01*
X106556332Y-56149500D01*
X106541356Y-56145102D01*
X106525759Y-56145672D01*
X106508516Y-56135459D01*
X106489293Y-56129815D01*
X106478254Y-56117536D01*
X106465642Y-56110066D01*
X106450810Y-56087007D01*
X106445491Y-56081090D01*
X106440065Y-56070271D01*
X106439515Y-56067505D01*
X106436158Y-56062481D01*
X106432702Y-56055590D01*
X106427791Y-56028492D01*
X106419563Y-56002211D01*
X106421650Y-55994604D01*
X106420243Y-55986840D01*
X106430763Y-55961384D01*
X106435517Y-55944057D01*
X106434842Y-55943778D01*
X106437070Y-55938399D01*
X106438049Y-55934831D01*
X106439453Y-55932646D01*
X106441980Y-55926546D01*
X106485821Y-55872143D01*
X106548826Y-55851173D01*
X106550000Y-55850000D01*
X106550000Y-54950000D01*
X106542688Y-54942688D01*
X106500549Y-54930315D01*
X106454794Y-54877511D01*
X106454497Y-54876857D01*
X106447384Y-54861041D01*
X106445573Y-54848607D01*
X106398392Y-54752097D01*
X106397579Y-54750288D01*
X106393069Y-54717578D01*
X106387510Y-54685018D01*
X106388238Y-54682538D01*
X106388036Y-54681073D01*
X106389760Y-54677354D01*
X106399270Y-54644970D01*
X106445088Y-54551248D01*
X106454999Y-54483219D01*
X106454999Y-54116787D01*
X106445087Y-54048749D01*
X106445086Y-54048746D01*
X106430613Y-54019140D01*
X106395347Y-54017083D01*
X106349470Y-53988023D01*
X106347500Y-53986053D01*
X106069872Y-54263681D01*
X106008549Y-54297166D01*
X105982191Y-54300000D01*
X105625809Y-54300000D01*
X105558770Y-54280315D01*
X105513015Y-54227511D01*
X105503071Y-54158353D01*
X105532096Y-54094797D01*
X105538128Y-54088319D01*
X105839452Y-53786993D01*
X105838432Y-53777501D01*
X105845423Y-53763532D01*
X105847638Y-53748070D01*
X105860742Y-53732929D01*
X105869706Y-53715021D01*
X105883760Y-53706333D01*
X105893362Y-53695240D01*
X105918760Y-53684698D01*
X105925458Y-53680559D01*
X105953140Y-53672413D01*
X106012936Y-53651489D01*
X106012936Y-53651488D01*
X105105000Y-52743553D01*
X104197062Y-53651488D01*
X104197063Y-53651489D01*
X104270392Y-53677148D01*
X104270394Y-53677149D01*
X104300792Y-53679999D01*
X104930662Y-53679999D01*
X104997701Y-53699683D01*
X105043456Y-53752487D01*
X105053400Y-53821646D01*
X105030807Y-53877121D01*
X104927549Y-54018539D01*
X104908162Y-54033415D01*
X104891676Y-54051460D01*
X104880934Y-54054309D01*
X104872119Y-54061074D01*
X104847764Y-54063107D01*
X104824142Y-54069374D01*
X104805358Y-54066649D01*
X104802491Y-54066889D01*
X104800791Y-54065986D01*
X104795311Y-54065192D01*
X104680766Y-54034500D01*
X104529234Y-54034500D01*
X104382863Y-54073719D01*
X104251635Y-54149485D01*
X104251632Y-54149487D01*
X104144487Y-54256632D01*
X104144485Y-54256635D01*
X104068719Y-54387863D01*
X104045769Y-54473517D01*
X104029500Y-54534234D01*
X104029500Y-54685766D01*
X104037023Y-54713843D01*
X104068719Y-54832136D01*
X104101845Y-54889511D01*
X104144485Y-54963365D01*
X104251635Y-55070515D01*
X104304683Y-55101142D01*
X104352898Y-55151709D01*
X104366122Y-55220316D01*
X104362458Y-55240622D01*
X104362109Y-55241923D01*
X104362109Y-55241924D01*
X104331408Y-55356501D01*
X104331408Y-55475119D01*
X104362109Y-55589696D01*
X104421419Y-55692423D01*
X104505295Y-55776299D01*
X104557790Y-55806607D01*
X104606006Y-55857174D01*
X104619229Y-55925781D01*
X104603177Y-55975994D01*
X104588041Y-56002211D01*
X104566506Y-56039511D01*
X104545372Y-56076115D01*
X104514671Y-56190692D01*
X104514671Y-56309310D01*
X104545372Y-56423887D01*
X104604682Y-56526614D01*
X104641079Y-56563011D01*
X104666368Y-56588300D01*
X104699852Y-56649624D01*
X104694867Y-56719315D01*
X104666368Y-56763661D01*
X104614541Y-56815488D01*
X104614535Y-56815496D01*
X104574982Y-56884005D01*
X104574979Y-56884010D01*
X104563206Y-56927950D01*
X104556280Y-56953798D01*
X104554500Y-56960440D01*
X104554500Y-56999895D01*
X104534815Y-57066934D01*
X104492502Y-57107281D01*
X104456049Y-57128327D01*
X104372172Y-57212204D01*
X104312864Y-57314929D01*
X104312863Y-57314931D01*
X104282162Y-57429508D01*
X104282162Y-57548126D01*
X104312863Y-57662703D01*
X104372173Y-57765430D01*
X104456049Y-57849306D01*
X104506509Y-57878439D01*
X104554725Y-57929006D01*
X104567948Y-57997613D01*
X104551896Y-58047826D01*
X104531001Y-58084016D01*
X104531000Y-58084020D01*
X104500299Y-58198597D01*
X104500299Y-58317215D01*
X104531000Y-58431792D01*
X104590310Y-58534519D01*
X104674186Y-58618395D01*
X104776913Y-58677705D01*
X104812594Y-58687265D01*
X104872254Y-58723630D01*
X104902402Y-58784325D01*
X104904500Y-58795587D01*
X104904501Y-58852132D01*
X104920485Y-58932495D01*
X104933696Y-58952267D01*
X104938358Y-58977284D01*
X104937293Y-58987750D01*
X104940436Y-58997788D01*
X104933818Y-59021907D01*
X104931287Y-59046795D01*
X104924733Y-59055023D01*
X104924482Y-59055938D01*
X104925159Y-59056219D01*
X104922926Y-59061609D01*
X104921950Y-59065168D01*
X104920550Y-59067345D01*
X104920484Y-59067505D01*
X104904500Y-59147863D01*
X104904500Y-59352129D01*
X104910941Y-59384511D01*
X104920485Y-59432495D01*
X104938380Y-59459277D01*
X104938382Y-59459279D01*
X104959260Y-59525956D01*
X104954160Y-59563433D01*
X104951219Y-59573346D01*
X104914427Y-59648607D01*
X104904500Y-59716740D01*
X104904500Y-59730851D01*
X104899380Y-59748112D01*
X104889790Y-59762943D01*
X104884815Y-59779888D01*
X104871215Y-59791672D01*
X104861444Y-59806785D01*
X104845357Y-59814077D01*
X104832011Y-59825643D01*
X104814199Y-59828204D01*
X104797809Y-59835635D01*
X104780334Y-59833073D01*
X104762853Y-59835587D01*
X104748408Y-59832624D01*
X104680767Y-59814500D01*
X104680766Y-59814500D01*
X104529234Y-59814500D01*
X104382863Y-59853719D01*
X104251635Y-59929485D01*
X104251632Y-59929487D01*
X104138738Y-60042382D01*
X104136509Y-60040153D01*
X104092070Y-60072592D01*
X104022323Y-60076737D01*
X103962458Y-60043578D01*
X103853367Y-59934487D01*
X103853365Y-59934485D01*
X103771195Y-59887044D01*
X103722136Y-59858719D01*
X103635804Y-59835587D01*
X103575766Y-59819500D01*
X103424234Y-59819500D01*
X103277863Y-59858719D01*
X103146635Y-59934485D01*
X103146632Y-59934487D01*
X103039487Y-60041632D01*
X103039485Y-60041635D01*
X102963719Y-60172863D01*
X102924500Y-60319234D01*
X100500500Y-60319234D01*
X100500500Y-57634108D01*
X101599500Y-57634108D01*
X101599500Y-57765891D01*
X101633608Y-57893187D01*
X101645910Y-57914494D01*
X101699500Y-58007314D01*
X101792686Y-58100500D01*
X101906814Y-58166392D01*
X102034108Y-58200500D01*
X102034110Y-58200500D01*
X102165890Y-58200500D01*
X102165892Y-58200500D01*
X102293186Y-58166392D01*
X102407314Y-58100500D01*
X102500500Y-58007314D01*
X102500504Y-58007306D01*
X102501625Y-58005847D01*
X102502892Y-58004921D01*
X102506247Y-58001567D01*
X102506770Y-58002090D01*
X102558053Y-57964645D01*
X102627799Y-57960491D01*
X102688719Y-57994704D01*
X102698375Y-58005847D01*
X102699498Y-58007311D01*
X102699500Y-58007314D01*
X102792686Y-58100500D01*
X102906814Y-58166392D01*
X103034108Y-58200500D01*
X103034110Y-58200500D01*
X103165890Y-58200500D01*
X103165892Y-58200500D01*
X103293186Y-58166392D01*
X103407314Y-58100500D01*
X103500500Y-58007314D01*
X103566392Y-57893186D01*
X103600500Y-57765892D01*
X103600500Y-57634108D01*
X103566392Y-57506814D01*
X103564100Y-57502845D01*
X103555509Y-57487964D01*
X103500500Y-57392686D01*
X103407314Y-57299500D01*
X103341081Y-57261260D01*
X103293187Y-57233608D01*
X103213304Y-57212204D01*
X103165892Y-57199500D01*
X103034108Y-57199500D01*
X102906812Y-57233608D01*
X102792686Y-57299500D01*
X102792683Y-57299502D01*
X102699498Y-57392687D01*
X102698370Y-57394158D01*
X102697102Y-57395083D01*
X102693753Y-57398433D01*
X102693230Y-57397910D01*
X102641940Y-57435356D01*
X102572193Y-57439506D01*
X102511275Y-57405289D01*
X102501630Y-57394158D01*
X102500501Y-57392687D01*
X102407316Y-57299502D01*
X102407314Y-57299500D01*
X102341081Y-57261260D01*
X102293187Y-57233608D01*
X102213304Y-57212204D01*
X102165892Y-57199500D01*
X102034108Y-57199500D01*
X101906812Y-57233608D01*
X101792686Y-57299500D01*
X101792683Y-57299502D01*
X101699502Y-57392683D01*
X101699500Y-57392686D01*
X101633608Y-57506812D01*
X101599500Y-57634108D01*
X100500500Y-57634108D01*
X100500500Y-53803999D01*
X100520185Y-53736960D01*
X100572989Y-53691205D01*
X100624500Y-53679999D01*
X101979196Y-53679999D01*
X102009608Y-53677148D01*
X102082935Y-53651488D01*
X102082936Y-53651488D01*
X101211319Y-52779871D01*
X101177834Y-52718548D01*
X101175000Y-52692190D01*
X101175000Y-52087808D01*
X101194685Y-52020769D01*
X101211319Y-52000127D01*
X102082936Y-51128510D01*
X102009602Y-51102850D01*
X101979207Y-51100000D01*
X101873372Y-51100000D01*
X101806333Y-51080315D01*
X101760578Y-51027511D01*
X101751577Y-50967436D01*
X101750500Y-50967436D01*
X101750500Y-50960247D01*
X101750434Y-50959807D01*
X101750498Y-50959312D01*
X101750500Y-50959309D01*
X101750500Y-50840691D01*
X101719799Y-50726114D01*
X101696927Y-50686500D01*
X101680455Y-50618601D01*
X101703307Y-50552574D01*
X101758228Y-50509383D01*
X101804315Y-50500500D01*
X102695685Y-50500500D01*
X102762724Y-50520185D01*
G37*
%TD.AperFunction*%
%TD*%
M02*
