%TF.GenerationSoftware,KiCad,Pcbnew,10.0.2*%
%TF.CreationDate,2026-05-28T11:14:38+09:00*%
%TF.ProjectId,ammeter2,616d6d65-7465-4723-922e-6b696361645f,rev?*%
%TF.SameCoordinates,Original*%
%TF.FileFunction,Copper,L4,Bot*%
%TF.FilePolarity,Positive*%
%FSLAX46Y46*%
G04 Gerber Fmt 4.6, Leading zero omitted, Abs format (unit mm)*
G04 Created by KiCad (PCBNEW 10.0.2) date 2026-05-28 11:14:38*
%MOMM*%
%LPD*%
G01*
G04 APERTURE LIST*
G04 Aperture macros list*
%AMRoundRect*
0 Rectangle with rounded corners*
0 $1 Rounding radius*
0 $2 $3 $4 $5 $6 $7 $8 $9 X,Y pos of 4 corners*
0 Add a 4 corners polygon primitive as box body*
4,1,4,$2,$3,$4,$5,$6,$7,$8,$9,$2,$3,0*
0 Add four circle primitives for the rounded corners*
1,1,$1+$1,$2,$3*
1,1,$1+$1,$4,$5*
1,1,$1+$1,$6,$7*
1,1,$1+$1,$8,$9*
0 Add four rect primitives between the rounded corners*
20,1,$1+$1,$2,$3,$4,$5,0*
20,1,$1+$1,$4,$5,$6,$7,0*
20,1,$1+$1,$6,$7,$8,$9,0*
20,1,$1+$1,$8,$9,$2,$3,0*%
G04 Aperture macros list end*
%TA.AperFunction,SMDPad,CuDef*%
%ADD10R,0.500000X0.500000*%
%TD*%
%TA.AperFunction,SMDPad,CuDef*%
%ADD11R,0.800000X0.800000*%
%TD*%
%TA.AperFunction,SMDPad,CuDef*%
%ADD12RoundRect,0.150000X-0.150000X0.512500X-0.150000X-0.512500X0.150000X-0.512500X0.150000X0.512500X0*%
%TD*%
%TA.AperFunction,SMDPad,CuDef*%
%ADD13RoundRect,0.150000X0.150000X0.425000X-0.150000X0.425000X-0.150000X-0.425000X0.150000X-0.425000X0*%
%TD*%
%TA.AperFunction,SMDPad,CuDef*%
%ADD14RoundRect,0.075000X0.075000X0.500000X-0.075000X0.500000X-0.075000X-0.500000X0.075000X-0.500000X0*%
%TD*%
%TA.AperFunction,SMDPad,CuDef*%
%ADD15RoundRect,0.250000X0.840000X0.750000X-0.840000X0.750000X-0.840000X-0.750000X0.840000X-0.750000X0*%
%TD*%
%TA.AperFunction,SMDPad,CuDef*%
%ADD16RoundRect,0.062500X0.287500X0.062500X-0.287500X0.062500X-0.287500X-0.062500X0.287500X-0.062500X0*%
%TD*%
%TA.AperFunction,HeatsinkPad*%
%ADD17R,0.800000X1.200000*%
%TD*%
%TA.AperFunction,SMDPad,CuDef*%
%ADD18RoundRect,0.250000X0.262500X0.450000X-0.262500X0.450000X-0.262500X-0.450000X0.262500X-0.450000X0*%
%TD*%
%TA.AperFunction,SMDPad,CuDef*%
%ADD19R,2.000000X1.000000*%
%TD*%
%TA.AperFunction,SMDPad,CuDef*%
%ADD20RoundRect,0.049500X0.115500X1.050500X-0.115500X1.050500X-0.115500X-1.050500X0.115500X-1.050500X0*%
%TD*%
%TA.AperFunction,SMDPad,CuDef*%
%ADD21RoundRect,0.087500X0.087500X-0.425000X0.087500X0.425000X-0.087500X0.425000X-0.087500X-0.425000X0*%
%TD*%
%TA.AperFunction,SMDPad,CuDef*%
%ADD22R,1.050000X0.650000*%
%TD*%
%TA.AperFunction,SMDPad,CuDef*%
%ADD23RoundRect,0.075000X-0.650000X-0.075000X0.650000X-0.075000X0.650000X0.075000X-0.650000X0.075000X0*%
%TD*%
%TA.AperFunction,ViaPad*%
%ADD24C,0.500000*%
%TD*%
%TA.AperFunction,ViaPad*%
%ADD25C,0.600000*%
%TD*%
%TA.AperFunction,Conductor*%
%ADD26C,0.200000*%
%TD*%
%TA.AperFunction,Conductor*%
%ADD27C,1.000000*%
%TD*%
%TA.AperFunction,Conductor*%
%ADD28C,0.300000*%
%TD*%
%TA.AperFunction,Conductor*%
%ADD29C,0.500000*%
%TD*%
G04 APERTURE END LIST*
D10*
%TO.P,R7,1*%
%TO.N,Net-(U5-IREF)*%
X110200000Y-54200000D03*
%TO.P,R7,2*%
%TO.N,GND*%
X111400000Y-54200000D03*
%TD*%
%TO.P,C13,1*%
%TO.N,GND*%
X115150000Y-59950000D03*
%TO.P,C13,2*%
%TO.N,+3V3*%
X116350000Y-59950000D03*
%TD*%
%TO.P,R6,1*%
%TO.N,Net-(U2--)*%
X117400000Y-58600000D03*
%TO.P,R6,2*%
%TO.N,/V1*%
X117400000Y-57400000D03*
%TD*%
%TO.P,C2,1*%
%TO.N,GND*%
X124100000Y-54900000D03*
%TO.P,C2,2*%
%TO.N,/sw2*%
X122900000Y-54900000D03*
%TD*%
%TO.P,C12,1*%
%TO.N,+3V3*%
X112300000Y-54000000D03*
%TO.P,C12,2*%
%TO.N,GND*%
X113500000Y-54000000D03*
%TD*%
%TO.P,R15,1*%
%TO.N,/V2*%
X113200000Y-57100000D03*
%TO.P,R15,2*%
%TO.N,VBUS*%
X113200000Y-55900000D03*
%TD*%
%TO.P,C4,1*%
%TO.N,Net-(U1-FB)*%
X120600000Y-63500000D03*
%TO.P,C4,2*%
%TO.N,GND*%
X120600000Y-62300000D03*
%TD*%
D11*
%TO.P,C16,1*%
%TO.N,GND*%
X105300000Y-50900000D03*
%TO.P,C16,2*%
%TO.N,+3V3*%
X105300000Y-52700000D03*
%TD*%
D10*
%TO.P,R14,1*%
%TO.N,/V2*%
X112300000Y-57100000D03*
%TO.P,R14,2*%
%TO.N,GND*%
X112300000Y-55900000D03*
%TD*%
D12*
%TO.P,U8,1,FB_1*%
%TO.N,+3V3*%
X101250000Y-51362500D03*
%TO.P,U8,2,EN_2*%
%TO.N,VBUS*%
X102200000Y-51362500D03*
%TO.P,U8,3,IN_3*%
X103150000Y-51362500D03*
%TO.P,U8,4,GND_4*%
%TO.N,GND*%
X103150000Y-53637500D03*
%TO.P,U8,5,SW_5*%
%TO.N,Net-(U8-SW)*%
X102200000Y-53637500D03*
%TO.P,U8,6,BST_6*%
%TO.N,Net-(U8-BST)*%
X101250000Y-53637500D03*
%TD*%
D10*
%TO.P,C1,1*%
%TO.N,GND*%
X124100000Y-54100000D03*
%TO.P,C1,2*%
%TO.N,/sw1*%
X122900000Y-54100000D03*
%TD*%
%TO.P,C8,1*%
%TO.N,Net-(U5-C2P)*%
X117500000Y-52300000D03*
%TO.P,C8,2*%
%TO.N,Net-(U5-C2N)*%
X117500000Y-53500000D03*
%TD*%
%TO.P,C3,1*%
%TO.N,+3V3*%
X123700000Y-61400000D03*
%TO.P,C3,2*%
%TO.N,GND*%
X122500000Y-61400000D03*
%TD*%
D13*
%TO.P,J2,A1,GND_A1*%
%TO.N,GND*%
X109590000Y-59320000D03*
%TO.P,J2,A4,VBUS_A4*%
%TO.N,/bus_3*%
X108790000Y-59320000D03*
D14*
%TO.P,J2,A5,CC1_A5*%
%TO.N,Net-(J2-CC1)*%
X107640000Y-59320000D03*
%TO.P,J2,A6,D+_A6*%
%TO.N,/D+*%
X106640000Y-59320000D03*
%TO.P,J2,A7,D-_A7*%
%TO.N,/D-*%
X106140000Y-59320000D03*
%TO.P,J2,A8,SBU1_A8*%
%TO.N,/5*%
X105140000Y-59320000D03*
D13*
%TO.P,J2,A9,VBUS_A9*%
%TO.N,/bus_2*%
X103990000Y-59320000D03*
%TO.P,J2,A12,GND_A12*%
%TO.N,GND*%
X103190000Y-59320000D03*
%TO.P,J2,B1,GND_B1*%
X103190000Y-59320000D03*
%TO.P,J2,B4,VBUS_B4*%
%TO.N,/bus*%
X103990000Y-59320000D03*
D14*
%TO.P,J2,B5,CC2_B5*%
%TO.N,Net-(J2-CC2)*%
X104640000Y-59320000D03*
%TO.P,J2,B6,D+_B6*%
%TO.N,/D+*%
X105640000Y-59320000D03*
%TO.P,J2,B7,D-_B7*%
%TO.N,/D-*%
X107140000Y-59320000D03*
%TO.P,J2,B8,SBU2_B8*%
%TO.N,/6*%
X108140000Y-59320000D03*
D13*
%TO.P,J2,B9,VBUS_B9*%
%TO.N,/bus_1*%
X108790000Y-59320000D03*
%TO.P,J2,B12,GND_B12*%
%TO.N,GND*%
X109590000Y-59320000D03*
D15*
%TO.P,J2,SH,SHIELD_SH*%
X111500000Y-63825000D03*
X111500000Y-59895000D03*
X101280000Y-63825000D03*
X101280000Y-59895000D03*
%TD*%
D10*
%TO.P,R2,1*%
%TO.N,/sw2*%
X122900000Y-55700000D03*
%TO.P,R2,2*%
%TO.N,+3V3*%
X124100000Y-55700000D03*
%TD*%
%TO.P,C15,1*%
%TO.N,Net-(U8-BST)*%
X100900000Y-55000000D03*
%TO.P,C15,2*%
%TO.N,Net-(U8-SW)*%
X100900000Y-56200000D03*
%TD*%
D16*
%TO.P,U1,1,VDD_1*%
%TO.N,+3V3*%
X123700000Y-62350000D03*
%TO.P,U1,2,GND_2*%
%TO.N,GND*%
X123700000Y-62850000D03*
%TO.P,U1,3,~{SHDN}_3*%
%TO.N,+3V3*%
X123700000Y-63350000D03*
%TO.P,U1,4,GND_4*%
%TO.N,GND*%
X123700000Y-63850000D03*
%TO.P,U1,5,GND_5*%
X121700000Y-63850000D03*
%TO.P,U1,6,GND_6*%
X121700000Y-63350000D03*
%TO.P,U1,7,OUT_7*%
%TO.N,Net-(U1-FB)*%
X121700000Y-62850000D03*
%TO.P,U1,8,FB_8*%
X121700000Y-62350000D03*
D17*
%TO.P,U1,9,GND_9*%
%TO.N,GND*%
X122700000Y-63100000D03*
%TD*%
D10*
%TO.P,C5,1*%
%TO.N,Net-(U2--)*%
X117400000Y-61800000D03*
%TO.P,C5,2*%
%TO.N,GND*%
X117400000Y-63000000D03*
%TD*%
%TO.P,C6,1*%
%TO.N,+3V3*%
X112200000Y-58000000D03*
%TO.P,C6,2*%
%TO.N,GND*%
X113400000Y-58000000D03*
%TD*%
%TO.P,C14,1*%
%TO.N,VBUS*%
X104300000Y-52000000D03*
%TO.P,C14,2*%
%TO.N,GND*%
X104300000Y-50800000D03*
%TD*%
%TO.P,R4,1*%
%TO.N,Net-(J2-CC2)*%
X100900000Y-58300000D03*
%TO.P,R4,2*%
%TO.N,GND*%
X100900000Y-57100000D03*
%TD*%
D18*
%TO.P,R5,1*%
%TO.N,/ref*%
X116212500Y-63700000D03*
%TO.P,R5,2*%
%TO.N,VBUS*%
X114387500Y-63700000D03*
%TD*%
D10*
%TO.P,R3,1*%
%TO.N,Net-(J2-CC1)*%
X111500000Y-61400000D03*
%TO.P,R3,2*%
%TO.N,GND*%
X112700000Y-61400000D03*
%TD*%
D19*
%TO.P,L1,1*%
%TO.N,Net-(U8-SW)*%
X102600000Y-55150000D03*
%TO.P,L1,2*%
%TO.N,+3V3*%
X102600000Y-57650000D03*
%TD*%
D20*
%TO.P,U5,1,C2P_1*%
%TO.N,Net-(U5-C2P)*%
X116630000Y-52000000D03*
%TO.P,U5,2,C2N_2*%
%TO.N,Net-(U5-C2N)*%
X116010000Y-52000000D03*
%TO.P,U5,3,C1P_3*%
%TO.N,Net-(U5-C1P)*%
X115390000Y-52000000D03*
%TO.P,U5,4,C1N_4*%
%TO.N,Net-(U5-C1N)*%
X114770000Y-52000000D03*
%TO.P,U5,5,VBAT_5*%
%TO.N,+3V3*%
X114150000Y-52000000D03*
%TO.P,U5,6,NC_6*%
%TO.N,unconnected-(U5-NC-Pad6)*%
X113530000Y-52000000D03*
%TO.P,U5,7,Vss_7*%
%TO.N,GND*%
X112910000Y-52000000D03*
%TO.P,U5,8,Vdd_8*%
%TO.N,+3V3*%
X112290000Y-52000000D03*
%TO.P,U5,9,#RES_9*%
%TO.N,/#res*%
X111670000Y-52000000D03*
%TO.P,U5,10,SCL_10*%
%TO.N,/SCL*%
X111050000Y-52000000D03*
%TO.P,U5,11,SDA_11*%
%TO.N,/SDA*%
X110430000Y-52000000D03*
%TO.P,U5,12,IREF_12*%
%TO.N,Net-(U5-IREF)*%
X109810000Y-52000000D03*
%TO.P,U5,13,VCOMH_13*%
%TO.N,Net-(U5-VCOMH)*%
X109190000Y-52000000D03*
%TO.P,U5,14,Vcc_14*%
%TO.N,Net-(U5-Vcc)*%
X108570000Y-52000000D03*
%TD*%
D21*
%TO.P,U2,1,+_1*%
%TO.N,Net-(U1-FB)*%
X119650000Y-63537500D03*
%TO.P,U2,2,V-_2*%
%TO.N,GND*%
X119000000Y-63537500D03*
%TO.P,U2,3,-_3*%
%TO.N,Net-(U2--)*%
X118350000Y-63537500D03*
%TO.P,U2,4*%
X118350000Y-61862500D03*
%TO.P,U2,5,V+_5*%
%TO.N,+3V3*%
X119650000Y-61862500D03*
%TD*%
D10*
%TO.P,R1,1*%
%TO.N,/sw1*%
X122000000Y-54100000D03*
%TO.P,R1,2*%
%TO.N,+3V3*%
X122000000Y-55300000D03*
%TD*%
%TO.P,C9,1*%
%TO.N,Net-(U5-C1P)*%
X116000000Y-54100000D03*
%TO.P,C9,2*%
%TO.N,Net-(U5-C1N)*%
X114800000Y-54100000D03*
%TD*%
D22*
%TO.P,SW1,1,1_1*%
%TO.N,GND*%
X123975000Y-50825000D03*
%TO.P,SW1,2,2_2*%
X119825000Y-50825000D03*
%TO.P,SW1,3,K_3*%
%TO.N,/sw1*%
X123975000Y-52975000D03*
%TO.P,SW1,4,A_4*%
%TO.N,unconnected-(SW1-A-Pad4)*%
X119825000Y-52975000D03*
%TD*%
D23*
%TO.P,U6,1*%
%TO.N,/#RTS*%
X106450000Y-57500000D03*
%TO.P,U6,2*%
%TO.N,/UPDI*%
X106450000Y-57000000D03*
%TO.P,U6,3,GND_3*%
%TO.N,GND*%
X106450000Y-56500000D03*
%TO.P,U6,4*%
%TO.N,Net-(R13-Pad1)*%
X106450000Y-56000000D03*
%TO.P,U6,5*%
%TO.N,/#RTS*%
X106450000Y-55500000D03*
%TO.P,U6,6*%
%TO.N,/Tx*%
X110750000Y-55500000D03*
%TO.P,U6,7*%
%TO.N,Net-(R12-Pad1)*%
X110750000Y-56000000D03*
%TO.P,U6,8,VCC_8*%
%TO.N,+3V3*%
X110750000Y-56500000D03*
%TO.P,U6,9*%
%TO.N,Net-(R11-Pad1)*%
X110750000Y-57000000D03*
%TO.P,U6,10*%
%TO.N,/Rx*%
X110750000Y-57500000D03*
%TD*%
D11*
%TO.P,C17,1*%
%TO.N,GND*%
X106600000Y-50900000D03*
%TO.P,C17,2*%
%TO.N,+3V3*%
X106600000Y-52700000D03*
%TD*%
D22*
%TO.P,SW2,1,1_1*%
%TO.N,GND*%
X119862500Y-58950000D03*
%TO.P,SW2,2,2_2*%
X124012500Y-58950000D03*
%TO.P,SW2,3,K_3*%
%TO.N,/sw2*%
X119862500Y-56800000D03*
%TO.P,SW2,4,A_4*%
%TO.N,unconnected-(SW2-A-Pad4)*%
X124012500Y-56800000D03*
%TD*%
D24*
%TO.N,VBUS*%
X104781908Y-55415810D03*
%TO.N,/UPDI*%
X107400000Y-54700000D03*
%TO.N,Net-(U5-Vcc)*%
X108500000Y-51700000D03*
%TO.N,GND*%
X117400000Y-63000000D03*
X120500000Y-51800000D03*
X100900000Y-57100000D03*
X119300000Y-51800000D03*
X113500000Y-54000000D03*
X103190000Y-59320000D03*
X121700000Y-63600000D03*
X119320000Y-54300000D03*
X122700000Y-62800000D03*
X101280000Y-63825000D03*
X101280000Y-59895000D03*
X120600000Y-62400000D03*
X119000000Y-63537500D03*
X114800000Y-60100000D03*
X122700000Y-63400000D03*
X123100000Y-51700000D03*
X111500000Y-59962744D03*
X119825000Y-50825000D03*
X107600000Y-56367542D03*
X101175000Y-62610000D03*
X106600000Y-50900000D03*
X122500000Y-61400000D03*
X105105000Y-62610000D03*
D25*
X103150000Y-53637500D03*
D24*
X105300000Y-50900000D03*
X119320000Y-60700000D03*
X124012500Y-58950000D03*
X104300000Y-50800000D03*
X124300000Y-51700000D03*
X123975000Y-50825000D03*
X124100000Y-54100000D03*
X111500000Y-63825000D03*
X113762500Y-62500000D03*
X124100000Y-54900000D03*
X105680000Y-54300000D03*
X112910000Y-52000000D03*
%TO.N,/#res*%
X111700000Y-51400000D03*
%TO.N,+3V3*%
X116375000Y-59962744D03*
X112684092Y-54050000D03*
X116037500Y-61550000D03*
X123700000Y-61120000D03*
X109801974Y-56550002D03*
D25*
X102700000Y-52475000D03*
X102100000Y-57700000D03*
D24*
X101300000Y-50900000D03*
D25*
X103600000Y-52475000D03*
D24*
X106600000Y-52700000D03*
X122000000Y-55300000D03*
X124100000Y-55700000D03*
X120821985Y-61142472D03*
D25*
X103100000Y-57700000D03*
D24*
%TO.N,/ref*%
X116037500Y-63450000D03*
X119600000Y-59900000D03*
X119000000Y-55100000D03*
X119000000Y-59900000D03*
X119600000Y-55100000D03*
%TO.N,Net-(J1-CC1)*%
X104965171Y-56250001D03*
X114400000Y-58262744D03*
%TO.N,Net-(J1-D+-PadA6)*%
X118373477Y-57491078D03*
X104950799Y-58257906D03*
%TO.N,Net-(J1-D--PadA7)*%
X117992998Y-58144202D03*
X104732662Y-57488817D03*
%TO.N,Net-(J1-CC2)*%
X107400655Y-60373863D03*
X120300000Y-55800000D03*
%TO.N,VBUS*%
X113200000Y-55900000D03*
D25*
X103200000Y-51700000D03*
D24*
X107823926Y-60867160D03*
D25*
X103200000Y-51000000D03*
D24*
X114200000Y-63450000D03*
%TO.N,/SCL*%
X111425000Y-53560000D03*
%TO.N,Net-(U5-VCOMH)*%
X109200000Y-50900000D03*
%TO.N,/D+*%
X106951513Y-61432995D03*
%TO.N,/D-*%
X107599999Y-61477373D03*
%TO.N,/#RTS*%
X107600000Y-57050000D03*
X107450002Y-55367542D03*
X108605460Y-61469200D03*
%TO.N,/Tx*%
X108242661Y-56750000D03*
%TO.N,/Rx*%
X109900000Y-57912744D03*
%TO.N,/V0*%
X113762500Y-61550000D03*
X115200000Y-58262744D03*
%TO.N,Net-(U2--)*%
X117400000Y-61800000D03*
X116037500Y-62500000D03*
X117750000Y-59962744D03*
%TO.N,/V1*%
X117400000Y-57400000D03*
%TO.N,/sw2*%
X117300000Y-56400000D03*
%TO.N,/sw1*%
X122000000Y-54100000D03*
X116400000Y-55050000D03*
%TO.N,/SDA*%
X110430000Y-52290000D03*
%TO.N,/V2*%
X112300000Y-57100000D03*
%TO.N,Net-(R13-Pad1)*%
X108550000Y-54750000D03*
%TO.N,Net-(R11-Pad1)*%
X118000000Y-54200000D03*
X109002259Y-56642610D03*
%TO.N,Net-(R12-Pad1)*%
X118000000Y-51000000D03*
X113650000Y-55250000D03*
%TD*%
%TO.N,Net-(R12-Pad1)*%
D26*
X113500000Y-55400000D02*
X111850000Y-55400000D01*
X113650000Y-55250000D02*
X113500000Y-55400000D01*
X111850000Y-55400000D02*
X111750000Y-55500000D01*
X111750000Y-55500000D02*
X111750000Y-55900000D01*
X111750000Y-55900000D02*
X111650000Y-56000000D01*
X111650000Y-56000000D02*
X110750000Y-56000000D01*
%TO.N,+3V3*%
X112684092Y-54050000D02*
X112634092Y-54000000D01*
X112634092Y-54000000D02*
X112300000Y-54000000D01*
%TO.N,/UPDI*%
X106450000Y-57000000D02*
X105725001Y-57000000D01*
X105725001Y-57000000D02*
X105475000Y-56749999D01*
X106063302Y-54700000D02*
X107400000Y-54700000D01*
X105475000Y-56749999D02*
X105475000Y-55288302D01*
X105475000Y-55288302D02*
X106063302Y-54700000D01*
%TO.N,GND*%
D27*
X111050000Y-59445000D02*
X111500000Y-59895000D01*
D28*
X112300000Y-56450000D02*
X112400000Y-56550000D01*
X107766773Y-56367542D02*
X108634315Y-55500000D01*
D26*
X107600000Y-56367542D02*
X107600000Y-56399997D01*
D28*
X112300000Y-55900000D02*
X112300000Y-56450000D01*
D26*
X107499997Y-56500000D02*
X106450000Y-56500000D01*
D28*
X112400000Y-56550000D02*
X113800000Y-56550000D01*
X108634315Y-55500000D02*
X108650000Y-55500000D01*
D29*
X103190000Y-59320000D02*
X101855000Y-59320000D01*
D26*
X107600000Y-56399997D02*
X107499997Y-56500000D01*
D29*
X101855000Y-59320000D02*
X101280000Y-59895000D01*
D27*
X111500000Y-59895000D02*
X113095000Y-59895000D01*
D28*
X107600000Y-56367542D02*
X107766773Y-56367542D01*
D29*
X110925000Y-59320000D02*
X111500000Y-59895000D01*
X109590000Y-59320000D02*
X110925000Y-59320000D01*
D27*
X111050000Y-59445000D02*
X111050000Y-58700000D01*
%TO.N,+3V3*%
D28*
X123700000Y-63350000D02*
X124064386Y-63350000D01*
D29*
X103600000Y-52475000D02*
X103825000Y-52700000D01*
D26*
X109851976Y-56500000D02*
X110750000Y-56500000D01*
D28*
X124064386Y-63350000D02*
X124350000Y-63064386D01*
D29*
X102700000Y-52475000D02*
X103600000Y-52475000D01*
D26*
X112290000Y-52000000D02*
X112290000Y-50900000D01*
D29*
X101250000Y-52024999D02*
X101700001Y-52475000D01*
D28*
X120470028Y-61142472D02*
X120821985Y-61142472D01*
X123700000Y-62350000D02*
X123700000Y-61120000D01*
D26*
X109801974Y-56550002D02*
X109851976Y-56500000D01*
X112300000Y-52010000D02*
X112290000Y-52000000D01*
D29*
X103825000Y-52700000D02*
X106600000Y-52700000D01*
D26*
X111725000Y-57525000D02*
X111725000Y-56750001D01*
D28*
X124350000Y-63064386D02*
X124350000Y-62635614D01*
X124350000Y-62635614D02*
X124064386Y-62350000D01*
D26*
X111725000Y-56750001D02*
X111474999Y-56500000D01*
X113791640Y-50600000D02*
X114150000Y-50958360D01*
X111474999Y-56500000D02*
X110750000Y-56500000D01*
D29*
X101250000Y-51362500D02*
X101250000Y-52024999D01*
D26*
X112300000Y-54000000D02*
X112300000Y-52010000D01*
X112590000Y-50600000D02*
X113791640Y-50600000D01*
D28*
X124064386Y-62350000D02*
X123700000Y-62350000D01*
D26*
X114150000Y-50958360D02*
X114150000Y-52000000D01*
X112200000Y-58000000D02*
X111725000Y-57525000D01*
D29*
X101700001Y-52475000D02*
X102700000Y-52475000D01*
D28*
X119650000Y-61962500D02*
X120470028Y-61142472D01*
D26*
X112290000Y-50900000D02*
X112590000Y-50600000D01*
%TO.N,VBUS*%
D29*
X102200000Y-51362500D02*
X103150000Y-51362500D01*
X104000000Y-51700000D02*
X104300000Y-52000000D01*
X103200000Y-51700000D02*
X104000000Y-51700000D01*
%TO.N,/SCL*%
D26*
X111050000Y-53185000D02*
X111050000Y-52000000D01*
X111425000Y-53560000D02*
X111050000Y-53185000D01*
%TO.N,/D+*%
X105640000Y-59320000D02*
X105640000Y-58712590D01*
X106372410Y-58445000D02*
X106640000Y-58712590D01*
X105640000Y-58712590D02*
X105907590Y-58445000D01*
X105907590Y-58445000D02*
X106372410Y-58445000D01*
X105640000Y-60121482D02*
X105640000Y-59320000D01*
X106640000Y-58712590D02*
X106640000Y-59320000D01*
X106951513Y-61432995D02*
X105640000Y-60121482D01*
%TO.N,/D-*%
X106177410Y-59927410D02*
X106140000Y-59927410D01*
X106872410Y-60195000D02*
X107140000Y-59927410D01*
X107140000Y-59927410D02*
X107140000Y-59320000D01*
X106407590Y-60195000D02*
X106872410Y-60195000D01*
X106140000Y-59927410D02*
X106407590Y-60195000D01*
X107599999Y-61349999D02*
X106177410Y-59927410D01*
X107599999Y-61477373D02*
X107599999Y-61349999D01*
X106140000Y-59320000D02*
X106140000Y-59927410D01*
%TO.N,/#RTS*%
X107150000Y-57500000D02*
X107600000Y-57050000D01*
X106450000Y-57500000D02*
X107150000Y-57500000D01*
X107317544Y-55500000D02*
X106450000Y-55500000D01*
X107450002Y-55367542D02*
X107317544Y-55500000D01*
%TO.N,/Tx*%
X109400000Y-56050000D02*
X109950000Y-55500000D01*
X108650000Y-56050000D02*
X109400000Y-56050000D01*
X108242661Y-56457339D02*
X108650000Y-56050000D01*
X109950000Y-55500000D02*
X110750000Y-55500000D01*
X108242661Y-56750000D02*
X108242661Y-56457339D01*
%TO.N,/Rx*%
X110312744Y-57500000D02*
X110750000Y-57500000D01*
X109900000Y-57912744D02*
X110312744Y-57500000D01*
%TO.N,Net-(U2--)*%
D28*
X117462500Y-61862500D02*
X117400000Y-61800000D01*
X118350000Y-61862500D02*
X117462500Y-61862500D01*
X117400000Y-61800000D02*
X116737500Y-61800000D01*
X118350000Y-63537500D02*
X118350000Y-61862500D01*
X117750000Y-58950000D02*
X117400000Y-58600000D01*
X117750000Y-59962744D02*
X117750000Y-58950000D01*
X116737500Y-61800000D02*
X116037500Y-62500000D01*
%TO.N,/sw2*%
D26*
X122900000Y-55700000D02*
X121800000Y-56800000D01*
X121800000Y-56800000D02*
X119862500Y-56800000D01*
X117700000Y-56800000D02*
X119862500Y-56800000D01*
X122900000Y-54900000D02*
X122900000Y-55700000D01*
X117300000Y-56400000D02*
X117700000Y-56800000D01*
%TO.N,/sw1*%
X123975000Y-52975000D02*
X123975000Y-53025000D01*
X123975000Y-53025000D02*
X122900000Y-54100000D01*
X122000000Y-54100000D02*
X122900000Y-54100000D01*
%TO.N,/V2*%
D28*
X112300000Y-57100000D02*
X113200000Y-57100000D01*
%TO.N,Net-(U5-IREF)*%
D26*
X110200000Y-54200000D02*
X109810000Y-53810000D01*
X109810000Y-53810000D02*
X109810000Y-52000000D01*
%TO.N,Net-(U1-FB)*%
D28*
X119687500Y-63500000D02*
X119650000Y-63537500D01*
X121700000Y-62850000D02*
X121335614Y-62850000D01*
X120600000Y-63500000D02*
X119687500Y-63500000D01*
X121335614Y-62850000D02*
X120685614Y-63500000D01*
X120685614Y-63500000D02*
X120600000Y-63500000D01*
X121700000Y-62350000D02*
X121700000Y-62850000D01*
%TO.N,Net-(U5-C2P)*%
D26*
X116930000Y-52300000D02*
X116630000Y-52000000D01*
X117500000Y-52300000D02*
X116930000Y-52300000D01*
%TO.N,Net-(U5-C2N)*%
X117500000Y-53500000D02*
X116468360Y-53500000D01*
X116010000Y-53041640D02*
X116010000Y-52000000D01*
X116468360Y-53500000D02*
X116010000Y-53041640D01*
%TO.N,Net-(J2-CC1)*%
X109243367Y-61400000D02*
X107988367Y-60145000D01*
X111500000Y-61400000D02*
X109243367Y-61400000D01*
X107988367Y-60145000D02*
X107890001Y-60145000D01*
X107640000Y-59894999D02*
X107640000Y-59320000D01*
X107890001Y-60145000D02*
X107640000Y-59894999D01*
%TO.N,Net-(J2-CC2)*%
X100900000Y-58300000D02*
X101095000Y-58495000D01*
X101095000Y-58495000D02*
X104389999Y-58495000D01*
X104389999Y-58495000D02*
X104640000Y-58745001D01*
X104640000Y-58745001D02*
X104640000Y-59320000D01*
%TO.N,Net-(U5-C1P)*%
X116000000Y-54100000D02*
X115390000Y-53490000D01*
X115390000Y-53490000D02*
X115390000Y-52000000D01*
%TO.N,Net-(U5-C1N)*%
X114800000Y-54100000D02*
X114800000Y-52030000D01*
X114800000Y-52030000D02*
X114770000Y-52000000D01*
%TO.N,Net-(R11-Pad1)*%
X110699998Y-57050002D02*
X110750000Y-57000000D01*
X109409651Y-57050002D02*
X110699998Y-57050002D01*
X109002259Y-56642610D02*
X109409651Y-57050002D01*
%TO.N,Net-(U8-BST)*%
X100900000Y-55000000D02*
X100900000Y-53987500D01*
X100900000Y-53987500D02*
X101250000Y-53637500D01*
%TO.N,Net-(R13-Pad1)*%
X108550000Y-54750000D02*
X107950000Y-55350000D01*
X107950000Y-55350000D02*
X107950000Y-55600000D01*
X107950000Y-55600000D02*
X107682458Y-55867542D01*
X107682458Y-55867542D02*
X107269156Y-55867542D01*
X107269156Y-55867542D02*
X107136698Y-56000000D01*
X107136698Y-56000000D02*
X106450000Y-56000000D01*
%TD*%
%TA.AperFunction,Conductor*%
%TO.N,GND*%
G36*
X108284812Y-50505521D02*
G01*
X108295665Y-50508707D01*
X108310664Y-50518344D01*
X108327774Y-50523368D01*
X108339448Y-50536840D01*
X108354446Y-50546477D01*
X108361854Y-50562696D01*
X108373531Y-50576171D01*
X108376068Y-50593815D01*
X108383475Y-50610031D01*
X108380938Y-50627681D01*
X108383476Y-50645329D01*
X108373536Y-50679184D01*
X108373536Y-50679190D01*
X108373534Y-50679194D01*
X108372565Y-50681316D01*
X108328663Y-50732908D01*
X108305171Y-50748606D01*
X108305168Y-50748608D01*
X108274260Y-50769260D01*
X108219004Y-50851955D01*
X108219003Y-50851959D01*
X108204500Y-50924869D01*
X108204500Y-51289206D01*
X108204499Y-51289208D01*
X108204500Y-51289210D01*
X108199476Y-51324145D01*
X108192064Y-51349385D01*
X108160769Y-51402127D01*
X108139515Y-51423380D01*
X108139514Y-51423382D01*
X108139513Y-51423384D01*
X108139511Y-51423387D01*
X108131591Y-51437105D01*
X108095618Y-51499412D01*
X108080201Y-51526114D01*
X108049500Y-51640691D01*
X108049500Y-51759309D01*
X108080201Y-51873886D01*
X108139511Y-51976613D01*
X108139513Y-51976615D01*
X108155574Y-51992676D01*
X108176723Y-52020927D01*
X108189331Y-52044016D01*
X108204500Y-52103445D01*
X108204500Y-53075132D01*
X108218999Y-53148028D01*
X108219002Y-53148037D01*
X108219003Y-53148040D01*
X108219004Y-53148043D01*
X108219005Y-53148045D01*
X108274260Y-53230740D01*
X108346808Y-53279215D01*
X108346807Y-53279215D01*
X108350902Y-53281950D01*
X108356955Y-53285995D01*
X108356956Y-53285995D01*
X108357693Y-53286487D01*
X108362788Y-53287764D01*
X108362827Y-53287775D01*
X108368926Y-53288376D01*
X108422246Y-53298982D01*
X108424970Y-53299704D01*
X108429873Y-53300500D01*
X108710126Y-53300500D01*
X108711891Y-53300500D01*
X108714532Y-53299622D01*
X108783045Y-53285995D01*
X108800748Y-53274166D01*
X108810207Y-53267846D01*
X108826090Y-53262571D01*
X108826804Y-53262545D01*
X108828117Y-53261917D01*
X108843043Y-53257243D01*
X108912900Y-53255998D01*
X108912904Y-53255999D01*
X108926035Y-53259602D01*
X108962113Y-53276079D01*
X108966808Y-53279216D01*
X108971543Y-53283102D01*
X108971573Y-53283118D01*
X108975775Y-53285636D01*
X108976952Y-53285993D01*
X108976955Y-53285995D01*
X108976958Y-53285995D01*
X108976959Y-53285996D01*
X108976965Y-53285997D01*
X108982787Y-53287764D01*
X108982788Y-53287764D01*
X108982823Y-53287775D01*
X108988926Y-53288376D01*
X109042246Y-53298982D01*
X109044970Y-53299704D01*
X109049873Y-53300500D01*
X109049874Y-53300500D01*
X109049876Y-53300500D01*
X109330122Y-53300500D01*
X109330125Y-53300500D01*
X109339018Y-53298730D01*
X109343408Y-53297857D01*
X109343412Y-53297880D01*
X109343573Y-53297823D01*
X109343863Y-53297766D01*
X109343981Y-53297743D01*
X109379058Y-53295885D01*
X109392887Y-53297122D01*
X109409617Y-53303704D01*
X109413565Y-53304063D01*
X109416663Y-53306476D01*
X109457906Y-53322703D01*
X109498771Y-53379368D01*
X109502434Y-53389752D01*
X109509500Y-53431010D01*
X109509500Y-53849562D01*
X109509499Y-53849562D01*
X109514391Y-53867815D01*
X109515451Y-53871770D01*
X109529979Y-53925991D01*
X109529981Y-53925994D01*
X109558602Y-53975566D01*
X109563930Y-53984795D01*
X109563932Y-53984797D01*
X109567325Y-53990673D01*
X109567328Y-53990686D01*
X109567332Y-53990685D01*
X109567335Y-53990691D01*
X109569540Y-53994511D01*
X109569543Y-53994514D01*
X109701466Y-54126437D01*
X109702166Y-54127386D01*
X109702699Y-54127687D01*
X109715704Y-54145739D01*
X109723448Y-54156238D01*
X109723666Y-54156652D01*
X109730574Y-54170006D01*
X109734780Y-54177709D01*
X109735163Y-54178434D01*
X109736852Y-54186769D01*
X109749500Y-54236314D01*
X109749500Y-54469752D01*
X109761131Y-54528229D01*
X109761132Y-54528230D01*
X109761132Y-54528231D01*
X109761134Y-54528233D01*
X109805447Y-54594552D01*
X109871765Y-54638864D01*
X109871767Y-54638866D01*
X109871770Y-54638868D01*
X109922612Y-54648981D01*
X109925337Y-54649703D01*
X109930249Y-54650500D01*
X110469750Y-54650500D01*
X110473873Y-54650500D01*
X110481732Y-54648116D01*
X110484568Y-54647552D01*
X110516258Y-54641249D01*
X110522354Y-54640648D01*
X110522386Y-54640639D01*
X110533311Y-54637902D01*
X110543515Y-54628654D01*
X110594552Y-54594552D01*
X110638867Y-54528231D01*
X110638867Y-54528229D01*
X110638868Y-54528229D01*
X110641030Y-54517354D01*
X110641167Y-54517088D01*
X110641250Y-54516255D01*
X110649136Y-54476609D01*
X110650001Y-54472257D01*
X110650500Y-54469748D01*
X110650500Y-54469702D01*
X110950000Y-54469702D01*
X110961602Y-54528033D01*
X110961603Y-54528034D01*
X110964495Y-54533445D01*
X110968388Y-54538189D01*
X111005807Y-54594191D01*
X111021016Y-54604353D01*
X111071965Y-54638396D01*
X111071966Y-54638397D01*
X111130297Y-54649999D01*
X111130301Y-54650000D01*
X111150000Y-54650000D01*
X111150000Y-54450000D01*
X110950000Y-54450000D01*
X110950000Y-54469702D01*
X110650500Y-54469702D01*
X110650500Y-53930252D01*
X110650500Y-53930249D01*
X110650500Y-53930063D01*
X110650069Y-53928081D01*
X110638868Y-53871770D01*
X110635975Y-53866358D01*
X110632081Y-53861613D01*
X110629307Y-53857461D01*
X110594552Y-53805447D01*
X110556769Y-53780201D01*
X110538385Y-53767917D01*
X110533641Y-53764024D01*
X110528230Y-53761132D01*
X110528229Y-53761131D01*
X110469752Y-53749500D01*
X110469750Y-53749500D01*
X110252333Y-53749500D01*
X110230881Y-53747630D01*
X110221550Y-53745991D01*
X110218720Y-53744590D01*
X110217392Y-53744475D01*
X110213020Y-53743191D01*
X110213303Y-53742224D01*
X110197190Y-53738111D01*
X110196935Y-53738797D01*
X110194087Y-53737734D01*
X110193247Y-53737105D01*
X110191499Y-53736659D01*
X110188792Y-53735423D01*
X110189354Y-53734190D01*
X110177378Y-53725223D01*
X110167623Y-53722355D01*
X110163009Y-53717025D01*
X110158927Y-53715006D01*
X110155012Y-53708477D01*
X110142934Y-53699433D01*
X110141907Y-53700324D01*
X110140992Y-53699268D01*
X110140097Y-53697309D01*
X110138184Y-53695877D01*
X110136358Y-53693438D01*
X110137827Y-53692337D01*
X110133577Y-53683030D01*
X110121890Y-53669532D01*
X110111988Y-53635757D01*
X110111968Y-53635712D01*
X110111961Y-53635663D01*
X110111755Y-53634226D01*
X110110500Y-53616630D01*
X110110500Y-53433743D01*
X110115522Y-53398810D01*
X110115553Y-53398706D01*
X110119433Y-53385491D01*
X110157206Y-53326714D01*
X110220758Y-53297689D01*
X110231664Y-53296121D01*
X110273509Y-53297243D01*
X110276592Y-53297857D01*
X110276607Y-53297860D01*
X110289874Y-53300500D01*
X110570126Y-53300500D01*
X110574248Y-53300500D01*
X110582102Y-53298117D01*
X110597151Y-53295124D01*
X110625570Y-53289471D01*
X110637971Y-53287651D01*
X110655493Y-53285978D01*
X110655494Y-53285979D01*
X110672741Y-53284332D01*
X110740008Y-53296877D01*
X110745530Y-53299641D01*
X110770887Y-53323241D01*
X110776408Y-53325763D01*
X110785739Y-53337065D01*
X110796673Y-53347241D01*
X110797430Y-53348536D01*
X110802588Y-53357471D01*
X110802591Y-53357474D01*
X110802593Y-53357478D01*
X110809540Y-53369511D01*
X110925577Y-53485548D01*
X110946725Y-53513799D01*
X110955205Y-53529329D01*
X110959332Y-53536886D01*
X110974500Y-53596313D01*
X110974500Y-53619308D01*
X111000866Y-53717709D01*
X111001218Y-53721343D01*
X111002180Y-53723093D01*
X111003532Y-53745218D01*
X111004800Y-53758290D01*
X111004684Y-53759967D01*
X111003656Y-53770761D01*
X111003502Y-53777193D01*
X111003312Y-53779977D01*
X110992952Y-53807999D01*
X110982706Y-53840378D01*
X110961610Y-53871949D01*
X110961602Y-53871964D01*
X110956316Y-53898541D01*
X110950000Y-53930297D01*
X110950000Y-53950000D01*
X111155201Y-53950000D01*
X111177166Y-53951961D01*
X111193275Y-53954862D01*
X111233296Y-53969511D01*
X111251114Y-53979799D01*
X111295016Y-53991562D01*
X111301308Y-53994591D01*
X111305459Y-53994860D01*
X111334456Y-54010553D01*
X111336551Y-54011562D01*
X111336836Y-54011772D01*
X111342727Y-54016176D01*
X111343166Y-54016443D01*
X111345698Y-54018312D01*
X111365229Y-54044033D01*
X111383190Y-54065763D01*
X111384194Y-54065276D01*
X111387534Y-54072151D01*
X111387948Y-54073952D01*
X111387952Y-54073957D01*
X111387953Y-54073973D01*
X111400000Y-54126336D01*
X111400000Y-54200000D01*
X111508171Y-54200000D01*
X111543106Y-54205023D01*
X111558104Y-54209427D01*
X111616855Y-54247172D01*
X111616879Y-54247200D01*
X111616882Y-54247202D01*
X111616883Y-54247204D01*
X111618042Y-54248541D01*
X111645518Y-54303402D01*
X111647163Y-54310960D01*
X111650000Y-54337331D01*
X111650000Y-54650000D01*
X111669657Y-54650000D01*
X111669699Y-54650000D01*
X111669702Y-54649999D01*
X111728033Y-54638397D01*
X111728034Y-54638396D01*
X111794191Y-54594191D01*
X111838396Y-54528034D01*
X111838634Y-54527458D01*
X111845157Y-54517614D01*
X111846833Y-54518308D01*
X111854817Y-54503035D01*
X111858359Y-54497691D01*
X111880353Y-54479164D01*
X111900332Y-54458449D01*
X111901900Y-54457555D01*
X111907995Y-54455882D01*
X111911798Y-54452679D01*
X111926684Y-54450750D01*
X111961066Y-54441310D01*
X111968819Y-54441171D01*
X111995231Y-54443534D01*
X112002834Y-54445046D01*
X112016706Y-54447805D01*
X112030251Y-54450500D01*
X112030252Y-54450500D01*
X112427230Y-54450500D01*
X112459319Y-54454724D01*
X112491881Y-54463450D01*
X112504147Y-54468110D01*
X112504350Y-54467577D01*
X112510203Y-54469798D01*
X112510205Y-54469798D01*
X112510206Y-54469799D01*
X112624783Y-54500500D01*
X112624786Y-54500500D01*
X112743398Y-54500500D01*
X112743401Y-54500500D01*
X112857978Y-54469799D01*
X112857980Y-54469797D01*
X112857982Y-54469797D01*
X112857983Y-54469796D01*
X112858065Y-54469749D01*
X112900851Y-54445046D01*
X112925105Y-54431043D01*
X112928797Y-54428994D01*
X112968793Y-54407683D01*
X112968924Y-54407853D01*
X112986545Y-54398224D01*
X112987121Y-54397918D01*
X113020553Y-54391002D01*
X113054230Y-54383666D01*
X113061553Y-54384187D01*
X113121640Y-54404770D01*
X113161812Y-54431612D01*
X113166554Y-54435504D01*
X113171966Y-54438397D01*
X113227342Y-54449412D01*
X113229557Y-54449908D01*
X113230299Y-54450000D01*
X113230301Y-54450000D01*
X113250000Y-54450000D01*
X113750000Y-54450000D01*
X113769657Y-54450000D01*
X113769699Y-54450000D01*
X113769702Y-54449999D01*
X113828033Y-54438397D01*
X113828034Y-54438396D01*
X113894191Y-54394191D01*
X113938396Y-54328034D01*
X113938397Y-54328033D01*
X113949999Y-54269702D01*
X113950000Y-54269699D01*
X113950000Y-54250000D01*
X113750000Y-54250000D01*
X113750000Y-54450000D01*
X113250000Y-54450000D01*
X113250000Y-53568875D01*
X113750000Y-53568875D01*
X113750000Y-53750000D01*
X113950000Y-53750000D01*
X113950000Y-53730301D01*
X113949999Y-53730297D01*
X113938397Y-53671966D01*
X113938396Y-53671965D01*
X113907349Y-53625500D01*
X113894191Y-53605807D01*
X113838189Y-53568388D01*
X113836138Y-53565934D01*
X113828031Y-53561601D01*
X113778548Y-53551759D01*
X113756961Y-53564701D01*
X113756959Y-53564702D01*
X113750000Y-53568875D01*
X113250000Y-53568875D01*
X113250000Y-53556748D01*
X113241893Y-53550000D01*
X113230297Y-53550000D01*
X113171966Y-53561602D01*
X113171965Y-53561602D01*
X113171964Y-53561603D01*
X113169433Y-53562955D01*
X113167455Y-53564615D01*
X113105808Y-53605808D01*
X113089667Y-53629963D01*
X113076138Y-53641329D01*
X113076037Y-53641372D01*
X113075893Y-53641534D01*
X113073319Y-53643685D01*
X113009254Y-53671569D01*
X112940284Y-53660390D01*
X112927383Y-53648801D01*
X112857981Y-53630202D01*
X112857982Y-53630202D01*
X112848586Y-53627684D01*
X112848584Y-53627683D01*
X112766939Y-53605807D01*
X112743401Y-53599500D01*
X112743400Y-53599500D01*
X112742333Y-53599500D01*
X112720881Y-53597630D01*
X112711550Y-53595991D01*
X112708720Y-53594590D01*
X112707392Y-53594475D01*
X112703020Y-53593191D01*
X112703303Y-53592224D01*
X112687190Y-53588111D01*
X112686935Y-53588797D01*
X112684087Y-53587734D01*
X112683247Y-53587105D01*
X112681499Y-53586659D01*
X112678792Y-53585423D01*
X112679354Y-53584190D01*
X112667378Y-53575223D01*
X112657623Y-53572355D01*
X112653009Y-53567025D01*
X112648927Y-53565006D01*
X112645012Y-53558477D01*
X112632934Y-53549433D01*
X112631907Y-53550324D01*
X112630992Y-53549268D01*
X112630097Y-53547309D01*
X112628184Y-53545877D01*
X112626358Y-53543438D01*
X112627827Y-53542337D01*
X112623577Y-53533030D01*
X112611890Y-53519532D01*
X112601988Y-53485757D01*
X112601968Y-53485712D01*
X112601961Y-53485663D01*
X112601755Y-53484226D01*
X112600500Y-53466630D01*
X112600500Y-53435221D01*
X112605522Y-53400288D01*
X112609433Y-53386969D01*
X112647206Y-53328192D01*
X112710758Y-53299167D01*
X112722840Y-53297430D01*
X112735500Y-53297597D01*
X112744895Y-53295123D01*
X112744897Y-53295124D01*
X112745000Y-53295040D01*
X112745000Y-52141824D01*
X112746869Y-52120375D01*
X112748506Y-52111054D01*
X112749905Y-52108224D01*
X112750022Y-52106893D01*
X112751305Y-52102523D01*
X112752276Y-52102808D01*
X112756379Y-52086735D01*
X112755687Y-52086477D01*
X112756748Y-52083631D01*
X112757391Y-52082771D01*
X112757849Y-52080978D01*
X112759087Y-52078268D01*
X112760334Y-52078838D01*
X112769277Y-52066888D01*
X112772157Y-52057103D01*
X112777476Y-52052498D01*
X112779490Y-52048430D01*
X112786020Y-52044514D01*
X112795020Y-52032487D01*
X112794123Y-52031452D01*
X112795179Y-52030536D01*
X112797158Y-52029630D01*
X112798610Y-52027691D01*
X112798647Y-52027664D01*
X112801086Y-52025839D01*
X112802198Y-52027325D01*
X112811454Y-52023092D01*
X112824988Y-52011380D01*
X112858593Y-52001534D01*
X112858716Y-52001478D01*
X112860300Y-52001250D01*
X112877870Y-52000000D01*
X112933170Y-52000000D01*
X112968106Y-52005023D01*
X112983104Y-52009427D01*
X113041855Y-52047172D01*
X113043042Y-52048541D01*
X113070518Y-52103402D01*
X113072163Y-52110960D01*
X113075000Y-52137331D01*
X113075000Y-53295039D01*
X113122846Y-53285524D01*
X113122846Y-53285523D01*
X113122850Y-53285523D01*
X113135835Y-53276846D01*
X113166022Y-53262143D01*
X113166796Y-53261888D01*
X113175771Y-53259078D01*
X113176676Y-53258642D01*
X113181287Y-53257128D01*
X113212710Y-53256127D01*
X113238082Y-53253825D01*
X113238250Y-53252474D01*
X113242713Y-53253025D01*
X113242714Y-53253026D01*
X113244059Y-53253192D01*
X113244630Y-53253405D01*
X113247148Y-53253904D01*
X113247067Y-53254311D01*
X113248858Y-53254977D01*
X113251122Y-53254905D01*
X113255152Y-53257317D01*
X113297735Y-53273152D01*
X113316955Y-53285995D01*
X113316957Y-53285995D01*
X113316959Y-53285996D01*
X113316963Y-53285996D01*
X113322790Y-53287765D01*
X113322791Y-53287765D01*
X113322825Y-53287776D01*
X113328934Y-53288378D01*
X113334434Y-53289472D01*
X113382231Y-53298979D01*
X113384965Y-53299703D01*
X113389873Y-53300500D01*
X113670126Y-53300500D01*
X113674246Y-53300500D01*
X113682096Y-53298118D01*
X113728607Y-53288867D01*
X113737797Y-53287039D01*
X113737797Y-53287038D01*
X113740569Y-53286487D01*
X113743045Y-53285995D01*
X113743046Y-53285994D01*
X113743208Y-53285962D01*
X113743241Y-53285955D01*
X113744879Y-53285629D01*
X113748621Y-53282269D01*
X113758396Y-53275738D01*
X113796071Y-53258835D01*
X113808713Y-53255547D01*
X113809078Y-53256953D01*
X113818795Y-53256827D01*
X113825074Y-53254862D01*
X113831634Y-53256662D01*
X113872779Y-53256131D01*
X113872822Y-53255977D01*
X113873358Y-53256124D01*
X113873361Y-53256124D01*
X113873400Y-53256135D01*
X113874291Y-53256379D01*
X113874296Y-53256381D01*
X113886024Y-53259598D01*
X113888704Y-53260822D01*
X113890293Y-53260851D01*
X113922128Y-53276088D01*
X113926823Y-53279226D01*
X113931549Y-53283105D01*
X113931573Y-53283118D01*
X113936838Y-53286273D01*
X113942782Y-53287763D01*
X113942823Y-53287775D01*
X113948926Y-53288376D01*
X114002246Y-53298982D01*
X114004970Y-53299704D01*
X114009873Y-53300500D01*
X114009874Y-53300500D01*
X114009876Y-53300500D01*
X114290125Y-53300500D01*
X114290126Y-53300500D01*
X114333832Y-53291806D01*
X114364752Y-53289607D01*
X114366876Y-53289722D01*
X114372292Y-53290207D01*
X114373249Y-53290069D01*
X114379639Y-53290417D01*
X114408010Y-53300451D01*
X114437105Y-53308149D01*
X114440612Y-53311982D01*
X114445510Y-53313715D01*
X114463951Y-53337494D01*
X114477467Y-53352269D01*
X114479161Y-53351180D01*
X114479785Y-53352150D01*
X114480934Y-53356058D01*
X114484267Y-53359701D01*
X114484276Y-53359720D01*
X114486250Y-53363753D01*
X114484847Y-53364439D01*
X114488328Y-53368927D01*
X114489885Y-53386492D01*
X114499500Y-53419181D01*
X114499500Y-53558494D01*
X114499499Y-53558495D01*
X114499500Y-53558496D01*
X114494476Y-53593431D01*
X114488564Y-53613564D01*
X114458042Y-53665529D01*
X114453337Y-53670318D01*
X114433775Y-53686518D01*
X114405446Y-53705446D01*
X114367916Y-53761614D01*
X114364024Y-53766355D01*
X114361132Y-53771768D01*
X114361132Y-53771769D01*
X114361131Y-53771770D01*
X114349500Y-53830247D01*
X114349500Y-54369752D01*
X114361131Y-54428229D01*
X114361132Y-54428230D01*
X114361132Y-54428231D01*
X114361134Y-54428233D01*
X114405447Y-54494552D01*
X114471765Y-54538864D01*
X114471767Y-54538866D01*
X114471770Y-54538868D01*
X114522612Y-54548981D01*
X114525337Y-54549703D01*
X114530249Y-54550500D01*
X115069750Y-54550500D01*
X115073873Y-54550500D01*
X115081732Y-54548116D01*
X115100144Y-54544454D01*
X115116258Y-54541249D01*
X115122354Y-54540648D01*
X115122386Y-54540639D01*
X115133311Y-54537902D01*
X115143515Y-54528654D01*
X115194552Y-54494552D01*
X115238867Y-54428231D01*
X115238867Y-54428229D01*
X115238868Y-54428229D01*
X115241030Y-54417355D01*
X115241166Y-54417090D01*
X115241249Y-54416256D01*
X115242921Y-54407853D01*
X115250072Y-54371896D01*
X115250500Y-54369931D01*
X115250500Y-54092660D01*
X115255047Y-54059390D01*
X115255283Y-54058541D01*
X115256738Y-54053587D01*
X115256763Y-54053225D01*
X115258426Y-54047258D01*
X115273959Y-54022328D01*
X115287105Y-53996053D01*
X115292226Y-53993012D01*
X115295376Y-53987958D01*
X115321925Y-53975382D01*
X115347186Y-53960387D01*
X115353138Y-53960598D01*
X115358520Y-53958049D01*
X115387654Y-53961823D01*
X115405235Y-53962447D01*
X115405794Y-53959880D01*
X115407426Y-53960235D01*
X115411911Y-53962684D01*
X115417011Y-53962865D01*
X115417069Y-53962884D01*
X115418627Y-53963403D01*
X115417850Y-53965734D01*
X115427810Y-53967025D01*
X115442459Y-53979364D01*
X115468749Y-53993720D01*
X115500574Y-54025545D01*
X115521723Y-54053796D01*
X115534331Y-54076885D01*
X115549500Y-54136314D01*
X115549500Y-54369752D01*
X115561131Y-54428229D01*
X115561132Y-54428230D01*
X115564024Y-54433641D01*
X115567917Y-54438385D01*
X115575678Y-54450000D01*
X115605447Y-54494552D01*
X115671769Y-54538867D01*
X115671770Y-54538868D01*
X115730247Y-54550499D01*
X115730250Y-54550500D01*
X115945206Y-54550500D01*
X115977726Y-54555175D01*
X115980133Y-54555521D01*
X115990986Y-54558707D01*
X116049767Y-54596477D01*
X116078796Y-54660031D01*
X116068857Y-54729190D01*
X116068856Y-54729191D01*
X116065672Y-54736164D01*
X116043221Y-54768501D01*
X116043398Y-54768646D01*
X116041586Y-54770855D01*
X116040556Y-54772340D01*
X116039521Y-54773374D01*
X116039510Y-54773388D01*
X116039507Y-54773391D01*
X116000274Y-54841348D01*
X115988852Y-54861131D01*
X115985194Y-54867465D01*
X115980200Y-54876114D01*
X115954135Y-54973392D01*
X115949500Y-54990691D01*
X115949500Y-55109309D01*
X115980201Y-55223886D01*
X116039511Y-55326613D01*
X116123387Y-55410489D01*
X116226114Y-55469799D01*
X116340691Y-55500500D01*
X116340694Y-55500500D01*
X116459306Y-55500500D01*
X116459309Y-55500500D01*
X116573886Y-55469799D01*
X116676613Y-55410489D01*
X116760489Y-55326613D01*
X116819799Y-55223886D01*
X116850500Y-55109309D01*
X116850500Y-54990691D01*
X116819799Y-54876114D01*
X116760489Y-54773387D01*
X116676613Y-54689511D01*
X116573886Y-54630201D01*
X116573883Y-54630200D01*
X116573879Y-54630198D01*
X116529277Y-54618246D01*
X116529275Y-54618247D01*
X116496831Y-54604353D01*
X116484981Y-54597130D01*
X116437982Y-54545430D01*
X116426396Y-54476532D01*
X116427443Y-54467775D01*
X116437047Y-54434732D01*
X116436301Y-54434423D01*
X116438262Y-54429691D01*
X116438868Y-54428229D01*
X116446569Y-54389511D01*
X116450069Y-54371917D01*
X116450500Y-54369933D01*
X116450500Y-53942329D01*
X116451442Y-53935780D01*
X116455523Y-53907393D01*
X116458011Y-53898922D01*
X116459927Y-53892394D01*
X116497672Y-53833644D01*
X116497700Y-53833619D01*
X116497699Y-53833619D01*
X116499041Y-53832456D01*
X116553920Y-53804977D01*
X116561479Y-53803333D01*
X116587832Y-53800500D01*
X116958494Y-53800500D01*
X116986964Y-53804593D01*
X116993426Y-53805522D01*
X116998872Y-53807121D01*
X117013560Y-53811434D01*
X117065519Y-53841948D01*
X117070313Y-53846657D01*
X117086518Y-53866224D01*
X117090354Y-53871964D01*
X117105445Y-53894550D01*
X117105448Y-53894553D01*
X117124665Y-53907393D01*
X117171769Y-53938867D01*
X117171770Y-53938868D01*
X117230247Y-53950499D01*
X117230250Y-53950500D01*
X117230252Y-53950500D01*
X117421032Y-53950500D01*
X117455964Y-53955521D01*
X117469283Y-53959432D01*
X117528061Y-53997206D01*
X117557087Y-54060761D01*
X117557086Y-54060763D01*
X117558296Y-54069173D01*
X117555335Y-54118913D01*
X117549500Y-54140691D01*
X117549500Y-54259309D01*
X117580201Y-54373886D01*
X117639511Y-54476613D01*
X117723387Y-54560489D01*
X117826114Y-54619799D01*
X117940691Y-54650500D01*
X117940694Y-54650500D01*
X118059306Y-54650500D01*
X118059309Y-54650500D01*
X118173886Y-54619799D01*
X118276613Y-54560489D01*
X118360489Y-54476613D01*
X118419799Y-54373886D01*
X118450500Y-54259309D01*
X118450500Y-54140691D01*
X118419799Y-54026114D01*
X118360489Y-53923387D01*
X118276613Y-53839511D01*
X118173886Y-53780201D01*
X118066814Y-53751511D01*
X118048740Y-53745134D01*
X118027709Y-53735829D01*
X118025762Y-53734182D01*
X117974376Y-53690717D01*
X117971015Y-53685622D01*
X117951817Y-53635219D01*
X117951795Y-53635068D01*
X117950500Y-53617191D01*
X117950500Y-53232295D01*
X117950500Y-53230249D01*
X117950499Y-53230247D01*
X117938868Y-53171770D01*
X117938867Y-53171769D01*
X117894552Y-53105447D01*
X117858146Y-53081121D01*
X117838385Y-53067917D01*
X117836243Y-53065414D01*
X117828230Y-53061132D01*
X117828229Y-53061131D01*
X117769752Y-53049500D01*
X117769750Y-53049500D01*
X117230249Y-53049500D01*
X117230247Y-53049500D01*
X117171768Y-53061132D01*
X117171766Y-53061132D01*
X117165792Y-53062321D01*
X117165728Y-53062002D01*
X117152630Y-53064667D01*
X117135299Y-53066529D01*
X117066541Y-53054123D01*
X117017718Y-53010258D01*
X117015171Y-53006293D01*
X116995500Y-52939275D01*
X116995500Y-52869262D01*
X117000522Y-52834329D01*
X117004433Y-52821010D01*
X117014071Y-52806011D01*
X117019095Y-52788905D01*
X117032567Y-52777230D01*
X117042206Y-52762233D01*
X117058424Y-52754826D01*
X117071899Y-52743150D01*
X117105755Y-52733209D01*
X117105756Y-52733208D01*
X117109194Y-52732714D01*
X117152988Y-52739011D01*
X117153731Y-52735279D01*
X117165823Y-52737684D01*
X117177568Y-52740623D01*
X117177654Y-52740649D01*
X117183741Y-52741248D01*
X117222619Y-52748981D01*
X117225344Y-52749704D01*
X117230249Y-52750500D01*
X117769750Y-52750500D01*
X117773876Y-52750500D01*
X117781742Y-52748114D01*
X117784568Y-52747552D01*
X117816258Y-52741249D01*
X117822354Y-52740648D01*
X117822386Y-52740639D01*
X117822749Y-52740547D01*
X117822802Y-52740514D01*
X117822886Y-52740513D01*
X117833311Y-52737902D01*
X117843515Y-52728654D01*
X117894552Y-52694552D01*
X117937520Y-52630247D01*
X119099500Y-52630247D01*
X119099500Y-53319752D01*
X119111131Y-53378229D01*
X119111132Y-53378230D01*
X119111132Y-53378231D01*
X119111134Y-53378233D01*
X119155447Y-53444552D01*
X119221765Y-53488864D01*
X119221767Y-53488866D01*
X119221770Y-53488868D01*
X119272612Y-53498981D01*
X119275337Y-53499703D01*
X119280249Y-53500500D01*
X120369750Y-53500500D01*
X120373873Y-53500500D01*
X120381732Y-53498116D01*
X120409315Y-53492630D01*
X120416258Y-53491249D01*
X120422354Y-53490648D01*
X120422386Y-53490639D01*
X120433311Y-53487902D01*
X120443515Y-53478654D01*
X120494552Y-53444552D01*
X120538867Y-53378231D01*
X120538867Y-53378229D01*
X120538868Y-53378229D01*
X120541030Y-53367355D01*
X120541166Y-53367090D01*
X120541249Y-53366256D01*
X120541611Y-53364439D01*
X120550072Y-53321896D01*
X120550500Y-53319931D01*
X120550500Y-52632295D01*
X120550500Y-52630249D01*
X120550499Y-52630247D01*
X120538868Y-52571770D01*
X120538867Y-52571769D01*
X120494552Y-52505447D01*
X120458146Y-52481121D01*
X120438385Y-52467917D01*
X120433641Y-52464024D01*
X120428230Y-52461132D01*
X120428229Y-52461131D01*
X120369752Y-52449500D01*
X120369750Y-52449500D01*
X119280249Y-52449500D01*
X119280247Y-52449500D01*
X119221770Y-52461131D01*
X119221769Y-52461131D01*
X119221768Y-52461132D01*
X119216355Y-52464024D01*
X119211614Y-52467916D01*
X119155447Y-52505446D01*
X119155446Y-52505447D01*
X119128272Y-52546114D01*
X119128270Y-52546119D01*
X119111132Y-52571769D01*
X119111131Y-52571770D01*
X119099500Y-52630247D01*
X117937520Y-52630247D01*
X117938867Y-52628231D01*
X117950098Y-52571769D01*
X117950500Y-52569750D01*
X117950500Y-52032295D01*
X117950500Y-52030252D01*
X117950500Y-52030249D01*
X117950499Y-52030247D01*
X117938868Y-51971770D01*
X117938867Y-51971769D01*
X117894552Y-51905447D01*
X117847318Y-51873886D01*
X117838385Y-51867917D01*
X117833641Y-51864024D01*
X117828230Y-51861132D01*
X117828229Y-51861131D01*
X117769752Y-51849500D01*
X117769750Y-51849500D01*
X117230249Y-51849500D01*
X117230247Y-51849500D01*
X117171768Y-51861132D01*
X117171766Y-51861132D01*
X117165792Y-51862321D01*
X117165728Y-51862001D01*
X117152627Y-51864667D01*
X117135421Y-51866516D01*
X117066662Y-51854107D01*
X117015527Y-51806494D01*
X117015527Y-51806493D01*
X117012855Y-51801989D01*
X116995500Y-51738722D01*
X116995500Y-50924689D01*
X116995064Y-50922684D01*
X116983378Y-50863933D01*
X116982776Y-50857830D01*
X116982764Y-50857788D01*
X116981487Y-50852693D01*
X116980995Y-50851956D01*
X116980995Y-50851955D01*
X116925740Y-50769260D01*
X116878214Y-50737504D01*
X116868442Y-50726697D01*
X116858439Y-50721087D01*
X116851974Y-50713938D01*
X116844707Y-50705242D01*
X116840681Y-50695994D01*
X116837609Y-50692596D01*
X116832346Y-50682693D01*
X116830065Y-50671605D01*
X116816822Y-50641183D01*
X116819899Y-50622190D01*
X116818267Y-50614256D01*
X116823296Y-50601223D01*
X116827997Y-50572212D01*
X116839384Y-50559534D01*
X116843422Y-50549072D01*
X116859034Y-50537658D01*
X116874686Y-50520233D01*
X116874728Y-50520207D01*
X116874782Y-50520174D01*
X116875449Y-50519762D01*
X116876716Y-50518980D01*
X116889573Y-50515331D01*
X116899826Y-50507836D01*
X116920338Y-50506601D01*
X116941843Y-50500500D01*
X117545206Y-50500500D01*
X117580133Y-50505521D01*
X117590986Y-50508707D01*
X117649767Y-50546477D01*
X117678796Y-50610031D01*
X117668857Y-50679190D01*
X117668856Y-50679191D01*
X117665672Y-50686164D01*
X117643221Y-50718501D01*
X117643398Y-50718646D01*
X117641586Y-50720855D01*
X117640556Y-50722340D01*
X117639521Y-50723374D01*
X117639514Y-50723382D01*
X117639513Y-50723384D01*
X117639512Y-50723386D01*
X117624949Y-50748609D01*
X117580201Y-50826113D01*
X117575997Y-50841803D01*
X117549500Y-50940691D01*
X117549500Y-51059309D01*
X117580201Y-51173886D01*
X117639511Y-51276613D01*
X117723387Y-51360489D01*
X117826114Y-51419799D01*
X117940691Y-51450500D01*
X117940694Y-51450500D01*
X118059306Y-51450500D01*
X118059309Y-51450500D01*
X118173886Y-51419799D01*
X118276613Y-51360489D01*
X118360489Y-51276613D01*
X118419799Y-51173886D01*
X118420920Y-51169702D01*
X119100000Y-51169702D01*
X119111602Y-51228033D01*
X119111603Y-51228034D01*
X119111603Y-51228035D01*
X119111605Y-51228037D01*
X119155808Y-51294191D01*
X119221961Y-51338393D01*
X119221963Y-51338395D01*
X119221966Y-51338397D01*
X119277342Y-51349412D01*
X119279557Y-51349908D01*
X119280299Y-51350000D01*
X119280301Y-51350000D01*
X119575000Y-51350000D01*
X120075000Y-51350000D01*
X120369657Y-51350000D01*
X120369699Y-51350000D01*
X120369702Y-51349999D01*
X120428033Y-51338397D01*
X120428034Y-51338396D01*
X120494191Y-51294191D01*
X120538396Y-51228034D01*
X120538397Y-51228033D01*
X120549999Y-51169702D01*
X123250000Y-51169702D01*
X123261602Y-51228033D01*
X123261603Y-51228034D01*
X123261603Y-51228035D01*
X123261605Y-51228037D01*
X123305808Y-51294191D01*
X123371961Y-51338393D01*
X123371963Y-51338395D01*
X123371966Y-51338397D01*
X123427342Y-51349412D01*
X123429557Y-51349908D01*
X123430299Y-51350000D01*
X123430301Y-51350000D01*
X123725000Y-51350000D01*
X123725000Y-51075000D01*
X123250000Y-51075000D01*
X123250000Y-51169702D01*
X120549999Y-51169702D01*
X120550000Y-51169699D01*
X120550000Y-51075000D01*
X120075000Y-51075000D01*
X120075000Y-51350000D01*
X119575000Y-51350000D01*
X119575000Y-51075000D01*
X119100000Y-51075000D01*
X119100000Y-51169702D01*
X118420920Y-51169702D01*
X118450500Y-51059309D01*
X118450500Y-50940691D01*
X118419799Y-50826114D01*
X118360489Y-50723387D01*
X118360484Y-50723382D01*
X118355542Y-50716941D01*
X118355842Y-50716710D01*
X118340741Y-50696538D01*
X118340444Y-50695994D01*
X118335319Y-50686608D01*
X118320466Y-50618338D01*
X118344880Y-50552873D01*
X118400810Y-50511001D01*
X118405018Y-50509432D01*
X118408025Y-50508311D01*
X118451339Y-50500500D01*
X118958170Y-50500500D01*
X118993104Y-50505523D01*
X119008103Y-50509927D01*
X119066881Y-50547700D01*
X119076991Y-50559368D01*
X119083876Y-50561660D01*
X119099676Y-50574865D01*
X119100000Y-50575000D01*
X120549998Y-50575000D01*
X120550000Y-50575000D01*
X120550507Y-50574492D01*
X120556962Y-50568484D01*
X120598572Y-50532430D01*
X120653420Y-50504977D01*
X120653692Y-50504918D01*
X120655041Y-50504624D01*
X120660979Y-50503333D01*
X120687332Y-50500500D01*
X123108170Y-50500500D01*
X123143104Y-50505523D01*
X123158103Y-50509927D01*
X123216881Y-50547700D01*
X123226991Y-50559368D01*
X123233876Y-50561660D01*
X123249676Y-50574865D01*
X123250000Y-50575000D01*
X123833171Y-50575000D01*
X123868106Y-50580023D01*
X123883104Y-50584427D01*
X123941855Y-50622172D01*
X123941879Y-50622200D01*
X123941882Y-50622202D01*
X123941883Y-50622204D01*
X123943042Y-50623541D01*
X123970518Y-50678402D01*
X123972163Y-50685960D01*
X123975000Y-50712331D01*
X123975000Y-50825000D01*
X124083171Y-50825000D01*
X124118106Y-50830023D01*
X124133104Y-50834427D01*
X124191855Y-50872172D01*
X124191879Y-50872200D01*
X124191882Y-50872202D01*
X124191883Y-50872204D01*
X124193042Y-50873541D01*
X124220518Y-50928402D01*
X124222163Y-50935960D01*
X124225000Y-50962331D01*
X124225000Y-51350000D01*
X124357671Y-51350000D01*
X124392606Y-51355023D01*
X124407604Y-51359427D01*
X124466355Y-51397172D01*
X124466379Y-51397200D01*
X124466382Y-51397202D01*
X124466383Y-51397204D01*
X124467542Y-51398541D01*
X124495018Y-51453402D01*
X124496663Y-51460960D01*
X124499500Y-51487331D01*
X124499500Y-52307670D01*
X124499499Y-52307676D01*
X124499500Y-52307679D01*
X124494475Y-52342614D01*
X124490070Y-52357612D01*
X124452327Y-52416355D01*
X124452292Y-52416385D01*
X124452291Y-52416387D01*
X124452289Y-52416387D01*
X124450958Y-52417542D01*
X124396097Y-52445018D01*
X124388539Y-52446663D01*
X124362168Y-52449500D01*
X123430247Y-52449500D01*
X123371770Y-52461131D01*
X123371769Y-52461131D01*
X123371768Y-52461132D01*
X123371765Y-52461133D01*
X123371759Y-52461138D01*
X123305447Y-52505447D01*
X123261138Y-52571759D01*
X123261133Y-52571765D01*
X123261132Y-52571768D01*
X123261132Y-52571769D01*
X123261131Y-52571770D01*
X123249901Y-52628231D01*
X123249500Y-52630249D01*
X123249500Y-53256336D01*
X123249499Y-53256338D01*
X123249500Y-53256339D01*
X123244476Y-53291273D01*
X123237064Y-53316514D01*
X123205769Y-53369258D01*
X122974455Y-53600573D01*
X122946204Y-53621722D01*
X122923116Y-53634330D01*
X122863686Y-53649500D01*
X122630247Y-53649500D01*
X122571770Y-53661131D01*
X122571769Y-53661131D01*
X122571768Y-53661132D01*
X122566360Y-53664022D01*
X122561616Y-53667916D01*
X122556233Y-53671513D01*
X122533716Y-53686558D01*
X122501873Y-53701793D01*
X122486953Y-53706464D01*
X122469133Y-53706782D01*
X122467043Y-53707437D01*
X122464930Y-53706857D01*
X122417106Y-53707712D01*
X122403973Y-53704109D01*
X122367884Y-53687628D01*
X122338384Y-53667916D01*
X122333641Y-53664024D01*
X122328230Y-53661132D01*
X122328229Y-53661131D01*
X122269752Y-53649500D01*
X122269750Y-53649500D01*
X121730249Y-53649500D01*
X121730247Y-53649500D01*
X121671770Y-53661131D01*
X121671769Y-53661131D01*
X121671768Y-53661132D01*
X121671765Y-53661133D01*
X121671759Y-53661138D01*
X121605447Y-53705447D01*
X121561138Y-53771759D01*
X121561133Y-53771765D01*
X121561132Y-53771768D01*
X121561132Y-53771769D01*
X121561131Y-53771770D01*
X121549500Y-53830247D01*
X121549500Y-54369752D01*
X121561131Y-54428229D01*
X121561132Y-54428230D01*
X121561132Y-54428231D01*
X121561134Y-54428233D01*
X121605447Y-54494552D01*
X121671765Y-54538864D01*
X121671767Y-54538866D01*
X121671770Y-54538868D01*
X121722612Y-54548981D01*
X121725337Y-54549703D01*
X121730249Y-54550500D01*
X121730250Y-54550500D01*
X121730252Y-54550500D01*
X122269747Y-54550500D01*
X122269748Y-54550500D01*
X122283825Y-54547699D01*
X122314745Y-54545500D01*
X122316912Y-54545617D01*
X122322292Y-54546099D01*
X122323245Y-54545961D01*
X122329631Y-54546309D01*
X122358004Y-54556342D01*
X122387105Y-54564041D01*
X122390609Y-54567871D01*
X122395503Y-54569602D01*
X122413951Y-54593386D01*
X122427468Y-54608161D01*
X122429161Y-54607073D01*
X122429785Y-54608043D01*
X122430934Y-54611949D01*
X122434267Y-54615593D01*
X122434282Y-54615623D01*
X122436256Y-54619657D01*
X122434858Y-54620340D01*
X122438326Y-54624811D01*
X122439885Y-54642383D01*
X122449500Y-54675074D01*
X122449500Y-54716330D01*
X122449499Y-54716334D01*
X122449500Y-54716337D01*
X122444475Y-54751271D01*
X122440564Y-54764588D01*
X122402787Y-54823364D01*
X122339237Y-54852385D01*
X122328339Y-54853952D01*
X122286499Y-54852831D01*
X122269753Y-54849500D01*
X122269752Y-54849500D01*
X122269748Y-54849500D01*
X121730252Y-54849500D01*
X121730247Y-54849500D01*
X121671770Y-54861131D01*
X121671769Y-54861131D01*
X121671768Y-54861132D01*
X121666355Y-54864024D01*
X121661614Y-54867916D01*
X121605447Y-54905446D01*
X121605446Y-54905447D01*
X121567916Y-54961614D01*
X121564024Y-54966355D01*
X121561132Y-54971768D01*
X121561132Y-54971769D01*
X121561131Y-54971770D01*
X121549500Y-55030247D01*
X121549500Y-55569752D01*
X121561131Y-55628229D01*
X121561132Y-55628230D01*
X121561132Y-55628231D01*
X121561134Y-55628233D01*
X121605447Y-55694552D01*
X121671765Y-55738864D01*
X121671767Y-55738866D01*
X121671770Y-55738868D01*
X121722612Y-55748981D01*
X121725337Y-55749703D01*
X121730249Y-55750500D01*
X121730250Y-55750500D01*
X122107337Y-55750500D01*
X122142264Y-55755521D01*
X122153117Y-55758707D01*
X122211898Y-55796477D01*
X122240927Y-55860031D01*
X122230988Y-55929190D01*
X122230987Y-55929192D01*
X122227802Y-55936167D01*
X122202686Y-55972342D01*
X121724455Y-56450573D01*
X121696204Y-56471722D01*
X121673116Y-56484330D01*
X121613686Y-56499500D01*
X120716396Y-56499500D01*
X120716393Y-56499499D01*
X120716392Y-56499500D01*
X120681457Y-56494476D01*
X120664056Y-56489366D01*
X120608370Y-56455025D01*
X120606533Y-56453058D01*
X120606026Y-56452070D01*
X120605279Y-56451590D01*
X120601194Y-56442646D01*
X120583035Y-56407226D01*
X120581041Y-56408053D01*
X120576366Y-56396767D01*
X120543747Y-56347949D01*
X120541181Y-56341969D01*
X120538459Y-56339287D01*
X120526533Y-56307829D01*
X120525881Y-56306310D01*
X120525803Y-56305966D01*
X120524092Y-56298221D01*
X120523973Y-56297841D01*
X120523345Y-56295053D01*
X120525431Y-56262495D01*
X120526253Y-56229883D01*
X120527668Y-56227603D01*
X120527814Y-56225326D01*
X120535843Y-56214432D01*
X120557949Y-56178822D01*
X120570837Y-56166314D01*
X120570836Y-56166313D01*
X120597936Y-56140010D01*
X120603455Y-56133646D01*
X120660489Y-56076613D01*
X120719799Y-55973886D01*
X120750500Y-55859309D01*
X120750500Y-55740691D01*
X120719799Y-55626114D01*
X120660489Y-55523387D01*
X120576613Y-55439511D01*
X120517252Y-55405238D01*
X120489512Y-55383421D01*
X120481706Y-55375235D01*
X120449692Y-55313133D01*
X120456336Y-55243580D01*
X120462007Y-55236369D01*
X120499519Y-55188666D01*
X120505775Y-55184211D01*
X120545602Y-55165447D01*
X120617135Y-55146281D01*
X120748365Y-55070515D01*
X120855515Y-54963365D01*
X120931281Y-54832135D01*
X120970500Y-54685766D01*
X120970500Y-54534234D01*
X120931281Y-54387865D01*
X120931276Y-54387857D01*
X120917030Y-54363181D01*
X120855515Y-54256635D01*
X120748365Y-54149485D01*
X120748363Y-54149484D01*
X120748361Y-54149482D01*
X120661746Y-54099475D01*
X120617137Y-54073719D01*
X120493024Y-54040464D01*
X120493024Y-54040463D01*
X120470767Y-54034500D01*
X120470766Y-54034500D01*
X120319234Y-54034500D01*
X120172859Y-54073720D01*
X120172857Y-54073721D01*
X120041645Y-54149478D01*
X120041631Y-54149487D01*
X120041626Y-54149491D01*
X119934491Y-54256626D01*
X119934487Y-54256631D01*
X119934478Y-54256645D01*
X119858721Y-54387857D01*
X119858720Y-54387858D01*
X119829971Y-54495151D01*
X119829156Y-54498051D01*
X119816226Y-54542002D01*
X119816217Y-54542001D01*
X119810789Y-54560487D01*
X119810549Y-54561304D01*
X119791866Y-54590343D01*
X119772792Y-54620023D01*
X119772761Y-54620036D01*
X119772745Y-54620063D01*
X119741542Y-54634294D01*
X119709239Y-54649047D01*
X119709177Y-54649055D01*
X119709175Y-54649057D01*
X119709172Y-54649056D01*
X119700637Y-54650284D01*
X119666802Y-54650486D01*
X119659312Y-54649500D01*
X119659310Y-54649500D01*
X119659309Y-54649500D01*
X119540691Y-54649500D01*
X119435501Y-54677685D01*
X119435500Y-54677684D01*
X119426113Y-54680200D01*
X119416475Y-54685765D01*
X119377437Y-54708303D01*
X119377431Y-54708306D01*
X119377430Y-54708308D01*
X119344663Y-54721423D01*
X119338424Y-54722936D01*
X119268634Y-54719606D01*
X119237089Y-54697139D01*
X119173889Y-54680202D01*
X119173890Y-54680202D01*
X119164494Y-54677684D01*
X119164492Y-54677683D01*
X119081638Y-54655483D01*
X119059309Y-54649500D01*
X119059308Y-54649500D01*
X118940691Y-54649500D01*
X118849728Y-54673873D01*
X118849723Y-54673874D01*
X118826114Y-54680201D01*
X118826112Y-54680201D01*
X118826112Y-54680202D01*
X118804947Y-54692421D01*
X118804939Y-54692425D01*
X118723386Y-54739511D01*
X118723378Y-54739517D01*
X118639517Y-54823378D01*
X118639513Y-54823383D01*
X118624434Y-54849501D01*
X118580201Y-54926113D01*
X118574379Y-54947843D01*
X118549500Y-55040691D01*
X118549500Y-55159309D01*
X118580201Y-55273886D01*
X118639511Y-55376613D01*
X118723387Y-55460489D01*
X118826114Y-55519799D01*
X118940691Y-55550500D01*
X118940694Y-55550500D01*
X119059306Y-55550500D01*
X119059307Y-55550500D01*
X119059309Y-55550500D01*
X119173886Y-55519799D01*
X119222566Y-55491692D01*
X119255322Y-55478579D01*
X119273611Y-55474142D01*
X119337767Y-55475666D01*
X119347772Y-55478604D01*
X119374834Y-55490192D01*
X119426114Y-55519799D01*
X119540691Y-55550500D01*
X119540694Y-55550500D01*
X119659306Y-55550500D01*
X119659308Y-55550500D01*
X119659309Y-55550500D01*
X119694438Y-55541087D01*
X119729479Y-55536896D01*
X119743354Y-55537226D01*
X119809906Y-55558500D01*
X119854392Y-55612377D01*
X119854398Y-55612391D01*
X119855038Y-55613886D01*
X119864729Y-55671524D01*
X119864372Y-55676520D01*
X119860463Y-55699773D01*
X119849500Y-55740689D01*
X119849500Y-55740691D01*
X119849500Y-55859309D01*
X119880201Y-55973886D01*
X119932866Y-56065105D01*
X119941135Y-56082387D01*
X119941979Y-56084571D01*
X119941979Y-56084572D01*
X119948110Y-56100431D01*
X119949211Y-56103278D01*
X119955023Y-56172905D01*
X119922269Y-56234622D01*
X119864942Y-56267950D01*
X119855346Y-56270461D01*
X119823956Y-56274500D01*
X119317747Y-56274500D01*
X119259270Y-56286131D01*
X119259269Y-56286131D01*
X119259268Y-56286132D01*
X119258701Y-56286435D01*
X119258446Y-56286681D01*
X119192947Y-56330447D01*
X119155586Y-56386360D01*
X119152695Y-56389163D01*
X119142025Y-56409133D01*
X119139776Y-56415509D01*
X119132539Y-56429343D01*
X119084035Y-56479613D01*
X119077653Y-56483248D01*
X119016283Y-56499500D01*
X117893663Y-56499500D01*
X117858725Y-56494476D01*
X117844266Y-56490230D01*
X117844546Y-56489273D01*
X117819631Y-56474476D01*
X117790847Y-56458755D01*
X117788998Y-56456285D01*
X117787752Y-56455545D01*
X117769702Y-56430501D01*
X117767808Y-56427032D01*
X117765661Y-56423099D01*
X117750500Y-56363685D01*
X117750500Y-56340693D01*
X117750500Y-56340691D01*
X117719799Y-56226114D01*
X117660489Y-56123387D01*
X117576613Y-56039511D01*
X117473886Y-55980201D01*
X117359309Y-55949500D01*
X117359306Y-55949500D01*
X117240691Y-55949500D01*
X117149728Y-55973873D01*
X117149723Y-55973874D01*
X117126114Y-55980201D01*
X117126112Y-55980201D01*
X117126112Y-55980202D01*
X117104947Y-55992421D01*
X117104939Y-55992425D01*
X117023386Y-56039511D01*
X117023378Y-56039517D01*
X116939517Y-56123378D01*
X116939511Y-56123386D01*
X116912743Y-56169750D01*
X116886233Y-56215667D01*
X116884126Y-56219315D01*
X116880201Y-56226113D01*
X116853077Y-56327341D01*
X116849500Y-56340691D01*
X116849500Y-56459309D01*
X116880201Y-56573886D01*
X116899805Y-56607841D01*
X116939510Y-56676612D01*
X117023390Y-56760492D01*
X117029832Y-56765435D01*
X117029664Y-56765652D01*
X117050039Y-56781675D01*
X117059621Y-56791724D01*
X117091636Y-56853825D01*
X117084995Y-56923378D01*
X117084992Y-56923380D01*
X117083594Y-56926875D01*
X117052687Y-56971810D01*
X117051805Y-56972626D01*
X117036487Y-56984706D01*
X117005449Y-57005445D01*
X117005444Y-57005449D01*
X116967917Y-57061614D01*
X116964024Y-57066357D01*
X116961132Y-57071768D01*
X116961132Y-57071769D01*
X116961131Y-57071770D01*
X116949500Y-57130247D01*
X116949500Y-57669752D01*
X116961131Y-57728229D01*
X116961132Y-57728230D01*
X116961132Y-57728231D01*
X116961134Y-57728233D01*
X117005447Y-57794552D01*
X117071765Y-57838864D01*
X117071767Y-57838866D01*
X117071770Y-57838868D01*
X117122612Y-57848981D01*
X117125337Y-57849703D01*
X117130249Y-57850500D01*
X117130250Y-57850500D01*
X117130252Y-57850500D01*
X117340691Y-57850500D01*
X117425877Y-57850500D01*
X117459308Y-57855091D01*
X117459996Y-57855283D01*
X117467691Y-57857543D01*
X117468345Y-57857621D01*
X117473306Y-57859010D01*
X117499367Y-57875298D01*
X117526506Y-57889700D01*
X117528721Y-57893643D01*
X117532556Y-57896040D01*
X117545639Y-57923758D01*
X117556668Y-57943389D01*
X117558481Y-57942810D01*
X117559410Y-57945716D01*
X117559473Y-57948383D01*
X117560711Y-57950586D01*
X117561206Y-57952735D01*
X117559586Y-57953108D01*
X117559591Y-57953315D01*
X117562380Y-57959224D01*
X117560139Y-57976337D01*
X117561074Y-58015566D01*
X117561073Y-58015570D01*
X117554426Y-58040375D01*
X117545832Y-58060443D01*
X117540533Y-58072817D01*
X117532397Y-58086165D01*
X117480697Y-58133163D01*
X117472721Y-58137037D01*
X117418543Y-58149500D01*
X117130247Y-58149500D01*
X117071770Y-58161131D01*
X117071769Y-58161131D01*
X117071768Y-58161132D01*
X117066355Y-58164024D01*
X117061614Y-58167916D01*
X117005447Y-58205446D01*
X117005446Y-58205447D01*
X116967916Y-58261614D01*
X116964024Y-58266355D01*
X116961132Y-58271768D01*
X116961132Y-58271769D01*
X116961131Y-58271770D01*
X116949500Y-58330247D01*
X116949500Y-58869752D01*
X116961131Y-58928229D01*
X116961132Y-58928230D01*
X116961132Y-58928231D01*
X116961134Y-58928233D01*
X117005447Y-58994552D01*
X117071765Y-59038864D01*
X117071767Y-59038866D01*
X117071770Y-59038868D01*
X117122612Y-59048981D01*
X117125337Y-59049703D01*
X117130249Y-59050500D01*
X117130250Y-59050500D01*
X117130252Y-59050500D01*
X117257671Y-59050500D01*
X117292606Y-59055523D01*
X117307604Y-59059927D01*
X117366355Y-59097672D01*
X117366379Y-59097700D01*
X117366382Y-59097702D01*
X117366383Y-59097704D01*
X117367542Y-59099041D01*
X117395018Y-59153902D01*
X117396663Y-59161460D01*
X117399500Y-59187831D01*
X117399500Y-59619276D01*
X117395274Y-59651369D01*
X117395274Y-59651371D01*
X117387111Y-59681834D01*
X117374724Y-59711739D01*
X117330203Y-59788851D01*
X117330175Y-59788920D01*
X117329933Y-59789856D01*
X117313458Y-59851344D01*
X117299500Y-59903435D01*
X117299500Y-60022053D01*
X117330201Y-60136630D01*
X117389511Y-60239357D01*
X117473387Y-60323233D01*
X117576114Y-60382543D01*
X117690691Y-60413244D01*
X117690694Y-60413244D01*
X117809306Y-60413244D01*
X117809309Y-60413244D01*
X117923886Y-60382543D01*
X118026613Y-60323233D01*
X118110489Y-60239357D01*
X118169799Y-60136630D01*
X118200500Y-60022053D01*
X118200500Y-59903435D01*
X118183688Y-59840691D01*
X118549500Y-59840691D01*
X118549500Y-59959309D01*
X118580201Y-60073886D01*
X118639511Y-60176613D01*
X118723387Y-60260489D01*
X118826114Y-60319799D01*
X118940691Y-60350500D01*
X118940694Y-60350500D01*
X119059306Y-60350500D01*
X119059307Y-60350500D01*
X119059309Y-60350500D01*
X119173886Y-60319799D01*
X119222566Y-60291692D01*
X119255322Y-60278579D01*
X119273611Y-60274142D01*
X119337767Y-60275666D01*
X119347772Y-60278604D01*
X119374834Y-60290192D01*
X119426114Y-60319799D01*
X119540691Y-60350500D01*
X119540694Y-60350500D01*
X119659309Y-60350500D01*
X119661996Y-60350500D01*
X119676593Y-60349716D01*
X119695096Y-60350155D01*
X119761648Y-60371424D01*
X119806136Y-60425297D01*
X119806138Y-60425301D01*
X119806139Y-60425303D01*
X119811014Y-60436686D01*
X119816875Y-60458047D01*
X119817394Y-60457909D01*
X119820837Y-60470754D01*
X119820838Y-60470766D01*
X119820840Y-60470766D01*
X119858719Y-60612136D01*
X119858722Y-60612141D01*
X119861607Y-60617139D01*
X119861608Y-60617139D01*
X119934485Y-60743365D01*
X119934487Y-60743367D01*
X120045504Y-60854384D01*
X120051649Y-60859854D01*
X120052067Y-60860284D01*
X120061370Y-60870041D01*
X120061991Y-60870506D01*
X120065809Y-60874438D01*
X120080034Y-60901428D01*
X120096224Y-60927285D01*
X120096167Y-60932039D01*
X120098386Y-60936248D01*
X120095760Y-60966649D01*
X120095498Y-60988894D01*
X120097360Y-60989300D01*
X120096712Y-60992277D01*
X120095430Y-60994623D01*
X120095401Y-60997150D01*
X120095401Y-60997152D01*
X120094754Y-60999263D01*
X120093163Y-60998775D01*
X120092952Y-60999161D01*
X120092374Y-61005858D01*
X120081849Y-61019492D01*
X120063235Y-61053580D01*
X120045054Y-61071763D01*
X120045048Y-61071769D01*
X119988201Y-61128615D01*
X119988198Y-61128616D01*
X119988197Y-61128620D01*
X119959941Y-61149769D01*
X119946222Y-61157259D01*
X119877963Y-61172108D01*
X119871587Y-61171652D01*
X119865465Y-61171214D01*
X119824220Y-61160965D01*
X119804580Y-61152293D01*
X119780508Y-61149500D01*
X119780505Y-61149500D01*
X119519503Y-61149500D01*
X119519333Y-61149518D01*
X119495420Y-61152291D01*
X119495419Y-61152292D01*
X119495414Y-61152293D01*
X119396926Y-61195780D01*
X119396924Y-61195781D01*
X119396917Y-61195787D01*
X119320785Y-61271920D01*
X119320783Y-61271922D01*
X119320781Y-61271927D01*
X119277292Y-61370418D01*
X119276722Y-61373122D01*
X119276467Y-61377536D01*
X119274500Y-61394487D01*
X119274500Y-62330496D01*
X119274518Y-62330665D01*
X119277291Y-62354578D01*
X119277292Y-62354579D01*
X119277293Y-62354584D01*
X119320780Y-62453071D01*
X119320784Y-62453078D01*
X119320785Y-62453079D01*
X119396921Y-62529215D01*
X119495420Y-62572707D01*
X119519495Y-62575500D01*
X119780504Y-62575499D01*
X119804580Y-62572707D01*
X119897773Y-62531558D01*
X119901115Y-62530082D01*
X119901117Y-62530082D01*
X119902955Y-62529308D01*
X119903041Y-62529251D01*
X119903075Y-62529216D01*
X119903079Y-62529215D01*
X119926244Y-62506048D01*
X119954489Y-62484905D01*
X119964894Y-62479223D01*
X120033167Y-62464373D01*
X120098631Y-62488791D01*
X120139907Y-62543167D01*
X120145857Y-62558488D01*
X120151885Y-62579186D01*
X120161601Y-62628033D01*
X120164493Y-62633443D01*
X120168388Y-62638189D01*
X120205807Y-62694191D01*
X120216787Y-62701527D01*
X120271965Y-62738396D01*
X120271966Y-62738397D01*
X120330297Y-62749999D01*
X120330301Y-62750000D01*
X120350000Y-62750000D01*
X120350000Y-61827370D01*
X120354264Y-61795132D01*
X120354626Y-61793785D01*
X120358645Y-61780099D01*
X120360048Y-61773646D01*
X120360833Y-61770734D01*
X120377538Y-61743400D01*
X120392885Y-61715294D01*
X120438477Y-61669702D01*
X122050000Y-61669702D01*
X122061602Y-61728033D01*
X122061603Y-61728034D01*
X122062780Y-61730237D01*
X122064065Y-61731719D01*
X122105808Y-61794191D01*
X122107176Y-61795106D01*
X122125626Y-61802706D01*
X122144293Y-61824231D01*
X122149655Y-61835960D01*
X122158864Y-61844992D01*
X122162163Y-61859480D01*
X122176453Y-61850653D01*
X122233331Y-61848594D01*
X122240436Y-61850000D01*
X122250000Y-61850000D01*
X122750000Y-61850000D01*
X122769657Y-61850000D01*
X122769699Y-61850000D01*
X122769702Y-61849999D01*
X122828033Y-61838397D01*
X122828034Y-61838396D01*
X122894191Y-61794191D01*
X122938396Y-61728034D01*
X122938397Y-61728033D01*
X122949999Y-61669702D01*
X122950000Y-61669699D01*
X122950000Y-61650000D01*
X122750000Y-61650000D01*
X122750000Y-61850000D01*
X122250000Y-61850000D01*
X122250000Y-61650000D01*
X122050000Y-61650000D01*
X122050000Y-61669702D01*
X120438477Y-61669702D01*
X120504650Y-61603529D01*
X120532897Y-61582383D01*
X120546623Y-61574888D01*
X120614891Y-61560038D01*
X120637015Y-61561620D01*
X120660257Y-61565528D01*
X120762676Y-61592972D01*
X120762679Y-61592972D01*
X120881291Y-61592972D01*
X120881294Y-61592972D01*
X120995871Y-61562271D01*
X121098598Y-61502961D01*
X121182474Y-61419085D01*
X121241784Y-61316358D01*
X121272485Y-61201781D01*
X121272485Y-61130297D01*
X122050000Y-61130297D01*
X122050000Y-61150000D01*
X122250000Y-61150000D01*
X122750000Y-61150000D01*
X122950000Y-61150000D01*
X122950000Y-61130301D01*
X122949999Y-61130297D01*
X122938397Y-61071966D01*
X122938396Y-61071965D01*
X122908634Y-61027423D01*
X122894191Y-61005807D01*
X122838189Y-60968388D01*
X122833445Y-60964495D01*
X122828034Y-60961603D01*
X122828033Y-60961602D01*
X122769702Y-60950000D01*
X122769700Y-60950000D01*
X122750000Y-60950000D01*
X122750000Y-61150000D01*
X122250000Y-61150000D01*
X122250000Y-60950000D01*
X122230299Y-60950000D01*
X122230297Y-60950000D01*
X122171966Y-60961602D01*
X122171965Y-60961602D01*
X122171964Y-60961603D01*
X122166554Y-60964494D01*
X122161810Y-60968388D01*
X122105808Y-61005808D01*
X122078738Y-61046319D01*
X122078737Y-61046322D01*
X122061603Y-61071965D01*
X122061602Y-61071966D01*
X122050000Y-61130297D01*
X121272485Y-61130297D01*
X121272485Y-61083163D01*
X121241784Y-60968586D01*
X121182474Y-60865859D01*
X121098598Y-60781983D01*
X121012117Y-60732052D01*
X121011414Y-60731500D01*
X120984375Y-60710234D01*
X120973590Y-60698922D01*
X120941579Y-60636831D01*
X120939900Y-60628117D01*
X120941883Y-60572560D01*
X120970500Y-60465766D01*
X120970500Y-60314234D01*
X120931281Y-60167865D01*
X120855515Y-60036635D01*
X120748365Y-59929485D01*
X120682750Y-59891602D01*
X120617136Y-59853719D01*
X120543950Y-59834109D01*
X120543949Y-59834108D01*
X120470767Y-59814500D01*
X120470766Y-59814500D01*
X120319234Y-59814500D01*
X120319232Y-59814500D01*
X120198950Y-59846728D01*
X120198949Y-59846729D01*
X120163904Y-59850919D01*
X120148277Y-59850547D01*
X120081725Y-59829272D01*
X120081718Y-59829268D01*
X120078140Y-59826846D01*
X120033659Y-59772965D01*
X120027876Y-59756255D01*
X120019800Y-59726118D01*
X120019799Y-59726114D01*
X119988908Y-59672610D01*
X119986399Y-59665324D01*
X119983343Y-59661775D01*
X119973505Y-59627884D01*
X119972588Y-59621360D01*
X119972585Y-59621350D01*
X119972175Y-59618430D01*
X119982332Y-59549302D01*
X120018324Y-59503684D01*
X120019868Y-59502470D01*
X120025346Y-59499969D01*
X120028249Y-59496640D01*
X120040304Y-59493140D01*
X120073065Y-59478184D01*
X120077988Y-59477235D01*
X120101430Y-59475000D01*
X120407157Y-59475000D01*
X120407199Y-59475000D01*
X120407202Y-59474999D01*
X120465533Y-59463397D01*
X120465534Y-59463396D01*
X120531691Y-59419191D01*
X120575896Y-59353034D01*
X120575897Y-59353033D01*
X120587499Y-59294702D01*
X123287500Y-59294702D01*
X123299102Y-59353033D01*
X123299103Y-59353034D01*
X123299103Y-59353035D01*
X123299105Y-59353037D01*
X123343308Y-59419191D01*
X123409461Y-59463393D01*
X123409463Y-59463395D01*
X123409466Y-59463397D01*
X123464842Y-59474412D01*
X123467057Y-59474908D01*
X123467799Y-59475000D01*
X123467801Y-59475000D01*
X123762500Y-59475000D01*
X123762500Y-59200000D01*
X123287500Y-59200000D01*
X123287500Y-59294702D01*
X120587499Y-59294702D01*
X120587500Y-59294699D01*
X120587500Y-59200000D01*
X119137500Y-59200000D01*
X119137500Y-59300797D01*
X119137390Y-59300797D01*
X119137459Y-59316457D01*
X119135987Y-59332896D01*
X119110402Y-59397913D01*
X119053742Y-59438771D01*
X119048287Y-59440695D01*
X119043357Y-59442434D01*
X119002100Y-59449500D01*
X118940691Y-59449500D01*
X118849728Y-59473873D01*
X118849723Y-59473874D01*
X118826114Y-59480201D01*
X118826112Y-59480201D01*
X118826112Y-59480202D01*
X118804947Y-59492421D01*
X118804939Y-59492425D01*
X118723386Y-59539511D01*
X118723378Y-59539517D01*
X118639517Y-59623378D01*
X118639513Y-59623383D01*
X118639512Y-59623385D01*
X118639511Y-59623387D01*
X118606683Y-59680247D01*
X118580201Y-59726114D01*
X118549500Y-59840691D01*
X118183688Y-59840691D01*
X118169799Y-59788858D01*
X118166260Y-59782728D01*
X118166260Y-59782727D01*
X118125276Y-59711741D01*
X118112888Y-59681834D01*
X118104725Y-59651369D01*
X118100500Y-59619276D01*
X118100500Y-58903858D01*
X118100500Y-58903856D01*
X118076614Y-58814712D01*
X118076610Y-58814705D01*
X118074279Y-58810667D01*
X118053062Y-58773916D01*
X118039946Y-58741150D01*
X118036323Y-58726214D01*
X118039649Y-58656423D01*
X118074633Y-58605297D01*
X119137500Y-58605297D01*
X119137500Y-58700000D01*
X119612500Y-58700000D01*
X120112500Y-58700000D01*
X120587500Y-58700000D01*
X120587500Y-58605301D01*
X120587499Y-58605297D01*
X123287500Y-58605297D01*
X123287500Y-58700000D01*
X123762500Y-58700000D01*
X123762500Y-58425000D01*
X123467799Y-58425000D01*
X123467797Y-58425000D01*
X123409466Y-58436602D01*
X123409465Y-58436602D01*
X123409464Y-58436603D01*
X123409461Y-58436604D01*
X123409455Y-58436609D01*
X123343308Y-58480808D01*
X123299109Y-58546955D01*
X123299104Y-58546961D01*
X123299103Y-58546964D01*
X123299103Y-58546965D01*
X123299102Y-58546966D01*
X123287500Y-58605297D01*
X120587499Y-58605297D01*
X120585963Y-58597577D01*
X120575897Y-58546966D01*
X120573004Y-58541554D01*
X120569110Y-58536809D01*
X120531691Y-58480807D01*
X120475689Y-58443388D01*
X120470945Y-58439495D01*
X120465534Y-58436603D01*
X120465533Y-58436602D01*
X120407202Y-58425000D01*
X120407200Y-58425000D01*
X120112500Y-58425000D01*
X120112500Y-58700000D01*
X119612500Y-58700000D01*
X119612500Y-58425000D01*
X119317799Y-58425000D01*
X119317797Y-58425000D01*
X119259466Y-58436602D01*
X119259465Y-58436602D01*
X119259464Y-58436603D01*
X119254054Y-58439494D01*
X119249310Y-58443388D01*
X119193308Y-58480808D01*
X119166238Y-58521319D01*
X119166237Y-58521322D01*
X119149103Y-58546965D01*
X119149102Y-58546966D01*
X119137500Y-58605297D01*
X118074633Y-58605297D01*
X118076580Y-58602451D01*
X118079881Y-58599649D01*
X118128030Y-58574411D01*
X118166884Y-58564001D01*
X118269611Y-58504691D01*
X118353487Y-58420815D01*
X118412797Y-58318088D01*
X118443498Y-58203511D01*
X118443498Y-58084893D01*
X118443497Y-58084891D01*
X118442437Y-58076837D01*
X118442619Y-58076812D01*
X118439468Y-58050456D01*
X118439840Y-58034821D01*
X118461115Y-57968271D01*
X118462134Y-57966764D01*
X118507991Y-57926065D01*
X118514868Y-57922519D01*
X118539612Y-57912953D01*
X118547363Y-57910877D01*
X118650090Y-57851567D01*
X118733966Y-57767691D01*
X118793276Y-57664964D01*
X118823977Y-57550387D01*
X118823977Y-57431769D01*
X118803547Y-57355523D01*
X118797499Y-57332951D01*
X118797499Y-57332950D01*
X118793220Y-57316983D01*
X118792509Y-57315341D01*
X118790115Y-57309562D01*
X118785083Y-57303002D01*
X118784440Y-57301887D01*
X118781153Y-57293670D01*
X118780926Y-57293788D01*
X118779089Y-57290226D01*
X118776357Y-57281684D01*
X118771354Y-57269179D01*
X118770629Y-57266191D01*
X118771346Y-57266016D01*
X118766559Y-57251046D01*
X118765984Y-57247044D01*
X118765982Y-57247036D01*
X118765590Y-57244310D01*
X118767299Y-57232416D01*
X118764468Y-57220741D01*
X118772177Y-57198474D01*
X118775529Y-57175151D01*
X118783967Y-57164421D01*
X118787327Y-57154717D01*
X118811685Y-57129176D01*
X118813849Y-57127474D01*
X118813853Y-57127472D01*
X118814259Y-57127152D01*
X118873287Y-57101888D01*
X118874201Y-57101757D01*
X118878473Y-57101452D01*
X118879126Y-57101191D01*
X118879937Y-57101347D01*
X118891813Y-57100500D01*
X119008604Y-57100500D01*
X119043540Y-57105523D01*
X119058538Y-57109927D01*
X119073534Y-57119564D01*
X119090635Y-57124584D01*
X119117310Y-57147695D01*
X119122118Y-57153243D01*
X119138909Y-57187559D01*
X119139958Y-57186999D01*
X119151519Y-57208635D01*
X119155417Y-57213385D01*
X119160332Y-57220741D01*
X119192947Y-57269552D01*
X119259269Y-57313867D01*
X119259270Y-57313868D01*
X119317747Y-57325499D01*
X119317750Y-57325500D01*
X119317752Y-57325500D01*
X119317788Y-57325500D01*
X120407250Y-57325500D01*
X120411373Y-57325500D01*
X120419232Y-57323116D01*
X120430545Y-57320866D01*
X120453758Y-57316249D01*
X120459854Y-57315648D01*
X120459886Y-57315639D01*
X120470811Y-57312902D01*
X120481015Y-57303654D01*
X120532052Y-57269552D01*
X120562132Y-57224533D01*
X120570773Y-57213095D01*
X120578212Y-57204346D01*
X120585208Y-57184518D01*
X120592458Y-57170658D01*
X120604840Y-57157825D01*
X120613109Y-57142023D01*
X120640958Y-57120393D01*
X120640967Y-57120384D01*
X120647369Y-57116738D01*
X120708717Y-57100500D01*
X121839560Y-57100500D01*
X121839562Y-57100500D01*
X121915989Y-57080021D01*
X121984511Y-57040460D01*
X122040460Y-56984511D01*
X122825552Y-56199418D01*
X122853797Y-56178275D01*
X122876889Y-56165667D01*
X122936314Y-56150500D01*
X123169751Y-56150500D01*
X123214550Y-56141588D01*
X123236608Y-56143561D01*
X123258579Y-56140802D01*
X123270726Y-56146613D01*
X123279894Y-56147433D01*
X123291002Y-56100431D01*
X123291005Y-56100427D01*
X123295647Y-56092912D01*
X123331326Y-56039517D01*
X123332085Y-56038381D01*
X123335975Y-56033641D01*
X123335991Y-56033612D01*
X123338508Y-56029410D01*
X123338864Y-56028234D01*
X123338867Y-56028231D01*
X123338867Y-56028230D01*
X123338868Y-56028229D01*
X123338871Y-56028213D01*
X123340635Y-56022401D01*
X123340635Y-56022400D01*
X123340638Y-56022390D01*
X123340649Y-56022353D01*
X123341250Y-56016254D01*
X123350069Y-55971917D01*
X123350500Y-55969933D01*
X123350500Y-55430066D01*
X123350069Y-55428083D01*
X123343826Y-55396699D01*
X123344230Y-55392180D01*
X123342638Y-55387092D01*
X123339361Y-55374248D01*
X123339273Y-55373810D01*
X123338868Y-55371770D01*
X123338867Y-55371768D01*
X123338230Y-55369908D01*
X123336027Y-55364951D01*
X123334267Y-55360456D01*
X123334299Y-55360443D01*
X123333977Y-55359414D01*
X123333764Y-55359170D01*
X123330477Y-55350773D01*
X123330166Y-55347238D01*
X123330126Y-55347108D01*
X123330154Y-55347099D01*
X123329769Y-55342714D01*
X123325825Y-55331136D01*
X123324796Y-55331372D01*
X123324015Y-55327960D01*
X123324125Y-55326145D01*
X123323266Y-55323624D01*
X123322991Y-55321755D01*
X123324403Y-55321547D01*
X123325838Y-55297902D01*
X123324370Y-55281171D01*
X123327176Y-55275827D01*
X123327859Y-55264574D01*
X123326493Y-55264200D01*
X123327780Y-55259506D01*
X123327782Y-55259503D01*
X123330093Y-55251077D01*
X123338770Y-55228423D01*
X123338859Y-55228242D01*
X123338867Y-55228231D01*
X123338868Y-55228229D01*
X123350070Y-55171908D01*
X123350500Y-55169932D01*
X123350500Y-54630066D01*
X123350069Y-54628083D01*
X123343825Y-54596693D01*
X123344230Y-54592164D01*
X123342635Y-54587069D01*
X123339353Y-54574209D01*
X123338868Y-54571770D01*
X123338867Y-54571768D01*
X123338867Y-54571767D01*
X123338221Y-54569882D01*
X123335986Y-54564848D01*
X123334270Y-54560454D01*
X123334299Y-54560443D01*
X123333907Y-54559191D01*
X123333670Y-54558918D01*
X123330392Y-54550521D01*
X123329682Y-54542353D01*
X123325854Y-54531016D01*
X123324745Y-54531268D01*
X123323331Y-54525036D01*
X123323409Y-54523776D01*
X123323155Y-54523022D01*
X123322927Y-54521432D01*
X123323562Y-54521340D01*
X123325360Y-54492598D01*
X123324345Y-54480914D01*
X123326326Y-54477149D01*
X123327693Y-54455303D01*
X123328443Y-54453292D01*
X123332113Y-54443715D01*
X123332115Y-54443706D01*
X123333183Y-54440920D01*
X123338071Y-54429821D01*
X123338861Y-54428239D01*
X123338867Y-54428231D01*
X123338868Y-54428229D01*
X123350068Y-54371917D01*
X123350500Y-54371092D01*
X123350500Y-54369702D01*
X123650000Y-54369702D01*
X123655927Y-54399500D01*
X123656509Y-54402425D01*
X123656103Y-54406949D01*
X123657707Y-54412075D01*
X123660978Y-54424898D01*
X123661601Y-54428032D01*
X123662169Y-54429691D01*
X123664632Y-54435230D01*
X123666237Y-54439332D01*
X123666234Y-54439334D01*
X123666696Y-54440811D01*
X123666915Y-54441064D01*
X123670168Y-54449373D01*
X123670477Y-54452899D01*
X123670510Y-54453004D01*
X123670487Y-54453011D01*
X123670880Y-54457496D01*
X123674759Y-54468975D01*
X123675855Y-54468727D01*
X123676656Y-54472257D01*
X123676532Y-54474225D01*
X123677431Y-54476884D01*
X123677661Y-54478480D01*
X123676254Y-54478682D01*
X123674791Y-54502075D01*
X123676274Y-54518975D01*
X123673391Y-54524461D01*
X123672698Y-54535542D01*
X123674073Y-54535920D01*
X123670543Y-54548783D01*
X123661881Y-54571405D01*
X123661602Y-54571963D01*
X123656727Y-54596477D01*
X123650000Y-54630297D01*
X123650000Y-54650000D01*
X123850000Y-54650000D01*
X123850000Y-54350000D01*
X123650000Y-54350000D01*
X123650000Y-54369702D01*
X123350500Y-54369702D01*
X123350500Y-54143661D01*
X123355522Y-54108728D01*
X123356152Y-54106583D01*
X123362934Y-54083483D01*
X123394228Y-54030741D01*
X123526050Y-53898919D01*
X123554302Y-53877772D01*
X123577390Y-53865166D01*
X123636813Y-53850000D01*
X123958170Y-53850000D01*
X123993106Y-53855023D01*
X124008104Y-53859427D01*
X124066855Y-53897172D01*
X124068042Y-53898541D01*
X124095518Y-53953402D01*
X124097163Y-53960960D01*
X124100000Y-53987331D01*
X124100000Y-54100000D01*
X124208171Y-54100000D01*
X124243106Y-54105023D01*
X124258104Y-54109427D01*
X124316855Y-54147172D01*
X124316879Y-54147200D01*
X124316882Y-54147202D01*
X124316883Y-54147204D01*
X124318042Y-54148541D01*
X124345518Y-54203402D01*
X124347163Y-54210960D01*
X124350000Y-54237331D01*
X124350000Y-54758170D01*
X124349999Y-54758176D01*
X124350000Y-54758179D01*
X124344975Y-54793114D01*
X124340570Y-54808112D01*
X124302827Y-54866855D01*
X124302792Y-54866885D01*
X124302791Y-54866887D01*
X124302789Y-54866887D01*
X124301458Y-54868042D01*
X124246597Y-54895518D01*
X124239039Y-54897163D01*
X124212668Y-54900000D01*
X124100000Y-54900000D01*
X124100000Y-55008170D01*
X124099999Y-55008176D01*
X124100000Y-55008179D01*
X124094975Y-55043114D01*
X124090570Y-55058112D01*
X124052827Y-55116855D01*
X124052792Y-55116885D01*
X124052791Y-55116887D01*
X124052789Y-55116887D01*
X124051458Y-55118042D01*
X123996597Y-55145518D01*
X123989039Y-55147163D01*
X123962668Y-55150000D01*
X123650000Y-55150000D01*
X123650000Y-55169705D01*
X123656556Y-55202670D01*
X123661250Y-55226270D01*
X123661254Y-55226285D01*
X123661601Y-55228033D01*
X123662343Y-55230198D01*
X123664248Y-55234490D01*
X123666151Y-55239368D01*
X123666091Y-55239393D01*
X123666323Y-55240135D01*
X123666553Y-55240399D01*
X123669868Y-55248893D01*
X123670561Y-55256900D01*
X123674490Y-55268426D01*
X123675506Y-55268194D01*
X123676891Y-55274249D01*
X123676828Y-55275283D01*
X123677020Y-55275846D01*
X123677297Y-55277721D01*
X123676674Y-55277812D01*
X123674900Y-55306973D01*
X123675900Y-55318502D01*
X123673978Y-55322151D01*
X123672650Y-55343990D01*
X123671891Y-55346038D01*
X123669540Y-55352210D01*
X123669507Y-55352295D01*
X123667305Y-55358063D01*
X123667291Y-55358081D01*
X123662373Y-55369284D01*
X123661131Y-55371767D01*
X123654474Y-55405240D01*
X123649500Y-55430247D01*
X123649500Y-55969752D01*
X123661131Y-56028229D01*
X123661132Y-56028230D01*
X123664024Y-56033642D01*
X123667913Y-56038381D01*
X123667915Y-56038383D01*
X123686891Y-56066781D01*
X123702128Y-56098629D01*
X123706197Y-56111627D01*
X123706514Y-56129444D01*
X123707771Y-56133458D01*
X123706657Y-56137516D01*
X123707440Y-56181485D01*
X123670716Y-56240926D01*
X123615309Y-56269596D01*
X123612814Y-56270162D01*
X123607251Y-56271424D01*
X123579807Y-56274500D01*
X123467751Y-56274500D01*
X123445612Y-56278903D01*
X123445609Y-56278904D01*
X123441799Y-56279662D01*
X123441798Y-56279662D01*
X123422943Y-56283412D01*
X123377717Y-56279363D01*
X123357604Y-56277564D01*
X123357474Y-56278114D01*
X123357079Y-56300258D01*
X123347522Y-56320232D01*
X123346499Y-56324563D01*
X123341846Y-56332096D01*
X123330668Y-56348825D01*
X123330650Y-56348849D01*
X123305417Y-56386614D01*
X123301524Y-56391357D01*
X123298632Y-56396768D01*
X123298632Y-56396769D01*
X123298631Y-56396770D01*
X123287000Y-56455247D01*
X123287000Y-57144752D01*
X123298631Y-57203229D01*
X123298632Y-57203230D01*
X123298632Y-57203231D01*
X123298634Y-57203233D01*
X123342947Y-57269552D01*
X123409265Y-57313864D01*
X123409267Y-57313866D01*
X123409270Y-57313868D01*
X123460112Y-57323981D01*
X123462837Y-57324703D01*
X123467749Y-57325500D01*
X123467750Y-57325500D01*
X123467752Y-57325500D01*
X124357671Y-57325500D01*
X124392606Y-57330523D01*
X124407604Y-57334927D01*
X124466355Y-57372672D01*
X124466379Y-57372700D01*
X124466382Y-57372702D01*
X124466383Y-57372704D01*
X124467542Y-57374041D01*
X124495018Y-57428902D01*
X124496663Y-57436460D01*
X124499500Y-57462831D01*
X124499500Y-58283170D01*
X124499499Y-58283176D01*
X124499500Y-58283179D01*
X124494475Y-58318112D01*
X124493353Y-58321931D01*
X124490070Y-58333112D01*
X124452327Y-58391855D01*
X124452292Y-58391885D01*
X124452291Y-58391887D01*
X124452289Y-58391887D01*
X124450958Y-58393042D01*
X124396097Y-58420518D01*
X124388539Y-58422163D01*
X124362168Y-58425000D01*
X124262500Y-58425000D01*
X124262500Y-59475000D01*
X124357671Y-59475000D01*
X124392606Y-59480023D01*
X124407604Y-59484427D01*
X124466355Y-59522172D01*
X124466379Y-59522200D01*
X124466382Y-59522202D01*
X124466383Y-59522204D01*
X124467542Y-59523541D01*
X124495018Y-59578402D01*
X124496663Y-59585960D01*
X124499500Y-59612331D01*
X124499500Y-61972240D01*
X124499499Y-61972244D01*
X124499500Y-61972247D01*
X124494475Y-62007181D01*
X124490564Y-62020498D01*
X124452787Y-62079274D01*
X124389321Y-62108283D01*
X124388795Y-62108359D01*
X124319630Y-62098463D01*
X124283382Y-62073314D01*
X124279599Y-62069531D01*
X124279594Y-62069527D01*
X124199677Y-62023387D01*
X124199674Y-62023385D01*
X124153976Y-62011140D01*
X124143804Y-62005823D01*
X124135986Y-62004800D01*
X124114218Y-61990360D01*
X124108607Y-61987427D01*
X124108430Y-61987661D01*
X124107071Y-61986624D01*
X124106056Y-61986094D01*
X124103486Y-61983923D01*
X124103298Y-61983746D01*
X124103219Y-61983698D01*
X124100712Y-61981580D01*
X124100239Y-61980864D01*
X124098597Y-61979317D01*
X124098961Y-61978930D01*
X124083087Y-61954900D01*
X124064161Y-61929137D01*
X124063961Y-61925950D01*
X124062200Y-61923283D01*
X124061797Y-61891304D01*
X124059804Y-61859404D01*
X124059810Y-61859378D01*
X124060306Y-61857195D01*
X124061337Y-61854815D01*
X124061320Y-61853419D01*
X124063354Y-61850163D01*
X124078521Y-61815184D01*
X124080222Y-61812668D01*
X124080225Y-61812667D01*
X124080576Y-61812147D01*
X124089797Y-61801666D01*
X124094549Y-61794553D01*
X124094552Y-61794552D01*
X124138867Y-61728231D01*
X124138867Y-61728229D01*
X124138868Y-61728229D01*
X124141030Y-61717355D01*
X124141166Y-61717090D01*
X124141249Y-61716256D01*
X124142209Y-61711433D01*
X124150072Y-61671896D01*
X124150500Y-61669931D01*
X124150500Y-61060693D01*
X124150500Y-61060691D01*
X124119799Y-60946114D01*
X124060489Y-60843387D01*
X123976613Y-60759511D01*
X123873886Y-60700201D01*
X123759309Y-60669500D01*
X123759306Y-60669500D01*
X123640691Y-60669500D01*
X123549728Y-60693873D01*
X123549723Y-60693874D01*
X123526114Y-60700201D01*
X123526112Y-60700201D01*
X123526112Y-60700202D01*
X123504947Y-60712421D01*
X123504939Y-60712425D01*
X123423386Y-60759511D01*
X123423378Y-60759517D01*
X123339517Y-60843378D01*
X123339513Y-60843383D01*
X123305748Y-60901866D01*
X123280201Y-60946114D01*
X123249500Y-61060691D01*
X123249500Y-61060693D01*
X123249500Y-61669752D01*
X123261131Y-61728229D01*
X123261132Y-61728230D01*
X123263753Y-61733135D01*
X123267033Y-61737080D01*
X123267493Y-61737750D01*
X123305448Y-61794553D01*
X123308811Y-61797916D01*
X123314908Y-61806794D01*
X123315521Y-61808668D01*
X123321521Y-61817562D01*
X123327874Y-61829197D01*
X123327882Y-61829210D01*
X123327884Y-61829213D01*
X123329814Y-61832217D01*
X123349500Y-61899254D01*
X123349500Y-61929178D01*
X123349499Y-61929179D01*
X123349500Y-61929180D01*
X123344476Y-61964115D01*
X123338564Y-61984248D01*
X123308050Y-62036204D01*
X123303344Y-62040995D01*
X123283773Y-62057204D01*
X123222888Y-62097886D01*
X123164762Y-62184879D01*
X123164758Y-62184886D01*
X123164758Y-62184887D01*
X123149500Y-62261593D01*
X123149500Y-62438396D01*
X123164759Y-62515116D01*
X123164760Y-62515119D01*
X123164763Y-62515125D01*
X123165839Y-62516734D01*
X123165840Y-62516735D01*
X123166495Y-62518105D01*
X123166715Y-62518483D01*
X123166684Y-62518500D01*
X123181072Y-62548573D01*
X123185743Y-62563491D01*
X123186991Y-62633344D01*
X123183390Y-62646472D01*
X123166926Y-62682537D01*
X123165227Y-62685080D01*
X123157287Y-62724999D01*
X123157289Y-62725000D01*
X123558171Y-62725000D01*
X123568059Y-62727099D01*
X123574599Y-62726093D01*
X123593102Y-62730022D01*
X123597472Y-62731305D01*
X123596908Y-62733225D01*
X123608560Y-62735700D01*
X123613057Y-62737700D01*
X123620748Y-62744232D01*
X123639420Y-62751195D01*
X123657704Y-62775617D01*
X123666313Y-62782928D01*
X123668461Y-62789984D01*
X123681295Y-62807126D01*
X123683636Y-62839830D01*
X123686662Y-62849769D01*
X123684815Y-62856298D01*
X123686284Y-62876817D01*
X123671190Y-62904462D01*
X123667644Y-62917001D01*
X123661268Y-62922637D01*
X123652803Y-62938143D01*
X123629057Y-62951112D01*
X123615297Y-62963277D01*
X123603445Y-62965101D01*
X123591496Y-62971628D01*
X123589048Y-62972161D01*
X123562668Y-62975000D01*
X123157288Y-62975000D01*
X123162160Y-62999496D01*
X123165228Y-63014921D01*
X123165231Y-63014927D01*
X123165234Y-63014932D01*
X123165843Y-63015844D01*
X123166700Y-63017635D01*
X123167957Y-63019953D01*
X123167839Y-63020016D01*
X123179588Y-63044573D01*
X123181069Y-63047669D01*
X123185740Y-63062584D01*
X123186990Y-63132443D01*
X123186989Y-63132447D01*
X123183386Y-63145581D01*
X123166908Y-63181665D01*
X123164758Y-63184882D01*
X123149500Y-63261590D01*
X123149500Y-63261595D01*
X123149500Y-63438398D01*
X123151808Y-63450000D01*
X123164759Y-63515116D01*
X123164760Y-63515119D01*
X123164763Y-63515125D01*
X123165839Y-63516734D01*
X123165840Y-63516735D01*
X123166495Y-63518105D01*
X123166715Y-63518483D01*
X123166684Y-63518500D01*
X123181072Y-63548573D01*
X123185743Y-63563491D01*
X123186991Y-63633344D01*
X123183390Y-63646472D01*
X123166926Y-63682537D01*
X123165227Y-63685080D01*
X123157287Y-63724999D01*
X123157289Y-63725000D01*
X124242710Y-63725000D01*
X124242711Y-63725000D01*
X124268341Y-63693769D01*
X124294374Y-63669960D01*
X124302811Y-63664214D01*
X124302818Y-63664207D01*
X124304252Y-63663231D01*
X124370741Y-63641757D01*
X124438283Y-63659639D01*
X124478356Y-63698640D01*
X124479794Y-63700876D01*
X124481593Y-63706997D01*
X124485436Y-63711199D01*
X124489073Y-63732442D01*
X124499500Y-63767909D01*
X124499500Y-63933451D01*
X124499251Y-63937517D01*
X124499271Y-63937944D01*
X124499374Y-63940225D01*
X124499500Y-63945819D01*
X124499500Y-64357670D01*
X124494475Y-64392614D01*
X124490070Y-64407612D01*
X124480439Y-64422601D01*
X124475432Y-64439675D01*
X124452327Y-64466355D01*
X124450958Y-64467542D01*
X124396097Y-64495018D01*
X124388539Y-64496663D01*
X124362168Y-64499500D01*
X119187388Y-64499500D01*
X119178343Y-64499170D01*
X119166942Y-64498336D01*
X119166941Y-64498336D01*
X119166777Y-64498324D01*
X119149988Y-64499500D01*
X118859174Y-64499500D01*
X118851804Y-64498439D01*
X118851804Y-64498456D01*
X118839414Y-64498052D01*
X118836650Y-64497141D01*
X118815359Y-64499500D01*
X117022580Y-64499500D01*
X116987641Y-64494476D01*
X116974323Y-64490565D01*
X116959327Y-64480927D01*
X116942227Y-64475907D01*
X116930549Y-64462431D01*
X116915546Y-64452789D01*
X116908139Y-64436571D01*
X116896470Y-64423105D01*
X116886525Y-64389241D01*
X116885609Y-64382872D01*
X116891304Y-64324269D01*
X116917117Y-64250499D01*
X116918094Y-64247708D01*
X116921257Y-64238667D01*
X116922646Y-64234699D01*
X116922646Y-64234695D01*
X116922647Y-64234694D01*
X116925500Y-64204269D01*
X116925500Y-63578186D01*
X116930522Y-63543253D01*
X116934433Y-63529934D01*
X116972206Y-63471157D01*
X117035758Y-63442132D01*
X117046657Y-63440565D01*
X117088497Y-63441684D01*
X117090740Y-63442131D01*
X117127343Y-63449412D01*
X117129558Y-63449908D01*
X117130299Y-63450000D01*
X117130301Y-63450000D01*
X117150000Y-63450000D01*
X117150000Y-62550000D01*
X117130299Y-62550000D01*
X117130297Y-62550000D01*
X117071966Y-62561602D01*
X117071965Y-62561602D01*
X117071964Y-62561603D01*
X117066554Y-62564494D01*
X117061810Y-62568388D01*
X117005808Y-62605808D01*
X116968388Y-62661810D01*
X116964494Y-62666554D01*
X116961603Y-62671964D01*
X116961603Y-62671965D01*
X116961602Y-62671966D01*
X116950516Y-62727703D01*
X116950000Y-62730299D01*
X116950000Y-62777198D01*
X116949999Y-62777200D01*
X116950000Y-62777201D01*
X116946383Y-62802353D01*
X116944976Y-62812135D01*
X116941365Y-62824432D01*
X116903590Y-62883210D01*
X116840034Y-62912233D01*
X116775334Y-62904220D01*
X116766586Y-62900632D01*
X116740008Y-62885677D01*
X116687881Y-62847206D01*
X116687880Y-62847205D01*
X116565461Y-62804369D01*
X116553610Y-62799522D01*
X116550194Y-62797914D01*
X116546897Y-62796110D01*
X116546178Y-62796024D01*
X116537909Y-62792132D01*
X116534435Y-62789051D01*
X116521165Y-62782597D01*
X116517900Y-62780385D01*
X116499458Y-62758031D01*
X116485635Y-62745772D01*
X116483717Y-62738951D01*
X116473445Y-62726500D01*
X116471898Y-62722884D01*
X116462776Y-62659422D01*
X116463014Y-62657433D01*
X116466358Y-62640071D01*
X116480348Y-62587861D01*
X116492735Y-62557960D01*
X116508500Y-62530655D01*
X116528201Y-62504979D01*
X116821753Y-62211427D01*
X116850008Y-62190277D01*
X116863728Y-62182786D01*
X116931988Y-62167935D01*
X116933799Y-62168065D01*
X116991996Y-62187434D01*
X117034581Y-62214802D01*
X117039755Y-62217476D01*
X117057182Y-62229120D01*
X117061616Y-62232083D01*
X117066359Y-62235975D01*
X117071770Y-62238868D01*
X117122612Y-62248981D01*
X117125337Y-62249703D01*
X117130249Y-62250500D01*
X117669750Y-62250500D01*
X117673873Y-62250500D01*
X117681732Y-62248116D01*
X117705549Y-62243379D01*
X117716258Y-62241249D01*
X117722355Y-62240648D01*
X117722374Y-62240643D01*
X117734205Y-62237679D01*
X117740866Y-62236354D01*
X117751607Y-62229305D01*
X117751846Y-62229120D01*
X117752001Y-62229047D01*
X117752003Y-62229046D01*
X117752208Y-62228950D01*
X117753691Y-62228253D01*
X117753714Y-62228247D01*
X117753733Y-62228234D01*
X117761185Y-62224739D01*
X117761233Y-62224731D01*
X117761252Y-62224723D01*
X117761254Y-62224728D01*
X117787829Y-62220629D01*
X117813692Y-62213000D01*
X117832839Y-62213000D01*
X117867775Y-62218023D01*
X117882773Y-62222427D01*
X117941540Y-62260190D01*
X117943972Y-62262996D01*
X117970622Y-62314359D01*
X117972481Y-62321854D01*
X117975302Y-62337418D01*
X117977291Y-62354574D01*
X117977293Y-62354582D01*
X117983709Y-62369112D01*
X117989078Y-62383680D01*
X117990548Y-62388600D01*
X117990983Y-62390659D01*
X117991321Y-62391186D01*
X117993412Y-62398178D01*
X117993429Y-62401678D01*
X117997343Y-62416032D01*
X117998236Y-62422238D01*
X117999500Y-62439899D01*
X117999500Y-62493924D01*
X117994476Y-62528862D01*
X117991289Y-62539715D01*
X117953514Y-62598492D01*
X117889957Y-62627515D01*
X117820799Y-62617570D01*
X117801428Y-62608723D01*
X117784051Y-62599032D01*
X117738189Y-62568388D01*
X117733445Y-62564495D01*
X117728034Y-62561603D01*
X117728033Y-62561602D01*
X117669702Y-62550000D01*
X117669700Y-62550000D01*
X117650000Y-62550000D01*
X117650000Y-63450000D01*
X117669657Y-63450000D01*
X117669699Y-63450000D01*
X117669702Y-63449999D01*
X117728033Y-63438397D01*
X117728034Y-63438396D01*
X117766789Y-63412500D01*
X117798625Y-63397270D01*
X117804699Y-63395368D01*
X117811624Y-63393201D01*
X117881483Y-63391957D01*
X117940924Y-63428679D01*
X117969596Y-63484091D01*
X117971424Y-63492145D01*
X117974500Y-63519591D01*
X117974500Y-64005496D01*
X117974518Y-64005665D01*
X117977291Y-64029578D01*
X117977292Y-64029579D01*
X117977293Y-64029584D01*
X118020780Y-64128071D01*
X118020784Y-64128078D01*
X118020785Y-64128079D01*
X118096921Y-64204215D01*
X118195420Y-64247707D01*
X118219495Y-64250500D01*
X118480504Y-64250499D01*
X118504580Y-64247707D01*
X118603079Y-64204215D01*
X118603079Y-64204214D01*
X118604480Y-64203596D01*
X118616134Y-64199137D01*
X118637180Y-64192277D01*
X118707011Y-64190218D01*
X118721677Y-64194058D01*
X118741686Y-64202102D01*
X118741962Y-64201478D01*
X118747207Y-64203794D01*
X118747209Y-64203795D01*
X118825000Y-64238143D01*
X118825000Y-64238142D01*
X118825000Y-62836856D01*
X119175000Y-62836856D01*
X119175000Y-64233800D01*
X119259611Y-64197811D01*
X119293718Y-64188762D01*
X119313035Y-64186500D01*
X119374912Y-64195098D01*
X119395584Y-64203661D01*
X119398216Y-64204787D01*
X119398927Y-64205101D01*
X119495420Y-64247707D01*
X119519495Y-64250500D01*
X119780504Y-64250499D01*
X119804580Y-64247707D01*
X119902140Y-64204629D01*
X119903075Y-64204218D01*
X119903077Y-64204215D01*
X119903079Y-64204215D01*
X119979215Y-64128079D01*
X120022707Y-64029580D01*
X120024128Y-64017323D01*
X120028323Y-63996685D01*
X120034360Y-63976126D01*
X120072133Y-63917351D01*
X120135689Y-63888326D01*
X120197705Y-63895273D01*
X120205424Y-63898232D01*
X120229940Y-63910917D01*
X120271768Y-63938867D01*
X120271770Y-63938868D01*
X120322614Y-63948980D01*
X120325340Y-63949703D01*
X120330249Y-63950500D01*
X120869750Y-63950500D01*
X120870452Y-63950500D01*
X120871199Y-63950210D01*
X120884568Y-63947552D01*
X120928229Y-63938868D01*
X120928231Y-63938867D01*
X120966328Y-63913410D01*
X120979097Y-63908471D01*
X120981605Y-63908261D01*
X120986776Y-63905786D01*
X121000028Y-63901636D01*
X121069884Y-63900390D01*
X121129322Y-63937103D01*
X121132823Y-63941001D01*
X121162197Y-63999680D01*
X121165226Y-64014914D01*
X121165228Y-64014918D01*
X121165238Y-64014936D01*
X121223246Y-64101751D01*
X121223247Y-64101752D01*
X121310062Y-64159760D01*
X121310071Y-64159765D01*
X121310077Y-64159769D01*
X121310081Y-64159771D01*
X121383700Y-64174414D01*
X121385907Y-64174909D01*
X121386641Y-64175000D01*
X121386643Y-64175000D01*
X121575000Y-64175000D01*
X121825000Y-64175000D01*
X122013357Y-64175000D01*
X122013358Y-64175000D01*
X122018262Y-64174204D01*
X122020987Y-64173481D01*
X122077660Y-64162209D01*
X122089914Y-64159772D01*
X122089914Y-64159771D01*
X122089918Y-64159771D01*
X122089922Y-64159769D01*
X122089932Y-64159761D01*
X122089936Y-64159760D01*
X122137362Y-64128071D01*
X122176752Y-64101752D01*
X122234770Y-64014921D01*
X122234771Y-64014920D01*
X122242711Y-63975000D01*
X123157288Y-63975000D01*
X123165228Y-64014920D01*
X123165229Y-64014921D01*
X123182553Y-64040849D01*
X123182554Y-64040851D01*
X123223247Y-64101752D01*
X123310062Y-64159760D01*
X123310071Y-64159765D01*
X123310077Y-64159769D01*
X123310081Y-64159771D01*
X123383700Y-64174414D01*
X123385907Y-64174909D01*
X123386641Y-64175000D01*
X123386643Y-64175000D01*
X123575000Y-64175000D01*
X123825000Y-64175000D01*
X124013357Y-64175000D01*
X124013358Y-64175000D01*
X124018262Y-64174204D01*
X124020987Y-64173481D01*
X124077660Y-64162209D01*
X124089914Y-64159772D01*
X124089914Y-64159771D01*
X124089918Y-64159771D01*
X124089922Y-64159769D01*
X124089932Y-64159761D01*
X124089936Y-64159760D01*
X124137362Y-64128071D01*
X124176752Y-64101752D01*
X124227987Y-64025071D01*
X124231878Y-64020330D01*
X124234765Y-64014928D01*
X124234770Y-64014921D01*
X124234771Y-64014920D01*
X124242711Y-63975000D01*
X124242710Y-63975000D01*
X123825000Y-63975000D01*
X123825000Y-64175000D01*
X123575000Y-64175000D01*
X123575000Y-63975000D01*
X123163235Y-63975000D01*
X123157288Y-63975000D01*
X122242711Y-63975000D01*
X122236763Y-63975000D01*
X121825000Y-63975000D01*
X121825000Y-64175000D01*
X121575000Y-64175000D01*
X121575000Y-63491829D01*
X121577757Y-63472652D01*
X121821369Y-63472652D01*
X121825000Y-63485018D01*
X121825000Y-63725000D01*
X122242711Y-63725000D01*
X122242711Y-63724999D01*
X122234771Y-63685079D01*
X122234770Y-63685077D01*
X122233858Y-63683713D01*
X122233305Y-63682557D01*
X122232815Y-63681713D01*
X122232882Y-63681673D01*
X122218629Y-63651883D01*
X122218404Y-63651166D01*
X122213956Y-63636963D01*
X122212707Y-63567107D01*
X122212708Y-63567103D01*
X122216310Y-63553972D01*
X122232795Y-63517877D01*
X122234770Y-63514922D01*
X122234771Y-63514920D01*
X122242711Y-63475000D01*
X121829363Y-63475000D01*
X121821369Y-63472652D01*
X121577757Y-63472652D01*
X121580022Y-63456895D01*
X121582023Y-63450079D01*
X121619799Y-63391304D01*
X121683355Y-63362280D01*
X121709769Y-63366078D01*
X121705363Y-63351127D01*
X121707922Y-63342376D01*
X121706625Y-63333353D01*
X121717577Y-63309370D01*
X121724979Y-63284067D01*
X121733782Y-63273886D01*
X121735650Y-63269797D01*
X121748065Y-63257370D01*
X121748475Y-63257014D01*
X121803420Y-63229477D01*
X121810979Y-63227833D01*
X121837332Y-63225000D01*
X122242711Y-63225000D01*
X122242711Y-63224999D01*
X122234771Y-63185080D01*
X122234771Y-63185079D01*
X122234769Y-63185075D01*
X122234155Y-63184157D01*
X122233782Y-63183376D01*
X122232819Y-63181719D01*
X122232952Y-63181641D01*
X122218927Y-63152328D01*
X122214254Y-63137404D01*
X122213006Y-63067558D01*
X122216611Y-63054417D01*
X122233092Y-63018330D01*
X122235240Y-63015117D01*
X122238347Y-62999500D01*
X122248981Y-62946032D01*
X122249704Y-62943307D01*
X122250499Y-62938403D01*
X122250500Y-62938401D01*
X122250499Y-62761600D01*
X122235240Y-62684883D01*
X122235239Y-62684881D01*
X122235238Y-62684878D01*
X122234463Y-62683718D01*
X122234459Y-62683711D01*
X122234456Y-62683708D01*
X122219226Y-62651873D01*
X122214553Y-62636952D01*
X122213308Y-62567100D01*
X122214023Y-62564494D01*
X122216910Y-62553970D01*
X122233391Y-62517882D01*
X122235240Y-62515117D01*
X122250500Y-62438401D01*
X122250499Y-62261600D01*
X122235240Y-62184883D01*
X122235239Y-62184881D01*
X122235238Y-62184879D01*
X122204925Y-62139513D01*
X122204416Y-62138751D01*
X122177115Y-62097892D01*
X122177114Y-62097891D01*
X122177112Y-62097888D01*
X122140369Y-62073337D01*
X122096137Y-62020412D01*
X122095071Y-62021228D01*
X122071996Y-62023198D01*
X122050663Y-62029472D01*
X122038903Y-62026024D01*
X122026424Y-62027090D01*
X122013402Y-62024500D01*
X122013401Y-62024500D01*
X122012932Y-62024500D01*
X121863898Y-62024500D01*
X121847707Y-62023438D01*
X121831731Y-62021334D01*
X121815831Y-62018171D01*
X121746147Y-61999500D01*
X121746144Y-61999500D01*
X121653856Y-61999500D01*
X121584170Y-62018172D01*
X121568263Y-62021335D01*
X121552288Y-62023439D01*
X121536104Y-62024500D01*
X121386601Y-62024500D01*
X121373580Y-62027090D01*
X121309882Y-62039759D01*
X121309879Y-62039760D01*
X121251278Y-62078917D01*
X121219441Y-62094149D01*
X121206194Y-62098297D01*
X121136335Y-62099545D01*
X121076896Y-62062830D01*
X121073394Y-62058932D01*
X121044024Y-62000259D01*
X121038397Y-61971966D01*
X121038396Y-61971965D01*
X121038395Y-61971964D01*
X121038395Y-61971962D01*
X121035506Y-61966556D01*
X121031610Y-61961809D01*
X120994191Y-61905807D01*
X120938189Y-61868388D01*
X120933445Y-61864495D01*
X120928034Y-61861603D01*
X120928033Y-61861602D01*
X120869702Y-61850000D01*
X120869700Y-61850000D01*
X120850000Y-61850000D01*
X120850000Y-62770739D01*
X120845734Y-62802984D01*
X120845368Y-62804339D01*
X120841354Y-62818012D01*
X120839958Y-62824432D01*
X120839163Y-62827384D01*
X120822471Y-62854689D01*
X120807110Y-62882821D01*
X120689354Y-63000576D01*
X120661104Y-63021724D01*
X120638020Y-63034330D01*
X120578589Y-63049500D01*
X120330247Y-63049500D01*
X120271770Y-63061131D01*
X120266738Y-63062132D01*
X120256474Y-63071352D01*
X120222339Y-63094160D01*
X120190505Y-63109391D01*
X120184167Y-63111375D01*
X120177261Y-63113538D01*
X120159431Y-63113856D01*
X120155662Y-63115037D01*
X120151853Y-63113992D01*
X120107403Y-63114787D01*
X120047960Y-63078069D01*
X120039848Y-63069039D01*
X120018664Y-63036264D01*
X120010438Y-63017635D01*
X119991613Y-62975000D01*
X119980100Y-62948925D01*
X119979330Y-62947096D01*
X119979214Y-62946920D01*
X119903081Y-62870787D01*
X119903079Y-62870785D01*
X119903077Y-62870784D01*
X119903073Y-62870781D01*
X119851466Y-62847995D01*
X119851464Y-62847994D01*
X119804584Y-62827294D01*
X119804582Y-62827293D01*
X119804581Y-62827293D01*
X119798562Y-62826594D01*
X119780508Y-62824500D01*
X119780505Y-62824500D01*
X119519503Y-62824500D01*
X119519333Y-62824518D01*
X119495422Y-62827291D01*
X119495417Y-62827293D01*
X119395518Y-62871403D01*
X119383846Y-62875868D01*
X119362807Y-62882723D01*
X119292973Y-62884776D01*
X119292969Y-62884774D01*
X119292968Y-62884775D01*
X119292967Y-62884774D01*
X119278309Y-62880935D01*
X119258305Y-62872896D01*
X119258031Y-62873519D01*
X119252790Y-62871204D01*
X119252789Y-62871204D01*
X119175000Y-62836856D01*
X118825000Y-62836856D01*
X118825000Y-62836855D01*
X118798998Y-62819912D01*
X118791150Y-62817350D01*
X118775050Y-62809751D01*
X118722826Y-62763335D01*
X118722816Y-62763319D01*
X118719339Y-62757754D01*
X118700500Y-62692049D01*
X118700500Y-62443966D01*
X118703169Y-62418378D01*
X118708397Y-62393594D01*
X118716290Y-62369113D01*
X118721840Y-62356543D01*
X118723644Y-62352642D01*
X118729356Y-62340830D01*
X118730096Y-62338109D01*
X118725501Y-62322819D01*
X118725499Y-62322423D01*
X118725499Y-61394496D01*
X118722707Y-61370420D01*
X118722705Y-61370415D01*
X118679218Y-61271926D01*
X118679216Y-61271923D01*
X118679215Y-61271921D01*
X118603079Y-61195785D01*
X118555338Y-61174705D01*
X118539406Y-61167670D01*
X118539405Y-61167669D01*
X118504589Y-61152295D01*
X118504581Y-61152293D01*
X118480508Y-61149500D01*
X118480505Y-61149500D01*
X118219503Y-61149500D01*
X118219333Y-61149518D01*
X118195420Y-61152291D01*
X118195419Y-61152292D01*
X118195414Y-61152293D01*
X118096926Y-61195780D01*
X118096924Y-61195781D01*
X118096913Y-61195790D01*
X118020787Y-61271916D01*
X118020784Y-61271921D01*
X117990532Y-61340434D01*
X117977939Y-61360581D01*
X117971823Y-61370366D01*
X117962866Y-61380969D01*
X117904567Y-61419478D01*
X117834709Y-61420357D01*
X117823026Y-61417086D01*
X117787569Y-61400781D01*
X117738382Y-61367915D01*
X117733639Y-61364022D01*
X117728230Y-61361132D01*
X117728229Y-61361131D01*
X117669752Y-61349500D01*
X117669750Y-61349500D01*
X117130249Y-61349500D01*
X117130247Y-61349500D01*
X117071770Y-61361131D01*
X117071769Y-61361131D01*
X117071768Y-61361132D01*
X117066865Y-61363752D01*
X117062920Y-61367033D01*
X117062285Y-61367468D01*
X117005446Y-61405448D01*
X117002080Y-61408813D01*
X116993202Y-61414911D01*
X116991325Y-61415524D01*
X116982434Y-61421524D01*
X116958981Y-61434331D01*
X116899552Y-61449500D01*
X116691350Y-61449500D01*
X116628323Y-61466387D01*
X116628321Y-61466389D01*
X116593276Y-61470579D01*
X116577648Y-61470207D01*
X116511096Y-61448933D01*
X116511092Y-61448930D01*
X116509591Y-61447914D01*
X116468881Y-61402043D01*
X116465334Y-61395163D01*
X116460809Y-61383456D01*
X116460409Y-61383622D01*
X116457297Y-61376109D01*
X116441933Y-61349499D01*
X116441932Y-61349498D01*
X116430225Y-61329222D01*
X116397989Y-61273387D01*
X116314113Y-61189511D01*
X116211386Y-61130201D01*
X116096809Y-61099500D01*
X116096806Y-61099500D01*
X115978191Y-61099500D01*
X115887228Y-61123873D01*
X115887223Y-61123874D01*
X115863614Y-61130201D01*
X115863612Y-61130201D01*
X115863612Y-61130202D01*
X115842447Y-61142421D01*
X115842439Y-61142425D01*
X115760886Y-61189511D01*
X115760878Y-61189517D01*
X115677017Y-61273378D01*
X115677013Y-61273383D01*
X115677009Y-61273389D01*
X115677007Y-61273391D01*
X115635909Y-61344578D01*
X115626352Y-61361131D01*
X115624839Y-61363752D01*
X115617700Y-61376114D01*
X115593512Y-61466387D01*
X115587000Y-61490691D01*
X115587000Y-61609309D01*
X115617701Y-61723886D01*
X115677011Y-61826613D01*
X115760887Y-61910489D01*
X115760889Y-61910490D01*
X115767338Y-61915439D01*
X115766968Y-61915920D01*
X115785528Y-61930515D01*
X115795105Y-61940560D01*
X115827121Y-62002661D01*
X115820480Y-62072215D01*
X115820477Y-62072221D01*
X115819872Y-62073732D01*
X115785950Y-62121362D01*
X115782165Y-62124641D01*
X115762993Y-62138294D01*
X115760899Y-62139503D01*
X115760889Y-62139509D01*
X115760883Y-62139513D01*
X115760878Y-62139517D01*
X115677017Y-62223378D01*
X115677013Y-62223383D01*
X115677011Y-62223385D01*
X115662234Y-62248981D01*
X115638880Y-62289432D01*
X115631127Y-62302859D01*
X115617700Y-62326114D01*
X115591944Y-62422238D01*
X115587000Y-62440691D01*
X115587000Y-62559309D01*
X115617186Y-62671964D01*
X115617702Y-62673889D01*
X115659229Y-62745815D01*
X115667814Y-62767260D01*
X115672346Y-62778579D01*
X115676031Y-62793768D01*
X115672708Y-62863559D01*
X115672704Y-62863569D01*
X115670908Y-62868757D01*
X115642156Y-62915123D01*
X115641283Y-62916011D01*
X115629202Y-62926497D01*
X115627846Y-62927852D01*
X115547206Y-63037116D01*
X115502353Y-63165297D01*
X115502145Y-63166518D01*
X115501812Y-63171067D01*
X115499500Y-63195730D01*
X115499500Y-64204269D01*
X115502353Y-64234699D01*
X115502353Y-64234700D01*
X115502354Y-64234702D01*
X115503488Y-64238667D01*
X115504956Y-64242138D01*
X115531402Y-64317718D01*
X115538199Y-64352347D01*
X115538923Y-64366522D01*
X115534777Y-64383867D01*
X115534963Y-64387497D01*
X115533156Y-64390649D01*
X115522683Y-64434478D01*
X115482148Y-64477147D01*
X115479977Y-64478543D01*
X115478020Y-64479800D01*
X115410987Y-64499500D01*
X115197580Y-64499500D01*
X115197577Y-64499499D01*
X115197576Y-64499500D01*
X115162641Y-64494476D01*
X115149323Y-64490565D01*
X115090546Y-64452789D01*
X115061525Y-64389241D01*
X115060609Y-64382872D01*
X115066304Y-64324269D01*
X115092117Y-64250499D01*
X115093094Y-64247708D01*
X115096257Y-64238667D01*
X115097646Y-64234699D01*
X115097646Y-64234695D01*
X115097647Y-64234694D01*
X115100500Y-64204269D01*
X115100500Y-63195739D01*
X115100499Y-63195730D01*
X115099500Y-63185075D01*
X115099415Y-63184170D01*
X115098187Y-63171067D01*
X115098020Y-63167500D01*
X115097646Y-63165297D01*
X115061195Y-63061131D01*
X115061194Y-63061128D01*
X115057125Y-63049500D01*
X115052793Y-63037118D01*
X114972150Y-62927850D01*
X114862882Y-62847207D01*
X114862880Y-62847206D01*
X114811286Y-62829152D01*
X114734704Y-62802354D01*
X114734702Y-62802353D01*
X114734700Y-62802353D01*
X114704270Y-62799500D01*
X114704266Y-62799500D01*
X114704264Y-62799500D01*
X114070734Y-62799500D01*
X114070730Y-62799500D01*
X114052074Y-62801249D01*
X114046069Y-62801812D01*
X114042499Y-62801978D01*
X114040297Y-62802353D01*
X113912118Y-62847206D01*
X113802849Y-62927849D01*
X113722206Y-63037118D01*
X113677353Y-63165297D01*
X113676978Y-63167499D01*
X113676812Y-63171067D01*
X113674500Y-63195730D01*
X113674500Y-64204269D01*
X113677353Y-64234699D01*
X113677353Y-64234700D01*
X113677354Y-64234702D01*
X113678488Y-64238667D01*
X113679956Y-64242138D01*
X113706402Y-64317718D01*
X113713199Y-64352347D01*
X113713907Y-64366208D01*
X113709761Y-64383553D01*
X113709963Y-64387497D01*
X113708000Y-64390922D01*
X113697667Y-64434164D01*
X113647266Y-64482552D01*
X113641557Y-64485520D01*
X113584361Y-64499500D01*
X112931830Y-64499500D01*
X112931825Y-64499499D01*
X112931823Y-64499500D01*
X112896889Y-64494475D01*
X112881890Y-64490070D01*
X112823144Y-64452327D01*
X112823115Y-64452293D01*
X112823114Y-64452293D01*
X112823113Y-64452291D01*
X112821957Y-64450958D01*
X112794481Y-64396097D01*
X112793355Y-64390922D01*
X112792835Y-64388533D01*
X112789999Y-64362177D01*
X112789999Y-63020803D01*
X112787148Y-62990394D01*
X112768447Y-62936950D01*
X112765338Y-62918657D01*
X112761487Y-62917061D01*
X111902479Y-63776073D01*
X111882916Y-63790718D01*
X111874228Y-63797222D01*
X111851140Y-63809830D01*
X111791710Y-63825000D01*
X111215639Y-63825000D01*
X111180703Y-63819977D01*
X111155461Y-63812565D01*
X111102716Y-63781269D01*
X110238508Y-62917061D01*
X110212850Y-62990393D01*
X110212475Y-62992599D01*
X110212309Y-62996164D01*
X110210533Y-63015114D01*
X110210000Y-63020796D01*
X110210000Y-64357669D01*
X110204977Y-64392604D01*
X110200573Y-64407603D01*
X110162799Y-64466381D01*
X110162789Y-64466390D01*
X110161420Y-64467576D01*
X110106598Y-64495018D01*
X110099040Y-64496663D01*
X110072669Y-64499500D01*
X102711830Y-64499500D01*
X102711825Y-64499499D01*
X102711823Y-64499500D01*
X102676889Y-64494475D01*
X102661890Y-64490070D01*
X102603144Y-64452327D01*
X102603115Y-64452293D01*
X102603114Y-64452293D01*
X102603113Y-64452291D01*
X102601957Y-64450958D01*
X102574481Y-64396097D01*
X102573355Y-64390922D01*
X102572835Y-64388533D01*
X102569999Y-64362177D01*
X102569999Y-63020803D01*
X102567148Y-62990394D01*
X102548447Y-62936950D01*
X102545338Y-62918657D01*
X102541487Y-62917061D01*
X101682479Y-63776073D01*
X101662916Y-63790718D01*
X101654228Y-63797222D01*
X101631140Y-63809830D01*
X101571710Y-63825000D01*
X101243639Y-63825000D01*
X101208704Y-63819977D01*
X101197850Y-63816790D01*
X101139072Y-63779016D01*
X101110047Y-63715460D01*
X101119987Y-63646311D01*
X101123177Y-63639324D01*
X101148286Y-63603160D01*
X102126446Y-62625000D01*
X110653551Y-62625000D01*
X111290143Y-63261590D01*
X111500000Y-63471447D01*
X111500001Y-63471447D01*
X112346446Y-62625000D01*
X110653551Y-62625000D01*
X102126446Y-62625000D01*
X100642330Y-62625000D01*
X100642325Y-62624999D01*
X100642323Y-62625000D01*
X100607389Y-62619975D01*
X100592390Y-62615570D01*
X100533644Y-62577827D01*
X100533615Y-62577793D01*
X100533614Y-62577793D01*
X100533613Y-62577791D01*
X100532457Y-62576458D01*
X100504977Y-62521583D01*
X100503332Y-62514021D01*
X100500500Y-62487668D01*
X100500500Y-61236828D01*
X100500511Y-61236754D01*
X100505523Y-61201892D01*
X100505557Y-61201778D01*
X100509927Y-61186893D01*
X100547672Y-61128143D01*
X100547700Y-61128118D01*
X100547699Y-61128118D01*
X100549041Y-61126955D01*
X100603920Y-61099476D01*
X100611479Y-61097832D01*
X100637832Y-61094999D01*
X102126446Y-61094999D01*
X102126446Y-61094998D01*
X101026735Y-59995287D01*
X101026021Y-59994334D01*
X101005583Y-59967031D01*
X100998091Y-59953310D01*
X100983239Y-59885050D01*
X100983368Y-59883241D01*
X101002734Y-59825046D01*
X101006927Y-59818522D01*
X101023548Y-59797897D01*
X101977028Y-58844418D01*
X102005273Y-58823275D01*
X102028365Y-58810667D01*
X102087790Y-58795500D01*
X102460386Y-58795500D01*
X102527425Y-58815185D01*
X102532790Y-58821377D01*
X102571317Y-58799046D01*
X102600758Y-58795500D01*
X102949861Y-58795500D01*
X102984793Y-58800521D01*
X103010037Y-58807934D01*
X103062783Y-58839230D01*
X103141074Y-58917521D01*
X103162223Y-58945772D01*
X103174831Y-58968861D01*
X103190000Y-59028290D01*
X103190000Y-59356361D01*
X103184976Y-59391299D01*
X103181789Y-59402152D01*
X103144014Y-59460929D01*
X103080457Y-59489952D01*
X103011307Y-59480011D01*
X103004329Y-59476824D01*
X102968157Y-59451710D01*
X102676991Y-59160544D01*
X102651099Y-59151410D01*
X102630530Y-59136578D01*
X102607857Y-59125229D01*
X102598236Y-59113291D01*
X102594427Y-59110544D01*
X102585717Y-59097756D01*
X102578632Y-59085815D01*
X102568229Y-59063486D01*
X102566984Y-59059927D01*
X102566900Y-59059687D01*
X102566900Y-59059683D01*
X102563454Y-59049836D01*
X102563454Y-59049835D01*
X102561237Y-59043500D01*
X102561236Y-59043500D01*
X102529004Y-59020631D01*
X102528082Y-59019463D01*
X102507839Y-59034061D01*
X102485050Y-59043500D01*
X101633553Y-59894998D01*
X101633553Y-59895001D01*
X102541487Y-60802936D01*
X102541487Y-60802935D01*
X102541488Y-60802936D01*
X102541488Y-60802935D01*
X102547202Y-60800568D01*
X102547694Y-60785267D01*
X102548447Y-60783047D01*
X102548819Y-60781985D01*
X102567147Y-60729609D01*
X102567150Y-60729595D01*
X102569999Y-60699207D01*
X102569999Y-60087163D01*
X102575019Y-60052239D01*
X102578657Y-60039848D01*
X102616427Y-59981072D01*
X102679981Y-59952044D01*
X102744413Y-59959943D01*
X102745764Y-59960494D01*
X102753055Y-59963464D01*
X102779394Y-59978153D01*
X102894141Y-60061937D01*
X102919389Y-60086590D01*
X102926736Y-60096164D01*
X102925681Y-60096973D01*
X102930001Y-60105317D01*
X102940050Y-60115389D01*
X102949971Y-60143885D01*
X102951581Y-60146993D01*
X102951708Y-60146960D01*
X102951859Y-60147531D01*
X102952346Y-60148471D01*
X102953073Y-60151835D01*
X102953107Y-60152233D01*
X102953393Y-60153312D01*
X102954001Y-60156121D01*
X102953935Y-60157021D01*
X102954036Y-60157601D01*
X102953891Y-60157625D01*
X102952629Y-60174995D01*
X102952580Y-60214433D01*
X102924500Y-60319232D01*
X102924500Y-60319234D01*
X102924500Y-60470765D01*
X102944109Y-60543950D01*
X102963719Y-60617137D01*
X102970062Y-60628123D01*
X102993952Y-60669500D01*
X103039485Y-60748365D01*
X103146635Y-60855515D01*
X103277865Y-60931281D01*
X103424234Y-60970500D01*
X103424236Y-60970500D01*
X103575764Y-60970500D01*
X103575766Y-60970500D01*
X103722135Y-60931281D01*
X103853365Y-60855515D01*
X103945067Y-60763812D01*
X103959535Y-60751417D01*
X103968502Y-60744858D01*
X103968503Y-60744859D01*
X103982206Y-60734836D01*
X104047937Y-60711150D01*
X104115435Y-60726424D01*
X104127247Y-60732959D01*
X104154899Y-60753779D01*
X104251635Y-60850515D01*
X104382865Y-60926281D01*
X104529234Y-60965500D01*
X104529236Y-60965500D01*
X104680764Y-60965500D01*
X104680766Y-60965500D01*
X104827135Y-60926281D01*
X104958365Y-60850515D01*
X105065515Y-60743365D01*
X105141281Y-60612135D01*
X105180500Y-60465766D01*
X105180500Y-60403655D01*
X105185521Y-60368728D01*
X105188707Y-60357875D01*
X105226477Y-60299094D01*
X105290031Y-60270065D01*
X105359186Y-60280003D01*
X105363607Y-60282022D01*
X105402357Y-60309791D01*
X105418585Y-60327017D01*
X105429517Y-60335970D01*
X106452087Y-61358540D01*
X106473236Y-61386791D01*
X106485844Y-61409880D01*
X106501013Y-61469309D01*
X106501013Y-61492304D01*
X106531714Y-61606881D01*
X106591024Y-61709608D01*
X106674900Y-61793484D01*
X106777627Y-61852794D01*
X106892204Y-61883495D01*
X106892207Y-61883495D01*
X107010819Y-61883495D01*
X107010820Y-61883495D01*
X107010822Y-61883495D01*
X107125399Y-61852794D01*
X107162547Y-61831345D01*
X107195304Y-61818231D01*
X107210498Y-61814545D01*
X107280283Y-61817867D01*
X107290039Y-61821243D01*
X107329574Y-61843755D01*
X107334971Y-61848320D01*
X107344042Y-61850002D01*
X107349993Y-61853223D01*
X107426113Y-61897172D01*
X107540690Y-61927873D01*
X107540693Y-61927873D01*
X107659305Y-61927873D01*
X107659308Y-61927873D01*
X107773885Y-61897172D01*
X107876612Y-61837862D01*
X107960488Y-61753986D01*
X107988790Y-61704963D01*
X107990499Y-61702792D01*
X108010600Y-61677229D01*
X108020649Y-61667647D01*
X108082750Y-61635633D01*
X108152300Y-61642273D01*
X108153486Y-61642748D01*
X108153830Y-61642886D01*
X108201444Y-61676800D01*
X108204725Y-61680587D01*
X108218392Y-61699780D01*
X108241427Y-61739676D01*
X108244966Y-61745806D01*
X108244969Y-61745810D01*
X108244971Y-61745813D01*
X108328847Y-61829689D01*
X108431574Y-61888999D01*
X108546151Y-61919700D01*
X108546154Y-61919700D01*
X108664766Y-61919700D01*
X108664769Y-61919700D01*
X108779346Y-61888999D01*
X108882073Y-61829689D01*
X108965949Y-61745813D01*
X108965953Y-61745806D01*
X108970899Y-61739362D01*
X108971308Y-61739676D01*
X108986287Y-61720629D01*
X108997602Y-61709840D01*
X109059692Y-61677827D01*
X109065682Y-61676673D01*
X109119104Y-61678101D01*
X109119455Y-61678189D01*
X109119455Y-61678187D01*
X109133676Y-61681728D01*
X109135787Y-61682274D01*
X109203805Y-61700500D01*
X110958494Y-61700500D01*
X110989572Y-61704968D01*
X110993426Y-61705522D01*
X111000188Y-61707507D01*
X111013560Y-61711434D01*
X111065519Y-61741948D01*
X111070313Y-61746657D01*
X111086520Y-61766226D01*
X111105445Y-61794550D01*
X111105448Y-61794553D01*
X111140884Y-61818230D01*
X111171769Y-61838867D01*
X111171770Y-61838868D01*
X111230247Y-61850499D01*
X111230250Y-61850500D01*
X111230252Y-61850500D01*
X111230288Y-61850500D01*
X111769750Y-61850500D01*
X111773873Y-61850500D01*
X111781732Y-61848116D01*
X111801381Y-61844208D01*
X111816258Y-61841249D01*
X111822354Y-61840648D01*
X111822386Y-61840639D01*
X111833311Y-61837902D01*
X111843515Y-61828654D01*
X111894552Y-61794552D01*
X111938867Y-61728231D01*
X111938867Y-61728229D01*
X111938868Y-61728229D01*
X111941030Y-61717355D01*
X111941166Y-61717090D01*
X111941249Y-61716256D01*
X111942209Y-61711433D01*
X111950072Y-61671896D01*
X111950500Y-61669931D01*
X111950500Y-61669702D01*
X112250000Y-61669702D01*
X112261602Y-61728033D01*
X112261603Y-61728034D01*
X112264495Y-61733445D01*
X112268388Y-61738189D01*
X112305807Y-61794191D01*
X112327423Y-61808634D01*
X112371965Y-61838396D01*
X112371966Y-61838397D01*
X112430297Y-61849999D01*
X112430301Y-61850000D01*
X112450000Y-61850000D01*
X112450000Y-61650000D01*
X112250000Y-61650000D01*
X112250000Y-61669702D01*
X111950500Y-61669702D01*
X111950500Y-61236828D01*
X111955523Y-61201892D01*
X111955557Y-61201778D01*
X111959927Y-61186893D01*
X111997672Y-61128143D01*
X111999041Y-61126956D01*
X112053920Y-61099476D01*
X112061479Y-61097832D01*
X112087832Y-61094999D01*
X112125807Y-61094999D01*
X112154278Y-61099092D01*
X112160739Y-61100020D01*
X112185983Y-61107433D01*
X112238729Y-61138729D01*
X112250000Y-61150000D01*
X112401447Y-61150000D01*
X112401447Y-61149999D01*
X112208350Y-60956902D01*
X112950000Y-60956902D01*
X112950000Y-60991447D01*
X112979095Y-61020542D01*
X112992969Y-61045950D01*
X112992970Y-61045953D01*
X112995131Y-61049911D01*
X113009983Y-61118171D01*
X113009854Y-61119977D01*
X112990485Y-61178181D01*
X112986302Y-61184690D01*
X112969668Y-61205331D01*
X112950000Y-61224998D01*
X112950000Y-61225000D01*
X112950000Y-61850000D01*
X112969657Y-61850000D01*
X112969699Y-61850000D01*
X112969702Y-61849999D01*
X113028033Y-61838397D01*
X113028034Y-61838396D01*
X113094190Y-61794192D01*
X113128597Y-61742697D01*
X113152172Y-61716454D01*
X113162830Y-61707546D01*
X113226893Y-61679664D01*
X113295862Y-61690843D01*
X113295865Y-61690844D01*
X113299261Y-61692469D01*
X113342030Y-61726196D01*
X113342787Y-61727129D01*
X113353882Y-61743255D01*
X113390086Y-61805961D01*
X113402006Y-61826606D01*
X113402009Y-61826610D01*
X113402011Y-61826613D01*
X113485887Y-61910489D01*
X113588614Y-61969799D01*
X113703191Y-62000500D01*
X113703194Y-62000500D01*
X113821806Y-62000500D01*
X113821809Y-62000500D01*
X113936386Y-61969799D01*
X114039113Y-61910489D01*
X114122989Y-61826613D01*
X114182299Y-61723886D01*
X114213000Y-61609309D01*
X114213000Y-61490691D01*
X114182299Y-61376114D01*
X114122989Y-61273387D01*
X114039113Y-61189511D01*
X113936386Y-61130201D01*
X113821809Y-61099500D01*
X113821806Y-61099500D01*
X113703191Y-61099500D01*
X113612228Y-61123873D01*
X113612223Y-61123874D01*
X113588614Y-61130201D01*
X113588612Y-61130201D01*
X113588612Y-61130202D01*
X113567447Y-61142421D01*
X113567439Y-61142425D01*
X113485886Y-61189511D01*
X113485878Y-61189517D01*
X113402017Y-61273378D01*
X113402014Y-61273382D01*
X113402001Y-61273403D01*
X113390304Y-61293665D01*
X113378775Y-61305134D01*
X113372216Y-61317699D01*
X113368477Y-61321418D01*
X113360291Y-61329222D01*
X113348407Y-61335347D01*
X113344361Y-61339373D01*
X113335446Y-61344459D01*
X113326710Y-61346530D01*
X113298186Y-61361233D01*
X113274327Y-61358952D01*
X113267462Y-61360581D01*
X113258550Y-61357445D01*
X113228633Y-61354586D01*
X113210978Y-61340705D01*
X113201553Y-61337389D01*
X113193347Y-61326844D01*
X113173744Y-61311431D01*
X113173386Y-61310928D01*
X113164762Y-61290106D01*
X113158646Y-61282246D01*
X113157848Y-61273413D01*
X113152082Y-61259491D01*
X113151710Y-61257274D01*
X113150000Y-61236754D01*
X113150000Y-61132069D01*
X113150000Y-61130301D01*
X113149999Y-61130297D01*
X113138397Y-61071966D01*
X113138396Y-61071965D01*
X113108634Y-61027423D01*
X113094191Y-61005807D01*
X113038189Y-60968388D01*
X113033445Y-60964495D01*
X113028034Y-60961603D01*
X113028033Y-60961602D01*
X112969702Y-60950000D01*
X112969700Y-60950000D01*
X112961085Y-60950000D01*
X112955203Y-60950000D01*
X112950000Y-60956902D01*
X112208350Y-60956902D01*
X111182766Y-59931319D01*
X111146445Y-59894998D01*
X111853553Y-59894998D01*
X111853553Y-59895000D01*
X112758069Y-60799518D01*
X112758069Y-60799517D01*
X112758069Y-60799516D01*
X112758070Y-60799518D01*
X112766680Y-60788096D01*
X112787148Y-60729606D01*
X112787150Y-60729595D01*
X112789999Y-60699207D01*
X112789999Y-60219702D01*
X114700000Y-60219702D01*
X114711602Y-60278033D01*
X114711603Y-60278034D01*
X114732451Y-60309236D01*
X114732452Y-60309237D01*
X114755807Y-60344191D01*
X114766091Y-60351062D01*
X114821965Y-60388396D01*
X114821966Y-60388397D01*
X114880297Y-60399999D01*
X114880301Y-60400000D01*
X114900000Y-60400000D01*
X115400000Y-60400000D01*
X115419657Y-60400000D01*
X115419699Y-60400000D01*
X115419702Y-60399999D01*
X115478033Y-60388397D01*
X115478034Y-60388396D01*
X115544191Y-60344191D01*
X115588396Y-60278034D01*
X115588397Y-60278033D01*
X115599999Y-60219702D01*
X115600000Y-60219699D01*
X115600000Y-60200000D01*
X115400000Y-60200000D01*
X115400000Y-60400000D01*
X114900000Y-60400000D01*
X114900000Y-60200000D01*
X114711864Y-60200000D01*
X114700000Y-60200000D01*
X114700000Y-60219702D01*
X112789999Y-60219702D01*
X112789999Y-59680297D01*
X114700000Y-59680297D01*
X114700000Y-59700000D01*
X114900000Y-59700000D01*
X115400000Y-59700000D01*
X115600000Y-59700000D01*
X115600000Y-59680300D01*
X115599999Y-59680298D01*
X115599989Y-59680247D01*
X115899500Y-59680247D01*
X115899500Y-60219752D01*
X115911131Y-60278229D01*
X115911132Y-60278230D01*
X115914024Y-60283641D01*
X115917917Y-60288385D01*
X115926987Y-60301959D01*
X115955447Y-60344552D01*
X116021769Y-60388867D01*
X116021770Y-60388868D01*
X116080247Y-60400499D01*
X116080250Y-60400500D01*
X116080252Y-60400500D01*
X116251805Y-60400500D01*
X116283897Y-60404724D01*
X116315691Y-60413244D01*
X116434307Y-60413244D01*
X116434309Y-60413244D01*
X116466102Y-60404724D01*
X116494450Y-60400557D01*
X116496336Y-60400500D01*
X116619748Y-60400500D01*
X116619750Y-60400500D01*
X116619751Y-60400499D01*
X116634568Y-60397552D01*
X116666258Y-60391249D01*
X116672354Y-60390648D01*
X116672386Y-60390639D01*
X116683311Y-60387902D01*
X116693515Y-60378654D01*
X116744552Y-60344552D01*
X116788867Y-60278231D01*
X116788867Y-60278229D01*
X116788868Y-60278229D01*
X116791030Y-60267355D01*
X116791166Y-60267090D01*
X116791249Y-60266256D01*
X116791880Y-60263088D01*
X116800072Y-60221896D01*
X116800500Y-60219931D01*
X116800500Y-60139802D01*
X116801559Y-60123630D01*
X116803665Y-60107632D01*
X116806828Y-60091736D01*
X116814342Y-60063695D01*
X116825500Y-60022053D01*
X116825500Y-59903435D01*
X116806828Y-59833749D01*
X116803664Y-59817841D01*
X116801561Y-59801867D01*
X116800500Y-59785682D01*
X116800500Y-59680063D01*
X116800069Y-59678081D01*
X116788868Y-59621770D01*
X116785975Y-59616358D01*
X116782081Y-59611613D01*
X116771862Y-59596319D01*
X116744552Y-59555447D01*
X116702089Y-59527074D01*
X116688385Y-59517917D01*
X116683641Y-59514024D01*
X116678230Y-59511132D01*
X116678229Y-59511131D01*
X116619752Y-59499500D01*
X116619750Y-59499500D01*
X116080249Y-59499500D01*
X116080247Y-59499500D01*
X116021770Y-59511131D01*
X116021769Y-59511131D01*
X116021768Y-59511132D01*
X116021765Y-59511133D01*
X116021759Y-59511138D01*
X115955447Y-59555447D01*
X115911138Y-59621759D01*
X115911133Y-59621765D01*
X115911132Y-59621768D01*
X115911132Y-59621769D01*
X115911131Y-59621770D01*
X115899500Y-59680247D01*
X115599989Y-59680247D01*
X115588397Y-59621966D01*
X115588396Y-59621965D01*
X115588395Y-59621964D01*
X115585503Y-59616553D01*
X115581610Y-59611809D01*
X115544191Y-59555807D01*
X115488189Y-59518388D01*
X115483445Y-59514495D01*
X115478034Y-59511603D01*
X115478033Y-59511602D01*
X115419702Y-59500000D01*
X115419700Y-59500000D01*
X115400000Y-59500000D01*
X115400000Y-59700000D01*
X114900000Y-59700000D01*
X114900000Y-59500000D01*
X114880299Y-59500000D01*
X114880297Y-59500000D01*
X114821966Y-59511602D01*
X114821965Y-59511602D01*
X114821964Y-59511603D01*
X114816554Y-59514494D01*
X114811810Y-59518388D01*
X114755808Y-59555808D01*
X114728738Y-59596319D01*
X114728737Y-59596322D01*
X114711603Y-59621965D01*
X114711602Y-59621966D01*
X114700000Y-59680297D01*
X112789999Y-59680297D01*
X112789999Y-59090803D01*
X112787148Y-59060394D01*
X112768447Y-59006950D01*
X112765338Y-58988657D01*
X112761487Y-58987061D01*
X111853553Y-59894998D01*
X111146445Y-59894998D01*
X110238510Y-58987063D01*
X110238509Y-58987063D01*
X110223342Y-59030409D01*
X110214119Y-59059733D01*
X110199107Y-59091159D01*
X110198783Y-59091645D01*
X110192292Y-59101334D01*
X110192043Y-59101787D01*
X110190313Y-59104392D01*
X110165615Y-59125137D01*
X110144617Y-59144297D01*
X110145136Y-59145249D01*
X110143443Y-59146171D01*
X110141786Y-59146881D01*
X110141457Y-59147182D01*
X110140249Y-59147772D01*
X110140155Y-59147581D01*
X110137584Y-59148684D01*
X110136813Y-59149332D01*
X110135758Y-59149467D01*
X110122170Y-59155296D01*
X110101637Y-59161912D01*
X109814287Y-59449262D01*
X109814286Y-59449265D01*
X109786032Y-59470416D01*
X109776108Y-59475835D01*
X109707835Y-59490687D01*
X109642370Y-59466271D01*
X109600499Y-59410337D01*
X109600495Y-59410328D01*
X109597815Y-59403141D01*
X109590000Y-59359816D01*
X109590000Y-59035638D01*
X109595022Y-59000705D01*
X109596829Y-58994552D01*
X109602434Y-58975460D01*
X109633728Y-58922718D01*
X109903947Y-58652500D01*
X109903946Y-58652499D01*
X109903947Y-58652499D01*
X109903947Y-58648928D01*
X109893433Y-58634883D01*
X109879437Y-58609252D01*
X109864968Y-58562973D01*
X109859989Y-58516262D01*
X109860441Y-58503905D01*
X109860146Y-58503917D01*
X109859954Y-58499119D01*
X109860341Y-58495964D01*
X109859855Y-58494315D01*
X109861079Y-58486496D01*
X109861281Y-58481003D01*
X109862037Y-58476834D01*
X109862578Y-58476932D01*
X109863044Y-58473956D01*
X109864835Y-58459374D01*
X109865309Y-58457750D01*
X109865743Y-58456406D01*
X109865809Y-58456040D01*
X109866660Y-58453130D01*
X109866939Y-58452694D01*
X109867008Y-58452481D01*
X109867064Y-58452499D01*
X109884260Y-58425667D01*
X109897918Y-58402421D01*
X109896948Y-58401516D01*
X109898430Y-58399926D01*
X109899910Y-58399031D01*
X109900795Y-58397526D01*
X109900810Y-58397511D01*
X109902786Y-58395656D01*
X109903207Y-58396104D01*
X109904361Y-58394305D01*
X109918312Y-58387912D01*
X109956485Y-58364848D01*
X109996647Y-58353885D01*
X110002025Y-58351797D01*
X110073886Y-58332543D01*
X110176613Y-58273233D01*
X110260489Y-58189357D01*
X110319799Y-58086630D01*
X110342657Y-58001320D01*
X110343434Y-57998554D01*
X110353507Y-57964248D01*
X110353509Y-57964249D01*
X110359928Y-57942389D01*
X110364546Y-57935204D01*
X110397696Y-57883620D01*
X110399071Y-57882429D01*
X110453920Y-57854976D01*
X110461479Y-57853332D01*
X110487832Y-57850499D01*
X111427130Y-57850499D01*
X111427131Y-57850499D01*
X111427132Y-57850499D01*
X111487340Y-57838523D01*
X111495670Y-57837161D01*
X111519855Y-57834047D01*
X111519950Y-57834522D01*
X111522980Y-57834196D01*
X111525237Y-57833354D01*
X111534497Y-57832162D01*
X111562875Y-57836670D01*
X111582487Y-57837718D01*
X111582828Y-57836152D01*
X111583445Y-57836286D01*
X111586460Y-57837931D01*
X111591565Y-57838204D01*
X111591581Y-57838209D01*
X111597761Y-57840389D01*
X111597151Y-57842116D01*
X111603501Y-57843125D01*
X111615324Y-57853679D01*
X111644779Y-57869750D01*
X111700574Y-57925545D01*
X111721723Y-57953796D01*
X111734331Y-57976885D01*
X111749500Y-58036314D01*
X111749500Y-58269752D01*
X111761131Y-58328229D01*
X111761132Y-58328230D01*
X111761132Y-58328231D01*
X111761134Y-58328233D01*
X111805447Y-58394552D01*
X111871765Y-58438864D01*
X111871767Y-58438866D01*
X111871769Y-58438867D01*
X111871770Y-58438868D01*
X111907146Y-58445904D01*
X111922360Y-58453648D01*
X111937967Y-58456393D01*
X111940428Y-58457645D01*
X111945842Y-58460477D01*
X111957077Y-58471318D01*
X111967047Y-58476393D01*
X111970817Y-58479872D01*
X111977502Y-58491027D01*
X111996121Y-58508993D01*
X112001232Y-58530622D01*
X112006734Y-58539803D01*
X112006344Y-58552256D01*
X112012189Y-58576990D01*
X112004926Y-58597577D01*
X112004549Y-58609638D01*
X111996588Y-58621211D01*
X111988945Y-58642880D01*
X111973357Y-58654989D01*
X111964955Y-58667207D01*
X111949039Y-58673882D01*
X111933777Y-58685739D01*
X111932133Y-58686386D01*
X111908566Y-58690856D01*
X111900523Y-58694230D01*
X111895468Y-58693341D01*
X111886723Y-58695000D01*
X110653551Y-58695000D01*
X111291449Y-59332896D01*
X111500000Y-59541447D01*
X111500001Y-59541447D01*
X112346446Y-58694999D01*
X112346127Y-58694230D01*
X112328026Y-58650529D01*
X112323008Y-58638415D01*
X112314283Y-58604231D01*
X112312798Y-58590419D01*
X112325205Y-58521665D01*
X112372814Y-58470531D01*
X112377347Y-58467841D01*
X112440594Y-58450500D01*
X112473873Y-58450500D01*
X112481732Y-58448116D01*
X112496021Y-58445274D01*
X112505504Y-58443388D01*
X112516258Y-58441249D01*
X112522354Y-58440648D01*
X112522386Y-58440639D01*
X112533311Y-58437902D01*
X112543515Y-58428654D01*
X112594552Y-58394552D01*
X112638867Y-58328231D01*
X112638867Y-58328229D01*
X112638868Y-58328229D01*
X112641030Y-58317355D01*
X112641166Y-58317090D01*
X112641249Y-58316256D01*
X112641489Y-58315053D01*
X112650072Y-58271896D01*
X112650500Y-58269931D01*
X112650500Y-58269702D01*
X112950000Y-58269702D01*
X112961602Y-58328033D01*
X112961603Y-58328034D01*
X112964495Y-58333445D01*
X112968388Y-58338189D01*
X113005807Y-58394191D01*
X113018125Y-58402421D01*
X113071965Y-58438396D01*
X113071966Y-58438397D01*
X113130297Y-58449999D01*
X113130301Y-58450000D01*
X113150000Y-58450000D01*
X113150000Y-58250000D01*
X113650000Y-58250000D01*
X113650000Y-58450000D01*
X113666626Y-58450000D01*
X113669699Y-58450000D01*
X113669702Y-58449999D01*
X113728033Y-58438397D01*
X113728035Y-58438396D01*
X113794905Y-58393713D01*
X113804901Y-58389328D01*
X113808687Y-58388841D01*
X113817667Y-58384545D01*
X113821254Y-58383421D01*
X113832388Y-58379934D01*
X113902246Y-58378685D01*
X113958418Y-58411898D01*
X113966213Y-58419928D01*
X113984626Y-58444297D01*
X114039506Y-58539350D01*
X114039509Y-58539354D01*
X114039511Y-58539357D01*
X114123387Y-58623233D01*
X114226114Y-58682543D01*
X114340691Y-58713244D01*
X114340694Y-58713244D01*
X114459306Y-58713244D01*
X114459309Y-58713244D01*
X114573886Y-58682543D01*
X114676613Y-58623233D01*
X114699716Y-58600129D01*
X114727964Y-58578983D01*
X114741688Y-58571489D01*
X114809946Y-58556638D01*
X114811756Y-58556767D01*
X114869953Y-58576133D01*
X114876471Y-58580322D01*
X114897106Y-58596952D01*
X114923387Y-58623233D01*
X115026114Y-58682543D01*
X115140691Y-58713244D01*
X115140694Y-58713244D01*
X115259306Y-58713244D01*
X115259309Y-58713244D01*
X115373886Y-58682543D01*
X115476613Y-58623233D01*
X115560489Y-58539357D01*
X115619799Y-58436630D01*
X115650500Y-58322053D01*
X115650500Y-58203435D01*
X115619799Y-58088858D01*
X115560489Y-57986131D01*
X115476613Y-57902255D01*
X115373886Y-57842945D01*
X115259309Y-57812244D01*
X115259306Y-57812244D01*
X115140691Y-57812244D01*
X115049728Y-57836617D01*
X115049723Y-57836618D01*
X115026114Y-57842945D01*
X115026112Y-57842945D01*
X115026112Y-57842946D01*
X115004947Y-57855165D01*
X115004939Y-57855169D01*
X114923384Y-57902256D01*
X114923380Y-57902259D01*
X114900287Y-57925352D01*
X114900286Y-57925355D01*
X114872031Y-57946506D01*
X114858312Y-57953997D01*
X114790051Y-57968849D01*
X114788245Y-57968720D01*
X114730044Y-57949352D01*
X114723529Y-57945165D01*
X114702893Y-57928535D01*
X114676615Y-57902257D01*
X114676613Y-57902255D01*
X114573886Y-57842945D01*
X114459309Y-57812244D01*
X114459306Y-57812244D01*
X114340691Y-57812244D01*
X114249728Y-57836617D01*
X114249723Y-57836618D01*
X114226114Y-57842945D01*
X114226112Y-57842945D01*
X114226112Y-57842946D01*
X114204947Y-57855165D01*
X114204939Y-57855169D01*
X114123386Y-57902255D01*
X114123378Y-57902261D01*
X114039517Y-57986122D01*
X114039514Y-57986126D01*
X114039513Y-57986128D01*
X114039511Y-57986131D01*
X114027696Y-58006595D01*
X113980199Y-58088860D01*
X113976400Y-58103039D01*
X113976400Y-58103043D01*
X113966262Y-58140874D01*
X113952372Y-58173311D01*
X113944236Y-58186660D01*
X113931036Y-58198660D01*
X113929895Y-58200533D01*
X113927924Y-58201490D01*
X113892544Y-58233657D01*
X113884571Y-58237531D01*
X113830379Y-58250000D01*
X113650000Y-58250000D01*
X113150000Y-58250000D01*
X112950000Y-58250000D01*
X112950000Y-58269702D01*
X112650500Y-58269702D01*
X112650500Y-57730067D01*
X112650068Y-57728080D01*
X112647791Y-57716630D01*
X112638868Y-57671770D01*
X112638867Y-57671769D01*
X112638867Y-57671766D01*
X112637099Y-57665938D01*
X112637343Y-57665863D01*
X112631520Y-57645382D01*
X112630100Y-57636619D01*
X112630091Y-57636591D01*
X112629381Y-57632220D01*
X112633191Y-57601773D01*
X112634818Y-57571137D01*
X112637490Y-57567427D01*
X112638058Y-57562891D01*
X112657723Y-57539338D01*
X112675656Y-57514445D01*
X112679909Y-57512769D01*
X112682840Y-57509259D01*
X112712115Y-57500078D01*
X112740661Y-57488830D01*
X112746361Y-57489338D01*
X112749508Y-57488352D01*
X112756374Y-57490232D01*
X112784580Y-57492749D01*
X112794591Y-57495495D01*
X112796029Y-57495890D01*
X112832113Y-57512370D01*
X112846920Y-57522264D01*
X112856967Y-57534287D01*
X112891668Y-57552432D01*
X112904503Y-57564813D01*
X112920306Y-57573079D01*
X112941946Y-57600933D01*
X112941954Y-57600940D01*
X112941960Y-57600950D01*
X112942853Y-57602518D01*
X112959082Y-57661658D01*
X112959221Y-57669399D01*
X112956859Y-57695812D01*
X112950000Y-57730299D01*
X112950000Y-57730301D01*
X112950000Y-57730303D01*
X112950000Y-57750000D01*
X113850000Y-57750000D01*
X113850000Y-57730301D01*
X113849999Y-57730297D01*
X113838397Y-57671966D01*
X113838396Y-57671965D01*
X113802349Y-57618017D01*
X113794191Y-57605807D01*
X113753216Y-57578429D01*
X113753181Y-57578406D01*
X113728034Y-57561603D01*
X113727468Y-57561368D01*
X113717615Y-57554840D01*
X113718306Y-57553172D01*
X113703019Y-57545168D01*
X113697695Y-57541641D01*
X113679179Y-57519659D01*
X113658432Y-57499633D01*
X113657530Y-57498049D01*
X113655866Y-57491982D01*
X113652683Y-57488203D01*
X113650760Y-57473363D01*
X113641303Y-57438876D01*
X113641167Y-57431154D01*
X113643530Y-57404788D01*
X113650500Y-57369748D01*
X113650500Y-56830252D01*
X113650500Y-56830249D01*
X113650499Y-56830247D01*
X113638868Y-56771770D01*
X113638867Y-56771769D01*
X113620775Y-56744693D01*
X113606454Y-56723260D01*
X113594552Y-56705447D01*
X113551399Y-56676613D01*
X113538385Y-56667917D01*
X113536243Y-56665414D01*
X113528230Y-56661132D01*
X113528229Y-56661131D01*
X113469752Y-56649500D01*
X113469750Y-56649500D01*
X112930249Y-56649500D01*
X112930247Y-56649500D01*
X112871770Y-56661131D01*
X112871769Y-56661131D01*
X112871768Y-56661132D01*
X112866358Y-56664023D01*
X112861615Y-56667916D01*
X112861614Y-56667917D01*
X112833717Y-56686558D01*
X112820398Y-56692931D01*
X112820542Y-56693189D01*
X112816039Y-56695707D01*
X112811069Y-56697395D01*
X112801893Y-56701787D01*
X112797092Y-56703291D01*
X112796767Y-56702255D01*
X112781082Y-56707586D01*
X112781321Y-56708634D01*
X112775204Y-56710029D01*
X112774094Y-56709960D01*
X112773473Y-56710172D01*
X112771703Y-56710431D01*
X112771611Y-56709808D01*
X112756341Y-56708869D01*
X112737846Y-56712746D01*
X112707292Y-56705855D01*
X112705466Y-56705743D01*
X112703416Y-56704981D01*
X112697314Y-56702652D01*
X112697280Y-56702633D01*
X112694174Y-56701449D01*
X112669482Y-56688696D01*
X112638383Y-56667916D01*
X112633639Y-56664023D01*
X112628230Y-56661132D01*
X112628229Y-56661131D01*
X112569752Y-56649500D01*
X112569750Y-56649500D01*
X112103382Y-56649500D01*
X112084394Y-56648038D01*
X112077121Y-56646911D01*
X112072626Y-56644798D01*
X112068447Y-56644477D01*
X112065324Y-56643560D01*
X112065542Y-56642817D01*
X112049354Y-56639221D01*
X112046258Y-56637960D01*
X112043302Y-56636928D01*
X112043606Y-56636054D01*
X112035626Y-56631432D01*
X112025385Y-56629431D01*
X111996690Y-56608882D01*
X111995604Y-56607841D01*
X111974022Y-56580320D01*
X111965460Y-56565490D01*
X111965459Y-56565489D01*
X111960512Y-56559041D01*
X111961788Y-56558061D01*
X111956017Y-56553479D01*
X111942862Y-56527626D01*
X111942523Y-56527779D01*
X111942497Y-56527721D01*
X111942345Y-56526611D01*
X111940118Y-56522235D01*
X111939993Y-56522035D01*
X111939980Y-56521994D01*
X111939977Y-56521989D01*
X111938277Y-56517000D01*
X111938275Y-56516975D01*
X111938259Y-56516926D01*
X111938273Y-56516921D01*
X111937017Y-56487624D01*
X111933036Y-56458495D01*
X111935537Y-56453118D01*
X111935283Y-56447195D01*
X111950103Y-56421802D01*
X111962504Y-56395143D01*
X111967513Y-56391972D01*
X111970503Y-56386851D01*
X111996701Y-56373501D01*
X112013218Y-56363048D01*
X112012379Y-56360798D01*
X112017386Y-56358930D01*
X112017389Y-56358930D01*
X112020374Y-56357816D01*
X112031378Y-56355831D01*
X112032757Y-56355129D01*
X112034373Y-56355291D01*
X112046983Y-56353016D01*
X112050000Y-56350000D01*
X112050000Y-56041829D01*
X112050227Y-56040253D01*
X112055023Y-56006893D01*
X112059272Y-55992425D01*
X112059427Y-55991894D01*
X112097172Y-55933144D01*
X112097200Y-55933119D01*
X112097199Y-55933119D01*
X112098541Y-55931956D01*
X112153420Y-55904477D01*
X112160979Y-55902833D01*
X112187332Y-55900000D01*
X112408171Y-55900000D01*
X112443106Y-55905023D01*
X112458104Y-55909427D01*
X112516855Y-55947172D01*
X112516879Y-55947200D01*
X112516882Y-55947202D01*
X112516883Y-55947204D01*
X112518042Y-55948541D01*
X112545518Y-56003402D01*
X112547163Y-56010960D01*
X112550000Y-56037331D01*
X112550000Y-56350000D01*
X112569699Y-56350000D01*
X112569700Y-56350000D01*
X112574604Y-56349204D01*
X112577327Y-56348482D01*
X112628032Y-56338397D01*
X112665841Y-56313133D01*
X112685527Y-56302417D01*
X112694832Y-56298395D01*
X112697341Y-56298086D01*
X112697678Y-56297903D01*
X112702482Y-56296399D01*
X112702800Y-56297414D01*
X112702922Y-56297399D01*
X112718431Y-56292132D01*
X112718189Y-56291072D01*
X112721639Y-56290284D01*
X112723531Y-56290399D01*
X112726136Y-56289515D01*
X112727905Y-56289257D01*
X112728112Y-56290679D01*
X112747781Y-56291882D01*
X112764179Y-56289865D01*
X112771360Y-56293323D01*
X112785012Y-56294157D01*
X112785387Y-56292794D01*
X112790119Y-56294092D01*
X112790121Y-56294093D01*
X112795580Y-56295590D01*
X112831659Y-56312066D01*
X112861617Y-56332084D01*
X112866359Y-56335976D01*
X112871770Y-56338868D01*
X112922612Y-56348981D01*
X112925337Y-56349703D01*
X112930249Y-56350500D01*
X113469750Y-56350500D01*
X113473876Y-56350500D01*
X113481742Y-56348114D01*
X113484568Y-56347552D01*
X113516258Y-56341249D01*
X113522354Y-56340648D01*
X113522386Y-56340639D01*
X113522749Y-56340547D01*
X113522802Y-56340514D01*
X113522886Y-56340513D01*
X113533311Y-56337902D01*
X113543515Y-56328654D01*
X113594552Y-56294552D01*
X113638867Y-56228231D01*
X113638867Y-56228229D01*
X113638868Y-56228229D01*
X113641030Y-56217355D01*
X113641166Y-56217090D01*
X113641249Y-56216256D01*
X113641366Y-56215671D01*
X113650072Y-56171896D01*
X113650500Y-56169931D01*
X113650500Y-55829234D01*
X113652748Y-55813602D01*
X113655523Y-55794298D01*
X113659927Y-55779300D01*
X113697691Y-55720532D01*
X113697701Y-55720523D01*
X113704393Y-55714724D01*
X113753508Y-55688656D01*
X113823886Y-55669799D01*
X113926613Y-55610489D01*
X114010489Y-55526613D01*
X114069799Y-55423886D01*
X114100500Y-55309309D01*
X114100500Y-55190691D01*
X114069799Y-55076114D01*
X114010489Y-54973387D01*
X113926613Y-54889511D01*
X113823886Y-54830201D01*
X113709309Y-54799500D01*
X113709306Y-54799500D01*
X113590691Y-54799500D01*
X113499728Y-54823873D01*
X113499723Y-54823874D01*
X113476114Y-54830201D01*
X113476112Y-54830201D01*
X113476112Y-54830202D01*
X113454947Y-54842421D01*
X113454939Y-54842425D01*
X113373386Y-54889511D01*
X113373378Y-54889517D01*
X113289525Y-54973370D01*
X113289516Y-54973380D01*
X113289507Y-54973391D01*
X113289506Y-54973392D01*
X113261409Y-55022057D01*
X113261409Y-55022059D01*
X113239592Y-55049802D01*
X113225975Y-55062786D01*
X113169643Y-55093547D01*
X113159521Y-55096003D01*
X113130282Y-55099500D01*
X111810436Y-55099500D01*
X111773841Y-55109305D01*
X111773842Y-55109306D01*
X111734007Y-55119979D01*
X111684211Y-55148730D01*
X111684177Y-55148750D01*
X111682879Y-55149500D01*
X111679053Y-55151709D01*
X111658451Y-55163603D01*
X111657811Y-55162494D01*
X111634699Y-55174298D01*
X111634867Y-55174702D01*
X111630066Y-55176700D01*
X111629973Y-55176711D01*
X111629249Y-55177082D01*
X111622689Y-55179040D01*
X111622287Y-55177695D01*
X111613714Y-55178793D01*
X111600453Y-55184900D01*
X111569698Y-55184428D01*
X111568391Y-55184596D01*
X111568364Y-55184982D01*
X111566455Y-55184844D01*
X111565159Y-55185010D01*
X111562139Y-55184585D01*
X111561892Y-55184514D01*
X111561355Y-55184475D01*
X111557200Y-55183891D01*
X111556417Y-55183536D01*
X111555518Y-55183376D01*
X111555558Y-55183147D01*
X111539226Y-55175750D01*
X111513967Y-55167081D01*
X111513220Y-55168500D01*
X111507493Y-55165484D01*
X111507485Y-55165481D01*
X111427140Y-55149500D01*
X111427136Y-55149500D01*
X110072870Y-55149500D01*
X109992503Y-55165485D01*
X109992501Y-55165485D01*
X109992499Y-55165486D01*
X109992496Y-55165487D01*
X109979071Y-55174459D01*
X109966223Y-55181971D01*
X109957948Y-55186164D01*
X109918095Y-55198491D01*
X109910444Y-55199498D01*
X109834009Y-55219979D01*
X109800385Y-55239393D01*
X109782879Y-55249500D01*
X109782872Y-55249503D01*
X109782872Y-55249504D01*
X109775130Y-55253973D01*
X109775106Y-55253986D01*
X109773478Y-55254927D01*
X109773474Y-55254929D01*
X109770326Y-55256746D01*
X109765489Y-55259538D01*
X109765483Y-55259544D01*
X109324455Y-55700573D01*
X109303249Y-55716448D01*
X109296204Y-55721722D01*
X109273116Y-55734330D01*
X109213686Y-55749500D01*
X108610437Y-55749500D01*
X108573905Y-55759289D01*
X108534007Y-55769979D01*
X108532199Y-55771023D01*
X108532186Y-55771031D01*
X108491449Y-55794552D01*
X108491448Y-55794551D01*
X108465490Y-55809539D01*
X108441434Y-55833594D01*
X108432127Y-55840011D01*
X108428648Y-55841155D01*
X108421174Y-55846751D01*
X108411248Y-55852171D01*
X108342975Y-55867023D01*
X108277511Y-55842606D01*
X108235641Y-55786676D01*
X108235199Y-55785491D01*
X108230216Y-55715804D01*
X108231595Y-55710116D01*
X108250500Y-55639562D01*
X108250500Y-55560438D01*
X108250500Y-55538791D01*
X108251385Y-55533768D01*
X108250748Y-55530950D01*
X108255290Y-55511605D01*
X108257970Y-55496402D01*
X108259007Y-55493549D01*
X108262228Y-55485889D01*
X108264045Y-55479699D01*
X108265379Y-55476034D01*
X108275578Y-55462176D01*
X108294226Y-55430744D01*
X108475547Y-55249423D01*
X108503797Y-55228275D01*
X108526889Y-55215667D01*
X108586314Y-55200500D01*
X108609306Y-55200500D01*
X108609309Y-55200500D01*
X108723886Y-55169799D01*
X108826613Y-55110489D01*
X108910489Y-55026613D01*
X108969799Y-54923886D01*
X109000500Y-54809309D01*
X109000500Y-54690691D01*
X108969799Y-54576114D01*
X108910489Y-54473387D01*
X108826613Y-54389511D01*
X108723886Y-54330201D01*
X108609309Y-54299500D01*
X108609306Y-54299500D01*
X108490691Y-54299500D01*
X108399728Y-54323873D01*
X108399723Y-54323874D01*
X108376114Y-54330201D01*
X108376112Y-54330201D01*
X108376112Y-54330202D01*
X108354947Y-54342421D01*
X108354939Y-54342425D01*
X108273386Y-54389511D01*
X108273378Y-54389517D01*
X108189517Y-54473378D01*
X108189511Y-54473386D01*
X108141304Y-54556881D01*
X108141302Y-54556885D01*
X108132710Y-54571769D01*
X108130201Y-54576114D01*
X108099500Y-54690691D01*
X108099500Y-54690693D01*
X108099500Y-54721808D01*
X108095699Y-54736804D01*
X108094933Y-54738098D01*
X108094478Y-54741269D01*
X108093478Y-54744675D01*
X108063158Y-54791855D01*
X108060146Y-54796952D01*
X108059758Y-54797146D01*
X108055705Y-54803454D01*
X107992150Y-54832480D01*
X107922991Y-54822539D01*
X107870186Y-54776785D01*
X107850500Y-54709746D01*
X107850500Y-54640693D01*
X107850500Y-54640691D01*
X107819799Y-54526114D01*
X107760489Y-54423387D01*
X107676613Y-54339511D01*
X107573886Y-54280201D01*
X107459309Y-54249500D01*
X107459306Y-54249500D01*
X107340691Y-54249500D01*
X107249728Y-54273873D01*
X107249723Y-54273874D01*
X107226114Y-54280201D01*
X107226112Y-54280201D01*
X107226112Y-54280202D01*
X107204947Y-54292421D01*
X107204939Y-54292425D01*
X107123386Y-54339511D01*
X107123383Y-54339513D01*
X107112326Y-54350570D01*
X107112325Y-54350572D01*
X107112322Y-54350574D01*
X107084071Y-54371724D01*
X107060984Y-54384331D01*
X107001555Y-54399500D01*
X106023738Y-54399500D01*
X105947313Y-54419977D01*
X105947310Y-54419978D01*
X105878801Y-54459533D01*
X105878787Y-54459542D01*
X105878782Y-54459546D01*
X105321409Y-55016920D01*
X105306071Y-55025295D01*
X105293157Y-55038070D01*
X105287795Y-55040998D01*
X105270371Y-55044788D01*
X105260086Y-55050405D01*
X105248397Y-55049569D01*
X105219522Y-55055851D01*
X105191832Y-55045523D01*
X105190394Y-55045421D01*
X105189135Y-55044943D01*
X105184776Y-55043263D01*
X105183831Y-55042539D01*
X105154057Y-55031435D01*
X105133546Y-55004037D01*
X105129300Y-55000786D01*
X105127615Y-54996114D01*
X105112185Y-54975503D01*
X105110206Y-54947843D01*
X105105596Y-54935061D01*
X105108411Y-54922762D01*
X105107199Y-54905816D01*
X105108207Y-54901182D01*
X105120820Y-54868564D01*
X105121189Y-54866953D01*
X105121597Y-54866552D01*
X105121980Y-54865563D01*
X105141281Y-54832135D01*
X105180500Y-54685766D01*
X105180500Y-54534234D01*
X105141281Y-54387865D01*
X105141276Y-54387857D01*
X105127030Y-54363181D01*
X105065515Y-54256635D01*
X104958365Y-54149485D01*
X104958363Y-54149484D01*
X104958361Y-54149482D01*
X104871746Y-54099475D01*
X104827137Y-54073719D01*
X104703024Y-54040464D01*
X104703024Y-54040463D01*
X104680767Y-54034500D01*
X104680766Y-54034500D01*
X104529234Y-54034500D01*
X104382859Y-54073720D01*
X104382857Y-54073721D01*
X104251645Y-54149478D01*
X104251631Y-54149487D01*
X104144337Y-54256781D01*
X104083014Y-54290265D01*
X104013322Y-54285281D01*
X103981336Y-54267602D01*
X103980753Y-54267156D01*
X103900940Y-54222511D01*
X103900935Y-54222509D01*
X103833903Y-54202826D01*
X103833899Y-54202825D01*
X103833898Y-54202825D01*
X103776000Y-54194500D01*
X103775996Y-54194500D01*
X103774000Y-54194500D01*
X103773356Y-54194310D01*
X103771581Y-54194184D01*
X103771608Y-54193797D01*
X103706961Y-54174815D01*
X103661206Y-54122011D01*
X103650000Y-54070500D01*
X103650000Y-53887500D01*
X103291830Y-53887500D01*
X103291825Y-53887499D01*
X103291823Y-53887500D01*
X103256889Y-53882475D01*
X103241890Y-53878070D01*
X103183144Y-53840327D01*
X103183115Y-53840293D01*
X103183114Y-53840293D01*
X103183113Y-53840291D01*
X103181957Y-53838958D01*
X103154477Y-53784083D01*
X103152832Y-53776521D01*
X103150000Y-53750168D01*
X103150000Y-53529329D01*
X103150239Y-53527670D01*
X103155023Y-53494393D01*
X103156126Y-53490639D01*
X103159427Y-53479394D01*
X103197172Y-53420644D01*
X103197200Y-53420619D01*
X103197199Y-53420619D01*
X103198541Y-53419456D01*
X103253420Y-53391977D01*
X103260979Y-53390333D01*
X103287332Y-53387500D01*
X103649999Y-53387500D01*
X103649999Y-53292329D01*
X103650306Y-53290197D01*
X103655022Y-53257393D01*
X103655045Y-53257317D01*
X103659426Y-53242394D01*
X103697171Y-53183644D01*
X103697199Y-53183619D01*
X103697198Y-53183619D01*
X103698540Y-53182456D01*
X103753419Y-53154977D01*
X103760978Y-53153333D01*
X103787331Y-53150500D01*
X104608494Y-53150500D01*
X104636964Y-53154593D01*
X104643426Y-53155522D01*
X104650188Y-53157507D01*
X104663560Y-53161434D01*
X104715519Y-53191948D01*
X104720313Y-53196657D01*
X104736520Y-53216226D01*
X104755445Y-53244550D01*
X104755448Y-53244553D01*
X104797831Y-53272872D01*
X104821769Y-53288867D01*
X104821770Y-53288868D01*
X104880247Y-53300499D01*
X104880250Y-53300500D01*
X104880252Y-53300500D01*
X104880288Y-53300500D01*
X105719750Y-53300500D01*
X105723873Y-53300500D01*
X105731732Y-53298116D01*
X105739596Y-53296552D01*
X105749627Y-53294557D01*
X105766258Y-53291249D01*
X105772354Y-53290648D01*
X105772386Y-53290639D01*
X105783312Y-53287902D01*
X105793519Y-53278651D01*
X105844552Y-53244552D01*
X105844554Y-53244548D01*
X105850071Y-53239033D01*
X105858234Y-53231568D01*
X105871226Y-53220710D01*
X105935289Y-53192823D01*
X106004259Y-53203998D01*
X106004266Y-53204002D01*
X106008987Y-53206261D01*
X106045134Y-53237586D01*
X106046808Y-53235913D01*
X106055443Y-53244549D01*
X106055446Y-53244551D01*
X106055447Y-53244552D01*
X106111619Y-53282085D01*
X106116359Y-53285976D01*
X106121770Y-53288868D01*
X106172612Y-53298981D01*
X106175337Y-53299703D01*
X106180249Y-53300500D01*
X107019750Y-53300500D01*
X107023873Y-53300500D01*
X107031732Y-53298116D01*
X107039596Y-53296552D01*
X107049627Y-53294557D01*
X107066258Y-53291249D01*
X107072354Y-53290648D01*
X107072386Y-53290639D01*
X107083311Y-53287902D01*
X107093515Y-53278654D01*
X107144552Y-53244552D01*
X107188867Y-53178231D01*
X107188867Y-53178229D01*
X107188868Y-53178229D01*
X107191030Y-53167356D01*
X107191167Y-53167089D01*
X107191249Y-53166258D01*
X107197552Y-53134568D01*
X107197553Y-53134568D01*
X107197553Y-53134562D01*
X107200500Y-53119748D01*
X107200500Y-52280252D01*
X107200500Y-52280249D01*
X107200499Y-52280247D01*
X107188868Y-52221770D01*
X107188867Y-52221769D01*
X107171645Y-52195995D01*
X107155033Y-52171133D01*
X107144552Y-52155447D01*
X107108146Y-52131121D01*
X107088385Y-52117917D01*
X107083641Y-52114024D01*
X107078230Y-52111132D01*
X107078229Y-52111131D01*
X107019752Y-52099500D01*
X107019750Y-52099500D01*
X106180249Y-52099500D01*
X106180247Y-52099500D01*
X106121770Y-52111131D01*
X106121769Y-52111131D01*
X106121768Y-52111132D01*
X106117826Y-52113238D01*
X106115610Y-52115132D01*
X106113634Y-52116567D01*
X106055446Y-52155448D01*
X106053101Y-52158959D01*
X106038538Y-52171128D01*
X106038533Y-52171133D01*
X106028773Y-52179290D01*
X105964709Y-52207175D01*
X105895739Y-52195999D01*
X105895732Y-52195995D01*
X105891007Y-52193734D01*
X105854860Y-52162411D01*
X105853189Y-52164083D01*
X105844554Y-52155448D01*
X105788385Y-52117917D01*
X105783641Y-52114024D01*
X105778230Y-52111132D01*
X105778229Y-52111131D01*
X105719752Y-52099500D01*
X105719750Y-52099500D01*
X104892330Y-52099500D01*
X104892325Y-52099499D01*
X104892323Y-52099500D01*
X104857389Y-52094475D01*
X104842390Y-52090070D01*
X104783644Y-52052327D01*
X104783615Y-52052293D01*
X104783614Y-52052293D01*
X104783613Y-52052291D01*
X104782457Y-52050958D01*
X104754977Y-51996083D01*
X104753332Y-51988521D01*
X104750500Y-51962168D01*
X104750500Y-51730067D01*
X104750072Y-51728101D01*
X104741248Y-51683740D01*
X104740649Y-51677654D01*
X104740623Y-51677568D01*
X104737689Y-51665848D01*
X104737600Y-51665401D01*
X104735923Y-51654439D01*
X104734046Y-51636977D01*
X104736535Y-51623178D01*
X104734171Y-51609362D01*
X104742616Y-51589480D01*
X104746453Y-51568218D01*
X104756007Y-51557956D01*
X104761488Y-51545054D01*
X104779343Y-51532892D01*
X104794065Y-51517082D01*
X104808808Y-51512824D01*
X104819236Y-51505723D01*
X104854020Y-51499769D01*
X104865103Y-51499473D01*
X104879822Y-51500000D01*
X104880303Y-51500000D01*
X105050000Y-51500000D01*
X105550000Y-51500000D01*
X105719657Y-51500000D01*
X105719699Y-51500000D01*
X105719702Y-51499999D01*
X105778033Y-51488397D01*
X105778034Y-51488396D01*
X105844191Y-51444192D01*
X105844193Y-51444188D01*
X105851162Y-51437221D01*
X105859315Y-51429764D01*
X105871224Y-51419811D01*
X105887568Y-51412695D01*
X105901250Y-51401261D01*
X105918939Y-51399038D01*
X105935284Y-51391923D01*
X105952883Y-51394773D01*
X105970575Y-51392551D01*
X106004247Y-51403092D01*
X106008982Y-51405357D01*
X106045615Y-51437105D01*
X106047169Y-51435552D01*
X106055807Y-51444191D01*
X106055808Y-51444192D01*
X106087883Y-51465623D01*
X106111810Y-51481611D01*
X106116553Y-51485503D01*
X106121966Y-51488397D01*
X106177342Y-51499412D01*
X106179557Y-51499908D01*
X106180299Y-51500000D01*
X106180301Y-51500000D01*
X106350000Y-51500000D01*
X106850000Y-51500000D01*
X107019657Y-51500000D01*
X107019699Y-51500000D01*
X107019702Y-51499999D01*
X107078033Y-51488397D01*
X107078034Y-51488396D01*
X107144191Y-51444191D01*
X107188396Y-51378034D01*
X107188397Y-51378033D01*
X107199999Y-51319702D01*
X107200000Y-51319699D01*
X107200000Y-51150000D01*
X106850000Y-51150000D01*
X106850000Y-51500000D01*
X106350000Y-51500000D01*
X106350000Y-51150000D01*
X105550000Y-51150000D01*
X105550000Y-51500000D01*
X105050000Y-51500000D01*
X105050000Y-51150000D01*
X104711830Y-51150000D01*
X104711825Y-51149999D01*
X104711823Y-51150000D01*
X104676889Y-51144975D01*
X104661890Y-51140570D01*
X104603153Y-51102838D01*
X104601964Y-51101467D01*
X104586904Y-51071396D01*
X104585216Y-51072319D01*
X104576671Y-51056671D01*
X104570000Y-51050000D01*
X104441830Y-51050000D01*
X104441825Y-51049999D01*
X104441823Y-51050000D01*
X104406889Y-51044975D01*
X104391890Y-51040570D01*
X104333144Y-51002827D01*
X104333115Y-51002793D01*
X104333114Y-51002793D01*
X104333113Y-51002791D01*
X104331957Y-51001458D01*
X104304477Y-50946583D01*
X104302832Y-50939021D01*
X104300000Y-50912668D01*
X104300000Y-50691829D01*
X104301314Y-50682693D01*
X104305023Y-50656893D01*
X104307048Y-50649999D01*
X104309427Y-50641894D01*
X104347172Y-50583144D01*
X104347200Y-50583119D01*
X104347199Y-50583119D01*
X104348541Y-50581956D01*
X104403420Y-50554477D01*
X104410979Y-50552833D01*
X104437332Y-50550000D01*
X104738171Y-50550000D01*
X104773106Y-50555023D01*
X104788104Y-50559427D01*
X104846860Y-50597177D01*
X104848046Y-50598545D01*
X104863096Y-50628599D01*
X104864782Y-50627679D01*
X104873326Y-50643327D01*
X104879998Y-50649999D01*
X104880000Y-50650000D01*
X107200000Y-50650000D01*
X107200000Y-50642329D01*
X107200331Y-50640030D01*
X107205023Y-50607393D01*
X107209427Y-50592395D01*
X107247172Y-50533644D01*
X107247200Y-50533619D01*
X107247199Y-50533619D01*
X107248541Y-50532456D01*
X107303420Y-50504977D01*
X107303692Y-50504918D01*
X107305041Y-50504624D01*
X107310979Y-50503333D01*
X107337332Y-50500500D01*
X108249885Y-50500500D01*
X108284812Y-50505521D01*
G37*
%TD.AperFunction*%
%TA.AperFunction,Conductor*%
G36*
X101043106Y-57105023D02*
G01*
X101058104Y-57109427D01*
X101116855Y-57147172D01*
X101118042Y-57148541D01*
X101145518Y-57203402D01*
X101147163Y-57210960D01*
X101150000Y-57237331D01*
X101150000Y-57550000D01*
X101169699Y-57550000D01*
X101169700Y-57550000D01*
X101174604Y-57549204D01*
X101177326Y-57548482D01*
X101222657Y-57539466D01*
X101233567Y-57537798D01*
X101240225Y-57537081D01*
X101240226Y-57537082D01*
X101259691Y-57534988D01*
X101328449Y-57547390D01*
X101377264Y-57591234D01*
X101379813Y-57595200D01*
X101399500Y-57662238D01*
X101399500Y-57728665D01*
X101399499Y-57728669D01*
X101399500Y-57728672D01*
X101394475Y-57763606D01*
X101390564Y-57776923D01*
X101352787Y-57835699D01*
X101289234Y-57864720D01*
X101289229Y-57864720D01*
X101289229Y-57864721D01*
X101289228Y-57864720D01*
X101283405Y-57865558D01*
X101232957Y-57862402D01*
X101228575Y-57861200D01*
X101225116Y-57860512D01*
X101169752Y-57849500D01*
X101169751Y-57849500D01*
X100642333Y-57849500D01*
X100620881Y-57847630D01*
X100611550Y-57845991D01*
X100608720Y-57844590D01*
X100607392Y-57844475D01*
X100603020Y-57843191D01*
X100603303Y-57842224D01*
X100587190Y-57838111D01*
X100586935Y-57838797D01*
X100584087Y-57837734D01*
X100583247Y-57837105D01*
X100581499Y-57836659D01*
X100578792Y-57835423D01*
X100579354Y-57834190D01*
X100567378Y-57825223D01*
X100557623Y-57822355D01*
X100553009Y-57817025D01*
X100548927Y-57815006D01*
X100545012Y-57808477D01*
X100532934Y-57799433D01*
X100531907Y-57800324D01*
X100530992Y-57799268D01*
X100530097Y-57797309D01*
X100528184Y-57795877D01*
X100526358Y-57793438D01*
X100527827Y-57792337D01*
X100523577Y-57783030D01*
X100511890Y-57769532D01*
X100501988Y-57735757D01*
X100501968Y-57735712D01*
X100501961Y-57735663D01*
X100501755Y-57734226D01*
X100500500Y-57716630D01*
X100500500Y-57691829D01*
X100505523Y-57656893D01*
X100509927Y-57641895D01*
X100547672Y-57583144D01*
X100549041Y-57581957D01*
X100603920Y-57554477D01*
X100611479Y-57552833D01*
X100637832Y-57550000D01*
X100650000Y-57550000D01*
X100650000Y-57241829D01*
X100650336Y-57239495D01*
X100655023Y-57206893D01*
X100656099Y-57203231D01*
X100659427Y-57191894D01*
X100697172Y-57133144D01*
X100697200Y-57133119D01*
X100697199Y-57133119D01*
X100698541Y-57131956D01*
X100753420Y-57104477D01*
X100760979Y-57102833D01*
X100787332Y-57100000D01*
X101008170Y-57100000D01*
X101043106Y-57105023D01*
G37*
%TD.AperFunction*%
%TA.AperFunction,Conductor*%
G36*
X107874571Y-56133487D02*
G01*
X107883344Y-56132498D01*
X107889737Y-56135656D01*
X107915394Y-56138106D01*
X107925153Y-56145781D01*
X107931494Y-56147322D01*
X107944579Y-56161056D01*
X107970316Y-56181296D01*
X107974467Y-56192429D01*
X107979688Y-56197909D01*
X107983071Y-56215501D01*
X107992750Y-56241457D01*
X107992889Y-56242915D01*
X107990942Y-56256429D01*
X107992883Y-56266522D01*
X107984547Y-56300817D01*
X107984450Y-56301059D01*
X107976742Y-56316920D01*
X107962638Y-56341351D01*
X107962637Y-56341352D01*
X107956586Y-56363936D01*
X107944198Y-56393842D01*
X107928431Y-56421150D01*
X107908728Y-56446828D01*
X107882173Y-56473383D01*
X107882171Y-56473386D01*
X107845741Y-56536483D01*
X107845739Y-56536485D01*
X107845739Y-56536486D01*
X107823920Y-56564228D01*
X107812610Y-56575011D01*
X107750510Y-56607024D01*
X107741803Y-56608702D01*
X107686246Y-56606717D01*
X107659311Y-56599500D01*
X107659310Y-56599500D01*
X107659309Y-56599500D01*
X107540691Y-56599500D01*
X107540689Y-56599500D01*
X107471943Y-56617920D01*
X107471942Y-56617919D01*
X107426108Y-56630201D01*
X107426086Y-56630212D01*
X107416958Y-56633912D01*
X107412069Y-56635671D01*
X107405109Y-56637536D01*
X107402849Y-56638988D01*
X107393195Y-56642462D01*
X107389142Y-56642704D01*
X107368947Y-56648511D01*
X107367930Y-56648657D01*
X107367454Y-56648726D01*
X107349726Y-56650000D01*
X107141348Y-56650000D01*
X107135271Y-56649851D01*
X107132564Y-56649718D01*
X107128123Y-56649500D01*
X107128118Y-56649500D01*
X106591830Y-56649500D01*
X106591825Y-56649499D01*
X106591823Y-56649500D01*
X106556889Y-56644475D01*
X106541890Y-56640070D01*
X106483144Y-56602327D01*
X106483115Y-56602293D01*
X106483114Y-56602293D01*
X106483113Y-56602291D01*
X106481957Y-56600958D01*
X106454477Y-56546083D01*
X106452832Y-56538521D01*
X106450000Y-56512168D01*
X106450000Y-56492328D01*
X106450441Y-56489264D01*
X106455023Y-56457392D01*
X106455566Y-56455545D01*
X106459427Y-56442393D01*
X106497172Y-56383643D01*
X106497200Y-56383618D01*
X106497199Y-56383618D01*
X106498541Y-56382455D01*
X106553420Y-56354976D01*
X106560979Y-56353332D01*
X106587332Y-56350499D01*
X107128124Y-56350499D01*
X107128129Y-56350499D01*
X107132202Y-56350298D01*
X107135259Y-56350149D01*
X107141335Y-56350000D01*
X107365470Y-56350000D01*
X107365470Y-56349999D01*
X107365469Y-56349996D01*
X107365311Y-56349204D01*
X107362232Y-56333719D01*
X107360342Y-56298482D01*
X107361580Y-56284649D01*
X107387161Y-56219634D01*
X107443830Y-56178769D01*
X107454226Y-56175101D01*
X107495469Y-56168042D01*
X107722018Y-56168042D01*
X107722020Y-56168042D01*
X107798447Y-56147563D01*
X107798449Y-56147561D01*
X107798452Y-56147561D01*
X107800506Y-56146710D01*
X107810305Y-56141846D01*
X107813914Y-56140329D01*
X107819558Y-56139692D01*
X107829267Y-56136200D01*
X107829134Y-56135650D01*
X107830631Y-56135287D01*
X107830725Y-56135676D01*
X107838488Y-56132884D01*
X107845842Y-56131466D01*
X107858294Y-56132654D01*
X107863601Y-56130821D01*
X107874571Y-56133487D01*
G37*
%TD.AperFunction*%
%TD*%
%TA.AperFunction,Conductor*%
%TO.N,Net-(U8-SW)*%
G36*
X102452258Y-52927160D02*
G01*
X102457935Y-52926070D01*
X102492229Y-52934414D01*
X102500416Y-52937698D01*
X102506814Y-52941392D01*
X102515277Y-52943659D01*
X102522166Y-52946423D01*
X102544007Y-52963624D01*
X102567745Y-52978089D01*
X102571074Y-52984940D01*
X102577057Y-52989652D01*
X102586130Y-53015925D01*
X102598281Y-53040932D01*
X102597377Y-53048495D01*
X102599864Y-53055695D01*
X102600000Y-53061509D01*
X102600000Y-54400000D01*
X102702956Y-54400000D01*
X102769995Y-54419685D01*
X102790637Y-54436319D01*
X102793514Y-54439196D01*
X102793515Y-54439196D01*
X102793517Y-54439198D01*
X102898607Y-54490573D01*
X102932673Y-54495536D01*
X102966739Y-54500500D01*
X102966740Y-54500500D01*
X103333261Y-54500500D01*
X103355971Y-54497191D01*
X103401393Y-54490573D01*
X103506483Y-54439198D01*
X103506485Y-54439196D01*
X103509363Y-54436319D01*
X103514266Y-54433641D01*
X103514847Y-54433227D01*
X103514897Y-54433297D01*
X103536290Y-54421615D01*
X103562109Y-54405023D01*
X103568309Y-54404131D01*
X103570686Y-54402834D01*
X103597044Y-54400000D01*
X103776000Y-54400000D01*
X103843039Y-54419685D01*
X103888794Y-54472489D01*
X103900000Y-54524000D01*
X103900000Y-56476000D01*
X103880315Y-56543039D01*
X103827511Y-56588794D01*
X103776000Y-56600000D01*
X100624500Y-56600000D01*
X100557461Y-56580315D01*
X100511706Y-56527511D01*
X100500500Y-56476000D01*
X100500500Y-55624000D01*
X100520185Y-55556961D01*
X100572989Y-55511206D01*
X100624500Y-55500000D01*
X101300000Y-55500000D01*
X101300000Y-55424013D01*
X101319685Y-55356974D01*
X101320847Y-55355198D01*
X101338867Y-55328231D01*
X101350500Y-55269748D01*
X101350500Y-54730252D01*
X101350500Y-54730249D01*
X101350499Y-54730247D01*
X101338868Y-54671771D01*
X101338738Y-54671457D01*
X101338658Y-54670715D01*
X101336485Y-54659790D01*
X101337462Y-54659595D01*
X101331266Y-54601988D01*
X101362539Y-54539508D01*
X101422626Y-54503853D01*
X101453297Y-54500000D01*
X101700000Y-54500000D01*
X101700000Y-54363073D01*
X101712599Y-54308614D01*
X101740573Y-54251393D01*
X101750500Y-54183260D01*
X101750500Y-53091740D01*
X101746950Y-53067375D01*
X101756765Y-52998199D01*
X101802421Y-52945310D01*
X101869424Y-52925500D01*
X102446063Y-52925500D01*
X102452258Y-52927160D01*
G37*
%TD.AperFunction*%
%TD*%
M02*
