%TF.GenerationSoftware,KiCad,Pcbnew,10.0.2*%
%TF.CreationDate,2026-05-28T11:14:38+09:00*%
%TF.ProjectId,ammeter2,616d6d65-7465-4723-922e-6b696361645f,rev?*%
%TF.SameCoordinates,Original*%
%TF.FileFunction,Copper,L3,Inr*%
%TF.FilePolarity,Positive*%
%FSLAX46Y46*%
G04 Gerber Fmt 4.6, Leading zero omitted, Abs format (unit mm)*
G04 Created by KiCad (PCBNEW 10.0.2) date 2026-05-28 11:14:38*
%MOMM*%
%LPD*%
G01*
G04 APERTURE LIST*
%TA.AperFunction,ViaPad*%
%ADD10C,0.500000*%
%TD*%
%TA.AperFunction,ViaPad*%
%ADD11C,0.600000*%
%TD*%
%TA.AperFunction,Conductor*%
%ADD12C,0.200000*%
%TD*%
%TA.AperFunction,Conductor*%
%ADD13C,0.300000*%
%TD*%
G04 APERTURE END LIST*
D10*
%TO.N,VBUS*%
X104781908Y-55415810D03*
%TO.N,/UPDI*%
X107400000Y-54700000D03*
%TO.N,Net-(U5-Vcc)*%
X108500000Y-51700000D03*
%TO.N,GND*%
X117400000Y-63000000D03*
X120500000Y-51800000D03*
X100900000Y-57100000D03*
X119300000Y-51800000D03*
X113500000Y-54000000D03*
X103190000Y-59320000D03*
X121700000Y-63600000D03*
X119320000Y-54300000D03*
X122700000Y-62800000D03*
X101280000Y-63825000D03*
X101280000Y-59895000D03*
X120600000Y-62400000D03*
X119000000Y-63537500D03*
X114800000Y-60100000D03*
X122700000Y-63400000D03*
X123100000Y-51700000D03*
X111500000Y-59962744D03*
X119825000Y-50825000D03*
X107600000Y-56367542D03*
X101175000Y-62610000D03*
X106600000Y-50900000D03*
X122500000Y-61400000D03*
X105105000Y-62610000D03*
D11*
X103150000Y-53637500D03*
D10*
X105300000Y-50900000D03*
X119320000Y-60700000D03*
X124012500Y-58950000D03*
X104300000Y-50800000D03*
X124300000Y-51700000D03*
X123975000Y-50825000D03*
X124100000Y-54100000D03*
X111500000Y-63825000D03*
X113762500Y-62500000D03*
X124100000Y-54900000D03*
X105680000Y-54300000D03*
X112910000Y-52000000D03*
%TO.N,/#res*%
X111700000Y-51400000D03*
%TO.N,+3V3*%
X116375000Y-59962744D03*
X112684092Y-54050000D03*
X116037500Y-61550000D03*
X123700000Y-61120000D03*
X109801974Y-56550002D03*
D11*
X102700000Y-52475000D03*
X102100000Y-57700000D03*
D10*
X101300000Y-50900000D03*
D11*
X103600000Y-52475000D03*
D10*
X106600000Y-52700000D03*
X122000000Y-55300000D03*
X124100000Y-55700000D03*
X120821985Y-61142472D03*
D11*
X103100000Y-57700000D03*
D10*
%TO.N,/ref*%
X116037500Y-63450000D03*
X119600000Y-59900000D03*
X119000000Y-55100000D03*
X119000000Y-59900000D03*
X119600000Y-55100000D03*
%TO.N,Net-(J1-CC1)*%
X104965171Y-56250001D03*
X114400000Y-58262744D03*
%TO.N,Net-(J1-D+-PadA6)*%
X118373477Y-57491078D03*
X104950799Y-58257906D03*
%TO.N,Net-(J1-D--PadA7)*%
X117992998Y-58144202D03*
X104732662Y-57488817D03*
%TO.N,Net-(J1-CC2)*%
X107400655Y-60373863D03*
X120300000Y-55800000D03*
%TO.N,VBUS*%
X113200000Y-55900000D03*
D11*
X103200000Y-51700000D03*
D10*
X107823926Y-60867160D03*
D11*
X103200000Y-51000000D03*
D10*
X114200000Y-63450000D03*
%TO.N,/SCL*%
X111425000Y-53560000D03*
%TO.N,Net-(U5-VCOMH)*%
X109200000Y-50900000D03*
%TO.N,/D+*%
X106951513Y-61432995D03*
%TO.N,/D-*%
X107599999Y-61477373D03*
%TO.N,/#RTS*%
X107600000Y-57050000D03*
X107450002Y-55367542D03*
X108605460Y-61469200D03*
%TO.N,/Tx*%
X108242661Y-56750000D03*
%TO.N,/Rx*%
X109900000Y-57912744D03*
%TO.N,/V0*%
X113762500Y-61550000D03*
X115200000Y-58262744D03*
%TO.N,Net-(U2--)*%
X117400000Y-61800000D03*
X116037500Y-62500000D03*
X117750000Y-59962744D03*
%TO.N,/V1*%
X117400000Y-57400000D03*
%TO.N,/sw2*%
X117300000Y-56400000D03*
%TO.N,/sw1*%
X122000000Y-54100000D03*
X116400000Y-55050000D03*
%TO.N,/SDA*%
X110430000Y-52290000D03*
%TO.N,/V2*%
X112300000Y-57100000D03*
%TO.N,Net-(R13-Pad1)*%
X108550000Y-54750000D03*
%TO.N,Net-(R11-Pad1)*%
X118000000Y-54200000D03*
X109002259Y-56642610D03*
%TO.N,Net-(R12-Pad1)*%
X118000000Y-51000000D03*
X113650000Y-55250000D03*
%TD*%
%TO.N,Net-(R11-Pad1)*%
D12*
X109002259Y-56642610D02*
X111094869Y-54550000D01*
X111094869Y-54550000D02*
X117650000Y-54550000D01*
X117650000Y-54550000D02*
X118000000Y-54200000D01*
%TO.N,/#RTS*%
X107450002Y-55367542D02*
X107100000Y-55717544D01*
X107100000Y-55717544D02*
X107100000Y-56607104D01*
X108605460Y-61469200D02*
X108600000Y-61463740D01*
X108605460Y-61469200D02*
X108605460Y-58055460D01*
X107542896Y-57050000D02*
X107600000Y-57050000D01*
X107100000Y-56607104D02*
X107542896Y-57050000D01*
X108605460Y-58055460D02*
X107600000Y-57050000D01*
%TO.N,/V0*%
X115200000Y-58262744D02*
X113762500Y-59700244D01*
X113762500Y-59700244D02*
X113762500Y-61550000D01*
%TO.N,Net-(U2--)*%
D13*
X117400000Y-61800000D02*
X117400000Y-60312744D01*
X117400000Y-60312744D02*
X117750000Y-59962744D01*
%TO.N,Net-(R12-Pad1)*%
D12*
X118000000Y-51000000D02*
X117900000Y-50900000D01*
%TD*%
%TA.AperFunction,Conductor*%
%TO.N,/ref*%
G36*
X117630075Y-50520185D02*
G01*
X117675830Y-50572989D01*
X117685774Y-50642147D01*
X117656749Y-50705703D01*
X117650717Y-50712181D01*
X117639513Y-50723384D01*
X117639511Y-50723387D01*
X117615087Y-50765691D01*
X117580201Y-50826114D01*
X117549500Y-50940691D01*
X117549500Y-51059309D01*
X117580201Y-51173886D01*
X117639511Y-51276613D01*
X117723387Y-51360489D01*
X117826114Y-51419799D01*
X117940691Y-51450500D01*
X117940694Y-51450500D01*
X118059306Y-51450500D01*
X118059309Y-51450500D01*
X118173886Y-51419799D01*
X118276613Y-51360489D01*
X118360489Y-51276613D01*
X118419799Y-51173886D01*
X118450500Y-51059309D01*
X118450500Y-50940691D01*
X118419799Y-50826114D01*
X118360489Y-50723387D01*
X118349283Y-50712181D01*
X118315798Y-50650858D01*
X118320782Y-50581166D01*
X118362654Y-50525233D01*
X118428118Y-50500816D01*
X118436964Y-50500500D01*
X119283958Y-50500500D01*
X119350997Y-50520185D01*
X119396752Y-50572989D01*
X119406696Y-50642147D01*
X119403733Y-50656591D01*
X119374500Y-50765691D01*
X119374500Y-50884309D01*
X119405201Y-50998886D01*
X119464511Y-51101613D01*
X119464513Y-51101615D01*
X119514407Y-51151509D01*
X119547892Y-51212832D01*
X119542908Y-51282524D01*
X119501036Y-51338457D01*
X119435572Y-51362874D01*
X119394634Y-51358965D01*
X119359310Y-51349500D01*
X119359309Y-51349500D01*
X119240691Y-51349500D01*
X119126114Y-51380201D01*
X119126112Y-51380201D01*
X119126112Y-51380202D01*
X119023387Y-51439511D01*
X119023384Y-51439513D01*
X118939513Y-51523384D01*
X118939511Y-51523387D01*
X118880201Y-51626114D01*
X118849500Y-51740691D01*
X118849500Y-51859309D01*
X118880201Y-51973886D01*
X118939511Y-52076613D01*
X119023387Y-52160489D01*
X119126114Y-52219799D01*
X119240691Y-52250500D01*
X119240694Y-52250500D01*
X119359306Y-52250500D01*
X119359309Y-52250500D01*
X119473886Y-52219799D01*
X119576613Y-52160489D01*
X119660489Y-52076613D01*
X119719799Y-51973886D01*
X119750500Y-51859309D01*
X119750500Y-51740691D01*
X120049500Y-51740691D01*
X120049500Y-51859309D01*
X120080201Y-51973886D01*
X120139511Y-52076613D01*
X120223387Y-52160489D01*
X120326114Y-52219799D01*
X120440691Y-52250500D01*
X120440694Y-52250500D01*
X120559306Y-52250500D01*
X120559309Y-52250500D01*
X120673886Y-52219799D01*
X120776613Y-52160489D01*
X120860489Y-52076613D01*
X120919799Y-51973886D01*
X120950500Y-51859309D01*
X120950500Y-51740691D01*
X120923705Y-51640691D01*
X122649500Y-51640691D01*
X122649500Y-51759309D01*
X122680201Y-51873886D01*
X122739511Y-51976613D01*
X122823387Y-52060489D01*
X122926114Y-52119799D01*
X123040691Y-52150500D01*
X123040694Y-52150500D01*
X123159306Y-52150500D01*
X123159309Y-52150500D01*
X123273886Y-52119799D01*
X123376613Y-52060489D01*
X123460489Y-51976613D01*
X123519799Y-51873886D01*
X123550500Y-51759309D01*
X123550500Y-51640691D01*
X123519799Y-51526114D01*
X123460489Y-51423387D01*
X123376613Y-51339511D01*
X123273886Y-51280201D01*
X123159309Y-51249500D01*
X123040691Y-51249500D01*
X122926114Y-51280201D01*
X122926112Y-51280201D01*
X122926112Y-51280202D01*
X122823387Y-51339511D01*
X122823384Y-51339513D01*
X122739513Y-51423384D01*
X122739511Y-51423387D01*
X122680201Y-51526114D01*
X122649500Y-51640691D01*
X120923705Y-51640691D01*
X120919799Y-51626114D01*
X120860489Y-51523387D01*
X120776613Y-51439511D01*
X120673886Y-51380201D01*
X120559309Y-51349500D01*
X120440691Y-51349500D01*
X120326114Y-51380201D01*
X120326112Y-51380201D01*
X120326112Y-51380202D01*
X120223387Y-51439511D01*
X120223384Y-51439513D01*
X120139513Y-51523384D01*
X120139511Y-51523387D01*
X120080201Y-51626114D01*
X120049500Y-51740691D01*
X119750500Y-51740691D01*
X119719799Y-51626114D01*
X119660489Y-51523387D01*
X119610592Y-51473490D01*
X119577107Y-51412167D01*
X119582091Y-51342475D01*
X119623963Y-51286542D01*
X119689427Y-51262125D01*
X119730361Y-51266033D01*
X119765691Y-51275500D01*
X119765694Y-51275500D01*
X119884306Y-51275500D01*
X119884309Y-51275500D01*
X119998886Y-51244799D01*
X120101613Y-51185489D01*
X120185489Y-51101613D01*
X120244799Y-50998886D01*
X120275500Y-50884309D01*
X120275500Y-50765691D01*
X120246267Y-50656592D01*
X120247930Y-50586744D01*
X120287093Y-50528881D01*
X120351321Y-50501377D01*
X120366042Y-50500500D01*
X123433958Y-50500500D01*
X123500997Y-50520185D01*
X123546752Y-50572989D01*
X123556696Y-50642147D01*
X123553733Y-50656591D01*
X123524500Y-50765691D01*
X123524500Y-50884309D01*
X123555201Y-50998886D01*
X123614511Y-51101613D01*
X123698387Y-51185489D01*
X123801114Y-51244799D01*
X123854170Y-51259015D01*
X123913829Y-51295378D01*
X123944359Y-51358225D01*
X123936065Y-51427600D01*
X123929463Y-51440789D01*
X123880202Y-51526110D01*
X123880201Y-51526114D01*
X123849500Y-51640691D01*
X123849500Y-51759309D01*
X123880201Y-51873886D01*
X123939511Y-51976613D01*
X124023387Y-52060489D01*
X124126114Y-52119799D01*
X124240691Y-52150500D01*
X124240694Y-52150500D01*
X124367436Y-52150500D01*
X124367436Y-52151766D01*
X124428345Y-52161262D01*
X124480603Y-52207640D01*
X124499500Y-52273438D01*
X124499500Y-53595685D01*
X124479815Y-53662724D01*
X124427011Y-53708479D01*
X124357853Y-53718423D01*
X124313499Y-53703072D01*
X124273886Y-53680201D01*
X124159309Y-53649500D01*
X124040691Y-53649500D01*
X123926114Y-53680201D01*
X123926112Y-53680201D01*
X123926112Y-53680202D01*
X123823387Y-53739511D01*
X123823384Y-53739513D01*
X123739513Y-53823384D01*
X123739511Y-53823387D01*
X123706709Y-53880202D01*
X123680201Y-53926114D01*
X123649500Y-54040691D01*
X123649500Y-54159309D01*
X123680201Y-54273886D01*
X123739511Y-54376613D01*
X123739513Y-54376615D01*
X123775217Y-54412319D01*
X123808702Y-54473642D01*
X123803718Y-54543334D01*
X123775217Y-54587681D01*
X123739513Y-54623384D01*
X123739511Y-54623387D01*
X123714915Y-54665989D01*
X123680201Y-54726114D01*
X123649500Y-54840691D01*
X123649500Y-54959309D01*
X123680201Y-55073886D01*
X123739511Y-55176613D01*
X123739513Y-55176615D01*
X123775217Y-55212319D01*
X123808702Y-55273642D01*
X123803718Y-55343334D01*
X123775217Y-55387681D01*
X123739513Y-55423384D01*
X123739511Y-55423387D01*
X123710355Y-55473887D01*
X123680201Y-55526114D01*
X123649500Y-55640691D01*
X123649500Y-55759309D01*
X123680201Y-55873886D01*
X123739511Y-55976613D01*
X123823387Y-56060489D01*
X123926114Y-56119799D01*
X124040691Y-56150500D01*
X124040694Y-56150500D01*
X124159306Y-56150500D01*
X124159309Y-56150500D01*
X124273886Y-56119799D01*
X124313501Y-56096927D01*
X124381397Y-56080454D01*
X124447425Y-56103305D01*
X124490617Y-56158225D01*
X124499500Y-56204314D01*
X124499500Y-58500536D01*
X124479815Y-58567575D01*
X124427011Y-58613330D01*
X124357853Y-58623274D01*
X124294297Y-58594249D01*
X124289660Y-58589932D01*
X124289115Y-58589513D01*
X124289113Y-58589511D01*
X124186386Y-58530201D01*
X124071809Y-58499500D01*
X123953191Y-58499500D01*
X123838614Y-58530201D01*
X123838612Y-58530201D01*
X123838612Y-58530202D01*
X123735887Y-58589511D01*
X123735884Y-58589513D01*
X123652013Y-58673384D01*
X123652011Y-58673387D01*
X123592701Y-58776114D01*
X123562000Y-58890691D01*
X123562000Y-59009309D01*
X123592701Y-59123886D01*
X123652011Y-59226613D01*
X123735887Y-59310489D01*
X123838614Y-59369799D01*
X123953191Y-59400500D01*
X123953194Y-59400500D01*
X124071806Y-59400500D01*
X124071809Y-59400500D01*
X124186386Y-59369799D01*
X124289113Y-59310489D01*
X124289120Y-59310481D01*
X124295559Y-59305542D01*
X124296648Y-59306961D01*
X124349142Y-59278298D01*
X124418834Y-59283282D01*
X124474767Y-59325154D01*
X124499184Y-59390618D01*
X124499500Y-59399464D01*
X124499500Y-64375500D01*
X124479815Y-64442539D01*
X124427011Y-64488294D01*
X124375500Y-64499500D01*
X115124000Y-64499500D01*
X115056961Y-64479815D01*
X115011206Y-64427011D01*
X115000000Y-64375500D01*
X115000000Y-63478191D01*
X118549500Y-63478191D01*
X118549500Y-63596809D01*
X118580201Y-63711386D01*
X118639511Y-63814113D01*
X118723387Y-63897989D01*
X118826114Y-63957299D01*
X118940691Y-63988000D01*
X118940694Y-63988000D01*
X119059306Y-63988000D01*
X119059309Y-63988000D01*
X119173886Y-63957299D01*
X119276613Y-63897989D01*
X119360489Y-63814113D01*
X119419799Y-63711386D01*
X119450500Y-63596809D01*
X119450500Y-63540691D01*
X121249500Y-63540691D01*
X121249500Y-63659309D01*
X121280201Y-63773886D01*
X121339511Y-63876613D01*
X121423387Y-63960489D01*
X121526114Y-64019799D01*
X121640691Y-64050500D01*
X121640694Y-64050500D01*
X121759306Y-64050500D01*
X121759309Y-64050500D01*
X121873886Y-64019799D01*
X121976613Y-63960489D01*
X122060489Y-63876613D01*
X122119799Y-63773886D01*
X122131198Y-63731342D01*
X122167560Y-63671684D01*
X122230407Y-63641153D01*
X122299782Y-63649447D01*
X122338653Y-63675755D01*
X122339510Y-63676612D01*
X122339511Y-63676613D01*
X122423387Y-63760489D01*
X122526114Y-63819799D01*
X122640691Y-63850500D01*
X122640694Y-63850500D01*
X122759306Y-63850500D01*
X122759309Y-63850500D01*
X122873886Y-63819799D01*
X122976613Y-63760489D01*
X123060489Y-63676613D01*
X123119799Y-63573886D01*
X123150500Y-63459309D01*
X123150500Y-63340691D01*
X123119799Y-63226114D01*
X123082782Y-63162000D01*
X123066309Y-63094102D01*
X123082782Y-63038000D01*
X123119799Y-62973886D01*
X123150500Y-62859309D01*
X123150500Y-62740691D01*
X123119799Y-62626114D01*
X123060489Y-62523387D01*
X122976613Y-62439511D01*
X122873886Y-62380201D01*
X122759309Y-62349500D01*
X122640691Y-62349500D01*
X122526114Y-62380201D01*
X122526112Y-62380201D01*
X122526112Y-62380202D01*
X122423387Y-62439511D01*
X122423384Y-62439513D01*
X122339513Y-62523384D01*
X122339511Y-62523387D01*
X122306709Y-62580202D01*
X122280201Y-62626114D01*
X122249500Y-62740691D01*
X122249500Y-62859309D01*
X122271307Y-62940693D01*
X122280202Y-62973889D01*
X122317217Y-63038000D01*
X122318507Y-63043317D01*
X122322129Y-63047418D01*
X122326654Y-63076901D01*
X122333690Y-63105900D01*
X122332120Y-63112506D01*
X122332730Y-63116479D01*
X122327600Y-63131530D01*
X122323109Y-63150436D01*
X122320463Y-63156378D01*
X122280201Y-63226114D01*
X122266276Y-63278082D01*
X122262306Y-63286999D01*
X122245744Y-63306483D01*
X122232436Y-63328317D01*
X122223495Y-63332660D01*
X122217056Y-63340236D01*
X122192587Y-63347673D01*
X122169589Y-63358846D01*
X122159718Y-63357665D01*
X122150207Y-63360557D01*
X122125606Y-63353587D01*
X122100214Y-63350551D01*
X122089647Y-63343399D01*
X122082983Y-63341511D01*
X122077223Y-63334990D01*
X122061346Y-63324244D01*
X121976615Y-63239513D01*
X121976613Y-63239511D01*
X121873886Y-63180201D01*
X121759309Y-63149500D01*
X121640691Y-63149500D01*
X121526114Y-63180201D01*
X121526112Y-63180201D01*
X121526112Y-63180202D01*
X121423387Y-63239511D01*
X121423384Y-63239513D01*
X121339513Y-63323384D01*
X121339511Y-63323387D01*
X121318091Y-63360488D01*
X121280201Y-63426114D01*
X121249500Y-63540691D01*
X119450500Y-63540691D01*
X119450500Y-63478191D01*
X119419799Y-63363614D01*
X119360489Y-63260887D01*
X119276613Y-63177011D01*
X119173886Y-63117701D01*
X119059309Y-63087000D01*
X118940691Y-63087000D01*
X118826114Y-63117701D01*
X118826112Y-63117701D01*
X118826112Y-63117702D01*
X118723387Y-63177011D01*
X118723384Y-63177013D01*
X118639513Y-63260884D01*
X118639511Y-63260887D01*
X118580743Y-63362676D01*
X118580201Y-63363614D01*
X118549500Y-63478191D01*
X115000000Y-63478191D01*
X115000000Y-61490691D01*
X115587000Y-61490691D01*
X115587000Y-61609309D01*
X115617701Y-61723886D01*
X115677011Y-61826613D01*
X115760887Y-61910489D01*
X115773226Y-61917613D01*
X115773228Y-61917614D01*
X115821442Y-61968183D01*
X115834663Y-62036790D01*
X115808694Y-62101654D01*
X115773228Y-62132386D01*
X115760887Y-62139511D01*
X115760884Y-62139513D01*
X115677013Y-62223384D01*
X115677011Y-62223387D01*
X115617701Y-62326114D01*
X115587000Y-62440691D01*
X115587000Y-62559309D01*
X115617701Y-62673886D01*
X115677011Y-62776613D01*
X115760887Y-62860489D01*
X115863614Y-62919799D01*
X115978191Y-62950500D01*
X115978194Y-62950500D01*
X116096806Y-62950500D01*
X116096809Y-62950500D01*
X116133416Y-62940691D01*
X116949500Y-62940691D01*
X116949500Y-63059309D01*
X116980201Y-63173886D01*
X117039511Y-63276613D01*
X117123387Y-63360489D01*
X117226114Y-63419799D01*
X117340691Y-63450500D01*
X117340694Y-63450500D01*
X117459306Y-63450500D01*
X117459309Y-63450500D01*
X117573886Y-63419799D01*
X117676613Y-63360489D01*
X117760489Y-63276613D01*
X117819799Y-63173886D01*
X117850500Y-63059309D01*
X117850500Y-62940691D01*
X117819799Y-62826114D01*
X117760489Y-62723387D01*
X117676613Y-62639511D01*
X117573886Y-62580201D01*
X117459309Y-62549500D01*
X117340691Y-62549500D01*
X117226114Y-62580201D01*
X117226112Y-62580201D01*
X117226112Y-62580202D01*
X117123387Y-62639511D01*
X117123384Y-62639513D01*
X117039513Y-62723384D01*
X117039511Y-62723387D01*
X117008780Y-62776615D01*
X116980201Y-62826114D01*
X116949500Y-62940691D01*
X116133416Y-62940691D01*
X116211386Y-62919799D01*
X116314113Y-62860489D01*
X116397989Y-62776613D01*
X116457299Y-62673886D01*
X116488000Y-62559309D01*
X116488000Y-62440691D01*
X116461205Y-62340691D01*
X120149500Y-62340691D01*
X120149500Y-62459309D01*
X120180201Y-62573886D01*
X120239511Y-62676613D01*
X120323387Y-62760489D01*
X120426114Y-62819799D01*
X120540691Y-62850500D01*
X120540694Y-62850500D01*
X120659306Y-62850500D01*
X120659309Y-62850500D01*
X120773886Y-62819799D01*
X120876613Y-62760489D01*
X120960489Y-62676613D01*
X121019799Y-62573886D01*
X121050500Y-62459309D01*
X121050500Y-62340691D01*
X121019799Y-62226114D01*
X120960489Y-62123387D01*
X120876613Y-62039511D01*
X120773886Y-61980201D01*
X120659309Y-61949500D01*
X120540691Y-61949500D01*
X120426114Y-61980201D01*
X120426112Y-61980201D01*
X120426112Y-61980202D01*
X120323387Y-62039511D01*
X120323384Y-62039513D01*
X120239513Y-62123384D01*
X120239511Y-62123387D01*
X120218091Y-62160488D01*
X120180201Y-62226114D01*
X120149500Y-62340691D01*
X116461205Y-62340691D01*
X116457299Y-62326114D01*
X116397989Y-62223387D01*
X116314113Y-62139511D01*
X116314111Y-62139510D01*
X116314109Y-62139508D01*
X116301774Y-62132387D01*
X116253558Y-62081820D01*
X116240336Y-62013213D01*
X116266304Y-61948348D01*
X116301774Y-61917613D01*
X116302171Y-61917383D01*
X116314113Y-61910489D01*
X116397989Y-61826613D01*
X116447597Y-61740691D01*
X116949500Y-61740691D01*
X116949500Y-61859309D01*
X116980201Y-61973886D01*
X117039511Y-62076613D01*
X117123387Y-62160489D01*
X117226114Y-62219799D01*
X117340691Y-62250500D01*
X117340694Y-62250500D01*
X117459306Y-62250500D01*
X117459309Y-62250500D01*
X117573886Y-62219799D01*
X117676613Y-62160489D01*
X117760489Y-62076613D01*
X117819799Y-61973886D01*
X117850500Y-61859309D01*
X117850500Y-61740691D01*
X117819799Y-61626114D01*
X117810096Y-61609308D01*
X117767113Y-61534859D01*
X117750500Y-61472859D01*
X117750500Y-60640691D01*
X118869500Y-60640691D01*
X118869500Y-60759309D01*
X118900201Y-60873886D01*
X118959511Y-60976613D01*
X119043387Y-61060489D01*
X119146114Y-61119799D01*
X119260691Y-61150500D01*
X119260694Y-61150500D01*
X119379306Y-61150500D01*
X119379309Y-61150500D01*
X119493886Y-61119799D01*
X119596613Y-61060489D01*
X119680489Y-60976613D01*
X119739799Y-60873886D01*
X119752936Y-60824856D01*
X119789299Y-60765199D01*
X119852146Y-60734669D01*
X119921522Y-60742963D01*
X119960391Y-60769271D01*
X120041635Y-60850515D01*
X120172865Y-60926281D01*
X120279628Y-60954887D01*
X120339288Y-60991252D01*
X120369817Y-61054099D01*
X120370197Y-61075036D01*
X120371485Y-61075036D01*
X120371485Y-61083163D01*
X120371485Y-61201781D01*
X120402186Y-61316358D01*
X120461496Y-61419085D01*
X120545372Y-61502961D01*
X120648099Y-61562271D01*
X120762676Y-61592972D01*
X120762679Y-61592972D01*
X120881291Y-61592972D01*
X120881294Y-61592972D01*
X120995871Y-61562271D01*
X121098598Y-61502961D01*
X121182474Y-61419085D01*
X121227735Y-61340691D01*
X122049500Y-61340691D01*
X122049500Y-61459309D01*
X122080201Y-61573886D01*
X122139511Y-61676613D01*
X122223387Y-61760489D01*
X122326114Y-61819799D01*
X122440691Y-61850500D01*
X122440694Y-61850500D01*
X122559306Y-61850500D01*
X122559309Y-61850500D01*
X122673886Y-61819799D01*
X122776613Y-61760489D01*
X122860489Y-61676613D01*
X122919799Y-61573886D01*
X122950500Y-61459309D01*
X122950500Y-61340691D01*
X122919799Y-61226114D01*
X122860489Y-61123387D01*
X122797793Y-61060691D01*
X123249500Y-61060691D01*
X123249500Y-61179309D01*
X123280201Y-61293886D01*
X123339511Y-61396613D01*
X123423387Y-61480489D01*
X123526114Y-61539799D01*
X123640691Y-61570500D01*
X123640694Y-61570500D01*
X123759306Y-61570500D01*
X123759309Y-61570500D01*
X123873886Y-61539799D01*
X123976613Y-61480489D01*
X124060489Y-61396613D01*
X124119799Y-61293886D01*
X124150500Y-61179309D01*
X124150500Y-61060691D01*
X124119799Y-60946114D01*
X124060489Y-60843387D01*
X123976613Y-60759511D01*
X123873886Y-60700201D01*
X123759309Y-60669500D01*
X123640691Y-60669500D01*
X123526114Y-60700201D01*
X123526112Y-60700201D01*
X123526112Y-60700202D01*
X123423387Y-60759511D01*
X123423384Y-60759513D01*
X123339513Y-60843384D01*
X123339511Y-60843387D01*
X123280201Y-60946114D01*
X123249500Y-61060691D01*
X122797793Y-61060691D01*
X122776613Y-61039511D01*
X122673886Y-60980201D01*
X122559309Y-60949500D01*
X122440691Y-60949500D01*
X122326114Y-60980201D01*
X122326112Y-60980201D01*
X122326112Y-60980202D01*
X122223387Y-61039511D01*
X122223384Y-61039513D01*
X122139513Y-61123384D01*
X122139511Y-61123387D01*
X122094252Y-61201778D01*
X122080201Y-61226114D01*
X122049500Y-61340691D01*
X121227735Y-61340691D01*
X121241784Y-61316358D01*
X121247806Y-61293886D01*
X121253299Y-61273384D01*
X121272485Y-61201781D01*
X121272485Y-61083163D01*
X121241784Y-60968586D01*
X121182474Y-60865859D01*
X121098598Y-60781983D01*
X120996682Y-60723141D01*
X120948468Y-60672574D01*
X120935246Y-60603967D01*
X120938905Y-60583678D01*
X120970500Y-60465766D01*
X120970500Y-60314234D01*
X120931281Y-60167865D01*
X120926339Y-60159306D01*
X120913247Y-60136630D01*
X120855515Y-60036635D01*
X120748365Y-59929485D01*
X120670891Y-59884755D01*
X120617136Y-59853719D01*
X120503933Y-59823387D01*
X120470766Y-59814500D01*
X120319234Y-59814500D01*
X120172863Y-59853719D01*
X120041635Y-59929485D01*
X120041632Y-59929487D01*
X119934487Y-60036632D01*
X119934485Y-60036635D01*
X119863661Y-60159306D01*
X119858719Y-60167865D01*
X119839563Y-60239356D01*
X119822644Y-60302499D01*
X119786279Y-60362159D01*
X119723431Y-60392688D01*
X119654056Y-60384393D01*
X119615188Y-60358086D01*
X119596615Y-60339513D01*
X119596613Y-60339511D01*
X119493886Y-60280201D01*
X119379309Y-60249500D01*
X119260691Y-60249500D01*
X119146114Y-60280201D01*
X119146112Y-60280201D01*
X119146112Y-60280202D01*
X119043387Y-60339511D01*
X119043384Y-60339513D01*
X118959513Y-60423384D01*
X118959511Y-60423387D01*
X118901336Y-60524149D01*
X118900201Y-60526114D01*
X118869500Y-60640691D01*
X117750500Y-60640691D01*
X117750500Y-60524149D01*
X117770185Y-60457110D01*
X117822989Y-60411355D01*
X117842396Y-60404378D01*
X117923886Y-60382543D01*
X118026613Y-60323233D01*
X118110489Y-60239357D01*
X118169799Y-60136630D01*
X118200500Y-60022053D01*
X118200500Y-59903435D01*
X118169799Y-59788858D01*
X118110489Y-59686131D01*
X118026613Y-59602255D01*
X117923886Y-59542945D01*
X117809309Y-59512244D01*
X117690691Y-59512244D01*
X117576114Y-59542945D01*
X117576112Y-59542945D01*
X117576112Y-59542946D01*
X117473387Y-59602255D01*
X117473384Y-59602257D01*
X117389513Y-59686128D01*
X117389511Y-59686131D01*
X117330201Y-59788858D01*
X117302929Y-59890639D01*
X117270836Y-59946226D01*
X117119529Y-60097533D01*
X117119528Y-60097535D01*
X117083863Y-60159309D01*
X117073387Y-60177453D01*
X117073386Y-60177456D01*
X117049500Y-60266600D01*
X117049500Y-61472859D01*
X117032887Y-61534859D01*
X116980202Y-61626110D01*
X116980201Y-61626114D01*
X116949500Y-61740691D01*
X116447597Y-61740691D01*
X116457299Y-61723886D01*
X116488000Y-61609309D01*
X116488000Y-61490691D01*
X116457299Y-61376114D01*
X116397989Y-61273387D01*
X116314113Y-61189511D01*
X116211386Y-61130201D01*
X116096809Y-61099500D01*
X115978191Y-61099500D01*
X115863614Y-61130201D01*
X115863612Y-61130201D01*
X115863612Y-61130202D01*
X115760887Y-61189511D01*
X115760884Y-61189513D01*
X115677013Y-61273384D01*
X115677011Y-61273387D01*
X115638152Y-61340693D01*
X115617701Y-61376114D01*
X115587000Y-61490691D01*
X115000000Y-61490691D01*
X115000000Y-60576312D01*
X115019685Y-60509273D01*
X115062002Y-60468924D01*
X115076613Y-60460489D01*
X115160489Y-60376613D01*
X115219799Y-60273886D01*
X115250500Y-60159309D01*
X115250500Y-60040691D01*
X115220144Y-59927401D01*
X115220144Y-59927399D01*
X115219800Y-59926116D01*
X115219799Y-59926114D01*
X115206705Y-59903435D01*
X115924500Y-59903435D01*
X115924500Y-60022053D01*
X115955201Y-60136630D01*
X116014511Y-60239357D01*
X116098387Y-60323233D01*
X116201114Y-60382543D01*
X116315691Y-60413244D01*
X116315694Y-60413244D01*
X116434306Y-60413244D01*
X116434309Y-60413244D01*
X116548886Y-60382543D01*
X116651613Y-60323233D01*
X116735489Y-60239357D01*
X116794799Y-60136630D01*
X116825500Y-60022053D01*
X116825500Y-59903435D01*
X116794799Y-59788858D01*
X116735489Y-59686131D01*
X116651613Y-59602255D01*
X116548886Y-59542945D01*
X116434309Y-59512244D01*
X116315691Y-59512244D01*
X116201114Y-59542945D01*
X116201112Y-59542945D01*
X116201112Y-59542946D01*
X116098387Y-59602255D01*
X116098384Y-59602257D01*
X116014513Y-59686128D01*
X116014511Y-59686131D01*
X115955201Y-59788858D01*
X115924500Y-59903435D01*
X115206705Y-59903435D01*
X115178001Y-59853719D01*
X115160489Y-59823387D01*
X115076613Y-59739511D01*
X115061997Y-59731072D01*
X115013784Y-59680506D01*
X115000000Y-59623687D01*
X115000000Y-58939077D01*
X115008644Y-58909636D01*
X115015168Y-58879650D01*
X115018922Y-58874634D01*
X115019685Y-58872038D01*
X115036319Y-58851396D01*
X115138152Y-58749563D01*
X115199475Y-58716078D01*
X115225833Y-58713244D01*
X115259306Y-58713244D01*
X115259309Y-58713244D01*
X115373886Y-58682543D01*
X115476613Y-58623233D01*
X115560489Y-58539357D01*
X115619799Y-58436630D01*
X115650500Y-58322053D01*
X115650500Y-58203435D01*
X115619799Y-58088858D01*
X115560489Y-57986131D01*
X115476613Y-57902255D01*
X115373886Y-57842945D01*
X115259309Y-57812244D01*
X115140691Y-57812244D01*
X115140688Y-57812244D01*
X115140179Y-57812311D01*
X115139749Y-57812244D01*
X115132564Y-57812244D01*
X115132564Y-57811123D01*
X115071144Y-57801542D01*
X115018891Y-57755159D01*
X115000000Y-57689371D01*
X115000000Y-56340691D01*
X116849500Y-56340691D01*
X116849500Y-56459309D01*
X116880201Y-56573886D01*
X116939511Y-56676613D01*
X117023387Y-56760489D01*
X117114191Y-56812915D01*
X117129027Y-56821481D01*
X117177242Y-56872049D01*
X117190464Y-56940656D01*
X117164496Y-57005521D01*
X117129028Y-57036254D01*
X117123390Y-57039508D01*
X117123384Y-57039513D01*
X117039513Y-57123384D01*
X117039511Y-57123387D01*
X116983609Y-57220212D01*
X116980201Y-57226114D01*
X116949500Y-57340691D01*
X116949500Y-57459309D01*
X116980201Y-57573886D01*
X117039511Y-57676613D01*
X117123387Y-57760489D01*
X117226114Y-57819799D01*
X117340691Y-57850500D01*
X117340694Y-57850500D01*
X117443704Y-57850500D01*
X117510743Y-57870185D01*
X117556498Y-57922989D01*
X117566442Y-57992147D01*
X117563481Y-58006582D01*
X117542498Y-58084893D01*
X117542498Y-58203511D01*
X117573199Y-58318088D01*
X117632509Y-58420815D01*
X117716385Y-58504691D01*
X117819112Y-58564001D01*
X117933689Y-58594702D01*
X117933692Y-58594702D01*
X118052304Y-58594702D01*
X118052307Y-58594702D01*
X118166884Y-58564001D01*
X118269611Y-58504691D01*
X118353487Y-58420815D01*
X118412797Y-58318088D01*
X118443498Y-58203511D01*
X118443498Y-58084893D01*
X118439045Y-58068274D01*
X118440706Y-57998427D01*
X118479867Y-57940564D01*
X118526725Y-57916406D01*
X118547363Y-57910877D01*
X118650090Y-57851567D01*
X118733966Y-57767691D01*
X118793276Y-57664964D01*
X118823977Y-57550387D01*
X118823977Y-57431769D01*
X118793276Y-57317192D01*
X118733966Y-57214465D01*
X118650090Y-57130589D01*
X118547363Y-57071279D01*
X118432786Y-57040578D01*
X118314168Y-57040578D01*
X118199591Y-57071279D01*
X118199589Y-57071279D01*
X118199589Y-57071280D01*
X118096864Y-57130589D01*
X118096861Y-57130591D01*
X118012986Y-57214466D01*
X118011874Y-57215916D01*
X118010625Y-57216827D01*
X118007241Y-57220212D01*
X118006712Y-57219683D01*
X117955442Y-57257113D01*
X117885695Y-57261260D01*
X117824778Y-57227041D01*
X117806119Y-57202420D01*
X117760489Y-57123387D01*
X117676613Y-57039511D01*
X117670972Y-57036254D01*
X117570972Y-56978517D01*
X117522757Y-56927950D01*
X117509535Y-56859343D01*
X117535503Y-56794478D01*
X117570975Y-56763743D01*
X117576613Y-56760489D01*
X117660489Y-56676613D01*
X117719799Y-56573886D01*
X117750500Y-56459309D01*
X117750500Y-56340691D01*
X117719799Y-56226114D01*
X117660489Y-56123387D01*
X117576613Y-56039511D01*
X117473886Y-55980201D01*
X117359309Y-55949500D01*
X117240691Y-55949500D01*
X117126114Y-55980201D01*
X117126112Y-55980201D01*
X117126112Y-55980202D01*
X117023387Y-56039511D01*
X117023384Y-56039513D01*
X116939513Y-56123384D01*
X116939511Y-56123387D01*
X116918091Y-56160488D01*
X116880201Y-56226114D01*
X116849500Y-56340691D01*
X115000000Y-56340691D01*
X115000000Y-54974500D01*
X115019685Y-54907461D01*
X115072489Y-54861706D01*
X115124000Y-54850500D01*
X115826562Y-54850500D01*
X115893601Y-54870185D01*
X115939356Y-54922989D01*
X115948282Y-54982564D01*
X115949500Y-54982564D01*
X115949500Y-54990691D01*
X115949500Y-55109309D01*
X115980201Y-55223886D01*
X116039511Y-55326613D01*
X116123387Y-55410489D01*
X116226114Y-55469799D01*
X116340691Y-55500500D01*
X116340694Y-55500500D01*
X116459306Y-55500500D01*
X116459309Y-55500500D01*
X116573886Y-55469799D01*
X116676613Y-55410489D01*
X116760489Y-55326613D01*
X116819799Y-55223886D01*
X116850500Y-55109309D01*
X116850500Y-54990691D01*
X116850500Y-54982564D01*
X116851767Y-54982564D01*
X116861262Y-54921655D01*
X116907640Y-54869397D01*
X116973438Y-54850500D01*
X117689560Y-54850500D01*
X117689562Y-54850500D01*
X117765989Y-54830021D01*
X117834511Y-54790460D01*
X117890460Y-54734511D01*
X117938152Y-54686819D01*
X117999475Y-54653334D01*
X118025833Y-54650500D01*
X118059306Y-54650500D01*
X118059309Y-54650500D01*
X118173886Y-54619799D01*
X118276613Y-54560489D01*
X118360489Y-54476613D01*
X118419799Y-54373886D01*
X118450500Y-54259309D01*
X118450500Y-54240691D01*
X118869500Y-54240691D01*
X118869500Y-54359309D01*
X118900201Y-54473886D01*
X118959511Y-54576613D01*
X119043387Y-54660489D01*
X119146114Y-54719799D01*
X119260691Y-54750500D01*
X119260694Y-54750500D01*
X119379306Y-54750500D01*
X119379309Y-54750500D01*
X119493886Y-54719799D01*
X119596613Y-54660489D01*
X119615188Y-54641913D01*
X119676508Y-54608428D01*
X119746200Y-54613411D01*
X119802135Y-54655282D01*
X119822644Y-54697500D01*
X119858719Y-54832135D01*
X119934485Y-54963365D01*
X120041635Y-55070515D01*
X120137935Y-55126114D01*
X120175520Y-55147814D01*
X120223736Y-55198381D01*
X120236958Y-55266988D01*
X120210990Y-55331853D01*
X120154076Y-55372381D01*
X120145616Y-55374975D01*
X120126114Y-55380200D01*
X120023387Y-55439511D01*
X120023384Y-55439513D01*
X119939513Y-55523384D01*
X119939511Y-55523387D01*
X119908780Y-55576615D01*
X119880201Y-55626114D01*
X119849500Y-55740691D01*
X119849500Y-55859309D01*
X119880201Y-55973886D01*
X119939511Y-56076613D01*
X120023387Y-56160489D01*
X120126114Y-56219799D01*
X120240691Y-56250500D01*
X120240694Y-56250500D01*
X120359306Y-56250500D01*
X120359309Y-56250500D01*
X120473886Y-56219799D01*
X120576613Y-56160489D01*
X120660489Y-56076613D01*
X120719799Y-55973886D01*
X120750500Y-55859309D01*
X120750500Y-55740691D01*
X120719799Y-55626114D01*
X120660489Y-55523387D01*
X120576613Y-55439511D01*
X120501817Y-55396327D01*
X120490448Y-55384403D01*
X120476000Y-55376485D01*
X120466834Y-55359637D01*
X120453602Y-55345759D01*
X120450484Y-55329582D01*
X120442611Y-55315110D01*
X120444008Y-55295982D01*
X120440380Y-55277152D01*
X120446503Y-55261857D01*
X120447704Y-55245426D01*
X120451259Y-55240691D01*
X121549500Y-55240691D01*
X121549500Y-55359309D01*
X121580201Y-55473886D01*
X121639511Y-55576613D01*
X121723387Y-55660489D01*
X121826114Y-55719799D01*
X121940691Y-55750500D01*
X121940694Y-55750500D01*
X122059306Y-55750500D01*
X122059309Y-55750500D01*
X122173886Y-55719799D01*
X122276613Y-55660489D01*
X122360489Y-55576613D01*
X122419799Y-55473886D01*
X122450500Y-55359309D01*
X122450500Y-55240691D01*
X122419799Y-55126114D01*
X122360489Y-55023387D01*
X122276613Y-54939511D01*
X122173886Y-54880201D01*
X122059309Y-54849500D01*
X121940691Y-54849500D01*
X121826114Y-54880201D01*
X121826112Y-54880201D01*
X121826112Y-54880202D01*
X121723387Y-54939511D01*
X121723384Y-54939513D01*
X121639513Y-55023384D01*
X121639511Y-55023387D01*
X121610355Y-55073887D01*
X121580201Y-55126114D01*
X121549500Y-55240691D01*
X120451259Y-55240691D01*
X120459219Y-55230091D01*
X120466348Y-55212287D01*
X120480145Y-55202229D01*
X120489662Y-55189557D01*
X120513145Y-55178172D01*
X120520665Y-55172691D01*
X120526099Y-55170673D01*
X120617135Y-55146281D01*
X120748365Y-55070515D01*
X120855515Y-54963365D01*
X120931281Y-54832135D01*
X120970500Y-54685766D01*
X120970500Y-54534234D01*
X120931281Y-54387865D01*
X120855515Y-54256635D01*
X120748365Y-54149485D01*
X120731850Y-54139950D01*
X120731849Y-54139949D01*
X120617137Y-54073720D01*
X120617136Y-54073719D01*
X120617135Y-54073719D01*
X120493871Y-54040691D01*
X121549500Y-54040691D01*
X121549500Y-54159309D01*
X121580201Y-54273886D01*
X121639511Y-54376613D01*
X121723387Y-54460489D01*
X121826114Y-54519799D01*
X121940691Y-54550500D01*
X121940694Y-54550500D01*
X122059306Y-54550500D01*
X122059309Y-54550500D01*
X122173886Y-54519799D01*
X122276613Y-54460489D01*
X122360489Y-54376613D01*
X122419799Y-54273886D01*
X122450500Y-54159309D01*
X122450500Y-54040691D01*
X122419799Y-53926114D01*
X122360489Y-53823387D01*
X122276613Y-53739511D01*
X122173886Y-53680201D01*
X122059309Y-53649500D01*
X121940691Y-53649500D01*
X121826114Y-53680201D01*
X121826112Y-53680201D01*
X121826112Y-53680202D01*
X121723387Y-53739511D01*
X121723384Y-53739513D01*
X121639513Y-53823384D01*
X121639511Y-53823387D01*
X121606709Y-53880202D01*
X121580201Y-53926114D01*
X121549500Y-54040691D01*
X120493871Y-54040691D01*
X120470766Y-54034500D01*
X120319234Y-54034500D01*
X120172863Y-54073719D01*
X120041635Y-54149485D01*
X119960391Y-54230729D01*
X119899067Y-54264213D01*
X119829376Y-54259229D01*
X119773442Y-54217357D01*
X119752936Y-54175142D01*
X119739799Y-54126114D01*
X119680489Y-54023387D01*
X119596613Y-53939511D01*
X119493886Y-53880201D01*
X119379309Y-53849500D01*
X119260691Y-53849500D01*
X119146114Y-53880201D01*
X119146112Y-53880201D01*
X119146112Y-53880202D01*
X119043387Y-53939511D01*
X119043384Y-53939513D01*
X118959513Y-54023384D01*
X118959511Y-54023387D01*
X118930452Y-54073719D01*
X118900201Y-54126114D01*
X118869500Y-54240691D01*
X118450500Y-54240691D01*
X118450500Y-54140691D01*
X118419799Y-54026114D01*
X118360489Y-53923387D01*
X118276613Y-53839511D01*
X118173886Y-53780201D01*
X118059309Y-53749500D01*
X117940691Y-53749500D01*
X117826114Y-53780201D01*
X117826112Y-53780201D01*
X117826112Y-53780202D01*
X117723387Y-53839511D01*
X117723384Y-53839513D01*
X117639513Y-53923384D01*
X117639511Y-53923387D01*
X117580201Y-54026114D01*
X117549500Y-54140691D01*
X117549500Y-54140692D01*
X117549369Y-54141689D01*
X117549024Y-54142466D01*
X117547397Y-54148542D01*
X117546449Y-54148288D01*
X117521100Y-54205585D01*
X117462775Y-54244054D01*
X117426430Y-54249500D01*
X115124000Y-54249500D01*
X115056961Y-54229815D01*
X115011206Y-54177011D01*
X115000000Y-54125500D01*
X115000000Y-50624500D01*
X115019685Y-50557461D01*
X115072489Y-50511706D01*
X115124000Y-50500500D01*
X117563036Y-50500500D01*
X117630075Y-50520185D01*
G37*
%TD.AperFunction*%
%TD*%
%TA.AperFunction,Conductor*%
%TO.N,VBUS*%
G36*
X100812787Y-50505521D02*
G01*
X100826106Y-50509432D01*
X100884884Y-50547206D01*
X100913910Y-50610761D01*
X100913912Y-50610778D01*
X100914143Y-50612386D01*
X100908587Y-50670564D01*
X100906948Y-50675301D01*
X100897152Y-50696754D01*
X100880201Y-50726113D01*
X100876295Y-50740691D01*
X100849500Y-50840691D01*
X100849500Y-50959309D01*
X100880201Y-51073886D01*
X100939511Y-51176613D01*
X101023387Y-51260489D01*
X101126114Y-51319799D01*
X101240691Y-51350500D01*
X101240694Y-51350500D01*
X101359306Y-51350500D01*
X101359309Y-51350500D01*
X101473886Y-51319799D01*
X101576613Y-51260489D01*
X101660489Y-51176613D01*
X101719799Y-51073886D01*
X101750500Y-50959309D01*
X101750500Y-50840691D01*
X101719799Y-50726114D01*
X101705838Y-50701934D01*
X101692724Y-50669175D01*
X101689452Y-50655688D01*
X101692776Y-50585897D01*
X101733266Y-50529012D01*
X101734552Y-50528002D01*
X101787782Y-50503686D01*
X101792709Y-50502737D01*
X101816156Y-50500500D01*
X103734429Y-50500500D01*
X103762900Y-50504593D01*
X103769361Y-50505521D01*
X103782680Y-50509432D01*
X103841458Y-50547206D01*
X103870484Y-50610761D01*
X103871694Y-50619176D01*
X103868731Y-50668917D01*
X103849500Y-50740689D01*
X103849500Y-50740691D01*
X103849500Y-50859309D01*
X103880201Y-50973886D01*
X103939511Y-51076613D01*
X104023387Y-51160489D01*
X104126114Y-51219799D01*
X104240691Y-51250500D01*
X104240694Y-51250500D01*
X104359306Y-51250500D01*
X104359309Y-51250500D01*
X104473886Y-51219799D01*
X104576613Y-51160489D01*
X104660489Y-51076613D01*
X104660491Y-51076608D01*
X104661876Y-51074805D01*
X104674683Y-51060542D01*
X104686689Y-51049094D01*
X104748789Y-51017077D01*
X104818341Y-51023715D01*
X104819859Y-51024323D01*
X104867481Y-51058236D01*
X104870765Y-51062026D01*
X104884437Y-51081226D01*
X104908778Y-51123384D01*
X104930094Y-51160303D01*
X104939511Y-51176613D01*
X105023387Y-51260489D01*
X105126114Y-51319799D01*
X105240691Y-51350500D01*
X105240694Y-51350500D01*
X105359306Y-51350500D01*
X105359309Y-51350500D01*
X105473886Y-51319799D01*
X105576613Y-51260489D01*
X105660489Y-51176613D01*
X105719799Y-51073886D01*
X105750500Y-50959309D01*
X105750500Y-50840691D01*
X105719799Y-50726114D01*
X105705838Y-50701934D01*
X105692724Y-50669175D01*
X105689452Y-50655688D01*
X105692776Y-50585897D01*
X105733266Y-50529012D01*
X105734552Y-50528002D01*
X105787782Y-50503686D01*
X105792709Y-50502737D01*
X105816156Y-50500500D01*
X106077855Y-50500500D01*
X106106326Y-50504593D01*
X106112787Y-50505521D01*
X106126106Y-50509432D01*
X106184884Y-50547206D01*
X106213910Y-50610761D01*
X106213912Y-50610778D01*
X106214143Y-50612386D01*
X106208587Y-50670564D01*
X106206948Y-50675301D01*
X106197152Y-50696754D01*
X106180201Y-50726113D01*
X106176295Y-50740691D01*
X106149500Y-50840691D01*
X106149500Y-50959309D01*
X106180201Y-51073886D01*
X106239511Y-51176613D01*
X106323387Y-51260489D01*
X106426114Y-51319799D01*
X106540691Y-51350500D01*
X106540694Y-51350500D01*
X106659306Y-51350500D01*
X106659309Y-51350500D01*
X106773886Y-51319799D01*
X106876613Y-51260489D01*
X106960489Y-51176613D01*
X107019799Y-51073886D01*
X107050500Y-50959309D01*
X107050500Y-50840691D01*
X107019799Y-50726114D01*
X107005838Y-50701934D01*
X106992724Y-50669175D01*
X106989452Y-50655688D01*
X106992776Y-50585897D01*
X107033266Y-50529012D01*
X107034552Y-50528002D01*
X107087782Y-50503686D01*
X107092709Y-50502737D01*
X107116156Y-50500500D01*
X108677855Y-50500500D01*
X108706326Y-50504593D01*
X108712787Y-50505521D01*
X108726106Y-50509432D01*
X108784884Y-50547206D01*
X108813910Y-50610761D01*
X108813912Y-50610778D01*
X108814143Y-50612386D01*
X108808587Y-50670564D01*
X108806948Y-50675301D01*
X108797152Y-50696754D01*
X108780201Y-50726113D01*
X108776295Y-50740691D01*
X108749500Y-50840691D01*
X108749500Y-50959309D01*
X108780201Y-51073886D01*
X108781776Y-51076613D01*
X108781938Y-51076894D01*
X108782140Y-51077246D01*
X108782174Y-51077391D01*
X108795095Y-51109730D01*
X108797761Y-51120719D01*
X108796909Y-51138613D01*
X108798389Y-51138613D01*
X108798389Y-51138614D01*
X108796909Y-51138614D01*
X108796900Y-51138790D01*
X108798435Y-51145190D01*
X108796304Y-51151292D01*
X108794437Y-51190509D01*
X108753910Y-51247424D01*
X108689059Y-51273391D01*
X108682894Y-51273980D01*
X108681423Y-51274120D01*
X108637529Y-51270459D01*
X108600320Y-51260489D01*
X108600318Y-51260488D01*
X108559310Y-51249500D01*
X108559309Y-51249500D01*
X108440691Y-51249500D01*
X108349728Y-51273873D01*
X108349723Y-51273874D01*
X108326114Y-51280201D01*
X108326112Y-51280201D01*
X108326112Y-51280202D01*
X108304947Y-51292421D01*
X108304939Y-51292425D01*
X108223386Y-51339511D01*
X108223378Y-51339517D01*
X108139517Y-51423378D01*
X108139513Y-51423383D01*
X108139511Y-51423387D01*
X108080201Y-51526114D01*
X108049500Y-51640691D01*
X108049500Y-51759309D01*
X108080201Y-51873886D01*
X108139511Y-51976613D01*
X108223387Y-52060489D01*
X108326114Y-52119799D01*
X108440691Y-52150500D01*
X108440694Y-52150500D01*
X108559306Y-52150500D01*
X108559309Y-52150500D01*
X108673886Y-52119799D01*
X108776613Y-52060489D01*
X108860489Y-51976613D01*
X108919799Y-51873886D01*
X108950500Y-51759309D01*
X108950500Y-51640691D01*
X108919799Y-51526114D01*
X108919797Y-51526110D01*
X108918019Y-51523029D01*
X108904903Y-51490269D01*
X108902237Y-51479281D01*
X108905560Y-51409490D01*
X108946086Y-51352575D01*
X109010947Y-51326605D01*
X109018585Y-51325876D01*
X109062463Y-51329538D01*
X109140691Y-51350500D01*
X109140694Y-51350500D01*
X109259306Y-51350500D01*
X109259309Y-51350500D01*
X109295916Y-51340691D01*
X111249500Y-51340691D01*
X111249500Y-51459309D01*
X111280201Y-51573886D01*
X111339511Y-51676613D01*
X111423387Y-51760489D01*
X111526114Y-51819799D01*
X111640691Y-51850500D01*
X111640694Y-51850500D01*
X111759306Y-51850500D01*
X111759309Y-51850500D01*
X111873886Y-51819799D01*
X111976613Y-51760489D01*
X112060489Y-51676613D01*
X112119799Y-51573886D01*
X112150500Y-51459309D01*
X112150500Y-51340691D01*
X112119799Y-51226114D01*
X112060489Y-51123387D01*
X111976613Y-51039511D01*
X111873886Y-50980201D01*
X111759309Y-50949500D01*
X111759306Y-50949500D01*
X111640691Y-50949500D01*
X111549728Y-50973873D01*
X111549723Y-50973874D01*
X111526114Y-50980201D01*
X111526112Y-50980201D01*
X111526112Y-50980202D01*
X111504947Y-50992421D01*
X111504939Y-50992425D01*
X111423386Y-51039511D01*
X111423378Y-51039517D01*
X111339517Y-51123378D01*
X111339513Y-51123383D01*
X111339512Y-51123385D01*
X111314640Y-51166464D01*
X111314639Y-51166466D01*
X111308780Y-51176615D01*
X111280201Y-51226114D01*
X111249500Y-51340691D01*
X109295916Y-51340691D01*
X109373886Y-51319799D01*
X109476613Y-51260489D01*
X109560489Y-51176613D01*
X109619799Y-51073886D01*
X109650500Y-50959309D01*
X109650500Y-50840691D01*
X109619799Y-50726114D01*
X109605838Y-50701934D01*
X109592724Y-50669175D01*
X109589452Y-50655688D01*
X109592776Y-50585897D01*
X109633266Y-50529012D01*
X109634552Y-50528002D01*
X109687782Y-50503686D01*
X109692709Y-50502737D01*
X109716156Y-50500500D01*
X114670500Y-50500500D01*
X114737539Y-50520185D01*
X114783294Y-50572989D01*
X114794500Y-50624500D01*
X114794500Y-54125500D01*
X114774815Y-54192539D01*
X114722011Y-54238294D01*
X114670500Y-54249500D01*
X114078968Y-54249500D01*
X114078965Y-54249499D01*
X114078964Y-54249500D01*
X114044029Y-54244476D01*
X114030711Y-54240565D01*
X113971934Y-54202789D01*
X113942912Y-54139235D01*
X113942734Y-54138000D01*
X113941702Y-54130817D01*
X113944666Y-54081076D01*
X113950500Y-54059309D01*
X113950500Y-53940691D01*
X113919799Y-53826114D01*
X113860489Y-53723387D01*
X113776613Y-53639511D01*
X113673886Y-53580201D01*
X113559309Y-53549500D01*
X113559306Y-53549500D01*
X113440691Y-53549500D01*
X113349728Y-53573873D01*
X113349723Y-53573874D01*
X113326114Y-53580201D01*
X113326112Y-53580201D01*
X113326112Y-53580202D01*
X113304947Y-53592421D01*
X113304939Y-53592425D01*
X113223387Y-53639510D01*
X113167331Y-53695566D01*
X113167327Y-53695568D01*
X113167328Y-53695568D01*
X113139073Y-53716718D01*
X113125355Y-53724208D01*
X113057097Y-53739059D01*
X113057082Y-53739057D01*
X113057082Y-53739058D01*
X113057081Y-53739057D01*
X113055291Y-53738930D01*
X112997090Y-53719562D01*
X112990575Y-53715375D01*
X112969939Y-53698745D01*
X112960707Y-53689513D01*
X112960705Y-53689511D01*
X112857978Y-53630201D01*
X112743401Y-53599500D01*
X112743398Y-53599500D01*
X112624783Y-53599500D01*
X112533820Y-53623873D01*
X112533815Y-53623874D01*
X112510206Y-53630201D01*
X112510204Y-53630201D01*
X112510204Y-53630202D01*
X112489039Y-53642421D01*
X112489031Y-53642425D01*
X112407478Y-53689511D01*
X112407470Y-53689517D01*
X112323609Y-53773378D01*
X112323605Y-53773383D01*
X112323604Y-53773385D01*
X112323603Y-53773387D01*
X112290521Y-53830687D01*
X112279659Y-53849500D01*
X112264293Y-53876114D01*
X112233592Y-53990691D01*
X112233592Y-54099701D01*
X112232112Y-54118800D01*
X112228670Y-54140880D01*
X112198895Y-54204088D01*
X112140379Y-54240963D01*
X112127430Y-54244682D01*
X112093201Y-54249500D01*
X111534221Y-54249500D01*
X111467182Y-54229815D01*
X111424556Y-54180623D01*
X111385282Y-54228191D01*
X111318730Y-54249465D01*
X111315779Y-54249500D01*
X111055307Y-54249500D01*
X110996230Y-54265330D01*
X110996229Y-54265329D01*
X110978878Y-54269978D01*
X110978873Y-54269980D01*
X110933961Y-54295912D01*
X110933957Y-54295915D01*
X110910360Y-54309537D01*
X110910352Y-54309544D01*
X109076714Y-56143183D01*
X109055708Y-56158908D01*
X109048463Y-56164332D01*
X109025375Y-56176940D01*
X108965945Y-56192110D01*
X108942950Y-56192110D01*
X108851987Y-56216483D01*
X108851982Y-56216484D01*
X108828373Y-56222811D01*
X108828371Y-56222811D01*
X108828371Y-56222812D01*
X108807205Y-56235032D01*
X108807196Y-56235036D01*
X108725649Y-56282119D01*
X108725647Y-56282120D01*
X108661913Y-56345854D01*
X108661910Y-56345855D01*
X108661910Y-56345857D01*
X108633655Y-56367006D01*
X108619935Y-56374497D01*
X108551670Y-56389347D01*
X108551663Y-56389346D01*
X108551661Y-56389347D01*
X108551658Y-56389346D01*
X108542829Y-56388715D01*
X108489676Y-56372421D01*
X108488311Y-56371633D01*
X108459874Y-56341812D01*
X108416550Y-56330202D01*
X108416551Y-56330202D01*
X108407155Y-56327684D01*
X108407153Y-56327683D01*
X108338582Y-56309310D01*
X108301970Y-56299500D01*
X108301969Y-56299500D01*
X108183350Y-56299500D01*
X108180924Y-56299819D01*
X108161813Y-56300842D01*
X108143545Y-56300408D01*
X108076992Y-56279137D01*
X108076991Y-56279136D01*
X108076966Y-56279119D01*
X108075467Y-56278104D01*
X108034773Y-56232244D01*
X108031228Y-56225367D01*
X108021670Y-56200638D01*
X108019800Y-56193658D01*
X108019799Y-56193657D01*
X108019799Y-56193656D01*
X107960489Y-56090929D01*
X107876613Y-56007053D01*
X107874608Y-56005895D01*
X107819096Y-55973844D01*
X107819031Y-55973807D01*
X107818299Y-55973385D01*
X107773887Y-55947743D01*
X107772200Y-55947291D01*
X107771130Y-55947004D01*
X107761994Y-55941892D01*
X107761401Y-55941286D01*
X107758010Y-55939564D01*
X107743624Y-55930795D01*
X107696628Y-55879094D01*
X107685043Y-55810191D01*
X107710241Y-55748846D01*
X107720944Y-55735068D01*
X107731173Y-55723472D01*
X107810491Y-55644155D01*
X107869801Y-55541428D01*
X107900502Y-55426851D01*
X107900502Y-55308233D01*
X107869801Y-55193656D01*
X107810491Y-55090929D01*
X107810486Y-55090924D01*
X107806484Y-55085708D01*
X107796024Y-55069642D01*
X107788190Y-55055294D01*
X107783482Y-55033651D01*
X107773340Y-54987027D01*
X107773637Y-54982875D01*
X107773972Y-54978186D01*
X107790268Y-54925034D01*
X107819799Y-54873886D01*
X107850500Y-54759309D01*
X107850500Y-54690691D01*
X108099500Y-54690691D01*
X108099500Y-54809309D01*
X108130201Y-54923886D01*
X108189511Y-55026613D01*
X108273387Y-55110489D01*
X108376114Y-55169799D01*
X108490691Y-55200500D01*
X108490694Y-55200500D01*
X108609306Y-55200500D01*
X108609309Y-55200500D01*
X108723886Y-55169799D01*
X108826613Y-55110489D01*
X108910489Y-55026613D01*
X108969799Y-54923886D01*
X109000500Y-54809309D01*
X109000500Y-54690691D01*
X108969799Y-54576114D01*
X108910489Y-54473387D01*
X108826613Y-54389511D01*
X108723886Y-54330201D01*
X108609309Y-54299500D01*
X108609306Y-54299500D01*
X108490691Y-54299500D01*
X108399728Y-54323873D01*
X108399723Y-54323874D01*
X108376114Y-54330201D01*
X108376112Y-54330201D01*
X108376112Y-54330202D01*
X108354947Y-54342421D01*
X108354939Y-54342425D01*
X108273386Y-54389511D01*
X108273378Y-54389517D01*
X108189517Y-54473378D01*
X108189513Y-54473383D01*
X108130202Y-54576112D01*
X108130201Y-54576114D01*
X108099500Y-54690691D01*
X107850500Y-54690691D01*
X107850500Y-54640691D01*
X107819799Y-54526114D01*
X107760489Y-54423387D01*
X107676613Y-54339511D01*
X107573886Y-54280201D01*
X107459309Y-54249500D01*
X107459306Y-54249500D01*
X107340691Y-54249500D01*
X107249728Y-54273873D01*
X107249723Y-54273874D01*
X107226114Y-54280201D01*
X107226112Y-54280201D01*
X107226112Y-54280202D01*
X107204947Y-54292421D01*
X107204939Y-54292425D01*
X107123386Y-54339511D01*
X107123378Y-54339517D01*
X107039517Y-54423378D01*
X107039513Y-54423383D01*
X107039507Y-54423392D01*
X106989253Y-54510436D01*
X106989252Y-54510438D01*
X106980201Y-54526114D01*
X106949500Y-54640691D01*
X106949500Y-54759309D01*
X106980201Y-54873886D01*
X107039511Y-54976613D01*
X107039513Y-54976615D01*
X107043518Y-54981834D01*
X107053974Y-54997894D01*
X107061809Y-55012243D01*
X107076660Y-55080512D01*
X107076028Y-55089352D01*
X107059733Y-55142507D01*
X107034912Y-55185499D01*
X107030203Y-55193656D01*
X106999502Y-55308233D01*
X106999502Y-55308235D01*
X106999502Y-55323879D01*
X106999501Y-55323881D01*
X106999502Y-55323883D01*
X106994478Y-55358818D01*
X106987066Y-55384058D01*
X106955771Y-55436800D01*
X106859545Y-55533025D01*
X106859544Y-55533027D01*
X106859526Y-55533052D01*
X106820485Y-55600674D01*
X106820010Y-55601480D01*
X106819977Y-55601557D01*
X106806326Y-55652502D01*
X106806326Y-55652506D01*
X106799500Y-55677982D01*
X106799500Y-56646666D01*
X106805699Y-56669800D01*
X106819979Y-56723095D01*
X106819980Y-56723096D01*
X106820435Y-56723884D01*
X106820437Y-56723887D01*
X106820438Y-56723888D01*
X106822829Y-56728030D01*
X106822830Y-56728031D01*
X106826892Y-56735067D01*
X106859535Y-56791607D01*
X106859541Y-56791616D01*
X106859545Y-56791621D01*
X107104311Y-57036386D01*
X107124014Y-57062063D01*
X107139785Y-57089378D01*
X107152171Y-57119279D01*
X107180201Y-57223886D01*
X107239511Y-57326613D01*
X107323387Y-57410489D01*
X107426114Y-57469799D01*
X107540691Y-57500500D01*
X107556337Y-57500500D01*
X107591269Y-57505521D01*
X107616513Y-57512934D01*
X107669259Y-57544230D01*
X108256033Y-58131004D01*
X108277183Y-58159256D01*
X108289791Y-58182345D01*
X108304960Y-58241774D01*
X108304960Y-61063406D01*
X108304959Y-61063409D01*
X108304960Y-61063411D01*
X108299936Y-61098346D01*
X108292524Y-61123585D01*
X108261233Y-61176322D01*
X108244973Y-61192583D01*
X108244971Y-61192586D01*
X108214556Y-61245263D01*
X108209786Y-61250781D01*
X108208364Y-61254926D01*
X108184074Y-61280532D01*
X108176438Y-61286569D01*
X108111641Y-61312705D01*
X108053428Y-61304406D01*
X108051623Y-61303683D01*
X108047055Y-61300429D01*
X108043000Y-61299659D01*
X108034036Y-61291156D01*
X108004011Y-61269770D01*
X108000730Y-61265983D01*
X107987062Y-61246788D01*
X107979718Y-61234068D01*
X107960488Y-61200760D01*
X107876612Y-61116884D01*
X107773885Y-61057574D01*
X107659308Y-61026873D01*
X107659305Y-61026873D01*
X107651213Y-61026873D01*
X107635509Y-61022619D01*
X107621334Y-61023219D01*
X107616278Y-61021850D01*
X107605424Y-61018663D01*
X107594152Y-61011419D01*
X107588638Y-61009926D01*
X107579776Y-61004746D01*
X107573629Y-60998229D01*
X107546646Y-60980889D01*
X107536675Y-60959056D01*
X107531832Y-60953922D01*
X107530096Y-60944650D01*
X107517621Y-60917333D01*
X107520816Y-60895073D01*
X107518977Y-60885245D01*
X107524002Y-60872885D01*
X107527542Y-60848225D01*
X107527801Y-60847658D01*
X107541542Y-60829744D01*
X107545293Y-60820520D01*
X107552522Y-60815430D01*
X107561668Y-60803506D01*
X107563415Y-60802063D01*
X107580342Y-60790311D01*
X107677268Y-60734352D01*
X107761144Y-60650476D01*
X107820454Y-60547749D01*
X107851155Y-60433172D01*
X107851155Y-60314554D01*
X107820454Y-60199977D01*
X107761144Y-60097250D01*
X107677268Y-60013374D01*
X107574541Y-59954064D01*
X107459964Y-59923363D01*
X107459961Y-59923363D01*
X107341346Y-59923363D01*
X107250383Y-59947736D01*
X107250378Y-59947737D01*
X107226769Y-59954064D01*
X107226767Y-59954064D01*
X107226767Y-59954065D01*
X107205602Y-59966284D01*
X107205594Y-59966288D01*
X107124041Y-60013374D01*
X107124033Y-60013380D01*
X107040172Y-60097241D01*
X107040168Y-60097246D01*
X106997232Y-60171613D01*
X106980856Y-60199977D01*
X106950155Y-60314554D01*
X106950155Y-60433172D01*
X106980856Y-60547749D01*
X107040166Y-60650476D01*
X107124042Y-60734352D01*
X107192978Y-60774152D01*
X107205028Y-60786790D01*
X107220721Y-60795970D01*
X107224940Y-60800395D01*
X107233105Y-60816235D01*
X107241192Y-60824717D01*
X107243411Y-60836229D01*
X107256951Y-60862498D01*
X107254141Y-60891901D01*
X107254416Y-60893324D01*
X107254273Y-60894733D01*
X107253776Y-60899377D01*
X107253322Y-60900472D01*
X107250306Y-60932050D01*
X107229115Y-60958992D01*
X107227069Y-60963941D01*
X107222999Y-60966769D01*
X107207113Y-60986969D01*
X107180871Y-60996049D01*
X107169696Y-61003817D01*
X107157108Y-61004272D01*
X107141084Y-61009818D01*
X107141080Y-61009818D01*
X107136369Y-61010042D01*
X107101461Y-61006287D01*
X107099872Y-61006345D01*
X107099400Y-61006065D01*
X107098389Y-61005957D01*
X107073177Y-60999202D01*
X107073176Y-60999202D01*
X107010823Y-60982495D01*
X107010822Y-60982495D01*
X106892204Y-60982495D01*
X106801241Y-61006868D01*
X106801236Y-61006869D01*
X106777627Y-61013196D01*
X106777625Y-61013196D01*
X106777625Y-61013197D01*
X106756460Y-61025416D01*
X106756452Y-61025420D01*
X106674899Y-61072506D01*
X106674891Y-61072512D01*
X106591030Y-61156373D01*
X106591026Y-61156378D01*
X106591025Y-61156379D01*
X106537139Y-61249713D01*
X106537138Y-61249712D01*
X106531716Y-61259104D01*
X106531713Y-61259111D01*
X106517353Y-61312705D01*
X106501013Y-61373686D01*
X106501013Y-61492304D01*
X106531714Y-61606881D01*
X106591024Y-61709608D01*
X106674900Y-61793484D01*
X106777627Y-61852794D01*
X106892204Y-61883495D01*
X106892207Y-61883495D01*
X107010819Y-61883495D01*
X107010820Y-61883495D01*
X107010822Y-61883495D01*
X107125399Y-61852794D01*
X107162547Y-61831345D01*
X107195304Y-61818231D01*
X107210498Y-61814545D01*
X107280283Y-61817867D01*
X107290039Y-61821243D01*
X107329574Y-61843755D01*
X107334971Y-61848320D01*
X107344042Y-61850002D01*
X107349993Y-61853223D01*
X107426113Y-61897172D01*
X107540690Y-61927873D01*
X107540693Y-61927873D01*
X107659305Y-61927873D01*
X107659308Y-61927873D01*
X107773885Y-61897172D01*
X107876612Y-61837862D01*
X107960488Y-61753986D01*
X107988790Y-61704963D01*
X108010600Y-61677229D01*
X108020649Y-61667647D01*
X108082750Y-61635633D01*
X108152300Y-61642273D01*
X108153486Y-61642748D01*
X108153830Y-61642886D01*
X108201444Y-61676800D01*
X108204725Y-61680587D01*
X108218392Y-61699780D01*
X108224068Y-61709610D01*
X108244966Y-61745806D01*
X108244969Y-61745810D01*
X108244971Y-61745813D01*
X108328847Y-61829689D01*
X108431574Y-61888999D01*
X108546151Y-61919700D01*
X108546154Y-61919700D01*
X108664766Y-61919700D01*
X108664769Y-61919700D01*
X108779346Y-61888999D01*
X108882073Y-61829689D01*
X108965949Y-61745813D01*
X109025259Y-61643086D01*
X109055960Y-61528509D01*
X109055960Y-61409891D01*
X109025259Y-61295314D01*
X108965949Y-61192587D01*
X108954885Y-61181523D01*
X108935103Y-61155711D01*
X108934421Y-61154527D01*
X108927575Y-61141989D01*
X108924002Y-61136430D01*
X108922497Y-61133815D01*
X108914985Y-61102686D01*
X108905960Y-61071946D01*
X108905960Y-61070006D01*
X108906385Y-61067044D01*
X108906108Y-61065894D01*
X108906863Y-61063718D01*
X108910982Y-61035073D01*
X108913390Y-61026873D01*
X108914893Y-61021754D01*
X108952666Y-60962977D01*
X109016215Y-60933952D01*
X109024633Y-60932742D01*
X109074371Y-60935703D01*
X109204234Y-60970500D01*
X109204237Y-60970500D01*
X109355764Y-60970500D01*
X109355766Y-60970500D01*
X109502135Y-60931281D01*
X109633365Y-60855515D01*
X109740515Y-60748365D01*
X109816281Y-60617135D01*
X109855500Y-60470766D01*
X109855500Y-60319234D01*
X109816281Y-60172865D01*
X109816276Y-60172857D01*
X109795361Y-60136631D01*
X109740515Y-60041635D01*
X109633365Y-59934485D01*
X109579585Y-59903435D01*
X111049500Y-59903435D01*
X111049500Y-60022053D01*
X111080201Y-60136630D01*
X111139511Y-60239357D01*
X111223387Y-60323233D01*
X111326114Y-60382543D01*
X111440691Y-60413244D01*
X111440694Y-60413244D01*
X111559306Y-60413244D01*
X111559309Y-60413244D01*
X111673886Y-60382543D01*
X111776613Y-60323233D01*
X111860489Y-60239357D01*
X111919799Y-60136630D01*
X111950500Y-60022053D01*
X111950500Y-59903435D01*
X111919799Y-59788858D01*
X111860489Y-59686131D01*
X111776613Y-59602255D01*
X111673886Y-59542945D01*
X111559309Y-59512244D01*
X111559306Y-59512244D01*
X111440691Y-59512244D01*
X111349728Y-59536617D01*
X111349723Y-59536618D01*
X111326114Y-59542945D01*
X111326112Y-59542945D01*
X111326112Y-59542946D01*
X111304947Y-59555165D01*
X111304939Y-59555169D01*
X111223386Y-59602255D01*
X111223378Y-59602261D01*
X111139517Y-59686122D01*
X111139513Y-59686127D01*
X111139507Y-59686136D01*
X111119315Y-59721111D01*
X111080201Y-59788857D01*
X111074794Y-59809038D01*
X111049500Y-59903435D01*
X109579585Y-59903435D01*
X109532200Y-59876077D01*
X109502136Y-59858719D01*
X109416192Y-59835691D01*
X109355766Y-59819500D01*
X109355765Y-59819500D01*
X109204230Y-59819500D01*
X109079276Y-59852979D01*
X109079276Y-59852980D01*
X109079273Y-59852980D01*
X109079271Y-59852981D01*
X109044231Y-59857171D01*
X109030357Y-59856841D01*
X108963805Y-59835568D01*
X108919319Y-59781691D01*
X108919317Y-59781687D01*
X108915971Y-59773873D01*
X108905960Y-59725062D01*
X108905960Y-58015901D01*
X108905959Y-58015894D01*
X108904673Y-58011098D01*
X108903660Y-58007314D01*
X108885481Y-57939471D01*
X108885479Y-57939467D01*
X108884609Y-57937960D01*
X108884601Y-57937947D01*
X108866911Y-57907305D01*
X108845924Y-57870955D01*
X108845918Y-57870947D01*
X108845916Y-57870945D01*
X108845914Y-57870942D01*
X108828407Y-57853435D01*
X109449500Y-57853435D01*
X109449500Y-57972053D01*
X109480201Y-58086630D01*
X109539511Y-58189357D01*
X109623387Y-58273233D01*
X109726114Y-58332543D01*
X109840691Y-58363244D01*
X109840694Y-58363244D01*
X109959306Y-58363244D01*
X109959309Y-58363244D01*
X110073886Y-58332543D01*
X110176613Y-58273233D01*
X110260489Y-58189357D01*
X110319799Y-58086630D01*
X110350500Y-57972053D01*
X110350500Y-57853435D01*
X110319799Y-57738858D01*
X110260489Y-57636131D01*
X110176613Y-57552255D01*
X110073886Y-57492945D01*
X109959309Y-57462244D01*
X109959306Y-57462244D01*
X109840691Y-57462244D01*
X109749728Y-57486617D01*
X109749723Y-57486618D01*
X109726114Y-57492945D01*
X109726112Y-57492945D01*
X109726112Y-57492946D01*
X109704947Y-57505165D01*
X109704939Y-57505169D01*
X109623386Y-57552255D01*
X109623378Y-57552261D01*
X109539517Y-57636122D01*
X109539513Y-57636127D01*
X109524169Y-57662704D01*
X109480201Y-57738857D01*
X109473081Y-57765429D01*
X109449500Y-57853435D01*
X108828407Y-57853435D01*
X108366680Y-57391709D01*
X108366675Y-57391704D01*
X108345529Y-57363457D01*
X108338874Y-57351269D01*
X108324023Y-57282999D01*
X108348437Y-57217538D01*
X108349436Y-57216203D01*
X108394494Y-57179011D01*
X108399009Y-57176817D01*
X108409095Y-57173056D01*
X108409035Y-57172911D01*
X108416541Y-57169800D01*
X108416547Y-57169799D01*
X108519274Y-57110489D01*
X108583015Y-57046746D01*
X108611262Y-57025602D01*
X108624982Y-57018110D01*
X108693243Y-57003260D01*
X108702093Y-57003893D01*
X108755249Y-57020190D01*
X108828373Y-57062409D01*
X108942950Y-57093110D01*
X108942953Y-57093110D01*
X109061565Y-57093110D01*
X109061568Y-57093110D01*
X109176145Y-57062409D01*
X109213761Y-57040691D01*
X111849500Y-57040691D01*
X111849500Y-57159309D01*
X111880201Y-57273886D01*
X111939511Y-57376613D01*
X112023387Y-57460489D01*
X112126114Y-57519799D01*
X112240691Y-57550500D01*
X112240694Y-57550500D01*
X112359306Y-57550500D01*
X112359309Y-57550500D01*
X112473886Y-57519799D01*
X112576613Y-57460489D01*
X112660489Y-57376613D01*
X112719799Y-57273886D01*
X112750500Y-57159309D01*
X112750500Y-57040691D01*
X112719799Y-56926114D01*
X112660489Y-56823387D01*
X112576613Y-56739511D01*
X112473886Y-56680201D01*
X112359309Y-56649500D01*
X112359306Y-56649500D01*
X112240691Y-56649500D01*
X112149728Y-56673873D01*
X112149723Y-56673874D01*
X112126114Y-56680201D01*
X112126112Y-56680201D01*
X112126112Y-56680202D01*
X112104947Y-56692421D01*
X112104939Y-56692425D01*
X112023386Y-56739511D01*
X112023378Y-56739517D01*
X111939517Y-56823378D01*
X111939513Y-56823383D01*
X111939507Y-56823392D01*
X111880765Y-56925138D01*
X111880739Y-56925183D01*
X111880202Y-56926111D01*
X111880202Y-56926112D01*
X111880201Y-56926114D01*
X111849500Y-57040691D01*
X109213761Y-57040691D01*
X109278872Y-57003099D01*
X109348798Y-56933171D01*
X109377045Y-56912027D01*
X109390765Y-56904535D01*
X109459031Y-56889686D01*
X109459032Y-56889686D01*
X109465116Y-56890121D01*
X109516368Y-56905340D01*
X109517173Y-56905786D01*
X109519080Y-56906864D01*
X109525359Y-56910489D01*
X109525361Y-56910491D01*
X109628088Y-56969801D01*
X109742665Y-57000502D01*
X109742668Y-57000502D01*
X109861280Y-57000502D01*
X109861281Y-57000502D01*
X109861283Y-57000502D01*
X109975860Y-56969801D01*
X110047278Y-56928566D01*
X110053152Y-56925176D01*
X110053153Y-56925176D01*
X110078580Y-56910495D01*
X110078579Y-56910495D01*
X110078587Y-56910491D01*
X110078589Y-56910488D01*
X110084013Y-56907357D01*
X110084014Y-56907356D01*
X110109083Y-56892882D01*
X110129203Y-56859874D01*
X110162463Y-56826615D01*
X110221773Y-56723888D01*
X110252474Y-56609311D01*
X110252474Y-56490693D01*
X110221773Y-56376116D01*
X110162463Y-56273389D01*
X110085375Y-56196301D01*
X110072916Y-56181749D01*
X110069404Y-56176940D01*
X110059739Y-56163705D01*
X110036101Y-56097956D01*
X110051403Y-56030507D01*
X110057929Y-56018722D01*
X110078722Y-55991115D01*
X111170416Y-54899423D01*
X111198666Y-54878275D01*
X111221758Y-54865667D01*
X111281183Y-54850500D01*
X113127855Y-54850500D01*
X113162787Y-54855521D01*
X113176106Y-54859432D01*
X113234884Y-54897206D01*
X113263910Y-54960761D01*
X113263912Y-54960778D01*
X113264143Y-54962386D01*
X113258587Y-55020564D01*
X113256948Y-55025301D01*
X113247152Y-55046754D01*
X113230201Y-55076113D01*
X113227909Y-55084666D01*
X113199500Y-55190691D01*
X113199500Y-55309309D01*
X113230201Y-55423886D01*
X113289511Y-55526613D01*
X113373387Y-55610489D01*
X113476114Y-55669799D01*
X113590691Y-55700500D01*
X113590694Y-55700500D01*
X113709306Y-55700500D01*
X113709309Y-55700500D01*
X113823886Y-55669799D01*
X113926613Y-55610489D01*
X114010489Y-55526613D01*
X114069799Y-55423886D01*
X114100500Y-55309309D01*
X114100500Y-55190691D01*
X114069799Y-55076114D01*
X114055838Y-55051934D01*
X114042724Y-55019175D01*
X114039452Y-55005688D01*
X114042776Y-54935897D01*
X114083266Y-54879012D01*
X114084552Y-54878002D01*
X114137782Y-54853686D01*
X114142709Y-54852737D01*
X114166156Y-54850500D01*
X114670500Y-54850500D01*
X114737539Y-54870185D01*
X114783294Y-54922989D01*
X114794500Y-54974500D01*
X114794500Y-57689377D01*
X114802095Y-57743348D01*
X114791944Y-57812476D01*
X114746031Y-57865142D01*
X114678932Y-57884625D01*
X114617305Y-57868013D01*
X114573886Y-57842945D01*
X114459309Y-57812244D01*
X114459306Y-57812244D01*
X114340691Y-57812244D01*
X114249728Y-57836617D01*
X114249723Y-57836618D01*
X114226114Y-57842945D01*
X114226112Y-57842945D01*
X114226112Y-57842946D01*
X114204947Y-57855165D01*
X114204939Y-57855169D01*
X114123386Y-57902255D01*
X114123378Y-57902261D01*
X114039517Y-57986122D01*
X114039513Y-57986127D01*
X114039507Y-57986136D01*
X113983001Y-58084008D01*
X113982998Y-58084014D01*
X113980200Y-58088858D01*
X113955151Y-58182345D01*
X113949500Y-58203435D01*
X113949500Y-58322053D01*
X113980201Y-58436630D01*
X114039511Y-58539357D01*
X114123387Y-58623233D01*
X114152579Y-58640087D01*
X114180322Y-58661904D01*
X114189899Y-58671948D01*
X114221915Y-58734050D01*
X114215275Y-58803601D01*
X114212115Y-58811495D01*
X114184677Y-58853093D01*
X113577990Y-59459783D01*
X113577989Y-59459784D01*
X113522045Y-59515726D01*
X113522040Y-59515731D01*
X113522026Y-59515752D01*
X113489810Y-59571551D01*
X113489807Y-59571560D01*
X113482482Y-59584248D01*
X113482479Y-59584253D01*
X113477655Y-59602257D01*
X113463776Y-59654056D01*
X113463092Y-59656605D01*
X113463091Y-59656611D01*
X113462000Y-59660683D01*
X113462000Y-61144206D01*
X113461999Y-61144208D01*
X113462000Y-61144209D01*
X113456976Y-61179143D01*
X113449564Y-61204384D01*
X113418269Y-61257128D01*
X113402013Y-61273383D01*
X113379191Y-61312912D01*
X113342701Y-61376114D01*
X113312000Y-61490691D01*
X113312000Y-61609309D01*
X113342701Y-61723886D01*
X113402011Y-61826613D01*
X113485887Y-61910489D01*
X113485890Y-61910491D01*
X113492336Y-61915437D01*
X113491966Y-61915918D01*
X113510528Y-61930515D01*
X113520105Y-61940560D01*
X113552121Y-62002661D01*
X113545480Y-62072215D01*
X113545477Y-62072221D01*
X113544872Y-62073732D01*
X113510950Y-62121362D01*
X113507165Y-62124641D01*
X113487993Y-62138294D01*
X113485899Y-62139503D01*
X113485889Y-62139509D01*
X113485883Y-62139513D01*
X113485878Y-62139517D01*
X113402017Y-62223378D01*
X113402013Y-62223383D01*
X113342702Y-62326112D01*
X113342701Y-62326114D01*
X113312000Y-62440691D01*
X113312000Y-62559309D01*
X113342701Y-62673886D01*
X113402011Y-62776613D01*
X113485887Y-62860489D01*
X113588614Y-62919799D01*
X113703191Y-62950500D01*
X113703194Y-62950500D01*
X113821806Y-62950500D01*
X113821809Y-62950500D01*
X113936386Y-62919799D01*
X114039113Y-62860489D01*
X114122989Y-62776613D01*
X114182299Y-62673886D01*
X114213000Y-62559309D01*
X114213000Y-62440691D01*
X114182299Y-62326114D01*
X114122989Y-62223387D01*
X114039113Y-62139511D01*
X114039112Y-62139510D01*
X114034032Y-62135849D01*
X114034029Y-62135845D01*
X114034019Y-62135839D01*
X114030995Y-62133659D01*
X114031637Y-62132768D01*
X114030040Y-62130713D01*
X114013577Y-62118547D01*
X114004892Y-62109438D01*
X113996724Y-62093595D01*
X113984425Y-62080697D01*
X113981049Y-62063186D01*
X113972877Y-62047334D01*
X113974571Y-62029587D01*
X113971198Y-62012091D01*
X113979514Y-61977796D01*
X113980122Y-61976279D01*
X114014027Y-61928657D01*
X114017825Y-61925366D01*
X114023118Y-61921598D01*
X114023307Y-61921358D01*
X114023595Y-61921258D01*
X114037031Y-61911690D01*
X114039113Y-61910489D01*
X114122989Y-61826613D01*
X114182299Y-61723886D01*
X114213000Y-61609309D01*
X114213000Y-61490691D01*
X114182299Y-61376114D01*
X114122989Y-61273387D01*
X114111921Y-61262319D01*
X114090774Y-61234068D01*
X114078167Y-61210979D01*
X114063000Y-61151554D01*
X114063000Y-59893906D01*
X114068022Y-59858973D01*
X114075434Y-59833728D01*
X114106728Y-59780986D01*
X114582819Y-59304896D01*
X114644142Y-59271411D01*
X114713834Y-59276395D01*
X114769767Y-59318267D01*
X114794184Y-59383731D01*
X114794500Y-59392577D01*
X114794500Y-59539933D01*
X114786655Y-59566649D01*
X114782037Y-59594114D01*
X114776946Y-59599713D01*
X114774815Y-59606972D01*
X114753773Y-59625204D01*
X114735038Y-59645814D01*
X114725055Y-59650089D01*
X114722011Y-59652727D01*
X114702594Y-59659708D01*
X114641882Y-59675976D01*
X114625267Y-59678163D01*
X114611974Y-59688364D01*
X114523386Y-59739511D01*
X114523378Y-59739517D01*
X114439517Y-59823378D01*
X114439513Y-59823383D01*
X114409090Y-59876077D01*
X114380201Y-59926114D01*
X114349500Y-60040691D01*
X114349500Y-60159309D01*
X114380201Y-60273886D01*
X114439511Y-60376613D01*
X114523387Y-60460489D01*
X114626114Y-60519799D01*
X114702594Y-60540292D01*
X114762254Y-60576656D01*
X114792783Y-60639503D01*
X114794500Y-60660066D01*
X114794500Y-64375500D01*
X114774815Y-64442539D01*
X114722011Y-64488294D01*
X114670500Y-64499500D01*
X111683032Y-64499500D01*
X111666268Y-64494577D01*
X111648102Y-64494478D01*
X111642240Y-64492757D01*
X111627238Y-64483117D01*
X111615993Y-64479815D01*
X111608320Y-64470960D01*
X111583460Y-64454985D01*
X111571179Y-64428098D01*
X111570238Y-64427011D01*
X111569678Y-64425768D01*
X111567784Y-64421497D01*
X111567628Y-64420321D01*
X111554433Y-64391431D01*
X111559305Y-64357536D01*
X111558602Y-64352233D01*
X111560712Y-64347742D01*
X111564374Y-64322272D01*
X111582539Y-64301305D01*
X111588324Y-64289000D01*
X111599008Y-64282298D01*
X111610127Y-64269466D01*
X111610132Y-64269463D01*
X111614100Y-64266913D01*
X111646123Y-64252747D01*
X111647514Y-64251875D01*
X111648080Y-64251881D01*
X111649046Y-64251454D01*
X111673886Y-64244799D01*
X111776613Y-64185489D01*
X111860489Y-64101613D01*
X111919799Y-63998886D01*
X111950500Y-63884309D01*
X111950500Y-63765691D01*
X111919799Y-63651114D01*
X111860489Y-63548387D01*
X111776613Y-63464511D01*
X111673886Y-63405201D01*
X111559309Y-63374500D01*
X111559306Y-63374500D01*
X111440691Y-63374500D01*
X111349728Y-63398873D01*
X111349723Y-63398874D01*
X111326114Y-63405201D01*
X111326112Y-63405201D01*
X111326112Y-63405202D01*
X111304947Y-63417421D01*
X111304939Y-63417425D01*
X111223386Y-63464511D01*
X111223378Y-63464517D01*
X111139517Y-63548378D01*
X111139513Y-63548383D01*
X111139511Y-63548387D01*
X111080201Y-63651114D01*
X111049500Y-63765691D01*
X111049500Y-63884309D01*
X111080201Y-63998886D01*
X111139511Y-64101613D01*
X111223387Y-64185489D01*
X111326114Y-64244799D01*
X111326113Y-64244799D01*
X111336579Y-64247602D01*
X111349666Y-64251109D01*
X111364597Y-64260209D01*
X111382110Y-64265001D01*
X111387326Y-64268180D01*
X111399319Y-64281371D01*
X111409328Y-64287472D01*
X111414449Y-64298013D01*
X111434327Y-64319878D01*
X111439229Y-64349021D01*
X111439859Y-64350318D01*
X111440071Y-64351615D01*
X111440797Y-64356230D01*
X111440641Y-64357420D01*
X111445917Y-64388780D01*
X111432460Y-64420206D01*
X111431769Y-64425514D01*
X111428558Y-64429319D01*
X111418415Y-64453009D01*
X111395472Y-64468540D01*
X111386717Y-64478919D01*
X111374650Y-64482636D01*
X111360566Y-64492171D01*
X111358734Y-64492757D01*
X111356073Y-64493607D01*
X111321555Y-64498992D01*
X111319944Y-64499489D01*
X111319381Y-64499331D01*
X111318303Y-64499500D01*
X101463032Y-64499500D01*
X101428102Y-64494478D01*
X101422240Y-64492757D01*
X101363460Y-64454985D01*
X101334433Y-64391431D01*
X101344374Y-64322272D01*
X101390127Y-64269466D01*
X101390132Y-64269463D01*
X101394100Y-64266913D01*
X101429046Y-64251454D01*
X101453886Y-64244799D01*
X101556613Y-64185489D01*
X101640489Y-64101613D01*
X101699799Y-63998886D01*
X101730500Y-63884309D01*
X101730500Y-63765691D01*
X101699799Y-63651114D01*
X101640489Y-63548387D01*
X101556613Y-63464511D01*
X101453886Y-63405201D01*
X101339309Y-63374500D01*
X101339306Y-63374500D01*
X101220691Y-63374500D01*
X101129728Y-63398873D01*
X101129723Y-63398874D01*
X101106114Y-63405201D01*
X101106112Y-63405201D01*
X101106112Y-63405202D01*
X101084947Y-63417421D01*
X101084939Y-63417425D01*
X101003386Y-63464511D01*
X101003378Y-63464517D01*
X100919517Y-63548378D01*
X100919513Y-63548383D01*
X100919511Y-63548387D01*
X100860201Y-63651114D01*
X100829500Y-63765691D01*
X100829500Y-63884309D01*
X100860201Y-63998886D01*
X100919511Y-64101613D01*
X101003387Y-64185489D01*
X101106114Y-64244799D01*
X101106113Y-64244799D01*
X101116579Y-64247602D01*
X101129666Y-64251109D01*
X101144597Y-64260209D01*
X101162110Y-64265001D01*
X101167326Y-64268180D01*
X101179319Y-64281371D01*
X101189328Y-64287472D01*
X101194449Y-64298013D01*
X101214327Y-64319878D01*
X101219229Y-64349021D01*
X101219859Y-64350318D01*
X101220071Y-64351615D01*
X101220797Y-64356230D01*
X101220641Y-64357420D01*
X101225917Y-64388780D01*
X101212460Y-64420206D01*
X101211769Y-64425514D01*
X101208558Y-64429319D01*
X101198415Y-64453009D01*
X101175472Y-64468540D01*
X101166717Y-64478919D01*
X101154650Y-64482636D01*
X101140566Y-64492171D01*
X101138734Y-64492757D01*
X101136073Y-64493607D01*
X101101555Y-64498992D01*
X101099944Y-64499489D01*
X101099381Y-64499331D01*
X101098303Y-64499500D01*
X100642330Y-64499500D01*
X100607389Y-64494475D01*
X100592390Y-64490070D01*
X100533644Y-64452327D01*
X100532457Y-64450958D01*
X100504977Y-64396083D01*
X100503332Y-64388521D01*
X100500500Y-64362168D01*
X100500500Y-62793030D01*
X100505425Y-62776255D01*
X100505518Y-62758113D01*
X100506147Y-62755967D01*
X100507239Y-62752250D01*
X100516881Y-62737241D01*
X100520185Y-62725991D01*
X100529036Y-62718321D01*
X100545003Y-62693468D01*
X100571899Y-62681180D01*
X100572989Y-62680236D01*
X100574159Y-62679709D01*
X100578427Y-62677813D01*
X100579617Y-62677654D01*
X100608555Y-62664434D01*
X100642378Y-62669291D01*
X100647684Y-62668585D01*
X100652194Y-62670701D01*
X100677715Y-62674367D01*
X100698646Y-62692499D01*
X100710936Y-62698266D01*
X100717658Y-62708968D01*
X100730525Y-62720114D01*
X100730537Y-62720132D01*
X100733085Y-62724097D01*
X100747193Y-62755988D01*
X100748100Y-62757432D01*
X100748093Y-62758024D01*
X100748542Y-62759037D01*
X100752874Y-62775201D01*
X100755201Y-62783886D01*
X100814511Y-62886613D01*
X100898387Y-62970489D01*
X101001114Y-63029799D01*
X101115691Y-63060500D01*
X101115694Y-63060500D01*
X101234306Y-63060500D01*
X101234309Y-63060500D01*
X101348886Y-63029799D01*
X101451613Y-62970489D01*
X101535489Y-62886613D01*
X101594799Y-62783886D01*
X101625500Y-62669309D01*
X101625500Y-62550691D01*
X104654500Y-62550691D01*
X104654500Y-62669309D01*
X104685201Y-62783886D01*
X104744511Y-62886613D01*
X104828387Y-62970489D01*
X104931114Y-63029799D01*
X105045691Y-63060500D01*
X105045694Y-63060500D01*
X105164306Y-63060500D01*
X105164309Y-63060500D01*
X105278886Y-63029799D01*
X105381613Y-62970489D01*
X105465489Y-62886613D01*
X105524799Y-62783886D01*
X105555500Y-62669309D01*
X105555500Y-62550691D01*
X105524799Y-62436114D01*
X105465489Y-62333387D01*
X105381613Y-62249511D01*
X105278886Y-62190201D01*
X105164309Y-62159500D01*
X105164306Y-62159500D01*
X105045691Y-62159500D01*
X104954728Y-62183873D01*
X104954723Y-62183874D01*
X104931114Y-62190201D01*
X104931112Y-62190201D01*
X104931112Y-62190202D01*
X104909947Y-62202421D01*
X104909939Y-62202425D01*
X104828386Y-62249511D01*
X104828378Y-62249517D01*
X104744517Y-62333378D01*
X104744513Y-62333383D01*
X104744511Y-62333387D01*
X104685201Y-62436114D01*
X104654500Y-62550691D01*
X101625500Y-62550691D01*
X101594799Y-62436114D01*
X101535489Y-62333387D01*
X101451613Y-62249511D01*
X101348886Y-62190201D01*
X101234309Y-62159500D01*
X101234306Y-62159500D01*
X101115691Y-62159500D01*
X101024728Y-62183873D01*
X101024723Y-62183874D01*
X101001114Y-62190201D01*
X101001112Y-62190201D01*
X101001112Y-62190202D01*
X100979947Y-62202421D01*
X100979939Y-62202425D01*
X100898386Y-62249511D01*
X100898378Y-62249517D01*
X100814517Y-62333378D01*
X100814511Y-62333386D01*
X100755201Y-62436113D01*
X100755199Y-62436118D01*
X100752085Y-62447743D01*
X100752083Y-62447751D01*
X100748888Y-62459674D01*
X100734993Y-62492120D01*
X100731814Y-62497335D01*
X100718622Y-62509326D01*
X100712522Y-62519334D01*
X100701978Y-62524455D01*
X100680112Y-62544332D01*
X100650976Y-62549229D01*
X100649675Y-62549862D01*
X100648238Y-62549690D01*
X100611209Y-62555915D01*
X100546982Y-62528409D01*
X100507822Y-62470547D01*
X100506386Y-62466052D01*
X100500500Y-62428303D01*
X100500500Y-59835691D01*
X100829500Y-59835691D01*
X100829500Y-59954309D01*
X100860201Y-60068886D01*
X100919511Y-60171613D01*
X101003387Y-60255489D01*
X101106114Y-60314799D01*
X101220691Y-60345500D01*
X101220694Y-60345500D01*
X101339306Y-60345500D01*
X101339309Y-60345500D01*
X101453886Y-60314799D01*
X101556613Y-60255489D01*
X101640489Y-60171613D01*
X101699799Y-60068886D01*
X101730500Y-59954309D01*
X101730500Y-59835691D01*
X101699799Y-59721114D01*
X101640489Y-59618387D01*
X101556613Y-59534511D01*
X101453886Y-59475201D01*
X101339309Y-59444500D01*
X101339306Y-59444500D01*
X101220691Y-59444500D01*
X101129728Y-59468873D01*
X101129723Y-59468874D01*
X101106114Y-59475201D01*
X101106112Y-59475201D01*
X101106112Y-59475202D01*
X101084947Y-59487421D01*
X101084939Y-59487425D01*
X101003386Y-59534511D01*
X101003378Y-59534517D01*
X100919517Y-59618378D01*
X100919513Y-59618383D01*
X100860203Y-59721111D01*
X100860201Y-59721114D01*
X100829500Y-59835691D01*
X100500500Y-59835691D01*
X100500500Y-59260691D01*
X102739500Y-59260691D01*
X102739500Y-59379309D01*
X102770201Y-59493886D01*
X102829511Y-59596613D01*
X102913387Y-59680489D01*
X102983751Y-59721114D01*
X103015618Y-59739513D01*
X103016114Y-59739799D01*
X103056120Y-59750518D01*
X103063930Y-59753805D01*
X103067472Y-59756693D01*
X103080363Y-59762213D01*
X103092218Y-59769439D01*
X103139215Y-59821141D01*
X103150799Y-59890041D01*
X103150606Y-59891655D01*
X103130172Y-59946438D01*
X103127361Y-59950591D01*
X103112354Y-59968766D01*
X103039484Y-60041636D01*
X103039481Y-60041641D01*
X102963721Y-60172857D01*
X102963720Y-60172859D01*
X102956454Y-60199977D01*
X102924500Y-60319234D01*
X102924500Y-60470765D01*
X102962379Y-60612136D01*
X102963720Y-60617138D01*
X102996188Y-60673373D01*
X102996189Y-60673374D01*
X103039482Y-60748361D01*
X103039484Y-60748364D01*
X103039485Y-60748365D01*
X103146635Y-60855515D01*
X103260281Y-60921129D01*
X103274674Y-60929439D01*
X103274680Y-60929442D01*
X103274680Y-60929443D01*
X103276801Y-60930667D01*
X103277865Y-60931281D01*
X103424234Y-60970500D01*
X103424236Y-60970500D01*
X103575764Y-60970500D01*
X103575766Y-60970500D01*
X103722135Y-60931281D01*
X103853365Y-60855515D01*
X103945067Y-60763812D01*
X103959535Y-60751417D01*
X103968502Y-60744858D01*
X103968503Y-60744859D01*
X103982206Y-60734836D01*
X104047937Y-60711150D01*
X104115435Y-60726424D01*
X104127247Y-60732959D01*
X104154899Y-60753779D01*
X104251635Y-60850515D01*
X104338163Y-60900472D01*
X104373941Y-60921129D01*
X104382865Y-60926281D01*
X104529234Y-60965500D01*
X104529236Y-60965500D01*
X104680764Y-60965500D01*
X104680766Y-60965500D01*
X104827135Y-60926281D01*
X104958365Y-60850515D01*
X105065515Y-60743365D01*
X105141281Y-60612135D01*
X105180500Y-60465766D01*
X105180500Y-60314234D01*
X105141281Y-60167865D01*
X105136339Y-60159306D01*
X105100511Y-60097250D01*
X105100510Y-60097248D01*
X105065519Y-60036641D01*
X105065513Y-60036633D01*
X104958367Y-59929487D01*
X104958365Y-59929485D01*
X104865860Y-59876077D01*
X104865860Y-59876076D01*
X104865858Y-59876076D01*
X104827136Y-59853719D01*
X104713933Y-59823387D01*
X104713933Y-59823386D01*
X104680767Y-59814500D01*
X104680766Y-59814500D01*
X104529234Y-59814500D01*
X104382859Y-59853720D01*
X104382857Y-59853721D01*
X104251645Y-59929478D01*
X104251634Y-59929485D01*
X104159819Y-60021300D01*
X104145248Y-60033772D01*
X104122691Y-60050238D01*
X104056937Y-60073866D01*
X103989498Y-60058555D01*
X103977718Y-60052030D01*
X103950120Y-60031240D01*
X103853367Y-59934487D01*
X103853365Y-59934485D01*
X103722135Y-59858719D01*
X103604718Y-59827257D01*
X103604716Y-59827256D01*
X103604715Y-59827256D01*
X103604713Y-59827256D01*
X103572274Y-59813363D01*
X103560421Y-59806138D01*
X103513425Y-59754437D01*
X103501840Y-59685549D01*
X103502034Y-59683927D01*
X103522470Y-59629138D01*
X103525287Y-59624976D01*
X103540285Y-59606816D01*
X103550489Y-59596613D01*
X103609799Y-59493886D01*
X103640500Y-59379309D01*
X103640500Y-59260691D01*
X103609799Y-59146114D01*
X103550489Y-59043387D01*
X103466613Y-58959511D01*
X103363886Y-58900201D01*
X103249309Y-58869500D01*
X103249306Y-58869500D01*
X103130691Y-58869500D01*
X103039728Y-58893873D01*
X103039723Y-58893874D01*
X103016114Y-58900201D01*
X103016112Y-58900201D01*
X103016112Y-58900202D01*
X102994947Y-58912421D01*
X102994939Y-58912425D01*
X102913386Y-58959511D01*
X102913378Y-58959517D01*
X102829517Y-59043378D01*
X102829513Y-59043383D01*
X102829511Y-59043387D01*
X102770201Y-59146114D01*
X102739500Y-59260691D01*
X100500500Y-59260691D01*
X100500500Y-57634108D01*
X101599500Y-57634108D01*
X101599500Y-57634110D01*
X101599500Y-57634111D01*
X101599500Y-57765893D01*
X101611919Y-57812244D01*
X101611920Y-57812244D01*
X101633113Y-57891341D01*
X101633609Y-57893190D01*
X101660331Y-57939472D01*
X101660332Y-57939473D01*
X101699497Y-58007310D01*
X101699498Y-58007311D01*
X101699500Y-58007314D01*
X101792686Y-58100500D01*
X101906814Y-58166392D01*
X102034108Y-58200500D01*
X102034110Y-58200500D01*
X102165890Y-58200500D01*
X102165892Y-58200500D01*
X102293186Y-58166392D01*
X102407314Y-58100500D01*
X102496106Y-58011707D01*
X102510654Y-57999254D01*
X102527233Y-57987149D01*
X102592984Y-57963514D01*
X102661069Y-57979176D01*
X102661075Y-57979179D01*
X102669654Y-57983997D01*
X102696620Y-58004434D01*
X102699499Y-58007313D01*
X102699500Y-58007314D01*
X102792686Y-58100500D01*
X102906814Y-58166392D01*
X103034108Y-58200500D01*
X103034110Y-58200500D01*
X103165890Y-58200500D01*
X103165892Y-58200500D01*
X103293186Y-58166392D01*
X103407314Y-58100500D01*
X103500500Y-58007314D01*
X103566392Y-57893186D01*
X103600500Y-57765892D01*
X103600500Y-57634108D01*
X103566392Y-57506814D01*
X103566389Y-57506809D01*
X103562748Y-57500501D01*
X103552871Y-57483393D01*
X103548806Y-57476354D01*
X103548802Y-57476346D01*
X103548802Y-57476345D01*
X103548798Y-57476340D01*
X103539647Y-57460491D01*
X103539646Y-57460489D01*
X103521759Y-57429508D01*
X104282162Y-57429508D01*
X104282162Y-57548126D01*
X104312863Y-57662703D01*
X104372173Y-57765430D01*
X104456049Y-57849306D01*
X104491069Y-57869525D01*
X104518811Y-57891341D01*
X104529599Y-57902655D01*
X104561615Y-57964757D01*
X104561619Y-57964777D01*
X104561961Y-57966553D01*
X104558310Y-58027758D01*
X104555954Y-58035128D01*
X104545230Y-58059369D01*
X104531005Y-58084008D01*
X104531003Y-58084011D01*
X104531001Y-58084016D01*
X104531000Y-58084019D01*
X104530974Y-58084082D01*
X104530732Y-58085018D01*
X104508928Y-58166392D01*
X104500299Y-58198597D01*
X104500299Y-58317215D01*
X104531000Y-58431792D01*
X104590310Y-58534519D01*
X104674186Y-58618395D01*
X104776913Y-58677705D01*
X104891490Y-58708406D01*
X104891493Y-58708406D01*
X105010105Y-58708406D01*
X105010108Y-58708406D01*
X105124685Y-58677705D01*
X105227412Y-58618395D01*
X105311288Y-58534519D01*
X105370598Y-58431792D01*
X105401299Y-58317215D01*
X105401299Y-58198597D01*
X105370598Y-58084020D01*
X105311288Y-57981293D01*
X105227412Y-57897417D01*
X105227411Y-57897416D01*
X105192386Y-57877194D01*
X105164645Y-57855378D01*
X105162794Y-57853437D01*
X105153860Y-57844067D01*
X105121845Y-57781965D01*
X105121844Y-57781961D01*
X105121501Y-57780181D01*
X105125150Y-57718958D01*
X105127508Y-57711583D01*
X105138230Y-57687349D01*
X105152461Y-57662703D01*
X105183162Y-57548126D01*
X105183162Y-57429508D01*
X105152461Y-57314931D01*
X105093151Y-57212204D01*
X105009275Y-57128328D01*
X104906548Y-57069018D01*
X104791971Y-57038317D01*
X104791968Y-57038317D01*
X104673353Y-57038317D01*
X104582390Y-57062690D01*
X104582385Y-57062691D01*
X104558776Y-57069018D01*
X104558774Y-57069018D01*
X104558774Y-57069019D01*
X104537609Y-57081238D01*
X104537601Y-57081242D01*
X104456048Y-57128328D01*
X104456040Y-57128334D01*
X104372179Y-57212195D01*
X104372175Y-57212200D01*
X104372175Y-57212201D01*
X104372173Y-57212204D01*
X104336561Y-57273886D01*
X104312863Y-57314931D01*
X104282162Y-57429508D01*
X103521759Y-57429508D01*
X103500500Y-57392686D01*
X103407314Y-57299500D01*
X103318261Y-57248085D01*
X103293187Y-57233608D01*
X103213293Y-57212201D01*
X103165892Y-57199500D01*
X103165891Y-57199500D01*
X103034108Y-57199500D01*
X102906808Y-57233609D01*
X102906806Y-57233610D01*
X102792696Y-57299493D01*
X102792682Y-57299502D01*
X102703897Y-57388287D01*
X102689332Y-57400755D01*
X102672761Y-57412853D01*
X102607009Y-57436484D01*
X102538925Y-57420819D01*
X102538920Y-57420816D01*
X102538919Y-57420816D01*
X102538918Y-57420815D01*
X102530332Y-57415993D01*
X102505727Y-57393196D01*
X102503369Y-57395555D01*
X102407316Y-57299502D01*
X102407314Y-57299500D01*
X102318261Y-57248085D01*
X102293187Y-57233608D01*
X102213293Y-57212201D01*
X102165892Y-57199500D01*
X102165891Y-57199500D01*
X102034108Y-57199500D01*
X101906808Y-57233609D01*
X101906806Y-57233610D01*
X101792696Y-57299493D01*
X101792682Y-57299502D01*
X101792677Y-57299506D01*
X101699506Y-57392677D01*
X101699502Y-57392682D01*
X101699493Y-57392696D01*
X101633610Y-57506806D01*
X101633609Y-57506809D01*
X101633608Y-57506811D01*
X101633608Y-57506812D01*
X101631968Y-57512933D01*
X101607483Y-57604311D01*
X101607483Y-57604314D01*
X101599500Y-57634108D01*
X100500500Y-57634108D01*
X100500500Y-57622143D01*
X100505522Y-57587210D01*
X100509433Y-57573891D01*
X100547206Y-57515114D01*
X100610758Y-57486089D01*
X100612399Y-57485853D01*
X100670573Y-57491414D01*
X100675306Y-57493052D01*
X100696752Y-57502846D01*
X100726114Y-57519799D01*
X100840691Y-57550500D01*
X100840694Y-57550500D01*
X100959306Y-57550500D01*
X100959309Y-57550500D01*
X101073886Y-57519799D01*
X101176613Y-57460489D01*
X101260489Y-57376613D01*
X101319799Y-57273886D01*
X101350500Y-57159309D01*
X101350500Y-57040691D01*
X101319799Y-56926114D01*
X101260489Y-56823387D01*
X101176613Y-56739511D01*
X101073886Y-56680201D01*
X100959309Y-56649500D01*
X100959306Y-56649500D01*
X100840691Y-56649500D01*
X100749728Y-56673873D01*
X100749723Y-56673874D01*
X100726114Y-56680201D01*
X100726112Y-56680201D01*
X100726112Y-56680202D01*
X100704941Y-56692425D01*
X100704937Y-56692427D01*
X100701945Y-56694155D01*
X100669175Y-56707275D01*
X100655688Y-56710547D01*
X100585897Y-56707223D01*
X100529010Y-56666730D01*
X100528003Y-56665449D01*
X100503686Y-56612215D01*
X100502737Y-56607290D01*
X100500500Y-56583843D01*
X100500500Y-56190692D01*
X104514671Y-56190692D01*
X104514671Y-56309310D01*
X104545372Y-56423887D01*
X104604682Y-56526614D01*
X104688558Y-56610490D01*
X104791285Y-56669800D01*
X104905862Y-56700501D01*
X104905865Y-56700501D01*
X105024477Y-56700501D01*
X105024480Y-56700501D01*
X105139057Y-56669800D01*
X105241784Y-56610490D01*
X105325660Y-56526614D01*
X105384970Y-56423887D01*
X105415671Y-56309310D01*
X105415671Y-56190692D01*
X105384970Y-56076115D01*
X105325660Y-55973388D01*
X105241784Y-55889512D01*
X105139057Y-55830202D01*
X105024480Y-55799501D01*
X105024477Y-55799501D01*
X104905862Y-55799501D01*
X104814899Y-55823874D01*
X104814894Y-55823875D01*
X104791285Y-55830202D01*
X104791283Y-55830202D01*
X104791283Y-55830203D01*
X104770118Y-55842422D01*
X104770110Y-55842426D01*
X104688557Y-55889512D01*
X104688549Y-55889518D01*
X104604688Y-55973379D01*
X104604684Y-55973384D01*
X104585245Y-56007053D01*
X104545372Y-56076115D01*
X104514671Y-56190692D01*
X100500500Y-56190692D01*
X100500500Y-54534234D01*
X104029500Y-54534234D01*
X104029500Y-54685767D01*
X104030820Y-54690693D01*
X104038619Y-54719799D01*
X104068719Y-54832136D01*
X104092825Y-54873888D01*
X104144485Y-54963365D01*
X104251635Y-55070515D01*
X104382865Y-55146281D01*
X104529234Y-55185500D01*
X104529236Y-55185500D01*
X104680764Y-55185500D01*
X104680766Y-55185500D01*
X104827135Y-55146281D01*
X104958365Y-55070515D01*
X105065515Y-54963365D01*
X105141281Y-54832135D01*
X105172744Y-54714711D01*
X105186632Y-54682279D01*
X105193860Y-54670421D01*
X105245559Y-54623427D01*
X105314401Y-54611834D01*
X105316021Y-54612027D01*
X105370853Y-54632466D01*
X105375013Y-54635281D01*
X105393184Y-54650286D01*
X105403387Y-54660489D01*
X105506114Y-54719799D01*
X105620691Y-54750500D01*
X105620694Y-54750500D01*
X105739306Y-54750500D01*
X105739309Y-54750500D01*
X105853886Y-54719799D01*
X105956613Y-54660489D01*
X106040489Y-54576613D01*
X106099799Y-54473886D01*
X106130500Y-54359309D01*
X106130500Y-54240691D01*
X106099799Y-54126114D01*
X106040489Y-54023387D01*
X105956613Y-53939511D01*
X105853886Y-53880201D01*
X105739309Y-53849500D01*
X105739306Y-53849500D01*
X105620691Y-53849500D01*
X105529728Y-53873873D01*
X105529723Y-53873874D01*
X105506114Y-53880201D01*
X105506112Y-53880201D01*
X105506112Y-53880202D01*
X105484947Y-53892421D01*
X105484939Y-53892425D01*
X105403386Y-53939511D01*
X105403378Y-53939517D01*
X105319517Y-54023378D01*
X105319513Y-54023383D01*
X105319504Y-54023397D01*
X105260200Y-54126113D01*
X105260199Y-54126117D01*
X105260199Y-54126119D01*
X105251675Y-54157926D01*
X105237785Y-54190361D01*
X105230564Y-54202209D01*
X105217365Y-54214208D01*
X105215307Y-54217585D01*
X105211752Y-54219311D01*
X105178866Y-54249210D01*
X105109964Y-54260800D01*
X105109957Y-54260799D01*
X105108343Y-54260606D01*
X105053560Y-54240171D01*
X105049410Y-54237362D01*
X105031235Y-54222355D01*
X104958367Y-54149487D01*
X104958365Y-54149485D01*
X104926035Y-54130819D01*
X104871612Y-54099397D01*
X104871608Y-54099395D01*
X104861234Y-54093406D01*
X104827136Y-54073719D01*
X104693828Y-54038000D01*
X104689696Y-54036892D01*
X104689685Y-54036889D01*
X104682862Y-54035061D01*
X104680766Y-54034500D01*
X104680765Y-54034500D01*
X104529234Y-54034500D01*
X104382859Y-54073720D01*
X104382857Y-54073721D01*
X104251645Y-54149478D01*
X104251631Y-54149487D01*
X104251626Y-54149491D01*
X104144491Y-54256626D01*
X104144487Y-54256631D01*
X104144478Y-54256645D01*
X104068721Y-54387857D01*
X104068720Y-54387859D01*
X104045670Y-54473886D01*
X104029500Y-54534234D01*
X100500500Y-54534234D01*
X100500500Y-53571608D01*
X102649500Y-53571608D01*
X102649500Y-53703391D01*
X102659057Y-53739058D01*
X102683608Y-53830688D01*
X102712195Y-53880201D01*
X102712196Y-53880202D01*
X102749500Y-53944814D01*
X102842686Y-54038000D01*
X102956814Y-54103892D01*
X103084108Y-54138000D01*
X103084110Y-54138000D01*
X103215890Y-54138000D01*
X103215892Y-54138000D01*
X103343186Y-54103892D01*
X103457314Y-54038000D01*
X103550500Y-53944814D01*
X103616392Y-53830686D01*
X103650500Y-53703392D01*
X103650500Y-53571608D01*
X103631498Y-53500691D01*
X110974500Y-53500691D01*
X110974500Y-53619309D01*
X111005201Y-53733886D01*
X111064511Y-53836613D01*
X111148387Y-53920489D01*
X111251114Y-53979799D01*
X111347874Y-54005726D01*
X111407533Y-54042090D01*
X111425048Y-54078148D01*
X111440508Y-54044297D01*
X111499286Y-54006523D01*
X111502076Y-54005739D01*
X111598886Y-53979799D01*
X111701613Y-53920489D01*
X111785489Y-53836613D01*
X111844799Y-53733886D01*
X111875500Y-53619309D01*
X111875500Y-53500691D01*
X111844799Y-53386114D01*
X111785489Y-53283387D01*
X111701613Y-53199511D01*
X111598886Y-53140201D01*
X111484309Y-53109500D01*
X111484306Y-53109500D01*
X111365691Y-53109500D01*
X111274728Y-53133873D01*
X111274723Y-53133874D01*
X111251114Y-53140201D01*
X111251112Y-53140201D01*
X111251112Y-53140202D01*
X111229947Y-53152421D01*
X111229939Y-53152425D01*
X111148386Y-53199511D01*
X111148378Y-53199517D01*
X111064517Y-53283378D01*
X111064513Y-53283383D01*
X111005202Y-53386112D01*
X111005201Y-53386114D01*
X110974500Y-53500691D01*
X103631498Y-53500691D01*
X103616392Y-53444314D01*
X103616387Y-53444306D01*
X103582789Y-53386112D01*
X103550500Y-53330186D01*
X103457314Y-53237000D01*
X103392385Y-53199513D01*
X103392382Y-53199511D01*
X103365071Y-53183742D01*
X103364942Y-53183668D01*
X103361323Y-53181579D01*
X103339813Y-53159024D01*
X103329648Y-53162276D01*
X103299759Y-53158705D01*
X103297449Y-53158816D01*
X103294633Y-53158097D01*
X103291168Y-53157169D01*
X103291119Y-53157155D01*
X103215898Y-53137000D01*
X103215893Y-53137000D01*
X103215892Y-53137000D01*
X103084108Y-53137000D01*
X103084106Y-53137000D01*
X103084104Y-53137000D01*
X103084098Y-53137001D01*
X103008483Y-53157260D01*
X103008356Y-53157296D01*
X103005421Y-53158082D01*
X102967753Y-53157189D01*
X102966432Y-53159753D01*
X102942786Y-53178349D01*
X102941225Y-53180067D01*
X102938690Y-53181571D01*
X102931267Y-53185857D01*
X102931056Y-53185977D01*
X102842696Y-53236993D01*
X102842682Y-53237002D01*
X102842677Y-53237006D01*
X102749506Y-53330177D01*
X102749502Y-53330182D01*
X102749493Y-53330196D01*
X102683610Y-53444306D01*
X102683609Y-53444308D01*
X102683608Y-53444312D01*
X102649500Y-53571608D01*
X100500500Y-53571608D01*
X100500500Y-52409104D01*
X102199500Y-52409104D01*
X102199500Y-52540895D01*
X102215462Y-52600468D01*
X102215463Y-52600468D01*
X102215463Y-52600469D01*
X102233608Y-52668187D01*
X102257632Y-52709797D01*
X102299500Y-52782314D01*
X102392686Y-52875500D01*
X102506814Y-52941392D01*
X102634108Y-52975500D01*
X102634110Y-52975500D01*
X102765888Y-52975500D01*
X102765889Y-52975500D01*
X102765892Y-52975500D01*
X102844597Y-52954411D01*
X102863855Y-52954869D01*
X102882582Y-52950326D01*
X102890133Y-52952939D01*
X102908769Y-52932436D01*
X102911317Y-52930924D01*
X103007314Y-52875500D01*
X103049715Y-52833098D01*
X103077964Y-52811951D01*
X103091688Y-52804457D01*
X103107881Y-52800934D01*
X103117982Y-52794443D01*
X103137718Y-52794442D01*
X103159946Y-52789606D01*
X103161756Y-52789735D01*
X103175899Y-52794442D01*
X103187852Y-52794442D01*
X103219951Y-52809100D01*
X103226471Y-52813290D01*
X103247106Y-52829920D01*
X103292686Y-52875500D01*
X103388683Y-52930924D01*
X103401977Y-52944866D01*
X103418427Y-52954891D01*
X103418624Y-52955297D01*
X103452536Y-52953679D01*
X103455304Y-52954384D01*
X103534108Y-52975500D01*
X103534110Y-52975500D01*
X103665890Y-52975500D01*
X103665892Y-52975500D01*
X103793186Y-52941392D01*
X103907314Y-52875500D01*
X104000500Y-52782314D01*
X104066392Y-52668186D01*
X104073759Y-52640691D01*
X106149500Y-52640691D01*
X106149500Y-52759309D01*
X106180201Y-52873886D01*
X106239511Y-52976613D01*
X106323387Y-53060489D01*
X106426114Y-53119799D01*
X106540691Y-53150500D01*
X106540694Y-53150500D01*
X106659306Y-53150500D01*
X106659309Y-53150500D01*
X106773886Y-53119799D01*
X106876613Y-53060489D01*
X106960489Y-52976613D01*
X107019799Y-52873886D01*
X107050500Y-52759309D01*
X107050500Y-52640691D01*
X107019799Y-52526114D01*
X106960489Y-52423387D01*
X106876613Y-52339511D01*
X106773886Y-52280201D01*
X106659309Y-52249500D01*
X106659306Y-52249500D01*
X106540691Y-52249500D01*
X106449728Y-52273873D01*
X106449723Y-52273874D01*
X106426114Y-52280201D01*
X106426112Y-52280201D01*
X106426112Y-52280202D01*
X106404947Y-52292421D01*
X106404939Y-52292425D01*
X106323386Y-52339511D01*
X106323378Y-52339517D01*
X106239517Y-52423378D01*
X106239513Y-52423383D01*
X106216128Y-52463887D01*
X106180201Y-52526114D01*
X106149500Y-52640691D01*
X104073759Y-52640691D01*
X104100500Y-52540892D01*
X104100500Y-52409108D01*
X104066392Y-52281814D01*
X104066387Y-52281806D01*
X104036876Y-52230691D01*
X109979500Y-52230691D01*
X109979500Y-52349309D01*
X110010201Y-52463886D01*
X110069511Y-52566613D01*
X110153387Y-52650489D01*
X110256114Y-52709799D01*
X110370691Y-52740500D01*
X110370694Y-52740500D01*
X110489306Y-52740500D01*
X110489309Y-52740500D01*
X110603886Y-52709799D01*
X110706613Y-52650489D01*
X110790489Y-52566613D01*
X110849799Y-52463886D01*
X110880500Y-52349309D01*
X110880500Y-52230691D01*
X110849799Y-52116114D01*
X110790489Y-52013387D01*
X110717793Y-51940691D01*
X112459500Y-51940691D01*
X112459500Y-52059309D01*
X112490201Y-52173886D01*
X112549511Y-52276613D01*
X112633387Y-52360489D01*
X112736114Y-52419799D01*
X112850691Y-52450500D01*
X112850694Y-52450500D01*
X112969306Y-52450500D01*
X112969309Y-52450500D01*
X113083886Y-52419799D01*
X113186613Y-52360489D01*
X113270489Y-52276613D01*
X113329799Y-52173886D01*
X113360500Y-52059309D01*
X113360500Y-51940691D01*
X113329799Y-51826114D01*
X113270489Y-51723387D01*
X113186613Y-51639511D01*
X113083886Y-51580201D01*
X112969309Y-51549500D01*
X112969306Y-51549500D01*
X112850691Y-51549500D01*
X112759728Y-51573873D01*
X112759723Y-51573874D01*
X112736114Y-51580201D01*
X112736112Y-51580201D01*
X112736112Y-51580202D01*
X112714947Y-51592421D01*
X112714939Y-51592425D01*
X112633386Y-51639511D01*
X112633378Y-51639517D01*
X112549517Y-51723378D01*
X112549513Y-51723383D01*
X112549507Y-51723392D01*
X112528091Y-51760487D01*
X112490201Y-51826113D01*
X112490201Y-51826114D01*
X112459500Y-51940691D01*
X110717793Y-51940691D01*
X110706613Y-51929511D01*
X110603886Y-51870201D01*
X110489309Y-51839500D01*
X110489306Y-51839500D01*
X110370691Y-51839500D01*
X110279728Y-51863873D01*
X110279723Y-51863874D01*
X110256114Y-51870201D01*
X110256112Y-51870201D01*
X110256112Y-51870202D01*
X110234947Y-51882421D01*
X110234939Y-51882425D01*
X110153386Y-51929511D01*
X110153378Y-51929517D01*
X110069517Y-52013378D01*
X110069513Y-52013383D01*
X110010742Y-52115177D01*
X110010201Y-52116114D01*
X109979500Y-52230691D01*
X104036876Y-52230691D01*
X104000500Y-52167686D01*
X103907314Y-52074500D01*
X103850250Y-52041554D01*
X103793187Y-52008608D01*
X103729539Y-51991554D01*
X103665892Y-51974500D01*
X103665891Y-51974500D01*
X103534108Y-51974500D01*
X103406808Y-52008609D01*
X103406806Y-52008610D01*
X103292696Y-52074493D01*
X103292683Y-52074501D01*
X103292682Y-52074502D01*
X103250287Y-52116898D01*
X103250285Y-52116899D01*
X103250284Y-52116902D01*
X103222029Y-52138051D01*
X103208309Y-52145542D01*
X103140051Y-52160393D01*
X103140035Y-52160391D01*
X103140035Y-52160392D01*
X103140034Y-52160391D01*
X103138245Y-52160264D01*
X103080044Y-52140896D01*
X103073529Y-52136709D01*
X103052893Y-52120079D01*
X103007316Y-52074502D01*
X103007314Y-52074500D01*
X102950250Y-52041554D01*
X102893187Y-52008608D01*
X102829539Y-51991554D01*
X102765892Y-51974500D01*
X102765891Y-51974500D01*
X102634108Y-51974500D01*
X102506808Y-52008609D01*
X102506806Y-52008610D01*
X102392696Y-52074493D01*
X102392682Y-52074502D01*
X102392677Y-52074506D01*
X102299506Y-52167677D01*
X102299502Y-52167682D01*
X102299493Y-52167696D01*
X102233610Y-52281806D01*
X102233609Y-52281809D01*
X102233608Y-52281811D01*
X102233608Y-52281812D01*
X102212527Y-52360489D01*
X102212526Y-52360488D01*
X102199500Y-52409104D01*
X100500500Y-52409104D01*
X100500500Y-50642329D01*
X100505523Y-50607393D01*
X100509927Y-50592395D01*
X100547672Y-50533644D01*
X100547700Y-50533619D01*
X100547699Y-50533619D01*
X100549041Y-50532456D01*
X100603920Y-50504977D01*
X100611479Y-50503333D01*
X100637832Y-50500500D01*
X100777855Y-50500500D01*
X100812787Y-50505521D01*
G37*
%TD.AperFunction*%
%TD*%
M02*
