M48
; DRILL file KiCad 10.0.2 date 2026-05-15T20:22:26
; FORMAT={-:-/ absolute / metric / decimal}
; #@! TF.CreationDate,2026-05-15T20:22:26+09:00
; #@! TF.GenerationSoftware,Kicad,Pcbnew,10.0.2
; #@! TF.FileFunction,Plated,1,4,PTH
FMAT,2
METRIC
; #@! TA.AperFunction,Plated,PTH,ViaDrill
T1C0.300
%
G90
G05
T1
X100.9Y-57.1
X102.1Y-57.7
X102.7Y-52.475
X103.1Y-57.7
X103.15Y-53.637
X103.19Y-59.32
X103.2Y-51.0
X103.2Y-51.7
X103.6Y-52.475
X104.3Y-50.8
X104.719Y-55.558
X104.904Y-58.212
X105.3Y-50.9
X105.68Y-54.3
X105.68Y-55.1
X106.395Y-56.75
X106.6Y-50.9
X106.6Y-52.7
X106.975Y-61.941
X107.401Y-60.374
X107.6Y-61.477
X107.6Y-54.8
X107.6Y-55.5
X107.824Y-60.867
X107.949Y-53.64
X108.0Y-54.288
X108.0Y-56.1
X108.5Y-51.7
X108.5Y-56.9
X108.605Y-61.469
X109.0Y-54.4
X109.2Y-50.9
X109.5Y-54.9
X109.8Y-55.9
X110.43Y-52.29
X111.425Y-53.56
X111.7Y-51.4
X112.3Y-57.1
X112.644Y-54.165
X112.91Y-52.0
X113.2Y-55.9
X114.0Y-63.3
X114.0Y-64.1
X114.85Y-58.25
X115.8Y-63.4
X115.8Y-64.1
X116.037Y-61.55
X116.037Y-62.5
X116.375Y-54.83
X116.375Y-56.1
X116.375Y-59.963
X117.4Y-57.4
X117.4Y-61.8
X117.4Y-63.0
X117.75Y-59.963
X118.0Y-51.0
X118.0Y-54.2
X118.062Y-58.075
X118.373Y-57.491
X119.0Y-55.1
X119.0Y-59.9
X119.0Y-63.537
X119.6Y-55.1
X119.6Y-59.9
X120.3Y-55.8
X120.6Y-62.4
X120.822Y-61.142
X121.7Y-63.6
X122.0Y-54.1
X122.0Y-55.3
X122.5Y-61.4
X122.7Y-62.8
X122.7Y-63.4
X123.7Y-61.12
X124.1Y-54.1
X124.1Y-54.9
X124.1Y-55.7
M30
