%TF.GenerationSoftware,KiCad,Pcbnew,10.0.2*%
%TF.CreationDate,2026-05-28T11:14:38+09:00*%
%TF.ProjectId,ammeter2,616d6d65-7465-4723-922e-6b696361645f,rev?*%
%TF.SameCoordinates,Original*%
%TF.FileFunction,Legend,Top*%
%TF.FilePolarity,Positive*%
%FSLAX46Y46*%
G04 Gerber Fmt 4.6, Leading zero omitted, Abs format (unit mm)*
G04 Created by KiCad (PCBNEW 10.0.2) date 2026-05-28 11:14:38*
%MOMM*%
%LPD*%
G01*
G04 APERTURE LIST*
%ADD10C,0.062500*%
%ADD11C,0.120000*%
G04 APERTURE END LIST*
D10*
X107719559Y-51378571D02*
X107695750Y-51354762D01*
X107695750Y-51354762D02*
X107671940Y-51283333D01*
X107671940Y-51283333D02*
X107671940Y-51235714D01*
X107671940Y-51235714D02*
X107695750Y-51164286D01*
X107695750Y-51164286D02*
X107743369Y-51116667D01*
X107743369Y-51116667D02*
X107790988Y-51092857D01*
X107790988Y-51092857D02*
X107886226Y-51069048D01*
X107886226Y-51069048D02*
X107957654Y-51069048D01*
X107957654Y-51069048D02*
X108052892Y-51092857D01*
X108052892Y-51092857D02*
X108100511Y-51116667D01*
X108100511Y-51116667D02*
X108148130Y-51164286D01*
X108148130Y-51164286D02*
X108171940Y-51235714D01*
X108171940Y-51235714D02*
X108171940Y-51283333D01*
X108171940Y-51283333D02*
X108148130Y-51354762D01*
X108148130Y-51354762D02*
X108124321Y-51378571D01*
X107671940Y-51854762D02*
X107671940Y-51569048D01*
X107671940Y-51711905D02*
X108171940Y-51711905D01*
X108171940Y-51711905D02*
X108100511Y-51664286D01*
X108100511Y-51664286D02*
X108052892Y-51616667D01*
X108052892Y-51616667D02*
X108029083Y-51569048D01*
X107671940Y-52330952D02*
X107671940Y-52045238D01*
X107671940Y-52188095D02*
X108171940Y-52188095D01*
X108171940Y-52188095D02*
X108100511Y-52140476D01*
X108100511Y-52140476D02*
X108052892Y-52092857D01*
X108052892Y-52092857D02*
X108029083Y-52045238D01*
X110871940Y-51016666D02*
X111110035Y-50850000D01*
X110871940Y-50730952D02*
X111371940Y-50730952D01*
X111371940Y-50730952D02*
X111371940Y-50921428D01*
X111371940Y-50921428D02*
X111348130Y-50969047D01*
X111348130Y-50969047D02*
X111324321Y-50992857D01*
X111324321Y-50992857D02*
X111276702Y-51016666D01*
X111276702Y-51016666D02*
X111205273Y-51016666D01*
X111205273Y-51016666D02*
X111157654Y-50992857D01*
X111157654Y-50992857D02*
X111133845Y-50969047D01*
X111133845Y-50969047D02*
X111110035Y-50921428D01*
X111110035Y-50921428D02*
X111110035Y-50730952D01*
X111157654Y-51302381D02*
X111181464Y-51254762D01*
X111181464Y-51254762D02*
X111205273Y-51230952D01*
X111205273Y-51230952D02*
X111252892Y-51207143D01*
X111252892Y-51207143D02*
X111276702Y-51207143D01*
X111276702Y-51207143D02*
X111324321Y-51230952D01*
X111324321Y-51230952D02*
X111348130Y-51254762D01*
X111348130Y-51254762D02*
X111371940Y-51302381D01*
X111371940Y-51302381D02*
X111371940Y-51397619D01*
X111371940Y-51397619D02*
X111348130Y-51445238D01*
X111348130Y-51445238D02*
X111324321Y-51469047D01*
X111324321Y-51469047D02*
X111276702Y-51492857D01*
X111276702Y-51492857D02*
X111252892Y-51492857D01*
X111252892Y-51492857D02*
X111205273Y-51469047D01*
X111205273Y-51469047D02*
X111181464Y-51445238D01*
X111181464Y-51445238D02*
X111157654Y-51397619D01*
X111157654Y-51397619D02*
X111157654Y-51302381D01*
X111157654Y-51302381D02*
X111133845Y-51254762D01*
X111133845Y-51254762D02*
X111110035Y-51230952D01*
X111110035Y-51230952D02*
X111062416Y-51207143D01*
X111062416Y-51207143D02*
X110967178Y-51207143D01*
X110967178Y-51207143D02*
X110919559Y-51230952D01*
X110919559Y-51230952D02*
X110895750Y-51254762D01*
X110895750Y-51254762D02*
X110871940Y-51302381D01*
X110871940Y-51302381D02*
X110871940Y-51397619D01*
X110871940Y-51397619D02*
X110895750Y-51445238D01*
X110895750Y-51445238D02*
X110919559Y-51469047D01*
X110919559Y-51469047D02*
X110967178Y-51492857D01*
X110967178Y-51492857D02*
X111062416Y-51492857D01*
X111062416Y-51492857D02*
X111110035Y-51469047D01*
X111110035Y-51469047D02*
X111133845Y-51445238D01*
X111133845Y-51445238D02*
X111157654Y-51397619D01*
X109378059Y-55071428D02*
X109139964Y-55238094D01*
X109378059Y-55357142D02*
X108878059Y-55357142D01*
X108878059Y-55357142D02*
X108878059Y-55166666D01*
X108878059Y-55166666D02*
X108901869Y-55119047D01*
X108901869Y-55119047D02*
X108925678Y-55095237D01*
X108925678Y-55095237D02*
X108973297Y-55071428D01*
X108973297Y-55071428D02*
X109044726Y-55071428D01*
X109044726Y-55071428D02*
X109092345Y-55095237D01*
X109092345Y-55095237D02*
X109116154Y-55119047D01*
X109116154Y-55119047D02*
X109139964Y-55166666D01*
X109139964Y-55166666D02*
X109139964Y-55357142D01*
X109378059Y-54595237D02*
X109378059Y-54880951D01*
X109378059Y-54738094D02*
X108878059Y-54738094D01*
X108878059Y-54738094D02*
X108949488Y-54785713D01*
X108949488Y-54785713D02*
X108997107Y-54833332D01*
X108997107Y-54833332D02*
X109020916Y-54880951D01*
X108878059Y-54428571D02*
X108878059Y-54119047D01*
X108878059Y-54119047D02*
X109068535Y-54285714D01*
X109068535Y-54285714D02*
X109068535Y-54214285D01*
X109068535Y-54214285D02*
X109092345Y-54166666D01*
X109092345Y-54166666D02*
X109116154Y-54142857D01*
X109116154Y-54142857D02*
X109163773Y-54119047D01*
X109163773Y-54119047D02*
X109282821Y-54119047D01*
X109282821Y-54119047D02*
X109330440Y-54142857D01*
X109330440Y-54142857D02*
X109354250Y-54166666D01*
X109354250Y-54166666D02*
X109378059Y-54214285D01*
X109378059Y-54214285D02*
X109378059Y-54357142D01*
X109378059Y-54357142D02*
X109354250Y-54404761D01*
X109354250Y-54404761D02*
X109330440Y-54428571D01*
X117678571Y-51828059D02*
X117511905Y-51589964D01*
X117392857Y-51828059D02*
X117392857Y-51328059D01*
X117392857Y-51328059D02*
X117583333Y-51328059D01*
X117583333Y-51328059D02*
X117630952Y-51351869D01*
X117630952Y-51351869D02*
X117654762Y-51375678D01*
X117654762Y-51375678D02*
X117678571Y-51423297D01*
X117678571Y-51423297D02*
X117678571Y-51494726D01*
X117678571Y-51494726D02*
X117654762Y-51542345D01*
X117654762Y-51542345D02*
X117630952Y-51566154D01*
X117630952Y-51566154D02*
X117583333Y-51589964D01*
X117583333Y-51589964D02*
X117392857Y-51589964D01*
X118154762Y-51828059D02*
X117869048Y-51828059D01*
X118011905Y-51828059D02*
X118011905Y-51328059D01*
X118011905Y-51328059D02*
X117964286Y-51399488D01*
X117964286Y-51399488D02*
X117916667Y-51447107D01*
X117916667Y-51447107D02*
X117869048Y-51470916D01*
X118345238Y-51375678D02*
X118369047Y-51351869D01*
X118369047Y-51351869D02*
X118416666Y-51328059D01*
X118416666Y-51328059D02*
X118535714Y-51328059D01*
X118535714Y-51328059D02*
X118583333Y-51351869D01*
X118583333Y-51351869D02*
X118607142Y-51375678D01*
X118607142Y-51375678D02*
X118630952Y-51423297D01*
X118630952Y-51423297D02*
X118630952Y-51470916D01*
X118630952Y-51470916D02*
X118607142Y-51542345D01*
X118607142Y-51542345D02*
X118321428Y-51828059D01*
X118321428Y-51828059D02*
X118630952Y-51828059D01*
X117713059Y-57666666D02*
X118070202Y-57666666D01*
X118070202Y-57666666D02*
X118141630Y-57690475D01*
X118141630Y-57690475D02*
X118189250Y-57738094D01*
X118189250Y-57738094D02*
X118213059Y-57809523D01*
X118213059Y-57809523D02*
X118213059Y-57857142D01*
X117713059Y-57476190D02*
X117713059Y-57166666D01*
X117713059Y-57166666D02*
X117903535Y-57333333D01*
X117903535Y-57333333D02*
X117903535Y-57261904D01*
X117903535Y-57261904D02*
X117927345Y-57214285D01*
X117927345Y-57214285D02*
X117951154Y-57190476D01*
X117951154Y-57190476D02*
X117998773Y-57166666D01*
X117998773Y-57166666D02*
X118117821Y-57166666D01*
X118117821Y-57166666D02*
X118165440Y-57190476D01*
X118165440Y-57190476D02*
X118189250Y-57214285D01*
X118189250Y-57214285D02*
X118213059Y-57261904D01*
X118213059Y-57261904D02*
X118213059Y-57404761D01*
X118213059Y-57404761D02*
X118189250Y-57452380D01*
X118189250Y-57452380D02*
X118165440Y-57476190D01*
X106883333Y-55819559D02*
X106907142Y-55795750D01*
X106907142Y-55795750D02*
X106978571Y-55771940D01*
X106978571Y-55771940D02*
X107026190Y-55771940D01*
X107026190Y-55771940D02*
X107097618Y-55795750D01*
X107097618Y-55795750D02*
X107145237Y-55843369D01*
X107145237Y-55843369D02*
X107169047Y-55890988D01*
X107169047Y-55890988D02*
X107192856Y-55986226D01*
X107192856Y-55986226D02*
X107192856Y-56057654D01*
X107192856Y-56057654D02*
X107169047Y-56152892D01*
X107169047Y-56152892D02*
X107145237Y-56200511D01*
X107145237Y-56200511D02*
X107097618Y-56248130D01*
X107097618Y-56248130D02*
X107026190Y-56271940D01*
X107026190Y-56271940D02*
X106978571Y-56271940D01*
X106978571Y-56271940D02*
X106907142Y-56248130D01*
X106907142Y-56248130D02*
X106883333Y-56224321D01*
X106716666Y-56271940D02*
X106383333Y-56271940D01*
X106383333Y-56271940D02*
X106597618Y-55771940D01*
X107286940Y-57333333D02*
X106929797Y-57333333D01*
X106929797Y-57333333D02*
X106858369Y-57309524D01*
X106858369Y-57309524D02*
X106810750Y-57261905D01*
X106810750Y-57261905D02*
X106786940Y-57190476D01*
X106786940Y-57190476D02*
X106786940Y-57142857D01*
X106786940Y-57833333D02*
X106786940Y-57547619D01*
X106786940Y-57690476D02*
X107286940Y-57690476D01*
X107286940Y-57690476D02*
X107215511Y-57642857D01*
X107215511Y-57642857D02*
X107167892Y-57595238D01*
X107167892Y-57595238D02*
X107144083Y-57547619D01*
X108971940Y-53316666D02*
X109210035Y-53150000D01*
X108971940Y-53030952D02*
X109471940Y-53030952D01*
X109471940Y-53030952D02*
X109471940Y-53221428D01*
X109471940Y-53221428D02*
X109448130Y-53269047D01*
X109448130Y-53269047D02*
X109424321Y-53292857D01*
X109424321Y-53292857D02*
X109376702Y-53316666D01*
X109376702Y-53316666D02*
X109305273Y-53316666D01*
X109305273Y-53316666D02*
X109257654Y-53292857D01*
X109257654Y-53292857D02*
X109233845Y-53269047D01*
X109233845Y-53269047D02*
X109210035Y-53221428D01*
X109210035Y-53221428D02*
X109210035Y-53030952D01*
X108971940Y-53554762D02*
X108971940Y-53650000D01*
X108971940Y-53650000D02*
X108995750Y-53697619D01*
X108995750Y-53697619D02*
X109019559Y-53721428D01*
X109019559Y-53721428D02*
X109090988Y-53769047D01*
X109090988Y-53769047D02*
X109186226Y-53792857D01*
X109186226Y-53792857D02*
X109376702Y-53792857D01*
X109376702Y-53792857D02*
X109424321Y-53769047D01*
X109424321Y-53769047D02*
X109448130Y-53745238D01*
X109448130Y-53745238D02*
X109471940Y-53697619D01*
X109471940Y-53697619D02*
X109471940Y-53602381D01*
X109471940Y-53602381D02*
X109448130Y-53554762D01*
X109448130Y-53554762D02*
X109424321Y-53530952D01*
X109424321Y-53530952D02*
X109376702Y-53507143D01*
X109376702Y-53507143D02*
X109257654Y-53507143D01*
X109257654Y-53507143D02*
X109210035Y-53530952D01*
X109210035Y-53530952D02*
X109186226Y-53554762D01*
X109186226Y-53554762D02*
X109162416Y-53602381D01*
X109162416Y-53602381D02*
X109162416Y-53697619D01*
X109162416Y-53697619D02*
X109186226Y-53745238D01*
X109186226Y-53745238D02*
X109210035Y-53769047D01*
X109210035Y-53769047D02*
X109257654Y-53792857D01*
X108419559Y-50578571D02*
X108395750Y-50554762D01*
X108395750Y-50554762D02*
X108371940Y-50483333D01*
X108371940Y-50483333D02*
X108371940Y-50435714D01*
X108371940Y-50435714D02*
X108395750Y-50364286D01*
X108395750Y-50364286D02*
X108443369Y-50316667D01*
X108443369Y-50316667D02*
X108490988Y-50292857D01*
X108490988Y-50292857D02*
X108586226Y-50269048D01*
X108586226Y-50269048D02*
X108657654Y-50269048D01*
X108657654Y-50269048D02*
X108752892Y-50292857D01*
X108752892Y-50292857D02*
X108800511Y-50316667D01*
X108800511Y-50316667D02*
X108848130Y-50364286D01*
X108848130Y-50364286D02*
X108871940Y-50435714D01*
X108871940Y-50435714D02*
X108871940Y-50483333D01*
X108871940Y-50483333D02*
X108848130Y-50554762D01*
X108848130Y-50554762D02*
X108824321Y-50578571D01*
X108371940Y-51054762D02*
X108371940Y-50769048D01*
X108371940Y-50911905D02*
X108871940Y-50911905D01*
X108871940Y-50911905D02*
X108800511Y-50864286D01*
X108800511Y-50864286D02*
X108752892Y-50816667D01*
X108752892Y-50816667D02*
X108729083Y-50769048D01*
X108871940Y-51364285D02*
X108871940Y-51411904D01*
X108871940Y-51411904D02*
X108848130Y-51459523D01*
X108848130Y-51459523D02*
X108824321Y-51483333D01*
X108824321Y-51483333D02*
X108776702Y-51507142D01*
X108776702Y-51507142D02*
X108681464Y-51530952D01*
X108681464Y-51530952D02*
X108562416Y-51530952D01*
X108562416Y-51530952D02*
X108467178Y-51507142D01*
X108467178Y-51507142D02*
X108419559Y-51483333D01*
X108419559Y-51483333D02*
X108395750Y-51459523D01*
X108395750Y-51459523D02*
X108371940Y-51411904D01*
X108371940Y-51411904D02*
X108371940Y-51364285D01*
X108371940Y-51364285D02*
X108395750Y-51316666D01*
X108395750Y-51316666D02*
X108419559Y-51292857D01*
X108419559Y-51292857D02*
X108467178Y-51269047D01*
X108467178Y-51269047D02*
X108562416Y-51245238D01*
X108562416Y-51245238D02*
X108681464Y-51245238D01*
X108681464Y-51245238D02*
X108776702Y-51269047D01*
X108776702Y-51269047D02*
X108824321Y-51292857D01*
X108824321Y-51292857D02*
X108848130Y-51316666D01*
X108848130Y-51316666D02*
X108871940Y-51364285D01*
X107828059Y-60680952D02*
X108232821Y-60680952D01*
X108232821Y-60680952D02*
X108280440Y-60657142D01*
X108280440Y-60657142D02*
X108304250Y-60633333D01*
X108304250Y-60633333D02*
X108328059Y-60585714D01*
X108328059Y-60585714D02*
X108328059Y-60490476D01*
X108328059Y-60490476D02*
X108304250Y-60442857D01*
X108304250Y-60442857D02*
X108280440Y-60419047D01*
X108280440Y-60419047D02*
X108232821Y-60395238D01*
X108232821Y-60395238D02*
X107828059Y-60395238D01*
X107994726Y-59942856D02*
X108328059Y-59942856D01*
X107804250Y-60061904D02*
X108161392Y-60180951D01*
X108161392Y-60180951D02*
X108161392Y-59871428D01*
X118321428Y-53371940D02*
X118488094Y-53610035D01*
X118607142Y-53371940D02*
X118607142Y-53871940D01*
X118607142Y-53871940D02*
X118416666Y-53871940D01*
X118416666Y-53871940D02*
X118369047Y-53848130D01*
X118369047Y-53848130D02*
X118345237Y-53824321D01*
X118345237Y-53824321D02*
X118321428Y-53776702D01*
X118321428Y-53776702D02*
X118321428Y-53705273D01*
X118321428Y-53705273D02*
X118345237Y-53657654D01*
X118345237Y-53657654D02*
X118369047Y-53633845D01*
X118369047Y-53633845D02*
X118416666Y-53610035D01*
X118416666Y-53610035D02*
X118607142Y-53610035D01*
X117845237Y-53371940D02*
X118130951Y-53371940D01*
X117988094Y-53371940D02*
X117988094Y-53871940D01*
X117988094Y-53871940D02*
X118035713Y-53800511D01*
X118035713Y-53800511D02*
X118083332Y-53752892D01*
X118083332Y-53752892D02*
X118130951Y-53729083D01*
X117369047Y-53371940D02*
X117654761Y-53371940D01*
X117511904Y-53371940D02*
X117511904Y-53871940D01*
X117511904Y-53871940D02*
X117559523Y-53800511D01*
X117559523Y-53800511D02*
X117607142Y-53752892D01*
X117607142Y-53752892D02*
X117654761Y-53729083D01*
X114519047Y-59828059D02*
X114519047Y-60232821D01*
X114519047Y-60232821D02*
X114542857Y-60280440D01*
X114542857Y-60280440D02*
X114566666Y-60304250D01*
X114566666Y-60304250D02*
X114614285Y-60328059D01*
X114614285Y-60328059D02*
X114709523Y-60328059D01*
X114709523Y-60328059D02*
X114757142Y-60304250D01*
X114757142Y-60304250D02*
X114780952Y-60280440D01*
X114780952Y-60280440D02*
X114804761Y-60232821D01*
X114804761Y-60232821D02*
X114804761Y-59828059D01*
X114995238Y-59828059D02*
X115304762Y-59828059D01*
X115304762Y-59828059D02*
X115138095Y-60018535D01*
X115138095Y-60018535D02*
X115209524Y-60018535D01*
X115209524Y-60018535D02*
X115257143Y-60042345D01*
X115257143Y-60042345D02*
X115280952Y-60066154D01*
X115280952Y-60066154D02*
X115304762Y-60113773D01*
X115304762Y-60113773D02*
X115304762Y-60232821D01*
X115304762Y-60232821D02*
X115280952Y-60280440D01*
X115280952Y-60280440D02*
X115257143Y-60304250D01*
X115257143Y-60304250D02*
X115209524Y-60328059D01*
X115209524Y-60328059D02*
X115066667Y-60328059D01*
X115066667Y-60328059D02*
X115019048Y-60304250D01*
X115019048Y-60304250D02*
X114995238Y-60280440D01*
X113519047Y-61108059D02*
X113519047Y-61512821D01*
X113519047Y-61512821D02*
X113542857Y-61560440D01*
X113542857Y-61560440D02*
X113566666Y-61584250D01*
X113566666Y-61584250D02*
X113614285Y-61608059D01*
X113614285Y-61608059D02*
X113709523Y-61608059D01*
X113709523Y-61608059D02*
X113757142Y-61584250D01*
X113757142Y-61584250D02*
X113780952Y-61560440D01*
X113780952Y-61560440D02*
X113804761Y-61512821D01*
X113804761Y-61512821D02*
X113804761Y-61108059D01*
X113995238Y-61108059D02*
X114328571Y-61108059D01*
X114328571Y-61108059D02*
X114114286Y-61608059D01*
X108971940Y-52278571D02*
X109210035Y-52111905D01*
X108971940Y-51992857D02*
X109471940Y-51992857D01*
X109471940Y-51992857D02*
X109471940Y-52183333D01*
X109471940Y-52183333D02*
X109448130Y-52230952D01*
X109448130Y-52230952D02*
X109424321Y-52254762D01*
X109424321Y-52254762D02*
X109376702Y-52278571D01*
X109376702Y-52278571D02*
X109305273Y-52278571D01*
X109305273Y-52278571D02*
X109257654Y-52254762D01*
X109257654Y-52254762D02*
X109233845Y-52230952D01*
X109233845Y-52230952D02*
X109210035Y-52183333D01*
X109210035Y-52183333D02*
X109210035Y-51992857D01*
X108971940Y-52754762D02*
X108971940Y-52469048D01*
X108971940Y-52611905D02*
X109471940Y-52611905D01*
X109471940Y-52611905D02*
X109400511Y-52564286D01*
X109400511Y-52564286D02*
X109352892Y-52516667D01*
X109352892Y-52516667D02*
X109329083Y-52469048D01*
X109471940Y-53064285D02*
X109471940Y-53111904D01*
X109471940Y-53111904D02*
X109448130Y-53159523D01*
X109448130Y-53159523D02*
X109424321Y-53183333D01*
X109424321Y-53183333D02*
X109376702Y-53207142D01*
X109376702Y-53207142D02*
X109281464Y-53230952D01*
X109281464Y-53230952D02*
X109162416Y-53230952D01*
X109162416Y-53230952D02*
X109067178Y-53207142D01*
X109067178Y-53207142D02*
X109019559Y-53183333D01*
X109019559Y-53183333D02*
X108995750Y-53159523D01*
X108995750Y-53159523D02*
X108971940Y-53111904D01*
X108971940Y-53111904D02*
X108971940Y-53064285D01*
X108971940Y-53064285D02*
X108995750Y-53016666D01*
X108995750Y-53016666D02*
X109019559Y-52992857D01*
X109019559Y-52992857D02*
X109067178Y-52969047D01*
X109067178Y-52969047D02*
X109162416Y-52945238D01*
X109162416Y-52945238D02*
X109281464Y-52945238D01*
X109281464Y-52945238D02*
X109376702Y-52969047D01*
X109376702Y-52969047D02*
X109424321Y-52992857D01*
X109424321Y-52992857D02*
X109448130Y-53016666D01*
X109448130Y-53016666D02*
X109471940Y-53064285D01*
%TO.C,J3*%
D11*
X118485000Y-60460000D02*
X118485000Y-61260000D01*
X118485000Y-61260000D02*
X118635000Y-61260000D01*
X122565000Y-52920000D02*
X121155000Y-52920000D01*
X122565000Y-62080000D02*
X121155000Y-62080000D01*
%TO.C,J1*%
X102435000Y-52920000D02*
X103845000Y-52920000D01*
X102435000Y-62080000D02*
X103845000Y-62080000D01*
X106515000Y-53740000D02*
X106365000Y-53740000D01*
X106515000Y-54540000D02*
X106515000Y-53740000D01*
%TO.C,U4*%
X106490000Y-58690000D02*
X106665000Y-58690000D01*
X106490000Y-61910000D02*
X106490000Y-58690000D01*
X106665000Y-61910000D02*
X106490000Y-61910000D01*
X109535000Y-58690000D02*
X109710000Y-58690000D01*
X109710000Y-58690000D02*
X109710000Y-61910000D01*
X109710000Y-61910000D02*
X109535000Y-61910000D01*
X106660000Y-62460000D02*
X106330000Y-62700000D01*
X106330000Y-62220000D01*
X106660000Y-62460000D01*
G36*
X106660000Y-62460000D02*
G01*
X106330000Y-62700000D01*
X106330000Y-62220000D01*
X106660000Y-62460000D01*
G37*
%TO.C,U3*%
X113990000Y-60940000D02*
X115810000Y-60940000D01*
X113990000Y-60990000D02*
X113990000Y-60940000D01*
X113990000Y-64060000D02*
X113990000Y-64010000D01*
X115810000Y-60940000D02*
X115810000Y-60990000D01*
X115810000Y-64010000D02*
X115810000Y-64060000D01*
X115810000Y-64060000D02*
X113990000Y-64060000D01*
X113450000Y-60990000D02*
X113210000Y-60660000D01*
X113690000Y-60660000D01*
X113450000Y-60990000D01*
G36*
X113450000Y-60990000D02*
G01*
X113210000Y-60660000D01*
X113690000Y-60660000D01*
X113450000Y-60990000D01*
G37*
%TO.C,U7*%
X111840000Y-51665000D02*
X115960000Y-51665000D01*
X111840000Y-51730000D02*
X111840000Y-51665000D01*
X111840000Y-60535000D02*
X111840000Y-60470000D01*
X115960000Y-51665000D02*
X115960000Y-51730000D01*
X115960000Y-60470000D02*
X115960000Y-60535000D01*
X115960000Y-60535000D02*
X111840000Y-60535000D01*
X116500000Y-60470000D02*
X116740000Y-60800000D01*
X116260000Y-60800000D01*
X116500000Y-60470000D01*
G36*
X116740000Y-60800000D02*
G01*
X116260000Y-60800000D01*
X116500000Y-60470000D01*
X116740000Y-60800000D01*
G37*
%TD*%
M02*
