%TF.GenerationSoftware,KiCad,Pcbnew,9.0.5*%
%TF.CreationDate,2025-10-07T14:06:08+09:00*%
%TF.ProjectId,ws2811,77733238-3131-42e6-9b69-6361645f7063,rev?*%
%TF.SameCoordinates,Original*%
%TF.FileFunction,Soldermask,Top*%
%TF.FilePolarity,Negative*%
%FSLAX46Y46*%
G04 Gerber Fmt 4.6, Leading zero omitted, Abs format (unit mm)*
G04 Created by KiCad (PCBNEW 9.0.5) date 2025-10-07 14:06:08*
%MOMM*%
%LPD*%
G01*
G04 APERTURE LIST*
G04 Aperture macros list*
%AMRoundRect*
0 Rectangle with rounded corners*
0 $1 Rounding radius*
0 $2 $3 $4 $5 $6 $7 $8 $9 X,Y pos of 4 corners*
0 Add a 4 corners polygon primitive as box body*
4,1,4,$2,$3,$4,$5,$6,$7,$8,$9,$2,$3,0*
0 Add four circle primitives for the rounded corners*
1,1,$1+$1,$2,$3*
1,1,$1+$1,$4,$5*
1,1,$1+$1,$6,$7*
1,1,$1+$1,$8,$9*
0 Add four rect primitives between the rounded corners*
20,1,$1+$1,$2,$3,$4,$5,0*
20,1,$1+$1,$4,$5,$6,$7,0*
20,1,$1+$1,$6,$7,$8,$9,0*
20,1,$1+$1,$8,$9,$2,$3,0*%
G04 Aperture macros list end*
%ADD10RoundRect,0.375000X-1.375000X-0.875000X1.375000X-0.875000X1.375000X0.875000X-1.375000X0.875000X0*%
%ADD11RoundRect,0.337500X-1.412500X-0.787500X1.412500X-0.787500X1.412500X0.787500X-1.412500X0.787500X0*%
%ADD12RoundRect,0.175000X1.675000X-0.175000X1.675000X0.175000X-1.675000X0.175000X-1.675000X-0.175000X0*%
%ADD13RoundRect,0.250001X0.899999X-0.499999X0.899999X0.499999X-0.899999X0.499999X-0.899999X-0.499999X0*%
%ADD14RoundRect,0.200000X-0.200000X-0.275000X0.200000X-0.275000X0.200000X0.275000X-0.200000X0.275000X0*%
%ADD15RoundRect,0.225000X0.225000X0.250000X-0.225000X0.250000X-0.225000X-0.250000X0.225000X-0.250000X0*%
%ADD16RoundRect,0.225000X-0.225000X-0.250000X0.225000X-0.250000X0.225000X0.250000X-0.225000X0.250000X0*%
%ADD17RoundRect,0.175000X-1.675000X0.175000X-1.675000X-0.175000X1.675000X-0.175000X1.675000X0.175000X0*%
%ADD18RoundRect,0.250001X-0.899999X0.499999X-0.899999X-0.499999X0.899999X-0.499999X0.899999X0.499999X0*%
%ADD19RoundRect,0.200000X0.275000X-0.200000X0.275000X0.200000X-0.275000X0.200000X-0.275000X-0.200000X0*%
%ADD20RoundRect,0.075000X0.175000X-0.325000X0.175000X0.325000X-0.175000X0.325000X-0.175000X-0.325000X0*%
%ADD21RoundRect,0.218750X0.218750X0.256250X-0.218750X0.256250X-0.218750X-0.256250X0.218750X-0.256250X0*%
%ADD22RoundRect,0.137500X-0.612500X-0.137500X0.612500X-0.137500X0.612500X0.137500X-0.612500X0.137500X0*%
G04 APERTURE END LIST*
D10*
%TO.C,J5*%
X157500000Y-100500000D03*
%TD*%
D11*
%TO.C,J4*%
X123000000Y-149500000D03*
%TD*%
D12*
%TO.C,J1*%
X124400000Y-87850000D03*
X124400000Y-86350000D03*
D13*
X122300000Y-89900000D03*
X122300000Y-84300000D03*
%TD*%
D14*
%TO.C,R4*%
X166250000Y-117200000D03*
X167900000Y-117200000D03*
%TD*%
D11*
%TO.C,J4*%
X144000000Y-149500000D03*
%TD*%
D15*
%TO.C,C3*%
X172775000Y-120000000D03*
X171225000Y-120000000D03*
%TD*%
%TO.C,C2*%
X125850000Y-72800000D03*
X124300000Y-72800000D03*
%TD*%
D11*
%TO.C,J3*%
X137000000Y-126500000D03*
%TD*%
%TO.C,J4*%
X186000000Y-126500000D03*
%TD*%
D15*
%TO.C,C2*%
X146850000Y-95800000D03*
X145300000Y-95800000D03*
%TD*%
D11*
%TO.C,J4*%
X123000000Y-103500000D03*
%TD*%
D14*
%TO.C,R4*%
X145250000Y-71200000D03*
X146900000Y-71200000D03*
%TD*%
D15*
%TO.C,C2*%
X188850000Y-141800000D03*
X187300000Y-141800000D03*
%TD*%
D10*
%TO.C,J5*%
X136500000Y-100500000D03*
%TD*%
D12*
%TO.C,J1*%
X187400000Y-87850000D03*
X187400000Y-86350000D03*
D13*
X185300000Y-89900000D03*
X185300000Y-84300000D03*
%TD*%
D16*
%TO.C,C1*%
X171800000Y-84600000D03*
X173350000Y-84600000D03*
%TD*%
D17*
%TO.C,J2*%
X135600000Y-132350000D03*
X135600000Y-133850000D03*
D18*
X137700000Y-130300000D03*
X137700000Y-135900000D03*
%TD*%
D16*
%TO.C,C1*%
X192800000Y-84600000D03*
X194350000Y-84600000D03*
%TD*%
D14*
%TO.C,R3*%
X124250000Y-69600000D03*
X125900000Y-69600000D03*
%TD*%
D19*
%TO.C,R1*%
X128000000Y-133850000D03*
X128000000Y-132200000D03*
%TD*%
D20*
%TO.C,U1*%
X192800000Y-112025000D03*
X193600000Y-112025000D03*
X194400000Y-112025000D03*
X195200000Y-112025000D03*
X195200000Y-109175000D03*
X194400000Y-109175000D03*
X193600000Y-109175000D03*
X192800000Y-109175000D03*
%TD*%
D19*
%TO.C,R1*%
X191000000Y-110850000D03*
X191000000Y-109200000D03*
%TD*%
D14*
%TO.C,R3*%
X145250000Y-92600000D03*
X146900000Y-92600000D03*
%TD*%
D21*
%TO.C,D1*%
X148575000Y-66700000D03*
X147000000Y-66700000D03*
%TD*%
D15*
%TO.C,C3*%
X172775000Y-74000000D03*
X171225000Y-74000000D03*
%TD*%
D17*
%TO.C,J2*%
X156600000Y-109350000D03*
X156600000Y-110850000D03*
D18*
X158700000Y-107300000D03*
X158700000Y-112900000D03*
%TD*%
D12*
%TO.C,J1*%
X187400000Y-133850000D03*
X187400000Y-132350000D03*
D13*
X185300000Y-135900000D03*
X185300000Y-130300000D03*
%TD*%
D19*
%TO.C,R1*%
X191000000Y-64850000D03*
X191000000Y-63200000D03*
%TD*%
D22*
%TO.C,U2*%
X127850000Y-68295000D03*
X127850000Y-69565000D03*
X127850000Y-70835000D03*
X127850000Y-72105000D03*
X133150000Y-72105000D03*
X133150000Y-70835000D03*
X133150000Y-69565000D03*
X133150000Y-68295000D03*
%TD*%
D15*
%TO.C,C2*%
X125850000Y-95800000D03*
X124300000Y-95800000D03*
%TD*%
D20*
%TO.C,U1*%
X129800000Y-66025000D03*
X130600000Y-66025000D03*
X131400000Y-66025000D03*
X132200000Y-66025000D03*
X132200000Y-63175000D03*
X131400000Y-63175000D03*
X130600000Y-63175000D03*
X129800000Y-63175000D03*
%TD*%
D10*
%TO.C,J5*%
X136500000Y-123500000D03*
%TD*%
D19*
%TO.C,R1*%
X170000000Y-64850000D03*
X170000000Y-63200000D03*
%TD*%
D21*
%TO.C,D1*%
X190575000Y-66700000D03*
X189000000Y-66700000D03*
%TD*%
D17*
%TO.C,J2*%
X177600000Y-63350000D03*
X177600000Y-64850000D03*
D18*
X179700000Y-61300000D03*
X179700000Y-66900000D03*
%TD*%
D16*
%TO.C,C1*%
X192800000Y-61600000D03*
X194350000Y-61600000D03*
%TD*%
D12*
%TO.C,J1*%
X166400000Y-64850000D03*
X166400000Y-63350000D03*
D13*
X164300000Y-66900000D03*
X164300000Y-61300000D03*
%TD*%
D10*
%TO.C,J5*%
X136500000Y-146500000D03*
%TD*%
%TO.C,J5*%
X157500000Y-123500000D03*
%TD*%
D17*
%TO.C,J2*%
X135600000Y-63350000D03*
X135600000Y-64850000D03*
D18*
X137700000Y-61300000D03*
X137700000Y-66900000D03*
%TD*%
D12*
%TO.C,J1*%
X124400000Y-133850000D03*
X124400000Y-132350000D03*
D13*
X122300000Y-135900000D03*
X122300000Y-130300000D03*
%TD*%
D22*
%TO.C,U2*%
X148850000Y-91295000D03*
X148850000Y-92565000D03*
X148850000Y-93835000D03*
X148850000Y-95105000D03*
X154150000Y-95105000D03*
X154150000Y-93835000D03*
X154150000Y-92565000D03*
X154150000Y-91295000D03*
%TD*%
D10*
%TO.C,J5*%
X199500000Y-146500000D03*
%TD*%
D22*
%TO.C,U2*%
X127850000Y-137295000D03*
X127850000Y-138565000D03*
X127850000Y-139835000D03*
X127850000Y-141105000D03*
X133150000Y-141105000D03*
X133150000Y-139835000D03*
X133150000Y-138565000D03*
X133150000Y-137295000D03*
%TD*%
D11*
%TO.C,J4*%
X123000000Y-126500000D03*
%TD*%
D10*
%TO.C,J6*%
X123500000Y-146500000D03*
%TD*%
%TO.C,J6*%
X186500000Y-123500000D03*
%TD*%
D11*
%TO.C,J4*%
X165000000Y-149500000D03*
%TD*%
D17*
%TO.C,J2*%
X198600000Y-109350000D03*
X198600000Y-110850000D03*
D18*
X200700000Y-107300000D03*
X200700000Y-112900000D03*
%TD*%
D10*
%TO.C,J6*%
X186500000Y-77500000D03*
%TD*%
D21*
%TO.C,D1*%
X169575000Y-89700000D03*
X168000000Y-89700000D03*
%TD*%
D10*
%TO.C,J6*%
X165500000Y-123500000D03*
%TD*%
D14*
%TO.C,R3*%
X145250000Y-69600000D03*
X146900000Y-69600000D03*
%TD*%
D15*
%TO.C,C3*%
X130775000Y-143000000D03*
X129225000Y-143000000D03*
%TD*%
D22*
%TO.C,U2*%
X169850000Y-68295000D03*
X169850000Y-69565000D03*
X169850000Y-70835000D03*
X169850000Y-72105000D03*
X175150000Y-72105000D03*
X175150000Y-70835000D03*
X175150000Y-69565000D03*
X175150000Y-68295000D03*
%TD*%
D16*
%TO.C,C1*%
X171800000Y-107600000D03*
X173350000Y-107600000D03*
%TD*%
D20*
%TO.C,U1*%
X150800000Y-66025000D03*
X151600000Y-66025000D03*
X152400000Y-66025000D03*
X153200000Y-66025000D03*
X153200000Y-63175000D03*
X152400000Y-63175000D03*
X151600000Y-63175000D03*
X150800000Y-63175000D03*
%TD*%
D14*
%TO.C,R3*%
X124250000Y-92600000D03*
X125900000Y-92600000D03*
%TD*%
D15*
%TO.C,C3*%
X130775000Y-74000000D03*
X129225000Y-74000000D03*
%TD*%
D10*
%TO.C,J6*%
X165500000Y-100500000D03*
%TD*%
D14*
%TO.C,R4*%
X145250000Y-94200000D03*
X146900000Y-94200000D03*
%TD*%
D16*
%TO.C,C1*%
X171800000Y-61600000D03*
X173350000Y-61600000D03*
%TD*%
D15*
%TO.C,C2*%
X167850000Y-72800000D03*
X166300000Y-72800000D03*
%TD*%
%TO.C,C2*%
X188850000Y-118800000D03*
X187300000Y-118800000D03*
%TD*%
D22*
%TO.C,U2*%
X190850000Y-68295000D03*
X190850000Y-69565000D03*
X190850000Y-70835000D03*
X190850000Y-72105000D03*
X196150000Y-72105000D03*
X196150000Y-70835000D03*
X196150000Y-69565000D03*
X196150000Y-68295000D03*
%TD*%
D20*
%TO.C,U1*%
X150800000Y-135025000D03*
X151600000Y-135025000D03*
X152400000Y-135025000D03*
X153200000Y-135025000D03*
X153200000Y-132175000D03*
X152400000Y-132175000D03*
X151600000Y-132175000D03*
X150800000Y-132175000D03*
%TD*%
D10*
%TO.C,J6*%
X123500000Y-123500000D03*
%TD*%
%TO.C,J5*%
X157500000Y-146500000D03*
%TD*%
D21*
%TO.C,D1*%
X190575000Y-135700000D03*
X189000000Y-135700000D03*
%TD*%
D10*
%TO.C,J6*%
X165500000Y-146500000D03*
%TD*%
%TO.C,J6*%
X186500000Y-146500000D03*
%TD*%
D12*
%TO.C,J1*%
X145400000Y-110850000D03*
X145400000Y-109350000D03*
D13*
X143300000Y-112900000D03*
X143300000Y-107300000D03*
%TD*%
D14*
%TO.C,R4*%
X187250000Y-140200000D03*
X188900000Y-140200000D03*
%TD*%
D11*
%TO.C,J3*%
X200000000Y-80500000D03*
%TD*%
D10*
%TO.C,J5*%
X178500000Y-146500000D03*
%TD*%
D11*
%TO.C,J4*%
X123000000Y-80500000D03*
%TD*%
D22*
%TO.C,U2*%
X190850000Y-137295000D03*
X190850000Y-138565000D03*
X190850000Y-139835000D03*
X190850000Y-141105000D03*
X196150000Y-141105000D03*
X196150000Y-139835000D03*
X196150000Y-138565000D03*
X196150000Y-137295000D03*
%TD*%
D21*
%TO.C,D1*%
X127575000Y-89700000D03*
X126000000Y-89700000D03*
%TD*%
D22*
%TO.C,U2*%
X148850000Y-68295000D03*
X148850000Y-69565000D03*
X148850000Y-70835000D03*
X148850000Y-72105000D03*
X154150000Y-72105000D03*
X154150000Y-70835000D03*
X154150000Y-69565000D03*
X154150000Y-68295000D03*
%TD*%
D20*
%TO.C,U1*%
X171800000Y-66025000D03*
X172600000Y-66025000D03*
X173400000Y-66025000D03*
X174200000Y-66025000D03*
X174200000Y-63175000D03*
X173400000Y-63175000D03*
X172600000Y-63175000D03*
X171800000Y-63175000D03*
%TD*%
D19*
%TO.C,R1*%
X170000000Y-110850000D03*
X170000000Y-109200000D03*
%TD*%
D11*
%TO.C,J3*%
X179000000Y-103500000D03*
%TD*%
%TO.C,J4*%
X144000000Y-80500000D03*
%TD*%
D10*
%TO.C,J6*%
X123500000Y-77500000D03*
%TD*%
D22*
%TO.C,U2*%
X148850000Y-114295000D03*
X148850000Y-115565000D03*
X148850000Y-116835000D03*
X148850000Y-118105000D03*
X154150000Y-118105000D03*
X154150000Y-116835000D03*
X154150000Y-115565000D03*
X154150000Y-114295000D03*
%TD*%
D15*
%TO.C,C2*%
X125850000Y-141800000D03*
X124300000Y-141800000D03*
%TD*%
D14*
%TO.C,R4*%
X166250000Y-94200000D03*
X167900000Y-94200000D03*
%TD*%
D17*
%TO.C,J2*%
X135600000Y-109350000D03*
X135600000Y-110850000D03*
D18*
X137700000Y-107300000D03*
X137700000Y-112900000D03*
%TD*%
D21*
%TO.C,D1*%
X148575000Y-89700000D03*
X147000000Y-89700000D03*
%TD*%
D19*
%TO.C,R1*%
X149000000Y-64850000D03*
X149000000Y-63200000D03*
%TD*%
D21*
%TO.C,D1*%
X127575000Y-66700000D03*
X126000000Y-66700000D03*
%TD*%
D12*
%TO.C,J1*%
X145400000Y-87850000D03*
X145400000Y-86350000D03*
D13*
X143300000Y-89900000D03*
X143300000Y-84300000D03*
%TD*%
D15*
%TO.C,C2*%
X188850000Y-95800000D03*
X187300000Y-95800000D03*
%TD*%
D14*
%TO.C,R3*%
X166250000Y-138600000D03*
X167900000Y-138600000D03*
%TD*%
D10*
%TO.C,J6*%
X123500000Y-100500000D03*
%TD*%
D19*
%TO.C,R1*%
X149000000Y-110850000D03*
X149000000Y-109200000D03*
%TD*%
D11*
%TO.C,J4*%
X165000000Y-80500000D03*
%TD*%
D17*
%TO.C,J2*%
X135600000Y-86350000D03*
X135600000Y-87850000D03*
D18*
X137700000Y-84300000D03*
X137700000Y-89900000D03*
%TD*%
D21*
%TO.C,D1*%
X169575000Y-66700000D03*
X168000000Y-66700000D03*
%TD*%
D12*
%TO.C,J1*%
X145400000Y-133850000D03*
X145400000Y-132350000D03*
D13*
X143300000Y-135900000D03*
X143300000Y-130300000D03*
%TD*%
D11*
%TO.C,J3*%
X200000000Y-149500000D03*
%TD*%
D14*
%TO.C,R3*%
X145250000Y-115600000D03*
X146900000Y-115600000D03*
%TD*%
D17*
%TO.C,J2*%
X177600000Y-86350000D03*
X177600000Y-87850000D03*
D18*
X179700000Y-84300000D03*
X179700000Y-89900000D03*
%TD*%
D14*
%TO.C,R4*%
X124250000Y-140200000D03*
X125900000Y-140200000D03*
%TD*%
%TO.C,R3*%
X187250000Y-138600000D03*
X188900000Y-138600000D03*
%TD*%
D15*
%TO.C,C3*%
X130775000Y-120000000D03*
X129225000Y-120000000D03*
%TD*%
D16*
%TO.C,C1*%
X150800000Y-107600000D03*
X152350000Y-107600000D03*
%TD*%
D17*
%TO.C,J2*%
X177600000Y-109350000D03*
X177600000Y-110850000D03*
D18*
X179700000Y-107300000D03*
X179700000Y-112900000D03*
%TD*%
D15*
%TO.C,C2*%
X167850000Y-118800000D03*
X166300000Y-118800000D03*
%TD*%
D20*
%TO.C,U1*%
X171800000Y-112025000D03*
X172600000Y-112025000D03*
X173400000Y-112025000D03*
X174200000Y-112025000D03*
X174200000Y-109175000D03*
X173400000Y-109175000D03*
X172600000Y-109175000D03*
X171800000Y-109175000D03*
%TD*%
D16*
%TO.C,C1*%
X129800000Y-84600000D03*
X131350000Y-84600000D03*
%TD*%
D11*
%TO.C,J3*%
X179000000Y-126500000D03*
%TD*%
D15*
%TO.C,C2*%
X146850000Y-141800000D03*
X145300000Y-141800000D03*
%TD*%
D11*
%TO.C,J4*%
X186000000Y-80500000D03*
%TD*%
%TO.C,J4*%
X165000000Y-103500000D03*
%TD*%
D15*
%TO.C,C3*%
X193775000Y-120000000D03*
X192225000Y-120000000D03*
%TD*%
D11*
%TO.C,J3*%
X179000000Y-149500000D03*
%TD*%
D12*
%TO.C,J1*%
X166400000Y-133850000D03*
X166400000Y-132350000D03*
D13*
X164300000Y-135900000D03*
X164300000Y-130300000D03*
%TD*%
D10*
%TO.C,J5*%
X178500000Y-77500000D03*
%TD*%
D15*
%TO.C,C3*%
X193775000Y-97000000D03*
X192225000Y-97000000D03*
%TD*%
D14*
%TO.C,R4*%
X187250000Y-71200000D03*
X188900000Y-71200000D03*
%TD*%
D10*
%TO.C,J5*%
X178500000Y-100500000D03*
%TD*%
D14*
%TO.C,R4*%
X166250000Y-71200000D03*
X167900000Y-71200000D03*
%TD*%
D11*
%TO.C,J4*%
X165000000Y-126500000D03*
%TD*%
D12*
%TO.C,J1*%
X187400000Y-64850000D03*
X187400000Y-63350000D03*
D13*
X185300000Y-66900000D03*
X185300000Y-61300000D03*
%TD*%
D19*
%TO.C,R1*%
X170000000Y-87850000D03*
X170000000Y-86200000D03*
%TD*%
D20*
%TO.C,U1*%
X129800000Y-112025000D03*
X130600000Y-112025000D03*
X131400000Y-112025000D03*
X132200000Y-112025000D03*
X132200000Y-109175000D03*
X131400000Y-109175000D03*
X130600000Y-109175000D03*
X129800000Y-109175000D03*
%TD*%
D21*
%TO.C,D1*%
X190575000Y-89700000D03*
X189000000Y-89700000D03*
%TD*%
D10*
%TO.C,J6*%
X165500000Y-77500000D03*
%TD*%
D19*
%TO.C,R1*%
X128000000Y-110850000D03*
X128000000Y-109200000D03*
%TD*%
D17*
%TO.C,J2*%
X198600000Y-132350000D03*
X198600000Y-133850000D03*
D18*
X200700000Y-130300000D03*
X200700000Y-135900000D03*
%TD*%
D11*
%TO.C,J3*%
X137000000Y-149500000D03*
%TD*%
D22*
%TO.C,U2*%
X127850000Y-91295000D03*
X127850000Y-92565000D03*
X127850000Y-93835000D03*
X127850000Y-95105000D03*
X133150000Y-95105000D03*
X133150000Y-93835000D03*
X133150000Y-92565000D03*
X133150000Y-91295000D03*
%TD*%
D12*
%TO.C,J1*%
X166400000Y-110850000D03*
X166400000Y-109350000D03*
D13*
X164300000Y-112900000D03*
X164300000Y-107300000D03*
%TD*%
D11*
%TO.C,J4*%
X186000000Y-103500000D03*
%TD*%
D15*
%TO.C,C3*%
X151775000Y-143000000D03*
X150225000Y-143000000D03*
%TD*%
D16*
%TO.C,C1*%
X129800000Y-107600000D03*
X131350000Y-107600000D03*
%TD*%
D20*
%TO.C,U1*%
X171800000Y-135025000D03*
X172600000Y-135025000D03*
X173400000Y-135025000D03*
X174200000Y-135025000D03*
X174200000Y-132175000D03*
X173400000Y-132175000D03*
X172600000Y-132175000D03*
X171800000Y-132175000D03*
%TD*%
D10*
%TO.C,J6*%
X144500000Y-123500000D03*
%TD*%
D19*
%TO.C,R1*%
X128000000Y-64850000D03*
X128000000Y-63200000D03*
%TD*%
D14*
%TO.C,R3*%
X124250000Y-115600000D03*
X125900000Y-115600000D03*
%TD*%
D16*
%TO.C,C1*%
X192800000Y-130600000D03*
X194350000Y-130600000D03*
%TD*%
D15*
%TO.C,C2*%
X125850000Y-118800000D03*
X124300000Y-118800000D03*
%TD*%
D16*
%TO.C,C1*%
X129800000Y-130600000D03*
X131350000Y-130600000D03*
%TD*%
D15*
%TO.C,C2*%
X167850000Y-141800000D03*
X166300000Y-141800000D03*
%TD*%
D10*
%TO.C,J5*%
X178500000Y-123500000D03*
%TD*%
D14*
%TO.C,R4*%
X124250000Y-117200000D03*
X125900000Y-117200000D03*
%TD*%
D19*
%TO.C,R1*%
X170000000Y-133850000D03*
X170000000Y-132200000D03*
%TD*%
D16*
%TO.C,C1*%
X150800000Y-130600000D03*
X152350000Y-130600000D03*
%TD*%
D10*
%TO.C,J6*%
X144500000Y-77500000D03*
%TD*%
D16*
%TO.C,C1*%
X150800000Y-61600000D03*
X152350000Y-61600000D03*
%TD*%
D14*
%TO.C,R3*%
X124250000Y-138600000D03*
X125900000Y-138600000D03*
%TD*%
D17*
%TO.C,J2*%
X156600000Y-86350000D03*
X156600000Y-87850000D03*
D18*
X158700000Y-84300000D03*
X158700000Y-89900000D03*
%TD*%
D14*
%TO.C,R4*%
X145250000Y-117200000D03*
X146900000Y-117200000D03*
%TD*%
%TO.C,R4*%
X124250000Y-71200000D03*
X125900000Y-71200000D03*
%TD*%
%TO.C,R3*%
X145250000Y-138600000D03*
X146900000Y-138600000D03*
%TD*%
%TO.C,R3*%
X166250000Y-115600000D03*
X167900000Y-115600000D03*
%TD*%
D10*
%TO.C,J6*%
X186500000Y-100500000D03*
%TD*%
D15*
%TO.C,C2*%
X188850000Y-72800000D03*
X187300000Y-72800000D03*
%TD*%
D20*
%TO.C,U1*%
X150800000Y-89025000D03*
X151600000Y-89025000D03*
X152400000Y-89025000D03*
X153200000Y-89025000D03*
X153200000Y-86175000D03*
X152400000Y-86175000D03*
X151600000Y-86175000D03*
X150800000Y-86175000D03*
%TD*%
%TO.C,U1*%
X150800000Y-112025000D03*
X151600000Y-112025000D03*
X152400000Y-112025000D03*
X153200000Y-112025000D03*
X153200000Y-109175000D03*
X152400000Y-109175000D03*
X151600000Y-109175000D03*
X150800000Y-109175000D03*
%TD*%
D10*
%TO.C,J5*%
X136500000Y-77500000D03*
%TD*%
D11*
%TO.C,J4*%
X144000000Y-103500000D03*
%TD*%
D22*
%TO.C,U2*%
X148850000Y-137295000D03*
X148850000Y-138565000D03*
X148850000Y-139835000D03*
X148850000Y-141105000D03*
X154150000Y-141105000D03*
X154150000Y-139835000D03*
X154150000Y-138565000D03*
X154150000Y-137295000D03*
%TD*%
D15*
%TO.C,C2*%
X146850000Y-118800000D03*
X145300000Y-118800000D03*
%TD*%
D10*
%TO.C,J5*%
X199500000Y-123500000D03*
%TD*%
D15*
%TO.C,C3*%
X151775000Y-74000000D03*
X150225000Y-74000000D03*
%TD*%
D14*
%TO.C,R3*%
X187250000Y-92600000D03*
X188900000Y-92600000D03*
%TD*%
D17*
%TO.C,J2*%
X156600000Y-63350000D03*
X156600000Y-64850000D03*
D18*
X158700000Y-61300000D03*
X158700000Y-66900000D03*
%TD*%
D22*
%TO.C,U2*%
X169850000Y-137295000D03*
X169850000Y-138565000D03*
X169850000Y-139835000D03*
X169850000Y-141105000D03*
X175150000Y-141105000D03*
X175150000Y-139835000D03*
X175150000Y-138565000D03*
X175150000Y-137295000D03*
%TD*%
D21*
%TO.C,D1*%
X148575000Y-112700000D03*
X147000000Y-112700000D03*
%TD*%
D11*
%TO.C,J3*%
X158000000Y-126500000D03*
%TD*%
D20*
%TO.C,U1*%
X129800000Y-135025000D03*
X130600000Y-135025000D03*
X131400000Y-135025000D03*
X132200000Y-135025000D03*
X132200000Y-132175000D03*
X131400000Y-132175000D03*
X130600000Y-132175000D03*
X129800000Y-132175000D03*
%TD*%
D11*
%TO.C,J4*%
X144000000Y-126500000D03*
%TD*%
D10*
%TO.C,J5*%
X199500000Y-77500000D03*
%TD*%
D14*
%TO.C,R3*%
X187250000Y-115600000D03*
X188900000Y-115600000D03*
%TD*%
D10*
%TO.C,J5*%
X199500000Y-100500000D03*
%TD*%
D14*
%TO.C,R4*%
X166250000Y-140200000D03*
X167900000Y-140200000D03*
%TD*%
D20*
%TO.C,U1*%
X192800000Y-135025000D03*
X193600000Y-135025000D03*
X194400000Y-135025000D03*
X195200000Y-135025000D03*
X195200000Y-132175000D03*
X194400000Y-132175000D03*
X193600000Y-132175000D03*
X192800000Y-132175000D03*
%TD*%
D19*
%TO.C,R1*%
X128000000Y-87850000D03*
X128000000Y-86200000D03*
%TD*%
D12*
%TO.C,J1*%
X166400000Y-87850000D03*
X166400000Y-86350000D03*
D13*
X164300000Y-89900000D03*
X164300000Y-84300000D03*
%TD*%
D15*
%TO.C,C3*%
X172775000Y-143000000D03*
X171225000Y-143000000D03*
%TD*%
D12*
%TO.C,J1*%
X124400000Y-110850000D03*
X124400000Y-109350000D03*
D13*
X122300000Y-112900000D03*
X122300000Y-107300000D03*
%TD*%
D15*
%TO.C,C3*%
X151775000Y-97000000D03*
X150225000Y-97000000D03*
%TD*%
D20*
%TO.C,U1*%
X171800000Y-89025000D03*
X172600000Y-89025000D03*
X173400000Y-89025000D03*
X174200000Y-89025000D03*
X174200000Y-86175000D03*
X173400000Y-86175000D03*
X172600000Y-86175000D03*
X171800000Y-86175000D03*
%TD*%
D21*
%TO.C,D1*%
X127575000Y-135700000D03*
X126000000Y-135700000D03*
%TD*%
D20*
%TO.C,U1*%
X192800000Y-66025000D03*
X193600000Y-66025000D03*
X194400000Y-66025000D03*
X195200000Y-66025000D03*
X195200000Y-63175000D03*
X194400000Y-63175000D03*
X193600000Y-63175000D03*
X192800000Y-63175000D03*
%TD*%
D17*
%TO.C,J2*%
X198600000Y-86350000D03*
X198600000Y-87850000D03*
D18*
X200700000Y-84300000D03*
X200700000Y-89900000D03*
%TD*%
D15*
%TO.C,C3*%
X151775000Y-120000000D03*
X150225000Y-120000000D03*
%TD*%
D17*
%TO.C,J2*%
X177600000Y-132350000D03*
X177600000Y-133850000D03*
D18*
X179700000Y-130300000D03*
X179700000Y-135900000D03*
%TD*%
D19*
%TO.C,R1*%
X191000000Y-87850000D03*
X191000000Y-86200000D03*
%TD*%
D22*
%TO.C,U2*%
X169850000Y-91295000D03*
X169850000Y-92565000D03*
X169850000Y-93835000D03*
X169850000Y-95105000D03*
X175150000Y-95105000D03*
X175150000Y-93835000D03*
X175150000Y-92565000D03*
X175150000Y-91295000D03*
%TD*%
D14*
%TO.C,R3*%
X187250000Y-69600000D03*
X188900000Y-69600000D03*
%TD*%
D12*
%TO.C,J1*%
X187400000Y-110850000D03*
X187400000Y-109350000D03*
D13*
X185300000Y-112900000D03*
X185300000Y-107300000D03*
%TD*%
D15*
%TO.C,C2*%
X146850000Y-72800000D03*
X145300000Y-72800000D03*
%TD*%
%TO.C,C3*%
X172775000Y-97000000D03*
X171225000Y-97000000D03*
%TD*%
D19*
%TO.C,R1*%
X149000000Y-87850000D03*
X149000000Y-86200000D03*
%TD*%
D20*
%TO.C,U1*%
X129800000Y-89025000D03*
X130600000Y-89025000D03*
X131400000Y-89025000D03*
X132200000Y-89025000D03*
X132200000Y-86175000D03*
X131400000Y-86175000D03*
X130600000Y-86175000D03*
X129800000Y-86175000D03*
%TD*%
D15*
%TO.C,C2*%
X167850000Y-95800000D03*
X166300000Y-95800000D03*
%TD*%
D14*
%TO.C,R4*%
X145250000Y-140200000D03*
X146900000Y-140200000D03*
%TD*%
D20*
%TO.C,U1*%
X192800000Y-89025000D03*
X193600000Y-89025000D03*
X194400000Y-89025000D03*
X195200000Y-89025000D03*
X195200000Y-86175000D03*
X194400000Y-86175000D03*
X193600000Y-86175000D03*
X192800000Y-86175000D03*
%TD*%
D17*
%TO.C,J2*%
X198600000Y-63350000D03*
X198600000Y-64850000D03*
D18*
X200700000Y-61300000D03*
X200700000Y-66900000D03*
%TD*%
D11*
%TO.C,J3*%
X179000000Y-80500000D03*
%TD*%
D19*
%TO.C,R1*%
X191000000Y-133850000D03*
X191000000Y-132200000D03*
%TD*%
D11*
%TO.C,J3*%
X158000000Y-80500000D03*
%TD*%
D14*
%TO.C,R4*%
X187250000Y-94200000D03*
X188900000Y-94200000D03*
%TD*%
D16*
%TO.C,C1*%
X129800000Y-61600000D03*
X131350000Y-61600000D03*
%TD*%
D21*
%TO.C,D1*%
X148575000Y-135700000D03*
X147000000Y-135700000D03*
%TD*%
D11*
%TO.C,J3*%
X137000000Y-103500000D03*
%TD*%
D16*
%TO.C,C1*%
X150800000Y-84600000D03*
X152350000Y-84600000D03*
%TD*%
D22*
%TO.C,U2*%
X190850000Y-91295000D03*
X190850000Y-92565000D03*
X190850000Y-93835000D03*
X190850000Y-95105000D03*
X196150000Y-95105000D03*
X196150000Y-93835000D03*
X196150000Y-92565000D03*
X196150000Y-91295000D03*
%TD*%
D14*
%TO.C,R3*%
X166250000Y-92600000D03*
X167900000Y-92600000D03*
%TD*%
%TO.C,R3*%
X166250000Y-69600000D03*
X167900000Y-69600000D03*
%TD*%
D21*
%TO.C,D1*%
X169575000Y-135700000D03*
X168000000Y-135700000D03*
%TD*%
D17*
%TO.C,J2*%
X156600000Y-132350000D03*
X156600000Y-133850000D03*
D18*
X158700000Y-130300000D03*
X158700000Y-135900000D03*
%TD*%
D22*
%TO.C,U2*%
X127850000Y-114295000D03*
X127850000Y-115565000D03*
X127850000Y-116835000D03*
X127850000Y-118105000D03*
X133150000Y-118105000D03*
X133150000Y-116835000D03*
X133150000Y-115565000D03*
X133150000Y-114295000D03*
%TD*%
D15*
%TO.C,C3*%
X193775000Y-74000000D03*
X192225000Y-74000000D03*
%TD*%
%TO.C,C3*%
X130775000Y-97000000D03*
X129225000Y-97000000D03*
%TD*%
D22*
%TO.C,U2*%
X190850000Y-114295000D03*
X190850000Y-115565000D03*
X190850000Y-116835000D03*
X190850000Y-118105000D03*
X196150000Y-118105000D03*
X196150000Y-116835000D03*
X196150000Y-115565000D03*
X196150000Y-114295000D03*
%TD*%
D11*
%TO.C,J3*%
X158000000Y-149500000D03*
%TD*%
%TO.C,J3*%
X158000000Y-103500000D03*
%TD*%
D14*
%TO.C,R4*%
X124250000Y-94200000D03*
X125900000Y-94200000D03*
%TD*%
D10*
%TO.C,J6*%
X144500000Y-100500000D03*
%TD*%
D21*
%TO.C,D1*%
X127575000Y-112700000D03*
X126000000Y-112700000D03*
%TD*%
D16*
%TO.C,C1*%
X171800000Y-130600000D03*
X173350000Y-130600000D03*
%TD*%
D12*
%TO.C,J1*%
X124400000Y-64850000D03*
X124400000Y-63350000D03*
D13*
X122300000Y-66900000D03*
X122300000Y-61300000D03*
%TD*%
D15*
%TO.C,C3*%
X193775000Y-143000000D03*
X192225000Y-143000000D03*
%TD*%
D16*
%TO.C,C1*%
X192800000Y-107600000D03*
X194350000Y-107600000D03*
%TD*%
D21*
%TO.C,D1*%
X169575000Y-112700000D03*
X168000000Y-112700000D03*
%TD*%
D11*
%TO.C,J3*%
X200000000Y-126500000D03*
%TD*%
%TO.C,J3*%
X137000000Y-80500000D03*
%TD*%
D14*
%TO.C,R4*%
X187250000Y-117200000D03*
X188900000Y-117200000D03*
%TD*%
D11*
%TO.C,J4*%
X186000000Y-149500000D03*
%TD*%
D12*
%TO.C,J1*%
X145400000Y-64850000D03*
X145400000Y-63350000D03*
D13*
X143300000Y-66900000D03*
X143300000Y-61300000D03*
%TD*%
D10*
%TO.C,J5*%
X157500000Y-77500000D03*
%TD*%
D21*
%TO.C,D1*%
X190575000Y-112700000D03*
X189000000Y-112700000D03*
%TD*%
D10*
%TO.C,J6*%
X144500000Y-146500000D03*
%TD*%
D19*
%TO.C,R1*%
X149000000Y-133850000D03*
X149000000Y-132200000D03*
%TD*%
D22*
%TO.C,U2*%
X169850000Y-114295000D03*
X169850000Y-115565000D03*
X169850000Y-116835000D03*
X169850000Y-118105000D03*
X175150000Y-118105000D03*
X175150000Y-116835000D03*
X175150000Y-115565000D03*
X175150000Y-114295000D03*
%TD*%
D11*
%TO.C,J3*%
X200000000Y-103500000D03*
%TD*%
G36*
X140943039Y-150769685D02*
G01*
X140988794Y-150822489D01*
X141000000Y-150874000D01*
X141000000Y-151000000D01*
X146402747Y-151000000D01*
X146469786Y-151019685D01*
X146515541Y-151072489D01*
X146517308Y-151076547D01*
X146532075Y-151112198D01*
X146532077Y-151112201D01*
X146587796Y-151167921D01*
X146660599Y-151198078D01*
X146700009Y-151200000D01*
X155299985Y-151200000D01*
X155299989Y-151199999D01*
X155339402Y-151198077D01*
X155412196Y-151167925D01*
X155412201Y-151167922D01*
X155467921Y-151112203D01*
X155482691Y-151076547D01*
X155526532Y-151022144D01*
X155592827Y-151000079D01*
X155597252Y-151000000D01*
X161000000Y-151000000D01*
X161000000Y-150874000D01*
X161019685Y-150806961D01*
X161072489Y-150761206D01*
X161124000Y-150750000D01*
X161876000Y-150750000D01*
X161943039Y-150769685D01*
X161988794Y-150822489D01*
X162000000Y-150874000D01*
X162000000Y-151000000D01*
X167402748Y-151000000D01*
X167469787Y-151019685D01*
X167515542Y-151072489D01*
X167517309Y-151076547D01*
X167532078Y-151112203D01*
X167587798Y-151167922D01*
X167587803Y-151167925D01*
X167660598Y-151198077D01*
X167660596Y-151198077D01*
X167700010Y-151199999D01*
X167700015Y-151200000D01*
X176299985Y-151200000D01*
X176299992Y-151199999D01*
X176339401Y-151198077D01*
X176412202Y-151167922D01*
X176467922Y-151112201D01*
X176467924Y-151112198D01*
X176482692Y-151076547D01*
X176526533Y-151022144D01*
X176592827Y-151000079D01*
X176597253Y-151000000D01*
X182000000Y-151000000D01*
X182000000Y-150874000D01*
X182019685Y-150806961D01*
X182072489Y-150761206D01*
X182124000Y-150750000D01*
X182876000Y-150750000D01*
X182943039Y-150769685D01*
X182988794Y-150822489D01*
X183000000Y-150874000D01*
X183000000Y-151000000D01*
X188402747Y-151000000D01*
X188469786Y-151019685D01*
X188515541Y-151072489D01*
X188517308Y-151076547D01*
X188532075Y-151112198D01*
X188532077Y-151112201D01*
X188587796Y-151167921D01*
X188660599Y-151198078D01*
X188700009Y-151200000D01*
X197299985Y-151200000D01*
X197299989Y-151199999D01*
X197339402Y-151198077D01*
X197412196Y-151167925D01*
X197412201Y-151167922D01*
X197467921Y-151112203D01*
X197482691Y-151076547D01*
X197526532Y-151022144D01*
X197592827Y-151000079D01*
X197597252Y-151000000D01*
X202876000Y-151000000D01*
X202943039Y-151019685D01*
X202988794Y-151072489D01*
X203000000Y-151124000D01*
X203000000Y-151876000D01*
X202980315Y-151943039D01*
X202927511Y-151988794D01*
X202876000Y-152000000D01*
X120124000Y-152000000D01*
X120056961Y-151980315D01*
X120011206Y-151927511D01*
X120000000Y-151876000D01*
X120000000Y-151124000D01*
X120019685Y-151056961D01*
X120072489Y-151011206D01*
X120124000Y-151000000D01*
X125402747Y-151000000D01*
X125469786Y-151019685D01*
X125515541Y-151072489D01*
X125517308Y-151076547D01*
X125532075Y-151112198D01*
X125532077Y-151112201D01*
X125587796Y-151167921D01*
X125660599Y-151198078D01*
X125700009Y-151200000D01*
X134299987Y-151200000D01*
X134299991Y-151199999D01*
X134339401Y-151198077D01*
X134412202Y-151167922D01*
X134467923Y-151112200D01*
X134482691Y-151076548D01*
X134526531Y-151022144D01*
X134592825Y-151000079D01*
X134597252Y-151000000D01*
X140000000Y-151000000D01*
X140000000Y-150874000D01*
X140019685Y-150806961D01*
X140072489Y-150761206D01*
X140124000Y-150750000D01*
X140876000Y-150750000D01*
X140943039Y-150769685D01*
G37*
G36*
X140943039Y-60019685D02*
G01*
X140988794Y-60072489D01*
X141000000Y-60124000D01*
X141000000Y-82000000D01*
X141126000Y-82000000D01*
X141193039Y-82019685D01*
X141238794Y-82072489D01*
X141250000Y-82124000D01*
X141250000Y-82876000D01*
X141230315Y-82943039D01*
X141177511Y-82988794D01*
X141126000Y-83000000D01*
X141000000Y-83000000D01*
X141000000Y-105000000D01*
X141126000Y-105000000D01*
X141193039Y-105019685D01*
X141238794Y-105072489D01*
X141250000Y-105124000D01*
X141250000Y-105876000D01*
X141230315Y-105943039D01*
X141177511Y-105988794D01*
X141126000Y-106000000D01*
X141000000Y-106000000D01*
X141000000Y-128000000D01*
X141126000Y-128000000D01*
X141193039Y-128019685D01*
X141238794Y-128072489D01*
X141250000Y-128124000D01*
X141250000Y-128876000D01*
X141230315Y-128943039D01*
X141177511Y-128988794D01*
X141126000Y-129000000D01*
X141000000Y-129000000D01*
X141000000Y-151000000D01*
X141000896Y-151000896D01*
X141064883Y-151019685D01*
X141110638Y-151072489D01*
X141120582Y-151141647D01*
X141091557Y-151205203D01*
X141032779Y-151242977D01*
X141022034Y-151245618D01*
X141011979Y-151247618D01*
X140987789Y-151250000D01*
X140012211Y-151250000D01*
X139988021Y-151247618D01*
X139977966Y-151245618D01*
X139916054Y-151213233D01*
X139881480Y-151152517D01*
X139885219Y-151082748D01*
X139926085Y-151026076D01*
X139991103Y-151000494D01*
X139999899Y-151000100D01*
X140000000Y-151000000D01*
X140000000Y-129000000D01*
X139874000Y-129000000D01*
X139806961Y-128980315D01*
X139761206Y-128927511D01*
X139750000Y-128876000D01*
X139750000Y-128124000D01*
X139769685Y-128056961D01*
X139822489Y-128011206D01*
X139874000Y-128000000D01*
X140000000Y-128000000D01*
X140000000Y-106000000D01*
X139874000Y-106000000D01*
X139806961Y-105980315D01*
X139761206Y-105927511D01*
X139750000Y-105876000D01*
X139750000Y-105124000D01*
X139769685Y-105056961D01*
X139822489Y-105011206D01*
X139874000Y-105000000D01*
X140000000Y-105000000D01*
X140000000Y-83000000D01*
X139874000Y-83000000D01*
X139806961Y-82980315D01*
X139761206Y-82927511D01*
X139750000Y-82876000D01*
X139750000Y-82124000D01*
X139769685Y-82056961D01*
X139822489Y-82011206D01*
X139874000Y-82000000D01*
X140000000Y-82000000D01*
X140000000Y-60124000D01*
X140019685Y-60056961D01*
X140072489Y-60011206D01*
X140124000Y-60000000D01*
X140876000Y-60000000D01*
X140943039Y-60019685D01*
G37*
G36*
X140943039Y-81769685D02*
G01*
X140988794Y-81822489D01*
X141000000Y-81874000D01*
X141000000Y-82000000D01*
X146402747Y-82000000D01*
X146469786Y-82019685D01*
X146515541Y-82072489D01*
X146517308Y-82076547D01*
X146532075Y-82112198D01*
X146532077Y-82112201D01*
X146587796Y-82167921D01*
X146660599Y-82198078D01*
X146700009Y-82200000D01*
X155299985Y-82200000D01*
X155299989Y-82199999D01*
X155339402Y-82198077D01*
X155412196Y-82167925D01*
X155412201Y-82167922D01*
X155467921Y-82112203D01*
X155482691Y-82076547D01*
X155526532Y-82022144D01*
X155592827Y-82000079D01*
X155597252Y-82000000D01*
X161000000Y-82000000D01*
X161000000Y-81874000D01*
X161019685Y-81806961D01*
X161072489Y-81761206D01*
X161124000Y-81750000D01*
X161876000Y-81750000D01*
X161943039Y-81769685D01*
X161988794Y-81822489D01*
X162000000Y-81874000D01*
X162000000Y-82000000D01*
X167402747Y-82000000D01*
X167469786Y-82019685D01*
X167515541Y-82072489D01*
X167517308Y-82076547D01*
X167532075Y-82112198D01*
X167532077Y-82112201D01*
X167587796Y-82167921D01*
X167660599Y-82198078D01*
X167700009Y-82200000D01*
X176299985Y-82200000D01*
X176299989Y-82199999D01*
X176339402Y-82198077D01*
X176412196Y-82167925D01*
X176412201Y-82167922D01*
X176467921Y-82112203D01*
X176482691Y-82076547D01*
X176526532Y-82022144D01*
X176592827Y-82000079D01*
X176597252Y-82000000D01*
X182000000Y-82000000D01*
X182000000Y-81874000D01*
X182019685Y-81806961D01*
X182072489Y-81761206D01*
X182124000Y-81750000D01*
X182876000Y-81750000D01*
X182943039Y-81769685D01*
X182988794Y-81822489D01*
X183000000Y-81874000D01*
X183000000Y-82000000D01*
X188402747Y-82000000D01*
X188469786Y-82019685D01*
X188515541Y-82072489D01*
X188517308Y-82076547D01*
X188532075Y-82112198D01*
X188532077Y-82112201D01*
X188587796Y-82167921D01*
X188660599Y-82198078D01*
X188700009Y-82200000D01*
X197299987Y-82200000D01*
X197299991Y-82199999D01*
X197339401Y-82198077D01*
X197412202Y-82167922D01*
X197467923Y-82112200D01*
X197482691Y-82076548D01*
X197526531Y-82022144D01*
X197592825Y-82000079D01*
X197597252Y-82000000D01*
X202876000Y-82000000D01*
X202943039Y-82019685D01*
X202988794Y-82072489D01*
X203000000Y-82124000D01*
X203000000Y-82876000D01*
X202980315Y-82943039D01*
X202927511Y-82988794D01*
X202876000Y-83000000D01*
X183000000Y-83000000D01*
X183000000Y-83126000D01*
X182980315Y-83193039D01*
X182927511Y-83238794D01*
X182876000Y-83250000D01*
X182124000Y-83250000D01*
X182056961Y-83230315D01*
X182011206Y-83177511D01*
X182000000Y-83126000D01*
X182000000Y-83000000D01*
X162000000Y-83000000D01*
X162000000Y-83126000D01*
X161980315Y-83193039D01*
X161927511Y-83238794D01*
X161876000Y-83250000D01*
X161124000Y-83250000D01*
X161056961Y-83230315D01*
X161011206Y-83177511D01*
X161000000Y-83126000D01*
X161000000Y-83000000D01*
X141000000Y-83000000D01*
X141000000Y-83126000D01*
X140980315Y-83193039D01*
X140927511Y-83238794D01*
X140876000Y-83250000D01*
X140124000Y-83250000D01*
X140056961Y-83230315D01*
X140011206Y-83177511D01*
X140000000Y-83126000D01*
X140000000Y-83000000D01*
X120124000Y-83000000D01*
X120056961Y-82980315D01*
X120011206Y-82927511D01*
X120000000Y-82876000D01*
X120000000Y-82124000D01*
X120019685Y-82056961D01*
X120072489Y-82011206D01*
X120124000Y-82000000D01*
X125402748Y-82000000D01*
X125469787Y-82019685D01*
X125515542Y-82072489D01*
X125517309Y-82076547D01*
X125532078Y-82112203D01*
X125587798Y-82167922D01*
X125587803Y-82167925D01*
X125660598Y-82198077D01*
X125660596Y-82198077D01*
X125700010Y-82199999D01*
X125700015Y-82200000D01*
X134299985Y-82200000D01*
X134299992Y-82199999D01*
X134339401Y-82198077D01*
X134412202Y-82167922D01*
X134467922Y-82112201D01*
X134467924Y-82112198D01*
X134482692Y-82076547D01*
X134526533Y-82022144D01*
X134592827Y-82000079D01*
X134597253Y-82000000D01*
X140000000Y-82000000D01*
X140000000Y-81874000D01*
X140019685Y-81806961D01*
X140072489Y-81761206D01*
X140124000Y-81750000D01*
X140876000Y-81750000D01*
X140943039Y-81769685D01*
G37*
G36*
X182943039Y-60019685D02*
G01*
X182988794Y-60072489D01*
X183000000Y-60124000D01*
X183000000Y-82000000D01*
X183126000Y-82000000D01*
X183193039Y-82019685D01*
X183238794Y-82072489D01*
X183250000Y-82124000D01*
X183250000Y-82876000D01*
X183230315Y-82943039D01*
X183177511Y-82988794D01*
X183126000Y-83000000D01*
X183000000Y-83000000D01*
X183000000Y-105000000D01*
X183126000Y-105000000D01*
X183193039Y-105019685D01*
X183238794Y-105072489D01*
X183250000Y-105124000D01*
X183250000Y-105876000D01*
X183230315Y-105943039D01*
X183177511Y-105988794D01*
X183126000Y-106000000D01*
X183000000Y-106000000D01*
X183000000Y-128000000D01*
X183126000Y-128000000D01*
X183193039Y-128019685D01*
X183238794Y-128072489D01*
X183250000Y-128124000D01*
X183250000Y-128876000D01*
X183230315Y-128943039D01*
X183177511Y-128988794D01*
X183126000Y-129000000D01*
X183000000Y-129000000D01*
X183000000Y-151000000D01*
X183000896Y-151000896D01*
X183064883Y-151019685D01*
X183110638Y-151072489D01*
X183120582Y-151141647D01*
X183091557Y-151205203D01*
X183032779Y-151242977D01*
X183022034Y-151245618D01*
X183011979Y-151247618D01*
X182987789Y-151250000D01*
X182012211Y-151250000D01*
X181988021Y-151247618D01*
X181977966Y-151245618D01*
X181916054Y-151213233D01*
X181881480Y-151152517D01*
X181885219Y-151082748D01*
X181926085Y-151026076D01*
X181991103Y-151000494D01*
X181999899Y-151000100D01*
X182000000Y-151000000D01*
X182000000Y-129000000D01*
X181874000Y-129000000D01*
X181806961Y-128980315D01*
X181761206Y-128927511D01*
X181750000Y-128876000D01*
X181750000Y-128124000D01*
X181769685Y-128056961D01*
X181822489Y-128011206D01*
X181874000Y-128000000D01*
X182000000Y-128000000D01*
X182000000Y-106000000D01*
X181874000Y-106000000D01*
X181806961Y-105980315D01*
X181761206Y-105927511D01*
X181750000Y-105876000D01*
X181750000Y-105124000D01*
X181769685Y-105056961D01*
X181822489Y-105011206D01*
X181874000Y-105000000D01*
X182000000Y-105000000D01*
X182000000Y-83000000D01*
X181874000Y-83000000D01*
X181806961Y-82980315D01*
X181761206Y-82927511D01*
X181750000Y-82876000D01*
X181750000Y-82124000D01*
X181769685Y-82056961D01*
X181822489Y-82011206D01*
X181874000Y-82000000D01*
X182000000Y-82000000D01*
X182000000Y-60124000D01*
X182019685Y-60056961D01*
X182072489Y-60011206D01*
X182124000Y-60000000D01*
X182876000Y-60000000D01*
X182943039Y-60019685D01*
G37*
G36*
X161943039Y-60019685D02*
G01*
X161988794Y-60072489D01*
X162000000Y-60124000D01*
X162000000Y-82000000D01*
X162126000Y-82000000D01*
X162193039Y-82019685D01*
X162238794Y-82072489D01*
X162250000Y-82124000D01*
X162250000Y-82876000D01*
X162230315Y-82943039D01*
X162177511Y-82988794D01*
X162126000Y-83000000D01*
X162000000Y-83000000D01*
X162000000Y-105000000D01*
X162126000Y-105000000D01*
X162193039Y-105019685D01*
X162238794Y-105072489D01*
X162250000Y-105124000D01*
X162250000Y-105876000D01*
X162230315Y-105943039D01*
X162177511Y-105988794D01*
X162126000Y-106000000D01*
X162000000Y-106000000D01*
X162000000Y-128000000D01*
X162126000Y-128000000D01*
X162193039Y-128019685D01*
X162238794Y-128072489D01*
X162250000Y-128124000D01*
X162250000Y-128876000D01*
X162230315Y-128943039D01*
X162177511Y-128988794D01*
X162126000Y-129000000D01*
X162000000Y-129000000D01*
X162000000Y-151000000D01*
X162000896Y-151000896D01*
X162064883Y-151019685D01*
X162110638Y-151072489D01*
X162120582Y-151141647D01*
X162091557Y-151205203D01*
X162032779Y-151242977D01*
X162022034Y-151245618D01*
X162011979Y-151247618D01*
X161987789Y-151250000D01*
X161012211Y-151250000D01*
X160988021Y-151247618D01*
X160977966Y-151245618D01*
X160916054Y-151213233D01*
X160881480Y-151152517D01*
X160885219Y-151082748D01*
X160926085Y-151026076D01*
X160991103Y-151000494D01*
X160999899Y-151000100D01*
X161000000Y-151000000D01*
X161000000Y-129000000D01*
X160874000Y-129000000D01*
X160806961Y-128980315D01*
X160761206Y-128927511D01*
X160750000Y-128876000D01*
X160750000Y-128124000D01*
X160769685Y-128056961D01*
X160822489Y-128011206D01*
X160874000Y-128000000D01*
X161000000Y-128000000D01*
X161000000Y-106000000D01*
X160874000Y-106000000D01*
X160806961Y-105980315D01*
X160761206Y-105927511D01*
X160750000Y-105876000D01*
X160750000Y-105124000D01*
X160769685Y-105056961D01*
X160822489Y-105011206D01*
X160874000Y-105000000D01*
X161000000Y-105000000D01*
X161000000Y-83000000D01*
X160874000Y-83000000D01*
X160806961Y-82980315D01*
X160761206Y-82927511D01*
X160750000Y-82876000D01*
X160750000Y-82124000D01*
X160769685Y-82056961D01*
X160822489Y-82011206D01*
X160874000Y-82000000D01*
X161000000Y-82000000D01*
X161000000Y-60124000D01*
X161019685Y-60056961D01*
X161072489Y-60011206D01*
X161124000Y-60000000D01*
X161876000Y-60000000D01*
X161943039Y-60019685D01*
G37*
G36*
X140943039Y-104769685D02*
G01*
X140988794Y-104822489D01*
X141000000Y-104874000D01*
X141000000Y-105000000D01*
X146402747Y-105000000D01*
X146469786Y-105019685D01*
X146515541Y-105072489D01*
X146517308Y-105076547D01*
X146532075Y-105112198D01*
X146532077Y-105112201D01*
X146587796Y-105167921D01*
X146660599Y-105198078D01*
X146700009Y-105200000D01*
X155299985Y-105200000D01*
X155299989Y-105199999D01*
X155339402Y-105198077D01*
X155412196Y-105167925D01*
X155412201Y-105167922D01*
X155467921Y-105112203D01*
X155482691Y-105076547D01*
X155526532Y-105022144D01*
X155592827Y-105000079D01*
X155597252Y-105000000D01*
X161000000Y-105000000D01*
X161000000Y-104874000D01*
X161019685Y-104806961D01*
X161072489Y-104761206D01*
X161124000Y-104750000D01*
X161876000Y-104750000D01*
X161943039Y-104769685D01*
X161988794Y-104822489D01*
X162000000Y-104874000D01*
X162000000Y-105000000D01*
X167402747Y-105000000D01*
X167469786Y-105019685D01*
X167515541Y-105072489D01*
X167517308Y-105076547D01*
X167532075Y-105112198D01*
X167532077Y-105112201D01*
X167587796Y-105167921D01*
X167660599Y-105198078D01*
X167700009Y-105200000D01*
X176299985Y-105200000D01*
X176299989Y-105199999D01*
X176339402Y-105198077D01*
X176412196Y-105167925D01*
X176412201Y-105167922D01*
X176467921Y-105112203D01*
X176482691Y-105076547D01*
X176526532Y-105022144D01*
X176592827Y-105000079D01*
X176597252Y-105000000D01*
X182000000Y-105000000D01*
X182000000Y-104874000D01*
X182019685Y-104806961D01*
X182072489Y-104761206D01*
X182124000Y-104750000D01*
X182876000Y-104750000D01*
X182943039Y-104769685D01*
X182988794Y-104822489D01*
X183000000Y-104874000D01*
X183000000Y-105000000D01*
X188402748Y-105000000D01*
X188469787Y-105019685D01*
X188515542Y-105072489D01*
X188517309Y-105076547D01*
X188532078Y-105112203D01*
X188587798Y-105167922D01*
X188587803Y-105167925D01*
X188660598Y-105198077D01*
X188660596Y-105198077D01*
X188700010Y-105199999D01*
X188700015Y-105200000D01*
X197299985Y-105200000D01*
X197299992Y-105199999D01*
X197339401Y-105198077D01*
X197412202Y-105167922D01*
X197467922Y-105112201D01*
X197467924Y-105112198D01*
X197482692Y-105076547D01*
X197526533Y-105022144D01*
X197592827Y-105000079D01*
X197597253Y-105000000D01*
X202876000Y-105000000D01*
X202943039Y-105019685D01*
X202988794Y-105072489D01*
X203000000Y-105124000D01*
X203000000Y-105876000D01*
X202980315Y-105943039D01*
X202927511Y-105988794D01*
X202876000Y-106000000D01*
X183000000Y-106000000D01*
X183000000Y-106126000D01*
X182980315Y-106193039D01*
X182927511Y-106238794D01*
X182876000Y-106250000D01*
X182124000Y-106250000D01*
X182056961Y-106230315D01*
X182011206Y-106177511D01*
X182000000Y-106126000D01*
X182000000Y-106000000D01*
X162000000Y-106000000D01*
X162000000Y-106126000D01*
X161980315Y-106193039D01*
X161927511Y-106238794D01*
X161876000Y-106250000D01*
X161124000Y-106250000D01*
X161056961Y-106230315D01*
X161011206Y-106177511D01*
X161000000Y-106126000D01*
X161000000Y-106000000D01*
X141000000Y-106000000D01*
X141000000Y-106126000D01*
X140980315Y-106193039D01*
X140927511Y-106238794D01*
X140876000Y-106250000D01*
X140124000Y-106250000D01*
X140056961Y-106230315D01*
X140011206Y-106177511D01*
X140000000Y-106126000D01*
X140000000Y-106000000D01*
X120124000Y-106000000D01*
X120056961Y-105980315D01*
X120011206Y-105927511D01*
X120000000Y-105876000D01*
X120000000Y-105124000D01*
X120019685Y-105056961D01*
X120072489Y-105011206D01*
X120124000Y-105000000D01*
X125402745Y-105000000D01*
X125469784Y-105019685D01*
X125515539Y-105072489D01*
X125517306Y-105076548D01*
X125532072Y-105112197D01*
X125532075Y-105112202D01*
X125587794Y-105167922D01*
X125660597Y-105198079D01*
X125700008Y-105200000D01*
X134299985Y-105200000D01*
X134299989Y-105199999D01*
X134339402Y-105198077D01*
X134412196Y-105167925D01*
X134412201Y-105167922D01*
X134467921Y-105112203D01*
X134482691Y-105076547D01*
X134526532Y-105022144D01*
X134592827Y-105000079D01*
X134597252Y-105000000D01*
X140000000Y-105000000D01*
X140000000Y-104874000D01*
X140019685Y-104806961D01*
X140072489Y-104761206D01*
X140124000Y-104750000D01*
X140876000Y-104750000D01*
X140943039Y-104769685D01*
G37*
G36*
X140943039Y-127769685D02*
G01*
X140988794Y-127822489D01*
X141000000Y-127874000D01*
X141000000Y-128000000D01*
X146402748Y-128000000D01*
X146469787Y-128019685D01*
X146515542Y-128072489D01*
X146517309Y-128076547D01*
X146532078Y-128112203D01*
X146587798Y-128167922D01*
X146587803Y-128167925D01*
X146660598Y-128198077D01*
X146660596Y-128198077D01*
X146700010Y-128199999D01*
X146700015Y-128200000D01*
X155299985Y-128200000D01*
X155299992Y-128199999D01*
X155339401Y-128198077D01*
X155412202Y-128167922D01*
X155467922Y-128112201D01*
X155467924Y-128112198D01*
X155482692Y-128076547D01*
X155526533Y-128022144D01*
X155592827Y-128000079D01*
X155597253Y-128000000D01*
X161000000Y-128000000D01*
X161000000Y-127874000D01*
X161019685Y-127806961D01*
X161072489Y-127761206D01*
X161124000Y-127750000D01*
X161876000Y-127750000D01*
X161943039Y-127769685D01*
X161988794Y-127822489D01*
X162000000Y-127874000D01*
X162000000Y-128000000D01*
X167402745Y-128000000D01*
X167469784Y-128019685D01*
X167515539Y-128072489D01*
X167517306Y-128076548D01*
X167532072Y-128112197D01*
X167532075Y-128112202D01*
X167587794Y-128167922D01*
X167660597Y-128198079D01*
X167700008Y-128200000D01*
X176299985Y-128200000D01*
X176299989Y-128199999D01*
X176339402Y-128198077D01*
X176412196Y-128167925D01*
X176412201Y-128167922D01*
X176467921Y-128112203D01*
X176482691Y-128076547D01*
X176526532Y-128022144D01*
X176592827Y-128000079D01*
X176597252Y-128000000D01*
X182000000Y-128000000D01*
X182000000Y-127874000D01*
X182019685Y-127806961D01*
X182072489Y-127761206D01*
X182124000Y-127750000D01*
X182876000Y-127750000D01*
X182943039Y-127769685D01*
X182988794Y-127822489D01*
X183000000Y-127874000D01*
X183000000Y-128000000D01*
X188402748Y-128000000D01*
X188469787Y-128019685D01*
X188515542Y-128072489D01*
X188517309Y-128076547D01*
X188532078Y-128112203D01*
X188587798Y-128167922D01*
X188587803Y-128167925D01*
X188660598Y-128198077D01*
X188660596Y-128198077D01*
X188700010Y-128199999D01*
X188700015Y-128200000D01*
X197299987Y-128200000D01*
X197299991Y-128199999D01*
X197339401Y-128198077D01*
X197412202Y-128167922D01*
X197467922Y-128112201D01*
X197467924Y-128112198D01*
X197482692Y-128076547D01*
X197526533Y-128022144D01*
X197592827Y-128000079D01*
X197597253Y-128000000D01*
X202876000Y-128000000D01*
X202943039Y-128019685D01*
X202988794Y-128072489D01*
X203000000Y-128124000D01*
X203000000Y-128876000D01*
X202980315Y-128943039D01*
X202927511Y-128988794D01*
X202876000Y-129000000D01*
X183000000Y-129000000D01*
X183000000Y-129126000D01*
X182980315Y-129193039D01*
X182927511Y-129238794D01*
X182876000Y-129250000D01*
X182124000Y-129250000D01*
X182056961Y-129230315D01*
X182011206Y-129177511D01*
X182000000Y-129126000D01*
X182000000Y-129000000D01*
X162000000Y-129000000D01*
X162000000Y-129126000D01*
X161980315Y-129193039D01*
X161927511Y-129238794D01*
X161876000Y-129250000D01*
X161124000Y-129250000D01*
X161056961Y-129230315D01*
X161011206Y-129177511D01*
X161000000Y-129126000D01*
X161000000Y-129000000D01*
X141000000Y-129000000D01*
X141000000Y-129126000D01*
X140980315Y-129193039D01*
X140927511Y-129238794D01*
X140876000Y-129250000D01*
X140124000Y-129250000D01*
X140056961Y-129230315D01*
X140011206Y-129177511D01*
X140000000Y-129126000D01*
X140000000Y-129000000D01*
X120124000Y-129000000D01*
X120056961Y-128980315D01*
X120011206Y-128927511D01*
X120000000Y-128876000D01*
X120000000Y-128124000D01*
X120019685Y-128056961D01*
X120072489Y-128011206D01*
X120124000Y-128000000D01*
X125402747Y-128000000D01*
X125469786Y-128019685D01*
X125515541Y-128072489D01*
X125517308Y-128076547D01*
X125532075Y-128112198D01*
X125532077Y-128112201D01*
X125587796Y-128167921D01*
X125660599Y-128198078D01*
X125700009Y-128200000D01*
X134299985Y-128200000D01*
X134299989Y-128199999D01*
X134339402Y-128198077D01*
X134412196Y-128167925D01*
X134412201Y-128167922D01*
X134467921Y-128112203D01*
X134482691Y-128076547D01*
X134526532Y-128022144D01*
X134592827Y-128000079D01*
X134597252Y-128000000D01*
X140000000Y-128000000D01*
X140000000Y-127874000D01*
X140019685Y-127806961D01*
X140072489Y-127761206D01*
X140124000Y-127750000D01*
X140876000Y-127750000D01*
X140943039Y-127769685D01*
G37*
M02*
