M48
; DRILL file {KiCad 9.0.5} date 2025-10-07T14:06:01+0900
; FORMAT={-:-/ absolute / metric / decimal}
; #@! TF.CreationDate,2025-10-07T14:06:01+09:00
; #@! TF.GenerationSoftware,Kicad,Pcbnew,9.0.5
; #@! TF.FileFunction,Plated,1,2,PTH
FMAT,2
METRIC
; #@! TA.AperFunction,Plated,PTH,ViaDrill
T1C0.300
; #@! TA.AperFunction,Plated,PTH,ComponentDrill
T2C1.500
%
G90
G05
T1
X124.25Y-69.6
X124.25Y-71.2
X124.25Y-92.6
X124.25Y-94.2
X124.25Y-115.6
X124.25Y-117.2
X124.25Y-138.6
X124.25Y-140.2
X124.4Y-63.35
X124.4Y-86.35
X124.4Y-109.35
X124.4Y-132.35
X125.85Y-72.8
X125.85Y-95.8
X125.85Y-118.8
X125.85Y-141.8
X126.0Y-66.7
X126.0Y-89.7
X126.0Y-112.7
X126.0Y-135.7
X127.575Y-66.7
X127.575Y-89.7
X127.575Y-112.7
X127.575Y-135.7
X128.0Y-64.85
X128.0Y-87.85
X128.0Y-110.85
X128.0Y-133.85
X130.775Y-74.0
X130.775Y-97.0
X130.775Y-120.0
X130.775Y-143.0
X131.4Y-66.025
X131.4Y-89.025
X131.4Y-112.025
X131.4Y-135.025
X133.15Y-68.295
X133.15Y-69.565
X133.15Y-70.835
X133.15Y-91.295
X133.15Y-92.565
X133.15Y-93.835
X133.15Y-114.295
X133.15Y-115.565
X133.15Y-116.835
X133.15Y-137.295
X133.15Y-138.565
X133.15Y-139.835
X135.6Y-63.35
X135.6Y-86.35
X135.6Y-109.35
X135.6Y-132.35
X136.5Y-77.5
X136.5Y-100.5
X136.5Y-123.5
X136.5Y-146.5
X145.25Y-69.6
X145.25Y-71.2
X145.25Y-92.6
X145.25Y-94.2
X145.25Y-115.6
X145.25Y-117.2
X145.25Y-138.6
X145.25Y-140.2
X145.4Y-63.35
X145.4Y-86.35
X145.4Y-109.35
X145.4Y-132.35
X146.85Y-72.8
X146.85Y-95.8
X146.85Y-118.8
X146.85Y-141.8
X147.0Y-66.7
X147.0Y-89.7
X147.0Y-112.7
X147.0Y-135.7
X148.575Y-66.7
X148.575Y-89.7
X148.575Y-112.7
X148.575Y-135.7
X149.0Y-64.85
X149.0Y-87.85
X149.0Y-110.85
X149.0Y-133.85
X151.775Y-74.0
X151.775Y-97.0
X151.775Y-120.0
X151.775Y-143.0
X152.4Y-66.025
X152.4Y-89.025
X152.4Y-112.025
X152.4Y-135.025
X154.15Y-68.295
X154.15Y-69.565
X154.15Y-70.835
X154.15Y-91.295
X154.15Y-92.565
X154.15Y-93.835
X154.15Y-114.295
X154.15Y-115.565
X154.15Y-116.835
X154.15Y-137.295
X154.15Y-138.565
X154.15Y-139.835
X156.6Y-63.35
X156.6Y-86.35
X156.6Y-109.35
X156.6Y-132.35
X157.5Y-77.5
X157.5Y-100.5
X157.5Y-123.5
X157.5Y-146.5
X166.25Y-69.6
X166.25Y-71.2
X166.25Y-92.6
X166.25Y-94.2
X166.25Y-115.6
X166.25Y-117.2
X166.25Y-138.6
X166.25Y-140.2
X166.4Y-63.35
X166.4Y-86.35
X166.4Y-109.35
X166.4Y-132.35
X167.85Y-72.8
X167.85Y-95.8
X167.85Y-118.8
X167.85Y-141.8
X168.0Y-66.7
X168.0Y-89.7
X168.0Y-112.7
X168.0Y-135.7
X169.575Y-66.7
X169.575Y-89.7
X169.575Y-112.7
X169.575Y-135.7
X170.0Y-64.85
X170.0Y-87.85
X170.0Y-110.85
X170.0Y-133.85
X172.775Y-74.0
X172.775Y-97.0
X172.775Y-120.0
X172.775Y-143.0
X173.4Y-66.025
X173.4Y-89.025
X173.4Y-112.025
X173.4Y-135.025
X175.15Y-68.295
X175.15Y-69.565
X175.15Y-70.835
X175.15Y-91.295
X175.15Y-92.565
X175.15Y-93.835
X175.15Y-114.295
X175.15Y-115.565
X175.15Y-116.835
X175.15Y-137.295
X175.15Y-138.565
X175.15Y-139.835
X177.6Y-63.35
X177.6Y-86.35
X177.6Y-109.35
X177.6Y-132.35
X178.5Y-77.5
X178.5Y-100.5
X178.5Y-123.5
X178.5Y-146.5
X187.25Y-69.6
X187.25Y-71.2
X187.25Y-92.6
X187.25Y-94.2
X187.25Y-115.6
X187.25Y-117.2
X187.25Y-138.6
X187.25Y-140.2
X187.4Y-63.35
X187.4Y-86.35
X187.4Y-109.35
X187.4Y-132.35
X188.85Y-72.8
X188.85Y-95.8
X188.85Y-118.8
X188.85Y-141.8
X189.0Y-66.7
X189.0Y-89.7
X189.0Y-112.7
X189.0Y-135.7
X190.575Y-66.7
X190.575Y-89.7
X190.575Y-112.7
X190.575Y-135.7
X191.0Y-64.85
X191.0Y-87.85
X191.0Y-110.85
X191.0Y-133.85
X193.775Y-74.0
X193.775Y-97.0
X193.775Y-120.0
X193.775Y-143.0
X194.4Y-66.025
X194.4Y-89.025
X194.4Y-112.025
X194.4Y-135.025
X196.15Y-68.295
X196.15Y-69.565
X196.15Y-70.835
X196.15Y-91.295
X196.15Y-92.565
X196.15Y-93.835
X196.15Y-114.295
X196.15Y-115.565
X196.15Y-116.835
X196.15Y-137.295
X196.15Y-138.565
X196.15Y-139.835
X198.6Y-63.35
X198.6Y-86.35
X198.6Y-109.35
X198.6Y-132.35
X199.5Y-77.5
X199.5Y-100.5
X199.5Y-123.5
X199.5Y-146.5
T2
G00X122.75Y-80.5
M15
G01X123.25Y-80.5
M16
G05
G00X122.75Y-103.5
M15
G01X123.25Y-103.5
M16
G05
G00X122.75Y-126.5
M15
G01X123.25Y-126.5
M16
G05
G00X122.75Y-149.5
M15
G01X123.25Y-149.5
M16
G05
G00X136.75Y-80.5
M15
G01X137.25Y-80.5
M16
G05
G00X136.75Y-103.5
M15
G01X137.25Y-103.5
M16
G05
G00X136.75Y-126.5
M15
G01X137.25Y-126.5
M16
G05
G00X136.75Y-149.5
M15
G01X137.25Y-149.5
M16
G05
G00X143.75Y-80.5
M15
G01X144.25Y-80.5
M16
G05
G00X143.75Y-103.5
M15
G01X144.25Y-103.5
M16
G05
G00X143.75Y-126.5
M15
G01X144.25Y-126.5
M16
G05
G00X143.75Y-149.5
M15
G01X144.25Y-149.5
M16
G05
G00X157.75Y-80.5
M15
G01X158.25Y-80.5
M16
G05
G00X157.75Y-103.5
M15
G01X158.25Y-103.5
M16
G05
G00X157.75Y-126.5
M15
G01X158.25Y-126.5
M16
G05
G00X157.75Y-149.5
M15
G01X158.25Y-149.5
M16
G05
G00X164.75Y-80.5
M15
G01X165.25Y-80.5
M16
G05
G00X164.75Y-103.5
M15
G01X165.25Y-103.5
M16
G05
G00X164.75Y-126.5
M15
G01X165.25Y-126.5
M16
G05
G00X164.75Y-149.5
M15
G01X165.25Y-149.5
M16
G05
G00X178.75Y-80.5
M15
G01X179.25Y-80.5
M16
G05
G00X178.75Y-103.5
M15
G01X179.25Y-103.5
M16
G05
G00X178.75Y-126.5
M15
G01X179.25Y-126.5
M16
G05
G00X178.75Y-149.5
M15
G01X179.25Y-149.5
M16
G05
G00X185.75Y-80.5
M15
G01X186.25Y-80.5
M16
G05
G00X185.75Y-103.5
M15
G01X186.25Y-103.5
M16
G05
G00X185.75Y-126.5
M15
G01X186.25Y-126.5
M16
G05
G00X185.75Y-149.5
M15
G01X186.25Y-149.5
M16
G05
G00X199.75Y-80.5
M15
G01X200.25Y-80.5
M16
G05
G00X199.75Y-103.5
M15
G01X200.25Y-103.5
M16
G05
G00X199.75Y-126.5
M15
G01X200.25Y-126.5
M16
G05
G00X199.75Y-149.5
M15
G01X200.25Y-149.5
M16
G05
M30
