%TF.GenerationSoftware,KiCad,Pcbnew,9.0.5*%
%TF.CreationDate,2025-10-07T14:06:08+09:00*%
%TF.ProjectId,ws2811,77733238-3131-42e6-9b69-6361645f7063,rev?*%
%TF.SameCoordinates,Original*%
%TF.FileFunction,Profile,NP*%
%FSLAX46Y46*%
G04 Gerber Fmt 4.6, Leading zero omitted, Abs format (unit mm)*
G04 Created by KiCad (PCBNEW 9.0.5) date 2025-10-07 14:06:08*
%MOMM*%
%LPD*%
G01*
G04 APERTURE LIST*
%TA.AperFunction,Profile*%
%ADD10C,0.050000*%
%TD*%
G04 APERTURE END LIST*
D10*
X125700000Y-82200000D02*
X134300000Y-82200000D01*
X197300000Y-144000000D02*
G75*
G02*
X197500000Y-144200000I0J-200000D01*
G01*
X188500000Y-144200000D02*
G75*
G02*
X188700000Y-144000000I200000J0D01*
G01*
X197300000Y-121000000D02*
X188700000Y-121000000D01*
X176500001Y-128000001D02*
G75*
G02*
X176300002Y-128200001I-200001J1D01*
G01*
X155500000Y-75200000D02*
X155500000Y-82000000D01*
X176500000Y-75200000D02*
X176500000Y-82000000D01*
X176500000Y-98200000D02*
X176500000Y-105000000D01*
X176300000Y-144000000D02*
X167700000Y-144000000D01*
X134500001Y-151000001D02*
G75*
G02*
X134300002Y-151200001I-200001J1D01*
G01*
X155500000Y-144200000D02*
X155500000Y-151000000D01*
X188500000Y-121200000D02*
G75*
G02*
X188700000Y-121000000I200000J0D01*
G01*
X176300000Y-98000000D02*
X167700000Y-98000000D01*
X188700000Y-128200000D02*
X197300000Y-128200000D01*
X146500000Y-98200000D02*
G75*
G02*
X146700000Y-98000000I200000J0D01*
G01*
X155500000Y-98200000D02*
X155500000Y-105000000D01*
X146700000Y-105200000D02*
X155300000Y-105200000D01*
X167700000Y-151200000D02*
X176300000Y-151200000D01*
X155300000Y-98000000D02*
G75*
G02*
X155500000Y-98200000I0J-200000D01*
G01*
X167699998Y-128200001D02*
G75*
G02*
X167499999Y-128000001I2J200001D01*
G01*
X125699998Y-105200001D02*
G75*
G02*
X125499999Y-105000001I2J200001D01*
G01*
X167699998Y-82200001D02*
G75*
G02*
X167499999Y-82000001I2J200001D01*
G01*
X197500001Y-82000001D02*
G75*
G02*
X197300002Y-82200001I-200001J1D01*
G01*
X155500001Y-82000001D02*
G75*
G02*
X155300002Y-82200001I-200001J1D01*
G01*
X176300000Y-75000000D02*
X167700000Y-75000000D01*
X167500000Y-144200000D02*
X167500000Y-151000000D01*
X197300000Y-144000000D02*
X188700000Y-144000000D01*
X146700000Y-128200000D02*
X155300000Y-128200000D01*
X146500000Y-75200000D02*
X146500000Y-82000000D01*
X146500000Y-98200000D02*
X146500000Y-105000000D01*
X155300000Y-75000000D02*
X146700000Y-75000000D01*
X167500000Y-144200000D02*
G75*
G02*
X167700000Y-144000000I200000J0D01*
G01*
X134300000Y-121000000D02*
G75*
G02*
X134500000Y-121200000I0J-200000D01*
G01*
X134300000Y-75000000D02*
X125700000Y-75000000D01*
X120000000Y-60000000D02*
X203000000Y-60000000D01*
X203000000Y-160000000D01*
X120000000Y-160000000D01*
X120000000Y-60000000D01*
X188699998Y-151200001D02*
G75*
G02*
X188499999Y-151000001I2J200001D01*
G01*
X188699998Y-82200001D02*
G75*
G02*
X188499999Y-82000001I2J200001D01*
G01*
X167699998Y-105200001D02*
G75*
G02*
X167499999Y-105000001I2J200001D01*
G01*
X155500001Y-105000001D02*
G75*
G02*
X155300002Y-105200001I-200001J1D01*
G01*
X134500000Y-75200000D02*
X134500000Y-82000000D01*
X146500000Y-144200000D02*
X146500000Y-151000000D01*
X167700000Y-82200000D02*
X176300000Y-82200000D01*
X197300000Y-75000000D02*
G75*
G02*
X197500000Y-75200000I0J-200000D01*
G01*
X134500000Y-98200000D02*
X134500000Y-105000000D01*
X188700000Y-105200000D02*
X197300000Y-105200000D01*
X197500001Y-151000001D02*
G75*
G02*
X197300002Y-151200001I-200001J1D01*
G01*
X155500001Y-151000001D02*
G75*
G02*
X155300002Y-151200001I-200001J1D01*
G01*
X197500001Y-128000001D02*
G75*
G02*
X197300002Y-128200001I-200001J1D01*
G01*
X134300000Y-144000000D02*
X125700000Y-144000000D01*
X125500000Y-98200000D02*
G75*
G02*
X125700000Y-98000000I200000J0D01*
G01*
X155300000Y-144000000D02*
X146700000Y-144000000D01*
X167500000Y-121200000D02*
X167500000Y-128000000D01*
X197300000Y-98000000D02*
G75*
G02*
X197500000Y-98200000I0J-200000D01*
G01*
X146500000Y-121200000D02*
X146500000Y-128000000D01*
X146500000Y-144200000D02*
G75*
G02*
X146700000Y-144000000I200000J0D01*
G01*
X176300000Y-75000000D02*
G75*
G02*
X176500000Y-75200000I0J-200000D01*
G01*
X176300000Y-98000000D02*
G75*
G02*
X176500000Y-98200000I0J-200000D01*
G01*
X188700000Y-82200000D02*
X197300000Y-82200000D01*
X134300000Y-121000000D02*
X125700000Y-121000000D01*
X134500000Y-121200000D02*
X134500000Y-128000000D01*
X134500001Y-105000001D02*
G75*
G02*
X134300002Y-105200001I-200001J1D01*
G01*
X155500000Y-121200000D02*
X155500000Y-128000000D01*
X125500000Y-121200000D02*
G75*
G02*
X125700000Y-121000000I200000J0D01*
G01*
X125500000Y-121200000D02*
X125500000Y-128000000D01*
X146500000Y-121200000D02*
G75*
G02*
X146700000Y-121000000I200000J0D01*
G01*
X188500000Y-121200000D02*
X188500000Y-128000000D01*
X197300000Y-98000000D02*
X188700000Y-98000000D01*
X146700000Y-151200000D02*
X155300000Y-151200000D01*
X155300000Y-75000000D02*
G75*
G02*
X155500000Y-75200000I0J-200000D01*
G01*
X155300000Y-121000000D02*
X146700000Y-121000000D01*
X134300000Y-98000000D02*
G75*
G02*
X134500000Y-98200000I0J-200000D01*
G01*
X155500001Y-128000001D02*
G75*
G02*
X155300002Y-128200001I-200001J1D01*
G01*
X134300000Y-144000000D02*
G75*
G02*
X134500000Y-144200000I0J-200000D01*
G01*
X155300000Y-98000000D02*
X146700000Y-98000000D01*
X176500000Y-144200000D02*
X176500000Y-151000000D01*
X176500001Y-105000001D02*
G75*
G02*
X176300002Y-105200001I-200001J1D01*
G01*
X125699998Y-128200001D02*
G75*
G02*
X125499999Y-128000001I2J200001D01*
G01*
X125500000Y-75200000D02*
X125500000Y-82000000D01*
X176500001Y-82000001D02*
G75*
G02*
X176300002Y-82200001I-200001J1D01*
G01*
X125500000Y-144200000D02*
X125500000Y-151000000D01*
X188699998Y-128200001D02*
G75*
G02*
X188499999Y-128000001I2J200001D01*
G01*
X134500001Y-128000001D02*
G75*
G02*
X134300002Y-128200001I-200001J1D01*
G01*
X197300000Y-75000000D02*
X188700000Y-75000000D01*
X146700000Y-82200000D02*
X155300000Y-82200000D01*
X167500000Y-98200000D02*
G75*
G02*
X167700000Y-98000000I200000J0D01*
G01*
X125700000Y-105200000D02*
X134300000Y-105200000D01*
X197500000Y-144200000D02*
X197500000Y-151000000D01*
X155300000Y-121000000D02*
G75*
G02*
X155500000Y-121200000I0J-200000D01*
G01*
X134500001Y-82000001D02*
G75*
G02*
X134300002Y-82200001I-200001J1D01*
G01*
X197500001Y-105000001D02*
G75*
G02*
X197300002Y-105200001I-200001J1D01*
G01*
X167500000Y-121200000D02*
G75*
G02*
X167700000Y-121000000I200000J0D01*
G01*
X125500000Y-98200000D02*
X125500000Y-105000000D01*
X167700000Y-128200000D02*
X176300000Y-128200000D01*
X167500000Y-98200000D02*
X167500000Y-105000000D01*
X167699998Y-151200001D02*
G75*
G02*
X167499999Y-151000001I2J200001D01*
G01*
X146699998Y-128200001D02*
G75*
G02*
X146499999Y-128000001I2J200001D01*
G01*
X167500000Y-75200000D02*
G75*
G02*
X167700000Y-75000000I200000J0D01*
G01*
X134300000Y-98000000D02*
X125700000Y-98000000D01*
X125500000Y-75200000D02*
G75*
G02*
X125700000Y-75000000I200000J0D01*
G01*
X197500000Y-121200000D02*
X197500000Y-128000000D01*
X188699998Y-105200001D02*
G75*
G02*
X188499999Y-105000001I2J200001D01*
G01*
X188500000Y-144200000D02*
X188500000Y-151000000D01*
X155300000Y-144000000D02*
G75*
G02*
X155500000Y-144200000I0J-200000D01*
G01*
X146699998Y-151200001D02*
G75*
G02*
X146499999Y-151000001I2J200001D01*
G01*
X134500000Y-144200000D02*
X134500000Y-151000000D01*
X146699998Y-105200001D02*
G75*
G02*
X146499999Y-105000001I2J200001D01*
G01*
X167500000Y-75200000D02*
X167500000Y-82000000D01*
X176300000Y-144000000D02*
G75*
G02*
X176500000Y-144200000I0J-200000D01*
G01*
X146699998Y-82200001D02*
G75*
G02*
X146499999Y-82000001I2J200001D01*
G01*
X188700000Y-151200000D02*
X197300000Y-151200000D01*
X176300000Y-121000000D02*
G75*
G02*
X176500000Y-121200000I0J-200000D01*
G01*
X197300000Y-121000000D02*
G75*
G02*
X197500000Y-121200000I0J-200000D01*
G01*
X125700000Y-151200000D02*
X134300000Y-151200000D01*
X167700000Y-105200000D02*
X176300000Y-105200000D01*
X188500000Y-75200000D02*
X188500000Y-82000000D01*
X188500000Y-98200000D02*
X188500000Y-105000000D01*
X197500000Y-98200000D02*
X197500000Y-105000000D01*
X134300000Y-75000000D02*
G75*
G02*
X134500000Y-75200000I0J-200000D01*
G01*
X125500000Y-144200000D02*
G75*
G02*
X125700000Y-144000000I200000J0D01*
G01*
X197500000Y-75200000D02*
X197500000Y-82000000D01*
X188500000Y-75200000D02*
G75*
G02*
X188700000Y-75000000I200000J0D01*
G01*
X188500000Y-98200000D02*
G75*
G02*
X188700000Y-98000000I200000J0D01*
G01*
X146500000Y-75200000D02*
G75*
G02*
X146700000Y-75000000I200000J0D01*
G01*
X176500000Y-121200000D02*
X176500000Y-128000000D01*
X176300000Y-121000000D02*
X167700000Y-121000000D01*
X176500001Y-151000001D02*
G75*
G02*
X176300002Y-151200001I-200001J1D01*
G01*
X125700000Y-128200000D02*
X134300000Y-128200000D01*
X125699998Y-151200001D02*
G75*
G02*
X125499999Y-151000001I2J200001D01*
G01*
X125699998Y-82200001D02*
G75*
G02*
X125499999Y-82000001I2J200001D01*
G01*
M02*
