%TF.GenerationSoftware,KiCad,Pcbnew,9.0.5*%
%TF.CreationDate,2025-11-09T20:25:59+09:00*%
%TF.ProjectId,C3_men,43335f6d-656e-42e6-9b69-6361645f7063,rev?*%
%TF.SameCoordinates,Original*%
%TF.FileFunction,Legend,Top*%
%TF.FilePolarity,Positive*%
%FSLAX46Y46*%
G04 Gerber Fmt 4.6, Leading zero omitted, Abs format (unit mm)*
G04 Created by KiCad (PCBNEW 9.0.5) date 2025-11-09 20:25:59*
%MOMM*%
%LPD*%
G01*
G04 APERTURE LIST*
%ADD10C,0.150000*%
%ADD11C,0.254000*%
%ADD12C,0.120000*%
%ADD13C,0.127000*%
%ADD14C,0.200000*%
G04 APERTURE END LIST*
D10*
X158996666Y-139404819D02*
X158996666Y-140119104D01*
X158996666Y-140119104D02*
X158949047Y-140261961D01*
X158949047Y-140261961D02*
X158853809Y-140357200D01*
X158853809Y-140357200D02*
X158710952Y-140404819D01*
X158710952Y-140404819D02*
X158615714Y-140404819D01*
X159377619Y-139404819D02*
X159996666Y-139404819D01*
X159996666Y-139404819D02*
X159663333Y-139785771D01*
X159663333Y-139785771D02*
X159806190Y-139785771D01*
X159806190Y-139785771D02*
X159901428Y-139833390D01*
X159901428Y-139833390D02*
X159949047Y-139881009D01*
X159949047Y-139881009D02*
X159996666Y-139976247D01*
X159996666Y-139976247D02*
X159996666Y-140214342D01*
X159996666Y-140214342D02*
X159949047Y-140309580D01*
X159949047Y-140309580D02*
X159901428Y-140357200D01*
X159901428Y-140357200D02*
X159806190Y-140404819D01*
X159806190Y-140404819D02*
X159520476Y-140404819D01*
X159520476Y-140404819D02*
X159425238Y-140357200D01*
X159425238Y-140357200D02*
X159377619Y-140309580D01*
X184396666Y-139404819D02*
X184396666Y-140119104D01*
X184396666Y-140119104D02*
X184349047Y-140261961D01*
X184349047Y-140261961D02*
X184253809Y-140357200D01*
X184253809Y-140357200D02*
X184110952Y-140404819D01*
X184110952Y-140404819D02*
X184015714Y-140404819D01*
X185301428Y-139738152D02*
X185301428Y-140404819D01*
X185063333Y-139357200D02*
X184825238Y-140071485D01*
X184825238Y-140071485D02*
X185444285Y-140071485D01*
X175568095Y-121934819D02*
X175568095Y-122744342D01*
X175568095Y-122744342D02*
X175615714Y-122839580D01*
X175615714Y-122839580D02*
X175663333Y-122887200D01*
X175663333Y-122887200D02*
X175758571Y-122934819D01*
X175758571Y-122934819D02*
X175949047Y-122934819D01*
X175949047Y-122934819D02*
X176044285Y-122887200D01*
X176044285Y-122887200D02*
X176091904Y-122839580D01*
X176091904Y-122839580D02*
X176139523Y-122744342D01*
X176139523Y-122744342D02*
X176139523Y-121934819D01*
X177139523Y-122934819D02*
X176568095Y-122934819D01*
X176853809Y-122934819D02*
X176853809Y-121934819D01*
X176853809Y-121934819D02*
X176758571Y-122077676D01*
X176758571Y-122077676D02*
X176663333Y-122172914D01*
X176663333Y-122172914D02*
X176568095Y-122220533D01*
X171268095Y-144004819D02*
X171268095Y-144814342D01*
X171268095Y-144814342D02*
X171315714Y-144909580D01*
X171315714Y-144909580D02*
X171363333Y-144957200D01*
X171363333Y-144957200D02*
X171458571Y-145004819D01*
X171458571Y-145004819D02*
X171649047Y-145004819D01*
X171649047Y-145004819D02*
X171744285Y-144957200D01*
X171744285Y-144957200D02*
X171791904Y-144909580D01*
X171791904Y-144909580D02*
X171839523Y-144814342D01*
X171839523Y-144814342D02*
X171839523Y-144004819D01*
X172268095Y-144100057D02*
X172315714Y-144052438D01*
X172315714Y-144052438D02*
X172410952Y-144004819D01*
X172410952Y-144004819D02*
X172649047Y-144004819D01*
X172649047Y-144004819D02*
X172744285Y-144052438D01*
X172744285Y-144052438D02*
X172791904Y-144100057D01*
X172791904Y-144100057D02*
X172839523Y-144195295D01*
X172839523Y-144195295D02*
X172839523Y-144290533D01*
X172839523Y-144290533D02*
X172791904Y-144433390D01*
X172791904Y-144433390D02*
X172220476Y-145004819D01*
X172220476Y-145004819D02*
X172839523Y-145004819D01*
X170996667Y-131637200D02*
X171139524Y-131684819D01*
X171139524Y-131684819D02*
X171377619Y-131684819D01*
X171377619Y-131684819D02*
X171472857Y-131637200D01*
X171472857Y-131637200D02*
X171520476Y-131589580D01*
X171520476Y-131589580D02*
X171568095Y-131494342D01*
X171568095Y-131494342D02*
X171568095Y-131399104D01*
X171568095Y-131399104D02*
X171520476Y-131303866D01*
X171520476Y-131303866D02*
X171472857Y-131256247D01*
X171472857Y-131256247D02*
X171377619Y-131208628D01*
X171377619Y-131208628D02*
X171187143Y-131161009D01*
X171187143Y-131161009D02*
X171091905Y-131113390D01*
X171091905Y-131113390D02*
X171044286Y-131065771D01*
X171044286Y-131065771D02*
X170996667Y-130970533D01*
X170996667Y-130970533D02*
X170996667Y-130875295D01*
X170996667Y-130875295D02*
X171044286Y-130780057D01*
X171044286Y-130780057D02*
X171091905Y-130732438D01*
X171091905Y-130732438D02*
X171187143Y-130684819D01*
X171187143Y-130684819D02*
X171425238Y-130684819D01*
X171425238Y-130684819D02*
X171568095Y-130732438D01*
X171901429Y-130684819D02*
X172139524Y-131684819D01*
X172139524Y-131684819D02*
X172330000Y-130970533D01*
X172330000Y-130970533D02*
X172520476Y-131684819D01*
X172520476Y-131684819D02*
X172758572Y-130684819D01*
X173663333Y-131684819D02*
X173091905Y-131684819D01*
X173377619Y-131684819D02*
X173377619Y-130684819D01*
X173377619Y-130684819D02*
X173282381Y-130827676D01*
X173282381Y-130827676D02*
X173187143Y-130922914D01*
X173187143Y-130922914D02*
X173091905Y-130970533D01*
X164763333Y-108785180D02*
X164763333Y-108070895D01*
X164763333Y-108070895D02*
X164810952Y-107928038D01*
X164810952Y-107928038D02*
X164906190Y-107832800D01*
X164906190Y-107832800D02*
X165049047Y-107785180D01*
X165049047Y-107785180D02*
X165144285Y-107785180D01*
X163763333Y-107785180D02*
X164334761Y-107785180D01*
X164049047Y-107785180D02*
X164049047Y-108785180D01*
X164049047Y-108785180D02*
X164144285Y-108642323D01*
X164144285Y-108642323D02*
X164239523Y-108547085D01*
X164239523Y-108547085D02*
X164334761Y-108499466D01*
X169913333Y-117589580D02*
X169865714Y-117637200D01*
X169865714Y-117637200D02*
X169722857Y-117684819D01*
X169722857Y-117684819D02*
X169627619Y-117684819D01*
X169627619Y-117684819D02*
X169484762Y-117637200D01*
X169484762Y-117637200D02*
X169389524Y-117541961D01*
X169389524Y-117541961D02*
X169341905Y-117446723D01*
X169341905Y-117446723D02*
X169294286Y-117256247D01*
X169294286Y-117256247D02*
X169294286Y-117113390D01*
X169294286Y-117113390D02*
X169341905Y-116922914D01*
X169341905Y-116922914D02*
X169389524Y-116827676D01*
X169389524Y-116827676D02*
X169484762Y-116732438D01*
X169484762Y-116732438D02*
X169627619Y-116684819D01*
X169627619Y-116684819D02*
X169722857Y-116684819D01*
X169722857Y-116684819D02*
X169865714Y-116732438D01*
X169865714Y-116732438D02*
X169913333Y-116780057D01*
X170484762Y-117113390D02*
X170389524Y-117065771D01*
X170389524Y-117065771D02*
X170341905Y-117018152D01*
X170341905Y-117018152D02*
X170294286Y-116922914D01*
X170294286Y-116922914D02*
X170294286Y-116875295D01*
X170294286Y-116875295D02*
X170341905Y-116780057D01*
X170341905Y-116780057D02*
X170389524Y-116732438D01*
X170389524Y-116732438D02*
X170484762Y-116684819D01*
X170484762Y-116684819D02*
X170675238Y-116684819D01*
X170675238Y-116684819D02*
X170770476Y-116732438D01*
X170770476Y-116732438D02*
X170818095Y-116780057D01*
X170818095Y-116780057D02*
X170865714Y-116875295D01*
X170865714Y-116875295D02*
X170865714Y-116922914D01*
X170865714Y-116922914D02*
X170818095Y-117018152D01*
X170818095Y-117018152D02*
X170770476Y-117065771D01*
X170770476Y-117065771D02*
X170675238Y-117113390D01*
X170675238Y-117113390D02*
X170484762Y-117113390D01*
X170484762Y-117113390D02*
X170389524Y-117161009D01*
X170389524Y-117161009D02*
X170341905Y-117208628D01*
X170341905Y-117208628D02*
X170294286Y-117303866D01*
X170294286Y-117303866D02*
X170294286Y-117494342D01*
X170294286Y-117494342D02*
X170341905Y-117589580D01*
X170341905Y-117589580D02*
X170389524Y-117637200D01*
X170389524Y-117637200D02*
X170484762Y-117684819D01*
X170484762Y-117684819D02*
X170675238Y-117684819D01*
X170675238Y-117684819D02*
X170770476Y-117637200D01*
X170770476Y-117637200D02*
X170818095Y-117589580D01*
X170818095Y-117589580D02*
X170865714Y-117494342D01*
X170865714Y-117494342D02*
X170865714Y-117303866D01*
X170865714Y-117303866D02*
X170818095Y-117208628D01*
X170818095Y-117208628D02*
X170770476Y-117161009D01*
X170770476Y-117161009D02*
X170675238Y-117113390D01*
X179963333Y-109065180D02*
X179963333Y-108350895D01*
X179963333Y-108350895D02*
X180010952Y-108208038D01*
X180010952Y-108208038D02*
X180106190Y-108112800D01*
X180106190Y-108112800D02*
X180249047Y-108065180D01*
X180249047Y-108065180D02*
X180344285Y-108065180D01*
X179534761Y-108969942D02*
X179487142Y-109017561D01*
X179487142Y-109017561D02*
X179391904Y-109065180D01*
X179391904Y-109065180D02*
X179153809Y-109065180D01*
X179153809Y-109065180D02*
X179058571Y-109017561D01*
X179058571Y-109017561D02*
X179010952Y-108969942D01*
X179010952Y-108969942D02*
X178963333Y-108874704D01*
X178963333Y-108874704D02*
X178963333Y-108779466D01*
X178963333Y-108779466D02*
X179010952Y-108636609D01*
X179010952Y-108636609D02*
X179582380Y-108065180D01*
X179582380Y-108065180D02*
X178963333Y-108065180D01*
X183163333Y-146339580D02*
X183115714Y-146387200D01*
X183115714Y-146387200D02*
X182972857Y-146434819D01*
X182972857Y-146434819D02*
X182877619Y-146434819D01*
X182877619Y-146434819D02*
X182734762Y-146387200D01*
X182734762Y-146387200D02*
X182639524Y-146291961D01*
X182639524Y-146291961D02*
X182591905Y-146196723D01*
X182591905Y-146196723D02*
X182544286Y-146006247D01*
X182544286Y-146006247D02*
X182544286Y-145863390D01*
X182544286Y-145863390D02*
X182591905Y-145672914D01*
X182591905Y-145672914D02*
X182639524Y-145577676D01*
X182639524Y-145577676D02*
X182734762Y-145482438D01*
X182734762Y-145482438D02*
X182877619Y-145434819D01*
X182877619Y-145434819D02*
X182972857Y-145434819D01*
X182972857Y-145434819D02*
X183115714Y-145482438D01*
X183115714Y-145482438D02*
X183163333Y-145530057D01*
X184020476Y-145434819D02*
X183830000Y-145434819D01*
X183830000Y-145434819D02*
X183734762Y-145482438D01*
X183734762Y-145482438D02*
X183687143Y-145530057D01*
X183687143Y-145530057D02*
X183591905Y-145672914D01*
X183591905Y-145672914D02*
X183544286Y-145863390D01*
X183544286Y-145863390D02*
X183544286Y-146244342D01*
X183544286Y-146244342D02*
X183591905Y-146339580D01*
X183591905Y-146339580D02*
X183639524Y-146387200D01*
X183639524Y-146387200D02*
X183734762Y-146434819D01*
X183734762Y-146434819D02*
X183925238Y-146434819D01*
X183925238Y-146434819D02*
X184020476Y-146387200D01*
X184020476Y-146387200D02*
X184068095Y-146339580D01*
X184068095Y-146339580D02*
X184115714Y-146244342D01*
X184115714Y-146244342D02*
X184115714Y-146006247D01*
X184115714Y-146006247D02*
X184068095Y-145911009D01*
X184068095Y-145911009D02*
X184020476Y-145863390D01*
X184020476Y-145863390D02*
X183925238Y-145815771D01*
X183925238Y-145815771D02*
X183734762Y-145815771D01*
X183734762Y-145815771D02*
X183639524Y-145863390D01*
X183639524Y-145863390D02*
X183591905Y-145911009D01*
X183591905Y-145911009D02*
X183544286Y-146006247D01*
X169913333Y-115089580D02*
X169865714Y-115137200D01*
X169865714Y-115137200D02*
X169722857Y-115184819D01*
X169722857Y-115184819D02*
X169627619Y-115184819D01*
X169627619Y-115184819D02*
X169484762Y-115137200D01*
X169484762Y-115137200D02*
X169389524Y-115041961D01*
X169389524Y-115041961D02*
X169341905Y-114946723D01*
X169341905Y-114946723D02*
X169294286Y-114756247D01*
X169294286Y-114756247D02*
X169294286Y-114613390D01*
X169294286Y-114613390D02*
X169341905Y-114422914D01*
X169341905Y-114422914D02*
X169389524Y-114327676D01*
X169389524Y-114327676D02*
X169484762Y-114232438D01*
X169484762Y-114232438D02*
X169627619Y-114184819D01*
X169627619Y-114184819D02*
X169722857Y-114184819D01*
X169722857Y-114184819D02*
X169865714Y-114232438D01*
X169865714Y-114232438D02*
X169913333Y-114280057D01*
X170246667Y-114184819D02*
X170913333Y-114184819D01*
X170913333Y-114184819D02*
X170484762Y-115184819D01*
D11*
X162840237Y-119804318D02*
X162840237Y-118534318D01*
X164170714Y-119683365D02*
X164110238Y-119743842D01*
X164110238Y-119743842D02*
X163928809Y-119804318D01*
X163928809Y-119804318D02*
X163807857Y-119804318D01*
X163807857Y-119804318D02*
X163626428Y-119743842D01*
X163626428Y-119743842D02*
X163505476Y-119622889D01*
X163505476Y-119622889D02*
X163444999Y-119501937D01*
X163444999Y-119501937D02*
X163384523Y-119260032D01*
X163384523Y-119260032D02*
X163384523Y-119078603D01*
X163384523Y-119078603D02*
X163444999Y-118836699D01*
X163444999Y-118836699D02*
X163505476Y-118715746D01*
X163505476Y-118715746D02*
X163626428Y-118594794D01*
X163626428Y-118594794D02*
X163807857Y-118534318D01*
X163807857Y-118534318D02*
X163928809Y-118534318D01*
X163928809Y-118534318D02*
X164110238Y-118594794D01*
X164110238Y-118594794D02*
X164170714Y-118655270D01*
X165380238Y-119804318D02*
X164654523Y-119804318D01*
X165017380Y-119804318D02*
X165017380Y-118534318D01*
X165017380Y-118534318D02*
X164896428Y-118715746D01*
X164896428Y-118715746D02*
X164775476Y-118836699D01*
X164775476Y-118836699D02*
X164654523Y-118897175D01*
D10*
X129996666Y-139404819D02*
X129996666Y-140119104D01*
X129996666Y-140119104D02*
X129949047Y-140261961D01*
X129949047Y-140261961D02*
X129853809Y-140357200D01*
X129853809Y-140357200D02*
X129710952Y-140404819D01*
X129710952Y-140404819D02*
X129615714Y-140404819D01*
X130377619Y-139404819D02*
X130996666Y-139404819D01*
X130996666Y-139404819D02*
X130663333Y-139785771D01*
X130663333Y-139785771D02*
X130806190Y-139785771D01*
X130806190Y-139785771D02*
X130901428Y-139833390D01*
X130901428Y-139833390D02*
X130949047Y-139881009D01*
X130949047Y-139881009D02*
X130996666Y-139976247D01*
X130996666Y-139976247D02*
X130996666Y-140214342D01*
X130996666Y-140214342D02*
X130949047Y-140309580D01*
X130949047Y-140309580D02*
X130901428Y-140357200D01*
X130901428Y-140357200D02*
X130806190Y-140404819D01*
X130806190Y-140404819D02*
X130520476Y-140404819D01*
X130520476Y-140404819D02*
X130425238Y-140357200D01*
X130425238Y-140357200D02*
X130377619Y-140309580D01*
X155396666Y-139404819D02*
X155396666Y-140119104D01*
X155396666Y-140119104D02*
X155349047Y-140261961D01*
X155349047Y-140261961D02*
X155253809Y-140357200D01*
X155253809Y-140357200D02*
X155110952Y-140404819D01*
X155110952Y-140404819D02*
X155015714Y-140404819D01*
X156301428Y-139738152D02*
X156301428Y-140404819D01*
X156063333Y-139357200D02*
X155825238Y-140071485D01*
X155825238Y-140071485D02*
X156444285Y-140071485D01*
X146568095Y-121934819D02*
X146568095Y-122744342D01*
X146568095Y-122744342D02*
X146615714Y-122839580D01*
X146615714Y-122839580D02*
X146663333Y-122887200D01*
X146663333Y-122887200D02*
X146758571Y-122934819D01*
X146758571Y-122934819D02*
X146949047Y-122934819D01*
X146949047Y-122934819D02*
X147044285Y-122887200D01*
X147044285Y-122887200D02*
X147091904Y-122839580D01*
X147091904Y-122839580D02*
X147139523Y-122744342D01*
X147139523Y-122744342D02*
X147139523Y-121934819D01*
X148139523Y-122934819D02*
X147568095Y-122934819D01*
X147853809Y-122934819D02*
X147853809Y-121934819D01*
X147853809Y-121934819D02*
X147758571Y-122077676D01*
X147758571Y-122077676D02*
X147663333Y-122172914D01*
X147663333Y-122172914D02*
X147568095Y-122220533D01*
X142268095Y-144004819D02*
X142268095Y-144814342D01*
X142268095Y-144814342D02*
X142315714Y-144909580D01*
X142315714Y-144909580D02*
X142363333Y-144957200D01*
X142363333Y-144957200D02*
X142458571Y-145004819D01*
X142458571Y-145004819D02*
X142649047Y-145004819D01*
X142649047Y-145004819D02*
X142744285Y-144957200D01*
X142744285Y-144957200D02*
X142791904Y-144909580D01*
X142791904Y-144909580D02*
X142839523Y-144814342D01*
X142839523Y-144814342D02*
X142839523Y-144004819D01*
X143268095Y-144100057D02*
X143315714Y-144052438D01*
X143315714Y-144052438D02*
X143410952Y-144004819D01*
X143410952Y-144004819D02*
X143649047Y-144004819D01*
X143649047Y-144004819D02*
X143744285Y-144052438D01*
X143744285Y-144052438D02*
X143791904Y-144100057D01*
X143791904Y-144100057D02*
X143839523Y-144195295D01*
X143839523Y-144195295D02*
X143839523Y-144290533D01*
X143839523Y-144290533D02*
X143791904Y-144433390D01*
X143791904Y-144433390D02*
X143220476Y-145004819D01*
X143220476Y-145004819D02*
X143839523Y-145004819D01*
X141996667Y-131637200D02*
X142139524Y-131684819D01*
X142139524Y-131684819D02*
X142377619Y-131684819D01*
X142377619Y-131684819D02*
X142472857Y-131637200D01*
X142472857Y-131637200D02*
X142520476Y-131589580D01*
X142520476Y-131589580D02*
X142568095Y-131494342D01*
X142568095Y-131494342D02*
X142568095Y-131399104D01*
X142568095Y-131399104D02*
X142520476Y-131303866D01*
X142520476Y-131303866D02*
X142472857Y-131256247D01*
X142472857Y-131256247D02*
X142377619Y-131208628D01*
X142377619Y-131208628D02*
X142187143Y-131161009D01*
X142187143Y-131161009D02*
X142091905Y-131113390D01*
X142091905Y-131113390D02*
X142044286Y-131065771D01*
X142044286Y-131065771D02*
X141996667Y-130970533D01*
X141996667Y-130970533D02*
X141996667Y-130875295D01*
X141996667Y-130875295D02*
X142044286Y-130780057D01*
X142044286Y-130780057D02*
X142091905Y-130732438D01*
X142091905Y-130732438D02*
X142187143Y-130684819D01*
X142187143Y-130684819D02*
X142425238Y-130684819D01*
X142425238Y-130684819D02*
X142568095Y-130732438D01*
X142901429Y-130684819D02*
X143139524Y-131684819D01*
X143139524Y-131684819D02*
X143330000Y-130970533D01*
X143330000Y-130970533D02*
X143520476Y-131684819D01*
X143520476Y-131684819D02*
X143758572Y-130684819D01*
X144663333Y-131684819D02*
X144091905Y-131684819D01*
X144377619Y-131684819D02*
X144377619Y-130684819D01*
X144377619Y-130684819D02*
X144282381Y-130827676D01*
X144282381Y-130827676D02*
X144187143Y-130922914D01*
X144187143Y-130922914D02*
X144091905Y-130970533D01*
X135763333Y-108785180D02*
X135763333Y-108070895D01*
X135763333Y-108070895D02*
X135810952Y-107928038D01*
X135810952Y-107928038D02*
X135906190Y-107832800D01*
X135906190Y-107832800D02*
X136049047Y-107785180D01*
X136049047Y-107785180D02*
X136144285Y-107785180D01*
X134763333Y-107785180D02*
X135334761Y-107785180D01*
X135049047Y-107785180D02*
X135049047Y-108785180D01*
X135049047Y-108785180D02*
X135144285Y-108642323D01*
X135144285Y-108642323D02*
X135239523Y-108547085D01*
X135239523Y-108547085D02*
X135334761Y-108499466D01*
X140913333Y-117589580D02*
X140865714Y-117637200D01*
X140865714Y-117637200D02*
X140722857Y-117684819D01*
X140722857Y-117684819D02*
X140627619Y-117684819D01*
X140627619Y-117684819D02*
X140484762Y-117637200D01*
X140484762Y-117637200D02*
X140389524Y-117541961D01*
X140389524Y-117541961D02*
X140341905Y-117446723D01*
X140341905Y-117446723D02*
X140294286Y-117256247D01*
X140294286Y-117256247D02*
X140294286Y-117113390D01*
X140294286Y-117113390D02*
X140341905Y-116922914D01*
X140341905Y-116922914D02*
X140389524Y-116827676D01*
X140389524Y-116827676D02*
X140484762Y-116732438D01*
X140484762Y-116732438D02*
X140627619Y-116684819D01*
X140627619Y-116684819D02*
X140722857Y-116684819D01*
X140722857Y-116684819D02*
X140865714Y-116732438D01*
X140865714Y-116732438D02*
X140913333Y-116780057D01*
X141484762Y-117113390D02*
X141389524Y-117065771D01*
X141389524Y-117065771D02*
X141341905Y-117018152D01*
X141341905Y-117018152D02*
X141294286Y-116922914D01*
X141294286Y-116922914D02*
X141294286Y-116875295D01*
X141294286Y-116875295D02*
X141341905Y-116780057D01*
X141341905Y-116780057D02*
X141389524Y-116732438D01*
X141389524Y-116732438D02*
X141484762Y-116684819D01*
X141484762Y-116684819D02*
X141675238Y-116684819D01*
X141675238Y-116684819D02*
X141770476Y-116732438D01*
X141770476Y-116732438D02*
X141818095Y-116780057D01*
X141818095Y-116780057D02*
X141865714Y-116875295D01*
X141865714Y-116875295D02*
X141865714Y-116922914D01*
X141865714Y-116922914D02*
X141818095Y-117018152D01*
X141818095Y-117018152D02*
X141770476Y-117065771D01*
X141770476Y-117065771D02*
X141675238Y-117113390D01*
X141675238Y-117113390D02*
X141484762Y-117113390D01*
X141484762Y-117113390D02*
X141389524Y-117161009D01*
X141389524Y-117161009D02*
X141341905Y-117208628D01*
X141341905Y-117208628D02*
X141294286Y-117303866D01*
X141294286Y-117303866D02*
X141294286Y-117494342D01*
X141294286Y-117494342D02*
X141341905Y-117589580D01*
X141341905Y-117589580D02*
X141389524Y-117637200D01*
X141389524Y-117637200D02*
X141484762Y-117684819D01*
X141484762Y-117684819D02*
X141675238Y-117684819D01*
X141675238Y-117684819D02*
X141770476Y-117637200D01*
X141770476Y-117637200D02*
X141818095Y-117589580D01*
X141818095Y-117589580D02*
X141865714Y-117494342D01*
X141865714Y-117494342D02*
X141865714Y-117303866D01*
X141865714Y-117303866D02*
X141818095Y-117208628D01*
X141818095Y-117208628D02*
X141770476Y-117161009D01*
X141770476Y-117161009D02*
X141675238Y-117113390D01*
X150963333Y-109065180D02*
X150963333Y-108350895D01*
X150963333Y-108350895D02*
X151010952Y-108208038D01*
X151010952Y-108208038D02*
X151106190Y-108112800D01*
X151106190Y-108112800D02*
X151249047Y-108065180D01*
X151249047Y-108065180D02*
X151344285Y-108065180D01*
X150534761Y-108969942D02*
X150487142Y-109017561D01*
X150487142Y-109017561D02*
X150391904Y-109065180D01*
X150391904Y-109065180D02*
X150153809Y-109065180D01*
X150153809Y-109065180D02*
X150058571Y-109017561D01*
X150058571Y-109017561D02*
X150010952Y-108969942D01*
X150010952Y-108969942D02*
X149963333Y-108874704D01*
X149963333Y-108874704D02*
X149963333Y-108779466D01*
X149963333Y-108779466D02*
X150010952Y-108636609D01*
X150010952Y-108636609D02*
X150582380Y-108065180D01*
X150582380Y-108065180D02*
X149963333Y-108065180D01*
X154163333Y-146339580D02*
X154115714Y-146387200D01*
X154115714Y-146387200D02*
X153972857Y-146434819D01*
X153972857Y-146434819D02*
X153877619Y-146434819D01*
X153877619Y-146434819D02*
X153734762Y-146387200D01*
X153734762Y-146387200D02*
X153639524Y-146291961D01*
X153639524Y-146291961D02*
X153591905Y-146196723D01*
X153591905Y-146196723D02*
X153544286Y-146006247D01*
X153544286Y-146006247D02*
X153544286Y-145863390D01*
X153544286Y-145863390D02*
X153591905Y-145672914D01*
X153591905Y-145672914D02*
X153639524Y-145577676D01*
X153639524Y-145577676D02*
X153734762Y-145482438D01*
X153734762Y-145482438D02*
X153877619Y-145434819D01*
X153877619Y-145434819D02*
X153972857Y-145434819D01*
X153972857Y-145434819D02*
X154115714Y-145482438D01*
X154115714Y-145482438D02*
X154163333Y-145530057D01*
X155020476Y-145434819D02*
X154830000Y-145434819D01*
X154830000Y-145434819D02*
X154734762Y-145482438D01*
X154734762Y-145482438D02*
X154687143Y-145530057D01*
X154687143Y-145530057D02*
X154591905Y-145672914D01*
X154591905Y-145672914D02*
X154544286Y-145863390D01*
X154544286Y-145863390D02*
X154544286Y-146244342D01*
X154544286Y-146244342D02*
X154591905Y-146339580D01*
X154591905Y-146339580D02*
X154639524Y-146387200D01*
X154639524Y-146387200D02*
X154734762Y-146434819D01*
X154734762Y-146434819D02*
X154925238Y-146434819D01*
X154925238Y-146434819D02*
X155020476Y-146387200D01*
X155020476Y-146387200D02*
X155068095Y-146339580D01*
X155068095Y-146339580D02*
X155115714Y-146244342D01*
X155115714Y-146244342D02*
X155115714Y-146006247D01*
X155115714Y-146006247D02*
X155068095Y-145911009D01*
X155068095Y-145911009D02*
X155020476Y-145863390D01*
X155020476Y-145863390D02*
X154925238Y-145815771D01*
X154925238Y-145815771D02*
X154734762Y-145815771D01*
X154734762Y-145815771D02*
X154639524Y-145863390D01*
X154639524Y-145863390D02*
X154591905Y-145911009D01*
X154591905Y-145911009D02*
X154544286Y-146006247D01*
X140913333Y-115089580D02*
X140865714Y-115137200D01*
X140865714Y-115137200D02*
X140722857Y-115184819D01*
X140722857Y-115184819D02*
X140627619Y-115184819D01*
X140627619Y-115184819D02*
X140484762Y-115137200D01*
X140484762Y-115137200D02*
X140389524Y-115041961D01*
X140389524Y-115041961D02*
X140341905Y-114946723D01*
X140341905Y-114946723D02*
X140294286Y-114756247D01*
X140294286Y-114756247D02*
X140294286Y-114613390D01*
X140294286Y-114613390D02*
X140341905Y-114422914D01*
X140341905Y-114422914D02*
X140389524Y-114327676D01*
X140389524Y-114327676D02*
X140484762Y-114232438D01*
X140484762Y-114232438D02*
X140627619Y-114184819D01*
X140627619Y-114184819D02*
X140722857Y-114184819D01*
X140722857Y-114184819D02*
X140865714Y-114232438D01*
X140865714Y-114232438D02*
X140913333Y-114280057D01*
X141246667Y-114184819D02*
X141913333Y-114184819D01*
X141913333Y-114184819D02*
X141484762Y-115184819D01*
D11*
X133840237Y-119804318D02*
X133840237Y-118534318D01*
X135170714Y-119683365D02*
X135110238Y-119743842D01*
X135110238Y-119743842D02*
X134928809Y-119804318D01*
X134928809Y-119804318D02*
X134807857Y-119804318D01*
X134807857Y-119804318D02*
X134626428Y-119743842D01*
X134626428Y-119743842D02*
X134505476Y-119622889D01*
X134505476Y-119622889D02*
X134444999Y-119501937D01*
X134444999Y-119501937D02*
X134384523Y-119260032D01*
X134384523Y-119260032D02*
X134384523Y-119078603D01*
X134384523Y-119078603D02*
X134444999Y-118836699D01*
X134444999Y-118836699D02*
X134505476Y-118715746D01*
X134505476Y-118715746D02*
X134626428Y-118594794D01*
X134626428Y-118594794D02*
X134807857Y-118534318D01*
X134807857Y-118534318D02*
X134928809Y-118534318D01*
X134928809Y-118534318D02*
X135110238Y-118594794D01*
X135110238Y-118594794D02*
X135170714Y-118655270D01*
X136380238Y-119804318D02*
X135654523Y-119804318D01*
X136017380Y-119804318D02*
X136017380Y-118534318D01*
X136017380Y-118534318D02*
X135896428Y-118715746D01*
X135896428Y-118715746D02*
X135775476Y-118836699D01*
X135775476Y-118836699D02*
X135654523Y-118897175D01*
D10*
X100996666Y-139404819D02*
X100996666Y-140119104D01*
X100996666Y-140119104D02*
X100949047Y-140261961D01*
X100949047Y-140261961D02*
X100853809Y-140357200D01*
X100853809Y-140357200D02*
X100710952Y-140404819D01*
X100710952Y-140404819D02*
X100615714Y-140404819D01*
X101377619Y-139404819D02*
X101996666Y-139404819D01*
X101996666Y-139404819D02*
X101663333Y-139785771D01*
X101663333Y-139785771D02*
X101806190Y-139785771D01*
X101806190Y-139785771D02*
X101901428Y-139833390D01*
X101901428Y-139833390D02*
X101949047Y-139881009D01*
X101949047Y-139881009D02*
X101996666Y-139976247D01*
X101996666Y-139976247D02*
X101996666Y-140214342D01*
X101996666Y-140214342D02*
X101949047Y-140309580D01*
X101949047Y-140309580D02*
X101901428Y-140357200D01*
X101901428Y-140357200D02*
X101806190Y-140404819D01*
X101806190Y-140404819D02*
X101520476Y-140404819D01*
X101520476Y-140404819D02*
X101425238Y-140357200D01*
X101425238Y-140357200D02*
X101377619Y-140309580D01*
X126396666Y-139404819D02*
X126396666Y-140119104D01*
X126396666Y-140119104D02*
X126349047Y-140261961D01*
X126349047Y-140261961D02*
X126253809Y-140357200D01*
X126253809Y-140357200D02*
X126110952Y-140404819D01*
X126110952Y-140404819D02*
X126015714Y-140404819D01*
X127301428Y-139738152D02*
X127301428Y-140404819D01*
X127063333Y-139357200D02*
X126825238Y-140071485D01*
X126825238Y-140071485D02*
X127444285Y-140071485D01*
X117568095Y-121934819D02*
X117568095Y-122744342D01*
X117568095Y-122744342D02*
X117615714Y-122839580D01*
X117615714Y-122839580D02*
X117663333Y-122887200D01*
X117663333Y-122887200D02*
X117758571Y-122934819D01*
X117758571Y-122934819D02*
X117949047Y-122934819D01*
X117949047Y-122934819D02*
X118044285Y-122887200D01*
X118044285Y-122887200D02*
X118091904Y-122839580D01*
X118091904Y-122839580D02*
X118139523Y-122744342D01*
X118139523Y-122744342D02*
X118139523Y-121934819D01*
X119139523Y-122934819D02*
X118568095Y-122934819D01*
X118853809Y-122934819D02*
X118853809Y-121934819D01*
X118853809Y-121934819D02*
X118758571Y-122077676D01*
X118758571Y-122077676D02*
X118663333Y-122172914D01*
X118663333Y-122172914D02*
X118568095Y-122220533D01*
X113268095Y-144004819D02*
X113268095Y-144814342D01*
X113268095Y-144814342D02*
X113315714Y-144909580D01*
X113315714Y-144909580D02*
X113363333Y-144957200D01*
X113363333Y-144957200D02*
X113458571Y-145004819D01*
X113458571Y-145004819D02*
X113649047Y-145004819D01*
X113649047Y-145004819D02*
X113744285Y-144957200D01*
X113744285Y-144957200D02*
X113791904Y-144909580D01*
X113791904Y-144909580D02*
X113839523Y-144814342D01*
X113839523Y-144814342D02*
X113839523Y-144004819D01*
X114268095Y-144100057D02*
X114315714Y-144052438D01*
X114315714Y-144052438D02*
X114410952Y-144004819D01*
X114410952Y-144004819D02*
X114649047Y-144004819D01*
X114649047Y-144004819D02*
X114744285Y-144052438D01*
X114744285Y-144052438D02*
X114791904Y-144100057D01*
X114791904Y-144100057D02*
X114839523Y-144195295D01*
X114839523Y-144195295D02*
X114839523Y-144290533D01*
X114839523Y-144290533D02*
X114791904Y-144433390D01*
X114791904Y-144433390D02*
X114220476Y-145004819D01*
X114220476Y-145004819D02*
X114839523Y-145004819D01*
X112996667Y-131637200D02*
X113139524Y-131684819D01*
X113139524Y-131684819D02*
X113377619Y-131684819D01*
X113377619Y-131684819D02*
X113472857Y-131637200D01*
X113472857Y-131637200D02*
X113520476Y-131589580D01*
X113520476Y-131589580D02*
X113568095Y-131494342D01*
X113568095Y-131494342D02*
X113568095Y-131399104D01*
X113568095Y-131399104D02*
X113520476Y-131303866D01*
X113520476Y-131303866D02*
X113472857Y-131256247D01*
X113472857Y-131256247D02*
X113377619Y-131208628D01*
X113377619Y-131208628D02*
X113187143Y-131161009D01*
X113187143Y-131161009D02*
X113091905Y-131113390D01*
X113091905Y-131113390D02*
X113044286Y-131065771D01*
X113044286Y-131065771D02*
X112996667Y-130970533D01*
X112996667Y-130970533D02*
X112996667Y-130875295D01*
X112996667Y-130875295D02*
X113044286Y-130780057D01*
X113044286Y-130780057D02*
X113091905Y-130732438D01*
X113091905Y-130732438D02*
X113187143Y-130684819D01*
X113187143Y-130684819D02*
X113425238Y-130684819D01*
X113425238Y-130684819D02*
X113568095Y-130732438D01*
X113901429Y-130684819D02*
X114139524Y-131684819D01*
X114139524Y-131684819D02*
X114330000Y-130970533D01*
X114330000Y-130970533D02*
X114520476Y-131684819D01*
X114520476Y-131684819D02*
X114758572Y-130684819D01*
X115663333Y-131684819D02*
X115091905Y-131684819D01*
X115377619Y-131684819D02*
X115377619Y-130684819D01*
X115377619Y-130684819D02*
X115282381Y-130827676D01*
X115282381Y-130827676D02*
X115187143Y-130922914D01*
X115187143Y-130922914D02*
X115091905Y-130970533D01*
X106763333Y-108785180D02*
X106763333Y-108070895D01*
X106763333Y-108070895D02*
X106810952Y-107928038D01*
X106810952Y-107928038D02*
X106906190Y-107832800D01*
X106906190Y-107832800D02*
X107049047Y-107785180D01*
X107049047Y-107785180D02*
X107144285Y-107785180D01*
X105763333Y-107785180D02*
X106334761Y-107785180D01*
X106049047Y-107785180D02*
X106049047Y-108785180D01*
X106049047Y-108785180D02*
X106144285Y-108642323D01*
X106144285Y-108642323D02*
X106239523Y-108547085D01*
X106239523Y-108547085D02*
X106334761Y-108499466D01*
X111913333Y-117589580D02*
X111865714Y-117637200D01*
X111865714Y-117637200D02*
X111722857Y-117684819D01*
X111722857Y-117684819D02*
X111627619Y-117684819D01*
X111627619Y-117684819D02*
X111484762Y-117637200D01*
X111484762Y-117637200D02*
X111389524Y-117541961D01*
X111389524Y-117541961D02*
X111341905Y-117446723D01*
X111341905Y-117446723D02*
X111294286Y-117256247D01*
X111294286Y-117256247D02*
X111294286Y-117113390D01*
X111294286Y-117113390D02*
X111341905Y-116922914D01*
X111341905Y-116922914D02*
X111389524Y-116827676D01*
X111389524Y-116827676D02*
X111484762Y-116732438D01*
X111484762Y-116732438D02*
X111627619Y-116684819D01*
X111627619Y-116684819D02*
X111722857Y-116684819D01*
X111722857Y-116684819D02*
X111865714Y-116732438D01*
X111865714Y-116732438D02*
X111913333Y-116780057D01*
X112484762Y-117113390D02*
X112389524Y-117065771D01*
X112389524Y-117065771D02*
X112341905Y-117018152D01*
X112341905Y-117018152D02*
X112294286Y-116922914D01*
X112294286Y-116922914D02*
X112294286Y-116875295D01*
X112294286Y-116875295D02*
X112341905Y-116780057D01*
X112341905Y-116780057D02*
X112389524Y-116732438D01*
X112389524Y-116732438D02*
X112484762Y-116684819D01*
X112484762Y-116684819D02*
X112675238Y-116684819D01*
X112675238Y-116684819D02*
X112770476Y-116732438D01*
X112770476Y-116732438D02*
X112818095Y-116780057D01*
X112818095Y-116780057D02*
X112865714Y-116875295D01*
X112865714Y-116875295D02*
X112865714Y-116922914D01*
X112865714Y-116922914D02*
X112818095Y-117018152D01*
X112818095Y-117018152D02*
X112770476Y-117065771D01*
X112770476Y-117065771D02*
X112675238Y-117113390D01*
X112675238Y-117113390D02*
X112484762Y-117113390D01*
X112484762Y-117113390D02*
X112389524Y-117161009D01*
X112389524Y-117161009D02*
X112341905Y-117208628D01*
X112341905Y-117208628D02*
X112294286Y-117303866D01*
X112294286Y-117303866D02*
X112294286Y-117494342D01*
X112294286Y-117494342D02*
X112341905Y-117589580D01*
X112341905Y-117589580D02*
X112389524Y-117637200D01*
X112389524Y-117637200D02*
X112484762Y-117684819D01*
X112484762Y-117684819D02*
X112675238Y-117684819D01*
X112675238Y-117684819D02*
X112770476Y-117637200D01*
X112770476Y-117637200D02*
X112818095Y-117589580D01*
X112818095Y-117589580D02*
X112865714Y-117494342D01*
X112865714Y-117494342D02*
X112865714Y-117303866D01*
X112865714Y-117303866D02*
X112818095Y-117208628D01*
X112818095Y-117208628D02*
X112770476Y-117161009D01*
X112770476Y-117161009D02*
X112675238Y-117113390D01*
X121963333Y-109065180D02*
X121963333Y-108350895D01*
X121963333Y-108350895D02*
X122010952Y-108208038D01*
X122010952Y-108208038D02*
X122106190Y-108112800D01*
X122106190Y-108112800D02*
X122249047Y-108065180D01*
X122249047Y-108065180D02*
X122344285Y-108065180D01*
X121534761Y-108969942D02*
X121487142Y-109017561D01*
X121487142Y-109017561D02*
X121391904Y-109065180D01*
X121391904Y-109065180D02*
X121153809Y-109065180D01*
X121153809Y-109065180D02*
X121058571Y-109017561D01*
X121058571Y-109017561D02*
X121010952Y-108969942D01*
X121010952Y-108969942D02*
X120963333Y-108874704D01*
X120963333Y-108874704D02*
X120963333Y-108779466D01*
X120963333Y-108779466D02*
X121010952Y-108636609D01*
X121010952Y-108636609D02*
X121582380Y-108065180D01*
X121582380Y-108065180D02*
X120963333Y-108065180D01*
X125163333Y-146339580D02*
X125115714Y-146387200D01*
X125115714Y-146387200D02*
X124972857Y-146434819D01*
X124972857Y-146434819D02*
X124877619Y-146434819D01*
X124877619Y-146434819D02*
X124734762Y-146387200D01*
X124734762Y-146387200D02*
X124639524Y-146291961D01*
X124639524Y-146291961D02*
X124591905Y-146196723D01*
X124591905Y-146196723D02*
X124544286Y-146006247D01*
X124544286Y-146006247D02*
X124544286Y-145863390D01*
X124544286Y-145863390D02*
X124591905Y-145672914D01*
X124591905Y-145672914D02*
X124639524Y-145577676D01*
X124639524Y-145577676D02*
X124734762Y-145482438D01*
X124734762Y-145482438D02*
X124877619Y-145434819D01*
X124877619Y-145434819D02*
X124972857Y-145434819D01*
X124972857Y-145434819D02*
X125115714Y-145482438D01*
X125115714Y-145482438D02*
X125163333Y-145530057D01*
X126020476Y-145434819D02*
X125830000Y-145434819D01*
X125830000Y-145434819D02*
X125734762Y-145482438D01*
X125734762Y-145482438D02*
X125687143Y-145530057D01*
X125687143Y-145530057D02*
X125591905Y-145672914D01*
X125591905Y-145672914D02*
X125544286Y-145863390D01*
X125544286Y-145863390D02*
X125544286Y-146244342D01*
X125544286Y-146244342D02*
X125591905Y-146339580D01*
X125591905Y-146339580D02*
X125639524Y-146387200D01*
X125639524Y-146387200D02*
X125734762Y-146434819D01*
X125734762Y-146434819D02*
X125925238Y-146434819D01*
X125925238Y-146434819D02*
X126020476Y-146387200D01*
X126020476Y-146387200D02*
X126068095Y-146339580D01*
X126068095Y-146339580D02*
X126115714Y-146244342D01*
X126115714Y-146244342D02*
X126115714Y-146006247D01*
X126115714Y-146006247D02*
X126068095Y-145911009D01*
X126068095Y-145911009D02*
X126020476Y-145863390D01*
X126020476Y-145863390D02*
X125925238Y-145815771D01*
X125925238Y-145815771D02*
X125734762Y-145815771D01*
X125734762Y-145815771D02*
X125639524Y-145863390D01*
X125639524Y-145863390D02*
X125591905Y-145911009D01*
X125591905Y-145911009D02*
X125544286Y-146006247D01*
X111913333Y-115089580D02*
X111865714Y-115137200D01*
X111865714Y-115137200D02*
X111722857Y-115184819D01*
X111722857Y-115184819D02*
X111627619Y-115184819D01*
X111627619Y-115184819D02*
X111484762Y-115137200D01*
X111484762Y-115137200D02*
X111389524Y-115041961D01*
X111389524Y-115041961D02*
X111341905Y-114946723D01*
X111341905Y-114946723D02*
X111294286Y-114756247D01*
X111294286Y-114756247D02*
X111294286Y-114613390D01*
X111294286Y-114613390D02*
X111341905Y-114422914D01*
X111341905Y-114422914D02*
X111389524Y-114327676D01*
X111389524Y-114327676D02*
X111484762Y-114232438D01*
X111484762Y-114232438D02*
X111627619Y-114184819D01*
X111627619Y-114184819D02*
X111722857Y-114184819D01*
X111722857Y-114184819D02*
X111865714Y-114232438D01*
X111865714Y-114232438D02*
X111913333Y-114280057D01*
X112246667Y-114184819D02*
X112913333Y-114184819D01*
X112913333Y-114184819D02*
X112484762Y-115184819D01*
D11*
X104840237Y-119804318D02*
X104840237Y-118534318D01*
X106170714Y-119683365D02*
X106110238Y-119743842D01*
X106110238Y-119743842D02*
X105928809Y-119804318D01*
X105928809Y-119804318D02*
X105807857Y-119804318D01*
X105807857Y-119804318D02*
X105626428Y-119743842D01*
X105626428Y-119743842D02*
X105505476Y-119622889D01*
X105505476Y-119622889D02*
X105444999Y-119501937D01*
X105444999Y-119501937D02*
X105384523Y-119260032D01*
X105384523Y-119260032D02*
X105384523Y-119078603D01*
X105384523Y-119078603D02*
X105444999Y-118836699D01*
X105444999Y-118836699D02*
X105505476Y-118715746D01*
X105505476Y-118715746D02*
X105626428Y-118594794D01*
X105626428Y-118594794D02*
X105807857Y-118534318D01*
X105807857Y-118534318D02*
X105928809Y-118534318D01*
X105928809Y-118534318D02*
X106110238Y-118594794D01*
X106110238Y-118594794D02*
X106170714Y-118655270D01*
X107380238Y-119804318D02*
X106654523Y-119804318D01*
X107017380Y-119804318D02*
X107017380Y-118534318D01*
X107017380Y-118534318D02*
X106896428Y-118715746D01*
X106896428Y-118715746D02*
X106775476Y-118836699D01*
X106775476Y-118836699D02*
X106654523Y-118897175D01*
D10*
X184336666Y-68504819D02*
X184336666Y-69219104D01*
X184336666Y-69219104D02*
X184289047Y-69361961D01*
X184289047Y-69361961D02*
X184193809Y-69457200D01*
X184193809Y-69457200D02*
X184050952Y-69504819D01*
X184050952Y-69504819D02*
X183955714Y-69504819D01*
X184717619Y-68504819D02*
X185336666Y-68504819D01*
X185336666Y-68504819D02*
X185003333Y-68885771D01*
X185003333Y-68885771D02*
X185146190Y-68885771D01*
X185146190Y-68885771D02*
X185241428Y-68933390D01*
X185241428Y-68933390D02*
X185289047Y-68981009D01*
X185289047Y-68981009D02*
X185336666Y-69076247D01*
X185336666Y-69076247D02*
X185336666Y-69314342D01*
X185336666Y-69314342D02*
X185289047Y-69409580D01*
X185289047Y-69409580D02*
X185241428Y-69457200D01*
X185241428Y-69457200D02*
X185146190Y-69504819D01*
X185146190Y-69504819D02*
X184860476Y-69504819D01*
X184860476Y-69504819D02*
X184765238Y-69457200D01*
X184765238Y-69457200D02*
X184717619Y-69409580D01*
X158936666Y-68504819D02*
X158936666Y-69219104D01*
X158936666Y-69219104D02*
X158889047Y-69361961D01*
X158889047Y-69361961D02*
X158793809Y-69457200D01*
X158793809Y-69457200D02*
X158650952Y-69504819D01*
X158650952Y-69504819D02*
X158555714Y-69504819D01*
X159841428Y-68838152D02*
X159841428Y-69504819D01*
X159603333Y-68457200D02*
X159365238Y-69171485D01*
X159365238Y-69171485D02*
X159984285Y-69171485D01*
X166908095Y-85974819D02*
X166908095Y-86784342D01*
X166908095Y-86784342D02*
X166955714Y-86879580D01*
X166955714Y-86879580D02*
X167003333Y-86927200D01*
X167003333Y-86927200D02*
X167098571Y-86974819D01*
X167098571Y-86974819D02*
X167289047Y-86974819D01*
X167289047Y-86974819D02*
X167384285Y-86927200D01*
X167384285Y-86927200D02*
X167431904Y-86879580D01*
X167431904Y-86879580D02*
X167479523Y-86784342D01*
X167479523Y-86784342D02*
X167479523Y-85974819D01*
X168479523Y-86974819D02*
X167908095Y-86974819D01*
X168193809Y-86974819D02*
X168193809Y-85974819D01*
X168193809Y-85974819D02*
X168098571Y-86117676D01*
X168098571Y-86117676D02*
X168003333Y-86212914D01*
X168003333Y-86212914D02*
X167908095Y-86260533D01*
X171208095Y-63904819D02*
X171208095Y-64714342D01*
X171208095Y-64714342D02*
X171255714Y-64809580D01*
X171255714Y-64809580D02*
X171303333Y-64857200D01*
X171303333Y-64857200D02*
X171398571Y-64904819D01*
X171398571Y-64904819D02*
X171589047Y-64904819D01*
X171589047Y-64904819D02*
X171684285Y-64857200D01*
X171684285Y-64857200D02*
X171731904Y-64809580D01*
X171731904Y-64809580D02*
X171779523Y-64714342D01*
X171779523Y-64714342D02*
X171779523Y-63904819D01*
X172208095Y-64000057D02*
X172255714Y-63952438D01*
X172255714Y-63952438D02*
X172350952Y-63904819D01*
X172350952Y-63904819D02*
X172589047Y-63904819D01*
X172589047Y-63904819D02*
X172684285Y-63952438D01*
X172684285Y-63952438D02*
X172731904Y-64000057D01*
X172731904Y-64000057D02*
X172779523Y-64095295D01*
X172779523Y-64095295D02*
X172779523Y-64190533D01*
X172779523Y-64190533D02*
X172731904Y-64333390D01*
X172731904Y-64333390D02*
X172160476Y-64904819D01*
X172160476Y-64904819D02*
X172779523Y-64904819D01*
X170336667Y-78177200D02*
X170479524Y-78224819D01*
X170479524Y-78224819D02*
X170717619Y-78224819D01*
X170717619Y-78224819D02*
X170812857Y-78177200D01*
X170812857Y-78177200D02*
X170860476Y-78129580D01*
X170860476Y-78129580D02*
X170908095Y-78034342D01*
X170908095Y-78034342D02*
X170908095Y-77939104D01*
X170908095Y-77939104D02*
X170860476Y-77843866D01*
X170860476Y-77843866D02*
X170812857Y-77796247D01*
X170812857Y-77796247D02*
X170717619Y-77748628D01*
X170717619Y-77748628D02*
X170527143Y-77701009D01*
X170527143Y-77701009D02*
X170431905Y-77653390D01*
X170431905Y-77653390D02*
X170384286Y-77605771D01*
X170384286Y-77605771D02*
X170336667Y-77510533D01*
X170336667Y-77510533D02*
X170336667Y-77415295D01*
X170336667Y-77415295D02*
X170384286Y-77320057D01*
X170384286Y-77320057D02*
X170431905Y-77272438D01*
X170431905Y-77272438D02*
X170527143Y-77224819D01*
X170527143Y-77224819D02*
X170765238Y-77224819D01*
X170765238Y-77224819D02*
X170908095Y-77272438D01*
X171241429Y-77224819D02*
X171479524Y-78224819D01*
X171479524Y-78224819D02*
X171670000Y-77510533D01*
X171670000Y-77510533D02*
X171860476Y-78224819D01*
X171860476Y-78224819D02*
X172098572Y-77224819D01*
X173003333Y-78224819D02*
X172431905Y-78224819D01*
X172717619Y-78224819D02*
X172717619Y-77224819D01*
X172717619Y-77224819D02*
X172622381Y-77367676D01*
X172622381Y-77367676D02*
X172527143Y-77462914D01*
X172527143Y-77462914D02*
X172431905Y-77510533D01*
X179236666Y-100214819D02*
X179236666Y-100929104D01*
X179236666Y-100929104D02*
X179189047Y-101071961D01*
X179189047Y-101071961D02*
X179093809Y-101167200D01*
X179093809Y-101167200D02*
X178950952Y-101214819D01*
X178950952Y-101214819D02*
X178855714Y-101214819D01*
X180236666Y-101214819D02*
X179665238Y-101214819D01*
X179950952Y-101214819D02*
X179950952Y-100214819D01*
X179950952Y-100214819D02*
X179855714Y-100357676D01*
X179855714Y-100357676D02*
X179760476Y-100452914D01*
X179760476Y-100452914D02*
X179665238Y-100500533D01*
X173753333Y-92129580D02*
X173705714Y-92177200D01*
X173705714Y-92177200D02*
X173562857Y-92224819D01*
X173562857Y-92224819D02*
X173467619Y-92224819D01*
X173467619Y-92224819D02*
X173324762Y-92177200D01*
X173324762Y-92177200D02*
X173229524Y-92081961D01*
X173229524Y-92081961D02*
X173181905Y-91986723D01*
X173181905Y-91986723D02*
X173134286Y-91796247D01*
X173134286Y-91796247D02*
X173134286Y-91653390D01*
X173134286Y-91653390D02*
X173181905Y-91462914D01*
X173181905Y-91462914D02*
X173229524Y-91367676D01*
X173229524Y-91367676D02*
X173324762Y-91272438D01*
X173324762Y-91272438D02*
X173467619Y-91224819D01*
X173467619Y-91224819D02*
X173562857Y-91224819D01*
X173562857Y-91224819D02*
X173705714Y-91272438D01*
X173705714Y-91272438D02*
X173753333Y-91320057D01*
X174324762Y-91653390D02*
X174229524Y-91605771D01*
X174229524Y-91605771D02*
X174181905Y-91558152D01*
X174181905Y-91558152D02*
X174134286Y-91462914D01*
X174134286Y-91462914D02*
X174134286Y-91415295D01*
X174134286Y-91415295D02*
X174181905Y-91320057D01*
X174181905Y-91320057D02*
X174229524Y-91272438D01*
X174229524Y-91272438D02*
X174324762Y-91224819D01*
X174324762Y-91224819D02*
X174515238Y-91224819D01*
X174515238Y-91224819D02*
X174610476Y-91272438D01*
X174610476Y-91272438D02*
X174658095Y-91320057D01*
X174658095Y-91320057D02*
X174705714Y-91415295D01*
X174705714Y-91415295D02*
X174705714Y-91462914D01*
X174705714Y-91462914D02*
X174658095Y-91558152D01*
X174658095Y-91558152D02*
X174610476Y-91605771D01*
X174610476Y-91605771D02*
X174515238Y-91653390D01*
X174515238Y-91653390D02*
X174324762Y-91653390D01*
X174324762Y-91653390D02*
X174229524Y-91701009D01*
X174229524Y-91701009D02*
X174181905Y-91748628D01*
X174181905Y-91748628D02*
X174134286Y-91843866D01*
X174134286Y-91843866D02*
X174134286Y-92034342D01*
X174134286Y-92034342D02*
X174181905Y-92129580D01*
X174181905Y-92129580D02*
X174229524Y-92177200D01*
X174229524Y-92177200D02*
X174324762Y-92224819D01*
X174324762Y-92224819D02*
X174515238Y-92224819D01*
X174515238Y-92224819D02*
X174610476Y-92177200D01*
X174610476Y-92177200D02*
X174658095Y-92129580D01*
X174658095Y-92129580D02*
X174705714Y-92034342D01*
X174705714Y-92034342D02*
X174705714Y-91843866D01*
X174705714Y-91843866D02*
X174658095Y-91748628D01*
X174658095Y-91748628D02*
X174610476Y-91701009D01*
X174610476Y-91701009D02*
X174515238Y-91653390D01*
X164036666Y-99934819D02*
X164036666Y-100649104D01*
X164036666Y-100649104D02*
X163989047Y-100791961D01*
X163989047Y-100791961D02*
X163893809Y-100887200D01*
X163893809Y-100887200D02*
X163750952Y-100934819D01*
X163750952Y-100934819D02*
X163655714Y-100934819D01*
X164465238Y-100030057D02*
X164512857Y-99982438D01*
X164512857Y-99982438D02*
X164608095Y-99934819D01*
X164608095Y-99934819D02*
X164846190Y-99934819D01*
X164846190Y-99934819D02*
X164941428Y-99982438D01*
X164941428Y-99982438D02*
X164989047Y-100030057D01*
X164989047Y-100030057D02*
X165036666Y-100125295D01*
X165036666Y-100125295D02*
X165036666Y-100220533D01*
X165036666Y-100220533D02*
X164989047Y-100363390D01*
X164989047Y-100363390D02*
X164417619Y-100934819D01*
X164417619Y-100934819D02*
X165036666Y-100934819D01*
X160503333Y-63379580D02*
X160455714Y-63427200D01*
X160455714Y-63427200D02*
X160312857Y-63474819D01*
X160312857Y-63474819D02*
X160217619Y-63474819D01*
X160217619Y-63474819D02*
X160074762Y-63427200D01*
X160074762Y-63427200D02*
X159979524Y-63331961D01*
X159979524Y-63331961D02*
X159931905Y-63236723D01*
X159931905Y-63236723D02*
X159884286Y-63046247D01*
X159884286Y-63046247D02*
X159884286Y-62903390D01*
X159884286Y-62903390D02*
X159931905Y-62712914D01*
X159931905Y-62712914D02*
X159979524Y-62617676D01*
X159979524Y-62617676D02*
X160074762Y-62522438D01*
X160074762Y-62522438D02*
X160217619Y-62474819D01*
X160217619Y-62474819D02*
X160312857Y-62474819D01*
X160312857Y-62474819D02*
X160455714Y-62522438D01*
X160455714Y-62522438D02*
X160503333Y-62570057D01*
X161360476Y-62474819D02*
X161170000Y-62474819D01*
X161170000Y-62474819D02*
X161074762Y-62522438D01*
X161074762Y-62522438D02*
X161027143Y-62570057D01*
X161027143Y-62570057D02*
X160931905Y-62712914D01*
X160931905Y-62712914D02*
X160884286Y-62903390D01*
X160884286Y-62903390D02*
X160884286Y-63284342D01*
X160884286Y-63284342D02*
X160931905Y-63379580D01*
X160931905Y-63379580D02*
X160979524Y-63427200D01*
X160979524Y-63427200D02*
X161074762Y-63474819D01*
X161074762Y-63474819D02*
X161265238Y-63474819D01*
X161265238Y-63474819D02*
X161360476Y-63427200D01*
X161360476Y-63427200D02*
X161408095Y-63379580D01*
X161408095Y-63379580D02*
X161455714Y-63284342D01*
X161455714Y-63284342D02*
X161455714Y-63046247D01*
X161455714Y-63046247D02*
X161408095Y-62951009D01*
X161408095Y-62951009D02*
X161360476Y-62903390D01*
X161360476Y-62903390D02*
X161265238Y-62855771D01*
X161265238Y-62855771D02*
X161074762Y-62855771D01*
X161074762Y-62855771D02*
X160979524Y-62903390D01*
X160979524Y-62903390D02*
X160931905Y-62951009D01*
X160931905Y-62951009D02*
X160884286Y-63046247D01*
X173753333Y-94629580D02*
X173705714Y-94677200D01*
X173705714Y-94677200D02*
X173562857Y-94724819D01*
X173562857Y-94724819D02*
X173467619Y-94724819D01*
X173467619Y-94724819D02*
X173324762Y-94677200D01*
X173324762Y-94677200D02*
X173229524Y-94581961D01*
X173229524Y-94581961D02*
X173181905Y-94486723D01*
X173181905Y-94486723D02*
X173134286Y-94296247D01*
X173134286Y-94296247D02*
X173134286Y-94153390D01*
X173134286Y-94153390D02*
X173181905Y-93962914D01*
X173181905Y-93962914D02*
X173229524Y-93867676D01*
X173229524Y-93867676D02*
X173324762Y-93772438D01*
X173324762Y-93772438D02*
X173467619Y-93724819D01*
X173467619Y-93724819D02*
X173562857Y-93724819D01*
X173562857Y-93724819D02*
X173705714Y-93772438D01*
X173705714Y-93772438D02*
X173753333Y-93820057D01*
X174086667Y-93724819D02*
X174753333Y-93724819D01*
X174753333Y-93724819D02*
X174324762Y-94724819D01*
D11*
X178680237Y-90344318D02*
X178680237Y-89074318D01*
X180010714Y-90223365D02*
X179950238Y-90283842D01*
X179950238Y-90283842D02*
X179768809Y-90344318D01*
X179768809Y-90344318D02*
X179647857Y-90344318D01*
X179647857Y-90344318D02*
X179466428Y-90283842D01*
X179466428Y-90283842D02*
X179345476Y-90162889D01*
X179345476Y-90162889D02*
X179284999Y-90041937D01*
X179284999Y-90041937D02*
X179224523Y-89800032D01*
X179224523Y-89800032D02*
X179224523Y-89618603D01*
X179224523Y-89618603D02*
X179284999Y-89376699D01*
X179284999Y-89376699D02*
X179345476Y-89255746D01*
X179345476Y-89255746D02*
X179466428Y-89134794D01*
X179466428Y-89134794D02*
X179647857Y-89074318D01*
X179647857Y-89074318D02*
X179768809Y-89074318D01*
X179768809Y-89074318D02*
X179950238Y-89134794D01*
X179950238Y-89134794D02*
X180010714Y-89195270D01*
X181220238Y-90344318D02*
X180494523Y-90344318D01*
X180857380Y-90344318D02*
X180857380Y-89074318D01*
X180857380Y-89074318D02*
X180736428Y-89255746D01*
X180736428Y-89255746D02*
X180615476Y-89376699D01*
X180615476Y-89376699D02*
X180494523Y-89437175D01*
D10*
X155336666Y-68504819D02*
X155336666Y-69219104D01*
X155336666Y-69219104D02*
X155289047Y-69361961D01*
X155289047Y-69361961D02*
X155193809Y-69457200D01*
X155193809Y-69457200D02*
X155050952Y-69504819D01*
X155050952Y-69504819D02*
X154955714Y-69504819D01*
X155717619Y-68504819D02*
X156336666Y-68504819D01*
X156336666Y-68504819D02*
X156003333Y-68885771D01*
X156003333Y-68885771D02*
X156146190Y-68885771D01*
X156146190Y-68885771D02*
X156241428Y-68933390D01*
X156241428Y-68933390D02*
X156289047Y-68981009D01*
X156289047Y-68981009D02*
X156336666Y-69076247D01*
X156336666Y-69076247D02*
X156336666Y-69314342D01*
X156336666Y-69314342D02*
X156289047Y-69409580D01*
X156289047Y-69409580D02*
X156241428Y-69457200D01*
X156241428Y-69457200D02*
X156146190Y-69504819D01*
X156146190Y-69504819D02*
X155860476Y-69504819D01*
X155860476Y-69504819D02*
X155765238Y-69457200D01*
X155765238Y-69457200D02*
X155717619Y-69409580D01*
X129936666Y-68504819D02*
X129936666Y-69219104D01*
X129936666Y-69219104D02*
X129889047Y-69361961D01*
X129889047Y-69361961D02*
X129793809Y-69457200D01*
X129793809Y-69457200D02*
X129650952Y-69504819D01*
X129650952Y-69504819D02*
X129555714Y-69504819D01*
X130841428Y-68838152D02*
X130841428Y-69504819D01*
X130603333Y-68457200D02*
X130365238Y-69171485D01*
X130365238Y-69171485D02*
X130984285Y-69171485D01*
X137908095Y-85974819D02*
X137908095Y-86784342D01*
X137908095Y-86784342D02*
X137955714Y-86879580D01*
X137955714Y-86879580D02*
X138003333Y-86927200D01*
X138003333Y-86927200D02*
X138098571Y-86974819D01*
X138098571Y-86974819D02*
X138289047Y-86974819D01*
X138289047Y-86974819D02*
X138384285Y-86927200D01*
X138384285Y-86927200D02*
X138431904Y-86879580D01*
X138431904Y-86879580D02*
X138479523Y-86784342D01*
X138479523Y-86784342D02*
X138479523Y-85974819D01*
X139479523Y-86974819D02*
X138908095Y-86974819D01*
X139193809Y-86974819D02*
X139193809Y-85974819D01*
X139193809Y-85974819D02*
X139098571Y-86117676D01*
X139098571Y-86117676D02*
X139003333Y-86212914D01*
X139003333Y-86212914D02*
X138908095Y-86260533D01*
X142208095Y-63904819D02*
X142208095Y-64714342D01*
X142208095Y-64714342D02*
X142255714Y-64809580D01*
X142255714Y-64809580D02*
X142303333Y-64857200D01*
X142303333Y-64857200D02*
X142398571Y-64904819D01*
X142398571Y-64904819D02*
X142589047Y-64904819D01*
X142589047Y-64904819D02*
X142684285Y-64857200D01*
X142684285Y-64857200D02*
X142731904Y-64809580D01*
X142731904Y-64809580D02*
X142779523Y-64714342D01*
X142779523Y-64714342D02*
X142779523Y-63904819D01*
X143208095Y-64000057D02*
X143255714Y-63952438D01*
X143255714Y-63952438D02*
X143350952Y-63904819D01*
X143350952Y-63904819D02*
X143589047Y-63904819D01*
X143589047Y-63904819D02*
X143684285Y-63952438D01*
X143684285Y-63952438D02*
X143731904Y-64000057D01*
X143731904Y-64000057D02*
X143779523Y-64095295D01*
X143779523Y-64095295D02*
X143779523Y-64190533D01*
X143779523Y-64190533D02*
X143731904Y-64333390D01*
X143731904Y-64333390D02*
X143160476Y-64904819D01*
X143160476Y-64904819D02*
X143779523Y-64904819D01*
X141336667Y-78177200D02*
X141479524Y-78224819D01*
X141479524Y-78224819D02*
X141717619Y-78224819D01*
X141717619Y-78224819D02*
X141812857Y-78177200D01*
X141812857Y-78177200D02*
X141860476Y-78129580D01*
X141860476Y-78129580D02*
X141908095Y-78034342D01*
X141908095Y-78034342D02*
X141908095Y-77939104D01*
X141908095Y-77939104D02*
X141860476Y-77843866D01*
X141860476Y-77843866D02*
X141812857Y-77796247D01*
X141812857Y-77796247D02*
X141717619Y-77748628D01*
X141717619Y-77748628D02*
X141527143Y-77701009D01*
X141527143Y-77701009D02*
X141431905Y-77653390D01*
X141431905Y-77653390D02*
X141384286Y-77605771D01*
X141384286Y-77605771D02*
X141336667Y-77510533D01*
X141336667Y-77510533D02*
X141336667Y-77415295D01*
X141336667Y-77415295D02*
X141384286Y-77320057D01*
X141384286Y-77320057D02*
X141431905Y-77272438D01*
X141431905Y-77272438D02*
X141527143Y-77224819D01*
X141527143Y-77224819D02*
X141765238Y-77224819D01*
X141765238Y-77224819D02*
X141908095Y-77272438D01*
X142241429Y-77224819D02*
X142479524Y-78224819D01*
X142479524Y-78224819D02*
X142670000Y-77510533D01*
X142670000Y-77510533D02*
X142860476Y-78224819D01*
X142860476Y-78224819D02*
X143098572Y-77224819D01*
X144003333Y-78224819D02*
X143431905Y-78224819D01*
X143717619Y-78224819D02*
X143717619Y-77224819D01*
X143717619Y-77224819D02*
X143622381Y-77367676D01*
X143622381Y-77367676D02*
X143527143Y-77462914D01*
X143527143Y-77462914D02*
X143431905Y-77510533D01*
X150236666Y-100214819D02*
X150236666Y-100929104D01*
X150236666Y-100929104D02*
X150189047Y-101071961D01*
X150189047Y-101071961D02*
X150093809Y-101167200D01*
X150093809Y-101167200D02*
X149950952Y-101214819D01*
X149950952Y-101214819D02*
X149855714Y-101214819D01*
X151236666Y-101214819D02*
X150665238Y-101214819D01*
X150950952Y-101214819D02*
X150950952Y-100214819D01*
X150950952Y-100214819D02*
X150855714Y-100357676D01*
X150855714Y-100357676D02*
X150760476Y-100452914D01*
X150760476Y-100452914D02*
X150665238Y-100500533D01*
X144753333Y-92129580D02*
X144705714Y-92177200D01*
X144705714Y-92177200D02*
X144562857Y-92224819D01*
X144562857Y-92224819D02*
X144467619Y-92224819D01*
X144467619Y-92224819D02*
X144324762Y-92177200D01*
X144324762Y-92177200D02*
X144229524Y-92081961D01*
X144229524Y-92081961D02*
X144181905Y-91986723D01*
X144181905Y-91986723D02*
X144134286Y-91796247D01*
X144134286Y-91796247D02*
X144134286Y-91653390D01*
X144134286Y-91653390D02*
X144181905Y-91462914D01*
X144181905Y-91462914D02*
X144229524Y-91367676D01*
X144229524Y-91367676D02*
X144324762Y-91272438D01*
X144324762Y-91272438D02*
X144467619Y-91224819D01*
X144467619Y-91224819D02*
X144562857Y-91224819D01*
X144562857Y-91224819D02*
X144705714Y-91272438D01*
X144705714Y-91272438D02*
X144753333Y-91320057D01*
X145324762Y-91653390D02*
X145229524Y-91605771D01*
X145229524Y-91605771D02*
X145181905Y-91558152D01*
X145181905Y-91558152D02*
X145134286Y-91462914D01*
X145134286Y-91462914D02*
X145134286Y-91415295D01*
X145134286Y-91415295D02*
X145181905Y-91320057D01*
X145181905Y-91320057D02*
X145229524Y-91272438D01*
X145229524Y-91272438D02*
X145324762Y-91224819D01*
X145324762Y-91224819D02*
X145515238Y-91224819D01*
X145515238Y-91224819D02*
X145610476Y-91272438D01*
X145610476Y-91272438D02*
X145658095Y-91320057D01*
X145658095Y-91320057D02*
X145705714Y-91415295D01*
X145705714Y-91415295D02*
X145705714Y-91462914D01*
X145705714Y-91462914D02*
X145658095Y-91558152D01*
X145658095Y-91558152D02*
X145610476Y-91605771D01*
X145610476Y-91605771D02*
X145515238Y-91653390D01*
X145515238Y-91653390D02*
X145324762Y-91653390D01*
X145324762Y-91653390D02*
X145229524Y-91701009D01*
X145229524Y-91701009D02*
X145181905Y-91748628D01*
X145181905Y-91748628D02*
X145134286Y-91843866D01*
X145134286Y-91843866D02*
X145134286Y-92034342D01*
X145134286Y-92034342D02*
X145181905Y-92129580D01*
X145181905Y-92129580D02*
X145229524Y-92177200D01*
X145229524Y-92177200D02*
X145324762Y-92224819D01*
X145324762Y-92224819D02*
X145515238Y-92224819D01*
X145515238Y-92224819D02*
X145610476Y-92177200D01*
X145610476Y-92177200D02*
X145658095Y-92129580D01*
X145658095Y-92129580D02*
X145705714Y-92034342D01*
X145705714Y-92034342D02*
X145705714Y-91843866D01*
X145705714Y-91843866D02*
X145658095Y-91748628D01*
X145658095Y-91748628D02*
X145610476Y-91701009D01*
X145610476Y-91701009D02*
X145515238Y-91653390D01*
X135036666Y-99934819D02*
X135036666Y-100649104D01*
X135036666Y-100649104D02*
X134989047Y-100791961D01*
X134989047Y-100791961D02*
X134893809Y-100887200D01*
X134893809Y-100887200D02*
X134750952Y-100934819D01*
X134750952Y-100934819D02*
X134655714Y-100934819D01*
X135465238Y-100030057D02*
X135512857Y-99982438D01*
X135512857Y-99982438D02*
X135608095Y-99934819D01*
X135608095Y-99934819D02*
X135846190Y-99934819D01*
X135846190Y-99934819D02*
X135941428Y-99982438D01*
X135941428Y-99982438D02*
X135989047Y-100030057D01*
X135989047Y-100030057D02*
X136036666Y-100125295D01*
X136036666Y-100125295D02*
X136036666Y-100220533D01*
X136036666Y-100220533D02*
X135989047Y-100363390D01*
X135989047Y-100363390D02*
X135417619Y-100934819D01*
X135417619Y-100934819D02*
X136036666Y-100934819D01*
X131503333Y-63379580D02*
X131455714Y-63427200D01*
X131455714Y-63427200D02*
X131312857Y-63474819D01*
X131312857Y-63474819D02*
X131217619Y-63474819D01*
X131217619Y-63474819D02*
X131074762Y-63427200D01*
X131074762Y-63427200D02*
X130979524Y-63331961D01*
X130979524Y-63331961D02*
X130931905Y-63236723D01*
X130931905Y-63236723D02*
X130884286Y-63046247D01*
X130884286Y-63046247D02*
X130884286Y-62903390D01*
X130884286Y-62903390D02*
X130931905Y-62712914D01*
X130931905Y-62712914D02*
X130979524Y-62617676D01*
X130979524Y-62617676D02*
X131074762Y-62522438D01*
X131074762Y-62522438D02*
X131217619Y-62474819D01*
X131217619Y-62474819D02*
X131312857Y-62474819D01*
X131312857Y-62474819D02*
X131455714Y-62522438D01*
X131455714Y-62522438D02*
X131503333Y-62570057D01*
X132360476Y-62474819D02*
X132170000Y-62474819D01*
X132170000Y-62474819D02*
X132074762Y-62522438D01*
X132074762Y-62522438D02*
X132027143Y-62570057D01*
X132027143Y-62570057D02*
X131931905Y-62712914D01*
X131931905Y-62712914D02*
X131884286Y-62903390D01*
X131884286Y-62903390D02*
X131884286Y-63284342D01*
X131884286Y-63284342D02*
X131931905Y-63379580D01*
X131931905Y-63379580D02*
X131979524Y-63427200D01*
X131979524Y-63427200D02*
X132074762Y-63474819D01*
X132074762Y-63474819D02*
X132265238Y-63474819D01*
X132265238Y-63474819D02*
X132360476Y-63427200D01*
X132360476Y-63427200D02*
X132408095Y-63379580D01*
X132408095Y-63379580D02*
X132455714Y-63284342D01*
X132455714Y-63284342D02*
X132455714Y-63046247D01*
X132455714Y-63046247D02*
X132408095Y-62951009D01*
X132408095Y-62951009D02*
X132360476Y-62903390D01*
X132360476Y-62903390D02*
X132265238Y-62855771D01*
X132265238Y-62855771D02*
X132074762Y-62855771D01*
X132074762Y-62855771D02*
X131979524Y-62903390D01*
X131979524Y-62903390D02*
X131931905Y-62951009D01*
X131931905Y-62951009D02*
X131884286Y-63046247D01*
X144753333Y-94629580D02*
X144705714Y-94677200D01*
X144705714Y-94677200D02*
X144562857Y-94724819D01*
X144562857Y-94724819D02*
X144467619Y-94724819D01*
X144467619Y-94724819D02*
X144324762Y-94677200D01*
X144324762Y-94677200D02*
X144229524Y-94581961D01*
X144229524Y-94581961D02*
X144181905Y-94486723D01*
X144181905Y-94486723D02*
X144134286Y-94296247D01*
X144134286Y-94296247D02*
X144134286Y-94153390D01*
X144134286Y-94153390D02*
X144181905Y-93962914D01*
X144181905Y-93962914D02*
X144229524Y-93867676D01*
X144229524Y-93867676D02*
X144324762Y-93772438D01*
X144324762Y-93772438D02*
X144467619Y-93724819D01*
X144467619Y-93724819D02*
X144562857Y-93724819D01*
X144562857Y-93724819D02*
X144705714Y-93772438D01*
X144705714Y-93772438D02*
X144753333Y-93820057D01*
X145086667Y-93724819D02*
X145753333Y-93724819D01*
X145753333Y-93724819D02*
X145324762Y-94724819D01*
D11*
X149680237Y-90344318D02*
X149680237Y-89074318D01*
X151010714Y-90223365D02*
X150950238Y-90283842D01*
X150950238Y-90283842D02*
X150768809Y-90344318D01*
X150768809Y-90344318D02*
X150647857Y-90344318D01*
X150647857Y-90344318D02*
X150466428Y-90283842D01*
X150466428Y-90283842D02*
X150345476Y-90162889D01*
X150345476Y-90162889D02*
X150284999Y-90041937D01*
X150284999Y-90041937D02*
X150224523Y-89800032D01*
X150224523Y-89800032D02*
X150224523Y-89618603D01*
X150224523Y-89618603D02*
X150284999Y-89376699D01*
X150284999Y-89376699D02*
X150345476Y-89255746D01*
X150345476Y-89255746D02*
X150466428Y-89134794D01*
X150466428Y-89134794D02*
X150647857Y-89074318D01*
X150647857Y-89074318D02*
X150768809Y-89074318D01*
X150768809Y-89074318D02*
X150950238Y-89134794D01*
X150950238Y-89134794D02*
X151010714Y-89195270D01*
X152220238Y-90344318D02*
X151494523Y-90344318D01*
X151857380Y-90344318D02*
X151857380Y-89074318D01*
X151857380Y-89074318D02*
X151736428Y-89255746D01*
X151736428Y-89255746D02*
X151615476Y-89376699D01*
X151615476Y-89376699D02*
X151494523Y-89437175D01*
D10*
X126336666Y-68504819D02*
X126336666Y-69219104D01*
X126336666Y-69219104D02*
X126289047Y-69361961D01*
X126289047Y-69361961D02*
X126193809Y-69457200D01*
X126193809Y-69457200D02*
X126050952Y-69504819D01*
X126050952Y-69504819D02*
X125955714Y-69504819D01*
X126717619Y-68504819D02*
X127336666Y-68504819D01*
X127336666Y-68504819D02*
X127003333Y-68885771D01*
X127003333Y-68885771D02*
X127146190Y-68885771D01*
X127146190Y-68885771D02*
X127241428Y-68933390D01*
X127241428Y-68933390D02*
X127289047Y-68981009D01*
X127289047Y-68981009D02*
X127336666Y-69076247D01*
X127336666Y-69076247D02*
X127336666Y-69314342D01*
X127336666Y-69314342D02*
X127289047Y-69409580D01*
X127289047Y-69409580D02*
X127241428Y-69457200D01*
X127241428Y-69457200D02*
X127146190Y-69504819D01*
X127146190Y-69504819D02*
X126860476Y-69504819D01*
X126860476Y-69504819D02*
X126765238Y-69457200D01*
X126765238Y-69457200D02*
X126717619Y-69409580D01*
X100936666Y-68504819D02*
X100936666Y-69219104D01*
X100936666Y-69219104D02*
X100889047Y-69361961D01*
X100889047Y-69361961D02*
X100793809Y-69457200D01*
X100793809Y-69457200D02*
X100650952Y-69504819D01*
X100650952Y-69504819D02*
X100555714Y-69504819D01*
X101841428Y-68838152D02*
X101841428Y-69504819D01*
X101603333Y-68457200D02*
X101365238Y-69171485D01*
X101365238Y-69171485D02*
X101984285Y-69171485D01*
X108908095Y-85974819D02*
X108908095Y-86784342D01*
X108908095Y-86784342D02*
X108955714Y-86879580D01*
X108955714Y-86879580D02*
X109003333Y-86927200D01*
X109003333Y-86927200D02*
X109098571Y-86974819D01*
X109098571Y-86974819D02*
X109289047Y-86974819D01*
X109289047Y-86974819D02*
X109384285Y-86927200D01*
X109384285Y-86927200D02*
X109431904Y-86879580D01*
X109431904Y-86879580D02*
X109479523Y-86784342D01*
X109479523Y-86784342D02*
X109479523Y-85974819D01*
X110479523Y-86974819D02*
X109908095Y-86974819D01*
X110193809Y-86974819D02*
X110193809Y-85974819D01*
X110193809Y-85974819D02*
X110098571Y-86117676D01*
X110098571Y-86117676D02*
X110003333Y-86212914D01*
X110003333Y-86212914D02*
X109908095Y-86260533D01*
X113208095Y-63904819D02*
X113208095Y-64714342D01*
X113208095Y-64714342D02*
X113255714Y-64809580D01*
X113255714Y-64809580D02*
X113303333Y-64857200D01*
X113303333Y-64857200D02*
X113398571Y-64904819D01*
X113398571Y-64904819D02*
X113589047Y-64904819D01*
X113589047Y-64904819D02*
X113684285Y-64857200D01*
X113684285Y-64857200D02*
X113731904Y-64809580D01*
X113731904Y-64809580D02*
X113779523Y-64714342D01*
X113779523Y-64714342D02*
X113779523Y-63904819D01*
X114208095Y-64000057D02*
X114255714Y-63952438D01*
X114255714Y-63952438D02*
X114350952Y-63904819D01*
X114350952Y-63904819D02*
X114589047Y-63904819D01*
X114589047Y-63904819D02*
X114684285Y-63952438D01*
X114684285Y-63952438D02*
X114731904Y-64000057D01*
X114731904Y-64000057D02*
X114779523Y-64095295D01*
X114779523Y-64095295D02*
X114779523Y-64190533D01*
X114779523Y-64190533D02*
X114731904Y-64333390D01*
X114731904Y-64333390D02*
X114160476Y-64904819D01*
X114160476Y-64904819D02*
X114779523Y-64904819D01*
X112336667Y-78177200D02*
X112479524Y-78224819D01*
X112479524Y-78224819D02*
X112717619Y-78224819D01*
X112717619Y-78224819D02*
X112812857Y-78177200D01*
X112812857Y-78177200D02*
X112860476Y-78129580D01*
X112860476Y-78129580D02*
X112908095Y-78034342D01*
X112908095Y-78034342D02*
X112908095Y-77939104D01*
X112908095Y-77939104D02*
X112860476Y-77843866D01*
X112860476Y-77843866D02*
X112812857Y-77796247D01*
X112812857Y-77796247D02*
X112717619Y-77748628D01*
X112717619Y-77748628D02*
X112527143Y-77701009D01*
X112527143Y-77701009D02*
X112431905Y-77653390D01*
X112431905Y-77653390D02*
X112384286Y-77605771D01*
X112384286Y-77605771D02*
X112336667Y-77510533D01*
X112336667Y-77510533D02*
X112336667Y-77415295D01*
X112336667Y-77415295D02*
X112384286Y-77320057D01*
X112384286Y-77320057D02*
X112431905Y-77272438D01*
X112431905Y-77272438D02*
X112527143Y-77224819D01*
X112527143Y-77224819D02*
X112765238Y-77224819D01*
X112765238Y-77224819D02*
X112908095Y-77272438D01*
X113241429Y-77224819D02*
X113479524Y-78224819D01*
X113479524Y-78224819D02*
X113670000Y-77510533D01*
X113670000Y-77510533D02*
X113860476Y-78224819D01*
X113860476Y-78224819D02*
X114098572Y-77224819D01*
X115003333Y-78224819D02*
X114431905Y-78224819D01*
X114717619Y-78224819D02*
X114717619Y-77224819D01*
X114717619Y-77224819D02*
X114622381Y-77367676D01*
X114622381Y-77367676D02*
X114527143Y-77462914D01*
X114527143Y-77462914D02*
X114431905Y-77510533D01*
X121236666Y-100214819D02*
X121236666Y-100929104D01*
X121236666Y-100929104D02*
X121189047Y-101071961D01*
X121189047Y-101071961D02*
X121093809Y-101167200D01*
X121093809Y-101167200D02*
X120950952Y-101214819D01*
X120950952Y-101214819D02*
X120855714Y-101214819D01*
X122236666Y-101214819D02*
X121665238Y-101214819D01*
X121950952Y-101214819D02*
X121950952Y-100214819D01*
X121950952Y-100214819D02*
X121855714Y-100357676D01*
X121855714Y-100357676D02*
X121760476Y-100452914D01*
X121760476Y-100452914D02*
X121665238Y-100500533D01*
X115753333Y-92129580D02*
X115705714Y-92177200D01*
X115705714Y-92177200D02*
X115562857Y-92224819D01*
X115562857Y-92224819D02*
X115467619Y-92224819D01*
X115467619Y-92224819D02*
X115324762Y-92177200D01*
X115324762Y-92177200D02*
X115229524Y-92081961D01*
X115229524Y-92081961D02*
X115181905Y-91986723D01*
X115181905Y-91986723D02*
X115134286Y-91796247D01*
X115134286Y-91796247D02*
X115134286Y-91653390D01*
X115134286Y-91653390D02*
X115181905Y-91462914D01*
X115181905Y-91462914D02*
X115229524Y-91367676D01*
X115229524Y-91367676D02*
X115324762Y-91272438D01*
X115324762Y-91272438D02*
X115467619Y-91224819D01*
X115467619Y-91224819D02*
X115562857Y-91224819D01*
X115562857Y-91224819D02*
X115705714Y-91272438D01*
X115705714Y-91272438D02*
X115753333Y-91320057D01*
X116324762Y-91653390D02*
X116229524Y-91605771D01*
X116229524Y-91605771D02*
X116181905Y-91558152D01*
X116181905Y-91558152D02*
X116134286Y-91462914D01*
X116134286Y-91462914D02*
X116134286Y-91415295D01*
X116134286Y-91415295D02*
X116181905Y-91320057D01*
X116181905Y-91320057D02*
X116229524Y-91272438D01*
X116229524Y-91272438D02*
X116324762Y-91224819D01*
X116324762Y-91224819D02*
X116515238Y-91224819D01*
X116515238Y-91224819D02*
X116610476Y-91272438D01*
X116610476Y-91272438D02*
X116658095Y-91320057D01*
X116658095Y-91320057D02*
X116705714Y-91415295D01*
X116705714Y-91415295D02*
X116705714Y-91462914D01*
X116705714Y-91462914D02*
X116658095Y-91558152D01*
X116658095Y-91558152D02*
X116610476Y-91605771D01*
X116610476Y-91605771D02*
X116515238Y-91653390D01*
X116515238Y-91653390D02*
X116324762Y-91653390D01*
X116324762Y-91653390D02*
X116229524Y-91701009D01*
X116229524Y-91701009D02*
X116181905Y-91748628D01*
X116181905Y-91748628D02*
X116134286Y-91843866D01*
X116134286Y-91843866D02*
X116134286Y-92034342D01*
X116134286Y-92034342D02*
X116181905Y-92129580D01*
X116181905Y-92129580D02*
X116229524Y-92177200D01*
X116229524Y-92177200D02*
X116324762Y-92224819D01*
X116324762Y-92224819D02*
X116515238Y-92224819D01*
X116515238Y-92224819D02*
X116610476Y-92177200D01*
X116610476Y-92177200D02*
X116658095Y-92129580D01*
X116658095Y-92129580D02*
X116705714Y-92034342D01*
X116705714Y-92034342D02*
X116705714Y-91843866D01*
X116705714Y-91843866D02*
X116658095Y-91748628D01*
X116658095Y-91748628D02*
X116610476Y-91701009D01*
X116610476Y-91701009D02*
X116515238Y-91653390D01*
X106036666Y-99934819D02*
X106036666Y-100649104D01*
X106036666Y-100649104D02*
X105989047Y-100791961D01*
X105989047Y-100791961D02*
X105893809Y-100887200D01*
X105893809Y-100887200D02*
X105750952Y-100934819D01*
X105750952Y-100934819D02*
X105655714Y-100934819D01*
X106465238Y-100030057D02*
X106512857Y-99982438D01*
X106512857Y-99982438D02*
X106608095Y-99934819D01*
X106608095Y-99934819D02*
X106846190Y-99934819D01*
X106846190Y-99934819D02*
X106941428Y-99982438D01*
X106941428Y-99982438D02*
X106989047Y-100030057D01*
X106989047Y-100030057D02*
X107036666Y-100125295D01*
X107036666Y-100125295D02*
X107036666Y-100220533D01*
X107036666Y-100220533D02*
X106989047Y-100363390D01*
X106989047Y-100363390D02*
X106417619Y-100934819D01*
X106417619Y-100934819D02*
X107036666Y-100934819D01*
X102503333Y-63379580D02*
X102455714Y-63427200D01*
X102455714Y-63427200D02*
X102312857Y-63474819D01*
X102312857Y-63474819D02*
X102217619Y-63474819D01*
X102217619Y-63474819D02*
X102074762Y-63427200D01*
X102074762Y-63427200D02*
X101979524Y-63331961D01*
X101979524Y-63331961D02*
X101931905Y-63236723D01*
X101931905Y-63236723D02*
X101884286Y-63046247D01*
X101884286Y-63046247D02*
X101884286Y-62903390D01*
X101884286Y-62903390D02*
X101931905Y-62712914D01*
X101931905Y-62712914D02*
X101979524Y-62617676D01*
X101979524Y-62617676D02*
X102074762Y-62522438D01*
X102074762Y-62522438D02*
X102217619Y-62474819D01*
X102217619Y-62474819D02*
X102312857Y-62474819D01*
X102312857Y-62474819D02*
X102455714Y-62522438D01*
X102455714Y-62522438D02*
X102503333Y-62570057D01*
X103360476Y-62474819D02*
X103170000Y-62474819D01*
X103170000Y-62474819D02*
X103074762Y-62522438D01*
X103074762Y-62522438D02*
X103027143Y-62570057D01*
X103027143Y-62570057D02*
X102931905Y-62712914D01*
X102931905Y-62712914D02*
X102884286Y-62903390D01*
X102884286Y-62903390D02*
X102884286Y-63284342D01*
X102884286Y-63284342D02*
X102931905Y-63379580D01*
X102931905Y-63379580D02*
X102979524Y-63427200D01*
X102979524Y-63427200D02*
X103074762Y-63474819D01*
X103074762Y-63474819D02*
X103265238Y-63474819D01*
X103265238Y-63474819D02*
X103360476Y-63427200D01*
X103360476Y-63427200D02*
X103408095Y-63379580D01*
X103408095Y-63379580D02*
X103455714Y-63284342D01*
X103455714Y-63284342D02*
X103455714Y-63046247D01*
X103455714Y-63046247D02*
X103408095Y-62951009D01*
X103408095Y-62951009D02*
X103360476Y-62903390D01*
X103360476Y-62903390D02*
X103265238Y-62855771D01*
X103265238Y-62855771D02*
X103074762Y-62855771D01*
X103074762Y-62855771D02*
X102979524Y-62903390D01*
X102979524Y-62903390D02*
X102931905Y-62951009D01*
X102931905Y-62951009D02*
X102884286Y-63046247D01*
X115753333Y-94629580D02*
X115705714Y-94677200D01*
X115705714Y-94677200D02*
X115562857Y-94724819D01*
X115562857Y-94724819D02*
X115467619Y-94724819D01*
X115467619Y-94724819D02*
X115324762Y-94677200D01*
X115324762Y-94677200D02*
X115229524Y-94581961D01*
X115229524Y-94581961D02*
X115181905Y-94486723D01*
X115181905Y-94486723D02*
X115134286Y-94296247D01*
X115134286Y-94296247D02*
X115134286Y-94153390D01*
X115134286Y-94153390D02*
X115181905Y-93962914D01*
X115181905Y-93962914D02*
X115229524Y-93867676D01*
X115229524Y-93867676D02*
X115324762Y-93772438D01*
X115324762Y-93772438D02*
X115467619Y-93724819D01*
X115467619Y-93724819D02*
X115562857Y-93724819D01*
X115562857Y-93724819D02*
X115705714Y-93772438D01*
X115705714Y-93772438D02*
X115753333Y-93820057D01*
X116086667Y-93724819D02*
X116753333Y-93724819D01*
X116753333Y-93724819D02*
X116324762Y-94724819D01*
D11*
X120680237Y-90344318D02*
X120680237Y-89074318D01*
X122010714Y-90223365D02*
X121950238Y-90283842D01*
X121950238Y-90283842D02*
X121768809Y-90344318D01*
X121768809Y-90344318D02*
X121647857Y-90344318D01*
X121647857Y-90344318D02*
X121466428Y-90283842D01*
X121466428Y-90283842D02*
X121345476Y-90162889D01*
X121345476Y-90162889D02*
X121284999Y-90041937D01*
X121284999Y-90041937D02*
X121224523Y-89800032D01*
X121224523Y-89800032D02*
X121224523Y-89618603D01*
X121224523Y-89618603D02*
X121284999Y-89376699D01*
X121284999Y-89376699D02*
X121345476Y-89255746D01*
X121345476Y-89255746D02*
X121466428Y-89134794D01*
X121466428Y-89134794D02*
X121647857Y-89074318D01*
X121647857Y-89074318D02*
X121768809Y-89074318D01*
X121768809Y-89074318D02*
X121950238Y-89134794D01*
X121950238Y-89134794D02*
X122010714Y-89195270D01*
X123220238Y-90344318D02*
X122494523Y-90344318D01*
X122857380Y-90344318D02*
X122857380Y-89074318D01*
X122857380Y-89074318D02*
X122736428Y-89255746D01*
X122736428Y-89255746D02*
X122615476Y-89376699D01*
X122615476Y-89376699D02*
X122494523Y-89437175D01*
D12*
%TO.C,J3*%
X160710000Y-138950000D02*
X159330000Y-138950000D01*
X160710000Y-137570000D02*
X160710000Y-138950000D01*
X160710000Y-136300000D02*
X160710000Y-115870000D01*
X160710000Y-136300000D02*
X157950000Y-136300000D01*
X160710000Y-115870000D02*
X157950000Y-115870000D01*
X157950000Y-136300000D02*
X157950000Y-115870000D01*
%TO.C,J4*%
X186110000Y-138950000D02*
X184730000Y-138950000D01*
X186110000Y-137570000D02*
X186110000Y-138950000D01*
X186110000Y-136300000D02*
X186110000Y-115870000D01*
X186110000Y-136300000D02*
X183350000Y-136300000D01*
X186110000Y-115870000D02*
X183350000Y-115870000D01*
X183350000Y-136300000D02*
X183350000Y-115870000D01*
%TO.C,U1*%
X181590000Y-126340000D02*
X181335000Y-126340000D01*
X181590000Y-118620000D02*
X181590000Y-126340000D01*
X181335000Y-118620000D02*
X181590000Y-118620000D01*
X171325000Y-126340000D02*
X171070000Y-126340000D01*
X171070000Y-126340000D02*
X171070000Y-118620000D01*
X171070000Y-118620000D02*
X171325000Y-118620000D01*
X181810000Y-118170000D02*
X181340000Y-117830000D01*
X181810000Y-117490000D01*
X181810000Y-118170000D01*
G36*
X181810000Y-118170000D02*
G01*
X181340000Y-117830000D01*
X181810000Y-117490000D01*
X181810000Y-118170000D01*
G37*
%TO.C,U2*%
X181140000Y-154690000D02*
X181140000Y-148880000D01*
X181140000Y-154690000D02*
X162920000Y-154690000D01*
X181140000Y-134770000D02*
X181140000Y-134470000D01*
X181140000Y-134470000D02*
X162920000Y-134470000D01*
X162920000Y-154690000D02*
X162920000Y-148190000D01*
X162920000Y-134770000D02*
X162920000Y-134470000D01*
X181130000Y-148680000D02*
X181130000Y-148180000D01*
X181630000Y-148180000D01*
X181130000Y-148680000D01*
G36*
X181130000Y-148680000D02*
G01*
X181130000Y-148180000D01*
X181630000Y-148180000D01*
X181130000Y-148680000D01*
G37*
D13*
%TO.C,SW1*%
X173560000Y-132830000D02*
X171100000Y-132830000D01*
X173560000Y-129630000D02*
X171100000Y-129630000D01*
D14*
X175648000Y-132360000D02*
G75*
G02*
X175448000Y-132360000I-100000J0D01*
G01*
X175448000Y-132360000D02*
G75*
G02*
X175648000Y-132360000I100000J0D01*
G01*
D12*
%TO.C,J1*%
X169100000Y-108340000D02*
X169100000Y-110040000D01*
X159760000Y-108340000D02*
X159760000Y-110040000D01*
%TO.C,C8*%
X167720580Y-117740000D02*
X167439420Y-117740000D01*
X167720580Y-116720000D02*
X167439420Y-116720000D01*
%TO.C,J2*%
X184300000Y-108330000D02*
X184300000Y-110030000D01*
X174960000Y-108330000D02*
X174960000Y-110030000D01*
%TO.C,C6*%
X183470580Y-147990000D02*
X183189420Y-147990000D01*
X183470580Y-146970000D02*
X183189420Y-146970000D01*
%TO.C,C7*%
X167720580Y-115240000D02*
X167439420Y-115240000D01*
X167720580Y-114220000D02*
X167439420Y-114220000D01*
D14*
%TO.C,IC1*%
X165594000Y-114105000D02*
X165594000Y-115355000D01*
X165528000Y-116255000D02*
X162632000Y-116255000D01*
X165528000Y-115705000D02*
X165528000Y-116255000D01*
X162632000Y-116255000D02*
X162632000Y-115705000D01*
X162632000Y-115705000D02*
X165528000Y-115705000D01*
D12*
%TO.C,J3*%
X131710000Y-138950000D02*
X130330000Y-138950000D01*
X131710000Y-137570000D02*
X131710000Y-138950000D01*
X131710000Y-136300000D02*
X131710000Y-115870000D01*
X131710000Y-136300000D02*
X128950000Y-136300000D01*
X131710000Y-115870000D02*
X128950000Y-115870000D01*
X128950000Y-136300000D02*
X128950000Y-115870000D01*
%TO.C,J4*%
X157110000Y-138950000D02*
X155730000Y-138950000D01*
X157110000Y-137570000D02*
X157110000Y-138950000D01*
X157110000Y-136300000D02*
X157110000Y-115870000D01*
X157110000Y-136300000D02*
X154350000Y-136300000D01*
X157110000Y-115870000D02*
X154350000Y-115870000D01*
X154350000Y-136300000D02*
X154350000Y-115870000D01*
%TO.C,U1*%
X152590000Y-126340000D02*
X152335000Y-126340000D01*
X152590000Y-118620000D02*
X152590000Y-126340000D01*
X152335000Y-118620000D02*
X152590000Y-118620000D01*
X142325000Y-126340000D02*
X142070000Y-126340000D01*
X142070000Y-126340000D02*
X142070000Y-118620000D01*
X142070000Y-118620000D02*
X142325000Y-118620000D01*
X152810000Y-118170000D02*
X152340000Y-117830000D01*
X152810000Y-117490000D01*
X152810000Y-118170000D01*
G36*
X152810000Y-118170000D02*
G01*
X152340000Y-117830000D01*
X152810000Y-117490000D01*
X152810000Y-118170000D01*
G37*
%TO.C,U2*%
X152140000Y-154690000D02*
X152140000Y-148880000D01*
X152140000Y-154690000D02*
X133920000Y-154690000D01*
X152140000Y-134770000D02*
X152140000Y-134470000D01*
X152140000Y-134470000D02*
X133920000Y-134470000D01*
X133920000Y-154690000D02*
X133920000Y-148190000D01*
X133920000Y-134770000D02*
X133920000Y-134470000D01*
X152130000Y-148680000D02*
X152130000Y-148180000D01*
X152630000Y-148180000D01*
X152130000Y-148680000D01*
G36*
X152130000Y-148680000D02*
G01*
X152130000Y-148180000D01*
X152630000Y-148180000D01*
X152130000Y-148680000D01*
G37*
D13*
%TO.C,SW1*%
X144560000Y-132830000D02*
X142100000Y-132830000D01*
X144560000Y-129630000D02*
X142100000Y-129630000D01*
D14*
X146648000Y-132360000D02*
G75*
G02*
X146448000Y-132360000I-100000J0D01*
G01*
X146448000Y-132360000D02*
G75*
G02*
X146648000Y-132360000I100000J0D01*
G01*
D12*
%TO.C,J1*%
X140100000Y-108340000D02*
X140100000Y-110040000D01*
X130760000Y-108340000D02*
X130760000Y-110040000D01*
%TO.C,C8*%
X138720580Y-117740000D02*
X138439420Y-117740000D01*
X138720580Y-116720000D02*
X138439420Y-116720000D01*
%TO.C,J2*%
X155300000Y-108330000D02*
X155300000Y-110030000D01*
X145960000Y-108330000D02*
X145960000Y-110030000D01*
%TO.C,C6*%
X154470580Y-147990000D02*
X154189420Y-147990000D01*
X154470580Y-146970000D02*
X154189420Y-146970000D01*
%TO.C,C7*%
X138720580Y-115240000D02*
X138439420Y-115240000D01*
X138720580Y-114220000D02*
X138439420Y-114220000D01*
D14*
%TO.C,IC1*%
X136594000Y-114105000D02*
X136594000Y-115355000D01*
X136528000Y-116255000D02*
X133632000Y-116255000D01*
X136528000Y-115705000D02*
X136528000Y-116255000D01*
X133632000Y-116255000D02*
X133632000Y-115705000D01*
X133632000Y-115705000D02*
X136528000Y-115705000D01*
D12*
%TO.C,J3*%
X102710000Y-138950000D02*
X101330000Y-138950000D01*
X102710000Y-137570000D02*
X102710000Y-138950000D01*
X102710000Y-136300000D02*
X102710000Y-115870000D01*
X102710000Y-136300000D02*
X99950000Y-136300000D01*
X102710000Y-115870000D02*
X99950000Y-115870000D01*
X99950000Y-136300000D02*
X99950000Y-115870000D01*
%TO.C,J4*%
X128110000Y-138950000D02*
X126730000Y-138950000D01*
X128110000Y-137570000D02*
X128110000Y-138950000D01*
X128110000Y-136300000D02*
X128110000Y-115870000D01*
X128110000Y-136300000D02*
X125350000Y-136300000D01*
X128110000Y-115870000D02*
X125350000Y-115870000D01*
X125350000Y-136300000D02*
X125350000Y-115870000D01*
%TO.C,U1*%
X123590000Y-126340000D02*
X123335000Y-126340000D01*
X123590000Y-118620000D02*
X123590000Y-126340000D01*
X123335000Y-118620000D02*
X123590000Y-118620000D01*
X113325000Y-126340000D02*
X113070000Y-126340000D01*
X113070000Y-126340000D02*
X113070000Y-118620000D01*
X113070000Y-118620000D02*
X113325000Y-118620000D01*
X123810000Y-118170000D02*
X123340000Y-117830000D01*
X123810000Y-117490000D01*
X123810000Y-118170000D01*
G36*
X123810000Y-118170000D02*
G01*
X123340000Y-117830000D01*
X123810000Y-117490000D01*
X123810000Y-118170000D01*
G37*
%TO.C,U2*%
X123140000Y-154690000D02*
X123140000Y-148880000D01*
X123140000Y-154690000D02*
X104920000Y-154690000D01*
X123140000Y-134770000D02*
X123140000Y-134470000D01*
X123140000Y-134470000D02*
X104920000Y-134470000D01*
X104920000Y-154690000D02*
X104920000Y-148190000D01*
X104920000Y-134770000D02*
X104920000Y-134470000D01*
X123130000Y-148680000D02*
X123130000Y-148180000D01*
X123630000Y-148180000D01*
X123130000Y-148680000D01*
G36*
X123130000Y-148680000D02*
G01*
X123130000Y-148180000D01*
X123630000Y-148180000D01*
X123130000Y-148680000D01*
G37*
D13*
%TO.C,SW1*%
X115560000Y-132830000D02*
X113100000Y-132830000D01*
X115560000Y-129630000D02*
X113100000Y-129630000D01*
D14*
X117648000Y-132360000D02*
G75*
G02*
X117448000Y-132360000I-100000J0D01*
G01*
X117448000Y-132360000D02*
G75*
G02*
X117648000Y-132360000I100000J0D01*
G01*
D12*
%TO.C,J1*%
X111100000Y-108340000D02*
X111100000Y-110040000D01*
X101760000Y-108340000D02*
X101760000Y-110040000D01*
%TO.C,C8*%
X109720580Y-117740000D02*
X109439420Y-117740000D01*
X109720580Y-116720000D02*
X109439420Y-116720000D01*
%TO.C,J2*%
X126300000Y-108330000D02*
X126300000Y-110030000D01*
X116960000Y-108330000D02*
X116960000Y-110030000D01*
%TO.C,C6*%
X125470580Y-147990000D02*
X125189420Y-147990000D01*
X125470580Y-146970000D02*
X125189420Y-146970000D01*
%TO.C,C7*%
X109720580Y-115240000D02*
X109439420Y-115240000D01*
X109720580Y-114220000D02*
X109439420Y-114220000D01*
D14*
%TO.C,IC1*%
X107594000Y-114105000D02*
X107594000Y-115355000D01*
X107528000Y-116255000D02*
X104632000Y-116255000D01*
X107528000Y-115705000D02*
X107528000Y-116255000D01*
X104632000Y-116255000D02*
X104632000Y-115705000D01*
X104632000Y-115705000D02*
X107528000Y-115705000D01*
D12*
%TO.C,J3*%
X183290000Y-70050000D02*
X184670000Y-70050000D01*
X183290000Y-71430000D02*
X183290000Y-70050000D01*
X183290000Y-72700000D02*
X183290000Y-93130000D01*
X183290000Y-72700000D02*
X186050000Y-72700000D01*
X183290000Y-93130000D02*
X186050000Y-93130000D01*
X186050000Y-72700000D02*
X186050000Y-93130000D01*
%TO.C,J4*%
X157890000Y-70050000D02*
X159270000Y-70050000D01*
X157890000Y-71430000D02*
X157890000Y-70050000D01*
X157890000Y-72700000D02*
X157890000Y-93130000D01*
X157890000Y-72700000D02*
X160650000Y-72700000D01*
X157890000Y-93130000D02*
X160650000Y-93130000D01*
X160650000Y-72700000D02*
X160650000Y-93130000D01*
%TO.C,U1*%
X162410000Y-82660000D02*
X162665000Y-82660000D01*
X162410000Y-90380000D02*
X162410000Y-82660000D01*
X162665000Y-90380000D02*
X162410000Y-90380000D01*
X172675000Y-82660000D02*
X172930000Y-82660000D01*
X172930000Y-82660000D02*
X172930000Y-90380000D01*
X172930000Y-90380000D02*
X172675000Y-90380000D01*
X162660000Y-91170000D02*
X162190000Y-91510000D01*
X162190000Y-90830000D01*
X162660000Y-91170000D01*
G36*
X162660000Y-91170000D02*
G01*
X162190000Y-91510000D01*
X162190000Y-90830000D01*
X162660000Y-91170000D01*
G37*
%TO.C,U2*%
X162860000Y-54310000D02*
X162860000Y-60120000D01*
X162860000Y-54310000D02*
X181080000Y-54310000D01*
X162860000Y-74230000D02*
X162860000Y-74530000D01*
X162860000Y-74530000D02*
X181080000Y-74530000D01*
X181080000Y-54310000D02*
X181080000Y-60810000D01*
X181080000Y-74230000D02*
X181080000Y-74530000D01*
X162870000Y-60820000D02*
X162370000Y-60820000D01*
X162870000Y-60320000D01*
X162870000Y-60820000D01*
G36*
X162870000Y-60820000D02*
G01*
X162370000Y-60820000D01*
X162870000Y-60320000D01*
X162870000Y-60820000D01*
G37*
D13*
%TO.C,SW1*%
X170440000Y-76170000D02*
X172900000Y-76170000D01*
X170440000Y-79370000D02*
X172900000Y-79370000D01*
D14*
X168552000Y-76640000D02*
G75*
G02*
X168352000Y-76640000I-100000J0D01*
G01*
X168352000Y-76640000D02*
G75*
G02*
X168552000Y-76640000I100000J0D01*
G01*
D12*
%TO.C,J1*%
X174900000Y-100660000D02*
X174900000Y-98960000D01*
X184240000Y-100660000D02*
X184240000Y-98960000D01*
%TO.C,C8*%
X176279420Y-91260000D02*
X176560580Y-91260000D01*
X176279420Y-92280000D02*
X176560580Y-92280000D01*
%TO.C,J2*%
X159700000Y-100670000D02*
X159700000Y-98970000D01*
X169040000Y-100670000D02*
X169040000Y-98970000D01*
%TO.C,C6*%
X160529420Y-61010000D02*
X160810580Y-61010000D01*
X160529420Y-62030000D02*
X160810580Y-62030000D01*
%TO.C,C7*%
X176279420Y-93760000D02*
X176560580Y-93760000D01*
X176279420Y-94780000D02*
X176560580Y-94780000D01*
D14*
%TO.C,IC1*%
X178406000Y-94895000D02*
X178406000Y-93645000D01*
X178472000Y-92745000D02*
X181368000Y-92745000D01*
X178472000Y-93295000D02*
X178472000Y-92745000D01*
X181368000Y-92745000D02*
X181368000Y-93295000D01*
X181368000Y-93295000D02*
X178472000Y-93295000D01*
D12*
%TO.C,J3*%
X154290000Y-70050000D02*
X155670000Y-70050000D01*
X154290000Y-71430000D02*
X154290000Y-70050000D01*
X154290000Y-72700000D02*
X154290000Y-93130000D01*
X154290000Y-72700000D02*
X157050000Y-72700000D01*
X154290000Y-93130000D02*
X157050000Y-93130000D01*
X157050000Y-72700000D02*
X157050000Y-93130000D01*
%TO.C,J4*%
X128890000Y-70050000D02*
X130270000Y-70050000D01*
X128890000Y-71430000D02*
X128890000Y-70050000D01*
X128890000Y-72700000D02*
X128890000Y-93130000D01*
X128890000Y-72700000D02*
X131650000Y-72700000D01*
X128890000Y-93130000D02*
X131650000Y-93130000D01*
X131650000Y-72700000D02*
X131650000Y-93130000D01*
%TO.C,U1*%
X133410000Y-82660000D02*
X133665000Y-82660000D01*
X133410000Y-90380000D02*
X133410000Y-82660000D01*
X133665000Y-90380000D02*
X133410000Y-90380000D01*
X143675000Y-82660000D02*
X143930000Y-82660000D01*
X143930000Y-82660000D02*
X143930000Y-90380000D01*
X143930000Y-90380000D02*
X143675000Y-90380000D01*
X133660000Y-91170000D02*
X133190000Y-91510000D01*
X133190000Y-90830000D01*
X133660000Y-91170000D01*
G36*
X133660000Y-91170000D02*
G01*
X133190000Y-91510000D01*
X133190000Y-90830000D01*
X133660000Y-91170000D01*
G37*
%TO.C,U2*%
X133860000Y-54310000D02*
X133860000Y-60120000D01*
X133860000Y-54310000D02*
X152080000Y-54310000D01*
X133860000Y-74230000D02*
X133860000Y-74530000D01*
X133860000Y-74530000D02*
X152080000Y-74530000D01*
X152080000Y-54310000D02*
X152080000Y-60810000D01*
X152080000Y-74230000D02*
X152080000Y-74530000D01*
X133870000Y-60820000D02*
X133370000Y-60820000D01*
X133870000Y-60320000D01*
X133870000Y-60820000D01*
G36*
X133870000Y-60820000D02*
G01*
X133370000Y-60820000D01*
X133870000Y-60320000D01*
X133870000Y-60820000D01*
G37*
D13*
%TO.C,SW1*%
X141440000Y-76170000D02*
X143900000Y-76170000D01*
X141440000Y-79370000D02*
X143900000Y-79370000D01*
D14*
X139552000Y-76640000D02*
G75*
G02*
X139352000Y-76640000I-100000J0D01*
G01*
X139352000Y-76640000D02*
G75*
G02*
X139552000Y-76640000I100000J0D01*
G01*
D12*
%TO.C,J1*%
X145900000Y-100660000D02*
X145900000Y-98960000D01*
X155240000Y-100660000D02*
X155240000Y-98960000D01*
%TO.C,C8*%
X147279420Y-91260000D02*
X147560580Y-91260000D01*
X147279420Y-92280000D02*
X147560580Y-92280000D01*
%TO.C,J2*%
X130700000Y-100670000D02*
X130700000Y-98970000D01*
X140040000Y-100670000D02*
X140040000Y-98970000D01*
%TO.C,C6*%
X131529420Y-61010000D02*
X131810580Y-61010000D01*
X131529420Y-62030000D02*
X131810580Y-62030000D01*
%TO.C,C7*%
X147279420Y-93760000D02*
X147560580Y-93760000D01*
X147279420Y-94780000D02*
X147560580Y-94780000D01*
D14*
%TO.C,IC1*%
X149406000Y-94895000D02*
X149406000Y-93645000D01*
X149472000Y-92745000D02*
X152368000Y-92745000D01*
X149472000Y-93295000D02*
X149472000Y-92745000D01*
X152368000Y-92745000D02*
X152368000Y-93295000D01*
X152368000Y-93295000D02*
X149472000Y-93295000D01*
D12*
%TO.C,J3*%
X125290000Y-70050000D02*
X126670000Y-70050000D01*
X125290000Y-71430000D02*
X125290000Y-70050000D01*
X125290000Y-72700000D02*
X125290000Y-93130000D01*
X125290000Y-72700000D02*
X128050000Y-72700000D01*
X125290000Y-93130000D02*
X128050000Y-93130000D01*
X128050000Y-72700000D02*
X128050000Y-93130000D01*
%TO.C,J4*%
X99890000Y-70050000D02*
X101270000Y-70050000D01*
X99890000Y-71430000D02*
X99890000Y-70050000D01*
X99890000Y-72700000D02*
X99890000Y-93130000D01*
X99890000Y-72700000D02*
X102650000Y-72700000D01*
X99890000Y-93130000D02*
X102650000Y-93130000D01*
X102650000Y-72700000D02*
X102650000Y-93130000D01*
%TO.C,U1*%
X104410000Y-82660000D02*
X104665000Y-82660000D01*
X104410000Y-90380000D02*
X104410000Y-82660000D01*
X104665000Y-90380000D02*
X104410000Y-90380000D01*
X114675000Y-82660000D02*
X114930000Y-82660000D01*
X114930000Y-82660000D02*
X114930000Y-90380000D01*
X114930000Y-90380000D02*
X114675000Y-90380000D01*
X104660000Y-91170000D02*
X104190000Y-91510000D01*
X104190000Y-90830000D01*
X104660000Y-91170000D01*
G36*
X104660000Y-91170000D02*
G01*
X104190000Y-91510000D01*
X104190000Y-90830000D01*
X104660000Y-91170000D01*
G37*
%TO.C,U2*%
X104860000Y-54310000D02*
X104860000Y-60120000D01*
X104860000Y-54310000D02*
X123080000Y-54310000D01*
X104860000Y-74230000D02*
X104860000Y-74530000D01*
X104860000Y-74530000D02*
X123080000Y-74530000D01*
X123080000Y-54310000D02*
X123080000Y-60810000D01*
X123080000Y-74230000D02*
X123080000Y-74530000D01*
X104870000Y-60820000D02*
X104370000Y-60820000D01*
X104870000Y-60320000D01*
X104870000Y-60820000D01*
G36*
X104870000Y-60820000D02*
G01*
X104370000Y-60820000D01*
X104870000Y-60320000D01*
X104870000Y-60820000D01*
G37*
D13*
%TO.C,SW1*%
X112440000Y-76170000D02*
X114900000Y-76170000D01*
X112440000Y-79370000D02*
X114900000Y-79370000D01*
D14*
X110552000Y-76640000D02*
G75*
G02*
X110352000Y-76640000I-100000J0D01*
G01*
X110352000Y-76640000D02*
G75*
G02*
X110552000Y-76640000I100000J0D01*
G01*
D12*
%TO.C,J1*%
X116900000Y-100660000D02*
X116900000Y-98960000D01*
X126240000Y-100660000D02*
X126240000Y-98960000D01*
%TO.C,C8*%
X118279420Y-91260000D02*
X118560580Y-91260000D01*
X118279420Y-92280000D02*
X118560580Y-92280000D01*
%TO.C,J2*%
X101700000Y-100670000D02*
X101700000Y-98970000D01*
X111040000Y-100670000D02*
X111040000Y-98970000D01*
%TO.C,C6*%
X102529420Y-61010000D02*
X102810580Y-61010000D01*
X102529420Y-62030000D02*
X102810580Y-62030000D01*
%TO.C,C7*%
X118279420Y-93760000D02*
X118560580Y-93760000D01*
X118279420Y-94780000D02*
X118560580Y-94780000D01*
D14*
%TO.C,IC1*%
X120406000Y-94895000D02*
X120406000Y-93645000D01*
X120472000Y-92745000D02*
X123368000Y-92745000D01*
X120472000Y-93295000D02*
X120472000Y-92745000D01*
X123368000Y-92745000D02*
X123368000Y-93295000D01*
X123368000Y-93295000D02*
X120472000Y-93295000D01*
%TD*%
M02*
