M48
; DRILL file {KiCad 9.0.5} date 2025-11-09T20:25:53+0900
; FORMAT={-:-/ absolute / metric / decimal}
; #@! TF.CreationDate,2025-11-09T20:25:53+09:00
; #@! TF.GenerationSoftware,Kicad,Pcbnew,9.0.5
; #@! TF.FileFunction,Plated,1,2,PTH
FMAT,2
METRIC
; #@! TA.AperFunction,Plated,PTH,ComponentDrill
T1C0.200
; #@! TA.AperFunction,Plated,PTH,ViaDrill
T2C0.300
; #@! TA.AperFunction,Plated,PTH,ComponentDrill
T3C0.600
; #@! TA.AperFunction,Plated,PTH,ComponentDrill
T4C1.000
%
G90
G05
T1
X111.97Y-140.73
X111.97Y-141.83
X112.52Y-140.18
X112.52Y-141.28
X112.52Y-142.38
X113.07Y-140.73
X113.07Y-141.83
X113.62Y-140.18
X113.62Y-141.28
X113.62Y-142.38
X113.83Y-67.17
X113.83Y-68.27
X114.17Y-140.73
X114.17Y-141.83
X114.38Y-66.62
X114.38Y-67.72
X114.38Y-68.82
X114.93Y-67.17
X114.93Y-68.27
X115.48Y-66.62
X115.48Y-67.72
X115.48Y-68.82
X116.03Y-67.17
X116.03Y-68.27
X140.97Y-140.73
X140.97Y-141.83
X141.52Y-140.18
X141.52Y-141.28
X141.52Y-142.38
X142.07Y-140.73
X142.07Y-141.83
X142.62Y-140.18
X142.62Y-141.28
X142.62Y-142.38
X142.83Y-67.17
X142.83Y-68.27
X143.17Y-140.73
X143.17Y-141.83
X143.38Y-66.62
X143.38Y-67.72
X143.38Y-68.82
X143.93Y-67.17
X143.93Y-68.27
X144.48Y-66.62
X144.48Y-67.72
X144.48Y-68.82
X145.03Y-67.17
X145.03Y-68.27
X169.97Y-140.73
X169.97Y-141.83
X170.52Y-140.18
X170.52Y-141.28
X170.52Y-142.38
X171.07Y-140.73
X171.07Y-141.83
X171.62Y-140.18
X171.62Y-141.28
X171.62Y-142.38
X171.83Y-67.17
X171.83Y-68.27
X172.17Y-140.73
X172.17Y-141.83
X172.38Y-66.62
X172.38Y-67.72
X172.38Y-68.82
X172.93Y-67.17
X172.93Y-68.27
X173.48Y-66.62
X173.48Y-67.72
X173.48Y-68.82
X174.03Y-67.17
X174.03Y-68.27
T2
X100.67Y-94.77
X101.33Y-114.23
X101.33Y-142.23
X101.33Y-148.23
X101.67Y-62.77
X101.67Y-66.77
X103.17Y-97.09
X103.97Y-97.09
X104.03Y-111.92
X104.68Y-109.73
X104.97Y-75.27
X105.12Y-99.195
X105.14Y-114.73
X105.145Y-82.02
X105.145Y-89.52
X105.145Y-91.02
X105.17Y-63.02
X105.22Y-70.52
X105.28Y-141.48
X105.28Y-147.48
X105.36Y-61.59
X105.67Y-76.77
X105.67Y-78.77
X105.67Y-95.52
X106.33Y-119.23
X106.33Y-122.23
X106.67Y-84.77
X106.67Y-86.77
X106.695Y-82.02
X106.695Y-91.02
X107.02Y-114.73
X107.17Y-95.52
X107.33Y-124.23
X107.33Y-128.23
X107.33Y-132.23
X107.33Y-142.23
X107.33Y-148.23
X107.487Y-139.98
X107.55Y-136.73
X107.67Y-64.77
X107.67Y-68.77
X107.67Y-72.77
X107.68Y-109.73
X107.765Y-81.87
X107.765Y-91.17
X108.12Y-99.195
X108.77Y-97.09
X108.805Y-114.73
X108.83Y-111.92
X109.57Y-97.09
X109.67Y-76.77
X109.67Y-78.77
X109.67Y-93.77
X109.745Y-83.52
X109.745Y-89.52
X110.305Y-81.87
X110.305Y-91.17
X110.33Y-135.23
X110.33Y-138.23
X111.575Y-81.87
X111.575Y-91.17
X111.67Y-64.77
X111.67Y-68.77
X111.67Y-72.77
X111.67Y-93.77
X112.255Y-132.305
X112.33Y-106.23
X112.33Y-112.23
X112.33Y-122.23
X112.33Y-124.23
X112.33Y-128.23
X112.33Y-136.23
X112.67Y-84.77
X112.67Y-86.77
X112.845Y-81.87
X112.845Y-91.17
X113.67Y-96.77
X113.67Y-102.77
X114.33Y-106.23
X114.33Y-112.23
X115.155Y-117.83
X115.155Y-127.13
X115.33Y-122.23
X115.33Y-124.23
X115.67Y-72.77
X115.67Y-80.77
X115.67Y-84.77
X115.67Y-86.77
X115.67Y-96.77
X115.67Y-102.77
X115.745Y-76.695
X116.33Y-115.23
X116.33Y-136.23
X116.33Y-140.23
X116.33Y-144.23
X116.425Y-117.83
X116.425Y-127.13
X117.67Y-70.77
X117.67Y-73.77
X117.695Y-117.83
X117.695Y-127.13
X118.255Y-119.48
X118.255Y-125.48
X118.33Y-115.23
X118.33Y-130.23
X118.33Y-132.23
X118.43Y-111.91
X119.17Y-97.08
X119.195Y-94.27
X119.23Y-111.91
X119.88Y-109.805
X120.235Y-117.83
X120.235Y-127.13
X120.32Y-99.27
X120.33Y-136.23
X120.33Y-140.23
X120.33Y-144.23
X120.45Y-72.27
X120.513Y-69.02
X120.67Y-60.77
X120.67Y-66.77
X120.67Y-76.77
X120.67Y-80.77
X120.67Y-84.77
X120.83Y-113.48
X120.98Y-94.27
X121.305Y-117.98
X121.305Y-126.98
X121.33Y-122.23
X121.33Y-124.23
X121.67Y-86.77
X121.67Y-89.77
X122.33Y-113.48
X122.33Y-130.23
X122.33Y-132.23
X122.64Y-147.41
X122.72Y-61.52
X122.72Y-67.52
X122.78Y-138.48
X122.83Y-145.98
X122.855Y-117.98
X122.855Y-119.48
X122.855Y-126.98
X122.86Y-94.27
X122.88Y-109.805
X123.03Y-133.73
X123.32Y-99.27
X123.97Y-97.08
X124.03Y-111.91
X124.83Y-111.91
X126.33Y-142.23
X126.33Y-146.23
X126.67Y-60.77
X126.67Y-66.77
X126.67Y-94.77
X127.33Y-114.23
X129.67Y-94.77
X130.33Y-114.23
X130.33Y-142.23
X130.33Y-148.23
X130.67Y-62.77
X130.67Y-66.77
X132.17Y-97.09
X132.97Y-97.09
X133.03Y-111.92
X133.68Y-109.73
X133.97Y-75.27
X134.12Y-99.195
X134.14Y-114.73
X134.145Y-82.02
X134.145Y-89.52
X134.145Y-91.02
X134.17Y-63.02
X134.22Y-70.52
X134.28Y-141.48
X134.28Y-147.48
X134.36Y-61.59
X134.67Y-76.77
X134.67Y-78.77
X134.67Y-95.52
X135.33Y-119.23
X135.33Y-122.23
X135.67Y-84.77
X135.67Y-86.77
X135.695Y-82.02
X135.695Y-91.02
X136.02Y-114.73
X136.17Y-95.52
X136.33Y-124.23
X136.33Y-128.23
X136.33Y-132.23
X136.33Y-142.23
X136.33Y-148.23
X136.487Y-139.98
X136.55Y-136.73
X136.67Y-64.77
X136.67Y-68.77
X136.67Y-72.77
X136.68Y-109.73
X136.765Y-81.87
X136.765Y-91.17
X137.12Y-99.195
X137.77Y-97.09
X137.805Y-114.73
X137.83Y-111.92
X138.57Y-97.09
X138.67Y-76.77
X138.67Y-78.77
X138.67Y-93.77
X138.745Y-83.52
X138.745Y-89.52
X139.305Y-81.87
X139.305Y-91.17
X139.33Y-135.23
X139.33Y-138.23
X140.575Y-81.87
X140.575Y-91.17
X140.67Y-64.77
X140.67Y-68.77
X140.67Y-72.77
X140.67Y-93.77
X141.255Y-132.305
X141.33Y-106.23
X141.33Y-112.23
X141.33Y-122.23
X141.33Y-124.23
X141.33Y-128.23
X141.33Y-136.23
X141.67Y-84.77
X141.67Y-86.77
X141.845Y-81.87
X141.845Y-91.17
X142.67Y-96.77
X142.67Y-102.77
X143.33Y-106.23
X143.33Y-112.23
X144.155Y-117.83
X144.155Y-127.13
X144.33Y-122.23
X144.33Y-124.23
X144.67Y-72.77
X144.67Y-80.77
X144.67Y-84.77
X144.67Y-86.77
X144.67Y-96.77
X144.67Y-102.77
X144.745Y-76.695
X145.33Y-115.23
X145.33Y-136.23
X145.33Y-140.23
X145.33Y-144.23
X145.425Y-117.83
X145.425Y-127.13
X146.67Y-70.77
X146.67Y-73.77
X146.695Y-117.83
X146.695Y-127.13
X147.255Y-119.48
X147.255Y-125.48
X147.33Y-115.23
X147.33Y-130.23
X147.33Y-132.23
X147.43Y-111.91
X148.17Y-97.08
X148.195Y-94.27
X148.23Y-111.91
X148.88Y-109.805
X149.235Y-117.83
X149.235Y-127.13
X149.32Y-99.27
X149.33Y-136.23
X149.33Y-140.23
X149.33Y-144.23
X149.45Y-72.27
X149.513Y-69.02
X149.67Y-60.77
X149.67Y-66.77
X149.67Y-76.77
X149.67Y-80.77
X149.67Y-84.77
X149.83Y-113.48
X149.98Y-94.27
X150.305Y-117.98
X150.305Y-126.98
X150.33Y-122.23
X150.33Y-124.23
X150.67Y-86.77
X150.67Y-89.77
X151.33Y-113.48
X151.33Y-130.23
X151.33Y-132.23
X151.64Y-147.41
X151.72Y-61.52
X151.72Y-67.52
X151.78Y-138.48
X151.83Y-145.98
X151.855Y-117.98
X151.855Y-119.48
X151.855Y-126.98
X151.86Y-94.27
X151.88Y-109.805
X152.03Y-133.73
X152.32Y-99.27
X152.97Y-97.08
X153.03Y-111.91
X153.83Y-111.91
X155.33Y-142.23
X155.33Y-146.23
X155.67Y-60.77
X155.67Y-66.77
X155.67Y-94.77
X156.33Y-114.23
X158.67Y-94.77
X159.33Y-114.23
X159.33Y-142.23
X159.33Y-148.23
X159.67Y-62.77
X159.67Y-66.77
X161.17Y-97.09
X161.97Y-97.09
X162.03Y-111.92
X162.68Y-109.73
X162.97Y-75.27
X163.12Y-99.195
X163.14Y-114.73
X163.145Y-82.02
X163.145Y-89.52
X163.145Y-91.02
X163.17Y-63.02
X163.22Y-70.52
X163.28Y-141.48
X163.28Y-147.48
X163.36Y-61.59
X163.67Y-76.77
X163.67Y-78.77
X163.67Y-95.52
X164.33Y-119.23
X164.33Y-122.23
X164.67Y-84.77
X164.67Y-86.77
X164.695Y-82.02
X164.695Y-91.02
X165.02Y-114.73
X165.17Y-95.52
X165.33Y-124.23
X165.33Y-128.23
X165.33Y-132.23
X165.33Y-142.23
X165.33Y-148.23
X165.487Y-139.98
X165.55Y-136.73
X165.67Y-64.77
X165.67Y-68.77
X165.67Y-72.77
X165.68Y-109.73
X165.765Y-81.87
X165.765Y-91.17
X166.12Y-99.195
X166.77Y-97.09
X166.805Y-114.73
X166.83Y-111.92
X167.57Y-97.09
X167.67Y-76.77
X167.67Y-78.77
X167.67Y-93.77
X167.745Y-83.52
X167.745Y-89.52
X168.305Y-81.87
X168.305Y-91.17
X168.33Y-135.23
X168.33Y-138.23
X169.575Y-81.87
X169.575Y-91.17
X169.67Y-64.77
X169.67Y-68.77
X169.67Y-72.77
X169.67Y-93.77
X170.255Y-132.305
X170.33Y-106.23
X170.33Y-112.23
X170.33Y-122.23
X170.33Y-124.23
X170.33Y-128.23
X170.33Y-136.23
X170.67Y-84.77
X170.67Y-86.77
X170.845Y-81.87
X170.845Y-91.17
X171.67Y-96.77
X171.67Y-102.77
X172.33Y-106.23
X172.33Y-112.23
X173.155Y-117.83
X173.155Y-127.13
X173.33Y-122.23
X173.33Y-124.23
X173.67Y-72.77
X173.67Y-80.77
X173.67Y-84.77
X173.67Y-86.77
X173.67Y-96.77
X173.67Y-102.77
X173.745Y-76.695
X174.33Y-115.23
X174.33Y-136.23
X174.33Y-140.23
X174.33Y-144.23
X174.425Y-117.83
X174.425Y-127.13
X175.67Y-70.77
X175.67Y-73.77
X175.695Y-117.83
X175.695Y-127.13
X176.255Y-119.48
X176.255Y-125.48
X176.33Y-115.23
X176.33Y-130.23
X176.33Y-132.23
X176.43Y-111.91
X177.17Y-97.08
X177.195Y-94.27
X177.23Y-111.91
X177.88Y-109.805
X178.235Y-117.83
X178.235Y-127.13
X178.32Y-99.27
X178.33Y-136.23
X178.33Y-140.23
X178.33Y-144.23
X178.45Y-72.27
X178.513Y-69.02
X178.67Y-60.77
X178.67Y-66.77
X178.67Y-76.77
X178.67Y-80.77
X178.67Y-84.77
X178.83Y-113.48
X178.98Y-94.27
X179.305Y-117.98
X179.305Y-126.98
X179.33Y-122.23
X179.33Y-124.23
X179.67Y-86.77
X179.67Y-89.77
X180.33Y-113.48
X180.33Y-130.23
X180.33Y-132.23
X180.64Y-147.41
X180.72Y-61.52
X180.72Y-67.52
X180.78Y-138.48
X180.83Y-145.98
X180.855Y-117.98
X180.855Y-119.48
X180.855Y-126.98
X180.86Y-94.27
X180.88Y-109.805
X181.03Y-133.73
X181.32Y-99.27
X181.97Y-97.08
X182.03Y-111.91
X182.83Y-111.91
X184.33Y-142.23
X184.33Y-146.23
X184.67Y-60.77
X184.67Y-66.77
X184.67Y-94.77
X185.33Y-114.23
T4
X101.27Y-71.43
X101.27Y-73.97
X101.27Y-76.51
X101.27Y-79.05
X101.27Y-81.59
X101.27Y-84.13
X101.27Y-86.67
X101.27Y-89.21
X101.27Y-91.75
X101.33Y-117.25
X101.33Y-119.79
X101.33Y-122.33
X101.33Y-124.87
X101.33Y-127.41
X101.33Y-129.95
X101.33Y-132.49
X101.33Y-135.03
X101.33Y-137.57
X126.67Y-71.43
X126.67Y-73.97
X126.67Y-76.51
X126.67Y-79.05
X126.67Y-81.59
X126.67Y-84.13
X126.67Y-86.67
X126.67Y-89.21
X126.67Y-91.75
X126.73Y-117.25
X126.73Y-119.79
X126.73Y-122.33
X126.73Y-124.87
X126.73Y-127.41
X126.73Y-129.95
X126.73Y-132.49
X126.73Y-135.03
X126.73Y-137.57
X130.27Y-71.43
X130.27Y-73.97
X130.27Y-76.51
X130.27Y-79.05
X130.27Y-81.59
X130.27Y-84.13
X130.27Y-86.67
X130.27Y-89.21
X130.27Y-91.75
X130.33Y-117.25
X130.33Y-119.79
X130.33Y-122.33
X130.33Y-124.87
X130.33Y-127.41
X130.33Y-129.95
X130.33Y-132.49
X130.33Y-135.03
X130.33Y-137.57
X155.67Y-71.43
X155.67Y-73.97
X155.67Y-76.51
X155.67Y-79.05
X155.67Y-81.59
X155.67Y-84.13
X155.67Y-86.67
X155.67Y-89.21
X155.67Y-91.75
X155.73Y-117.25
X155.73Y-119.79
X155.73Y-122.33
X155.73Y-124.87
X155.73Y-127.41
X155.73Y-129.95
X155.73Y-132.49
X155.73Y-135.03
X155.73Y-137.57
X159.27Y-71.43
X159.27Y-73.97
X159.27Y-76.51
X159.27Y-79.05
X159.27Y-81.59
X159.27Y-84.13
X159.27Y-86.67
X159.27Y-89.21
X159.27Y-91.75
X159.33Y-117.25
X159.33Y-119.79
X159.33Y-122.33
X159.33Y-124.87
X159.33Y-127.41
X159.33Y-129.95
X159.33Y-132.49
X159.33Y-135.03
X159.33Y-137.57
X184.67Y-71.43
X184.67Y-73.97
X184.67Y-76.51
X184.67Y-79.05
X184.67Y-81.59
X184.67Y-84.13
X184.67Y-86.67
X184.67Y-89.21
X184.67Y-91.75
X184.73Y-117.25
X184.73Y-119.79
X184.73Y-122.33
X184.73Y-124.87
X184.73Y-127.41
X184.73Y-129.95
X184.73Y-132.49
X184.73Y-135.03
X184.73Y-137.57
T3
G00X102.05Y-97.115
M15
G01X102.05Y-98.215
M16
G05
G00X102.05Y-101.445
M15
G01X102.05Y-102.245
M16
G05
G00X102.11Y-107.565
M15
G01X102.11Y-106.765
M16
G05
G00X102.11Y-111.895
M15
G01X102.11Y-110.795
M16
G05
G00X110.69Y-97.115
M15
G01X110.69Y-98.215
M16
G05
G00X110.69Y-101.445
M15
G01X110.69Y-102.245
M16
G05
G00X110.75Y-107.565
M15
G01X110.75Y-106.765
M16
G05
G00X110.75Y-111.895
M15
G01X110.75Y-110.795
M16
G05
G00X117.25Y-97.105
M15
G01X117.25Y-98.205
M16
G05
G00X117.25Y-101.435
M15
G01X117.25Y-102.235
M16
G05
G00X117.31Y-107.555
M15
G01X117.31Y-106.755
M16
G05
G00X117.31Y-111.885
M15
G01X117.31Y-110.785
M16
G05
G00X125.89Y-97.105
M15
G01X125.89Y-98.205
M16
G05
G00X125.89Y-101.435
M15
G01X125.89Y-102.235
M16
G05
G00X125.95Y-107.555
M15
G01X125.95Y-106.755
M16
G05
G00X125.95Y-111.885
M15
G01X125.95Y-110.785
M16
G05
G00X131.05Y-97.115
M15
G01X131.05Y-98.215
M16
G05
G00X131.05Y-101.445
M15
G01X131.05Y-102.245
M16
G05
G00X131.11Y-107.565
M15
G01X131.11Y-106.765
M16
G05
G00X131.11Y-111.895
M15
G01X131.11Y-110.795
M16
G05
G00X139.69Y-97.115
M15
G01X139.69Y-98.215
M16
G05
G00X139.69Y-101.445
M15
G01X139.69Y-102.245
M16
G05
G00X139.75Y-107.565
M15
G01X139.75Y-106.765
M16
G05
G00X139.75Y-111.895
M15
G01X139.75Y-110.795
M16
G05
G00X146.25Y-97.105
M15
G01X146.25Y-98.205
M16
G05
G00X146.25Y-101.435
M15
G01X146.25Y-102.235
M16
G05
G00X146.31Y-107.555
M15
G01X146.31Y-106.755
M16
G05
G00X146.31Y-111.885
M15
G01X146.31Y-110.785
M16
G05
G00X154.89Y-97.105
M15
G01X154.89Y-98.205
M16
G05
G00X154.89Y-101.435
M15
G01X154.89Y-102.235
M16
G05
G00X154.95Y-107.555
M15
G01X154.95Y-106.755
M16
G05
G00X154.95Y-111.885
M15
G01X154.95Y-110.785
M16
G05
G00X160.05Y-97.115
M15
G01X160.05Y-98.215
M16
G05
G00X160.05Y-101.445
M15
G01X160.05Y-102.245
M16
G05
G00X160.11Y-107.565
M15
G01X160.11Y-106.765
M16
G05
G00X160.11Y-111.895
M15
G01X160.11Y-110.795
M16
G05
G00X168.69Y-97.115
M15
G01X168.69Y-98.215
M16
G05
G00X168.69Y-101.445
M15
G01X168.69Y-102.245
M16
G05
G00X168.75Y-107.565
M15
G01X168.75Y-106.765
M16
G05
G00X168.75Y-111.895
M15
G01X168.75Y-110.795
M16
G05
G00X175.25Y-97.105
M15
G01X175.25Y-98.205
M16
G05
G00X175.25Y-101.435
M15
G01X175.25Y-102.235
M16
G05
G00X175.31Y-107.555
M15
G01X175.31Y-106.755
M16
G05
G00X175.31Y-111.885
M15
G01X175.31Y-110.785
M16
G05
G00X183.89Y-97.105
M15
G01X183.89Y-98.205
M16
G05
G00X183.89Y-101.435
M15
G01X183.89Y-102.235
M16
G05
G00X183.95Y-107.555
M15
G01X183.95Y-106.755
M16
G05
G00X183.95Y-111.885
M15
G01X183.95Y-110.785
M16
G05
M30
