%TF.GenerationSoftware,KiCad,Pcbnew,9.0.5*%
%TF.CreationDate,2025-11-09T20:25:59+09:00*%
%TF.ProjectId,C3_men,43335f6d-656e-42e6-9b69-6361645f7063,rev?*%
%TF.SameCoordinates,Original*%
%TF.FileFunction,Paste,Bot*%
%TF.FilePolarity,Positive*%
%FSLAX46Y46*%
G04 Gerber Fmt 4.6, Leading zero omitted, Abs format (unit mm)*
G04 Created by KiCad (PCBNEW 9.0.5) date 2025-11-09 20:25:59*
%MOMM*%
%LPD*%
G01*
G04 APERTURE LIST*
G04 Aperture macros list*
%AMRoundRect*
0 Rectangle with rounded corners*
0 $1 Rounding radius*
0 $2 $3 $4 $5 $6 $7 $8 $9 X,Y pos of 4 corners*
0 Add a 4 corners polygon primitive as box body*
4,1,4,$2,$3,$4,$5,$6,$7,$8,$9,$2,$3,0*
0 Add four circle primitives for the rounded corners*
1,1,$1+$1,$2,$3*
1,1,$1+$1,$4,$5*
1,1,$1+$1,$6,$7*
1,1,$1+$1,$8,$9*
0 Add four rect primitives between the rounded corners*
20,1,$1+$1,$2,$3,$4,$5,0*
20,1,$1+$1,$4,$5,$6,$7,0*
20,1,$1+$1,$6,$7,$8,$9,0*
20,1,$1+$1,$8,$9,$2,$3,0*%
G04 Aperture macros list end*
%ADD10RoundRect,0.200000X-0.275000X0.200000X-0.275000X-0.200000X0.275000X-0.200000X0.275000X0.200000X0*%
%ADD11RoundRect,0.200000X0.200000X0.275000X-0.200000X0.275000X-0.200000X-0.275000X0.200000X-0.275000X0*%
%ADD12RoundRect,0.200000X0.275000X-0.200000X0.275000X0.200000X-0.275000X0.200000X-0.275000X-0.200000X0*%
%ADD13RoundRect,0.225000X-0.225000X-0.250000X0.225000X-0.250000X0.225000X0.250000X-0.225000X0.250000X0*%
%ADD14RoundRect,0.225000X-0.250000X0.225000X-0.250000X-0.225000X0.250000X-0.225000X0.250000X0.225000X0*%
%ADD15RoundRect,0.200000X-0.200000X-0.275000X0.200000X-0.275000X0.200000X0.275000X-0.200000X0.275000X0*%
%ADD16RoundRect,0.225000X0.225000X0.250000X-0.225000X0.250000X-0.225000X-0.250000X0.225000X-0.250000X0*%
%ADD17RoundRect,0.225000X0.250000X-0.225000X0.250000X0.225000X-0.250000X0.225000X-0.250000X-0.225000X0*%
G04 APERTURE END LIST*
D10*
%TO.C,R13*%
X174580000Y-128905000D03*
X174580000Y-130555000D03*
%TD*%
D11*
%TO.C,R7*%
X177905000Y-119480000D03*
X176255000Y-119480000D03*
%TD*%
D12*
%TO.C,R4*%
X177880000Y-109805000D03*
X177880000Y-108155000D03*
%TD*%
D13*
%TO.C,C3*%
X179305000Y-126980000D03*
X180855000Y-126980000D03*
%TD*%
D14*
%TO.C,C9*%
X170330000Y-130455000D03*
X170330000Y-132005000D03*
%TD*%
D12*
%TO.C,R2*%
X162680000Y-109730000D03*
X162680000Y-108080000D03*
%TD*%
D11*
%TO.C,R8*%
X177905000Y-117980000D03*
X176255000Y-117980000D03*
%TD*%
D15*
%TO.C,R10*%
X176255000Y-126980000D03*
X177905000Y-126980000D03*
%TD*%
D16*
%TO.C,C1*%
X180855000Y-119480000D03*
X179305000Y-119480000D03*
%TD*%
D13*
%TO.C,C2*%
X179305000Y-117980000D03*
X180855000Y-117980000D03*
%TD*%
D16*
%TO.C,C4*%
X182380000Y-145980000D03*
X180830000Y-145980000D03*
%TD*%
D12*
%TO.C,R1*%
X165680000Y-109730000D03*
X165680000Y-108080000D03*
%TD*%
%TO.C,R3*%
X180880000Y-109805000D03*
X180880000Y-108155000D03*
%TD*%
D10*
%TO.C,R5*%
X178830000Y-113480000D03*
X178830000Y-115130000D03*
%TD*%
D15*
%TO.C,R11*%
X176255000Y-125480000D03*
X177905000Y-125480000D03*
%TD*%
D12*
%TO.C,R9*%
X179330000Y-147555000D03*
X179330000Y-145905000D03*
%TD*%
D16*
%TO.C,C5*%
X180855000Y-125480000D03*
X179305000Y-125480000D03*
%TD*%
D10*
%TO.C,R6*%
X180330000Y-113480000D03*
X180330000Y-115130000D03*
%TD*%
%TO.C,R12*%
X173080000Y-128905000D03*
X173080000Y-130555000D03*
%TD*%
%TO.C,R13*%
X145580000Y-128905000D03*
X145580000Y-130555000D03*
%TD*%
D11*
%TO.C,R7*%
X148905000Y-119480000D03*
X147255000Y-119480000D03*
%TD*%
D12*
%TO.C,R4*%
X148880000Y-109805000D03*
X148880000Y-108155000D03*
%TD*%
D13*
%TO.C,C3*%
X150305000Y-126980000D03*
X151855000Y-126980000D03*
%TD*%
D14*
%TO.C,C9*%
X141330000Y-130455000D03*
X141330000Y-132005000D03*
%TD*%
D12*
%TO.C,R2*%
X133680000Y-109730000D03*
X133680000Y-108080000D03*
%TD*%
D11*
%TO.C,R8*%
X148905000Y-117980000D03*
X147255000Y-117980000D03*
%TD*%
D15*
%TO.C,R10*%
X147255000Y-126980000D03*
X148905000Y-126980000D03*
%TD*%
D16*
%TO.C,C1*%
X151855000Y-119480000D03*
X150305000Y-119480000D03*
%TD*%
D13*
%TO.C,C2*%
X150305000Y-117980000D03*
X151855000Y-117980000D03*
%TD*%
D16*
%TO.C,C4*%
X153380000Y-145980000D03*
X151830000Y-145980000D03*
%TD*%
D12*
%TO.C,R1*%
X136680000Y-109730000D03*
X136680000Y-108080000D03*
%TD*%
%TO.C,R3*%
X151880000Y-109805000D03*
X151880000Y-108155000D03*
%TD*%
D10*
%TO.C,R5*%
X149830000Y-113480000D03*
X149830000Y-115130000D03*
%TD*%
D15*
%TO.C,R11*%
X147255000Y-125480000D03*
X148905000Y-125480000D03*
%TD*%
D12*
%TO.C,R9*%
X150330000Y-147555000D03*
X150330000Y-145905000D03*
%TD*%
D16*
%TO.C,C5*%
X151855000Y-125480000D03*
X150305000Y-125480000D03*
%TD*%
D10*
%TO.C,R6*%
X151330000Y-113480000D03*
X151330000Y-115130000D03*
%TD*%
%TO.C,R12*%
X144080000Y-128905000D03*
X144080000Y-130555000D03*
%TD*%
%TO.C,R13*%
X116580000Y-128905000D03*
X116580000Y-130555000D03*
%TD*%
D11*
%TO.C,R7*%
X119905000Y-119480000D03*
X118255000Y-119480000D03*
%TD*%
D12*
%TO.C,R4*%
X119880000Y-109805000D03*
X119880000Y-108155000D03*
%TD*%
D13*
%TO.C,C3*%
X121305000Y-126980000D03*
X122855000Y-126980000D03*
%TD*%
D14*
%TO.C,C9*%
X112330000Y-130455000D03*
X112330000Y-132005000D03*
%TD*%
D12*
%TO.C,R2*%
X104680000Y-109730000D03*
X104680000Y-108080000D03*
%TD*%
D11*
%TO.C,R8*%
X119905000Y-117980000D03*
X118255000Y-117980000D03*
%TD*%
D15*
%TO.C,R10*%
X118255000Y-126980000D03*
X119905000Y-126980000D03*
%TD*%
D16*
%TO.C,C1*%
X122855000Y-119480000D03*
X121305000Y-119480000D03*
%TD*%
D13*
%TO.C,C2*%
X121305000Y-117980000D03*
X122855000Y-117980000D03*
%TD*%
D16*
%TO.C,C4*%
X124380000Y-145980000D03*
X122830000Y-145980000D03*
%TD*%
D12*
%TO.C,R1*%
X107680000Y-109730000D03*
X107680000Y-108080000D03*
%TD*%
%TO.C,R3*%
X122880000Y-109805000D03*
X122880000Y-108155000D03*
%TD*%
D10*
%TO.C,R5*%
X120830000Y-113480000D03*
X120830000Y-115130000D03*
%TD*%
D15*
%TO.C,R11*%
X118255000Y-125480000D03*
X119905000Y-125480000D03*
%TD*%
D12*
%TO.C,R9*%
X121330000Y-147555000D03*
X121330000Y-145905000D03*
%TD*%
D16*
%TO.C,C5*%
X122855000Y-125480000D03*
X121305000Y-125480000D03*
%TD*%
D10*
%TO.C,R6*%
X122330000Y-113480000D03*
X122330000Y-115130000D03*
%TD*%
%TO.C,R12*%
X115080000Y-128905000D03*
X115080000Y-130555000D03*
%TD*%
D12*
%TO.C,R13*%
X169420000Y-80095000D03*
X169420000Y-78445000D03*
%TD*%
D15*
%TO.C,R7*%
X166095000Y-89520000D03*
X167745000Y-89520000D03*
%TD*%
D10*
%TO.C,R4*%
X166120000Y-99195000D03*
X166120000Y-100845000D03*
%TD*%
D16*
%TO.C,C3*%
X164695000Y-82020000D03*
X163145000Y-82020000D03*
%TD*%
D17*
%TO.C,C9*%
X173670000Y-78545000D03*
X173670000Y-76995000D03*
%TD*%
D10*
%TO.C,R2*%
X181320000Y-99270000D03*
X181320000Y-100920000D03*
%TD*%
D15*
%TO.C,R8*%
X166095000Y-91020000D03*
X167745000Y-91020000D03*
%TD*%
D11*
%TO.C,R10*%
X167745000Y-82020000D03*
X166095000Y-82020000D03*
%TD*%
D13*
%TO.C,C1*%
X163145000Y-89520000D03*
X164695000Y-89520000D03*
%TD*%
D16*
%TO.C,C2*%
X164695000Y-91020000D03*
X163145000Y-91020000D03*
%TD*%
D13*
%TO.C,C4*%
X161620000Y-63020000D03*
X163170000Y-63020000D03*
%TD*%
D10*
%TO.C,R1*%
X178320000Y-99270000D03*
X178320000Y-100920000D03*
%TD*%
%TO.C,R3*%
X163120000Y-99195000D03*
X163120000Y-100845000D03*
%TD*%
D12*
%TO.C,R5*%
X165170000Y-95520000D03*
X165170000Y-93870000D03*
%TD*%
D11*
%TO.C,R11*%
X167745000Y-83520000D03*
X166095000Y-83520000D03*
%TD*%
D10*
%TO.C,R9*%
X164670000Y-61445000D03*
X164670000Y-63095000D03*
%TD*%
D13*
%TO.C,C5*%
X163145000Y-83520000D03*
X164695000Y-83520000D03*
%TD*%
D12*
%TO.C,R6*%
X163670000Y-95520000D03*
X163670000Y-93870000D03*
%TD*%
%TO.C,R12*%
X170920000Y-80095000D03*
X170920000Y-78445000D03*
%TD*%
%TO.C,R13*%
X140420000Y-80095000D03*
X140420000Y-78445000D03*
%TD*%
D15*
%TO.C,R7*%
X137095000Y-89520000D03*
X138745000Y-89520000D03*
%TD*%
D10*
%TO.C,R4*%
X137120000Y-99195000D03*
X137120000Y-100845000D03*
%TD*%
D16*
%TO.C,C3*%
X135695000Y-82020000D03*
X134145000Y-82020000D03*
%TD*%
D17*
%TO.C,C9*%
X144670000Y-78545000D03*
X144670000Y-76995000D03*
%TD*%
D10*
%TO.C,R2*%
X152320000Y-99270000D03*
X152320000Y-100920000D03*
%TD*%
D15*
%TO.C,R8*%
X137095000Y-91020000D03*
X138745000Y-91020000D03*
%TD*%
D11*
%TO.C,R10*%
X138745000Y-82020000D03*
X137095000Y-82020000D03*
%TD*%
D13*
%TO.C,C1*%
X134145000Y-89520000D03*
X135695000Y-89520000D03*
%TD*%
D16*
%TO.C,C2*%
X135695000Y-91020000D03*
X134145000Y-91020000D03*
%TD*%
D13*
%TO.C,C4*%
X132620000Y-63020000D03*
X134170000Y-63020000D03*
%TD*%
D10*
%TO.C,R1*%
X149320000Y-99270000D03*
X149320000Y-100920000D03*
%TD*%
%TO.C,R3*%
X134120000Y-99195000D03*
X134120000Y-100845000D03*
%TD*%
D12*
%TO.C,R5*%
X136170000Y-95520000D03*
X136170000Y-93870000D03*
%TD*%
D11*
%TO.C,R11*%
X138745000Y-83520000D03*
X137095000Y-83520000D03*
%TD*%
D10*
%TO.C,R9*%
X135670000Y-61445000D03*
X135670000Y-63095000D03*
%TD*%
D13*
%TO.C,C5*%
X134145000Y-83520000D03*
X135695000Y-83520000D03*
%TD*%
D12*
%TO.C,R6*%
X134670000Y-95520000D03*
X134670000Y-93870000D03*
%TD*%
%TO.C,R12*%
X141920000Y-80095000D03*
X141920000Y-78445000D03*
%TD*%
%TO.C,R13*%
X111420000Y-80095000D03*
X111420000Y-78445000D03*
%TD*%
D15*
%TO.C,R7*%
X108095000Y-89520000D03*
X109745000Y-89520000D03*
%TD*%
D10*
%TO.C,R4*%
X108120000Y-99195000D03*
X108120000Y-100845000D03*
%TD*%
D16*
%TO.C,C3*%
X106695000Y-82020000D03*
X105145000Y-82020000D03*
%TD*%
D17*
%TO.C,C9*%
X115670000Y-78545000D03*
X115670000Y-76995000D03*
%TD*%
D10*
%TO.C,R2*%
X123320000Y-99270000D03*
X123320000Y-100920000D03*
%TD*%
D15*
%TO.C,R8*%
X108095000Y-91020000D03*
X109745000Y-91020000D03*
%TD*%
D11*
%TO.C,R10*%
X109745000Y-82020000D03*
X108095000Y-82020000D03*
%TD*%
D13*
%TO.C,C1*%
X105145000Y-89520000D03*
X106695000Y-89520000D03*
%TD*%
D16*
%TO.C,C2*%
X106695000Y-91020000D03*
X105145000Y-91020000D03*
%TD*%
D13*
%TO.C,C4*%
X103620000Y-63020000D03*
X105170000Y-63020000D03*
%TD*%
D10*
%TO.C,R1*%
X120320000Y-99270000D03*
X120320000Y-100920000D03*
%TD*%
%TO.C,R3*%
X105120000Y-99195000D03*
X105120000Y-100845000D03*
%TD*%
D12*
%TO.C,R5*%
X107170000Y-95520000D03*
X107170000Y-93870000D03*
%TD*%
D11*
%TO.C,R11*%
X109745000Y-83520000D03*
X108095000Y-83520000D03*
%TD*%
D10*
%TO.C,R9*%
X106670000Y-61445000D03*
X106670000Y-63095000D03*
%TD*%
D13*
%TO.C,C5*%
X105145000Y-83520000D03*
X106695000Y-83520000D03*
%TD*%
D12*
%TO.C,R6*%
X105670000Y-95520000D03*
X105670000Y-93870000D03*
%TD*%
%TO.C,R12*%
X112920000Y-80095000D03*
X112920000Y-78445000D03*
%TD*%
M02*
