%TF.GenerationSoftware,KiCad,Pcbnew,9.0.5*%
%TF.CreationDate,2025-11-09T20:26:00+09:00*%
%TF.ProjectId,C3_men,43335f6d-656e-42e6-9b69-6361645f7063,rev?*%
%TF.SameCoordinates,Original*%
%TF.FileFunction,Soldermask,Top*%
%TF.FilePolarity,Negative*%
%FSLAX46Y46*%
G04 Gerber Fmt 4.6, Leading zero omitted, Abs format (unit mm)*
G04 Created by KiCad (PCBNEW 9.0.5) date 2025-11-09 20:26:00*
%MOMM*%
%LPD*%
G01*
G04 APERTURE LIST*
G04 Aperture macros list*
%AMRoundRect*
0 Rectangle with rounded corners*
0 $1 Rounding radius*
0 $2 $3 $4 $5 $6 $7 $8 $9 X,Y pos of 4 corners*
0 Add a 4 corners polygon primitive as box body*
4,1,4,$2,$3,$4,$5,$6,$7,$8,$9,$2,$3,0*
0 Add four circle primitives for the rounded corners*
1,1,$1+$1,$2,$3*
1,1,$1+$1,$4,$5*
1,1,$1+$1,$6,$7*
1,1,$1+$1,$8,$9*
0 Add four rect primitives between the rounded corners*
20,1,$1+$1,$2,$3,$4,$5,0*
20,1,$1+$1,$4,$5,$6,$7,0*
20,1,$1+$1,$6,$7,$8,$9,0*
20,1,$1+$1,$8,$9,$2,$3,0*%
G04 Aperture macros list end*
%ADD10R,1.700000X1.700000*%
%ADD11C,1.700000*%
%ADD12RoundRect,0.150000X-0.150000X0.875000X-0.150000X-0.875000X0.150000X-0.875000X0.150000X0.875000X0*%
%ADD13R,1.500000X0.900000*%
%ADD14C,0.600000*%
%ADD15R,2.900000X2.900000*%
%ADD16RoundRect,0.102000X0.525000X0.325000X-0.525000X0.325000X-0.525000X-0.325000X0.525000X-0.325000X0*%
%ADD17C,0.650000*%
%ADD18RoundRect,0.150000X0.150000X0.425000X-0.150000X0.425000X-0.150000X-0.425000X0.150000X-0.425000X0*%
%ADD19RoundRect,0.075000X0.075000X0.500000X-0.075000X0.500000X-0.075000X-0.500000X0.075000X-0.500000X0*%
%ADD20O,1.000000X2.100000*%
%ADD21O,1.000000X1.800000*%
%ADD22RoundRect,0.225000X0.225000X0.250000X-0.225000X0.250000X-0.225000X-0.250000X0.225000X-0.250000X0*%
%ADD23R,0.650000X1.250000*%
%ADD24RoundRect,0.150000X0.150000X-0.875000X0.150000X0.875000X-0.150000X0.875000X-0.150000X-0.875000X0*%
%ADD25RoundRect,0.102000X-0.525000X-0.325000X0.525000X-0.325000X0.525000X0.325000X-0.525000X0.325000X0*%
%ADD26RoundRect,0.150000X-0.150000X-0.425000X0.150000X-0.425000X0.150000X0.425000X-0.150000X0.425000X0*%
%ADD27RoundRect,0.075000X-0.075000X-0.500000X0.075000X-0.500000X0.075000X0.500000X-0.075000X0.500000X0*%
%ADD28RoundRect,0.225000X-0.225000X-0.250000X0.225000X-0.250000X0.225000X0.250000X-0.225000X0.250000X0*%
G04 APERTURE END LIST*
D10*
%TO.C,J3*%
X159330000Y-137570000D03*
D11*
X159330000Y-135030000D03*
X159330000Y-132490000D03*
X159330000Y-129950000D03*
X159330000Y-127410000D03*
X159330000Y-124870000D03*
X159330000Y-122330000D03*
X159330000Y-119790000D03*
X159330000Y-117250000D03*
%TD*%
D10*
%TO.C,J4*%
X184730000Y-137570000D03*
D11*
X184730000Y-135030000D03*
X184730000Y-132490000D03*
X184730000Y-129950000D03*
X184730000Y-127410000D03*
X184730000Y-124870000D03*
X184730000Y-122330000D03*
X184730000Y-119790000D03*
X184730000Y-117250000D03*
%TD*%
D12*
%TO.C,U1*%
X180775000Y-117830000D03*
X179505000Y-117830000D03*
X178235000Y-117830000D03*
X176965000Y-117830000D03*
X175695000Y-117830000D03*
X174425000Y-117830000D03*
X173155000Y-117830000D03*
X171885000Y-117830000D03*
X171885000Y-127130000D03*
X173155000Y-127130000D03*
X174425000Y-127130000D03*
X175695000Y-127130000D03*
X176965000Y-127130000D03*
X178235000Y-127130000D03*
X179505000Y-127130000D03*
X180775000Y-127130000D03*
%TD*%
D13*
%TO.C,U2*%
X180780000Y-147480000D03*
X180780000Y-145980000D03*
X180780000Y-144480000D03*
X180780000Y-142980000D03*
X180780000Y-141480000D03*
X180780000Y-139980000D03*
X180780000Y-138480000D03*
X180780000Y-136980000D03*
X180780000Y-135480000D03*
X163280000Y-135480000D03*
X163280000Y-136980000D03*
X163280000Y-138480000D03*
X163280000Y-139980000D03*
X163280000Y-141480000D03*
X163280000Y-142980000D03*
X163280000Y-144480000D03*
X163280000Y-145980000D03*
X163280000Y-147480000D03*
D14*
X172170000Y-141830000D03*
X172170000Y-140730000D03*
X171620000Y-142380000D03*
X171620000Y-141280000D03*
X171620000Y-140180000D03*
X171070000Y-141830000D03*
D15*
X171070000Y-141280000D03*
D14*
X171070000Y-140730000D03*
X170520000Y-142380000D03*
X170520000Y-141280000D03*
X170520000Y-140180000D03*
X169970000Y-141830000D03*
X169970000Y-140730000D03*
%TD*%
D16*
%TO.C,SW1*%
X174405000Y-132305000D03*
X170255000Y-132305000D03*
X174405000Y-130155000D03*
X170255000Y-130155000D03*
%TD*%
D17*
%TO.C,J1*%
X167320000Y-110845000D03*
X161540000Y-110845000D03*
D18*
X167630000Y-111920000D03*
X166830000Y-111920000D03*
D19*
X165680000Y-111920000D03*
X164680000Y-111920000D03*
X164180000Y-111920000D03*
X163180000Y-111920000D03*
D18*
X162030000Y-111920000D03*
X161230000Y-111920000D03*
X161230000Y-111920000D03*
X162030000Y-111920000D03*
D19*
X162680000Y-111920000D03*
X163680000Y-111920000D03*
X165180000Y-111920000D03*
X166180000Y-111920000D03*
D18*
X166830000Y-111920000D03*
X167630000Y-111920000D03*
D20*
X168750000Y-111345000D03*
D21*
X168750000Y-107165000D03*
D20*
X160110000Y-111345000D03*
D21*
X160110000Y-107165000D03*
%TD*%
D22*
%TO.C,C8*%
X168355000Y-117230000D03*
X166805000Y-117230000D03*
%TD*%
D17*
%TO.C,J2*%
X182520000Y-110835000D03*
X176740000Y-110835000D03*
D18*
X182830000Y-111910000D03*
X182030000Y-111910000D03*
D19*
X180880000Y-111910000D03*
X179880000Y-111910000D03*
X179380000Y-111910000D03*
X178380000Y-111910000D03*
D18*
X177230000Y-111910000D03*
X176430000Y-111910000D03*
X176430000Y-111910000D03*
X177230000Y-111910000D03*
D19*
X177880000Y-111910000D03*
X178880000Y-111910000D03*
X180380000Y-111910000D03*
X181380000Y-111910000D03*
D18*
X182030000Y-111910000D03*
X182830000Y-111910000D03*
D20*
X183950000Y-111335000D03*
D21*
X183950000Y-107155000D03*
D20*
X175310000Y-111335000D03*
D21*
X175310000Y-107155000D03*
%TD*%
D22*
%TO.C,C6*%
X184105000Y-147480000D03*
X182555000Y-147480000D03*
%TD*%
%TO.C,C7*%
X168355000Y-114730000D03*
X166805000Y-114730000D03*
%TD*%
D23*
%TO.C,IC1*%
X165020000Y-114730000D03*
X164080000Y-114730000D03*
X163140000Y-114730000D03*
X163140000Y-117230000D03*
X165020000Y-117230000D03*
%TD*%
D10*
%TO.C,J3*%
X130330000Y-137570000D03*
D11*
X130330000Y-135030000D03*
X130330000Y-132490000D03*
X130330000Y-129950000D03*
X130330000Y-127410000D03*
X130330000Y-124870000D03*
X130330000Y-122330000D03*
X130330000Y-119790000D03*
X130330000Y-117250000D03*
%TD*%
D10*
%TO.C,J4*%
X155730000Y-137570000D03*
D11*
X155730000Y-135030000D03*
X155730000Y-132490000D03*
X155730000Y-129950000D03*
X155730000Y-127410000D03*
X155730000Y-124870000D03*
X155730000Y-122330000D03*
X155730000Y-119790000D03*
X155730000Y-117250000D03*
%TD*%
D12*
%TO.C,U1*%
X151775000Y-117830000D03*
X150505000Y-117830000D03*
X149235000Y-117830000D03*
X147965000Y-117830000D03*
X146695000Y-117830000D03*
X145425000Y-117830000D03*
X144155000Y-117830000D03*
X142885000Y-117830000D03*
X142885000Y-127130000D03*
X144155000Y-127130000D03*
X145425000Y-127130000D03*
X146695000Y-127130000D03*
X147965000Y-127130000D03*
X149235000Y-127130000D03*
X150505000Y-127130000D03*
X151775000Y-127130000D03*
%TD*%
D13*
%TO.C,U2*%
X151780000Y-147480000D03*
X151780000Y-145980000D03*
X151780000Y-144480000D03*
X151780000Y-142980000D03*
X151780000Y-141480000D03*
X151780000Y-139980000D03*
X151780000Y-138480000D03*
X151780000Y-136980000D03*
X151780000Y-135480000D03*
X134280000Y-135480000D03*
X134280000Y-136980000D03*
X134280000Y-138480000D03*
X134280000Y-139980000D03*
X134280000Y-141480000D03*
X134280000Y-142980000D03*
X134280000Y-144480000D03*
X134280000Y-145980000D03*
X134280000Y-147480000D03*
D14*
X143170000Y-141830000D03*
X143170000Y-140730000D03*
X142620000Y-142380000D03*
X142620000Y-141280000D03*
X142620000Y-140180000D03*
X142070000Y-141830000D03*
D15*
X142070000Y-141280000D03*
D14*
X142070000Y-140730000D03*
X141520000Y-142380000D03*
X141520000Y-141280000D03*
X141520000Y-140180000D03*
X140970000Y-141830000D03*
X140970000Y-140730000D03*
%TD*%
D16*
%TO.C,SW1*%
X145405000Y-132305000D03*
X141255000Y-132305000D03*
X145405000Y-130155000D03*
X141255000Y-130155000D03*
%TD*%
D17*
%TO.C,J1*%
X138320000Y-110845000D03*
X132540000Y-110845000D03*
D18*
X138630000Y-111920000D03*
X137830000Y-111920000D03*
D19*
X136680000Y-111920000D03*
X135680000Y-111920000D03*
X135180000Y-111920000D03*
X134180000Y-111920000D03*
D18*
X133030000Y-111920000D03*
X132230000Y-111920000D03*
X132230000Y-111920000D03*
X133030000Y-111920000D03*
D19*
X133680000Y-111920000D03*
X134680000Y-111920000D03*
X136180000Y-111920000D03*
X137180000Y-111920000D03*
D18*
X137830000Y-111920000D03*
X138630000Y-111920000D03*
D20*
X139750000Y-111345000D03*
D21*
X139750000Y-107165000D03*
D20*
X131110000Y-111345000D03*
D21*
X131110000Y-107165000D03*
%TD*%
D22*
%TO.C,C8*%
X139355000Y-117230000D03*
X137805000Y-117230000D03*
%TD*%
D17*
%TO.C,J2*%
X153520000Y-110835000D03*
X147740000Y-110835000D03*
D18*
X153830000Y-111910000D03*
X153030000Y-111910000D03*
D19*
X151880000Y-111910000D03*
X150880000Y-111910000D03*
X150380000Y-111910000D03*
X149380000Y-111910000D03*
D18*
X148230000Y-111910000D03*
X147430000Y-111910000D03*
X147430000Y-111910000D03*
X148230000Y-111910000D03*
D19*
X148880000Y-111910000D03*
X149880000Y-111910000D03*
X151380000Y-111910000D03*
X152380000Y-111910000D03*
D18*
X153030000Y-111910000D03*
X153830000Y-111910000D03*
D20*
X154950000Y-111335000D03*
D21*
X154950000Y-107155000D03*
D20*
X146310000Y-111335000D03*
D21*
X146310000Y-107155000D03*
%TD*%
D22*
%TO.C,C6*%
X155105000Y-147480000D03*
X153555000Y-147480000D03*
%TD*%
%TO.C,C7*%
X139355000Y-114730000D03*
X137805000Y-114730000D03*
%TD*%
D23*
%TO.C,IC1*%
X136020000Y-114730000D03*
X135080000Y-114730000D03*
X134140000Y-114730000D03*
X134140000Y-117230000D03*
X136020000Y-117230000D03*
%TD*%
D10*
%TO.C,J3*%
X101330000Y-137570000D03*
D11*
X101330000Y-135030000D03*
X101330000Y-132490000D03*
X101330000Y-129950000D03*
X101330000Y-127410000D03*
X101330000Y-124870000D03*
X101330000Y-122330000D03*
X101330000Y-119790000D03*
X101330000Y-117250000D03*
%TD*%
D10*
%TO.C,J4*%
X126730000Y-137570000D03*
D11*
X126730000Y-135030000D03*
X126730000Y-132490000D03*
X126730000Y-129950000D03*
X126730000Y-127410000D03*
X126730000Y-124870000D03*
X126730000Y-122330000D03*
X126730000Y-119790000D03*
X126730000Y-117250000D03*
%TD*%
D12*
%TO.C,U1*%
X122775000Y-117830000D03*
X121505000Y-117830000D03*
X120235000Y-117830000D03*
X118965000Y-117830000D03*
X117695000Y-117830000D03*
X116425000Y-117830000D03*
X115155000Y-117830000D03*
X113885000Y-117830000D03*
X113885000Y-127130000D03*
X115155000Y-127130000D03*
X116425000Y-127130000D03*
X117695000Y-127130000D03*
X118965000Y-127130000D03*
X120235000Y-127130000D03*
X121505000Y-127130000D03*
X122775000Y-127130000D03*
%TD*%
D13*
%TO.C,U2*%
X122780000Y-147480000D03*
X122780000Y-145980000D03*
X122780000Y-144480000D03*
X122780000Y-142980000D03*
X122780000Y-141480000D03*
X122780000Y-139980000D03*
X122780000Y-138480000D03*
X122780000Y-136980000D03*
X122780000Y-135480000D03*
X105280000Y-135480000D03*
X105280000Y-136980000D03*
X105280000Y-138480000D03*
X105280000Y-139980000D03*
X105280000Y-141480000D03*
X105280000Y-142980000D03*
X105280000Y-144480000D03*
X105280000Y-145980000D03*
X105280000Y-147480000D03*
D14*
X114170000Y-141830000D03*
X114170000Y-140730000D03*
X113620000Y-142380000D03*
X113620000Y-141280000D03*
X113620000Y-140180000D03*
X113070000Y-141830000D03*
D15*
X113070000Y-141280000D03*
D14*
X113070000Y-140730000D03*
X112520000Y-142380000D03*
X112520000Y-141280000D03*
X112520000Y-140180000D03*
X111970000Y-141830000D03*
X111970000Y-140730000D03*
%TD*%
D16*
%TO.C,SW1*%
X116405000Y-132305000D03*
X112255000Y-132305000D03*
X116405000Y-130155000D03*
X112255000Y-130155000D03*
%TD*%
D17*
%TO.C,J1*%
X109320000Y-110845000D03*
X103540000Y-110845000D03*
D18*
X109630000Y-111920000D03*
X108830000Y-111920000D03*
D19*
X107680000Y-111920000D03*
X106680000Y-111920000D03*
X106180000Y-111920000D03*
X105180000Y-111920000D03*
D18*
X104030000Y-111920000D03*
X103230000Y-111920000D03*
X103230000Y-111920000D03*
X104030000Y-111920000D03*
D19*
X104680000Y-111920000D03*
X105680000Y-111920000D03*
X107180000Y-111920000D03*
X108180000Y-111920000D03*
D18*
X108830000Y-111920000D03*
X109630000Y-111920000D03*
D20*
X110750000Y-111345000D03*
D21*
X110750000Y-107165000D03*
D20*
X102110000Y-111345000D03*
D21*
X102110000Y-107165000D03*
%TD*%
D22*
%TO.C,C8*%
X110355000Y-117230000D03*
X108805000Y-117230000D03*
%TD*%
D17*
%TO.C,J2*%
X124520000Y-110835000D03*
X118740000Y-110835000D03*
D18*
X124830000Y-111910000D03*
X124030000Y-111910000D03*
D19*
X122880000Y-111910000D03*
X121880000Y-111910000D03*
X121380000Y-111910000D03*
X120380000Y-111910000D03*
D18*
X119230000Y-111910000D03*
X118430000Y-111910000D03*
X118430000Y-111910000D03*
X119230000Y-111910000D03*
D19*
X119880000Y-111910000D03*
X120880000Y-111910000D03*
X122380000Y-111910000D03*
X123380000Y-111910000D03*
D18*
X124030000Y-111910000D03*
X124830000Y-111910000D03*
D20*
X125950000Y-111335000D03*
D21*
X125950000Y-107155000D03*
D20*
X117310000Y-111335000D03*
D21*
X117310000Y-107155000D03*
%TD*%
D22*
%TO.C,C6*%
X126105000Y-147480000D03*
X124555000Y-147480000D03*
%TD*%
%TO.C,C7*%
X110355000Y-114730000D03*
X108805000Y-114730000D03*
%TD*%
D23*
%TO.C,IC1*%
X107020000Y-114730000D03*
X106080000Y-114730000D03*
X105140000Y-114730000D03*
X105140000Y-117230000D03*
X107020000Y-117230000D03*
%TD*%
D10*
%TO.C,J3*%
X184670000Y-71430000D03*
D11*
X184670000Y-73970000D03*
X184670000Y-76510000D03*
X184670000Y-79050000D03*
X184670000Y-81590000D03*
X184670000Y-84130000D03*
X184670000Y-86670000D03*
X184670000Y-89210000D03*
X184670000Y-91750000D03*
%TD*%
D10*
%TO.C,J4*%
X159270000Y-71430000D03*
D11*
X159270000Y-73970000D03*
X159270000Y-76510000D03*
X159270000Y-79050000D03*
X159270000Y-81590000D03*
X159270000Y-84130000D03*
X159270000Y-86670000D03*
X159270000Y-89210000D03*
X159270000Y-91750000D03*
%TD*%
D24*
%TO.C,U1*%
X163225000Y-91170000D03*
X164495000Y-91170000D03*
X165765000Y-91170000D03*
X167035000Y-91170000D03*
X168305000Y-91170000D03*
X169575000Y-91170000D03*
X170845000Y-91170000D03*
X172115000Y-91170000D03*
X172115000Y-81870000D03*
X170845000Y-81870000D03*
X169575000Y-81870000D03*
X168305000Y-81870000D03*
X167035000Y-81870000D03*
X165765000Y-81870000D03*
X164495000Y-81870000D03*
X163225000Y-81870000D03*
%TD*%
D13*
%TO.C,U2*%
X163220000Y-61520000D03*
X163220000Y-63020000D03*
X163220000Y-64520000D03*
X163220000Y-66020000D03*
X163220000Y-67520000D03*
X163220000Y-69020000D03*
X163220000Y-70520000D03*
X163220000Y-72020000D03*
X163220000Y-73520000D03*
X180720000Y-73520000D03*
X180720000Y-72020000D03*
X180720000Y-70520000D03*
X180720000Y-69020000D03*
X180720000Y-67520000D03*
X180720000Y-66020000D03*
X180720000Y-64520000D03*
X180720000Y-63020000D03*
X180720000Y-61520000D03*
D14*
X171830000Y-67170000D03*
X171830000Y-68270000D03*
X172380000Y-66620000D03*
X172380000Y-67720000D03*
X172380000Y-68820000D03*
X172930000Y-67170000D03*
D15*
X172930000Y-67720000D03*
D14*
X172930000Y-68270000D03*
X173480000Y-66620000D03*
X173480000Y-67720000D03*
X173480000Y-68820000D03*
X174030000Y-67170000D03*
X174030000Y-68270000D03*
%TD*%
D25*
%TO.C,SW1*%
X169595000Y-76695000D03*
X173745000Y-76695000D03*
X169595000Y-78845000D03*
X173745000Y-78845000D03*
%TD*%
D17*
%TO.C,J1*%
X176680000Y-98155000D03*
X182460000Y-98155000D03*
D26*
X176370000Y-97080000D03*
X177170000Y-97080000D03*
D27*
X178320000Y-97080000D03*
X179320000Y-97080000D03*
X179820000Y-97080000D03*
X180820000Y-97080000D03*
D26*
X181970000Y-97080000D03*
X182770000Y-97080000D03*
X182770000Y-97080000D03*
X181970000Y-97080000D03*
D27*
X181320000Y-97080000D03*
X180320000Y-97080000D03*
X178820000Y-97080000D03*
X177820000Y-97080000D03*
D26*
X177170000Y-97080000D03*
X176370000Y-97080000D03*
D20*
X175250000Y-97655000D03*
D21*
X175250000Y-101835000D03*
D20*
X183890000Y-97655000D03*
D21*
X183890000Y-101835000D03*
%TD*%
D28*
%TO.C,C8*%
X175645000Y-91770000D03*
X177195000Y-91770000D03*
%TD*%
D17*
%TO.C,J2*%
X161480000Y-98165000D03*
X167260000Y-98165000D03*
D26*
X161170000Y-97090000D03*
X161970000Y-97090000D03*
D27*
X163120000Y-97090000D03*
X164120000Y-97090000D03*
X164620000Y-97090000D03*
X165620000Y-97090000D03*
D26*
X166770000Y-97090000D03*
X167570000Y-97090000D03*
X167570000Y-97090000D03*
X166770000Y-97090000D03*
D27*
X166120000Y-97090000D03*
X165120000Y-97090000D03*
X163620000Y-97090000D03*
X162620000Y-97090000D03*
D26*
X161970000Y-97090000D03*
X161170000Y-97090000D03*
D20*
X160050000Y-97665000D03*
D21*
X160050000Y-101845000D03*
D20*
X168690000Y-97665000D03*
D21*
X168690000Y-101845000D03*
%TD*%
D28*
%TO.C,C6*%
X159895000Y-61520000D03*
X161445000Y-61520000D03*
%TD*%
%TO.C,C7*%
X175645000Y-94270000D03*
X177195000Y-94270000D03*
%TD*%
D23*
%TO.C,IC1*%
X178980000Y-94270000D03*
X179920000Y-94270000D03*
X180860000Y-94270000D03*
X180860000Y-91770000D03*
X178980000Y-91770000D03*
%TD*%
D10*
%TO.C,J3*%
X155670000Y-71430000D03*
D11*
X155670000Y-73970000D03*
X155670000Y-76510000D03*
X155670000Y-79050000D03*
X155670000Y-81590000D03*
X155670000Y-84130000D03*
X155670000Y-86670000D03*
X155670000Y-89210000D03*
X155670000Y-91750000D03*
%TD*%
D10*
%TO.C,J4*%
X130270000Y-71430000D03*
D11*
X130270000Y-73970000D03*
X130270000Y-76510000D03*
X130270000Y-79050000D03*
X130270000Y-81590000D03*
X130270000Y-84130000D03*
X130270000Y-86670000D03*
X130270000Y-89210000D03*
X130270000Y-91750000D03*
%TD*%
D24*
%TO.C,U1*%
X134225000Y-91170000D03*
X135495000Y-91170000D03*
X136765000Y-91170000D03*
X138035000Y-91170000D03*
X139305000Y-91170000D03*
X140575000Y-91170000D03*
X141845000Y-91170000D03*
X143115000Y-91170000D03*
X143115000Y-81870000D03*
X141845000Y-81870000D03*
X140575000Y-81870000D03*
X139305000Y-81870000D03*
X138035000Y-81870000D03*
X136765000Y-81870000D03*
X135495000Y-81870000D03*
X134225000Y-81870000D03*
%TD*%
D13*
%TO.C,U2*%
X134220000Y-61520000D03*
X134220000Y-63020000D03*
X134220000Y-64520000D03*
X134220000Y-66020000D03*
X134220000Y-67520000D03*
X134220000Y-69020000D03*
X134220000Y-70520000D03*
X134220000Y-72020000D03*
X134220000Y-73520000D03*
X151720000Y-73520000D03*
X151720000Y-72020000D03*
X151720000Y-70520000D03*
X151720000Y-69020000D03*
X151720000Y-67520000D03*
X151720000Y-66020000D03*
X151720000Y-64520000D03*
X151720000Y-63020000D03*
X151720000Y-61520000D03*
D14*
X142830000Y-67170000D03*
X142830000Y-68270000D03*
X143380000Y-66620000D03*
X143380000Y-67720000D03*
X143380000Y-68820000D03*
X143930000Y-67170000D03*
D15*
X143930000Y-67720000D03*
D14*
X143930000Y-68270000D03*
X144480000Y-66620000D03*
X144480000Y-67720000D03*
X144480000Y-68820000D03*
X145030000Y-67170000D03*
X145030000Y-68270000D03*
%TD*%
D25*
%TO.C,SW1*%
X140595000Y-76695000D03*
X144745000Y-76695000D03*
X140595000Y-78845000D03*
X144745000Y-78845000D03*
%TD*%
D17*
%TO.C,J1*%
X147680000Y-98155000D03*
X153460000Y-98155000D03*
D26*
X147370000Y-97080000D03*
X148170000Y-97080000D03*
D27*
X149320000Y-97080000D03*
X150320000Y-97080000D03*
X150820000Y-97080000D03*
X151820000Y-97080000D03*
D26*
X152970000Y-97080000D03*
X153770000Y-97080000D03*
X153770000Y-97080000D03*
X152970000Y-97080000D03*
D27*
X152320000Y-97080000D03*
X151320000Y-97080000D03*
X149820000Y-97080000D03*
X148820000Y-97080000D03*
D26*
X148170000Y-97080000D03*
X147370000Y-97080000D03*
D20*
X146250000Y-97655000D03*
D21*
X146250000Y-101835000D03*
D20*
X154890000Y-97655000D03*
D21*
X154890000Y-101835000D03*
%TD*%
D28*
%TO.C,C8*%
X146645000Y-91770000D03*
X148195000Y-91770000D03*
%TD*%
D17*
%TO.C,J2*%
X132480000Y-98165000D03*
X138260000Y-98165000D03*
D26*
X132170000Y-97090000D03*
X132970000Y-97090000D03*
D27*
X134120000Y-97090000D03*
X135120000Y-97090000D03*
X135620000Y-97090000D03*
X136620000Y-97090000D03*
D26*
X137770000Y-97090000D03*
X138570000Y-97090000D03*
X138570000Y-97090000D03*
X137770000Y-97090000D03*
D27*
X137120000Y-97090000D03*
X136120000Y-97090000D03*
X134620000Y-97090000D03*
X133620000Y-97090000D03*
D26*
X132970000Y-97090000D03*
X132170000Y-97090000D03*
D20*
X131050000Y-97665000D03*
D21*
X131050000Y-101845000D03*
D20*
X139690000Y-97665000D03*
D21*
X139690000Y-101845000D03*
%TD*%
D28*
%TO.C,C6*%
X130895000Y-61520000D03*
X132445000Y-61520000D03*
%TD*%
%TO.C,C7*%
X146645000Y-94270000D03*
X148195000Y-94270000D03*
%TD*%
D23*
%TO.C,IC1*%
X149980000Y-94270000D03*
X150920000Y-94270000D03*
X151860000Y-94270000D03*
X151860000Y-91770000D03*
X149980000Y-91770000D03*
%TD*%
D10*
%TO.C,J3*%
X126670000Y-71430000D03*
D11*
X126670000Y-73970000D03*
X126670000Y-76510000D03*
X126670000Y-79050000D03*
X126670000Y-81590000D03*
X126670000Y-84130000D03*
X126670000Y-86670000D03*
X126670000Y-89210000D03*
X126670000Y-91750000D03*
%TD*%
D10*
%TO.C,J4*%
X101270000Y-71430000D03*
D11*
X101270000Y-73970000D03*
X101270000Y-76510000D03*
X101270000Y-79050000D03*
X101270000Y-81590000D03*
X101270000Y-84130000D03*
X101270000Y-86670000D03*
X101270000Y-89210000D03*
X101270000Y-91750000D03*
%TD*%
D24*
%TO.C,U1*%
X105225000Y-91170000D03*
X106495000Y-91170000D03*
X107765000Y-91170000D03*
X109035000Y-91170000D03*
X110305000Y-91170000D03*
X111575000Y-91170000D03*
X112845000Y-91170000D03*
X114115000Y-91170000D03*
X114115000Y-81870000D03*
X112845000Y-81870000D03*
X111575000Y-81870000D03*
X110305000Y-81870000D03*
X109035000Y-81870000D03*
X107765000Y-81870000D03*
X106495000Y-81870000D03*
X105225000Y-81870000D03*
%TD*%
D13*
%TO.C,U2*%
X105220000Y-61520000D03*
X105220000Y-63020000D03*
X105220000Y-64520000D03*
X105220000Y-66020000D03*
X105220000Y-67520000D03*
X105220000Y-69020000D03*
X105220000Y-70520000D03*
X105220000Y-72020000D03*
X105220000Y-73520000D03*
X122720000Y-73520000D03*
X122720000Y-72020000D03*
X122720000Y-70520000D03*
X122720000Y-69020000D03*
X122720000Y-67520000D03*
X122720000Y-66020000D03*
X122720000Y-64520000D03*
X122720000Y-63020000D03*
X122720000Y-61520000D03*
D14*
X113830000Y-67170000D03*
X113830000Y-68270000D03*
X114380000Y-66620000D03*
X114380000Y-67720000D03*
X114380000Y-68820000D03*
X114930000Y-67170000D03*
D15*
X114930000Y-67720000D03*
D14*
X114930000Y-68270000D03*
X115480000Y-66620000D03*
X115480000Y-67720000D03*
X115480000Y-68820000D03*
X116030000Y-67170000D03*
X116030000Y-68270000D03*
%TD*%
D25*
%TO.C,SW1*%
X111595000Y-76695000D03*
X115745000Y-76695000D03*
X111595000Y-78845000D03*
X115745000Y-78845000D03*
%TD*%
D17*
%TO.C,J1*%
X118680000Y-98155000D03*
X124460000Y-98155000D03*
D26*
X118370000Y-97080000D03*
X119170000Y-97080000D03*
D27*
X120320000Y-97080000D03*
X121320000Y-97080000D03*
X121820000Y-97080000D03*
X122820000Y-97080000D03*
D26*
X123970000Y-97080000D03*
X124770000Y-97080000D03*
X124770000Y-97080000D03*
X123970000Y-97080000D03*
D27*
X123320000Y-97080000D03*
X122320000Y-97080000D03*
X120820000Y-97080000D03*
X119820000Y-97080000D03*
D26*
X119170000Y-97080000D03*
X118370000Y-97080000D03*
D20*
X117250000Y-97655000D03*
D21*
X117250000Y-101835000D03*
D20*
X125890000Y-97655000D03*
D21*
X125890000Y-101835000D03*
%TD*%
D28*
%TO.C,C8*%
X117645000Y-91770000D03*
X119195000Y-91770000D03*
%TD*%
D17*
%TO.C,J2*%
X103480000Y-98165000D03*
X109260000Y-98165000D03*
D26*
X103170000Y-97090000D03*
X103970000Y-97090000D03*
D27*
X105120000Y-97090000D03*
X106120000Y-97090000D03*
X106620000Y-97090000D03*
X107620000Y-97090000D03*
D26*
X108770000Y-97090000D03*
X109570000Y-97090000D03*
X109570000Y-97090000D03*
X108770000Y-97090000D03*
D27*
X108120000Y-97090000D03*
X107120000Y-97090000D03*
X105620000Y-97090000D03*
X104620000Y-97090000D03*
D26*
X103970000Y-97090000D03*
X103170000Y-97090000D03*
D20*
X102050000Y-97665000D03*
D21*
X102050000Y-101845000D03*
D20*
X110690000Y-97665000D03*
D21*
X110690000Y-101845000D03*
%TD*%
D28*
%TO.C,C6*%
X101895000Y-61520000D03*
X103445000Y-61520000D03*
%TD*%
%TO.C,C7*%
X117645000Y-94270000D03*
X119195000Y-94270000D03*
%TD*%
D23*
%TO.C,IC1*%
X120980000Y-94270000D03*
X121920000Y-94270000D03*
X122860000Y-94270000D03*
X122860000Y-91770000D03*
X120980000Y-91770000D03*
%TD*%
G36*
X128943039Y-60019685D02*
G01*
X128988794Y-60072489D01*
X129000000Y-60124000D01*
X129000000Y-104000000D01*
X157000000Y-104000000D01*
X157000000Y-60124000D01*
X157019685Y-60056961D01*
X157072489Y-60011206D01*
X157124000Y-60000000D01*
X157876000Y-60000000D01*
X157943039Y-60019685D01*
X157988794Y-60072489D01*
X158000000Y-60124000D01*
X158000000Y-104000000D01*
X185876000Y-104000000D01*
X185943039Y-104019685D01*
X185988794Y-104072489D01*
X186000000Y-104124000D01*
X186000000Y-104876000D01*
X185980315Y-104943039D01*
X185927511Y-104988794D01*
X185876000Y-105000000D01*
X158000000Y-105000000D01*
X158000000Y-148876000D01*
X157980315Y-148943039D01*
X157927511Y-148988794D01*
X157876000Y-149000000D01*
X157124000Y-149000000D01*
X157056961Y-148980315D01*
X157011206Y-148927511D01*
X157000000Y-148876000D01*
X157000000Y-105000000D01*
X129000000Y-105000000D01*
X129000000Y-148876000D01*
X128980315Y-148943039D01*
X128927511Y-148988794D01*
X128876000Y-149000000D01*
X128124000Y-149000000D01*
X128056961Y-148980315D01*
X128011206Y-148927511D01*
X128000000Y-148876000D01*
X128000000Y-105000000D01*
X100124000Y-105000000D01*
X100056961Y-104980315D01*
X100011206Y-104927511D01*
X100000000Y-104876000D01*
X100000000Y-104124000D01*
X100019685Y-104056961D01*
X100072489Y-104011206D01*
X100124000Y-104000000D01*
X128000000Y-104000000D01*
X128000000Y-60124000D01*
X128019685Y-60056961D01*
X128072489Y-60011206D01*
X128124000Y-60000000D01*
X128876000Y-60000000D01*
X128943039Y-60019685D01*
G37*
M02*
