M48
; DRILL file {KiCad 9.0.5} date 2025-11-09T20:25:53+0900
; FORMAT={-:-/ absolute / metric / decimal}
; #@! TF.CreationDate,2025-11-09T20:25:53+09:00
; #@! TF.GenerationSoftware,Kicad,Pcbnew,9.0.5
; #@! TF.FileFunction,NonPlated,1,2,NPTH
FMAT,2
METRIC
; #@! TA.AperFunction,NonPlated,NPTH,ComponentDrill
T1C0.650
%
G90
G05
T1
X103.48Y-98.165
X103.54Y-110.845
X109.26Y-98.165
X109.32Y-110.845
X118.68Y-98.155
X118.74Y-110.835
X124.46Y-98.155
X124.52Y-110.835
X132.48Y-98.165
X132.54Y-110.845
X138.26Y-98.165
X138.32Y-110.845
X147.68Y-98.155
X147.74Y-110.835
X153.46Y-98.155
X153.52Y-110.835
X161.48Y-98.165
X161.54Y-110.845
X167.26Y-98.165
X167.32Y-110.845
X176.68Y-98.155
X176.74Y-110.835
X182.46Y-98.155
X182.52Y-110.835
M30
