%TF.GenerationSoftware,KiCad,Pcbnew,9.0.5*%
%TF.CreationDate,2025-11-09T20:26:00+09:00*%
%TF.ProjectId,C3_men,43335f6d-656e-42e6-9b69-6361645f7063,rev?*%
%TF.SameCoordinates,Original*%
%TF.FileFunction,Soldermask,Bot*%
%TF.FilePolarity,Negative*%
%FSLAX46Y46*%
G04 Gerber Fmt 4.6, Leading zero omitted, Abs format (unit mm)*
G04 Created by KiCad (PCBNEW 9.0.5) date 2025-11-09 20:26:00*
%MOMM*%
%LPD*%
G01*
G04 APERTURE LIST*
G04 Aperture macros list*
%AMRoundRect*
0 Rectangle with rounded corners*
0 $1 Rounding radius*
0 $2 $3 $4 $5 $6 $7 $8 $9 X,Y pos of 4 corners*
0 Add a 4 corners polygon primitive as box body*
4,1,4,$2,$3,$4,$5,$6,$7,$8,$9,$2,$3,0*
0 Add four circle primitives for the rounded corners*
1,1,$1+$1,$2,$3*
1,1,$1+$1,$4,$5*
1,1,$1+$1,$6,$7*
1,1,$1+$1,$8,$9*
0 Add four rect primitives between the rounded corners*
20,1,$1+$1,$2,$3,$4,$5,0*
20,1,$1+$1,$4,$5,$6,$7,0*
20,1,$1+$1,$6,$7,$8,$9,0*
20,1,$1+$1,$8,$9,$2,$3,0*%
%AMFreePoly0*
4,1,23,0.500000,-0.750000,0.000000,-0.750000,0.000000,-0.745722,-0.065263,-0.745722,-0.191342,-0.711940,-0.304381,-0.646677,-0.396677,-0.554381,-0.461940,-0.441342,-0.495722,-0.315263,-0.495722,-0.250000,-0.500000,-0.250000,-0.500000,0.250000,-0.495722,0.250000,-0.495722,0.315263,-0.461940,0.441342,-0.396677,0.554381,-0.304381,0.646677,-0.191342,0.711940,-0.065263,0.745722,0.000000,0.745722,
0.000000,0.750000,0.500000,0.750000,0.500000,-0.750000,0.500000,-0.750000,$1*%
%AMFreePoly1*
4,1,23,0.000000,0.745722,0.065263,0.745722,0.191342,0.711940,0.304381,0.646677,0.396677,0.554381,0.461940,0.441342,0.495722,0.315263,0.495722,0.250000,0.500000,0.250000,0.500000,-0.250000,0.495722,-0.250000,0.495722,-0.315263,0.461940,-0.441342,0.396677,-0.554381,0.304381,-0.646677,0.191342,-0.711940,0.065263,-0.745722,0.000000,-0.745722,0.000000,-0.750000,-0.500000,-0.750000,
-0.500000,0.750000,0.000000,0.750000,0.000000,0.745722,0.000000,0.745722,$1*%
G04 Aperture macros list end*
%ADD10RoundRect,0.200000X-0.275000X0.200000X-0.275000X-0.200000X0.275000X-0.200000X0.275000X0.200000X0*%
%ADD11R,1.700000X1.700000*%
%ADD12C,1.700000*%
%ADD13RoundRect,0.200000X0.200000X0.275000X-0.200000X0.275000X-0.200000X-0.275000X0.200000X-0.275000X0*%
%ADD14RoundRect,0.200000X0.275000X-0.200000X0.275000X0.200000X-0.275000X0.200000X-0.275000X-0.200000X0*%
%ADD15RoundRect,0.225000X-0.225000X-0.250000X0.225000X-0.250000X0.225000X0.250000X-0.225000X0.250000X0*%
%ADD16RoundRect,0.225000X-0.250000X0.225000X-0.250000X-0.225000X0.250000X-0.225000X0.250000X0.225000X0*%
%ADD17RoundRect,0.200000X-0.200000X-0.275000X0.200000X-0.275000X0.200000X0.275000X-0.200000X0.275000X0*%
%ADD18RoundRect,0.225000X0.225000X0.250000X-0.225000X0.250000X-0.225000X-0.250000X0.225000X-0.250000X0*%
%ADD19C,0.650000*%
%ADD20O,1.000000X2.100000*%
%ADD21O,1.000000X1.800000*%
%ADD22FreePoly0,270.000000*%
%ADD23FreePoly1,270.000000*%
%ADD24RoundRect,0.225000X0.250000X-0.225000X0.250000X0.225000X-0.250000X0.225000X-0.250000X-0.225000X0*%
%ADD25FreePoly0,90.000000*%
%ADD26FreePoly1,90.000000*%
G04 APERTURE END LIST*
%TO.C,JP1*%
G36*
X164800000Y-135930000D02*
G01*
X166300000Y-135930000D01*
X166300000Y-136230000D01*
X164800000Y-136230000D01*
X164800000Y-135930000D01*
G37*
%TO.C,JP2*%
G36*
X162580000Y-135930000D02*
G01*
X164080000Y-135930000D01*
X164080000Y-136230000D01*
X162580000Y-136230000D01*
X162580000Y-135930000D01*
G37*
%TO.C,JP1*%
G36*
X135800000Y-135930000D02*
G01*
X137300000Y-135930000D01*
X137300000Y-136230000D01*
X135800000Y-136230000D01*
X135800000Y-135930000D01*
G37*
%TO.C,JP2*%
G36*
X133580000Y-135930000D02*
G01*
X135080000Y-135930000D01*
X135080000Y-136230000D01*
X133580000Y-136230000D01*
X133580000Y-135930000D01*
G37*
%TO.C,JP1*%
G36*
X106800000Y-135930000D02*
G01*
X108300000Y-135930000D01*
X108300000Y-136230000D01*
X106800000Y-136230000D01*
X106800000Y-135930000D01*
G37*
%TO.C,JP2*%
G36*
X104580000Y-135930000D02*
G01*
X106080000Y-135930000D01*
X106080000Y-136230000D01*
X104580000Y-136230000D01*
X104580000Y-135930000D01*
G37*
%TO.C,JP1*%
G36*
X179200000Y-73070000D02*
G01*
X177700000Y-73070000D01*
X177700000Y-72770000D01*
X179200000Y-72770000D01*
X179200000Y-73070000D01*
G37*
%TO.C,JP2*%
G36*
X181420000Y-73070000D02*
G01*
X179920000Y-73070000D01*
X179920000Y-72770000D01*
X181420000Y-72770000D01*
X181420000Y-73070000D01*
G37*
%TO.C,JP1*%
G36*
X150200000Y-73070000D02*
G01*
X148700000Y-73070000D01*
X148700000Y-72770000D01*
X150200000Y-72770000D01*
X150200000Y-73070000D01*
G37*
%TO.C,JP2*%
G36*
X152420000Y-73070000D02*
G01*
X150920000Y-73070000D01*
X150920000Y-72770000D01*
X152420000Y-72770000D01*
X152420000Y-73070000D01*
G37*
%TO.C,JP1*%
G36*
X121200000Y-73070000D02*
G01*
X119700000Y-73070000D01*
X119700000Y-72770000D01*
X121200000Y-72770000D01*
X121200000Y-73070000D01*
G37*
%TO.C,JP2*%
G36*
X123420000Y-73070000D02*
G01*
X121920000Y-73070000D01*
X121920000Y-72770000D01*
X123420000Y-72770000D01*
X123420000Y-73070000D01*
G37*
%TD*%
D10*
%TO.C,R13*%
X174580000Y-128905000D03*
X174580000Y-130555000D03*
%TD*%
D11*
%TO.C,J3*%
X159330000Y-137570000D03*
D12*
X159330000Y-135030000D03*
X159330000Y-132490000D03*
X159330000Y-129950000D03*
X159330000Y-127410000D03*
X159330000Y-124870000D03*
X159330000Y-122330000D03*
X159330000Y-119790000D03*
X159330000Y-117250000D03*
%TD*%
D13*
%TO.C,R7*%
X177905000Y-119480000D03*
X176255000Y-119480000D03*
%TD*%
D14*
%TO.C,R4*%
X177880000Y-109805000D03*
X177880000Y-108155000D03*
%TD*%
D15*
%TO.C,C3*%
X179305000Y-126980000D03*
X180855000Y-126980000D03*
%TD*%
D11*
%TO.C,J4*%
X184730000Y-137570000D03*
D12*
X184730000Y-135030000D03*
X184730000Y-132490000D03*
X184730000Y-129950000D03*
X184730000Y-127410000D03*
X184730000Y-124870000D03*
X184730000Y-122330000D03*
X184730000Y-119790000D03*
X184730000Y-117250000D03*
%TD*%
D16*
%TO.C,C9*%
X170330000Y-130455000D03*
X170330000Y-132005000D03*
%TD*%
D14*
%TO.C,R2*%
X162680000Y-109730000D03*
X162680000Y-108080000D03*
%TD*%
D13*
%TO.C,R8*%
X177905000Y-117980000D03*
X176255000Y-117980000D03*
%TD*%
D17*
%TO.C,R10*%
X176255000Y-126980000D03*
X177905000Y-126980000D03*
%TD*%
D18*
%TO.C,C1*%
X180855000Y-119480000D03*
X179305000Y-119480000D03*
%TD*%
D15*
%TO.C,C2*%
X179305000Y-117980000D03*
X180855000Y-117980000D03*
%TD*%
D18*
%TO.C,C4*%
X182380000Y-145980000D03*
X180830000Y-145980000D03*
%TD*%
D14*
%TO.C,R1*%
X165680000Y-109730000D03*
X165680000Y-108080000D03*
%TD*%
%TO.C,R3*%
X180880000Y-109805000D03*
X180880000Y-108155000D03*
%TD*%
D19*
%TO.C,J1*%
X167320000Y-110845000D03*
X161540000Y-110845000D03*
D20*
X168750000Y-111345000D03*
D21*
X168750000Y-107165000D03*
D20*
X160110000Y-111345000D03*
D21*
X160110000Y-107165000D03*
%TD*%
D10*
%TO.C,R5*%
X178830000Y-113480000D03*
X178830000Y-115130000D03*
%TD*%
D22*
%TO.C,JP1*%
X165550000Y-135430000D03*
D23*
X165550000Y-136730000D03*
%TD*%
D17*
%TO.C,R11*%
X176255000Y-125480000D03*
X177905000Y-125480000D03*
%TD*%
D14*
%TO.C,R9*%
X179330000Y-147555000D03*
X179330000Y-145905000D03*
%TD*%
D18*
%TO.C,C5*%
X180855000Y-125480000D03*
X179305000Y-125480000D03*
%TD*%
D22*
%TO.C,JP2*%
X163330000Y-135430000D03*
D23*
X163330000Y-136730000D03*
%TD*%
D19*
%TO.C,J2*%
X182520000Y-110835000D03*
X176740000Y-110835000D03*
D20*
X183950000Y-111335000D03*
D21*
X183950000Y-107155000D03*
D20*
X175310000Y-111335000D03*
D21*
X175310000Y-107155000D03*
%TD*%
D10*
%TO.C,R6*%
X180330000Y-113480000D03*
X180330000Y-115130000D03*
%TD*%
%TO.C,R12*%
X173080000Y-128905000D03*
X173080000Y-130555000D03*
%TD*%
%TO.C,R13*%
X145580000Y-128905000D03*
X145580000Y-130555000D03*
%TD*%
D11*
%TO.C,J3*%
X130330000Y-137570000D03*
D12*
X130330000Y-135030000D03*
X130330000Y-132490000D03*
X130330000Y-129950000D03*
X130330000Y-127410000D03*
X130330000Y-124870000D03*
X130330000Y-122330000D03*
X130330000Y-119790000D03*
X130330000Y-117250000D03*
%TD*%
D13*
%TO.C,R7*%
X148905000Y-119480000D03*
X147255000Y-119480000D03*
%TD*%
D14*
%TO.C,R4*%
X148880000Y-109805000D03*
X148880000Y-108155000D03*
%TD*%
D15*
%TO.C,C3*%
X150305000Y-126980000D03*
X151855000Y-126980000D03*
%TD*%
D11*
%TO.C,J4*%
X155730000Y-137570000D03*
D12*
X155730000Y-135030000D03*
X155730000Y-132490000D03*
X155730000Y-129950000D03*
X155730000Y-127410000D03*
X155730000Y-124870000D03*
X155730000Y-122330000D03*
X155730000Y-119790000D03*
X155730000Y-117250000D03*
%TD*%
D16*
%TO.C,C9*%
X141330000Y-130455000D03*
X141330000Y-132005000D03*
%TD*%
D14*
%TO.C,R2*%
X133680000Y-109730000D03*
X133680000Y-108080000D03*
%TD*%
D13*
%TO.C,R8*%
X148905000Y-117980000D03*
X147255000Y-117980000D03*
%TD*%
D17*
%TO.C,R10*%
X147255000Y-126980000D03*
X148905000Y-126980000D03*
%TD*%
D18*
%TO.C,C1*%
X151855000Y-119480000D03*
X150305000Y-119480000D03*
%TD*%
D15*
%TO.C,C2*%
X150305000Y-117980000D03*
X151855000Y-117980000D03*
%TD*%
D18*
%TO.C,C4*%
X153380000Y-145980000D03*
X151830000Y-145980000D03*
%TD*%
D14*
%TO.C,R1*%
X136680000Y-109730000D03*
X136680000Y-108080000D03*
%TD*%
%TO.C,R3*%
X151880000Y-109805000D03*
X151880000Y-108155000D03*
%TD*%
D19*
%TO.C,J1*%
X138320000Y-110845000D03*
X132540000Y-110845000D03*
D20*
X139750000Y-111345000D03*
D21*
X139750000Y-107165000D03*
D20*
X131110000Y-111345000D03*
D21*
X131110000Y-107165000D03*
%TD*%
D10*
%TO.C,R5*%
X149830000Y-113480000D03*
X149830000Y-115130000D03*
%TD*%
D22*
%TO.C,JP1*%
X136550000Y-135430000D03*
D23*
X136550000Y-136730000D03*
%TD*%
D17*
%TO.C,R11*%
X147255000Y-125480000D03*
X148905000Y-125480000D03*
%TD*%
D14*
%TO.C,R9*%
X150330000Y-147555000D03*
X150330000Y-145905000D03*
%TD*%
D18*
%TO.C,C5*%
X151855000Y-125480000D03*
X150305000Y-125480000D03*
%TD*%
D22*
%TO.C,JP2*%
X134330000Y-135430000D03*
D23*
X134330000Y-136730000D03*
%TD*%
D19*
%TO.C,J2*%
X153520000Y-110835000D03*
X147740000Y-110835000D03*
D20*
X154950000Y-111335000D03*
D21*
X154950000Y-107155000D03*
D20*
X146310000Y-111335000D03*
D21*
X146310000Y-107155000D03*
%TD*%
D10*
%TO.C,R6*%
X151330000Y-113480000D03*
X151330000Y-115130000D03*
%TD*%
%TO.C,R12*%
X144080000Y-128905000D03*
X144080000Y-130555000D03*
%TD*%
%TO.C,R13*%
X116580000Y-128905000D03*
X116580000Y-130555000D03*
%TD*%
D11*
%TO.C,J3*%
X101330000Y-137570000D03*
D12*
X101330000Y-135030000D03*
X101330000Y-132490000D03*
X101330000Y-129950000D03*
X101330000Y-127410000D03*
X101330000Y-124870000D03*
X101330000Y-122330000D03*
X101330000Y-119790000D03*
X101330000Y-117250000D03*
%TD*%
D13*
%TO.C,R7*%
X119905000Y-119480000D03*
X118255000Y-119480000D03*
%TD*%
D14*
%TO.C,R4*%
X119880000Y-109805000D03*
X119880000Y-108155000D03*
%TD*%
D15*
%TO.C,C3*%
X121305000Y-126980000D03*
X122855000Y-126980000D03*
%TD*%
D11*
%TO.C,J4*%
X126730000Y-137570000D03*
D12*
X126730000Y-135030000D03*
X126730000Y-132490000D03*
X126730000Y-129950000D03*
X126730000Y-127410000D03*
X126730000Y-124870000D03*
X126730000Y-122330000D03*
X126730000Y-119790000D03*
X126730000Y-117250000D03*
%TD*%
D16*
%TO.C,C9*%
X112330000Y-130455000D03*
X112330000Y-132005000D03*
%TD*%
D14*
%TO.C,R2*%
X104680000Y-109730000D03*
X104680000Y-108080000D03*
%TD*%
D13*
%TO.C,R8*%
X119905000Y-117980000D03*
X118255000Y-117980000D03*
%TD*%
D17*
%TO.C,R10*%
X118255000Y-126980000D03*
X119905000Y-126980000D03*
%TD*%
D18*
%TO.C,C1*%
X122855000Y-119480000D03*
X121305000Y-119480000D03*
%TD*%
D15*
%TO.C,C2*%
X121305000Y-117980000D03*
X122855000Y-117980000D03*
%TD*%
D18*
%TO.C,C4*%
X124380000Y-145980000D03*
X122830000Y-145980000D03*
%TD*%
D14*
%TO.C,R1*%
X107680000Y-109730000D03*
X107680000Y-108080000D03*
%TD*%
%TO.C,R3*%
X122880000Y-109805000D03*
X122880000Y-108155000D03*
%TD*%
D19*
%TO.C,J1*%
X109320000Y-110845000D03*
X103540000Y-110845000D03*
D20*
X110750000Y-111345000D03*
D21*
X110750000Y-107165000D03*
D20*
X102110000Y-111345000D03*
D21*
X102110000Y-107165000D03*
%TD*%
D10*
%TO.C,R5*%
X120830000Y-113480000D03*
X120830000Y-115130000D03*
%TD*%
D22*
%TO.C,JP1*%
X107550000Y-135430000D03*
D23*
X107550000Y-136730000D03*
%TD*%
D17*
%TO.C,R11*%
X118255000Y-125480000D03*
X119905000Y-125480000D03*
%TD*%
D14*
%TO.C,R9*%
X121330000Y-147555000D03*
X121330000Y-145905000D03*
%TD*%
D18*
%TO.C,C5*%
X122855000Y-125480000D03*
X121305000Y-125480000D03*
%TD*%
D22*
%TO.C,JP2*%
X105330000Y-135430000D03*
D23*
X105330000Y-136730000D03*
%TD*%
D19*
%TO.C,J2*%
X124520000Y-110835000D03*
X118740000Y-110835000D03*
D20*
X125950000Y-111335000D03*
D21*
X125950000Y-107155000D03*
D20*
X117310000Y-111335000D03*
D21*
X117310000Y-107155000D03*
%TD*%
D10*
%TO.C,R6*%
X122330000Y-113480000D03*
X122330000Y-115130000D03*
%TD*%
%TO.C,R12*%
X115080000Y-128905000D03*
X115080000Y-130555000D03*
%TD*%
D14*
%TO.C,R13*%
X169420000Y-80095000D03*
X169420000Y-78445000D03*
%TD*%
D11*
%TO.C,J3*%
X184670000Y-71430000D03*
D12*
X184670000Y-73970000D03*
X184670000Y-76510000D03*
X184670000Y-79050000D03*
X184670000Y-81590000D03*
X184670000Y-84130000D03*
X184670000Y-86670000D03*
X184670000Y-89210000D03*
X184670000Y-91750000D03*
%TD*%
D17*
%TO.C,R7*%
X166095000Y-89520000D03*
X167745000Y-89520000D03*
%TD*%
D10*
%TO.C,R4*%
X166120000Y-99195000D03*
X166120000Y-100845000D03*
%TD*%
D18*
%TO.C,C3*%
X164695000Y-82020000D03*
X163145000Y-82020000D03*
%TD*%
D11*
%TO.C,J4*%
X159270000Y-71430000D03*
D12*
X159270000Y-73970000D03*
X159270000Y-76510000D03*
X159270000Y-79050000D03*
X159270000Y-81590000D03*
X159270000Y-84130000D03*
X159270000Y-86670000D03*
X159270000Y-89210000D03*
X159270000Y-91750000D03*
%TD*%
D24*
%TO.C,C9*%
X173670000Y-78545000D03*
X173670000Y-76995000D03*
%TD*%
D10*
%TO.C,R2*%
X181320000Y-99270000D03*
X181320000Y-100920000D03*
%TD*%
D17*
%TO.C,R8*%
X166095000Y-91020000D03*
X167745000Y-91020000D03*
%TD*%
D13*
%TO.C,R10*%
X167745000Y-82020000D03*
X166095000Y-82020000D03*
%TD*%
D15*
%TO.C,C1*%
X163145000Y-89520000D03*
X164695000Y-89520000D03*
%TD*%
D18*
%TO.C,C2*%
X164695000Y-91020000D03*
X163145000Y-91020000D03*
%TD*%
D15*
%TO.C,C4*%
X161620000Y-63020000D03*
X163170000Y-63020000D03*
%TD*%
D10*
%TO.C,R1*%
X178320000Y-99270000D03*
X178320000Y-100920000D03*
%TD*%
%TO.C,R3*%
X163120000Y-99195000D03*
X163120000Y-100845000D03*
%TD*%
D19*
%TO.C,J1*%
X176680000Y-98155000D03*
X182460000Y-98155000D03*
D20*
X175250000Y-97655000D03*
D21*
X175250000Y-101835000D03*
D20*
X183890000Y-97655000D03*
D21*
X183890000Y-101835000D03*
%TD*%
D14*
%TO.C,R5*%
X165170000Y-95520000D03*
X165170000Y-93870000D03*
%TD*%
D25*
%TO.C,JP1*%
X178450000Y-73570000D03*
D26*
X178450000Y-72270000D03*
%TD*%
D13*
%TO.C,R11*%
X167745000Y-83520000D03*
X166095000Y-83520000D03*
%TD*%
D10*
%TO.C,R9*%
X164670000Y-61445000D03*
X164670000Y-63095000D03*
%TD*%
D15*
%TO.C,C5*%
X163145000Y-83520000D03*
X164695000Y-83520000D03*
%TD*%
D25*
%TO.C,JP2*%
X180670000Y-73570000D03*
D26*
X180670000Y-72270000D03*
%TD*%
D19*
%TO.C,J2*%
X161480000Y-98165000D03*
X167260000Y-98165000D03*
D20*
X160050000Y-97665000D03*
D21*
X160050000Y-101845000D03*
D20*
X168690000Y-97665000D03*
D21*
X168690000Y-101845000D03*
%TD*%
D14*
%TO.C,R6*%
X163670000Y-95520000D03*
X163670000Y-93870000D03*
%TD*%
%TO.C,R12*%
X170920000Y-80095000D03*
X170920000Y-78445000D03*
%TD*%
%TO.C,R13*%
X140420000Y-80095000D03*
X140420000Y-78445000D03*
%TD*%
D11*
%TO.C,J3*%
X155670000Y-71430000D03*
D12*
X155670000Y-73970000D03*
X155670000Y-76510000D03*
X155670000Y-79050000D03*
X155670000Y-81590000D03*
X155670000Y-84130000D03*
X155670000Y-86670000D03*
X155670000Y-89210000D03*
X155670000Y-91750000D03*
%TD*%
D17*
%TO.C,R7*%
X137095000Y-89520000D03*
X138745000Y-89520000D03*
%TD*%
D10*
%TO.C,R4*%
X137120000Y-99195000D03*
X137120000Y-100845000D03*
%TD*%
D18*
%TO.C,C3*%
X135695000Y-82020000D03*
X134145000Y-82020000D03*
%TD*%
D11*
%TO.C,J4*%
X130270000Y-71430000D03*
D12*
X130270000Y-73970000D03*
X130270000Y-76510000D03*
X130270000Y-79050000D03*
X130270000Y-81590000D03*
X130270000Y-84130000D03*
X130270000Y-86670000D03*
X130270000Y-89210000D03*
X130270000Y-91750000D03*
%TD*%
D24*
%TO.C,C9*%
X144670000Y-78545000D03*
X144670000Y-76995000D03*
%TD*%
D10*
%TO.C,R2*%
X152320000Y-99270000D03*
X152320000Y-100920000D03*
%TD*%
D17*
%TO.C,R8*%
X137095000Y-91020000D03*
X138745000Y-91020000D03*
%TD*%
D13*
%TO.C,R10*%
X138745000Y-82020000D03*
X137095000Y-82020000D03*
%TD*%
D15*
%TO.C,C1*%
X134145000Y-89520000D03*
X135695000Y-89520000D03*
%TD*%
D18*
%TO.C,C2*%
X135695000Y-91020000D03*
X134145000Y-91020000D03*
%TD*%
D15*
%TO.C,C4*%
X132620000Y-63020000D03*
X134170000Y-63020000D03*
%TD*%
D10*
%TO.C,R1*%
X149320000Y-99270000D03*
X149320000Y-100920000D03*
%TD*%
%TO.C,R3*%
X134120000Y-99195000D03*
X134120000Y-100845000D03*
%TD*%
D19*
%TO.C,J1*%
X147680000Y-98155000D03*
X153460000Y-98155000D03*
D20*
X146250000Y-97655000D03*
D21*
X146250000Y-101835000D03*
D20*
X154890000Y-97655000D03*
D21*
X154890000Y-101835000D03*
%TD*%
D14*
%TO.C,R5*%
X136170000Y-95520000D03*
X136170000Y-93870000D03*
%TD*%
D25*
%TO.C,JP1*%
X149450000Y-73570000D03*
D26*
X149450000Y-72270000D03*
%TD*%
D13*
%TO.C,R11*%
X138745000Y-83520000D03*
X137095000Y-83520000D03*
%TD*%
D10*
%TO.C,R9*%
X135670000Y-61445000D03*
X135670000Y-63095000D03*
%TD*%
D15*
%TO.C,C5*%
X134145000Y-83520000D03*
X135695000Y-83520000D03*
%TD*%
D25*
%TO.C,JP2*%
X151670000Y-73570000D03*
D26*
X151670000Y-72270000D03*
%TD*%
D19*
%TO.C,J2*%
X132480000Y-98165000D03*
X138260000Y-98165000D03*
D20*
X131050000Y-97665000D03*
D21*
X131050000Y-101845000D03*
D20*
X139690000Y-97665000D03*
D21*
X139690000Y-101845000D03*
%TD*%
D14*
%TO.C,R6*%
X134670000Y-95520000D03*
X134670000Y-93870000D03*
%TD*%
%TO.C,R12*%
X141920000Y-80095000D03*
X141920000Y-78445000D03*
%TD*%
%TO.C,R13*%
X111420000Y-80095000D03*
X111420000Y-78445000D03*
%TD*%
D11*
%TO.C,J3*%
X126670000Y-71430000D03*
D12*
X126670000Y-73970000D03*
X126670000Y-76510000D03*
X126670000Y-79050000D03*
X126670000Y-81590000D03*
X126670000Y-84130000D03*
X126670000Y-86670000D03*
X126670000Y-89210000D03*
X126670000Y-91750000D03*
%TD*%
D17*
%TO.C,R7*%
X108095000Y-89520000D03*
X109745000Y-89520000D03*
%TD*%
D10*
%TO.C,R4*%
X108120000Y-99195000D03*
X108120000Y-100845000D03*
%TD*%
D18*
%TO.C,C3*%
X106695000Y-82020000D03*
X105145000Y-82020000D03*
%TD*%
D11*
%TO.C,J4*%
X101270000Y-71430000D03*
D12*
X101270000Y-73970000D03*
X101270000Y-76510000D03*
X101270000Y-79050000D03*
X101270000Y-81590000D03*
X101270000Y-84130000D03*
X101270000Y-86670000D03*
X101270000Y-89210000D03*
X101270000Y-91750000D03*
%TD*%
D24*
%TO.C,C9*%
X115670000Y-78545000D03*
X115670000Y-76995000D03*
%TD*%
D10*
%TO.C,R2*%
X123320000Y-99270000D03*
X123320000Y-100920000D03*
%TD*%
D17*
%TO.C,R8*%
X108095000Y-91020000D03*
X109745000Y-91020000D03*
%TD*%
D13*
%TO.C,R10*%
X109745000Y-82020000D03*
X108095000Y-82020000D03*
%TD*%
D15*
%TO.C,C1*%
X105145000Y-89520000D03*
X106695000Y-89520000D03*
%TD*%
D18*
%TO.C,C2*%
X106695000Y-91020000D03*
X105145000Y-91020000D03*
%TD*%
D15*
%TO.C,C4*%
X103620000Y-63020000D03*
X105170000Y-63020000D03*
%TD*%
D10*
%TO.C,R1*%
X120320000Y-99270000D03*
X120320000Y-100920000D03*
%TD*%
%TO.C,R3*%
X105120000Y-99195000D03*
X105120000Y-100845000D03*
%TD*%
D19*
%TO.C,J1*%
X118680000Y-98155000D03*
X124460000Y-98155000D03*
D20*
X117250000Y-97655000D03*
D21*
X117250000Y-101835000D03*
D20*
X125890000Y-97655000D03*
D21*
X125890000Y-101835000D03*
%TD*%
D14*
%TO.C,R5*%
X107170000Y-95520000D03*
X107170000Y-93870000D03*
%TD*%
D25*
%TO.C,JP1*%
X120450000Y-73570000D03*
D26*
X120450000Y-72270000D03*
%TD*%
D13*
%TO.C,R11*%
X109745000Y-83520000D03*
X108095000Y-83520000D03*
%TD*%
D10*
%TO.C,R9*%
X106670000Y-61445000D03*
X106670000Y-63095000D03*
%TD*%
D15*
%TO.C,C5*%
X105145000Y-83520000D03*
X106695000Y-83520000D03*
%TD*%
D25*
%TO.C,JP2*%
X122670000Y-73570000D03*
D26*
X122670000Y-72270000D03*
%TD*%
D19*
%TO.C,J2*%
X103480000Y-98165000D03*
X109260000Y-98165000D03*
D20*
X102050000Y-97665000D03*
D21*
X102050000Y-101845000D03*
D20*
X110690000Y-97665000D03*
D21*
X110690000Y-101845000D03*
%TD*%
D14*
%TO.C,R6*%
X105670000Y-95520000D03*
X105670000Y-93870000D03*
%TD*%
%TO.C,R12*%
X112920000Y-80095000D03*
X112920000Y-78445000D03*
%TD*%
G36*
X128943039Y-60019685D02*
G01*
X128988794Y-60072489D01*
X129000000Y-60124000D01*
X129000000Y-104000000D01*
X157000000Y-104000000D01*
X157000000Y-60124000D01*
X157019685Y-60056961D01*
X157072489Y-60011206D01*
X157124000Y-60000000D01*
X157876000Y-60000000D01*
X157943039Y-60019685D01*
X157988794Y-60072489D01*
X158000000Y-60124000D01*
X158000000Y-104000000D01*
X185876000Y-104000000D01*
X185943039Y-104019685D01*
X185988794Y-104072489D01*
X186000000Y-104124000D01*
X186000000Y-104876000D01*
X185980315Y-104943039D01*
X185927511Y-104988794D01*
X185876000Y-105000000D01*
X158000000Y-105000000D01*
X158000000Y-148876000D01*
X157980315Y-148943039D01*
X157927511Y-148988794D01*
X157876000Y-149000000D01*
X157124000Y-149000000D01*
X157056961Y-148980315D01*
X157011206Y-148927511D01*
X157000000Y-148876000D01*
X157000000Y-105000000D01*
X129000000Y-105000000D01*
X129000000Y-148876000D01*
X128980315Y-148943039D01*
X128927511Y-148988794D01*
X128876000Y-149000000D01*
X128124000Y-149000000D01*
X128056961Y-148980315D01*
X128011206Y-148927511D01*
X128000000Y-148876000D01*
X128000000Y-105000000D01*
X100124000Y-105000000D01*
X100056961Y-104980315D01*
X100011206Y-104927511D01*
X100000000Y-104876000D01*
X100000000Y-104124000D01*
X100019685Y-104056961D01*
X100072489Y-104011206D01*
X100124000Y-104000000D01*
X128000000Y-104000000D01*
X128000000Y-60124000D01*
X128019685Y-60056961D01*
X128072489Y-60011206D01*
X128124000Y-60000000D01*
X128876000Y-60000000D01*
X128943039Y-60019685D01*
G37*
M02*
