M48
; DRILL file {KiCad 9.0.5} date 2025-10-31T18:05:44+0900
; FORMAT={-:-/ absolute / metric / decimal}
; #@! TF.CreationDate,2025-10-31T18:05:44+09:00
; #@! TF.GenerationSoftware,Kicad,Pcbnew,9.0.5
; #@! TF.FileFunction,Plated,1,4,PTH
FMAT,2
METRIC
; #@! TA.AperFunction,Plated,PTH,ComponentDrill
T1C0.200
; #@! TA.AperFunction,Plated,PTH,ViaDrill
T2C0.300
; #@! TA.AperFunction,Plated,PTH,ComponentDrill
T3C0.600
; #@! TA.AperFunction,Plated,PTH,ComponentDrill
T4C1.000
%
G90
G05
T1
X212.93Y-65.09
X212.93Y-66.49
X213.63Y-64.39
X213.63Y-65.79
X213.63Y-67.19
X214.33Y-65.09
X214.33Y-66.49
X215.03Y-64.39
X215.03Y-65.79
X215.03Y-67.19
X215.73Y-65.09
X215.73Y-66.49
T2
X205.07Y-106.93
X205.4Y-58.25
X205.4Y-59.8
X206.0Y-112.0
X207.0Y-96.0
X207.0Y-98.0
X207.0Y-100.0
X207.02Y-109.175
X207.08Y-58.07
X207.08Y-59.34
X207.08Y-60.61
X207.08Y-73.31
X207.08Y-74.58
X207.24Y-93.85
X207.52Y-106.2
X208.51Y-103.15
X208.73Y-60.61
X208.925Y-79.9
X208.925Y-84.075
X209.02Y-106.2
X209.575Y-93.88
X209.595Y-101.76
X209.9Y-90.5
X210.0Y-58.0
X210.0Y-61.0
X210.0Y-64.0
X210.0Y-67.0
X210.0Y-70.0
X210.0Y-73.0
X210.02Y-109.175
X210.775Y-83.15
X211.0Y-82.0
X211.0Y-112.0
X211.075Y-84.075
X211.225Y-93.88
X211.225Y-95.7
X211.245Y-100.12
X211.245Y-101.76
X211.47Y-106.93
X211.526Y-84.979
X211.57Y-89.465
X211.575Y-91.6
X213.0Y-58.0
X213.0Y-61.0
X213.0Y-70.0
X213.0Y-73.0
X213.4Y-84.1
X213.425Y-80.0
X213.59Y-103.15
X213.755Y-85.75
X214.11Y-90.52
X214.2Y-96.6
X214.86Y-103.15
X215.0Y-82.0
X215.0Y-108.5
X215.0Y-111.0
X215.275Y-83.15
X215.575Y-79.925
X215.575Y-84.075
X216.0Y-58.0
X216.0Y-61.0
X216.0Y-70.0
X216.0Y-73.0
X216.065Y-90.0
X216.065Y-91.0
X216.13Y-103.15
X217.5Y-108.5
X217.5Y-111.0
X218.05Y-83.65
X218.425Y-101.2
X218.562Y-92.0
X218.6Y-93.0
X218.6Y-98.712
X219.0Y-58.0
X219.0Y-61.0
X219.0Y-64.0
X219.0Y-67.0
X219.0Y-70.0
X219.0Y-73.0
X220.0Y-80.0
X220.35Y-103.06
X220.35Y-104.94
X220.78Y-107.81
X221.0Y-84.0
X221.0Y-112.0
X221.2Y-92.0
X221.545Y-75.83
X222.0Y-58.0
X222.0Y-61.0
X222.0Y-64.0
X222.0Y-67.0
X222.0Y-70.0
X222.0Y-73.0
X222.01Y-107.81
X222.85Y-103.06
X222.95Y-83.65
X223.0Y-82.0
X223.0Y-90.0
X223.0Y-93.0
X223.03Y-107.81
X223.375Y-95.3
X223.837Y-91.0
X223.837Y-92.0
X224.03Y-107.81
X224.475Y-95.525
X224.58Y-58.07
X224.58Y-61.88
X224.58Y-63.15
X224.58Y-74.58
X224.787Y-101.2
X225.05Y-107.81
X226.0Y-112.0
X226.28Y-107.81
T4
X203.2Y-58.42
X203.2Y-60.96
X203.2Y-63.5
X203.2Y-66.04
X203.2Y-68.58
X203.2Y-71.12
X203.2Y-73.66
X203.2Y-76.2
X203.2Y-78.74
X203.2Y-81.28
X203.2Y-83.82
X203.2Y-86.36
X203.2Y-88.9
X203.2Y-91.44
X203.2Y-93.98
X203.2Y-96.52
X203.2Y-99.06
X203.2Y-101.6
X228.6Y-58.42
X228.6Y-60.96
X228.6Y-63.5
X228.6Y-66.04
X228.6Y-68.58
X228.6Y-71.12
X228.6Y-73.66
X228.6Y-76.2
X228.6Y-78.74
X228.6Y-81.28
X228.6Y-83.82
X228.6Y-86.36
X228.6Y-88.9
X228.6Y-91.44
X228.6Y-93.98
X228.6Y-96.52
X228.6Y-99.06
X228.6Y-101.6
T3
G00X203.95Y-106.955
M15
G01X203.95Y-108.055
M16
G05
G00X203.95Y-111.285
M15
G01X203.95Y-112.085
M16
G05
G00X212.59Y-106.955
M15
G01X212.59Y-108.055
M16
G05
G00X212.59Y-111.285
M15
G01X212.59Y-112.085
M16
G05
G00X219.21Y-107.59
M15
G01X219.21Y-108.19
M16
G05
G00X219.21Y-111.39
M15
G01X219.21Y-111.99
M16
G05
G00X227.85Y-107.59
M15
G01X227.85Y-108.19
M16
G05
G00X227.85Y-111.39
M15
G01X227.85Y-111.99
M16
G05
M30
