%TF.GenerationSoftware,KiCad,Pcbnew,9.0.5*%
%TF.CreationDate,2025-10-31T18:05:51+09:00*%
%TF.ProjectId,ESP32S3,45535033-3253-4332-9e6b-696361645f70,rev?*%
%TF.SameCoordinates,Original*%
%TF.FileFunction,Copper,L3,Inr*%
%TF.FilePolarity,Positive*%
%FSLAX46Y46*%
G04 Gerber Fmt 4.6, Leading zero omitted, Abs format (unit mm)*
G04 Created by KiCad (PCBNEW 9.0.5) date 2025-10-31 18:05:51*
%MOMM*%
%LPD*%
G01*
G04 APERTURE LIST*
%TA.AperFunction,ComponentPad*%
%ADD10R,1.700000X1.700000*%
%TD*%
%TA.AperFunction,ComponentPad*%
%ADD11C,1.700000*%
%TD*%
%TA.AperFunction,HeatsinkPad*%
%ADD12O,1.000000X2.100000*%
%TD*%
%TA.AperFunction,HeatsinkPad*%
%ADD13O,1.000000X1.800000*%
%TD*%
%TA.AperFunction,HeatsinkPad*%
%ADD14C,0.600000*%
%TD*%
%TA.AperFunction,HeatsinkPad*%
%ADD15O,1.100000X1.700000*%
%TD*%
%TA.AperFunction,ViaPad*%
%ADD16C,0.500000*%
%TD*%
G04 APERTURE END LIST*
D10*
%TO.N,GND*%
%TO.C,J4*%
X228600000Y-58420000D03*
D11*
%TO.N,+5V*%
X228600000Y-60960000D03*
%TO.N,/IO1*%
X228600000Y-63500000D03*
%TO.N,/IO2*%
X228600000Y-66040000D03*
%TO.N,/IO42*%
X228600000Y-68580000D03*
%TO.N,/IO41*%
X228600000Y-71120000D03*
%TO.N,/IO40*%
X228600000Y-73660000D03*
%TO.N,/IO39*%
X228600000Y-76200000D03*
%TO.N,/IO38*%
X228600000Y-78740000D03*
%TO.N,/IO37*%
X228600000Y-81280000D03*
%TO.N,/IO36*%
X228600000Y-83820000D03*
%TO.N,/IO35*%
X228600000Y-86360000D03*
%TO.N,IO0*%
X228600000Y-88900000D03*
%TO.N,/IO45*%
X228600000Y-91440000D03*
%TO.N,/IO47*%
X228600000Y-93980000D03*
%TO.N,/IO21*%
X228600000Y-96520000D03*
%TO.N,/IO14*%
X228600000Y-99060000D03*
%TO.N,/IO13*%
X228600000Y-101600000D03*
%TD*%
D12*
%TO.N,GNDPWR*%
%TO.C,J1*%
X203950000Y-107505000D03*
D13*
X203950000Y-111685000D03*
D12*
X212590000Y-107505000D03*
D13*
X212590000Y-111685000D03*
%TD*%
D10*
%TO.N,GND*%
%TO.C,J3*%
X203200000Y-58420000D03*
D11*
%TO.N,+3V3*%
X203200000Y-60960000D03*
%TO.N,EN*%
X203200000Y-63500000D03*
%TO.N,/IO4*%
X203200000Y-66040000D03*
%TO.N,/IO5*%
X203200000Y-68580000D03*
%TO.N,/IO6*%
X203200000Y-71120000D03*
%TO.N,/IO7*%
X203200000Y-73660000D03*
%TO.N,/IO15*%
X203200000Y-76200000D03*
%TO.N,/IO16*%
X203200000Y-78740000D03*
%TO.N,/IO17*%
X203200000Y-81280000D03*
%TO.N,/IO18*%
X203200000Y-83820000D03*
%TO.N,/IO8*%
X203200000Y-86360000D03*
%TO.N,/IO3*%
X203200000Y-88900000D03*
%TO.N,/IO46*%
X203200000Y-91440000D03*
%TO.N,/IO9*%
X203200000Y-93980000D03*
%TO.N,/IO10*%
X203200000Y-96520000D03*
%TO.N,/IO11*%
X203200000Y-99060000D03*
%TO.N,/IO12*%
X203200000Y-101600000D03*
%TD*%
D14*
%TO.N,GND*%
%TO.C,U4*%
X212930000Y-65090000D03*
X212930000Y-66490000D03*
X213630000Y-64390000D03*
X213630000Y-65790000D03*
X213630000Y-67190000D03*
X214330000Y-65090000D03*
X214330000Y-66490000D03*
X215030000Y-64390000D03*
X215030000Y-65790000D03*
X215030000Y-67190000D03*
X215730000Y-65090000D03*
X215730000Y-66490000D03*
%TD*%
D15*
%TO.N,GND*%
%TO.C,J2*%
X219210000Y-107890000D03*
X219210000Y-111690000D03*
X227850000Y-107890000D03*
X227850000Y-111690000D03*
%TD*%
D16*
%TO.N,GNDPWR*%
X208510000Y-103150000D03*
X211470000Y-106930000D03*
X205070000Y-106930000D03*
X216130000Y-103150000D03*
X206000000Y-112000000D03*
X211000000Y-112000000D03*
%TO.N,+5V*%
X223000000Y-93000000D03*
X222010000Y-107810000D03*
X222950000Y-83650000D03*
X207240000Y-93850000D03*
X220350000Y-104940000D03*
X220350000Y-103060000D03*
X209900000Y-90500000D03*
X225050000Y-107810000D03*
X223375000Y-95300000D03*
%TO.N,GND*%
X211075000Y-84075000D03*
X216000000Y-70000000D03*
X207080000Y-58070000D03*
X215000000Y-82000000D03*
X222000000Y-61000000D03*
X213000000Y-70000000D03*
X207000000Y-100000000D03*
X217500000Y-108500000D03*
X210000000Y-64000000D03*
X211000000Y-82000000D03*
X219000000Y-64000000D03*
X210000000Y-73000000D03*
X219000000Y-67000000D03*
X222000000Y-70000000D03*
X207000000Y-98000000D03*
X216000000Y-58000000D03*
X213000000Y-73000000D03*
X216000000Y-73000000D03*
X215000000Y-108500000D03*
X218562500Y-92000000D03*
X205400000Y-58250000D03*
X213000000Y-61000000D03*
X219000000Y-73000000D03*
X222000000Y-73000000D03*
X210000000Y-70000000D03*
X214200000Y-96600000D03*
X210000000Y-61000000D03*
X210000000Y-58000000D03*
X221000000Y-112000000D03*
X215000000Y-111000000D03*
X223000000Y-82000000D03*
X226000000Y-112000000D03*
X207000000Y-96000000D03*
X217500000Y-111000000D03*
X222000000Y-67000000D03*
X220780000Y-107810000D03*
X213000000Y-58000000D03*
X222000000Y-64000000D03*
X215575000Y-84075000D03*
X222000000Y-58000000D03*
X215575000Y-79925000D03*
X226280000Y-107810000D03*
X219000000Y-58000000D03*
X214110000Y-90520000D03*
X210000000Y-67000000D03*
X224580000Y-58070000D03*
X221000000Y-84000000D03*
X219000000Y-70000000D03*
X216000000Y-61000000D03*
X219000000Y-61000000D03*
X221200000Y-92000000D03*
X220000000Y-80000000D03*
%TO.N,+3V3*%
X207080000Y-59340000D03*
X205400000Y-59800000D03*
X208730000Y-60610000D03*
X222850000Y-103060000D03*
%TO.N,EN*%
X208925000Y-79900000D03*
X208925000Y-84075000D03*
X207080000Y-60610000D03*
%TO.N,DTR#*%
X210775000Y-83150000D03*
X218600000Y-93000000D03*
%TO.N,Net-(D2-A)*%
X224787500Y-101200000D03*
%TO.N,Net-(J1-CC1)*%
X207020000Y-109175000D03*
%TO.N,Net-(JP2-A)*%
X214860000Y-103150000D03*
%TO.N,Net-(J1-CC2)*%
X210020000Y-109175000D03*
%TO.N,Net-(JP1-A)*%
X213590000Y-103150000D03*
%TO.N,DD-*%
X211575000Y-91600000D03*
%TO.N,DD+*%
X211570231Y-89464833D03*
%TO.N,D+*%
X207080000Y-74580000D03*
%TO.N,D-*%
X207080000Y-73310000D03*
%TO.N,Rx*%
X224580000Y-63150000D03*
X223837500Y-92000000D03*
%TO.N,Tx*%
X224580000Y-61880000D03*
X223837500Y-91000000D03*
%TO.N,UD+*%
X216064829Y-89999999D03*
%TO.N,UD-*%
X216064829Y-90999999D03*
%TO.N,Net-(D3-A)*%
X218600000Y-98712500D03*
%TO.N,Net-(J1-D+-PadA6)*%
X209020000Y-106200000D03*
%TO.N,Net-(J1-D--PadA7)*%
X207520000Y-106200000D03*
%TO.N,IO0*%
X224580000Y-74580000D03*
X213400000Y-84100000D03*
X213425000Y-80000000D03*
X213755000Y-85750000D03*
%TO.N,RTS#*%
X215275000Y-83150000D03*
X211526492Y-84979475D03*
%TO.N,Net-(U3-VDD1)*%
X209595000Y-101760000D03*
%TO.N,Net-(U2-V3)*%
X223000000Y-90000000D03*
%TO.N,Net-(U3-VDD2)*%
X209575000Y-93880000D03*
%TO.N,ck*%
X224475000Y-95525000D03*
%TO.N,Net-(D1-A)*%
X218425000Y-101200000D03*
%TO.N,Net-(D4-DIN)*%
X221545000Y-75830000D03*
X218050000Y-83650000D03*
%TO.N,Net-(J2-CC1)*%
X223030000Y-107810000D03*
%TO.N,Net-(J2-CC2)*%
X224030000Y-107810000D03*
%TO.N,Net-(U3-PDEN)*%
X211245000Y-101760000D03*
%TO.N,Net-(U3-SPU)*%
X211245000Y-100120000D03*
%TO.N,Net-(U3-PIN)*%
X211225000Y-95700000D03*
%TO.N,Net-(U3-SPD)*%
X211225000Y-93880000D03*
%TD*%
%TA.AperFunction,Conductor*%
%TO.N,+3V3*%
G36*
X205141631Y-57670185D02*
G01*
X205187386Y-57722989D01*
X205197330Y-57792147D01*
X205168305Y-57855703D01*
X205136592Y-57881887D01*
X205123390Y-57889508D01*
X205123384Y-57889513D01*
X205039513Y-57973384D01*
X205039511Y-57973387D01*
X204980201Y-58076114D01*
X204949500Y-58190691D01*
X204949500Y-58309309D01*
X204980201Y-58423886D01*
X205039511Y-58526613D01*
X205123387Y-58610489D01*
X205226114Y-58669799D01*
X205340691Y-58700500D01*
X205340694Y-58700500D01*
X205459306Y-58700500D01*
X205459309Y-58700500D01*
X205573886Y-58669799D01*
X205676613Y-58610489D01*
X205760489Y-58526613D01*
X205819799Y-58423886D01*
X205850500Y-58309309D01*
X205850500Y-58190691D01*
X205819799Y-58076114D01*
X205760489Y-57973387D01*
X205676613Y-57889511D01*
X205676611Y-57889510D01*
X205676609Y-57889508D01*
X205663408Y-57881887D01*
X205615192Y-57831320D01*
X205601970Y-57762712D01*
X205627938Y-57697848D01*
X205684852Y-57657320D01*
X205725408Y-57650500D01*
X206587232Y-57650500D01*
X206654271Y-57670185D01*
X206700026Y-57722989D01*
X206709970Y-57792147D01*
X206694619Y-57836500D01*
X206660201Y-57896114D01*
X206629500Y-58010691D01*
X206629500Y-58129309D01*
X206660201Y-58243886D01*
X206719511Y-58346613D01*
X206803387Y-58430489D01*
X206906114Y-58489799D01*
X207020691Y-58520500D01*
X207020694Y-58520500D01*
X207139306Y-58520500D01*
X207139309Y-58520500D01*
X207253886Y-58489799D01*
X207356613Y-58430489D01*
X207440489Y-58346613D01*
X207499799Y-58243886D01*
X207530500Y-58129309D01*
X207530500Y-58010691D01*
X207499799Y-57896114D01*
X207465380Y-57836500D01*
X207448908Y-57768600D01*
X207471760Y-57702573D01*
X207526681Y-57659383D01*
X207572768Y-57650500D01*
X209467363Y-57650500D01*
X209534402Y-57670185D01*
X209580157Y-57722989D01*
X209590101Y-57792147D01*
X209581927Y-57821945D01*
X209580203Y-57826106D01*
X209580201Y-57826114D01*
X209549500Y-57940691D01*
X209549500Y-58059309D01*
X209580201Y-58173886D01*
X209639511Y-58276613D01*
X209723387Y-58360489D01*
X209826114Y-58419799D01*
X209940691Y-58450500D01*
X209940694Y-58450500D01*
X210059306Y-58450500D01*
X210059309Y-58450500D01*
X210173886Y-58419799D01*
X210276613Y-58360489D01*
X210360489Y-58276613D01*
X210419799Y-58173886D01*
X210450500Y-58059309D01*
X210450500Y-57940691D01*
X210419799Y-57826114D01*
X210419797Y-57826111D01*
X210419796Y-57826106D01*
X210418073Y-57821945D01*
X210410609Y-57752476D01*
X210441887Y-57689998D01*
X210501979Y-57654350D01*
X210532637Y-57650500D01*
X212467363Y-57650500D01*
X212534402Y-57670185D01*
X212580157Y-57722989D01*
X212590101Y-57792147D01*
X212581927Y-57821945D01*
X212580203Y-57826106D01*
X212580201Y-57826114D01*
X212549500Y-57940691D01*
X212549500Y-58059309D01*
X212580201Y-58173886D01*
X212639511Y-58276613D01*
X212723387Y-58360489D01*
X212826114Y-58419799D01*
X212940691Y-58450500D01*
X212940694Y-58450500D01*
X213059306Y-58450500D01*
X213059309Y-58450500D01*
X213173886Y-58419799D01*
X213276613Y-58360489D01*
X213360489Y-58276613D01*
X213419799Y-58173886D01*
X213450500Y-58059309D01*
X213450500Y-57940691D01*
X213419799Y-57826114D01*
X213419797Y-57826111D01*
X213419796Y-57826106D01*
X213418073Y-57821945D01*
X213410609Y-57752476D01*
X213441887Y-57689998D01*
X213501979Y-57654350D01*
X213532637Y-57650500D01*
X215467363Y-57650500D01*
X215534402Y-57670185D01*
X215580157Y-57722989D01*
X215590101Y-57792147D01*
X215581927Y-57821945D01*
X215580203Y-57826106D01*
X215580201Y-57826114D01*
X215549500Y-57940691D01*
X215549500Y-58059309D01*
X215580201Y-58173886D01*
X215639511Y-58276613D01*
X215723387Y-58360489D01*
X215826114Y-58419799D01*
X215940691Y-58450500D01*
X215940694Y-58450500D01*
X216059306Y-58450500D01*
X216059309Y-58450500D01*
X216173886Y-58419799D01*
X216276613Y-58360489D01*
X216360489Y-58276613D01*
X216419799Y-58173886D01*
X216450500Y-58059309D01*
X216450500Y-57940691D01*
X216419799Y-57826114D01*
X216419797Y-57826111D01*
X216419796Y-57826106D01*
X216418073Y-57821945D01*
X216410609Y-57752476D01*
X216441887Y-57689998D01*
X216501979Y-57654350D01*
X216532637Y-57650500D01*
X218467363Y-57650500D01*
X218534402Y-57670185D01*
X218580157Y-57722989D01*
X218590101Y-57792147D01*
X218581927Y-57821945D01*
X218580203Y-57826106D01*
X218580201Y-57826114D01*
X218549500Y-57940691D01*
X218549500Y-58059309D01*
X218580201Y-58173886D01*
X218639511Y-58276613D01*
X218723387Y-58360489D01*
X218826114Y-58419799D01*
X218940691Y-58450500D01*
X218940694Y-58450500D01*
X219059306Y-58450500D01*
X219059309Y-58450500D01*
X219173886Y-58419799D01*
X219276613Y-58360489D01*
X219360489Y-58276613D01*
X219419799Y-58173886D01*
X219450500Y-58059309D01*
X219450500Y-57940691D01*
X219419799Y-57826114D01*
X219419797Y-57826111D01*
X219419796Y-57826106D01*
X219418073Y-57821945D01*
X219410609Y-57752476D01*
X219441887Y-57689998D01*
X219501979Y-57654350D01*
X219532637Y-57650500D01*
X221467363Y-57650500D01*
X221534402Y-57670185D01*
X221580157Y-57722989D01*
X221590101Y-57792147D01*
X221581927Y-57821945D01*
X221580203Y-57826106D01*
X221580201Y-57826114D01*
X221549500Y-57940691D01*
X221549500Y-58059309D01*
X221580201Y-58173886D01*
X221639511Y-58276613D01*
X221723387Y-58360489D01*
X221826114Y-58419799D01*
X221940691Y-58450500D01*
X221940694Y-58450500D01*
X222059306Y-58450500D01*
X222059309Y-58450500D01*
X222173886Y-58419799D01*
X222276613Y-58360489D01*
X222360489Y-58276613D01*
X222419799Y-58173886D01*
X222450500Y-58059309D01*
X222450500Y-57940691D01*
X222419799Y-57826114D01*
X222419797Y-57826111D01*
X222419796Y-57826106D01*
X222418073Y-57821945D01*
X222410609Y-57752476D01*
X222441887Y-57689998D01*
X222501979Y-57654350D01*
X222532637Y-57650500D01*
X224087232Y-57650500D01*
X224154271Y-57670185D01*
X224200026Y-57722989D01*
X224209970Y-57792147D01*
X224194619Y-57836500D01*
X224160201Y-57896114D01*
X224129500Y-58010691D01*
X224129500Y-58129309D01*
X224160201Y-58243886D01*
X224219511Y-58346613D01*
X224303387Y-58430489D01*
X224406114Y-58489799D01*
X224520691Y-58520500D01*
X224520694Y-58520500D01*
X224639306Y-58520500D01*
X224639309Y-58520500D01*
X224753886Y-58489799D01*
X224856613Y-58430489D01*
X224940489Y-58346613D01*
X224999799Y-58243886D01*
X225030500Y-58129309D01*
X225030500Y-58010691D01*
X224999799Y-57896114D01*
X224965380Y-57836500D01*
X224948908Y-57768600D01*
X224971760Y-57702573D01*
X225026681Y-57659383D01*
X225072768Y-57650500D01*
X227425500Y-57650500D01*
X227492539Y-57670185D01*
X227538294Y-57722989D01*
X227549500Y-57774500D01*
X227549500Y-59289752D01*
X227561131Y-59348229D01*
X227561132Y-59348230D01*
X227605447Y-59414552D01*
X227671769Y-59458867D01*
X227671770Y-59458868D01*
X227730247Y-59470499D01*
X227730250Y-59470500D01*
X227730252Y-59470500D01*
X229245500Y-59470500D01*
X229312539Y-59490185D01*
X229358294Y-59542989D01*
X229369500Y-59594500D01*
X229369500Y-59978749D01*
X229349815Y-60045788D01*
X229297011Y-60091543D01*
X229227853Y-60101487D01*
X229176611Y-60081852D01*
X229097598Y-60029059D01*
X228906420Y-59949870D01*
X228906412Y-59949868D01*
X228703469Y-59909500D01*
X228703465Y-59909500D01*
X228496535Y-59909500D01*
X228496530Y-59909500D01*
X228293587Y-59949868D01*
X228293579Y-59949870D01*
X228102403Y-60029058D01*
X227930342Y-60144024D01*
X227784024Y-60290342D01*
X227669058Y-60462403D01*
X227589870Y-60653579D01*
X227589868Y-60653587D01*
X227549500Y-60856530D01*
X227549500Y-61063469D01*
X227589868Y-61266412D01*
X227589870Y-61266420D01*
X227655939Y-61425925D01*
X227669059Y-61457598D01*
X227670799Y-61460202D01*
X227784024Y-61629657D01*
X227930342Y-61775975D01*
X227930345Y-61775977D01*
X228102402Y-61890941D01*
X228293580Y-61970130D01*
X228494016Y-62009999D01*
X228496530Y-62010499D01*
X228496534Y-62010500D01*
X228496535Y-62010500D01*
X228703466Y-62010500D01*
X228703467Y-62010499D01*
X228906420Y-61970130D01*
X229097598Y-61890941D01*
X229097599Y-61890940D01*
X229097600Y-61890940D01*
X229176610Y-61838148D01*
X229243287Y-61817270D01*
X229310667Y-61835755D01*
X229357357Y-61887734D01*
X229369500Y-61941250D01*
X229369500Y-62518749D01*
X229349815Y-62585788D01*
X229297011Y-62631543D01*
X229227853Y-62641487D01*
X229176611Y-62621852D01*
X229097598Y-62569059D01*
X228906420Y-62489870D01*
X228906412Y-62489868D01*
X228703469Y-62449500D01*
X228703465Y-62449500D01*
X228496535Y-62449500D01*
X228496530Y-62449500D01*
X228293587Y-62489868D01*
X228293579Y-62489870D01*
X228102403Y-62569058D01*
X227930342Y-62684024D01*
X227784024Y-62830342D01*
X227669058Y-63002403D01*
X227589870Y-63193579D01*
X227589868Y-63193587D01*
X227549500Y-63396530D01*
X227549500Y-63603469D01*
X227589868Y-63806412D01*
X227589870Y-63806420D01*
X227669058Y-63997596D01*
X227784024Y-64169657D01*
X227930342Y-64315975D01*
X227930345Y-64315977D01*
X228102402Y-64430941D01*
X228293580Y-64510130D01*
X228478572Y-64546927D01*
X228496530Y-64550499D01*
X228496534Y-64550500D01*
X228496535Y-64550500D01*
X228703466Y-64550500D01*
X228703467Y-64550499D01*
X228906420Y-64510130D01*
X229097598Y-64430941D01*
X229097599Y-64430940D01*
X229097600Y-64430940D01*
X229176610Y-64378148D01*
X229243287Y-64357270D01*
X229310667Y-64375755D01*
X229357357Y-64427734D01*
X229369500Y-64481250D01*
X229369500Y-65058749D01*
X229349815Y-65125788D01*
X229297011Y-65171543D01*
X229227853Y-65181487D01*
X229176611Y-65161852D01*
X229097598Y-65109059D01*
X228906420Y-65029870D01*
X228906412Y-65029868D01*
X228703469Y-64989500D01*
X228703465Y-64989500D01*
X228496535Y-64989500D01*
X228496530Y-64989500D01*
X228293587Y-65029868D01*
X228293579Y-65029870D01*
X228102403Y-65109058D01*
X227930342Y-65224024D01*
X227784024Y-65370342D01*
X227669058Y-65542403D01*
X227589870Y-65733579D01*
X227589868Y-65733587D01*
X227549500Y-65936530D01*
X227549500Y-66143469D01*
X227589868Y-66346412D01*
X227589870Y-66346420D01*
X227669059Y-66537598D01*
X227681282Y-66555891D01*
X227784024Y-66709657D01*
X227930342Y-66855975D01*
X227930345Y-66855977D01*
X228102402Y-66970941D01*
X228293580Y-67050130D01*
X228492010Y-67089600D01*
X228496530Y-67090499D01*
X228496534Y-67090500D01*
X228496535Y-67090500D01*
X228703466Y-67090500D01*
X228703467Y-67090499D01*
X228906420Y-67050130D01*
X229097598Y-66970941D01*
X229097599Y-66970940D01*
X229097600Y-66970940D01*
X229176610Y-66918148D01*
X229243287Y-66897270D01*
X229310667Y-66915755D01*
X229357357Y-66967734D01*
X229369500Y-67021250D01*
X229369500Y-67598749D01*
X229349815Y-67665788D01*
X229297011Y-67711543D01*
X229227853Y-67721487D01*
X229176611Y-67701852D01*
X229097598Y-67649059D01*
X228906420Y-67569870D01*
X228906412Y-67569868D01*
X228703469Y-67529500D01*
X228703465Y-67529500D01*
X228496535Y-67529500D01*
X228496530Y-67529500D01*
X228293587Y-67569868D01*
X228293579Y-67569870D01*
X228102403Y-67649058D01*
X227930342Y-67764024D01*
X227784024Y-67910342D01*
X227669058Y-68082403D01*
X227589870Y-68273579D01*
X227589868Y-68273587D01*
X227549500Y-68476530D01*
X227549500Y-68683469D01*
X227589868Y-68886412D01*
X227589870Y-68886420D01*
X227669058Y-69077596D01*
X227784024Y-69249657D01*
X227930342Y-69395975D01*
X227930345Y-69395977D01*
X228102402Y-69510941D01*
X228293580Y-69590130D01*
X228496530Y-69630499D01*
X228496534Y-69630500D01*
X228496535Y-69630500D01*
X228703466Y-69630500D01*
X228703467Y-69630499D01*
X228906420Y-69590130D01*
X229097598Y-69510941D01*
X229097599Y-69510940D01*
X229097600Y-69510940D01*
X229176610Y-69458148D01*
X229243287Y-69437270D01*
X229310667Y-69455755D01*
X229357357Y-69507734D01*
X229369500Y-69561250D01*
X229369500Y-70138749D01*
X229349815Y-70205788D01*
X229297011Y-70251543D01*
X229227853Y-70261487D01*
X229176611Y-70241852D01*
X229097598Y-70189059D01*
X228906420Y-70109870D01*
X228906412Y-70109868D01*
X228703469Y-70069500D01*
X228703465Y-70069500D01*
X228496535Y-70069500D01*
X228496530Y-70069500D01*
X228293587Y-70109868D01*
X228293579Y-70109870D01*
X228102403Y-70189058D01*
X227930342Y-70304024D01*
X227784024Y-70450342D01*
X227669058Y-70622403D01*
X227589870Y-70813579D01*
X227589868Y-70813587D01*
X227549500Y-71016530D01*
X227549500Y-71223469D01*
X227589868Y-71426412D01*
X227589870Y-71426420D01*
X227669058Y-71617596D01*
X227784024Y-71789657D01*
X227930342Y-71935975D01*
X227930345Y-71935977D01*
X228102402Y-72050941D01*
X228293580Y-72130130D01*
X228496530Y-72170499D01*
X228496534Y-72170500D01*
X228496535Y-72170500D01*
X228703466Y-72170500D01*
X228703467Y-72170499D01*
X228906420Y-72130130D01*
X229097598Y-72050941D01*
X229097599Y-72050940D01*
X229097600Y-72050940D01*
X229176610Y-71998148D01*
X229243287Y-71977270D01*
X229310667Y-71995755D01*
X229357357Y-72047734D01*
X229369500Y-72101250D01*
X229369500Y-72678749D01*
X229349815Y-72745788D01*
X229297011Y-72791543D01*
X229227853Y-72801487D01*
X229176611Y-72781852D01*
X229097598Y-72729059D01*
X228906420Y-72649870D01*
X228906412Y-72649868D01*
X228703469Y-72609500D01*
X228703465Y-72609500D01*
X228496535Y-72609500D01*
X228496530Y-72609500D01*
X228293587Y-72649868D01*
X228293579Y-72649870D01*
X228102403Y-72729058D01*
X227930342Y-72844024D01*
X227784024Y-72990342D01*
X227669058Y-73162403D01*
X227589870Y-73353579D01*
X227589868Y-73353587D01*
X227549500Y-73556530D01*
X227549500Y-73763469D01*
X227589868Y-73966412D01*
X227589870Y-73966420D01*
X227669059Y-74157598D01*
X227670799Y-74160202D01*
X227784024Y-74329657D01*
X227930342Y-74475975D01*
X227930345Y-74475977D01*
X228102402Y-74590941D01*
X228293580Y-74670130D01*
X228496530Y-74710499D01*
X228496534Y-74710500D01*
X228496535Y-74710500D01*
X228703466Y-74710500D01*
X228703467Y-74710499D01*
X228906420Y-74670130D01*
X229097598Y-74590941D01*
X229097599Y-74590940D01*
X229097600Y-74590940D01*
X229176610Y-74538148D01*
X229243287Y-74517270D01*
X229310667Y-74535755D01*
X229357357Y-74587734D01*
X229369500Y-74641250D01*
X229369500Y-75218749D01*
X229349815Y-75285788D01*
X229297011Y-75331543D01*
X229227853Y-75341487D01*
X229176611Y-75321852D01*
X229097598Y-75269059D01*
X228906420Y-75189870D01*
X228906412Y-75189868D01*
X228703469Y-75149500D01*
X228703465Y-75149500D01*
X228496535Y-75149500D01*
X228496530Y-75149500D01*
X228293587Y-75189868D01*
X228293579Y-75189870D01*
X228102403Y-75269058D01*
X227930342Y-75384024D01*
X227784024Y-75530342D01*
X227669058Y-75702403D01*
X227589870Y-75893579D01*
X227589868Y-75893587D01*
X227549500Y-76096530D01*
X227549500Y-76303469D01*
X227589868Y-76506412D01*
X227589870Y-76506420D01*
X227669058Y-76697596D01*
X227784024Y-76869657D01*
X227930342Y-77015975D01*
X227930345Y-77015977D01*
X228102402Y-77130941D01*
X228293580Y-77210130D01*
X228496530Y-77250499D01*
X228496534Y-77250500D01*
X228496535Y-77250500D01*
X228703466Y-77250500D01*
X228703467Y-77250499D01*
X228906420Y-77210130D01*
X229097598Y-77130941D01*
X229097599Y-77130940D01*
X229097600Y-77130940D01*
X229176610Y-77078148D01*
X229243287Y-77057270D01*
X229310667Y-77075755D01*
X229357357Y-77127734D01*
X229369500Y-77181250D01*
X229369500Y-77758749D01*
X229349815Y-77825788D01*
X229297011Y-77871543D01*
X229227853Y-77881487D01*
X229176611Y-77861852D01*
X229097598Y-77809059D01*
X228906420Y-77729870D01*
X228906412Y-77729868D01*
X228703469Y-77689500D01*
X228703465Y-77689500D01*
X228496535Y-77689500D01*
X228496530Y-77689500D01*
X228293587Y-77729868D01*
X228293579Y-77729870D01*
X228102403Y-77809058D01*
X227930342Y-77924024D01*
X227784024Y-78070342D01*
X227669058Y-78242403D01*
X227589870Y-78433579D01*
X227589868Y-78433587D01*
X227549500Y-78636530D01*
X227549500Y-78843469D01*
X227589868Y-79046412D01*
X227589870Y-79046420D01*
X227669058Y-79237596D01*
X227784024Y-79409657D01*
X227930342Y-79555975D01*
X227930345Y-79555977D01*
X228102402Y-79670941D01*
X228293580Y-79750130D01*
X228496530Y-79790499D01*
X228496534Y-79790500D01*
X228496535Y-79790500D01*
X228703466Y-79790500D01*
X228703467Y-79790499D01*
X228906420Y-79750130D01*
X229097598Y-79670941D01*
X229097599Y-79670940D01*
X229097600Y-79670940D01*
X229176610Y-79618148D01*
X229243287Y-79597270D01*
X229310667Y-79615755D01*
X229357357Y-79667734D01*
X229369500Y-79721250D01*
X229369500Y-80298749D01*
X229349815Y-80365788D01*
X229297011Y-80411543D01*
X229227853Y-80421487D01*
X229176611Y-80401852D01*
X229097598Y-80349059D01*
X228906420Y-80269870D01*
X228906412Y-80269868D01*
X228703469Y-80229500D01*
X228703465Y-80229500D01*
X228496535Y-80229500D01*
X228496530Y-80229500D01*
X228293587Y-80269868D01*
X228293579Y-80269870D01*
X228102403Y-80349058D01*
X227930342Y-80464024D01*
X227784024Y-80610342D01*
X227669058Y-80782403D01*
X227589870Y-80973579D01*
X227589868Y-80973587D01*
X227549500Y-81176530D01*
X227549500Y-81383469D01*
X227582526Y-81549500D01*
X227589870Y-81586420D01*
X227669059Y-81777598D01*
X227701475Y-81826112D01*
X227784024Y-81949657D01*
X227930342Y-82095975D01*
X227930345Y-82095977D01*
X228102402Y-82210941D01*
X228293580Y-82290130D01*
X228496530Y-82330499D01*
X228496534Y-82330500D01*
X228496535Y-82330500D01*
X228703466Y-82330500D01*
X228703467Y-82330499D01*
X228906420Y-82290130D01*
X229097598Y-82210941D01*
X229097599Y-82210940D01*
X229097600Y-82210940D01*
X229176610Y-82158148D01*
X229243287Y-82137270D01*
X229310667Y-82155755D01*
X229357357Y-82207734D01*
X229369500Y-82261250D01*
X229369500Y-82838749D01*
X229349815Y-82905788D01*
X229297011Y-82951543D01*
X229227853Y-82961487D01*
X229176611Y-82941852D01*
X229097598Y-82889059D01*
X228906420Y-82809870D01*
X228906412Y-82809868D01*
X228703469Y-82769500D01*
X228703465Y-82769500D01*
X228496535Y-82769500D01*
X228496530Y-82769500D01*
X228293587Y-82809868D01*
X228293579Y-82809870D01*
X228102403Y-82889058D01*
X227930342Y-83004024D01*
X227784024Y-83150342D01*
X227669058Y-83322403D01*
X227589870Y-83513579D01*
X227589868Y-83513587D01*
X227549500Y-83716530D01*
X227549500Y-83923469D01*
X227589868Y-84126412D01*
X227589870Y-84126420D01*
X227669058Y-84317596D01*
X227784024Y-84489657D01*
X227930342Y-84635975D01*
X227930345Y-84635977D01*
X228102402Y-84750941D01*
X228293580Y-84830130D01*
X228496530Y-84870499D01*
X228496534Y-84870500D01*
X228496535Y-84870500D01*
X228703466Y-84870500D01*
X228703467Y-84870499D01*
X228906420Y-84830130D01*
X229097598Y-84750941D01*
X229097599Y-84750940D01*
X229097600Y-84750940D01*
X229176610Y-84698148D01*
X229243287Y-84677270D01*
X229310667Y-84695755D01*
X229357357Y-84747734D01*
X229369500Y-84801250D01*
X229369500Y-85378749D01*
X229349815Y-85445788D01*
X229297011Y-85491543D01*
X229227853Y-85501487D01*
X229176611Y-85481852D01*
X229097598Y-85429059D01*
X228906420Y-85349870D01*
X228906412Y-85349868D01*
X228703469Y-85309500D01*
X228703465Y-85309500D01*
X228496535Y-85309500D01*
X228496530Y-85309500D01*
X228293587Y-85349868D01*
X228293579Y-85349870D01*
X228102403Y-85429058D01*
X227930342Y-85544024D01*
X227784024Y-85690342D01*
X227669058Y-85862403D01*
X227589870Y-86053579D01*
X227589868Y-86053587D01*
X227549500Y-86256530D01*
X227549500Y-86463469D01*
X227589868Y-86666412D01*
X227589870Y-86666420D01*
X227669058Y-86857596D01*
X227784024Y-87029657D01*
X227930342Y-87175975D01*
X227930345Y-87175977D01*
X228102402Y-87290941D01*
X228293580Y-87370130D01*
X228496530Y-87410499D01*
X228496534Y-87410500D01*
X228496535Y-87410500D01*
X228703466Y-87410500D01*
X228703467Y-87410499D01*
X228906420Y-87370130D01*
X229097598Y-87290941D01*
X229097599Y-87290940D01*
X229097600Y-87290940D01*
X229176610Y-87238148D01*
X229243287Y-87217270D01*
X229310667Y-87235755D01*
X229357357Y-87287734D01*
X229369500Y-87341250D01*
X229369500Y-87918749D01*
X229349815Y-87985788D01*
X229297011Y-88031543D01*
X229227853Y-88041487D01*
X229176611Y-88021852D01*
X229097598Y-87969059D01*
X228906420Y-87889870D01*
X228906412Y-87889868D01*
X228703469Y-87849500D01*
X228703465Y-87849500D01*
X228496535Y-87849500D01*
X228496530Y-87849500D01*
X228293587Y-87889868D01*
X228293579Y-87889870D01*
X228102403Y-87969058D01*
X227930342Y-88084024D01*
X227784024Y-88230342D01*
X227669058Y-88402403D01*
X227589870Y-88593579D01*
X227589868Y-88593587D01*
X227549500Y-88796530D01*
X227549500Y-89003469D01*
X227589868Y-89206412D01*
X227589870Y-89206420D01*
X227669059Y-89397598D01*
X227726541Y-89483626D01*
X227784024Y-89569657D01*
X227930342Y-89715975D01*
X227930345Y-89715977D01*
X228102402Y-89830941D01*
X228293580Y-89910130D01*
X228447222Y-89940691D01*
X228496530Y-89950499D01*
X228496534Y-89950500D01*
X228496535Y-89950500D01*
X228703466Y-89950500D01*
X228703467Y-89950499D01*
X228906420Y-89910130D01*
X229097598Y-89830941D01*
X229097599Y-89830940D01*
X229097600Y-89830940D01*
X229176610Y-89778148D01*
X229243287Y-89757270D01*
X229310667Y-89775755D01*
X229357357Y-89827734D01*
X229369500Y-89881250D01*
X229369500Y-90458749D01*
X229349815Y-90525788D01*
X229297011Y-90571543D01*
X229227853Y-90581487D01*
X229176611Y-90561852D01*
X229097598Y-90509059D01*
X228906420Y-90429870D01*
X228906412Y-90429868D01*
X228703469Y-90389500D01*
X228703465Y-90389500D01*
X228496535Y-90389500D01*
X228496530Y-90389500D01*
X228293587Y-90429868D01*
X228293579Y-90429870D01*
X228102403Y-90509058D01*
X227930342Y-90624024D01*
X227784024Y-90770342D01*
X227669058Y-90942403D01*
X227589870Y-91133579D01*
X227589868Y-91133587D01*
X227549500Y-91336530D01*
X227549500Y-91543469D01*
X227589868Y-91746412D01*
X227589870Y-91746420D01*
X227669058Y-91937596D01*
X227784024Y-92109657D01*
X227930342Y-92255975D01*
X227930345Y-92255977D01*
X228102402Y-92370941D01*
X228293580Y-92450130D01*
X228496530Y-92490499D01*
X228496534Y-92490500D01*
X228496535Y-92490500D01*
X228703466Y-92490500D01*
X228703467Y-92490499D01*
X228906420Y-92450130D01*
X229097598Y-92370941D01*
X229097599Y-92370940D01*
X229097600Y-92370940D01*
X229176610Y-92318148D01*
X229243287Y-92297270D01*
X229310667Y-92315755D01*
X229357357Y-92367734D01*
X229369500Y-92421250D01*
X229369500Y-92998749D01*
X229349815Y-93065788D01*
X229297011Y-93111543D01*
X229227853Y-93121487D01*
X229176611Y-93101852D01*
X229097598Y-93049059D01*
X228906420Y-92969870D01*
X228906412Y-92969868D01*
X228703469Y-92929500D01*
X228703465Y-92929500D01*
X228496535Y-92929500D01*
X228496530Y-92929500D01*
X228293587Y-92969868D01*
X228293579Y-92969870D01*
X228102403Y-93049058D01*
X227930342Y-93164024D01*
X227784024Y-93310342D01*
X227669058Y-93482403D01*
X227589870Y-93673579D01*
X227589868Y-93673587D01*
X227549500Y-93876530D01*
X227549500Y-94083469D01*
X227589868Y-94286412D01*
X227589870Y-94286420D01*
X227669058Y-94477596D01*
X227784024Y-94649657D01*
X227930342Y-94795975D01*
X227930345Y-94795977D01*
X228102402Y-94910941D01*
X228293580Y-94990130D01*
X228496530Y-95030499D01*
X228496534Y-95030500D01*
X228496535Y-95030500D01*
X228703466Y-95030500D01*
X228703467Y-95030499D01*
X228906420Y-94990130D01*
X229097598Y-94910941D01*
X229097599Y-94910940D01*
X229097600Y-94910940D01*
X229176610Y-94858148D01*
X229243287Y-94837270D01*
X229310667Y-94855755D01*
X229357357Y-94907734D01*
X229369500Y-94961250D01*
X229369500Y-95538749D01*
X229349815Y-95605788D01*
X229297011Y-95651543D01*
X229227853Y-95661487D01*
X229176611Y-95641852D01*
X229097598Y-95589059D01*
X228906420Y-95509870D01*
X228906412Y-95509868D01*
X228703469Y-95469500D01*
X228703465Y-95469500D01*
X228496535Y-95469500D01*
X228496530Y-95469500D01*
X228293587Y-95509868D01*
X228293579Y-95509870D01*
X228102403Y-95589058D01*
X227930342Y-95704024D01*
X227784024Y-95850342D01*
X227669058Y-96022403D01*
X227589870Y-96213579D01*
X227589868Y-96213587D01*
X227549500Y-96416530D01*
X227549500Y-96623469D01*
X227589868Y-96826412D01*
X227589870Y-96826420D01*
X227645403Y-96960489D01*
X227669059Y-97017598D01*
X227670530Y-97019799D01*
X227784024Y-97189657D01*
X227930342Y-97335975D01*
X227930345Y-97335977D01*
X228102402Y-97450941D01*
X228293580Y-97530130D01*
X228496530Y-97570499D01*
X228496534Y-97570500D01*
X228496535Y-97570500D01*
X228703466Y-97570500D01*
X228703467Y-97570499D01*
X228906420Y-97530130D01*
X229097598Y-97450941D01*
X229097599Y-97450940D01*
X229097600Y-97450940D01*
X229176610Y-97398148D01*
X229243287Y-97377270D01*
X229310667Y-97395755D01*
X229357357Y-97447734D01*
X229369500Y-97501250D01*
X229369500Y-98078749D01*
X229349815Y-98145788D01*
X229297011Y-98191543D01*
X229227853Y-98201487D01*
X229176611Y-98181852D01*
X229097598Y-98129059D01*
X228906420Y-98049870D01*
X228906412Y-98049868D01*
X228703469Y-98009500D01*
X228703465Y-98009500D01*
X228496535Y-98009500D01*
X228496530Y-98009500D01*
X228293587Y-98049868D01*
X228293579Y-98049870D01*
X228102403Y-98129058D01*
X227930342Y-98244024D01*
X227784024Y-98390342D01*
X227669058Y-98562403D01*
X227589870Y-98753579D01*
X227589868Y-98753587D01*
X227549500Y-98956530D01*
X227549500Y-99163469D01*
X227589868Y-99366412D01*
X227589870Y-99366420D01*
X227669059Y-99557598D01*
X227723791Y-99639511D01*
X227784024Y-99729657D01*
X227930342Y-99875975D01*
X227930345Y-99875977D01*
X228102402Y-99990941D01*
X228293580Y-100070130D01*
X228496530Y-100110499D01*
X228496534Y-100110500D01*
X228496535Y-100110500D01*
X228703466Y-100110500D01*
X228703467Y-100110499D01*
X228906420Y-100070130D01*
X229097598Y-99990941D01*
X229097599Y-99990940D01*
X229097600Y-99990940D01*
X229176610Y-99938148D01*
X229243287Y-99917270D01*
X229310667Y-99935755D01*
X229357357Y-99987734D01*
X229369500Y-100041250D01*
X229369500Y-100618749D01*
X229349815Y-100685788D01*
X229297011Y-100731543D01*
X229227853Y-100741487D01*
X229176611Y-100721852D01*
X229097598Y-100669059D01*
X228906420Y-100589870D01*
X228906412Y-100589868D01*
X228703469Y-100549500D01*
X228703465Y-100549500D01*
X228496535Y-100549500D01*
X228496530Y-100549500D01*
X228293587Y-100589868D01*
X228293579Y-100589870D01*
X228102403Y-100669058D01*
X227930342Y-100784024D01*
X227784024Y-100930342D01*
X227669058Y-101102403D01*
X227589870Y-101293579D01*
X227589868Y-101293587D01*
X227549500Y-101496530D01*
X227549500Y-101703469D01*
X227589868Y-101906412D01*
X227589870Y-101906420D01*
X227669058Y-102097596D01*
X227784024Y-102269657D01*
X227930342Y-102415975D01*
X227930345Y-102415977D01*
X228102402Y-102530941D01*
X228293580Y-102610130D01*
X228496530Y-102650499D01*
X228496534Y-102650500D01*
X228496535Y-102650500D01*
X228703466Y-102650500D01*
X228703467Y-102650499D01*
X228906420Y-102610130D01*
X229097598Y-102530941D01*
X229097599Y-102530940D01*
X229097600Y-102530940D01*
X229176610Y-102478148D01*
X229243287Y-102457270D01*
X229310667Y-102475755D01*
X229357357Y-102527734D01*
X229369500Y-102581250D01*
X229369500Y-113675500D01*
X229349815Y-113742539D01*
X229297011Y-113788294D01*
X229245500Y-113799500D01*
X202554500Y-113799500D01*
X202487461Y-113779815D01*
X202441706Y-113727011D01*
X202430500Y-113675500D01*
X202430500Y-112153995D01*
X203249499Y-112153995D01*
X203276418Y-112289322D01*
X203276421Y-112289332D01*
X203329221Y-112416804D01*
X203329228Y-112416817D01*
X203405885Y-112531541D01*
X203405888Y-112531545D01*
X203503454Y-112629111D01*
X203503458Y-112629114D01*
X203618182Y-112705771D01*
X203618195Y-112705778D01*
X203745667Y-112758578D01*
X203745672Y-112758580D01*
X203745676Y-112758580D01*
X203745677Y-112758581D01*
X203881004Y-112785500D01*
X203881007Y-112785500D01*
X204018995Y-112785500D01*
X204110041Y-112767389D01*
X204154328Y-112758580D01*
X204281811Y-112705775D01*
X204396542Y-112629114D01*
X204494114Y-112531542D01*
X204570775Y-112416811D01*
X204623580Y-112289328D01*
X204650500Y-112153993D01*
X204650500Y-111940691D01*
X205549500Y-111940691D01*
X205549500Y-112059309D01*
X205580201Y-112173886D01*
X205639511Y-112276613D01*
X205723387Y-112360489D01*
X205826114Y-112419799D01*
X205940691Y-112450500D01*
X205940694Y-112450500D01*
X206059306Y-112450500D01*
X206059309Y-112450500D01*
X206173886Y-112419799D01*
X206276613Y-112360489D01*
X206360489Y-112276613D01*
X206419799Y-112173886D01*
X206450500Y-112059309D01*
X206450500Y-111940691D01*
X210549500Y-111940691D01*
X210549500Y-112059309D01*
X210580201Y-112173886D01*
X210639511Y-112276613D01*
X210723387Y-112360489D01*
X210826114Y-112419799D01*
X210940691Y-112450500D01*
X210940694Y-112450500D01*
X211059306Y-112450500D01*
X211059309Y-112450500D01*
X211173886Y-112419799D01*
X211276613Y-112360489D01*
X211360489Y-112276613D01*
X211419799Y-112173886D01*
X211425129Y-112153995D01*
X211889499Y-112153995D01*
X211916418Y-112289322D01*
X211916421Y-112289332D01*
X211969221Y-112416804D01*
X211969228Y-112416817D01*
X212045885Y-112531541D01*
X212045888Y-112531545D01*
X212143454Y-112629111D01*
X212143458Y-112629114D01*
X212258182Y-112705771D01*
X212258195Y-112705778D01*
X212385667Y-112758578D01*
X212385672Y-112758580D01*
X212385676Y-112758580D01*
X212385677Y-112758581D01*
X212521004Y-112785500D01*
X212521007Y-112785500D01*
X212658995Y-112785500D01*
X212750041Y-112767389D01*
X212794328Y-112758580D01*
X212921811Y-112705775D01*
X213036542Y-112629114D01*
X213134114Y-112531542D01*
X213210775Y-112416811D01*
X213263580Y-112289328D01*
X213290500Y-112153993D01*
X213290500Y-112063920D01*
X218459499Y-112063920D01*
X218488340Y-112208907D01*
X218488343Y-112208917D01*
X218544912Y-112345488D01*
X218544919Y-112345501D01*
X218627048Y-112468415D01*
X218627051Y-112468419D01*
X218731580Y-112572948D01*
X218731584Y-112572951D01*
X218854498Y-112655080D01*
X218854511Y-112655087D01*
X218976874Y-112705771D01*
X218991087Y-112711658D01*
X218991091Y-112711658D01*
X218991092Y-112711659D01*
X219136079Y-112740500D01*
X219136082Y-112740500D01*
X219283920Y-112740500D01*
X219381462Y-112721096D01*
X219428913Y-112711658D01*
X219565495Y-112655084D01*
X219688416Y-112572951D01*
X219792951Y-112468416D01*
X219875084Y-112345495D01*
X219931658Y-112208913D01*
X219960500Y-112063918D01*
X219960500Y-111940691D01*
X220549500Y-111940691D01*
X220549500Y-112059309D01*
X220580201Y-112173886D01*
X220639511Y-112276613D01*
X220723387Y-112360489D01*
X220826114Y-112419799D01*
X220940691Y-112450500D01*
X220940694Y-112450500D01*
X221059306Y-112450500D01*
X221059309Y-112450500D01*
X221173886Y-112419799D01*
X221276613Y-112360489D01*
X221360489Y-112276613D01*
X221419799Y-112173886D01*
X221450500Y-112059309D01*
X221450500Y-111940691D01*
X225549500Y-111940691D01*
X225549500Y-112059309D01*
X225580201Y-112173886D01*
X225639511Y-112276613D01*
X225723387Y-112360489D01*
X225826114Y-112419799D01*
X225940691Y-112450500D01*
X225940694Y-112450500D01*
X226059306Y-112450500D01*
X226059309Y-112450500D01*
X226173886Y-112419799D01*
X226276613Y-112360489D01*
X226360489Y-112276613D01*
X226419799Y-112173886D01*
X226449264Y-112063920D01*
X227099499Y-112063920D01*
X227128340Y-112208907D01*
X227128343Y-112208917D01*
X227184912Y-112345488D01*
X227184919Y-112345501D01*
X227267048Y-112468415D01*
X227267051Y-112468419D01*
X227371580Y-112572948D01*
X227371584Y-112572951D01*
X227494498Y-112655080D01*
X227494511Y-112655087D01*
X227616874Y-112705771D01*
X227631087Y-112711658D01*
X227631091Y-112711658D01*
X227631092Y-112711659D01*
X227776079Y-112740500D01*
X227776082Y-112740500D01*
X227923920Y-112740500D01*
X228021462Y-112721096D01*
X228068913Y-112711658D01*
X228205495Y-112655084D01*
X228328416Y-112572951D01*
X228432951Y-112468416D01*
X228515084Y-112345495D01*
X228571658Y-112208913D01*
X228600500Y-112063918D01*
X228600500Y-111316082D01*
X228600500Y-111316079D01*
X228571659Y-111171092D01*
X228571658Y-111171091D01*
X228571658Y-111171087D01*
X228534205Y-111080667D01*
X228515087Y-111034511D01*
X228515080Y-111034498D01*
X228432951Y-110911584D01*
X228432948Y-110911580D01*
X228328419Y-110807051D01*
X228328415Y-110807048D01*
X228205501Y-110724919D01*
X228205488Y-110724912D01*
X228068917Y-110668343D01*
X228068907Y-110668340D01*
X227923920Y-110639500D01*
X227923918Y-110639500D01*
X227776082Y-110639500D01*
X227776080Y-110639500D01*
X227631092Y-110668340D01*
X227631082Y-110668343D01*
X227494511Y-110724912D01*
X227494498Y-110724919D01*
X227371584Y-110807048D01*
X227371580Y-110807051D01*
X227267051Y-110911580D01*
X227267048Y-110911584D01*
X227184919Y-111034498D01*
X227184912Y-111034511D01*
X227128343Y-111171082D01*
X227128340Y-111171092D01*
X227099500Y-111316079D01*
X227099500Y-111316082D01*
X227099500Y-112063918D01*
X227099500Y-112063920D01*
X227099499Y-112063920D01*
X226449264Y-112063920D01*
X226450500Y-112059309D01*
X226450500Y-111940691D01*
X226419799Y-111826114D01*
X226360489Y-111723387D01*
X226276613Y-111639511D01*
X226173886Y-111580201D01*
X226059309Y-111549500D01*
X225940691Y-111549500D01*
X225826114Y-111580201D01*
X225826112Y-111580201D01*
X225826112Y-111580202D01*
X225723387Y-111639511D01*
X225723384Y-111639513D01*
X225639513Y-111723384D01*
X225639511Y-111723387D01*
X225580201Y-111826114D01*
X225549500Y-111940691D01*
X221450500Y-111940691D01*
X221419799Y-111826114D01*
X221360489Y-111723387D01*
X221276613Y-111639511D01*
X221173886Y-111580201D01*
X221059309Y-111549500D01*
X220940691Y-111549500D01*
X220826114Y-111580201D01*
X220826112Y-111580201D01*
X220826112Y-111580202D01*
X220723387Y-111639511D01*
X220723384Y-111639513D01*
X220639513Y-111723384D01*
X220639511Y-111723387D01*
X220580201Y-111826114D01*
X220549500Y-111940691D01*
X219960500Y-111940691D01*
X219960500Y-111316082D01*
X219960500Y-111316079D01*
X219931659Y-111171092D01*
X219931658Y-111171091D01*
X219931658Y-111171087D01*
X219894205Y-111080667D01*
X219875087Y-111034511D01*
X219875080Y-111034498D01*
X219792951Y-110911584D01*
X219792948Y-110911580D01*
X219688419Y-110807051D01*
X219688415Y-110807048D01*
X219565501Y-110724919D01*
X219565488Y-110724912D01*
X219428917Y-110668343D01*
X219428907Y-110668340D01*
X219283920Y-110639500D01*
X219283918Y-110639500D01*
X219136082Y-110639500D01*
X219136080Y-110639500D01*
X218991092Y-110668340D01*
X218991082Y-110668343D01*
X218854511Y-110724912D01*
X218854498Y-110724919D01*
X218731584Y-110807048D01*
X218731580Y-110807051D01*
X218627051Y-110911580D01*
X218627048Y-110911584D01*
X218544919Y-111034498D01*
X218544912Y-111034511D01*
X218488343Y-111171082D01*
X218488340Y-111171092D01*
X218459500Y-111316079D01*
X218459500Y-111316082D01*
X218459500Y-112063918D01*
X218459500Y-112063920D01*
X218459499Y-112063920D01*
X213290500Y-112063920D01*
X213290500Y-111216007D01*
X213290500Y-111216004D01*
X213263581Y-111080677D01*
X213263580Y-111080676D01*
X213263580Y-111080672D01*
X213210775Y-110953189D01*
X213210773Y-110953186D01*
X213210771Y-110953182D01*
X213202425Y-110940691D01*
X214549500Y-110940691D01*
X214549500Y-111059309D01*
X214580201Y-111173886D01*
X214639511Y-111276613D01*
X214723387Y-111360489D01*
X214826114Y-111419799D01*
X214940691Y-111450500D01*
X214940694Y-111450500D01*
X215059306Y-111450500D01*
X215059309Y-111450500D01*
X215173886Y-111419799D01*
X215276613Y-111360489D01*
X215360489Y-111276613D01*
X215419799Y-111173886D01*
X215450500Y-111059309D01*
X215450500Y-110940691D01*
X217049500Y-110940691D01*
X217049500Y-111059309D01*
X217080201Y-111173886D01*
X217139511Y-111276613D01*
X217223387Y-111360489D01*
X217326114Y-111419799D01*
X217440691Y-111450500D01*
X217440694Y-111450500D01*
X217559306Y-111450500D01*
X217559309Y-111450500D01*
X217673886Y-111419799D01*
X217776613Y-111360489D01*
X217860489Y-111276613D01*
X217919799Y-111173886D01*
X217950500Y-111059309D01*
X217950500Y-110940691D01*
X217919799Y-110826114D01*
X217860489Y-110723387D01*
X217776613Y-110639511D01*
X217673886Y-110580201D01*
X217559309Y-110549500D01*
X217440691Y-110549500D01*
X217326114Y-110580201D01*
X217326112Y-110580201D01*
X217326112Y-110580202D01*
X217223387Y-110639511D01*
X217223384Y-110639513D01*
X217139513Y-110723384D01*
X217139511Y-110723387D01*
X217080201Y-110826114D01*
X217049500Y-110940691D01*
X215450500Y-110940691D01*
X215419799Y-110826114D01*
X215360489Y-110723387D01*
X215276613Y-110639511D01*
X215173886Y-110580201D01*
X215059309Y-110549500D01*
X214940691Y-110549500D01*
X214826114Y-110580201D01*
X214826112Y-110580201D01*
X214826112Y-110580202D01*
X214723387Y-110639511D01*
X214723384Y-110639513D01*
X214639513Y-110723384D01*
X214639511Y-110723387D01*
X214580201Y-110826114D01*
X214549500Y-110940691D01*
X213202425Y-110940691D01*
X213134114Y-110838458D01*
X213134111Y-110838454D01*
X213036545Y-110740888D01*
X213036541Y-110740885D01*
X212921817Y-110664228D01*
X212921804Y-110664221D01*
X212794332Y-110611421D01*
X212794322Y-110611418D01*
X212658995Y-110584500D01*
X212658993Y-110584500D01*
X212521007Y-110584500D01*
X212521005Y-110584500D01*
X212385677Y-110611418D01*
X212385667Y-110611421D01*
X212258195Y-110664221D01*
X212258182Y-110664228D01*
X212143458Y-110740885D01*
X212143454Y-110740888D01*
X212045888Y-110838454D01*
X212045885Y-110838458D01*
X211969228Y-110953182D01*
X211969221Y-110953195D01*
X211916421Y-111080667D01*
X211916418Y-111080677D01*
X211889500Y-111216004D01*
X211889500Y-111216007D01*
X211889500Y-112153993D01*
X211889500Y-112153995D01*
X211889499Y-112153995D01*
X211425129Y-112153995D01*
X211450500Y-112059309D01*
X211450500Y-111940691D01*
X211419799Y-111826114D01*
X211360489Y-111723387D01*
X211276613Y-111639511D01*
X211173886Y-111580201D01*
X211059309Y-111549500D01*
X210940691Y-111549500D01*
X210826114Y-111580201D01*
X210826112Y-111580201D01*
X210826112Y-111580202D01*
X210723387Y-111639511D01*
X210723384Y-111639513D01*
X210639513Y-111723384D01*
X210639511Y-111723387D01*
X210580201Y-111826114D01*
X210549500Y-111940691D01*
X206450500Y-111940691D01*
X206419799Y-111826114D01*
X206360489Y-111723387D01*
X206276613Y-111639511D01*
X206173886Y-111580201D01*
X206059309Y-111549500D01*
X205940691Y-111549500D01*
X205826114Y-111580201D01*
X205826112Y-111580201D01*
X205826112Y-111580202D01*
X205723387Y-111639511D01*
X205723384Y-111639513D01*
X205639513Y-111723384D01*
X205639511Y-111723387D01*
X205580201Y-111826114D01*
X205549500Y-111940691D01*
X204650500Y-111940691D01*
X204650500Y-111216007D01*
X204650500Y-111216004D01*
X204623581Y-111080677D01*
X204623580Y-111080676D01*
X204623580Y-111080672D01*
X204581888Y-110980018D01*
X204570778Y-110953195D01*
X204570771Y-110953182D01*
X204494114Y-110838458D01*
X204494111Y-110838454D01*
X204396545Y-110740888D01*
X204396541Y-110740885D01*
X204281817Y-110664228D01*
X204281804Y-110664221D01*
X204154332Y-110611421D01*
X204154322Y-110611418D01*
X204018995Y-110584500D01*
X204018993Y-110584500D01*
X203881007Y-110584500D01*
X203881005Y-110584500D01*
X203745677Y-110611418D01*
X203745667Y-110611421D01*
X203618195Y-110664221D01*
X203618182Y-110664228D01*
X203503458Y-110740885D01*
X203503454Y-110740888D01*
X203405888Y-110838454D01*
X203405885Y-110838458D01*
X203329228Y-110953182D01*
X203329221Y-110953195D01*
X203276421Y-111080667D01*
X203276418Y-111080677D01*
X203249500Y-111216004D01*
X203249500Y-111216007D01*
X203249500Y-112153993D01*
X203249500Y-112153995D01*
X203249499Y-112153995D01*
X202430500Y-112153995D01*
X202430500Y-109115691D01*
X206569500Y-109115691D01*
X206569500Y-109234309D01*
X206600201Y-109348886D01*
X206659511Y-109451613D01*
X206743387Y-109535489D01*
X206846114Y-109594799D01*
X206960691Y-109625500D01*
X206960694Y-109625500D01*
X207079306Y-109625500D01*
X207079309Y-109625500D01*
X207193886Y-109594799D01*
X207296613Y-109535489D01*
X207380489Y-109451613D01*
X207439799Y-109348886D01*
X207470500Y-109234309D01*
X207470500Y-109115691D01*
X209569500Y-109115691D01*
X209569500Y-109234309D01*
X209600201Y-109348886D01*
X209659511Y-109451613D01*
X209743387Y-109535489D01*
X209846114Y-109594799D01*
X209960691Y-109625500D01*
X209960694Y-109625500D01*
X210079306Y-109625500D01*
X210079309Y-109625500D01*
X210193886Y-109594799D01*
X210296613Y-109535489D01*
X210380489Y-109451613D01*
X210439799Y-109348886D01*
X210470500Y-109234309D01*
X210470500Y-109115691D01*
X210439799Y-109001114D01*
X210380489Y-108898387D01*
X210296613Y-108814511D01*
X210193886Y-108755201D01*
X210079309Y-108724500D01*
X209960691Y-108724500D01*
X209846114Y-108755201D01*
X209846112Y-108755201D01*
X209846112Y-108755202D01*
X209743387Y-108814511D01*
X209743384Y-108814513D01*
X209659513Y-108898384D01*
X209659511Y-108898387D01*
X209600201Y-109001114D01*
X209569500Y-109115691D01*
X207470500Y-109115691D01*
X207439799Y-109001114D01*
X207380489Y-108898387D01*
X207296613Y-108814511D01*
X207193886Y-108755201D01*
X207079309Y-108724500D01*
X206960691Y-108724500D01*
X206846114Y-108755201D01*
X206846112Y-108755201D01*
X206846112Y-108755202D01*
X206743387Y-108814511D01*
X206743384Y-108814513D01*
X206659513Y-108898384D01*
X206659511Y-108898387D01*
X206600201Y-109001114D01*
X206569500Y-109115691D01*
X202430500Y-109115691D01*
X202430500Y-108123995D01*
X203249499Y-108123995D01*
X203276418Y-108259322D01*
X203276421Y-108259332D01*
X203329221Y-108386804D01*
X203329228Y-108386817D01*
X203405885Y-108501541D01*
X203405888Y-108501545D01*
X203503454Y-108599111D01*
X203503458Y-108599114D01*
X203618182Y-108675771D01*
X203618195Y-108675778D01*
X203735822Y-108724500D01*
X203745672Y-108728580D01*
X203745676Y-108728580D01*
X203745677Y-108728581D01*
X203881004Y-108755500D01*
X203881007Y-108755500D01*
X204018995Y-108755500D01*
X204110041Y-108737389D01*
X204154328Y-108728580D01*
X204281811Y-108675775D01*
X204396542Y-108599114D01*
X204494114Y-108501542D01*
X204570775Y-108386811D01*
X204582559Y-108358361D01*
X204625911Y-108253701D01*
X204627718Y-108254449D01*
X204661044Y-108203565D01*
X204724847Y-108175089D01*
X204793918Y-108185629D01*
X204846325Y-108231838D01*
X204848822Y-108235974D01*
X204861944Y-108258702D01*
X204919485Y-108358365D01*
X205026635Y-108465515D01*
X205157865Y-108541281D01*
X205304234Y-108580500D01*
X205304236Y-108580500D01*
X205455764Y-108580500D01*
X205455766Y-108580500D01*
X205602135Y-108541281D01*
X205733365Y-108465515D01*
X205840515Y-108358365D01*
X205916281Y-108227135D01*
X205955500Y-108080766D01*
X205955500Y-107929234D01*
X210584500Y-107929234D01*
X210584500Y-108080766D01*
X210600241Y-108139513D01*
X210623719Y-108227136D01*
X210642308Y-108259332D01*
X210699485Y-108358365D01*
X210806635Y-108465515D01*
X210937865Y-108541281D01*
X211084234Y-108580500D01*
X211084236Y-108580500D01*
X211235764Y-108580500D01*
X211235766Y-108580500D01*
X211382135Y-108541281D01*
X211513365Y-108465515D01*
X211620515Y-108358365D01*
X211691177Y-108235974D01*
X211741744Y-108187759D01*
X211810351Y-108174536D01*
X211875216Y-108200504D01*
X211913322Y-108254018D01*
X211914089Y-108253701D01*
X211915469Y-108257033D01*
X211915744Y-108257419D01*
X211916160Y-108258702D01*
X211969221Y-108386804D01*
X211969228Y-108386817D01*
X212045885Y-108501541D01*
X212045888Y-108501545D01*
X212143454Y-108599111D01*
X212143458Y-108599114D01*
X212258182Y-108675771D01*
X212258195Y-108675778D01*
X212375822Y-108724500D01*
X212385672Y-108728580D01*
X212385676Y-108728580D01*
X212385677Y-108728581D01*
X212521004Y-108755500D01*
X212521007Y-108755500D01*
X212658995Y-108755500D01*
X212750041Y-108737389D01*
X212794328Y-108728580D01*
X212921811Y-108675775D01*
X213036542Y-108599114D01*
X213134114Y-108501542D01*
X213174773Y-108440691D01*
X214549500Y-108440691D01*
X214549500Y-108559309D01*
X214580201Y-108673886D01*
X214639511Y-108776613D01*
X214723387Y-108860489D01*
X214826114Y-108919799D01*
X214940691Y-108950500D01*
X214940694Y-108950500D01*
X215059306Y-108950500D01*
X215059309Y-108950500D01*
X215173886Y-108919799D01*
X215276613Y-108860489D01*
X215360489Y-108776613D01*
X215419799Y-108673886D01*
X215450500Y-108559309D01*
X215450500Y-108440691D01*
X217049500Y-108440691D01*
X217049500Y-108559309D01*
X217080201Y-108673886D01*
X217139511Y-108776613D01*
X217223387Y-108860489D01*
X217326114Y-108919799D01*
X217440691Y-108950500D01*
X217440694Y-108950500D01*
X217559306Y-108950500D01*
X217559309Y-108950500D01*
X217673886Y-108919799D01*
X217776613Y-108860489D01*
X217860489Y-108776613D01*
X217919799Y-108673886D01*
X217950500Y-108559309D01*
X217950500Y-108440691D01*
X217919799Y-108326114D01*
X217883891Y-108263920D01*
X218459499Y-108263920D01*
X218488340Y-108408907D01*
X218488343Y-108408917D01*
X218544912Y-108545488D01*
X218544919Y-108545501D01*
X218627048Y-108668415D01*
X218627051Y-108668419D01*
X218731580Y-108772948D01*
X218731584Y-108772951D01*
X218854498Y-108855080D01*
X218854511Y-108855087D01*
X218991082Y-108911656D01*
X218991087Y-108911658D01*
X218991091Y-108911658D01*
X218991092Y-108911659D01*
X219136079Y-108940500D01*
X219136082Y-108940500D01*
X219283920Y-108940500D01*
X219387996Y-108919797D01*
X219428913Y-108911658D01*
X219552449Y-108860488D01*
X219565488Y-108855087D01*
X219565488Y-108855086D01*
X219565495Y-108855084D01*
X219688416Y-108772951D01*
X219792951Y-108668416D01*
X219875084Y-108545495D01*
X219876830Y-108541281D01*
X219931656Y-108408917D01*
X219931658Y-108408913D01*
X219960500Y-108263920D01*
X227099499Y-108263920D01*
X227128340Y-108408907D01*
X227128343Y-108408917D01*
X227184912Y-108545488D01*
X227184919Y-108545501D01*
X227267048Y-108668415D01*
X227267051Y-108668419D01*
X227371580Y-108772948D01*
X227371584Y-108772951D01*
X227494498Y-108855080D01*
X227494511Y-108855087D01*
X227631082Y-108911656D01*
X227631087Y-108911658D01*
X227631091Y-108911658D01*
X227631092Y-108911659D01*
X227776079Y-108940500D01*
X227776082Y-108940500D01*
X227923920Y-108940500D01*
X228027996Y-108919797D01*
X228068913Y-108911658D01*
X228192449Y-108860488D01*
X228205488Y-108855087D01*
X228205488Y-108855086D01*
X228205495Y-108855084D01*
X228328416Y-108772951D01*
X228432951Y-108668416D01*
X228515084Y-108545495D01*
X228516830Y-108541281D01*
X228571656Y-108408917D01*
X228571658Y-108408913D01*
X228600500Y-108263918D01*
X228600500Y-107516082D01*
X228600500Y-107516079D01*
X228571659Y-107371092D01*
X228571658Y-107371091D01*
X228571658Y-107371087D01*
X228556061Y-107333432D01*
X228515087Y-107234511D01*
X228515080Y-107234498D01*
X228432951Y-107111584D01*
X228432948Y-107111580D01*
X228328419Y-107007051D01*
X228328415Y-107007048D01*
X228205501Y-106924919D01*
X228205488Y-106924912D01*
X228068917Y-106868343D01*
X228068907Y-106868340D01*
X227923920Y-106839500D01*
X227923918Y-106839500D01*
X227776082Y-106839500D01*
X227776080Y-106839500D01*
X227631092Y-106868340D01*
X227631082Y-106868343D01*
X227494511Y-106924912D01*
X227494498Y-106924919D01*
X227371584Y-107007048D01*
X227371580Y-107007051D01*
X227267051Y-107111580D01*
X227267048Y-107111584D01*
X227184919Y-107234498D01*
X227184912Y-107234511D01*
X227128343Y-107371082D01*
X227128340Y-107371092D01*
X227099500Y-107516079D01*
X227099500Y-108263917D01*
X227099499Y-108263920D01*
X219960500Y-108263920D01*
X219960500Y-108263918D01*
X219960500Y-107750691D01*
X220329500Y-107750691D01*
X220329500Y-107869309D01*
X220360201Y-107983886D01*
X220419511Y-108086613D01*
X220503387Y-108170489D01*
X220606114Y-108229799D01*
X220720691Y-108260500D01*
X220720694Y-108260500D01*
X220839306Y-108260500D01*
X220839309Y-108260500D01*
X220953886Y-108229799D01*
X221056613Y-108170489D01*
X221140489Y-108086613D01*
X221199799Y-107983886D01*
X221230500Y-107869309D01*
X221230500Y-107750691D01*
X221559500Y-107750691D01*
X221559500Y-107869309D01*
X221590201Y-107983886D01*
X221649511Y-108086613D01*
X221733387Y-108170489D01*
X221836114Y-108229799D01*
X221950691Y-108260500D01*
X221950694Y-108260500D01*
X222069306Y-108260500D01*
X222069309Y-108260500D01*
X222183886Y-108229799D01*
X222286613Y-108170489D01*
X222370489Y-108086613D01*
X222412613Y-108013651D01*
X222463180Y-107965437D01*
X222531788Y-107952215D01*
X222596652Y-107978183D01*
X222627385Y-108013650D01*
X222669511Y-108086613D01*
X222753387Y-108170489D01*
X222856114Y-108229799D01*
X222970691Y-108260500D01*
X222970694Y-108260500D01*
X223089306Y-108260500D01*
X223089309Y-108260500D01*
X223203886Y-108229799D01*
X223306613Y-108170489D01*
X223390489Y-108086613D01*
X223422613Y-108030972D01*
X223473180Y-107982757D01*
X223541787Y-107969535D01*
X223606652Y-107995503D01*
X223637386Y-108030972D01*
X223669511Y-108086613D01*
X223753387Y-108170489D01*
X223856114Y-108229799D01*
X223970691Y-108260500D01*
X223970694Y-108260500D01*
X224089306Y-108260500D01*
X224089309Y-108260500D01*
X224203886Y-108229799D01*
X224306613Y-108170489D01*
X224390489Y-108086613D01*
X224432613Y-108013651D01*
X224483180Y-107965437D01*
X224551788Y-107952215D01*
X224616652Y-107978183D01*
X224647385Y-108013650D01*
X224689511Y-108086613D01*
X224773387Y-108170489D01*
X224876114Y-108229799D01*
X224990691Y-108260500D01*
X224990694Y-108260500D01*
X225109306Y-108260500D01*
X225109309Y-108260500D01*
X225223886Y-108229799D01*
X225326613Y-108170489D01*
X225410489Y-108086613D01*
X225469799Y-107983886D01*
X225500500Y-107869309D01*
X225500500Y-107750691D01*
X225829500Y-107750691D01*
X225829500Y-107869309D01*
X225860201Y-107983886D01*
X225919511Y-108086613D01*
X226003387Y-108170489D01*
X226106114Y-108229799D01*
X226220691Y-108260500D01*
X226220694Y-108260500D01*
X226339306Y-108260500D01*
X226339309Y-108260500D01*
X226453886Y-108229799D01*
X226556613Y-108170489D01*
X226640489Y-108086613D01*
X226699799Y-107983886D01*
X226730500Y-107869309D01*
X226730500Y-107750691D01*
X226699799Y-107636114D01*
X226640489Y-107533387D01*
X226556613Y-107449511D01*
X226453886Y-107390201D01*
X226339309Y-107359500D01*
X226220691Y-107359500D01*
X226106114Y-107390201D01*
X226106112Y-107390201D01*
X226106112Y-107390202D01*
X226003387Y-107449511D01*
X226003384Y-107449513D01*
X225919513Y-107533384D01*
X225919511Y-107533387D01*
X225913104Y-107544485D01*
X225860201Y-107636114D01*
X225829500Y-107750691D01*
X225500500Y-107750691D01*
X225469799Y-107636114D01*
X225410489Y-107533387D01*
X225326613Y-107449511D01*
X225223886Y-107390201D01*
X225109309Y-107359500D01*
X224990691Y-107359500D01*
X224876114Y-107390201D01*
X224876112Y-107390201D01*
X224876112Y-107390202D01*
X224773387Y-107449511D01*
X224773384Y-107449513D01*
X224689513Y-107533384D01*
X224689507Y-107533393D01*
X224647386Y-107606347D01*
X224596819Y-107654562D01*
X224528212Y-107667784D01*
X224463347Y-107641816D01*
X224432614Y-107606347D01*
X224402667Y-107554479D01*
X224390489Y-107533387D01*
X224306613Y-107449511D01*
X224203886Y-107390201D01*
X224089309Y-107359500D01*
X223970691Y-107359500D01*
X223856114Y-107390201D01*
X223856112Y-107390201D01*
X223856112Y-107390202D01*
X223753387Y-107449511D01*
X223753384Y-107449513D01*
X223669513Y-107533384D01*
X223669511Y-107533387D01*
X223637387Y-107589027D01*
X223586819Y-107637242D01*
X223518212Y-107650464D01*
X223453347Y-107624496D01*
X223422613Y-107589027D01*
X223412777Y-107571991D01*
X223390489Y-107533387D01*
X223306613Y-107449511D01*
X223203886Y-107390201D01*
X223089309Y-107359500D01*
X222970691Y-107359500D01*
X222856114Y-107390201D01*
X222856112Y-107390201D01*
X222856112Y-107390202D01*
X222753387Y-107449511D01*
X222753384Y-107449513D01*
X222669513Y-107533384D01*
X222669507Y-107533393D01*
X222627386Y-107606347D01*
X222576819Y-107654562D01*
X222508212Y-107667784D01*
X222443347Y-107641816D01*
X222412614Y-107606347D01*
X222382667Y-107554479D01*
X222370489Y-107533387D01*
X222286613Y-107449511D01*
X222183886Y-107390201D01*
X222069309Y-107359500D01*
X221950691Y-107359500D01*
X221836114Y-107390201D01*
X221836112Y-107390201D01*
X221836112Y-107390202D01*
X221733387Y-107449511D01*
X221733384Y-107449513D01*
X221649513Y-107533384D01*
X221649511Y-107533387D01*
X221643104Y-107544485D01*
X221590201Y-107636114D01*
X221559500Y-107750691D01*
X221230500Y-107750691D01*
X221199799Y-107636114D01*
X221140489Y-107533387D01*
X221056613Y-107449511D01*
X220953886Y-107390201D01*
X220839309Y-107359500D01*
X220720691Y-107359500D01*
X220606114Y-107390201D01*
X220606112Y-107390201D01*
X220606112Y-107390202D01*
X220503387Y-107449511D01*
X220503384Y-107449513D01*
X220419513Y-107533384D01*
X220419511Y-107533387D01*
X220413104Y-107544485D01*
X220360201Y-107636114D01*
X220329500Y-107750691D01*
X219960500Y-107750691D01*
X219960500Y-107516082D01*
X219960500Y-107516079D01*
X219931659Y-107371092D01*
X219931658Y-107371091D01*
X219931658Y-107371087D01*
X219916061Y-107333432D01*
X219875087Y-107234511D01*
X219875080Y-107234498D01*
X219792951Y-107111584D01*
X219792948Y-107111580D01*
X219688419Y-107007051D01*
X219688415Y-107007048D01*
X219565501Y-106924919D01*
X219565488Y-106924912D01*
X219428917Y-106868343D01*
X219428907Y-106868340D01*
X219283920Y-106839500D01*
X219283918Y-106839500D01*
X219136082Y-106839500D01*
X219136080Y-106839500D01*
X218991092Y-106868340D01*
X218991082Y-106868343D01*
X218854511Y-106924912D01*
X218854498Y-106924919D01*
X218731584Y-107007048D01*
X218731580Y-107007051D01*
X218627051Y-107111580D01*
X218627048Y-107111584D01*
X218544919Y-107234498D01*
X218544912Y-107234511D01*
X218488343Y-107371082D01*
X218488340Y-107371092D01*
X218459500Y-107516079D01*
X218459500Y-108263917D01*
X218459499Y-108263920D01*
X217883891Y-108263920D01*
X217860489Y-108223387D01*
X217776613Y-108139511D01*
X217673886Y-108080201D01*
X217559309Y-108049500D01*
X217440691Y-108049500D01*
X217326114Y-108080201D01*
X217326112Y-108080201D01*
X217326112Y-108080202D01*
X217223387Y-108139511D01*
X217223384Y-108139513D01*
X217139513Y-108223384D01*
X217139511Y-108223387D01*
X217080201Y-108326114D01*
X217049500Y-108440691D01*
X215450500Y-108440691D01*
X215419799Y-108326114D01*
X215360489Y-108223387D01*
X215276613Y-108139511D01*
X215173886Y-108080201D01*
X215059309Y-108049500D01*
X214940691Y-108049500D01*
X214826114Y-108080201D01*
X214826112Y-108080201D01*
X214826112Y-108080202D01*
X214723387Y-108139511D01*
X214723384Y-108139513D01*
X214639513Y-108223384D01*
X214639511Y-108223387D01*
X214580201Y-108326114D01*
X214549500Y-108440691D01*
X213174773Y-108440691D01*
X213210775Y-108386811D01*
X213263580Y-108259328D01*
X213287413Y-108139513D01*
X213290500Y-108123995D01*
X213290500Y-106886004D01*
X213263581Y-106750677D01*
X213263580Y-106750676D01*
X213263580Y-106750672D01*
X213263578Y-106750667D01*
X213210778Y-106623195D01*
X213210771Y-106623182D01*
X213134114Y-106508458D01*
X213134111Y-106508454D01*
X213036545Y-106410888D01*
X213036541Y-106410885D01*
X212921817Y-106334228D01*
X212921804Y-106334221D01*
X212794332Y-106281421D01*
X212794322Y-106281418D01*
X212658995Y-106254500D01*
X212658993Y-106254500D01*
X212521007Y-106254500D01*
X212521005Y-106254500D01*
X212385677Y-106281418D01*
X212385667Y-106281421D01*
X212258195Y-106334221D01*
X212258182Y-106334228D01*
X212143458Y-106410885D01*
X212143454Y-106410888D01*
X212045888Y-106508454D01*
X212045885Y-106508458D01*
X211985502Y-106598827D01*
X211931889Y-106643632D01*
X211862564Y-106652339D01*
X211799537Y-106622184D01*
X211794719Y-106617617D01*
X211746615Y-106569513D01*
X211746613Y-106569511D01*
X211643886Y-106510201D01*
X211529309Y-106479500D01*
X211410691Y-106479500D01*
X211296114Y-106510201D01*
X211296112Y-106510201D01*
X211296112Y-106510202D01*
X211193387Y-106569511D01*
X211193384Y-106569513D01*
X211109513Y-106653384D01*
X211109511Y-106653387D01*
X211050201Y-106756114D01*
X211019500Y-106870691D01*
X211019500Y-106989309D01*
X211050201Y-107103886D01*
X211109511Y-107206613D01*
X211109512Y-107206614D01*
X211109513Y-107206615D01*
X211128086Y-107225188D01*
X211161571Y-107286511D01*
X211156587Y-107356203D01*
X211114715Y-107412136D01*
X211072499Y-107432644D01*
X211014875Y-107448084D01*
X210937865Y-107468719D01*
X210937863Y-107468719D01*
X210937863Y-107468720D01*
X210806635Y-107544485D01*
X210806632Y-107544487D01*
X210699487Y-107651632D01*
X210699485Y-107651635D01*
X210623719Y-107782863D01*
X210584500Y-107929234D01*
X205955500Y-107929234D01*
X205916281Y-107782865D01*
X205840515Y-107651635D01*
X205733365Y-107544485D01*
X205602135Y-107468719D01*
X205467500Y-107432644D01*
X205407840Y-107396279D01*
X205377311Y-107333432D01*
X205385606Y-107264056D01*
X205411914Y-107225188D01*
X205430489Y-107206613D01*
X205489799Y-107103886D01*
X205520500Y-106989309D01*
X205520500Y-106870691D01*
X205489799Y-106756114D01*
X205430489Y-106653387D01*
X205346613Y-106569511D01*
X205243886Y-106510201D01*
X205129309Y-106479500D01*
X205010691Y-106479500D01*
X204896114Y-106510201D01*
X204896112Y-106510201D01*
X204896112Y-106510202D01*
X204793387Y-106569511D01*
X204793383Y-106569514D01*
X204745279Y-106617618D01*
X204683956Y-106651102D01*
X204614264Y-106646117D01*
X204558331Y-106604246D01*
X204554497Y-106598827D01*
X204494114Y-106508458D01*
X204494111Y-106508454D01*
X204396545Y-106410888D01*
X204396541Y-106410885D01*
X204281817Y-106334228D01*
X204281804Y-106334221D01*
X204154332Y-106281421D01*
X204154322Y-106281418D01*
X204018996Y-106254500D01*
X204018993Y-106254500D01*
X203881007Y-106254500D01*
X203881005Y-106254500D01*
X203745677Y-106281418D01*
X203745667Y-106281421D01*
X203618195Y-106334221D01*
X203618182Y-106334228D01*
X203503458Y-106410885D01*
X203503454Y-106410888D01*
X203405888Y-106508454D01*
X203405885Y-106508458D01*
X203329228Y-106623182D01*
X203329221Y-106623195D01*
X203276421Y-106750667D01*
X203276418Y-106750677D01*
X203249500Y-106886004D01*
X203249500Y-106886007D01*
X203249500Y-108123993D01*
X203249500Y-108123995D01*
X203249499Y-108123995D01*
X202430500Y-108123995D01*
X202430500Y-106140691D01*
X207069500Y-106140691D01*
X207069500Y-106259309D01*
X207100201Y-106373886D01*
X207159511Y-106476613D01*
X207243387Y-106560489D01*
X207346114Y-106619799D01*
X207460691Y-106650500D01*
X207460694Y-106650500D01*
X207579306Y-106650500D01*
X207579309Y-106650500D01*
X207693886Y-106619799D01*
X207796613Y-106560489D01*
X207880489Y-106476613D01*
X207939799Y-106373886D01*
X207970500Y-106259309D01*
X207970500Y-106140691D01*
X208569500Y-106140691D01*
X208569500Y-106259309D01*
X208600201Y-106373886D01*
X208659511Y-106476613D01*
X208743387Y-106560489D01*
X208846114Y-106619799D01*
X208960691Y-106650500D01*
X208960694Y-106650500D01*
X209079306Y-106650500D01*
X209079309Y-106650500D01*
X209193886Y-106619799D01*
X209296613Y-106560489D01*
X209380489Y-106476613D01*
X209439799Y-106373886D01*
X209470500Y-106259309D01*
X209470500Y-106140691D01*
X209439799Y-106026114D01*
X209380489Y-105923387D01*
X209296613Y-105839511D01*
X209193886Y-105780201D01*
X209079309Y-105749500D01*
X208960691Y-105749500D01*
X208846114Y-105780201D01*
X208846112Y-105780201D01*
X208846112Y-105780202D01*
X208743387Y-105839511D01*
X208743384Y-105839513D01*
X208659513Y-105923384D01*
X208659511Y-105923387D01*
X208600201Y-106026114D01*
X208569500Y-106140691D01*
X207970500Y-106140691D01*
X207939799Y-106026114D01*
X207880489Y-105923387D01*
X207796613Y-105839511D01*
X207693886Y-105780201D01*
X207579309Y-105749500D01*
X207460691Y-105749500D01*
X207346114Y-105780201D01*
X207346112Y-105780201D01*
X207346112Y-105780202D01*
X207243387Y-105839511D01*
X207243384Y-105839513D01*
X207159513Y-105923384D01*
X207159511Y-105923387D01*
X207100201Y-106026114D01*
X207069500Y-106140691D01*
X202430500Y-106140691D01*
X202430500Y-104880691D01*
X219899500Y-104880691D01*
X219899500Y-104999309D01*
X219930201Y-105113886D01*
X219989511Y-105216613D01*
X220073387Y-105300489D01*
X220176114Y-105359799D01*
X220290691Y-105390500D01*
X220290694Y-105390500D01*
X220409306Y-105390500D01*
X220409309Y-105390500D01*
X220523886Y-105359799D01*
X220626613Y-105300489D01*
X220710489Y-105216613D01*
X220769799Y-105113886D01*
X220800500Y-104999309D01*
X220800500Y-104880691D01*
X220769799Y-104766114D01*
X220710489Y-104663387D01*
X220626613Y-104579511D01*
X220523886Y-104520201D01*
X220409309Y-104489500D01*
X220290691Y-104489500D01*
X220176114Y-104520201D01*
X220176112Y-104520201D01*
X220176112Y-104520202D01*
X220073387Y-104579511D01*
X220073384Y-104579513D01*
X219989513Y-104663384D01*
X219989511Y-104663387D01*
X219930201Y-104766114D01*
X219899500Y-104880691D01*
X202430500Y-104880691D01*
X202430500Y-103090691D01*
X208059500Y-103090691D01*
X208059500Y-103209309D01*
X208090201Y-103323886D01*
X208149511Y-103426613D01*
X208233387Y-103510489D01*
X208336114Y-103569799D01*
X208450691Y-103600500D01*
X208450694Y-103600500D01*
X208569306Y-103600500D01*
X208569309Y-103600500D01*
X208683886Y-103569799D01*
X208786613Y-103510489D01*
X208870489Y-103426613D01*
X208929799Y-103323886D01*
X208960500Y-103209309D01*
X208960500Y-103090691D01*
X213139500Y-103090691D01*
X213139500Y-103209309D01*
X213170201Y-103323886D01*
X213229511Y-103426613D01*
X213313387Y-103510489D01*
X213416114Y-103569799D01*
X213530691Y-103600500D01*
X213530694Y-103600500D01*
X213649306Y-103600500D01*
X213649309Y-103600500D01*
X213763886Y-103569799D01*
X213866613Y-103510489D01*
X213950489Y-103426613D01*
X214009799Y-103323886D01*
X214040500Y-103209309D01*
X214040500Y-103090691D01*
X214409500Y-103090691D01*
X214409500Y-103209309D01*
X214440201Y-103323886D01*
X214499511Y-103426613D01*
X214583387Y-103510489D01*
X214686114Y-103569799D01*
X214800691Y-103600500D01*
X214800694Y-103600500D01*
X214919306Y-103600500D01*
X214919309Y-103600500D01*
X215033886Y-103569799D01*
X215136613Y-103510489D01*
X215220489Y-103426613D01*
X215279799Y-103323886D01*
X215310500Y-103209309D01*
X215310500Y-103090691D01*
X215679500Y-103090691D01*
X215679500Y-103209309D01*
X215710201Y-103323886D01*
X215769511Y-103426613D01*
X215853387Y-103510489D01*
X215956114Y-103569799D01*
X216070691Y-103600500D01*
X216070694Y-103600500D01*
X216189306Y-103600500D01*
X216189309Y-103600500D01*
X216303886Y-103569799D01*
X216406613Y-103510489D01*
X216490489Y-103426613D01*
X216549799Y-103323886D01*
X216580500Y-103209309D01*
X216580500Y-103090691D01*
X216556384Y-103000691D01*
X219899500Y-103000691D01*
X219899500Y-103119309D01*
X219930201Y-103233886D01*
X219989511Y-103336613D01*
X220073387Y-103420489D01*
X220176114Y-103479799D01*
X220290691Y-103510500D01*
X220290694Y-103510500D01*
X220409306Y-103510500D01*
X220409309Y-103510500D01*
X220523886Y-103479799D01*
X220626613Y-103420489D01*
X220710489Y-103336613D01*
X220769799Y-103233886D01*
X220800500Y-103119309D01*
X220800500Y-103000691D01*
X220769799Y-102886114D01*
X220710489Y-102783387D01*
X220626613Y-102699511D01*
X220523886Y-102640201D01*
X220409309Y-102609500D01*
X220290691Y-102609500D01*
X220176114Y-102640201D01*
X220176112Y-102640201D01*
X220176112Y-102640202D01*
X220073387Y-102699511D01*
X220073384Y-102699513D01*
X219989513Y-102783384D01*
X219989511Y-102783387D01*
X219930201Y-102886114D01*
X219899500Y-103000691D01*
X216556384Y-103000691D01*
X216549799Y-102976114D01*
X216490489Y-102873387D01*
X216406613Y-102789511D01*
X216303886Y-102730201D01*
X216189309Y-102699500D01*
X216070691Y-102699500D01*
X215956114Y-102730201D01*
X215956112Y-102730201D01*
X215956112Y-102730202D01*
X215853387Y-102789511D01*
X215853384Y-102789513D01*
X215769513Y-102873384D01*
X215769511Y-102873387D01*
X215710201Y-102976114D01*
X215679500Y-103090691D01*
X215310500Y-103090691D01*
X215279799Y-102976114D01*
X215220489Y-102873387D01*
X215136613Y-102789511D01*
X215033886Y-102730201D01*
X214919309Y-102699500D01*
X214800691Y-102699500D01*
X214686114Y-102730201D01*
X214686112Y-102730201D01*
X214686112Y-102730202D01*
X214583387Y-102789511D01*
X214583384Y-102789513D01*
X214499513Y-102873384D01*
X214499511Y-102873387D01*
X214440201Y-102976114D01*
X214409500Y-103090691D01*
X214040500Y-103090691D01*
X214009799Y-102976114D01*
X213950489Y-102873387D01*
X213866613Y-102789511D01*
X213763886Y-102730201D01*
X213649309Y-102699500D01*
X213530691Y-102699500D01*
X213416114Y-102730201D01*
X213416112Y-102730201D01*
X213416112Y-102730202D01*
X213313387Y-102789511D01*
X213313384Y-102789513D01*
X213229513Y-102873384D01*
X213229511Y-102873387D01*
X213170201Y-102976114D01*
X213139500Y-103090691D01*
X208960500Y-103090691D01*
X208929799Y-102976114D01*
X208870489Y-102873387D01*
X208786613Y-102789511D01*
X208683886Y-102730201D01*
X208569309Y-102699500D01*
X208450691Y-102699500D01*
X208336114Y-102730201D01*
X208336112Y-102730201D01*
X208336112Y-102730202D01*
X208233387Y-102789511D01*
X208233384Y-102789513D01*
X208149513Y-102873384D01*
X208149511Y-102873387D01*
X208090201Y-102976114D01*
X208059500Y-103090691D01*
X202430500Y-103090691D01*
X202430500Y-102581250D01*
X202450185Y-102514211D01*
X202502989Y-102468456D01*
X202572147Y-102458512D01*
X202623390Y-102478148D01*
X202702400Y-102530940D01*
X202702401Y-102530940D01*
X202702402Y-102530941D01*
X202893580Y-102610130D01*
X203096530Y-102650499D01*
X203096534Y-102650500D01*
X203096535Y-102650500D01*
X203303466Y-102650500D01*
X203303467Y-102650499D01*
X203506420Y-102610130D01*
X203697598Y-102530941D01*
X203869655Y-102415977D01*
X204015977Y-102269655D01*
X204130941Y-102097598D01*
X204210130Y-101906420D01*
X204250500Y-101703465D01*
X204250500Y-101700691D01*
X209144500Y-101700691D01*
X209144500Y-101819309D01*
X209175201Y-101933886D01*
X209234511Y-102036613D01*
X209318387Y-102120489D01*
X209421114Y-102179799D01*
X209535691Y-102210500D01*
X209535694Y-102210500D01*
X209654306Y-102210500D01*
X209654309Y-102210500D01*
X209768886Y-102179799D01*
X209871613Y-102120489D01*
X209955489Y-102036613D01*
X210014799Y-101933886D01*
X210045500Y-101819309D01*
X210045500Y-101700691D01*
X210794500Y-101700691D01*
X210794500Y-101819309D01*
X210825201Y-101933886D01*
X210884511Y-102036613D01*
X210968387Y-102120489D01*
X211071114Y-102179799D01*
X211185691Y-102210500D01*
X211185694Y-102210500D01*
X211304306Y-102210500D01*
X211304309Y-102210500D01*
X211418886Y-102179799D01*
X211521613Y-102120489D01*
X211605489Y-102036613D01*
X211664799Y-101933886D01*
X211695500Y-101819309D01*
X211695500Y-101700691D01*
X211664799Y-101586114D01*
X211605489Y-101483387D01*
X211521613Y-101399511D01*
X211418886Y-101340201D01*
X211304309Y-101309500D01*
X211185691Y-101309500D01*
X211071114Y-101340201D01*
X211071112Y-101340201D01*
X211071112Y-101340202D01*
X210968387Y-101399511D01*
X210968384Y-101399513D01*
X210884513Y-101483384D01*
X210884511Y-101483387D01*
X210876921Y-101496534D01*
X210825201Y-101586114D01*
X210794500Y-101700691D01*
X210045500Y-101700691D01*
X210014799Y-101586114D01*
X209955489Y-101483387D01*
X209871613Y-101399511D01*
X209768886Y-101340201D01*
X209654309Y-101309500D01*
X209535691Y-101309500D01*
X209421114Y-101340201D01*
X209421112Y-101340201D01*
X209421112Y-101340202D01*
X209318387Y-101399511D01*
X209318384Y-101399513D01*
X209234513Y-101483384D01*
X209234511Y-101483387D01*
X209226921Y-101496534D01*
X209175201Y-101586114D01*
X209144500Y-101700691D01*
X204250500Y-101700691D01*
X204250500Y-101496535D01*
X204210130Y-101293580D01*
X204146801Y-101140691D01*
X217974500Y-101140691D01*
X217974500Y-101259309D01*
X218005201Y-101373886D01*
X218064511Y-101476613D01*
X218148387Y-101560489D01*
X218251114Y-101619799D01*
X218365691Y-101650500D01*
X218365694Y-101650500D01*
X218484306Y-101650500D01*
X218484309Y-101650500D01*
X218598886Y-101619799D01*
X218701613Y-101560489D01*
X218785489Y-101476613D01*
X218844799Y-101373886D01*
X218875500Y-101259309D01*
X218875500Y-101140691D01*
X224337000Y-101140691D01*
X224337000Y-101259309D01*
X224367701Y-101373886D01*
X224427011Y-101476613D01*
X224510887Y-101560489D01*
X224613614Y-101619799D01*
X224728191Y-101650500D01*
X224728194Y-101650500D01*
X224846806Y-101650500D01*
X224846809Y-101650500D01*
X224961386Y-101619799D01*
X225064113Y-101560489D01*
X225147989Y-101476613D01*
X225207299Y-101373886D01*
X225238000Y-101259309D01*
X225238000Y-101140691D01*
X225207299Y-101026114D01*
X225147989Y-100923387D01*
X225064113Y-100839511D01*
X224961386Y-100780201D01*
X224846809Y-100749500D01*
X224728191Y-100749500D01*
X224613614Y-100780201D01*
X224613612Y-100780201D01*
X224613612Y-100780202D01*
X224510887Y-100839511D01*
X224510884Y-100839513D01*
X224427013Y-100923384D01*
X224427011Y-100923387D01*
X224367701Y-101026114D01*
X224337000Y-101140691D01*
X218875500Y-101140691D01*
X218844799Y-101026114D01*
X218785489Y-100923387D01*
X218701613Y-100839511D01*
X218598886Y-100780201D01*
X218484309Y-100749500D01*
X218365691Y-100749500D01*
X218251114Y-100780201D01*
X218251112Y-100780201D01*
X218251112Y-100780202D01*
X218148387Y-100839511D01*
X218148384Y-100839513D01*
X218064513Y-100923384D01*
X218064511Y-100923387D01*
X218005201Y-101026114D01*
X217974500Y-101140691D01*
X204146801Y-101140691D01*
X204130943Y-101102405D01*
X204015975Y-100930342D01*
X203869657Y-100784024D01*
X203722635Y-100685788D01*
X203697598Y-100669059D01*
X203506420Y-100589870D01*
X203506412Y-100589868D01*
X203303469Y-100549500D01*
X203303465Y-100549500D01*
X203096535Y-100549500D01*
X203096530Y-100549500D01*
X202893587Y-100589868D01*
X202893579Y-100589870D01*
X202702401Y-100669059D01*
X202623389Y-100721852D01*
X202556712Y-100742729D01*
X202489332Y-100724244D01*
X202442642Y-100672264D01*
X202430500Y-100618749D01*
X202430500Y-100041250D01*
X202450185Y-99974211D01*
X202502989Y-99928456D01*
X202572147Y-99918512D01*
X202623390Y-99938148D01*
X202702400Y-99990940D01*
X202702401Y-99990940D01*
X202702402Y-99990941D01*
X202893580Y-100070130D01*
X203096530Y-100110499D01*
X203096534Y-100110500D01*
X203096535Y-100110500D01*
X203303466Y-100110500D01*
X203303467Y-100110499D01*
X203506420Y-100070130D01*
X203697598Y-99990941D01*
X203772803Y-99940691D01*
X206549500Y-99940691D01*
X206549500Y-100059309D01*
X206580201Y-100173886D01*
X206639511Y-100276613D01*
X206723387Y-100360489D01*
X206826114Y-100419799D01*
X206940691Y-100450500D01*
X206940694Y-100450500D01*
X207059306Y-100450500D01*
X207059309Y-100450500D01*
X207173886Y-100419799D01*
X207276613Y-100360489D01*
X207360489Y-100276613D01*
X207419799Y-100173886D01*
X207450130Y-100060691D01*
X210794500Y-100060691D01*
X210794500Y-100179309D01*
X210825201Y-100293886D01*
X210884511Y-100396613D01*
X210968387Y-100480489D01*
X211071114Y-100539799D01*
X211185691Y-100570500D01*
X211185694Y-100570500D01*
X211304306Y-100570500D01*
X211304309Y-100570500D01*
X211418886Y-100539799D01*
X211521613Y-100480489D01*
X211605489Y-100396613D01*
X211664799Y-100293886D01*
X211695500Y-100179309D01*
X211695500Y-100060691D01*
X211664799Y-99946114D01*
X211605489Y-99843387D01*
X211521613Y-99759511D01*
X211418886Y-99700201D01*
X211304309Y-99669500D01*
X211185691Y-99669500D01*
X211071114Y-99700201D01*
X211071112Y-99700201D01*
X211071112Y-99700202D01*
X210968387Y-99759511D01*
X210968384Y-99759513D01*
X210884513Y-99843384D01*
X210884511Y-99843387D01*
X210825201Y-99946114D01*
X210794500Y-100060691D01*
X207450130Y-100060691D01*
X207450500Y-100059309D01*
X207450500Y-99940691D01*
X207419799Y-99826114D01*
X207360489Y-99723387D01*
X207276613Y-99639511D01*
X207173886Y-99580201D01*
X207059309Y-99549500D01*
X206940691Y-99549500D01*
X206826114Y-99580201D01*
X206826112Y-99580201D01*
X206826112Y-99580202D01*
X206723387Y-99639511D01*
X206723384Y-99639513D01*
X206639513Y-99723384D01*
X206639511Y-99723387D01*
X206580201Y-99826114D01*
X206549500Y-99940691D01*
X203772803Y-99940691D01*
X203869655Y-99875977D01*
X203869658Y-99875974D01*
X203900750Y-99844883D01*
X204015974Y-99729658D01*
X204015975Y-99729657D01*
X204015977Y-99729655D01*
X204130941Y-99557598D01*
X204210130Y-99366420D01*
X204250500Y-99163465D01*
X204250500Y-98956535D01*
X204210130Y-98753580D01*
X204210128Y-98753575D01*
X204184837Y-98692516D01*
X204168548Y-98653191D01*
X218149500Y-98653191D01*
X218149500Y-98771809D01*
X218180201Y-98886386D01*
X218239511Y-98989113D01*
X218323387Y-99072989D01*
X218426114Y-99132299D01*
X218540691Y-99163000D01*
X218540694Y-99163000D01*
X218659306Y-99163000D01*
X218659309Y-99163000D01*
X218773886Y-99132299D01*
X218876613Y-99072989D01*
X218960489Y-98989113D01*
X219019799Y-98886386D01*
X219050500Y-98771809D01*
X219050500Y-98653191D01*
X219019799Y-98538614D01*
X218960489Y-98435887D01*
X218876613Y-98352011D01*
X218773886Y-98292701D01*
X218659309Y-98262000D01*
X218540691Y-98262000D01*
X218426114Y-98292701D01*
X218426112Y-98292701D01*
X218426112Y-98292702D01*
X218323387Y-98352011D01*
X218323384Y-98352013D01*
X218239513Y-98435884D01*
X218239511Y-98435887D01*
X218180201Y-98538614D01*
X218149500Y-98653191D01*
X204168548Y-98653191D01*
X204130942Y-98562403D01*
X204015975Y-98390342D01*
X203869657Y-98244024D01*
X203722635Y-98145788D01*
X203697598Y-98129059D01*
X203529208Y-98059309D01*
X203506416Y-98049868D01*
X203303469Y-98009500D01*
X203303465Y-98009500D01*
X203096535Y-98009500D01*
X203096530Y-98009500D01*
X202893587Y-98049868D01*
X202893579Y-98049870D01*
X202702401Y-98129059D01*
X202623389Y-98181852D01*
X202556712Y-98202729D01*
X202489332Y-98184244D01*
X202442642Y-98132264D01*
X202430500Y-98078749D01*
X202430500Y-97940691D01*
X206549500Y-97940691D01*
X206549500Y-98059309D01*
X206580201Y-98173886D01*
X206639511Y-98276613D01*
X206723387Y-98360489D01*
X206826114Y-98419799D01*
X206940691Y-98450500D01*
X206940694Y-98450500D01*
X207059306Y-98450500D01*
X207059309Y-98450500D01*
X207173886Y-98419799D01*
X207276613Y-98360489D01*
X207360489Y-98276613D01*
X207419799Y-98173886D01*
X207450500Y-98059309D01*
X207450500Y-97940691D01*
X207419799Y-97826114D01*
X207360489Y-97723387D01*
X207276613Y-97639511D01*
X207173886Y-97580201D01*
X207059309Y-97549500D01*
X206940691Y-97549500D01*
X206826114Y-97580201D01*
X206826112Y-97580201D01*
X206826112Y-97580202D01*
X206723387Y-97639511D01*
X206723384Y-97639513D01*
X206639513Y-97723384D01*
X206639511Y-97723387D01*
X206580201Y-97826114D01*
X206549500Y-97940691D01*
X202430500Y-97940691D01*
X202430500Y-97501250D01*
X202450185Y-97434211D01*
X202502989Y-97388456D01*
X202572147Y-97378512D01*
X202623390Y-97398148D01*
X202702400Y-97450940D01*
X202702401Y-97450940D01*
X202702402Y-97450941D01*
X202893580Y-97530130D01*
X203096530Y-97570499D01*
X203096534Y-97570500D01*
X203096535Y-97570500D01*
X203303466Y-97570500D01*
X203303467Y-97570499D01*
X203506420Y-97530130D01*
X203697598Y-97450941D01*
X203869655Y-97335977D01*
X204015977Y-97189655D01*
X204130941Y-97017598D01*
X204210130Y-96826420D01*
X204250500Y-96623465D01*
X204250500Y-96540691D01*
X213749500Y-96540691D01*
X213749500Y-96659309D01*
X213780201Y-96773886D01*
X213839511Y-96876613D01*
X213923387Y-96960489D01*
X214026114Y-97019799D01*
X214140691Y-97050500D01*
X214140694Y-97050500D01*
X214259306Y-97050500D01*
X214259309Y-97050500D01*
X214373886Y-97019799D01*
X214476613Y-96960489D01*
X214560489Y-96876613D01*
X214619799Y-96773886D01*
X214650500Y-96659309D01*
X214650500Y-96540691D01*
X214619799Y-96426114D01*
X214560489Y-96323387D01*
X214476613Y-96239511D01*
X214373886Y-96180201D01*
X214259309Y-96149500D01*
X214140691Y-96149500D01*
X214026114Y-96180201D01*
X214026112Y-96180201D01*
X214026112Y-96180202D01*
X213923387Y-96239511D01*
X213923384Y-96239513D01*
X213839513Y-96323384D01*
X213839511Y-96323387D01*
X213818091Y-96360488D01*
X213780201Y-96426114D01*
X213749500Y-96540691D01*
X204250500Y-96540691D01*
X204250500Y-96416535D01*
X204210130Y-96213580D01*
X204130941Y-96022402D01*
X204116943Y-96001453D01*
X204116943Y-96001451D01*
X204076345Y-95940691D01*
X206549500Y-95940691D01*
X206549500Y-96059309D01*
X206580201Y-96173886D01*
X206639511Y-96276613D01*
X206723387Y-96360489D01*
X206826114Y-96419799D01*
X206940691Y-96450500D01*
X206940694Y-96450500D01*
X207059306Y-96450500D01*
X207059309Y-96450500D01*
X207173886Y-96419799D01*
X207276613Y-96360489D01*
X207360489Y-96276613D01*
X207419799Y-96173886D01*
X207450500Y-96059309D01*
X207450500Y-95940691D01*
X207419799Y-95826114D01*
X207360489Y-95723387D01*
X207277793Y-95640691D01*
X210774500Y-95640691D01*
X210774500Y-95759309D01*
X210805201Y-95873886D01*
X210864511Y-95976613D01*
X210948387Y-96060489D01*
X211051114Y-96119799D01*
X211165691Y-96150500D01*
X211165694Y-96150500D01*
X211284306Y-96150500D01*
X211284309Y-96150500D01*
X211398886Y-96119799D01*
X211501613Y-96060489D01*
X211585489Y-95976613D01*
X211644799Y-95873886D01*
X211675500Y-95759309D01*
X211675500Y-95640691D01*
X211644799Y-95526114D01*
X211585489Y-95423387D01*
X211501613Y-95339511D01*
X211398886Y-95280201D01*
X211284309Y-95249500D01*
X211165691Y-95249500D01*
X211051114Y-95280201D01*
X211051112Y-95280201D01*
X211051112Y-95280202D01*
X210948387Y-95339511D01*
X210948384Y-95339513D01*
X210864513Y-95423384D01*
X210864511Y-95423387D01*
X210814580Y-95509870D01*
X210805201Y-95526114D01*
X210774500Y-95640691D01*
X207277793Y-95640691D01*
X207276613Y-95639511D01*
X207173886Y-95580201D01*
X207059309Y-95549500D01*
X206940691Y-95549500D01*
X206826114Y-95580201D01*
X206826112Y-95580201D01*
X206826112Y-95580202D01*
X206723387Y-95639511D01*
X206723384Y-95639513D01*
X206639513Y-95723384D01*
X206639511Y-95723387D01*
X206580201Y-95826114D01*
X206549500Y-95940691D01*
X204076345Y-95940691D01*
X204015980Y-95850349D01*
X204015974Y-95850341D01*
X203869657Y-95704024D01*
X203722635Y-95605788D01*
X203697598Y-95589059D01*
X203686123Y-95584306D01*
X203506420Y-95509870D01*
X203506412Y-95509868D01*
X203303469Y-95469500D01*
X203303465Y-95469500D01*
X203096535Y-95469500D01*
X203096530Y-95469500D01*
X202893587Y-95509868D01*
X202893579Y-95509870D01*
X202702401Y-95589059D01*
X202623389Y-95641852D01*
X202556712Y-95662729D01*
X202489332Y-95644244D01*
X202442642Y-95592264D01*
X202430500Y-95538749D01*
X202430500Y-95240691D01*
X222924500Y-95240691D01*
X222924500Y-95359309D01*
X222955201Y-95473886D01*
X223014511Y-95576613D01*
X223098387Y-95660489D01*
X223201114Y-95719799D01*
X223315691Y-95750500D01*
X223315694Y-95750500D01*
X223434306Y-95750500D01*
X223434309Y-95750500D01*
X223548886Y-95719799D01*
X223651613Y-95660489D01*
X223735489Y-95576613D01*
X223793113Y-95476805D01*
X223843681Y-95428591D01*
X223912288Y-95415369D01*
X223977152Y-95441337D01*
X224017680Y-95498251D01*
X224024500Y-95538807D01*
X224024500Y-95584309D01*
X224055201Y-95698886D01*
X224114511Y-95801613D01*
X224198387Y-95885489D01*
X224301114Y-95944799D01*
X224415691Y-95975500D01*
X224415694Y-95975500D01*
X224534306Y-95975500D01*
X224534309Y-95975500D01*
X224648886Y-95944799D01*
X224751613Y-95885489D01*
X224835489Y-95801613D01*
X224894799Y-95698886D01*
X224925500Y-95584309D01*
X224925500Y-95465691D01*
X224894799Y-95351114D01*
X224835489Y-95248387D01*
X224751613Y-95164511D01*
X224648886Y-95105201D01*
X224534309Y-95074500D01*
X224415691Y-95074500D01*
X224301114Y-95105201D01*
X224301112Y-95105201D01*
X224301112Y-95105202D01*
X224198387Y-95164511D01*
X224198384Y-95164513D01*
X224114513Y-95248384D01*
X224114507Y-95248393D01*
X224056886Y-95348193D01*
X224006319Y-95396408D01*
X223937712Y-95409630D01*
X223872847Y-95383662D01*
X223832319Y-95326747D01*
X223825500Y-95286192D01*
X223825500Y-95240693D01*
X223825500Y-95240691D01*
X223794799Y-95126114D01*
X223735489Y-95023387D01*
X223651613Y-94939511D01*
X223548886Y-94880201D01*
X223434309Y-94849500D01*
X223315691Y-94849500D01*
X223201114Y-94880201D01*
X223201112Y-94880201D01*
X223201112Y-94880202D01*
X223098387Y-94939511D01*
X223098384Y-94939513D01*
X223014513Y-95023384D01*
X223014511Y-95023387D01*
X222955201Y-95126114D01*
X222924500Y-95240691D01*
X202430500Y-95240691D01*
X202430500Y-94961250D01*
X202450185Y-94894211D01*
X202502989Y-94848456D01*
X202572147Y-94838512D01*
X202623390Y-94858148D01*
X202702400Y-94910940D01*
X202702401Y-94910940D01*
X202702402Y-94910941D01*
X202893580Y-94990130D01*
X203096530Y-95030499D01*
X203096534Y-95030500D01*
X203096535Y-95030500D01*
X203303466Y-95030500D01*
X203303467Y-95030499D01*
X203506420Y-94990130D01*
X203697598Y-94910941D01*
X203869655Y-94795977D01*
X204015977Y-94649655D01*
X204130941Y-94477598D01*
X204210130Y-94286420D01*
X204250500Y-94083465D01*
X204250500Y-93876535D01*
X204233425Y-93790691D01*
X206789500Y-93790691D01*
X206789500Y-93909309D01*
X206820201Y-94023886D01*
X206879511Y-94126613D01*
X206963387Y-94210489D01*
X207066114Y-94269799D01*
X207180691Y-94300500D01*
X207180694Y-94300500D01*
X207299306Y-94300500D01*
X207299309Y-94300500D01*
X207413886Y-94269799D01*
X207516613Y-94210489D01*
X207600489Y-94126613D01*
X207659799Y-94023886D01*
X207690500Y-93909309D01*
X207690500Y-93820691D01*
X209124500Y-93820691D01*
X209124500Y-93939309D01*
X209155201Y-94053886D01*
X209214511Y-94156613D01*
X209298387Y-94240489D01*
X209401114Y-94299799D01*
X209515691Y-94330500D01*
X209515694Y-94330500D01*
X209634306Y-94330500D01*
X209634309Y-94330500D01*
X209748886Y-94299799D01*
X209851613Y-94240489D01*
X209935489Y-94156613D01*
X209994799Y-94053886D01*
X210025500Y-93939309D01*
X210025500Y-93820691D01*
X210774500Y-93820691D01*
X210774500Y-93939309D01*
X210805201Y-94053886D01*
X210864511Y-94156613D01*
X210948387Y-94240489D01*
X211051114Y-94299799D01*
X211165691Y-94330500D01*
X211165694Y-94330500D01*
X211284306Y-94330500D01*
X211284309Y-94330500D01*
X211398886Y-94299799D01*
X211501613Y-94240489D01*
X211585489Y-94156613D01*
X211644799Y-94053886D01*
X211675500Y-93939309D01*
X211675500Y-93820691D01*
X211644799Y-93706114D01*
X211585489Y-93603387D01*
X211501613Y-93519511D01*
X211398886Y-93460201D01*
X211284309Y-93429500D01*
X211165691Y-93429500D01*
X211051114Y-93460201D01*
X211051112Y-93460201D01*
X211051112Y-93460202D01*
X210948387Y-93519511D01*
X210948384Y-93519513D01*
X210864513Y-93603384D01*
X210864511Y-93603387D01*
X210805201Y-93706114D01*
X210774500Y-93820691D01*
X210025500Y-93820691D01*
X209994799Y-93706114D01*
X209935489Y-93603387D01*
X209851613Y-93519511D01*
X209748886Y-93460201D01*
X209634309Y-93429500D01*
X209515691Y-93429500D01*
X209401114Y-93460201D01*
X209401112Y-93460201D01*
X209401112Y-93460202D01*
X209298387Y-93519511D01*
X209298384Y-93519513D01*
X209214513Y-93603384D01*
X209214511Y-93603387D01*
X209155201Y-93706114D01*
X209124500Y-93820691D01*
X207690500Y-93820691D01*
X207690500Y-93790691D01*
X207659799Y-93676114D01*
X207600489Y-93573387D01*
X207516613Y-93489511D01*
X207413886Y-93430201D01*
X207299309Y-93399500D01*
X207180691Y-93399500D01*
X207066114Y-93430201D01*
X207066112Y-93430201D01*
X207066112Y-93430202D01*
X206963387Y-93489511D01*
X206963384Y-93489513D01*
X206879513Y-93573384D01*
X206879511Y-93573387D01*
X206821665Y-93673579D01*
X206820201Y-93676114D01*
X206789500Y-93790691D01*
X204233425Y-93790691D01*
X204210130Y-93673580D01*
X204130941Y-93482402D01*
X204015977Y-93310345D01*
X204015975Y-93310342D01*
X203869657Y-93164024D01*
X203712938Y-93059309D01*
X203697598Y-93049059D01*
X203506420Y-92969870D01*
X203506412Y-92969868D01*
X203303469Y-92929500D01*
X203303465Y-92929500D01*
X203096535Y-92929500D01*
X203096530Y-92929500D01*
X202893587Y-92969868D01*
X202893579Y-92969870D01*
X202702401Y-93049059D01*
X202623389Y-93101852D01*
X202556712Y-93122729D01*
X202489332Y-93104244D01*
X202442642Y-93052264D01*
X202430500Y-92998749D01*
X202430500Y-92421250D01*
X202450185Y-92354211D01*
X202502989Y-92308456D01*
X202572147Y-92298512D01*
X202623390Y-92318148D01*
X202702400Y-92370940D01*
X202702401Y-92370940D01*
X202702402Y-92370941D01*
X202893580Y-92450130D01*
X203096530Y-92490499D01*
X203096534Y-92490500D01*
X203096535Y-92490500D01*
X203303466Y-92490500D01*
X203303467Y-92490499D01*
X203506420Y-92450130D01*
X203697598Y-92370941D01*
X203869655Y-92255977D01*
X204015977Y-92109655D01*
X204130941Y-91937598D01*
X204210130Y-91746420D01*
X204250500Y-91543465D01*
X204250500Y-91540691D01*
X211124500Y-91540691D01*
X211124500Y-91659309D01*
X211155201Y-91773886D01*
X211214511Y-91876613D01*
X211298387Y-91960489D01*
X211401114Y-92019799D01*
X211515691Y-92050500D01*
X211515694Y-92050500D01*
X211634306Y-92050500D01*
X211634309Y-92050500D01*
X211748886Y-92019799D01*
X211851613Y-91960489D01*
X211871411Y-91940691D01*
X218112000Y-91940691D01*
X218112000Y-92059309D01*
X218142701Y-92173886D01*
X218202011Y-92276613D01*
X218285887Y-92360489D01*
X218360278Y-92403439D01*
X218408492Y-92454005D01*
X218421714Y-92522613D01*
X218395746Y-92587477D01*
X218360278Y-92618211D01*
X218323390Y-92639509D01*
X218323384Y-92639513D01*
X218239513Y-92723384D01*
X218239511Y-92723387D01*
X218180201Y-92826114D01*
X218149500Y-92940691D01*
X218149500Y-93059309D01*
X218180201Y-93173886D01*
X218239511Y-93276613D01*
X218323387Y-93360489D01*
X218426114Y-93419799D01*
X218540691Y-93450500D01*
X218540694Y-93450500D01*
X218659306Y-93450500D01*
X218659309Y-93450500D01*
X218773886Y-93419799D01*
X218876613Y-93360489D01*
X218960489Y-93276613D01*
X219019799Y-93173886D01*
X219050500Y-93059309D01*
X219050500Y-92940691D01*
X222549500Y-92940691D01*
X222549500Y-93059309D01*
X222580201Y-93173886D01*
X222639511Y-93276613D01*
X222723387Y-93360489D01*
X222826114Y-93419799D01*
X222940691Y-93450500D01*
X222940694Y-93450500D01*
X223059306Y-93450500D01*
X223059309Y-93450500D01*
X223173886Y-93419799D01*
X223276613Y-93360489D01*
X223360489Y-93276613D01*
X223419799Y-93173886D01*
X223450500Y-93059309D01*
X223450500Y-92940691D01*
X223419799Y-92826114D01*
X223360489Y-92723387D01*
X223276613Y-92639511D01*
X223173886Y-92580201D01*
X223059309Y-92549500D01*
X222940691Y-92549500D01*
X222826114Y-92580201D01*
X222826112Y-92580201D01*
X222826112Y-92580202D01*
X222723387Y-92639511D01*
X222723384Y-92639513D01*
X222639513Y-92723384D01*
X222639511Y-92723387D01*
X222580201Y-92826114D01*
X222549500Y-92940691D01*
X219050500Y-92940691D01*
X219019799Y-92826114D01*
X218960489Y-92723387D01*
X218876613Y-92639511D01*
X218802221Y-92596560D01*
X218754007Y-92545993D01*
X218740785Y-92477386D01*
X218766753Y-92412521D01*
X218802220Y-92381789D01*
X218839113Y-92360489D01*
X218922989Y-92276613D01*
X218982299Y-92173886D01*
X219013000Y-92059309D01*
X219013000Y-91940691D01*
X220749500Y-91940691D01*
X220749500Y-92059309D01*
X220780201Y-92173886D01*
X220839511Y-92276613D01*
X220923387Y-92360489D01*
X221026114Y-92419799D01*
X221140691Y-92450500D01*
X221140694Y-92450500D01*
X221259306Y-92450500D01*
X221259309Y-92450500D01*
X221373886Y-92419799D01*
X221476613Y-92360489D01*
X221560489Y-92276613D01*
X221619799Y-92173886D01*
X221650500Y-92059309D01*
X221650500Y-91940691D01*
X221619799Y-91826114D01*
X221560489Y-91723387D01*
X221476613Y-91639511D01*
X221373886Y-91580201D01*
X221259309Y-91549500D01*
X221140691Y-91549500D01*
X221026114Y-91580201D01*
X221026112Y-91580201D01*
X221026112Y-91580202D01*
X220923387Y-91639511D01*
X220923384Y-91639513D01*
X220839513Y-91723384D01*
X220839511Y-91723387D01*
X220810355Y-91773887D01*
X220780201Y-91826114D01*
X220749500Y-91940691D01*
X219013000Y-91940691D01*
X218982299Y-91826114D01*
X218922989Y-91723387D01*
X218839113Y-91639511D01*
X218736386Y-91580201D01*
X218621809Y-91549500D01*
X218503191Y-91549500D01*
X218388614Y-91580201D01*
X218388612Y-91580201D01*
X218388612Y-91580202D01*
X218285887Y-91639511D01*
X218285884Y-91639513D01*
X218202013Y-91723384D01*
X218202011Y-91723387D01*
X218172855Y-91773887D01*
X218142701Y-91826114D01*
X218112000Y-91940691D01*
X211871411Y-91940691D01*
X211935489Y-91876613D01*
X211994799Y-91773886D01*
X212025500Y-91659309D01*
X212025500Y-91540691D01*
X211994799Y-91426114D01*
X211935489Y-91323387D01*
X211851613Y-91239511D01*
X211748886Y-91180201D01*
X211634309Y-91149500D01*
X211515691Y-91149500D01*
X211401114Y-91180201D01*
X211401112Y-91180201D01*
X211401112Y-91180202D01*
X211298387Y-91239511D01*
X211298384Y-91239513D01*
X211214513Y-91323384D01*
X211214511Y-91323387D01*
X211158848Y-91419798D01*
X211155201Y-91426114D01*
X211124500Y-91540691D01*
X204250500Y-91540691D01*
X204250500Y-91336535D01*
X204210130Y-91133580D01*
X204130941Y-90942402D01*
X204015977Y-90770345D01*
X204015975Y-90770342D01*
X203869658Y-90624025D01*
X203869650Y-90624019D01*
X203737494Y-90535715D01*
X203737420Y-90535667D01*
X203722635Y-90525788D01*
X203697598Y-90509059D01*
X203532544Y-90440691D01*
X209449500Y-90440691D01*
X209449500Y-90559309D01*
X209480201Y-90673886D01*
X209539511Y-90776613D01*
X209623387Y-90860489D01*
X209726114Y-90919799D01*
X209840691Y-90950500D01*
X209840694Y-90950500D01*
X209959306Y-90950500D01*
X209959309Y-90950500D01*
X210073886Y-90919799D01*
X210176613Y-90860489D01*
X210260489Y-90776613D01*
X210319799Y-90673886D01*
X210350500Y-90559309D01*
X210350500Y-90460691D01*
X213659500Y-90460691D01*
X213659500Y-90579309D01*
X213690201Y-90693886D01*
X213749511Y-90796613D01*
X213833387Y-90880489D01*
X213936114Y-90939799D01*
X214050691Y-90970500D01*
X214050694Y-90970500D01*
X214169306Y-90970500D01*
X214169309Y-90970500D01*
X214283886Y-90939799D01*
X214386613Y-90880489D01*
X214470489Y-90796613D01*
X214529799Y-90693886D01*
X214560500Y-90579309D01*
X214560500Y-90460691D01*
X214529799Y-90346114D01*
X214470489Y-90243387D01*
X214386613Y-90159511D01*
X214283886Y-90100201D01*
X214169309Y-90069500D01*
X214050691Y-90069500D01*
X213936114Y-90100201D01*
X213936112Y-90100201D01*
X213936112Y-90100202D01*
X213833387Y-90159511D01*
X213833384Y-90159513D01*
X213749513Y-90243384D01*
X213749511Y-90243387D01*
X213690201Y-90346114D01*
X213659500Y-90460691D01*
X210350500Y-90460691D01*
X210350500Y-90440691D01*
X210319799Y-90326114D01*
X210260489Y-90223387D01*
X210176613Y-90139511D01*
X210073886Y-90080201D01*
X209959309Y-90049500D01*
X209840691Y-90049500D01*
X209726114Y-90080201D01*
X209726112Y-90080201D01*
X209726112Y-90080202D01*
X209623387Y-90139511D01*
X209623384Y-90139513D01*
X209539513Y-90223384D01*
X209539511Y-90223387D01*
X209508780Y-90276615D01*
X209480201Y-90326114D01*
X209449500Y-90440691D01*
X203532544Y-90440691D01*
X203506420Y-90429870D01*
X203506412Y-90429868D01*
X203303469Y-90389500D01*
X203303465Y-90389500D01*
X203096535Y-90389500D01*
X203096530Y-90389500D01*
X202893587Y-90429868D01*
X202893579Y-90429870D01*
X202702401Y-90509059D01*
X202623389Y-90561852D01*
X202556712Y-90582729D01*
X202489332Y-90564244D01*
X202442642Y-90512264D01*
X202430500Y-90458749D01*
X202430500Y-89881250D01*
X202450185Y-89814211D01*
X202502989Y-89768456D01*
X202572147Y-89758512D01*
X202623390Y-89778148D01*
X202702400Y-89830940D01*
X202702401Y-89830940D01*
X202702402Y-89830941D01*
X202893580Y-89910130D01*
X203047222Y-89940691D01*
X203096530Y-89950499D01*
X203096534Y-89950500D01*
X203096535Y-89950500D01*
X203303466Y-89950500D01*
X203303467Y-89950499D01*
X203352781Y-89940690D01*
X215614329Y-89940690D01*
X215614329Y-90059308D01*
X215645030Y-90173885D01*
X215704340Y-90276612D01*
X215788216Y-90360488D01*
X215838466Y-90389500D01*
X215843856Y-90392612D01*
X215892071Y-90443180D01*
X215905293Y-90511787D01*
X215879325Y-90576652D01*
X215843856Y-90607386D01*
X215788216Y-90639510D01*
X215788213Y-90639512D01*
X215704342Y-90723383D01*
X215704340Y-90723386D01*
X215662063Y-90796612D01*
X215645030Y-90826113D01*
X215614329Y-90940690D01*
X215614329Y-91059308D01*
X215645030Y-91173885D01*
X215704340Y-91276612D01*
X215788216Y-91360488D01*
X215890943Y-91419798D01*
X216005520Y-91450499D01*
X216005523Y-91450499D01*
X216124135Y-91450499D01*
X216124138Y-91450499D01*
X216238715Y-91419798D01*
X216341442Y-91360488D01*
X216425318Y-91276612D01*
X216484628Y-91173885D01*
X216515329Y-91059308D01*
X216515329Y-90940691D01*
X223387000Y-90940691D01*
X223387000Y-91059309D01*
X223417701Y-91173886D01*
X223477011Y-91276613D01*
X223560887Y-91360489D01*
X223616527Y-91392613D01*
X223664742Y-91443181D01*
X223677964Y-91511788D01*
X223651996Y-91576653D01*
X223616527Y-91607387D01*
X223560887Y-91639511D01*
X223560884Y-91639513D01*
X223477013Y-91723384D01*
X223477011Y-91723387D01*
X223447855Y-91773887D01*
X223417701Y-91826114D01*
X223387000Y-91940691D01*
X223387000Y-92059309D01*
X223417701Y-92173886D01*
X223477011Y-92276613D01*
X223560887Y-92360489D01*
X223663614Y-92419799D01*
X223778191Y-92450500D01*
X223778194Y-92450500D01*
X223896806Y-92450500D01*
X223896809Y-92450500D01*
X224011386Y-92419799D01*
X224114113Y-92360489D01*
X224197989Y-92276613D01*
X224257299Y-92173886D01*
X224288000Y-92059309D01*
X224288000Y-91940691D01*
X224257299Y-91826114D01*
X224197989Y-91723387D01*
X224114113Y-91639511D01*
X224058472Y-91607386D01*
X224010257Y-91556820D01*
X223997035Y-91488213D01*
X224023003Y-91423348D01*
X224058473Y-91392613D01*
X224114113Y-91360489D01*
X224197989Y-91276613D01*
X224257299Y-91173886D01*
X224288000Y-91059309D01*
X224288000Y-90940691D01*
X224257299Y-90826114D01*
X224197989Y-90723387D01*
X224114113Y-90639511D01*
X224011386Y-90580201D01*
X223896809Y-90549500D01*
X223778191Y-90549500D01*
X223663614Y-90580201D01*
X223663612Y-90580201D01*
X223663612Y-90580202D01*
X223560887Y-90639511D01*
X223560884Y-90639513D01*
X223477013Y-90723384D01*
X223477011Y-90723387D01*
X223434734Y-90796613D01*
X223417701Y-90826114D01*
X223387000Y-90940691D01*
X216515329Y-90940691D01*
X216515329Y-90940690D01*
X216484628Y-90826113D01*
X216425318Y-90723386D01*
X216341442Y-90639510D01*
X216285801Y-90607385D01*
X216237586Y-90556819D01*
X216224364Y-90488212D01*
X216250332Y-90423347D01*
X216285802Y-90392612D01*
X216291192Y-90389500D01*
X216341442Y-90360488D01*
X216425318Y-90276612D01*
X216484628Y-90173885D01*
X216515329Y-90059308D01*
X216515329Y-89940691D01*
X222549500Y-89940691D01*
X222549500Y-90059309D01*
X222580201Y-90173886D01*
X222639511Y-90276613D01*
X222723387Y-90360489D01*
X222826114Y-90419799D01*
X222940691Y-90450500D01*
X222940694Y-90450500D01*
X223059306Y-90450500D01*
X223059309Y-90450500D01*
X223173886Y-90419799D01*
X223276613Y-90360489D01*
X223360489Y-90276613D01*
X223419799Y-90173886D01*
X223450500Y-90059309D01*
X223450500Y-89940691D01*
X223419799Y-89826114D01*
X223360489Y-89723387D01*
X223276613Y-89639511D01*
X223173886Y-89580201D01*
X223059309Y-89549500D01*
X222940691Y-89549500D01*
X222826114Y-89580201D01*
X222826112Y-89580201D01*
X222826112Y-89580202D01*
X222723387Y-89639511D01*
X222723384Y-89639513D01*
X222639513Y-89723384D01*
X222639512Y-89723386D01*
X222639511Y-89723387D01*
X222580201Y-89826114D01*
X222549500Y-89940691D01*
X216515329Y-89940691D01*
X216515329Y-89940690D01*
X216484628Y-89826113D01*
X216425318Y-89723386D01*
X216341442Y-89639510D01*
X216238715Y-89580200D01*
X216124138Y-89549499D01*
X216005520Y-89549499D01*
X215890943Y-89580200D01*
X215890941Y-89580200D01*
X215890941Y-89580201D01*
X215788216Y-89639510D01*
X215788213Y-89639512D01*
X215704342Y-89723383D01*
X215704340Y-89723386D01*
X215645030Y-89826113D01*
X215614329Y-89940690D01*
X203352781Y-89940690D01*
X203506420Y-89910130D01*
X203697598Y-89830941D01*
X203869655Y-89715977D01*
X204015977Y-89569655D01*
X204125645Y-89405524D01*
X211119731Y-89405524D01*
X211119731Y-89524142D01*
X211150432Y-89638719D01*
X211209742Y-89741446D01*
X211293618Y-89825322D01*
X211396345Y-89884632D01*
X211510922Y-89915333D01*
X211510925Y-89915333D01*
X211629537Y-89915333D01*
X211629540Y-89915333D01*
X211744117Y-89884632D01*
X211846844Y-89825322D01*
X211930720Y-89741446D01*
X211990030Y-89638719D01*
X212020731Y-89524142D01*
X212020731Y-89405524D01*
X211990030Y-89290947D01*
X211930720Y-89188220D01*
X211846844Y-89104344D01*
X211744117Y-89045034D01*
X211629540Y-89014333D01*
X211510922Y-89014333D01*
X211396345Y-89045034D01*
X211396343Y-89045034D01*
X211396343Y-89045035D01*
X211293618Y-89104344D01*
X211293615Y-89104346D01*
X211209744Y-89188217D01*
X211209742Y-89188220D01*
X211150432Y-89290947D01*
X211119731Y-89405524D01*
X204125645Y-89405524D01*
X204130941Y-89397598D01*
X204210130Y-89206420D01*
X204250500Y-89003465D01*
X204250500Y-88796535D01*
X204210130Y-88593580D01*
X204130941Y-88402402D01*
X204015977Y-88230345D01*
X204015975Y-88230342D01*
X203869657Y-88084024D01*
X203722635Y-87985788D01*
X203697598Y-87969059D01*
X203506420Y-87889870D01*
X203506412Y-87889868D01*
X203303469Y-87849500D01*
X203303465Y-87849500D01*
X203096535Y-87849500D01*
X203096530Y-87849500D01*
X202893587Y-87889868D01*
X202893579Y-87889870D01*
X202702401Y-87969059D01*
X202623389Y-88021852D01*
X202556712Y-88042729D01*
X202489332Y-88024244D01*
X202442642Y-87972264D01*
X202430500Y-87918749D01*
X202430500Y-87341250D01*
X202450185Y-87274211D01*
X202502989Y-87228456D01*
X202572147Y-87218512D01*
X202623390Y-87238148D01*
X202702400Y-87290940D01*
X202702401Y-87290940D01*
X202702402Y-87290941D01*
X202893580Y-87370130D01*
X203096530Y-87410499D01*
X203096534Y-87410500D01*
X203096535Y-87410500D01*
X203303466Y-87410500D01*
X203303467Y-87410499D01*
X203506420Y-87370130D01*
X203697598Y-87290941D01*
X203869655Y-87175977D01*
X204015977Y-87029655D01*
X204130941Y-86857598D01*
X204210130Y-86666420D01*
X204250500Y-86463465D01*
X204250500Y-86256535D01*
X204210130Y-86053580D01*
X204130941Y-85862402D01*
X204016208Y-85690691D01*
X213304500Y-85690691D01*
X213304500Y-85809309D01*
X213335201Y-85923886D01*
X213394511Y-86026613D01*
X213478387Y-86110489D01*
X213581114Y-86169799D01*
X213695691Y-86200500D01*
X213695694Y-86200500D01*
X213814306Y-86200500D01*
X213814309Y-86200500D01*
X213928886Y-86169799D01*
X214031613Y-86110489D01*
X214115489Y-86026613D01*
X214174799Y-85923886D01*
X214205500Y-85809309D01*
X214205500Y-85690691D01*
X214174799Y-85576114D01*
X214115489Y-85473387D01*
X214031613Y-85389511D01*
X213928886Y-85330201D01*
X213814309Y-85299500D01*
X213695691Y-85299500D01*
X213581114Y-85330201D01*
X213581112Y-85330201D01*
X213581112Y-85330202D01*
X213478387Y-85389511D01*
X213478384Y-85389513D01*
X213394513Y-85473384D01*
X213394511Y-85473387D01*
X213335201Y-85576114D01*
X213304500Y-85690691D01*
X204016208Y-85690691D01*
X204015977Y-85690345D01*
X204015975Y-85690342D01*
X203869657Y-85544024D01*
X203763940Y-85473387D01*
X203697598Y-85429059D01*
X203625686Y-85399272D01*
X203506420Y-85349870D01*
X203506412Y-85349868D01*
X203303469Y-85309500D01*
X203303465Y-85309500D01*
X203096535Y-85309500D01*
X203096530Y-85309500D01*
X202893587Y-85349868D01*
X202893579Y-85349870D01*
X202702401Y-85429059D01*
X202623389Y-85481852D01*
X202556712Y-85502729D01*
X202489332Y-85484244D01*
X202442642Y-85432264D01*
X202430500Y-85378749D01*
X202430500Y-84801250D01*
X202450185Y-84734211D01*
X202502989Y-84688456D01*
X202572147Y-84678512D01*
X202623390Y-84698148D01*
X202702400Y-84750940D01*
X202702401Y-84750940D01*
X202702402Y-84750941D01*
X202893580Y-84830130D01*
X203096530Y-84870499D01*
X203096534Y-84870500D01*
X203096535Y-84870500D01*
X203303466Y-84870500D01*
X203303467Y-84870499D01*
X203506420Y-84830130D01*
X203697598Y-84750941D01*
X203869655Y-84635977D01*
X204015977Y-84489655D01*
X204130941Y-84317598D01*
X204210130Y-84126420D01*
X204232155Y-84015691D01*
X208474500Y-84015691D01*
X208474500Y-84134309D01*
X208505201Y-84248886D01*
X208564511Y-84351613D01*
X208648387Y-84435489D01*
X208751114Y-84494799D01*
X208865691Y-84525500D01*
X208865694Y-84525500D01*
X208984306Y-84525500D01*
X208984309Y-84525500D01*
X209098886Y-84494799D01*
X209201613Y-84435489D01*
X209285489Y-84351613D01*
X209344799Y-84248886D01*
X209375500Y-84134309D01*
X209375500Y-84015691D01*
X209344799Y-83901114D01*
X209285489Y-83798387D01*
X209201613Y-83714511D01*
X209098886Y-83655201D01*
X208984309Y-83624500D01*
X208865691Y-83624500D01*
X208751114Y-83655201D01*
X208751112Y-83655201D01*
X208751112Y-83655202D01*
X208648387Y-83714511D01*
X208648384Y-83714513D01*
X208564513Y-83798384D01*
X208564511Y-83798387D01*
X208505201Y-83901114D01*
X208474500Y-84015691D01*
X204232155Y-84015691D01*
X204250500Y-83923465D01*
X204250500Y-83716535D01*
X204210130Y-83513580D01*
X204130941Y-83322402D01*
X204015977Y-83150345D01*
X204015974Y-83150341D01*
X203956324Y-83090691D01*
X210324500Y-83090691D01*
X210324500Y-83209309D01*
X210355201Y-83323886D01*
X210414511Y-83426613D01*
X210498387Y-83510489D01*
X210601114Y-83569799D01*
X210663375Y-83586481D01*
X210723033Y-83622844D01*
X210753563Y-83685691D01*
X210745269Y-83755066D01*
X210718966Y-83793932D01*
X210714511Y-83798387D01*
X210655201Y-83901114D01*
X210624500Y-84015691D01*
X210624500Y-84134309D01*
X210655201Y-84248886D01*
X210714511Y-84351613D01*
X210798387Y-84435489D01*
X210901114Y-84494799D01*
X211015691Y-84525500D01*
X211015694Y-84525500D01*
X211053629Y-84525500D01*
X211120668Y-84545185D01*
X211166423Y-84597989D01*
X211176367Y-84667147D01*
X211161017Y-84711497D01*
X211106693Y-84805589D01*
X211075992Y-84920166D01*
X211075992Y-85038784D01*
X211106693Y-85153361D01*
X211166003Y-85256088D01*
X211249879Y-85339964D01*
X211352606Y-85399274D01*
X211467183Y-85429975D01*
X211467186Y-85429975D01*
X211585798Y-85429975D01*
X211585801Y-85429975D01*
X211700378Y-85399274D01*
X211803105Y-85339964D01*
X211886981Y-85256088D01*
X211946291Y-85153361D01*
X211976992Y-85038784D01*
X211976992Y-84920166D01*
X211946291Y-84805589D01*
X211886981Y-84702862D01*
X211803105Y-84618986D01*
X211700378Y-84559676D01*
X211585801Y-84528975D01*
X211547863Y-84528975D01*
X211480824Y-84509290D01*
X211435069Y-84456486D01*
X211425125Y-84387328D01*
X211440474Y-84342977D01*
X211494799Y-84248886D01*
X211525500Y-84134309D01*
X211525500Y-84040691D01*
X212949500Y-84040691D01*
X212949500Y-84159309D01*
X212980201Y-84273886D01*
X213039511Y-84376613D01*
X213123387Y-84460489D01*
X213226114Y-84519799D01*
X213340691Y-84550500D01*
X213340694Y-84550500D01*
X213459306Y-84550500D01*
X213459309Y-84550500D01*
X213573886Y-84519799D01*
X213676613Y-84460489D01*
X213760489Y-84376613D01*
X213819799Y-84273886D01*
X213850500Y-84159309D01*
X213850500Y-84040691D01*
X213819799Y-83926114D01*
X213760489Y-83823387D01*
X213676613Y-83739511D01*
X213573886Y-83680201D01*
X213459309Y-83649500D01*
X213340691Y-83649500D01*
X213226114Y-83680201D01*
X213226112Y-83680201D01*
X213226112Y-83680202D01*
X213123387Y-83739511D01*
X213123384Y-83739513D01*
X213039513Y-83823384D01*
X213039511Y-83823387D01*
X212980201Y-83926114D01*
X212949500Y-84040691D01*
X211525500Y-84040691D01*
X211525500Y-84015691D01*
X211494799Y-83901114D01*
X211435489Y-83798387D01*
X211351613Y-83714511D01*
X211292187Y-83680201D01*
X211248887Y-83655201D01*
X211227610Y-83649500D01*
X211186624Y-83638517D01*
X211126965Y-83602154D01*
X211096436Y-83539307D01*
X211104731Y-83469932D01*
X211131037Y-83431064D01*
X211135489Y-83426613D01*
X211194799Y-83323886D01*
X211225500Y-83209309D01*
X211225500Y-83090691D01*
X214824500Y-83090691D01*
X214824500Y-83209309D01*
X214855201Y-83323886D01*
X214914511Y-83426613D01*
X214998387Y-83510489D01*
X215101114Y-83569799D01*
X215163375Y-83586481D01*
X215223033Y-83622844D01*
X215253563Y-83685691D01*
X215245269Y-83755066D01*
X215218966Y-83793932D01*
X215214511Y-83798387D01*
X215155201Y-83901114D01*
X215124500Y-84015691D01*
X215124500Y-84134309D01*
X215155201Y-84248886D01*
X215214511Y-84351613D01*
X215298387Y-84435489D01*
X215401114Y-84494799D01*
X215515691Y-84525500D01*
X215515694Y-84525500D01*
X215634306Y-84525500D01*
X215634309Y-84525500D01*
X215748886Y-84494799D01*
X215851613Y-84435489D01*
X215935489Y-84351613D01*
X215994799Y-84248886D01*
X216025500Y-84134309D01*
X216025500Y-84015691D01*
X215994799Y-83901114D01*
X215935489Y-83798387D01*
X215851613Y-83714511D01*
X215842598Y-83709306D01*
X215815901Y-83693892D01*
X215815897Y-83693890D01*
X215748886Y-83655201D01*
X215678531Y-83636349D01*
X215670810Y-83633115D01*
X215649932Y-83616153D01*
X215626965Y-83602154D01*
X215623225Y-83594455D01*
X215618592Y-83590691D01*
X217599500Y-83590691D01*
X217599500Y-83709309D01*
X217630201Y-83823886D01*
X217689511Y-83926613D01*
X217773387Y-84010489D01*
X217876114Y-84069799D01*
X217990691Y-84100500D01*
X217990694Y-84100500D01*
X218109306Y-84100500D01*
X218109309Y-84100500D01*
X218223886Y-84069799D01*
X218326613Y-84010489D01*
X218396411Y-83940691D01*
X220549500Y-83940691D01*
X220549500Y-84059309D01*
X220580201Y-84173886D01*
X220639511Y-84276613D01*
X220723387Y-84360489D01*
X220826114Y-84419799D01*
X220940691Y-84450500D01*
X220940694Y-84450500D01*
X221059306Y-84450500D01*
X221059309Y-84450500D01*
X221173886Y-84419799D01*
X221276613Y-84360489D01*
X221360489Y-84276613D01*
X221419799Y-84173886D01*
X221450500Y-84059309D01*
X221450500Y-83940691D01*
X221419799Y-83826114D01*
X221360489Y-83723387D01*
X221276613Y-83639511D01*
X221192055Y-83590691D01*
X222499500Y-83590691D01*
X222499500Y-83709309D01*
X222530201Y-83823886D01*
X222589511Y-83926613D01*
X222673387Y-84010489D01*
X222776114Y-84069799D01*
X222890691Y-84100500D01*
X222890694Y-84100500D01*
X223009306Y-84100500D01*
X223009309Y-84100500D01*
X223123886Y-84069799D01*
X223226613Y-84010489D01*
X223310489Y-83926613D01*
X223369799Y-83823886D01*
X223400500Y-83709309D01*
X223400500Y-83590691D01*
X223369799Y-83476114D01*
X223310489Y-83373387D01*
X223226613Y-83289511D01*
X223123886Y-83230201D01*
X223009309Y-83199500D01*
X222890691Y-83199500D01*
X222776114Y-83230201D01*
X222776112Y-83230201D01*
X222776112Y-83230202D01*
X222673387Y-83289511D01*
X222673384Y-83289513D01*
X222589513Y-83373384D01*
X222589511Y-83373387D01*
X222558780Y-83426615D01*
X222530201Y-83476114D01*
X222499500Y-83590691D01*
X221192055Y-83590691D01*
X221173886Y-83580201D01*
X221059309Y-83549500D01*
X220940691Y-83549500D01*
X220826114Y-83580201D01*
X220826112Y-83580201D01*
X220826112Y-83580202D01*
X220723387Y-83639511D01*
X220723384Y-83639513D01*
X220639513Y-83723384D01*
X220639511Y-83723387D01*
X220581486Y-83823889D01*
X220580201Y-83826114D01*
X220549500Y-83940691D01*
X218396411Y-83940691D01*
X218410489Y-83926613D01*
X218412307Y-83923465D01*
X218442851Y-83870563D01*
X218464955Y-83832274D01*
X218469799Y-83823886D01*
X218500500Y-83709309D01*
X218500500Y-83590691D01*
X218469799Y-83476114D01*
X218410489Y-83373387D01*
X218326613Y-83289511D01*
X218223886Y-83230201D01*
X218109309Y-83199500D01*
X217990691Y-83199500D01*
X217876114Y-83230201D01*
X217876112Y-83230201D01*
X217876112Y-83230202D01*
X217773387Y-83289511D01*
X217773384Y-83289513D01*
X217689513Y-83373384D01*
X217689511Y-83373387D01*
X217658780Y-83426615D01*
X217630201Y-83476114D01*
X217599500Y-83590691D01*
X215618592Y-83590691D01*
X215616582Y-83589058D01*
X215608188Y-83563500D01*
X215596436Y-83539307D01*
X215597452Y-83530809D01*
X215594781Y-83522676D01*
X215601538Y-83496635D01*
X215604731Y-83469932D01*
X215610790Y-83460979D01*
X215612330Y-83455046D01*
X215618935Y-83448945D01*
X215631037Y-83431064D01*
X215635489Y-83426613D01*
X215694799Y-83323886D01*
X215725500Y-83209309D01*
X215725500Y-83090691D01*
X215694799Y-82976114D01*
X215635489Y-82873387D01*
X215551613Y-82789511D01*
X215448886Y-82730201D01*
X215334309Y-82699500D01*
X215215691Y-82699500D01*
X215101114Y-82730201D01*
X215101112Y-82730201D01*
X215101112Y-82730202D01*
X214998387Y-82789511D01*
X214998384Y-82789513D01*
X214914513Y-82873384D01*
X214914511Y-82873387D01*
X214855201Y-82976114D01*
X214824500Y-83090691D01*
X211225500Y-83090691D01*
X211194799Y-82976114D01*
X211135489Y-82873387D01*
X211051613Y-82789511D01*
X210948886Y-82730201D01*
X210834309Y-82699500D01*
X210715691Y-82699500D01*
X210601114Y-82730201D01*
X210601112Y-82730201D01*
X210601112Y-82730202D01*
X210498387Y-82789511D01*
X210498384Y-82789513D01*
X210414513Y-82873384D01*
X210414511Y-82873387D01*
X210355201Y-82976114D01*
X210324500Y-83090691D01*
X203956324Y-83090691D01*
X203869657Y-83004024D01*
X203722635Y-82905788D01*
X203697598Y-82889059D01*
X203659755Y-82873384D01*
X203506420Y-82809870D01*
X203506412Y-82809868D01*
X203303469Y-82769500D01*
X203303465Y-82769500D01*
X203096535Y-82769500D01*
X203096530Y-82769500D01*
X202893587Y-82809868D01*
X202893579Y-82809870D01*
X202702401Y-82889059D01*
X202623389Y-82941852D01*
X202556712Y-82962729D01*
X202489332Y-82944244D01*
X202442642Y-82892264D01*
X202430500Y-82838749D01*
X202430500Y-82261250D01*
X202450185Y-82194211D01*
X202502989Y-82148456D01*
X202572147Y-82138512D01*
X202623390Y-82158148D01*
X202702400Y-82210940D01*
X202702401Y-82210940D01*
X202702402Y-82210941D01*
X202893580Y-82290130D01*
X203096530Y-82330499D01*
X203096534Y-82330500D01*
X203096535Y-82330500D01*
X203303466Y-82330500D01*
X203303467Y-82330499D01*
X203506420Y-82290130D01*
X203697598Y-82210941D01*
X203869655Y-82095977D01*
X204015977Y-81949655D01*
X204021967Y-81940691D01*
X210549500Y-81940691D01*
X210549500Y-82059309D01*
X210580201Y-82173886D01*
X210639511Y-82276613D01*
X210723387Y-82360489D01*
X210826114Y-82419799D01*
X210940691Y-82450500D01*
X210940694Y-82450500D01*
X211059306Y-82450500D01*
X211059309Y-82450500D01*
X211173886Y-82419799D01*
X211276613Y-82360489D01*
X211360489Y-82276613D01*
X211419799Y-82173886D01*
X211450500Y-82059309D01*
X211450500Y-81940691D01*
X214549500Y-81940691D01*
X214549500Y-82059309D01*
X214580201Y-82173886D01*
X214639511Y-82276613D01*
X214723387Y-82360489D01*
X214826114Y-82419799D01*
X214940691Y-82450500D01*
X214940694Y-82450500D01*
X215059306Y-82450500D01*
X215059309Y-82450500D01*
X215173886Y-82419799D01*
X215276613Y-82360489D01*
X215360489Y-82276613D01*
X215419799Y-82173886D01*
X215450500Y-82059309D01*
X215450500Y-81940691D01*
X222549500Y-81940691D01*
X222549500Y-82059309D01*
X222580201Y-82173886D01*
X222639511Y-82276613D01*
X222723387Y-82360489D01*
X222826114Y-82419799D01*
X222940691Y-82450500D01*
X222940694Y-82450500D01*
X223059306Y-82450500D01*
X223059309Y-82450500D01*
X223173886Y-82419799D01*
X223276613Y-82360489D01*
X223360489Y-82276613D01*
X223419799Y-82173886D01*
X223450500Y-82059309D01*
X223450500Y-81940691D01*
X223419799Y-81826114D01*
X223360489Y-81723387D01*
X223276613Y-81639511D01*
X223173886Y-81580201D01*
X223059309Y-81549500D01*
X222940691Y-81549500D01*
X222826114Y-81580201D01*
X222826112Y-81580201D01*
X222826112Y-81580202D01*
X222723387Y-81639511D01*
X222723384Y-81639513D01*
X222639513Y-81723384D01*
X222639511Y-81723387D01*
X222580201Y-81826114D01*
X222549500Y-81940691D01*
X215450500Y-81940691D01*
X215419799Y-81826114D01*
X215360489Y-81723387D01*
X215276613Y-81639511D01*
X215173886Y-81580201D01*
X215059309Y-81549500D01*
X214940691Y-81549500D01*
X214826114Y-81580201D01*
X214826112Y-81580201D01*
X214826112Y-81580202D01*
X214723387Y-81639511D01*
X214723384Y-81639513D01*
X214639513Y-81723384D01*
X214639511Y-81723387D01*
X214580201Y-81826114D01*
X214549500Y-81940691D01*
X211450500Y-81940691D01*
X211419799Y-81826114D01*
X211360489Y-81723387D01*
X211276613Y-81639511D01*
X211173886Y-81580201D01*
X211059309Y-81549500D01*
X210940691Y-81549500D01*
X210826114Y-81580201D01*
X210826112Y-81580201D01*
X210826112Y-81580202D01*
X210723387Y-81639511D01*
X210723384Y-81639513D01*
X210639513Y-81723384D01*
X210639511Y-81723387D01*
X210580201Y-81826114D01*
X210549500Y-81940691D01*
X204021967Y-81940691D01*
X204098526Y-81826112D01*
X204130940Y-81777600D01*
X204130940Y-81777599D01*
X204130941Y-81777598D01*
X204210130Y-81586420D01*
X204250500Y-81383465D01*
X204250500Y-81176535D01*
X204210130Y-80973580D01*
X204130941Y-80782402D01*
X204015977Y-80610345D01*
X204015975Y-80610342D01*
X203869657Y-80464024D01*
X203714704Y-80360489D01*
X203697598Y-80349059D01*
X203506420Y-80269870D01*
X203506412Y-80269868D01*
X203303469Y-80229500D01*
X203303465Y-80229500D01*
X203096535Y-80229500D01*
X203096530Y-80229500D01*
X202893587Y-80269868D01*
X202893579Y-80269870D01*
X202702401Y-80349059D01*
X202623389Y-80401852D01*
X202556712Y-80422729D01*
X202489332Y-80404244D01*
X202442642Y-80352264D01*
X202430500Y-80298749D01*
X202430500Y-79840691D01*
X208474500Y-79840691D01*
X208474500Y-79959309D01*
X208505201Y-80073886D01*
X208564511Y-80176613D01*
X208648387Y-80260489D01*
X208751114Y-80319799D01*
X208865691Y-80350500D01*
X208865694Y-80350500D01*
X208984306Y-80350500D01*
X208984309Y-80350500D01*
X209098886Y-80319799D01*
X209201613Y-80260489D01*
X209285489Y-80176613D01*
X209344799Y-80073886D01*
X209375500Y-79959309D01*
X209375500Y-79940691D01*
X212974500Y-79940691D01*
X212974500Y-80059309D01*
X213005201Y-80173886D01*
X213064511Y-80276613D01*
X213148387Y-80360489D01*
X213251114Y-80419799D01*
X213365691Y-80450500D01*
X213365694Y-80450500D01*
X213484306Y-80450500D01*
X213484309Y-80450500D01*
X213598886Y-80419799D01*
X213701613Y-80360489D01*
X213785489Y-80276613D01*
X213844799Y-80173886D01*
X213875500Y-80059309D01*
X213875500Y-79940691D01*
X213855404Y-79865691D01*
X215124500Y-79865691D01*
X215124500Y-79984309D01*
X215155201Y-80098886D01*
X215214511Y-80201613D01*
X215298387Y-80285489D01*
X215401114Y-80344799D01*
X215515691Y-80375500D01*
X215515694Y-80375500D01*
X215634306Y-80375500D01*
X215634309Y-80375500D01*
X215748886Y-80344799D01*
X215851613Y-80285489D01*
X215935489Y-80201613D01*
X215994799Y-80098886D01*
X216025500Y-79984309D01*
X216025500Y-79940691D01*
X219549500Y-79940691D01*
X219549500Y-80059309D01*
X219580201Y-80173886D01*
X219639511Y-80276613D01*
X219723387Y-80360489D01*
X219826114Y-80419799D01*
X219940691Y-80450500D01*
X219940694Y-80450500D01*
X220059306Y-80450500D01*
X220059309Y-80450500D01*
X220173886Y-80419799D01*
X220276613Y-80360489D01*
X220360489Y-80276613D01*
X220419799Y-80173886D01*
X220450500Y-80059309D01*
X220450500Y-79940691D01*
X220419799Y-79826114D01*
X220360489Y-79723387D01*
X220276613Y-79639511D01*
X220173886Y-79580201D01*
X220059309Y-79549500D01*
X219940691Y-79549500D01*
X219826114Y-79580201D01*
X219826112Y-79580201D01*
X219826112Y-79580202D01*
X219723387Y-79639511D01*
X219723384Y-79639513D01*
X219639513Y-79723384D01*
X219639511Y-79723387D01*
X219600764Y-79790499D01*
X219580201Y-79826114D01*
X219549500Y-79940691D01*
X216025500Y-79940691D01*
X216025500Y-79865691D01*
X215994799Y-79751114D01*
X215935489Y-79648387D01*
X215851613Y-79564511D01*
X215748886Y-79505201D01*
X215634309Y-79474500D01*
X215515691Y-79474500D01*
X215401114Y-79505201D01*
X215401112Y-79505201D01*
X215401112Y-79505202D01*
X215298387Y-79564511D01*
X215298384Y-79564513D01*
X215214513Y-79648384D01*
X215214511Y-79648387D01*
X215155769Y-79750131D01*
X215155201Y-79751114D01*
X215124500Y-79865691D01*
X213855404Y-79865691D01*
X213844799Y-79826114D01*
X213785489Y-79723387D01*
X213701613Y-79639511D01*
X213598886Y-79580201D01*
X213484309Y-79549500D01*
X213365691Y-79549500D01*
X213251114Y-79580201D01*
X213251112Y-79580201D01*
X213251112Y-79580202D01*
X213148387Y-79639511D01*
X213148384Y-79639513D01*
X213064513Y-79723384D01*
X213064511Y-79723387D01*
X213025764Y-79790499D01*
X213005201Y-79826114D01*
X212974500Y-79940691D01*
X209375500Y-79940691D01*
X209375500Y-79840691D01*
X209344799Y-79726114D01*
X209285489Y-79623387D01*
X209201613Y-79539511D01*
X209098886Y-79480201D01*
X208984309Y-79449500D01*
X208865691Y-79449500D01*
X208751114Y-79480201D01*
X208751112Y-79480201D01*
X208751112Y-79480202D01*
X208648387Y-79539511D01*
X208648384Y-79539513D01*
X208564513Y-79623384D01*
X208564511Y-79623387D01*
X208505201Y-79726114D01*
X208474500Y-79840691D01*
X202430500Y-79840691D01*
X202430500Y-79721250D01*
X202450185Y-79654211D01*
X202502989Y-79608456D01*
X202572147Y-79598512D01*
X202623390Y-79618148D01*
X202702400Y-79670940D01*
X202702401Y-79670940D01*
X202702402Y-79670941D01*
X202893580Y-79750130D01*
X203096530Y-79790499D01*
X203096534Y-79790500D01*
X203096535Y-79790500D01*
X203303466Y-79790500D01*
X203303467Y-79790499D01*
X203506420Y-79750130D01*
X203697598Y-79670941D01*
X203869655Y-79555977D01*
X204015977Y-79409655D01*
X204130941Y-79237598D01*
X204210130Y-79046420D01*
X204250500Y-78843465D01*
X204250500Y-78636535D01*
X204210130Y-78433580D01*
X204130941Y-78242402D01*
X204015977Y-78070345D01*
X204015975Y-78070342D01*
X203869657Y-77924024D01*
X203722635Y-77825788D01*
X203697598Y-77809059D01*
X203506420Y-77729870D01*
X203506412Y-77729868D01*
X203303469Y-77689500D01*
X203303465Y-77689500D01*
X203096535Y-77689500D01*
X203096530Y-77689500D01*
X202893587Y-77729868D01*
X202893579Y-77729870D01*
X202702401Y-77809059D01*
X202623389Y-77861852D01*
X202556712Y-77882729D01*
X202489332Y-77864244D01*
X202442642Y-77812264D01*
X202430500Y-77758749D01*
X202430500Y-77181250D01*
X202450185Y-77114211D01*
X202502989Y-77068456D01*
X202572147Y-77058512D01*
X202623390Y-77078148D01*
X202702400Y-77130940D01*
X202702401Y-77130940D01*
X202702402Y-77130941D01*
X202893580Y-77210130D01*
X203096530Y-77250499D01*
X203096534Y-77250500D01*
X203096535Y-77250500D01*
X203303466Y-77250500D01*
X203303467Y-77250499D01*
X203506420Y-77210130D01*
X203697598Y-77130941D01*
X203869655Y-77015977D01*
X204015977Y-76869655D01*
X204130941Y-76697598D01*
X204210130Y-76506420D01*
X204250500Y-76303465D01*
X204250500Y-76096535D01*
X204210130Y-75893580D01*
X204175517Y-75810017D01*
X204159228Y-75770691D01*
X221094500Y-75770691D01*
X221094500Y-75889309D01*
X221125201Y-76003886D01*
X221184511Y-76106613D01*
X221268387Y-76190489D01*
X221371114Y-76249799D01*
X221485691Y-76280500D01*
X221485694Y-76280500D01*
X221604306Y-76280500D01*
X221604309Y-76280500D01*
X221718886Y-76249799D01*
X221821613Y-76190489D01*
X221905489Y-76106613D01*
X221964799Y-76003886D01*
X221995500Y-75889309D01*
X221995500Y-75770691D01*
X221964799Y-75656114D01*
X221905489Y-75553387D01*
X221821613Y-75469511D01*
X221718886Y-75410201D01*
X221604309Y-75379500D01*
X221485691Y-75379500D01*
X221371114Y-75410201D01*
X221371112Y-75410201D01*
X221371112Y-75410202D01*
X221268387Y-75469511D01*
X221268384Y-75469513D01*
X221184513Y-75553384D01*
X221184511Y-75553387D01*
X221125201Y-75656114D01*
X221094500Y-75770691D01*
X204159228Y-75770691D01*
X204130942Y-75702403D01*
X204015975Y-75530342D01*
X203869657Y-75384024D01*
X203722635Y-75285788D01*
X203697598Y-75269059D01*
X203506420Y-75189870D01*
X203506412Y-75189868D01*
X203303469Y-75149500D01*
X203303465Y-75149500D01*
X203096535Y-75149500D01*
X203096530Y-75149500D01*
X202893587Y-75189868D01*
X202893579Y-75189870D01*
X202702401Y-75269059D01*
X202623389Y-75321852D01*
X202556712Y-75342729D01*
X202489332Y-75324244D01*
X202442642Y-75272264D01*
X202430500Y-75218749D01*
X202430500Y-74641250D01*
X202450185Y-74574211D01*
X202502989Y-74528456D01*
X202572147Y-74518512D01*
X202623390Y-74538148D01*
X202702400Y-74590940D01*
X202702401Y-74590940D01*
X202702402Y-74590941D01*
X202893580Y-74670130D01*
X203096530Y-74710499D01*
X203096534Y-74710500D01*
X203096535Y-74710500D01*
X203303466Y-74710500D01*
X203303467Y-74710499D01*
X203506420Y-74670130D01*
X203697598Y-74590941D01*
X203802735Y-74520691D01*
X206629500Y-74520691D01*
X206629500Y-74639309D01*
X206660201Y-74753886D01*
X206719511Y-74856613D01*
X206803387Y-74940489D01*
X206906114Y-74999799D01*
X207020691Y-75030500D01*
X207020694Y-75030500D01*
X207139306Y-75030500D01*
X207139309Y-75030500D01*
X207253886Y-74999799D01*
X207356613Y-74940489D01*
X207440489Y-74856613D01*
X207499799Y-74753886D01*
X207530500Y-74639309D01*
X207530500Y-74520691D01*
X224129500Y-74520691D01*
X224129500Y-74639309D01*
X224160201Y-74753886D01*
X224219511Y-74856613D01*
X224303387Y-74940489D01*
X224406114Y-74999799D01*
X224520691Y-75030500D01*
X224520694Y-75030500D01*
X224639306Y-75030500D01*
X224639309Y-75030500D01*
X224753886Y-74999799D01*
X224856613Y-74940489D01*
X224940489Y-74856613D01*
X224999799Y-74753886D01*
X225030500Y-74639309D01*
X225030500Y-74520691D01*
X224999799Y-74406114D01*
X224940489Y-74303387D01*
X224856613Y-74219511D01*
X224753886Y-74160201D01*
X224639309Y-74129500D01*
X224520691Y-74129500D01*
X224406114Y-74160201D01*
X224406112Y-74160201D01*
X224406112Y-74160202D01*
X224303387Y-74219511D01*
X224303384Y-74219513D01*
X224219513Y-74303384D01*
X224219511Y-74303387D01*
X224160201Y-74406114D01*
X224129500Y-74520691D01*
X207530500Y-74520691D01*
X207499799Y-74406114D01*
X207440489Y-74303387D01*
X207356613Y-74219511D01*
X207253886Y-74160201D01*
X207139309Y-74129500D01*
X207020691Y-74129500D01*
X206906114Y-74160201D01*
X206906112Y-74160201D01*
X206906112Y-74160202D01*
X206803387Y-74219511D01*
X206803384Y-74219513D01*
X206719513Y-74303384D01*
X206719511Y-74303387D01*
X206660201Y-74406114D01*
X206629500Y-74520691D01*
X203802735Y-74520691D01*
X203869655Y-74475977D01*
X203869658Y-74475974D01*
X203920750Y-74424883D01*
X204015974Y-74329658D01*
X204015975Y-74329657D01*
X204015977Y-74329655D01*
X204130941Y-74157598D01*
X204210130Y-73966420D01*
X204250500Y-73763465D01*
X204250500Y-73556535D01*
X204210130Y-73353580D01*
X204167512Y-73250691D01*
X206629500Y-73250691D01*
X206629500Y-73369309D01*
X206660201Y-73483886D01*
X206719511Y-73586613D01*
X206803387Y-73670489D01*
X206906114Y-73729799D01*
X207020691Y-73760500D01*
X207020694Y-73760500D01*
X207139306Y-73760500D01*
X207139309Y-73760500D01*
X207253886Y-73729799D01*
X207356613Y-73670489D01*
X207440489Y-73586613D01*
X207499799Y-73483886D01*
X207530500Y-73369309D01*
X207530500Y-73250691D01*
X207499799Y-73136114D01*
X207440489Y-73033387D01*
X207356613Y-72949511D01*
X207341336Y-72940691D01*
X209549500Y-72940691D01*
X209549500Y-73059309D01*
X209580201Y-73173886D01*
X209639511Y-73276613D01*
X209723387Y-73360489D01*
X209826114Y-73419799D01*
X209940691Y-73450500D01*
X209940694Y-73450500D01*
X210059306Y-73450500D01*
X210059309Y-73450500D01*
X210173886Y-73419799D01*
X210276613Y-73360489D01*
X210360489Y-73276613D01*
X210419799Y-73173886D01*
X210450500Y-73059309D01*
X210450500Y-72940691D01*
X212549500Y-72940691D01*
X212549500Y-73059309D01*
X212580201Y-73173886D01*
X212639511Y-73276613D01*
X212723387Y-73360489D01*
X212826114Y-73419799D01*
X212940691Y-73450500D01*
X212940694Y-73450500D01*
X213059306Y-73450500D01*
X213059309Y-73450500D01*
X213173886Y-73419799D01*
X213276613Y-73360489D01*
X213360489Y-73276613D01*
X213419799Y-73173886D01*
X213450500Y-73059309D01*
X213450500Y-72940691D01*
X215549500Y-72940691D01*
X215549500Y-73059309D01*
X215580201Y-73173886D01*
X215639511Y-73276613D01*
X215723387Y-73360489D01*
X215826114Y-73419799D01*
X215940691Y-73450500D01*
X215940694Y-73450500D01*
X216059306Y-73450500D01*
X216059309Y-73450500D01*
X216173886Y-73419799D01*
X216276613Y-73360489D01*
X216360489Y-73276613D01*
X216419799Y-73173886D01*
X216450500Y-73059309D01*
X216450500Y-72940691D01*
X218549500Y-72940691D01*
X218549500Y-73059309D01*
X218580201Y-73173886D01*
X218639511Y-73276613D01*
X218723387Y-73360489D01*
X218826114Y-73419799D01*
X218940691Y-73450500D01*
X218940694Y-73450500D01*
X219059306Y-73450500D01*
X219059309Y-73450500D01*
X219173886Y-73419799D01*
X219276613Y-73360489D01*
X219360489Y-73276613D01*
X219419799Y-73173886D01*
X219450500Y-73059309D01*
X219450500Y-72940691D01*
X221549500Y-72940691D01*
X221549500Y-73059309D01*
X221580201Y-73173886D01*
X221639511Y-73276613D01*
X221723387Y-73360489D01*
X221826114Y-73419799D01*
X221940691Y-73450500D01*
X221940694Y-73450500D01*
X222059306Y-73450500D01*
X222059309Y-73450500D01*
X222173886Y-73419799D01*
X222276613Y-73360489D01*
X222360489Y-73276613D01*
X222419799Y-73173886D01*
X222450500Y-73059309D01*
X222450500Y-72940691D01*
X222419799Y-72826114D01*
X222360489Y-72723387D01*
X222276613Y-72639511D01*
X222173886Y-72580201D01*
X222059309Y-72549500D01*
X221940691Y-72549500D01*
X221826114Y-72580201D01*
X221826112Y-72580201D01*
X221826112Y-72580202D01*
X221723387Y-72639511D01*
X221723384Y-72639513D01*
X221639513Y-72723384D01*
X221639511Y-72723387D01*
X221594420Y-72801487D01*
X221580201Y-72826114D01*
X221549500Y-72940691D01*
X219450500Y-72940691D01*
X219419799Y-72826114D01*
X219360489Y-72723387D01*
X219276613Y-72639511D01*
X219173886Y-72580201D01*
X219059309Y-72549500D01*
X218940691Y-72549500D01*
X218826114Y-72580201D01*
X218826112Y-72580201D01*
X218826112Y-72580202D01*
X218723387Y-72639511D01*
X218723384Y-72639513D01*
X218639513Y-72723384D01*
X218639511Y-72723387D01*
X218594420Y-72801487D01*
X218580201Y-72826114D01*
X218549500Y-72940691D01*
X216450500Y-72940691D01*
X216419799Y-72826114D01*
X216360489Y-72723387D01*
X216276613Y-72639511D01*
X216173886Y-72580201D01*
X216059309Y-72549500D01*
X215940691Y-72549500D01*
X215826114Y-72580201D01*
X215826112Y-72580201D01*
X215826112Y-72580202D01*
X215723387Y-72639511D01*
X215723384Y-72639513D01*
X215639513Y-72723384D01*
X215639511Y-72723387D01*
X215594420Y-72801487D01*
X215580201Y-72826114D01*
X215549500Y-72940691D01*
X213450500Y-72940691D01*
X213419799Y-72826114D01*
X213360489Y-72723387D01*
X213276613Y-72639511D01*
X213173886Y-72580201D01*
X213059309Y-72549500D01*
X212940691Y-72549500D01*
X212826114Y-72580201D01*
X212826112Y-72580201D01*
X212826112Y-72580202D01*
X212723387Y-72639511D01*
X212723384Y-72639513D01*
X212639513Y-72723384D01*
X212639511Y-72723387D01*
X212594420Y-72801487D01*
X212580201Y-72826114D01*
X212549500Y-72940691D01*
X210450500Y-72940691D01*
X210419799Y-72826114D01*
X210360489Y-72723387D01*
X210276613Y-72639511D01*
X210173886Y-72580201D01*
X210059309Y-72549500D01*
X209940691Y-72549500D01*
X209826114Y-72580201D01*
X209826112Y-72580201D01*
X209826112Y-72580202D01*
X209723387Y-72639511D01*
X209723384Y-72639513D01*
X209639513Y-72723384D01*
X209639511Y-72723387D01*
X209594420Y-72801487D01*
X209580201Y-72826114D01*
X209549500Y-72940691D01*
X207341336Y-72940691D01*
X207253886Y-72890201D01*
X207139309Y-72859500D01*
X207020691Y-72859500D01*
X206906114Y-72890201D01*
X206906112Y-72890201D01*
X206906112Y-72890202D01*
X206803387Y-72949511D01*
X206803384Y-72949513D01*
X206719513Y-73033384D01*
X206719511Y-73033387D01*
X206704547Y-73059306D01*
X206660201Y-73136114D01*
X206629500Y-73250691D01*
X204167512Y-73250691D01*
X204130941Y-73162402D01*
X204015977Y-72990345D01*
X204015975Y-72990342D01*
X203869657Y-72844024D01*
X203722635Y-72745788D01*
X203697598Y-72729059D01*
X203683897Y-72723384D01*
X203506420Y-72649870D01*
X203506412Y-72649868D01*
X203303469Y-72609500D01*
X203303465Y-72609500D01*
X203096535Y-72609500D01*
X203096530Y-72609500D01*
X202893587Y-72649868D01*
X202893579Y-72649870D01*
X202702401Y-72729059D01*
X202623389Y-72781852D01*
X202556712Y-72802729D01*
X202489332Y-72784244D01*
X202442642Y-72732264D01*
X202430500Y-72678749D01*
X202430500Y-72101250D01*
X202450185Y-72034211D01*
X202502989Y-71988456D01*
X202572147Y-71978512D01*
X202623390Y-71998148D01*
X202702400Y-72050940D01*
X202702401Y-72050940D01*
X202702402Y-72050941D01*
X202893580Y-72130130D01*
X203096530Y-72170499D01*
X203096534Y-72170500D01*
X203096535Y-72170500D01*
X203303466Y-72170500D01*
X203303467Y-72170499D01*
X203506420Y-72130130D01*
X203697598Y-72050941D01*
X203869655Y-71935977D01*
X204015977Y-71789655D01*
X204130941Y-71617598D01*
X204210130Y-71426420D01*
X204250500Y-71223465D01*
X204250500Y-71016535D01*
X204210130Y-70813580D01*
X204130941Y-70622402D01*
X204015977Y-70450345D01*
X204015975Y-70450342D01*
X203869657Y-70304024D01*
X203722635Y-70205788D01*
X203697598Y-70189059D01*
X203660967Y-70173886D01*
X203506420Y-70109870D01*
X203506412Y-70109868D01*
X203303469Y-70069500D01*
X203303465Y-70069500D01*
X203096535Y-70069500D01*
X203096530Y-70069500D01*
X202893587Y-70109868D01*
X202893579Y-70109870D01*
X202702401Y-70189059D01*
X202623389Y-70241852D01*
X202556712Y-70262729D01*
X202489332Y-70244244D01*
X202442642Y-70192264D01*
X202430500Y-70138749D01*
X202430500Y-69940691D01*
X209549500Y-69940691D01*
X209549500Y-70059309D01*
X209580201Y-70173886D01*
X209639511Y-70276613D01*
X209723387Y-70360489D01*
X209826114Y-70419799D01*
X209940691Y-70450500D01*
X209940694Y-70450500D01*
X210059306Y-70450500D01*
X210059309Y-70450500D01*
X210173886Y-70419799D01*
X210276613Y-70360489D01*
X210360489Y-70276613D01*
X210419799Y-70173886D01*
X210450500Y-70059309D01*
X210450500Y-69940691D01*
X212549500Y-69940691D01*
X212549500Y-70059309D01*
X212580201Y-70173886D01*
X212639511Y-70276613D01*
X212723387Y-70360489D01*
X212826114Y-70419799D01*
X212940691Y-70450500D01*
X212940694Y-70450500D01*
X213059306Y-70450500D01*
X213059309Y-70450500D01*
X213173886Y-70419799D01*
X213276613Y-70360489D01*
X213360489Y-70276613D01*
X213419799Y-70173886D01*
X213450500Y-70059309D01*
X213450500Y-69940691D01*
X215549500Y-69940691D01*
X215549500Y-70059309D01*
X215580201Y-70173886D01*
X215639511Y-70276613D01*
X215723387Y-70360489D01*
X215826114Y-70419799D01*
X215940691Y-70450500D01*
X215940694Y-70450500D01*
X216059306Y-70450500D01*
X216059309Y-70450500D01*
X216173886Y-70419799D01*
X216276613Y-70360489D01*
X216360489Y-70276613D01*
X216419799Y-70173886D01*
X216450500Y-70059309D01*
X216450500Y-69940691D01*
X218549500Y-69940691D01*
X218549500Y-70059309D01*
X218580201Y-70173886D01*
X218639511Y-70276613D01*
X218723387Y-70360489D01*
X218826114Y-70419799D01*
X218940691Y-70450500D01*
X218940694Y-70450500D01*
X219059306Y-70450500D01*
X219059309Y-70450500D01*
X219173886Y-70419799D01*
X219276613Y-70360489D01*
X219360489Y-70276613D01*
X219419799Y-70173886D01*
X219450500Y-70059309D01*
X219450500Y-69940691D01*
X221549500Y-69940691D01*
X221549500Y-70059309D01*
X221580201Y-70173886D01*
X221639511Y-70276613D01*
X221723387Y-70360489D01*
X221826114Y-70419799D01*
X221940691Y-70450500D01*
X221940694Y-70450500D01*
X222059306Y-70450500D01*
X222059309Y-70450500D01*
X222173886Y-70419799D01*
X222276613Y-70360489D01*
X222360489Y-70276613D01*
X222419799Y-70173886D01*
X222450500Y-70059309D01*
X222450500Y-69940691D01*
X222419799Y-69826114D01*
X222360489Y-69723387D01*
X222276613Y-69639511D01*
X222173886Y-69580201D01*
X222059309Y-69549500D01*
X221940691Y-69549500D01*
X221826114Y-69580201D01*
X221826112Y-69580201D01*
X221826112Y-69580202D01*
X221723387Y-69639511D01*
X221723384Y-69639513D01*
X221639513Y-69723384D01*
X221639511Y-69723387D01*
X221580201Y-69826114D01*
X221549500Y-69940691D01*
X219450500Y-69940691D01*
X219419799Y-69826114D01*
X219360489Y-69723387D01*
X219276613Y-69639511D01*
X219173886Y-69580201D01*
X219059309Y-69549500D01*
X218940691Y-69549500D01*
X218826114Y-69580201D01*
X218826112Y-69580201D01*
X218826112Y-69580202D01*
X218723387Y-69639511D01*
X218723384Y-69639513D01*
X218639513Y-69723384D01*
X218639511Y-69723387D01*
X218580201Y-69826114D01*
X218549500Y-69940691D01*
X216450500Y-69940691D01*
X216419799Y-69826114D01*
X216360489Y-69723387D01*
X216276613Y-69639511D01*
X216173886Y-69580201D01*
X216059309Y-69549500D01*
X215940691Y-69549500D01*
X215826114Y-69580201D01*
X215826112Y-69580201D01*
X215826112Y-69580202D01*
X215723387Y-69639511D01*
X215723384Y-69639513D01*
X215639513Y-69723384D01*
X215639511Y-69723387D01*
X215580201Y-69826114D01*
X215549500Y-69940691D01*
X213450500Y-69940691D01*
X213419799Y-69826114D01*
X213360489Y-69723387D01*
X213276613Y-69639511D01*
X213173886Y-69580201D01*
X213059309Y-69549500D01*
X212940691Y-69549500D01*
X212826114Y-69580201D01*
X212826112Y-69580201D01*
X212826112Y-69580202D01*
X212723387Y-69639511D01*
X212723384Y-69639513D01*
X212639513Y-69723384D01*
X212639511Y-69723387D01*
X212580201Y-69826114D01*
X212549500Y-69940691D01*
X210450500Y-69940691D01*
X210419799Y-69826114D01*
X210360489Y-69723387D01*
X210276613Y-69639511D01*
X210173886Y-69580201D01*
X210059309Y-69549500D01*
X209940691Y-69549500D01*
X209826114Y-69580201D01*
X209826112Y-69580201D01*
X209826112Y-69580202D01*
X209723387Y-69639511D01*
X209723384Y-69639513D01*
X209639513Y-69723384D01*
X209639511Y-69723387D01*
X209580201Y-69826114D01*
X209549500Y-69940691D01*
X202430500Y-69940691D01*
X202430500Y-69561250D01*
X202450185Y-69494211D01*
X202502989Y-69448456D01*
X202572147Y-69438512D01*
X202623390Y-69458148D01*
X202702400Y-69510940D01*
X202702401Y-69510940D01*
X202702402Y-69510941D01*
X202893580Y-69590130D01*
X203096530Y-69630499D01*
X203096534Y-69630500D01*
X203096535Y-69630500D01*
X203303466Y-69630500D01*
X203303467Y-69630499D01*
X203506420Y-69590130D01*
X203697598Y-69510941D01*
X203869655Y-69395977D01*
X204015977Y-69249655D01*
X204130941Y-69077598D01*
X204210130Y-68886420D01*
X204250500Y-68683465D01*
X204250500Y-68476535D01*
X204210130Y-68273580D01*
X204130941Y-68082402D01*
X204015977Y-67910345D01*
X204015975Y-67910342D01*
X203869657Y-67764024D01*
X203722635Y-67665788D01*
X203697598Y-67649059D01*
X203506420Y-67569870D01*
X203506412Y-67569868D01*
X203303469Y-67529500D01*
X203303465Y-67529500D01*
X203096535Y-67529500D01*
X203096530Y-67529500D01*
X202893587Y-67569868D01*
X202893579Y-67569870D01*
X202702401Y-67649059D01*
X202623389Y-67701852D01*
X202556712Y-67722729D01*
X202489332Y-67704244D01*
X202442642Y-67652264D01*
X202430500Y-67598749D01*
X202430500Y-67021250D01*
X202450185Y-66954211D01*
X202502989Y-66908456D01*
X202572147Y-66898512D01*
X202623390Y-66918148D01*
X202702400Y-66970940D01*
X202702401Y-66970940D01*
X202702402Y-66970941D01*
X202893580Y-67050130D01*
X203092010Y-67089600D01*
X203096530Y-67090499D01*
X203096534Y-67090500D01*
X203096535Y-67090500D01*
X203303466Y-67090500D01*
X203303467Y-67090499D01*
X203506420Y-67050130D01*
X203697598Y-66970941D01*
X203742871Y-66940691D01*
X209549500Y-66940691D01*
X209549500Y-67059309D01*
X209580201Y-67173886D01*
X209639511Y-67276613D01*
X209723387Y-67360489D01*
X209826114Y-67419799D01*
X209940691Y-67450500D01*
X209940694Y-67450500D01*
X210059306Y-67450500D01*
X210059309Y-67450500D01*
X210173886Y-67419799D01*
X210276613Y-67360489D01*
X210360489Y-67276613D01*
X210419799Y-67173886D01*
X210450500Y-67059309D01*
X210450500Y-66940691D01*
X210419799Y-66826114D01*
X210360489Y-66723387D01*
X210276613Y-66639511D01*
X210173886Y-66580201D01*
X210059309Y-66549500D01*
X209940691Y-66549500D01*
X209826114Y-66580201D01*
X209826112Y-66580201D01*
X209826112Y-66580202D01*
X209723387Y-66639511D01*
X209723384Y-66639513D01*
X209639513Y-66723384D01*
X209639511Y-66723387D01*
X209607504Y-66778825D01*
X209580201Y-66826114D01*
X209549500Y-66940691D01*
X203742871Y-66940691D01*
X203869655Y-66855977D01*
X203869658Y-66855974D01*
X203880750Y-66844883D01*
X204015974Y-66709658D01*
X204015975Y-66709657D01*
X204015977Y-66709655D01*
X204130941Y-66537598D01*
X204210130Y-66346420D01*
X204250500Y-66143465D01*
X204250500Y-65936535D01*
X204210130Y-65733580D01*
X204130941Y-65542402D01*
X204015977Y-65370345D01*
X204015975Y-65370342D01*
X203869657Y-65224024D01*
X203767689Y-65155892D01*
X203697598Y-65109059D01*
X203697599Y-65109059D01*
X203697597Y-65109058D01*
X203506420Y-65029870D01*
X203506412Y-65029868D01*
X203477455Y-65024108D01*
X212429500Y-65024108D01*
X212429500Y-65155891D01*
X212463608Y-65283187D01*
X212467253Y-65289500D01*
X212529500Y-65397314D01*
X212622686Y-65490500D01*
X212736814Y-65556392D01*
X212864108Y-65590500D01*
X212864110Y-65590500D01*
X213004019Y-65590500D01*
X213004019Y-65593600D01*
X213006421Y-65593974D01*
X213023371Y-65591537D01*
X213040227Y-65599235D01*
X213058540Y-65602085D01*
X213071351Y-65613448D01*
X213086927Y-65620562D01*
X213096945Y-65636150D01*
X213110810Y-65648449D01*
X213115630Y-65665226D01*
X213124701Y-65679340D01*
X213126559Y-65703260D01*
X213129724Y-65714275D01*
X213129724Y-65723272D01*
X213129500Y-65724108D01*
X213129500Y-65855892D01*
X213129724Y-65856727D01*
X213129724Y-65865724D01*
X213122074Y-65891774D01*
X213117883Y-65918604D01*
X213112375Y-65924806D01*
X213110039Y-65932763D01*
X213089522Y-65950540D01*
X213071489Y-65970848D01*
X213063501Y-65973088D01*
X213057235Y-65978518D01*
X213030362Y-65982381D01*
X213004215Y-65989715D01*
X213001208Y-65989500D01*
X212995892Y-65989500D01*
X212864108Y-65989500D01*
X212736812Y-66023608D01*
X212622686Y-66089500D01*
X212622683Y-66089502D01*
X212529502Y-66182683D01*
X212529500Y-66182686D01*
X212463608Y-66296812D01*
X212429500Y-66424108D01*
X212429500Y-66555891D01*
X212463608Y-66683187D01*
X212486816Y-66723384D01*
X212529500Y-66797314D01*
X212622686Y-66890500D01*
X212736814Y-66956392D01*
X212864108Y-66990500D01*
X212864110Y-66990500D01*
X213004019Y-66990500D01*
X213004019Y-66993600D01*
X213058540Y-67002085D01*
X213110810Y-67048449D01*
X213129716Y-67115712D01*
X213129500Y-67118745D01*
X213129500Y-67255891D01*
X213163608Y-67383187D01*
X213196554Y-67440250D01*
X213229500Y-67497314D01*
X213322686Y-67590500D01*
X213436814Y-67656392D01*
X213564108Y-67690500D01*
X213564110Y-67690500D01*
X213695890Y-67690500D01*
X213695892Y-67690500D01*
X213823186Y-67656392D01*
X213937314Y-67590500D01*
X214030500Y-67497314D01*
X214096392Y-67383186D01*
X214130500Y-67255892D01*
X214130500Y-67124108D01*
X214130500Y-67115981D01*
X214133599Y-67115981D01*
X214133973Y-67113574D01*
X214131537Y-67096628D01*
X214139237Y-67079766D01*
X214142089Y-67061451D01*
X214153450Y-67048644D01*
X214160562Y-67033072D01*
X214176155Y-67023051D01*
X214188457Y-67009184D01*
X214205231Y-67004364D01*
X214219340Y-66995298D01*
X214243224Y-66993449D01*
X214254275Y-66990275D01*
X214263268Y-66990275D01*
X214264108Y-66990500D01*
X214395892Y-66990500D01*
X214396732Y-66990275D01*
X214405724Y-66990275D01*
X214431740Y-66997914D01*
X214458540Y-67002085D01*
X214464773Y-67007613D01*
X214472763Y-67009960D01*
X214490516Y-67030448D01*
X214510810Y-67048449D01*
X214513064Y-67056470D01*
X214518518Y-67062764D01*
X214522376Y-67089600D01*
X214529716Y-67115712D01*
X214529500Y-67118745D01*
X214529500Y-67255891D01*
X214563608Y-67383187D01*
X214596554Y-67440250D01*
X214629500Y-67497314D01*
X214722686Y-67590500D01*
X214836814Y-67656392D01*
X214964108Y-67690500D01*
X214964110Y-67690500D01*
X215095890Y-67690500D01*
X215095892Y-67690500D01*
X215223186Y-67656392D01*
X215337314Y-67590500D01*
X215430500Y-67497314D01*
X215496392Y-67383186D01*
X215530500Y-67255892D01*
X215530500Y-67124108D01*
X215530500Y-67115981D01*
X215533599Y-67115981D01*
X215542089Y-67061451D01*
X215588457Y-67009184D01*
X215655722Y-66990283D01*
X215658754Y-66990500D01*
X215664108Y-66990500D01*
X215795890Y-66990500D01*
X215795892Y-66990500D01*
X215923186Y-66956392D01*
X215950381Y-66940691D01*
X218549500Y-66940691D01*
X218549500Y-67059309D01*
X218580201Y-67173886D01*
X218639511Y-67276613D01*
X218723387Y-67360489D01*
X218826114Y-67419799D01*
X218940691Y-67450500D01*
X218940694Y-67450500D01*
X219059306Y-67450500D01*
X219059309Y-67450500D01*
X219173886Y-67419799D01*
X219276613Y-67360489D01*
X219360489Y-67276613D01*
X219419799Y-67173886D01*
X219450500Y-67059309D01*
X219450500Y-66940691D01*
X221549500Y-66940691D01*
X221549500Y-67059309D01*
X221580201Y-67173886D01*
X221639511Y-67276613D01*
X221723387Y-67360489D01*
X221826114Y-67419799D01*
X221940691Y-67450500D01*
X221940694Y-67450500D01*
X222059306Y-67450500D01*
X222059309Y-67450500D01*
X222173886Y-67419799D01*
X222276613Y-67360489D01*
X222360489Y-67276613D01*
X222419799Y-67173886D01*
X222450500Y-67059309D01*
X222450500Y-66940691D01*
X222419799Y-66826114D01*
X222360489Y-66723387D01*
X222276613Y-66639511D01*
X222173886Y-66580201D01*
X222059309Y-66549500D01*
X221940691Y-66549500D01*
X221826114Y-66580201D01*
X221826112Y-66580201D01*
X221826112Y-66580202D01*
X221723387Y-66639511D01*
X221723384Y-66639513D01*
X221639513Y-66723384D01*
X221639511Y-66723387D01*
X221607504Y-66778825D01*
X221580201Y-66826114D01*
X221549500Y-66940691D01*
X219450500Y-66940691D01*
X219419799Y-66826114D01*
X219360489Y-66723387D01*
X219276613Y-66639511D01*
X219173886Y-66580201D01*
X219059309Y-66549500D01*
X218940691Y-66549500D01*
X218826114Y-66580201D01*
X218826112Y-66580201D01*
X218826112Y-66580202D01*
X218723387Y-66639511D01*
X218723384Y-66639513D01*
X218639513Y-66723384D01*
X218639511Y-66723387D01*
X218607504Y-66778825D01*
X218580201Y-66826114D01*
X218549500Y-66940691D01*
X215950381Y-66940691D01*
X216037314Y-66890500D01*
X216130500Y-66797314D01*
X216196392Y-66683186D01*
X216230500Y-66555892D01*
X216230500Y-66424108D01*
X216196392Y-66296814D01*
X216130500Y-66182686D01*
X216037314Y-66089500D01*
X215980250Y-66056554D01*
X215923187Y-66023608D01*
X215859539Y-66006554D01*
X215795892Y-65989500D01*
X215664108Y-65989500D01*
X215655981Y-65989500D01*
X215655981Y-65986412D01*
X215653537Y-65986030D01*
X215636628Y-65988462D01*
X215619734Y-65980746D01*
X215601386Y-65977879D01*
X215588612Y-65966534D01*
X215573072Y-65959437D01*
X215563031Y-65943813D01*
X215549146Y-65931481D01*
X215544337Y-65914724D01*
X215535298Y-65900659D01*
X215533452Y-65876794D01*
X215530275Y-65865724D01*
X215530275Y-65856731D01*
X215530500Y-65855892D01*
X215530500Y-65724108D01*
X215530275Y-65723268D01*
X215530275Y-65714275D01*
X215537916Y-65688252D01*
X215542089Y-65661451D01*
X215547615Y-65655221D01*
X215549960Y-65647236D01*
X215570452Y-65629479D01*
X215588457Y-65609184D01*
X215596474Y-65606931D01*
X215602764Y-65601481D01*
X215629605Y-65597621D01*
X215655722Y-65590283D01*
X215658754Y-65590500D01*
X215664108Y-65590500D01*
X215795890Y-65590500D01*
X215795892Y-65590500D01*
X215923186Y-65556392D01*
X216037314Y-65490500D01*
X216130500Y-65397314D01*
X216196392Y-65283186D01*
X216230500Y-65155892D01*
X216230500Y-65024108D01*
X216196392Y-64896814D01*
X216130500Y-64782686D01*
X216037314Y-64689500D01*
X215980250Y-64656554D01*
X215923187Y-64623608D01*
X215859539Y-64606554D01*
X215795892Y-64589500D01*
X215664108Y-64589500D01*
X215655981Y-64589500D01*
X215655981Y-64586412D01*
X215601386Y-64577879D01*
X215549146Y-64531481D01*
X215530284Y-64464206D01*
X215530500Y-64461201D01*
X215530500Y-64324110D01*
X215530500Y-64324108D01*
X215496392Y-64196814D01*
X215430500Y-64082686D01*
X215337314Y-63989500D01*
X215252775Y-63940691D01*
X218549500Y-63940691D01*
X218549500Y-64059309D01*
X218580201Y-64173886D01*
X218639511Y-64276613D01*
X218723387Y-64360489D01*
X218826114Y-64419799D01*
X218940691Y-64450500D01*
X218940694Y-64450500D01*
X219059306Y-64450500D01*
X219059309Y-64450500D01*
X219173886Y-64419799D01*
X219276613Y-64360489D01*
X219360489Y-64276613D01*
X219419799Y-64173886D01*
X219450500Y-64059309D01*
X219450500Y-63940691D01*
X221549500Y-63940691D01*
X221549500Y-64059309D01*
X221580201Y-64173886D01*
X221639511Y-64276613D01*
X221723387Y-64360489D01*
X221826114Y-64419799D01*
X221940691Y-64450500D01*
X221940694Y-64450500D01*
X222059306Y-64450500D01*
X222059309Y-64450500D01*
X222173886Y-64419799D01*
X222276613Y-64360489D01*
X222360489Y-64276613D01*
X222419799Y-64173886D01*
X222450500Y-64059309D01*
X222450500Y-63940691D01*
X222419799Y-63826114D01*
X222360489Y-63723387D01*
X222276613Y-63639511D01*
X222173886Y-63580201D01*
X222059309Y-63549500D01*
X221940691Y-63549500D01*
X221826114Y-63580201D01*
X221826112Y-63580201D01*
X221826112Y-63580202D01*
X221723387Y-63639511D01*
X221723384Y-63639513D01*
X221639513Y-63723384D01*
X221639511Y-63723387D01*
X221580201Y-63826114D01*
X221549500Y-63940691D01*
X219450500Y-63940691D01*
X219419799Y-63826114D01*
X219360489Y-63723387D01*
X219276613Y-63639511D01*
X219173886Y-63580201D01*
X219059309Y-63549500D01*
X218940691Y-63549500D01*
X218826114Y-63580201D01*
X218826112Y-63580201D01*
X218826112Y-63580202D01*
X218723387Y-63639511D01*
X218723384Y-63639513D01*
X218639513Y-63723384D01*
X218639511Y-63723387D01*
X218580201Y-63826114D01*
X218549500Y-63940691D01*
X215252775Y-63940691D01*
X215223187Y-63923608D01*
X215159539Y-63906554D01*
X215095892Y-63889500D01*
X214964108Y-63889500D01*
X214836812Y-63923608D01*
X214722686Y-63989500D01*
X214722683Y-63989502D01*
X214629502Y-64082683D01*
X214629500Y-64082686D01*
X214563608Y-64196812D01*
X214529500Y-64324108D01*
X214529500Y-64464019D01*
X214526411Y-64464019D01*
X214526030Y-64466457D01*
X214528462Y-64483371D01*
X214520748Y-64500260D01*
X214517883Y-64518604D01*
X214506536Y-64531381D01*
X214499437Y-64546927D01*
X214483817Y-64556964D01*
X214471489Y-64570848D01*
X214454729Y-64575658D01*
X214440659Y-64584701D01*
X214416758Y-64586556D01*
X214405724Y-64589724D01*
X214396728Y-64589724D01*
X214395892Y-64589500D01*
X214264108Y-64589500D01*
X214263272Y-64589724D01*
X214254275Y-64589724D01*
X214228219Y-64582073D01*
X214201386Y-64577879D01*
X214195187Y-64572373D01*
X214187236Y-64570039D01*
X214169455Y-64549519D01*
X214149146Y-64531481D01*
X214146907Y-64523497D01*
X214141481Y-64517235D01*
X214137616Y-64490359D01*
X214130284Y-64464206D01*
X214130500Y-64461201D01*
X214130500Y-64324110D01*
X214130500Y-64324108D01*
X214096392Y-64196814D01*
X214030500Y-64082686D01*
X213937314Y-63989500D01*
X213852775Y-63940691D01*
X213823187Y-63923608D01*
X213759539Y-63906554D01*
X213695892Y-63889500D01*
X213564108Y-63889500D01*
X213436812Y-63923608D01*
X213322686Y-63989500D01*
X213322683Y-63989502D01*
X213229502Y-64082683D01*
X213229500Y-64082686D01*
X213163608Y-64196812D01*
X213129500Y-64324108D01*
X213129500Y-64464019D01*
X213126411Y-64464019D01*
X213117883Y-64518604D01*
X213071489Y-64570848D01*
X213004215Y-64589715D01*
X213001208Y-64589500D01*
X212995892Y-64589500D01*
X212864108Y-64589500D01*
X212736812Y-64623608D01*
X212622686Y-64689500D01*
X212622683Y-64689502D01*
X212529502Y-64782683D01*
X212529500Y-64782686D01*
X212463608Y-64896812D01*
X212429500Y-65024108D01*
X203477455Y-65024108D01*
X203303469Y-64989500D01*
X203303465Y-64989500D01*
X203096535Y-64989500D01*
X203096530Y-64989500D01*
X202893587Y-65029868D01*
X202893579Y-65029870D01*
X202702401Y-65109059D01*
X202623389Y-65161852D01*
X202556712Y-65182729D01*
X202489332Y-65164244D01*
X202442642Y-65112264D01*
X202430500Y-65058749D01*
X202430500Y-64481250D01*
X202450185Y-64414211D01*
X202502989Y-64368456D01*
X202572147Y-64358512D01*
X202623390Y-64378148D01*
X202702400Y-64430940D01*
X202702401Y-64430940D01*
X202702402Y-64430941D01*
X202893580Y-64510130D01*
X203078572Y-64546927D01*
X203096530Y-64550499D01*
X203096534Y-64550500D01*
X203096535Y-64550500D01*
X203303466Y-64550500D01*
X203303467Y-64550499D01*
X203506420Y-64510130D01*
X203697598Y-64430941D01*
X203869655Y-64315977D01*
X204015977Y-64169655D01*
X204130941Y-63997598D01*
X204134295Y-63989502D01*
X204154513Y-63940691D01*
X209549500Y-63940691D01*
X209549500Y-64059309D01*
X209580201Y-64173886D01*
X209639511Y-64276613D01*
X209723387Y-64360489D01*
X209826114Y-64419799D01*
X209940691Y-64450500D01*
X209940694Y-64450500D01*
X210059306Y-64450500D01*
X210059309Y-64450500D01*
X210173886Y-64419799D01*
X210276613Y-64360489D01*
X210360489Y-64276613D01*
X210419799Y-64173886D01*
X210450500Y-64059309D01*
X210450500Y-63940691D01*
X210419799Y-63826114D01*
X210360489Y-63723387D01*
X210276613Y-63639511D01*
X210173886Y-63580201D01*
X210059309Y-63549500D01*
X209940691Y-63549500D01*
X209826114Y-63580201D01*
X209826112Y-63580201D01*
X209826112Y-63580202D01*
X209723387Y-63639511D01*
X209723384Y-63639513D01*
X209639513Y-63723384D01*
X209639511Y-63723387D01*
X209580201Y-63826114D01*
X209549500Y-63940691D01*
X204154513Y-63940691D01*
X204177535Y-63885111D01*
X204201973Y-63826112D01*
X204210130Y-63806420D01*
X204250500Y-63603465D01*
X204250500Y-63396535D01*
X204210130Y-63193580D01*
X204167512Y-63090691D01*
X224129500Y-63090691D01*
X224129500Y-63209309D01*
X224160201Y-63323886D01*
X224219511Y-63426613D01*
X224303387Y-63510489D01*
X224406114Y-63569799D01*
X224520691Y-63600500D01*
X224520694Y-63600500D01*
X224639306Y-63600500D01*
X224639309Y-63600500D01*
X224753886Y-63569799D01*
X224856613Y-63510489D01*
X224940489Y-63426613D01*
X224999799Y-63323886D01*
X225030500Y-63209309D01*
X225030500Y-63090691D01*
X224999799Y-62976114D01*
X224940489Y-62873387D01*
X224856613Y-62789511D01*
X224753886Y-62730201D01*
X224639309Y-62699500D01*
X224520691Y-62699500D01*
X224406114Y-62730201D01*
X224406112Y-62730201D01*
X224406112Y-62730202D01*
X224303387Y-62789511D01*
X224303384Y-62789513D01*
X224219513Y-62873384D01*
X224219511Y-62873387D01*
X224160201Y-62976114D01*
X224129500Y-63090691D01*
X204167512Y-63090691D01*
X204130941Y-63002402D01*
X204015977Y-62830345D01*
X204015975Y-62830342D01*
X203869657Y-62684024D01*
X203722635Y-62585788D01*
X203697598Y-62569059D01*
X203506420Y-62489870D01*
X203506412Y-62489868D01*
X203303469Y-62449500D01*
X203303465Y-62449500D01*
X203096535Y-62449500D01*
X203096530Y-62449500D01*
X202893587Y-62489868D01*
X202893579Y-62489870D01*
X202702401Y-62569059D01*
X202623389Y-62621852D01*
X202556712Y-62642729D01*
X202489332Y-62624244D01*
X202442642Y-62572264D01*
X202430500Y-62518749D01*
X202430500Y-61940649D01*
X202450185Y-61873610D01*
X202502989Y-61827855D01*
X202572147Y-61817911D01*
X202623391Y-61837547D01*
X202702631Y-61890494D01*
X202702641Y-61890499D01*
X202893725Y-61969649D01*
X202893733Y-61969651D01*
X203096579Y-62009999D01*
X203096583Y-62010000D01*
X203303417Y-62010000D01*
X203303420Y-62009999D01*
X203506266Y-61969651D01*
X203506274Y-61969649D01*
X203697366Y-61890495D01*
X203745066Y-61858621D01*
X203745067Y-61858620D01*
X203707138Y-61820691D01*
X224129500Y-61820691D01*
X224129500Y-61939309D01*
X224160201Y-62053886D01*
X224219511Y-62156613D01*
X224303387Y-62240489D01*
X224406114Y-62299799D01*
X224520691Y-62330500D01*
X224520694Y-62330500D01*
X224639306Y-62330500D01*
X224639309Y-62330500D01*
X224753886Y-62299799D01*
X224856613Y-62240489D01*
X224940489Y-62156613D01*
X224999799Y-62053886D01*
X225030500Y-61939309D01*
X225030500Y-61820691D01*
X224999799Y-61706114D01*
X224940489Y-61603387D01*
X224856613Y-61519511D01*
X224753886Y-61460201D01*
X224639309Y-61429500D01*
X224520691Y-61429500D01*
X224406114Y-61460201D01*
X224406112Y-61460201D01*
X224406112Y-61460202D01*
X224303387Y-61519511D01*
X224303384Y-61519513D01*
X224219513Y-61603384D01*
X224219511Y-61603387D01*
X224160201Y-61706114D01*
X224129500Y-61820691D01*
X203707138Y-61820691D01*
X203329409Y-61442962D01*
X203392993Y-61425925D01*
X203507007Y-61360099D01*
X203600099Y-61267007D01*
X203665925Y-61152993D01*
X203682962Y-61089408D01*
X204098620Y-61505067D01*
X204098621Y-61505066D01*
X204130495Y-61457366D01*
X204209649Y-61266274D01*
X204209651Y-61266266D01*
X204249999Y-61063420D01*
X204250000Y-61063417D01*
X204250000Y-60856583D01*
X204249999Y-60856579D01*
X204209651Y-60653733D01*
X204209648Y-60653721D01*
X204183261Y-60590016D01*
X204166972Y-60550691D01*
X206629500Y-60550691D01*
X206629500Y-60669309D01*
X206660201Y-60783886D01*
X206719511Y-60886613D01*
X206803387Y-60970489D01*
X206906114Y-61029799D01*
X207020691Y-61060500D01*
X207020694Y-61060500D01*
X207139306Y-61060500D01*
X207139309Y-61060500D01*
X207253886Y-61029799D01*
X207356613Y-60970489D01*
X207386411Y-60940691D01*
X209549500Y-60940691D01*
X209549500Y-61059309D01*
X209580201Y-61173886D01*
X209639511Y-61276613D01*
X209723387Y-61360489D01*
X209826114Y-61419799D01*
X209940691Y-61450500D01*
X209940694Y-61450500D01*
X210059306Y-61450500D01*
X210059309Y-61450500D01*
X210173886Y-61419799D01*
X210276613Y-61360489D01*
X210360489Y-61276613D01*
X210419799Y-61173886D01*
X210450500Y-61059309D01*
X210450500Y-60940691D01*
X212549500Y-60940691D01*
X212549500Y-61059309D01*
X212580201Y-61173886D01*
X212639511Y-61276613D01*
X212723387Y-61360489D01*
X212826114Y-61419799D01*
X212940691Y-61450500D01*
X212940694Y-61450500D01*
X213059306Y-61450500D01*
X213059309Y-61450500D01*
X213173886Y-61419799D01*
X213276613Y-61360489D01*
X213360489Y-61276613D01*
X213419799Y-61173886D01*
X213450500Y-61059309D01*
X213450500Y-60940691D01*
X215549500Y-60940691D01*
X215549500Y-61059309D01*
X215580201Y-61173886D01*
X215639511Y-61276613D01*
X215723387Y-61360489D01*
X215826114Y-61419799D01*
X215940691Y-61450500D01*
X215940694Y-61450500D01*
X216059306Y-61450500D01*
X216059309Y-61450500D01*
X216173886Y-61419799D01*
X216276613Y-61360489D01*
X216360489Y-61276613D01*
X216419799Y-61173886D01*
X216450500Y-61059309D01*
X216450500Y-60940691D01*
X218549500Y-60940691D01*
X218549500Y-61059309D01*
X218580201Y-61173886D01*
X218639511Y-61276613D01*
X218723387Y-61360489D01*
X218826114Y-61419799D01*
X218940691Y-61450500D01*
X218940694Y-61450500D01*
X219059306Y-61450500D01*
X219059309Y-61450500D01*
X219173886Y-61419799D01*
X219276613Y-61360489D01*
X219360489Y-61276613D01*
X219419799Y-61173886D01*
X219450500Y-61059309D01*
X219450500Y-60940691D01*
X221549500Y-60940691D01*
X221549500Y-61059309D01*
X221580201Y-61173886D01*
X221639511Y-61276613D01*
X221723387Y-61360489D01*
X221826114Y-61419799D01*
X221940691Y-61450500D01*
X221940694Y-61450500D01*
X222059306Y-61450500D01*
X222059309Y-61450500D01*
X222173886Y-61419799D01*
X222276613Y-61360489D01*
X222360489Y-61276613D01*
X222419799Y-61173886D01*
X222450500Y-61059309D01*
X222450500Y-60940691D01*
X222419799Y-60826114D01*
X222360489Y-60723387D01*
X222276613Y-60639511D01*
X222173886Y-60580201D01*
X222059309Y-60549500D01*
X221940691Y-60549500D01*
X221826114Y-60580201D01*
X221826112Y-60580201D01*
X221826112Y-60580202D01*
X221723387Y-60639511D01*
X221723384Y-60639513D01*
X221639513Y-60723384D01*
X221639511Y-60723387D01*
X221604582Y-60783886D01*
X221580201Y-60826114D01*
X221549500Y-60940691D01*
X219450500Y-60940691D01*
X219419799Y-60826114D01*
X219360489Y-60723387D01*
X219276613Y-60639511D01*
X219173886Y-60580201D01*
X219059309Y-60549500D01*
X218940691Y-60549500D01*
X218826114Y-60580201D01*
X218826112Y-60580201D01*
X218826112Y-60580202D01*
X218723387Y-60639511D01*
X218723384Y-60639513D01*
X218639513Y-60723384D01*
X218639511Y-60723387D01*
X218604582Y-60783886D01*
X218580201Y-60826114D01*
X218549500Y-60940691D01*
X216450500Y-60940691D01*
X216419799Y-60826114D01*
X216360489Y-60723387D01*
X216276613Y-60639511D01*
X216173886Y-60580201D01*
X216059309Y-60549500D01*
X215940691Y-60549500D01*
X215826114Y-60580201D01*
X215826112Y-60580201D01*
X215826112Y-60580202D01*
X215723387Y-60639511D01*
X215723384Y-60639513D01*
X215639513Y-60723384D01*
X215639511Y-60723387D01*
X215604582Y-60783886D01*
X215580201Y-60826114D01*
X215549500Y-60940691D01*
X213450500Y-60940691D01*
X213419799Y-60826114D01*
X213360489Y-60723387D01*
X213276613Y-60639511D01*
X213173886Y-60580201D01*
X213059309Y-60549500D01*
X212940691Y-60549500D01*
X212826114Y-60580201D01*
X212826112Y-60580201D01*
X212826112Y-60580202D01*
X212723387Y-60639511D01*
X212723384Y-60639513D01*
X212639513Y-60723384D01*
X212639511Y-60723387D01*
X212604582Y-60783886D01*
X212580201Y-60826114D01*
X212549500Y-60940691D01*
X210450500Y-60940691D01*
X210419799Y-60826114D01*
X210360489Y-60723387D01*
X210276613Y-60639511D01*
X210173886Y-60580201D01*
X210059309Y-60549500D01*
X209940691Y-60549500D01*
X209826114Y-60580201D01*
X209826112Y-60580201D01*
X209826112Y-60580202D01*
X209723387Y-60639511D01*
X209723384Y-60639513D01*
X209639513Y-60723384D01*
X209639511Y-60723387D01*
X209604582Y-60783886D01*
X209580201Y-60826114D01*
X209549500Y-60940691D01*
X207386411Y-60940691D01*
X207440489Y-60886613D01*
X207499799Y-60783886D01*
X207530500Y-60669309D01*
X207530500Y-60550691D01*
X207499799Y-60436114D01*
X207440489Y-60333387D01*
X207356613Y-60249511D01*
X207253886Y-60190201D01*
X207139309Y-60159500D01*
X207020691Y-60159500D01*
X206906114Y-60190201D01*
X206906112Y-60190201D01*
X206906112Y-60190202D01*
X206803387Y-60249511D01*
X206803384Y-60249513D01*
X206719513Y-60333384D01*
X206719511Y-60333387D01*
X206672431Y-60414932D01*
X206660201Y-60436114D01*
X206629500Y-60550691D01*
X204166972Y-60550691D01*
X204130498Y-60462639D01*
X204130495Y-60462633D01*
X204098621Y-60414932D01*
X204098620Y-60414931D01*
X203682962Y-60830590D01*
X203665925Y-60767007D01*
X203600099Y-60652993D01*
X203507007Y-60559901D01*
X203392993Y-60494075D01*
X203329407Y-60477036D01*
X203745067Y-60061377D01*
X203697359Y-60029500D01*
X203506274Y-59950350D01*
X203506266Y-59950348D01*
X203303420Y-59910000D01*
X203096579Y-59910000D01*
X202893733Y-59950348D01*
X202893725Y-59950350D01*
X202702641Y-60029500D01*
X202702633Y-60029504D01*
X202623390Y-60082453D01*
X202556713Y-60103330D01*
X202489333Y-60084845D01*
X202442643Y-60032866D01*
X202430500Y-59979350D01*
X202430500Y-59594500D01*
X202450185Y-59527461D01*
X202502989Y-59481706D01*
X202554500Y-59470500D01*
X204069750Y-59470500D01*
X204069751Y-59470499D01*
X204084568Y-59467552D01*
X204128229Y-59458868D01*
X204128229Y-59458867D01*
X204128231Y-59458867D01*
X204194552Y-59414552D01*
X204238867Y-59348231D01*
X204238867Y-59348229D01*
X204238868Y-59348229D01*
X204250499Y-59289752D01*
X204250500Y-59289750D01*
X204250500Y-57774500D01*
X204270185Y-57707461D01*
X204322989Y-57661706D01*
X204374500Y-57650500D01*
X205074592Y-57650500D01*
X205141631Y-57670185D01*
G37*
%TD.AperFunction*%
%TD*%
M02*
