%TF.GenerationSoftware,KiCad,Pcbnew,9.0.5*%
%TF.CreationDate,2025-10-31T18:05:50+09:00*%
%TF.ProjectId,ESP32S3,45535033-3253-4332-9e6b-696361645f70,rev?*%
%TF.SameCoordinates,Original*%
%TF.FileFunction,Copper,L1,Top*%
%TF.FilePolarity,Positive*%
%FSLAX46Y46*%
G04 Gerber Fmt 4.6, Leading zero omitted, Abs format (unit mm)*
G04 Created by KiCad (PCBNEW 9.0.5) date 2025-10-31 18:05:50*
%MOMM*%
%LPD*%
G01*
G04 APERTURE LIST*
G04 Aperture macros list*
%AMRoundRect*
0 Rectangle with rounded corners*
0 $1 Rounding radius*
0 $2 $3 $4 $5 $6 $7 $8 $9 X,Y pos of 4 corners*
0 Add a 4 corners polygon primitive as box body*
4,1,4,$2,$3,$4,$5,$6,$7,$8,$9,$2,$3,0*
0 Add four circle primitives for the rounded corners*
1,1,$1+$1,$2,$3*
1,1,$1+$1,$4,$5*
1,1,$1+$1,$6,$7*
1,1,$1+$1,$8,$9*
0 Add four rect primitives between the rounded corners*
20,1,$1+$1,$2,$3,$4,$5,0*
20,1,$1+$1,$4,$5,$6,$7,0*
20,1,$1+$1,$6,$7,$8,$9,0*
20,1,$1+$1,$8,$9,$2,$3,0*%
%AMFreePoly0*
4,1,23,0.500000,-0.750000,0.000000,-0.750000,0.000000,-0.745722,-0.065263,-0.745722,-0.191342,-0.711940,-0.304381,-0.646677,-0.396677,-0.554381,-0.461940,-0.441342,-0.495722,-0.315263,-0.495722,-0.250000,-0.500000,-0.250000,-0.500000,0.250000,-0.495722,0.250000,-0.495722,0.315263,-0.461940,0.441342,-0.396677,0.554381,-0.304381,0.646677,-0.191342,0.711940,-0.065263,0.745722,0.000000,0.745722,
0.000000,0.750000,0.500000,0.750000,0.500000,-0.750000,0.500000,-0.750000,$1*%
%AMFreePoly1*
4,1,23,0.000000,0.745722,0.065263,0.745722,0.191342,0.711940,0.304381,0.646677,0.396677,0.554381,0.461940,0.441342,0.495722,0.315263,0.495722,0.250000,0.500000,0.250000,0.500000,-0.250000,0.495722,-0.250000,0.495722,-0.315263,0.461940,-0.441342,0.396677,-0.554381,0.304381,-0.646677,0.191342,-0.711940,0.065263,-0.745722,0.000000,-0.745722,0.000000,-0.750000,-0.500000,-0.750000,
-0.500000,0.750000,0.000000,0.750000,0.000000,0.745722,0.000000,0.745722,$1*%
G04 Aperture macros list end*
%TA.AperFunction,ComponentPad*%
%ADD10R,1.700000X1.700000*%
%TD*%
%TA.AperFunction,ComponentPad*%
%ADD11C,1.700000*%
%TD*%
%TA.AperFunction,SMDPad,CuDef*%
%ADD12RoundRect,0.150000X-0.687500X-0.150000X0.687500X-0.150000X0.687500X0.150000X-0.687500X0.150000X0*%
%TD*%
%TA.AperFunction,HeatsinkPad*%
%ADD13R,2.100000X3.300000*%
%TD*%
%TA.AperFunction,SMDPad,CuDef*%
%ADD14RoundRect,0.225000X0.225000X0.250000X-0.225000X0.250000X-0.225000X-0.250000X0.225000X-0.250000X0*%
%TD*%
%TA.AperFunction,SMDPad,CuDef*%
%ADD15RoundRect,0.150000X-0.150000X-0.425000X0.150000X-0.425000X0.150000X0.425000X-0.150000X0.425000X0*%
%TD*%
%TA.AperFunction,SMDPad,CuDef*%
%ADD16RoundRect,0.075000X-0.075000X-0.500000X0.075000X-0.500000X0.075000X0.500000X-0.075000X0.500000X0*%
%TD*%
%TA.AperFunction,HeatsinkPad*%
%ADD17O,1.000000X2.100000*%
%TD*%
%TA.AperFunction,HeatsinkPad*%
%ADD18O,1.000000X1.800000*%
%TD*%
%TA.AperFunction,SMDPad,CuDef*%
%ADD19RoundRect,0.200000X0.200000X0.275000X-0.200000X0.275000X-0.200000X-0.275000X0.200000X-0.275000X0*%
%TD*%
%TA.AperFunction,SMDPad,CuDef*%
%ADD20RoundRect,0.150000X0.150000X-0.875000X0.150000X0.875000X-0.150000X0.875000X-0.150000X-0.875000X0*%
%TD*%
%TA.AperFunction,SMDPad,CuDef*%
%ADD21RoundRect,0.225000X0.250000X-0.225000X0.250000X0.225000X-0.250000X0.225000X-0.250000X-0.225000X0*%
%TD*%
%TA.AperFunction,SMDPad,CuDef*%
%ADD22R,1.500000X0.900000*%
%TD*%
%TA.AperFunction,SMDPad,CuDef*%
%ADD23R,0.900000X1.500000*%
%TD*%
%TA.AperFunction,HeatsinkPad*%
%ADD24C,0.600000*%
%TD*%
%TA.AperFunction,HeatsinkPad*%
%ADD25R,3.900000X3.900000*%
%TD*%
%TA.AperFunction,SMDPad,CuDef*%
%ADD26FreePoly0,90.000000*%
%TD*%
%TA.AperFunction,SMDPad,CuDef*%
%ADD27FreePoly1,90.000000*%
%TD*%
%TA.AperFunction,SMDPad,CuDef*%
%ADD28RoundRect,0.225000X-0.225000X-0.250000X0.225000X-0.250000X0.225000X0.250000X-0.225000X0.250000X0*%
%TD*%
%TA.AperFunction,SMDPad,CuDef*%
%ADD29RoundRect,0.237500X0.287500X0.237500X-0.287500X0.237500X-0.287500X-0.237500X0.287500X-0.237500X0*%
%TD*%
%TA.AperFunction,SMDPad,CuDef*%
%ADD30R,1.050000X0.650000*%
%TD*%
%TA.AperFunction,SMDPad,CuDef*%
%ADD31RoundRect,0.225000X-0.250000X0.225000X-0.250000X-0.225000X0.250000X-0.225000X0.250000X0.225000X0*%
%TD*%
%TA.AperFunction,SMDPad,CuDef*%
%ADD32R,0.650000X1.050000*%
%TD*%
%TA.AperFunction,SMDPad,CuDef*%
%ADD33RoundRect,0.237500X-0.287500X-0.237500X0.287500X-0.237500X0.287500X0.237500X-0.287500X0.237500X0*%
%TD*%
%TA.AperFunction,SMDPad,CuDef*%
%ADD34RoundRect,0.237500X-0.237500X0.287500X-0.237500X-0.287500X0.237500X-0.287500X0.237500X0.287500X0*%
%TD*%
%TA.AperFunction,SMDPad,CuDef*%
%ADD35RoundRect,0.090000X0.660000X0.360000X-0.660000X0.360000X-0.660000X-0.360000X0.660000X-0.360000X0*%
%TD*%
%TA.AperFunction,SMDPad,CuDef*%
%ADD36RoundRect,0.175000X-0.175000X-0.425000X0.175000X-0.425000X0.175000X0.425000X-0.175000X0.425000X0*%
%TD*%
%TA.AperFunction,SMDPad,CuDef*%
%ADD37RoundRect,0.190000X0.190000X0.410000X-0.190000X0.410000X-0.190000X-0.410000X0.190000X-0.410000X0*%
%TD*%
%TA.AperFunction,SMDPad,CuDef*%
%ADD38RoundRect,0.200000X0.200000X0.400000X-0.200000X0.400000X-0.200000X-0.400000X0.200000X-0.400000X0*%
%TD*%
%TA.AperFunction,SMDPad,CuDef*%
%ADD39RoundRect,0.175000X0.175000X0.425000X-0.175000X0.425000X-0.175000X-0.425000X0.175000X-0.425000X0*%
%TD*%
%TA.AperFunction,SMDPad,CuDef*%
%ADD40RoundRect,0.190000X-0.190000X-0.410000X0.190000X-0.410000X0.190000X0.410000X-0.190000X0.410000X0*%
%TD*%
%TA.AperFunction,SMDPad,CuDef*%
%ADD41RoundRect,0.200000X-0.200000X-0.400000X0.200000X-0.400000X0.200000X0.400000X-0.200000X0.400000X0*%
%TD*%
%TA.AperFunction,HeatsinkPad*%
%ADD42O,1.100000X1.700000*%
%TD*%
%TA.AperFunction,SMDPad,CuDef*%
%ADD43R,1.250000X0.650000*%
%TD*%
%TA.AperFunction,ViaPad*%
%ADD44C,0.500000*%
%TD*%
%TA.AperFunction,Conductor*%
%ADD45C,0.600000*%
%TD*%
%TA.AperFunction,Conductor*%
%ADD46C,0.200000*%
%TD*%
G04 APERTURE END LIST*
D10*
%TO.P,J4,1,Pin_1*%
%TO.N,GND*%
X228600000Y-58420000D03*
D11*
%TO.P,J4,2,Pin_2*%
%TO.N,+5V*%
X228600000Y-60960000D03*
%TO.P,J4,3,Pin_3*%
%TO.N,/IO1*%
X228600000Y-63500000D03*
%TO.P,J4,4,Pin_4*%
%TO.N,/IO2*%
X228600000Y-66040000D03*
%TO.P,J4,5,Pin_5*%
%TO.N,/IO42*%
X228600000Y-68580000D03*
%TO.P,J4,6,Pin_6*%
%TO.N,/IO41*%
X228600000Y-71120000D03*
%TO.P,J4,7,Pin_7*%
%TO.N,/IO40*%
X228600000Y-73660000D03*
%TO.P,J4,8,Pin_8*%
%TO.N,/IO39*%
X228600000Y-76200000D03*
%TO.P,J4,9,Pin_9*%
%TO.N,/IO38*%
X228600000Y-78740000D03*
%TO.P,J4,10,Pin_10*%
%TO.N,/IO37*%
X228600000Y-81280000D03*
%TO.P,J4,11,Pin_11*%
%TO.N,/IO36*%
X228600000Y-83820000D03*
%TO.P,J4,12,Pin_12*%
%TO.N,/IO35*%
X228600000Y-86360000D03*
%TO.P,J4,13,Pin_13*%
%TO.N,IO0*%
X228600000Y-88900000D03*
%TO.P,J4,14,Pin_14*%
%TO.N,/IO45*%
X228600000Y-91440000D03*
%TO.P,J4,15,Pin_15*%
%TO.N,/IO47*%
X228600000Y-93980000D03*
%TO.P,J4,16,Pin_16*%
%TO.N,/IO21*%
X228600000Y-96520000D03*
%TO.P,J4,17,Pin_17*%
%TO.N,/IO14*%
X228600000Y-99060000D03*
%TO.P,J4,18,Pin_18*%
%TO.N,/IO13*%
X228600000Y-101600000D03*
%TD*%
D12*
%TO.P,U2,1,UD+*%
%TO.N,UD+*%
X218562500Y-90000000D03*
%TO.P,U2,2,UD-*%
%TO.N,UD-*%
X218562500Y-91000000D03*
%TO.P,U2,3,GND*%
%TO.N,GND*%
X218562500Y-92000000D03*
%TO.P,U2,4,~{DTR}*%
%TO.N,DTR#*%
X218562500Y-93000000D03*
%TO.P,U2,5,~{CTS}*%
%TO.N,unconnected-(U2-~{CTS}-Pad5)*%
X218562500Y-94000000D03*
%TO.P,U2,6,~{RTS}*%
%TO.N,RTS#*%
X223837500Y-94000000D03*
%TO.P,U2,7,VCC*%
%TO.N,+5V*%
X223837500Y-93000000D03*
%TO.P,U2,8,TXD*%
%TO.N,Rx*%
X223837500Y-92000000D03*
%TO.P,U2,9,RXD*%
%TO.N,Tx*%
X223837500Y-91000000D03*
%TO.P,U2,10,V3*%
%TO.N,Net-(U2-V3)*%
X223837500Y-90000000D03*
D13*
%TO.P,U2,11,GND*%
%TO.N,GND*%
X221200000Y-92000000D03*
%TD*%
D14*
%TO.P,C9,1*%
%TO.N,GND*%
X210775000Y-85800000D03*
%TO.P,C9,2*%
%TO.N,EN*%
X209225000Y-85800000D03*
%TD*%
D15*
%TO.P,J1,A1,GND*%
%TO.N,GNDPWR*%
X205070000Y-106930000D03*
%TO.P,J1,A4,VBUS*%
%TO.N,VBUS*%
X205870000Y-106930000D03*
D16*
%TO.P,J1,A5,CC1*%
%TO.N,Net-(J1-CC1)*%
X207020000Y-106930000D03*
%TO.P,J1,A6,D+*%
%TO.N,Net-(J1-D+-PadA6)*%
X208020000Y-106930000D03*
%TO.P,J1,A7,D-*%
%TO.N,Net-(J1-D--PadA7)*%
X208520000Y-106930000D03*
%TO.P,J1,A8,SBU1*%
%TO.N,unconnected-(J1-SBU1-PadA8)*%
X209520000Y-106930000D03*
D15*
%TO.P,J1,A9,VBUS*%
%TO.N,VBUS*%
X210670000Y-106930000D03*
%TO.P,J1,A12,GND*%
%TO.N,GNDPWR*%
X211470000Y-106930000D03*
%TO.P,J1,B1,GND*%
X211470000Y-106930000D03*
%TO.P,J1,B4,VBUS*%
%TO.N,VBUS*%
X210670000Y-106930000D03*
D16*
%TO.P,J1,B5,CC2*%
%TO.N,Net-(J1-CC2)*%
X210020000Y-106930000D03*
%TO.P,J1,B6,D+*%
%TO.N,Net-(J1-D+-PadA6)*%
X209020000Y-106930000D03*
%TO.P,J1,B7,D-*%
%TO.N,Net-(J1-D--PadA7)*%
X207520000Y-106930000D03*
%TO.P,J1,B8,SBU2*%
%TO.N,unconnected-(J1-SBU2-PadB8)*%
X206520000Y-106930000D03*
D15*
%TO.P,J1,B9,VBUS*%
%TO.N,VBUS*%
X205870000Y-106930000D03*
%TO.P,J1,B12,GND*%
%TO.N,GNDPWR*%
X205070000Y-106930000D03*
D17*
%TO.P,J1,S1,SHIELD*%
X203950000Y-107505000D03*
D18*
X203950000Y-111685000D03*
D17*
X212590000Y-107505000D03*
D18*
X212590000Y-111685000D03*
%TD*%
D10*
%TO.P,J3,1,Pin_1*%
%TO.N,GND*%
X203200000Y-58420000D03*
D11*
%TO.P,J3,2,Pin_2*%
%TO.N,+3V3*%
X203200000Y-60960000D03*
%TO.P,J3,3,Pin_3*%
%TO.N,EN*%
X203200000Y-63500000D03*
%TO.P,J3,4,Pin_4*%
%TO.N,/IO4*%
X203200000Y-66040000D03*
%TO.P,J3,5,Pin_5*%
%TO.N,/IO5*%
X203200000Y-68580000D03*
%TO.P,J3,6,Pin_6*%
%TO.N,/IO6*%
X203200000Y-71120000D03*
%TO.P,J3,7,Pin_7*%
%TO.N,/IO7*%
X203200000Y-73660000D03*
%TO.P,J3,8,Pin_8*%
%TO.N,/IO15*%
X203200000Y-76200000D03*
%TO.P,J3,9,Pin_9*%
%TO.N,/IO16*%
X203200000Y-78740000D03*
%TO.P,J3,10,Pin_10*%
%TO.N,/IO17*%
X203200000Y-81280000D03*
%TO.P,J3,11,Pin_11*%
%TO.N,/IO18*%
X203200000Y-83820000D03*
%TO.P,J3,12,Pin_12*%
%TO.N,/IO8*%
X203200000Y-86360000D03*
%TO.P,J3,13,Pin_13*%
%TO.N,/IO3*%
X203200000Y-88900000D03*
%TO.P,J3,14,Pin_14*%
%TO.N,/IO46*%
X203200000Y-91440000D03*
%TO.P,J3,15,Pin_15*%
%TO.N,/IO9*%
X203200000Y-93980000D03*
%TO.P,J3,16,Pin_16*%
%TO.N,/IO10*%
X203200000Y-96520000D03*
%TO.P,J3,17,Pin_17*%
%TO.N,/IO11*%
X203200000Y-99060000D03*
%TO.P,J3,18,Pin_18*%
%TO.N,/IO12*%
X203200000Y-101600000D03*
%TD*%
D19*
%TO.P,R11,1*%
%TO.N,d+*%
X213225000Y-89500000D03*
%TO.P,R11,2*%
%TO.N,DD+*%
X211575000Y-89500000D03*
%TD*%
D20*
%TO.P,U3,1,VBUS1*%
%TO.N,VBUS*%
X207240000Y-103150000D03*
%TO.P,U3,2,GND1*%
%TO.N,GNDPWR*%
X208510000Y-103150000D03*
%TO.P,U3,3,VDD1*%
%TO.N,Net-(U3-VDD1)*%
X209780000Y-103150000D03*
%TO.P,U3,4,PDEN*%
%TO.N,Net-(U3-PDEN)*%
X211050000Y-103150000D03*
%TO.P,U3,5,SPU*%
%TO.N,Net-(U3-SPU)*%
X212320000Y-103150000D03*
%TO.P,U3,6,UD-*%
%TO.N,Net-(JP1-A)*%
X213590000Y-103150000D03*
%TO.P,U3,7,UD+*%
%TO.N,Net-(JP2-A)*%
X214860000Y-103150000D03*
%TO.P,U3,8,GND1*%
%TO.N,GNDPWR*%
X216130000Y-103150000D03*
%TO.P,U3,9,GND2*%
%TO.N,GND*%
X216130000Y-93850000D03*
%TO.P,U3,10,DD+*%
%TO.N,d+*%
X214860000Y-93850000D03*
%TO.P,U3,11,DD-*%
%TO.N,d-*%
X213590000Y-93850000D03*
%TO.P,U3,12,PIN*%
%TO.N,Net-(U3-PIN)*%
X212320000Y-93850000D03*
%TO.P,U3,13,SPD*%
%TO.N,Net-(U3-SPD)*%
X211050000Y-93850000D03*
%TO.P,U3,14,VDD2*%
%TO.N,Net-(U3-VDD2)*%
X209780000Y-93850000D03*
%TO.P,U3,15,GND2*%
%TO.N,GND*%
X208510000Y-93850000D03*
%TO.P,U3,16,VBUS2*%
%TO.N,+5V*%
X207240000Y-93850000D03*
%TD*%
D21*
%TO.P,C4,1*%
%TO.N,GND*%
X218400000Y-104800000D03*
%TO.P,C4,2*%
%TO.N,+5V*%
X218400000Y-103250000D03*
%TD*%
D14*
%TO.P,C10,1*%
%TO.N,GND*%
X215305000Y-85750000D03*
%TO.P,C10,2*%
%TO.N,IO0*%
X213755000Y-85750000D03*
%TD*%
D22*
%TO.P,U4,1,GND*%
%TO.N,GND*%
X207080000Y-58070000D03*
%TO.P,U4,2,3V3*%
%TO.N,+3V3*%
X207080000Y-59340000D03*
%TO.P,U4,3,EN*%
%TO.N,EN*%
X207080000Y-60610000D03*
%TO.P,U4,4,IO4*%
%TO.N,/IO4*%
X207080000Y-61880000D03*
%TO.P,U4,5,IO5*%
%TO.N,/IO5*%
X207080000Y-63150000D03*
%TO.P,U4,6,IO6*%
%TO.N,/IO6*%
X207080000Y-64420000D03*
%TO.P,U4,7,IO7*%
%TO.N,/IO7*%
X207080000Y-65690000D03*
%TO.P,U4,8,IO15*%
%TO.N,/IO15*%
X207080000Y-66960000D03*
%TO.P,U4,9,IO16*%
%TO.N,/IO16*%
X207080000Y-68230000D03*
%TO.P,U4,10,IO17*%
%TO.N,/IO17*%
X207080000Y-69500000D03*
%TO.P,U4,11,IO18*%
%TO.N,/IO18*%
X207080000Y-70770000D03*
%TO.P,U4,12,IO8*%
%TO.N,/IO8*%
X207080000Y-72040000D03*
%TO.P,U4,13,USB_D-*%
%TO.N,D-*%
X207080000Y-73310000D03*
%TO.P,U4,14,USB_D+*%
%TO.N,D+*%
X207080000Y-74580000D03*
D23*
%TO.P,U4,15,IO3*%
%TO.N,/IO3*%
X208845000Y-75830000D03*
%TO.P,U4,16,IO46*%
%TO.N,/IO46*%
X210115000Y-75830000D03*
%TO.P,U4,17,IO9*%
%TO.N,/IO9*%
X211385000Y-75830000D03*
%TO.P,U4,18,IO10*%
%TO.N,/IO10*%
X212655000Y-75830000D03*
%TO.P,U4,19,IO11*%
%TO.N,/IO11*%
X213925000Y-75830000D03*
%TO.P,U4,20,IO12*%
%TO.N,/IO12*%
X215195000Y-75830000D03*
%TO.P,U4,21,IO13*%
%TO.N,/IO13*%
X216465000Y-75830000D03*
%TO.P,U4,22,IO14*%
%TO.N,/IO14*%
X217735000Y-75830000D03*
%TO.P,U4,23,IO21*%
%TO.N,/IO21*%
X219005000Y-75830000D03*
%TO.P,U4,24,IO47*%
%TO.N,/IO47*%
X220275000Y-75830000D03*
%TO.P,U4,25,IO48*%
%TO.N,Net-(D4-DIN)*%
X221545000Y-75830000D03*
%TO.P,U4,26,IO45*%
%TO.N,/IO45*%
X222815000Y-75830000D03*
D22*
%TO.P,U4,27,IO0*%
%TO.N,IO0*%
X224580000Y-74580000D03*
%TO.P,U4,28,IO35*%
%TO.N,/IO35*%
X224580000Y-73310000D03*
%TO.P,U4,29,IO36*%
%TO.N,/IO36*%
X224580000Y-72040000D03*
%TO.P,U4,30,IO37*%
%TO.N,/IO37*%
X224580000Y-70770000D03*
%TO.P,U4,31,IO38*%
%TO.N,/IO38*%
X224580000Y-69500000D03*
%TO.P,U4,32,IO39*%
%TO.N,/IO39*%
X224580000Y-68230000D03*
%TO.P,U4,33,IO40*%
%TO.N,/IO40*%
X224580000Y-66960000D03*
%TO.P,U4,34,IO41*%
%TO.N,/IO41*%
X224580000Y-65690000D03*
%TO.P,U4,35,IO42*%
%TO.N,/IO42*%
X224580000Y-64420000D03*
%TO.P,U4,36,RXD0*%
%TO.N,Rx*%
X224580000Y-63150000D03*
%TO.P,U4,37,TXD0*%
%TO.N,Tx*%
X224580000Y-61880000D03*
%TO.P,U4,38,IO2*%
%TO.N,/IO2*%
X224580000Y-60610000D03*
%TO.P,U4,39,IO1*%
%TO.N,/IO1*%
X224580000Y-59340000D03*
%TO.P,U4,40,GND*%
%TO.N,GND*%
X224580000Y-58070000D03*
D24*
%TO.P,U4,41,GND*%
X212930000Y-65090000D03*
X212930000Y-66490000D03*
X213630000Y-64390000D03*
X213630000Y-65790000D03*
X213630000Y-67190000D03*
X214330000Y-65090000D03*
D25*
X214330000Y-65790000D03*
D24*
X214330000Y-66490000D03*
X215030000Y-64390000D03*
X215030000Y-65790000D03*
X215030000Y-67190000D03*
X215730000Y-65090000D03*
X215730000Y-66490000D03*
%TD*%
D26*
%TO.P,JP1,1,A*%
%TO.N,Net-(JP1-A)*%
X213000000Y-99150000D03*
D27*
%TO.P,JP1,2,B*%
%TO.N,d-*%
X213000000Y-97850000D03*
%TD*%
D28*
%TO.P,C6,1*%
%TO.N,GND*%
X208350000Y-90500000D03*
%TO.P,C6,2*%
%TO.N,+5V*%
X209900000Y-90500000D03*
%TD*%
D29*
%TO.P,D1,1,K*%
%TO.N,GND*%
X220200000Y-101200000D03*
%TO.P,D1,2,A*%
%TO.N,Net-(D1-A)*%
X218450000Y-101200000D03*
%TD*%
D30*
%TO.P,SW3,1,1*%
%TO.N,ck*%
X220325000Y-95525000D03*
%TO.P,SW3,2,2*%
X224475000Y-95525000D03*
%TO.P,SW3,3,K*%
%TO.N,GND*%
X220325000Y-97675000D03*
%TO.P,SW3,4,A*%
X224475000Y-97675000D03*
%TD*%
D26*
%TO.P,JP2,1,A*%
%TO.N,Net-(JP2-A)*%
X215500000Y-99150000D03*
D27*
%TO.P,JP2,2,B*%
%TO.N,d+*%
X215500000Y-97850000D03*
%TD*%
D19*
%TO.P,R12,1*%
%TO.N,d-*%
X213225000Y-91600000D03*
%TO.P,R12,2*%
%TO.N,DD-*%
X211575000Y-91600000D03*
%TD*%
D31*
%TO.P,C8,1*%
%TO.N,+3V3*%
X224850000Y-103225000D03*
%TO.P,C8,2*%
%TO.N,GND*%
X224850000Y-104775000D03*
%TD*%
D32*
%TO.P,SW2,1,1*%
%TO.N,IO0*%
X213425000Y-84075000D03*
%TO.P,SW2,2,2*%
X213425000Y-79925000D03*
%TO.P,SW2,3,K*%
%TO.N,GND*%
X215575000Y-84075000D03*
%TO.P,SW2,4,A*%
X215575000Y-79925000D03*
%TD*%
D33*
%TO.P,D2,1,K*%
%TO.N,GND*%
X223037500Y-101200000D03*
%TO.P,D2,2,A*%
%TO.N,Net-(D2-A)*%
X224787500Y-101200000D03*
%TD*%
D34*
%TO.P,D3,1,K*%
%TO.N,GND*%
X218600000Y-96925000D03*
%TO.P,D3,2,A*%
%TO.N,Net-(D3-A)*%
X218600000Y-98675000D03*
%TD*%
D28*
%TO.P,C3,1*%
%TO.N,GNDPWR*%
X204320000Y-104810000D03*
%TO.P,C3,2*%
%TO.N,VBUS*%
X205870000Y-104810000D03*
%TD*%
D35*
%TO.P,D4,1,VDD*%
%TO.N,+5V*%
X222950000Y-83650000D03*
%TO.P,D4,2,DOUT*%
%TO.N,unconnected-(D4-DOUT-Pad2)*%
X222950000Y-80350000D03*
%TO.P,D4,3,VSS*%
%TO.N,GND*%
X218050000Y-80350000D03*
%TO.P,D4,4,DIN*%
%TO.N,Net-(D4-DIN)*%
X218050000Y-83650000D03*
%TD*%
D36*
%TO.P,J2,A5,CC1*%
%TO.N,Net-(J2-CC1)*%
X223030000Y-107810000D03*
D37*
%TO.P,J2,A9,VBUS*%
%TO.N,+5V*%
X225050000Y-107810000D03*
D38*
%TO.P,J2,A12,GND*%
%TO.N,GND*%
X226280000Y-107810000D03*
D39*
%TO.P,J2,B5,CC2*%
%TO.N,Net-(J2-CC2)*%
X224030000Y-107810000D03*
D40*
%TO.P,J2,B9,VBUS*%
%TO.N,+5V*%
X222010000Y-107810000D03*
D41*
%TO.P,J2,B12,GND*%
%TO.N,GND*%
X220780000Y-107810000D03*
D42*
%TO.P,J2,S1,SHIELD*%
X219210000Y-107890000D03*
X219210000Y-111690000D03*
X227850000Y-107890000D03*
X227850000Y-111690000D03*
%TD*%
D32*
%TO.P,SW1,1,1*%
%TO.N,EN*%
X208925000Y-84075000D03*
%TO.P,SW1,2,2*%
X208925000Y-79925000D03*
%TO.P,SW1,3,K*%
%TO.N,GND*%
X211075000Y-84075000D03*
%TO.P,SW1,4,A*%
X211075000Y-79925000D03*
%TD*%
D43*
%TO.P,IC1,1,VIN*%
%TO.N,+5V*%
X220350000Y-103060000D03*
%TO.P,IC1,2,GND*%
%TO.N,GND*%
X220350000Y-104000000D03*
%TO.P,IC1,3,EN*%
%TO.N,+5V*%
X220350000Y-104940000D03*
%TO.P,IC1,4,SNS/NC*%
%TO.N,unconnected-(IC1-SNS{slash}NC-Pad4)*%
X222850000Y-104940000D03*
%TO.P,IC1,5,VOUT*%
%TO.N,+3V3*%
X222850000Y-103060000D03*
%TD*%
D44*
%TO.N,GNDPWR*%
X208510000Y-103150000D03*
X211470000Y-106930000D03*
X205070000Y-106930000D03*
X216130000Y-103150000D03*
X206000000Y-112000000D03*
X211000000Y-112000000D03*
%TO.N,+5V*%
X223000000Y-93000000D03*
X222010000Y-107810000D03*
X222950000Y-83650000D03*
X207240000Y-93850000D03*
X220350000Y-104940000D03*
X220350000Y-103060000D03*
X209900000Y-90500000D03*
X225050000Y-107810000D03*
X223375000Y-95300000D03*
%TO.N,GND*%
X211075000Y-84075000D03*
X216000000Y-70000000D03*
X207080000Y-58070000D03*
X215000000Y-82000000D03*
X222000000Y-61000000D03*
X213000000Y-70000000D03*
X207000000Y-100000000D03*
X217500000Y-108500000D03*
X210000000Y-64000000D03*
X211000000Y-82000000D03*
X219000000Y-64000000D03*
X210000000Y-73000000D03*
X219000000Y-67000000D03*
X222000000Y-70000000D03*
X207000000Y-98000000D03*
X216000000Y-58000000D03*
X213000000Y-73000000D03*
X216000000Y-73000000D03*
X215000000Y-108500000D03*
X218562500Y-92000000D03*
X205400000Y-58250000D03*
X213000000Y-61000000D03*
X219000000Y-73000000D03*
X222000000Y-73000000D03*
X210000000Y-70000000D03*
X214200000Y-96600000D03*
X210000000Y-61000000D03*
X210000000Y-58000000D03*
X221000000Y-112000000D03*
X215000000Y-111000000D03*
X223000000Y-82000000D03*
X226000000Y-112000000D03*
X207000000Y-96000000D03*
X217500000Y-111000000D03*
X222000000Y-67000000D03*
X220780000Y-107810000D03*
X213000000Y-58000000D03*
X222000000Y-64000000D03*
X215575000Y-84075000D03*
X222000000Y-58000000D03*
X215575000Y-79925000D03*
X226280000Y-107810000D03*
X219000000Y-58000000D03*
X214110000Y-90520000D03*
X210000000Y-67000000D03*
X224580000Y-58070000D03*
X221000000Y-84000000D03*
X219000000Y-70000000D03*
X216000000Y-61000000D03*
X219000000Y-61000000D03*
X221200000Y-92000000D03*
X220000000Y-80000000D03*
%TO.N,+3V3*%
X207080000Y-59340000D03*
X205400000Y-59800000D03*
X208730000Y-60610000D03*
X222850000Y-103060000D03*
%TO.N,EN*%
X208925000Y-79900000D03*
X208925000Y-84075000D03*
X207080000Y-60610000D03*
%TO.N,DTR#*%
X210775000Y-83150000D03*
X218600000Y-93000000D03*
%TO.N,Net-(D2-A)*%
X224787500Y-101200000D03*
%TO.N,Net-(J1-CC1)*%
X207020000Y-109175000D03*
%TO.N,Net-(JP2-A)*%
X214860000Y-103150000D03*
%TO.N,Net-(J1-CC2)*%
X210020000Y-109175000D03*
%TO.N,Net-(JP1-A)*%
X213590000Y-103150000D03*
%TO.N,DD-*%
X211575000Y-91600000D03*
%TO.N,DD+*%
X211570231Y-89464833D03*
%TO.N,D+*%
X207080000Y-74580000D03*
%TO.N,D-*%
X207080000Y-73310000D03*
%TO.N,Rx*%
X224580000Y-63150000D03*
X223837500Y-92000000D03*
%TO.N,Tx*%
X224580000Y-61880000D03*
X223837500Y-91000000D03*
%TO.N,UD+*%
X216064829Y-89999999D03*
%TO.N,UD-*%
X216064829Y-90999999D03*
%TO.N,Net-(D3-A)*%
X218600000Y-98712500D03*
%TO.N,Net-(J1-D+-PadA6)*%
X209020000Y-106200000D03*
%TO.N,Net-(J1-D--PadA7)*%
X207520000Y-106200000D03*
%TO.N,IO0*%
X224580000Y-74580000D03*
X213400000Y-84100000D03*
X213425000Y-80000000D03*
X213755000Y-85750000D03*
%TO.N,RTS#*%
X215275000Y-83150000D03*
X211526492Y-84979475D03*
%TO.N,Net-(U3-VDD1)*%
X209595000Y-101760000D03*
%TO.N,Net-(U2-V3)*%
X223000000Y-90000000D03*
%TO.N,Net-(U3-VDD2)*%
X209575000Y-93880000D03*
%TO.N,ck*%
X224475000Y-95525000D03*
%TO.N,Net-(D1-A)*%
X218425000Y-101200000D03*
%TO.N,Net-(D4-DIN)*%
X221545000Y-75830000D03*
X218050000Y-83650000D03*
%TO.N,Net-(J2-CC1)*%
X223030000Y-107810000D03*
%TO.N,Net-(J2-CC2)*%
X224030000Y-107810000D03*
%TO.N,Net-(U3-PDEN)*%
X211245000Y-101760000D03*
%TO.N,Net-(U3-SPU)*%
X211245000Y-100120000D03*
%TO.N,Net-(U3-PIN)*%
X211225000Y-95700000D03*
%TO.N,Net-(U3-SPD)*%
X211225000Y-93880000D03*
%TD*%
D45*
%TO.N,+5V*%
X220350000Y-103060000D02*
X218590000Y-103060000D01*
X218590000Y-103060000D02*
X218400000Y-103250000D01*
%TO.N,+3V3*%
X224685000Y-103060000D02*
X224850000Y-103225000D01*
X222850000Y-103060000D02*
X224685000Y-103060000D01*
D46*
%TO.N,EN*%
X207080000Y-60610000D02*
X206090000Y-60610000D01*
X209225000Y-84375000D02*
X208925000Y-84075000D01*
X206090000Y-60610000D02*
X203200000Y-63500000D01*
X209225000Y-85750000D02*
X209225000Y-84375000D01*
%TO.N,Net-(J1-CC1)*%
X207020000Y-106930000D02*
X207020000Y-109175000D01*
%TO.N,Net-(JP2-A)*%
X214860000Y-99790000D02*
X215500000Y-99150000D01*
X214860000Y-103150000D02*
X214860000Y-99790000D01*
%TO.N,Net-(J1-CC2)*%
X210020000Y-106930000D02*
X210020000Y-109175000D01*
%TO.N,Net-(JP1-A)*%
X213590000Y-103150000D02*
X213590000Y-99740000D01*
X213590000Y-99740000D02*
X213000000Y-99150000D01*
X212970000Y-99180000D02*
X213000000Y-99150000D01*
%TO.N,/IO18*%
X207080000Y-70770000D02*
X206130000Y-70770000D01*
X205122000Y-81898000D02*
X203200000Y-83820000D01*
X205724000Y-72292265D02*
X205453000Y-72563267D01*
X206130000Y-70770000D02*
X205724000Y-71176000D01*
X205724000Y-71176000D02*
X205724000Y-72292265D01*
X205452998Y-75436171D02*
X205122000Y-75767166D01*
X205453000Y-72563267D02*
X205452998Y-75436171D01*
X205122000Y-75767166D02*
X205122000Y-81898000D01*
%TO.N,/IO16*%
X204420000Y-77520000D02*
X203200000Y-78740000D01*
X204751000Y-75145388D02*
X204420000Y-75476388D01*
X205022000Y-72001488D02*
X204751000Y-72272489D01*
X204420000Y-75476388D02*
X204420000Y-77520000D01*
X205403000Y-69546169D02*
X205022000Y-69927166D01*
X204751000Y-72272489D02*
X204751000Y-75145388D01*
X205730000Y-68230000D02*
X205403000Y-68557000D01*
X205022000Y-69927166D02*
X205022000Y-72001488D01*
X205403000Y-68557000D02*
X205403000Y-69546169D01*
X207080000Y-68230000D02*
X205730000Y-68230000D01*
%TO.N,/IO45*%
X226718000Y-82537168D02*
X226718000Y-87514388D01*
X227450000Y-90290000D02*
X228600000Y-91440000D01*
X226718000Y-87514388D02*
X227450000Y-88246388D01*
X227450000Y-88246388D02*
X227450000Y-90290000D01*
X223504000Y-76519000D02*
X224717055Y-76519000D01*
X222815000Y-75830000D02*
X223504000Y-76519000D01*
X224717055Y-76519000D02*
X226026001Y-77827946D01*
X226026001Y-81845169D02*
X226718000Y-82537168D01*
X226026001Y-77827946D02*
X226026001Y-81845169D01*
%TO.N,/IO38*%
X226723000Y-70753000D02*
X226723000Y-76043000D01*
X224580000Y-69500000D02*
X225470000Y-69500000D01*
X226723000Y-76043000D02*
X228600000Y-77920000D01*
X228600000Y-77920000D02*
X228600000Y-78740000D01*
X225470000Y-69500000D02*
X226723000Y-70753000D01*
%TO.N,/IO17*%
X205101999Y-75290780D02*
X204771000Y-75621776D01*
X204771000Y-75621776D02*
X204771000Y-79709000D01*
X207080000Y-69500000D02*
X206228400Y-69500000D01*
X205373000Y-70355400D02*
X205373000Y-72146877D01*
X204771000Y-79709000D02*
X203200000Y-81280000D01*
X205102000Y-72417877D02*
X205101999Y-75290780D01*
X205373000Y-72146877D02*
X205102000Y-72417877D01*
X206228400Y-69500000D02*
X205373000Y-70355400D01*
%TO.N,/IO41*%
X225000000Y-65690000D02*
X227470000Y-68160000D01*
X228600000Y-70190000D02*
X228600000Y-71120000D01*
X227470000Y-68160000D02*
X227470000Y-69060000D01*
X227470000Y-69060000D02*
X228600000Y-70190000D01*
X224580000Y-65690000D02*
X225000000Y-65690000D01*
%TO.N,/IO42*%
X228600000Y-68150000D02*
X228600000Y-68580000D01*
X224580000Y-64420000D02*
X224870000Y-64420000D01*
X224870000Y-64420000D02*
X228600000Y-68150000D01*
%TO.N,/IO36*%
X226021000Y-76333776D02*
X227079000Y-77391776D01*
X226021000Y-73041000D02*
X226021000Y-76333776D01*
X227079000Y-81409000D02*
X228600000Y-82930000D01*
X225020000Y-72040000D02*
X226021000Y-73041000D01*
X228600000Y-82930000D02*
X228600000Y-83820000D01*
X224580000Y-72040000D02*
X225020000Y-72040000D01*
X227079000Y-77391776D02*
X227079000Y-81409000D01*
%TO.N,/IO47*%
X220275000Y-75830000D02*
X220275000Y-76355000D01*
X227099000Y-88391777D02*
X227099000Y-92479000D01*
X220275000Y-76355000D02*
X220790000Y-76870000D01*
X224571667Y-76870000D02*
X225675001Y-77973334D01*
X226367000Y-87659779D02*
X227099000Y-88391777D01*
X227099000Y-92479000D02*
X228600000Y-93980000D01*
X226367000Y-82682556D02*
X226367000Y-87659779D01*
X225675001Y-81990558D02*
X226367000Y-82682556D01*
X220790000Y-76870000D02*
X224571667Y-76870000D01*
X225675001Y-77973334D02*
X225675001Y-81990558D01*
%TO.N,/IO39*%
X225460000Y-68230000D02*
X227109000Y-69879000D01*
X224580000Y-68230000D02*
X225460000Y-68230000D01*
X227109000Y-69879000D02*
X227109000Y-74709000D01*
X227109000Y-74709000D02*
X228600000Y-76200000D01*
%TO.N,/IO40*%
X224873612Y-66960000D02*
X227460000Y-69546388D01*
X228600000Y-73000836D02*
X228600000Y-73660000D01*
X227460000Y-71860836D02*
X228600000Y-73000836D01*
X227460000Y-69546388D02*
X227460000Y-71860836D01*
X224580000Y-66960000D02*
X224873612Y-66960000D01*
%TO.N,/IO37*%
X227430000Y-79280000D02*
X228600000Y-80450000D01*
X225579000Y-71339000D02*
X225581000Y-71339000D01*
X227430000Y-77246388D02*
X227430000Y-79280000D01*
X226372000Y-76188388D02*
X227430000Y-77246388D01*
X225581000Y-71341000D02*
X226372000Y-72132000D01*
X225010000Y-70770000D02*
X225579000Y-71339000D01*
X225581000Y-71339000D02*
X225581000Y-71341000D01*
X226372000Y-72132000D02*
X226372000Y-76188388D01*
X224580000Y-70770000D02*
X225010000Y-70770000D01*
X228600000Y-80450000D02*
X228600000Y-81280000D01*
%TO.N,/IO35*%
X226728000Y-81554389D02*
X227420000Y-82246389D01*
X226728000Y-77537165D02*
X226728000Y-81554389D01*
X224580000Y-73310000D02*
X224880000Y-73310000D01*
X225670000Y-76479167D02*
X226407000Y-77216167D01*
X227420000Y-85180000D02*
X228600000Y-86360000D01*
X227420000Y-82246389D02*
X227420000Y-85180000D01*
X224880000Y-73310000D02*
X225670000Y-74100000D01*
X226407000Y-77216167D02*
X226728000Y-77537165D01*
X225670000Y-74100000D02*
X225670000Y-76479167D01*
%TO.N,/IO46*%
X207337223Y-77080000D02*
X206175000Y-78242224D01*
X209430000Y-77080000D02*
X207337223Y-77080000D01*
X210115000Y-75830000D02*
X210115000Y-76395000D01*
X206175000Y-84377776D02*
X204911000Y-85641776D01*
X204911000Y-85641776D02*
X204911000Y-89729000D01*
X210115000Y-76395000D02*
X209430000Y-77080000D01*
X204911000Y-89729000D02*
X203200000Y-91440000D01*
X206175000Y-78242224D02*
X206175000Y-84377776D01*
%TO.N,/IO21*%
X226748000Y-92624389D02*
X227430000Y-93306388D01*
X219005000Y-76405000D02*
X219821000Y-77221000D01*
X225324001Y-78118722D02*
X225324001Y-82135948D01*
X224426279Y-77221000D02*
X225324001Y-78118722D01*
X219005000Y-75830000D02*
X219005000Y-76405000D01*
X226016000Y-87805169D02*
X226748000Y-88537166D01*
X226748000Y-88537166D02*
X226748000Y-92624389D01*
X227430000Y-95350000D02*
X228600000Y-96520000D01*
X219821000Y-77221000D02*
X224426279Y-77221000D01*
X226016000Y-82827945D02*
X226016000Y-87805169D01*
X225324001Y-82135948D02*
X226016000Y-82827945D01*
X227430000Y-93306388D02*
X227430000Y-95350000D01*
%TO.N,/IO3*%
X205824000Y-78096835D02*
X205824000Y-84232388D01*
X205824000Y-84232388D02*
X204560000Y-85496388D01*
X208845000Y-75830000D02*
X208090835Y-75830000D01*
X208090835Y-75830000D02*
X205824000Y-78096835D01*
X204560000Y-87540000D02*
X203200000Y-88900000D01*
X204560000Y-85496388D02*
X204560000Y-87540000D01*
%TO.N,/IO14*%
X227079000Y-97539000D02*
X228600000Y-99060000D01*
X217735000Y-75830000D02*
X217735000Y-76235000D01*
X217735000Y-76235000D02*
X219072000Y-77572000D01*
X224973001Y-82281338D02*
X225665000Y-82973334D01*
X226397000Y-88682559D02*
X226397000Y-92769779D01*
X224973001Y-78264110D02*
X224973001Y-82281338D01*
X219072000Y-77572000D02*
X224280891Y-77572000D01*
X225665000Y-87950559D02*
X226397000Y-88682559D01*
X225665000Y-82973334D02*
X225665000Y-87950559D01*
X227079000Y-93451776D02*
X227079000Y-97539000D01*
X224280891Y-77572000D02*
X224973001Y-78264110D01*
X226397000Y-92769779D02*
X227079000Y-93451776D01*
%TO.N,/IO15*%
X205052000Y-67617166D02*
X205052000Y-69400779D01*
X204400000Y-75000000D02*
X203200000Y-76200000D01*
X205052000Y-69400779D02*
X204671000Y-69781777D01*
X204400000Y-72127100D02*
X204400000Y-75000000D01*
X204671000Y-69781777D02*
X204671000Y-71856100D01*
X205709166Y-66960000D02*
X205052000Y-67617166D01*
X207080000Y-66960000D02*
X205709166Y-66960000D01*
X204671000Y-71856100D02*
X204400000Y-72127100D01*
%TO.N,/IO13*%
X216465000Y-76265000D02*
X216465000Y-75830000D01*
X226046000Y-88827948D02*
X225314000Y-88095948D01*
X226728000Y-97684389D02*
X226728000Y-93597165D01*
X226728000Y-93597165D02*
X226046000Y-92915168D01*
X227350000Y-100350000D02*
X227350000Y-98306388D01*
X225314000Y-88095948D02*
X225314000Y-83118723D01*
X224622001Y-82426727D02*
X224622001Y-78409498D01*
X226046000Y-92915168D02*
X226046000Y-88827948D01*
X224135503Y-77923000D02*
X218123000Y-77923000D01*
X228600000Y-101600000D02*
X227350000Y-100350000D01*
X218123000Y-77923000D02*
X216465000Y-76265000D01*
X224622001Y-78409498D02*
X224135503Y-77923000D01*
X227350000Y-98306388D02*
X226728000Y-97684389D01*
X225314000Y-83118723D02*
X224622001Y-82426727D01*
%TO.N,/IO1*%
X228600000Y-63060000D02*
X228600000Y-63500000D01*
X224880000Y-59340000D02*
X228600000Y-63060000D01*
X224580000Y-59340000D02*
X224880000Y-59340000D01*
%TO.N,/IO4*%
X203200000Y-66040000D02*
X203200000Y-65420000D01*
X204380000Y-62816388D02*
X205316388Y-61880000D01*
X205316388Y-61880000D02*
X207080000Y-61880000D01*
X203200000Y-65420000D02*
X204380000Y-64240000D01*
X204380000Y-64240000D02*
X204380000Y-62816388D01*
%TO.N,/IO2*%
X226590000Y-64030000D02*
X228600000Y-66040000D01*
X224580000Y-60610000D02*
X224930000Y-60610000D01*
X224930000Y-60610000D02*
X226590000Y-62270000D01*
X226590000Y-62270000D02*
X226590000Y-64030000D01*
%TO.N,/IO9*%
X204420000Y-92760000D02*
X204420000Y-90716388D01*
X210449000Y-77431000D02*
X211385000Y-76495000D01*
X205262000Y-89874388D02*
X205262000Y-85787164D01*
X206526000Y-84523164D02*
X206526000Y-78387612D01*
X203200000Y-93980000D02*
X204420000Y-92760000D01*
X204420000Y-90716388D02*
X205262000Y-89874388D01*
X205262000Y-85787164D02*
X206526000Y-84523164D01*
X211385000Y-76495000D02*
X211385000Y-75830000D01*
X206526000Y-78387612D02*
X207482612Y-77431000D01*
X207482612Y-77431000D02*
X210449000Y-77431000D01*
%TO.N,/IO8*%
X205804000Y-72866000D02*
X205803997Y-75581562D01*
X205473000Y-75912556D02*
X205473000Y-84087000D01*
X207080000Y-72040000D02*
X206630000Y-72040000D01*
X206630000Y-72040000D02*
X205804000Y-72866000D01*
X205473000Y-84087000D02*
X203200000Y-86360000D01*
X205803997Y-75581562D02*
X205473000Y-75912556D01*
%TO.N,/IO6*%
X204691000Y-64921776D02*
X205192776Y-64420000D01*
X203200000Y-70260000D02*
X204350000Y-69110000D01*
X203200000Y-71120000D02*
X203200000Y-70260000D01*
X205192776Y-64420000D02*
X207080000Y-64420000D01*
X204350000Y-69110000D02*
X204350000Y-67326388D01*
X204350000Y-67326388D02*
X204691000Y-66985388D01*
X204691000Y-66985388D02*
X204691000Y-64921776D01*
%TO.N,/IO7*%
X204701000Y-69255389D02*
X204320000Y-69636388D01*
X205042000Y-67130777D02*
X204701000Y-67471777D01*
X204320000Y-71640000D02*
X203200000Y-72760000D01*
X207080000Y-65690000D02*
X205620000Y-65690000D01*
X203200000Y-72760000D02*
X203200000Y-73660000D01*
X204320000Y-69636388D02*
X204320000Y-71640000D01*
X204701000Y-67471777D02*
X204701000Y-69255389D01*
X205620000Y-65690000D02*
X205042000Y-66268000D01*
X205042000Y-66268000D02*
X205042000Y-67130777D01*
%TO.N,/IO11*%
X204390000Y-97870000D02*
X203200000Y-99060000D01*
X212357000Y-78133000D02*
X207773388Y-78133000D01*
X207228000Y-78678388D02*
X207228000Y-84813941D01*
X205964000Y-86077940D02*
X205964000Y-90165165D01*
X213925000Y-76565000D02*
X212357000Y-78133000D01*
X205964000Y-90165165D02*
X205122000Y-91007164D01*
X205122000Y-95094389D02*
X204390000Y-95826388D01*
X205122000Y-91007164D02*
X205122000Y-95094389D01*
X207228000Y-84813941D02*
X205964000Y-86077940D01*
X213925000Y-75830000D02*
X213925000Y-76565000D01*
X207773388Y-78133000D02*
X207228000Y-78678388D01*
X204390000Y-95826388D02*
X204390000Y-97870000D01*
%TO.N,/IO12*%
X205473000Y-91152552D02*
X206315000Y-90310555D01*
X206315000Y-90310555D02*
X206315000Y-86223330D01*
X207918776Y-78484000D02*
X213196000Y-78484000D01*
X213196000Y-78484000D02*
X215195000Y-76485000D01*
X215195000Y-76485000D02*
X215195000Y-75830000D01*
X204741000Y-100059000D02*
X204741000Y-95971777D01*
X203200000Y-101600000D02*
X204741000Y-100059000D01*
X207579000Y-78823776D02*
X207918776Y-78484000D01*
X207579000Y-84959330D02*
X207579000Y-78823776D01*
X205473000Y-95239779D02*
X205473000Y-91152552D01*
X206315000Y-86223330D02*
X207579000Y-84959330D01*
X204741000Y-95971777D02*
X205473000Y-95239779D01*
%TO.N,/IO5*%
X204340000Y-66840000D02*
X204340000Y-64776388D01*
X204340000Y-64776388D02*
X205966388Y-63150000D01*
X205966388Y-63150000D02*
X207080000Y-63150000D01*
X203200000Y-67980000D02*
X204340000Y-66840000D01*
X203200000Y-68580000D02*
X203200000Y-67980000D01*
%TO.N,/IO10*%
X206877000Y-78533000D02*
X207628000Y-77782000D01*
X211478000Y-77782000D02*
X212655000Y-76605000D01*
X205613000Y-85932552D02*
X206877000Y-84668552D01*
X206877000Y-84668552D02*
X206877000Y-78533000D01*
X205613000Y-90019776D02*
X205613000Y-85932552D01*
X203200000Y-96520000D02*
X204771000Y-94949000D01*
X212655000Y-76605000D02*
X212655000Y-75830000D01*
X204771000Y-90861776D02*
X205613000Y-90019776D01*
X207628000Y-77782000D02*
X211478000Y-77782000D01*
X204771000Y-94949000D02*
X204771000Y-90861776D01*
%TO.N,DD+*%
X211570231Y-89464833D02*
X211605398Y-89500000D01*
%TO.N,UD+*%
X218562500Y-90000000D02*
X216064829Y-89999999D01*
X216064829Y-89999999D02*
X216064831Y-90000001D01*
%TO.N,UD-*%
X216064829Y-90999999D02*
X218562500Y-91000000D01*
%TO.N,Net-(J1-D+-PadA6)*%
X208020000Y-106930000D02*
X208020000Y-106355001D01*
X208746200Y-106104000D02*
X209020000Y-106377800D01*
X209020000Y-106377800D02*
X209020000Y-106930000D01*
X209020000Y-106200000D02*
X209020000Y-106930000D01*
X208271001Y-106104000D02*
X208746200Y-106104000D01*
X208020000Y-106355001D02*
X208271001Y-106104000D01*
%TO.N,Net-(J1-D--PadA7)*%
X207520000Y-106930000D02*
X207520000Y-107504999D01*
X207771001Y-107756000D02*
X208254200Y-107756000D01*
X208254200Y-107756000D02*
X208520000Y-107490200D01*
X207520000Y-106200000D02*
X207520000Y-106930000D01*
X208520000Y-107490200D02*
X208520000Y-106930000D01*
X207520000Y-107504999D02*
X207771001Y-107756000D01*
%TO.N,d-*%
X213590000Y-95810000D02*
X213000000Y-96400000D01*
X213590000Y-91965000D02*
X213225000Y-91600000D01*
X213000000Y-96400000D02*
X213000000Y-97850000D01*
X213590000Y-93850000D02*
X213590000Y-91965000D01*
X213590000Y-93850000D02*
X213590000Y-95810000D01*
%TO.N,d+*%
X214860000Y-95860000D02*
X215500000Y-96500000D01*
X213798521Y-89500000D02*
X214860000Y-90561479D01*
X213225000Y-89500000D02*
X213798521Y-89500000D01*
X214860000Y-93850000D02*
X214860000Y-95860000D01*
X215500000Y-96500000D02*
X215500000Y-97850000D01*
X214860000Y-90561479D02*
X214860000Y-93850000D01*
%TO.N,IO0*%
X224580000Y-75885557D02*
X226056000Y-77361557D01*
X213425000Y-84075000D02*
X213425000Y-80000000D01*
X226056000Y-77361557D02*
X226377000Y-77682555D01*
X226377000Y-77682555D02*
X226377000Y-81699778D01*
X224580000Y-74580000D02*
X224580000Y-75885557D01*
X226377000Y-81699778D02*
X227069000Y-82391778D01*
X213425000Y-80000000D02*
X213425000Y-79925000D01*
X227069000Y-87369000D02*
X228600000Y-88900000D01*
X227069000Y-82391778D02*
X227069000Y-87369000D01*
%TO.N,RTS#*%
X211526492Y-84979475D02*
X211605967Y-84900000D01*
X225695000Y-88973336D02*
X225695000Y-92979999D01*
X224963000Y-88241337D02*
X225695000Y-88973336D01*
X216900000Y-84900000D02*
X216400000Y-84400000D01*
X216400000Y-83400000D02*
X216100000Y-83100000D01*
X216900000Y-84900000D02*
X224100000Y-84900000D01*
X225695000Y-92979999D02*
X224674999Y-94000000D01*
X224963000Y-85763000D02*
X224963000Y-88241337D01*
X211605967Y-84900000D02*
X216900000Y-84900000D01*
X215325000Y-83100000D02*
X215275000Y-83150000D01*
X224674999Y-94000000D02*
X223837500Y-94000000D01*
X224100000Y-84900000D02*
X224963000Y-85763000D01*
X216100000Y-83100000D02*
X215325000Y-83100000D01*
X216400000Y-84400000D02*
X216400000Y-83400000D01*
D45*
%TO.N,Net-(U3-VDD1)*%
X209780000Y-103150000D02*
X209780000Y-101945000D01*
X209780000Y-101945000D02*
X209595000Y-101760000D01*
D46*
%TO.N,ck*%
X224475000Y-95525000D02*
X224199000Y-95801000D01*
X220325000Y-95525000D02*
X220601000Y-95801000D01*
X220601000Y-95801000D02*
X224199000Y-95801000D01*
D45*
%TO.N,Net-(U3-PDEN)*%
X211050000Y-101955000D02*
X211245000Y-101760000D01*
X211050000Y-103150000D02*
X211050000Y-101955000D01*
%TO.N,Net-(U3-SPU)*%
X212320000Y-101720000D02*
X211245000Y-100645000D01*
X212320000Y-103150000D02*
X212320000Y-101720000D01*
X211245000Y-100645000D02*
X211245000Y-100120000D01*
D46*
%TO.N,Net-(U3-PIN)*%
X212320000Y-93850000D02*
X212320000Y-94695000D01*
X212320000Y-94605000D02*
X211225000Y-95700000D01*
X212320000Y-93850000D02*
X212320000Y-94605000D01*
%TD*%
%TA.AperFunction,Conductor*%
%TO.N,VBUS*%
G36*
X206752135Y-101919685D02*
G01*
X206797890Y-101972489D01*
X206807834Y-102041647D01*
X206796497Y-102078460D01*
X206749911Y-102173752D01*
X206740000Y-102241780D01*
X206740000Y-102900000D01*
X207116000Y-102900000D01*
X207183039Y-102919685D01*
X207228794Y-102972489D01*
X207240000Y-103024000D01*
X207240000Y-103150000D01*
X207366000Y-103150000D01*
X207433039Y-103169685D01*
X207478794Y-103222489D01*
X207490000Y-103274000D01*
X207490000Y-104365269D01*
X207491244Y-104365089D01*
X207596191Y-104313784D01*
X207686052Y-104223924D01*
X207688209Y-104226081D01*
X207730043Y-104193260D01*
X207799604Y-104186696D01*
X207861671Y-104218782D01*
X207896537Y-104279330D01*
X207900000Y-104308429D01*
X207900000Y-104900000D01*
X209855106Y-104900000D01*
X209922145Y-104919685D01*
X209934489Y-104928741D01*
X211055383Y-105862819D01*
X211056073Y-105863849D01*
X211057203Y-105864365D01*
X211075476Y-105892799D01*
X211094282Y-105920858D01*
X211094524Y-105922439D01*
X211094977Y-105923143D01*
X211100000Y-105958078D01*
X211100000Y-106053653D01*
X211080315Y-106120692D01*
X211027511Y-106166447D01*
X210958353Y-106176391D01*
X210921544Y-106165056D01*
X210921248Y-106164911D01*
X210920000Y-106164729D01*
X210920000Y-107407442D01*
X210900315Y-107474481D01*
X210858001Y-107514828D01*
X210818742Y-107537495D01*
X210806635Y-107544485D01*
X210806632Y-107544487D01*
X210699487Y-107651632D01*
X210699485Y-107651635D01*
X210671561Y-107700000D01*
X210424550Y-107700000D01*
X210420000Y-107672942D01*
X210420000Y-107180000D01*
X210406818Y-107166818D01*
X210373333Y-107105495D01*
X210370499Y-107079142D01*
X210370499Y-106780860D01*
X210390184Y-106713823D01*
X210406819Y-106693180D01*
X210420000Y-106679999D01*
X210420000Y-106164730D01*
X210419999Y-106164729D01*
X210418753Y-106164911D01*
X210353110Y-106197002D01*
X210284237Y-106208761D01*
X210253556Y-106201111D01*
X210240984Y-106196203D01*
X210202495Y-106170485D01*
X210146655Y-106159377D01*
X210136469Y-106155401D01*
X210123333Y-106145252D01*
X210102180Y-106135150D01*
X209700000Y-105800000D01*
X209261404Y-105800000D01*
X209199403Y-105783386D01*
X209193890Y-105780203D01*
X209193887Y-105780201D01*
X209165241Y-105772525D01*
X209079309Y-105749500D01*
X208960691Y-105749500D01*
X208846114Y-105780201D01*
X208840590Y-105783389D01*
X208778596Y-105800000D01*
X207761404Y-105800000D01*
X207699403Y-105783386D01*
X207693890Y-105780203D01*
X207693887Y-105780201D01*
X207665241Y-105772525D01*
X207579309Y-105749500D01*
X207460691Y-105749500D01*
X207391944Y-105767920D01*
X207346112Y-105780201D01*
X207346109Y-105780203D01*
X207340597Y-105783386D01*
X207278596Y-105800000D01*
X206300000Y-105800000D01*
X206300000Y-106053653D01*
X206280315Y-106120692D01*
X206227511Y-106166447D01*
X206158353Y-106176391D01*
X206121544Y-106165056D01*
X206121248Y-106164911D01*
X206120000Y-106164729D01*
X206120000Y-107600000D01*
X205788880Y-107600000D01*
X205733365Y-107544485D01*
X205681998Y-107514828D01*
X205633784Y-107464261D01*
X205620000Y-107407442D01*
X205620000Y-107180000D01*
X205606819Y-107166819D01*
X205573334Y-107105496D01*
X205570500Y-107079138D01*
X205570500Y-106780862D01*
X205590185Y-106713823D01*
X205606819Y-106693181D01*
X205620000Y-106680000D01*
X205620000Y-106164730D01*
X205619999Y-106164729D01*
X205618752Y-106164911D01*
X205578460Y-106184609D01*
X205509587Y-106196367D01*
X205445290Y-106169024D01*
X205405983Y-106111260D01*
X205400000Y-106073208D01*
X205400000Y-105596679D01*
X205419685Y-105529640D01*
X205472489Y-105483885D01*
X205541647Y-105473941D01*
X205543398Y-105474206D01*
X205611546Y-105484999D01*
X205611554Y-105485000D01*
X205619999Y-105484999D01*
X206120000Y-105484999D01*
X206128449Y-105484999D01*
X206227967Y-105469237D01*
X206347923Y-105408116D01*
X206347928Y-105408113D01*
X206443113Y-105312928D01*
X206443116Y-105312923D01*
X206504239Y-105192966D01*
X206520000Y-105093456D01*
X206520000Y-105060000D01*
X206120000Y-105060000D01*
X206120000Y-105484999D01*
X205619999Y-105484999D01*
X205620000Y-105484998D01*
X205620000Y-104560000D01*
X206120000Y-104560000D01*
X206519999Y-104560000D01*
X206519999Y-104526550D01*
X206504237Y-104427032D01*
X206443116Y-104307076D01*
X206443113Y-104307071D01*
X206347928Y-104211886D01*
X206347923Y-104211883D01*
X206227965Y-104150760D01*
X206227966Y-104150760D01*
X206128456Y-104135000D01*
X206120000Y-104135000D01*
X206120000Y-104560000D01*
X205620000Y-104560000D01*
X205620000Y-104178217D01*
X205491213Y-104142908D01*
X205483312Y-104138029D01*
X205474103Y-104136839D01*
X205454059Y-104119965D01*
X205431764Y-104106198D01*
X205427754Y-104097821D01*
X205420652Y-104091842D01*
X205412912Y-104066811D01*
X205408799Y-104058217D01*
X206740001Y-104058217D01*
X206749912Y-104126249D01*
X206801215Y-104231191D01*
X206883808Y-104313784D01*
X206988755Y-104365089D01*
X206990000Y-104365269D01*
X206990000Y-103400000D01*
X206740001Y-103400000D01*
X206740001Y-104058217D01*
X205408799Y-104058217D01*
X205401600Y-104043175D01*
X205402755Y-104033960D01*
X205400013Y-104025090D01*
X205400000Y-104023321D01*
X205400000Y-102024000D01*
X205419685Y-101956961D01*
X205472489Y-101911206D01*
X205524000Y-101900000D01*
X206685096Y-101900000D01*
X206752135Y-101919685D01*
G37*
%TD.AperFunction*%
%TD*%
%TA.AperFunction,Conductor*%
%TO.N,GNDPWR*%
G36*
X205142878Y-101873685D02*
G01*
X205188633Y-101926489D01*
X205198576Y-101995646D01*
X205195625Y-102016179D01*
X205194500Y-102024002D01*
X205194500Y-104023307D01*
X205194505Y-104024619D01*
X205194519Y-104026600D01*
X205194520Y-104026610D01*
X205196364Y-104038528D01*
X205196101Y-104042677D01*
X205198986Y-104055464D01*
X205199635Y-104059655D01*
X205203680Y-104085786D01*
X205210212Y-104106915D01*
X205211642Y-104111542D01*
X205216235Y-104131889D01*
X205221037Y-104141923D01*
X205223724Y-104150612D01*
X205223725Y-104150613D01*
X205223771Y-104150762D01*
X205224324Y-104152549D01*
X205233202Y-104176062D01*
X205238302Y-104182818D01*
X205244976Y-104192596D01*
X205246401Y-104194914D01*
X205246407Y-104194927D01*
X205258622Y-104216887D01*
X205261871Y-104220086D01*
X205268522Y-104230907D01*
X205276137Y-104258914D01*
X205286490Y-104286023D01*
X205285231Y-104292361D01*
X205286854Y-104298329D01*
X205279285Y-104322310D01*
X205273365Y-104352128D01*
X205235279Y-104426877D01*
X205219500Y-104526506D01*
X205219500Y-105093493D01*
X205235279Y-105193121D01*
X205235280Y-105193124D01*
X205235281Y-105193126D01*
X205273412Y-105267962D01*
X205286308Y-105336631D01*
X205271148Y-105384789D01*
X205222510Y-105471741D01*
X205222509Y-105471743D01*
X205202826Y-105538775D01*
X205194500Y-105596682D01*
X205194500Y-106073215D01*
X205196993Y-106105127D01*
X205202977Y-106143180D01*
X205236086Y-106226869D01*
X205275388Y-106284627D01*
X205275399Y-106284641D01*
X205294056Y-106308744D01*
X205319525Y-106373807D01*
X205320000Y-106384645D01*
X205320000Y-107330127D01*
X205300315Y-107397166D01*
X205247511Y-107442921D01*
X205228096Y-107449900D01*
X205201968Y-107456901D01*
X205157863Y-107468719D01*
X205026635Y-107544485D01*
X205020189Y-107549432D01*
X205018178Y-107546811D01*
X204970358Y-107572924D01*
X204900666Y-107567940D01*
X204844733Y-107526068D01*
X204820316Y-107460604D01*
X204820000Y-107451758D01*
X204820000Y-107180000D01*
X204564000Y-107180000D01*
X204496961Y-107160315D01*
X204451206Y-107107511D01*
X204440000Y-107056000D01*
X204440000Y-106804000D01*
X204459685Y-106736961D01*
X204512489Y-106691206D01*
X204564000Y-106680000D01*
X204820000Y-106680000D01*
X204820000Y-106164730D01*
X204819999Y-106164729D01*
X204818750Y-106164911D01*
X204713811Y-106216212D01*
X204631212Y-106298811D01*
X204593404Y-106376151D01*
X204546277Y-106427734D01*
X204478743Y-106445648D01*
X204412244Y-106424207D01*
X204401082Y-106414967D01*
X204400939Y-106415143D01*
X204396226Y-106411275D01*
X204281573Y-106334667D01*
X204200000Y-106300879D01*
X204200000Y-106788011D01*
X204190060Y-106770795D01*
X204134205Y-106714940D01*
X204065796Y-106675444D01*
X203989496Y-106655000D01*
X203910504Y-106655000D01*
X203834204Y-106675444D01*
X203765795Y-106714940D01*
X203709940Y-106770795D01*
X203700000Y-106788011D01*
X203700000Y-106300879D01*
X203699999Y-106300879D01*
X203618426Y-106334667D01*
X203503773Y-106411275D01*
X203406275Y-106508773D01*
X203329671Y-106623420D01*
X203329664Y-106623433D01*
X203276902Y-106750813D01*
X203276899Y-106750823D01*
X203250000Y-106886053D01*
X203250000Y-107255000D01*
X203650000Y-107255000D01*
X203650000Y-107755000D01*
X203250000Y-107755000D01*
X203250000Y-108123946D01*
X203249999Y-108123946D01*
X203276899Y-108259176D01*
X203276902Y-108259186D01*
X203329664Y-108386566D01*
X203329671Y-108386579D01*
X203406275Y-108501226D01*
X203503773Y-108598724D01*
X203618420Y-108675328D01*
X203618424Y-108675330D01*
X203700000Y-108709119D01*
X203700000Y-108221988D01*
X203709940Y-108239205D01*
X203765795Y-108295060D01*
X203834204Y-108334556D01*
X203910504Y-108355000D01*
X203989496Y-108355000D01*
X204065796Y-108334556D01*
X204134205Y-108295060D01*
X204190060Y-108239205D01*
X204200000Y-108221988D01*
X204200000Y-108709118D01*
X204281575Y-108675330D01*
X204281579Y-108675328D01*
X204396226Y-108598724D01*
X204493724Y-108501226D01*
X204570328Y-108386579D01*
X204570335Y-108386566D01*
X204625430Y-108253555D01*
X204627109Y-108254250D01*
X204660715Y-108202956D01*
X204724523Y-108174491D01*
X204793592Y-108185042D01*
X204845992Y-108231259D01*
X204848478Y-108235378D01*
X204919485Y-108358365D01*
X205026635Y-108465515D01*
X205157865Y-108541281D01*
X205304234Y-108580500D01*
X205304236Y-108580500D01*
X205455764Y-108580500D01*
X205455766Y-108580500D01*
X205602135Y-108541281D01*
X205733365Y-108465515D01*
X205840515Y-108358365D01*
X205916281Y-108227135D01*
X205955500Y-108080766D01*
X205955500Y-107929500D01*
X205975185Y-107862461D01*
X206027989Y-107816706D01*
X206079500Y-107805500D01*
X206120003Y-107805500D01*
X206120003Y-107805499D01*
X206165728Y-107800348D01*
X206248127Y-107760666D01*
X206262256Y-107742948D01*
X206319441Y-107702808D01*
X206364048Y-107696355D01*
X206373811Y-107696736D01*
X206417867Y-107705500D01*
X206597918Y-107705499D01*
X206600345Y-107705594D01*
X206631251Y-107715996D01*
X206662539Y-107725183D01*
X206664183Y-107727080D01*
X206666564Y-107727882D01*
X206686942Y-107753345D01*
X206708294Y-107777987D01*
X206708903Y-107780787D01*
X206710221Y-107782434D01*
X206711101Y-107790892D01*
X206719500Y-107829499D01*
X206719500Y-108787036D01*
X206699815Y-108854075D01*
X206683181Y-108874717D01*
X206659513Y-108898384D01*
X206659511Y-108898387D01*
X206600201Y-109001114D01*
X206569500Y-109115691D01*
X206569500Y-109234309D01*
X206600201Y-109348886D01*
X206659511Y-109451613D01*
X206743387Y-109535489D01*
X206846114Y-109594799D01*
X206960691Y-109625500D01*
X206960694Y-109625500D01*
X207079306Y-109625500D01*
X207079309Y-109625500D01*
X207193886Y-109594799D01*
X207296613Y-109535489D01*
X207380489Y-109451613D01*
X207439799Y-109348886D01*
X207470500Y-109234309D01*
X207470500Y-109115691D01*
X207439799Y-109001114D01*
X207380489Y-108898387D01*
X207356819Y-108874717D01*
X207323334Y-108813394D01*
X207320500Y-108787036D01*
X207320500Y-108029832D01*
X207340185Y-107962793D01*
X207392989Y-107917038D01*
X207462147Y-107907094D01*
X207525703Y-107936119D01*
X207532181Y-107942151D01*
X207586490Y-107996460D01*
X207586492Y-107996461D01*
X207586496Y-107996464D01*
X207643717Y-108029500D01*
X207655012Y-108036021D01*
X207731439Y-108056500D01*
X207731441Y-108056500D01*
X208293760Y-108056500D01*
X208293762Y-108056500D01*
X208370189Y-108036021D01*
X208438711Y-107996460D01*
X208494660Y-107940511D01*
X208714029Y-107721141D01*
X208775350Y-107687658D01*
X208825899Y-107687207D01*
X208871892Y-107696355D01*
X208917867Y-107705500D01*
X209122132Y-107705499D01*
X209202495Y-107689515D01*
X209202498Y-107689512D01*
X209213778Y-107684841D01*
X209214376Y-107686286D01*
X209267782Y-107669563D01*
X209325943Y-107685516D01*
X209326223Y-107684842D01*
X209331590Y-107687065D01*
X209335162Y-107688045D01*
X209337351Y-107689451D01*
X209337506Y-107689516D01*
X209390957Y-107700147D01*
X209417867Y-107705500D01*
X209595499Y-107705499D01*
X209662539Y-107725183D01*
X209708294Y-107777987D01*
X209719500Y-107829499D01*
X209719500Y-108787036D01*
X209699815Y-108854075D01*
X209683181Y-108874717D01*
X209659513Y-108898384D01*
X209659511Y-108898387D01*
X209600201Y-109001114D01*
X209569500Y-109115691D01*
X209569500Y-109234309D01*
X209600201Y-109348886D01*
X209659511Y-109451613D01*
X209743387Y-109535489D01*
X209846114Y-109594799D01*
X209960691Y-109625500D01*
X209960694Y-109625500D01*
X210079306Y-109625500D01*
X210079309Y-109625500D01*
X210193886Y-109594799D01*
X210296613Y-109535489D01*
X210380489Y-109451613D01*
X210439799Y-109348886D01*
X210470500Y-109234309D01*
X210470500Y-109115691D01*
X210439799Y-109001114D01*
X210380489Y-108898387D01*
X210356819Y-108874717D01*
X210323334Y-108813394D01*
X210320500Y-108787036D01*
X210320500Y-108029500D01*
X210323050Y-108020814D01*
X210321762Y-108011853D01*
X210332740Y-107987812D01*
X210340185Y-107962461D01*
X210347025Y-107956533D01*
X210350787Y-107948297D01*
X210373021Y-107934007D01*
X210392989Y-107916706D01*
X210403503Y-107914418D01*
X210409565Y-107910523D01*
X210444500Y-107905500D01*
X210460500Y-107905500D01*
X210527539Y-107925185D01*
X210573294Y-107977989D01*
X210584500Y-108029500D01*
X210584500Y-108080766D01*
X210604109Y-108153950D01*
X210623719Y-108227136D01*
X210661602Y-108292750D01*
X210699485Y-108358365D01*
X210806635Y-108465515D01*
X210937865Y-108541281D01*
X211084234Y-108580500D01*
X211084236Y-108580500D01*
X211235764Y-108580500D01*
X211235766Y-108580500D01*
X211382135Y-108541281D01*
X211513365Y-108465515D01*
X211620515Y-108358365D01*
X211691521Y-108235378D01*
X211742088Y-108187163D01*
X211810695Y-108173940D01*
X211875560Y-108199908D01*
X211913945Y-108253813D01*
X211914570Y-108253555D01*
X211915695Y-108256271D01*
X211916088Y-108256823D01*
X211916683Y-108258657D01*
X211969664Y-108386566D01*
X211969671Y-108386579D01*
X212046275Y-108501226D01*
X212143773Y-108598724D01*
X212258420Y-108675328D01*
X212258424Y-108675330D01*
X212340000Y-108709119D01*
X212340000Y-108221988D01*
X212349940Y-108239205D01*
X212405795Y-108295060D01*
X212474204Y-108334556D01*
X212550504Y-108355000D01*
X212629496Y-108355000D01*
X212705796Y-108334556D01*
X212774205Y-108295060D01*
X212830060Y-108239205D01*
X212840000Y-108221988D01*
X212840000Y-108709118D01*
X212921575Y-108675330D01*
X212921579Y-108675328D01*
X213036226Y-108598724D01*
X213133724Y-108501226D01*
X213210328Y-108386579D01*
X213210335Y-108386566D01*
X213263097Y-108259186D01*
X213263100Y-108259176D01*
X213290000Y-108123946D01*
X213290000Y-107755000D01*
X212890000Y-107755000D01*
X212890000Y-107255000D01*
X213290000Y-107255000D01*
X213290000Y-106886053D01*
X213263100Y-106750823D01*
X213263097Y-106750813D01*
X213210335Y-106623433D01*
X213210328Y-106623420D01*
X213133724Y-106508773D01*
X213036226Y-106411275D01*
X212921573Y-106334667D01*
X212840000Y-106300879D01*
X212840000Y-106788011D01*
X212830060Y-106770795D01*
X212774205Y-106714940D01*
X212705796Y-106675444D01*
X212629496Y-106655000D01*
X212550504Y-106655000D01*
X212474204Y-106675444D01*
X212405795Y-106714940D01*
X212349940Y-106770795D01*
X212340000Y-106788011D01*
X212340000Y-106300879D01*
X212339999Y-106300879D01*
X212258426Y-106334667D01*
X212143773Y-106411275D01*
X212139061Y-106415143D01*
X212137841Y-106413656D01*
X212084328Y-106442863D01*
X212014637Y-106437864D01*
X211958712Y-106395981D01*
X211946594Y-106376150D01*
X211908785Y-106298809D01*
X211826188Y-106216212D01*
X211721249Y-106164911D01*
X211721250Y-106164911D01*
X211720000Y-106164729D01*
X211720000Y-107451758D01*
X211700315Y-107518797D01*
X211647511Y-107564552D01*
X211578353Y-107574496D01*
X211520760Y-107548194D01*
X211519811Y-107549432D01*
X211513368Y-107544488D01*
X211513365Y-107544485D01*
X211447750Y-107506602D01*
X211382136Y-107468719D01*
X211349988Y-107460105D01*
X211311906Y-107449901D01*
X211252246Y-107413537D01*
X211221717Y-107350690D01*
X211220000Y-107330127D01*
X211220000Y-107180000D01*
X211206819Y-107166819D01*
X211173334Y-107105496D01*
X211170500Y-107079138D01*
X211170500Y-106780862D01*
X211190185Y-106713823D01*
X211206819Y-106693181D01*
X211220000Y-106680000D01*
X211220000Y-106313690D01*
X211235779Y-106253157D01*
X211277490Y-106178590D01*
X211297175Y-106111551D01*
X211305500Y-106053653D01*
X211305500Y-105958078D01*
X211303408Y-105928832D01*
X211298385Y-105893897D01*
X211298226Y-105892791D01*
X211297417Y-105889768D01*
X211283686Y-105854489D01*
X211283384Y-105853713D01*
X211267791Y-105811943D01*
X211267338Y-105811239D01*
X211266949Y-105811488D01*
X211264987Y-105806446D01*
X211247905Y-105780960D01*
X211246700Y-105779126D01*
X211230082Y-105753265D01*
X211215217Y-105732981D01*
X211215215Y-105732979D01*
X211215214Y-105732978D01*
X211214610Y-105732516D01*
X211197796Y-105717002D01*
X211192582Y-105711214D01*
X211186941Y-105704950D01*
X210066047Y-104770872D01*
X210056047Y-104763049D01*
X210043703Y-104753993D01*
X210043701Y-104753992D01*
X210043697Y-104753989D01*
X209980047Y-104722512D01*
X209980041Y-104722509D01*
X209913009Y-104702826D01*
X209913005Y-104702825D01*
X209913004Y-104702825D01*
X209855106Y-104694500D01*
X209855102Y-104694500D01*
X208229500Y-104694500D01*
X208162461Y-104674815D01*
X208116706Y-104622011D01*
X208105500Y-104570500D01*
X208105500Y-104485831D01*
X208125185Y-104418792D01*
X208177989Y-104373037D01*
X208247147Y-104363093D01*
X208251071Y-104363975D01*
X208260000Y-104365269D01*
X208760000Y-104365269D01*
X208761244Y-104365089D01*
X208866191Y-104313784D01*
X208948787Y-104231188D01*
X209000087Y-104126251D01*
X209000088Y-104126248D01*
X209010000Y-104058219D01*
X209010000Y-103400000D01*
X208760000Y-103400000D01*
X208760000Y-104365269D01*
X208260000Y-104365269D01*
X208260000Y-103400000D01*
X208010001Y-103400000D01*
X208010001Y-103870897D01*
X208005191Y-103887274D01*
X208005405Y-103904344D01*
X207995551Y-103920104D01*
X207990316Y-103937936D01*
X207977416Y-103949113D01*
X207968367Y-103963589D01*
X207951557Y-103971520D01*
X207937512Y-103983691D01*
X207920281Y-103986278D01*
X207905178Y-103993405D01*
X207869887Y-103993845D01*
X207859788Y-103992522D01*
X207848386Y-103991028D01*
X207784473Y-103962798D01*
X207745968Y-103904496D01*
X207740500Y-103868079D01*
X207740500Y-102241739D01*
X207733168Y-102191420D01*
X207730573Y-102173607D01*
X207679198Y-102068517D01*
X207679196Y-102068515D01*
X207679196Y-102068514D01*
X207676363Y-102065681D01*
X207673726Y-102060852D01*
X207673227Y-102060153D01*
X207673311Y-102060092D01*
X207665750Y-102046244D01*
X207651250Y-102029511D01*
X207649333Y-102016179D01*
X207642878Y-102004358D01*
X207644457Y-101982271D01*
X207641306Y-101960353D01*
X207646901Y-101948101D01*
X207647862Y-101934666D01*
X207661132Y-101916939D01*
X207670331Y-101896797D01*
X207681662Y-101889514D01*
X207689734Y-101878733D01*
X207710479Y-101870995D01*
X207729109Y-101859023D01*
X207751027Y-101855871D01*
X207755198Y-101854316D01*
X207764044Y-101854000D01*
X207986662Y-101854000D01*
X208053701Y-101873685D01*
X208099456Y-101926489D01*
X208109400Y-101995647D01*
X208080375Y-102059203D01*
X208074343Y-102065681D01*
X208071214Y-102068809D01*
X208071212Y-102068811D01*
X208019912Y-102173748D01*
X208019911Y-102173751D01*
X208010000Y-102241780D01*
X208010000Y-102900000D01*
X209009999Y-102900000D01*
X209009999Y-102241776D01*
X209002662Y-102191420D01*
X209012475Y-102122243D01*
X209058130Y-102069353D01*
X209125132Y-102049542D01*
X209192209Y-102069100D01*
X209213047Y-102085861D01*
X209243181Y-102115995D01*
X209276666Y-102177318D01*
X209279500Y-102203676D01*
X209279500Y-104058260D01*
X209289426Y-104126391D01*
X209340803Y-104231485D01*
X209423514Y-104314196D01*
X209423515Y-104314196D01*
X209423517Y-104314198D01*
X209528607Y-104365573D01*
X209562673Y-104370536D01*
X209596739Y-104375500D01*
X209596740Y-104375500D01*
X209963261Y-104375500D01*
X209985971Y-104372191D01*
X210031393Y-104365573D01*
X210136483Y-104314198D01*
X210219198Y-104231483D01*
X210270573Y-104126393D01*
X210280500Y-104058260D01*
X210280500Y-102241740D01*
X210280500Y-101978000D01*
X210283050Y-101969314D01*
X210281762Y-101960353D01*
X210292740Y-101936312D01*
X210300185Y-101910961D01*
X210307025Y-101905033D01*
X210310787Y-101896797D01*
X210333021Y-101882507D01*
X210352989Y-101865206D01*
X210363503Y-101862918D01*
X210369565Y-101859023D01*
X210404500Y-101854000D01*
X210425500Y-101854000D01*
X210492539Y-101873685D01*
X210538294Y-101926489D01*
X210549500Y-101978000D01*
X210549500Y-104058260D01*
X210559426Y-104126391D01*
X210610803Y-104231485D01*
X210693514Y-104314196D01*
X210693515Y-104314196D01*
X210693517Y-104314198D01*
X210798607Y-104365573D01*
X210832673Y-104370536D01*
X210866739Y-104375500D01*
X210866740Y-104375500D01*
X211233261Y-104375500D01*
X211255971Y-104372191D01*
X211301393Y-104365573D01*
X211406483Y-104314198D01*
X211489198Y-104231483D01*
X211540573Y-104126393D01*
X211550500Y-104058260D01*
X211550500Y-102241740D01*
X211550500Y-102213676D01*
X211559144Y-102184235D01*
X211565668Y-102154249D01*
X211569422Y-102149233D01*
X211570185Y-102146637D01*
X211586819Y-102125995D01*
X211607819Y-102104995D01*
X211669142Y-102071510D01*
X211738834Y-102076494D01*
X211794767Y-102118366D01*
X211819184Y-102183830D01*
X211819500Y-102192676D01*
X211819500Y-104058260D01*
X211829426Y-104126391D01*
X211880803Y-104231485D01*
X211963514Y-104314196D01*
X211963515Y-104314196D01*
X211963517Y-104314198D01*
X212068607Y-104365573D01*
X212102673Y-104370536D01*
X212136739Y-104375500D01*
X212136740Y-104375500D01*
X212503261Y-104375500D01*
X212525971Y-104372191D01*
X212571393Y-104365573D01*
X212676483Y-104314198D01*
X212759198Y-104231483D01*
X212810573Y-104126393D01*
X212820500Y-104058260D01*
X212820500Y-102241740D01*
X212820500Y-101978000D01*
X212840185Y-101910961D01*
X212892989Y-101865206D01*
X212944500Y-101854000D01*
X213065956Y-101854000D01*
X213132995Y-101873685D01*
X213178750Y-101926489D01*
X213188694Y-101995647D01*
X213159669Y-102059203D01*
X213153637Y-102065681D01*
X213150803Y-102068514D01*
X213099426Y-102173608D01*
X213089500Y-102241739D01*
X213089500Y-104058260D01*
X213099426Y-104126391D01*
X213150803Y-104231485D01*
X213233514Y-104314196D01*
X213233515Y-104314196D01*
X213233517Y-104314198D01*
X213338607Y-104365573D01*
X213372673Y-104370536D01*
X213406739Y-104375500D01*
X213406740Y-104375500D01*
X213773261Y-104375500D01*
X213795971Y-104372191D01*
X213841393Y-104365573D01*
X213946483Y-104314198D01*
X214029198Y-104231483D01*
X214080573Y-104126393D01*
X214090500Y-104058260D01*
X214090500Y-102241740D01*
X214080573Y-102173607D01*
X214029198Y-102068517D01*
X214029196Y-102068515D01*
X214029196Y-102068514D01*
X214026363Y-102065681D01*
X214023726Y-102060852D01*
X214023227Y-102060153D01*
X214023311Y-102060092D01*
X214015750Y-102046244D01*
X214001250Y-102029511D01*
X213999333Y-102016179D01*
X213992878Y-102004358D01*
X213994457Y-101982271D01*
X213991306Y-101960353D01*
X213996901Y-101948101D01*
X213997862Y-101934666D01*
X214011132Y-101916939D01*
X214020331Y-101896797D01*
X214031662Y-101889514D01*
X214039734Y-101878733D01*
X214060479Y-101870995D01*
X214079109Y-101859023D01*
X214101027Y-101855871D01*
X214105198Y-101854316D01*
X214114044Y-101854000D01*
X214335956Y-101854000D01*
X214402995Y-101873685D01*
X214448750Y-101926489D01*
X214458694Y-101995647D01*
X214429669Y-102059203D01*
X214423637Y-102065681D01*
X214420803Y-102068514D01*
X214369426Y-102173608D01*
X214359500Y-102241739D01*
X214359500Y-104058260D01*
X214369426Y-104126391D01*
X214420803Y-104231485D01*
X214503514Y-104314196D01*
X214503515Y-104314196D01*
X214503517Y-104314198D01*
X214608607Y-104365573D01*
X214642673Y-104370536D01*
X214676739Y-104375500D01*
X214676740Y-104375500D01*
X215043261Y-104375500D01*
X215065971Y-104372191D01*
X215111393Y-104365573D01*
X215216483Y-104314198D01*
X215299198Y-104231483D01*
X215350573Y-104126393D01*
X215360500Y-104058260D01*
X215360500Y-104058217D01*
X215630001Y-104058217D01*
X215639912Y-104126249D01*
X215691215Y-104231191D01*
X215773808Y-104313784D01*
X215878755Y-104365089D01*
X215880000Y-104365269D01*
X216380000Y-104365269D01*
X216381244Y-104365089D01*
X216486191Y-104313784D01*
X216568787Y-104231188D01*
X216620087Y-104126251D01*
X216620088Y-104126248D01*
X216630000Y-104058219D01*
X216630000Y-103400000D01*
X216380000Y-103400000D01*
X216380000Y-104365269D01*
X215880000Y-104365269D01*
X215880000Y-103400000D01*
X215630001Y-103400000D01*
X215630001Y-104058217D01*
X215360500Y-104058217D01*
X215360500Y-102241740D01*
X215350573Y-102173607D01*
X215299198Y-102068517D01*
X215299196Y-102068515D01*
X215299196Y-102068514D01*
X215296363Y-102065681D01*
X215293726Y-102060852D01*
X215293227Y-102060153D01*
X215293311Y-102060092D01*
X215285750Y-102046244D01*
X215271250Y-102029511D01*
X215269333Y-102016179D01*
X215262878Y-102004358D01*
X215264457Y-101982271D01*
X215261306Y-101960353D01*
X215266901Y-101948101D01*
X215267862Y-101934666D01*
X215281132Y-101916939D01*
X215290331Y-101896797D01*
X215301662Y-101889514D01*
X215309734Y-101878733D01*
X215330479Y-101870995D01*
X215349109Y-101859023D01*
X215371027Y-101855871D01*
X215375198Y-101854316D01*
X215384044Y-101854000D01*
X215606662Y-101854000D01*
X215673701Y-101873685D01*
X215719456Y-101926489D01*
X215729400Y-101995647D01*
X215700375Y-102059203D01*
X215694343Y-102065681D01*
X215691214Y-102068809D01*
X215691212Y-102068811D01*
X215639912Y-102173748D01*
X215639911Y-102173751D01*
X215630000Y-102241780D01*
X215630000Y-102900000D01*
X216629999Y-102900000D01*
X216629999Y-102241782D01*
X216620087Y-102173750D01*
X216568784Y-102068808D01*
X216565657Y-102065681D01*
X216532172Y-102004358D01*
X216537156Y-101934666D01*
X216579028Y-101878733D01*
X216644492Y-101854316D01*
X216653338Y-101854000D01*
X217300000Y-101854000D01*
X217367039Y-101873685D01*
X217412794Y-101926489D01*
X217424000Y-101978000D01*
X217424000Y-105540000D01*
X217404315Y-105607039D01*
X217351511Y-105652794D01*
X217300000Y-105664000D01*
X214122000Y-105664000D01*
X214122000Y-113675500D01*
X214102315Y-113742539D01*
X214049511Y-113788294D01*
X213998000Y-113799500D01*
X202554500Y-113799500D01*
X202487461Y-113779815D01*
X202441706Y-113727011D01*
X202430500Y-113675500D01*
X202430500Y-112153946D01*
X203249999Y-112153946D01*
X203276899Y-112289176D01*
X203276902Y-112289186D01*
X203329664Y-112416566D01*
X203329671Y-112416579D01*
X203406275Y-112531226D01*
X203503773Y-112628724D01*
X203618420Y-112705328D01*
X203618424Y-112705330D01*
X203700000Y-112739119D01*
X203700000Y-112251988D01*
X203709940Y-112269205D01*
X203765795Y-112325060D01*
X203834204Y-112364556D01*
X203910504Y-112385000D01*
X203989496Y-112385000D01*
X204065796Y-112364556D01*
X204134205Y-112325060D01*
X204190060Y-112269205D01*
X204200000Y-112251988D01*
X204200000Y-112739118D01*
X204281575Y-112705330D01*
X204281579Y-112705328D01*
X204396226Y-112628724D01*
X204493724Y-112531226D01*
X204570328Y-112416579D01*
X204570335Y-112416566D01*
X204623097Y-112289186D01*
X204623100Y-112289176D01*
X204650000Y-112153946D01*
X211889999Y-112153946D01*
X211916899Y-112289176D01*
X211916902Y-112289186D01*
X211969664Y-112416566D01*
X211969671Y-112416579D01*
X212046275Y-112531226D01*
X212143773Y-112628724D01*
X212258420Y-112705328D01*
X212258424Y-112705330D01*
X212340000Y-112739119D01*
X212340000Y-112251988D01*
X212349940Y-112269205D01*
X212405795Y-112325060D01*
X212474204Y-112364556D01*
X212550504Y-112385000D01*
X212629496Y-112385000D01*
X212705796Y-112364556D01*
X212774205Y-112325060D01*
X212830060Y-112269205D01*
X212840000Y-112251988D01*
X212840000Y-112739118D01*
X212921575Y-112705330D01*
X212921579Y-112705328D01*
X213036226Y-112628724D01*
X213133724Y-112531226D01*
X213210328Y-112416579D01*
X213210335Y-112416566D01*
X213263097Y-112289186D01*
X213263100Y-112289176D01*
X213290000Y-112153946D01*
X213290000Y-111935000D01*
X212890000Y-111935000D01*
X212890000Y-111435000D01*
X213290000Y-111435000D01*
X213290000Y-111216053D01*
X213263100Y-111080823D01*
X213263097Y-111080813D01*
X213210335Y-110953433D01*
X213210328Y-110953420D01*
X213133724Y-110838773D01*
X213036226Y-110741275D01*
X212921573Y-110664667D01*
X212840000Y-110630879D01*
X212840000Y-111118011D01*
X212830060Y-111100795D01*
X212774205Y-111044940D01*
X212705796Y-111005444D01*
X212629496Y-110985000D01*
X212550504Y-110985000D01*
X212474204Y-111005444D01*
X212405795Y-111044940D01*
X212349940Y-111100795D01*
X212340000Y-111118011D01*
X212340000Y-110630879D01*
X212339999Y-110630879D01*
X212258426Y-110664667D01*
X212143773Y-110741275D01*
X212046275Y-110838773D01*
X211969671Y-110953420D01*
X211969664Y-110953433D01*
X211916902Y-111080813D01*
X211916899Y-111080823D01*
X211890000Y-111216053D01*
X211890000Y-111435000D01*
X212290000Y-111435000D01*
X212290000Y-111935000D01*
X211890000Y-111935000D01*
X211890000Y-112153946D01*
X211889999Y-112153946D01*
X204650000Y-112153946D01*
X204650000Y-111935000D01*
X204250000Y-111935000D01*
X204250000Y-111435000D01*
X204650000Y-111435000D01*
X204650000Y-111216053D01*
X204623100Y-111080823D01*
X204623097Y-111080813D01*
X204570335Y-110953433D01*
X204570328Y-110953420D01*
X204493724Y-110838773D01*
X204396226Y-110741275D01*
X204281573Y-110664667D01*
X204200000Y-110630879D01*
X204200000Y-111118011D01*
X204190060Y-111100795D01*
X204134205Y-111044940D01*
X204065796Y-111005444D01*
X203989496Y-110985000D01*
X203910504Y-110985000D01*
X203834204Y-111005444D01*
X203765795Y-111044940D01*
X203709940Y-111100795D01*
X203700000Y-111118011D01*
X203700000Y-110630879D01*
X203699999Y-110630879D01*
X203618426Y-110664667D01*
X203503773Y-110741275D01*
X203406275Y-110838773D01*
X203329671Y-110953420D01*
X203329664Y-110953433D01*
X203276902Y-111080813D01*
X203276899Y-111080823D01*
X203250000Y-111216053D01*
X203250000Y-111435000D01*
X203650000Y-111435000D01*
X203650000Y-111935000D01*
X203250000Y-111935000D01*
X203250000Y-112153946D01*
X203249999Y-112153946D01*
X202430500Y-112153946D01*
X202430500Y-105093449D01*
X203670001Y-105093449D01*
X203685762Y-105192967D01*
X203746883Y-105312923D01*
X203746886Y-105312928D01*
X203842071Y-105408113D01*
X203842076Y-105408116D01*
X203962034Y-105469239D01*
X204061543Y-105484999D01*
X204061554Y-105485000D01*
X204069999Y-105484999D01*
X204570000Y-105484999D01*
X204578449Y-105484999D01*
X204677967Y-105469237D01*
X204797923Y-105408116D01*
X204797928Y-105408113D01*
X204893113Y-105312928D01*
X204893116Y-105312923D01*
X204954239Y-105192966D01*
X204970000Y-105093456D01*
X204970000Y-105060000D01*
X204570000Y-105060000D01*
X204570000Y-105484999D01*
X204069999Y-105484999D01*
X204070000Y-105484998D01*
X204070000Y-105060000D01*
X203670001Y-105060000D01*
X203670001Y-105093449D01*
X202430500Y-105093449D01*
X202430500Y-104526543D01*
X203670000Y-104526543D01*
X203670000Y-104560000D01*
X204070000Y-104560000D01*
X204570000Y-104560000D01*
X204969999Y-104560000D01*
X204969999Y-104526550D01*
X204954237Y-104427032D01*
X204893116Y-104307076D01*
X204893113Y-104307071D01*
X204797928Y-104211886D01*
X204797923Y-104211883D01*
X204677965Y-104150760D01*
X204677966Y-104150760D01*
X204578456Y-104135000D01*
X204570000Y-104135000D01*
X204570000Y-104560000D01*
X204070000Y-104560000D01*
X204070000Y-104135000D01*
X204069999Y-104135000D01*
X204061553Y-104135001D01*
X204061547Y-104135001D01*
X203962032Y-104150762D01*
X203842076Y-104211883D01*
X203842071Y-104211886D01*
X203746886Y-104307071D01*
X203746883Y-104307076D01*
X203685760Y-104427033D01*
X203670000Y-104526543D01*
X202430500Y-104526543D01*
X202430500Y-102581250D01*
X202450185Y-102514211D01*
X202502989Y-102468456D01*
X202572147Y-102458512D01*
X202623390Y-102478148D01*
X202702400Y-102530940D01*
X202702401Y-102530940D01*
X202702402Y-102530941D01*
X202893580Y-102610130D01*
X203096530Y-102650499D01*
X203096534Y-102650500D01*
X203096535Y-102650500D01*
X203303466Y-102650500D01*
X203303467Y-102650499D01*
X203506420Y-102610130D01*
X203697598Y-102530941D01*
X203869655Y-102415977D01*
X204015977Y-102269655D01*
X204130941Y-102097598D01*
X204200136Y-101930546D01*
X204243977Y-101876144D01*
X204310271Y-101854079D01*
X204314697Y-101854000D01*
X205075839Y-101854000D01*
X205142878Y-101873685D01*
G37*
%TD.AperFunction*%
%TD*%
%TA.AperFunction,Conductor*%
%TO.N,GND*%
G36*
X215895165Y-76741163D02*
G01*
X215898892Y-76743558D01*
X215936768Y-76768867D01*
X215936770Y-76768868D01*
X215995247Y-76780499D01*
X215995250Y-76780500D01*
X215995252Y-76780500D01*
X216504167Y-76780500D01*
X216571206Y-76800185D01*
X216591848Y-76816819D01*
X217882540Y-78107511D01*
X217938489Y-78163460D01*
X217938491Y-78163461D01*
X217938495Y-78163464D01*
X217973199Y-78183500D01*
X218007011Y-78203021D01*
X218083438Y-78223500D01*
X218162562Y-78223500D01*
X223959670Y-78223500D01*
X224026709Y-78243185D01*
X224047351Y-78259819D01*
X224285182Y-78497650D01*
X224318667Y-78558973D01*
X224321501Y-78585331D01*
X224321501Y-82387166D01*
X224321501Y-82466290D01*
X224324998Y-82479339D01*
X224341980Y-82542715D01*
X224341980Y-82542716D01*
X224381540Y-82611238D01*
X224381542Y-82611240D01*
X224977181Y-83206876D01*
X225010666Y-83268199D01*
X225013500Y-83294557D01*
X225013500Y-85089167D01*
X224993815Y-85156206D01*
X224941011Y-85201961D01*
X224871853Y-85211905D01*
X224808297Y-85182880D01*
X224801819Y-85176848D01*
X224284512Y-84659541D01*
X224284507Y-84659537D01*
X224251462Y-84640459D01*
X224251462Y-84640458D01*
X224251460Y-84640458D01*
X224236432Y-84631782D01*
X224215990Y-84619979D01*
X224215991Y-84619979D01*
X224177775Y-84609739D01*
X224139562Y-84599500D01*
X224139560Y-84599500D01*
X217075833Y-84599500D01*
X217008794Y-84579815D01*
X216988152Y-84563181D01*
X216736819Y-84311848D01*
X216703334Y-84250525D01*
X216700500Y-84224167D01*
X216700500Y-83360439D01*
X216700500Y-83360438D01*
X216680021Y-83284011D01*
X216680019Y-83284007D01*
X216680019Y-83284006D01*
X216658437Y-83246625D01*
X217099500Y-83246625D01*
X217099500Y-84053365D01*
X217099502Y-84053388D01*
X217102317Y-84077659D01*
X217102318Y-84077662D01*
X217146186Y-84177015D01*
X217146187Y-84177016D01*
X217222984Y-84253813D01*
X217322338Y-84297682D01*
X217346627Y-84300500D01*
X218753372Y-84300499D01*
X218777662Y-84297682D01*
X218877016Y-84253813D01*
X218953813Y-84177016D01*
X218997682Y-84077662D01*
X219000500Y-84053373D01*
X219000499Y-83246628D01*
X219000499Y-83246625D01*
X221999500Y-83246625D01*
X221999500Y-84053365D01*
X221999502Y-84053388D01*
X222002317Y-84077659D01*
X222002318Y-84077662D01*
X222046186Y-84177015D01*
X222046187Y-84177016D01*
X222122984Y-84253813D01*
X222222338Y-84297682D01*
X222246627Y-84300500D01*
X223653372Y-84300499D01*
X223677662Y-84297682D01*
X223777016Y-84253813D01*
X223853813Y-84177016D01*
X223897682Y-84077662D01*
X223900500Y-84053373D01*
X223900499Y-83246628D01*
X223897682Y-83222338D01*
X223853813Y-83122984D01*
X223777016Y-83046187D01*
X223777014Y-83046186D01*
X223677663Y-83002318D01*
X223653373Y-82999500D01*
X222246634Y-82999500D01*
X222246611Y-82999502D01*
X222222340Y-83002317D01*
X222222337Y-83002318D01*
X222122984Y-83046186D01*
X222046187Y-83122983D01*
X222002318Y-83222335D01*
X222002318Y-83222337D01*
X221999500Y-83246625D01*
X219000499Y-83246625D01*
X219000499Y-83246622D01*
X218997682Y-83222340D01*
X218997682Y-83222338D01*
X218953813Y-83122984D01*
X218877016Y-83046187D01*
X218877014Y-83046186D01*
X218777663Y-83002318D01*
X218753373Y-82999500D01*
X217346634Y-82999500D01*
X217346611Y-82999502D01*
X217322340Y-83002317D01*
X217322337Y-83002318D01*
X217222984Y-83046186D01*
X217146187Y-83122983D01*
X217102318Y-83222335D01*
X217102318Y-83222337D01*
X217099500Y-83246625D01*
X216658437Y-83246625D01*
X216640464Y-83215495D01*
X216640458Y-83215487D01*
X216284512Y-82859541D01*
X216284504Y-82859535D01*
X216246627Y-82837667D01*
X216246623Y-82837666D01*
X216235934Y-82831494D01*
X216215990Y-82819979D01*
X216215991Y-82819979D01*
X216177775Y-82809739D01*
X216139562Y-82799500D01*
X216139560Y-82799500D01*
X215602140Y-82799500D01*
X215540140Y-82782887D01*
X215448886Y-82730201D01*
X215334309Y-82699500D01*
X215215691Y-82699500D01*
X215101114Y-82730201D01*
X215101112Y-82730201D01*
X215101112Y-82730202D01*
X214998387Y-82789511D01*
X214998384Y-82789513D01*
X214914513Y-82873384D01*
X214914511Y-82873387D01*
X214855201Y-82976114D01*
X214824500Y-83090691D01*
X214824500Y-83209309D01*
X214855201Y-83323886D01*
X214914511Y-83426613D01*
X214998387Y-83510489D01*
X214998390Y-83510491D01*
X215001482Y-83512863D01*
X215003433Y-83515535D01*
X215004134Y-83516236D01*
X215004024Y-83516345D01*
X215042687Y-83569289D01*
X215050000Y-83611242D01*
X215050000Y-83825000D01*
X215451000Y-83825000D01*
X215518039Y-83844685D01*
X215563794Y-83897489D01*
X215575000Y-83949000D01*
X215575000Y-84201000D01*
X215555315Y-84268039D01*
X215502511Y-84313794D01*
X215451000Y-84325000D01*
X215050000Y-84325000D01*
X215050000Y-84475500D01*
X215030315Y-84542539D01*
X214977511Y-84588294D01*
X214926000Y-84599500D01*
X214074500Y-84599500D01*
X214007461Y-84579815D01*
X213961706Y-84527011D01*
X213950500Y-84475500D01*
X213950500Y-83530249D01*
X213950499Y-83530247D01*
X213938868Y-83471770D01*
X213938867Y-83471769D01*
X213894552Y-83405447D01*
X213828230Y-83361132D01*
X213828229Y-83361131D01*
X213825309Y-83360551D01*
X213819532Y-83357529D01*
X213816946Y-83356458D01*
X213817041Y-83356226D01*
X213763398Y-83328166D01*
X213728824Y-83267451D01*
X213725500Y-83238934D01*
X213725500Y-80761065D01*
X213727780Y-80753301D01*
X217100000Y-80753301D01*
X217102813Y-80777545D01*
X217102814Y-80777551D01*
X217146607Y-80876729D01*
X217223270Y-80953392D01*
X217322448Y-80997185D01*
X217322454Y-80997186D01*
X217346698Y-80999999D01*
X217346704Y-81000000D01*
X217800000Y-81000000D01*
X218300000Y-81000000D01*
X218753296Y-81000000D01*
X218753301Y-80999999D01*
X218777545Y-80997186D01*
X218777551Y-80997185D01*
X218876729Y-80953392D01*
X218953392Y-80876729D01*
X218997185Y-80777551D01*
X218997186Y-80777545D01*
X218999999Y-80753301D01*
X219000000Y-80753295D01*
X219000000Y-80600000D01*
X218300000Y-80600000D01*
X218300000Y-81000000D01*
X217800000Y-81000000D01*
X217800000Y-80600000D01*
X217100000Y-80600000D01*
X217100000Y-80753301D01*
X213727780Y-80753301D01*
X213745185Y-80694026D01*
X213797989Y-80648271D01*
X213825311Y-80639447D01*
X213828231Y-80638867D01*
X213894552Y-80594552D01*
X213938867Y-80528231D01*
X213938867Y-80528229D01*
X213938868Y-80528229D01*
X213950499Y-80469752D01*
X213950500Y-80469750D01*
X213950500Y-80469702D01*
X215050000Y-80469702D01*
X215061602Y-80528033D01*
X215061603Y-80528034D01*
X215105808Y-80594191D01*
X215171965Y-80638396D01*
X215171966Y-80638397D01*
X215230297Y-80649999D01*
X215230301Y-80650000D01*
X215325000Y-80650000D01*
X215825000Y-80650000D01*
X215919699Y-80650000D01*
X215919702Y-80649999D01*
X215978033Y-80638397D01*
X215978034Y-80638396D01*
X216044191Y-80594191D01*
X216088395Y-80528035D01*
X216089109Y-80524450D01*
X216089109Y-80524449D01*
X216089110Y-80524446D01*
X216099999Y-80469699D01*
X216100000Y-80469699D01*
X216100000Y-80175000D01*
X215825000Y-80175000D01*
X215825000Y-80650000D01*
X215325000Y-80650000D01*
X215325000Y-80175000D01*
X215050000Y-80175000D01*
X215050000Y-80469702D01*
X213950500Y-80469702D01*
X213950500Y-79946698D01*
X217100000Y-79946698D01*
X217100000Y-80100000D01*
X217800000Y-80100000D01*
X218300000Y-80100000D01*
X219000000Y-80100000D01*
X219000000Y-79946701D01*
X218999991Y-79946625D01*
X221999500Y-79946625D01*
X221999500Y-80753365D01*
X221999502Y-80753388D01*
X222002317Y-80777659D01*
X222002318Y-80777662D01*
X222046186Y-80877015D01*
X222046187Y-80877016D01*
X222122984Y-80953813D01*
X222222338Y-80997682D01*
X222246627Y-81000500D01*
X223653372Y-81000499D01*
X223677662Y-80997682D01*
X223777016Y-80953813D01*
X223853813Y-80877016D01*
X223897682Y-80777662D01*
X223900500Y-80753373D01*
X223900499Y-79946628D01*
X223897682Y-79922338D01*
X223853813Y-79822984D01*
X223777016Y-79746187D01*
X223777014Y-79746186D01*
X223677663Y-79702318D01*
X223653373Y-79699500D01*
X222246634Y-79699500D01*
X222246611Y-79699502D01*
X222222340Y-79702317D01*
X222222337Y-79702318D01*
X222122984Y-79746186D01*
X222046187Y-79822983D01*
X222002318Y-79922335D01*
X222002318Y-79922337D01*
X221999500Y-79946625D01*
X218999991Y-79946625D01*
X218997186Y-79922454D01*
X218997185Y-79922448D01*
X218953392Y-79823270D01*
X218876729Y-79746607D01*
X218777551Y-79702814D01*
X218777545Y-79702813D01*
X218753301Y-79700000D01*
X218300000Y-79700000D01*
X218300000Y-80100000D01*
X217800000Y-80100000D01*
X217800000Y-79700000D01*
X217346698Y-79700000D01*
X217322454Y-79702813D01*
X217322448Y-79702814D01*
X217223270Y-79746607D01*
X217146607Y-79823270D01*
X217102814Y-79922448D01*
X217102813Y-79922454D01*
X217100000Y-79946698D01*
X213950500Y-79946698D01*
X213950500Y-79380297D01*
X215050000Y-79380297D01*
X215050000Y-79675000D01*
X215325000Y-79675000D01*
X215825000Y-79675000D01*
X216100000Y-79675000D01*
X216100000Y-79380301D01*
X216099999Y-79380297D01*
X216088397Y-79321966D01*
X216088396Y-79321965D01*
X216044191Y-79255808D01*
X215978034Y-79211603D01*
X215978033Y-79211602D01*
X215919702Y-79200000D01*
X215825000Y-79200000D01*
X215825000Y-79675000D01*
X215325000Y-79675000D01*
X215325000Y-79200000D01*
X215230297Y-79200000D01*
X215171966Y-79211602D01*
X215171965Y-79211603D01*
X215105808Y-79255808D01*
X215061603Y-79321965D01*
X215061602Y-79321966D01*
X215050000Y-79380297D01*
X213950500Y-79380297D01*
X213950500Y-79380249D01*
X213950499Y-79380247D01*
X213938868Y-79321770D01*
X213938867Y-79321769D01*
X213894552Y-79255447D01*
X213828230Y-79211132D01*
X213828229Y-79211131D01*
X213769752Y-79199500D01*
X213769748Y-79199500D01*
X213080252Y-79199500D01*
X213080247Y-79199500D01*
X213021770Y-79211131D01*
X213021769Y-79211132D01*
X212955447Y-79255447D01*
X212911132Y-79321769D01*
X212911131Y-79321770D01*
X212899500Y-79380247D01*
X212899500Y-80469752D01*
X212911131Y-80528229D01*
X212911132Y-80528230D01*
X212955447Y-80594552D01*
X213021767Y-80638866D01*
X213021769Y-80638867D01*
X213024684Y-80639447D01*
X213030461Y-80642467D01*
X213033054Y-80643542D01*
X213032957Y-80643773D01*
X213086597Y-80671827D01*
X213121175Y-80732541D01*
X213124500Y-80761065D01*
X213124500Y-83238934D01*
X213104815Y-83305973D01*
X213052011Y-83351728D01*
X213024691Y-83360551D01*
X213021770Y-83361131D01*
X213021769Y-83361132D01*
X212955447Y-83405447D01*
X212911132Y-83471769D01*
X212911131Y-83471770D01*
X212899500Y-83530247D01*
X212899500Y-84475500D01*
X212879815Y-84542539D01*
X212827011Y-84588294D01*
X212775500Y-84599500D01*
X211802581Y-84599500D01*
X211790819Y-84596813D01*
X211782401Y-84597847D01*
X211759542Y-84589670D01*
X211748749Y-84587205D01*
X211744577Y-84585194D01*
X211700378Y-84559676D01*
X211680661Y-84554392D01*
X211670168Y-84549336D01*
X211652533Y-84533406D01*
X211632245Y-84521039D01*
X211627085Y-84510417D01*
X211618321Y-84502500D01*
X211612097Y-84479562D01*
X211601717Y-84458192D01*
X211600000Y-84437631D01*
X211600000Y-84325000D01*
X211325000Y-84325000D01*
X211325000Y-84504023D01*
X211305315Y-84571062D01*
X211263002Y-84611409D01*
X211249879Y-84618985D01*
X211166002Y-84702862D01*
X211108159Y-84803050D01*
X211106693Y-84805589D01*
X211075992Y-84920166D01*
X211075992Y-84920168D01*
X211075992Y-85022646D01*
X211056307Y-85089685D01*
X211039673Y-85110327D01*
X211025000Y-85125000D01*
X211025000Y-85550000D01*
X211424999Y-85550000D01*
X211426651Y-85548347D01*
X211444684Y-85486936D01*
X211497488Y-85441181D01*
X211548999Y-85429975D01*
X211585798Y-85429975D01*
X211585801Y-85429975D01*
X211700378Y-85399274D01*
X211803105Y-85339964D01*
X211886981Y-85256088D01*
X211886985Y-85256080D01*
X211891929Y-85249639D01*
X211894609Y-85251696D01*
X211933846Y-85214284D01*
X211990666Y-85200500D01*
X213003668Y-85200500D01*
X213070707Y-85220185D01*
X213116462Y-85272989D01*
X213126406Y-85342147D01*
X213121598Y-85362822D01*
X213120279Y-85366879D01*
X213104500Y-85466506D01*
X213104500Y-86033493D01*
X213120279Y-86133121D01*
X213120280Y-86133124D01*
X213120281Y-86133126D01*
X213181472Y-86253220D01*
X213181473Y-86253221D01*
X213181476Y-86253225D01*
X213276774Y-86348523D01*
X213276778Y-86348526D01*
X213276780Y-86348528D01*
X213396874Y-86409719D01*
X213396876Y-86409719D01*
X213396878Y-86409720D01*
X213496507Y-86425500D01*
X213496512Y-86425500D01*
X214013493Y-86425500D01*
X214113121Y-86409720D01*
X214113121Y-86409719D01*
X214113126Y-86409719D01*
X214233220Y-86348528D01*
X214328528Y-86253220D01*
X214389719Y-86133126D01*
X214389744Y-86132967D01*
X214405500Y-86033493D01*
X214405500Y-86033449D01*
X214655001Y-86033449D01*
X214670762Y-86132967D01*
X214731883Y-86252923D01*
X214731886Y-86252928D01*
X214827071Y-86348113D01*
X214827076Y-86348116D01*
X214947034Y-86409239D01*
X215046543Y-86424999D01*
X215046554Y-86425000D01*
X215054999Y-86424999D01*
X215555000Y-86424999D01*
X215563449Y-86424999D01*
X215662967Y-86409237D01*
X215782923Y-86348116D01*
X215782928Y-86348113D01*
X215878113Y-86252928D01*
X215878116Y-86252923D01*
X215939239Y-86132966D01*
X215955000Y-86033456D01*
X215955000Y-86000000D01*
X215555000Y-86000000D01*
X215555000Y-86424999D01*
X215054999Y-86424999D01*
X215055000Y-86424998D01*
X215055000Y-86000000D01*
X214655001Y-86000000D01*
X214655001Y-86033449D01*
X214405500Y-86033449D01*
X214405500Y-85466506D01*
X214389720Y-85366879D01*
X214389719Y-85366877D01*
X214389719Y-85366874D01*
X214389717Y-85366870D01*
X214388402Y-85362822D01*
X214388253Y-85357614D01*
X214388193Y-85357235D01*
X214388242Y-85357227D01*
X214387597Y-85334698D01*
X214383594Y-85306853D01*
X214386612Y-85300243D01*
X214386405Y-85292981D01*
X214400931Y-85268890D01*
X214412619Y-85243297D01*
X214418731Y-85239368D01*
X214422483Y-85233147D01*
X214447728Y-85220733D01*
X214471397Y-85205523D01*
X214481665Y-85204046D01*
X214485183Y-85202317D01*
X214506332Y-85200500D01*
X214554200Y-85200500D01*
X214621239Y-85220185D01*
X214666994Y-85272989D01*
X214676938Y-85342147D01*
X214672130Y-85362822D01*
X214670760Y-85367036D01*
X214655000Y-85466543D01*
X214655000Y-85500000D01*
X215954999Y-85500000D01*
X215954999Y-85466550D01*
X215939236Y-85367026D01*
X215937870Y-85362820D01*
X215937715Y-85357421D01*
X215937711Y-85357392D01*
X215937714Y-85357391D01*
X215935873Y-85292979D01*
X215971953Y-85233145D01*
X216034654Y-85202316D01*
X216055800Y-85200500D01*
X216860438Y-85200500D01*
X223924167Y-85200500D01*
X223991206Y-85220185D01*
X224011848Y-85236819D01*
X224626181Y-85851152D01*
X224659666Y-85912475D01*
X224662500Y-85938833D01*
X224662500Y-88280899D01*
X224677772Y-88337894D01*
X224682979Y-88357326D01*
X224697257Y-88382055D01*
X224697258Y-88382059D01*
X224697259Y-88382059D01*
X224722539Y-88425846D01*
X224722541Y-88425849D01*
X225358181Y-89061489D01*
X225391666Y-89122812D01*
X225394500Y-89149170D01*
X225394500Y-92804165D01*
X225374815Y-92871204D01*
X225358181Y-92891846D01*
X225087181Y-93162846D01*
X225025858Y-93196331D01*
X224956166Y-93191347D01*
X224900233Y-93149475D01*
X224875816Y-93084011D01*
X224875500Y-93075165D01*
X224875500Y-92816739D01*
X224865573Y-92748608D01*
X224865573Y-92748607D01*
X224814198Y-92643517D01*
X224814196Y-92643515D01*
X224814196Y-92643514D01*
X224758363Y-92587681D01*
X224724878Y-92526358D01*
X224729862Y-92456666D01*
X224758363Y-92412319D01*
X224814196Y-92356485D01*
X224814198Y-92356483D01*
X224865573Y-92251393D01*
X224875500Y-92183260D01*
X224875500Y-91816740D01*
X224873158Y-91800669D01*
X224865573Y-91748608D01*
X224865573Y-91748607D01*
X224814198Y-91643517D01*
X224814196Y-91643515D01*
X224814196Y-91643514D01*
X224758363Y-91587681D01*
X224724878Y-91526358D01*
X224729862Y-91456666D01*
X224758363Y-91412319D01*
X224814196Y-91356485D01*
X224814198Y-91356483D01*
X224865573Y-91251393D01*
X224875500Y-91183260D01*
X224875500Y-90816740D01*
X224865573Y-90748607D01*
X224814198Y-90643517D01*
X224814196Y-90643515D01*
X224814196Y-90643514D01*
X224758363Y-90587681D01*
X224724878Y-90526358D01*
X224729862Y-90456666D01*
X224758363Y-90412319D01*
X224814196Y-90356485D01*
X224814198Y-90356483D01*
X224865573Y-90251393D01*
X224875500Y-90183260D01*
X224875500Y-89816740D01*
X224865573Y-89748607D01*
X224814198Y-89643517D01*
X224814196Y-89643515D01*
X224814196Y-89643514D01*
X224731485Y-89560803D01*
X224626391Y-89509426D01*
X224558261Y-89499500D01*
X224558260Y-89499500D01*
X223116740Y-89499500D01*
X223116739Y-89499500D01*
X223048608Y-89509426D01*
X222992408Y-89536901D01*
X222948567Y-89547043D01*
X222948751Y-89548439D01*
X222940694Y-89549499D01*
X222927009Y-89553166D01*
X222826114Y-89580201D01*
X222826112Y-89580201D01*
X222826112Y-89580202D01*
X222723387Y-89639511D01*
X222723384Y-89639513D01*
X222639513Y-89723384D01*
X222639511Y-89723387D01*
X222580844Y-89825001D01*
X222580201Y-89826114D01*
X222549500Y-89940691D01*
X222549500Y-90059309D01*
X222580201Y-90173886D01*
X222639511Y-90276613D01*
X222723387Y-90360489D01*
X222824635Y-90418945D01*
X222826114Y-90419799D01*
X222833618Y-90422907D01*
X222832719Y-90425075D01*
X222882111Y-90455178D01*
X222912644Y-90518023D01*
X222904353Y-90587399D01*
X222878045Y-90626272D01*
X222860803Y-90643513D01*
X222809426Y-90748608D01*
X222799500Y-90816739D01*
X222799500Y-91183260D01*
X222809426Y-91251391D01*
X222860803Y-91356485D01*
X222916637Y-91412319D01*
X222950122Y-91473642D01*
X222945138Y-91543334D01*
X222916637Y-91587681D01*
X222860803Y-91643514D01*
X222809426Y-91748608D01*
X222799500Y-91816739D01*
X222799500Y-92183260D01*
X222809426Y-92251391D01*
X222860803Y-92356485D01*
X222878043Y-92373725D01*
X222911528Y-92435048D01*
X222906544Y-92504740D01*
X222864672Y-92560673D01*
X222833158Y-92575984D01*
X222833618Y-92577093D01*
X222826114Y-92580200D01*
X222723387Y-92639511D01*
X222723384Y-92639513D01*
X222639513Y-92723384D01*
X222639511Y-92723387D01*
X222624950Y-92748608D01*
X222580201Y-92826114D01*
X222549500Y-92940691D01*
X222549500Y-93059309D01*
X222580201Y-93173886D01*
X222639511Y-93276613D01*
X222723387Y-93360489D01*
X222822813Y-93417893D01*
X222826114Y-93419799D01*
X222833618Y-93422907D01*
X222832719Y-93425075D01*
X222882111Y-93455178D01*
X222912644Y-93518023D01*
X222904353Y-93587399D01*
X222878045Y-93626272D01*
X222860803Y-93643513D01*
X222809426Y-93748608D01*
X222799500Y-93816739D01*
X222799500Y-94183260D01*
X222809426Y-94251391D01*
X222860803Y-94356485D01*
X222943514Y-94439196D01*
X222943515Y-94439196D01*
X222943517Y-94439198D01*
X223048607Y-94490573D01*
X223082673Y-94495536D01*
X223116739Y-94500500D01*
X223116740Y-94500500D01*
X224558261Y-94500500D01*
X224580971Y-94497191D01*
X224626393Y-94490573D01*
X224731483Y-94439198D01*
X224814198Y-94356483D01*
X224814199Y-94356482D01*
X224869804Y-94242741D01*
X224871648Y-94243642D01*
X224894897Y-94205071D01*
X224915459Y-94184511D01*
X225815236Y-93284732D01*
X225876557Y-93251249D01*
X225946248Y-93256233D01*
X225990594Y-93284733D01*
X226345508Y-93639644D01*
X226391181Y-93685317D01*
X226424666Y-93746640D01*
X226427500Y-93772998D01*
X226427500Y-97723951D01*
X226441152Y-97774902D01*
X226447979Y-97800379D01*
X226447980Y-97800380D01*
X226465334Y-97830438D01*
X226487540Y-97868900D01*
X226764428Y-98145788D01*
X227013181Y-98394540D01*
X227046666Y-98455863D01*
X227049500Y-98482221D01*
X227049500Y-100389562D01*
X227069979Y-100465989D01*
X227101450Y-100520498D01*
X227101451Y-100520502D01*
X227109536Y-100534505D01*
X227109542Y-100534513D01*
X227612924Y-101037895D01*
X227646409Y-101099218D01*
X227641425Y-101168910D01*
X227639804Y-101173029D01*
X227589870Y-101293579D01*
X227589868Y-101293587D01*
X227549500Y-101496530D01*
X227549500Y-101703469D01*
X227589868Y-101906412D01*
X227589870Y-101906420D01*
X227669058Y-102097596D01*
X227784024Y-102269657D01*
X227930342Y-102415975D01*
X227930345Y-102415977D01*
X228102402Y-102530941D01*
X228293580Y-102610130D01*
X228465813Y-102644389D01*
X228496530Y-102650499D01*
X228496534Y-102650500D01*
X228496535Y-102650500D01*
X228703466Y-102650500D01*
X228703467Y-102650499D01*
X228906420Y-102610130D01*
X229097598Y-102530941D01*
X229097599Y-102530940D01*
X229097600Y-102530940D01*
X229176610Y-102478148D01*
X229243287Y-102457270D01*
X229310667Y-102475755D01*
X229357357Y-102527734D01*
X229369500Y-102581250D01*
X229369500Y-113675500D01*
X229349815Y-113742539D01*
X229297011Y-113788294D01*
X229245500Y-113799500D01*
X214451500Y-113799500D01*
X214384461Y-113779815D01*
X214338706Y-113727011D01*
X214327500Y-113675500D01*
X214327500Y-111316126D01*
X218460000Y-111316126D01*
X218460000Y-111440000D01*
X218910000Y-111440000D01*
X218910000Y-111940000D01*
X218460000Y-111940000D01*
X218460000Y-112063873D01*
X218488820Y-112208759D01*
X218488822Y-112208767D01*
X218545357Y-112345254D01*
X218545362Y-112345264D01*
X218627436Y-112468096D01*
X218627439Y-112468100D01*
X218731899Y-112572560D01*
X218731907Y-112572566D01*
X218854739Y-112654640D01*
X218854743Y-112654642D01*
X218959999Y-112698240D01*
X218960000Y-112698240D01*
X218960000Y-112156988D01*
X218969940Y-112174205D01*
X219025795Y-112230060D01*
X219094204Y-112269556D01*
X219170504Y-112290000D01*
X219249496Y-112290000D01*
X219325796Y-112269556D01*
X219394205Y-112230060D01*
X219450060Y-112174205D01*
X219460000Y-112156988D01*
X219460000Y-112698240D01*
X219565256Y-112654642D01*
X219565260Y-112654640D01*
X219688092Y-112572566D01*
X219688100Y-112572560D01*
X219792560Y-112468100D01*
X219792563Y-112468096D01*
X219874637Y-112345264D01*
X219874642Y-112345254D01*
X219931177Y-112208767D01*
X219931179Y-112208759D01*
X219959999Y-112063873D01*
X219960000Y-112063871D01*
X219960000Y-111940000D01*
X219510000Y-111940000D01*
X219510000Y-111440000D01*
X219960000Y-111440000D01*
X219960000Y-111316128D01*
X219959999Y-111316126D01*
X227100000Y-111316126D01*
X227100000Y-111440000D01*
X227550000Y-111440000D01*
X227550000Y-111940000D01*
X227100000Y-111940000D01*
X227100000Y-112063873D01*
X227128820Y-112208759D01*
X227128822Y-112208767D01*
X227185357Y-112345254D01*
X227185362Y-112345264D01*
X227267436Y-112468096D01*
X227267439Y-112468100D01*
X227371899Y-112572560D01*
X227371907Y-112572566D01*
X227494739Y-112654640D01*
X227494743Y-112654642D01*
X227599999Y-112698240D01*
X227600000Y-112698240D01*
X227600000Y-112156988D01*
X227609940Y-112174205D01*
X227665795Y-112230060D01*
X227734204Y-112269556D01*
X227810504Y-112290000D01*
X227889496Y-112290000D01*
X227965796Y-112269556D01*
X228034205Y-112230060D01*
X228090060Y-112174205D01*
X228100000Y-112156988D01*
X228100000Y-112698240D01*
X228205256Y-112654642D01*
X228205260Y-112654640D01*
X228328092Y-112572566D01*
X228328100Y-112572560D01*
X228432560Y-112468100D01*
X228432563Y-112468096D01*
X228514637Y-112345264D01*
X228514642Y-112345254D01*
X228571177Y-112208767D01*
X228571179Y-112208759D01*
X228599999Y-112063873D01*
X228600000Y-112063871D01*
X228600000Y-111940000D01*
X228150000Y-111940000D01*
X228150000Y-111440000D01*
X228600000Y-111440000D01*
X228600000Y-111316128D01*
X228599999Y-111316126D01*
X228571179Y-111171240D01*
X228571177Y-111171232D01*
X228514642Y-111034745D01*
X228514637Y-111034735D01*
X228432563Y-110911903D01*
X228432560Y-110911899D01*
X228328100Y-110807439D01*
X228328096Y-110807436D01*
X228205264Y-110725362D01*
X228205254Y-110725357D01*
X228100000Y-110681759D01*
X228100000Y-111223011D01*
X228090060Y-111205795D01*
X228034205Y-111149940D01*
X227965796Y-111110444D01*
X227889496Y-111090000D01*
X227810504Y-111090000D01*
X227734204Y-111110444D01*
X227665795Y-111149940D01*
X227609940Y-111205795D01*
X227600000Y-111223011D01*
X227600000Y-110681759D01*
X227599999Y-110681759D01*
X227494745Y-110725357D01*
X227494735Y-110725362D01*
X227371903Y-110807436D01*
X227371899Y-110807439D01*
X227267439Y-110911899D01*
X227267436Y-110911903D01*
X227185362Y-111034735D01*
X227185357Y-111034745D01*
X227128822Y-111171232D01*
X227128820Y-111171240D01*
X227100000Y-111316126D01*
X219959999Y-111316126D01*
X219931179Y-111171240D01*
X219931177Y-111171232D01*
X219874642Y-111034745D01*
X219874637Y-111034735D01*
X219792563Y-110911903D01*
X219792560Y-110911899D01*
X219688100Y-110807439D01*
X219688096Y-110807436D01*
X219565264Y-110725362D01*
X219565254Y-110725357D01*
X219460000Y-110681759D01*
X219460000Y-111223011D01*
X219450060Y-111205795D01*
X219394205Y-111149940D01*
X219325796Y-111110444D01*
X219249496Y-111090000D01*
X219170504Y-111090000D01*
X219094204Y-111110444D01*
X219025795Y-111149940D01*
X218969940Y-111205795D01*
X218960000Y-111223011D01*
X218960000Y-110681759D01*
X218959999Y-110681759D01*
X218854745Y-110725357D01*
X218854735Y-110725362D01*
X218731903Y-110807436D01*
X218731899Y-110807439D01*
X218627439Y-110911899D01*
X218627436Y-110911903D01*
X218545362Y-111034735D01*
X218545357Y-111034745D01*
X218488822Y-111171232D01*
X218488820Y-111171240D01*
X218460000Y-111316126D01*
X214327500Y-111316126D01*
X214327500Y-107516126D01*
X218460000Y-107516126D01*
X218460000Y-107640000D01*
X218910000Y-107640000D01*
X218910000Y-108140000D01*
X218460000Y-108140000D01*
X218460000Y-108263873D01*
X218488820Y-108408759D01*
X218488822Y-108408767D01*
X218545357Y-108545254D01*
X218545362Y-108545264D01*
X218627436Y-108668096D01*
X218627439Y-108668100D01*
X218731899Y-108772560D01*
X218731907Y-108772566D01*
X218854739Y-108854640D01*
X218854743Y-108854642D01*
X218959999Y-108898240D01*
X218960000Y-108898240D01*
X218960000Y-108356988D01*
X218969940Y-108374205D01*
X219025795Y-108430060D01*
X219094204Y-108469556D01*
X219170504Y-108490000D01*
X219249496Y-108490000D01*
X219325796Y-108469556D01*
X219394205Y-108430060D01*
X219450060Y-108374205D01*
X219460000Y-108356988D01*
X219460000Y-108898240D01*
X219565256Y-108854642D01*
X219565260Y-108854640D01*
X219688092Y-108772566D01*
X219688100Y-108772560D01*
X219792560Y-108668100D01*
X219792563Y-108668096D01*
X219874637Y-108545264D01*
X219874642Y-108545254D01*
X219931177Y-108408767D01*
X219931179Y-108408759D01*
X219948985Y-108319246D01*
X219981369Y-108257335D01*
X220042085Y-108222761D01*
X220111855Y-108226500D01*
X220168527Y-108267366D01*
X220193075Y-108324038D01*
X220194834Y-108335145D01*
X220194837Y-108335155D01*
X220252356Y-108448041D01*
X220252363Y-108448050D01*
X220341949Y-108537636D01*
X220341958Y-108537643D01*
X220454844Y-108595162D01*
X220454850Y-108595164D01*
X220530000Y-108607065D01*
X220530000Y-108060000D01*
X220180001Y-108060000D01*
X220180001Y-108060639D01*
X220160316Y-108127678D01*
X220107512Y-108173433D01*
X220038354Y-108183377D01*
X219974798Y-108154352D01*
X219968320Y-108148320D01*
X219960000Y-108140000D01*
X219510000Y-108140000D01*
X219510000Y-107640000D01*
X219960000Y-107640000D01*
X219960000Y-107639362D01*
X219979685Y-107572323D01*
X220032489Y-107526568D01*
X220101647Y-107516624D01*
X220165203Y-107545649D01*
X220171681Y-107551681D01*
X220180000Y-107560000D01*
X220530000Y-107560000D01*
X220530000Y-107012932D01*
X221030000Y-107012932D01*
X221030000Y-108607064D01*
X221105149Y-108595164D01*
X221105155Y-108595162D01*
X221218041Y-108537643D01*
X221218050Y-108537636D01*
X221314542Y-108441145D01*
X221317384Y-108443987D01*
X221357099Y-108413240D01*
X221426701Y-108407125D01*
X221488559Y-108439611D01*
X221496460Y-108448711D01*
X221587603Y-108539854D01*
X221587605Y-108539855D01*
X221587609Y-108539859D01*
X221697825Y-108596017D01*
X221697826Y-108596017D01*
X221697828Y-108596018D01*
X221732947Y-108601579D01*
X221789265Y-108610500D01*
X222230734Y-108610499D01*
X222230739Y-108610499D01*
X222230739Y-108610498D01*
X222276454Y-108603258D01*
X222322170Y-108596018D01*
X222322171Y-108596018D01*
X222322172Y-108596017D01*
X222322175Y-108596017D01*
X222432391Y-108539859D01*
X222442924Y-108529325D01*
X222504244Y-108495841D01*
X222573936Y-108500823D01*
X222618287Y-108529325D01*
X222633789Y-108544827D01*
X222736753Y-108595162D01*
X222746375Y-108599866D01*
X222819364Y-108610500D01*
X222819370Y-108610500D01*
X223240630Y-108610500D01*
X223240636Y-108610500D01*
X223313625Y-108599866D01*
X223371118Y-108571759D01*
X223426210Y-108544827D01*
X223426212Y-108544825D01*
X223442319Y-108528719D01*
X223503642Y-108495234D01*
X223573334Y-108500218D01*
X223617681Y-108528719D01*
X223633789Y-108544827D01*
X223736753Y-108595162D01*
X223746375Y-108599866D01*
X223819364Y-108610500D01*
X223819370Y-108610500D01*
X224240630Y-108610500D01*
X224240636Y-108610500D01*
X224313625Y-108599866D01*
X224371118Y-108571759D01*
X224426210Y-108544827D01*
X224441710Y-108529327D01*
X224503032Y-108495840D01*
X224572724Y-108500823D01*
X224617074Y-108529325D01*
X224627603Y-108539854D01*
X224627605Y-108539855D01*
X224627609Y-108539859D01*
X224737825Y-108596017D01*
X224737826Y-108596017D01*
X224737828Y-108596018D01*
X224772947Y-108601579D01*
X224829265Y-108610500D01*
X225270734Y-108610499D01*
X225270739Y-108610499D01*
X225270739Y-108610498D01*
X225316454Y-108603258D01*
X225362170Y-108596018D01*
X225362171Y-108596018D01*
X225362172Y-108596017D01*
X225362175Y-108596017D01*
X225472391Y-108539859D01*
X225517016Y-108495234D01*
X225566760Y-108445491D01*
X225568503Y-108447234D01*
X225612683Y-108413158D01*
X225682296Y-108407169D01*
X225744095Y-108439767D01*
X225745369Y-108441233D01*
X225745458Y-108441145D01*
X225841949Y-108537636D01*
X225841958Y-108537643D01*
X225954844Y-108595162D01*
X225954850Y-108595164D01*
X226030000Y-108607065D01*
X226030000Y-107012932D01*
X226530000Y-107012932D01*
X226530000Y-107560000D01*
X226879999Y-107560000D01*
X226888319Y-107551680D01*
X226949642Y-107518195D01*
X227019334Y-107523179D01*
X227075267Y-107565051D01*
X227099684Y-107630515D01*
X227100000Y-107639361D01*
X227100000Y-107640000D01*
X227550000Y-107640000D01*
X227550000Y-108140000D01*
X227100000Y-108140000D01*
X227091681Y-108148319D01*
X227030358Y-108181804D01*
X226960666Y-108176820D01*
X226904733Y-108134948D01*
X226880316Y-108069484D01*
X226880000Y-108060638D01*
X226880000Y-108060000D01*
X226530000Y-108060000D01*
X226530000Y-108607064D01*
X226605149Y-108595164D01*
X226605155Y-108595162D01*
X226718041Y-108537643D01*
X226718050Y-108537636D01*
X226807636Y-108448050D01*
X226807639Y-108448046D01*
X226865165Y-108335145D01*
X226866923Y-108324045D01*
X226896850Y-108260909D01*
X226956160Y-108223975D01*
X227026023Y-108224970D01*
X227084257Y-108263578D01*
X227111014Y-108319246D01*
X227128820Y-108408761D01*
X227128822Y-108408767D01*
X227185357Y-108545254D01*
X227185362Y-108545264D01*
X227267436Y-108668096D01*
X227267439Y-108668100D01*
X227371899Y-108772560D01*
X227371907Y-108772566D01*
X227494739Y-108854640D01*
X227494743Y-108854642D01*
X227599999Y-108898240D01*
X227600000Y-108898240D01*
X227600000Y-108356988D01*
X227609940Y-108374205D01*
X227665795Y-108430060D01*
X227734204Y-108469556D01*
X227810504Y-108490000D01*
X227889496Y-108490000D01*
X227965796Y-108469556D01*
X228034205Y-108430060D01*
X228090060Y-108374205D01*
X228100000Y-108356988D01*
X228100000Y-108898240D01*
X228205256Y-108854642D01*
X228205260Y-108854640D01*
X228328092Y-108772566D01*
X228328100Y-108772560D01*
X228432560Y-108668100D01*
X228432563Y-108668096D01*
X228514637Y-108545264D01*
X228514642Y-108545254D01*
X228571177Y-108408767D01*
X228571179Y-108408759D01*
X228599999Y-108263873D01*
X228600000Y-108263871D01*
X228600000Y-108140000D01*
X228150000Y-108140000D01*
X228150000Y-107640000D01*
X228600000Y-107640000D01*
X228600000Y-107516128D01*
X228599999Y-107516126D01*
X228571179Y-107371240D01*
X228571177Y-107371232D01*
X228514642Y-107234745D01*
X228514637Y-107234735D01*
X228432563Y-107111903D01*
X228432560Y-107111899D01*
X228328100Y-107007439D01*
X228328096Y-107007436D01*
X228205264Y-106925362D01*
X228205254Y-106925357D01*
X228100000Y-106881759D01*
X228100000Y-107423011D01*
X228090060Y-107405795D01*
X228034205Y-107349940D01*
X227965796Y-107310444D01*
X227889496Y-107290000D01*
X227810504Y-107290000D01*
X227734204Y-107310444D01*
X227665795Y-107349940D01*
X227609940Y-107405795D01*
X227600000Y-107423011D01*
X227600000Y-106881759D01*
X227599999Y-106881759D01*
X227494745Y-106925357D01*
X227494735Y-106925362D01*
X227371903Y-107007436D01*
X227371899Y-107007439D01*
X227267439Y-107111899D01*
X227267436Y-107111903D01*
X227185362Y-107234735D01*
X227185357Y-107234745D01*
X227128822Y-107371232D01*
X227128821Y-107371236D01*
X227125024Y-107390324D01*
X227092637Y-107452235D01*
X227031921Y-107486807D01*
X226962151Y-107483066D01*
X226905480Y-107442198D01*
X226882229Y-107383099D01*
X226880761Y-107383332D01*
X226865164Y-107284850D01*
X226865162Y-107284844D01*
X226807643Y-107171958D01*
X226807636Y-107171949D01*
X226718050Y-107082363D01*
X226718046Y-107082360D01*
X226605144Y-107024833D01*
X226530000Y-107012932D01*
X226030000Y-107012932D01*
X225954855Y-107024833D01*
X225841953Y-107082360D01*
X225841949Y-107082363D01*
X225745458Y-107178855D01*
X225742718Y-107176115D01*
X225701834Y-107207171D01*
X225632179Y-107212644D01*
X225570623Y-107179590D01*
X225563130Y-107170879D01*
X225472396Y-107080145D01*
X225472393Y-107080143D01*
X225472391Y-107080141D01*
X225362175Y-107023983D01*
X225362174Y-107023982D01*
X225362171Y-107023981D01*
X225270735Y-107009500D01*
X224829260Y-107009500D01*
X224829260Y-107009501D01*
X224737829Y-107023981D01*
X224737828Y-107023981D01*
X224627607Y-107080142D01*
X224627605Y-107080143D01*
X224617072Y-107090677D01*
X224555748Y-107124160D01*
X224486056Y-107119174D01*
X224441712Y-107090674D01*
X224426210Y-107075172D01*
X224313628Y-107020135D01*
X224313626Y-107020134D01*
X224313625Y-107020134D01*
X224240636Y-107009500D01*
X223819364Y-107009500D01*
X223746375Y-107020134D01*
X223746373Y-107020134D01*
X223746371Y-107020135D01*
X223633789Y-107075172D01*
X223633787Y-107075174D01*
X223617681Y-107091281D01*
X223556358Y-107124766D01*
X223486666Y-107119782D01*
X223442319Y-107091281D01*
X223426210Y-107075172D01*
X223313628Y-107020135D01*
X223313626Y-107020134D01*
X223313625Y-107020134D01*
X223240636Y-107009500D01*
X222819364Y-107009500D01*
X222746375Y-107020134D01*
X222746373Y-107020134D01*
X222746371Y-107020135D01*
X222633789Y-107075172D01*
X222618285Y-107090676D01*
X222556961Y-107124160D01*
X222487270Y-107119174D01*
X222442925Y-107090674D01*
X222432396Y-107080145D01*
X222432393Y-107080143D01*
X222432391Y-107080141D01*
X222322175Y-107023983D01*
X222322174Y-107023982D01*
X222322171Y-107023981D01*
X222230735Y-107009500D01*
X221789260Y-107009500D01*
X221789260Y-107009501D01*
X221697829Y-107023981D01*
X221697828Y-107023981D01*
X221587607Y-107080142D01*
X221587603Y-107080145D01*
X221493240Y-107174509D01*
X221491498Y-107172767D01*
X221447286Y-107206852D01*
X221377672Y-107212823D01*
X221315881Y-107180210D01*
X221314629Y-107178767D01*
X221314542Y-107178855D01*
X221218050Y-107082363D01*
X221218046Y-107082360D01*
X221105144Y-107024833D01*
X221030000Y-107012932D01*
X220530000Y-107012932D01*
X220454855Y-107024833D01*
X220341953Y-107082360D01*
X220341949Y-107082363D01*
X220252363Y-107171949D01*
X220252360Y-107171953D01*
X220194833Y-107284855D01*
X220179237Y-107383331D01*
X220177472Y-107383051D01*
X220155308Y-107441164D01*
X220099068Y-107482623D01*
X220029342Y-107487094D01*
X219968267Y-107453159D01*
X219935234Y-107391591D01*
X219934973Y-107390315D01*
X219931177Y-107371232D01*
X219874642Y-107234745D01*
X219874637Y-107234735D01*
X219792563Y-107111903D01*
X219792560Y-107111899D01*
X219688100Y-107007439D01*
X219688096Y-107007436D01*
X219565264Y-106925362D01*
X219565254Y-106925357D01*
X219460000Y-106881759D01*
X219460000Y-107423011D01*
X219450060Y-107405795D01*
X219394205Y-107349940D01*
X219325796Y-107310444D01*
X219249496Y-107290000D01*
X219170504Y-107290000D01*
X219094204Y-107310444D01*
X219025795Y-107349940D01*
X218969940Y-107405795D01*
X218960000Y-107423011D01*
X218960000Y-106881759D01*
X218959999Y-106881759D01*
X218854745Y-106925357D01*
X218854735Y-106925362D01*
X218731903Y-107007436D01*
X218731899Y-107007439D01*
X218627439Y-107111899D01*
X218627436Y-107111903D01*
X218545362Y-107234735D01*
X218545357Y-107234745D01*
X218488822Y-107371232D01*
X218488820Y-107371240D01*
X218460000Y-107516126D01*
X214327500Y-107516126D01*
X214327500Y-105993500D01*
X214347185Y-105926461D01*
X214399989Y-105880706D01*
X214451500Y-105869500D01*
X217299991Y-105869500D01*
X217300000Y-105869500D01*
X217343684Y-105864803D01*
X217372875Y-105858452D01*
X217395174Y-105853602D01*
X217395190Y-105853598D01*
X217395195Y-105853597D01*
X217405373Y-105851110D01*
X217486085Y-105808100D01*
X217538889Y-105762345D01*
X217556843Y-105744754D01*
X217601490Y-105664937D01*
X217621175Y-105597898D01*
X217629500Y-105540000D01*
X217629500Y-105404904D01*
X217649185Y-105337865D01*
X217701989Y-105292110D01*
X217771147Y-105282166D01*
X217834703Y-105311191D01*
X217841181Y-105317223D01*
X217897071Y-105373113D01*
X217897076Y-105373116D01*
X218017034Y-105434239D01*
X218017033Y-105434239D01*
X218116543Y-105449999D01*
X218650000Y-105449999D01*
X218683449Y-105449999D01*
X218782967Y-105434237D01*
X218902923Y-105373116D01*
X218902928Y-105373113D01*
X218998113Y-105277928D01*
X218998116Y-105277923D01*
X219059239Y-105157966D01*
X219075000Y-105058456D01*
X219075000Y-105050000D01*
X218650000Y-105050000D01*
X218650000Y-105449999D01*
X218116543Y-105449999D01*
X218150000Y-105449998D01*
X218150000Y-104595247D01*
X219524500Y-104595247D01*
X219524500Y-105284752D01*
X219536131Y-105343229D01*
X219536132Y-105343230D01*
X219580447Y-105409552D01*
X219646769Y-105453867D01*
X219646770Y-105453868D01*
X219705247Y-105465499D01*
X219705250Y-105465500D01*
X219705252Y-105465500D01*
X220994750Y-105465500D01*
X220994751Y-105465499D01*
X221009568Y-105462552D01*
X221053229Y-105453868D01*
X221053229Y-105453867D01*
X221053231Y-105453867D01*
X221119552Y-105409552D01*
X221163867Y-105343231D01*
X221163867Y-105343229D01*
X221163868Y-105343229D01*
X221175499Y-105284752D01*
X221175500Y-105284750D01*
X221175500Y-104605172D01*
X221175500Y-104595252D01*
X221175499Y-104595247D01*
X222024500Y-104595247D01*
X222024500Y-105284752D01*
X222036131Y-105343229D01*
X222036132Y-105343230D01*
X222080447Y-105409552D01*
X222146769Y-105453867D01*
X222146770Y-105453868D01*
X222205247Y-105465499D01*
X222205250Y-105465500D01*
X222205252Y-105465500D01*
X223494750Y-105465500D01*
X223494751Y-105465499D01*
X223509568Y-105462552D01*
X223553229Y-105453868D01*
X223553229Y-105453867D01*
X223553231Y-105453867D01*
X223619552Y-105409552D01*
X223663867Y-105343231D01*
X223663867Y-105343229D01*
X223663868Y-105343229D01*
X223675499Y-105284752D01*
X223675500Y-105284750D01*
X223675500Y-105033449D01*
X224175001Y-105033449D01*
X224190762Y-105132967D01*
X224251883Y-105252923D01*
X224251886Y-105252928D01*
X224347071Y-105348113D01*
X224347076Y-105348116D01*
X224467034Y-105409239D01*
X224467033Y-105409239D01*
X224566543Y-105424999D01*
X225100000Y-105424999D01*
X225133449Y-105424999D01*
X225232967Y-105409237D01*
X225352923Y-105348116D01*
X225352928Y-105348113D01*
X225448113Y-105252928D01*
X225448116Y-105252923D01*
X225509239Y-105132966D01*
X225525000Y-105033456D01*
X225525000Y-105025000D01*
X225100000Y-105025000D01*
X225100000Y-105424999D01*
X224566543Y-105424999D01*
X224600000Y-105424998D01*
X224600000Y-105025000D01*
X224175001Y-105025000D01*
X224175001Y-105033449D01*
X223675500Y-105033449D01*
X223675500Y-104595252D01*
X223663867Y-104536769D01*
X223650352Y-104516543D01*
X224175000Y-104516543D01*
X224175000Y-104525000D01*
X224600000Y-104525000D01*
X225100000Y-104525000D01*
X225524999Y-104525000D01*
X225524999Y-104516550D01*
X225509237Y-104417032D01*
X225448116Y-104297076D01*
X225448113Y-104297071D01*
X225352928Y-104201886D01*
X225352923Y-104201883D01*
X225232965Y-104140760D01*
X225232966Y-104140760D01*
X225133456Y-104125000D01*
X225100000Y-104125000D01*
X225100000Y-104525000D01*
X224600000Y-104525000D01*
X224600000Y-104124999D01*
X224566555Y-104125000D01*
X224467032Y-104140762D01*
X224347076Y-104201883D01*
X224347071Y-104201886D01*
X224251886Y-104297071D01*
X224251883Y-104297076D01*
X224190760Y-104417033D01*
X224175000Y-104516543D01*
X223650352Y-104516543D01*
X223619552Y-104470447D01*
X223553230Y-104426132D01*
X223553229Y-104426131D01*
X223494752Y-104414500D01*
X223494748Y-104414500D01*
X222205252Y-104414500D01*
X222205247Y-104414500D01*
X222146770Y-104426131D01*
X222146769Y-104426132D01*
X222080447Y-104470447D01*
X222036132Y-104536769D01*
X222036131Y-104536770D01*
X222024500Y-104595247D01*
X221175499Y-104595247D01*
X221163867Y-104536769D01*
X221153434Y-104521155D01*
X221148153Y-104501047D01*
X221148584Y-104486063D01*
X221144106Y-104471761D01*
X221149568Y-104451847D01*
X221150163Y-104431207D01*
X221158625Y-104418836D01*
X221159748Y-104414741D01*
X221158723Y-104414317D01*
X221162105Y-104406152D01*
X221162591Y-104404381D01*
X221163288Y-104403296D01*
X221163397Y-104403033D01*
X221174999Y-104344702D01*
X221175000Y-104344699D01*
X221175000Y-104250000D01*
X219525000Y-104250000D01*
X219525000Y-104344702D01*
X219536602Y-104403033D01*
X219541277Y-104414317D01*
X219539520Y-104415044D01*
X219555893Y-104467340D01*
X219540027Y-104525164D01*
X219540806Y-104525487D01*
X219538238Y-104531684D01*
X219537406Y-104534720D01*
X219536211Y-104536579D01*
X219536131Y-104536770D01*
X219524500Y-104595247D01*
X218150000Y-104595247D01*
X218150000Y-104550000D01*
X218650000Y-104550000D01*
X219074999Y-104550000D01*
X219074999Y-104541550D01*
X219059237Y-104442032D01*
X218998116Y-104322076D01*
X218998113Y-104322071D01*
X218902928Y-104226886D01*
X218902923Y-104226883D01*
X218782965Y-104165760D01*
X218782966Y-104165760D01*
X218683456Y-104150000D01*
X218650000Y-104150000D01*
X218650000Y-104550000D01*
X218150000Y-104550000D01*
X218150000Y-104149999D01*
X218116555Y-104150000D01*
X218017032Y-104165762D01*
X217897076Y-104226883D01*
X217897071Y-104226886D01*
X217841181Y-104282777D01*
X217779858Y-104316262D01*
X217710166Y-104311278D01*
X217654233Y-104269406D01*
X217629816Y-104203942D01*
X217629500Y-104195096D01*
X217629500Y-103855611D01*
X217649185Y-103788572D01*
X217701989Y-103742817D01*
X217771147Y-103732873D01*
X217834703Y-103761898D01*
X217841181Y-103767930D01*
X217896774Y-103823523D01*
X217896778Y-103823526D01*
X217896780Y-103823528D01*
X218016874Y-103884719D01*
X218016876Y-103884719D01*
X218016878Y-103884720D01*
X218116507Y-103900500D01*
X218116512Y-103900500D01*
X218683493Y-103900500D01*
X218783121Y-103884720D01*
X218783121Y-103884719D01*
X218783126Y-103884719D01*
X218903220Y-103823528D01*
X218998528Y-103728220D01*
X219049488Y-103628204D01*
X219059936Y-103617141D01*
X219066259Y-103603297D01*
X219083438Y-103592256D01*
X219097461Y-103577409D01*
X219113142Y-103573167D01*
X219125037Y-103565523D01*
X219159972Y-103560500D01*
X219401000Y-103560500D01*
X219468039Y-103580185D01*
X219513794Y-103632989D01*
X219525000Y-103684500D01*
X219525000Y-103750000D01*
X221175000Y-103750000D01*
X221175000Y-103655301D01*
X221174999Y-103655297D01*
X221163397Y-103596966D01*
X221158723Y-103585683D01*
X221160479Y-103584955D01*
X221144106Y-103532662D01*
X221159970Y-103474834D01*
X221159194Y-103474513D01*
X221161754Y-103468332D01*
X221162591Y-103465282D01*
X221163790Y-103463415D01*
X221163868Y-103463229D01*
X221175499Y-103404752D01*
X221175500Y-103404750D01*
X221175500Y-102715249D01*
X221175499Y-102715247D01*
X222024500Y-102715247D01*
X222024500Y-103404752D01*
X222036131Y-103463229D01*
X222036132Y-103463230D01*
X222080447Y-103529552D01*
X222146769Y-103573867D01*
X222146770Y-103573868D01*
X222205247Y-103585499D01*
X222205250Y-103585500D01*
X222205252Y-103585500D01*
X223494750Y-103585500D01*
X223494751Y-103585499D01*
X223514418Y-103581587D01*
X223553228Y-103573868D01*
X223553229Y-103573867D01*
X223553231Y-103573867D01*
X223553231Y-103573866D01*
X223562709Y-103569941D01*
X223610166Y-103560500D01*
X224102765Y-103560500D01*
X224169804Y-103580185D01*
X224213249Y-103628205D01*
X224251469Y-103703216D01*
X224251476Y-103703225D01*
X224346774Y-103798523D01*
X224346778Y-103798526D01*
X224346780Y-103798528D01*
X224466874Y-103859719D01*
X224466876Y-103859719D01*
X224466878Y-103859720D01*
X224566507Y-103875500D01*
X224566512Y-103875500D01*
X225133493Y-103875500D01*
X225233121Y-103859720D01*
X225233121Y-103859719D01*
X225233126Y-103859719D01*
X225353220Y-103798528D01*
X225448528Y-103703220D01*
X225509719Y-103583126D01*
X225510185Y-103580185D01*
X225525500Y-103483493D01*
X225525500Y-102966506D01*
X225509720Y-102866878D01*
X225509719Y-102866876D01*
X225509719Y-102866874D01*
X225448528Y-102746780D01*
X225448526Y-102746778D01*
X225448523Y-102746774D01*
X225353225Y-102651476D01*
X225353221Y-102651473D01*
X225353220Y-102651472D01*
X225233126Y-102590281D01*
X225233124Y-102590280D01*
X225233121Y-102590279D01*
X225133493Y-102574500D01*
X225133488Y-102574500D01*
X224823198Y-102574500D01*
X224791105Y-102570275D01*
X224750892Y-102559500D01*
X224750891Y-102559500D01*
X223610166Y-102559500D01*
X223562709Y-102550059D01*
X223553228Y-102546131D01*
X223494752Y-102534500D01*
X223494748Y-102534500D01*
X222205252Y-102534500D01*
X222205247Y-102534500D01*
X222146770Y-102546131D01*
X222146769Y-102546132D01*
X222080447Y-102590447D01*
X222036132Y-102656769D01*
X222036131Y-102656770D01*
X222024500Y-102715247D01*
X221175499Y-102715247D01*
X221163868Y-102656770D01*
X221163867Y-102656769D01*
X221119552Y-102590447D01*
X221053230Y-102546132D01*
X221053229Y-102546131D01*
X220994752Y-102534500D01*
X220994748Y-102534500D01*
X219705252Y-102534500D01*
X219705247Y-102534500D01*
X219646771Y-102546131D01*
X219637291Y-102550059D01*
X219589834Y-102559500D01*
X218655893Y-102559500D01*
X218524108Y-102559500D01*
X218396814Y-102593608D01*
X218396812Y-102593608D01*
X218390594Y-102595275D01*
X218358501Y-102599500D01*
X218116507Y-102599500D01*
X218016878Y-102615279D01*
X217896778Y-102676473D01*
X217896774Y-102676476D01*
X217841181Y-102732070D01*
X217779858Y-102765555D01*
X217710166Y-102760571D01*
X217654233Y-102718699D01*
X217629816Y-102653235D01*
X217629500Y-102644389D01*
X217629500Y-101978008D01*
X217629499Y-101977992D01*
X217626936Y-101954155D01*
X217624803Y-101934316D01*
X217620897Y-101916364D01*
X217613602Y-101882825D01*
X217611932Y-101875992D01*
X217611110Y-101872627D01*
X217568100Y-101791915D01*
X217522345Y-101739111D01*
X217522339Y-101739104D01*
X217504757Y-101721160D01*
X217504756Y-101721159D01*
X217504754Y-101721157D01*
X217504752Y-101721156D01*
X217504750Y-101721154D01*
X217424940Y-101676511D01*
X217424935Y-101676509D01*
X217357903Y-101656826D01*
X217357899Y-101656825D01*
X217357898Y-101656825D01*
X217300000Y-101648500D01*
X216653338Y-101648500D01*
X216653334Y-101648500D01*
X216649670Y-101648565D01*
X216646002Y-101648631D01*
X216637156Y-101648947D01*
X216637151Y-101648947D01*
X216572679Y-101661772D01*
X216507217Y-101686188D01*
X216484245Y-101696395D01*
X216484242Y-101696397D01*
X216414522Y-101755575D01*
X216414516Y-101755581D01*
X216372655Y-101811499D01*
X216372651Y-101811505D01*
X216372646Y-101811512D01*
X216367922Y-101818701D01*
X216358838Y-101832524D01*
X216357584Y-101836642D01*
X216355218Y-101840242D01*
X216355072Y-101840554D01*
X216355027Y-101840532D01*
X216343406Y-101858216D01*
X216332681Y-101881703D01*
X216324532Y-101886939D01*
X216319214Y-101895033D01*
X216295623Y-101905518D01*
X216273903Y-101919477D01*
X216259586Y-101921535D01*
X216255367Y-101923411D01*
X216238968Y-101924500D01*
X216019843Y-101924500D01*
X215952804Y-101904815D01*
X215910411Y-101858814D01*
X215910328Y-101858659D01*
X215874762Y-101791915D01*
X215829007Y-101739111D01*
X215829001Y-101739104D01*
X215811419Y-101721160D01*
X215811418Y-101721159D01*
X215811416Y-101721157D01*
X215811414Y-101721156D01*
X215811412Y-101721154D01*
X215731602Y-101676511D01*
X215731597Y-101676509D01*
X215664565Y-101656826D01*
X215664561Y-101656825D01*
X215664560Y-101656825D01*
X215606662Y-101648500D01*
X215384044Y-101648500D01*
X215376708Y-101648631D01*
X215367862Y-101648947D01*
X215342008Y-101654087D01*
X215341775Y-101652464D01*
X215319857Y-101655616D01*
X215313663Y-101657926D01*
X215300402Y-101659641D01*
X215273035Y-101655308D01*
X215245336Y-101654318D01*
X215239003Y-101649921D01*
X215231392Y-101648716D01*
X215210710Y-101630274D01*
X215187945Y-101614467D01*
X215184995Y-101607345D01*
X215179243Y-101602216D01*
X215171814Y-101575520D01*
X215161210Y-101549915D01*
X215160500Y-101536665D01*
X215160500Y-100909739D01*
X217724500Y-100909739D01*
X217724500Y-101490260D01*
X217727274Y-101519849D01*
X217770884Y-101644476D01*
X217849288Y-101750710D01*
X217849289Y-101750711D01*
X217955523Y-101829115D01*
X217955524Y-101829115D01*
X217955525Y-101829116D01*
X218080151Y-101872725D01*
X218080150Y-101872725D01*
X218109740Y-101875500D01*
X218109744Y-101875500D01*
X218790260Y-101875500D01*
X218819849Y-101872725D01*
X218827356Y-101870098D01*
X218944475Y-101829116D01*
X219050711Y-101750711D01*
X219129116Y-101644475D01*
X219172725Y-101519849D01*
X219172734Y-101519750D01*
X219175500Y-101490260D01*
X219175500Y-101490208D01*
X219475000Y-101490208D01*
X219477770Y-101519750D01*
X219477772Y-101519762D01*
X219521329Y-101644237D01*
X219599646Y-101750353D01*
X219705762Y-101828670D01*
X219830237Y-101872227D01*
X219830249Y-101872229D01*
X219859792Y-101875000D01*
X219950000Y-101875000D01*
X220450000Y-101875000D01*
X220540208Y-101875000D01*
X220569750Y-101872229D01*
X220569762Y-101872227D01*
X220694237Y-101828670D01*
X220800353Y-101750353D01*
X220878670Y-101644237D01*
X220922227Y-101519762D01*
X220922229Y-101519750D01*
X220925000Y-101490208D01*
X222312500Y-101490208D01*
X222315270Y-101519750D01*
X222315272Y-101519762D01*
X222358829Y-101644237D01*
X222437146Y-101750353D01*
X222543262Y-101828670D01*
X222667737Y-101872227D01*
X222667749Y-101872229D01*
X222697292Y-101875000D01*
X222787500Y-101875000D01*
X223287500Y-101875000D01*
X223377708Y-101875000D01*
X223407250Y-101872229D01*
X223407262Y-101872227D01*
X223531737Y-101828670D01*
X223637853Y-101750353D01*
X223716170Y-101644237D01*
X223759727Y-101519762D01*
X223759729Y-101519750D01*
X223762500Y-101490208D01*
X223762500Y-101450000D01*
X223287500Y-101450000D01*
X223287500Y-101875000D01*
X222787500Y-101875000D01*
X222787500Y-101450000D01*
X222312500Y-101450000D01*
X222312500Y-101490208D01*
X220925000Y-101490208D01*
X220925000Y-101450000D01*
X220450000Y-101450000D01*
X220450000Y-101875000D01*
X219950000Y-101875000D01*
X219950000Y-101450000D01*
X219475000Y-101450000D01*
X219475000Y-101490208D01*
X219175500Y-101490208D01*
X219175500Y-100909791D01*
X219475000Y-100909791D01*
X219475000Y-100950000D01*
X219950000Y-100950000D01*
X220450000Y-100950000D01*
X220925000Y-100950000D01*
X220925000Y-100909791D01*
X222312500Y-100909791D01*
X222312500Y-100950000D01*
X222787500Y-100950000D01*
X223287500Y-100950000D01*
X223762500Y-100950000D01*
X223762500Y-100909792D01*
X223762499Y-100909791D01*
X223762494Y-100909739D01*
X224062000Y-100909739D01*
X224062000Y-101490260D01*
X224064774Y-101519849D01*
X224108384Y-101644476D01*
X224186788Y-101750710D01*
X224186789Y-101750711D01*
X224293023Y-101829115D01*
X224293024Y-101829115D01*
X224293025Y-101829116D01*
X224417651Y-101872725D01*
X224417650Y-101872725D01*
X224447240Y-101875500D01*
X224447244Y-101875500D01*
X225127760Y-101875500D01*
X225157349Y-101872725D01*
X225164856Y-101870098D01*
X225281975Y-101829116D01*
X225388211Y-101750711D01*
X225466616Y-101644475D01*
X225510225Y-101519849D01*
X225510234Y-101519750D01*
X225513000Y-101490260D01*
X225513000Y-100909739D01*
X225510225Y-100880150D01*
X225466615Y-100755523D01*
X225388211Y-100649289D01*
X225388210Y-100649288D01*
X225281976Y-100570884D01*
X225157348Y-100527274D01*
X225157349Y-100527274D01*
X225127760Y-100524500D01*
X225127756Y-100524500D01*
X224447244Y-100524500D01*
X224447240Y-100524500D01*
X224417650Y-100527274D01*
X224293023Y-100570884D01*
X224186789Y-100649288D01*
X224186788Y-100649289D01*
X224108384Y-100755523D01*
X224064774Y-100880150D01*
X224062000Y-100909739D01*
X223762494Y-100909739D01*
X223759729Y-100880249D01*
X223759727Y-100880237D01*
X223716170Y-100755762D01*
X223637853Y-100649646D01*
X223531737Y-100571329D01*
X223407262Y-100527772D01*
X223407250Y-100527770D01*
X223377708Y-100525000D01*
X223287500Y-100525000D01*
X223287500Y-100950000D01*
X222787500Y-100950000D01*
X222787500Y-100525000D01*
X222697292Y-100525000D01*
X222667749Y-100527770D01*
X222667737Y-100527772D01*
X222543262Y-100571329D01*
X222437146Y-100649646D01*
X222358829Y-100755762D01*
X222315272Y-100880237D01*
X222315270Y-100880249D01*
X222312500Y-100909791D01*
X220925000Y-100909791D01*
X220922229Y-100880249D01*
X220922227Y-100880237D01*
X220878670Y-100755762D01*
X220800353Y-100649646D01*
X220694237Y-100571329D01*
X220569762Y-100527772D01*
X220569750Y-100527770D01*
X220540208Y-100525000D01*
X220450000Y-100525000D01*
X220450000Y-100950000D01*
X219950000Y-100950000D01*
X219950000Y-100525000D01*
X219859792Y-100525000D01*
X219830249Y-100527770D01*
X219830237Y-100527772D01*
X219705762Y-100571329D01*
X219599646Y-100649646D01*
X219521329Y-100755762D01*
X219477772Y-100880237D01*
X219477770Y-100880249D01*
X219475000Y-100909791D01*
X219175500Y-100909791D01*
X219175500Y-100909739D01*
X219172725Y-100880150D01*
X219129115Y-100755523D01*
X219050711Y-100649289D01*
X219050710Y-100649288D01*
X218944476Y-100570884D01*
X218819848Y-100527274D01*
X218819849Y-100527274D01*
X218790260Y-100524500D01*
X218790256Y-100524500D01*
X218109744Y-100524500D01*
X218109740Y-100524500D01*
X218080150Y-100527274D01*
X217955523Y-100570884D01*
X217849289Y-100649288D01*
X217849288Y-100649289D01*
X217770884Y-100755523D01*
X217727274Y-100880150D01*
X217724500Y-100909739D01*
X215160500Y-100909739D01*
X215160500Y-99979500D01*
X215180185Y-99912461D01*
X215232989Y-99866706D01*
X215284500Y-99855500D01*
X215815820Y-99855500D01*
X215815826Y-99855500D01*
X215869014Y-99848497D01*
X215996181Y-99814422D01*
X216045743Y-99793893D01*
X216159757Y-99728067D01*
X216202317Y-99695409D01*
X216295409Y-99602317D01*
X216328067Y-99559757D01*
X216393893Y-99445743D01*
X216414422Y-99396181D01*
X216448497Y-99269014D01*
X216455500Y-99215826D01*
X216455500Y-98650000D01*
X216450348Y-98604272D01*
X216429431Y-98560839D01*
X216428856Y-98559644D01*
X216417504Y-98490703D01*
X216419567Y-98478772D01*
X216425807Y-98450876D01*
X216435149Y-98439163D01*
X216455500Y-98350000D01*
X216455500Y-98334739D01*
X217924500Y-98334739D01*
X217924500Y-99015260D01*
X217927274Y-99044849D01*
X217970884Y-99169476D01*
X218049288Y-99275710D01*
X218049289Y-99275711D01*
X218155523Y-99354115D01*
X218155524Y-99354115D01*
X218155525Y-99354116D01*
X218280151Y-99397725D01*
X218280150Y-99397725D01*
X218309740Y-99400500D01*
X218309744Y-99400500D01*
X218890260Y-99400500D01*
X218919849Y-99397725D01*
X218975813Y-99378142D01*
X219044475Y-99354116D01*
X219150711Y-99275711D01*
X219229116Y-99169475D01*
X219272725Y-99044849D01*
X219275500Y-99015256D01*
X219275500Y-98334744D01*
X219273943Y-98318145D01*
X219272725Y-98305150D01*
X219249251Y-98238067D01*
X219229116Y-98180525D01*
X219193607Y-98132412D01*
X219150711Y-98074289D01*
X219150710Y-98074288D01*
X219076748Y-98019702D01*
X219600000Y-98019702D01*
X219611602Y-98078033D01*
X219611603Y-98078034D01*
X219655808Y-98144191D01*
X219721965Y-98188396D01*
X219721966Y-98188397D01*
X219780297Y-98199999D01*
X219780301Y-98200000D01*
X220075000Y-98200000D01*
X220575000Y-98200000D01*
X220869699Y-98200000D01*
X220869702Y-98199999D01*
X220928033Y-98188397D01*
X220928034Y-98188396D01*
X220994191Y-98144191D01*
X221038396Y-98078034D01*
X221038397Y-98078033D01*
X221049999Y-98019702D01*
X223750000Y-98019702D01*
X223761602Y-98078033D01*
X223761603Y-98078034D01*
X223805808Y-98144191D01*
X223871965Y-98188396D01*
X223871966Y-98188397D01*
X223930297Y-98199999D01*
X223930301Y-98200000D01*
X224225000Y-98200000D01*
X224725000Y-98200000D01*
X225019699Y-98200000D01*
X225019702Y-98199999D01*
X225078033Y-98188397D01*
X225078034Y-98188396D01*
X225144191Y-98144191D01*
X225188396Y-98078034D01*
X225188397Y-98078033D01*
X225199999Y-98019702D01*
X225200000Y-98019699D01*
X225200000Y-97925000D01*
X224725000Y-97925000D01*
X224725000Y-98200000D01*
X224225000Y-98200000D01*
X224225000Y-97925000D01*
X223750000Y-97925000D01*
X223750000Y-98019702D01*
X221049999Y-98019702D01*
X221050000Y-98019699D01*
X221050000Y-97925000D01*
X220575000Y-97925000D01*
X220575000Y-98200000D01*
X220075000Y-98200000D01*
X220075000Y-97925000D01*
X219600000Y-97925000D01*
X219600000Y-98019702D01*
X219076748Y-98019702D01*
X219044476Y-97995884D01*
X219044477Y-97995884D01*
X219029600Y-97990679D01*
X218919848Y-97952274D01*
X218919849Y-97952274D01*
X218890260Y-97949500D01*
X218890256Y-97949500D01*
X218309744Y-97949500D01*
X218309740Y-97949500D01*
X218280150Y-97952274D01*
X218155523Y-97995884D01*
X218049289Y-98074288D01*
X218049288Y-98074289D01*
X217970884Y-98180523D01*
X217927274Y-98305150D01*
X217924500Y-98334739D01*
X216455500Y-98334739D01*
X216455500Y-97784174D01*
X216448497Y-97730986D01*
X216414422Y-97603819D01*
X216414419Y-97603811D01*
X216393898Y-97554268D01*
X216393895Y-97554262D01*
X216393893Y-97554257D01*
X216328067Y-97440243D01*
X216323438Y-97434211D01*
X216295409Y-97397683D01*
X216202316Y-97304590D01*
X216159759Y-97271934D01*
X216148109Y-97265208D01*
X217925000Y-97265208D01*
X217927770Y-97294750D01*
X217927772Y-97294762D01*
X217971329Y-97419237D01*
X218049646Y-97525353D01*
X218155762Y-97603670D01*
X218280237Y-97647227D01*
X218280249Y-97647229D01*
X218309792Y-97650000D01*
X218350000Y-97650000D01*
X218850000Y-97650000D01*
X218890208Y-97650000D01*
X218919750Y-97647229D01*
X218919762Y-97647227D01*
X219044237Y-97603670D01*
X219150353Y-97525353D01*
X219228670Y-97419237D01*
X219259792Y-97330297D01*
X219600000Y-97330297D01*
X219600000Y-97425000D01*
X220075000Y-97425000D01*
X220575000Y-97425000D01*
X221050000Y-97425000D01*
X221050000Y-97330301D01*
X221049999Y-97330297D01*
X223750000Y-97330297D01*
X223750000Y-97425000D01*
X224225000Y-97425000D01*
X224725000Y-97425000D01*
X225200000Y-97425000D01*
X225200000Y-97330301D01*
X225199999Y-97330297D01*
X225188397Y-97271966D01*
X225188396Y-97271965D01*
X225144191Y-97205808D01*
X225078034Y-97161603D01*
X225078033Y-97161602D01*
X225019702Y-97150000D01*
X224725000Y-97150000D01*
X224725000Y-97425000D01*
X224225000Y-97425000D01*
X224225000Y-97150000D01*
X223930297Y-97150000D01*
X223871966Y-97161602D01*
X223871965Y-97161603D01*
X223805808Y-97205808D01*
X223761603Y-97271965D01*
X223761602Y-97271966D01*
X223750000Y-97330297D01*
X221049999Y-97330297D01*
X221038397Y-97271966D01*
X221038396Y-97271965D01*
X220994191Y-97205808D01*
X220928034Y-97161603D01*
X220928033Y-97161602D01*
X220869702Y-97150000D01*
X220575000Y-97150000D01*
X220575000Y-97425000D01*
X220075000Y-97425000D01*
X220075000Y-97150000D01*
X219780297Y-97150000D01*
X219721966Y-97161602D01*
X219721965Y-97161603D01*
X219655808Y-97205808D01*
X219611603Y-97271965D01*
X219611602Y-97271966D01*
X219600000Y-97330297D01*
X219259792Y-97330297D01*
X219272228Y-97294758D01*
X219272229Y-97294753D01*
X219275000Y-97265208D01*
X219275000Y-97175000D01*
X218850000Y-97175000D01*
X218850000Y-97650000D01*
X218350000Y-97650000D01*
X218350000Y-97175000D01*
X217925000Y-97175000D01*
X217925000Y-97265208D01*
X216148109Y-97265208D01*
X216097620Y-97236058D01*
X216097619Y-97236057D01*
X216045743Y-97206107D01*
X215996181Y-97185578D01*
X215886420Y-97156167D01*
X215880628Y-97153976D01*
X215857500Y-97136494D01*
X215832745Y-97121405D01*
X215829964Y-97115681D01*
X215824889Y-97111845D01*
X215814883Y-97084633D01*
X215802217Y-97058558D01*
X215801312Y-97047727D01*
X215800776Y-97046268D01*
X215801077Y-97044912D01*
X215800500Y-97037996D01*
X215800500Y-96586904D01*
X215800500Y-96584791D01*
X217925000Y-96584791D01*
X217925000Y-96675000D01*
X218350000Y-96675000D01*
X218850000Y-96675000D01*
X219275000Y-96675000D01*
X219275000Y-96584791D01*
X219272229Y-96555249D01*
X219272227Y-96555237D01*
X219228670Y-96430762D01*
X219150353Y-96324646D01*
X219044237Y-96246329D01*
X218919762Y-96202772D01*
X218919750Y-96202770D01*
X218890208Y-96200000D01*
X218850000Y-96200000D01*
X218850000Y-96675000D01*
X218350000Y-96675000D01*
X218350000Y-96200000D01*
X218309792Y-96200000D01*
X218280249Y-96202770D01*
X218280237Y-96202772D01*
X218155762Y-96246329D01*
X218049646Y-96324646D01*
X217971329Y-96430762D01*
X217927772Y-96555237D01*
X217927770Y-96555249D01*
X217925000Y-96584791D01*
X215800500Y-96584791D01*
X215800500Y-96460438D01*
X215788736Y-96416535D01*
X215780022Y-96384012D01*
X215740460Y-96315489D01*
X215196819Y-95771848D01*
X215163334Y-95710525D01*
X215160500Y-95684167D01*
X215160500Y-95180247D01*
X219599500Y-95180247D01*
X219599500Y-95869752D01*
X219611131Y-95928229D01*
X219611132Y-95928230D01*
X219655447Y-95994552D01*
X219721769Y-96038867D01*
X219721770Y-96038868D01*
X219780247Y-96050499D01*
X219780250Y-96050500D01*
X219780252Y-96050500D01*
X220398921Y-96050500D01*
X220460922Y-96067113D01*
X220484231Y-96080571D01*
X220485011Y-96081021D01*
X220561438Y-96101500D01*
X220561440Y-96101500D01*
X224238560Y-96101500D01*
X224238562Y-96101500D01*
X224314989Y-96081021D01*
X224339078Y-96067112D01*
X224401079Y-96050500D01*
X225019750Y-96050500D01*
X225019751Y-96050499D01*
X225034568Y-96047552D01*
X225078229Y-96038868D01*
X225078229Y-96038867D01*
X225078231Y-96038867D01*
X225144552Y-95994552D01*
X225188867Y-95928231D01*
X225188867Y-95928229D01*
X225188868Y-95928229D01*
X225200499Y-95869752D01*
X225200500Y-95869750D01*
X225200500Y-95180249D01*
X225200499Y-95180247D01*
X225188868Y-95121770D01*
X225188867Y-95121769D01*
X225144552Y-95055447D01*
X225078230Y-95011132D01*
X225078229Y-95011131D01*
X225019752Y-94999500D01*
X225019748Y-94999500D01*
X223930252Y-94999500D01*
X223930247Y-94999500D01*
X223871770Y-95011131D01*
X223871766Y-95011133D01*
X223867342Y-95014090D01*
X223800665Y-95034968D01*
X223733285Y-95016483D01*
X223710771Y-94998669D01*
X223651615Y-94939513D01*
X223651613Y-94939511D01*
X223548886Y-94880201D01*
X223434309Y-94849500D01*
X223315691Y-94849500D01*
X223201114Y-94880201D01*
X223201112Y-94880201D01*
X223201112Y-94880202D01*
X223098387Y-94939511D01*
X223098384Y-94939513D01*
X223014513Y-95023384D01*
X223014511Y-95023387D01*
X222957710Y-95121769D01*
X222955201Y-95126114D01*
X222924500Y-95240691D01*
X222924500Y-95240693D01*
X222924500Y-95359308D01*
X222924633Y-95360319D01*
X222924500Y-95361171D01*
X222924500Y-95367436D01*
X222923523Y-95367436D01*
X222913865Y-95429354D01*
X222867483Y-95481608D01*
X222801693Y-95500500D01*
X221174500Y-95500500D01*
X221107461Y-95480815D01*
X221061706Y-95428011D01*
X221050500Y-95376500D01*
X221050500Y-95180249D01*
X221050499Y-95180247D01*
X221038868Y-95121770D01*
X221038867Y-95121769D01*
X220994552Y-95055447D01*
X220928230Y-95011132D01*
X220928229Y-95011131D01*
X220869752Y-94999500D01*
X220869748Y-94999500D01*
X219780252Y-94999500D01*
X219780247Y-94999500D01*
X219721770Y-95011131D01*
X219721769Y-95011132D01*
X219655447Y-95055447D01*
X219611132Y-95121769D01*
X219611131Y-95121770D01*
X219599500Y-95180247D01*
X215160500Y-95180247D01*
X215160500Y-95117997D01*
X215180185Y-95050958D01*
X215212450Y-95017077D01*
X215216477Y-95014200D01*
X215216483Y-95014198D01*
X215299198Y-94931483D01*
X215350573Y-94826393D01*
X215360500Y-94758260D01*
X215360500Y-94758217D01*
X215630001Y-94758217D01*
X215639912Y-94826249D01*
X215691215Y-94931191D01*
X215773808Y-95013784D01*
X215878755Y-95065089D01*
X215880000Y-95065269D01*
X216380000Y-95065269D01*
X216381245Y-95065088D01*
X216381246Y-95065088D01*
X216386010Y-95062760D01*
X216386011Y-95062759D01*
X216486191Y-95013784D01*
X216568787Y-94931188D01*
X216620087Y-94826251D01*
X216620088Y-94826248D01*
X216630000Y-94758219D01*
X216630000Y-94100000D01*
X216380000Y-94100000D01*
X216380000Y-95065269D01*
X215880000Y-95065269D01*
X215880000Y-94100000D01*
X215630001Y-94100000D01*
X215630001Y-94758217D01*
X215360500Y-94758217D01*
X215360500Y-92941780D01*
X215630000Y-92941780D01*
X215630000Y-93600000D01*
X215880000Y-93600000D01*
X216380000Y-93600000D01*
X216629999Y-93600000D01*
X216629999Y-92941782D01*
X216620087Y-92873750D01*
X216616646Y-92866711D01*
X216616645Y-92866710D01*
X216592216Y-92816739D01*
X217524500Y-92816739D01*
X217524500Y-93183260D01*
X217534426Y-93251391D01*
X217585803Y-93356485D01*
X217641637Y-93412319D01*
X217675122Y-93473642D01*
X217670138Y-93543334D01*
X217641637Y-93587681D01*
X217585803Y-93643514D01*
X217534426Y-93748608D01*
X217524500Y-93816739D01*
X217524500Y-94183260D01*
X217534426Y-94251391D01*
X217585803Y-94356485D01*
X217668514Y-94439196D01*
X217668515Y-94439196D01*
X217668517Y-94439198D01*
X217773607Y-94490573D01*
X217807673Y-94495536D01*
X217841739Y-94500500D01*
X217841740Y-94500500D01*
X219283261Y-94500500D01*
X219305971Y-94497191D01*
X219351393Y-94490573D01*
X219456483Y-94439198D01*
X219539198Y-94356483D01*
X219590573Y-94251393D01*
X219600500Y-94183260D01*
X219600500Y-93816740D01*
X219590573Y-93748607D01*
X219539198Y-93643517D01*
X219539196Y-93643515D01*
X219539196Y-93643514D01*
X219483363Y-93587681D01*
X219449878Y-93526358D01*
X219454862Y-93456666D01*
X219483363Y-93412319D01*
X219539196Y-93356485D01*
X219539198Y-93356483D01*
X219590573Y-93251393D01*
X219600500Y-93183260D01*
X219600500Y-92816740D01*
X219590573Y-92748607D01*
X219539198Y-92643517D01*
X219539196Y-92643515D01*
X219539196Y-92643514D01*
X219483010Y-92587328D01*
X219449525Y-92526005D01*
X219454509Y-92456313D01*
X219483010Y-92411966D01*
X219538785Y-92356190D01*
X219538787Y-92356188D01*
X219590088Y-92251249D01*
X219590270Y-92250000D01*
X217534730Y-92250000D01*
X217534911Y-92251249D01*
X217586212Y-92356188D01*
X217641990Y-92411966D01*
X217675475Y-92473289D01*
X217670491Y-92542981D01*
X217641990Y-92587328D01*
X217585803Y-92643514D01*
X217534426Y-92748608D01*
X217524500Y-92816739D01*
X216592216Y-92816739D01*
X216568784Y-92768808D01*
X216486188Y-92686212D01*
X216381249Y-92634911D01*
X216381250Y-92634911D01*
X216380000Y-92634729D01*
X216380000Y-93600000D01*
X215880000Y-93600000D01*
X215880000Y-92634730D01*
X215879999Y-92634729D01*
X215878750Y-92634911D01*
X215773811Y-92686212D01*
X215691212Y-92768811D01*
X215639912Y-92873748D01*
X215639911Y-92873751D01*
X215630000Y-92941780D01*
X215360500Y-92941780D01*
X215360500Y-92941740D01*
X215360347Y-92940693D01*
X215350594Y-92873750D01*
X215350573Y-92873607D01*
X215299198Y-92768517D01*
X215299196Y-92768515D01*
X215299196Y-92768514D01*
X215216483Y-92685801D01*
X215212445Y-92682918D01*
X215169324Y-92627942D01*
X215160500Y-92582002D01*
X215160500Y-90521918D01*
X215160500Y-90521917D01*
X215140021Y-90445490D01*
X215136388Y-90439198D01*
X215100464Y-90376974D01*
X215100458Y-90376966D01*
X214743736Y-90020244D01*
X214664182Y-89940690D01*
X215614329Y-89940690D01*
X215614329Y-90059308D01*
X215645030Y-90173885D01*
X215704340Y-90276612D01*
X215788216Y-90360488D01*
X215838466Y-90389500D01*
X215843856Y-90392612D01*
X215892071Y-90443180D01*
X215905293Y-90511787D01*
X215879325Y-90576652D01*
X215843856Y-90607386D01*
X215788216Y-90639510D01*
X215788213Y-90639512D01*
X215704342Y-90723383D01*
X215704340Y-90723386D01*
X215650442Y-90816740D01*
X215645030Y-90826113D01*
X215614329Y-90940690D01*
X215614329Y-91059308D01*
X215645030Y-91173885D01*
X215704340Y-91276612D01*
X215788216Y-91360488D01*
X215890943Y-91419798D01*
X216005520Y-91450499D01*
X216005523Y-91450499D01*
X216124135Y-91450499D01*
X216124138Y-91450499D01*
X216238715Y-91419798D01*
X216341442Y-91360488D01*
X216345447Y-91356483D01*
X216365113Y-91336818D01*
X216426436Y-91303333D01*
X216452794Y-91300499D01*
X217482002Y-91300499D01*
X217512805Y-91309543D01*
X217544017Y-91317120D01*
X217546602Y-91319468D01*
X217549041Y-91320184D01*
X217571757Y-91338941D01*
X217582984Y-91350718D01*
X217585802Y-91356483D01*
X217643044Y-91413725D01*
X217644064Y-91414795D01*
X217659424Y-91444600D01*
X217675475Y-91473995D01*
X217675365Y-91475532D01*
X217676071Y-91476902D01*
X217672882Y-91510244D01*
X217670491Y-91543687D01*
X217669543Y-91545160D01*
X217669420Y-91546455D01*
X217665551Y-91551372D01*
X217641990Y-91588034D01*
X217586214Y-91643809D01*
X217586212Y-91643811D01*
X217534911Y-91748750D01*
X217534729Y-91749999D01*
X217534730Y-91750000D01*
X219590270Y-91750000D01*
X219590270Y-91749999D01*
X219590088Y-91748750D01*
X219538787Y-91643811D01*
X219483010Y-91588034D01*
X219449525Y-91526711D01*
X219454509Y-91457019D01*
X219483010Y-91412672D01*
X219539196Y-91356485D01*
X219539198Y-91356483D01*
X219590573Y-91251393D01*
X219600500Y-91183260D01*
X219600500Y-90816740D01*
X219590573Y-90748607D01*
X219539198Y-90643517D01*
X219539196Y-90643515D01*
X219539196Y-90643514D01*
X219483363Y-90587681D01*
X219449878Y-90526358D01*
X219454862Y-90456666D01*
X219483363Y-90412319D01*
X219539196Y-90356485D01*
X219539198Y-90356483D01*
X219590573Y-90251393D01*
X219600500Y-90183260D01*
X219600500Y-89816740D01*
X219590573Y-89748607D01*
X219539198Y-89643517D01*
X219539196Y-89643515D01*
X219539196Y-89643514D01*
X219456485Y-89560803D01*
X219351391Y-89509426D01*
X219283261Y-89499500D01*
X219283260Y-89499500D01*
X217841740Y-89499500D01*
X217841739Y-89499500D01*
X217773608Y-89509426D01*
X217668516Y-89560802D01*
X217585801Y-89643517D01*
X217582921Y-89647553D01*
X217527946Y-89690674D01*
X217482004Y-89699499D01*
X216452793Y-89699499D01*
X216385754Y-89679814D01*
X216365112Y-89663180D01*
X216341444Y-89639512D01*
X216341442Y-89639510D01*
X216238715Y-89580200D01*
X216124138Y-89549499D01*
X216005520Y-89549499D01*
X215890943Y-89580200D01*
X215890941Y-89580200D01*
X215890941Y-89580201D01*
X215788216Y-89639510D01*
X215788213Y-89639512D01*
X215704342Y-89723383D01*
X215704340Y-89723386D01*
X215645673Y-89825000D01*
X215645030Y-89826113D01*
X215614329Y-89940690D01*
X214664182Y-89940690D01*
X213983036Y-89259543D01*
X213983035Y-89259542D01*
X213983032Y-89259540D01*
X213972324Y-89253358D01*
X213914510Y-89219979D01*
X213891885Y-89213916D01*
X213880899Y-89208490D01*
X213863852Y-89192787D01*
X213844059Y-89180722D01*
X213838636Y-89169559D01*
X213829510Y-89161152D01*
X213823658Y-89138723D01*
X213813531Y-89117875D01*
X213813340Y-89116709D01*
X213810646Y-89099696D01*
X213753050Y-88986658D01*
X213753046Y-88986654D01*
X213753045Y-88986652D01*
X213663347Y-88896954D01*
X213663344Y-88896952D01*
X213663342Y-88896950D01*
X213586517Y-88857805D01*
X213550301Y-88839352D01*
X213456524Y-88824500D01*
X212993482Y-88824500D01*
X212912519Y-88837323D01*
X212899696Y-88839354D01*
X212786658Y-88896950D01*
X212786657Y-88896951D01*
X212786652Y-88896954D01*
X212696954Y-88986652D01*
X212696951Y-88986657D01*
X212696950Y-88986658D01*
X212677751Y-89024337D01*
X212639352Y-89099698D01*
X212624500Y-89193475D01*
X212624500Y-89806517D01*
X212629848Y-89840281D01*
X212639354Y-89900304D01*
X212696950Y-90013342D01*
X212696952Y-90013344D01*
X212696954Y-90013347D01*
X212786652Y-90103045D01*
X212786654Y-90103046D01*
X212786658Y-90103050D01*
X212899694Y-90160645D01*
X212899698Y-90160647D01*
X212993475Y-90175499D01*
X212993481Y-90175500D01*
X213456518Y-90175499D01*
X213550304Y-90160646D01*
X213663342Y-90103050D01*
X213732291Y-90034100D01*
X213793612Y-90000617D01*
X213863304Y-90005601D01*
X213907652Y-90034102D01*
X214523181Y-90649631D01*
X214556666Y-90710954D01*
X214559500Y-90737312D01*
X214559500Y-92582002D01*
X214539815Y-92649041D01*
X214507555Y-92682918D01*
X214503516Y-92685801D01*
X214420803Y-92768514D01*
X214369426Y-92873608D01*
X214359500Y-92941739D01*
X214359500Y-94758260D01*
X214369426Y-94826391D01*
X214420803Y-94931485D01*
X214503512Y-95014194D01*
X214503515Y-95014196D01*
X214503517Y-95014198D01*
X214503518Y-95014198D01*
X214507550Y-95017077D01*
X214550674Y-95072051D01*
X214559500Y-95117997D01*
X214559500Y-95899562D01*
X214567182Y-95928230D01*
X214579979Y-95975990D01*
X214579981Y-95975993D01*
X214616275Y-96038858D01*
X214619538Y-96044509D01*
X214619542Y-96044514D01*
X215163181Y-96588152D01*
X215196666Y-96649475D01*
X215199500Y-96675833D01*
X215199500Y-97037996D01*
X215179815Y-97105035D01*
X215127011Y-97150790D01*
X215107597Y-97157769D01*
X215003819Y-97185578D01*
X215003816Y-97185578D01*
X215003809Y-97185581D01*
X214954268Y-97206101D01*
X214954254Y-97206108D01*
X214840240Y-97271934D01*
X214797683Y-97304590D01*
X214704590Y-97397683D01*
X214671934Y-97440240D01*
X214606108Y-97554254D01*
X214606101Y-97554268D01*
X214585580Y-97603811D01*
X214551503Y-97730986D01*
X214551502Y-97730992D01*
X214544500Y-97784167D01*
X214544500Y-98350004D01*
X214549651Y-98395728D01*
X214571144Y-98440356D01*
X214582496Y-98509297D01*
X214566943Y-98546339D01*
X214570913Y-98548251D01*
X214564850Y-98560839D01*
X214544500Y-98649995D01*
X214544500Y-99215832D01*
X214551502Y-99269007D01*
X214551503Y-99269014D01*
X214582902Y-99386194D01*
X214585580Y-99396188D01*
X214606101Y-99445731D01*
X214606106Y-99445741D01*
X214623143Y-99475250D01*
X214639615Y-99543150D01*
X214623143Y-99599248D01*
X214579979Y-99674010D01*
X214579979Y-99674011D01*
X214565495Y-99728067D01*
X214559500Y-99750439D01*
X214559500Y-101539818D01*
X214539815Y-101606857D01*
X214487011Y-101652612D01*
X214417853Y-101662556D01*
X214400564Y-101658795D01*
X214393861Y-101656826D01*
X214393212Y-101656732D01*
X214335956Y-101648500D01*
X214114044Y-101648500D01*
X214106708Y-101648631D01*
X214097862Y-101648947D01*
X214072008Y-101654087D01*
X214071775Y-101652464D01*
X214049857Y-101655616D01*
X214043663Y-101657926D01*
X214030402Y-101659641D01*
X214003035Y-101655308D01*
X213975336Y-101654318D01*
X213969003Y-101649921D01*
X213961392Y-101648716D01*
X213940710Y-101630274D01*
X213917945Y-101614467D01*
X213914995Y-101607345D01*
X213909243Y-101602216D01*
X213901814Y-101575520D01*
X213891210Y-101549915D01*
X213890500Y-101536665D01*
X213890500Y-99700439D01*
X213889152Y-99695409D01*
X213870021Y-99624011D01*
X213866292Y-99617552D01*
X213849818Y-99549652D01*
X213866292Y-99493548D01*
X213893893Y-99445743D01*
X213914422Y-99396181D01*
X213948497Y-99269014D01*
X213955500Y-99215826D01*
X213955500Y-98650000D01*
X213950348Y-98604272D01*
X213929431Y-98560839D01*
X213928856Y-98559644D01*
X213917504Y-98490703D01*
X213933086Y-98453677D01*
X213929087Y-98451752D01*
X213935148Y-98439164D01*
X213935147Y-98439164D01*
X213935149Y-98439163D01*
X213955500Y-98350000D01*
X213955500Y-97784174D01*
X213948497Y-97730986D01*
X213914422Y-97603819D01*
X213914419Y-97603811D01*
X213893898Y-97554268D01*
X213893895Y-97554262D01*
X213893893Y-97554257D01*
X213828067Y-97440243D01*
X213823438Y-97434211D01*
X213795409Y-97397683D01*
X213702316Y-97304590D01*
X213659759Y-97271934D01*
X213545745Y-97206108D01*
X213545731Y-97206101D01*
X213496190Y-97185581D01*
X213496185Y-97185579D01*
X213496181Y-97185578D01*
X213392404Y-97157770D01*
X213332745Y-97121405D01*
X213302217Y-97058558D01*
X213300500Y-97037996D01*
X213300500Y-96575833D01*
X213320185Y-96508794D01*
X213336819Y-96488152D01*
X213830457Y-95994514D01*
X213830460Y-95994511D01*
X213840793Y-95976613D01*
X213841154Y-95975989D01*
X213863843Y-95936689D01*
X213870021Y-95925989D01*
X213890500Y-95849562D01*
X213890500Y-95117997D01*
X213910185Y-95050958D01*
X213942450Y-95017077D01*
X213946477Y-95014200D01*
X213946483Y-95014198D01*
X214029198Y-94931483D01*
X214080573Y-94826393D01*
X214090500Y-94758260D01*
X214090500Y-92941740D01*
X214090347Y-92940693D01*
X214080594Y-92873750D01*
X214080573Y-92873607D01*
X214029198Y-92768517D01*
X214029196Y-92768515D01*
X214029196Y-92768514D01*
X213946483Y-92685801D01*
X213942445Y-92682918D01*
X213899324Y-92627942D01*
X213890500Y-92582002D01*
X213890500Y-91925439D01*
X213885432Y-91906524D01*
X213870021Y-91849011D01*
X213842111Y-91800669D01*
X213825499Y-91738670D01*
X213825499Y-91293482D01*
X213822892Y-91277023D01*
X213810646Y-91199696D01*
X213753050Y-91086658D01*
X213753046Y-91086654D01*
X213753045Y-91086652D01*
X213663347Y-90996954D01*
X213663344Y-90996952D01*
X213663342Y-90996950D01*
X213586517Y-90957805D01*
X213550301Y-90939352D01*
X213456524Y-90924500D01*
X212993482Y-90924500D01*
X212912519Y-90937323D01*
X212899696Y-90939354D01*
X212786658Y-90996950D01*
X212786657Y-90996951D01*
X212786652Y-90996954D01*
X212696954Y-91086652D01*
X212696951Y-91086657D01*
X212696950Y-91086658D01*
X212690903Y-91098526D01*
X212639352Y-91199698D01*
X212624500Y-91293475D01*
X212624500Y-91906517D01*
X212629423Y-91937598D01*
X212639354Y-92000304D01*
X212696950Y-92113342D01*
X212696952Y-92113344D01*
X212696954Y-92113347D01*
X212786652Y-92203045D01*
X212786654Y-92203046D01*
X212786658Y-92203050D01*
X212890527Y-92255974D01*
X212899698Y-92260647D01*
X212993475Y-92275499D01*
X212993481Y-92275500D01*
X213165500Y-92275499D01*
X213174185Y-92278049D01*
X213183147Y-92276761D01*
X213207184Y-92287738D01*
X213232539Y-92295183D01*
X213238467Y-92302025D01*
X213246703Y-92305786D01*
X213260989Y-92328017D01*
X213278294Y-92347987D01*
X213280581Y-92358502D01*
X213284477Y-92364564D01*
X213289500Y-92399499D01*
X213289500Y-92582002D01*
X213269815Y-92649041D01*
X213237555Y-92682918D01*
X213233516Y-92685801D01*
X213150803Y-92768514D01*
X213099426Y-92873608D01*
X213089500Y-92941739D01*
X213089500Y-94758260D01*
X213099426Y-94826391D01*
X213150803Y-94931485D01*
X213233512Y-95014194D01*
X213233515Y-95014196D01*
X213233517Y-95014198D01*
X213233518Y-95014198D01*
X213237550Y-95017077D01*
X213280674Y-95072051D01*
X213289500Y-95117997D01*
X213289500Y-95634167D01*
X213269815Y-95701206D01*
X213253181Y-95721848D01*
X212759541Y-96215487D01*
X212759535Y-96215495D01*
X212719982Y-96284004D01*
X212719979Y-96284009D01*
X212699500Y-96360439D01*
X212699500Y-97037996D01*
X212679815Y-97105035D01*
X212627011Y-97150790D01*
X212607597Y-97157769D01*
X212503819Y-97185578D01*
X212503816Y-97185578D01*
X212503809Y-97185581D01*
X212454268Y-97206101D01*
X212454254Y-97206108D01*
X212340240Y-97271934D01*
X212297683Y-97304590D01*
X212204590Y-97397683D01*
X212171934Y-97440240D01*
X212106108Y-97554254D01*
X212106101Y-97554268D01*
X212085580Y-97603811D01*
X212051503Y-97730986D01*
X212051502Y-97730992D01*
X212044500Y-97784167D01*
X212044500Y-98350004D01*
X212049651Y-98395728D01*
X212071144Y-98440356D01*
X212082496Y-98509297D01*
X212066943Y-98546339D01*
X212070913Y-98548251D01*
X212064850Y-98560839D01*
X212044500Y-98649995D01*
X212044500Y-99215832D01*
X212051502Y-99269007D01*
X212051503Y-99269014D01*
X212082902Y-99386194D01*
X212085580Y-99396188D01*
X212106101Y-99445731D01*
X212106108Y-99445745D01*
X212171934Y-99559759D01*
X212202236Y-99599248D01*
X212204591Y-99602317D01*
X212297683Y-99695409D01*
X212340243Y-99728067D01*
X212454257Y-99793893D01*
X212454262Y-99793895D01*
X212454268Y-99793898D01*
X212503811Y-99814419D01*
X212503813Y-99814419D01*
X212503819Y-99814422D01*
X212630986Y-99848497D01*
X212684174Y-99855500D01*
X213165500Y-99855500D01*
X213232539Y-99875185D01*
X213278294Y-99927989D01*
X213289500Y-99979500D01*
X213289500Y-101539818D01*
X213269815Y-101606857D01*
X213217011Y-101652612D01*
X213147853Y-101662556D01*
X213130564Y-101658795D01*
X213123861Y-101656826D01*
X213123212Y-101656732D01*
X213065956Y-101648500D01*
X212944500Y-101648500D01*
X212944492Y-101648500D01*
X212944489Y-101648501D01*
X212928064Y-101650267D01*
X212859305Y-101637862D01*
X212808167Y-101590252D01*
X212795035Y-101559073D01*
X212786392Y-101526814D01*
X212720500Y-101412686D01*
X212627314Y-101319500D01*
X211781819Y-100474005D01*
X211748334Y-100412682D01*
X211745500Y-100386324D01*
X211745500Y-100054110D01*
X211745500Y-100054108D01*
X211711392Y-99926814D01*
X211645500Y-99812686D01*
X211552314Y-99719500D01*
X211473525Y-99674011D01*
X211438187Y-99653608D01*
X211327727Y-99624011D01*
X211310892Y-99619500D01*
X211179108Y-99619500D01*
X211051812Y-99653608D01*
X210937686Y-99719500D01*
X210937683Y-99719502D01*
X210844502Y-99812683D01*
X210844500Y-99812686D01*
X210778608Y-99926812D01*
X210761425Y-99990941D01*
X210744500Y-100054108D01*
X210744500Y-100579108D01*
X210744500Y-100710892D01*
X210752698Y-100741487D01*
X210778608Y-100838187D01*
X210811554Y-100895250D01*
X210844500Y-100952314D01*
X210844502Y-100952316D01*
X211022485Y-101130299D01*
X211055970Y-101191622D01*
X211050986Y-101261314D01*
X211009114Y-101317247D01*
X210996806Y-101325366D01*
X210937689Y-101359498D01*
X210937683Y-101359502D01*
X210742688Y-101554497D01*
X210742687Y-101554499D01*
X210742686Y-101554500D01*
X210694970Y-101602216D01*
X210656757Y-101640429D01*
X210595433Y-101673913D01*
X210534141Y-101671724D01*
X210483407Y-101656827D01*
X210483402Y-101656826D01*
X210483398Y-101656825D01*
X210425500Y-101648500D01*
X210404500Y-101648500D01*
X210375254Y-101650592D01*
X210340319Y-101655615D01*
X210340317Y-101655615D01*
X210340315Y-101655616D01*
X210340311Y-101655617D01*
X210335479Y-101657419D01*
X210320356Y-101661984D01*
X210319455Y-101662194D01*
X210309292Y-101664406D01*
X210299135Y-101666888D01*
X210298963Y-101666979D01*
X210293804Y-101668184D01*
X210259512Y-101666254D01*
X210225243Y-101664678D01*
X210224624Y-101664291D01*
X210224045Y-101664259D01*
X210220759Y-101661876D01*
X210177927Y-101635113D01*
X209902316Y-101359502D01*
X209902314Y-101359500D01*
X209829130Y-101317247D01*
X209788187Y-101293608D01*
X209724539Y-101276554D01*
X209660892Y-101259500D01*
X209529108Y-101259500D01*
X209401812Y-101293608D01*
X209287686Y-101359500D01*
X209287683Y-101359502D01*
X209194502Y-101452683D01*
X209194500Y-101452686D01*
X209128608Y-101566812D01*
X209094500Y-101694108D01*
X209094500Y-101751662D01*
X209074815Y-101818701D01*
X209033172Y-101858659D01*
X209020143Y-101866290D01*
X208999862Y-101872287D01*
X208976237Y-101880875D01*
X208902570Y-101935072D01*
X208902421Y-101935244D01*
X208896409Y-101938766D01*
X208868539Y-101945711D01*
X208841554Y-101955522D01*
X208834662Y-101954155D01*
X208828613Y-101955663D01*
X208809379Y-101949140D01*
X208779279Y-101943171D01*
X208761393Y-101934427D01*
X208761391Y-101934426D01*
X208761388Y-101934425D01*
X208693261Y-101924500D01*
X208693260Y-101924500D01*
X208399843Y-101924500D01*
X208332804Y-101904815D01*
X208290411Y-101858814D01*
X208290328Y-101858659D01*
X208254762Y-101791915D01*
X208209007Y-101739111D01*
X208209001Y-101739104D01*
X208191419Y-101721160D01*
X208191418Y-101721159D01*
X208191416Y-101721157D01*
X208191414Y-101721156D01*
X208191412Y-101721154D01*
X208111602Y-101676511D01*
X208111597Y-101676509D01*
X208044565Y-101656826D01*
X208044561Y-101656825D01*
X208044560Y-101656825D01*
X207986662Y-101648500D01*
X207764044Y-101648500D01*
X207756708Y-101648631D01*
X207747862Y-101648947D01*
X207722008Y-101654087D01*
X207721775Y-101652464D01*
X207699857Y-101655616D01*
X207618012Y-101686142D01*
X207617964Y-101686172D01*
X207617915Y-101686191D01*
X207606133Y-101691426D01*
X207606124Y-101691429D01*
X207594966Y-101696388D01*
X207594961Y-101696391D01*
X207579074Y-101709873D01*
X207565898Y-101719632D01*
X207559221Y-101723923D01*
X207538955Y-101738775D01*
X207533788Y-101745533D01*
X207533762Y-101745565D01*
X207527730Y-101753445D01*
X207525233Y-101755567D01*
X207517161Y-101766348D01*
X207517603Y-101766678D01*
X207496769Y-101793901D01*
X207496620Y-101793789D01*
X207486059Y-101807895D01*
X207486018Y-101807950D01*
X207484458Y-101810035D01*
X207483737Y-101810988D01*
X207483145Y-101811762D01*
X207482118Y-101813388D01*
X207469546Y-101832518D01*
X207468288Y-101836649D01*
X207465915Y-101840258D01*
X207465779Y-101840550D01*
X207465737Y-101840530D01*
X207429914Y-101895038D01*
X207366065Y-101923412D01*
X207349674Y-101924500D01*
X207073765Y-101924500D01*
X207006726Y-101904815D01*
X206964333Y-101858815D01*
X206953196Y-101837915D01*
X206907441Y-101785111D01*
X206907435Y-101785104D01*
X206889853Y-101767160D01*
X206889852Y-101767159D01*
X206889850Y-101767157D01*
X206889848Y-101767156D01*
X206889846Y-101767154D01*
X206810036Y-101722511D01*
X206810031Y-101722509D01*
X206742999Y-101702826D01*
X206742995Y-101702825D01*
X206742994Y-101702825D01*
X206685096Y-101694500D01*
X205524000Y-101694500D01*
X205523992Y-101694500D01*
X205480313Y-101699197D01*
X205428825Y-101710397D01*
X205418627Y-101712890D01*
X205418619Y-101712893D01*
X205400120Y-101722751D01*
X205331699Y-101736905D01*
X205281274Y-101721538D01*
X205200779Y-101676511D01*
X205200774Y-101676509D01*
X205133742Y-101656826D01*
X205133738Y-101656825D01*
X205133737Y-101656825D01*
X205075839Y-101648500D01*
X204374500Y-101648500D01*
X204307461Y-101628815D01*
X204261706Y-101576011D01*
X204250500Y-101524500D01*
X204250500Y-101496534D01*
X204250499Y-101496530D01*
X204241244Y-101450000D01*
X204210130Y-101293580D01*
X204160194Y-101173026D01*
X204152726Y-101103559D01*
X204184001Y-101041080D01*
X204187045Y-101037924D01*
X204981460Y-100243511D01*
X204986944Y-100234012D01*
X205021021Y-100174989D01*
X205041500Y-100098562D01*
X205041500Y-96147610D01*
X205061185Y-96080571D01*
X205077819Y-96059929D01*
X205209518Y-95928231D01*
X205713460Y-95424290D01*
X205722281Y-95409012D01*
X205753021Y-95355768D01*
X205773500Y-95279341D01*
X205773500Y-92941739D01*
X206739500Y-92941739D01*
X206739500Y-94758260D01*
X206749426Y-94826391D01*
X206800803Y-94931485D01*
X206883514Y-95014196D01*
X206883515Y-95014196D01*
X206883517Y-95014198D01*
X206988607Y-95065573D01*
X207022673Y-95070536D01*
X207056739Y-95075500D01*
X207056740Y-95075500D01*
X207423261Y-95075500D01*
X207446932Y-95072051D01*
X207491393Y-95065573D01*
X207596483Y-95014198D01*
X207679198Y-94931483D01*
X207730573Y-94826393D01*
X207740500Y-94758260D01*
X207740500Y-94758217D01*
X208010001Y-94758217D01*
X208019912Y-94826249D01*
X208071215Y-94931191D01*
X208153808Y-95013784D01*
X208258755Y-95065089D01*
X208260000Y-95065269D01*
X208260000Y-94100000D01*
X208010001Y-94100000D01*
X208010001Y-94758217D01*
X207740500Y-94758217D01*
X207740500Y-92941780D01*
X208010000Y-92941780D01*
X208010000Y-93600000D01*
X208260000Y-93600000D01*
X208260000Y-92634730D01*
X208259999Y-92634729D01*
X208760000Y-92634729D01*
X208760000Y-95065269D01*
X208761244Y-95065089D01*
X208866191Y-95013784D01*
X208948787Y-94931188D01*
X209000087Y-94826251D01*
X209000088Y-94826248D01*
X209009999Y-94758219D01*
X209009999Y-94251463D01*
X209016237Y-94230216D01*
X209017817Y-94208129D01*
X209025888Y-94197346D01*
X209029683Y-94184424D01*
X209046419Y-94169922D01*
X209059689Y-94152196D01*
X209072307Y-94147489D01*
X209082487Y-94138669D01*
X209104405Y-94135517D01*
X209125153Y-94127779D01*
X209138313Y-94130641D01*
X209151646Y-94128725D01*
X209171789Y-94137924D01*
X209193426Y-94142631D01*
X209211151Y-94155899D01*
X209215202Y-94157750D01*
X209221680Y-94163782D01*
X209243181Y-94185283D01*
X209276666Y-94246606D01*
X209279500Y-94272964D01*
X209279500Y-94758260D01*
X209289426Y-94826391D01*
X209340803Y-94931485D01*
X209423514Y-95014196D01*
X209423515Y-95014196D01*
X209423517Y-95014198D01*
X209528607Y-95065573D01*
X209562673Y-95070536D01*
X209596739Y-95075500D01*
X209596740Y-95075500D01*
X209963261Y-95075500D01*
X209986932Y-95072051D01*
X210031393Y-95065573D01*
X210136483Y-95014198D01*
X210219198Y-94931483D01*
X210270573Y-94826393D01*
X210280500Y-94758260D01*
X210280500Y-92941740D01*
X210280500Y-92941739D01*
X210549500Y-92941739D01*
X210549500Y-94758260D01*
X210559426Y-94826391D01*
X210610803Y-94931485D01*
X210693514Y-95014196D01*
X210693515Y-95014196D01*
X210693517Y-95014198D01*
X210798607Y-95065573D01*
X210832673Y-95070536D01*
X210866739Y-95075500D01*
X210942892Y-95075500D01*
X211009931Y-95095185D01*
X211055686Y-95147989D01*
X211065630Y-95217147D01*
X211036605Y-95280703D01*
X211004893Y-95306887D01*
X210948387Y-95339511D01*
X210948384Y-95339513D01*
X210864513Y-95423384D01*
X210864511Y-95423387D01*
X210814580Y-95509870D01*
X210805201Y-95526114D01*
X210774500Y-95640691D01*
X210774500Y-95759309D01*
X210805201Y-95873886D01*
X210864511Y-95976613D01*
X210948387Y-96060489D01*
X211051114Y-96119799D01*
X211165691Y-96150500D01*
X211165694Y-96150500D01*
X211284306Y-96150500D01*
X211284309Y-96150500D01*
X211398886Y-96119799D01*
X211501613Y-96060489D01*
X211585489Y-95976613D01*
X211644799Y-95873886D01*
X211675500Y-95759309D01*
X211675500Y-95725833D01*
X211695185Y-95658794D01*
X211711819Y-95638152D01*
X212238152Y-95111819D01*
X212299475Y-95078334D01*
X212325833Y-95075500D01*
X212503261Y-95075500D01*
X212526932Y-95072051D01*
X212571393Y-95065573D01*
X212676483Y-95014198D01*
X212759198Y-94931483D01*
X212810573Y-94826393D01*
X212820500Y-94758260D01*
X212820500Y-92941740D01*
X212820347Y-92940693D01*
X212810594Y-92873750D01*
X212810573Y-92873607D01*
X212759198Y-92768517D01*
X212759196Y-92768515D01*
X212759196Y-92768514D01*
X212676485Y-92685803D01*
X212571391Y-92634426D01*
X212503261Y-92624500D01*
X212503260Y-92624500D01*
X212136740Y-92624500D01*
X212136739Y-92624500D01*
X212068608Y-92634426D01*
X211963514Y-92685803D01*
X211880803Y-92768514D01*
X211829426Y-92873608D01*
X211819500Y-92941739D01*
X211819500Y-93545931D01*
X211810620Y-93576169D01*
X211803482Y-93606890D01*
X211800848Y-93609449D01*
X211799815Y-93612970D01*
X211775998Y-93633607D01*
X211753383Y-93655592D01*
X211749784Y-93656321D01*
X211747011Y-93658725D01*
X211715810Y-93663211D01*
X211684907Y-93669478D01*
X211681485Y-93668146D01*
X211677853Y-93668669D01*
X211649174Y-93655572D01*
X211619794Y-93644138D01*
X211616902Y-93640834D01*
X211614297Y-93639644D01*
X211595193Y-93618831D01*
X211591363Y-93613561D01*
X211585489Y-93603387D01*
X211579925Y-93597823D01*
X211574193Y-93589936D01*
X211565592Y-93565844D01*
X211553334Y-93543394D01*
X211551504Y-93526378D01*
X211550703Y-93524133D01*
X211551085Y-93522485D01*
X211550500Y-93517036D01*
X211550500Y-92941739D01*
X211540594Y-92873750D01*
X211540573Y-92873607D01*
X211489198Y-92768517D01*
X211489196Y-92768515D01*
X211489196Y-92768514D01*
X211406485Y-92685803D01*
X211301391Y-92634426D01*
X211233261Y-92624500D01*
X211233260Y-92624500D01*
X210866740Y-92624500D01*
X210866739Y-92624500D01*
X210798608Y-92634426D01*
X210693514Y-92685803D01*
X210610803Y-92768514D01*
X210559426Y-92873608D01*
X210549500Y-92941739D01*
X210280500Y-92941739D01*
X210280347Y-92940693D01*
X210270594Y-92873750D01*
X210270573Y-92873607D01*
X210219198Y-92768517D01*
X210219196Y-92768515D01*
X210219196Y-92768514D01*
X210136485Y-92685803D01*
X210031391Y-92634426D01*
X209963261Y-92624500D01*
X209963260Y-92624500D01*
X209596740Y-92624500D01*
X209596739Y-92624500D01*
X209528608Y-92634426D01*
X209423514Y-92685803D01*
X209340803Y-92768514D01*
X209289426Y-92873608D01*
X209279500Y-92941739D01*
X209279500Y-93487036D01*
X209270855Y-93516477D01*
X209264331Y-93546465D01*
X209260577Y-93551479D01*
X209259815Y-93554075D01*
X209243179Y-93574719D01*
X209221678Y-93596219D01*
X209160354Y-93629703D01*
X209090663Y-93624717D01*
X209034730Y-93582844D01*
X209010315Y-93517379D01*
X209009999Y-93508536D01*
X209009999Y-92941782D01*
X209000087Y-92873750D01*
X208948784Y-92768808D01*
X208866188Y-92686212D01*
X208761249Y-92634911D01*
X208761250Y-92634911D01*
X208760000Y-92634729D01*
X208259999Y-92634729D01*
X208258750Y-92634911D01*
X208153811Y-92686212D01*
X208071212Y-92768811D01*
X208019912Y-92873748D01*
X208019911Y-92873751D01*
X208010000Y-92941780D01*
X207740500Y-92941780D01*
X207740500Y-92941740D01*
X207740347Y-92940693D01*
X207730594Y-92873750D01*
X207730573Y-92873607D01*
X207679198Y-92768517D01*
X207679196Y-92768515D01*
X207679196Y-92768514D01*
X207596485Y-92685803D01*
X207491391Y-92634426D01*
X207423261Y-92624500D01*
X207423260Y-92624500D01*
X207056740Y-92624500D01*
X207056739Y-92624500D01*
X206988608Y-92634426D01*
X206883514Y-92685803D01*
X206800803Y-92768514D01*
X206749426Y-92873608D01*
X206739500Y-92941739D01*
X205773500Y-92941739D01*
X205773500Y-91328385D01*
X205783751Y-91293475D01*
X210974500Y-91293475D01*
X210974500Y-91906517D01*
X210979423Y-91937598D01*
X210989354Y-92000304D01*
X211046950Y-92113342D01*
X211046952Y-92113344D01*
X211046954Y-92113347D01*
X211136652Y-92203045D01*
X211136654Y-92203046D01*
X211136658Y-92203050D01*
X211240527Y-92255974D01*
X211249698Y-92260647D01*
X211343475Y-92275499D01*
X211343481Y-92275500D01*
X211806518Y-92275499D01*
X211900304Y-92260646D01*
X212013342Y-92203050D01*
X212103050Y-92113342D01*
X212160646Y-92000304D01*
X212160646Y-92000302D01*
X212160647Y-92000301D01*
X212172503Y-91925439D01*
X212175500Y-91906519D01*
X212175499Y-91293482D01*
X212160646Y-91199696D01*
X212103050Y-91086658D01*
X212103046Y-91086654D01*
X212103045Y-91086652D01*
X212013347Y-90996954D01*
X212013344Y-90996952D01*
X212013342Y-90996950D01*
X211936517Y-90957805D01*
X211900301Y-90939352D01*
X211806524Y-90924500D01*
X211343482Y-90924500D01*
X211262519Y-90937323D01*
X211249696Y-90939354D01*
X211136658Y-90996950D01*
X211136657Y-90996951D01*
X211136652Y-90996954D01*
X211046954Y-91086652D01*
X211046951Y-91086657D01*
X211046950Y-91086658D01*
X211040903Y-91098526D01*
X210989352Y-91199698D01*
X210974500Y-91293475D01*
X205783751Y-91293475D01*
X205793185Y-91261346D01*
X205809819Y-91240704D01*
X205891286Y-91159237D01*
X206267076Y-90783449D01*
X207700001Y-90783449D01*
X207715762Y-90882967D01*
X207776883Y-91002923D01*
X207776886Y-91002928D01*
X207872071Y-91098113D01*
X207872076Y-91098116D01*
X207992034Y-91159239D01*
X208091543Y-91174999D01*
X208091554Y-91175000D01*
X208099999Y-91174999D01*
X208600000Y-91174999D01*
X208608449Y-91174999D01*
X208707967Y-91159237D01*
X208827923Y-91098116D01*
X208827928Y-91098113D01*
X208923113Y-91002928D01*
X208923116Y-91002923D01*
X208984239Y-90882966D01*
X209000000Y-90783456D01*
X209000000Y-90750000D01*
X208600000Y-90750000D01*
X208600000Y-91174999D01*
X208099999Y-91174999D01*
X208100000Y-91174998D01*
X208100000Y-90750000D01*
X207700001Y-90750000D01*
X207700001Y-90783449D01*
X206267076Y-90783449D01*
X206555460Y-90495066D01*
X206567327Y-90474511D01*
X206595021Y-90426544D01*
X206615500Y-90350117D01*
X206615500Y-90216543D01*
X207700000Y-90216543D01*
X207700000Y-90250000D01*
X208100000Y-90250000D01*
X208600000Y-90250000D01*
X208999999Y-90250000D01*
X208999999Y-90216550D01*
X208999992Y-90216506D01*
X209249500Y-90216506D01*
X209249500Y-90783493D01*
X209265279Y-90883121D01*
X209265280Y-90883124D01*
X209265281Y-90883126D01*
X209326472Y-91003220D01*
X209326473Y-91003221D01*
X209326476Y-91003225D01*
X209421774Y-91098523D01*
X209421778Y-91098526D01*
X209421780Y-91098528D01*
X209541874Y-91159719D01*
X209541876Y-91159719D01*
X209541878Y-91159720D01*
X209641507Y-91175500D01*
X209641512Y-91175500D01*
X210158493Y-91175500D01*
X210217615Y-91166136D01*
X210258121Y-91159720D01*
X210258121Y-91159719D01*
X210258126Y-91159719D01*
X210378220Y-91098528D01*
X210473528Y-91003220D01*
X210534719Y-90883126D01*
X210534744Y-90882967D01*
X210550500Y-90783493D01*
X210550500Y-90216506D01*
X210534720Y-90116878D01*
X210534719Y-90116876D01*
X210534719Y-90116874D01*
X210473528Y-89996780D01*
X210473526Y-89996778D01*
X210473523Y-89996774D01*
X210378225Y-89901476D01*
X210378221Y-89901473D01*
X210378220Y-89901472D01*
X210258126Y-89840281D01*
X210258124Y-89840280D01*
X210258121Y-89840279D01*
X210158493Y-89824500D01*
X210158488Y-89824500D01*
X209641512Y-89824500D01*
X209641507Y-89824500D01*
X209541878Y-89840279D01*
X209421778Y-89901473D01*
X209421774Y-89901476D01*
X209326476Y-89996774D01*
X209326473Y-89996778D01*
X209265279Y-90116878D01*
X209249500Y-90216506D01*
X208999992Y-90216506D01*
X208984237Y-90117032D01*
X208923116Y-89997076D01*
X208923113Y-89997071D01*
X208827928Y-89901886D01*
X208827923Y-89901883D01*
X208707965Y-89840760D01*
X208707966Y-89840760D01*
X208608456Y-89825000D01*
X208600000Y-89825000D01*
X208600000Y-90250000D01*
X208100000Y-90250000D01*
X208100000Y-89825000D01*
X208099999Y-89825000D01*
X208091553Y-89825001D01*
X208091547Y-89825001D01*
X207992032Y-89840762D01*
X207872076Y-89901883D01*
X207872071Y-89901886D01*
X207776886Y-89997071D01*
X207776883Y-89997076D01*
X207715760Y-90117033D01*
X207700000Y-90216543D01*
X206615500Y-90216543D01*
X206615500Y-89193475D01*
X210974500Y-89193475D01*
X210974500Y-89806517D01*
X210979848Y-89840281D01*
X210989354Y-89900304D01*
X211046950Y-90013342D01*
X211046952Y-90013344D01*
X211046954Y-90013347D01*
X211136652Y-90103045D01*
X211136654Y-90103046D01*
X211136658Y-90103050D01*
X211249694Y-90160645D01*
X211249698Y-90160647D01*
X211343475Y-90175499D01*
X211343481Y-90175500D01*
X211806518Y-90175499D01*
X211900304Y-90160646D01*
X212013342Y-90103050D01*
X212103050Y-90013342D01*
X212160646Y-89900304D01*
X212160646Y-89900302D01*
X212160647Y-89900301D01*
X212175499Y-89806524D01*
X212175500Y-89806519D01*
X212175499Y-89193482D01*
X212160646Y-89099696D01*
X212103050Y-88986658D01*
X212103046Y-88986654D01*
X212103045Y-88986652D01*
X212013347Y-88896954D01*
X212013344Y-88896952D01*
X212013342Y-88896950D01*
X211936517Y-88857805D01*
X211900301Y-88839352D01*
X211806524Y-88824500D01*
X211343482Y-88824500D01*
X211262519Y-88837323D01*
X211249696Y-88839354D01*
X211136658Y-88896950D01*
X211136657Y-88896951D01*
X211136652Y-88896954D01*
X211046954Y-88986652D01*
X211046951Y-88986657D01*
X211046950Y-88986658D01*
X211027751Y-89024337D01*
X210989352Y-89099698D01*
X210974500Y-89193475D01*
X206615500Y-89193475D01*
X206615500Y-86399163D01*
X206635185Y-86332124D01*
X206651819Y-86311482D01*
X207112149Y-85851152D01*
X207819460Y-85143841D01*
X207847391Y-85095463D01*
X207859021Y-85075319D01*
X207879500Y-84998892D01*
X207879500Y-83530247D01*
X208399500Y-83530247D01*
X208399500Y-84619752D01*
X208411131Y-84678229D01*
X208411132Y-84678230D01*
X208455447Y-84744552D01*
X208521769Y-84788867D01*
X208521770Y-84788868D01*
X208580247Y-84800499D01*
X208580250Y-84800500D01*
X208580252Y-84800500D01*
X208800500Y-84800500D01*
X208809185Y-84803050D01*
X208818147Y-84801762D01*
X208842187Y-84812740D01*
X208867539Y-84820185D01*
X208873466Y-84827025D01*
X208881703Y-84830787D01*
X208895992Y-84853021D01*
X208913294Y-84872989D01*
X208915581Y-84883503D01*
X208919477Y-84889565D01*
X208924500Y-84924500D01*
X208924500Y-85034932D01*
X208904815Y-85101971D01*
X208856796Y-85145415D01*
X208746780Y-85201472D01*
X208746779Y-85201473D01*
X208746774Y-85201476D01*
X208651476Y-85296774D01*
X208651473Y-85296778D01*
X208590279Y-85416878D01*
X208574500Y-85516506D01*
X208574500Y-86083493D01*
X208590279Y-86183121D01*
X208590280Y-86183124D01*
X208590281Y-86183126D01*
X208651472Y-86303220D01*
X208651473Y-86303221D01*
X208651476Y-86303225D01*
X208746774Y-86398523D01*
X208746778Y-86398526D01*
X208746780Y-86398528D01*
X208866874Y-86459719D01*
X208866876Y-86459719D01*
X208866878Y-86459720D01*
X208966507Y-86475500D01*
X208966512Y-86475500D01*
X209483493Y-86475500D01*
X209583121Y-86459720D01*
X209583121Y-86459719D01*
X209583126Y-86459719D01*
X209703220Y-86398528D01*
X209798528Y-86303220D01*
X209859719Y-86183126D01*
X209859744Y-86182967D01*
X209875500Y-86083493D01*
X209875500Y-86083449D01*
X210125001Y-86083449D01*
X210140762Y-86182967D01*
X210201883Y-86302923D01*
X210201886Y-86302928D01*
X210297071Y-86398113D01*
X210297076Y-86398116D01*
X210417034Y-86459239D01*
X210516543Y-86474999D01*
X210516554Y-86475000D01*
X210524999Y-86474999D01*
X211025000Y-86474999D01*
X211033449Y-86474999D01*
X211132967Y-86459237D01*
X211252923Y-86398116D01*
X211252928Y-86398113D01*
X211348113Y-86302928D01*
X211348116Y-86302923D01*
X211409239Y-86182966D01*
X211425000Y-86083456D01*
X211425000Y-86050000D01*
X211025000Y-86050000D01*
X211025000Y-86474999D01*
X210524999Y-86474999D01*
X210525000Y-86474998D01*
X210525000Y-86050000D01*
X210125001Y-86050000D01*
X210125001Y-86083449D01*
X209875500Y-86083449D01*
X209875500Y-85516543D01*
X210125000Y-85516543D01*
X210125000Y-85550000D01*
X210525000Y-85550000D01*
X210525000Y-85125000D01*
X210524999Y-85125000D01*
X210516553Y-85125001D01*
X210516547Y-85125001D01*
X210417032Y-85140762D01*
X210297076Y-85201883D01*
X210297071Y-85201886D01*
X210201886Y-85297071D01*
X210201883Y-85297076D01*
X210140760Y-85417033D01*
X210125000Y-85516543D01*
X209875500Y-85516543D01*
X209875500Y-85516506D01*
X209859720Y-85416878D01*
X209859719Y-85416876D01*
X209859719Y-85416874D01*
X209798528Y-85296780D01*
X209798526Y-85296778D01*
X209798523Y-85296774D01*
X209703225Y-85201476D01*
X209703222Y-85201474D01*
X209703220Y-85201472D01*
X209593203Y-85145415D01*
X209542409Y-85097442D01*
X209525500Y-85034932D01*
X209525500Y-84619702D01*
X210550000Y-84619702D01*
X210561602Y-84678033D01*
X210561603Y-84678034D01*
X210605808Y-84744191D01*
X210671965Y-84788396D01*
X210671966Y-84788397D01*
X210730297Y-84799999D01*
X210730301Y-84800000D01*
X210825000Y-84800000D01*
X210825000Y-84325000D01*
X210550000Y-84325000D01*
X210550000Y-84619702D01*
X209525500Y-84619702D01*
X209525500Y-84335439D01*
X209525500Y-84335438D01*
X209505021Y-84259011D01*
X209465460Y-84190489D01*
X209464746Y-84189775D01*
X209461062Y-84181430D01*
X209458334Y-84160591D01*
X209450500Y-84131351D01*
X209450500Y-83530249D01*
X209450499Y-83530247D01*
X209438868Y-83471770D01*
X209438867Y-83471769D01*
X209394552Y-83405447D01*
X209328230Y-83361132D01*
X209328229Y-83361131D01*
X209269752Y-83349500D01*
X209269748Y-83349500D01*
X208580252Y-83349500D01*
X208580247Y-83349500D01*
X208521770Y-83361131D01*
X208521769Y-83361132D01*
X208455447Y-83405447D01*
X208411132Y-83471769D01*
X208411131Y-83471770D01*
X208399500Y-83530247D01*
X207879500Y-83530247D01*
X207879500Y-83090691D01*
X210324500Y-83090691D01*
X210324500Y-83209309D01*
X210355201Y-83323886D01*
X210414511Y-83426613D01*
X210498387Y-83510489D01*
X210498390Y-83510491D01*
X210501482Y-83512863D01*
X210503433Y-83515535D01*
X210504134Y-83516236D01*
X210504024Y-83516345D01*
X210542687Y-83569289D01*
X210550000Y-83611242D01*
X210550000Y-83825000D01*
X211600000Y-83825000D01*
X211600000Y-83530301D01*
X211599999Y-83530297D01*
X211588397Y-83471966D01*
X211588396Y-83471965D01*
X211544191Y-83405808D01*
X211478034Y-83361603D01*
X211478033Y-83361602D01*
X211419702Y-83350000D01*
X211348372Y-83350000D01*
X211281333Y-83330315D01*
X211235578Y-83277511D01*
X211226577Y-83217436D01*
X211225500Y-83217436D01*
X211225500Y-83210247D01*
X211225434Y-83209807D01*
X211225498Y-83209312D01*
X211225500Y-83209309D01*
X211225500Y-83090691D01*
X211194799Y-82976114D01*
X211135489Y-82873387D01*
X211051613Y-82789511D01*
X210948886Y-82730201D01*
X210834309Y-82699500D01*
X210715691Y-82699500D01*
X210601114Y-82730201D01*
X210601112Y-82730201D01*
X210601112Y-82730202D01*
X210498387Y-82789511D01*
X210498384Y-82789513D01*
X210414513Y-82873384D01*
X210414511Y-82873387D01*
X210355201Y-82976114D01*
X210324500Y-83090691D01*
X207879500Y-83090691D01*
X207879500Y-79380247D01*
X208399500Y-79380247D01*
X208399500Y-80469752D01*
X208411131Y-80528229D01*
X208411132Y-80528230D01*
X208455447Y-80594552D01*
X208521769Y-80638867D01*
X208521770Y-80638868D01*
X208580247Y-80650499D01*
X208580250Y-80650500D01*
X208580252Y-80650500D01*
X209269750Y-80650500D01*
X209269751Y-80650499D01*
X209284568Y-80647552D01*
X209328229Y-80638868D01*
X209328229Y-80638867D01*
X209328231Y-80638867D01*
X209394552Y-80594552D01*
X209438867Y-80528231D01*
X209438867Y-80528229D01*
X209438868Y-80528229D01*
X209450499Y-80469752D01*
X209450500Y-80469750D01*
X209450500Y-80469702D01*
X210550000Y-80469702D01*
X210561602Y-80528033D01*
X210561603Y-80528034D01*
X210605808Y-80594191D01*
X210671965Y-80638396D01*
X210671966Y-80638397D01*
X210730297Y-80649999D01*
X210730301Y-80650000D01*
X210825000Y-80650000D01*
X211325000Y-80650000D01*
X211419699Y-80650000D01*
X211419702Y-80649999D01*
X211478033Y-80638397D01*
X211478034Y-80638396D01*
X211544191Y-80594191D01*
X211588396Y-80528034D01*
X211588397Y-80528033D01*
X211599999Y-80469702D01*
X211600000Y-80469699D01*
X211600000Y-80175000D01*
X211325000Y-80175000D01*
X211325000Y-80650000D01*
X210825000Y-80650000D01*
X210825000Y-80175000D01*
X210550000Y-80175000D01*
X210550000Y-80469702D01*
X209450500Y-80469702D01*
X209450500Y-79380297D01*
X210550000Y-79380297D01*
X210550000Y-79675000D01*
X210825000Y-79675000D01*
X211325000Y-79675000D01*
X211600000Y-79675000D01*
X211600000Y-79380301D01*
X211599999Y-79380297D01*
X211588397Y-79321966D01*
X211588396Y-79321965D01*
X211544191Y-79255808D01*
X211478034Y-79211603D01*
X211478033Y-79211602D01*
X211419702Y-79200000D01*
X211325000Y-79200000D01*
X211325000Y-79675000D01*
X210825000Y-79675000D01*
X210825000Y-79200000D01*
X210730297Y-79200000D01*
X210671966Y-79211602D01*
X210671965Y-79211603D01*
X210605808Y-79255808D01*
X210561603Y-79321965D01*
X210561602Y-79321966D01*
X210550000Y-79380297D01*
X209450500Y-79380297D01*
X209450500Y-79380249D01*
X209450499Y-79380247D01*
X209438868Y-79321770D01*
X209438867Y-79321769D01*
X209394552Y-79255447D01*
X209328230Y-79211132D01*
X209328229Y-79211131D01*
X209269752Y-79199500D01*
X209269748Y-79199500D01*
X208580252Y-79199500D01*
X208580247Y-79199500D01*
X208521770Y-79211131D01*
X208521769Y-79211132D01*
X208455447Y-79255447D01*
X208411132Y-79321769D01*
X208411131Y-79321770D01*
X208399500Y-79380247D01*
X207879500Y-79380247D01*
X207879500Y-78999609D01*
X207888144Y-78970168D01*
X207894668Y-78940182D01*
X207898422Y-78935166D01*
X207899185Y-78932570D01*
X207915819Y-78911928D01*
X208006928Y-78820819D01*
X208068251Y-78787334D01*
X208094609Y-78784500D01*
X213235560Y-78784500D01*
X213235562Y-78784500D01*
X213311989Y-78764021D01*
X213380511Y-78724460D01*
X213436460Y-78668511D01*
X215288152Y-76816819D01*
X215349475Y-76783334D01*
X215375833Y-76780500D01*
X215664750Y-76780500D01*
X215664751Y-76780499D01*
X215679568Y-76777552D01*
X215723229Y-76768868D01*
X215723231Y-76768867D01*
X215761108Y-76743558D01*
X215827785Y-76722679D01*
X215895165Y-76741163D01*
G37*
%TD.AperFunction*%
%TA.AperFunction,Conductor*%
G36*
X206073039Y-57670185D02*
G01*
X206118794Y-57722989D01*
X206130000Y-57774500D01*
X206130000Y-57820000D01*
X208030000Y-57820000D01*
X208030000Y-57774500D01*
X208049685Y-57707461D01*
X208102489Y-57661706D01*
X208154000Y-57650500D01*
X223506000Y-57650500D01*
X223573039Y-57670185D01*
X223618794Y-57722989D01*
X223630000Y-57774500D01*
X223630000Y-57820000D01*
X225530000Y-57820000D01*
X225530000Y-57774500D01*
X225549685Y-57707461D01*
X225602489Y-57661706D01*
X225654000Y-57650500D01*
X227426000Y-57650500D01*
X227493039Y-57670185D01*
X227538794Y-57722989D01*
X227550000Y-57774500D01*
X227550000Y-58170000D01*
X228166988Y-58170000D01*
X228134075Y-58227007D01*
X228100000Y-58354174D01*
X228100000Y-58485826D01*
X228134075Y-58612993D01*
X228166988Y-58670000D01*
X227550000Y-58670000D01*
X227550000Y-59289702D01*
X227561602Y-59348033D01*
X227561603Y-59348034D01*
X227605808Y-59414191D01*
X227671965Y-59458396D01*
X227671966Y-59458397D01*
X227730297Y-59469999D01*
X227730301Y-59470000D01*
X228350000Y-59470000D01*
X228350000Y-58853012D01*
X228407007Y-58885925D01*
X228534174Y-58920000D01*
X228665826Y-58920000D01*
X228792993Y-58885925D01*
X228850000Y-58853012D01*
X228850000Y-59470000D01*
X229245500Y-59470000D01*
X229312539Y-59489685D01*
X229358294Y-59542489D01*
X229369500Y-59594000D01*
X229369500Y-59978749D01*
X229349815Y-60045788D01*
X229297011Y-60091543D01*
X229227853Y-60101487D01*
X229176611Y-60081852D01*
X229097598Y-60029059D01*
X228906420Y-59949870D01*
X228906412Y-59949868D01*
X228703469Y-59909500D01*
X228703465Y-59909500D01*
X228496535Y-59909500D01*
X228496530Y-59909500D01*
X228293587Y-59949868D01*
X228293579Y-59949870D01*
X228102403Y-60029058D01*
X227930342Y-60144024D01*
X227784024Y-60290342D01*
X227669058Y-60462403D01*
X227589870Y-60653579D01*
X227589868Y-60653587D01*
X227549500Y-60856530D01*
X227549500Y-61063469D01*
X227589868Y-61266412D01*
X227589871Y-61266424D01*
X227604792Y-61302446D01*
X227612261Y-61371915D01*
X227580986Y-61434394D01*
X227520896Y-61470046D01*
X227451071Y-61467552D01*
X227402550Y-61437579D01*
X225566819Y-59601848D01*
X225533334Y-59540525D01*
X225530500Y-59514167D01*
X225530500Y-58870249D01*
X225530499Y-58870247D01*
X225518868Y-58811770D01*
X225518867Y-58811769D01*
X225493257Y-58773441D01*
X225489328Y-58760893D01*
X225481209Y-58750554D01*
X225479090Y-58728197D01*
X225472379Y-58706764D01*
X225475708Y-58692509D01*
X225474617Y-58680996D01*
X225483366Y-58659714D01*
X225486184Y-58647652D01*
X225522523Y-58577286D01*
X225529999Y-58539699D01*
X225530000Y-58539699D01*
X225530000Y-58320000D01*
X223630000Y-58320000D01*
X223630000Y-58539702D01*
X223641602Y-58598033D01*
X223641604Y-58598037D01*
X223666743Y-58635660D01*
X223687621Y-58702337D01*
X223669136Y-58769717D01*
X223666743Y-58773441D01*
X223641132Y-58811769D01*
X223641131Y-58811770D01*
X223629500Y-58870247D01*
X223629500Y-59809752D01*
X223641131Y-59868229D01*
X223641132Y-59868230D01*
X223666442Y-59906109D01*
X223687320Y-59972787D01*
X223668835Y-60040167D01*
X223666442Y-60043891D01*
X223641132Y-60081769D01*
X223641131Y-60081770D01*
X223629500Y-60140247D01*
X223629500Y-61079752D01*
X223641131Y-61138229D01*
X223641132Y-61138230D01*
X223666442Y-61176109D01*
X223687320Y-61242787D01*
X223668835Y-61310167D01*
X223666442Y-61313891D01*
X223641132Y-61351769D01*
X223641131Y-61351770D01*
X223629500Y-61410247D01*
X223629500Y-62349752D01*
X223641131Y-62408229D01*
X223641132Y-62408230D01*
X223666442Y-62446109D01*
X223687320Y-62512787D01*
X223668835Y-62580167D01*
X223666442Y-62583891D01*
X223641132Y-62621769D01*
X223641131Y-62621770D01*
X223629500Y-62680247D01*
X223629500Y-63619752D01*
X223641131Y-63678229D01*
X223641132Y-63678230D01*
X223666442Y-63716109D01*
X223687320Y-63782787D01*
X223668835Y-63850167D01*
X223666442Y-63853891D01*
X223641132Y-63891769D01*
X223641131Y-63891770D01*
X223629500Y-63950247D01*
X223629500Y-64889752D01*
X223641131Y-64948229D01*
X223641132Y-64948230D01*
X223666442Y-64986109D01*
X223687320Y-65052787D01*
X223668835Y-65120167D01*
X223666442Y-65123891D01*
X223641132Y-65161769D01*
X223641131Y-65161770D01*
X223629500Y-65220247D01*
X223629500Y-66159752D01*
X223641131Y-66218229D01*
X223641132Y-66218230D01*
X223666442Y-66256109D01*
X223687320Y-66322787D01*
X223668835Y-66390167D01*
X223666442Y-66393891D01*
X223641132Y-66431769D01*
X223641131Y-66431770D01*
X223629500Y-66490247D01*
X223629500Y-67429752D01*
X223641131Y-67488229D01*
X223641132Y-67488230D01*
X223666442Y-67526109D01*
X223687320Y-67592787D01*
X223668835Y-67660167D01*
X223666442Y-67663891D01*
X223641132Y-67701769D01*
X223641131Y-67701770D01*
X223629500Y-67760247D01*
X223629500Y-68699752D01*
X223641131Y-68758229D01*
X223641132Y-68758230D01*
X223666442Y-68796109D01*
X223687320Y-68862787D01*
X223668835Y-68930167D01*
X223666442Y-68933891D01*
X223641132Y-68971769D01*
X223641131Y-68971770D01*
X223629500Y-69030247D01*
X223629500Y-69969752D01*
X223641131Y-70028229D01*
X223641132Y-70028230D01*
X223666442Y-70066109D01*
X223687320Y-70132787D01*
X223668835Y-70200167D01*
X223666442Y-70203891D01*
X223641132Y-70241769D01*
X223641131Y-70241770D01*
X223629500Y-70300247D01*
X223629500Y-71239752D01*
X223641131Y-71298229D01*
X223641132Y-71298230D01*
X223666442Y-71336109D01*
X223687320Y-71402787D01*
X223668835Y-71470167D01*
X223666442Y-71473891D01*
X223641132Y-71511769D01*
X223641131Y-71511770D01*
X223629500Y-71570247D01*
X223629500Y-72509752D01*
X223641131Y-72568229D01*
X223641132Y-72568230D01*
X223666442Y-72606109D01*
X223687320Y-72672787D01*
X223668835Y-72740167D01*
X223666442Y-72743891D01*
X223641132Y-72781769D01*
X223641131Y-72781770D01*
X223629500Y-72840247D01*
X223629500Y-73779752D01*
X223641131Y-73838229D01*
X223641132Y-73838230D01*
X223666442Y-73876109D01*
X223687320Y-73942787D01*
X223668835Y-74010167D01*
X223666442Y-74013891D01*
X223641132Y-74051769D01*
X223641131Y-74051770D01*
X223629500Y-74110247D01*
X223629500Y-74856033D01*
X223609815Y-74923072D01*
X223557011Y-74968827D01*
X223487853Y-74978771D01*
X223424297Y-74949746D01*
X223417819Y-74943714D01*
X223409553Y-74935448D01*
X223343230Y-74891132D01*
X223343229Y-74891131D01*
X223284752Y-74879500D01*
X223284748Y-74879500D01*
X222345252Y-74879500D01*
X222345247Y-74879500D01*
X222286770Y-74891131D01*
X222286769Y-74891132D01*
X222248891Y-74916442D01*
X222182213Y-74937320D01*
X222114833Y-74918835D01*
X222111109Y-74916442D01*
X222073230Y-74891132D01*
X222073229Y-74891131D01*
X222014752Y-74879500D01*
X222014748Y-74879500D01*
X221075252Y-74879500D01*
X221075247Y-74879500D01*
X221016770Y-74891131D01*
X221016769Y-74891132D01*
X220978891Y-74916442D01*
X220912213Y-74937320D01*
X220844833Y-74918835D01*
X220841109Y-74916442D01*
X220803230Y-74891132D01*
X220803229Y-74891131D01*
X220744752Y-74879500D01*
X220744748Y-74879500D01*
X219805252Y-74879500D01*
X219805247Y-74879500D01*
X219746770Y-74891131D01*
X219746769Y-74891132D01*
X219708891Y-74916442D01*
X219642213Y-74937320D01*
X219574833Y-74918835D01*
X219571109Y-74916442D01*
X219533230Y-74891132D01*
X219533229Y-74891131D01*
X219474752Y-74879500D01*
X219474748Y-74879500D01*
X218535252Y-74879500D01*
X218535247Y-74879500D01*
X218476770Y-74891131D01*
X218476769Y-74891132D01*
X218438891Y-74916442D01*
X218372213Y-74937320D01*
X218304833Y-74918835D01*
X218301109Y-74916442D01*
X218263230Y-74891132D01*
X218263229Y-74891131D01*
X218204752Y-74879500D01*
X218204748Y-74879500D01*
X217265252Y-74879500D01*
X217265247Y-74879500D01*
X217206770Y-74891131D01*
X217206769Y-74891132D01*
X217168891Y-74916442D01*
X217102213Y-74937320D01*
X217034833Y-74918835D01*
X217031109Y-74916442D01*
X216993230Y-74891132D01*
X216993229Y-74891131D01*
X216934752Y-74879500D01*
X216934748Y-74879500D01*
X215995252Y-74879500D01*
X215995247Y-74879500D01*
X215936770Y-74891131D01*
X215936769Y-74891132D01*
X215898891Y-74916442D01*
X215832213Y-74937320D01*
X215764833Y-74918835D01*
X215761109Y-74916442D01*
X215723230Y-74891132D01*
X215723229Y-74891131D01*
X215664752Y-74879500D01*
X215664748Y-74879500D01*
X214725252Y-74879500D01*
X214725247Y-74879500D01*
X214666770Y-74891131D01*
X214666769Y-74891132D01*
X214628891Y-74916442D01*
X214562213Y-74937320D01*
X214494833Y-74918835D01*
X214491109Y-74916442D01*
X214453230Y-74891132D01*
X214453229Y-74891131D01*
X214394752Y-74879500D01*
X214394748Y-74879500D01*
X213455252Y-74879500D01*
X213455247Y-74879500D01*
X213396770Y-74891131D01*
X213396769Y-74891132D01*
X213358891Y-74916442D01*
X213292213Y-74937320D01*
X213224833Y-74918835D01*
X213221109Y-74916442D01*
X213183230Y-74891132D01*
X213183229Y-74891131D01*
X213124752Y-74879500D01*
X213124748Y-74879500D01*
X212185252Y-74879500D01*
X212185247Y-74879500D01*
X212126770Y-74891131D01*
X212126769Y-74891132D01*
X212088891Y-74916442D01*
X212022213Y-74937320D01*
X211954833Y-74918835D01*
X211951109Y-74916442D01*
X211913230Y-74891132D01*
X211913229Y-74891131D01*
X211854752Y-74879500D01*
X211854748Y-74879500D01*
X210915252Y-74879500D01*
X210915247Y-74879500D01*
X210856770Y-74891131D01*
X210856769Y-74891132D01*
X210818891Y-74916442D01*
X210752213Y-74937320D01*
X210684833Y-74918835D01*
X210681109Y-74916442D01*
X210643230Y-74891132D01*
X210643229Y-74891131D01*
X210584752Y-74879500D01*
X210584748Y-74879500D01*
X209645252Y-74879500D01*
X209645247Y-74879500D01*
X209586770Y-74891131D01*
X209586769Y-74891132D01*
X209548891Y-74916442D01*
X209482213Y-74937320D01*
X209414833Y-74918835D01*
X209411109Y-74916442D01*
X209373230Y-74891132D01*
X209373229Y-74891131D01*
X209314752Y-74879500D01*
X209314748Y-74879500D01*
X208375252Y-74879500D01*
X208375247Y-74879500D01*
X208316770Y-74891131D01*
X208316769Y-74891132D01*
X208250446Y-74935448D01*
X208242181Y-74943714D01*
X208180858Y-74977199D01*
X208111166Y-74972215D01*
X208055233Y-74930343D01*
X208030816Y-74864879D01*
X208030500Y-74856033D01*
X208030500Y-74110249D01*
X208030499Y-74110247D01*
X208018868Y-74051770D01*
X208018867Y-74051768D01*
X207993558Y-74013892D01*
X207972679Y-73947215D01*
X207991163Y-73879835D01*
X207993558Y-73876108D01*
X208018867Y-73838231D01*
X208018868Y-73838229D01*
X208030499Y-73779752D01*
X208030500Y-73779750D01*
X208030500Y-72840249D01*
X208030499Y-72840247D01*
X208018868Y-72781770D01*
X208018867Y-72781768D01*
X207993558Y-72743892D01*
X207972679Y-72677215D01*
X207991163Y-72609835D01*
X207993558Y-72606108D01*
X208018867Y-72568231D01*
X208018868Y-72568229D01*
X208030499Y-72509752D01*
X208030500Y-72509750D01*
X208030500Y-71570249D01*
X208030499Y-71570247D01*
X208018868Y-71511770D01*
X208018867Y-71511768D01*
X207993558Y-71473892D01*
X207972679Y-71407215D01*
X207991163Y-71339835D01*
X207993558Y-71336108D01*
X208018867Y-71298231D01*
X208018868Y-71298229D01*
X208030499Y-71239752D01*
X208030500Y-71239750D01*
X208030500Y-70300249D01*
X208030499Y-70300247D01*
X208018868Y-70241770D01*
X208018867Y-70241768D01*
X207993558Y-70203892D01*
X207972679Y-70137215D01*
X207991163Y-70069835D01*
X207993558Y-70066108D01*
X208018867Y-70028231D01*
X208018868Y-70028229D01*
X208030499Y-69969752D01*
X208030500Y-69969750D01*
X208030500Y-69030249D01*
X208030499Y-69030247D01*
X208018868Y-68971770D01*
X208018867Y-68971768D01*
X207993558Y-68933892D01*
X207972679Y-68867215D01*
X207991163Y-68799835D01*
X207993558Y-68796108D01*
X208018867Y-68758231D01*
X208018868Y-68758229D01*
X208030499Y-68699752D01*
X208030500Y-68699750D01*
X208030500Y-67760249D01*
X208030499Y-67760247D01*
X208018868Y-67701770D01*
X208018867Y-67701768D01*
X207993558Y-67663892D01*
X207972679Y-67597215D01*
X207991163Y-67529835D01*
X207993558Y-67526108D01*
X208018867Y-67488231D01*
X208018868Y-67488229D01*
X208030499Y-67429752D01*
X208030500Y-67429750D01*
X208030500Y-66490249D01*
X208030499Y-66490247D01*
X208018868Y-66431770D01*
X208018867Y-66431768D01*
X207993558Y-66393892D01*
X207972679Y-66327215D01*
X207991163Y-66259835D01*
X207993558Y-66256108D01*
X208018867Y-66218231D01*
X208018868Y-66218229D01*
X208030499Y-66159752D01*
X208030500Y-66159750D01*
X208030500Y-65220249D01*
X208030499Y-65220247D01*
X208018868Y-65161770D01*
X208018867Y-65161768D01*
X207993558Y-65123892D01*
X207972679Y-65057215D01*
X207991163Y-64989835D01*
X207993558Y-64986108D01*
X208018867Y-64948231D01*
X208018868Y-64948229D01*
X208030499Y-64889752D01*
X208030500Y-64889750D01*
X208030500Y-63950249D01*
X208030499Y-63950247D01*
X208018868Y-63891770D01*
X208018867Y-63891768D01*
X207993558Y-63853892D01*
X207972679Y-63787215D01*
X207991163Y-63719835D01*
X207993558Y-63716108D01*
X208018867Y-63678231D01*
X208018868Y-63678229D01*
X208029702Y-63623760D01*
X208030500Y-63619748D01*
X208030500Y-62680252D01*
X208030500Y-62680249D01*
X208030499Y-62680247D01*
X208018868Y-62621770D01*
X208018867Y-62621768D01*
X207993558Y-62583892D01*
X207972679Y-62517215D01*
X207991163Y-62449835D01*
X207993558Y-62446108D01*
X208018867Y-62408231D01*
X208018868Y-62408229D01*
X208030499Y-62349752D01*
X208030500Y-62349750D01*
X208030500Y-61410249D01*
X208030499Y-61410247D01*
X208018868Y-61351770D01*
X208018867Y-61351768D01*
X207993558Y-61313892D01*
X207972679Y-61247215D01*
X207991163Y-61179835D01*
X207993558Y-61176108D01*
X208018867Y-61138231D01*
X208018868Y-61138229D01*
X208030499Y-61079752D01*
X208030500Y-61079750D01*
X208030500Y-60550691D01*
X208279500Y-60550691D01*
X208279500Y-60669309D01*
X208310201Y-60783886D01*
X208369511Y-60886613D01*
X208453387Y-60970489D01*
X208556114Y-61029799D01*
X208670691Y-61060500D01*
X208670694Y-61060500D01*
X208789306Y-61060500D01*
X208789309Y-61060500D01*
X208903886Y-61029799D01*
X209006613Y-60970489D01*
X209090489Y-60886613D01*
X209149799Y-60783886D01*
X209180500Y-60669309D01*
X209180500Y-60550691D01*
X209149799Y-60436114D01*
X209090489Y-60333387D01*
X209006613Y-60249511D01*
X208903886Y-60190201D01*
X208789309Y-60159500D01*
X208670691Y-60159500D01*
X208556114Y-60190201D01*
X208556112Y-60190201D01*
X208556112Y-60190202D01*
X208453387Y-60249511D01*
X208453384Y-60249513D01*
X208369513Y-60333384D01*
X208369511Y-60333387D01*
X208310201Y-60436114D01*
X208279500Y-60550691D01*
X208030500Y-60550691D01*
X208030500Y-60140249D01*
X208030499Y-60140247D01*
X208018868Y-60081770D01*
X208018867Y-60081768D01*
X207993558Y-60043892D01*
X207972679Y-59977215D01*
X207991163Y-59909835D01*
X207993558Y-59906108D01*
X208018867Y-59868231D01*
X208018868Y-59868229D01*
X208030499Y-59809752D01*
X208030500Y-59809750D01*
X208030500Y-58870249D01*
X208030499Y-58870247D01*
X208018868Y-58811770D01*
X208018867Y-58811769D01*
X207993257Y-58773441D01*
X207972379Y-58706764D01*
X207990863Y-58639384D01*
X207993257Y-58635660D01*
X208018395Y-58598037D01*
X208018397Y-58598033D01*
X208029999Y-58539702D01*
X208030000Y-58539699D01*
X208030000Y-58320000D01*
X206130000Y-58320000D01*
X206130000Y-58539702D01*
X206141602Y-58598033D01*
X206141604Y-58598037D01*
X206166743Y-58635660D01*
X206187621Y-58702337D01*
X206169136Y-58769717D01*
X206166743Y-58773441D01*
X206141132Y-58811769D01*
X206141131Y-58811770D01*
X206129500Y-58870247D01*
X206129500Y-59809752D01*
X206141131Y-59868229D01*
X206141132Y-59868230D01*
X206166442Y-59906109D01*
X206187320Y-59972787D01*
X206183199Y-60006777D01*
X206177908Y-60026730D01*
X206141133Y-60081769D01*
X206129500Y-60140252D01*
X206129500Y-60209324D01*
X206125359Y-60224944D01*
X206115289Y-60241563D01*
X206109815Y-60260206D01*
X206097557Y-60270826D01*
X206089152Y-60284700D01*
X206071695Y-60293237D01*
X206057011Y-60305961D01*
X206037598Y-60312940D01*
X206000085Y-60322992D01*
X205974010Y-60329979D01*
X205914934Y-60364087D01*
X205914933Y-60364086D01*
X205905492Y-60369537D01*
X205905487Y-60369541D01*
X203762104Y-62512923D01*
X203700781Y-62546408D01*
X203631089Y-62541424D01*
X203626971Y-62539803D01*
X203506424Y-62489871D01*
X203506412Y-62489868D01*
X203303469Y-62449500D01*
X203303465Y-62449500D01*
X203096535Y-62449500D01*
X203096530Y-62449500D01*
X202893587Y-62489868D01*
X202893579Y-62489870D01*
X202702401Y-62569059D01*
X202623389Y-62621852D01*
X202556712Y-62642729D01*
X202489332Y-62624244D01*
X202442642Y-62572264D01*
X202430500Y-62518749D01*
X202430500Y-61941250D01*
X202450185Y-61874211D01*
X202502989Y-61828456D01*
X202572147Y-61818512D01*
X202623390Y-61838148D01*
X202702400Y-61890940D01*
X202702401Y-61890940D01*
X202702402Y-61890941D01*
X202893580Y-61970130D01*
X203096530Y-62010499D01*
X203096534Y-62010500D01*
X203096535Y-62010500D01*
X203303466Y-62010500D01*
X203303467Y-62010499D01*
X203506420Y-61970130D01*
X203697598Y-61890941D01*
X203869655Y-61775977D01*
X204015977Y-61629655D01*
X204130941Y-61457598D01*
X204210130Y-61266420D01*
X204250500Y-61063465D01*
X204250500Y-60856535D01*
X204210130Y-60653580D01*
X204130941Y-60462402D01*
X204015977Y-60290345D01*
X204015975Y-60290342D01*
X203869657Y-60144024D01*
X203719797Y-60043892D01*
X203697598Y-60029059D01*
X203664738Y-60015448D01*
X203506420Y-59949870D01*
X203506412Y-59949868D01*
X203303469Y-59909500D01*
X203303465Y-59909500D01*
X203096535Y-59909500D01*
X203096530Y-59909500D01*
X202893587Y-59949868D01*
X202893579Y-59949870D01*
X202702401Y-60029059D01*
X202623389Y-60081852D01*
X202613690Y-60084888D01*
X202606011Y-60091543D01*
X202580911Y-60095151D01*
X202556712Y-60102729D01*
X202546912Y-60100040D01*
X202536853Y-60101487D01*
X202513786Y-60090952D01*
X202489332Y-60084244D01*
X202482541Y-60076683D01*
X202473297Y-60072462D01*
X202459587Y-60051129D01*
X202442642Y-60032264D01*
X202440010Y-60020667D01*
X202435523Y-60013684D01*
X202430500Y-59978749D01*
X202430500Y-59740691D01*
X204949500Y-59740691D01*
X204949500Y-59859309D01*
X204980201Y-59973886D01*
X205039511Y-60076613D01*
X205123387Y-60160489D01*
X205226114Y-60219799D01*
X205340691Y-60250500D01*
X205340694Y-60250500D01*
X205459306Y-60250500D01*
X205459309Y-60250500D01*
X205573886Y-60219799D01*
X205676613Y-60160489D01*
X205760489Y-60076613D01*
X205819799Y-59973886D01*
X205850500Y-59859309D01*
X205850500Y-59740691D01*
X205819799Y-59626114D01*
X205760489Y-59523387D01*
X205676613Y-59439511D01*
X205573886Y-59380201D01*
X205459309Y-59349500D01*
X205340691Y-59349500D01*
X205226114Y-59380201D01*
X205226112Y-59380201D01*
X205226112Y-59380202D01*
X205123387Y-59439511D01*
X205123384Y-59439513D01*
X205039513Y-59523384D01*
X205039511Y-59523387D01*
X204980201Y-59626114D01*
X204949500Y-59740691D01*
X202430500Y-59740691D01*
X202430500Y-59594000D01*
X202450185Y-59526961D01*
X202502989Y-59481206D01*
X202554500Y-59470000D01*
X202950000Y-59470000D01*
X202950000Y-58853012D01*
X203007007Y-58885925D01*
X203134174Y-58920000D01*
X203265826Y-58920000D01*
X203392993Y-58885925D01*
X203450000Y-58853012D01*
X203450000Y-59470000D01*
X204069699Y-59470000D01*
X204069702Y-59469999D01*
X204128033Y-59458397D01*
X204128034Y-59458396D01*
X204194191Y-59414191D01*
X204238396Y-59348034D01*
X204238397Y-59348033D01*
X204249999Y-59289702D01*
X204250000Y-59289699D01*
X204250000Y-58670000D01*
X203633012Y-58670000D01*
X203665925Y-58612993D01*
X203700000Y-58485826D01*
X203700000Y-58354174D01*
X203665925Y-58227007D01*
X203633012Y-58170000D01*
X204250000Y-58170000D01*
X204250000Y-57774500D01*
X204269685Y-57707461D01*
X204322489Y-57661706D01*
X204374000Y-57650500D01*
X206006000Y-57650500D01*
X206073039Y-57670185D01*
G37*
%TD.AperFunction*%
%TD*%
M02*
