%TF.GenerationSoftware,KiCad,Pcbnew,9.0.5*%
%TF.CreationDate,2025-10-31T18:05:51+09:00*%
%TF.ProjectId,ESP32S3,45535033-3253-4332-9e6b-696361645f70,rev?*%
%TF.SameCoordinates,Original*%
%TF.FileFunction,Legend,Top*%
%TF.FilePolarity,Positive*%
%FSLAX46Y46*%
G04 Gerber Fmt 4.6, Leading zero omitted, Abs format (unit mm)*
G04 Created by KiCad (PCBNEW 9.0.5) date 2025-10-31 18:05:51*
%MOMM*%
%LPD*%
G01*
G04 APERTURE LIST*
%ADD10C,0.100000*%
%ADD11C,0.200000*%
%ADD12C,0.125000*%
%ADD13C,0.120000*%
%ADD14C,0.127000*%
G04 APERTURE END LIST*
D10*
X218567000Y-82550000D02*
X218186000Y-82042000D01*
X218567000Y-81534000D01*
X218567000Y-82550000D01*
G36*
X218567000Y-82550000D02*
G01*
X218186000Y-82042000D01*
X218567000Y-81534000D01*
X218567000Y-82550000D01*
G37*
X226227312Y-102196895D02*
X225770169Y-102196895D01*
X225998741Y-102196895D02*
X225998741Y-101396895D01*
X225998741Y-101396895D02*
X225922550Y-101511180D01*
X225922550Y-101511180D02*
X225846360Y-101587371D01*
X225846360Y-101587371D02*
X225770169Y-101625466D01*
X226493979Y-101396895D02*
X226989217Y-101396895D01*
X226989217Y-101396895D02*
X226722551Y-101701657D01*
X226722551Y-101701657D02*
X226836836Y-101701657D01*
X226836836Y-101701657D02*
X226913027Y-101739752D01*
X226913027Y-101739752D02*
X226951122Y-101777847D01*
X226951122Y-101777847D02*
X226989217Y-101854038D01*
X226989217Y-101854038D02*
X226989217Y-102044514D01*
X226989217Y-102044514D02*
X226951122Y-102120704D01*
X226951122Y-102120704D02*
X226913027Y-102158800D01*
X226913027Y-102158800D02*
X226836836Y-102196895D01*
X226836836Y-102196895D02*
X226608265Y-102196895D01*
X226608265Y-102196895D02*
X226532074Y-102158800D01*
X226532074Y-102158800D02*
X226493979Y-102120704D01*
X226278169Y-65721085D02*
X226316265Y-65682990D01*
X226316265Y-65682990D02*
X226392455Y-65644895D01*
X226392455Y-65644895D02*
X226582931Y-65644895D01*
X226582931Y-65644895D02*
X226659122Y-65682990D01*
X226659122Y-65682990D02*
X226697217Y-65721085D01*
X226697217Y-65721085D02*
X226735312Y-65797276D01*
X226735312Y-65797276D02*
X226735312Y-65873466D01*
X226735312Y-65873466D02*
X226697217Y-65987752D01*
X226697217Y-65987752D02*
X226240074Y-66444895D01*
X226240074Y-66444895D02*
X226735312Y-66444895D01*
X204904074Y-60564895D02*
X205399312Y-60564895D01*
X205399312Y-60564895D02*
X205132646Y-60869657D01*
X205132646Y-60869657D02*
X205246931Y-60869657D01*
X205246931Y-60869657D02*
X205323122Y-60907752D01*
X205323122Y-60907752D02*
X205361217Y-60945847D01*
X205361217Y-60945847D02*
X205399312Y-61022038D01*
X205399312Y-61022038D02*
X205399312Y-61212514D01*
X205399312Y-61212514D02*
X205361217Y-61288704D01*
X205361217Y-61288704D02*
X205323122Y-61326800D01*
X205323122Y-61326800D02*
X205246931Y-61364895D01*
X205246931Y-61364895D02*
X205018360Y-61364895D01*
X205018360Y-61364895D02*
X204942169Y-61326800D01*
X204942169Y-61326800D02*
X204904074Y-61288704D01*
X205665979Y-60831561D02*
X205856455Y-61364895D01*
X205856455Y-61364895D02*
X206046932Y-60831561D01*
X225732074Y-78246895D02*
X226227312Y-78246895D01*
X226227312Y-78246895D02*
X225960646Y-78551657D01*
X225960646Y-78551657D02*
X226074931Y-78551657D01*
X226074931Y-78551657D02*
X226151122Y-78589752D01*
X226151122Y-78589752D02*
X226189217Y-78627847D01*
X226189217Y-78627847D02*
X226227312Y-78704038D01*
X226227312Y-78704038D02*
X226227312Y-78894514D01*
X226227312Y-78894514D02*
X226189217Y-78970704D01*
X226189217Y-78970704D02*
X226151122Y-79008800D01*
X226151122Y-79008800D02*
X226074931Y-79046895D01*
X226074931Y-79046895D02*
X225846360Y-79046895D01*
X225846360Y-79046895D02*
X225770169Y-79008800D01*
X225770169Y-79008800D02*
X225732074Y-78970704D01*
X226684455Y-78589752D02*
X226608265Y-78551657D01*
X226608265Y-78551657D02*
X226570170Y-78513561D01*
X226570170Y-78513561D02*
X226532074Y-78437371D01*
X226532074Y-78437371D02*
X226532074Y-78399276D01*
X226532074Y-78399276D02*
X226570170Y-78323085D01*
X226570170Y-78323085D02*
X226608265Y-78284990D01*
X226608265Y-78284990D02*
X226684455Y-78246895D01*
X226684455Y-78246895D02*
X226836836Y-78246895D01*
X226836836Y-78246895D02*
X226913027Y-78284990D01*
X226913027Y-78284990D02*
X226951122Y-78323085D01*
X226951122Y-78323085D02*
X226989217Y-78399276D01*
X226989217Y-78399276D02*
X226989217Y-78437371D01*
X226989217Y-78437371D02*
X226951122Y-78513561D01*
X226951122Y-78513561D02*
X226913027Y-78551657D01*
X226913027Y-78551657D02*
X226836836Y-78589752D01*
X226836836Y-78589752D02*
X226684455Y-78589752D01*
X226684455Y-78589752D02*
X226608265Y-78627847D01*
X226608265Y-78627847D02*
X226570170Y-78665942D01*
X226570170Y-78665942D02*
X226532074Y-78742133D01*
X226532074Y-78742133D02*
X226532074Y-78894514D01*
X226532074Y-78894514D02*
X226570170Y-78970704D01*
X226570170Y-78970704D02*
X226608265Y-79008800D01*
X226608265Y-79008800D02*
X226684455Y-79046895D01*
X226684455Y-79046895D02*
X226836836Y-79046895D01*
X226836836Y-79046895D02*
X226913027Y-79008800D01*
X226913027Y-79008800D02*
X226951122Y-78970704D01*
X226951122Y-78970704D02*
X226989217Y-78894514D01*
X226989217Y-78894514D02*
X226989217Y-78742133D01*
X226989217Y-78742133D02*
X226951122Y-78665942D01*
X226951122Y-78665942D02*
X226913027Y-78627847D01*
X226913027Y-78627847D02*
X226836836Y-78589752D01*
X225732074Y-80884895D02*
X226227312Y-80884895D01*
X226227312Y-80884895D02*
X225960646Y-81189657D01*
X225960646Y-81189657D02*
X226074931Y-81189657D01*
X226074931Y-81189657D02*
X226151122Y-81227752D01*
X226151122Y-81227752D02*
X226189217Y-81265847D01*
X226189217Y-81265847D02*
X226227312Y-81342038D01*
X226227312Y-81342038D02*
X226227312Y-81532514D01*
X226227312Y-81532514D02*
X226189217Y-81608704D01*
X226189217Y-81608704D02*
X226151122Y-81646800D01*
X226151122Y-81646800D02*
X226074931Y-81684895D01*
X226074931Y-81684895D02*
X225846360Y-81684895D01*
X225846360Y-81684895D02*
X225770169Y-81646800D01*
X225770169Y-81646800D02*
X225732074Y-81608704D01*
X226493979Y-80884895D02*
X227027313Y-80884895D01*
X227027313Y-80884895D02*
X226684455Y-81684895D01*
X226151122Y-71113561D02*
X226151122Y-71646895D01*
X225960646Y-70808800D02*
X225770169Y-71380228D01*
X225770169Y-71380228D02*
X226265408Y-71380228D01*
X226989217Y-71646895D02*
X226532074Y-71646895D01*
X226760646Y-71646895D02*
X226760646Y-70846895D01*
X226760646Y-70846895D02*
X226684455Y-70961180D01*
X226684455Y-70961180D02*
X226608265Y-71037371D01*
X226608265Y-71037371D02*
X226532074Y-71075466D01*
X226468646Y-88546895D02*
X226544836Y-88546895D01*
X226544836Y-88546895D02*
X226621027Y-88584990D01*
X226621027Y-88584990D02*
X226659122Y-88623085D01*
X226659122Y-88623085D02*
X226697217Y-88699276D01*
X226697217Y-88699276D02*
X226735312Y-88851657D01*
X226735312Y-88851657D02*
X226735312Y-89042133D01*
X226735312Y-89042133D02*
X226697217Y-89194514D01*
X226697217Y-89194514D02*
X226659122Y-89270704D01*
X226659122Y-89270704D02*
X226621027Y-89308800D01*
X226621027Y-89308800D02*
X226544836Y-89346895D01*
X226544836Y-89346895D02*
X226468646Y-89346895D01*
X226468646Y-89346895D02*
X226392455Y-89308800D01*
X226392455Y-89308800D02*
X226354360Y-89270704D01*
X226354360Y-89270704D02*
X226316265Y-89194514D01*
X226316265Y-89194514D02*
X226278169Y-89042133D01*
X226278169Y-89042133D02*
X226278169Y-88851657D01*
X226278169Y-88851657D02*
X226316265Y-88699276D01*
X226316265Y-88699276D02*
X226354360Y-88623085D01*
X226354360Y-88623085D02*
X226392455Y-88584990D01*
X226392455Y-88584990D02*
X226468646Y-88546895D01*
X223180074Y-99496895D02*
X223675312Y-99496895D01*
X223675312Y-99496895D02*
X223408646Y-99801657D01*
X223408646Y-99801657D02*
X223522931Y-99801657D01*
X223522931Y-99801657D02*
X223599122Y-99839752D01*
X223599122Y-99839752D02*
X223637217Y-99877847D01*
X223637217Y-99877847D02*
X223675312Y-99954038D01*
X223675312Y-99954038D02*
X223675312Y-100144514D01*
X223675312Y-100144514D02*
X223637217Y-100220704D01*
X223637217Y-100220704D02*
X223599122Y-100258800D01*
X223599122Y-100258800D02*
X223522931Y-100296895D01*
X223522931Y-100296895D02*
X223294360Y-100296895D01*
X223294360Y-100296895D02*
X223218169Y-100258800D01*
X223218169Y-100258800D02*
X223180074Y-100220704D01*
X223941979Y-99763561D02*
X224132455Y-100296895D01*
X224132455Y-100296895D02*
X224322932Y-99763561D01*
X224551503Y-99496895D02*
X225046741Y-99496895D01*
X225046741Y-99496895D02*
X224780075Y-99801657D01*
X224780075Y-99801657D02*
X224894360Y-99801657D01*
X224894360Y-99801657D02*
X224970551Y-99839752D01*
X224970551Y-99839752D02*
X225008646Y-99877847D01*
X225008646Y-99877847D02*
X225046741Y-99954038D01*
X225046741Y-99954038D02*
X225046741Y-100144514D01*
X225046741Y-100144514D02*
X225008646Y-100220704D01*
X225008646Y-100220704D02*
X224970551Y-100258800D01*
X224970551Y-100258800D02*
X224894360Y-100296895D01*
X224894360Y-100296895D02*
X224665789Y-100296895D01*
X224665789Y-100296895D02*
X224589598Y-100258800D01*
X224589598Y-100258800D02*
X224551503Y-100220704D01*
X205323122Y-65911561D02*
X205323122Y-66444895D01*
X205132646Y-65606800D02*
X204942169Y-66178228D01*
X204942169Y-66178228D02*
X205437408Y-66178228D01*
X205323122Y-91311561D02*
X205323122Y-91844895D01*
X205132646Y-91006800D02*
X204942169Y-91578228D01*
X204942169Y-91578228D02*
X205437408Y-91578228D01*
X206085027Y-91044895D02*
X205932646Y-91044895D01*
X205932646Y-91044895D02*
X205856455Y-91082990D01*
X205856455Y-91082990D02*
X205818360Y-91121085D01*
X205818360Y-91121085D02*
X205742170Y-91235371D01*
X205742170Y-91235371D02*
X205704074Y-91387752D01*
X205704074Y-91387752D02*
X205704074Y-91692514D01*
X205704074Y-91692514D02*
X205742170Y-91768704D01*
X205742170Y-91768704D02*
X205780265Y-91806800D01*
X205780265Y-91806800D02*
X205856455Y-91844895D01*
X205856455Y-91844895D02*
X206008836Y-91844895D01*
X206008836Y-91844895D02*
X206085027Y-91806800D01*
X206085027Y-91806800D02*
X206123122Y-91768704D01*
X206123122Y-91768704D02*
X206161217Y-91692514D01*
X206161217Y-91692514D02*
X206161217Y-91502038D01*
X206161217Y-91502038D02*
X206123122Y-91425847D01*
X206123122Y-91425847D02*
X206085027Y-91387752D01*
X206085027Y-91387752D02*
X206008836Y-91349657D01*
X206008836Y-91349657D02*
X205856455Y-91349657D01*
X205856455Y-91349657D02*
X205780265Y-91387752D01*
X205780265Y-91387752D02*
X205742170Y-91425847D01*
X205742170Y-91425847D02*
X205704074Y-91502038D01*
X219733646Y-98553014D02*
X219657753Y-99160157D01*
X219657753Y-99160157D02*
X219684539Y-99231585D01*
X219684539Y-99231585D02*
X219715789Y-99267300D01*
X219715789Y-99267300D02*
X219782753Y-99303014D01*
X219782753Y-99303014D02*
X219925610Y-99303014D01*
X219925610Y-99303014D02*
X220001503Y-99267300D01*
X220001503Y-99267300D02*
X220041681Y-99231585D01*
X220041681Y-99231585D02*
X220086324Y-99160157D01*
X220086324Y-99160157D02*
X220162217Y-98553014D01*
X220394360Y-99267300D02*
X220497038Y-99303014D01*
X220497038Y-99303014D02*
X220675610Y-99303014D01*
X220675610Y-99303014D02*
X220751503Y-99267300D01*
X220751503Y-99267300D02*
X220791681Y-99231585D01*
X220791681Y-99231585D02*
X220836324Y-99160157D01*
X220836324Y-99160157D02*
X220845253Y-99088728D01*
X220845253Y-99088728D02*
X220818467Y-99017300D01*
X220818467Y-99017300D02*
X220787217Y-98981585D01*
X220787217Y-98981585D02*
X220720253Y-98945871D01*
X220720253Y-98945871D02*
X220581860Y-98910157D01*
X220581860Y-98910157D02*
X220514895Y-98874442D01*
X220514895Y-98874442D02*
X220483645Y-98838728D01*
X220483645Y-98838728D02*
X220456860Y-98767300D01*
X220456860Y-98767300D02*
X220465788Y-98695871D01*
X220465788Y-98695871D02*
X220510431Y-98624442D01*
X220510431Y-98624442D02*
X220550610Y-98588728D01*
X220550610Y-98588728D02*
X220626503Y-98553014D01*
X220626503Y-98553014D02*
X220805074Y-98553014D01*
X220805074Y-98553014D02*
X220907753Y-98588728D01*
X221439003Y-98910157D02*
X221541681Y-98945871D01*
X221541681Y-98945871D02*
X221572931Y-98981585D01*
X221572931Y-98981585D02*
X221599717Y-99053014D01*
X221599717Y-99053014D02*
X221586324Y-99160157D01*
X221586324Y-99160157D02*
X221541681Y-99231585D01*
X221541681Y-99231585D02*
X221501503Y-99267300D01*
X221501503Y-99267300D02*
X221425610Y-99303014D01*
X221425610Y-99303014D02*
X221139896Y-99303014D01*
X221139896Y-99303014D02*
X221233646Y-98553014D01*
X221233646Y-98553014D02*
X221483646Y-98553014D01*
X221483646Y-98553014D02*
X221550610Y-98588728D01*
X221550610Y-98588728D02*
X221581860Y-98624442D01*
X221581860Y-98624442D02*
X221608646Y-98695871D01*
X221608646Y-98695871D02*
X221599717Y-98767300D01*
X221599717Y-98767300D02*
X221555074Y-98838728D01*
X221555074Y-98838728D02*
X221514896Y-98874442D01*
X221514896Y-98874442D02*
X221439003Y-98910157D01*
X221439003Y-98910157D02*
X221189003Y-98910157D01*
X222523824Y-98517300D02*
X221760431Y-99481585D01*
X222769360Y-98553014D02*
X222693467Y-99160157D01*
X222693467Y-99160157D02*
X222720253Y-99231585D01*
X222720253Y-99231585D02*
X222751503Y-99267300D01*
X222751503Y-99267300D02*
X222818467Y-99303014D01*
X222818467Y-99303014D02*
X222961324Y-99303014D01*
X222961324Y-99303014D02*
X223037217Y-99267300D01*
X223037217Y-99267300D02*
X223077395Y-99231585D01*
X223077395Y-99231585D02*
X223122038Y-99160157D01*
X223122038Y-99160157D02*
X223197931Y-98553014D01*
X223452395Y-99088728D02*
X223809538Y-99088728D01*
X223354181Y-99303014D02*
X223697931Y-98553014D01*
X223697931Y-98553014D02*
X223854181Y-99303014D01*
X224532752Y-99303014D02*
X224327395Y-98945871D01*
X224104181Y-99303014D02*
X224197931Y-98553014D01*
X224197931Y-98553014D02*
X224483645Y-98553014D01*
X224483645Y-98553014D02*
X224550609Y-98588728D01*
X224550609Y-98588728D02*
X224581859Y-98624442D01*
X224581859Y-98624442D02*
X224608645Y-98695871D01*
X224608645Y-98695871D02*
X224595252Y-98803014D01*
X224595252Y-98803014D02*
X224550609Y-98874442D01*
X224550609Y-98874442D02*
X224510431Y-98910157D01*
X224510431Y-98910157D02*
X224434538Y-98945871D01*
X224434538Y-98945871D02*
X224148824Y-98945871D01*
X224840788Y-98553014D02*
X225269359Y-98553014D01*
X224961324Y-99303014D02*
X225055074Y-98553014D01*
X226217217Y-60564895D02*
X225836265Y-60564895D01*
X225836265Y-60564895D02*
X225798169Y-60945847D01*
X225798169Y-60945847D02*
X225836265Y-60907752D01*
X225836265Y-60907752D02*
X225912455Y-60869657D01*
X225912455Y-60869657D02*
X226102931Y-60869657D01*
X226102931Y-60869657D02*
X226179122Y-60907752D01*
X226179122Y-60907752D02*
X226217217Y-60945847D01*
X226217217Y-60945847D02*
X226255312Y-61022038D01*
X226255312Y-61022038D02*
X226255312Y-61212514D01*
X226255312Y-61212514D02*
X226217217Y-61288704D01*
X226217217Y-61288704D02*
X226179122Y-61326800D01*
X226179122Y-61326800D02*
X226102931Y-61364895D01*
X226102931Y-61364895D02*
X225912455Y-61364895D01*
X225912455Y-61364895D02*
X225836265Y-61326800D01*
X225836265Y-61326800D02*
X225798169Y-61288704D01*
X226521979Y-60831561D02*
X226712455Y-61364895D01*
X226712455Y-61364895D02*
X226902932Y-60831561D01*
X205399312Y-76604895D02*
X204942169Y-76604895D01*
X205170741Y-76604895D02*
X205170741Y-75804895D01*
X205170741Y-75804895D02*
X205094550Y-75919180D01*
X205094550Y-75919180D02*
X205018360Y-75995371D01*
X205018360Y-75995371D02*
X204942169Y-76033466D01*
X206123122Y-75804895D02*
X205742170Y-75804895D01*
X205742170Y-75804895D02*
X205704074Y-76185847D01*
X205704074Y-76185847D02*
X205742170Y-76147752D01*
X205742170Y-76147752D02*
X205818360Y-76109657D01*
X205818360Y-76109657D02*
X206008836Y-76109657D01*
X206008836Y-76109657D02*
X206085027Y-76147752D01*
X206085027Y-76147752D02*
X206123122Y-76185847D01*
X206123122Y-76185847D02*
X206161217Y-76262038D01*
X206161217Y-76262038D02*
X206161217Y-76452514D01*
X206161217Y-76452514D02*
X206123122Y-76528704D01*
X206123122Y-76528704D02*
X206085027Y-76566800D01*
X206085027Y-76566800D02*
X206008836Y-76604895D01*
X206008836Y-76604895D02*
X205818360Y-76604895D01*
X205818360Y-76604895D02*
X205742170Y-76566800D01*
X205742170Y-76566800D02*
X205704074Y-76528704D01*
D11*
G36*
X216643466Y-86745631D02*
G01*
X216711292Y-86738000D01*
X216776190Y-86715303D01*
X216837316Y-86677541D01*
X216893244Y-86624633D01*
X216909263Y-86605130D01*
X216888808Y-86512684D01*
X216868078Y-86535674D01*
X216845104Y-86555272D01*
X216820806Y-86570856D01*
X216794861Y-86582734D01*
X216768464Y-86590462D01*
X216740967Y-86594293D01*
X216728707Y-86594689D01*
X216702736Y-86592760D01*
X216679475Y-86587074D01*
X216659930Y-86578314D01*
X216642977Y-86566418D01*
X216617387Y-86534244D01*
X216602384Y-86489780D01*
X216599808Y-86431198D01*
X216606463Y-86384457D01*
X216616173Y-86347192D01*
X216629059Y-86313195D01*
X216644410Y-86283575D01*
X216662407Y-86257448D01*
X216682016Y-86235849D01*
X216703763Y-86217842D01*
X216726538Y-86204094D01*
X216751020Y-86193997D01*
X216776397Y-86187825D01*
X216803152Y-86185426D01*
X216806376Y-86185399D01*
X216833352Y-86187325D01*
X216857886Y-86192989D01*
X216879112Y-86201846D01*
X216897778Y-86213877D01*
X216926482Y-86246205D01*
X216938817Y-86272288D01*
X217011235Y-86164333D01*
X217000348Y-86137182D01*
X216986399Y-86113087D01*
X216970160Y-86092843D01*
X216951217Y-86075522D01*
X216905849Y-86049984D01*
X216848994Y-86036337D01*
X216814070Y-86034396D01*
X216740466Y-86042042D01*
X216670737Y-86064653D01*
X216605952Y-86101892D01*
X216547554Y-86153444D01*
X216497336Y-86218768D01*
X216457289Y-86296906D01*
X216441688Y-86340387D01*
X216429372Y-86386442D01*
X216427372Y-86395692D01*
X216419729Y-86441970D01*
X216416453Y-86485626D01*
X216417321Y-86525289D01*
X216422047Y-86562182D01*
X216430137Y-86594968D01*
X216441588Y-86624905D01*
X216455713Y-86650954D01*
X216472766Y-86674106D01*
X216492115Y-86693772D01*
X216514064Y-86710457D01*
X216565013Y-86734313D01*
X216625978Y-86745131D01*
X216643466Y-86745631D01*
G37*
G36*
X216888075Y-86730000D02*
G01*
X216999755Y-86730000D01*
X217215055Y-85694410D01*
X217045307Y-85694410D01*
X216855896Y-86605558D01*
X216888075Y-86730000D01*
G37*
G36*
X217510223Y-86745631D02*
G01*
X217606598Y-86737980D01*
X217658213Y-86728056D01*
X217709326Y-86714251D01*
X217755382Y-86698126D01*
X217742376Y-86574661D01*
X217698001Y-86589635D01*
X217653209Y-86600626D01*
X217609812Y-86607262D01*
X217567550Y-86609587D01*
X217566765Y-86609588D01*
X217530307Y-86607638D01*
X217497916Y-86601802D01*
X217472110Y-86593177D01*
X217449697Y-86581398D01*
X217431869Y-86567579D01*
X217417037Y-86551042D01*
X217396674Y-86510604D01*
X217388062Y-86457488D01*
X217393378Y-86387646D01*
X217396711Y-86370047D01*
X217407368Y-86328236D01*
X217420953Y-86291175D01*
X217436126Y-86261051D01*
X217453670Y-86235177D01*
X217472137Y-86214902D01*
X217492544Y-86198457D01*
X217513824Y-86186360D01*
X217536766Y-86177872D01*
X217582091Y-86171844D01*
X217607933Y-86173781D01*
X217630452Y-86179525D01*
X217648108Y-86188049D01*
X217662840Y-86199611D01*
X217682752Y-86230187D01*
X217691180Y-86272820D01*
X217685650Y-86331395D01*
X217380652Y-86331395D01*
X217357998Y-86440450D01*
X217819740Y-86440450D01*
X217848438Y-86338845D01*
X217855245Y-86296574D01*
X217857629Y-86256972D01*
X217855877Y-86221865D01*
X217850287Y-86189406D01*
X217841456Y-86161017D01*
X217829282Y-86135235D01*
X217814395Y-86112870D01*
X217796514Y-86093120D01*
X217752469Y-86062045D01*
X217696340Y-86042029D01*
X217626625Y-86034411D01*
X217623124Y-86034396D01*
X217545499Y-86042028D01*
X217471951Y-86064573D01*
X217403819Y-86101541D01*
X217342759Y-86152325D01*
X217290665Y-86216018D01*
X217268579Y-86252342D01*
X217249491Y-86291312D01*
X217233581Y-86332772D01*
X217221033Y-86376547D01*
X217217315Y-86393128D01*
X217210117Y-86437273D01*
X217207336Y-86478880D01*
X217208724Y-86516114D01*
X217213985Y-86550867D01*
X217222596Y-86581771D01*
X217234637Y-86610246D01*
X217249575Y-86635539D01*
X217267639Y-86658399D01*
X217312623Y-86696360D01*
X217370403Y-86724296D01*
X217442516Y-86741255D01*
X217510223Y-86745631D01*
G37*
G36*
X218131088Y-86745631D02*
G01*
X218178674Y-86743696D01*
X218223305Y-86737966D01*
X218263565Y-86728906D01*
X218300759Y-86716495D01*
X218333595Y-86701444D01*
X218363314Y-86683464D01*
X218388961Y-86663380D01*
X218411454Y-86640728D01*
X218430261Y-86616211D01*
X218445840Y-86589401D01*
X218457992Y-86560632D01*
X218466757Y-86529762D01*
X218467472Y-86526423D01*
X218471895Y-86495832D01*
X218471955Y-86468639D01*
X218468247Y-86445424D01*
X218461194Y-86424919D01*
X218437878Y-86390594D01*
X218401113Y-86362498D01*
X218346786Y-86338896D01*
X218267939Y-86317583D01*
X218219098Y-86305163D01*
X218179776Y-86290457D01*
X218165326Y-86281214D01*
X218155223Y-86270159D01*
X218150125Y-86256881D01*
X218150689Y-86240964D01*
X218164041Y-86214323D01*
X218192584Y-86192998D01*
X218239831Y-86178283D01*
X218293326Y-86173981D01*
X218376872Y-86181333D01*
X218469426Y-86203534D01*
X218533112Y-86069384D01*
X218457135Y-86047349D01*
X218359561Y-86035241D01*
X218325628Y-86034396D01*
X218275474Y-86036336D01*
X218228579Y-86042098D01*
X218186843Y-86051129D01*
X218148386Y-86063517D01*
X218114853Y-86078410D01*
X218084558Y-86096231D01*
X218058665Y-86116008D01*
X218035967Y-86138359D01*
X218017081Y-86162483D01*
X218001410Y-86188928D01*
X217989156Y-86217359D01*
X217980250Y-86247965D01*
X217979169Y-86252932D01*
X217974755Y-86283491D01*
X217974728Y-86310524D01*
X217978464Y-86333392D01*
X217985532Y-86353485D01*
X218008762Y-86386753D01*
X218045367Y-86413637D01*
X218099723Y-86435939D01*
X218171864Y-86454454D01*
X218221869Y-86466735D01*
X218262262Y-86481845D01*
X218277099Y-86491631D01*
X218287426Y-86503527D01*
X218292540Y-86518001D01*
X218291739Y-86535521D01*
X218277969Y-86564418D01*
X218249919Y-86586935D01*
X218205363Y-86601944D01*
X218157772Y-86606107D01*
X218078440Y-86598750D01*
X217983329Y-86574741D01*
X217944426Y-86559701D01*
X217878236Y-86692508D01*
X217954658Y-86721300D01*
X218049700Y-86740519D01*
X218131088Y-86745631D01*
G37*
G36*
X218547278Y-86730000D02*
G01*
X218721912Y-86730000D01*
X218863267Y-86050027D01*
X218688633Y-86050027D01*
X218547278Y-86730000D01*
G37*
G36*
X218803000Y-85924975D02*
G01*
X218826452Y-85923057D01*
X218848340Y-85917444D01*
X218886508Y-85895914D01*
X218915481Y-85861841D01*
X218925825Y-85840520D01*
X218932965Y-85816714D01*
X218933304Y-85815127D01*
X218936392Y-85790858D01*
X218935183Y-85769137D01*
X218930352Y-85751396D01*
X218922093Y-85736231D01*
X218911122Y-85724302D01*
X218897275Y-85715046D01*
X218860738Y-85705112D01*
X218848796Y-85704607D01*
X218825344Y-85706527D01*
X218803454Y-85712148D01*
X218765332Y-85733700D01*
X218736366Y-85767845D01*
X218725984Y-85789263D01*
X218718779Y-85813214D01*
X218718370Y-85815127D01*
X218715322Y-85839170D01*
X218716561Y-85860723D01*
X218721420Y-85878372D01*
X218729709Y-85893474D01*
X218740725Y-85905375D01*
X218754626Y-85914608D01*
X218791296Y-85924491D01*
X218803000Y-85924975D01*
G37*
G36*
X219059089Y-87050446D02*
G01*
X219102809Y-87048516D01*
X219145073Y-87042820D01*
X219185974Y-87033426D01*
X219225053Y-87020504D01*
X219262291Y-87004121D01*
X219297338Y-86984473D01*
X219330048Y-86961682D01*
X219360207Y-86935914D01*
X219387565Y-86907400D01*
X219412036Y-86876218D01*
X219433320Y-86842732D01*
X219451407Y-86806898D01*
X219466016Y-86769188D01*
X219477144Y-86729449D01*
X219479064Y-86720657D01*
X219618466Y-86050027D01*
X219494879Y-86050027D01*
X219420080Y-86180697D01*
X219306140Y-86728839D01*
X219297148Y-86762515D01*
X219284948Y-86792700D01*
X219270511Y-86818011D01*
X219253315Y-86840139D01*
X219234069Y-86858519D01*
X219212332Y-86873856D01*
X219161449Y-86895330D01*
X219098877Y-86904334D01*
X219087909Y-86904511D01*
X219012506Y-86897017D01*
X218971283Y-86887176D01*
X218931530Y-86873660D01*
X218911994Y-86865310D01*
X218849956Y-86997995D01*
X218887821Y-87016273D01*
X218926764Y-87030648D01*
X218966051Y-87040950D01*
X219006533Y-87047508D01*
X219059089Y-87050446D01*
G37*
G36*
X219119356Y-86745631D02*
G01*
X219186715Y-86737993D01*
X219251191Y-86715266D01*
X219312037Y-86677396D01*
X219367918Y-86624191D01*
X219406830Y-86572096D01*
X219368972Y-86509082D01*
X219349427Y-86532102D01*
X219327471Y-86551901D01*
X219303828Y-86567958D01*
X219278326Y-86580459D01*
X219251915Y-86589000D01*
X219224168Y-86593742D01*
X219204658Y-86594689D01*
X219178851Y-86592760D01*
X219155725Y-86587074D01*
X219136271Y-86578306D01*
X219119392Y-86566399D01*
X219093888Y-86534159D01*
X219078949Y-86489572D01*
X219076455Y-86430830D01*
X219083086Y-86384457D01*
X219092794Y-86347192D01*
X219105675Y-86313195D01*
X219121030Y-86283541D01*
X219139023Y-86257389D01*
X219158630Y-86235761D01*
X219180359Y-86217740D01*
X219203096Y-86203994D01*
X219227518Y-86193913D01*
X219252791Y-86187775D01*
X219279408Y-86185421D01*
X219282266Y-86185399D01*
X219308973Y-86187333D01*
X219333237Y-86193052D01*
X219353957Y-86201924D01*
X219372166Y-86214025D01*
X219399963Y-86246578D01*
X219416599Y-86290301D01*
X219494207Y-86187964D01*
X219486149Y-86158044D01*
X219474774Y-86131215D01*
X219460965Y-86108670D01*
X219444268Y-86089009D01*
X219403427Y-86059074D01*
X219351200Y-86040557D01*
X219289288Y-86034396D01*
X219216444Y-86042046D01*
X219147028Y-86064730D01*
X219082270Y-86102163D01*
X219023779Y-86154015D01*
X218973490Y-86219666D01*
X218952037Y-86257418D01*
X218933478Y-86298052D01*
X218917952Y-86341569D01*
X218905719Y-86387677D01*
X218903995Y-86395692D01*
X218896317Y-86442086D01*
X218893014Y-86485820D01*
X218893859Y-86525522D01*
X218898561Y-86562428D01*
X218906626Y-86595209D01*
X218918047Y-86625126D01*
X218932141Y-86651152D01*
X218949156Y-86674272D01*
X218968469Y-86693912D01*
X218990373Y-86710565D01*
X219041232Y-86734370D01*
X219102098Y-86745142D01*
X219119356Y-86745631D01*
G37*
G36*
X220107440Y-86730000D02*
G01*
X220282074Y-86730000D01*
X220369269Y-86310512D01*
X220375919Y-86269036D01*
X220378092Y-86230530D01*
X220376123Y-86197001D01*
X220370335Y-86166355D01*
X220361429Y-86140135D01*
X220349260Y-86116690D01*
X220334550Y-86096854D01*
X220316957Y-86079756D01*
X220273780Y-86054284D01*
X220218576Y-86040408D01*
X220182911Y-86038304D01*
X220111885Y-86045993D01*
X220040210Y-86069382D01*
X219970587Y-86108604D01*
X219911130Y-86158105D01*
X219914549Y-86266732D01*
X219944171Y-86243411D01*
X219974802Y-86224379D01*
X220004811Y-86210346D01*
X220035412Y-86200473D01*
X220090343Y-86193581D01*
X220117791Y-86195528D01*
X220141081Y-86201339D01*
X220158178Y-86209644D01*
X220172022Y-86220895D01*
X220189293Y-86250125D01*
X220194844Y-86291578D01*
X220189567Y-86335059D01*
X220107440Y-86730000D01*
G37*
G36*
X219668841Y-86730000D02*
G01*
X219843475Y-86730000D01*
X219959918Y-86169890D01*
X219935188Y-86050027D01*
X219810197Y-86050027D01*
X219668841Y-86730000D01*
G37*
G36*
X220778192Y-86745631D02*
G01*
X220874567Y-86737980D01*
X220926182Y-86728056D01*
X220977295Y-86714251D01*
X221023351Y-86698126D01*
X221010345Y-86574661D01*
X220965970Y-86589635D01*
X220921178Y-86600626D01*
X220877781Y-86607262D01*
X220835519Y-86609587D01*
X220834734Y-86609588D01*
X220798276Y-86607638D01*
X220765885Y-86601802D01*
X220740079Y-86593177D01*
X220717666Y-86581398D01*
X220699838Y-86567579D01*
X220685006Y-86551042D01*
X220664644Y-86510604D01*
X220656031Y-86457488D01*
X220661347Y-86387646D01*
X220664680Y-86370047D01*
X220675338Y-86328236D01*
X220688922Y-86291175D01*
X220704096Y-86261051D01*
X220721639Y-86235177D01*
X220740107Y-86214902D01*
X220760513Y-86198457D01*
X220781794Y-86186360D01*
X220804736Y-86177872D01*
X220850061Y-86171844D01*
X220875902Y-86173781D01*
X220898421Y-86179525D01*
X220916078Y-86188049D01*
X220930809Y-86199611D01*
X220950721Y-86230187D01*
X220959149Y-86272820D01*
X220953620Y-86331395D01*
X220648621Y-86331395D01*
X220625968Y-86440450D01*
X221087709Y-86440450D01*
X221116407Y-86338845D01*
X221123214Y-86296574D01*
X221125598Y-86256972D01*
X221123846Y-86221865D01*
X221118256Y-86189406D01*
X221109425Y-86161017D01*
X221097251Y-86135235D01*
X221082364Y-86112870D01*
X221064483Y-86093120D01*
X221020438Y-86062045D01*
X220964309Y-86042029D01*
X220894594Y-86034411D01*
X220891093Y-86034396D01*
X220813468Y-86042028D01*
X220739920Y-86064573D01*
X220671788Y-86101541D01*
X220610728Y-86152325D01*
X220558635Y-86216018D01*
X220536548Y-86252342D01*
X220517461Y-86291312D01*
X220501550Y-86332772D01*
X220489003Y-86376547D01*
X220485284Y-86393128D01*
X220478086Y-86437273D01*
X220475305Y-86478880D01*
X220476694Y-86516114D01*
X220481955Y-86550867D01*
X220490566Y-86581771D01*
X220502606Y-86610246D01*
X220517544Y-86635539D01*
X220535608Y-86658399D01*
X220580593Y-86696360D01*
X220638372Y-86724296D01*
X220710485Y-86741255D01*
X220778192Y-86745631D01*
G37*
G36*
X221428672Y-86745631D02*
G01*
X221496498Y-86738000D01*
X221561396Y-86715303D01*
X221622522Y-86677541D01*
X221678449Y-86624633D01*
X221694469Y-86605130D01*
X221674014Y-86512684D01*
X221653284Y-86535674D01*
X221630310Y-86555272D01*
X221606012Y-86570856D01*
X221580067Y-86582734D01*
X221553669Y-86590462D01*
X221526173Y-86594293D01*
X221513913Y-86594689D01*
X221487942Y-86592760D01*
X221464681Y-86587074D01*
X221445136Y-86578314D01*
X221428183Y-86566418D01*
X221402593Y-86534244D01*
X221387590Y-86489780D01*
X221385014Y-86431198D01*
X221391669Y-86384457D01*
X221401378Y-86347192D01*
X221414265Y-86313195D01*
X221429616Y-86283575D01*
X221447613Y-86257448D01*
X221467222Y-86235849D01*
X221488969Y-86217842D01*
X221511744Y-86204094D01*
X221536226Y-86193997D01*
X221561603Y-86187825D01*
X221588357Y-86185426D01*
X221591582Y-86185399D01*
X221618558Y-86187325D01*
X221643092Y-86192989D01*
X221664318Y-86201846D01*
X221682984Y-86213877D01*
X221711688Y-86246205D01*
X221724023Y-86272288D01*
X221796441Y-86164333D01*
X221785553Y-86137182D01*
X221771605Y-86113087D01*
X221755366Y-86092843D01*
X221736423Y-86075522D01*
X221691055Y-86049984D01*
X221634200Y-86036337D01*
X221599275Y-86034396D01*
X221525672Y-86042042D01*
X221455943Y-86064653D01*
X221391158Y-86101892D01*
X221332760Y-86153444D01*
X221282541Y-86218768D01*
X221242494Y-86296906D01*
X221226894Y-86340387D01*
X221214578Y-86386442D01*
X221212578Y-86395692D01*
X221204935Y-86441970D01*
X221201659Y-86485626D01*
X221202527Y-86525289D01*
X221207253Y-86562182D01*
X221215343Y-86594968D01*
X221226794Y-86624905D01*
X221240919Y-86650954D01*
X221257972Y-86674106D01*
X221277321Y-86693772D01*
X221299270Y-86710457D01*
X221350218Y-86734313D01*
X221411184Y-86745131D01*
X221428672Y-86745631D01*
G37*
G36*
X221673281Y-86730000D02*
G01*
X221784961Y-86730000D01*
X222000261Y-85694410D01*
X221830512Y-85694410D01*
X221641102Y-86605558D01*
X221673281Y-86730000D01*
G37*
G36*
X222634377Y-86745631D02*
G01*
X222707928Y-86737989D01*
X222777745Y-86715372D01*
X222842731Y-86678098D01*
X222901401Y-86626483D01*
X222951903Y-86561104D01*
X222992198Y-86482995D01*
X223007894Y-86439598D01*
X223020294Y-86393669D01*
X223022601Y-86383053D01*
X223030192Y-86337064D01*
X223033413Y-86293650D01*
X223032484Y-86254276D01*
X223027688Y-86217623D01*
X223019534Y-86185090D01*
X223008003Y-86155351D01*
X222993791Y-86129471D01*
X222976622Y-86106433D01*
X222957115Y-86086822D01*
X222934959Y-86070144D01*
X222883341Y-86046136D01*
X222821247Y-86035002D01*
X222801500Y-86034396D01*
X222765921Y-86036331D01*
X222731521Y-86042060D01*
X222666378Y-86064584D01*
X222606384Y-86101707D01*
X222552281Y-86153591D01*
X222508836Y-86214525D01*
X222547609Y-86283035D01*
X222564328Y-86258719D01*
X222583256Y-86237870D01*
X222627019Y-86206393D01*
X222677199Y-86188915D01*
X222714061Y-86185399D01*
X222741405Y-86187329D01*
X222765881Y-86193024D01*
X222786345Y-86201757D01*
X222804103Y-86213617D01*
X222830771Y-86245409D01*
X222846560Y-86288947D01*
X222849979Y-86346066D01*
X222843204Y-86395631D01*
X222833462Y-86433076D01*
X222820553Y-86467176D01*
X222805230Y-86496756D01*
X222787268Y-86522817D01*
X222767714Y-86544322D01*
X222746019Y-86562244D01*
X222723254Y-86575945D01*
X222698759Y-86586018D01*
X222673265Y-86592213D01*
X222646353Y-86594655D01*
X222642681Y-86594689D01*
X222615951Y-86592759D01*
X222591623Y-86587065D01*
X222570671Y-86578187D01*
X222552229Y-86566097D01*
X222523911Y-86533561D01*
X222507798Y-86493939D01*
X222429640Y-86585530D01*
X222437450Y-86616905D01*
X222448600Y-86644996D01*
X222462083Y-86668338D01*
X222478454Y-86688693D01*
X222497049Y-86705528D01*
X222518304Y-86719476D01*
X222569207Y-86738670D01*
X222634377Y-86745631D01*
G37*
G36*
X222308618Y-86730000D02*
G01*
X222420298Y-86730000D01*
X222504256Y-86605558D01*
X222693667Y-85694410D01*
X222523918Y-85694410D01*
X222308618Y-86730000D01*
G37*
G36*
X223078471Y-87034815D02*
G01*
X223266966Y-87034815D01*
X223436898Y-86730915D01*
X223833792Y-86050027D01*
X223659830Y-86050027D01*
X223350497Y-86635050D01*
X223393850Y-86635783D01*
X223338224Y-86050027D01*
X223144905Y-86050027D01*
X223262203Y-86730915D01*
X223078471Y-87034815D01*
G37*
D10*
X225732074Y-83424895D02*
X226227312Y-83424895D01*
X226227312Y-83424895D02*
X225960646Y-83729657D01*
X225960646Y-83729657D02*
X226074931Y-83729657D01*
X226074931Y-83729657D02*
X226151122Y-83767752D01*
X226151122Y-83767752D02*
X226189217Y-83805847D01*
X226189217Y-83805847D02*
X226227312Y-83882038D01*
X226227312Y-83882038D02*
X226227312Y-84072514D01*
X226227312Y-84072514D02*
X226189217Y-84148704D01*
X226189217Y-84148704D02*
X226151122Y-84186800D01*
X226151122Y-84186800D02*
X226074931Y-84224895D01*
X226074931Y-84224895D02*
X225846360Y-84224895D01*
X225846360Y-84224895D02*
X225770169Y-84186800D01*
X225770169Y-84186800D02*
X225732074Y-84148704D01*
X226913027Y-83424895D02*
X226760646Y-83424895D01*
X226760646Y-83424895D02*
X226684455Y-83462990D01*
X226684455Y-83462990D02*
X226646360Y-83501085D01*
X226646360Y-83501085D02*
X226570170Y-83615371D01*
X226570170Y-83615371D02*
X226532074Y-83767752D01*
X226532074Y-83767752D02*
X226532074Y-84072514D01*
X226532074Y-84072514D02*
X226570170Y-84148704D01*
X226570170Y-84148704D02*
X226608265Y-84186800D01*
X226608265Y-84186800D02*
X226684455Y-84224895D01*
X226684455Y-84224895D02*
X226836836Y-84224895D01*
X226836836Y-84224895D02*
X226913027Y-84186800D01*
X226913027Y-84186800D02*
X226951122Y-84148704D01*
X226951122Y-84148704D02*
X226989217Y-84072514D01*
X226989217Y-84072514D02*
X226989217Y-83882038D01*
X226989217Y-83882038D02*
X226951122Y-83805847D01*
X226951122Y-83805847D02*
X226913027Y-83767752D01*
X226913027Y-83767752D02*
X226836836Y-83729657D01*
X226836836Y-83729657D02*
X226684455Y-83729657D01*
X226684455Y-83729657D02*
X226608265Y-83767752D01*
X226608265Y-83767752D02*
X226570170Y-83805847D01*
X226570170Y-83805847D02*
X226532074Y-83882038D01*
X225732074Y-75696895D02*
X226227312Y-75696895D01*
X226227312Y-75696895D02*
X225960646Y-76001657D01*
X225960646Y-76001657D02*
X226074931Y-76001657D01*
X226074931Y-76001657D02*
X226151122Y-76039752D01*
X226151122Y-76039752D02*
X226189217Y-76077847D01*
X226189217Y-76077847D02*
X226227312Y-76154038D01*
X226227312Y-76154038D02*
X226227312Y-76344514D01*
X226227312Y-76344514D02*
X226189217Y-76420704D01*
X226189217Y-76420704D02*
X226151122Y-76458800D01*
X226151122Y-76458800D02*
X226074931Y-76496895D01*
X226074931Y-76496895D02*
X225846360Y-76496895D01*
X225846360Y-76496895D02*
X225770169Y-76458800D01*
X225770169Y-76458800D02*
X225732074Y-76420704D01*
X226608265Y-76496895D02*
X226760646Y-76496895D01*
X226760646Y-76496895D02*
X226836836Y-76458800D01*
X226836836Y-76458800D02*
X226874932Y-76420704D01*
X226874932Y-76420704D02*
X226951122Y-76306419D01*
X226951122Y-76306419D02*
X226989217Y-76154038D01*
X226989217Y-76154038D02*
X226989217Y-75849276D01*
X226989217Y-75849276D02*
X226951122Y-75773085D01*
X226951122Y-75773085D02*
X226913027Y-75734990D01*
X226913027Y-75734990D02*
X226836836Y-75696895D01*
X226836836Y-75696895D02*
X226684455Y-75696895D01*
X226684455Y-75696895D02*
X226608265Y-75734990D01*
X226608265Y-75734990D02*
X226570170Y-75773085D01*
X226570170Y-75773085D02*
X226532074Y-75849276D01*
X226532074Y-75849276D02*
X226532074Y-76039752D01*
X226532074Y-76039752D02*
X226570170Y-76115942D01*
X226570170Y-76115942D02*
X226608265Y-76154038D01*
X226608265Y-76154038D02*
X226684455Y-76192133D01*
X226684455Y-76192133D02*
X226836836Y-76192133D01*
X226836836Y-76192133D02*
X226913027Y-76154038D01*
X226913027Y-76154038D02*
X226951122Y-76115942D01*
X226951122Y-76115942D02*
X226989217Y-76039752D01*
X205018360Y-94384895D02*
X205170741Y-94384895D01*
X205170741Y-94384895D02*
X205246931Y-94346800D01*
X205246931Y-94346800D02*
X205285027Y-94308704D01*
X205285027Y-94308704D02*
X205361217Y-94194419D01*
X205361217Y-94194419D02*
X205399312Y-94042038D01*
X205399312Y-94042038D02*
X205399312Y-93737276D01*
X205399312Y-93737276D02*
X205361217Y-93661085D01*
X205361217Y-93661085D02*
X205323122Y-93622990D01*
X205323122Y-93622990D02*
X205246931Y-93584895D01*
X205246931Y-93584895D02*
X205094550Y-93584895D01*
X205094550Y-93584895D02*
X205018360Y-93622990D01*
X205018360Y-93622990D02*
X204980265Y-93661085D01*
X204980265Y-93661085D02*
X204942169Y-93737276D01*
X204942169Y-93737276D02*
X204942169Y-93927752D01*
X204942169Y-93927752D02*
X204980265Y-94003942D01*
X204980265Y-94003942D02*
X205018360Y-94042038D01*
X205018360Y-94042038D02*
X205094550Y-94080133D01*
X205094550Y-94080133D02*
X205246931Y-94080133D01*
X205246931Y-94080133D02*
X205323122Y-94042038D01*
X205323122Y-94042038D02*
X205361217Y-94003942D01*
X205361217Y-94003942D02*
X205399312Y-93927752D01*
X226227312Y-99456895D02*
X225770169Y-99456895D01*
X225998741Y-99456895D02*
X225998741Y-98656895D01*
X225998741Y-98656895D02*
X225922550Y-98771180D01*
X225922550Y-98771180D02*
X225846360Y-98847371D01*
X225846360Y-98847371D02*
X225770169Y-98885466D01*
X226913027Y-98923561D02*
X226913027Y-99456895D01*
X226722551Y-98618800D02*
X226532074Y-99190228D01*
X226532074Y-99190228D02*
X227027313Y-99190228D01*
X205323122Y-70724895D02*
X205170741Y-70724895D01*
X205170741Y-70724895D02*
X205094550Y-70762990D01*
X205094550Y-70762990D02*
X205056455Y-70801085D01*
X205056455Y-70801085D02*
X204980265Y-70915371D01*
X204980265Y-70915371D02*
X204942169Y-71067752D01*
X204942169Y-71067752D02*
X204942169Y-71372514D01*
X204942169Y-71372514D02*
X204980265Y-71448704D01*
X204980265Y-71448704D02*
X205018360Y-71486800D01*
X205018360Y-71486800D02*
X205094550Y-71524895D01*
X205094550Y-71524895D02*
X205246931Y-71524895D01*
X205246931Y-71524895D02*
X205323122Y-71486800D01*
X205323122Y-71486800D02*
X205361217Y-71448704D01*
X205361217Y-71448704D02*
X205399312Y-71372514D01*
X205399312Y-71372514D02*
X205399312Y-71182038D01*
X205399312Y-71182038D02*
X205361217Y-71105847D01*
X205361217Y-71105847D02*
X205323122Y-71067752D01*
X205323122Y-71067752D02*
X205246931Y-71029657D01*
X205246931Y-71029657D02*
X205094550Y-71029657D01*
X205094550Y-71029657D02*
X205018360Y-71067752D01*
X205018360Y-71067752D02*
X204980265Y-71105847D01*
X204980265Y-71105847D02*
X204942169Y-71182038D01*
X204904074Y-88504895D02*
X205399312Y-88504895D01*
X205399312Y-88504895D02*
X205132646Y-88809657D01*
X205132646Y-88809657D02*
X205246931Y-88809657D01*
X205246931Y-88809657D02*
X205323122Y-88847752D01*
X205323122Y-88847752D02*
X205361217Y-88885847D01*
X205361217Y-88885847D02*
X205399312Y-88962038D01*
X205399312Y-88962038D02*
X205399312Y-89152514D01*
X205399312Y-89152514D02*
X205361217Y-89228704D01*
X205361217Y-89228704D02*
X205323122Y-89266800D01*
X205323122Y-89266800D02*
X205246931Y-89304895D01*
X205246931Y-89304895D02*
X205018360Y-89304895D01*
X205018360Y-89304895D02*
X204942169Y-89266800D01*
X204942169Y-89266800D02*
X204904074Y-89228704D01*
X215187884Y-113410419D02*
X215187884Y-112410419D01*
X215187884Y-112410419D02*
X215568836Y-112410419D01*
X215568836Y-112410419D02*
X215664074Y-112458038D01*
X215664074Y-112458038D02*
X215711693Y-112505657D01*
X215711693Y-112505657D02*
X215759312Y-112600895D01*
X215759312Y-112600895D02*
X215759312Y-112743752D01*
X215759312Y-112743752D02*
X215711693Y-112838990D01*
X215711693Y-112838990D02*
X215664074Y-112886609D01*
X215664074Y-112886609D02*
X215568836Y-112934228D01*
X215568836Y-112934228D02*
X215187884Y-112934228D01*
X216092646Y-112410419D02*
X216330741Y-113410419D01*
X216330741Y-113410419D02*
X216521217Y-112696133D01*
X216521217Y-112696133D02*
X216711693Y-113410419D01*
X216711693Y-113410419D02*
X216949789Y-112410419D01*
X217902169Y-113410419D02*
X217568836Y-112934228D01*
X217330741Y-113410419D02*
X217330741Y-112410419D01*
X217330741Y-112410419D02*
X217711693Y-112410419D01*
X217711693Y-112410419D02*
X217806931Y-112458038D01*
X217806931Y-112458038D02*
X217854550Y-112505657D01*
X217854550Y-112505657D02*
X217902169Y-112600895D01*
X217902169Y-112600895D02*
X217902169Y-112743752D01*
X217902169Y-112743752D02*
X217854550Y-112838990D01*
X217854550Y-112838990D02*
X217806931Y-112886609D01*
X217806931Y-112886609D02*
X217711693Y-112934228D01*
X217711693Y-112934228D02*
X217330741Y-112934228D01*
D12*
X209280331Y-78137309D02*
X209613664Y-78137309D01*
X209756521Y-78661119D02*
X209280331Y-78661119D01*
X209280331Y-78661119D02*
X209280331Y-77661119D01*
X209280331Y-77661119D02*
X209756521Y-77661119D01*
X210185093Y-78661119D02*
X210185093Y-77661119D01*
X210185093Y-77661119D02*
X210756521Y-78661119D01*
X210756521Y-78661119D02*
X210756521Y-77661119D01*
D10*
X205094550Y-86199752D02*
X205018360Y-86161657D01*
X205018360Y-86161657D02*
X204980265Y-86123561D01*
X204980265Y-86123561D02*
X204942169Y-86047371D01*
X204942169Y-86047371D02*
X204942169Y-86009276D01*
X204942169Y-86009276D02*
X204980265Y-85933085D01*
X204980265Y-85933085D02*
X205018360Y-85894990D01*
X205018360Y-85894990D02*
X205094550Y-85856895D01*
X205094550Y-85856895D02*
X205246931Y-85856895D01*
X205246931Y-85856895D02*
X205323122Y-85894990D01*
X205323122Y-85894990D02*
X205361217Y-85933085D01*
X205361217Y-85933085D02*
X205399312Y-86009276D01*
X205399312Y-86009276D02*
X205399312Y-86047371D01*
X205399312Y-86047371D02*
X205361217Y-86123561D01*
X205361217Y-86123561D02*
X205323122Y-86161657D01*
X205323122Y-86161657D02*
X205246931Y-86199752D01*
X205246931Y-86199752D02*
X205094550Y-86199752D01*
X205094550Y-86199752D02*
X205018360Y-86237847D01*
X205018360Y-86237847D02*
X204980265Y-86275942D01*
X204980265Y-86275942D02*
X204942169Y-86352133D01*
X204942169Y-86352133D02*
X204942169Y-86504514D01*
X204942169Y-86504514D02*
X204980265Y-86580704D01*
X204980265Y-86580704D02*
X205018360Y-86618800D01*
X205018360Y-86618800D02*
X205094550Y-86656895D01*
X205094550Y-86656895D02*
X205246931Y-86656895D01*
X205246931Y-86656895D02*
X205323122Y-86618800D01*
X205323122Y-86618800D02*
X205361217Y-86580704D01*
X205361217Y-86580704D02*
X205399312Y-86504514D01*
X205399312Y-86504514D02*
X205399312Y-86352133D01*
X205399312Y-86352133D02*
X205361217Y-86275942D01*
X205361217Y-86275942D02*
X205323122Y-86237847D01*
X205323122Y-86237847D02*
X205246931Y-86199752D01*
X226151122Y-73531561D02*
X226151122Y-74064895D01*
X225960646Y-73226800D02*
X225770169Y-73798228D01*
X225770169Y-73798228D02*
X226265408Y-73798228D01*
X226722551Y-73264895D02*
X226798741Y-73264895D01*
X226798741Y-73264895D02*
X226874932Y-73302990D01*
X226874932Y-73302990D02*
X226913027Y-73341085D01*
X226913027Y-73341085D02*
X226951122Y-73417276D01*
X226951122Y-73417276D02*
X226989217Y-73569657D01*
X226989217Y-73569657D02*
X226989217Y-73760133D01*
X226989217Y-73760133D02*
X226951122Y-73912514D01*
X226951122Y-73912514D02*
X226913027Y-73988704D01*
X226913027Y-73988704D02*
X226874932Y-74026800D01*
X226874932Y-74026800D02*
X226798741Y-74064895D01*
X226798741Y-74064895D02*
X226722551Y-74064895D01*
X226722551Y-74064895D02*
X226646360Y-74026800D01*
X226646360Y-74026800D02*
X226608265Y-73988704D01*
X226608265Y-73988704D02*
X226570170Y-73912514D01*
X226570170Y-73912514D02*
X226532074Y-73760133D01*
X226532074Y-73760133D02*
X226532074Y-73569657D01*
X226532074Y-73569657D02*
X226570170Y-73417276D01*
X226570170Y-73417276D02*
X226608265Y-73341085D01*
X226608265Y-73341085D02*
X226646360Y-73302990D01*
X226646360Y-73302990D02*
X226722551Y-73264895D01*
X205399312Y-81684895D02*
X204942169Y-81684895D01*
X205170741Y-81684895D02*
X205170741Y-80884895D01*
X205170741Y-80884895D02*
X205094550Y-80999180D01*
X205094550Y-80999180D02*
X205018360Y-81075371D01*
X205018360Y-81075371D02*
X204942169Y-81113466D01*
X205665979Y-80884895D02*
X206199313Y-80884895D01*
X206199313Y-80884895D02*
X205856455Y-81684895D01*
X204980265Y-63485847D02*
X205246931Y-63485847D01*
X205361217Y-63904895D02*
X204980265Y-63904895D01*
X204980265Y-63904895D02*
X204980265Y-63104895D01*
X204980265Y-63104895D02*
X205361217Y-63104895D01*
X205704075Y-63904895D02*
X205704075Y-63104895D01*
X205704075Y-63104895D02*
X206161218Y-63904895D01*
X206161218Y-63904895D02*
X206161218Y-63104895D01*
X205399312Y-58062990D02*
X205323122Y-58024895D01*
X205323122Y-58024895D02*
X205208836Y-58024895D01*
X205208836Y-58024895D02*
X205094550Y-58062990D01*
X205094550Y-58062990D02*
X205018360Y-58139180D01*
X205018360Y-58139180D02*
X204980265Y-58215371D01*
X204980265Y-58215371D02*
X204942169Y-58367752D01*
X204942169Y-58367752D02*
X204942169Y-58482038D01*
X204942169Y-58482038D02*
X204980265Y-58634419D01*
X204980265Y-58634419D02*
X205018360Y-58710609D01*
X205018360Y-58710609D02*
X205094550Y-58786800D01*
X205094550Y-58786800D02*
X205208836Y-58824895D01*
X205208836Y-58824895D02*
X205285027Y-58824895D01*
X205285027Y-58824895D02*
X205399312Y-58786800D01*
X205399312Y-58786800D02*
X205437408Y-58748704D01*
X205437408Y-58748704D02*
X205437408Y-58482038D01*
X205437408Y-58482038D02*
X205285027Y-58482038D01*
X205361217Y-68184895D02*
X204980265Y-68184895D01*
X204980265Y-68184895D02*
X204942169Y-68565847D01*
X204942169Y-68565847D02*
X204980265Y-68527752D01*
X204980265Y-68527752D02*
X205056455Y-68489657D01*
X205056455Y-68489657D02*
X205246931Y-68489657D01*
X205246931Y-68489657D02*
X205323122Y-68527752D01*
X205323122Y-68527752D02*
X205361217Y-68565847D01*
X205361217Y-68565847D02*
X205399312Y-68642038D01*
X205399312Y-68642038D02*
X205399312Y-68832514D01*
X205399312Y-68832514D02*
X205361217Y-68908704D01*
X205361217Y-68908704D02*
X205323122Y-68946800D01*
X205323122Y-68946800D02*
X205246931Y-68984895D01*
X205246931Y-68984895D02*
X205056455Y-68984895D01*
X205056455Y-68984895D02*
X204980265Y-68946800D01*
X204980265Y-68946800D02*
X204942169Y-68908704D01*
X219212217Y-99546895D02*
X218831265Y-99546895D01*
X218831265Y-99546895D02*
X218793169Y-99927847D01*
X218793169Y-99927847D02*
X218831265Y-99889752D01*
X218831265Y-99889752D02*
X218907455Y-99851657D01*
X218907455Y-99851657D02*
X219097931Y-99851657D01*
X219097931Y-99851657D02*
X219174122Y-99889752D01*
X219174122Y-99889752D02*
X219212217Y-99927847D01*
X219212217Y-99927847D02*
X219250312Y-100004038D01*
X219250312Y-100004038D02*
X219250312Y-100194514D01*
X219250312Y-100194514D02*
X219212217Y-100270704D01*
X219212217Y-100270704D02*
X219174122Y-100308800D01*
X219174122Y-100308800D02*
X219097931Y-100346895D01*
X219097931Y-100346895D02*
X218907455Y-100346895D01*
X218907455Y-100346895D02*
X218831265Y-100308800D01*
X218831265Y-100308800D02*
X218793169Y-100270704D01*
X219516979Y-99813561D02*
X219707455Y-100346895D01*
X219707455Y-100346895D02*
X219897932Y-99813561D01*
D12*
X213413664Y-78067309D02*
X213556521Y-78114928D01*
X213556521Y-78114928D02*
X213604140Y-78162547D01*
X213604140Y-78162547D02*
X213651759Y-78257785D01*
X213651759Y-78257785D02*
X213651759Y-78400642D01*
X213651759Y-78400642D02*
X213604140Y-78495880D01*
X213604140Y-78495880D02*
X213556521Y-78543500D01*
X213556521Y-78543500D02*
X213461283Y-78591119D01*
X213461283Y-78591119D02*
X213080331Y-78591119D01*
X213080331Y-78591119D02*
X213080331Y-77591119D01*
X213080331Y-77591119D02*
X213413664Y-77591119D01*
X213413664Y-77591119D02*
X213508902Y-77638738D01*
X213508902Y-77638738D02*
X213556521Y-77686357D01*
X213556521Y-77686357D02*
X213604140Y-77781595D01*
X213604140Y-77781595D02*
X213604140Y-77876833D01*
X213604140Y-77876833D02*
X213556521Y-77972071D01*
X213556521Y-77972071D02*
X213508902Y-78019690D01*
X213508902Y-78019690D02*
X213413664Y-78067309D01*
X213413664Y-78067309D02*
X213080331Y-78067309D01*
X214223188Y-78591119D02*
X214127950Y-78543500D01*
X214127950Y-78543500D02*
X214080331Y-78495880D01*
X214080331Y-78495880D02*
X214032712Y-78400642D01*
X214032712Y-78400642D02*
X214032712Y-78114928D01*
X214032712Y-78114928D02*
X214080331Y-78019690D01*
X214080331Y-78019690D02*
X214127950Y-77972071D01*
X214127950Y-77972071D02*
X214223188Y-77924452D01*
X214223188Y-77924452D02*
X214366045Y-77924452D01*
X214366045Y-77924452D02*
X214461283Y-77972071D01*
X214461283Y-77972071D02*
X214508902Y-78019690D01*
X214508902Y-78019690D02*
X214556521Y-78114928D01*
X214556521Y-78114928D02*
X214556521Y-78400642D01*
X214556521Y-78400642D02*
X214508902Y-78495880D01*
X214508902Y-78495880D02*
X214461283Y-78543500D01*
X214461283Y-78543500D02*
X214366045Y-78591119D01*
X214366045Y-78591119D02*
X214223188Y-78591119D01*
X215127950Y-78591119D02*
X215032712Y-78543500D01*
X215032712Y-78543500D02*
X214985093Y-78495880D01*
X214985093Y-78495880D02*
X214937474Y-78400642D01*
X214937474Y-78400642D02*
X214937474Y-78114928D01*
X214937474Y-78114928D02*
X214985093Y-78019690D01*
X214985093Y-78019690D02*
X215032712Y-77972071D01*
X215032712Y-77972071D02*
X215127950Y-77924452D01*
X215127950Y-77924452D02*
X215270807Y-77924452D01*
X215270807Y-77924452D02*
X215366045Y-77972071D01*
X215366045Y-77972071D02*
X215413664Y-78019690D01*
X215413664Y-78019690D02*
X215461283Y-78114928D01*
X215461283Y-78114928D02*
X215461283Y-78400642D01*
X215461283Y-78400642D02*
X215413664Y-78495880D01*
X215413664Y-78495880D02*
X215366045Y-78543500D01*
X215366045Y-78543500D02*
X215270807Y-78591119D01*
X215270807Y-78591119D02*
X215127950Y-78591119D01*
X215746998Y-77924452D02*
X216127950Y-77924452D01*
X215889855Y-77591119D02*
X215889855Y-78448261D01*
X215889855Y-78448261D02*
X215937474Y-78543500D01*
X215937474Y-78543500D02*
X216032712Y-78591119D01*
X216032712Y-78591119D02*
X216127950Y-78591119D01*
D10*
X225770169Y-96033085D02*
X225808265Y-95994990D01*
X225808265Y-95994990D02*
X225884455Y-95956895D01*
X225884455Y-95956895D02*
X226074931Y-95956895D01*
X226074931Y-95956895D02*
X226151122Y-95994990D01*
X226151122Y-95994990D02*
X226189217Y-96033085D01*
X226189217Y-96033085D02*
X226227312Y-96109276D01*
X226227312Y-96109276D02*
X226227312Y-96185466D01*
X226227312Y-96185466D02*
X226189217Y-96299752D01*
X226189217Y-96299752D02*
X225732074Y-96756895D01*
X225732074Y-96756895D02*
X226227312Y-96756895D01*
X226989217Y-96756895D02*
X226532074Y-96756895D01*
X226760646Y-96756895D02*
X226760646Y-95956895D01*
X226760646Y-95956895D02*
X226684455Y-96071180D01*
X226684455Y-96071180D02*
X226608265Y-96147371D01*
X226608265Y-96147371D02*
X226532074Y-96185466D01*
X205399312Y-79144895D02*
X204942169Y-79144895D01*
X205170741Y-79144895D02*
X205170741Y-78344895D01*
X205170741Y-78344895D02*
X205094550Y-78459180D01*
X205094550Y-78459180D02*
X205018360Y-78535371D01*
X205018360Y-78535371D02*
X204942169Y-78573466D01*
X206085027Y-78344895D02*
X205932646Y-78344895D01*
X205932646Y-78344895D02*
X205856455Y-78382990D01*
X205856455Y-78382990D02*
X205818360Y-78421085D01*
X205818360Y-78421085D02*
X205742170Y-78535371D01*
X205742170Y-78535371D02*
X205704074Y-78687752D01*
X205704074Y-78687752D02*
X205704074Y-78992514D01*
X205704074Y-78992514D02*
X205742170Y-79068704D01*
X205742170Y-79068704D02*
X205780265Y-79106800D01*
X205780265Y-79106800D02*
X205856455Y-79144895D01*
X205856455Y-79144895D02*
X206008836Y-79144895D01*
X206008836Y-79144895D02*
X206085027Y-79106800D01*
X206085027Y-79106800D02*
X206123122Y-79068704D01*
X206123122Y-79068704D02*
X206161217Y-78992514D01*
X206161217Y-78992514D02*
X206161217Y-78802038D01*
X206161217Y-78802038D02*
X206123122Y-78725847D01*
X206123122Y-78725847D02*
X206085027Y-78687752D01*
X206085027Y-78687752D02*
X206008836Y-78649657D01*
X206008836Y-78649657D02*
X205856455Y-78649657D01*
X205856455Y-78649657D02*
X205780265Y-78687752D01*
X205780265Y-78687752D02*
X205742170Y-78725847D01*
X205742170Y-78725847D02*
X205704074Y-78802038D01*
X205399312Y-99464895D02*
X204942169Y-99464895D01*
X205170741Y-99464895D02*
X205170741Y-98664895D01*
X205170741Y-98664895D02*
X205094550Y-98779180D01*
X205094550Y-98779180D02*
X205018360Y-98855371D01*
X205018360Y-98855371D02*
X204942169Y-98893466D01*
X206161217Y-99464895D02*
X205704074Y-99464895D01*
X205932646Y-99464895D02*
X205932646Y-98664895D01*
X205932646Y-98664895D02*
X205856455Y-98779180D01*
X205856455Y-98779180D02*
X205780265Y-98855371D01*
X205780265Y-98855371D02*
X205704074Y-98893466D01*
X204904074Y-73264895D02*
X205437408Y-73264895D01*
X205437408Y-73264895D02*
X205094550Y-74064895D01*
X226151122Y-93851561D02*
X226151122Y-94384895D01*
X225960646Y-93546800D02*
X225770169Y-94118228D01*
X225770169Y-94118228D02*
X226265408Y-94118228D01*
X226493979Y-93584895D02*
X227027313Y-93584895D01*
X227027313Y-93584895D02*
X226684455Y-94384895D01*
X226151122Y-68451561D02*
X226151122Y-68984895D01*
X225960646Y-68146800D02*
X225770169Y-68718228D01*
X225770169Y-68718228D02*
X226265408Y-68718228D01*
X226532074Y-68261085D02*
X226570170Y-68222990D01*
X226570170Y-68222990D02*
X226646360Y-68184895D01*
X226646360Y-68184895D02*
X226836836Y-68184895D01*
X226836836Y-68184895D02*
X226913027Y-68222990D01*
X226913027Y-68222990D02*
X226951122Y-68261085D01*
X226951122Y-68261085D02*
X226989217Y-68337276D01*
X226989217Y-68337276D02*
X226989217Y-68413466D01*
X226989217Y-68413466D02*
X226951122Y-68527752D01*
X226951122Y-68527752D02*
X226493979Y-68984895D01*
X226493979Y-68984895D02*
X226989217Y-68984895D01*
X225732074Y-85956895D02*
X226227312Y-85956895D01*
X226227312Y-85956895D02*
X225960646Y-86261657D01*
X225960646Y-86261657D02*
X226074931Y-86261657D01*
X226074931Y-86261657D02*
X226151122Y-86299752D01*
X226151122Y-86299752D02*
X226189217Y-86337847D01*
X226189217Y-86337847D02*
X226227312Y-86414038D01*
X226227312Y-86414038D02*
X226227312Y-86604514D01*
X226227312Y-86604514D02*
X226189217Y-86680704D01*
X226189217Y-86680704D02*
X226151122Y-86718800D01*
X226151122Y-86718800D02*
X226074931Y-86756895D01*
X226074931Y-86756895D02*
X225846360Y-86756895D01*
X225846360Y-86756895D02*
X225770169Y-86718800D01*
X225770169Y-86718800D02*
X225732074Y-86680704D01*
X226951122Y-85956895D02*
X226570170Y-85956895D01*
X226570170Y-85956895D02*
X226532074Y-86337847D01*
X226532074Y-86337847D02*
X226570170Y-86299752D01*
X226570170Y-86299752D02*
X226646360Y-86261657D01*
X226646360Y-86261657D02*
X226836836Y-86261657D01*
X226836836Y-86261657D02*
X226913027Y-86299752D01*
X226913027Y-86299752D02*
X226951122Y-86337847D01*
X226951122Y-86337847D02*
X226989217Y-86414038D01*
X226989217Y-86414038D02*
X226989217Y-86604514D01*
X226989217Y-86604514D02*
X226951122Y-86680704D01*
X226951122Y-86680704D02*
X226913027Y-86718800D01*
X226913027Y-86718800D02*
X226836836Y-86756895D01*
X226836836Y-86756895D02*
X226646360Y-86756895D01*
X226646360Y-86756895D02*
X226570170Y-86718800D01*
X226570170Y-86718800D02*
X226532074Y-86680704D01*
X226151122Y-91311561D02*
X226151122Y-91844895D01*
X225960646Y-91006800D02*
X225770169Y-91578228D01*
X225770169Y-91578228D02*
X226265408Y-91578228D01*
X226951122Y-91044895D02*
X226570170Y-91044895D01*
X226570170Y-91044895D02*
X226532074Y-91425847D01*
X226532074Y-91425847D02*
X226570170Y-91387752D01*
X226570170Y-91387752D02*
X226646360Y-91349657D01*
X226646360Y-91349657D02*
X226836836Y-91349657D01*
X226836836Y-91349657D02*
X226913027Y-91387752D01*
X226913027Y-91387752D02*
X226951122Y-91425847D01*
X226951122Y-91425847D02*
X226989217Y-91502038D01*
X226989217Y-91502038D02*
X226989217Y-91692514D01*
X226989217Y-91692514D02*
X226951122Y-91768704D01*
X226951122Y-91768704D02*
X226913027Y-91806800D01*
X226913027Y-91806800D02*
X226836836Y-91844895D01*
X226836836Y-91844895D02*
X226646360Y-91844895D01*
X226646360Y-91844895D02*
X226570170Y-91806800D01*
X226570170Y-91806800D02*
X226532074Y-91768704D01*
X205399312Y-84224895D02*
X204942169Y-84224895D01*
X205170741Y-84224895D02*
X205170741Y-83424895D01*
X205170741Y-83424895D02*
X205094550Y-83539180D01*
X205094550Y-83539180D02*
X205018360Y-83615371D01*
X205018360Y-83615371D02*
X204942169Y-83653466D01*
X205856455Y-83767752D02*
X205780265Y-83729657D01*
X205780265Y-83729657D02*
X205742170Y-83691561D01*
X205742170Y-83691561D02*
X205704074Y-83615371D01*
X205704074Y-83615371D02*
X205704074Y-83577276D01*
X205704074Y-83577276D02*
X205742170Y-83501085D01*
X205742170Y-83501085D02*
X205780265Y-83462990D01*
X205780265Y-83462990D02*
X205856455Y-83424895D01*
X205856455Y-83424895D02*
X206008836Y-83424895D01*
X206008836Y-83424895D02*
X206085027Y-83462990D01*
X206085027Y-83462990D02*
X206123122Y-83501085D01*
X206123122Y-83501085D02*
X206161217Y-83577276D01*
X206161217Y-83577276D02*
X206161217Y-83615371D01*
X206161217Y-83615371D02*
X206123122Y-83691561D01*
X206123122Y-83691561D02*
X206085027Y-83729657D01*
X206085027Y-83729657D02*
X206008836Y-83767752D01*
X206008836Y-83767752D02*
X205856455Y-83767752D01*
X205856455Y-83767752D02*
X205780265Y-83805847D01*
X205780265Y-83805847D02*
X205742170Y-83843942D01*
X205742170Y-83843942D02*
X205704074Y-83920133D01*
X205704074Y-83920133D02*
X205704074Y-84072514D01*
X205704074Y-84072514D02*
X205742170Y-84148704D01*
X205742170Y-84148704D02*
X205780265Y-84186800D01*
X205780265Y-84186800D02*
X205856455Y-84224895D01*
X205856455Y-84224895D02*
X206008836Y-84224895D01*
X206008836Y-84224895D02*
X206085027Y-84186800D01*
X206085027Y-84186800D02*
X206123122Y-84148704D01*
X206123122Y-84148704D02*
X206161217Y-84072514D01*
X206161217Y-84072514D02*
X206161217Y-83920133D01*
X206161217Y-83920133D02*
X206123122Y-83843942D01*
X206123122Y-83843942D02*
X206085027Y-83805847D01*
X206085027Y-83805847D02*
X206008836Y-83767752D01*
X205399312Y-102004895D02*
X204942169Y-102004895D01*
X205170741Y-102004895D02*
X205170741Y-101204895D01*
X205170741Y-101204895D02*
X205094550Y-101319180D01*
X205094550Y-101319180D02*
X205018360Y-101395371D01*
X205018360Y-101395371D02*
X204942169Y-101433466D01*
X205704074Y-101281085D02*
X205742170Y-101242990D01*
X205742170Y-101242990D02*
X205818360Y-101204895D01*
X205818360Y-101204895D02*
X206008836Y-101204895D01*
X206008836Y-101204895D02*
X206085027Y-101242990D01*
X206085027Y-101242990D02*
X206123122Y-101281085D01*
X206123122Y-101281085D02*
X206161217Y-101357276D01*
X206161217Y-101357276D02*
X206161217Y-101433466D01*
X206161217Y-101433466D02*
X206123122Y-101547752D01*
X206123122Y-101547752D02*
X205665979Y-102004895D01*
X205665979Y-102004895D02*
X206161217Y-102004895D01*
X226735312Y-64116895D02*
X226278169Y-64116895D01*
X226506741Y-64116895D02*
X226506741Y-63316895D01*
X226506741Y-63316895D02*
X226430550Y-63431180D01*
X226430550Y-63431180D02*
X226354360Y-63507371D01*
X226354360Y-63507371D02*
X226278169Y-63545466D01*
X214044884Y-106568419D02*
X214044884Y-107377942D01*
X214044884Y-107377942D02*
X214092503Y-107473180D01*
X214092503Y-107473180D02*
X214140122Y-107520800D01*
X214140122Y-107520800D02*
X214235360Y-107568419D01*
X214235360Y-107568419D02*
X214425836Y-107568419D01*
X214425836Y-107568419D02*
X214521074Y-107520800D01*
X214521074Y-107520800D02*
X214568693Y-107473180D01*
X214568693Y-107473180D02*
X214616312Y-107377942D01*
X214616312Y-107377942D02*
X214616312Y-106568419D01*
X215044884Y-107520800D02*
X215187741Y-107568419D01*
X215187741Y-107568419D02*
X215425836Y-107568419D01*
X215425836Y-107568419D02*
X215521074Y-107520800D01*
X215521074Y-107520800D02*
X215568693Y-107473180D01*
X215568693Y-107473180D02*
X215616312Y-107377942D01*
X215616312Y-107377942D02*
X215616312Y-107282704D01*
X215616312Y-107282704D02*
X215568693Y-107187466D01*
X215568693Y-107187466D02*
X215521074Y-107139847D01*
X215521074Y-107139847D02*
X215425836Y-107092228D01*
X215425836Y-107092228D02*
X215235360Y-107044609D01*
X215235360Y-107044609D02*
X215140122Y-106996990D01*
X215140122Y-106996990D02*
X215092503Y-106949371D01*
X215092503Y-106949371D02*
X215044884Y-106854133D01*
X215044884Y-106854133D02*
X215044884Y-106758895D01*
X215044884Y-106758895D02*
X215092503Y-106663657D01*
X215092503Y-106663657D02*
X215140122Y-106616038D01*
X215140122Y-106616038D02*
X215235360Y-106568419D01*
X215235360Y-106568419D02*
X215473455Y-106568419D01*
X215473455Y-106568419D02*
X215616312Y-106616038D01*
X216378217Y-107044609D02*
X216521074Y-107092228D01*
X216521074Y-107092228D02*
X216568693Y-107139847D01*
X216568693Y-107139847D02*
X216616312Y-107235085D01*
X216616312Y-107235085D02*
X216616312Y-107377942D01*
X216616312Y-107377942D02*
X216568693Y-107473180D01*
X216568693Y-107473180D02*
X216521074Y-107520800D01*
X216521074Y-107520800D02*
X216425836Y-107568419D01*
X216425836Y-107568419D02*
X216044884Y-107568419D01*
X216044884Y-107568419D02*
X216044884Y-106568419D01*
X216044884Y-106568419D02*
X216378217Y-106568419D01*
X216378217Y-106568419D02*
X216473455Y-106616038D01*
X216473455Y-106616038D02*
X216521074Y-106663657D01*
X216521074Y-106663657D02*
X216568693Y-106758895D01*
X216568693Y-106758895D02*
X216568693Y-106854133D01*
X216568693Y-106854133D02*
X216521074Y-106949371D01*
X216521074Y-106949371D02*
X216473455Y-106996990D01*
X216473455Y-106996990D02*
X216378217Y-107044609D01*
X216378217Y-107044609D02*
X216044884Y-107044609D01*
X205399312Y-96924895D02*
X204942169Y-96924895D01*
X205170741Y-96924895D02*
X205170741Y-96124895D01*
X205170741Y-96124895D02*
X205094550Y-96239180D01*
X205094550Y-96239180D02*
X205018360Y-96315371D01*
X205018360Y-96315371D02*
X204942169Y-96353466D01*
X205894551Y-96124895D02*
X205970741Y-96124895D01*
X205970741Y-96124895D02*
X206046932Y-96162990D01*
X206046932Y-96162990D02*
X206085027Y-96201085D01*
X206085027Y-96201085D02*
X206123122Y-96277276D01*
X206123122Y-96277276D02*
X206161217Y-96429657D01*
X206161217Y-96429657D02*
X206161217Y-96620133D01*
X206161217Y-96620133D02*
X206123122Y-96772514D01*
X206123122Y-96772514D02*
X206085027Y-96848704D01*
X206085027Y-96848704D02*
X206046932Y-96886800D01*
X206046932Y-96886800D02*
X205970741Y-96924895D01*
X205970741Y-96924895D02*
X205894551Y-96924895D01*
X205894551Y-96924895D02*
X205818360Y-96886800D01*
X205818360Y-96886800D02*
X205780265Y-96848704D01*
X205780265Y-96848704D02*
X205742170Y-96772514D01*
X205742170Y-96772514D02*
X205704074Y-96620133D01*
X205704074Y-96620133D02*
X205704074Y-96429657D01*
X205704074Y-96429657D02*
X205742170Y-96277276D01*
X205742170Y-96277276D02*
X205780265Y-96201085D01*
X205780265Y-96201085D02*
X205818360Y-96162990D01*
X205818360Y-96162990D02*
X205894551Y-96124895D01*
D11*
G36*
X218415989Y-88230000D02*
G01*
X218590500Y-88230000D01*
X218759944Y-87415022D01*
X219066468Y-87415022D01*
X219099319Y-87256936D01*
X218313895Y-87256936D01*
X218281045Y-87415022D01*
X218585432Y-87415022D01*
X218415989Y-88230000D01*
G37*
G36*
X219269190Y-88245631D02*
G01*
X219365565Y-88237980D01*
X219417180Y-88228056D01*
X219468293Y-88214251D01*
X219514349Y-88198126D01*
X219501343Y-88074661D01*
X219456968Y-88089635D01*
X219412176Y-88100626D01*
X219368779Y-88107262D01*
X219326517Y-88109587D01*
X219325732Y-88109588D01*
X219289274Y-88107638D01*
X219256883Y-88101802D01*
X219231077Y-88093177D01*
X219208664Y-88081398D01*
X219190836Y-88067579D01*
X219176004Y-88051042D01*
X219155642Y-88010604D01*
X219147029Y-87957488D01*
X219152345Y-87887646D01*
X219155678Y-87870047D01*
X219166336Y-87828236D01*
X219179920Y-87791175D01*
X219195094Y-87761051D01*
X219212637Y-87735177D01*
X219231105Y-87714902D01*
X219251511Y-87698457D01*
X219272792Y-87686360D01*
X219295734Y-87677872D01*
X219341058Y-87671844D01*
X219366900Y-87673781D01*
X219389419Y-87679525D01*
X219407076Y-87688049D01*
X219421807Y-87699611D01*
X219441719Y-87730187D01*
X219450147Y-87772820D01*
X219444617Y-87831395D01*
X219139619Y-87831395D01*
X219116966Y-87940450D01*
X219578707Y-87940450D01*
X219607405Y-87838845D01*
X219614212Y-87796574D01*
X219616596Y-87756972D01*
X219614844Y-87721865D01*
X219609254Y-87689406D01*
X219600423Y-87661017D01*
X219588249Y-87635235D01*
X219573362Y-87612870D01*
X219555481Y-87593120D01*
X219511436Y-87562045D01*
X219455307Y-87542029D01*
X219385592Y-87534411D01*
X219382091Y-87534396D01*
X219304466Y-87542028D01*
X219230918Y-87564573D01*
X219162786Y-87601541D01*
X219101726Y-87652325D01*
X219049633Y-87716018D01*
X219027546Y-87752342D01*
X219008459Y-87791312D01*
X218992548Y-87832772D01*
X218980001Y-87876547D01*
X218976282Y-87893128D01*
X218969084Y-87937273D01*
X218966303Y-87978880D01*
X218967692Y-88016114D01*
X218972953Y-88050867D01*
X218981564Y-88081771D01*
X218993604Y-88110246D01*
X219008542Y-88135539D01*
X219026606Y-88158399D01*
X219071591Y-88196360D01*
X219129370Y-88224296D01*
X219201483Y-88241255D01*
X219269190Y-88245631D01*
G37*
G36*
X219675122Y-88230000D02*
G01*
X219849755Y-88230000D01*
X219947086Y-87761969D01*
X219955146Y-87550027D01*
X219816477Y-87550027D01*
X219675122Y-88230000D01*
G37*
G36*
X219896650Y-87841898D02*
G01*
X219918600Y-87812320D01*
X219942796Y-87786122D01*
X219968954Y-87763456D01*
X219996716Y-87744549D01*
X220025263Y-87729802D01*
X220054739Y-87719042D01*
X220083864Y-87712591D01*
X220113290Y-87710201D01*
X220115430Y-87710190D01*
X220173024Y-87717350D01*
X220196885Y-87724966D01*
X220271563Y-87561202D01*
X220220369Y-87545830D01*
X220176735Y-87542212D01*
X220115510Y-87549835D01*
X220052667Y-87573258D01*
X219991287Y-87612830D01*
X219962345Y-87638501D01*
X219935437Y-87667638D01*
X219932065Y-87671721D01*
X219896650Y-87841898D01*
G37*
G36*
X220163607Y-88230000D02*
G01*
X220338241Y-88230000D01*
X220435572Y-87761969D01*
X220443632Y-87550027D01*
X220304963Y-87550027D01*
X220163607Y-88230000D01*
G37*
G36*
X220385136Y-87841898D02*
G01*
X220407086Y-87812320D01*
X220431282Y-87786122D01*
X220457440Y-87763456D01*
X220485202Y-87744549D01*
X220513749Y-87729802D01*
X220543224Y-87719042D01*
X220572350Y-87712591D01*
X220601775Y-87710201D01*
X220603916Y-87710190D01*
X220661510Y-87717350D01*
X220685371Y-87724966D01*
X220760048Y-87561202D01*
X220708855Y-87545830D01*
X220665221Y-87542212D01*
X220603996Y-87549835D01*
X220541153Y-87573258D01*
X220479772Y-87612830D01*
X220450831Y-87638501D01*
X220423923Y-87667638D01*
X220420551Y-87671721D01*
X220385136Y-87841898D01*
G37*
G36*
X221069993Y-88230000D02*
G01*
X221194923Y-88230000D01*
X221279919Y-87821259D01*
X221286895Y-87778087D01*
X221289215Y-87738254D01*
X221287263Y-87704668D01*
X221281417Y-87673979D01*
X221272483Y-87648032D01*
X221260194Y-87624665D01*
X221245214Y-87604644D01*
X221227149Y-87587069D01*
X221181551Y-87559257D01*
X221120747Y-87541132D01*
X221040317Y-87534396D01*
X220944608Y-87541944D01*
X220841939Y-87565394D01*
X220751500Y-87600280D01*
X220767009Y-87724722D01*
X220820176Y-87706811D01*
X220871178Y-87693815D01*
X220917546Y-87686003D01*
X220961656Y-87682622D01*
X220972906Y-87682468D01*
X221009953Y-87684418D01*
X221041544Y-87690253D01*
X221064500Y-87698463D01*
X221083204Y-87709575D01*
X221096255Y-87721930D01*
X221105829Y-87736574D01*
X221114318Y-87771407D01*
X221111086Y-87806849D01*
X221050209Y-88099452D01*
X221069993Y-88230000D01*
G37*
G36*
X220834665Y-88245631D02*
G01*
X220872379Y-88243692D01*
X220908912Y-88237937D01*
X220944057Y-88228475D01*
X220977725Y-88215392D01*
X221040192Y-88178606D01*
X221095257Y-88127976D01*
X221141640Y-88063793D01*
X221167934Y-88011463D01*
X221116826Y-87985207D01*
X221083983Y-88032233D01*
X221039022Y-88070173D01*
X221012968Y-88084596D01*
X220985269Y-88095440D01*
X220956783Y-88102372D01*
X220927496Y-88105339D01*
X220921188Y-88105436D01*
X220895349Y-88103528D01*
X220873111Y-88097989D01*
X220855816Y-88089764D01*
X220842154Y-88078830D01*
X220832899Y-88066408D01*
X220827184Y-88052016D01*
X220827032Y-88018485D01*
X220832712Y-88000927D01*
X220842154Y-87985377D01*
X220871224Y-87961107D01*
X220920083Y-87942353D01*
X221000924Y-87929513D01*
X221116215Y-87925184D01*
X221136793Y-87826022D01*
X221049358Y-87827994D01*
X220971103Y-87833987D01*
X220909824Y-87842644D01*
X220855270Y-87854557D01*
X220812109Y-87868008D01*
X220774070Y-87884171D01*
X220743738Y-87901325D01*
X220717486Y-87920821D01*
X220696416Y-87941362D01*
X220678817Y-87964051D01*
X220654048Y-88015089D01*
X220646659Y-88042726D01*
X220642226Y-88073536D01*
X220642064Y-88102281D01*
X220645780Y-88127648D01*
X220653169Y-88150887D01*
X220663739Y-88171270D01*
X220677568Y-88189429D01*
X220714597Y-88218616D01*
X220765163Y-88237994D01*
X220830761Y-88245610D01*
X220834665Y-88245631D01*
G37*
G36*
X221352581Y-88230000D02*
G01*
X221527215Y-88230000D01*
X221624546Y-87761969D01*
X221632606Y-87550027D01*
X221493937Y-87550027D01*
X221352581Y-88230000D01*
G37*
G36*
X221574110Y-87841898D02*
G01*
X221596060Y-87812320D01*
X221620256Y-87786122D01*
X221646414Y-87763456D01*
X221674176Y-87744549D01*
X221702723Y-87729802D01*
X221732198Y-87719042D01*
X221761324Y-87712591D01*
X221790750Y-87710201D01*
X221792890Y-87710190D01*
X221850484Y-87717350D01*
X221874345Y-87724966D01*
X221949023Y-87561202D01*
X221897829Y-87545830D01*
X221854195Y-87542212D01*
X221792970Y-87549835D01*
X221730127Y-87573258D01*
X221668746Y-87612830D01*
X221639805Y-87638501D01*
X221612897Y-87667638D01*
X221609525Y-87671721D01*
X221574110Y-87841898D01*
G37*
G36*
X221841067Y-88230000D02*
G01*
X222015701Y-88230000D01*
X222157056Y-87550027D01*
X221982423Y-87550027D01*
X221841067Y-88230000D01*
G37*
G36*
X222096789Y-87424975D02*
G01*
X222120241Y-87423057D01*
X222142130Y-87417444D01*
X222180298Y-87395914D01*
X222209270Y-87361841D01*
X222219614Y-87340520D01*
X222226755Y-87316714D01*
X222227093Y-87315127D01*
X222230181Y-87290858D01*
X222228973Y-87269137D01*
X222224141Y-87251396D01*
X222215883Y-87236231D01*
X222204911Y-87224302D01*
X222191064Y-87215046D01*
X222154528Y-87205112D01*
X222142585Y-87204607D01*
X222119133Y-87206527D01*
X222097243Y-87212148D01*
X222059121Y-87233700D01*
X222030155Y-87267845D01*
X222019773Y-87289263D01*
X222012568Y-87313214D01*
X222012159Y-87315127D01*
X222009111Y-87339170D01*
X222010350Y-87360723D01*
X222015210Y-87378372D01*
X222023498Y-87393474D01*
X222034514Y-87405375D01*
X222048416Y-87414608D01*
X222085086Y-87424491D01*
X222096789Y-87424975D01*
G37*
G36*
X222587229Y-88230000D02*
G01*
X222712159Y-88230000D01*
X222797156Y-87821259D01*
X222804132Y-87778087D01*
X222806452Y-87738254D01*
X222804499Y-87704668D01*
X222798654Y-87673979D01*
X222789719Y-87648032D01*
X222777431Y-87624665D01*
X222762450Y-87604644D01*
X222744386Y-87587069D01*
X222698788Y-87559257D01*
X222637984Y-87541132D01*
X222557554Y-87534396D01*
X222461845Y-87541944D01*
X222359175Y-87565394D01*
X222268736Y-87600280D01*
X222284246Y-87724722D01*
X222337412Y-87706811D01*
X222388415Y-87693815D01*
X222434783Y-87686003D01*
X222478893Y-87682622D01*
X222490143Y-87682468D01*
X222527189Y-87684418D01*
X222558780Y-87690253D01*
X222581737Y-87698463D01*
X222600440Y-87709575D01*
X222613492Y-87721930D01*
X222623065Y-87736574D01*
X222631554Y-87771407D01*
X222628323Y-87806849D01*
X222567445Y-88099452D01*
X222587229Y-88230000D01*
G37*
G36*
X222351901Y-88245631D02*
G01*
X222389616Y-88243692D01*
X222426148Y-88237937D01*
X222461293Y-88228475D01*
X222494961Y-88215392D01*
X222557428Y-88178606D01*
X222612494Y-88127976D01*
X222658877Y-88063793D01*
X222685170Y-88011463D01*
X222634063Y-87985207D01*
X222601220Y-88032233D01*
X222556258Y-88070173D01*
X222530204Y-88084596D01*
X222502506Y-88095440D01*
X222474020Y-88102372D01*
X222444732Y-88105339D01*
X222438424Y-88105436D01*
X222412586Y-88103528D01*
X222390347Y-88097989D01*
X222373053Y-88089764D01*
X222359390Y-88078830D01*
X222350136Y-88066408D01*
X222344421Y-88052016D01*
X222344269Y-88018485D01*
X222349949Y-88000927D01*
X222359391Y-87985377D01*
X222388461Y-87961107D01*
X222437320Y-87942353D01*
X222518160Y-87929513D01*
X222633452Y-87925184D01*
X222654030Y-87826022D01*
X222566594Y-87827994D01*
X222488339Y-87833987D01*
X222427061Y-87842644D01*
X222372506Y-87854557D01*
X222329346Y-87868008D01*
X222291306Y-87884171D01*
X222260974Y-87901325D01*
X222234723Y-87920821D01*
X222213652Y-87941362D01*
X222196054Y-87964051D01*
X222171285Y-88015089D01*
X222163895Y-88042726D01*
X222159462Y-88073536D01*
X222159301Y-88102281D01*
X222163017Y-88127648D01*
X222170406Y-88150887D01*
X222180976Y-88171270D01*
X222194805Y-88189429D01*
X222231833Y-88218616D01*
X222282399Y-88237994D01*
X222347997Y-88245610D01*
X222351901Y-88245631D01*
G37*
D10*
X209866667Y-87488704D02*
X209828571Y-87526800D01*
X209828571Y-87526800D02*
X209714286Y-87564895D01*
X209714286Y-87564895D02*
X209638095Y-87564895D01*
X209638095Y-87564895D02*
X209523809Y-87526800D01*
X209523809Y-87526800D02*
X209447619Y-87450609D01*
X209447619Y-87450609D02*
X209409524Y-87374419D01*
X209409524Y-87374419D02*
X209371428Y-87222038D01*
X209371428Y-87222038D02*
X209371428Y-87107752D01*
X209371428Y-87107752D02*
X209409524Y-86955371D01*
X209409524Y-86955371D02*
X209447619Y-86879180D01*
X209447619Y-86879180D02*
X209523809Y-86802990D01*
X209523809Y-86802990D02*
X209638095Y-86764895D01*
X209638095Y-86764895D02*
X209714286Y-86764895D01*
X209714286Y-86764895D02*
X209828571Y-86802990D01*
X209828571Y-86802990D02*
X209866667Y-86841085D01*
X210247619Y-87564895D02*
X210400000Y-87564895D01*
X210400000Y-87564895D02*
X210476190Y-87526800D01*
X210476190Y-87526800D02*
X210514286Y-87488704D01*
X210514286Y-87488704D02*
X210590476Y-87374419D01*
X210590476Y-87374419D02*
X210628571Y-87222038D01*
X210628571Y-87222038D02*
X210628571Y-86917276D01*
X210628571Y-86917276D02*
X210590476Y-86841085D01*
X210590476Y-86841085D02*
X210552381Y-86802990D01*
X210552381Y-86802990D02*
X210476190Y-86764895D01*
X210476190Y-86764895D02*
X210323809Y-86764895D01*
X210323809Y-86764895D02*
X210247619Y-86802990D01*
X210247619Y-86802990D02*
X210209524Y-86841085D01*
X210209524Y-86841085D02*
X210171428Y-86917276D01*
X210171428Y-86917276D02*
X210171428Y-87107752D01*
X210171428Y-87107752D02*
X210209524Y-87183942D01*
X210209524Y-87183942D02*
X210247619Y-87222038D01*
X210247619Y-87222038D02*
X210323809Y-87260133D01*
X210323809Y-87260133D02*
X210476190Y-87260133D01*
X210476190Y-87260133D02*
X210552381Y-87222038D01*
X210552381Y-87222038D02*
X210590476Y-87183942D01*
X210590476Y-87183942D02*
X210628571Y-87107752D01*
X208003333Y-109884895D02*
X208003333Y-110456323D01*
X208003333Y-110456323D02*
X207965238Y-110570609D01*
X207965238Y-110570609D02*
X207889047Y-110646800D01*
X207889047Y-110646800D02*
X207774762Y-110684895D01*
X207774762Y-110684895D02*
X207698571Y-110684895D01*
X208803333Y-110684895D02*
X208346190Y-110684895D01*
X208574762Y-110684895D02*
X208574762Y-109884895D01*
X208574762Y-109884895D02*
X208498571Y-109999180D01*
X208498571Y-109999180D02*
X208422381Y-110075371D01*
X208422381Y-110075371D02*
X208346190Y-110113466D01*
X211885714Y-88564895D02*
X211619047Y-88183942D01*
X211428571Y-88564895D02*
X211428571Y-87764895D01*
X211428571Y-87764895D02*
X211733333Y-87764895D01*
X211733333Y-87764895D02*
X211809523Y-87802990D01*
X211809523Y-87802990D02*
X211847618Y-87841085D01*
X211847618Y-87841085D02*
X211885714Y-87917276D01*
X211885714Y-87917276D02*
X211885714Y-88031561D01*
X211885714Y-88031561D02*
X211847618Y-88107752D01*
X211847618Y-88107752D02*
X211809523Y-88145847D01*
X211809523Y-88145847D02*
X211733333Y-88183942D01*
X211733333Y-88183942D02*
X211428571Y-88183942D01*
X212647618Y-88564895D02*
X212190475Y-88564895D01*
X212419047Y-88564895D02*
X212419047Y-87764895D01*
X212419047Y-87764895D02*
X212342856Y-87879180D01*
X212342856Y-87879180D02*
X212266666Y-87955371D01*
X212266666Y-87955371D02*
X212190475Y-87993466D01*
X213409523Y-88564895D02*
X212952380Y-88564895D01*
X213180952Y-88564895D02*
X213180952Y-87764895D01*
X213180952Y-87764895D02*
X213104761Y-87879180D01*
X213104761Y-87879180D02*
X213028571Y-87955371D01*
X213028571Y-87955371D02*
X212952380Y-87993466D01*
X209390476Y-98064895D02*
X209390476Y-98712514D01*
X209390476Y-98712514D02*
X209428571Y-98788704D01*
X209428571Y-98788704D02*
X209466666Y-98826800D01*
X209466666Y-98826800D02*
X209542857Y-98864895D01*
X209542857Y-98864895D02*
X209695238Y-98864895D01*
X209695238Y-98864895D02*
X209771428Y-98826800D01*
X209771428Y-98826800D02*
X209809523Y-98788704D01*
X209809523Y-98788704D02*
X209847619Y-98712514D01*
X209847619Y-98712514D02*
X209847619Y-98064895D01*
X210152380Y-98064895D02*
X210647618Y-98064895D01*
X210647618Y-98064895D02*
X210380952Y-98369657D01*
X210380952Y-98369657D02*
X210495237Y-98369657D01*
X210495237Y-98369657D02*
X210571428Y-98407752D01*
X210571428Y-98407752D02*
X210609523Y-98445847D01*
X210609523Y-98445847D02*
X210647618Y-98522038D01*
X210647618Y-98522038D02*
X210647618Y-98712514D01*
X210647618Y-98712514D02*
X210609523Y-98788704D01*
X210609523Y-98788704D02*
X210571428Y-98826800D01*
X210571428Y-98826800D02*
X210495237Y-98864895D01*
X210495237Y-98864895D02*
X210266666Y-98864895D01*
X210266666Y-98864895D02*
X210190475Y-98826800D01*
X210190475Y-98826800D02*
X210152380Y-98788704D01*
X218266667Y-106488704D02*
X218228571Y-106526800D01*
X218228571Y-106526800D02*
X218114286Y-106564895D01*
X218114286Y-106564895D02*
X218038095Y-106564895D01*
X218038095Y-106564895D02*
X217923809Y-106526800D01*
X217923809Y-106526800D02*
X217847619Y-106450609D01*
X217847619Y-106450609D02*
X217809524Y-106374419D01*
X217809524Y-106374419D02*
X217771428Y-106222038D01*
X217771428Y-106222038D02*
X217771428Y-106107752D01*
X217771428Y-106107752D02*
X217809524Y-105955371D01*
X217809524Y-105955371D02*
X217847619Y-105879180D01*
X217847619Y-105879180D02*
X217923809Y-105802990D01*
X217923809Y-105802990D02*
X218038095Y-105764895D01*
X218038095Y-105764895D02*
X218114286Y-105764895D01*
X218114286Y-105764895D02*
X218228571Y-105802990D01*
X218228571Y-105802990D02*
X218266667Y-105841085D01*
X218952381Y-106031561D02*
X218952381Y-106564895D01*
X218761905Y-105726800D02*
X218571428Y-106298228D01*
X218571428Y-106298228D02*
X219066667Y-106298228D01*
X214015714Y-87688704D02*
X213977618Y-87726800D01*
X213977618Y-87726800D02*
X213863333Y-87764895D01*
X213863333Y-87764895D02*
X213787142Y-87764895D01*
X213787142Y-87764895D02*
X213672856Y-87726800D01*
X213672856Y-87726800D02*
X213596666Y-87650609D01*
X213596666Y-87650609D02*
X213558571Y-87574419D01*
X213558571Y-87574419D02*
X213520475Y-87422038D01*
X213520475Y-87422038D02*
X213520475Y-87307752D01*
X213520475Y-87307752D02*
X213558571Y-87155371D01*
X213558571Y-87155371D02*
X213596666Y-87079180D01*
X213596666Y-87079180D02*
X213672856Y-87002990D01*
X213672856Y-87002990D02*
X213787142Y-86964895D01*
X213787142Y-86964895D02*
X213863333Y-86964895D01*
X213863333Y-86964895D02*
X213977618Y-87002990D01*
X213977618Y-87002990D02*
X214015714Y-87041085D01*
X214777618Y-87764895D02*
X214320475Y-87764895D01*
X214549047Y-87764895D02*
X214549047Y-86964895D01*
X214549047Y-86964895D02*
X214472856Y-87079180D01*
X214472856Y-87079180D02*
X214396666Y-87155371D01*
X214396666Y-87155371D02*
X214320475Y-87193466D01*
X215272857Y-86964895D02*
X215349047Y-86964895D01*
X215349047Y-86964895D02*
X215425238Y-87002990D01*
X215425238Y-87002990D02*
X215463333Y-87041085D01*
X215463333Y-87041085D02*
X215501428Y-87117276D01*
X215501428Y-87117276D02*
X215539523Y-87269657D01*
X215539523Y-87269657D02*
X215539523Y-87460133D01*
X215539523Y-87460133D02*
X215501428Y-87612514D01*
X215501428Y-87612514D02*
X215463333Y-87688704D01*
X215463333Y-87688704D02*
X215425238Y-87726800D01*
X215425238Y-87726800D02*
X215349047Y-87764895D01*
X215349047Y-87764895D02*
X215272857Y-87764895D01*
X215272857Y-87764895D02*
X215196666Y-87726800D01*
X215196666Y-87726800D02*
X215158571Y-87688704D01*
X215158571Y-87688704D02*
X215120476Y-87612514D01*
X215120476Y-87612514D02*
X215082380Y-87460133D01*
X215082380Y-87460133D02*
X215082380Y-87269657D01*
X215082380Y-87269657D02*
X215120476Y-87117276D01*
X215120476Y-87117276D02*
X215158571Y-87041085D01*
X215158571Y-87041085D02*
X215196666Y-87002990D01*
X215196666Y-87002990D02*
X215272857Y-86964895D01*
X215220476Y-62894895D02*
X215220476Y-63542514D01*
X215220476Y-63542514D02*
X215258571Y-63618704D01*
X215258571Y-63618704D02*
X215296666Y-63656800D01*
X215296666Y-63656800D02*
X215372857Y-63694895D01*
X215372857Y-63694895D02*
X215525238Y-63694895D01*
X215525238Y-63694895D02*
X215601428Y-63656800D01*
X215601428Y-63656800D02*
X215639523Y-63618704D01*
X215639523Y-63618704D02*
X215677619Y-63542514D01*
X215677619Y-63542514D02*
X215677619Y-62894895D01*
X216401428Y-63161561D02*
X216401428Y-63694895D01*
X216210952Y-62856800D02*
X216020475Y-63428228D01*
X216020475Y-63428228D02*
X216515714Y-63428228D01*
X212333333Y-100414895D02*
X212333333Y-100986323D01*
X212333333Y-100986323D02*
X212295238Y-101100609D01*
X212295238Y-101100609D02*
X212219047Y-101176800D01*
X212219047Y-101176800D02*
X212104762Y-101214895D01*
X212104762Y-101214895D02*
X212028571Y-101214895D01*
X212714286Y-101214895D02*
X212714286Y-100414895D01*
X212714286Y-100414895D02*
X213019048Y-100414895D01*
X213019048Y-100414895D02*
X213095238Y-100452990D01*
X213095238Y-100452990D02*
X213133333Y-100491085D01*
X213133333Y-100491085D02*
X213171429Y-100567276D01*
X213171429Y-100567276D02*
X213171429Y-100681561D01*
X213171429Y-100681561D02*
X213133333Y-100757752D01*
X213133333Y-100757752D02*
X213095238Y-100795847D01*
X213095238Y-100795847D02*
X213019048Y-100833942D01*
X213019048Y-100833942D02*
X212714286Y-100833942D01*
X213933333Y-101214895D02*
X213476190Y-101214895D01*
X213704762Y-101214895D02*
X213704762Y-100414895D01*
X213704762Y-100414895D02*
X213628571Y-100529180D01*
X213628571Y-100529180D02*
X213552381Y-100605371D01*
X213552381Y-100605371D02*
X213476190Y-100643466D01*
X208991667Y-89288704D02*
X208953571Y-89326800D01*
X208953571Y-89326800D02*
X208839286Y-89364895D01*
X208839286Y-89364895D02*
X208763095Y-89364895D01*
X208763095Y-89364895D02*
X208648809Y-89326800D01*
X208648809Y-89326800D02*
X208572619Y-89250609D01*
X208572619Y-89250609D02*
X208534524Y-89174419D01*
X208534524Y-89174419D02*
X208496428Y-89022038D01*
X208496428Y-89022038D02*
X208496428Y-88907752D01*
X208496428Y-88907752D02*
X208534524Y-88755371D01*
X208534524Y-88755371D02*
X208572619Y-88679180D01*
X208572619Y-88679180D02*
X208648809Y-88602990D01*
X208648809Y-88602990D02*
X208763095Y-88564895D01*
X208763095Y-88564895D02*
X208839286Y-88564895D01*
X208839286Y-88564895D02*
X208953571Y-88602990D01*
X208953571Y-88602990D02*
X208991667Y-88641085D01*
X209677381Y-88564895D02*
X209525000Y-88564895D01*
X209525000Y-88564895D02*
X209448809Y-88602990D01*
X209448809Y-88602990D02*
X209410714Y-88641085D01*
X209410714Y-88641085D02*
X209334524Y-88755371D01*
X209334524Y-88755371D02*
X209296428Y-88907752D01*
X209296428Y-88907752D02*
X209296428Y-89212514D01*
X209296428Y-89212514D02*
X209334524Y-89288704D01*
X209334524Y-89288704D02*
X209372619Y-89326800D01*
X209372619Y-89326800D02*
X209448809Y-89364895D01*
X209448809Y-89364895D02*
X209601190Y-89364895D01*
X209601190Y-89364895D02*
X209677381Y-89326800D01*
X209677381Y-89326800D02*
X209715476Y-89288704D01*
X209715476Y-89288704D02*
X209753571Y-89212514D01*
X209753571Y-89212514D02*
X209753571Y-89022038D01*
X209753571Y-89022038D02*
X209715476Y-88945847D01*
X209715476Y-88945847D02*
X209677381Y-88907752D01*
X209677381Y-88907752D02*
X209601190Y-88869657D01*
X209601190Y-88869657D02*
X209448809Y-88869657D01*
X209448809Y-88869657D02*
X209372619Y-88907752D01*
X209372619Y-88907752D02*
X209334524Y-88945847D01*
X209334524Y-88945847D02*
X209296428Y-89022038D01*
X221333332Y-96926800D02*
X221447618Y-96964895D01*
X221447618Y-96964895D02*
X221638094Y-96964895D01*
X221638094Y-96964895D02*
X221714285Y-96926800D01*
X221714285Y-96926800D02*
X221752380Y-96888704D01*
X221752380Y-96888704D02*
X221790475Y-96812514D01*
X221790475Y-96812514D02*
X221790475Y-96736323D01*
X221790475Y-96736323D02*
X221752380Y-96660133D01*
X221752380Y-96660133D02*
X221714285Y-96622038D01*
X221714285Y-96622038D02*
X221638094Y-96583942D01*
X221638094Y-96583942D02*
X221485713Y-96545847D01*
X221485713Y-96545847D02*
X221409523Y-96507752D01*
X221409523Y-96507752D02*
X221371428Y-96469657D01*
X221371428Y-96469657D02*
X221333332Y-96393466D01*
X221333332Y-96393466D02*
X221333332Y-96317276D01*
X221333332Y-96317276D02*
X221371428Y-96241085D01*
X221371428Y-96241085D02*
X221409523Y-96202990D01*
X221409523Y-96202990D02*
X221485713Y-96164895D01*
X221485713Y-96164895D02*
X221676190Y-96164895D01*
X221676190Y-96164895D02*
X221790475Y-96202990D01*
X222057142Y-96164895D02*
X222247618Y-96964895D01*
X222247618Y-96964895D02*
X222399999Y-96393466D01*
X222399999Y-96393466D02*
X222552380Y-96964895D01*
X222552380Y-96964895D02*
X222742857Y-96164895D01*
X222971428Y-96164895D02*
X223466666Y-96164895D01*
X223466666Y-96164895D02*
X223200000Y-96469657D01*
X223200000Y-96469657D02*
X223314285Y-96469657D01*
X223314285Y-96469657D02*
X223390476Y-96507752D01*
X223390476Y-96507752D02*
X223428571Y-96545847D01*
X223428571Y-96545847D02*
X223466666Y-96622038D01*
X223466666Y-96622038D02*
X223466666Y-96812514D01*
X223466666Y-96812514D02*
X223428571Y-96888704D01*
X223428571Y-96888704D02*
X223390476Y-96926800D01*
X223390476Y-96926800D02*
X223314285Y-96964895D01*
X223314285Y-96964895D02*
X223085714Y-96964895D01*
X223085714Y-96964895D02*
X223009523Y-96926800D01*
X223009523Y-96926800D02*
X222971428Y-96888704D01*
X214833333Y-96064895D02*
X214833333Y-96636323D01*
X214833333Y-96636323D02*
X214795238Y-96750609D01*
X214795238Y-96750609D02*
X214719047Y-96826800D01*
X214719047Y-96826800D02*
X214604762Y-96864895D01*
X214604762Y-96864895D02*
X214528571Y-96864895D01*
X215214286Y-96864895D02*
X215214286Y-96064895D01*
X215214286Y-96064895D02*
X215519048Y-96064895D01*
X215519048Y-96064895D02*
X215595238Y-96102990D01*
X215595238Y-96102990D02*
X215633333Y-96141085D01*
X215633333Y-96141085D02*
X215671429Y-96217276D01*
X215671429Y-96217276D02*
X215671429Y-96331561D01*
X215671429Y-96331561D02*
X215633333Y-96407752D01*
X215633333Y-96407752D02*
X215595238Y-96445847D01*
X215595238Y-96445847D02*
X215519048Y-96483942D01*
X215519048Y-96483942D02*
X215214286Y-96483942D01*
X215976190Y-96141085D02*
X216014286Y-96102990D01*
X216014286Y-96102990D02*
X216090476Y-96064895D01*
X216090476Y-96064895D02*
X216280952Y-96064895D01*
X216280952Y-96064895D02*
X216357143Y-96102990D01*
X216357143Y-96102990D02*
X216395238Y-96141085D01*
X216395238Y-96141085D02*
X216433333Y-96217276D01*
X216433333Y-96217276D02*
X216433333Y-96293466D01*
X216433333Y-96293466D02*
X216395238Y-96407752D01*
X216395238Y-96407752D02*
X215938095Y-96864895D01*
X215938095Y-96864895D02*
X216433333Y-96864895D01*
X209285714Y-92264895D02*
X209019047Y-91883942D01*
X208828571Y-92264895D02*
X208828571Y-91464895D01*
X208828571Y-91464895D02*
X209133333Y-91464895D01*
X209133333Y-91464895D02*
X209209523Y-91502990D01*
X209209523Y-91502990D02*
X209247618Y-91541085D01*
X209247618Y-91541085D02*
X209285714Y-91617276D01*
X209285714Y-91617276D02*
X209285714Y-91731561D01*
X209285714Y-91731561D02*
X209247618Y-91807752D01*
X209247618Y-91807752D02*
X209209523Y-91845847D01*
X209209523Y-91845847D02*
X209133333Y-91883942D01*
X209133333Y-91883942D02*
X208828571Y-91883942D01*
X210047618Y-92264895D02*
X209590475Y-92264895D01*
X209819047Y-92264895D02*
X209819047Y-91464895D01*
X209819047Y-91464895D02*
X209742856Y-91579180D01*
X209742856Y-91579180D02*
X209666666Y-91655371D01*
X209666666Y-91655371D02*
X209590475Y-91693466D01*
X210352380Y-91541085D02*
X210390476Y-91502990D01*
X210390476Y-91502990D02*
X210466666Y-91464895D01*
X210466666Y-91464895D02*
X210657142Y-91464895D01*
X210657142Y-91464895D02*
X210733333Y-91502990D01*
X210733333Y-91502990D02*
X210771428Y-91541085D01*
X210771428Y-91541085D02*
X210809523Y-91617276D01*
X210809523Y-91617276D02*
X210809523Y-91693466D01*
X210809523Y-91693466D02*
X210771428Y-91807752D01*
X210771428Y-91807752D02*
X210314285Y-92264895D01*
X210314285Y-92264895D02*
X210809523Y-92264895D01*
X224716667Y-106688704D02*
X224678571Y-106726800D01*
X224678571Y-106726800D02*
X224564286Y-106764895D01*
X224564286Y-106764895D02*
X224488095Y-106764895D01*
X224488095Y-106764895D02*
X224373809Y-106726800D01*
X224373809Y-106726800D02*
X224297619Y-106650609D01*
X224297619Y-106650609D02*
X224259524Y-106574419D01*
X224259524Y-106574419D02*
X224221428Y-106422038D01*
X224221428Y-106422038D02*
X224221428Y-106307752D01*
X224221428Y-106307752D02*
X224259524Y-106155371D01*
X224259524Y-106155371D02*
X224297619Y-106079180D01*
X224297619Y-106079180D02*
X224373809Y-106002990D01*
X224373809Y-106002990D02*
X224488095Y-105964895D01*
X224488095Y-105964895D02*
X224564286Y-105964895D01*
X224564286Y-105964895D02*
X224678571Y-106002990D01*
X224678571Y-106002990D02*
X224716667Y-106041085D01*
X225173809Y-106307752D02*
X225097619Y-106269657D01*
X225097619Y-106269657D02*
X225059524Y-106231561D01*
X225059524Y-106231561D02*
X225021428Y-106155371D01*
X225021428Y-106155371D02*
X225021428Y-106117276D01*
X225021428Y-106117276D02*
X225059524Y-106041085D01*
X225059524Y-106041085D02*
X225097619Y-106002990D01*
X225097619Y-106002990D02*
X225173809Y-105964895D01*
X225173809Y-105964895D02*
X225326190Y-105964895D01*
X225326190Y-105964895D02*
X225402381Y-106002990D01*
X225402381Y-106002990D02*
X225440476Y-106041085D01*
X225440476Y-106041085D02*
X225478571Y-106117276D01*
X225478571Y-106117276D02*
X225478571Y-106155371D01*
X225478571Y-106155371D02*
X225440476Y-106231561D01*
X225440476Y-106231561D02*
X225402381Y-106269657D01*
X225402381Y-106269657D02*
X225326190Y-106307752D01*
X225326190Y-106307752D02*
X225173809Y-106307752D01*
X225173809Y-106307752D02*
X225097619Y-106345847D01*
X225097619Y-106345847D02*
X225059524Y-106383942D01*
X225059524Y-106383942D02*
X225021428Y-106460133D01*
X225021428Y-106460133D02*
X225021428Y-106612514D01*
X225021428Y-106612514D02*
X225059524Y-106688704D01*
X225059524Y-106688704D02*
X225097619Y-106726800D01*
X225097619Y-106726800D02*
X225173809Y-106764895D01*
X225173809Y-106764895D02*
X225326190Y-106764895D01*
X225326190Y-106764895D02*
X225402381Y-106726800D01*
X225402381Y-106726800D02*
X225440476Y-106688704D01*
X225440476Y-106688704D02*
X225478571Y-106612514D01*
X225478571Y-106612514D02*
X225478571Y-106460133D01*
X225478571Y-106460133D02*
X225440476Y-106383942D01*
X225440476Y-106383942D02*
X225402381Y-106345847D01*
X225402381Y-106345847D02*
X225326190Y-106307752D01*
X214826800Y-83066667D02*
X214864895Y-82952381D01*
X214864895Y-82952381D02*
X214864895Y-82761905D01*
X214864895Y-82761905D02*
X214826800Y-82685714D01*
X214826800Y-82685714D02*
X214788704Y-82647619D01*
X214788704Y-82647619D02*
X214712514Y-82609524D01*
X214712514Y-82609524D02*
X214636323Y-82609524D01*
X214636323Y-82609524D02*
X214560133Y-82647619D01*
X214560133Y-82647619D02*
X214522038Y-82685714D01*
X214522038Y-82685714D02*
X214483942Y-82761905D01*
X214483942Y-82761905D02*
X214445847Y-82914286D01*
X214445847Y-82914286D02*
X214407752Y-82990476D01*
X214407752Y-82990476D02*
X214369657Y-83028571D01*
X214369657Y-83028571D02*
X214293466Y-83066667D01*
X214293466Y-83066667D02*
X214217276Y-83066667D01*
X214217276Y-83066667D02*
X214141085Y-83028571D01*
X214141085Y-83028571D02*
X214102990Y-82990476D01*
X214102990Y-82990476D02*
X214064895Y-82914286D01*
X214064895Y-82914286D02*
X214064895Y-82723809D01*
X214064895Y-82723809D02*
X214102990Y-82609524D01*
X214064895Y-82342857D02*
X214864895Y-82152381D01*
X214864895Y-82152381D02*
X214293466Y-82000000D01*
X214293466Y-82000000D02*
X214864895Y-81847619D01*
X214864895Y-81847619D02*
X214064895Y-81657143D01*
X214141085Y-81390476D02*
X214102990Y-81352380D01*
X214102990Y-81352380D02*
X214064895Y-81276190D01*
X214064895Y-81276190D02*
X214064895Y-81085714D01*
X214064895Y-81085714D02*
X214102990Y-81009523D01*
X214102990Y-81009523D02*
X214141085Y-80971428D01*
X214141085Y-80971428D02*
X214217276Y-80933333D01*
X214217276Y-80933333D02*
X214293466Y-80933333D01*
X214293466Y-80933333D02*
X214407752Y-80971428D01*
X214407752Y-80971428D02*
X214864895Y-81428571D01*
X214864895Y-81428571D02*
X214864895Y-80933333D01*
X218964895Y-95915475D02*
X218164895Y-95915475D01*
X218164895Y-95915475D02*
X218164895Y-95724999D01*
X218164895Y-95724999D02*
X218202990Y-95610713D01*
X218202990Y-95610713D02*
X218279180Y-95534523D01*
X218279180Y-95534523D02*
X218355371Y-95496428D01*
X218355371Y-95496428D02*
X218507752Y-95458332D01*
X218507752Y-95458332D02*
X218622038Y-95458332D01*
X218622038Y-95458332D02*
X218774419Y-95496428D01*
X218774419Y-95496428D02*
X218850609Y-95534523D01*
X218850609Y-95534523D02*
X218926800Y-95610713D01*
X218926800Y-95610713D02*
X218964895Y-95724999D01*
X218964895Y-95724999D02*
X218964895Y-95915475D01*
X218164895Y-95191666D02*
X218164895Y-94696428D01*
X218164895Y-94696428D02*
X218469657Y-94963094D01*
X218469657Y-94963094D02*
X218469657Y-94848809D01*
X218469657Y-94848809D02*
X218507752Y-94772618D01*
X218507752Y-94772618D02*
X218545847Y-94734523D01*
X218545847Y-94734523D02*
X218622038Y-94696428D01*
X218622038Y-94696428D02*
X218812514Y-94696428D01*
X218812514Y-94696428D02*
X218888704Y-94734523D01*
X218888704Y-94734523D02*
X218926800Y-94772618D01*
X218926800Y-94772618D02*
X218964895Y-94848809D01*
X218964895Y-94848809D02*
X218964895Y-95077380D01*
X218964895Y-95077380D02*
X218926800Y-95153571D01*
X218926800Y-95153571D02*
X218888704Y-95191666D01*
X207266667Y-105098704D02*
X207228571Y-105136800D01*
X207228571Y-105136800D02*
X207114286Y-105174895D01*
X207114286Y-105174895D02*
X207038095Y-105174895D01*
X207038095Y-105174895D02*
X206923809Y-105136800D01*
X206923809Y-105136800D02*
X206847619Y-105060609D01*
X206847619Y-105060609D02*
X206809524Y-104984419D01*
X206809524Y-104984419D02*
X206771428Y-104832038D01*
X206771428Y-104832038D02*
X206771428Y-104717752D01*
X206771428Y-104717752D02*
X206809524Y-104565371D01*
X206809524Y-104565371D02*
X206847619Y-104489180D01*
X206847619Y-104489180D02*
X206923809Y-104412990D01*
X206923809Y-104412990D02*
X207038095Y-104374895D01*
X207038095Y-104374895D02*
X207114286Y-104374895D01*
X207114286Y-104374895D02*
X207228571Y-104412990D01*
X207228571Y-104412990D02*
X207266667Y-104451085D01*
X207533333Y-104374895D02*
X208028571Y-104374895D01*
X208028571Y-104374895D02*
X207761905Y-104679657D01*
X207761905Y-104679657D02*
X207876190Y-104679657D01*
X207876190Y-104679657D02*
X207952381Y-104717752D01*
X207952381Y-104717752D02*
X207990476Y-104755847D01*
X207990476Y-104755847D02*
X208028571Y-104832038D01*
X208028571Y-104832038D02*
X208028571Y-105022514D01*
X208028571Y-105022514D02*
X207990476Y-105098704D01*
X207990476Y-105098704D02*
X207952381Y-105136800D01*
X207952381Y-105136800D02*
X207876190Y-105174895D01*
X207876190Y-105174895D02*
X207647619Y-105174895D01*
X207647619Y-105174895D02*
X207571428Y-105136800D01*
X207571428Y-105136800D02*
X207533333Y-105098704D01*
X219909524Y-82364895D02*
X219909524Y-81564895D01*
X219909524Y-81564895D02*
X220100000Y-81564895D01*
X220100000Y-81564895D02*
X220214286Y-81602990D01*
X220214286Y-81602990D02*
X220290476Y-81679180D01*
X220290476Y-81679180D02*
X220328571Y-81755371D01*
X220328571Y-81755371D02*
X220366667Y-81907752D01*
X220366667Y-81907752D02*
X220366667Y-82022038D01*
X220366667Y-82022038D02*
X220328571Y-82174419D01*
X220328571Y-82174419D02*
X220290476Y-82250609D01*
X220290476Y-82250609D02*
X220214286Y-82326800D01*
X220214286Y-82326800D02*
X220100000Y-82364895D01*
X220100000Y-82364895D02*
X219909524Y-82364895D01*
X221052381Y-81831561D02*
X221052381Y-82364895D01*
X220861905Y-81526800D02*
X220671428Y-82098228D01*
X220671428Y-82098228D02*
X221166667Y-82098228D01*
X223263333Y-110229895D02*
X223263333Y-110801323D01*
X223263333Y-110801323D02*
X223225238Y-110915609D01*
X223225238Y-110915609D02*
X223149047Y-110991800D01*
X223149047Y-110991800D02*
X223034762Y-111029895D01*
X223034762Y-111029895D02*
X222958571Y-111029895D01*
X223606190Y-110306085D02*
X223644286Y-110267990D01*
X223644286Y-110267990D02*
X223720476Y-110229895D01*
X223720476Y-110229895D02*
X223910952Y-110229895D01*
X223910952Y-110229895D02*
X223987143Y-110267990D01*
X223987143Y-110267990D02*
X224025238Y-110306085D01*
X224025238Y-110306085D02*
X224063333Y-110382276D01*
X224063333Y-110382276D02*
X224063333Y-110458466D01*
X224063333Y-110458466D02*
X224025238Y-110572752D01*
X224025238Y-110572752D02*
X223568095Y-111029895D01*
X223568095Y-111029895D02*
X224063333Y-111029895D01*
X210326800Y-83066667D02*
X210364895Y-82952381D01*
X210364895Y-82952381D02*
X210364895Y-82761905D01*
X210364895Y-82761905D02*
X210326800Y-82685714D01*
X210326800Y-82685714D02*
X210288704Y-82647619D01*
X210288704Y-82647619D02*
X210212514Y-82609524D01*
X210212514Y-82609524D02*
X210136323Y-82609524D01*
X210136323Y-82609524D02*
X210060133Y-82647619D01*
X210060133Y-82647619D02*
X210022038Y-82685714D01*
X210022038Y-82685714D02*
X209983942Y-82761905D01*
X209983942Y-82761905D02*
X209945847Y-82914286D01*
X209945847Y-82914286D02*
X209907752Y-82990476D01*
X209907752Y-82990476D02*
X209869657Y-83028571D01*
X209869657Y-83028571D02*
X209793466Y-83066667D01*
X209793466Y-83066667D02*
X209717276Y-83066667D01*
X209717276Y-83066667D02*
X209641085Y-83028571D01*
X209641085Y-83028571D02*
X209602990Y-82990476D01*
X209602990Y-82990476D02*
X209564895Y-82914286D01*
X209564895Y-82914286D02*
X209564895Y-82723809D01*
X209564895Y-82723809D02*
X209602990Y-82609524D01*
X209564895Y-82342857D02*
X210364895Y-82152381D01*
X210364895Y-82152381D02*
X209793466Y-82000000D01*
X209793466Y-82000000D02*
X210364895Y-81847619D01*
X210364895Y-81847619D02*
X209564895Y-81657143D01*
X210364895Y-80933333D02*
X210364895Y-81390476D01*
X210364895Y-81161904D02*
X209564895Y-81161904D01*
X209564895Y-81161904D02*
X209679180Y-81238095D01*
X209679180Y-81238095D02*
X209755371Y-81314285D01*
X209755371Y-81314285D02*
X209793466Y-81390476D01*
X220819048Y-106764895D02*
X220819048Y-105964895D01*
X221657143Y-106688704D02*
X221619047Y-106726800D01*
X221619047Y-106726800D02*
X221504762Y-106764895D01*
X221504762Y-106764895D02*
X221428571Y-106764895D01*
X221428571Y-106764895D02*
X221314285Y-106726800D01*
X221314285Y-106726800D02*
X221238095Y-106650609D01*
X221238095Y-106650609D02*
X221200000Y-106574419D01*
X221200000Y-106574419D02*
X221161904Y-106422038D01*
X221161904Y-106422038D02*
X221161904Y-106307752D01*
X221161904Y-106307752D02*
X221200000Y-106155371D01*
X221200000Y-106155371D02*
X221238095Y-106079180D01*
X221238095Y-106079180D02*
X221314285Y-106002990D01*
X221314285Y-106002990D02*
X221428571Y-105964895D01*
X221428571Y-105964895D02*
X221504762Y-105964895D01*
X221504762Y-105964895D02*
X221619047Y-106002990D01*
X221619047Y-106002990D02*
X221657143Y-106041085D01*
X222419047Y-106764895D02*
X221961904Y-106764895D01*
X222190476Y-106764895D02*
X222190476Y-105964895D01*
X222190476Y-105964895D02*
X222114285Y-106079180D01*
X222114285Y-106079180D02*
X222038095Y-106155371D01*
X222038095Y-106155371D02*
X221961904Y-106193466D01*
D13*
%TO.C,J4*%
X227220000Y-57040000D02*
X228600000Y-57040000D01*
X227220000Y-58420000D02*
X227220000Y-57040000D01*
X227220000Y-59690000D02*
X227220000Y-102980000D01*
X227220000Y-59690000D02*
X229980000Y-59690000D01*
X227220000Y-102980000D02*
X229980000Y-102980000D01*
X229980000Y-59690000D02*
X229980000Y-102980000D01*
%TO.C,U2*%
X221200000Y-89440000D02*
X219250000Y-89440000D01*
X221200000Y-89440000D02*
X223150000Y-89440000D01*
X221200000Y-94560000D02*
X219250000Y-94560000D01*
X221200000Y-94560000D02*
X223150000Y-94560000D01*
X218487500Y-89440000D02*
X218247500Y-89110000D01*
X218727500Y-89110000D01*
X218487500Y-89440000D01*
G36*
X218487500Y-89440000D02*
G01*
X218247500Y-89110000D01*
X218727500Y-89110000D01*
X218487500Y-89440000D01*
G37*
%TO.C,C9*%
X210140580Y-85290000D02*
X209859420Y-85290000D01*
X210140580Y-86310000D02*
X209859420Y-86310000D01*
%TO.C,J1*%
X203600000Y-110510000D02*
X203600000Y-108810000D01*
X212940000Y-110510000D02*
X212940000Y-108810000D01*
%TO.C,J3*%
X201820000Y-57040000D02*
X203200000Y-57040000D01*
X201820000Y-58420000D02*
X201820000Y-57040000D01*
X201820000Y-59690000D02*
X201820000Y-102980000D01*
X201820000Y-59690000D02*
X204580000Y-59690000D01*
X201820000Y-102980000D02*
X204580000Y-102980000D01*
X204580000Y-59690000D02*
X204580000Y-102980000D01*
%TO.C,R11*%
X212637258Y-88977500D02*
X212162742Y-88977500D01*
X212637258Y-90022500D02*
X212162742Y-90022500D01*
%TO.C,U3*%
X206425000Y-94640000D02*
X206680000Y-94640000D01*
X206425000Y-98500000D02*
X206425000Y-94640000D01*
X206425000Y-98500000D02*
X206425000Y-102360000D01*
X206425000Y-102360000D02*
X206680000Y-102360000D01*
X216945000Y-94640000D02*
X216690000Y-94640000D01*
X216945000Y-98500000D02*
X216945000Y-94640000D01*
X216945000Y-98500000D02*
X216945000Y-102360000D01*
X216945000Y-102360000D02*
X216690000Y-102360000D01*
X206680000Y-103212500D02*
X206210000Y-103552500D01*
X206210000Y-102872500D01*
X206680000Y-103212500D01*
G36*
X206680000Y-103212500D02*
G01*
X206210000Y-103552500D01*
X206210000Y-102872500D01*
X206680000Y-103212500D01*
G37*
%TO.C,C4*%
X217890000Y-104165580D02*
X217890000Y-103884420D01*
X218910000Y-104165580D02*
X218910000Y-103884420D01*
%TO.C,C10*%
X214670580Y-85240000D02*
X214389420Y-85240000D01*
X214670580Y-86260000D02*
X214389420Y-86260000D01*
%TO.C,U4*%
X206630000Y-50430000D02*
X206630000Y-56630000D01*
X206630000Y-50430000D02*
X225030000Y-50430000D01*
X206630000Y-75280000D02*
X206630000Y-76280000D01*
X206630000Y-76280000D02*
X208130000Y-76280000D01*
X225030000Y-50430000D02*
X225030000Y-56630000D01*
X225030000Y-76280000D02*
X223530000Y-76280000D01*
X225030000Y-76280000D02*
X225030000Y-75280000D01*
X206630000Y-57305000D02*
X206130000Y-57305000D01*
X206630000Y-56805000D01*
X206630000Y-57305000D01*
G36*
X206630000Y-57305000D02*
G01*
X206130000Y-57305000D01*
X206630000Y-56805000D01*
X206630000Y-57305000D01*
G37*
%TO.C,JP1*%
X212000000Y-99200000D02*
X212000000Y-97800000D01*
X212700000Y-97100000D02*
X213300000Y-97100000D01*
X213300000Y-99900000D02*
X212700000Y-99900000D01*
X214000000Y-97800000D02*
X214000000Y-99200000D01*
X212000000Y-97800000D02*
G75*
G02*
X212700000Y-97100000I700000J0D01*
G01*
X212700000Y-99900000D02*
G75*
G02*
X212000000Y-99200000I-1J699999D01*
G01*
X213300000Y-97100000D02*
G75*
G02*
X214000000Y-97800000I0J-700000D01*
G01*
X214000000Y-99200000D02*
G75*
G02*
X213300000Y-99900000I-699999J-1D01*
G01*
%TO.C,C6*%
X208984420Y-89990000D02*
X209265580Y-89990000D01*
X208984420Y-91010000D02*
X209265580Y-91010000D01*
%TO.C,D1*%
X218525000Y-101935000D02*
X220985000Y-101935000D01*
X220985000Y-100465000D02*
X218525000Y-100465000D01*
X220985000Y-101935000D02*
X220985000Y-100465000D01*
D14*
%TO.C,SW3*%
X221170000Y-95000000D02*
X223630000Y-95000000D01*
X221170000Y-98200000D02*
X223630000Y-98200000D01*
D11*
X220000000Y-96400000D02*
G75*
G02*
X219800000Y-96400000I-100000J0D01*
G01*
X219800000Y-96400000D02*
G75*
G02*
X220000000Y-96400000I100000J0D01*
G01*
D13*
%TO.C,JP2*%
X214500000Y-99200000D02*
X214500000Y-97800000D01*
X215200000Y-97100000D02*
X215800000Y-97100000D01*
X215800000Y-99900000D02*
X215200000Y-99900000D01*
X216500000Y-97800000D02*
X216500000Y-99200000D01*
X214500000Y-97800000D02*
G75*
G02*
X215200000Y-97100000I700000J0D01*
G01*
X215200000Y-99900000D02*
G75*
G02*
X214500000Y-99200000I-1J699999D01*
G01*
X215800000Y-97100000D02*
G75*
G02*
X216500000Y-97800000I0J-700000D01*
G01*
X216500000Y-99200000D02*
G75*
G02*
X215800000Y-99900000I-699999J-1D01*
G01*
%TO.C,R12*%
X212637258Y-91077500D02*
X212162742Y-91077500D01*
X212637258Y-92122500D02*
X212162742Y-92122500D01*
%TO.C,C8*%
X224340000Y-103859420D02*
X224340000Y-104140580D01*
X225360000Y-103859420D02*
X225360000Y-104140580D01*
D14*
%TO.C,SW2*%
X212900000Y-83230000D02*
X212900000Y-80770000D01*
X216100000Y-83230000D02*
X216100000Y-80770000D01*
D11*
X212400000Y-84100000D02*
G75*
G02*
X212200000Y-84100000I-100000J0D01*
G01*
X212200000Y-84100000D02*
G75*
G02*
X212400000Y-84100000I100000J0D01*
G01*
D13*
%TO.C,D2*%
X222252500Y-100465000D02*
X222252500Y-101935000D01*
X222252500Y-101935000D02*
X224712500Y-101935000D01*
X224712500Y-100465000D02*
X222252500Y-100465000D01*
%TO.C,D3*%
X217865000Y-96140000D02*
X217865000Y-98600000D01*
X219335000Y-96140000D02*
X217865000Y-96140000D01*
X219335000Y-98600000D02*
X219335000Y-96140000D01*
%TO.C,C3*%
X204954420Y-104300000D02*
X205235580Y-104300000D01*
X204954420Y-105320000D02*
X205235580Y-105320000D01*
%TO.C,D4*%
X217000000Y-79700000D02*
X217000000Y-84750000D01*
X217450000Y-79250000D02*
X217000000Y-79700000D01*
X217800000Y-81100000D02*
X217800000Y-82900000D01*
X223200000Y-81100000D02*
X223200000Y-82900000D01*
X224000000Y-79250000D02*
X217450000Y-79250000D01*
X224000000Y-84750000D02*
X217000000Y-84750000D01*
X224000000Y-84750000D02*
X224000000Y-79250000D01*
%TO.C,J2*%
X218860000Y-110640000D02*
X218860000Y-108940000D01*
X228200000Y-110640000D02*
X228200000Y-108940000D01*
D14*
%TO.C,SW1*%
X208400000Y-83230000D02*
X208400000Y-80770000D01*
X211600000Y-83230000D02*
X211600000Y-80770000D01*
D11*
X207900000Y-84100000D02*
G75*
G02*
X207700000Y-84100000I-100000J0D01*
G01*
X207700000Y-84100000D02*
G75*
G02*
X207900000Y-84100000I100000J0D01*
G01*
%TO.C,IC1*%
X219725000Y-102486000D02*
X220975000Y-102486000D01*
X221325000Y-102552000D02*
X221875000Y-102552000D01*
X221325000Y-105448000D02*
X221325000Y-102552000D01*
X221875000Y-102552000D02*
X221875000Y-105448000D01*
X221875000Y-105448000D02*
X221325000Y-105448000D01*
%TD*%
M02*
