%TF.GenerationSoftware,KiCad,Pcbnew,9.0.5*%
%TF.CreationDate,2025-10-31T18:05:51+09:00*%
%TF.ProjectId,ESP32S3,45535033-3253-4332-9e6b-696361645f70,rev?*%
%TF.SameCoordinates,Original*%
%TF.FileFunction,Copper,L4,Bot*%
%TF.FilePolarity,Positive*%
%FSLAX46Y46*%
G04 Gerber Fmt 4.6, Leading zero omitted, Abs format (unit mm)*
G04 Created by KiCad (PCBNEW 9.0.5) date 2025-10-31 18:05:51*
%MOMM*%
%LPD*%
G01*
G04 APERTURE LIST*
G04 Aperture macros list*
%AMRoundRect*
0 Rectangle with rounded corners*
0 $1 Rounding radius*
0 $2 $3 $4 $5 $6 $7 $8 $9 X,Y pos of 4 corners*
0 Add a 4 corners polygon primitive as box body*
4,1,4,$2,$3,$4,$5,$6,$7,$8,$9,$2,$3,0*
0 Add four circle primitives for the rounded corners*
1,1,$1+$1,$2,$3*
1,1,$1+$1,$4,$5*
1,1,$1+$1,$6,$7*
1,1,$1+$1,$8,$9*
0 Add four rect primitives between the rounded corners*
20,1,$1+$1,$2,$3,$4,$5,0*
20,1,$1+$1,$4,$5,$6,$7,0*
20,1,$1+$1,$6,$7,$8,$9,0*
20,1,$1+$1,$8,$9,$2,$3,0*%
G04 Aperture macros list end*
%TA.AperFunction,ComponentPad*%
%ADD10R,1.700000X1.700000*%
%TD*%
%TA.AperFunction,ComponentPad*%
%ADD11C,1.700000*%
%TD*%
%TA.AperFunction,HeatsinkPad*%
%ADD12O,1.000000X2.100000*%
%TD*%
%TA.AperFunction,HeatsinkPad*%
%ADD13O,1.000000X1.800000*%
%TD*%
%TA.AperFunction,HeatsinkPad*%
%ADD14C,0.600000*%
%TD*%
%TA.AperFunction,HeatsinkPad*%
%ADD15O,1.100000X1.700000*%
%TD*%
%TA.AperFunction,SMDPad,CuDef*%
%ADD16RoundRect,0.225000X0.225000X0.250000X-0.225000X0.250000X-0.225000X-0.250000X0.225000X-0.250000X0*%
%TD*%
%TA.AperFunction,SMDPad,CuDef*%
%ADD17RoundRect,0.237500X-0.237500X0.250000X-0.237500X-0.250000X0.237500X-0.250000X0.237500X0.250000X0*%
%TD*%
%TA.AperFunction,SMDPad,CuDef*%
%ADD18RoundRect,0.237500X-0.250000X-0.237500X0.250000X-0.237500X0.250000X0.237500X-0.250000X0.237500X0*%
%TD*%
%TA.AperFunction,SMDPad,CuDef*%
%ADD19RoundRect,0.200000X-0.200000X-0.275000X0.200000X-0.275000X0.200000X0.275000X-0.200000X0.275000X0*%
%TD*%
%TA.AperFunction,SMDPad,CuDef*%
%ADD20RoundRect,0.237500X0.300000X0.237500X-0.300000X0.237500X-0.300000X-0.237500X0.300000X-0.237500X0*%
%TD*%
%TA.AperFunction,SMDPad,CuDef*%
%ADD21RoundRect,0.150000X0.587500X0.150000X-0.587500X0.150000X-0.587500X-0.150000X0.587500X-0.150000X0*%
%TD*%
%TA.AperFunction,SMDPad,CuDef*%
%ADD22R,0.400000X0.900000*%
%TD*%
%TA.AperFunction,SMDPad,CuDef*%
%ADD23RoundRect,0.225000X0.250000X-0.225000X0.250000X0.225000X-0.250000X0.225000X-0.250000X-0.225000X0*%
%TD*%
%TA.AperFunction,SMDPad,CuDef*%
%ADD24RoundRect,0.237500X0.250000X0.237500X-0.250000X0.237500X-0.250000X-0.237500X0.250000X-0.237500X0*%
%TD*%
%TA.AperFunction,SMDPad,CuDef*%
%ADD25RoundRect,0.200000X-0.275000X0.200000X-0.275000X-0.200000X0.275000X-0.200000X0.275000X0.200000X0*%
%TD*%
%TA.AperFunction,SMDPad,CuDef*%
%ADD26RoundRect,0.225000X-0.250000X0.225000X-0.250000X-0.225000X0.250000X-0.225000X0.250000X0.225000X0*%
%TD*%
%TA.AperFunction,SMDPad,CuDef*%
%ADD27RoundRect,0.075000X0.650000X0.075000X-0.650000X0.075000X-0.650000X-0.075000X0.650000X-0.075000X0*%
%TD*%
%TA.AperFunction,SMDPad,CuDef*%
%ADD28RoundRect,0.200000X0.200000X0.275000X-0.200000X0.275000X-0.200000X-0.275000X0.200000X-0.275000X0*%
%TD*%
%TA.AperFunction,ViaPad*%
%ADD29C,0.500000*%
%TD*%
%TA.AperFunction,Conductor*%
%ADD30C,0.200000*%
%TD*%
%TA.AperFunction,Conductor*%
%ADD31C,0.600000*%
%TD*%
G04 APERTURE END LIST*
D10*
%TO.P,J4,1,Pin_1*%
%TO.N,GND*%
X228600000Y-58420000D03*
D11*
%TO.P,J4,2,Pin_2*%
%TO.N,+5V*%
X228600000Y-60960000D03*
%TO.P,J4,3,Pin_3*%
%TO.N,/IO1*%
X228600000Y-63500000D03*
%TO.P,J4,4,Pin_4*%
%TO.N,/IO2*%
X228600000Y-66040000D03*
%TO.P,J4,5,Pin_5*%
%TO.N,/IO42*%
X228600000Y-68580000D03*
%TO.P,J4,6,Pin_6*%
%TO.N,/IO41*%
X228600000Y-71120000D03*
%TO.P,J4,7,Pin_7*%
%TO.N,/IO40*%
X228600000Y-73660000D03*
%TO.P,J4,8,Pin_8*%
%TO.N,/IO39*%
X228600000Y-76200000D03*
%TO.P,J4,9,Pin_9*%
%TO.N,/IO38*%
X228600000Y-78740000D03*
%TO.P,J4,10,Pin_10*%
%TO.N,/IO37*%
X228600000Y-81280000D03*
%TO.P,J4,11,Pin_11*%
%TO.N,/IO36*%
X228600000Y-83820000D03*
%TO.P,J4,12,Pin_12*%
%TO.N,/IO35*%
X228600000Y-86360000D03*
%TO.P,J4,13,Pin_13*%
%TO.N,IO0*%
X228600000Y-88900000D03*
%TO.P,J4,14,Pin_14*%
%TO.N,/IO45*%
X228600000Y-91440000D03*
%TO.P,J4,15,Pin_15*%
%TO.N,/IO47*%
X228600000Y-93980000D03*
%TO.P,J4,16,Pin_16*%
%TO.N,/IO21*%
X228600000Y-96520000D03*
%TO.P,J4,17,Pin_17*%
%TO.N,/IO14*%
X228600000Y-99060000D03*
%TO.P,J4,18,Pin_18*%
%TO.N,/IO13*%
X228600000Y-101600000D03*
%TD*%
D12*
%TO.P,J1,S1,SHIELD*%
%TO.N,GNDPWR*%
X203950000Y-107505000D03*
D13*
X203950000Y-111685000D03*
D12*
X212590000Y-107505000D03*
D13*
X212590000Y-111685000D03*
%TD*%
D10*
%TO.P,J3,1,Pin_1*%
%TO.N,GND*%
X203200000Y-58420000D03*
D11*
%TO.P,J3,2,Pin_2*%
%TO.N,+3V3*%
X203200000Y-60960000D03*
%TO.P,J3,3,Pin_3*%
%TO.N,EN*%
X203200000Y-63500000D03*
%TO.P,J3,4,Pin_4*%
%TO.N,/IO4*%
X203200000Y-66040000D03*
%TO.P,J3,5,Pin_5*%
%TO.N,/IO5*%
X203200000Y-68580000D03*
%TO.P,J3,6,Pin_6*%
%TO.N,/IO6*%
X203200000Y-71120000D03*
%TO.P,J3,7,Pin_7*%
%TO.N,/IO7*%
X203200000Y-73660000D03*
%TO.P,J3,8,Pin_8*%
%TO.N,/IO15*%
X203200000Y-76200000D03*
%TO.P,J3,9,Pin_9*%
%TO.N,/IO16*%
X203200000Y-78740000D03*
%TO.P,J3,10,Pin_10*%
%TO.N,/IO17*%
X203200000Y-81280000D03*
%TO.P,J3,11,Pin_11*%
%TO.N,/IO18*%
X203200000Y-83820000D03*
%TO.P,J3,12,Pin_12*%
%TO.N,/IO8*%
X203200000Y-86360000D03*
%TO.P,J3,13,Pin_13*%
%TO.N,/IO3*%
X203200000Y-88900000D03*
%TO.P,J3,14,Pin_14*%
%TO.N,/IO46*%
X203200000Y-91440000D03*
%TO.P,J3,15,Pin_15*%
%TO.N,/IO9*%
X203200000Y-93980000D03*
%TO.P,J3,16,Pin_16*%
%TO.N,/IO10*%
X203200000Y-96520000D03*
%TO.P,J3,17,Pin_17*%
%TO.N,/IO11*%
X203200000Y-99060000D03*
%TO.P,J3,18,Pin_18*%
%TO.N,/IO12*%
X203200000Y-101600000D03*
%TD*%
D14*
%TO.P,U4,41,GND*%
%TO.N,GND*%
X212930000Y-65090000D03*
X212930000Y-66490000D03*
X213630000Y-64390000D03*
X213630000Y-65790000D03*
X213630000Y-67190000D03*
X214330000Y-65090000D03*
X214330000Y-66490000D03*
X215030000Y-64390000D03*
X215030000Y-65790000D03*
X215030000Y-67190000D03*
X215730000Y-65090000D03*
X215730000Y-66490000D03*
%TD*%
D15*
%TO.P,J2,S1,SHIELD*%
%TO.N,GND*%
X219210000Y-107890000D03*
X219210000Y-111690000D03*
X227850000Y-107890000D03*
X227850000Y-111690000D03*
%TD*%
D16*
%TO.P,C7,1*%
%TO.N,GND*%
X211175000Y-97500000D03*
%TO.P,C7,2*%
%TO.N,Net-(U3-VDD2)*%
X209625000Y-97500000D03*
%TD*%
D17*
%TO.P,R15,1*%
%TO.N,~{sw}*%
X218600000Y-96887500D03*
%TO.P,R15,2*%
%TO.N,Net-(D3-A)*%
X218600000Y-98712500D03*
%TD*%
D18*
%TO.P,R14,1*%
%TO.N,+3V3*%
X223000000Y-101200000D03*
%TO.P,R14,2*%
%TO.N,Net-(D2-A)*%
X224825000Y-101200000D03*
%TD*%
D19*
%TO.P,R7,1*%
%TO.N,Net-(U3-VDD1)*%
X209595000Y-101760000D03*
%TO.P,R7,2*%
%TO.N,Net-(U3-PDEN)*%
X211245000Y-101760000D03*
%TD*%
D20*
%TO.P,C5,1*%
%TO.N,Net-(U2-V3)*%
X223000000Y-90000000D03*
%TO.P,C5,2*%
%TO.N,GND*%
X221275000Y-90000000D03*
%TD*%
D21*
%TO.P,Q1,1,G*%
%TO.N,DTR#*%
X210775000Y-83150000D03*
%TO.P,Q1,2,S*%
%TO.N,RTS#*%
X210775000Y-85050000D03*
%TO.P,Q1,3,D*%
%TO.N,EN*%
X208900000Y-84100000D03*
%TD*%
D22*
%TO.P,IC2,1,CK*%
%TO.N,ck*%
X223375000Y-98700000D03*
%TO.P,IC2,2,D*%
%TO.N,~{sw}*%
X222725000Y-98700000D03*
%TO.P,IC2,3,~{Q}*%
X222075000Y-98700000D03*
%TO.P,IC2,4,GND*%
%TO.N,GND*%
X221425000Y-98700000D03*
%TO.P,IC2,5,Q*%
%TO.N,sw*%
X221425000Y-95300000D03*
%TO.P,IC2,6,~{CLR}*%
%TO.N,+5V*%
X222075000Y-95300000D03*
%TO.P,IC2,7,~{PR}*%
X222725000Y-95300000D03*
%TO.P,IC2,8,VCC*%
X223375000Y-95300000D03*
%TD*%
D23*
%TO.P,C1,1*%
%TO.N,GNDPWR*%
X207970000Y-103300000D03*
%TO.P,C1,2*%
%TO.N,Net-(U3-VDD1)*%
X207970000Y-101750000D03*
%TD*%
D24*
%TO.P,R13,1*%
%TO.N,+5V*%
X220250000Y-101200000D03*
%TO.P,R13,2*%
%TO.N,Net-(D1-A)*%
X218425000Y-101200000D03*
%TD*%
D25*
%TO.P,R1,1*%
%TO.N,Net-(J1-CC1)*%
X207020000Y-109175000D03*
%TO.P,R1,2*%
%TO.N,GNDPWR*%
X207020000Y-110825000D03*
%TD*%
%TO.P,R2,1*%
%TO.N,Net-(J1-CC2)*%
X210020000Y-109175000D03*
%TO.P,R2,2*%
%TO.N,GNDPWR*%
X210020000Y-110825000D03*
%TD*%
D19*
%TO.P,R3,1*%
%TO.N,Net-(J1-D--PadA7)*%
X209595000Y-103375000D03*
%TO.P,R3,2*%
%TO.N,Net-(JP1-A)*%
X211245000Y-103375000D03*
%TD*%
D26*
%TO.P,C12,1*%
%TO.N,GND*%
X205400000Y-58250000D03*
%TO.P,C12,2*%
%TO.N,+3V3*%
X205400000Y-59800000D03*
%TD*%
D27*
%TO.P,U1,1*%
%TO.N,sw*%
X215200000Y-89500000D03*
%TO.P,U1,2*%
%TO.N,UD+*%
X215200000Y-90000000D03*
%TO.P,U1,3,GND*%
%TO.N,GND*%
X215200000Y-90500000D03*
%TO.P,U1,4*%
%TO.N,UD-*%
X215200000Y-91000000D03*
%TO.P,U1,5*%
%TO.N,sw*%
X215200000Y-91500000D03*
%TO.P,U1,6*%
%TO.N,DD-*%
X210800000Y-91500000D03*
%TO.P,U1,7*%
%TO.N,D-*%
X210800000Y-91000000D03*
%TO.P,U1,8,VCC*%
%TO.N,+5V*%
X210800000Y-90500000D03*
%TO.P,U1,9*%
%TO.N,D+*%
X210800000Y-90000000D03*
%TO.P,U1,10*%
%TO.N,DD+*%
X210800000Y-89500000D03*
%TD*%
D17*
%TO.P,R5,1*%
%TO.N,Net-(J2-CC1)*%
X222600000Y-109740000D03*
%TO.P,R5,2*%
%TO.N,GND*%
X222600000Y-111565000D03*
%TD*%
D20*
%TO.P,C2,1*%
%TO.N,+5V*%
X223000000Y-93000000D03*
%TO.P,C2,2*%
%TO.N,GND*%
X221275000Y-93000000D03*
%TD*%
D23*
%TO.P,C11,1*%
%TO.N,GND*%
X225800000Y-98350000D03*
%TO.P,C11,2*%
%TO.N,ck*%
X225800000Y-96800000D03*
%TD*%
D24*
%TO.P,R17,1*%
%TO.N,sw*%
X218600000Y-95200000D03*
%TO.P,R17,2*%
%TO.N,GND*%
X216775000Y-95200000D03*
%TD*%
D19*
%TO.P,R4,1*%
%TO.N,Net-(J1-D+-PadA6)*%
X209595000Y-105000000D03*
%TO.P,R4,2*%
%TO.N,Net-(JP2-A)*%
X211245000Y-105000000D03*
%TD*%
D28*
%TO.P,R9,1*%
%TO.N,Net-(U3-PIN)*%
X211225000Y-95700000D03*
%TO.P,R9,2*%
%TO.N,Net-(U3-VDD2)*%
X209575000Y-95700000D03*
%TD*%
%TO.P,R10,1*%
%TO.N,Net-(U3-SPD)*%
X211225000Y-93880000D03*
%TO.P,R10,2*%
%TO.N,Net-(U3-VDD2)*%
X209575000Y-93880000D03*
%TD*%
D19*
%TO.P,R8,1*%
%TO.N,Net-(U3-VDD1)*%
X209595000Y-100120000D03*
%TO.P,R8,2*%
%TO.N,Net-(U3-SPU)*%
X211245000Y-100120000D03*
%TD*%
D17*
%TO.P,R6,1*%
%TO.N,Net-(J2-CC2)*%
X224420000Y-109740000D03*
%TO.P,R6,2*%
%TO.N,GND*%
X224420000Y-111565000D03*
%TD*%
D28*
%TO.P,R16,1*%
%TO.N,+3V3*%
X208730000Y-60610000D03*
%TO.P,R16,2*%
%TO.N,EN*%
X207080000Y-60610000D03*
%TD*%
D21*
%TO.P,Q2,1,G*%
%TO.N,RTS#*%
X215275000Y-83150000D03*
%TO.P,Q2,2,S*%
%TO.N,DTR#*%
X215275000Y-85050000D03*
%TO.P,Q2,3,D*%
%TO.N,IO0*%
X213400000Y-84100000D03*
%TD*%
D29*
%TO.N,GNDPWR*%
X208510000Y-103150000D03*
X211470000Y-106930000D03*
X205070000Y-106930000D03*
X216130000Y-103150000D03*
X206000000Y-112000000D03*
X211000000Y-112000000D03*
%TO.N,+5V*%
X223000000Y-93000000D03*
X222010000Y-107810000D03*
X222950000Y-83650000D03*
X207240000Y-93850000D03*
X220350000Y-104940000D03*
X220350000Y-103060000D03*
X209900000Y-90500000D03*
X225050000Y-107810000D03*
X223375000Y-95300000D03*
%TO.N,GND*%
X211075000Y-84075000D03*
X216000000Y-70000000D03*
X207080000Y-58070000D03*
X215000000Y-82000000D03*
X222000000Y-61000000D03*
X213000000Y-70000000D03*
X207000000Y-100000000D03*
X217500000Y-108500000D03*
X210000000Y-64000000D03*
X211000000Y-82000000D03*
X219000000Y-64000000D03*
X210000000Y-73000000D03*
X219000000Y-67000000D03*
X222000000Y-70000000D03*
X207000000Y-98000000D03*
X216000000Y-58000000D03*
X213000000Y-73000000D03*
X216000000Y-73000000D03*
X215000000Y-108500000D03*
X218562500Y-92000000D03*
X205400000Y-58250000D03*
X213000000Y-61000000D03*
X219000000Y-73000000D03*
X222000000Y-73000000D03*
X210000000Y-70000000D03*
X214200000Y-96600000D03*
X210000000Y-61000000D03*
X210000000Y-58000000D03*
X221000000Y-112000000D03*
X215000000Y-111000000D03*
X223000000Y-82000000D03*
X226000000Y-112000000D03*
X207000000Y-96000000D03*
X217500000Y-111000000D03*
X222000000Y-67000000D03*
X220780000Y-107810000D03*
X213000000Y-58000000D03*
X222000000Y-64000000D03*
X215575000Y-84075000D03*
X222000000Y-58000000D03*
X215575000Y-79925000D03*
X226280000Y-107810000D03*
X219000000Y-58000000D03*
X214110000Y-90520000D03*
X210000000Y-67000000D03*
X224580000Y-58070000D03*
X221000000Y-84000000D03*
X219000000Y-70000000D03*
X216000000Y-61000000D03*
X219000000Y-61000000D03*
X221200000Y-92000000D03*
X220000000Y-80000000D03*
%TO.N,+3V3*%
X207080000Y-59340000D03*
X205400000Y-59800000D03*
X208730000Y-60610000D03*
X222850000Y-103060000D03*
%TO.N,EN*%
X208925000Y-79900000D03*
X208925000Y-84075000D03*
X207080000Y-60610000D03*
%TO.N,DTR#*%
X210775000Y-83150000D03*
X218600000Y-93000000D03*
%TO.N,Net-(D2-A)*%
X224787500Y-101200000D03*
%TO.N,Net-(J1-CC1)*%
X207020000Y-109175000D03*
%TO.N,Net-(JP2-A)*%
X214860000Y-103150000D03*
%TO.N,Net-(J1-CC2)*%
X210020000Y-109175000D03*
%TO.N,Net-(JP1-A)*%
X213590000Y-103150000D03*
%TO.N,DD-*%
X211575000Y-91600000D03*
%TO.N,DD+*%
X211570231Y-89464833D03*
%TO.N,D+*%
X207080000Y-74580000D03*
%TO.N,D-*%
X207080000Y-73310000D03*
%TO.N,Rx*%
X224580000Y-63150000D03*
X223837500Y-92000000D03*
%TO.N,Tx*%
X224580000Y-61880000D03*
X223837500Y-91000000D03*
%TO.N,UD+*%
X216064829Y-89999999D03*
%TO.N,UD-*%
X216064829Y-90999999D03*
%TO.N,Net-(D3-A)*%
X218600000Y-98712500D03*
%TO.N,Net-(J1-D+-PadA6)*%
X209020000Y-106200000D03*
%TO.N,Net-(J1-D--PadA7)*%
X207520000Y-106200000D03*
%TO.N,IO0*%
X224580000Y-74580000D03*
X213400000Y-84100000D03*
X213425000Y-80000000D03*
X213755000Y-85750000D03*
%TO.N,RTS#*%
X215275000Y-83150000D03*
X211526492Y-84979475D03*
%TO.N,Net-(U3-VDD1)*%
X209595000Y-101760000D03*
%TO.N,Net-(U2-V3)*%
X223000000Y-90000000D03*
%TO.N,Net-(U3-VDD2)*%
X209575000Y-93880000D03*
%TO.N,ck*%
X224475000Y-95525000D03*
%TO.N,Net-(D1-A)*%
X218425000Y-101200000D03*
%TO.N,Net-(D4-DIN)*%
X221545000Y-75830000D03*
X218050000Y-83650000D03*
%TO.N,Net-(J2-CC1)*%
X223030000Y-107810000D03*
%TO.N,Net-(J2-CC2)*%
X224030000Y-107810000D03*
%TO.N,Net-(U3-PDEN)*%
X211245000Y-101760000D03*
%TO.N,Net-(U3-SPU)*%
X211245000Y-100120000D03*
%TO.N,Net-(U3-PIN)*%
X211225000Y-95700000D03*
%TO.N,Net-(U3-SPD)*%
X211225000Y-93880000D03*
%TD*%
D30*
%TO.N,+5V*%
X225000000Y-107760000D02*
X225050000Y-107810000D01*
X210800000Y-90500000D02*
X209900000Y-90500000D01*
D31*
X220350000Y-103060000D02*
X220350000Y-101300000D01*
X220350000Y-101300000D02*
X220250000Y-101200000D01*
%TO.N,+3V3*%
X222850000Y-103060000D02*
X222850000Y-101350000D01*
X222850000Y-101350000D02*
X223000000Y-101200000D01*
D30*
%TO.N,EN*%
X208925000Y-79900000D02*
X208925000Y-79925000D01*
X208925000Y-62455000D02*
X208925000Y-79900000D01*
X207080000Y-60610000D02*
X208925000Y-62455000D01*
X208925000Y-79900000D02*
X208900000Y-79925000D01*
X208900000Y-79925000D02*
X208900000Y-84100000D01*
%TO.N,DTR#*%
X215275000Y-84666244D02*
X213758756Y-83150000D01*
X215275000Y-85050000D02*
X215275000Y-84666244D01*
X213758756Y-83150000D02*
X210775000Y-83150000D01*
%TO.N,Net-(JP2-A)*%
X214210000Y-103800000D02*
X212400000Y-103800000D01*
X214860000Y-103150000D02*
X214210000Y-103800000D01*
X212400000Y-103800000D02*
X211245000Y-104955000D01*
X211245000Y-104955000D02*
X211245000Y-105000000D01*
%TO.N,Net-(JP1-A)*%
X211470000Y-103150000D02*
X211245000Y-103375000D01*
X213590000Y-103150000D02*
X211470000Y-103150000D01*
%TO.N,DD-*%
X211475000Y-91500000D02*
X211575000Y-91600000D01*
X210800000Y-91500000D02*
X211475000Y-91500000D01*
%TO.N,DD+*%
X211535064Y-89500000D02*
X210800000Y-89500000D01*
X211570231Y-89464833D02*
X211535064Y-89500000D01*
%TO.N,sw*%
X216100000Y-91500000D02*
X216600000Y-92000000D01*
X215200000Y-91500000D02*
X216100000Y-91500000D01*
X216600000Y-89800000D02*
X216600000Y-93200000D01*
X216600000Y-89800000D02*
X216300000Y-89500000D01*
X218700000Y-95300000D02*
X216600000Y-93200000D01*
X216300000Y-89500000D02*
X215200000Y-89500000D01*
X221425000Y-95300000D02*
X218700000Y-95300000D01*
%TO.N,D+*%
X210800000Y-90000000D02*
X208690000Y-90000000D01*
X207080000Y-88390000D02*
X207080000Y-74580000D01*
X208690000Y-90000000D02*
X207080000Y-88390000D01*
%TO.N,D-*%
X210800000Y-91000000D02*
X209193611Y-91000000D01*
X206550000Y-73840000D02*
X207080000Y-73310000D01*
X209193611Y-91000000D02*
X206550000Y-88356389D01*
X206550000Y-88356389D02*
X206550000Y-73840000D01*
%TO.N,UD+*%
X215200000Y-90000000D02*
X216064828Y-90000000D01*
X216064828Y-90000000D02*
X216064829Y-89999999D01*
%TO.N,UD-*%
X216064828Y-91000000D02*
X216064829Y-90999999D01*
X215200000Y-91000000D02*
X216064828Y-91000000D01*
%TO.N,Net-(J1-D+-PadA6)*%
X209020000Y-106200000D02*
X209020000Y-105575000D01*
X209020000Y-105575000D02*
X209595000Y-105000000D01*
%TO.N,Net-(J1-D--PadA7)*%
X207520000Y-106200000D02*
X207520000Y-105450000D01*
X207520000Y-105450000D02*
X209595000Y-103375000D01*
%TO.N,IO0*%
X213755000Y-84455000D02*
X213400000Y-84100000D01*
X224560000Y-74600000D02*
X224580000Y-74580000D01*
X213755000Y-85750000D02*
X213755000Y-84455000D01*
%TO.N,RTS#*%
X211455967Y-85050000D02*
X210775000Y-85050000D01*
X211526492Y-84979475D02*
X211455967Y-85050000D01*
D31*
%TO.N,Net-(U3-VDD1)*%
X209595000Y-101760000D02*
X209595000Y-100120000D01*
X207980000Y-101760000D02*
X207970000Y-101750000D01*
X209595000Y-101760000D02*
X207980000Y-101760000D01*
D30*
%TO.N,Net-(U3-VDD2)*%
X209575000Y-97450000D02*
X209625000Y-97500000D01*
X209575000Y-93880000D02*
X209575000Y-95700000D01*
X209575000Y-97500000D02*
X209625000Y-97550000D01*
X209575000Y-95700000D02*
X209575000Y-97450000D01*
%TO.N,ck*%
X225750000Y-96800000D02*
X224475000Y-95525000D01*
X225800000Y-96800000D02*
X225750000Y-96800000D01*
X223375000Y-96625000D02*
X224475000Y-95525000D01*
X223375000Y-98700000D02*
X223375000Y-96625000D01*
%TO.N,~{sw}*%
X222075000Y-98700000D02*
X222725000Y-98700000D01*
X222075000Y-98700000D02*
X222075000Y-98050000D01*
X222075000Y-98050000D02*
X220912500Y-96887500D01*
X220912500Y-96887500D02*
X218600000Y-96887500D01*
%TO.N,Net-(J2-CC1)*%
X222600000Y-109740000D02*
X222600000Y-109000000D01*
X223030000Y-108570000D02*
X223030000Y-107810000D01*
X222600000Y-109000000D02*
X223030000Y-108570000D01*
%TO.N,Net-(J2-CC2)*%
X224030000Y-108560000D02*
X224030000Y-107810000D01*
X224420000Y-108950000D02*
X224030000Y-108560000D01*
X224420000Y-109740000D02*
X224420000Y-108950000D01*
%TD*%
%TA.AperFunction,Conductor*%
%TO.N,GNDPWR*%
G36*
X207237539Y-101873685D02*
G01*
X207283294Y-101926489D01*
X207294500Y-101978000D01*
X207294500Y-102008493D01*
X207310279Y-102108121D01*
X207310280Y-102108124D01*
X207310281Y-102108126D01*
X207371472Y-102228220D01*
X207371473Y-102228221D01*
X207371476Y-102228225D01*
X207466774Y-102323523D01*
X207466778Y-102323526D01*
X207466780Y-102323528D01*
X207586874Y-102384719D01*
X207586876Y-102384719D01*
X207586878Y-102384720D01*
X207686507Y-102400500D01*
X207686512Y-102400500D01*
X208253493Y-102400500D01*
X208353121Y-102384720D01*
X208353121Y-102384719D01*
X208353126Y-102384719D01*
X208473220Y-102323528D01*
X208480616Y-102316132D01*
X208499930Y-102296819D01*
X208561253Y-102263334D01*
X208587611Y-102260500D01*
X209002746Y-102260500D01*
X209069785Y-102280185D01*
X209090422Y-102296814D01*
X209156658Y-102363050D01*
X209260529Y-102415975D01*
X209269698Y-102420647D01*
X209363475Y-102435499D01*
X209363481Y-102435500D01*
X209826518Y-102435499D01*
X209920304Y-102420646D01*
X210033342Y-102363050D01*
X210123050Y-102273342D01*
X210180646Y-102160304D01*
X210180646Y-102160302D01*
X210180647Y-102160301D01*
X210195500Y-102066524D01*
X210195500Y-101978000D01*
X210198050Y-101969314D01*
X210196762Y-101960353D01*
X210207740Y-101936312D01*
X210215185Y-101910961D01*
X210222025Y-101905033D01*
X210225787Y-101896797D01*
X210248021Y-101882507D01*
X210267989Y-101865206D01*
X210278503Y-101862918D01*
X210284565Y-101859023D01*
X210319500Y-101854000D01*
X210520501Y-101854000D01*
X210587540Y-101873685D01*
X210633295Y-101926489D01*
X210644500Y-101977999D01*
X210644501Y-102066518D01*
X210659354Y-102160304D01*
X210716950Y-102273342D01*
X210716952Y-102273344D01*
X210716954Y-102273347D01*
X210806652Y-102363045D01*
X210806654Y-102363046D01*
X210806658Y-102363050D01*
X210910529Y-102415975D01*
X210919698Y-102420647D01*
X211013475Y-102435499D01*
X211013481Y-102435500D01*
X211476518Y-102435499D01*
X211570304Y-102420646D01*
X211683342Y-102363050D01*
X211773050Y-102273342D01*
X211830646Y-102160304D01*
X211830646Y-102160302D01*
X211830647Y-102160301D01*
X211845500Y-102066524D01*
X211845500Y-101978000D01*
X211865185Y-101910961D01*
X211917989Y-101865206D01*
X211969500Y-101854000D01*
X217300000Y-101854000D01*
X217367039Y-101873685D01*
X217412794Y-101926489D01*
X217424000Y-101978000D01*
X217424000Y-105540000D01*
X217404315Y-105607039D01*
X217351511Y-105652794D01*
X217300000Y-105664000D01*
X214122000Y-105664000D01*
X214122000Y-113675500D01*
X214102315Y-113742539D01*
X214049511Y-113788294D01*
X213998000Y-113799500D01*
X202554500Y-113799500D01*
X202487461Y-113779815D01*
X202441706Y-113727011D01*
X202430500Y-113675500D01*
X202430500Y-112153946D01*
X203249999Y-112153946D01*
X203276899Y-112289176D01*
X203276902Y-112289186D01*
X203329664Y-112416566D01*
X203329671Y-112416579D01*
X203406275Y-112531226D01*
X203503773Y-112628724D01*
X203618420Y-112705328D01*
X203618424Y-112705330D01*
X203700000Y-112739119D01*
X203700000Y-112251988D01*
X203709940Y-112269205D01*
X203765795Y-112325060D01*
X203834204Y-112364556D01*
X203910504Y-112385000D01*
X203989496Y-112385000D01*
X204065796Y-112364556D01*
X204134205Y-112325060D01*
X204190060Y-112269205D01*
X204200000Y-112251988D01*
X204200000Y-112739118D01*
X204281575Y-112705330D01*
X204281579Y-112705328D01*
X204396226Y-112628724D01*
X204493724Y-112531226D01*
X204570328Y-112416579D01*
X204570335Y-112416566D01*
X204623097Y-112289186D01*
X204623100Y-112289176D01*
X204650000Y-112153946D01*
X211889999Y-112153946D01*
X211916899Y-112289176D01*
X211916902Y-112289186D01*
X211969664Y-112416566D01*
X211969671Y-112416579D01*
X212046275Y-112531226D01*
X212143773Y-112628724D01*
X212258420Y-112705328D01*
X212258424Y-112705330D01*
X212340000Y-112739119D01*
X212340000Y-112251988D01*
X212349940Y-112269205D01*
X212405795Y-112325060D01*
X212474204Y-112364556D01*
X212550504Y-112385000D01*
X212629496Y-112385000D01*
X212705796Y-112364556D01*
X212774205Y-112325060D01*
X212830060Y-112269205D01*
X212840000Y-112251988D01*
X212840000Y-112739118D01*
X212921575Y-112705330D01*
X212921579Y-112705328D01*
X213036226Y-112628724D01*
X213133724Y-112531226D01*
X213210328Y-112416579D01*
X213210335Y-112416566D01*
X213263097Y-112289186D01*
X213263100Y-112289176D01*
X213290000Y-112153946D01*
X213290000Y-111935000D01*
X212890000Y-111935000D01*
X212890000Y-111435000D01*
X213290000Y-111435000D01*
X213290000Y-111216053D01*
X213263100Y-111080823D01*
X213263097Y-111080813D01*
X213210335Y-110953433D01*
X213210328Y-110953420D01*
X213133724Y-110838773D01*
X213036226Y-110741275D01*
X212921573Y-110664667D01*
X212840000Y-110630879D01*
X212840000Y-111118011D01*
X212830060Y-111100795D01*
X212774205Y-111044940D01*
X212705796Y-111005444D01*
X212629496Y-110985000D01*
X212550504Y-110985000D01*
X212474204Y-111005444D01*
X212405795Y-111044940D01*
X212349940Y-111100795D01*
X212340000Y-111118011D01*
X212340000Y-110630879D01*
X212339999Y-110630879D01*
X212258426Y-110664667D01*
X212143773Y-110741275D01*
X212046275Y-110838773D01*
X211969671Y-110953420D01*
X211969664Y-110953433D01*
X211916902Y-111080813D01*
X211916899Y-111080823D01*
X211890000Y-111216053D01*
X211890000Y-111435000D01*
X212290000Y-111435000D01*
X212290000Y-111935000D01*
X211890000Y-111935000D01*
X211890000Y-112153946D01*
X211889999Y-112153946D01*
X204650000Y-112153946D01*
X204650000Y-111935000D01*
X204250000Y-111935000D01*
X204250000Y-111435000D01*
X204650000Y-111435000D01*
X204650000Y-111216053D01*
X204623100Y-111080823D01*
X204623097Y-111080815D01*
X204620688Y-111075000D01*
X206347935Y-111075000D01*
X206359835Y-111150149D01*
X206359837Y-111150155D01*
X206417356Y-111263041D01*
X206417363Y-111263050D01*
X206506949Y-111352636D01*
X206506953Y-111352639D01*
X206619855Y-111410166D01*
X206713514Y-111424999D01*
X207270000Y-111424999D01*
X207326479Y-111424999D01*
X207420149Y-111410164D01*
X207420155Y-111410162D01*
X207533041Y-111352643D01*
X207533050Y-111352636D01*
X207622636Y-111263050D01*
X207622639Y-111263046D01*
X207680166Y-111150144D01*
X207692067Y-111075000D01*
X209347935Y-111075000D01*
X209359835Y-111150149D01*
X209359837Y-111150155D01*
X209417356Y-111263041D01*
X209417363Y-111263050D01*
X209506949Y-111352636D01*
X209506953Y-111352639D01*
X209619855Y-111410166D01*
X209713514Y-111424999D01*
X210270000Y-111424999D01*
X210326479Y-111424999D01*
X210420149Y-111410164D01*
X210420155Y-111410162D01*
X210533041Y-111352643D01*
X210533050Y-111352636D01*
X210622636Y-111263050D01*
X210622639Y-111263046D01*
X210678370Y-111153669D01*
X210678371Y-111153667D01*
X210680165Y-111150146D01*
X210680166Y-111150144D01*
X210692068Y-111075000D01*
X210270000Y-111075000D01*
X210270000Y-111424999D01*
X209713514Y-111424999D01*
X209769999Y-111424998D01*
X209770000Y-111424998D01*
X209770000Y-111075000D01*
X209347935Y-111075000D01*
X207692067Y-111075000D01*
X207270000Y-111075000D01*
X207270000Y-111424999D01*
X206713514Y-111424999D01*
X206769999Y-111424998D01*
X206770000Y-111424998D01*
X206770000Y-111075000D01*
X206347935Y-111075000D01*
X204620688Y-111075000D01*
X204570333Y-110953429D01*
X204570328Y-110953420D01*
X204493724Y-110838773D01*
X204396228Y-110741277D01*
X204357149Y-110715166D01*
X204357148Y-110715165D01*
X204281573Y-110664667D01*
X204200000Y-110630879D01*
X204200000Y-111118011D01*
X204190060Y-111100795D01*
X204134205Y-111044940D01*
X204065796Y-111005444D01*
X203989496Y-110985000D01*
X203910504Y-110985000D01*
X203834204Y-111005444D01*
X203765795Y-111044940D01*
X203709940Y-111100795D01*
X203700000Y-111118011D01*
X203700000Y-110630879D01*
X203699999Y-110630879D01*
X203618426Y-110664667D01*
X203503773Y-110741275D01*
X203406275Y-110838773D01*
X203329671Y-110953420D01*
X203329664Y-110953433D01*
X203276902Y-111080813D01*
X203276899Y-111080823D01*
X203250000Y-111216053D01*
X203250000Y-111435000D01*
X203650000Y-111435000D01*
X203650000Y-111935000D01*
X203250000Y-111935000D01*
X203250000Y-112153946D01*
X203249999Y-112153946D01*
X202430500Y-112153946D01*
X202430500Y-110575000D01*
X206347932Y-110575000D01*
X206770000Y-110575000D01*
X207270000Y-110575000D01*
X207692065Y-110575000D01*
X209347932Y-110575000D01*
X209770000Y-110575000D01*
X210270000Y-110575000D01*
X210692065Y-110575000D01*
X210680164Y-110499850D01*
X210680162Y-110499844D01*
X210622643Y-110386958D01*
X210622636Y-110386949D01*
X210533050Y-110297363D01*
X210533046Y-110297360D01*
X210420144Y-110239833D01*
X210326486Y-110225000D01*
X210270000Y-110225000D01*
X210270000Y-110575000D01*
X209770000Y-110575000D01*
X209770000Y-110225000D01*
X209769999Y-110224999D01*
X209713521Y-110225000D01*
X209619849Y-110239835D01*
X209619844Y-110239837D01*
X209506958Y-110297356D01*
X209506949Y-110297363D01*
X209417363Y-110386949D01*
X209417360Y-110386953D01*
X209359833Y-110499855D01*
X209347932Y-110575000D01*
X207692065Y-110575000D01*
X207680164Y-110499850D01*
X207680162Y-110499844D01*
X207622643Y-110386958D01*
X207622636Y-110386949D01*
X207533050Y-110297363D01*
X207533046Y-110297360D01*
X207420144Y-110239833D01*
X207326486Y-110225000D01*
X207270000Y-110225000D01*
X207270000Y-110575000D01*
X206770000Y-110575000D01*
X206770000Y-110225000D01*
X206769999Y-110224999D01*
X206713521Y-110225000D01*
X206619849Y-110239835D01*
X206619844Y-110239837D01*
X206506958Y-110297356D01*
X206506949Y-110297363D01*
X206417363Y-110386949D01*
X206417360Y-110386953D01*
X206359833Y-110499855D01*
X206347932Y-110575000D01*
X202430500Y-110575000D01*
X202430500Y-108943475D01*
X206344500Y-108943475D01*
X206344500Y-109406517D01*
X206355292Y-109474657D01*
X206359354Y-109500304D01*
X206416950Y-109613342D01*
X206416952Y-109613344D01*
X206416954Y-109613347D01*
X206506652Y-109703045D01*
X206506654Y-109703046D01*
X206506658Y-109703050D01*
X206619694Y-109760645D01*
X206619698Y-109760647D01*
X206713475Y-109775499D01*
X206713481Y-109775500D01*
X207326518Y-109775499D01*
X207420304Y-109760646D01*
X207533342Y-109703050D01*
X207623050Y-109613342D01*
X207680646Y-109500304D01*
X207680646Y-109500302D01*
X207680647Y-109500301D01*
X207695499Y-109406524D01*
X207695500Y-109406519D01*
X207695499Y-108943482D01*
X207695498Y-108943475D01*
X209344500Y-108943475D01*
X209344500Y-109406517D01*
X209355292Y-109474657D01*
X209359354Y-109500304D01*
X209416950Y-109613342D01*
X209416952Y-109613344D01*
X209416954Y-109613347D01*
X209506652Y-109703045D01*
X209506654Y-109703046D01*
X209506658Y-109703050D01*
X209619694Y-109760645D01*
X209619698Y-109760647D01*
X209713475Y-109775499D01*
X209713481Y-109775500D01*
X210326518Y-109775499D01*
X210420304Y-109760646D01*
X210533342Y-109703050D01*
X210623050Y-109613342D01*
X210680646Y-109500304D01*
X210680646Y-109500302D01*
X210680647Y-109500301D01*
X210695499Y-109406524D01*
X210695500Y-109406519D01*
X210695499Y-108943482D01*
X210680646Y-108849696D01*
X210623050Y-108736658D01*
X210623046Y-108736654D01*
X210623045Y-108736652D01*
X210533347Y-108646954D01*
X210533344Y-108646952D01*
X210533342Y-108646950D01*
X210438694Y-108598724D01*
X210420301Y-108589352D01*
X210326524Y-108574500D01*
X209713482Y-108574500D01*
X209632519Y-108587323D01*
X209619696Y-108589354D01*
X209506658Y-108646950D01*
X209506657Y-108646951D01*
X209506652Y-108646954D01*
X209416954Y-108736652D01*
X209416951Y-108736657D01*
X209359352Y-108849698D01*
X209344500Y-108943475D01*
X207695498Y-108943475D01*
X207680646Y-108849696D01*
X207623050Y-108736658D01*
X207623046Y-108736654D01*
X207623045Y-108736652D01*
X207533347Y-108646954D01*
X207533344Y-108646952D01*
X207533342Y-108646950D01*
X207438694Y-108598724D01*
X207420301Y-108589352D01*
X207326524Y-108574500D01*
X206713482Y-108574500D01*
X206632519Y-108587323D01*
X206619696Y-108589354D01*
X206506658Y-108646950D01*
X206506657Y-108646951D01*
X206506652Y-108646954D01*
X206416954Y-108736652D01*
X206416951Y-108736657D01*
X206359352Y-108849698D01*
X206344500Y-108943475D01*
X202430500Y-108943475D01*
X202430500Y-108123946D01*
X203249999Y-108123946D01*
X203276899Y-108259176D01*
X203276902Y-108259186D01*
X203329664Y-108386566D01*
X203329671Y-108386579D01*
X203406275Y-108501226D01*
X203503773Y-108598724D01*
X203618420Y-108675328D01*
X203618424Y-108675330D01*
X203700000Y-108709119D01*
X203700000Y-108221988D01*
X203709940Y-108239205D01*
X203765795Y-108295060D01*
X203834204Y-108334556D01*
X203910504Y-108355000D01*
X203989496Y-108355000D01*
X204065796Y-108334556D01*
X204134205Y-108295060D01*
X204190060Y-108239205D01*
X204200000Y-108221988D01*
X204200000Y-108709118D01*
X204281575Y-108675330D01*
X204281579Y-108675328D01*
X204396226Y-108598724D01*
X204493724Y-108501226D01*
X204570328Y-108386579D01*
X204570335Y-108386566D01*
X204625430Y-108253555D01*
X204627109Y-108254250D01*
X204660715Y-108202956D01*
X204724523Y-108174491D01*
X204793592Y-108185042D01*
X204845992Y-108231259D01*
X204848478Y-108235378D01*
X204919485Y-108358365D01*
X205026635Y-108465515D01*
X205157865Y-108541281D01*
X205304234Y-108580500D01*
X205304236Y-108580500D01*
X205455764Y-108580500D01*
X205455766Y-108580500D01*
X205602135Y-108541281D01*
X205733365Y-108465515D01*
X205840515Y-108358365D01*
X205916281Y-108227135D01*
X205955500Y-108080766D01*
X205955500Y-107929234D01*
X210584500Y-107929234D01*
X210584500Y-108080766D01*
X210604109Y-108153950D01*
X210623719Y-108227136D01*
X210661602Y-108292750D01*
X210699485Y-108358365D01*
X210806635Y-108465515D01*
X210937865Y-108541281D01*
X211084234Y-108580500D01*
X211084236Y-108580500D01*
X211235764Y-108580500D01*
X211235766Y-108580500D01*
X211382135Y-108541281D01*
X211513365Y-108465515D01*
X211620515Y-108358365D01*
X211691521Y-108235378D01*
X211742088Y-108187163D01*
X211810695Y-108173940D01*
X211875560Y-108199908D01*
X211913945Y-108253813D01*
X211914570Y-108253555D01*
X211915695Y-108256271D01*
X211916088Y-108256823D01*
X211916683Y-108258657D01*
X211969664Y-108386566D01*
X211969671Y-108386579D01*
X212046275Y-108501226D01*
X212143773Y-108598724D01*
X212258420Y-108675328D01*
X212258424Y-108675330D01*
X212340000Y-108709119D01*
X212340000Y-108221988D01*
X212349940Y-108239205D01*
X212405795Y-108295060D01*
X212474204Y-108334556D01*
X212550504Y-108355000D01*
X212629496Y-108355000D01*
X212705796Y-108334556D01*
X212774205Y-108295060D01*
X212830060Y-108239205D01*
X212840000Y-108221988D01*
X212840000Y-108709118D01*
X212921575Y-108675330D01*
X212921579Y-108675328D01*
X213036226Y-108598724D01*
X213133724Y-108501226D01*
X213210328Y-108386579D01*
X213210335Y-108386566D01*
X213263097Y-108259186D01*
X213263100Y-108259176D01*
X213290000Y-108123946D01*
X213290000Y-107755000D01*
X212890000Y-107755000D01*
X212890000Y-107255000D01*
X213290000Y-107255000D01*
X213290000Y-106886053D01*
X213263100Y-106750823D01*
X213263097Y-106750813D01*
X213210335Y-106623433D01*
X213210328Y-106623420D01*
X213133724Y-106508773D01*
X213036226Y-106411275D01*
X212921573Y-106334667D01*
X212840000Y-106300879D01*
X212840000Y-106788011D01*
X212830060Y-106770795D01*
X212774205Y-106714940D01*
X212705796Y-106675444D01*
X212629496Y-106655000D01*
X212550504Y-106655000D01*
X212474204Y-106675444D01*
X212405795Y-106714940D01*
X212349940Y-106770795D01*
X212340000Y-106788011D01*
X212340000Y-106300879D01*
X212339999Y-106300879D01*
X212258426Y-106334667D01*
X212143773Y-106411275D01*
X212046275Y-106508773D01*
X211969671Y-106623420D01*
X211969664Y-106623433D01*
X211916902Y-106750813D01*
X211916899Y-106750823D01*
X211890000Y-106886053D01*
X211890000Y-107255000D01*
X212290000Y-107255000D01*
X212290000Y-107755000D01*
X211889999Y-107755000D01*
X211871255Y-107773744D01*
X211809932Y-107807228D01*
X211740240Y-107802243D01*
X211684307Y-107760372D01*
X211676188Y-107748063D01*
X211674564Y-107745250D01*
X211620515Y-107651635D01*
X211513365Y-107544485D01*
X211447750Y-107506602D01*
X211382136Y-107468719D01*
X211308950Y-107449109D01*
X211235766Y-107429500D01*
X211084234Y-107429500D01*
X210937863Y-107468719D01*
X210806635Y-107544485D01*
X210806632Y-107544487D01*
X210699487Y-107651632D01*
X210699485Y-107651635D01*
X210623719Y-107782863D01*
X210617191Y-107807228D01*
X210584500Y-107929234D01*
X205955500Y-107929234D01*
X205916281Y-107782865D01*
X205840515Y-107651635D01*
X205733365Y-107544485D01*
X205667750Y-107506602D01*
X205602136Y-107468719D01*
X205528950Y-107449109D01*
X205455766Y-107429500D01*
X205304234Y-107429500D01*
X205157863Y-107468719D01*
X205026635Y-107544485D01*
X205026632Y-107544487D01*
X204919487Y-107651632D01*
X204919480Y-107651641D01*
X204863810Y-107748063D01*
X204813243Y-107796278D01*
X204744635Y-107809500D01*
X204679771Y-107783532D01*
X204668743Y-107773743D01*
X204650000Y-107755000D01*
X204250000Y-107755000D01*
X204250000Y-107255000D01*
X204650000Y-107255000D01*
X204650000Y-106886053D01*
X204623100Y-106750823D01*
X204623097Y-106750813D01*
X204570335Y-106623433D01*
X204570328Y-106623420D01*
X204493724Y-106508773D01*
X204396226Y-106411275D01*
X204281573Y-106334667D01*
X204200000Y-106300879D01*
X204200000Y-106788011D01*
X204190060Y-106770795D01*
X204134205Y-106714940D01*
X204065796Y-106675444D01*
X203989496Y-106655000D01*
X203910504Y-106655000D01*
X203834204Y-106675444D01*
X203765795Y-106714940D01*
X203709940Y-106770795D01*
X203700000Y-106788011D01*
X203700000Y-106300879D01*
X203699999Y-106300879D01*
X203618426Y-106334667D01*
X203503773Y-106411275D01*
X203406275Y-106508773D01*
X203329671Y-106623420D01*
X203329664Y-106623433D01*
X203276902Y-106750813D01*
X203276899Y-106750823D01*
X203250000Y-106886053D01*
X203250000Y-107255000D01*
X203650000Y-107255000D01*
X203650000Y-107755000D01*
X203250000Y-107755000D01*
X203250000Y-108123946D01*
X203249999Y-108123946D01*
X202430500Y-108123946D01*
X202430500Y-106140691D01*
X207069500Y-106140691D01*
X207069500Y-106259309D01*
X207100201Y-106373886D01*
X207159511Y-106476613D01*
X207243387Y-106560489D01*
X207346114Y-106619799D01*
X207460691Y-106650500D01*
X207460694Y-106650500D01*
X207579306Y-106650500D01*
X207579309Y-106650500D01*
X207693886Y-106619799D01*
X207796613Y-106560489D01*
X207880489Y-106476613D01*
X207939799Y-106373886D01*
X207970500Y-106259309D01*
X207970500Y-106140691D01*
X207939799Y-106026114D01*
X207880489Y-105923387D01*
X207856819Y-105899717D01*
X207842115Y-105872789D01*
X207825523Y-105846971D01*
X207824631Y-105840770D01*
X207823334Y-105838394D01*
X207820500Y-105812036D01*
X207820500Y-105625832D01*
X207840185Y-105558793D01*
X207856814Y-105538156D01*
X208782819Y-104612150D01*
X208844142Y-104578666D01*
X208913834Y-104583650D01*
X208969767Y-104625522D01*
X208994184Y-104690986D01*
X208994500Y-104699832D01*
X208994500Y-105124165D01*
X208974815Y-105191204D01*
X208958182Y-105211846D01*
X208835489Y-105334540D01*
X208779538Y-105390491D01*
X208779535Y-105390495D01*
X208739982Y-105459004D01*
X208739979Y-105459009D01*
X208719500Y-105535439D01*
X208719500Y-105812036D01*
X208699815Y-105879075D01*
X208683181Y-105899717D01*
X208659513Y-105923384D01*
X208659511Y-105923387D01*
X208600201Y-106026114D01*
X208569500Y-106140691D01*
X208569500Y-106259309D01*
X208600201Y-106373886D01*
X208659511Y-106476613D01*
X208743387Y-106560489D01*
X208846114Y-106619799D01*
X208960691Y-106650500D01*
X208960694Y-106650500D01*
X209079306Y-106650500D01*
X209079309Y-106650500D01*
X209193886Y-106619799D01*
X209296613Y-106560489D01*
X209380489Y-106476613D01*
X209439799Y-106373886D01*
X209470500Y-106259309D01*
X209470500Y-106140691D01*
X209439799Y-106026114D01*
X209380489Y-105923387D01*
X209356819Y-105899717D01*
X209342115Y-105872789D01*
X209325523Y-105846971D01*
X209324631Y-105840770D01*
X209323334Y-105838394D01*
X209320500Y-105812036D01*
X209320500Y-105799499D01*
X209340185Y-105732460D01*
X209392989Y-105686705D01*
X209444496Y-105675499D01*
X209826518Y-105675499D01*
X209920304Y-105660646D01*
X210033342Y-105603050D01*
X210123050Y-105513342D01*
X210180646Y-105400304D01*
X210180646Y-105400302D01*
X210180647Y-105400301D01*
X210195499Y-105306524D01*
X210195500Y-105306519D01*
X210195499Y-104693482D01*
X210180646Y-104599696D01*
X210123050Y-104486658D01*
X210123046Y-104486654D01*
X210123045Y-104486652D01*
X210033347Y-104396954D01*
X210033344Y-104396952D01*
X210033342Y-104396950D01*
X209956517Y-104357805D01*
X209920301Y-104339352D01*
X209826524Y-104324500D01*
X209369831Y-104324500D01*
X209348585Y-104318261D01*
X209326497Y-104316682D01*
X209315713Y-104308609D01*
X209302792Y-104304815D01*
X209288292Y-104288081D01*
X209270564Y-104274810D01*
X209265856Y-104262189D01*
X209257037Y-104252011D01*
X209253885Y-104230093D01*
X209246147Y-104209346D01*
X209249009Y-104196185D01*
X209247093Y-104182853D01*
X209256292Y-104162709D01*
X209260999Y-104141073D01*
X209274267Y-104123347D01*
X209276118Y-104119297D01*
X209282135Y-104112834D01*
X209308153Y-104086816D01*
X209369474Y-104053333D01*
X209395823Y-104050499D01*
X209826518Y-104050499D01*
X209920304Y-104035646D01*
X210033342Y-103978050D01*
X210123050Y-103888342D01*
X210180646Y-103775304D01*
X210180646Y-103775302D01*
X210180647Y-103775301D01*
X210195499Y-103681524D01*
X210195500Y-103681519D01*
X210195499Y-103068482D01*
X210195498Y-103068475D01*
X210644500Y-103068475D01*
X210644500Y-103681517D01*
X210655292Y-103749657D01*
X210659354Y-103775304D01*
X210716950Y-103888342D01*
X210716952Y-103888344D01*
X210716954Y-103888347D01*
X210806652Y-103978045D01*
X210806654Y-103978046D01*
X210806658Y-103978050D01*
X210919694Y-104035645D01*
X210919698Y-104035647D01*
X211013475Y-104050499D01*
X211013481Y-104050500D01*
X211425166Y-104050499D01*
X211446412Y-104056737D01*
X211468500Y-104058317D01*
X211479282Y-104066388D01*
X211492205Y-104070183D01*
X211506706Y-104086919D01*
X211524433Y-104100189D01*
X211529139Y-104112807D01*
X211537960Y-104122987D01*
X211541111Y-104144905D01*
X211548850Y-104165653D01*
X211545987Y-104178813D01*
X211547904Y-104192146D01*
X211538704Y-104212289D01*
X211533998Y-104233926D01*
X211520729Y-104251651D01*
X211518879Y-104255702D01*
X211512847Y-104262180D01*
X211486846Y-104288181D01*
X211425523Y-104321666D01*
X211399165Y-104324500D01*
X211013482Y-104324500D01*
X210932519Y-104337323D01*
X210919696Y-104339354D01*
X210806658Y-104396950D01*
X210806657Y-104396951D01*
X210806652Y-104396954D01*
X210716954Y-104486652D01*
X210716951Y-104486657D01*
X210659352Y-104599698D01*
X210644500Y-104693475D01*
X210644500Y-105306517D01*
X210655292Y-105374657D01*
X210659354Y-105400304D01*
X210716950Y-105513342D01*
X210716952Y-105513344D01*
X210716954Y-105513347D01*
X210806652Y-105603045D01*
X210806654Y-105603046D01*
X210806658Y-105603050D01*
X210904286Y-105652794D01*
X210919698Y-105660647D01*
X211013475Y-105675499D01*
X211013481Y-105675500D01*
X211476518Y-105675499D01*
X211570304Y-105660646D01*
X211683342Y-105603050D01*
X211773050Y-105513342D01*
X211830646Y-105400304D01*
X211830646Y-105400302D01*
X211830647Y-105400301D01*
X211845499Y-105306524D01*
X211845500Y-105306519D01*
X211845499Y-104830831D01*
X211865183Y-104763793D01*
X211881813Y-104743156D01*
X212488152Y-104136819D01*
X212549475Y-104103334D01*
X212575833Y-104100500D01*
X214249560Y-104100500D01*
X214249562Y-104100500D01*
X214325989Y-104080021D01*
X214394511Y-104040460D01*
X214450460Y-103984511D01*
X214798152Y-103636819D01*
X214859475Y-103603334D01*
X214885833Y-103600500D01*
X214919306Y-103600500D01*
X214919309Y-103600500D01*
X215033886Y-103569799D01*
X215136613Y-103510489D01*
X215220489Y-103426613D01*
X215279799Y-103323886D01*
X215310500Y-103209309D01*
X215310500Y-103090691D01*
X215279799Y-102976114D01*
X215220489Y-102873387D01*
X215136613Y-102789511D01*
X215033886Y-102730201D01*
X214919309Y-102699500D01*
X214800691Y-102699500D01*
X214686114Y-102730201D01*
X214686112Y-102730201D01*
X214686112Y-102730202D01*
X214583387Y-102789511D01*
X214583384Y-102789513D01*
X214499513Y-102873384D01*
X214499511Y-102873387D01*
X214441019Y-102974698D01*
X214440201Y-102976114D01*
X214409500Y-103090691D01*
X214409500Y-103090693D01*
X214409500Y-103124167D01*
X214400855Y-103153607D01*
X214394332Y-103183594D01*
X214390577Y-103188609D01*
X214389815Y-103191206D01*
X214373185Y-103211843D01*
X214261143Y-103323886D01*
X214245030Y-103339999D01*
X214183707Y-103373483D01*
X214114015Y-103368499D01*
X214058082Y-103326627D01*
X214033665Y-103261163D01*
X214037575Y-103220223D01*
X214040500Y-103209309D01*
X214040500Y-103090691D01*
X214009799Y-102976114D01*
X213950489Y-102873387D01*
X213866613Y-102789511D01*
X213763886Y-102730201D01*
X213649309Y-102699500D01*
X213530691Y-102699500D01*
X213416114Y-102730201D01*
X213416112Y-102730201D01*
X213416112Y-102730202D01*
X213313387Y-102789511D01*
X213313384Y-102789513D01*
X213289717Y-102813181D01*
X213228394Y-102846666D01*
X213202036Y-102849500D01*
X211812254Y-102849500D01*
X211745215Y-102829815D01*
X211724572Y-102813180D01*
X211683346Y-102771953D01*
X211683344Y-102771952D01*
X211683342Y-102771950D01*
X211601405Y-102730201D01*
X211570301Y-102714352D01*
X211476524Y-102699500D01*
X211013482Y-102699500D01*
X210932519Y-102712323D01*
X210919696Y-102714354D01*
X210806658Y-102771950D01*
X210806657Y-102771951D01*
X210806652Y-102771954D01*
X210716954Y-102861652D01*
X210716951Y-102861657D01*
X210716950Y-102861658D01*
X210710974Y-102873387D01*
X210659352Y-102974698D01*
X210644500Y-103068475D01*
X210195498Y-103068475D01*
X210180646Y-102974696D01*
X210123050Y-102861658D01*
X210123046Y-102861654D01*
X210123045Y-102861652D01*
X210033347Y-102771954D01*
X210033344Y-102771952D01*
X210033342Y-102771950D01*
X209951405Y-102730201D01*
X209920301Y-102714352D01*
X209826524Y-102699500D01*
X209363482Y-102699500D01*
X209282519Y-102712323D01*
X209269696Y-102714354D01*
X209156658Y-102771950D01*
X209156657Y-102771951D01*
X209156652Y-102771954D01*
X209066954Y-102861652D01*
X209066951Y-102861657D01*
X209066950Y-102861658D01*
X209060974Y-102873387D01*
X209009352Y-102974698D01*
X208994500Y-103068475D01*
X208994500Y-103499166D01*
X208985855Y-103528605D01*
X208979332Y-103558593D01*
X208975577Y-103563608D01*
X208974815Y-103566205D01*
X208958185Y-103586842D01*
X208887061Y-103657967D01*
X208850573Y-103694455D01*
X208789250Y-103727939D01*
X208719558Y-103722955D01*
X208663625Y-103681083D01*
X208639208Y-103615618D01*
X208640419Y-103587372D01*
X208645000Y-103558452D01*
X208645000Y-103550000D01*
X208220000Y-103550000D01*
X208220000Y-103949999D01*
X208253453Y-103949999D01*
X208282375Y-103945418D01*
X208351669Y-103954372D01*
X208405121Y-103999368D01*
X208425761Y-104066119D01*
X208407037Y-104133433D01*
X208389455Y-104155572D01*
X207335489Y-105209540D01*
X207279541Y-105265487D01*
X207279535Y-105265495D01*
X207239982Y-105334004D01*
X207239979Y-105334009D01*
X207239837Y-105334540D01*
X207222216Y-105400304D01*
X207219500Y-105410439D01*
X207219500Y-105812036D01*
X207199815Y-105879075D01*
X207183181Y-105899717D01*
X207159513Y-105923384D01*
X207159511Y-105923387D01*
X207100201Y-106026114D01*
X207069500Y-106140691D01*
X202430500Y-106140691D01*
X202430500Y-103558449D01*
X207295001Y-103558449D01*
X207310762Y-103657967D01*
X207371883Y-103777923D01*
X207371886Y-103777928D01*
X207467071Y-103873113D01*
X207467076Y-103873116D01*
X207587034Y-103934239D01*
X207587033Y-103934239D01*
X207686543Y-103949999D01*
X207720000Y-103949998D01*
X207720000Y-103550000D01*
X207295001Y-103550000D01*
X207295001Y-103558449D01*
X202430500Y-103558449D01*
X202430500Y-103041543D01*
X207295000Y-103041543D01*
X207295000Y-103050000D01*
X207720000Y-103050000D01*
X208220000Y-103050000D01*
X208644999Y-103050000D01*
X208644999Y-103041550D01*
X208629237Y-102942032D01*
X208568116Y-102822076D01*
X208568113Y-102822071D01*
X208472928Y-102726886D01*
X208472923Y-102726883D01*
X208352965Y-102665760D01*
X208352966Y-102665760D01*
X208253456Y-102650000D01*
X208220000Y-102650000D01*
X208220000Y-103050000D01*
X207720000Y-103050000D01*
X207720000Y-102649999D01*
X207686555Y-102650000D01*
X207587032Y-102665762D01*
X207467076Y-102726883D01*
X207467071Y-102726886D01*
X207371886Y-102822071D01*
X207371883Y-102822076D01*
X207310760Y-102942033D01*
X207295000Y-103041543D01*
X202430500Y-103041543D01*
X202430500Y-102581250D01*
X202450185Y-102514211D01*
X202502989Y-102468456D01*
X202572147Y-102458512D01*
X202623390Y-102478148D01*
X202702400Y-102530940D01*
X202702401Y-102530940D01*
X202702402Y-102530941D01*
X202893580Y-102610130D01*
X203094016Y-102649999D01*
X203096530Y-102650499D01*
X203096534Y-102650500D01*
X203096535Y-102650500D01*
X203303466Y-102650500D01*
X203303467Y-102650499D01*
X203506420Y-102610130D01*
X203697598Y-102530941D01*
X203869655Y-102415977D01*
X204015977Y-102269655D01*
X204130941Y-102097598D01*
X204200136Y-101930546D01*
X204243977Y-101876144D01*
X204310271Y-101854079D01*
X204314697Y-101854000D01*
X207170500Y-101854000D01*
X207237539Y-101873685D01*
G37*
%TD.AperFunction*%
%TD*%
%TA.AperFunction,Conductor*%
%TO.N,GND*%
G36*
X204728518Y-57670185D02*
G01*
X204774273Y-57722989D01*
X204784217Y-57792147D01*
X204771964Y-57830795D01*
X204740760Y-57892033D01*
X204725000Y-57991543D01*
X204725000Y-58000000D01*
X206074999Y-58000000D01*
X206074999Y-57991550D01*
X206059237Y-57892032D01*
X206028036Y-57830795D01*
X206015140Y-57762125D01*
X206041416Y-57697385D01*
X206098523Y-57657128D01*
X206138521Y-57650500D01*
X227426000Y-57650500D01*
X227493039Y-57670185D01*
X227538794Y-57722989D01*
X227550000Y-57774500D01*
X227550000Y-58170000D01*
X228166988Y-58170000D01*
X228134075Y-58227007D01*
X228100000Y-58354174D01*
X228100000Y-58485826D01*
X228134075Y-58612993D01*
X228166988Y-58670000D01*
X227550000Y-58670000D01*
X227550000Y-59289702D01*
X227561602Y-59348033D01*
X227561603Y-59348034D01*
X227605808Y-59414191D01*
X227671965Y-59458396D01*
X227671966Y-59458397D01*
X227730297Y-59469999D01*
X227730301Y-59470000D01*
X228350000Y-59470000D01*
X228350000Y-58853012D01*
X228407007Y-58885925D01*
X228534174Y-58920000D01*
X228665826Y-58920000D01*
X228792993Y-58885925D01*
X228850000Y-58853012D01*
X228850000Y-59470000D01*
X229245500Y-59470000D01*
X229312539Y-59489685D01*
X229358294Y-59542489D01*
X229369500Y-59594000D01*
X229369500Y-59978749D01*
X229349815Y-60045788D01*
X229297011Y-60091543D01*
X229227853Y-60101487D01*
X229176611Y-60081852D01*
X229097598Y-60029059D01*
X228906420Y-59949870D01*
X228906412Y-59949868D01*
X228703469Y-59909500D01*
X228703465Y-59909500D01*
X228496535Y-59909500D01*
X228496530Y-59909500D01*
X228293587Y-59949868D01*
X228293579Y-59949870D01*
X228102403Y-60029058D01*
X227930342Y-60144024D01*
X227784024Y-60290342D01*
X227669058Y-60462403D01*
X227589870Y-60653579D01*
X227589868Y-60653587D01*
X227549500Y-60856530D01*
X227549500Y-61063469D01*
X227579254Y-61213050D01*
X227589870Y-61266420D01*
X227669059Y-61457598D01*
X227710428Y-61519511D01*
X227784024Y-61629657D01*
X227930342Y-61775975D01*
X227930345Y-61775977D01*
X228102402Y-61890941D01*
X228293580Y-61970130D01*
X228496530Y-62010499D01*
X228496534Y-62010500D01*
X228496535Y-62010500D01*
X228703466Y-62010500D01*
X228703467Y-62010499D01*
X228906420Y-61970130D01*
X229097598Y-61890941D01*
X229097599Y-61890940D01*
X229097600Y-61890940D01*
X229176610Y-61838148D01*
X229243287Y-61817270D01*
X229310667Y-61835755D01*
X229357357Y-61887734D01*
X229369500Y-61941250D01*
X229369500Y-62518749D01*
X229349815Y-62585788D01*
X229297011Y-62631543D01*
X229227853Y-62641487D01*
X229176611Y-62621852D01*
X229097598Y-62569059D01*
X228906420Y-62489870D01*
X228906412Y-62489868D01*
X228703469Y-62449500D01*
X228703465Y-62449500D01*
X228496535Y-62449500D01*
X228496530Y-62449500D01*
X228293587Y-62489868D01*
X228293579Y-62489870D01*
X228102403Y-62569058D01*
X227930342Y-62684024D01*
X227784024Y-62830342D01*
X227669058Y-63002403D01*
X227589870Y-63193579D01*
X227589868Y-63193587D01*
X227549500Y-63396530D01*
X227549500Y-63603469D01*
X227589868Y-63806412D01*
X227589870Y-63806420D01*
X227669058Y-63997596D01*
X227784024Y-64169657D01*
X227930342Y-64315975D01*
X227930345Y-64315977D01*
X228102402Y-64430941D01*
X228293580Y-64510130D01*
X228496530Y-64550499D01*
X228496534Y-64550500D01*
X228496535Y-64550500D01*
X228703466Y-64550500D01*
X228703467Y-64550499D01*
X228906420Y-64510130D01*
X229097598Y-64430941D01*
X229097599Y-64430940D01*
X229097600Y-64430940D01*
X229176610Y-64378148D01*
X229243287Y-64357270D01*
X229310667Y-64375755D01*
X229357357Y-64427734D01*
X229369500Y-64481250D01*
X229369500Y-65058749D01*
X229349815Y-65125788D01*
X229297011Y-65171543D01*
X229227853Y-65181487D01*
X229176611Y-65161852D01*
X229097598Y-65109059D01*
X228906420Y-65029870D01*
X228906412Y-65029868D01*
X228703469Y-64989500D01*
X228703465Y-64989500D01*
X228496535Y-64989500D01*
X228496530Y-64989500D01*
X228293587Y-65029868D01*
X228293579Y-65029870D01*
X228102403Y-65109058D01*
X227930342Y-65224024D01*
X227784024Y-65370342D01*
X227669058Y-65542403D01*
X227589870Y-65733579D01*
X227589868Y-65733587D01*
X227549500Y-65936530D01*
X227549500Y-66143469D01*
X227589868Y-66346412D01*
X227589870Y-66346420D01*
X227669058Y-66537596D01*
X227784024Y-66709657D01*
X227930342Y-66855975D01*
X227930345Y-66855977D01*
X228102402Y-66970941D01*
X228293580Y-67050130D01*
X228496530Y-67090499D01*
X228496534Y-67090500D01*
X228496535Y-67090500D01*
X228703466Y-67090500D01*
X228703467Y-67090499D01*
X228906420Y-67050130D01*
X229097598Y-66970941D01*
X229097599Y-66970940D01*
X229097600Y-66970940D01*
X229176610Y-66918148D01*
X229243287Y-66897270D01*
X229310667Y-66915755D01*
X229357357Y-66967734D01*
X229369500Y-67021250D01*
X229369500Y-67598749D01*
X229349815Y-67665788D01*
X229297011Y-67711543D01*
X229227853Y-67721487D01*
X229176611Y-67701852D01*
X229097598Y-67649059D01*
X228906420Y-67569870D01*
X228906412Y-67569868D01*
X228703469Y-67529500D01*
X228703465Y-67529500D01*
X228496535Y-67529500D01*
X228496530Y-67529500D01*
X228293587Y-67569868D01*
X228293579Y-67569870D01*
X228102403Y-67649058D01*
X227930342Y-67764024D01*
X227784024Y-67910342D01*
X227669058Y-68082403D01*
X227589870Y-68273579D01*
X227589868Y-68273587D01*
X227549500Y-68476530D01*
X227549500Y-68683469D01*
X227589868Y-68886412D01*
X227589870Y-68886420D01*
X227669058Y-69077596D01*
X227784024Y-69249657D01*
X227930342Y-69395975D01*
X227930345Y-69395977D01*
X228102402Y-69510941D01*
X228293580Y-69590130D01*
X228496530Y-69630499D01*
X228496534Y-69630500D01*
X228496535Y-69630500D01*
X228703466Y-69630500D01*
X228703467Y-69630499D01*
X228906420Y-69590130D01*
X229097598Y-69510941D01*
X229097599Y-69510940D01*
X229097600Y-69510940D01*
X229176610Y-69458148D01*
X229243287Y-69437270D01*
X229310667Y-69455755D01*
X229357357Y-69507734D01*
X229369500Y-69561250D01*
X229369500Y-70138749D01*
X229349815Y-70205788D01*
X229297011Y-70251543D01*
X229227853Y-70261487D01*
X229176611Y-70241852D01*
X229097598Y-70189059D01*
X228906420Y-70109870D01*
X228906412Y-70109868D01*
X228703469Y-70069500D01*
X228703465Y-70069500D01*
X228496535Y-70069500D01*
X228496530Y-70069500D01*
X228293587Y-70109868D01*
X228293579Y-70109870D01*
X228102403Y-70189058D01*
X227930342Y-70304024D01*
X227784024Y-70450342D01*
X227669058Y-70622403D01*
X227589870Y-70813579D01*
X227589868Y-70813587D01*
X227549500Y-71016530D01*
X227549500Y-71223469D01*
X227589868Y-71426412D01*
X227589870Y-71426420D01*
X227669058Y-71617596D01*
X227784024Y-71789657D01*
X227930342Y-71935975D01*
X227930345Y-71935977D01*
X228102402Y-72050941D01*
X228293580Y-72130130D01*
X228496530Y-72170499D01*
X228496534Y-72170500D01*
X228496535Y-72170500D01*
X228703466Y-72170500D01*
X228703467Y-72170499D01*
X228906420Y-72130130D01*
X229097598Y-72050941D01*
X229097599Y-72050940D01*
X229097600Y-72050940D01*
X229176610Y-71998148D01*
X229243287Y-71977270D01*
X229310667Y-71995755D01*
X229357357Y-72047734D01*
X229369500Y-72101250D01*
X229369500Y-72678749D01*
X229349815Y-72745788D01*
X229297011Y-72791543D01*
X229227853Y-72801487D01*
X229176611Y-72781852D01*
X229097598Y-72729059D01*
X228906420Y-72649870D01*
X228906412Y-72649868D01*
X228703469Y-72609500D01*
X228703465Y-72609500D01*
X228496535Y-72609500D01*
X228496530Y-72609500D01*
X228293587Y-72649868D01*
X228293579Y-72649870D01*
X228102403Y-72729058D01*
X227930342Y-72844024D01*
X227784024Y-72990342D01*
X227669058Y-73162403D01*
X227589870Y-73353579D01*
X227589868Y-73353587D01*
X227549500Y-73556530D01*
X227549500Y-73763469D01*
X227589868Y-73966412D01*
X227589870Y-73966420D01*
X227657233Y-74129049D01*
X227669059Y-74157598D01*
X227670799Y-74160202D01*
X227784024Y-74329657D01*
X227930342Y-74475975D01*
X227930345Y-74475977D01*
X228102402Y-74590941D01*
X228293580Y-74670130D01*
X228496530Y-74710499D01*
X228496534Y-74710500D01*
X228496535Y-74710500D01*
X228703466Y-74710500D01*
X228703467Y-74710499D01*
X228906420Y-74670130D01*
X229097598Y-74590941D01*
X229097599Y-74590940D01*
X229097600Y-74590940D01*
X229176610Y-74538148D01*
X229243287Y-74517270D01*
X229310667Y-74535755D01*
X229357357Y-74587734D01*
X229369500Y-74641250D01*
X229369500Y-75218749D01*
X229349815Y-75285788D01*
X229297011Y-75331543D01*
X229227853Y-75341487D01*
X229176611Y-75321852D01*
X229097598Y-75269059D01*
X228906420Y-75189870D01*
X228906412Y-75189868D01*
X228703469Y-75149500D01*
X228703465Y-75149500D01*
X228496535Y-75149500D01*
X228496530Y-75149500D01*
X228293587Y-75189868D01*
X228293579Y-75189870D01*
X228102403Y-75269058D01*
X227930342Y-75384024D01*
X227784024Y-75530342D01*
X227669058Y-75702403D01*
X227589870Y-75893579D01*
X227589868Y-75893587D01*
X227549500Y-76096530D01*
X227549500Y-76303469D01*
X227589868Y-76506412D01*
X227589870Y-76506420D01*
X227669058Y-76697596D01*
X227784024Y-76869657D01*
X227930342Y-77015975D01*
X227930345Y-77015977D01*
X228102402Y-77130941D01*
X228293580Y-77210130D01*
X228496530Y-77250499D01*
X228496534Y-77250500D01*
X228496535Y-77250500D01*
X228703466Y-77250500D01*
X228703467Y-77250499D01*
X228906420Y-77210130D01*
X229097598Y-77130941D01*
X229097599Y-77130940D01*
X229097600Y-77130940D01*
X229176610Y-77078148D01*
X229243287Y-77057270D01*
X229310667Y-77075755D01*
X229357357Y-77127734D01*
X229369500Y-77181250D01*
X229369500Y-77758749D01*
X229349815Y-77825788D01*
X229297011Y-77871543D01*
X229227853Y-77881487D01*
X229176611Y-77861852D01*
X229097598Y-77809059D01*
X228906420Y-77729870D01*
X228906412Y-77729868D01*
X228703469Y-77689500D01*
X228703465Y-77689500D01*
X228496535Y-77689500D01*
X228496530Y-77689500D01*
X228293587Y-77729868D01*
X228293579Y-77729870D01*
X228102403Y-77809058D01*
X227930342Y-77924024D01*
X227784024Y-78070342D01*
X227669058Y-78242403D01*
X227589870Y-78433579D01*
X227589868Y-78433587D01*
X227549500Y-78636530D01*
X227549500Y-78843469D01*
X227589868Y-79046412D01*
X227589870Y-79046420D01*
X227669058Y-79237596D01*
X227784024Y-79409657D01*
X227930342Y-79555975D01*
X227930345Y-79555977D01*
X228102402Y-79670941D01*
X228293580Y-79750130D01*
X228496530Y-79790499D01*
X228496534Y-79790500D01*
X228496535Y-79790500D01*
X228703466Y-79790500D01*
X228703467Y-79790499D01*
X228906420Y-79750130D01*
X229097598Y-79670941D01*
X229097599Y-79670940D01*
X229097600Y-79670940D01*
X229176610Y-79618148D01*
X229243287Y-79597270D01*
X229310667Y-79615755D01*
X229357357Y-79667734D01*
X229369500Y-79721250D01*
X229369500Y-80298749D01*
X229349815Y-80365788D01*
X229297011Y-80411543D01*
X229227853Y-80421487D01*
X229176611Y-80401852D01*
X229097598Y-80349059D01*
X228906420Y-80269870D01*
X228906412Y-80269868D01*
X228703469Y-80229500D01*
X228703465Y-80229500D01*
X228496535Y-80229500D01*
X228496530Y-80229500D01*
X228293587Y-80269868D01*
X228293579Y-80269870D01*
X228102403Y-80349058D01*
X227930342Y-80464024D01*
X227784024Y-80610342D01*
X227669058Y-80782403D01*
X227589870Y-80973579D01*
X227589868Y-80973587D01*
X227549500Y-81176530D01*
X227549500Y-81383469D01*
X227589868Y-81586412D01*
X227589870Y-81586420D01*
X227669058Y-81777596D01*
X227784024Y-81949657D01*
X227930342Y-82095975D01*
X227930345Y-82095977D01*
X228102402Y-82210941D01*
X228293580Y-82290130D01*
X228496530Y-82330499D01*
X228496534Y-82330500D01*
X228496535Y-82330500D01*
X228703466Y-82330500D01*
X228703467Y-82330499D01*
X228906420Y-82290130D01*
X229097598Y-82210941D01*
X229097599Y-82210940D01*
X229097600Y-82210940D01*
X229176610Y-82158148D01*
X229243287Y-82137270D01*
X229310667Y-82155755D01*
X229357357Y-82207734D01*
X229369500Y-82261250D01*
X229369500Y-82838749D01*
X229349815Y-82905788D01*
X229297011Y-82951543D01*
X229227853Y-82961487D01*
X229176611Y-82941852D01*
X229097598Y-82889059D01*
X228906420Y-82809870D01*
X228906412Y-82809868D01*
X228703469Y-82769500D01*
X228703465Y-82769500D01*
X228496535Y-82769500D01*
X228496530Y-82769500D01*
X228293587Y-82809868D01*
X228293579Y-82809870D01*
X228102403Y-82889058D01*
X227930342Y-83004024D01*
X227784024Y-83150342D01*
X227669058Y-83322403D01*
X227589870Y-83513579D01*
X227589868Y-83513587D01*
X227549500Y-83716530D01*
X227549500Y-83923469D01*
X227589868Y-84126412D01*
X227589870Y-84126420D01*
X227668701Y-84316735D01*
X227669059Y-84317598D01*
X227680751Y-84335096D01*
X227784024Y-84489657D01*
X227930342Y-84635975D01*
X227930345Y-84635977D01*
X228102402Y-84750941D01*
X228293580Y-84830130D01*
X228477627Y-84866739D01*
X228496530Y-84870499D01*
X228496534Y-84870500D01*
X228496535Y-84870500D01*
X228703466Y-84870500D01*
X228703467Y-84870499D01*
X228906420Y-84830130D01*
X229097598Y-84750941D01*
X229097599Y-84750940D01*
X229097600Y-84750940D01*
X229176610Y-84698148D01*
X229243287Y-84677270D01*
X229310667Y-84695755D01*
X229357357Y-84747734D01*
X229369500Y-84801250D01*
X229369500Y-85378749D01*
X229349815Y-85445788D01*
X229297011Y-85491543D01*
X229227853Y-85501487D01*
X229176611Y-85481852D01*
X229097598Y-85429059D01*
X228906420Y-85349870D01*
X228906412Y-85349868D01*
X228703469Y-85309500D01*
X228703465Y-85309500D01*
X228496535Y-85309500D01*
X228496530Y-85309500D01*
X228293587Y-85349868D01*
X228293579Y-85349870D01*
X228102403Y-85429058D01*
X227930342Y-85544024D01*
X227784024Y-85690342D01*
X227669058Y-85862403D01*
X227589870Y-86053579D01*
X227589868Y-86053587D01*
X227549500Y-86256530D01*
X227549500Y-86463469D01*
X227589868Y-86666412D01*
X227589870Y-86666420D01*
X227669058Y-86857596D01*
X227784024Y-87029657D01*
X227930342Y-87175975D01*
X227930345Y-87175977D01*
X228102402Y-87290941D01*
X228293580Y-87370130D01*
X228496530Y-87410499D01*
X228496534Y-87410500D01*
X228496535Y-87410500D01*
X228703466Y-87410500D01*
X228703467Y-87410499D01*
X228906420Y-87370130D01*
X229097598Y-87290941D01*
X229097599Y-87290940D01*
X229097600Y-87290940D01*
X229176610Y-87238148D01*
X229243287Y-87217270D01*
X229310667Y-87235755D01*
X229357357Y-87287734D01*
X229369500Y-87341250D01*
X229369500Y-87918749D01*
X229349815Y-87985788D01*
X229297011Y-88031543D01*
X229227853Y-88041487D01*
X229176611Y-88021852D01*
X229097598Y-87969059D01*
X228906420Y-87889870D01*
X228906412Y-87889868D01*
X228703469Y-87849500D01*
X228703465Y-87849500D01*
X228496535Y-87849500D01*
X228496530Y-87849500D01*
X228293587Y-87889868D01*
X228293579Y-87889870D01*
X228102403Y-87969058D01*
X227930342Y-88084024D01*
X227784024Y-88230342D01*
X227669058Y-88402403D01*
X227589870Y-88593579D01*
X227589868Y-88593587D01*
X227549500Y-88796530D01*
X227549500Y-89003469D01*
X227589868Y-89206412D01*
X227589870Y-89206420D01*
X227657993Y-89370884D01*
X227669059Y-89397598D01*
X227669239Y-89397867D01*
X227784024Y-89569657D01*
X227930342Y-89715975D01*
X227930345Y-89715977D01*
X228102402Y-89830941D01*
X228293580Y-89910130D01*
X228496530Y-89950499D01*
X228496534Y-89950500D01*
X228496535Y-89950500D01*
X228703466Y-89950500D01*
X228703467Y-89950499D01*
X228906420Y-89910130D01*
X229097598Y-89830941D01*
X229097599Y-89830940D01*
X229097600Y-89830940D01*
X229176610Y-89778148D01*
X229243287Y-89757270D01*
X229310667Y-89775755D01*
X229357357Y-89827734D01*
X229369500Y-89881250D01*
X229369500Y-90458749D01*
X229349815Y-90525788D01*
X229297011Y-90571543D01*
X229227853Y-90581487D01*
X229176611Y-90561852D01*
X229097598Y-90509059D01*
X228906420Y-90429870D01*
X228906412Y-90429868D01*
X228703469Y-90389500D01*
X228703465Y-90389500D01*
X228496535Y-90389500D01*
X228496530Y-90389500D01*
X228293587Y-90429868D01*
X228293579Y-90429870D01*
X228102403Y-90509058D01*
X227930342Y-90624024D01*
X227784024Y-90770342D01*
X227669058Y-90942403D01*
X227589870Y-91133579D01*
X227589868Y-91133587D01*
X227549500Y-91336530D01*
X227549500Y-91543469D01*
X227589868Y-91746412D01*
X227589870Y-91746420D01*
X227669058Y-91937596D01*
X227784024Y-92109657D01*
X227930342Y-92255975D01*
X227930345Y-92255977D01*
X228102402Y-92370941D01*
X228293580Y-92450130D01*
X228469131Y-92485049D01*
X228496530Y-92490499D01*
X228496534Y-92490500D01*
X228496535Y-92490500D01*
X228703466Y-92490500D01*
X228703467Y-92490499D01*
X228906420Y-92450130D01*
X229097598Y-92370941D01*
X229097599Y-92370940D01*
X229097600Y-92370940D01*
X229176610Y-92318148D01*
X229243287Y-92297270D01*
X229310667Y-92315755D01*
X229357357Y-92367734D01*
X229369500Y-92421250D01*
X229369500Y-92998749D01*
X229349815Y-93065788D01*
X229297011Y-93111543D01*
X229227853Y-93121487D01*
X229176611Y-93101852D01*
X229097598Y-93049059D01*
X228906420Y-92969870D01*
X228906412Y-92969868D01*
X228703469Y-92929500D01*
X228703465Y-92929500D01*
X228496535Y-92929500D01*
X228496530Y-92929500D01*
X228293587Y-92969868D01*
X228293579Y-92969870D01*
X228102403Y-93049058D01*
X227930342Y-93164024D01*
X227784024Y-93310342D01*
X227669058Y-93482403D01*
X227589870Y-93673579D01*
X227589868Y-93673587D01*
X227549500Y-93876530D01*
X227549500Y-94083469D01*
X227589868Y-94286412D01*
X227589870Y-94286420D01*
X227665808Y-94469751D01*
X227669059Y-94477598D01*
X227687125Y-94504636D01*
X227784024Y-94649657D01*
X227930342Y-94795975D01*
X227930345Y-94795977D01*
X228102402Y-94910941D01*
X228293580Y-94990130D01*
X228466371Y-95024500D01*
X228496530Y-95030499D01*
X228496534Y-95030500D01*
X228496535Y-95030500D01*
X228703466Y-95030500D01*
X228703467Y-95030499D01*
X228906420Y-94990130D01*
X229097598Y-94910941D01*
X229097599Y-94910940D01*
X229097600Y-94910940D01*
X229176610Y-94858148D01*
X229243287Y-94837270D01*
X229310667Y-94855755D01*
X229357357Y-94907734D01*
X229369500Y-94961250D01*
X229369500Y-95538749D01*
X229349815Y-95605788D01*
X229297011Y-95651543D01*
X229227853Y-95661487D01*
X229176611Y-95641852D01*
X229097598Y-95589059D01*
X228906420Y-95509870D01*
X228906412Y-95509868D01*
X228703469Y-95469500D01*
X228703465Y-95469500D01*
X228496535Y-95469500D01*
X228496530Y-95469500D01*
X228293587Y-95509868D01*
X228293579Y-95509870D01*
X228102403Y-95589058D01*
X227930342Y-95704024D01*
X227784024Y-95850342D01*
X227669058Y-96022403D01*
X227589870Y-96213579D01*
X227589868Y-96213587D01*
X227549500Y-96416530D01*
X227549500Y-96623469D01*
X227589868Y-96826412D01*
X227589870Y-96826420D01*
X227669058Y-97017596D01*
X227784024Y-97189657D01*
X227930342Y-97335975D01*
X227930345Y-97335977D01*
X228102402Y-97450941D01*
X228293580Y-97530130D01*
X228496530Y-97570499D01*
X228496534Y-97570500D01*
X228496535Y-97570500D01*
X228703466Y-97570500D01*
X228703467Y-97570499D01*
X228906420Y-97530130D01*
X229097598Y-97450941D01*
X229097599Y-97450940D01*
X229097600Y-97450940D01*
X229176610Y-97398148D01*
X229243287Y-97377270D01*
X229310667Y-97395755D01*
X229357357Y-97447734D01*
X229369500Y-97501250D01*
X229369500Y-98078749D01*
X229349815Y-98145788D01*
X229297011Y-98191543D01*
X229227853Y-98201487D01*
X229176611Y-98181852D01*
X229097598Y-98129059D01*
X228906420Y-98049870D01*
X228906412Y-98049868D01*
X228703469Y-98009500D01*
X228703465Y-98009500D01*
X228496535Y-98009500D01*
X228496530Y-98009500D01*
X228293587Y-98049868D01*
X228293579Y-98049870D01*
X228102403Y-98129058D01*
X227930342Y-98244024D01*
X227784024Y-98390342D01*
X227669058Y-98562403D01*
X227589870Y-98753579D01*
X227589868Y-98753587D01*
X227549500Y-98956530D01*
X227549500Y-99163469D01*
X227589868Y-99366412D01*
X227589870Y-99366420D01*
X227669058Y-99557596D01*
X227784024Y-99729657D01*
X227930342Y-99875975D01*
X227930345Y-99875977D01*
X228102402Y-99990941D01*
X228293580Y-100070130D01*
X228496530Y-100110499D01*
X228496534Y-100110500D01*
X228496535Y-100110500D01*
X228703466Y-100110500D01*
X228703467Y-100110499D01*
X228906420Y-100070130D01*
X229097598Y-99990941D01*
X229097599Y-99990940D01*
X229097600Y-99990940D01*
X229176610Y-99938148D01*
X229243287Y-99917270D01*
X229310667Y-99935755D01*
X229357357Y-99987734D01*
X229369500Y-100041250D01*
X229369500Y-100618749D01*
X229349815Y-100685788D01*
X229297011Y-100731543D01*
X229227853Y-100741487D01*
X229176611Y-100721852D01*
X229097598Y-100669059D01*
X228906420Y-100589870D01*
X228906412Y-100589868D01*
X228703469Y-100549500D01*
X228703465Y-100549500D01*
X228496535Y-100549500D01*
X228496530Y-100549500D01*
X228293587Y-100589868D01*
X228293579Y-100589870D01*
X228102403Y-100669058D01*
X227930342Y-100784024D01*
X227784024Y-100930342D01*
X227669058Y-101102403D01*
X227589870Y-101293579D01*
X227589868Y-101293587D01*
X227549500Y-101496530D01*
X227549500Y-101703469D01*
X227589868Y-101906412D01*
X227589870Y-101906420D01*
X227669058Y-102097596D01*
X227784024Y-102269657D01*
X227930342Y-102415975D01*
X227930345Y-102415977D01*
X228102402Y-102530941D01*
X228293580Y-102610130D01*
X228496530Y-102650499D01*
X228496534Y-102650500D01*
X228496535Y-102650500D01*
X228703466Y-102650500D01*
X228703467Y-102650499D01*
X228906420Y-102610130D01*
X229097598Y-102530941D01*
X229097599Y-102530940D01*
X229097600Y-102530940D01*
X229176610Y-102478148D01*
X229243287Y-102457270D01*
X229310667Y-102475755D01*
X229357357Y-102527734D01*
X229369500Y-102581250D01*
X229369500Y-113675500D01*
X229349815Y-113742539D01*
X229297011Y-113788294D01*
X229245500Y-113799500D01*
X214451500Y-113799500D01*
X214384461Y-113779815D01*
X214338706Y-113727011D01*
X214327500Y-113675500D01*
X214327500Y-111316126D01*
X218460000Y-111316126D01*
X218460000Y-111440000D01*
X218910000Y-111440000D01*
X218910000Y-111940000D01*
X218460000Y-111940000D01*
X218460000Y-112063873D01*
X218488820Y-112208759D01*
X218488822Y-112208767D01*
X218545357Y-112345254D01*
X218545362Y-112345264D01*
X218627436Y-112468096D01*
X218627439Y-112468100D01*
X218731899Y-112572560D01*
X218731907Y-112572566D01*
X218854739Y-112654640D01*
X218854743Y-112654642D01*
X218959999Y-112698240D01*
X218960000Y-112698240D01*
X218960000Y-112156988D01*
X218969940Y-112174205D01*
X219025795Y-112230060D01*
X219094204Y-112269556D01*
X219170504Y-112290000D01*
X219249496Y-112290000D01*
X219325796Y-112269556D01*
X219394205Y-112230060D01*
X219450060Y-112174205D01*
X219460000Y-112156988D01*
X219460000Y-112698240D01*
X219565256Y-112654642D01*
X219565260Y-112654640D01*
X219688092Y-112572566D01*
X219688100Y-112572560D01*
X219792560Y-112468100D01*
X219792563Y-112468096D01*
X219874637Y-112345264D01*
X219874642Y-112345254D01*
X219931177Y-112208767D01*
X219931179Y-112208759D01*
X219959999Y-112063873D01*
X219960000Y-112063871D01*
X219960000Y-111940000D01*
X219510000Y-111940000D01*
X219510000Y-111867708D01*
X221925000Y-111867708D01*
X221927770Y-111897250D01*
X221927772Y-111897262D01*
X221971329Y-112021737D01*
X222049646Y-112127853D01*
X222155762Y-112206170D01*
X222280237Y-112249727D01*
X222280249Y-112249729D01*
X222309792Y-112252500D01*
X222350000Y-112252500D01*
X222850000Y-112252500D01*
X222890208Y-112252500D01*
X222919750Y-112249729D01*
X222919762Y-112249727D01*
X223044237Y-112206170D01*
X223150353Y-112127853D01*
X223228670Y-112021737D01*
X223272227Y-111897262D01*
X223272229Y-111897250D01*
X223275000Y-111867708D01*
X223745000Y-111867708D01*
X223747770Y-111897250D01*
X223747772Y-111897262D01*
X223791329Y-112021737D01*
X223869646Y-112127853D01*
X223975762Y-112206170D01*
X224100237Y-112249727D01*
X224100249Y-112249729D01*
X224129792Y-112252500D01*
X224170000Y-112252500D01*
X224670000Y-112252500D01*
X224710208Y-112252500D01*
X224739750Y-112249729D01*
X224739762Y-112249727D01*
X224864237Y-112206170D01*
X224970353Y-112127853D01*
X225048670Y-112021737D01*
X225092227Y-111897262D01*
X225092229Y-111897250D01*
X225094122Y-111877066D01*
X225094122Y-111877063D01*
X225095000Y-111867698D01*
X225095000Y-111815000D01*
X224670000Y-111815000D01*
X224670000Y-112252500D01*
X224170000Y-112252500D01*
X224170000Y-111815000D01*
X223745000Y-111815000D01*
X223745000Y-111867708D01*
X223275000Y-111867708D01*
X223275000Y-111815000D01*
X222850000Y-111815000D01*
X222850000Y-112252500D01*
X222350000Y-112252500D01*
X222350000Y-111815000D01*
X221925000Y-111815000D01*
X221925000Y-111867708D01*
X219510000Y-111867708D01*
X219510000Y-111440000D01*
X219960000Y-111440000D01*
X219960000Y-111316129D01*
X219959999Y-111316126D01*
X227100000Y-111316126D01*
X227100000Y-111440000D01*
X227550000Y-111440000D01*
X227550000Y-111940000D01*
X227100000Y-111940000D01*
X227100000Y-112063873D01*
X227128820Y-112208759D01*
X227128822Y-112208767D01*
X227185357Y-112345254D01*
X227185362Y-112345264D01*
X227267436Y-112468096D01*
X227267439Y-112468100D01*
X227371899Y-112572560D01*
X227371907Y-112572566D01*
X227494739Y-112654640D01*
X227494743Y-112654642D01*
X227599999Y-112698240D01*
X227600000Y-112698240D01*
X227600000Y-112156988D01*
X227609940Y-112174205D01*
X227665795Y-112230060D01*
X227734204Y-112269556D01*
X227810504Y-112290000D01*
X227889496Y-112290000D01*
X227965796Y-112269556D01*
X228034205Y-112230060D01*
X228090060Y-112174205D01*
X228100000Y-112156988D01*
X228100000Y-112698240D01*
X228205256Y-112654642D01*
X228205260Y-112654640D01*
X228328092Y-112572566D01*
X228328100Y-112572560D01*
X228432560Y-112468100D01*
X228432563Y-112468096D01*
X228514637Y-112345264D01*
X228514642Y-112345254D01*
X228571177Y-112208767D01*
X228571179Y-112208759D01*
X228599999Y-112063873D01*
X228600000Y-112063871D01*
X228600000Y-111940000D01*
X228150000Y-111940000D01*
X228150000Y-111440000D01*
X228600000Y-111440000D01*
X228600000Y-111316128D01*
X228599999Y-111316126D01*
X228571179Y-111171240D01*
X228571177Y-111171232D01*
X228514642Y-111034745D01*
X228514637Y-111034735D01*
X228432563Y-110911903D01*
X228432560Y-110911899D01*
X228328100Y-110807439D01*
X228328096Y-110807436D01*
X228205264Y-110725362D01*
X228205254Y-110725357D01*
X228100000Y-110681759D01*
X228100000Y-111223011D01*
X228090060Y-111205795D01*
X228034205Y-111149940D01*
X227965796Y-111110444D01*
X227889496Y-111090000D01*
X227810504Y-111090000D01*
X227734204Y-111110444D01*
X227665795Y-111149940D01*
X227609940Y-111205795D01*
X227600000Y-111223011D01*
X227600000Y-110681759D01*
X227599999Y-110681759D01*
X227494745Y-110725357D01*
X227494735Y-110725362D01*
X227371903Y-110807436D01*
X227371899Y-110807439D01*
X227267439Y-110911899D01*
X227267436Y-110911903D01*
X227185362Y-111034735D01*
X227185357Y-111034745D01*
X227128822Y-111171232D01*
X227128820Y-111171240D01*
X227100000Y-111316126D01*
X219959999Y-111316126D01*
X219953527Y-111283590D01*
X219953527Y-111283588D01*
X219949291Y-111262291D01*
X221925000Y-111262291D01*
X221925000Y-111315000D01*
X222350000Y-111315000D01*
X222850000Y-111315000D01*
X223275000Y-111315000D01*
X223275000Y-111262291D01*
X223745000Y-111262291D01*
X223745000Y-111315000D01*
X224170000Y-111315000D01*
X224670000Y-111315000D01*
X225095000Y-111315000D01*
X225095000Y-111262291D01*
X225092229Y-111232749D01*
X225092227Y-111232737D01*
X225048670Y-111108262D01*
X224970353Y-111002146D01*
X224864237Y-110923829D01*
X224739762Y-110880272D01*
X224739750Y-110880270D01*
X224710208Y-110877500D01*
X224670000Y-110877500D01*
X224670000Y-111315000D01*
X224170000Y-111315000D01*
X224170000Y-110877500D01*
X224129792Y-110877500D01*
X224100249Y-110880270D01*
X224100237Y-110880272D01*
X223975762Y-110923829D01*
X223869646Y-111002146D01*
X223791329Y-111108262D01*
X223747772Y-111232737D01*
X223747770Y-111232749D01*
X223745000Y-111262291D01*
X223275000Y-111262291D01*
X223272229Y-111232749D01*
X223272227Y-111232737D01*
X223228670Y-111108262D01*
X223150353Y-111002146D01*
X223044237Y-110923829D01*
X222919762Y-110880272D01*
X222919750Y-110880270D01*
X222890208Y-110877500D01*
X222850000Y-110877500D01*
X222850000Y-111315000D01*
X222350000Y-111315000D01*
X222350000Y-110877500D01*
X222309792Y-110877500D01*
X222280249Y-110880270D01*
X222280237Y-110880272D01*
X222155762Y-110923829D01*
X222049646Y-111002146D01*
X221971329Y-111108262D01*
X221927772Y-111232737D01*
X221927770Y-111232749D01*
X221925000Y-111262291D01*
X219949291Y-111262291D01*
X219931179Y-111171240D01*
X219931177Y-111171232D01*
X219874642Y-111034745D01*
X219874637Y-111034735D01*
X219792563Y-110911903D01*
X219792560Y-110911899D01*
X219688100Y-110807439D01*
X219688096Y-110807436D01*
X219565264Y-110725362D01*
X219565254Y-110725357D01*
X219460000Y-110681759D01*
X219460000Y-111223011D01*
X219450060Y-111205795D01*
X219394205Y-111149940D01*
X219325796Y-111110444D01*
X219249496Y-111090000D01*
X219170504Y-111090000D01*
X219094204Y-111110444D01*
X219025795Y-111149940D01*
X218969940Y-111205795D01*
X218960000Y-111223011D01*
X218960000Y-110681759D01*
X218959999Y-110681759D01*
X218854745Y-110725357D01*
X218854735Y-110725362D01*
X218731903Y-110807436D01*
X218731899Y-110807439D01*
X218627439Y-110911899D01*
X218627436Y-110911903D01*
X218545362Y-111034735D01*
X218545357Y-111034745D01*
X218488822Y-111171232D01*
X218488820Y-111171240D01*
X218460000Y-111316126D01*
X214327500Y-111316126D01*
X214327500Y-107516126D01*
X218460000Y-107516126D01*
X218460000Y-107640000D01*
X218910000Y-107640000D01*
X218910000Y-108140000D01*
X218460000Y-108140000D01*
X218460000Y-108263873D01*
X218488820Y-108408759D01*
X218488822Y-108408767D01*
X218545357Y-108545254D01*
X218545362Y-108545264D01*
X218627436Y-108668096D01*
X218627439Y-108668100D01*
X218731899Y-108772560D01*
X218731907Y-108772566D01*
X218854739Y-108854640D01*
X218854743Y-108854642D01*
X218959999Y-108898240D01*
X218960000Y-108898240D01*
X218960000Y-108356988D01*
X218969940Y-108374205D01*
X219025795Y-108430060D01*
X219094204Y-108469556D01*
X219170504Y-108490000D01*
X219249496Y-108490000D01*
X219325796Y-108469556D01*
X219394205Y-108430060D01*
X219450060Y-108374205D01*
X219460000Y-108356988D01*
X219460000Y-108898240D01*
X219565256Y-108854642D01*
X219565260Y-108854640D01*
X219688092Y-108772566D01*
X219688100Y-108772560D01*
X219792560Y-108668100D01*
X219792563Y-108668096D01*
X219874637Y-108545264D01*
X219874642Y-108545254D01*
X219931177Y-108408767D01*
X219931179Y-108408759D01*
X219959999Y-108263873D01*
X219960000Y-108263871D01*
X219960000Y-108140000D01*
X219510000Y-108140000D01*
X219510000Y-107750691D01*
X221559500Y-107750691D01*
X221559500Y-107869309D01*
X221590201Y-107983886D01*
X221649511Y-108086613D01*
X221733387Y-108170489D01*
X221836114Y-108229799D01*
X221950691Y-108260500D01*
X221950694Y-108260500D01*
X222069306Y-108260500D01*
X222069309Y-108260500D01*
X222183886Y-108229799D01*
X222286613Y-108170489D01*
X222370489Y-108086613D01*
X222412613Y-108013651D01*
X222413019Y-108013264D01*
X222413157Y-108012719D01*
X222438259Y-107989198D01*
X222463180Y-107965437D01*
X222463732Y-107965330D01*
X222464143Y-107964946D01*
X222498017Y-107958723D01*
X222531788Y-107952215D01*
X222532309Y-107952423D01*
X222532863Y-107952322D01*
X222564759Y-107965415D01*
X222596652Y-107978183D01*
X222597151Y-107978711D01*
X222597499Y-107978854D01*
X222599615Y-107981317D01*
X222621631Y-108004609D01*
X222624701Y-108009001D01*
X222669511Y-108086613D01*
X222700889Y-108117991D01*
X222707131Y-108126920D01*
X222714935Y-108150123D01*
X222726666Y-108171606D01*
X222728782Y-108191290D01*
X222729406Y-108193144D01*
X222729108Y-108194324D01*
X222729500Y-108197964D01*
X222729500Y-108394167D01*
X222709815Y-108461206D01*
X222693181Y-108481848D01*
X222359541Y-108815487D01*
X222359535Y-108815495D01*
X222319982Y-108884004D01*
X222319979Y-108884009D01*
X222299499Y-108960440D01*
X222298439Y-108968497D01*
X222297064Y-108968316D01*
X222279815Y-109027061D01*
X222227011Y-109072816D01*
X222216455Y-109077063D01*
X222155524Y-109098383D01*
X222155523Y-109098384D01*
X222049289Y-109176788D01*
X222049288Y-109176789D01*
X221970884Y-109283023D01*
X221927274Y-109407650D01*
X221924500Y-109437239D01*
X221924500Y-110042760D01*
X221927274Y-110072349D01*
X221970884Y-110196976D01*
X222049288Y-110303210D01*
X222049289Y-110303211D01*
X222155523Y-110381615D01*
X222155524Y-110381615D01*
X222155525Y-110381616D01*
X222280151Y-110425225D01*
X222280150Y-110425225D01*
X222309740Y-110428000D01*
X222309744Y-110428000D01*
X222890260Y-110428000D01*
X222919849Y-110425225D01*
X223044475Y-110381616D01*
X223150711Y-110303211D01*
X223229116Y-110196975D01*
X223272725Y-110072349D01*
X223275500Y-110042756D01*
X223275500Y-109437244D01*
X223272725Y-109407651D01*
X223229116Y-109283025D01*
X223150711Y-109176789D01*
X223092579Y-109133886D01*
X223050330Y-109078240D01*
X223044871Y-109008584D01*
X223077938Y-108947034D01*
X223078178Y-108946792D01*
X223270460Y-108754511D01*
X223296424Y-108709540D01*
X223302219Y-108699503D01*
X223302219Y-108699502D01*
X223302220Y-108699501D01*
X223310020Y-108685991D01*
X223312700Y-108675990D01*
X223330500Y-108609562D01*
X223330500Y-108197964D01*
X223350185Y-108130925D01*
X223353827Y-108125569D01*
X223359699Y-108117402D01*
X223390489Y-108086613D01*
X223425713Y-108025603D01*
X223429327Y-108020578D01*
X223452199Y-108002762D01*
X223473180Y-107982757D01*
X223479428Y-107981552D01*
X223484448Y-107977643D01*
X223513320Y-107975021D01*
X223541787Y-107969535D01*
X223547693Y-107971899D01*
X223554032Y-107971324D01*
X223579741Y-107984729D01*
X223606652Y-107995503D01*
X223611802Y-108001447D01*
X223615985Y-108003628D01*
X223620419Y-108011391D01*
X223637386Y-108030972D01*
X223669511Y-108086613D01*
X223669513Y-108086615D01*
X223693181Y-108110283D01*
X223726666Y-108171606D01*
X223729500Y-108197964D01*
X223729500Y-108599562D01*
X223732179Y-108609560D01*
X223749979Y-108675990D01*
X223749980Y-108675991D01*
X223763553Y-108699500D01*
X223763555Y-108699503D01*
X223789539Y-108744509D01*
X223789541Y-108744512D01*
X223970234Y-108925205D01*
X224003719Y-108986528D01*
X223998735Y-109056220D01*
X223956863Y-109112153D01*
X223956187Y-109112656D01*
X223869287Y-109176790D01*
X223790884Y-109283023D01*
X223747274Y-109407650D01*
X223744500Y-109437239D01*
X223744500Y-110042760D01*
X223747274Y-110072349D01*
X223790884Y-110196976D01*
X223869288Y-110303210D01*
X223869289Y-110303211D01*
X223975523Y-110381615D01*
X223975524Y-110381615D01*
X223975525Y-110381616D01*
X224100151Y-110425225D01*
X224100150Y-110425225D01*
X224129740Y-110428000D01*
X224129744Y-110428000D01*
X224710260Y-110428000D01*
X224739849Y-110425225D01*
X224864475Y-110381616D01*
X224970711Y-110303211D01*
X225049116Y-110196975D01*
X225092725Y-110072349D01*
X225095500Y-110042756D01*
X225095500Y-109437244D01*
X225092725Y-109407651D01*
X225049116Y-109283025D01*
X224970711Y-109176789D01*
X224970710Y-109176788D01*
X224864476Y-109098384D01*
X224864475Y-109098383D01*
X224803545Y-109077063D01*
X224746769Y-109036341D01*
X224721022Y-108971388D01*
X224720500Y-108960022D01*
X224720500Y-108910439D01*
X224717231Y-108898240D01*
X224700021Y-108834011D01*
X224689331Y-108815495D01*
X224660464Y-108765495D01*
X224660458Y-108765487D01*
X224366819Y-108471848D01*
X224352115Y-108444920D01*
X224335523Y-108419102D01*
X224334631Y-108412901D01*
X224333334Y-108410525D01*
X224330500Y-108384167D01*
X224330500Y-108197964D01*
X224350185Y-108130925D01*
X224366819Y-108110283D01*
X224390489Y-108086613D01*
X224432613Y-108013651D01*
X224483180Y-107965437D01*
X224551788Y-107952215D01*
X224616652Y-107978183D01*
X224647385Y-108013650D01*
X224689511Y-108086613D01*
X224773387Y-108170489D01*
X224876114Y-108229799D01*
X224990691Y-108260500D01*
X224990694Y-108260500D01*
X225109306Y-108260500D01*
X225109309Y-108260500D01*
X225223886Y-108229799D01*
X225326613Y-108170489D01*
X225410489Y-108086613D01*
X225469799Y-107983886D01*
X225500500Y-107869309D01*
X225500500Y-107750691D01*
X225469799Y-107636114D01*
X225410489Y-107533387D01*
X225393228Y-107516126D01*
X227100000Y-107516126D01*
X227100000Y-107640000D01*
X227550000Y-107640000D01*
X227550000Y-108140000D01*
X227100000Y-108140000D01*
X227100000Y-108263873D01*
X227128820Y-108408759D01*
X227128822Y-108408767D01*
X227185357Y-108545254D01*
X227185362Y-108545264D01*
X227267436Y-108668096D01*
X227267439Y-108668100D01*
X227371899Y-108772560D01*
X227371907Y-108772566D01*
X227494739Y-108854640D01*
X227494743Y-108854642D01*
X227599999Y-108898240D01*
X227600000Y-108898240D01*
X227600000Y-108356988D01*
X227609940Y-108374205D01*
X227665795Y-108430060D01*
X227734204Y-108469556D01*
X227810504Y-108490000D01*
X227889496Y-108490000D01*
X227965796Y-108469556D01*
X228034205Y-108430060D01*
X228090060Y-108374205D01*
X228100000Y-108356988D01*
X228100000Y-108898240D01*
X228205256Y-108854642D01*
X228205260Y-108854640D01*
X228328092Y-108772566D01*
X228328100Y-108772560D01*
X228432560Y-108668100D01*
X228432563Y-108668096D01*
X228514637Y-108545264D01*
X228514642Y-108545254D01*
X228571177Y-108408767D01*
X228571179Y-108408759D01*
X228599999Y-108263873D01*
X228600000Y-108263871D01*
X228600000Y-108140000D01*
X228150000Y-108140000D01*
X228150000Y-107640000D01*
X228600000Y-107640000D01*
X228600000Y-107516128D01*
X228599999Y-107516126D01*
X228571179Y-107371240D01*
X228571177Y-107371232D01*
X228514642Y-107234745D01*
X228514637Y-107234735D01*
X228432563Y-107111903D01*
X228432560Y-107111899D01*
X228328100Y-107007439D01*
X228328096Y-107007436D01*
X228205264Y-106925362D01*
X228205254Y-106925357D01*
X228100000Y-106881759D01*
X228100000Y-107423011D01*
X228090060Y-107405795D01*
X228034205Y-107349940D01*
X227965796Y-107310444D01*
X227889496Y-107290000D01*
X227810504Y-107290000D01*
X227734204Y-107310444D01*
X227665795Y-107349940D01*
X227609940Y-107405795D01*
X227600000Y-107423011D01*
X227600000Y-106881759D01*
X227599999Y-106881759D01*
X227494745Y-106925357D01*
X227494735Y-106925362D01*
X227371903Y-107007436D01*
X227371899Y-107007439D01*
X227267439Y-107111899D01*
X227267436Y-107111903D01*
X227185362Y-107234735D01*
X227185357Y-107234745D01*
X227128822Y-107371232D01*
X227128820Y-107371240D01*
X227100000Y-107516126D01*
X225393228Y-107516126D01*
X225326613Y-107449511D01*
X225223886Y-107390201D01*
X225109309Y-107359500D01*
X224990691Y-107359500D01*
X224876114Y-107390201D01*
X224876112Y-107390201D01*
X224876112Y-107390202D01*
X224773387Y-107449511D01*
X224773384Y-107449513D01*
X224689513Y-107533384D01*
X224689507Y-107533393D01*
X224647386Y-107606347D01*
X224596819Y-107654562D01*
X224528212Y-107667784D01*
X224463347Y-107641816D01*
X224432614Y-107606347D01*
X224390492Y-107533393D01*
X224390489Y-107533387D01*
X224306613Y-107449511D01*
X224203886Y-107390201D01*
X224089309Y-107359500D01*
X223970691Y-107359500D01*
X223856114Y-107390201D01*
X223856112Y-107390201D01*
X223856112Y-107390202D01*
X223753387Y-107449511D01*
X223753384Y-107449513D01*
X223669513Y-107533384D01*
X223669511Y-107533387D01*
X223647195Y-107572040D01*
X223637387Y-107589027D01*
X223586819Y-107637242D01*
X223518212Y-107650464D01*
X223453347Y-107624496D01*
X223422613Y-107589027D01*
X223390489Y-107533387D01*
X223306613Y-107449511D01*
X223203886Y-107390201D01*
X223089309Y-107359500D01*
X222970691Y-107359500D01*
X222856114Y-107390201D01*
X222856112Y-107390201D01*
X222856112Y-107390202D01*
X222753387Y-107449511D01*
X222753384Y-107449513D01*
X222669513Y-107533384D01*
X222669507Y-107533393D01*
X222627386Y-107606347D01*
X222576819Y-107654562D01*
X222508212Y-107667784D01*
X222443347Y-107641816D01*
X222412614Y-107606347D01*
X222370492Y-107533393D01*
X222370489Y-107533387D01*
X222286613Y-107449511D01*
X222183886Y-107390201D01*
X222069309Y-107359500D01*
X221950691Y-107359500D01*
X221836114Y-107390201D01*
X221836112Y-107390201D01*
X221836112Y-107390202D01*
X221733387Y-107449511D01*
X221733384Y-107449513D01*
X221649513Y-107533384D01*
X221649511Y-107533387D01*
X221590201Y-107636114D01*
X221559500Y-107750691D01*
X219510000Y-107750691D01*
X219510000Y-107640000D01*
X219960000Y-107640000D01*
X219960000Y-107516128D01*
X219959999Y-107516126D01*
X219931179Y-107371240D01*
X219931177Y-107371232D01*
X219874642Y-107234745D01*
X219874637Y-107234735D01*
X219792563Y-107111903D01*
X219792560Y-107111899D01*
X219688100Y-107007439D01*
X219688096Y-107007436D01*
X219565264Y-106925362D01*
X219565254Y-106925357D01*
X219460000Y-106881759D01*
X219460000Y-107423011D01*
X219450060Y-107405795D01*
X219394205Y-107349940D01*
X219325796Y-107310444D01*
X219249496Y-107290000D01*
X219170504Y-107290000D01*
X219094204Y-107310444D01*
X219025795Y-107349940D01*
X218969940Y-107405795D01*
X218960000Y-107423011D01*
X218960000Y-106881759D01*
X218959999Y-106881759D01*
X218854745Y-106925357D01*
X218854735Y-106925362D01*
X218731903Y-107007436D01*
X218731899Y-107007439D01*
X218627439Y-107111899D01*
X218627436Y-107111903D01*
X218545362Y-107234735D01*
X218545357Y-107234745D01*
X218488822Y-107371232D01*
X218488820Y-107371240D01*
X218460000Y-107516126D01*
X214327500Y-107516126D01*
X214327500Y-105993500D01*
X214347185Y-105926461D01*
X214399989Y-105880706D01*
X214451500Y-105869500D01*
X217299991Y-105869500D01*
X217300000Y-105869500D01*
X217343684Y-105864803D01*
X217372875Y-105858452D01*
X217395174Y-105853602D01*
X217395190Y-105853598D01*
X217395195Y-105853597D01*
X217405373Y-105851110D01*
X217486085Y-105808100D01*
X217538889Y-105762345D01*
X217556843Y-105744754D01*
X217601490Y-105664937D01*
X217621175Y-105597898D01*
X217629500Y-105540000D01*
X217629500Y-104880691D01*
X219899500Y-104880691D01*
X219899500Y-104999309D01*
X219930201Y-105113886D01*
X219989511Y-105216613D01*
X220073387Y-105300489D01*
X220176114Y-105359799D01*
X220290691Y-105390500D01*
X220290694Y-105390500D01*
X220409306Y-105390500D01*
X220409309Y-105390500D01*
X220523886Y-105359799D01*
X220626613Y-105300489D01*
X220710489Y-105216613D01*
X220769799Y-105113886D01*
X220800500Y-104999309D01*
X220800500Y-104880691D01*
X220769799Y-104766114D01*
X220710489Y-104663387D01*
X220626613Y-104579511D01*
X220523886Y-104520201D01*
X220409309Y-104489500D01*
X220290691Y-104489500D01*
X220176114Y-104520201D01*
X220176112Y-104520201D01*
X220176112Y-104520202D01*
X220073387Y-104579511D01*
X220073384Y-104579513D01*
X219989513Y-104663384D01*
X219989511Y-104663387D01*
X219930201Y-104766114D01*
X219899500Y-104880691D01*
X217629500Y-104880691D01*
X217629500Y-101978000D01*
X217624803Y-101934316D01*
X217620897Y-101916364D01*
X217613602Y-101882825D01*
X217613348Y-101881789D01*
X217611110Y-101872627D01*
X217568100Y-101791915D01*
X217522345Y-101739111D01*
X217522339Y-101739104D01*
X217504757Y-101721160D01*
X217504756Y-101721159D01*
X217504754Y-101721157D01*
X217504752Y-101721156D01*
X217504750Y-101721154D01*
X217424940Y-101676511D01*
X217424935Y-101676509D01*
X217357903Y-101656826D01*
X217357899Y-101656825D01*
X217357898Y-101656825D01*
X217300000Y-101648500D01*
X211969500Y-101648500D01*
X211969499Y-101648500D01*
X211902460Y-101628815D01*
X211856705Y-101576011D01*
X211845499Y-101524500D01*
X211845499Y-101453482D01*
X211845498Y-101453475D01*
X211830646Y-101359696D01*
X211773050Y-101246658D01*
X211773046Y-101246654D01*
X211773045Y-101246652D01*
X211683347Y-101156954D01*
X211683344Y-101156952D01*
X211683342Y-101156950D01*
X211601562Y-101115281D01*
X211570301Y-101099352D01*
X211476524Y-101084500D01*
X211013482Y-101084500D01*
X210932519Y-101097323D01*
X210919696Y-101099354D01*
X210806658Y-101156950D01*
X210806657Y-101156951D01*
X210806652Y-101156954D01*
X210716954Y-101246652D01*
X210716951Y-101246657D01*
X210716950Y-101246658D01*
X210710407Y-101259500D01*
X210659352Y-101359698D01*
X210644500Y-101453475D01*
X210644500Y-101524500D01*
X210641949Y-101533185D01*
X210643238Y-101542147D01*
X210632259Y-101566187D01*
X210624815Y-101591539D01*
X210617974Y-101597466D01*
X210614213Y-101605703D01*
X210591978Y-101619992D01*
X210572011Y-101637294D01*
X210561496Y-101639581D01*
X210555435Y-101643477D01*
X210520500Y-101648500D01*
X210319499Y-101648500D01*
X210252460Y-101628815D01*
X210206705Y-101576011D01*
X210195499Y-101524500D01*
X210195499Y-101453482D01*
X210195498Y-101453475D01*
X210180646Y-101359696D01*
X210123050Y-101246658D01*
X210123047Y-101246655D01*
X210123046Y-101246653D01*
X210119179Y-101241329D01*
X210095702Y-101175522D01*
X210095500Y-101168448D01*
X210095500Y-100909739D01*
X217737000Y-100909739D01*
X217737000Y-101490260D01*
X217739774Y-101519849D01*
X217783384Y-101644476D01*
X217861788Y-101750710D01*
X217861789Y-101750711D01*
X217968023Y-101829115D01*
X217968024Y-101829115D01*
X217968025Y-101829116D01*
X218092651Y-101872725D01*
X218092650Y-101872725D01*
X218122240Y-101875500D01*
X218122244Y-101875500D01*
X218727760Y-101875500D01*
X218757349Y-101872725D01*
X218775502Y-101866373D01*
X218881975Y-101829116D01*
X218988211Y-101750711D01*
X219066616Y-101644475D01*
X219110225Y-101519849D01*
X219110225Y-101519848D01*
X219113000Y-101490260D01*
X219113000Y-100909739D01*
X219562000Y-100909739D01*
X219562000Y-101490260D01*
X219564774Y-101519849D01*
X219608384Y-101644476D01*
X219686788Y-101750710D01*
X219686789Y-101750711D01*
X219799133Y-101833624D01*
X219841384Y-101889271D01*
X219849500Y-101933394D01*
X219849500Y-103125891D01*
X219883608Y-103253187D01*
X219916554Y-103310250D01*
X219949500Y-103367314D01*
X220042686Y-103460500D01*
X220156814Y-103526392D01*
X220284108Y-103560500D01*
X220284110Y-103560500D01*
X220415890Y-103560500D01*
X220415892Y-103560500D01*
X220543186Y-103526392D01*
X220657314Y-103460500D01*
X220750500Y-103367314D01*
X220816392Y-103253186D01*
X220850500Y-103125892D01*
X220850500Y-101740988D01*
X220870185Y-101673949D01*
X220874730Y-101667354D01*
X220891616Y-101644475D01*
X220935225Y-101519849D01*
X220935225Y-101519848D01*
X220938000Y-101490260D01*
X220938000Y-100909739D01*
X222312000Y-100909739D01*
X222312000Y-101490260D01*
X222314774Y-101519848D01*
X222342541Y-101599198D01*
X222349500Y-101640154D01*
X222349500Y-103125891D01*
X222383608Y-103253187D01*
X222416554Y-103310250D01*
X222449500Y-103367314D01*
X222542686Y-103460500D01*
X222656814Y-103526392D01*
X222784108Y-103560500D01*
X222784110Y-103560500D01*
X222915890Y-103560500D01*
X222915892Y-103560500D01*
X223043186Y-103526392D01*
X223157314Y-103460500D01*
X223250500Y-103367314D01*
X223316392Y-103253186D01*
X223350500Y-103125892D01*
X223350500Y-101954356D01*
X223370185Y-101887317D01*
X223422989Y-101841562D01*
X223433546Y-101837314D01*
X223456975Y-101829116D01*
X223563211Y-101750711D01*
X223641616Y-101644475D01*
X223685225Y-101519849D01*
X223685225Y-101519848D01*
X223688000Y-101490260D01*
X223688000Y-100909739D01*
X224137000Y-100909739D01*
X224137000Y-101490260D01*
X224139774Y-101519849D01*
X224183384Y-101644476D01*
X224261788Y-101750710D01*
X224261789Y-101750711D01*
X224368023Y-101829115D01*
X224368024Y-101829115D01*
X224368025Y-101829116D01*
X224492651Y-101872725D01*
X224492650Y-101872725D01*
X224522240Y-101875500D01*
X224522244Y-101875500D01*
X225127760Y-101875500D01*
X225157349Y-101872725D01*
X225175502Y-101866373D01*
X225281975Y-101829116D01*
X225388211Y-101750711D01*
X225466616Y-101644475D01*
X225510225Y-101519849D01*
X225510225Y-101519848D01*
X225513000Y-101490260D01*
X225513000Y-100909739D01*
X225510225Y-100880150D01*
X225476588Y-100784023D01*
X225466616Y-100755525D01*
X225457172Y-100742729D01*
X225388211Y-100649289D01*
X225388210Y-100649288D01*
X225281976Y-100570884D01*
X225157348Y-100527274D01*
X225157349Y-100527274D01*
X225127760Y-100524500D01*
X225127756Y-100524500D01*
X224522244Y-100524500D01*
X224522240Y-100524500D01*
X224492650Y-100527274D01*
X224368023Y-100570884D01*
X224261789Y-100649288D01*
X224261788Y-100649289D01*
X224183384Y-100755523D01*
X224139774Y-100880150D01*
X224137000Y-100909739D01*
X223688000Y-100909739D01*
X223685225Y-100880150D01*
X223651588Y-100784023D01*
X223641616Y-100755525D01*
X223632172Y-100742729D01*
X223563211Y-100649289D01*
X223563210Y-100649288D01*
X223456976Y-100570884D01*
X223332348Y-100527274D01*
X223332349Y-100527274D01*
X223302760Y-100524500D01*
X223302756Y-100524500D01*
X222697244Y-100524500D01*
X222697240Y-100524500D01*
X222667650Y-100527274D01*
X222543023Y-100570884D01*
X222436789Y-100649288D01*
X222436788Y-100649289D01*
X222358384Y-100755523D01*
X222314774Y-100880150D01*
X222312000Y-100909739D01*
X220938000Y-100909739D01*
X220935225Y-100880150D01*
X220901588Y-100784023D01*
X220891616Y-100755525D01*
X220882172Y-100742729D01*
X220813211Y-100649289D01*
X220813210Y-100649288D01*
X220706976Y-100570884D01*
X220582348Y-100527274D01*
X220582349Y-100527274D01*
X220552760Y-100524500D01*
X220552756Y-100524500D01*
X219947244Y-100524500D01*
X219947240Y-100524500D01*
X219917650Y-100527274D01*
X219793023Y-100570884D01*
X219686789Y-100649288D01*
X219686788Y-100649289D01*
X219608384Y-100755523D01*
X219564774Y-100880150D01*
X219562000Y-100909739D01*
X219113000Y-100909739D01*
X219110225Y-100880150D01*
X219076588Y-100784023D01*
X219066616Y-100755525D01*
X219057172Y-100742729D01*
X218988211Y-100649289D01*
X218988210Y-100649288D01*
X218881976Y-100570884D01*
X218757348Y-100527274D01*
X218757349Y-100527274D01*
X218727760Y-100524500D01*
X218727756Y-100524500D01*
X218122244Y-100524500D01*
X218122240Y-100524500D01*
X218092650Y-100527274D01*
X217968023Y-100570884D01*
X217861789Y-100649288D01*
X217861788Y-100649289D01*
X217783384Y-100755523D01*
X217739774Y-100880150D01*
X217737000Y-100909739D01*
X210095500Y-100909739D01*
X210095500Y-100711551D01*
X210115185Y-100644512D01*
X210119181Y-100638666D01*
X210123044Y-100633347D01*
X210123050Y-100633342D01*
X210180646Y-100520304D01*
X210180646Y-100520302D01*
X210180647Y-100520301D01*
X210195499Y-100426524D01*
X210195500Y-100426519D01*
X210195499Y-99813482D01*
X210195498Y-99813475D01*
X210644500Y-99813475D01*
X210644500Y-100426517D01*
X210655292Y-100494657D01*
X210659354Y-100520304D01*
X210716950Y-100633342D01*
X210716952Y-100633344D01*
X210716954Y-100633347D01*
X210806652Y-100723045D01*
X210806654Y-100723046D01*
X210806658Y-100723050D01*
X210919694Y-100780645D01*
X210919698Y-100780647D01*
X211013475Y-100795499D01*
X211013481Y-100795500D01*
X211476518Y-100795499D01*
X211570304Y-100780646D01*
X211683342Y-100723050D01*
X211773050Y-100633342D01*
X211830646Y-100520304D01*
X211830646Y-100520302D01*
X211830647Y-100520301D01*
X211845499Y-100426524D01*
X211845500Y-100426519D01*
X211845499Y-99813482D01*
X211830646Y-99719696D01*
X211773050Y-99606658D01*
X211773046Y-99606654D01*
X211773045Y-99606652D01*
X211683347Y-99516954D01*
X211683344Y-99516952D01*
X211683342Y-99516950D01*
X211606517Y-99477805D01*
X211570301Y-99459352D01*
X211476524Y-99444500D01*
X211013482Y-99444500D01*
X210932519Y-99457323D01*
X210919696Y-99459354D01*
X210806658Y-99516950D01*
X210806657Y-99516951D01*
X210806652Y-99516954D01*
X210716954Y-99606652D01*
X210716951Y-99606657D01*
X210659352Y-99719698D01*
X210644500Y-99813475D01*
X210195498Y-99813475D01*
X210180646Y-99719696D01*
X210123050Y-99606658D01*
X210123046Y-99606654D01*
X210123045Y-99606652D01*
X210033347Y-99516954D01*
X210033344Y-99516952D01*
X210033342Y-99516950D01*
X209956517Y-99477805D01*
X209920301Y-99459352D01*
X209826524Y-99444500D01*
X209363482Y-99444500D01*
X209282519Y-99457323D01*
X209269696Y-99459354D01*
X209156658Y-99516950D01*
X209156657Y-99516951D01*
X209156652Y-99516954D01*
X209066954Y-99606652D01*
X209066951Y-99606657D01*
X209009352Y-99719698D01*
X208994500Y-99813475D01*
X208994500Y-100426517D01*
X209005292Y-100494657D01*
X209009354Y-100520304D01*
X209066949Y-100633340D01*
X209070819Y-100638666D01*
X209094298Y-100704473D01*
X209094500Y-100711551D01*
X209094500Y-101135500D01*
X209074815Y-101202539D01*
X209022011Y-101248294D01*
X208970500Y-101259500D01*
X208607610Y-101259500D01*
X208540571Y-101239815D01*
X208519928Y-101223180D01*
X208473224Y-101176475D01*
X208473221Y-101176473D01*
X208473220Y-101176472D01*
X208353126Y-101115281D01*
X208353124Y-101115280D01*
X208353121Y-101115279D01*
X208253493Y-101099500D01*
X208253488Y-101099500D01*
X207686512Y-101099500D01*
X207686507Y-101099500D01*
X207586878Y-101115279D01*
X207466778Y-101176473D01*
X207466774Y-101176476D01*
X207371476Y-101271774D01*
X207371473Y-101271778D01*
X207310279Y-101391878D01*
X207294500Y-101491506D01*
X207294500Y-101524500D01*
X207274815Y-101591539D01*
X207222011Y-101637294D01*
X207170500Y-101648500D01*
X204374500Y-101648500D01*
X204307461Y-101628815D01*
X204261706Y-101576011D01*
X204250500Y-101524500D01*
X204250500Y-101496534D01*
X204250499Y-101496530D01*
X204241935Y-101453475D01*
X204210130Y-101293580D01*
X204130941Y-101102402D01*
X204015977Y-100930345D01*
X204015975Y-100930342D01*
X203869657Y-100784024D01*
X203722635Y-100685788D01*
X203697598Y-100669059D01*
X203677881Y-100660892D01*
X203506420Y-100589870D01*
X203506412Y-100589868D01*
X203303469Y-100549500D01*
X203303465Y-100549500D01*
X203096535Y-100549500D01*
X203096530Y-100549500D01*
X202893587Y-100589868D01*
X202893579Y-100589870D01*
X202702401Y-100669059D01*
X202623389Y-100721852D01*
X202556712Y-100742729D01*
X202489332Y-100724244D01*
X202442642Y-100672264D01*
X202430500Y-100618749D01*
X202430500Y-100041250D01*
X202450185Y-99974211D01*
X202502989Y-99928456D01*
X202572147Y-99918512D01*
X202623390Y-99938148D01*
X202702400Y-99990940D01*
X202702401Y-99990940D01*
X202702402Y-99990941D01*
X202893580Y-100070130D01*
X203096530Y-100110499D01*
X203096534Y-100110500D01*
X203096535Y-100110500D01*
X203303466Y-100110500D01*
X203303467Y-100110499D01*
X203506420Y-100070130D01*
X203697598Y-99990941D01*
X203869655Y-99875977D01*
X204015977Y-99729655D01*
X204130941Y-99557598D01*
X204210130Y-99366420D01*
X204250500Y-99163465D01*
X204250500Y-98956535D01*
X204210130Y-98753580D01*
X204130941Y-98562402D01*
X204028936Y-98409739D01*
X217924500Y-98409739D01*
X217924500Y-99015260D01*
X217927274Y-99044849D01*
X217970884Y-99169476D01*
X218049288Y-99275710D01*
X218049289Y-99275711D01*
X218155523Y-99354115D01*
X218155524Y-99354115D01*
X218155525Y-99354116D01*
X218280151Y-99397725D01*
X218280150Y-99397725D01*
X218309740Y-99400500D01*
X218309744Y-99400500D01*
X218890260Y-99400500D01*
X218919849Y-99397725D01*
X219044475Y-99354116D01*
X219150711Y-99275711D01*
X219228948Y-99169702D01*
X221025000Y-99169702D01*
X221036602Y-99228033D01*
X221036603Y-99228034D01*
X221080808Y-99294191D01*
X221146965Y-99338396D01*
X221146966Y-99338397D01*
X221205297Y-99349999D01*
X221205301Y-99350000D01*
X221225000Y-99350000D01*
X221225000Y-98900000D01*
X221025000Y-98900000D01*
X221025000Y-99169702D01*
X219228948Y-99169702D01*
X219229116Y-99169475D01*
X219272725Y-99044849D01*
X219275500Y-99015256D01*
X219275500Y-98409744D01*
X219272725Y-98380151D01*
X219229116Y-98255525D01*
X219210497Y-98230297D01*
X221025000Y-98230297D01*
X221025000Y-98500000D01*
X221225000Y-98500000D01*
X221225000Y-98050000D01*
X221205297Y-98050000D01*
X221146966Y-98061602D01*
X221146965Y-98061603D01*
X221080808Y-98105808D01*
X221036603Y-98171965D01*
X221036602Y-98171966D01*
X221025000Y-98230297D01*
X219210497Y-98230297D01*
X219167446Y-98171965D01*
X219150711Y-98149289D01*
X219150710Y-98149288D01*
X219044476Y-98070884D01*
X218919848Y-98027274D01*
X218919849Y-98027274D01*
X218890260Y-98024500D01*
X218890256Y-98024500D01*
X218309744Y-98024500D01*
X218309740Y-98024500D01*
X218280150Y-98027274D01*
X218155523Y-98070884D01*
X218049289Y-98149288D01*
X218049288Y-98149289D01*
X217970884Y-98255523D01*
X217927274Y-98380150D01*
X217924500Y-98409739D01*
X204028936Y-98409739D01*
X204015977Y-98390345D01*
X204015975Y-98390342D01*
X203869657Y-98244024D01*
X203766354Y-98175000D01*
X203697598Y-98129059D01*
X203641465Y-98105808D01*
X203506420Y-98049870D01*
X203506412Y-98049868D01*
X203303469Y-98009500D01*
X203303465Y-98009500D01*
X203096535Y-98009500D01*
X203096530Y-98009500D01*
X202893587Y-98049868D01*
X202893579Y-98049870D01*
X202702401Y-98129059D01*
X202623389Y-98181852D01*
X202556712Y-98202729D01*
X202489332Y-98184244D01*
X202442642Y-98132264D01*
X202430500Y-98078749D01*
X202430500Y-97501250D01*
X202450185Y-97434211D01*
X202502989Y-97388456D01*
X202572147Y-97378512D01*
X202623390Y-97398148D01*
X202702400Y-97450940D01*
X202702401Y-97450940D01*
X202702402Y-97450941D01*
X202893580Y-97530130D01*
X203096530Y-97570499D01*
X203096534Y-97570500D01*
X203096535Y-97570500D01*
X203303466Y-97570500D01*
X203303467Y-97570499D01*
X203506420Y-97530130D01*
X203697598Y-97450941D01*
X203869655Y-97335977D01*
X204015977Y-97189655D01*
X204130941Y-97017598D01*
X204210130Y-96826420D01*
X204250500Y-96623465D01*
X204250500Y-96416535D01*
X204210130Y-96213580D01*
X204130941Y-96022402D01*
X204015977Y-95850345D01*
X204015975Y-95850342D01*
X203869657Y-95704024D01*
X203776609Y-95641852D01*
X203697598Y-95589059D01*
X203692260Y-95586848D01*
X203506420Y-95509870D01*
X203506412Y-95509868D01*
X203303469Y-95469500D01*
X203303465Y-95469500D01*
X203096535Y-95469500D01*
X203096530Y-95469500D01*
X202893587Y-95509868D01*
X202893579Y-95509870D01*
X202702401Y-95589059D01*
X202623389Y-95641852D01*
X202556712Y-95662729D01*
X202489332Y-95644244D01*
X202442642Y-95592264D01*
X202430500Y-95538749D01*
X202430500Y-94961250D01*
X202450185Y-94894211D01*
X202502989Y-94848456D01*
X202572147Y-94838512D01*
X202623390Y-94858148D01*
X202702400Y-94910940D01*
X202702401Y-94910940D01*
X202702402Y-94910941D01*
X202893580Y-94990130D01*
X203066371Y-95024500D01*
X203096530Y-95030499D01*
X203096534Y-95030500D01*
X203096535Y-95030500D01*
X203303466Y-95030500D01*
X203303467Y-95030499D01*
X203506420Y-94990130D01*
X203697598Y-94910941D01*
X203869655Y-94795977D01*
X204015977Y-94649655D01*
X204130941Y-94477598D01*
X204210130Y-94286420D01*
X204250500Y-94083465D01*
X204250500Y-93876535D01*
X204233425Y-93790691D01*
X206789500Y-93790691D01*
X206789500Y-93909309D01*
X206820201Y-94023886D01*
X206879511Y-94126613D01*
X206963387Y-94210489D01*
X207066114Y-94269799D01*
X207180691Y-94300500D01*
X207180694Y-94300500D01*
X207299306Y-94300500D01*
X207299309Y-94300500D01*
X207413886Y-94269799D01*
X207516613Y-94210489D01*
X207600489Y-94126613D01*
X207659799Y-94023886D01*
X207690500Y-93909309D01*
X207690500Y-93790691D01*
X207659799Y-93676114D01*
X207658336Y-93673580D01*
X207633528Y-93630611D01*
X207633527Y-93630610D01*
X207632407Y-93628670D01*
X207600540Y-93573475D01*
X208974500Y-93573475D01*
X208974500Y-94186517D01*
X208978297Y-94210488D01*
X208989354Y-94280304D01*
X209046950Y-94393342D01*
X209046952Y-94393344D01*
X209046954Y-94393347D01*
X209136652Y-94483045D01*
X209136654Y-94483046D01*
X209136658Y-94483050D01*
X209206796Y-94518787D01*
X209257591Y-94566761D01*
X209274500Y-94629271D01*
X209274500Y-94950728D01*
X209254815Y-95017767D01*
X209206796Y-95061212D01*
X209136659Y-95096949D01*
X209136652Y-95096954D01*
X209046954Y-95186652D01*
X209046951Y-95186657D01*
X209046950Y-95186658D01*
X209027812Y-95224218D01*
X208989352Y-95299698D01*
X208974500Y-95393475D01*
X208974500Y-96006517D01*
X208979786Y-96039889D01*
X208989354Y-96100304D01*
X209046950Y-96213342D01*
X209046952Y-96213344D01*
X209046954Y-96213347D01*
X209136652Y-96303045D01*
X209136654Y-96303046D01*
X209136658Y-96303050D01*
X209206796Y-96338787D01*
X209257591Y-96386761D01*
X209274500Y-96449271D01*
X209274500Y-96760408D01*
X209254815Y-96827447D01*
X209206795Y-96870892D01*
X209146783Y-96901469D01*
X209146774Y-96901476D01*
X209051476Y-96996774D01*
X209051473Y-96996778D01*
X208990279Y-97116878D01*
X208974500Y-97216506D01*
X208974500Y-97783493D01*
X208990279Y-97883121D01*
X208990280Y-97883124D01*
X208990281Y-97883126D01*
X209051472Y-98003220D01*
X209051473Y-98003221D01*
X209051476Y-98003225D01*
X209146774Y-98098523D01*
X209146778Y-98098526D01*
X209146780Y-98098528D01*
X209266874Y-98159719D01*
X209266876Y-98159719D01*
X209266878Y-98159720D01*
X209366507Y-98175500D01*
X209366512Y-98175500D01*
X209883493Y-98175500D01*
X209983121Y-98159720D01*
X209983121Y-98159719D01*
X209983126Y-98159719D01*
X210103220Y-98098528D01*
X210198528Y-98003220D01*
X210259719Y-97883126D01*
X210259744Y-97882967D01*
X210275500Y-97783493D01*
X210275500Y-97783449D01*
X210525001Y-97783449D01*
X210540762Y-97882967D01*
X210601883Y-98002923D01*
X210601886Y-98002928D01*
X210697071Y-98098113D01*
X210697076Y-98098116D01*
X210817034Y-98159239D01*
X210916543Y-98174999D01*
X210916554Y-98175000D01*
X210924999Y-98174999D01*
X211425000Y-98174999D01*
X211433449Y-98174999D01*
X211532967Y-98159237D01*
X211652923Y-98098116D01*
X211652928Y-98098113D01*
X211748113Y-98002928D01*
X211748116Y-98002923D01*
X211809239Y-97882966D01*
X211825000Y-97783456D01*
X211825000Y-97750000D01*
X211425000Y-97750000D01*
X211425000Y-98174999D01*
X210924999Y-98174999D01*
X210925000Y-98174998D01*
X210925000Y-97750000D01*
X210525001Y-97750000D01*
X210525001Y-97783449D01*
X210275500Y-97783449D01*
X210275500Y-97216543D01*
X210525000Y-97216543D01*
X210525000Y-97250000D01*
X210925000Y-97250000D01*
X211425000Y-97250000D01*
X211824999Y-97250000D01*
X211824999Y-97216550D01*
X211809237Y-97117032D01*
X211748116Y-96997076D01*
X211748113Y-96997071D01*
X211652928Y-96901886D01*
X211652923Y-96901883D01*
X211532965Y-96840760D01*
X211532966Y-96840760D01*
X211433456Y-96825000D01*
X211425000Y-96825000D01*
X211425000Y-97250000D01*
X210925000Y-97250000D01*
X210925000Y-96825000D01*
X210924999Y-96825000D01*
X210916553Y-96825001D01*
X210916547Y-96825001D01*
X210817032Y-96840762D01*
X210697076Y-96901883D01*
X210697071Y-96901886D01*
X210601886Y-96997071D01*
X210601883Y-96997076D01*
X210540760Y-97117033D01*
X210525000Y-97216543D01*
X210275500Y-97216543D01*
X210275500Y-97216506D01*
X210259720Y-97116878D01*
X210259719Y-97116876D01*
X210259719Y-97116874D01*
X210198528Y-96996780D01*
X210198526Y-96996778D01*
X210198523Y-96996774D01*
X210103225Y-96901476D01*
X210103221Y-96901473D01*
X210103220Y-96901472D01*
X209983126Y-96840281D01*
X209983125Y-96840280D01*
X209983122Y-96840279D01*
X209980099Y-96839801D01*
X209976719Y-96838198D01*
X209973840Y-96837263D01*
X209973960Y-96836890D01*
X209916965Y-96809869D01*
X209880035Y-96750557D01*
X209875500Y-96717328D01*
X209875500Y-96449271D01*
X209895185Y-96382232D01*
X209943203Y-96338787D01*
X210013342Y-96303050D01*
X210103050Y-96213342D01*
X210160646Y-96100304D01*
X210160646Y-96100302D01*
X210160647Y-96100301D01*
X210175499Y-96006524D01*
X210175500Y-96006519D01*
X210175499Y-95393482D01*
X210175498Y-95393475D01*
X210624500Y-95393475D01*
X210624500Y-96006517D01*
X210629786Y-96039889D01*
X210639354Y-96100304D01*
X210696950Y-96213342D01*
X210696952Y-96213344D01*
X210696954Y-96213347D01*
X210786652Y-96303045D01*
X210786654Y-96303046D01*
X210786658Y-96303050D01*
X210899694Y-96360645D01*
X210899698Y-96360647D01*
X210993475Y-96375499D01*
X210993481Y-96375500D01*
X211456518Y-96375499D01*
X211550304Y-96360646D01*
X211663342Y-96303050D01*
X211753050Y-96213342D01*
X211810646Y-96100304D01*
X211810646Y-96100302D01*
X211810647Y-96100301D01*
X211825499Y-96006524D01*
X211825500Y-96006519D01*
X211825499Y-95490208D01*
X216087500Y-95490208D01*
X216090270Y-95519750D01*
X216090272Y-95519762D01*
X216133829Y-95644237D01*
X216212146Y-95750353D01*
X216318262Y-95828670D01*
X216442737Y-95872227D01*
X216442749Y-95872229D01*
X216472292Y-95875000D01*
X216525000Y-95875000D01*
X217025000Y-95875000D01*
X217077708Y-95875000D01*
X217107250Y-95872229D01*
X217107262Y-95872227D01*
X217231737Y-95828670D01*
X217337853Y-95750353D01*
X217416170Y-95644237D01*
X217459727Y-95519762D01*
X217459729Y-95519750D01*
X217462500Y-95490208D01*
X217462500Y-95450000D01*
X217025000Y-95450000D01*
X217025000Y-95875000D01*
X216525000Y-95875000D01*
X216525000Y-95450000D01*
X216087500Y-95450000D01*
X216087500Y-95490208D01*
X211825499Y-95490208D01*
X211825499Y-95393482D01*
X211810646Y-95299696D01*
X211753050Y-95186658D01*
X211753046Y-95186654D01*
X211753045Y-95186652D01*
X211663347Y-95096954D01*
X211663344Y-95096952D01*
X211663342Y-95096950D01*
X211586517Y-95057805D01*
X211550301Y-95039352D01*
X211487272Y-95029370D01*
X211456524Y-95024500D01*
X210993482Y-95024500D01*
X210912519Y-95037323D01*
X210899696Y-95039354D01*
X210786658Y-95096950D01*
X210786657Y-95096951D01*
X210786652Y-95096954D01*
X210696954Y-95186652D01*
X210696951Y-95186657D01*
X210696950Y-95186658D01*
X210677812Y-95224218D01*
X210639352Y-95299698D01*
X210624500Y-95393475D01*
X210175498Y-95393475D01*
X210160646Y-95299696D01*
X210103050Y-95186658D01*
X210103046Y-95186654D01*
X210103045Y-95186652D01*
X210013347Y-95096954D01*
X210013343Y-95096951D01*
X210013342Y-95096950D01*
X209969282Y-95074500D01*
X209943204Y-95061212D01*
X209892408Y-95013237D01*
X209875500Y-94950728D01*
X209875500Y-94909791D01*
X216087500Y-94909791D01*
X216087500Y-94950000D01*
X216525000Y-94950000D01*
X216525000Y-94525000D01*
X216472292Y-94525000D01*
X216442749Y-94527770D01*
X216442737Y-94527772D01*
X216318262Y-94571329D01*
X216212146Y-94649646D01*
X216133829Y-94755762D01*
X216090272Y-94880237D01*
X216090270Y-94880249D01*
X216087500Y-94909791D01*
X209875500Y-94909791D01*
X209875500Y-94629271D01*
X209895185Y-94562232D01*
X209943203Y-94518787D01*
X210013342Y-94483050D01*
X210103050Y-94393342D01*
X210160646Y-94280304D01*
X210160646Y-94280302D01*
X210160647Y-94280301D01*
X210175499Y-94186524D01*
X210175500Y-94186519D01*
X210175499Y-93573482D01*
X210175498Y-93573475D01*
X210624500Y-93573475D01*
X210624500Y-94186517D01*
X210628297Y-94210488D01*
X210639354Y-94280304D01*
X210696950Y-94393342D01*
X210696952Y-94393344D01*
X210696954Y-94393347D01*
X210786652Y-94483045D01*
X210786654Y-94483046D01*
X210786658Y-94483050D01*
X210899694Y-94540645D01*
X210899698Y-94540647D01*
X210993475Y-94555499D01*
X210993481Y-94555500D01*
X211456518Y-94555499D01*
X211550304Y-94540646D01*
X211663342Y-94483050D01*
X211753050Y-94393342D01*
X211810646Y-94280304D01*
X211810646Y-94280302D01*
X211810647Y-94280301D01*
X211825499Y-94186524D01*
X211825500Y-94186519D01*
X211825499Y-93573482D01*
X211810646Y-93479696D01*
X211753050Y-93366658D01*
X211753046Y-93366654D01*
X211753045Y-93366652D01*
X211663347Y-93276954D01*
X211663344Y-93276952D01*
X211663342Y-93276950D01*
X211586517Y-93237805D01*
X211550301Y-93219352D01*
X211456524Y-93204500D01*
X210993482Y-93204500D01*
X210912519Y-93217323D01*
X210899696Y-93219354D01*
X210786658Y-93276950D01*
X210786657Y-93276951D01*
X210786652Y-93276954D01*
X210696954Y-93366652D01*
X210696951Y-93366657D01*
X210696950Y-93366658D01*
X210687853Y-93384512D01*
X210639352Y-93479698D01*
X210624500Y-93573475D01*
X210175498Y-93573475D01*
X210160646Y-93479696D01*
X210103050Y-93366658D01*
X210103046Y-93366654D01*
X210103045Y-93366652D01*
X210013347Y-93276954D01*
X210013344Y-93276952D01*
X210013342Y-93276950D01*
X209936517Y-93237805D01*
X209900301Y-93219352D01*
X209806524Y-93204500D01*
X209343482Y-93204500D01*
X209262519Y-93217323D01*
X209249696Y-93219354D01*
X209136658Y-93276950D01*
X209136657Y-93276951D01*
X209136652Y-93276954D01*
X209046954Y-93366652D01*
X209046951Y-93366657D01*
X209046950Y-93366658D01*
X209037853Y-93384512D01*
X208989352Y-93479698D01*
X208974500Y-93573475D01*
X207600540Y-93573475D01*
X207600489Y-93573387D01*
X207516613Y-93489511D01*
X207413886Y-93430201D01*
X207299309Y-93399500D01*
X207180691Y-93399500D01*
X207066114Y-93430201D01*
X207066112Y-93430201D01*
X207066112Y-93430202D01*
X206963387Y-93489511D01*
X206963384Y-93489513D01*
X206879513Y-93573384D01*
X206879511Y-93573387D01*
X206821665Y-93673579D01*
X206820201Y-93676114D01*
X206789500Y-93790691D01*
X204233425Y-93790691D01*
X204210130Y-93673580D01*
X204130941Y-93482402D01*
X204015977Y-93310345D01*
X204015975Y-93310342D01*
X203869657Y-93164024D01*
X203712938Y-93059309D01*
X203697598Y-93049059D01*
X203506420Y-92969870D01*
X203506412Y-92969868D01*
X203303469Y-92929500D01*
X203303465Y-92929500D01*
X203096535Y-92929500D01*
X203096530Y-92929500D01*
X202893587Y-92969868D01*
X202893579Y-92969870D01*
X202702401Y-93049059D01*
X202623389Y-93101852D01*
X202556712Y-93122729D01*
X202489332Y-93104244D01*
X202442642Y-93052264D01*
X202430500Y-92998749D01*
X202430500Y-92421250D01*
X202450185Y-92354211D01*
X202502989Y-92308456D01*
X202572147Y-92298512D01*
X202623390Y-92318148D01*
X202702400Y-92370940D01*
X202702401Y-92370940D01*
X202702402Y-92370941D01*
X202893580Y-92450130D01*
X203069131Y-92485049D01*
X203096530Y-92490499D01*
X203096534Y-92490500D01*
X203096535Y-92490500D01*
X203303466Y-92490500D01*
X203303467Y-92490499D01*
X203506420Y-92450130D01*
X203697598Y-92370941D01*
X203869655Y-92255977D01*
X204015977Y-92109655D01*
X204130941Y-91937598D01*
X204210130Y-91746420D01*
X204250500Y-91543465D01*
X204250500Y-91336535D01*
X204210130Y-91133580D01*
X204130941Y-90942402D01*
X204015977Y-90770345D01*
X204015975Y-90770342D01*
X203869657Y-90624024D01*
X203759935Y-90550711D01*
X203697598Y-90509059D01*
X203614163Y-90474499D01*
X203506420Y-90429870D01*
X203506412Y-90429868D01*
X203303469Y-90389500D01*
X203303465Y-90389500D01*
X203096535Y-90389500D01*
X203096530Y-90389500D01*
X202893587Y-90429868D01*
X202893579Y-90429870D01*
X202702401Y-90509059D01*
X202623389Y-90561852D01*
X202556712Y-90582729D01*
X202489332Y-90564244D01*
X202442642Y-90512264D01*
X202430500Y-90458749D01*
X202430500Y-89881250D01*
X202450185Y-89814211D01*
X202502989Y-89768456D01*
X202572147Y-89758512D01*
X202623390Y-89778148D01*
X202702400Y-89830940D01*
X202702401Y-89830940D01*
X202702402Y-89830941D01*
X202893580Y-89910130D01*
X203096530Y-89950499D01*
X203096534Y-89950500D01*
X203096535Y-89950500D01*
X203303466Y-89950500D01*
X203303467Y-89950499D01*
X203506420Y-89910130D01*
X203697598Y-89830941D01*
X203869655Y-89715977D01*
X204015977Y-89569655D01*
X204130941Y-89397598D01*
X204210130Y-89206420D01*
X204250500Y-89003465D01*
X204250500Y-88796535D01*
X204210130Y-88593580D01*
X204130941Y-88402402D01*
X204015977Y-88230345D01*
X204015975Y-88230342D01*
X203869657Y-88084024D01*
X203722635Y-87985788D01*
X203697598Y-87969059D01*
X203506420Y-87889870D01*
X203506412Y-87889868D01*
X203303469Y-87849500D01*
X203303465Y-87849500D01*
X203096535Y-87849500D01*
X203096530Y-87849500D01*
X202893587Y-87889868D01*
X202893579Y-87889870D01*
X202702401Y-87969059D01*
X202623389Y-88021852D01*
X202556712Y-88042729D01*
X202489332Y-88024244D01*
X202442642Y-87972264D01*
X202430500Y-87918749D01*
X202430500Y-87341250D01*
X202450185Y-87274211D01*
X202502989Y-87228456D01*
X202572147Y-87218512D01*
X202623390Y-87238148D01*
X202702400Y-87290940D01*
X202702401Y-87290940D01*
X202702402Y-87290941D01*
X202893580Y-87370130D01*
X203096530Y-87410499D01*
X203096534Y-87410500D01*
X203096535Y-87410500D01*
X203303466Y-87410500D01*
X203303467Y-87410499D01*
X203506420Y-87370130D01*
X203697598Y-87290941D01*
X203869655Y-87175977D01*
X204015977Y-87029655D01*
X204130941Y-86857598D01*
X204210130Y-86666420D01*
X204250500Y-86463465D01*
X204250500Y-86256535D01*
X204210130Y-86053580D01*
X204130941Y-85862402D01*
X204015977Y-85690345D01*
X204015975Y-85690342D01*
X203869657Y-85544024D01*
X203763940Y-85473387D01*
X203697598Y-85429059D01*
X203662336Y-85414453D01*
X203506420Y-85349870D01*
X203506412Y-85349868D01*
X203303469Y-85309500D01*
X203303465Y-85309500D01*
X203096535Y-85309500D01*
X203096530Y-85309500D01*
X202893587Y-85349868D01*
X202893579Y-85349870D01*
X202702401Y-85429059D01*
X202623389Y-85481852D01*
X202556712Y-85502729D01*
X202489332Y-85484244D01*
X202442642Y-85432264D01*
X202430500Y-85378749D01*
X202430500Y-84801250D01*
X202450185Y-84734211D01*
X202502989Y-84688456D01*
X202572147Y-84678512D01*
X202623390Y-84698148D01*
X202702400Y-84750940D01*
X202702401Y-84750940D01*
X202702402Y-84750941D01*
X202893580Y-84830130D01*
X203077627Y-84866739D01*
X203096530Y-84870499D01*
X203096534Y-84870500D01*
X203096535Y-84870500D01*
X203303466Y-84870500D01*
X203303467Y-84870499D01*
X203506420Y-84830130D01*
X203697598Y-84750941D01*
X203869655Y-84635977D01*
X204015977Y-84489655D01*
X204130941Y-84317598D01*
X204210130Y-84126420D01*
X204250500Y-83923465D01*
X204250500Y-83716535D01*
X204210130Y-83513580D01*
X204130941Y-83322402D01*
X204015977Y-83150345D01*
X204015975Y-83150342D01*
X203869657Y-83004024D01*
X203776609Y-82941852D01*
X203697598Y-82889059D01*
X203506420Y-82809870D01*
X203506412Y-82809868D01*
X203303469Y-82769500D01*
X203303465Y-82769500D01*
X203096535Y-82769500D01*
X203096530Y-82769500D01*
X202893587Y-82809868D01*
X202893579Y-82809870D01*
X202702401Y-82889059D01*
X202623389Y-82941852D01*
X202556712Y-82962729D01*
X202489332Y-82944244D01*
X202442642Y-82892264D01*
X202430500Y-82838749D01*
X202430500Y-82261250D01*
X202450185Y-82194211D01*
X202502989Y-82148456D01*
X202572147Y-82138512D01*
X202623390Y-82158148D01*
X202702400Y-82210940D01*
X202702401Y-82210940D01*
X202702402Y-82210941D01*
X202893580Y-82290130D01*
X203096530Y-82330499D01*
X203096534Y-82330500D01*
X203096535Y-82330500D01*
X203303466Y-82330500D01*
X203303467Y-82330499D01*
X203506420Y-82290130D01*
X203697598Y-82210941D01*
X203869655Y-82095977D01*
X204015977Y-81949655D01*
X204130941Y-81777598D01*
X204210130Y-81586420D01*
X204250500Y-81383465D01*
X204250500Y-81176535D01*
X204210130Y-80973580D01*
X204130941Y-80782402D01*
X204015977Y-80610345D01*
X204015975Y-80610342D01*
X203869657Y-80464024D01*
X203714704Y-80360489D01*
X203697598Y-80349059D01*
X203610457Y-80312964D01*
X203506420Y-80269870D01*
X203506412Y-80269868D01*
X203303469Y-80229500D01*
X203303465Y-80229500D01*
X203096535Y-80229500D01*
X203096530Y-80229500D01*
X202893587Y-80269868D01*
X202893579Y-80269870D01*
X202702401Y-80349059D01*
X202623389Y-80401852D01*
X202556712Y-80422729D01*
X202489332Y-80404244D01*
X202442642Y-80352264D01*
X202430500Y-80298749D01*
X202430500Y-79721250D01*
X202450185Y-79654211D01*
X202502989Y-79608456D01*
X202572147Y-79598512D01*
X202623390Y-79618148D01*
X202702400Y-79670940D01*
X202702401Y-79670940D01*
X202702402Y-79670941D01*
X202893580Y-79750130D01*
X203096530Y-79790499D01*
X203096534Y-79790500D01*
X203096535Y-79790500D01*
X203303466Y-79790500D01*
X203303467Y-79790499D01*
X203506420Y-79750130D01*
X203697598Y-79670941D01*
X203869655Y-79555977D01*
X204015977Y-79409655D01*
X204130941Y-79237598D01*
X204210130Y-79046420D01*
X204250500Y-78843465D01*
X204250500Y-78636535D01*
X204210130Y-78433580D01*
X204130941Y-78242402D01*
X204015977Y-78070345D01*
X204015975Y-78070342D01*
X203869657Y-77924024D01*
X203722635Y-77825788D01*
X203697598Y-77809059D01*
X203506420Y-77729870D01*
X203506412Y-77729868D01*
X203303469Y-77689500D01*
X203303465Y-77689500D01*
X203096535Y-77689500D01*
X203096530Y-77689500D01*
X202893587Y-77729868D01*
X202893579Y-77729870D01*
X202702401Y-77809059D01*
X202623389Y-77861852D01*
X202556712Y-77882729D01*
X202489332Y-77864244D01*
X202442642Y-77812264D01*
X202430500Y-77758749D01*
X202430500Y-77181250D01*
X202450185Y-77114211D01*
X202502989Y-77068456D01*
X202572147Y-77058512D01*
X202623390Y-77078148D01*
X202702400Y-77130940D01*
X202702401Y-77130940D01*
X202702402Y-77130941D01*
X202893580Y-77210130D01*
X203096530Y-77250499D01*
X203096534Y-77250500D01*
X203096535Y-77250500D01*
X203303466Y-77250500D01*
X203303467Y-77250499D01*
X203506420Y-77210130D01*
X203697598Y-77130941D01*
X203869655Y-77015977D01*
X204015977Y-76869655D01*
X204130941Y-76697598D01*
X204210130Y-76506420D01*
X204250500Y-76303465D01*
X204250500Y-76096535D01*
X204210130Y-75893580D01*
X204130941Y-75702402D01*
X204015977Y-75530345D01*
X204015975Y-75530342D01*
X203869657Y-75384024D01*
X203722635Y-75285788D01*
X203697598Y-75269059D01*
X203506420Y-75189870D01*
X203506412Y-75189868D01*
X203303469Y-75149500D01*
X203303465Y-75149500D01*
X203096535Y-75149500D01*
X203096530Y-75149500D01*
X202893587Y-75189868D01*
X202893579Y-75189870D01*
X202702401Y-75269059D01*
X202623389Y-75321852D01*
X202556712Y-75342729D01*
X202489332Y-75324244D01*
X202442642Y-75272264D01*
X202430500Y-75218749D01*
X202430500Y-74641250D01*
X202450185Y-74574211D01*
X202502989Y-74528456D01*
X202572147Y-74518512D01*
X202623390Y-74538148D01*
X202702400Y-74590940D01*
X202702401Y-74590940D01*
X202702402Y-74590941D01*
X202893580Y-74670130D01*
X203096530Y-74710499D01*
X203096534Y-74710500D01*
X203096535Y-74710500D01*
X203303466Y-74710500D01*
X203303467Y-74710499D01*
X203506420Y-74670130D01*
X203697598Y-74590941D01*
X203869655Y-74475977D01*
X204015977Y-74329655D01*
X204130941Y-74157598D01*
X204210130Y-73966420D01*
X204236086Y-73835926D01*
X204243145Y-73800438D01*
X206249500Y-73800438D01*
X206249500Y-88395951D01*
X206251229Y-88402402D01*
X206269979Y-88472379D01*
X206269982Y-88472384D01*
X206309535Y-88540893D01*
X206309539Y-88540898D01*
X206309540Y-88540900D01*
X209009100Y-91240460D01*
X209077623Y-91280022D01*
X209154049Y-91300500D01*
X209233173Y-91300500D01*
X209750500Y-91300500D01*
X209817539Y-91320185D01*
X209863294Y-91372989D01*
X209874500Y-91424499D01*
X209874500Y-91602129D01*
X209890485Y-91682495D01*
X209951375Y-91773624D01*
X209987876Y-91798013D01*
X210042505Y-91834515D01*
X210042508Y-91834515D01*
X210042509Y-91834516D01*
X210064092Y-91838809D01*
X210122867Y-91850500D01*
X211137035Y-91850499D01*
X211204074Y-91870183D01*
X211224716Y-91886818D01*
X211298387Y-91960489D01*
X211401114Y-92019799D01*
X211515691Y-92050500D01*
X211515694Y-92050500D01*
X211634306Y-92050500D01*
X211634309Y-92050500D01*
X211748886Y-92019799D01*
X211851613Y-91960489D01*
X211935489Y-91876613D01*
X211994799Y-91773886D01*
X212025500Y-91659309D01*
X212025500Y-91540691D01*
X211994799Y-91426114D01*
X211935489Y-91323387D01*
X211851613Y-91239511D01*
X211787497Y-91202493D01*
X211739283Y-91151926D01*
X211725499Y-91095110D01*
X211725499Y-90897868D01*
X211709515Y-90817505D01*
X211709513Y-90817502D01*
X211704841Y-90806222D01*
X211706285Y-90805623D01*
X211689563Y-90752211D01*
X211705517Y-90694056D01*
X211704842Y-90693777D01*
X211707070Y-90688396D01*
X211708049Y-90684831D01*
X211709452Y-90682647D01*
X211709516Y-90682493D01*
X211720221Y-90628670D01*
X211725500Y-90602133D01*
X211725499Y-90397868D01*
X211709515Y-90317505D01*
X211709513Y-90317502D01*
X211704841Y-90306222D01*
X211706285Y-90305623D01*
X211689563Y-90252211D01*
X211705517Y-90194056D01*
X211704842Y-90193777D01*
X211707070Y-90188396D01*
X211708049Y-90184831D01*
X211709452Y-90182647D01*
X211709516Y-90182493D01*
X211725499Y-90102136D01*
X211725500Y-90102133D01*
X211725499Y-89966971D01*
X211745183Y-89899933D01*
X211787499Y-89859585D01*
X211846844Y-89825322D01*
X211930720Y-89741446D01*
X211990030Y-89638719D01*
X212020731Y-89524142D01*
X212020731Y-89405524D01*
X212018678Y-89397863D01*
X214274500Y-89397863D01*
X214274500Y-89602129D01*
X214281778Y-89638719D01*
X214290038Y-89680249D01*
X214290486Y-89682498D01*
X214295159Y-89693780D01*
X214293714Y-89694378D01*
X214310436Y-89747788D01*
X214294482Y-89805938D01*
X214295159Y-89806219D01*
X214292926Y-89811609D01*
X214291950Y-89815168D01*
X214290550Y-89817345D01*
X214290484Y-89817505D01*
X214274500Y-89897863D01*
X214274500Y-90102129D01*
X214290485Y-90182495D01*
X214295159Y-90193778D01*
X214293855Y-90194317D01*
X214310737Y-90248238D01*
X214294861Y-90306102D01*
X214295628Y-90306420D01*
X214293100Y-90312520D01*
X214292251Y-90315618D01*
X214291032Y-90317514D01*
X214290953Y-90317704D01*
X214284529Y-90349999D01*
X214284530Y-90350000D01*
X214511699Y-90350000D01*
X214516776Y-90351490D01*
X214516776Y-90350500D01*
X214522866Y-90350499D01*
X214522867Y-90350500D01*
X215076001Y-90350499D01*
X215143039Y-90370183D01*
X215188794Y-90422987D01*
X215200000Y-90474499D01*
X215200000Y-90525500D01*
X215180315Y-90592539D01*
X215127511Y-90638294D01*
X215076000Y-90649500D01*
X214521870Y-90649500D01*
X214511711Y-90650000D01*
X214284529Y-90650000D01*
X214290953Y-90682298D01*
X214295628Y-90693582D01*
X214294103Y-90694213D01*
X214310737Y-90747336D01*
X214294641Y-90806010D01*
X214295158Y-90806224D01*
X214293455Y-90810335D01*
X214292253Y-90814717D01*
X214290527Y-90817402D01*
X214290483Y-90817507D01*
X214274500Y-90897863D01*
X214274500Y-91102129D01*
X214290486Y-91182498D01*
X214295159Y-91193780D01*
X214293714Y-91194378D01*
X214310436Y-91247788D01*
X214294482Y-91305938D01*
X214295159Y-91306219D01*
X214292926Y-91311609D01*
X214291950Y-91315168D01*
X214290550Y-91317345D01*
X214290484Y-91317505D01*
X214274500Y-91397863D01*
X214274500Y-91602129D01*
X214290485Y-91682495D01*
X214351375Y-91773624D01*
X214387876Y-91798013D01*
X214442505Y-91834515D01*
X214442508Y-91834515D01*
X214442509Y-91834516D01*
X214464092Y-91838809D01*
X214522867Y-91850500D01*
X215877132Y-91850499D01*
X215935904Y-91838809D01*
X216005493Y-91845036D01*
X216047774Y-91872745D01*
X216263181Y-92088152D01*
X216296666Y-92149475D01*
X216299500Y-92175833D01*
X216299500Y-93239562D01*
X216313071Y-93290208D01*
X216319980Y-93315991D01*
X216322202Y-93319838D01*
X216322205Y-93319850D01*
X216322208Y-93319849D01*
X216359539Y-93384509D01*
X216359541Y-93384512D01*
X217331550Y-94356521D01*
X217365035Y-94417844D01*
X217360051Y-94487536D01*
X217318179Y-94543469D01*
X217252715Y-94567886D01*
X217202914Y-94561243D01*
X217107262Y-94527772D01*
X217107250Y-94527770D01*
X217077708Y-94525000D01*
X217025000Y-94525000D01*
X217025000Y-94950000D01*
X217462500Y-94950000D01*
X217462500Y-94909791D01*
X217459729Y-94880249D01*
X217459727Y-94880240D01*
X217426256Y-94784586D01*
X217422693Y-94714807D01*
X217457422Y-94654179D01*
X217519415Y-94621952D01*
X217588990Y-94628356D01*
X217630978Y-94655949D01*
X217875681Y-94900652D01*
X217909166Y-94961975D01*
X217912000Y-94988333D01*
X217912000Y-95490260D01*
X217914774Y-95519849D01*
X217958384Y-95644476D01*
X218036788Y-95750710D01*
X218036789Y-95750711D01*
X218143023Y-95829115D01*
X218143024Y-95829115D01*
X218143025Y-95829116D01*
X218267651Y-95872725D01*
X218267650Y-95872725D01*
X218297240Y-95875500D01*
X218297244Y-95875500D01*
X218902760Y-95875500D01*
X218932349Y-95872725D01*
X218933772Y-95872227D01*
X219056975Y-95829116D01*
X219163211Y-95750711D01*
X219236899Y-95650867D01*
X219292546Y-95608616D01*
X219336669Y-95600500D01*
X220900500Y-95600500D01*
X220967539Y-95620185D01*
X221013294Y-95672989D01*
X221024500Y-95724500D01*
X221024500Y-95769752D01*
X221036131Y-95828229D01*
X221036132Y-95828230D01*
X221080447Y-95894552D01*
X221146769Y-95938867D01*
X221146770Y-95938868D01*
X221205247Y-95950499D01*
X221205250Y-95950500D01*
X221589283Y-95950500D01*
X221656322Y-95970185D01*
X221682996Y-95993297D01*
X221723373Y-96039895D01*
X221740955Y-96057839D01*
X221740959Y-96057843D01*
X221740960Y-96057844D01*
X221740962Y-96057845D01*
X221816864Y-96100302D01*
X221820776Y-96102490D01*
X221887815Y-96122175D01*
X221945713Y-96130500D01*
X223145167Y-96130500D01*
X223212206Y-96150185D01*
X223257961Y-96202989D01*
X223267905Y-96272147D01*
X223238880Y-96335703D01*
X223232848Y-96342181D01*
X223134541Y-96440487D01*
X223134535Y-96440495D01*
X223094982Y-96509004D01*
X223094979Y-96509009D01*
X223093505Y-96514511D01*
X223074688Y-96584739D01*
X223074500Y-96585439D01*
X223074500Y-97925500D01*
X223054815Y-97992539D01*
X223002011Y-98038294D01*
X222950500Y-98049500D01*
X222505249Y-98049500D01*
X222499187Y-98050097D01*
X222499055Y-98048758D01*
X222436305Y-98043136D01*
X222381132Y-98000267D01*
X222361944Y-97959846D01*
X222355022Y-97934015D01*
X222355021Y-97934011D01*
X222325551Y-97882967D01*
X222315464Y-97865495D01*
X222315458Y-97865487D01*
X221097012Y-96647041D01*
X221097004Y-96647035D01*
X221028495Y-96607482D01*
X221028490Y-96607479D01*
X220998603Y-96599471D01*
X220952062Y-96587000D01*
X220952060Y-96587000D01*
X219371852Y-96587000D01*
X219304813Y-96567315D01*
X219259058Y-96514511D01*
X219254811Y-96503955D01*
X219244286Y-96473879D01*
X219229116Y-96430525D01*
X219218790Y-96416534D01*
X219150711Y-96324289D01*
X219150710Y-96324288D01*
X219044476Y-96245884D01*
X218919848Y-96202274D01*
X218919849Y-96202274D01*
X218890260Y-96199500D01*
X218890256Y-96199500D01*
X218309744Y-96199500D01*
X218309740Y-96199500D01*
X218280150Y-96202274D01*
X218155523Y-96245884D01*
X218049289Y-96324288D01*
X218049288Y-96324289D01*
X217970884Y-96430523D01*
X217927274Y-96555150D01*
X217924500Y-96584739D01*
X217924500Y-97190260D01*
X217927274Y-97219849D01*
X217970884Y-97344476D01*
X218049288Y-97450710D01*
X218049289Y-97450711D01*
X218155523Y-97529115D01*
X218155524Y-97529115D01*
X218155525Y-97529116D01*
X218280151Y-97572725D01*
X218280150Y-97572725D01*
X218309740Y-97575500D01*
X218309744Y-97575500D01*
X218890260Y-97575500D01*
X218919849Y-97572725D01*
X218926210Y-97570499D01*
X219044475Y-97529116D01*
X219150711Y-97450711D01*
X219229116Y-97344475D01*
X219254811Y-97271045D01*
X219295533Y-97214269D01*
X219360486Y-97188522D01*
X219371852Y-97188000D01*
X220736667Y-97188000D01*
X220803706Y-97207685D01*
X220824348Y-97224319D01*
X221588681Y-97988652D01*
X221622166Y-98049975D01*
X221625000Y-98076333D01*
X221625000Y-99350000D01*
X221644699Y-99350000D01*
X221644702Y-99349999D01*
X221715014Y-99336014D01*
X221715296Y-99337432D01*
X221771341Y-99331404D01*
X221796747Y-99338863D01*
X221855247Y-99350499D01*
X221855250Y-99350500D01*
X221855252Y-99350500D01*
X222294750Y-99350500D01*
X222294751Y-99350499D01*
X222309485Y-99347568D01*
X222365210Y-99336485D01*
X222365464Y-99337762D01*
X222422009Y-99331680D01*
X222445899Y-99338694D01*
X222505247Y-99350499D01*
X222505250Y-99350500D01*
X222505252Y-99350500D01*
X222944750Y-99350500D01*
X222944751Y-99350499D01*
X222959485Y-99347568D01*
X223015210Y-99336485D01*
X223015464Y-99337762D01*
X223072009Y-99331680D01*
X223095899Y-99338694D01*
X223155247Y-99350499D01*
X223155250Y-99350500D01*
X223155252Y-99350500D01*
X223594750Y-99350500D01*
X223594751Y-99350499D01*
X223609568Y-99347552D01*
X223653229Y-99338868D01*
X223653229Y-99338867D01*
X223653231Y-99338867D01*
X223719552Y-99294552D01*
X223763867Y-99228231D01*
X223763867Y-99228229D01*
X223763868Y-99228229D01*
X223775499Y-99169752D01*
X223775500Y-99169750D01*
X223775500Y-98608449D01*
X225125001Y-98608449D01*
X225140762Y-98707967D01*
X225201883Y-98827923D01*
X225201886Y-98827928D01*
X225297071Y-98923113D01*
X225297076Y-98923116D01*
X225417034Y-98984239D01*
X225417033Y-98984239D01*
X225516543Y-98999999D01*
X226050000Y-98999999D01*
X226083449Y-98999999D01*
X226182967Y-98984237D01*
X226302923Y-98923116D01*
X226302928Y-98923113D01*
X226398113Y-98827928D01*
X226398116Y-98827923D01*
X226459239Y-98707966D01*
X226475000Y-98608456D01*
X226475000Y-98600000D01*
X226050000Y-98600000D01*
X226050000Y-98999999D01*
X225516543Y-98999999D01*
X225550000Y-98999998D01*
X225550000Y-98600000D01*
X225125001Y-98600000D01*
X225125001Y-98608449D01*
X223775500Y-98608449D01*
X223775500Y-98230249D01*
X223775499Y-98230247D01*
X223763868Y-98171770D01*
X223763867Y-98171769D01*
X223754683Y-98158024D01*
X223754680Y-98158020D01*
X223719552Y-98105448D01*
X223712191Y-98100529D01*
X223705550Y-98091543D01*
X225125000Y-98091543D01*
X225125000Y-98100000D01*
X225550000Y-98100000D01*
X226050000Y-98100000D01*
X226474999Y-98100000D01*
X226474999Y-98091550D01*
X226459237Y-97992032D01*
X226398116Y-97872076D01*
X226398113Y-97872071D01*
X226302928Y-97776886D01*
X226302923Y-97776883D01*
X226182965Y-97715760D01*
X226182966Y-97715760D01*
X226083456Y-97700000D01*
X226050000Y-97700000D01*
X226050000Y-98100000D01*
X225550000Y-98100000D01*
X225550000Y-97699999D01*
X225516555Y-97700000D01*
X225417032Y-97715762D01*
X225297076Y-97776883D01*
X225297071Y-97776886D01*
X225201886Y-97872071D01*
X225201883Y-97872076D01*
X225140760Y-97992033D01*
X225125000Y-98091543D01*
X223705550Y-98091543D01*
X223699778Y-98083733D01*
X223690820Y-98059258D01*
X223678333Y-98036387D01*
X223676620Y-98020460D01*
X223675764Y-98018119D01*
X223676172Y-98016293D01*
X223675500Y-98010033D01*
X223675500Y-96800833D01*
X223695185Y-96733794D01*
X223711819Y-96713152D01*
X224387319Y-96037652D01*
X224448642Y-96004167D01*
X224518334Y-96009151D01*
X224562681Y-96037652D01*
X225088181Y-96563152D01*
X225121666Y-96624475D01*
X225124500Y-96650833D01*
X225124500Y-97058493D01*
X225140279Y-97158121D01*
X225140280Y-97158124D01*
X225140281Y-97158126D01*
X225201472Y-97278220D01*
X225201473Y-97278221D01*
X225201476Y-97278225D01*
X225296774Y-97373523D01*
X225296778Y-97373526D01*
X225296780Y-97373528D01*
X225416874Y-97434719D01*
X225416876Y-97434719D01*
X225416878Y-97434720D01*
X225516507Y-97450500D01*
X225516512Y-97450500D01*
X226083493Y-97450500D01*
X226183121Y-97434720D01*
X226183121Y-97434719D01*
X226183126Y-97434719D01*
X226303220Y-97373528D01*
X226398528Y-97278220D01*
X226459719Y-97158126D01*
X226459720Y-97158121D01*
X226475500Y-97058493D01*
X226475500Y-96541506D01*
X226459720Y-96441878D01*
X226459719Y-96441876D01*
X226459719Y-96441874D01*
X226398528Y-96321780D01*
X226398526Y-96321778D01*
X226398523Y-96321774D01*
X226303225Y-96226476D01*
X226303221Y-96226473D01*
X226303220Y-96226472D01*
X226183126Y-96165281D01*
X226183124Y-96165280D01*
X226183121Y-96165279D01*
X226083493Y-96149500D01*
X226083488Y-96149500D01*
X225575833Y-96149500D01*
X225508794Y-96129815D01*
X225488152Y-96113181D01*
X224961819Y-95586848D01*
X224928334Y-95525525D01*
X224925500Y-95499167D01*
X224925500Y-95465693D01*
X224925500Y-95465691D01*
X224894799Y-95351114D01*
X224835489Y-95248387D01*
X224751613Y-95164511D01*
X224648886Y-95105201D01*
X224534309Y-95074500D01*
X224415691Y-95074500D01*
X224301114Y-95105201D01*
X224301112Y-95105201D01*
X224301112Y-95105202D01*
X224198387Y-95164511D01*
X224198384Y-95164513D01*
X224167181Y-95195717D01*
X224105858Y-95229202D01*
X224036166Y-95224218D01*
X223980233Y-95182346D01*
X223955816Y-95116882D01*
X223955500Y-95108036D01*
X223955500Y-94799008D01*
X223955499Y-94798992D01*
X223952572Y-94771769D01*
X223950803Y-94755316D01*
X223946897Y-94737364D01*
X223939602Y-94703825D01*
X223939348Y-94702789D01*
X223937110Y-94693627D01*
X223894100Y-94612915D01*
X223848345Y-94560111D01*
X223848339Y-94560104D01*
X223830757Y-94542160D01*
X223830756Y-94542159D01*
X223830754Y-94542157D01*
X223830752Y-94542156D01*
X223830750Y-94542154D01*
X223750940Y-94497511D01*
X223750935Y-94497509D01*
X223683903Y-94477826D01*
X223683899Y-94477825D01*
X223683898Y-94477825D01*
X223626000Y-94469500D01*
X221945713Y-94469500D01*
X221945183Y-94469507D01*
X221940158Y-94469574D01*
X221933571Y-94469751D01*
X221870707Y-94481382D01*
X221870704Y-94481383D01*
X221804829Y-94504623D01*
X221804797Y-94504636D01*
X221781666Y-94514426D01*
X221710894Y-94572359D01*
X221688206Y-94601568D01*
X221631535Y-94642436D01*
X221590279Y-94649500D01*
X221205247Y-94649500D01*
X221146770Y-94661131D01*
X221146769Y-94661132D01*
X221080447Y-94705447D01*
X221036132Y-94771769D01*
X221036131Y-94771770D01*
X221024500Y-94830247D01*
X221024500Y-94875500D01*
X221004815Y-94942539D01*
X220952011Y-94988294D01*
X220900500Y-94999500D01*
X219409333Y-94999500D01*
X219342294Y-94979815D01*
X219296539Y-94927011D01*
X219285875Y-94887077D01*
X219285225Y-94880151D01*
X219267763Y-94830247D01*
X219241616Y-94755525D01*
X219203445Y-94703805D01*
X219163211Y-94649289D01*
X219163210Y-94649288D01*
X219056976Y-94570884D01*
X218932348Y-94527274D01*
X218932349Y-94527274D01*
X218902760Y-94524500D01*
X218902756Y-94524500D01*
X218400833Y-94524500D01*
X218333794Y-94504815D01*
X218313152Y-94488181D01*
X216936819Y-93111848D01*
X216922115Y-93084920D01*
X216905523Y-93059102D01*
X216904631Y-93052901D01*
X216903334Y-93050525D01*
X216900500Y-93024167D01*
X216900500Y-92940691D01*
X218149500Y-92940691D01*
X218149500Y-93059309D01*
X218180201Y-93173886D01*
X218239511Y-93276613D01*
X218323387Y-93360489D01*
X218426114Y-93419799D01*
X218540691Y-93450500D01*
X218540694Y-93450500D01*
X218659306Y-93450500D01*
X218659309Y-93450500D01*
X218773886Y-93419799D01*
X218876613Y-93360489D01*
X218946894Y-93290208D01*
X220537500Y-93290208D01*
X220540270Y-93319750D01*
X220540272Y-93319762D01*
X220583829Y-93444237D01*
X220662146Y-93550353D01*
X220768262Y-93628670D01*
X220892737Y-93672227D01*
X220892749Y-93672229D01*
X220922292Y-93675000D01*
X221025000Y-93675000D01*
X221525000Y-93675000D01*
X221627708Y-93675000D01*
X221657250Y-93672229D01*
X221657262Y-93672227D01*
X221781737Y-93628670D01*
X221887853Y-93550353D01*
X221966170Y-93444237D01*
X222009727Y-93319762D01*
X222009729Y-93319750D01*
X222012500Y-93290208D01*
X222012500Y-93250000D01*
X221525000Y-93250000D01*
X221525000Y-93675000D01*
X221025000Y-93675000D01*
X221025000Y-93250000D01*
X220537500Y-93250000D01*
X220537500Y-93290208D01*
X218946894Y-93290208D01*
X218960489Y-93276613D01*
X219019799Y-93173886D01*
X219050500Y-93059309D01*
X219050500Y-92940691D01*
X219019799Y-92826114D01*
X219019797Y-92826110D01*
X218986765Y-92768897D01*
X218986764Y-92768895D01*
X218960493Y-92723393D01*
X218960490Y-92723390D01*
X218960489Y-92723387D01*
X218946893Y-92709791D01*
X220537500Y-92709791D01*
X220537500Y-92750000D01*
X221025000Y-92750000D01*
X221525000Y-92750000D01*
X222012500Y-92750000D01*
X222012500Y-92709791D01*
X222009729Y-92680249D01*
X222009727Y-92680237D01*
X221966170Y-92555762D01*
X221887853Y-92449646D01*
X221781737Y-92371329D01*
X221657262Y-92327772D01*
X221657250Y-92327770D01*
X221627708Y-92325000D01*
X221525000Y-92325000D01*
X221525000Y-92750000D01*
X221025000Y-92750000D01*
X221025000Y-92325000D01*
X220922292Y-92325000D01*
X220892749Y-92327770D01*
X220892737Y-92327772D01*
X220768262Y-92371329D01*
X220662146Y-92449646D01*
X220583829Y-92555762D01*
X220540272Y-92680237D01*
X220540270Y-92680249D01*
X220537500Y-92709791D01*
X218946893Y-92709791D01*
X218876613Y-92639511D01*
X218773886Y-92580201D01*
X218659309Y-92549500D01*
X218540691Y-92549500D01*
X218426114Y-92580201D01*
X218426112Y-92580201D01*
X218426112Y-92580202D01*
X218323387Y-92639511D01*
X218323384Y-92639513D01*
X218239513Y-92723384D01*
X218239511Y-92723387D01*
X218213236Y-92768897D01*
X218180201Y-92826114D01*
X218149500Y-92940691D01*
X216900500Y-92940691D01*
X216900500Y-90290208D01*
X220537500Y-90290208D01*
X220540270Y-90319750D01*
X220540272Y-90319762D01*
X220583829Y-90444237D01*
X220662146Y-90550353D01*
X220768262Y-90628670D01*
X220892737Y-90672227D01*
X220892749Y-90672229D01*
X220922292Y-90675000D01*
X221025000Y-90675000D01*
X221525000Y-90675000D01*
X221627708Y-90675000D01*
X221657250Y-90672229D01*
X221657262Y-90672227D01*
X221781737Y-90628670D01*
X221887853Y-90550353D01*
X221966170Y-90444237D01*
X222009727Y-90319762D01*
X222009729Y-90319750D01*
X222012500Y-90290208D01*
X222012500Y-90250000D01*
X221525000Y-90250000D01*
X221525000Y-90675000D01*
X221025000Y-90675000D01*
X221025000Y-90250000D01*
X220537500Y-90250000D01*
X220537500Y-90290208D01*
X216900500Y-90290208D01*
X216900500Y-89760439D01*
X216900500Y-89760438D01*
X216894753Y-89738990D01*
X216894753Y-89738988D01*
X216886929Y-89709791D01*
X220537500Y-89709791D01*
X220537500Y-89750000D01*
X221025000Y-89750000D01*
X221525000Y-89750000D01*
X222012500Y-89750000D01*
X222012500Y-89709792D01*
X222012499Y-89709791D01*
X222012494Y-89709739D01*
X222262000Y-89709739D01*
X222262000Y-90290260D01*
X222264774Y-90319849D01*
X222308384Y-90444476D01*
X222386788Y-90550710D01*
X222386789Y-90550711D01*
X222493023Y-90629115D01*
X222493024Y-90629115D01*
X222493025Y-90629116D01*
X222617651Y-90672725D01*
X222617650Y-90672725D01*
X222647240Y-90675500D01*
X223296458Y-90675500D01*
X223363497Y-90695185D01*
X223409252Y-90747989D01*
X223419196Y-90817147D01*
X223416233Y-90831591D01*
X223387000Y-90940691D01*
X223387000Y-91059309D01*
X223417701Y-91173886D01*
X223477011Y-91276613D01*
X223560887Y-91360489D01*
X223616527Y-91392613D01*
X223664742Y-91443181D01*
X223677964Y-91511788D01*
X223651996Y-91576653D01*
X223616527Y-91607387D01*
X223560887Y-91639511D01*
X223560884Y-91639513D01*
X223477013Y-91723384D01*
X223477011Y-91723387D01*
X223447855Y-91773887D01*
X223417701Y-91826114D01*
X223387000Y-91940691D01*
X223387000Y-91940693D01*
X223387000Y-92059308D01*
X223416233Y-92168407D01*
X223414570Y-92238256D01*
X223375407Y-92296119D01*
X223311179Y-92323623D01*
X223296458Y-92324500D01*
X222647240Y-92324500D01*
X222617650Y-92327274D01*
X222493023Y-92370884D01*
X222386789Y-92449288D01*
X222386788Y-92449289D01*
X222308384Y-92555523D01*
X222264774Y-92680150D01*
X222262000Y-92709739D01*
X222262000Y-93290260D01*
X222264774Y-93319849D01*
X222308384Y-93444476D01*
X222386788Y-93550710D01*
X222386789Y-93550711D01*
X222493023Y-93629115D01*
X222493024Y-93629115D01*
X222493025Y-93629116D01*
X222617651Y-93672725D01*
X222617650Y-93672725D01*
X222647240Y-93675500D01*
X222647244Y-93675500D01*
X223352760Y-93675500D01*
X223382349Y-93672725D01*
X223383772Y-93672227D01*
X223506975Y-93629116D01*
X223613211Y-93550711D01*
X223691616Y-93444475D01*
X223735225Y-93319849D01*
X223736116Y-93310345D01*
X223738000Y-93290260D01*
X223738000Y-92709739D01*
X223735225Y-92680151D01*
X223712587Y-92615456D01*
X223709024Y-92545677D01*
X223743753Y-92485049D01*
X223805746Y-92452822D01*
X223829628Y-92450500D01*
X223896806Y-92450500D01*
X223896809Y-92450500D01*
X224011386Y-92419799D01*
X224114113Y-92360489D01*
X224197989Y-92276613D01*
X224257299Y-92173886D01*
X224288000Y-92059309D01*
X224288000Y-91940691D01*
X224257299Y-91826114D01*
X224197989Y-91723387D01*
X224114113Y-91639511D01*
X224058472Y-91607386D01*
X224010257Y-91556820D01*
X223997035Y-91488213D01*
X224023003Y-91423348D01*
X224058473Y-91392613D01*
X224114113Y-91360489D01*
X224197989Y-91276613D01*
X224257299Y-91173886D01*
X224288000Y-91059309D01*
X224288000Y-90940691D01*
X224257299Y-90826114D01*
X224197989Y-90723387D01*
X224114113Y-90639511D01*
X224011386Y-90580201D01*
X223896809Y-90549500D01*
X223829628Y-90549500D01*
X223762589Y-90529815D01*
X223716834Y-90477011D01*
X223706890Y-90407853D01*
X223712587Y-90384544D01*
X223724153Y-90351490D01*
X223735225Y-90319849D01*
X223736559Y-90305623D01*
X223738000Y-90290260D01*
X223738000Y-89709739D01*
X223735225Y-89680150D01*
X223691615Y-89555523D01*
X223613211Y-89449289D01*
X223613210Y-89449288D01*
X223506976Y-89370884D01*
X223382348Y-89327274D01*
X223382349Y-89327274D01*
X223352760Y-89324500D01*
X223352756Y-89324500D01*
X222647244Y-89324500D01*
X222647240Y-89324500D01*
X222617650Y-89327274D01*
X222493023Y-89370884D01*
X222386789Y-89449288D01*
X222386788Y-89449289D01*
X222308384Y-89555523D01*
X222264774Y-89680150D01*
X222262000Y-89709739D01*
X222012494Y-89709739D01*
X222009729Y-89680249D01*
X222009727Y-89680237D01*
X221966170Y-89555762D01*
X221887853Y-89449646D01*
X221781737Y-89371329D01*
X221657262Y-89327772D01*
X221657250Y-89327770D01*
X221627708Y-89325000D01*
X221525000Y-89325000D01*
X221525000Y-89750000D01*
X221025000Y-89750000D01*
X221025000Y-89325000D01*
X220922292Y-89325000D01*
X220892749Y-89327770D01*
X220892737Y-89327772D01*
X220768262Y-89371329D01*
X220662146Y-89449646D01*
X220583829Y-89555762D01*
X220540272Y-89680237D01*
X220540270Y-89680249D01*
X220537500Y-89709791D01*
X216886929Y-89709791D01*
X216880022Y-89684015D01*
X216880021Y-89684011D01*
X216880017Y-89684004D01*
X216840464Y-89615495D01*
X216840458Y-89615487D01*
X216784511Y-89559540D01*
X216484514Y-89259542D01*
X216484511Y-89259540D01*
X216477505Y-89255495D01*
X216477504Y-89255494D01*
X216415991Y-89219980D01*
X216415990Y-89219979D01*
X216390513Y-89213152D01*
X216339562Y-89199500D01*
X216339560Y-89199500D01*
X216046017Y-89199500D01*
X215978978Y-89179815D01*
X215977127Y-89178603D01*
X215957495Y-89165485D01*
X215957492Y-89165484D01*
X215957492Y-89165483D01*
X215877136Y-89149500D01*
X214522870Y-89149500D01*
X214442504Y-89165485D01*
X214351375Y-89226375D01*
X214290485Y-89317505D01*
X214290483Y-89317509D01*
X214274500Y-89397863D01*
X212018678Y-89397863D01*
X211990030Y-89290947D01*
X211930720Y-89188220D01*
X211846844Y-89104344D01*
X211744117Y-89045034D01*
X211629540Y-89014333D01*
X211510922Y-89014333D01*
X211396345Y-89045034D01*
X211396343Y-89045034D01*
X211396343Y-89045035D01*
X211293613Y-89104347D01*
X211284776Y-89113184D01*
X211223452Y-89146667D01*
X211197098Y-89149500D01*
X210122870Y-89149500D01*
X210042504Y-89165485D01*
X209951375Y-89226375D01*
X209890485Y-89317505D01*
X209890483Y-89317509D01*
X209874500Y-89397863D01*
X209874500Y-89397865D01*
X209874501Y-89575499D01*
X209854817Y-89642539D01*
X209802013Y-89688294D01*
X209750501Y-89699500D01*
X208865833Y-89699500D01*
X208798794Y-89679815D01*
X208778152Y-89663181D01*
X207416819Y-88301848D01*
X207383334Y-88240525D01*
X207380500Y-88214167D01*
X207380500Y-84866739D01*
X209837000Y-84866739D01*
X209837000Y-85233260D01*
X209846926Y-85301391D01*
X209898303Y-85406485D01*
X209981014Y-85489196D01*
X209981015Y-85489196D01*
X209981017Y-85489198D01*
X210086107Y-85540573D01*
X210109786Y-85544023D01*
X210154239Y-85550500D01*
X210154240Y-85550500D01*
X211395761Y-85550500D01*
X211418471Y-85547191D01*
X211463893Y-85540573D01*
X211568983Y-85489198D01*
X211620232Y-85437947D01*
X211675822Y-85405853D01*
X211700378Y-85399274D01*
X211803105Y-85339964D01*
X211886981Y-85256088D01*
X211946291Y-85153361D01*
X211976992Y-85038784D01*
X211976992Y-84920166D01*
X211946291Y-84805589D01*
X211886981Y-84702862D01*
X211803105Y-84618986D01*
X211700378Y-84559676D01*
X211585801Y-84528975D01*
X211467183Y-84528975D01*
X211406350Y-84545275D01*
X211374257Y-84549500D01*
X210154239Y-84549500D01*
X210086108Y-84559426D01*
X209981014Y-84610803D01*
X209898303Y-84693514D01*
X209846926Y-84798608D01*
X209837000Y-84866739D01*
X207380500Y-84866739D01*
X207380500Y-74967964D01*
X207400185Y-74900925D01*
X207416819Y-74880283D01*
X207440489Y-74856613D01*
X207499799Y-74753886D01*
X207530500Y-74639309D01*
X207530500Y-74520691D01*
X207499799Y-74406114D01*
X207440489Y-74303387D01*
X207356613Y-74219511D01*
X207253886Y-74160201D01*
X207139309Y-74129500D01*
X207020691Y-74129500D01*
X207020689Y-74129500D01*
X207009774Y-74132425D01*
X207006720Y-74132352D01*
X207004040Y-74133816D01*
X206972009Y-74131525D01*
X206939924Y-74130761D01*
X206937396Y-74129049D01*
X206934348Y-74128832D01*
X206908642Y-74109588D01*
X206882062Y-74091598D01*
X206880859Y-74088790D01*
X206878415Y-74086960D01*
X206867195Y-74056879D01*
X206854559Y-74027369D01*
X206855065Y-74024357D01*
X206853998Y-74021496D01*
X206860821Y-73990129D01*
X206866146Y-73958467D01*
X206868396Y-73955306D01*
X206868850Y-73953223D01*
X206889995Y-73924975D01*
X207018154Y-73796816D01*
X207079475Y-73763334D01*
X207105833Y-73760500D01*
X207139306Y-73760500D01*
X207139309Y-73760500D01*
X207253886Y-73729799D01*
X207356613Y-73670489D01*
X207440489Y-73586613D01*
X207499799Y-73483886D01*
X207530500Y-73369309D01*
X207530500Y-73250691D01*
X207499799Y-73136114D01*
X207440489Y-73033387D01*
X207356613Y-72949511D01*
X207253886Y-72890201D01*
X207139309Y-72859500D01*
X207020691Y-72859500D01*
X206906114Y-72890201D01*
X206906112Y-72890201D01*
X206906112Y-72890202D01*
X206803387Y-72949511D01*
X206803384Y-72949513D01*
X206719513Y-73033384D01*
X206719511Y-73033387D01*
X206660201Y-73136114D01*
X206629500Y-73250691D01*
X206629500Y-73250693D01*
X206629500Y-73284167D01*
X206609815Y-73351206D01*
X206593181Y-73371848D01*
X206309541Y-73655487D01*
X206309535Y-73655495D01*
X206269982Y-73724004D01*
X206269979Y-73724009D01*
X206258154Y-73768142D01*
X206249500Y-73800438D01*
X204243145Y-73800438D01*
X204249570Y-73768142D01*
X204249574Y-73768121D01*
X204250500Y-73763465D01*
X204250500Y-73556534D01*
X204250499Y-73556530D01*
X204210130Y-73353580D01*
X204130941Y-73162402D01*
X204015977Y-72990345D01*
X204015975Y-72990342D01*
X203869657Y-72844024D01*
X203722635Y-72745788D01*
X203697598Y-72729059D01*
X203506420Y-72649870D01*
X203506412Y-72649868D01*
X203303469Y-72609500D01*
X203303465Y-72609500D01*
X203096535Y-72609500D01*
X203096530Y-72609500D01*
X202893587Y-72649868D01*
X202893579Y-72649870D01*
X202702401Y-72729059D01*
X202623389Y-72781852D01*
X202556712Y-72802729D01*
X202489332Y-72784244D01*
X202442642Y-72732264D01*
X202430500Y-72678749D01*
X202430500Y-72101250D01*
X202450185Y-72034211D01*
X202502989Y-71988456D01*
X202572147Y-71978512D01*
X202623390Y-71998148D01*
X202702400Y-72050940D01*
X202702401Y-72050940D01*
X202702402Y-72050941D01*
X202893580Y-72130130D01*
X203096530Y-72170499D01*
X203096534Y-72170500D01*
X203096535Y-72170500D01*
X203303466Y-72170500D01*
X203303467Y-72170499D01*
X203506420Y-72130130D01*
X203697598Y-72050941D01*
X203869655Y-71935977D01*
X204015977Y-71789655D01*
X204130941Y-71617598D01*
X204210130Y-71426420D01*
X204250500Y-71223465D01*
X204250500Y-71016535D01*
X204210130Y-70813580D01*
X204130941Y-70622402D01*
X204015977Y-70450345D01*
X204015975Y-70450342D01*
X203869657Y-70304024D01*
X203722635Y-70205788D01*
X203697598Y-70189059D01*
X203506420Y-70109870D01*
X203506412Y-70109868D01*
X203303469Y-70069500D01*
X203303465Y-70069500D01*
X203096535Y-70069500D01*
X203096530Y-70069500D01*
X202893587Y-70109868D01*
X202893579Y-70109870D01*
X202702401Y-70189059D01*
X202623389Y-70241852D01*
X202556712Y-70262729D01*
X202489332Y-70244244D01*
X202442642Y-70192264D01*
X202430500Y-70138749D01*
X202430500Y-69561250D01*
X202450185Y-69494211D01*
X202502989Y-69448456D01*
X202572147Y-69438512D01*
X202623390Y-69458148D01*
X202702400Y-69510940D01*
X202702401Y-69510940D01*
X202702402Y-69510941D01*
X202893580Y-69590130D01*
X203096530Y-69630499D01*
X203096534Y-69630500D01*
X203096535Y-69630500D01*
X203303466Y-69630500D01*
X203303467Y-69630499D01*
X203506420Y-69590130D01*
X203697598Y-69510941D01*
X203869655Y-69395977D01*
X204015977Y-69249655D01*
X204130941Y-69077598D01*
X204210130Y-68886420D01*
X204250500Y-68683465D01*
X204250500Y-68476535D01*
X204210130Y-68273580D01*
X204130941Y-68082402D01*
X204015977Y-67910345D01*
X204015975Y-67910342D01*
X203869657Y-67764024D01*
X203722635Y-67665788D01*
X203697598Y-67649059D01*
X203506420Y-67569870D01*
X203506412Y-67569868D01*
X203303469Y-67529500D01*
X203303465Y-67529500D01*
X203096535Y-67529500D01*
X203096530Y-67529500D01*
X202893587Y-67569868D01*
X202893579Y-67569870D01*
X202702401Y-67649059D01*
X202623389Y-67701852D01*
X202556712Y-67722729D01*
X202489332Y-67704244D01*
X202442642Y-67652264D01*
X202430500Y-67598749D01*
X202430500Y-67021250D01*
X202450185Y-66954211D01*
X202502989Y-66908456D01*
X202572147Y-66898512D01*
X202623390Y-66918148D01*
X202702400Y-66970940D01*
X202702401Y-66970940D01*
X202702402Y-66970941D01*
X202893580Y-67050130D01*
X203096530Y-67090499D01*
X203096534Y-67090500D01*
X203096535Y-67090500D01*
X203303466Y-67090500D01*
X203303467Y-67090499D01*
X203506420Y-67050130D01*
X203697598Y-66970941D01*
X203869655Y-66855977D01*
X204015977Y-66709655D01*
X204130941Y-66537598D01*
X204210130Y-66346420D01*
X204250500Y-66143465D01*
X204250500Y-65936535D01*
X204210130Y-65733580D01*
X204130941Y-65542402D01*
X204015977Y-65370345D01*
X204015975Y-65370342D01*
X203869657Y-65224024D01*
X203722635Y-65125788D01*
X203697598Y-65109059D01*
X203506420Y-65029870D01*
X203506412Y-65029868D01*
X203303469Y-64989500D01*
X203303465Y-64989500D01*
X203096535Y-64989500D01*
X203096530Y-64989500D01*
X202893587Y-65029868D01*
X202893579Y-65029870D01*
X202702401Y-65109059D01*
X202623389Y-65161852D01*
X202556712Y-65182729D01*
X202489332Y-65164244D01*
X202442642Y-65112264D01*
X202430500Y-65058749D01*
X202430500Y-64481250D01*
X202450185Y-64414211D01*
X202502989Y-64368456D01*
X202572147Y-64358512D01*
X202623390Y-64378148D01*
X202702400Y-64430940D01*
X202702401Y-64430940D01*
X202702402Y-64430941D01*
X202893580Y-64510130D01*
X203096530Y-64550499D01*
X203096534Y-64550500D01*
X203096535Y-64550500D01*
X203303466Y-64550500D01*
X203303467Y-64550499D01*
X203506420Y-64510130D01*
X203697598Y-64430941D01*
X203869655Y-64315977D01*
X204015977Y-64169655D01*
X204130941Y-63997598D01*
X204210130Y-63806420D01*
X204250500Y-63603465D01*
X204250500Y-63396535D01*
X204210130Y-63193580D01*
X204130941Y-63002402D01*
X204015977Y-62830345D01*
X204015975Y-62830342D01*
X203869657Y-62684024D01*
X203722635Y-62585788D01*
X203697598Y-62569059D01*
X203635053Y-62543152D01*
X203506420Y-62489870D01*
X203506412Y-62489868D01*
X203303469Y-62449500D01*
X203303465Y-62449500D01*
X203096535Y-62449500D01*
X203096530Y-62449500D01*
X202893587Y-62489868D01*
X202893579Y-62489870D01*
X202702401Y-62569059D01*
X202623389Y-62621852D01*
X202556712Y-62642729D01*
X202489332Y-62624244D01*
X202442642Y-62572264D01*
X202430500Y-62518749D01*
X202430500Y-61941250D01*
X202450185Y-61874211D01*
X202502989Y-61828456D01*
X202572147Y-61818512D01*
X202623390Y-61838148D01*
X202702400Y-61890940D01*
X202702401Y-61890940D01*
X202702402Y-61890941D01*
X202893580Y-61970130D01*
X203096530Y-62010499D01*
X203096534Y-62010500D01*
X203096535Y-62010500D01*
X203303466Y-62010500D01*
X203303467Y-62010499D01*
X203506420Y-61970130D01*
X203697598Y-61890941D01*
X203869655Y-61775977D01*
X204015977Y-61629655D01*
X204130941Y-61457598D01*
X204210130Y-61266420D01*
X204250500Y-61063465D01*
X204250500Y-60856535D01*
X204210130Y-60653580D01*
X204130941Y-60462402D01*
X204015977Y-60290345D01*
X204015975Y-60290342D01*
X203869657Y-60144024D01*
X203722635Y-60045788D01*
X203697598Y-60029059D01*
X203644222Y-60006950D01*
X203506420Y-59949870D01*
X203506412Y-59949868D01*
X203303469Y-59909500D01*
X203303465Y-59909500D01*
X203096535Y-59909500D01*
X203096530Y-59909500D01*
X202893587Y-59949868D01*
X202893579Y-59949870D01*
X202702401Y-60029059D01*
X202623389Y-60081852D01*
X202556712Y-60102729D01*
X202489332Y-60084244D01*
X202442642Y-60032264D01*
X202430500Y-59978749D01*
X202430500Y-59594000D01*
X202445914Y-59541506D01*
X204724500Y-59541506D01*
X204724500Y-60058493D01*
X204740279Y-60158121D01*
X204740280Y-60158124D01*
X204740281Y-60158126D01*
X204783969Y-60243868D01*
X204801473Y-60278221D01*
X204801476Y-60278225D01*
X204896774Y-60373523D01*
X204896778Y-60373526D01*
X204896780Y-60373528D01*
X205016874Y-60434719D01*
X205016876Y-60434719D01*
X205016878Y-60434720D01*
X205116507Y-60450500D01*
X205116512Y-60450500D01*
X205683493Y-60450500D01*
X205783121Y-60434720D01*
X205783121Y-60434719D01*
X205783126Y-60434719D01*
X205903220Y-60373528D01*
X205973273Y-60303475D01*
X206479500Y-60303475D01*
X206479500Y-60916517D01*
X206490292Y-60984657D01*
X206494354Y-61010304D01*
X206551950Y-61123342D01*
X206551952Y-61123344D01*
X206551954Y-61123347D01*
X206641652Y-61213045D01*
X206641654Y-61213046D01*
X206641658Y-61213050D01*
X206746402Y-61266420D01*
X206754698Y-61270647D01*
X206848475Y-61285499D01*
X206848481Y-61285500D01*
X207279166Y-61285499D01*
X207346205Y-61305183D01*
X207366847Y-61321818D01*
X208588181Y-62543152D01*
X208621666Y-62604475D01*
X208624500Y-62630833D01*
X208624500Y-79512036D01*
X208604815Y-79579075D01*
X208588181Y-79599717D01*
X208564513Y-79623384D01*
X208564511Y-79623387D01*
X208505201Y-79726114D01*
X208474500Y-79840691D01*
X208474500Y-79959309D01*
X208505201Y-80073886D01*
X208564511Y-80176613D01*
X208564513Y-80176615D01*
X208569458Y-80183059D01*
X208568026Y-80184157D01*
X208596666Y-80236606D01*
X208599500Y-80262964D01*
X208599500Y-83475500D01*
X208579815Y-83542539D01*
X208527011Y-83588294D01*
X208475500Y-83599500D01*
X208279239Y-83599500D01*
X208211108Y-83609426D01*
X208106014Y-83660803D01*
X208023303Y-83743514D01*
X207971926Y-83848608D01*
X207962000Y-83916739D01*
X207962000Y-84283260D01*
X207971926Y-84351391D01*
X208023303Y-84456485D01*
X208106014Y-84539196D01*
X208106015Y-84539196D01*
X208106017Y-84539198D01*
X208211107Y-84590573D01*
X208244497Y-84595438D01*
X208279239Y-84600500D01*
X208279240Y-84600500D01*
X209520761Y-84600500D01*
X209543471Y-84597191D01*
X209588893Y-84590573D01*
X209693983Y-84539198D01*
X209776698Y-84456483D01*
X209828073Y-84351393D01*
X209838000Y-84283260D01*
X209838000Y-83916740D01*
X209828073Y-83848607D01*
X209776698Y-83743517D01*
X209776696Y-83743515D01*
X209776696Y-83743514D01*
X209693985Y-83660803D01*
X209588891Y-83609426D01*
X209520761Y-83599500D01*
X209520760Y-83599500D01*
X209324500Y-83599500D01*
X209257461Y-83579815D01*
X209211706Y-83527011D01*
X209200500Y-83475500D01*
X209200500Y-82966739D01*
X209837000Y-82966739D01*
X209837000Y-83333260D01*
X209846926Y-83401391D01*
X209898303Y-83506485D01*
X209981014Y-83589196D01*
X209981015Y-83589196D01*
X209981017Y-83589198D01*
X210086107Y-83640573D01*
X210120173Y-83645536D01*
X210154239Y-83650500D01*
X210154240Y-83650500D01*
X211395761Y-83650500D01*
X211418471Y-83647191D01*
X211463893Y-83640573D01*
X211568983Y-83589198D01*
X211651698Y-83506483D01*
X211651700Y-83506477D01*
X211654577Y-83502450D01*
X211709551Y-83459326D01*
X211755497Y-83450500D01*
X212516956Y-83450500D01*
X212583995Y-83470185D01*
X212629750Y-83522989D01*
X212639694Y-83592147D01*
X212610669Y-83655703D01*
X212604637Y-83662181D01*
X212523303Y-83743514D01*
X212471926Y-83848608D01*
X212462000Y-83916739D01*
X212462000Y-84283260D01*
X212471926Y-84351391D01*
X212523303Y-84456485D01*
X212606014Y-84539196D01*
X212606015Y-84539196D01*
X212606017Y-84539198D01*
X212711107Y-84590573D01*
X212744497Y-84595438D01*
X212779239Y-84600500D01*
X212779240Y-84600500D01*
X213330500Y-84600500D01*
X213397539Y-84620185D01*
X213443294Y-84672989D01*
X213454500Y-84724500D01*
X213454500Y-85362036D01*
X213434815Y-85429075D01*
X213418181Y-85449717D01*
X213394513Y-85473384D01*
X213394511Y-85473387D01*
X213335201Y-85576114D01*
X213304500Y-85690691D01*
X213304500Y-85809309D01*
X213335201Y-85923886D01*
X213394511Y-86026613D01*
X213478387Y-86110489D01*
X213581114Y-86169799D01*
X213695691Y-86200500D01*
X213695694Y-86200500D01*
X213814306Y-86200500D01*
X213814309Y-86200500D01*
X213928886Y-86169799D01*
X214031613Y-86110489D01*
X214115489Y-86026613D01*
X214174799Y-85923886D01*
X214205500Y-85809309D01*
X214205500Y-85690691D01*
X214174799Y-85576114D01*
X214115489Y-85473387D01*
X214091819Y-85449717D01*
X214058334Y-85388394D01*
X214055500Y-85362036D01*
X214055500Y-84684302D01*
X214075185Y-84617263D01*
X214125039Y-84572901D01*
X214193983Y-84539198D01*
X214276698Y-84456483D01*
X214319799Y-84368316D01*
X214339440Y-84346819D01*
X214356890Y-84323510D01*
X214362725Y-84321333D01*
X214366927Y-84316735D01*
X214395070Y-84309269D01*
X214422354Y-84299093D01*
X214428440Y-84300417D01*
X214434461Y-84298820D01*
X214462173Y-84307755D01*
X214490627Y-84313945D01*
X214497629Y-84319187D01*
X214500960Y-84320261D01*
X214518881Y-84335096D01*
X214568821Y-84385036D01*
X214602306Y-84446359D01*
X214597322Y-84516051D01*
X214555450Y-84571984D01*
X214535601Y-84584117D01*
X214481015Y-84610802D01*
X214398303Y-84693514D01*
X214346926Y-84798608D01*
X214337000Y-84866739D01*
X214337000Y-85233260D01*
X214346926Y-85301391D01*
X214398303Y-85406485D01*
X214481014Y-85489196D01*
X214481015Y-85489196D01*
X214481017Y-85489198D01*
X214586107Y-85540573D01*
X214609786Y-85544023D01*
X214654239Y-85550500D01*
X214654240Y-85550500D01*
X215895761Y-85550500D01*
X215918471Y-85547191D01*
X215963893Y-85540573D01*
X216068983Y-85489198D01*
X216151698Y-85406483D01*
X216203073Y-85301393D01*
X216213000Y-85233260D01*
X216213000Y-84866740D01*
X216203073Y-84798607D01*
X216151698Y-84693517D01*
X216151696Y-84693515D01*
X216151696Y-84693514D01*
X216068985Y-84610803D01*
X215963891Y-84559426D01*
X215895761Y-84549500D01*
X215895760Y-84549500D01*
X215626177Y-84549500D01*
X215559138Y-84529815D01*
X215518790Y-84487500D01*
X215515462Y-84481736D01*
X215515458Y-84481731D01*
X214895908Y-83862181D01*
X214862423Y-83800858D01*
X214867407Y-83731166D01*
X214909279Y-83675233D01*
X214974743Y-83650816D01*
X214983589Y-83650500D01*
X215895761Y-83650500D01*
X215918471Y-83647191D01*
X215963893Y-83640573D01*
X216065929Y-83590691D01*
X217599500Y-83590691D01*
X217599500Y-83709309D01*
X217630201Y-83823886D01*
X217689511Y-83926613D01*
X217773387Y-84010489D01*
X217876114Y-84069799D01*
X217990691Y-84100500D01*
X217990694Y-84100500D01*
X218109306Y-84100500D01*
X218109309Y-84100500D01*
X218223886Y-84069799D01*
X218326613Y-84010489D01*
X218410489Y-83926613D01*
X218469799Y-83823886D01*
X218500500Y-83709309D01*
X218500500Y-83590691D01*
X222499500Y-83590691D01*
X222499500Y-83709309D01*
X222530201Y-83823886D01*
X222589511Y-83926613D01*
X222673387Y-84010489D01*
X222776114Y-84069799D01*
X222890691Y-84100500D01*
X222890694Y-84100500D01*
X223009306Y-84100500D01*
X223009309Y-84100500D01*
X223123886Y-84069799D01*
X223226613Y-84010489D01*
X223310489Y-83926613D01*
X223369799Y-83823886D01*
X223400500Y-83709309D01*
X223400500Y-83590691D01*
X223369799Y-83476114D01*
X223310489Y-83373387D01*
X223226613Y-83289511D01*
X223123886Y-83230201D01*
X223009309Y-83199500D01*
X222890691Y-83199500D01*
X222776114Y-83230201D01*
X222776112Y-83230201D01*
X222776112Y-83230202D01*
X222673387Y-83289511D01*
X222673384Y-83289513D01*
X222589513Y-83373384D01*
X222589511Y-83373387D01*
X222530201Y-83476114D01*
X222499500Y-83590691D01*
X218500500Y-83590691D01*
X218469799Y-83476114D01*
X218410489Y-83373387D01*
X218326613Y-83289511D01*
X218223886Y-83230201D01*
X218109309Y-83199500D01*
X217990691Y-83199500D01*
X217876114Y-83230201D01*
X217876112Y-83230201D01*
X217876112Y-83230202D01*
X217773387Y-83289511D01*
X217773384Y-83289513D01*
X217689513Y-83373384D01*
X217689511Y-83373387D01*
X217630201Y-83476114D01*
X217599500Y-83590691D01*
X216065929Y-83590691D01*
X216068983Y-83589198D01*
X216151698Y-83506483D01*
X216203073Y-83401393D01*
X216213000Y-83333260D01*
X216213000Y-82966740D01*
X216203073Y-82898607D01*
X216151698Y-82793517D01*
X216151696Y-82793515D01*
X216151696Y-82793514D01*
X216068985Y-82710803D01*
X215963891Y-82659426D01*
X215895761Y-82649500D01*
X215895760Y-82649500D01*
X214654240Y-82649500D01*
X214654239Y-82649500D01*
X214586108Y-82659426D01*
X214481014Y-82710803D01*
X214398303Y-82793514D01*
X214346927Y-82898607D01*
X214337000Y-82966739D01*
X214337000Y-83003911D01*
X214317315Y-83070950D01*
X214264511Y-83116705D01*
X214195353Y-83126649D01*
X214131797Y-83097624D01*
X214125319Y-83091592D01*
X213943268Y-82909541D01*
X213943267Y-82909540D01*
X213924330Y-82898607D01*
X213924330Y-82898605D01*
X213924327Y-82898605D01*
X213874750Y-82869981D01*
X213874747Y-82869979D01*
X213836531Y-82859739D01*
X213798318Y-82849500D01*
X213798316Y-82849500D01*
X211755497Y-82849500D01*
X211688458Y-82829815D01*
X211654577Y-82797550D01*
X211651694Y-82793512D01*
X211568985Y-82710803D01*
X211463891Y-82659426D01*
X211395761Y-82649500D01*
X211395760Y-82649500D01*
X210154240Y-82649500D01*
X210154239Y-82649500D01*
X210086108Y-82659426D01*
X209981014Y-82710803D01*
X209898303Y-82793514D01*
X209846927Y-82898607D01*
X209837000Y-82966739D01*
X209200500Y-82966739D01*
X209200500Y-80312964D01*
X209220185Y-80245925D01*
X209236819Y-80225283D01*
X209250500Y-80211602D01*
X209285489Y-80176613D01*
X209344799Y-80073886D01*
X209375500Y-79959309D01*
X209375500Y-79940691D01*
X212974500Y-79940691D01*
X212974500Y-80059309D01*
X213005201Y-80173886D01*
X213064511Y-80276613D01*
X213148387Y-80360489D01*
X213251114Y-80419799D01*
X213365691Y-80450500D01*
X213365694Y-80450500D01*
X213484306Y-80450500D01*
X213484309Y-80450500D01*
X213598886Y-80419799D01*
X213701613Y-80360489D01*
X213785489Y-80276613D01*
X213844799Y-80173886D01*
X213875500Y-80059309D01*
X213875500Y-79940691D01*
X213844799Y-79826114D01*
X213785489Y-79723387D01*
X213701613Y-79639511D01*
X213598886Y-79580201D01*
X213484309Y-79549500D01*
X213365691Y-79549500D01*
X213251114Y-79580201D01*
X213251112Y-79580201D01*
X213251112Y-79580202D01*
X213148387Y-79639511D01*
X213148384Y-79639513D01*
X213064513Y-79723384D01*
X213064511Y-79723387D01*
X213025764Y-79790499D01*
X213005201Y-79826114D01*
X212974500Y-79940691D01*
X209375500Y-79940691D01*
X209375500Y-79840691D01*
X209344799Y-79726114D01*
X209285489Y-79623387D01*
X209261819Y-79599717D01*
X209228334Y-79538394D01*
X209225500Y-79512036D01*
X209225500Y-75770691D01*
X221094500Y-75770691D01*
X221094500Y-75889309D01*
X221125201Y-76003886D01*
X221184511Y-76106613D01*
X221268387Y-76190489D01*
X221371114Y-76249799D01*
X221485691Y-76280500D01*
X221485694Y-76280500D01*
X221604306Y-76280500D01*
X221604309Y-76280500D01*
X221718886Y-76249799D01*
X221821613Y-76190489D01*
X221905489Y-76106613D01*
X221964799Y-76003886D01*
X221995500Y-75889309D01*
X221995500Y-75770691D01*
X221964799Y-75656114D01*
X221905489Y-75553387D01*
X221821613Y-75469511D01*
X221718886Y-75410201D01*
X221604309Y-75379500D01*
X221485691Y-75379500D01*
X221371114Y-75410201D01*
X221371112Y-75410201D01*
X221371112Y-75410202D01*
X221268387Y-75469511D01*
X221268384Y-75469513D01*
X221184513Y-75553384D01*
X221184511Y-75553387D01*
X221125201Y-75656114D01*
X221094500Y-75770691D01*
X209225500Y-75770691D01*
X209225500Y-74520691D01*
X224129500Y-74520691D01*
X224129500Y-74639309D01*
X224160201Y-74753886D01*
X224219511Y-74856613D01*
X224303387Y-74940489D01*
X224406114Y-74999799D01*
X224520691Y-75030500D01*
X224520694Y-75030500D01*
X224639306Y-75030500D01*
X224639309Y-75030500D01*
X224753886Y-74999799D01*
X224856613Y-74940489D01*
X224940489Y-74856613D01*
X224999799Y-74753886D01*
X225030500Y-74639309D01*
X225030500Y-74520691D01*
X224999799Y-74406114D01*
X224940489Y-74303387D01*
X224856613Y-74219511D01*
X224753886Y-74160201D01*
X224639309Y-74129500D01*
X224520691Y-74129500D01*
X224406114Y-74160201D01*
X224406112Y-74160201D01*
X224406112Y-74160202D01*
X224303387Y-74219511D01*
X224303384Y-74219513D01*
X224219513Y-74303384D01*
X224219511Y-74303387D01*
X224160201Y-74406114D01*
X224129500Y-74520691D01*
X209225500Y-74520691D01*
X209225500Y-63090691D01*
X224129500Y-63090691D01*
X224129500Y-63209309D01*
X224160201Y-63323886D01*
X224219511Y-63426613D01*
X224303387Y-63510489D01*
X224406114Y-63569799D01*
X224520691Y-63600500D01*
X224520694Y-63600500D01*
X224639306Y-63600500D01*
X224639309Y-63600500D01*
X224753886Y-63569799D01*
X224856613Y-63510489D01*
X224940489Y-63426613D01*
X224999799Y-63323886D01*
X225030500Y-63209309D01*
X225030500Y-63090691D01*
X224999799Y-62976114D01*
X224940489Y-62873387D01*
X224856613Y-62789511D01*
X224753886Y-62730201D01*
X224639309Y-62699500D01*
X224520691Y-62699500D01*
X224406114Y-62730201D01*
X224406112Y-62730201D01*
X224406112Y-62730202D01*
X224303387Y-62789511D01*
X224303384Y-62789513D01*
X224219513Y-62873384D01*
X224219511Y-62873387D01*
X224160201Y-62976114D01*
X224129500Y-63090691D01*
X209225500Y-63090691D01*
X209225500Y-62415439D01*
X209205020Y-62339009D01*
X209205017Y-62339004D01*
X209165464Y-62270495D01*
X209165458Y-62270487D01*
X208715662Y-61820691D01*
X224129500Y-61820691D01*
X224129500Y-61939309D01*
X224160201Y-62053886D01*
X224219511Y-62156613D01*
X224303387Y-62240489D01*
X224406114Y-62299799D01*
X224520691Y-62330500D01*
X224520694Y-62330500D01*
X224639306Y-62330500D01*
X224639309Y-62330500D01*
X224753886Y-62299799D01*
X224856613Y-62240489D01*
X224940489Y-62156613D01*
X224999799Y-62053886D01*
X225030500Y-61939309D01*
X225030500Y-61820691D01*
X224999799Y-61706114D01*
X224940489Y-61603387D01*
X224856613Y-61519511D01*
X224753886Y-61460201D01*
X224639309Y-61429500D01*
X224520691Y-61429500D01*
X224406114Y-61460201D01*
X224406112Y-61460201D01*
X224406112Y-61460202D01*
X224303387Y-61519511D01*
X224303384Y-61519513D01*
X224219513Y-61603384D01*
X224219511Y-61603387D01*
X224160201Y-61706114D01*
X224129500Y-61820691D01*
X208715662Y-61820691D01*
X208390479Y-61495508D01*
X208356994Y-61434185D01*
X208361978Y-61364493D01*
X208403850Y-61308560D01*
X208469314Y-61284143D01*
X208493611Y-61285185D01*
X208493617Y-61285118D01*
X208495526Y-61285268D01*
X208497571Y-61285355D01*
X208498481Y-61285500D01*
X208961518Y-61285499D01*
X209055304Y-61270646D01*
X209168342Y-61213050D01*
X209258050Y-61123342D01*
X209315646Y-61010304D01*
X209315646Y-61010302D01*
X209315647Y-61010301D01*
X209330295Y-60917814D01*
X209330500Y-60916519D01*
X209330499Y-60303482D01*
X209315646Y-60209696D01*
X209258050Y-60096658D01*
X209258046Y-60096654D01*
X209258045Y-60096652D01*
X209168347Y-60006954D01*
X209168344Y-60006952D01*
X209168342Y-60006950D01*
X209091517Y-59967805D01*
X209055301Y-59949352D01*
X208961524Y-59934500D01*
X208498482Y-59934500D01*
X208417519Y-59947323D01*
X208404696Y-59949354D01*
X208291658Y-60006950D01*
X208291657Y-60006951D01*
X208291652Y-60006954D01*
X208201954Y-60096652D01*
X208201951Y-60096657D01*
X208201950Y-60096658D01*
X208198857Y-60102729D01*
X208144352Y-60209698D01*
X208129500Y-60303475D01*
X208129500Y-60916520D01*
X208129649Y-60917456D01*
X208129602Y-60917814D01*
X208129883Y-60921380D01*
X208129133Y-60921438D01*
X208120686Y-60986748D01*
X208075684Y-61040195D01*
X208008930Y-61060828D01*
X207941618Y-61042095D01*
X207919492Y-61024521D01*
X207716818Y-60821847D01*
X207683333Y-60760524D01*
X207680499Y-60734166D01*
X207680499Y-60303482D01*
X207676498Y-60278218D01*
X207665646Y-60209696D01*
X207608050Y-60096658D01*
X207608046Y-60096654D01*
X207608045Y-60096652D01*
X207518347Y-60006954D01*
X207518344Y-60006952D01*
X207518342Y-60006950D01*
X207441517Y-59967805D01*
X207405301Y-59949352D01*
X207374694Y-59944505D01*
X207311560Y-59914575D01*
X207274629Y-59855263D01*
X207275627Y-59785401D01*
X207314238Y-59727168D01*
X207332094Y-59714645D01*
X207356613Y-59700489D01*
X207440489Y-59616613D01*
X207499799Y-59513886D01*
X207530500Y-59399309D01*
X207530500Y-59280691D01*
X207499799Y-59166114D01*
X207440489Y-59063387D01*
X207356613Y-58979511D01*
X207253886Y-58920201D01*
X207139309Y-58889500D01*
X207020691Y-58889500D01*
X206906114Y-58920201D01*
X206906112Y-58920201D01*
X206906112Y-58920202D01*
X206803387Y-58979511D01*
X206803384Y-58979513D01*
X206719513Y-59063384D01*
X206719511Y-59063387D01*
X206660201Y-59166114D01*
X206629500Y-59280691D01*
X206629500Y-59399309D01*
X206660201Y-59513886D01*
X206719511Y-59616613D01*
X206803387Y-59700489D01*
X206827904Y-59714644D01*
X206827906Y-59714645D01*
X206876122Y-59765212D01*
X206889345Y-59833819D01*
X206863377Y-59898684D01*
X206806462Y-59939212D01*
X206785306Y-59944505D01*
X206754699Y-59949353D01*
X206754697Y-59949353D01*
X206754696Y-59949354D01*
X206641658Y-60006950D01*
X206641657Y-60006951D01*
X206641652Y-60006954D01*
X206551954Y-60096652D01*
X206551951Y-60096657D01*
X206551950Y-60096658D01*
X206548857Y-60102729D01*
X206494352Y-60209698D01*
X206479500Y-60303475D01*
X205973273Y-60303475D01*
X205998528Y-60278220D01*
X206059719Y-60158126D01*
X206069455Y-60096657D01*
X206075500Y-60058493D01*
X206075500Y-59541506D01*
X206059720Y-59441878D01*
X206059719Y-59441876D01*
X206059719Y-59441874D01*
X205998528Y-59321780D01*
X205998526Y-59321778D01*
X205998523Y-59321774D01*
X205903225Y-59226476D01*
X205903221Y-59226473D01*
X205903220Y-59226472D01*
X205783126Y-59165281D01*
X205783124Y-59165280D01*
X205783121Y-59165279D01*
X205683493Y-59149500D01*
X205683488Y-59149500D01*
X205116512Y-59149500D01*
X205116507Y-59149500D01*
X205016878Y-59165279D01*
X204896778Y-59226473D01*
X204896774Y-59226476D01*
X204801476Y-59321774D01*
X204801473Y-59321778D01*
X204801472Y-59321780D01*
X204761971Y-59399306D01*
X204740279Y-59441878D01*
X204724500Y-59541506D01*
X202445914Y-59541506D01*
X202450185Y-59526961D01*
X202502989Y-59481206D01*
X202554500Y-59470000D01*
X202950000Y-59470000D01*
X202950000Y-58853012D01*
X203007007Y-58885925D01*
X203134174Y-58920000D01*
X203265826Y-58920000D01*
X203392993Y-58885925D01*
X203450000Y-58853012D01*
X203450000Y-59470000D01*
X204069699Y-59470000D01*
X204069702Y-59469999D01*
X204128033Y-59458397D01*
X204128034Y-59458396D01*
X204165238Y-59433538D01*
X204165239Y-59433537D01*
X204194191Y-59414192D01*
X204238396Y-59348034D01*
X204238397Y-59348033D01*
X204249999Y-59289702D01*
X204250000Y-59289699D01*
X204250000Y-58670000D01*
X203633012Y-58670000D01*
X203665925Y-58612993D01*
X203693938Y-58508449D01*
X204725001Y-58508449D01*
X204740762Y-58607967D01*
X204801883Y-58727923D01*
X204801886Y-58727928D01*
X204897071Y-58823113D01*
X204897076Y-58823116D01*
X205017034Y-58884239D01*
X205017033Y-58884239D01*
X205116543Y-58899999D01*
X205650000Y-58899999D01*
X205683449Y-58899999D01*
X205782967Y-58884237D01*
X205902923Y-58823116D01*
X205902928Y-58823113D01*
X205998113Y-58727928D01*
X205998116Y-58727923D01*
X206059237Y-58607968D01*
X206060620Y-58599241D01*
X206060621Y-58599238D01*
X206075000Y-58508456D01*
X206075000Y-58500000D01*
X205650000Y-58500000D01*
X205650000Y-58899999D01*
X205116543Y-58899999D01*
X205150000Y-58899998D01*
X205150000Y-58500000D01*
X204725001Y-58500000D01*
X204725001Y-58508449D01*
X203693938Y-58508449D01*
X203700000Y-58485826D01*
X203700000Y-58354174D01*
X203665925Y-58227007D01*
X203633012Y-58170000D01*
X204250000Y-58170000D01*
X204250000Y-57774500D01*
X204269685Y-57707461D01*
X204322489Y-57661706D01*
X204374000Y-57650500D01*
X204661479Y-57650500D01*
X204728518Y-57670185D01*
G37*
%TD.AperFunction*%
%TD*%
%TA.AperFunction,Conductor*%
%TO.N,+5V*%
G36*
X223693039Y-94694685D02*
G01*
X223738794Y-94747489D01*
X223750000Y-94799000D01*
X223750000Y-95773667D01*
X223741355Y-95803107D01*
X223734832Y-95833094D01*
X223731077Y-95838109D01*
X223730315Y-95840706D01*
X223713681Y-95861348D01*
X223686348Y-95888681D01*
X223625025Y-95922166D01*
X223598667Y-95925000D01*
X221945713Y-95925000D01*
X221878674Y-95905315D01*
X221832919Y-95852511D01*
X221822975Y-95783353D01*
X221824096Y-95776807D01*
X221825500Y-95769749D01*
X221825500Y-94830250D01*
X221824096Y-94823193D01*
X221830323Y-94753601D01*
X221873185Y-94698423D01*
X221939074Y-94675178D01*
X221945713Y-94675000D01*
X223626000Y-94675000D01*
X223693039Y-94694685D01*
G37*
%TD.AperFunction*%
%TD*%
M02*
