%TF.GenerationSoftware,KiCad,Pcbnew,9.0.5*%
%TF.CreationDate,2025-10-31T18:05:51+09:00*%
%TF.ProjectId,ESP32S3,45535033-3253-4332-9e6b-696361645f70,rev?*%
%TF.SameCoordinates,Original*%
%TF.FileFunction,Paste,Top*%
%TF.FilePolarity,Positive*%
%FSLAX46Y46*%
G04 Gerber Fmt 4.6, Leading zero omitted, Abs format (unit mm)*
G04 Created by KiCad (PCBNEW 9.0.5) date 2025-10-31 18:05:51*
%MOMM*%
%LPD*%
G01*
G04 APERTURE LIST*
G04 Aperture macros list*
%AMRoundRect*
0 Rectangle with rounded corners*
0 $1 Rounding radius*
0 $2 $3 $4 $5 $6 $7 $8 $9 X,Y pos of 4 corners*
0 Add a 4 corners polygon primitive as box body*
4,1,4,$2,$3,$4,$5,$6,$7,$8,$9,$2,$3,0*
0 Add four circle primitives for the rounded corners*
1,1,$1+$1,$2,$3*
1,1,$1+$1,$4,$5*
1,1,$1+$1,$6,$7*
1,1,$1+$1,$8,$9*
0 Add four rect primitives between the rounded corners*
20,1,$1+$1,$2,$3,$4,$5,0*
20,1,$1+$1,$4,$5,$6,$7,0*
20,1,$1+$1,$6,$7,$8,$9,0*
20,1,$1+$1,$8,$9,$2,$3,0*%
G04 Aperture macros list end*
%ADD10RoundRect,0.250000X-0.595000X-1.080000X0.595000X-1.080000X0.595000X1.080000X-0.595000X1.080000X0*%
%ADD11RoundRect,0.150000X-0.687500X-0.150000X0.687500X-0.150000X0.687500X0.150000X-0.687500X0.150000X0*%
%ADD12RoundRect,0.225000X0.225000X0.250000X-0.225000X0.250000X-0.225000X-0.250000X0.225000X-0.250000X0*%
%ADD13RoundRect,0.150000X-0.150000X-0.425000X0.150000X-0.425000X0.150000X0.425000X-0.150000X0.425000X0*%
%ADD14RoundRect,0.075000X-0.075000X-0.500000X0.075000X-0.500000X0.075000X0.500000X-0.075000X0.500000X0*%
%ADD15O,1.000000X2.100000*%
%ADD16O,1.000000X1.800000*%
%ADD17RoundRect,0.200000X0.200000X0.275000X-0.200000X0.275000X-0.200000X-0.275000X0.200000X-0.275000X0*%
%ADD18RoundRect,0.150000X0.150000X-0.875000X0.150000X0.875000X-0.150000X0.875000X-0.150000X-0.875000X0*%
%ADD19RoundRect,0.225000X0.250000X-0.225000X0.250000X0.225000X-0.250000X0.225000X-0.250000X-0.225000X0*%
%ADD20R,0.900000X0.900000*%
%ADD21R,1.500000X0.900000*%
%ADD22R,0.900000X1.500000*%
%ADD23RoundRect,0.225000X-0.225000X-0.250000X0.225000X-0.250000X0.225000X0.250000X-0.225000X0.250000X0*%
%ADD24RoundRect,0.237500X0.287500X0.237500X-0.287500X0.237500X-0.287500X-0.237500X0.287500X-0.237500X0*%
%ADD25R,1.050000X0.650000*%
%ADD26RoundRect,0.225000X-0.250000X0.225000X-0.250000X-0.225000X0.250000X-0.225000X0.250000X0.225000X0*%
%ADD27R,0.650000X1.050000*%
%ADD28RoundRect,0.237500X-0.287500X-0.237500X0.287500X-0.237500X0.287500X0.237500X-0.287500X0.237500X0*%
%ADD29RoundRect,0.237500X-0.237500X0.287500X-0.237500X-0.287500X0.237500X-0.287500X0.237500X0.287500X0*%
%ADD30RoundRect,0.090000X0.660000X0.360000X-0.660000X0.360000X-0.660000X-0.360000X0.660000X-0.360000X0*%
%ADD31RoundRect,0.175000X-0.175000X-0.425000X0.175000X-0.425000X0.175000X0.425000X-0.175000X0.425000X0*%
%ADD32RoundRect,0.190000X0.190000X0.410000X-0.190000X0.410000X-0.190000X-0.410000X0.190000X-0.410000X0*%
%ADD33RoundRect,0.200000X0.200000X0.400000X-0.200000X0.400000X-0.200000X-0.400000X0.200000X-0.400000X0*%
%ADD34RoundRect,0.175000X0.175000X0.425000X-0.175000X0.425000X-0.175000X-0.425000X0.175000X-0.425000X0*%
%ADD35RoundRect,0.190000X-0.190000X-0.410000X0.190000X-0.410000X0.190000X0.410000X-0.190000X0.410000X0*%
%ADD36RoundRect,0.200000X-0.200000X-0.400000X0.200000X-0.400000X0.200000X0.400000X-0.200000X0.400000X0*%
%ADD37O,1.100000X1.700000*%
%ADD38R,1.250000X0.650000*%
G04 APERTURE END LIST*
D10*
%TO.C,U2*%
X221200000Y-92000000D03*
D11*
X218562500Y-90000000D03*
X218562500Y-91000000D03*
X218562500Y-92000000D03*
X218562500Y-93000000D03*
X218562500Y-94000000D03*
X223837500Y-94000000D03*
X223837500Y-93000000D03*
X223837500Y-92000000D03*
X223837500Y-91000000D03*
X223837500Y-90000000D03*
%TD*%
D12*
%TO.C,C9*%
X210775000Y-85800000D03*
X209225000Y-85800000D03*
%TD*%
D13*
%TO.C,J1*%
X205070000Y-106930000D03*
X205870000Y-106930000D03*
D14*
X207020000Y-106930000D03*
X208020000Y-106930000D03*
X208520000Y-106930000D03*
X209520000Y-106930000D03*
D13*
X210670000Y-106930000D03*
X211470000Y-106930000D03*
X211470000Y-106930000D03*
X210670000Y-106930000D03*
D14*
X210020000Y-106930000D03*
X209020000Y-106930000D03*
X207520000Y-106930000D03*
X206520000Y-106930000D03*
D13*
X205870000Y-106930000D03*
X205070000Y-106930000D03*
D15*
X203950000Y-107505000D03*
D16*
X203950000Y-111685000D03*
D15*
X212590000Y-107505000D03*
D16*
X212590000Y-111685000D03*
%TD*%
D17*
%TO.C,R11*%
X213225000Y-89500000D03*
X211575000Y-89500000D03*
%TD*%
D18*
%TO.C,U3*%
X207240000Y-103150000D03*
X208510000Y-103150000D03*
X209780000Y-103150000D03*
X211050000Y-103150000D03*
X212320000Y-103150000D03*
X213590000Y-103150000D03*
X214860000Y-103150000D03*
X216130000Y-103150000D03*
X216130000Y-93850000D03*
X214860000Y-93850000D03*
X213590000Y-93850000D03*
X212320000Y-93850000D03*
X211050000Y-93850000D03*
X209780000Y-93850000D03*
X208510000Y-93850000D03*
X207240000Y-93850000D03*
%TD*%
D19*
%TO.C,C4*%
X218400000Y-104800000D03*
X218400000Y-103250000D03*
%TD*%
D12*
%TO.C,C10*%
X215305000Y-85750000D03*
X213755000Y-85750000D03*
%TD*%
D20*
%TO.C,U4*%
X212930000Y-64390000D03*
X212930000Y-65790000D03*
X212930000Y-67190000D03*
X214330000Y-64390000D03*
X214330000Y-65790000D03*
X214330000Y-67190000D03*
X215730000Y-64390000D03*
X215730000Y-65790000D03*
X215730000Y-67190000D03*
D21*
X207080000Y-58070000D03*
X207080000Y-59340000D03*
X207080000Y-60610000D03*
X207080000Y-61880000D03*
X207080000Y-63150000D03*
X207080000Y-64420000D03*
X207080000Y-65690000D03*
X207080000Y-66960000D03*
X207080000Y-68230000D03*
X207080000Y-69500000D03*
X207080000Y-70770000D03*
X207080000Y-72040000D03*
X207080000Y-73310000D03*
X207080000Y-74580000D03*
D22*
X208845000Y-75830000D03*
X210115000Y-75830000D03*
X211385000Y-75830000D03*
X212655000Y-75830000D03*
X213925000Y-75830000D03*
X215195000Y-75830000D03*
X216465000Y-75830000D03*
X217735000Y-75830000D03*
X219005000Y-75830000D03*
X220275000Y-75830000D03*
X221545000Y-75830000D03*
X222815000Y-75830000D03*
D21*
X224580000Y-74580000D03*
X224580000Y-73310000D03*
X224580000Y-72040000D03*
X224580000Y-70770000D03*
X224580000Y-69500000D03*
X224580000Y-68230000D03*
X224580000Y-66960000D03*
X224580000Y-65690000D03*
X224580000Y-64420000D03*
X224580000Y-63150000D03*
X224580000Y-61880000D03*
X224580000Y-60610000D03*
X224580000Y-59340000D03*
X224580000Y-58070000D03*
%TD*%
D23*
%TO.C,C6*%
X208350000Y-90500000D03*
X209900000Y-90500000D03*
%TD*%
D24*
%TO.C,D1*%
X220200000Y-101200000D03*
X218450000Y-101200000D03*
%TD*%
D25*
%TO.C,SW3*%
X220325000Y-95525000D03*
X224475000Y-95525000D03*
X220325000Y-97675000D03*
X224475000Y-97675000D03*
%TD*%
D17*
%TO.C,R12*%
X213225000Y-91600000D03*
X211575000Y-91600000D03*
%TD*%
D26*
%TO.C,C8*%
X224850000Y-103225000D03*
X224850000Y-104775000D03*
%TD*%
D27*
%TO.C,SW2*%
X213425000Y-84075000D03*
X213425000Y-79925000D03*
X215575000Y-84075000D03*
X215575000Y-79925000D03*
%TD*%
D28*
%TO.C,D2*%
X223037500Y-101200000D03*
X224787500Y-101200000D03*
%TD*%
D29*
%TO.C,D3*%
X218600000Y-96925000D03*
X218600000Y-98675000D03*
%TD*%
D23*
%TO.C,C3*%
X204320000Y-104810000D03*
X205870000Y-104810000D03*
%TD*%
D30*
%TO.C,D4*%
X222950000Y-83650000D03*
X222950000Y-80350000D03*
X218050000Y-80350000D03*
X218050000Y-83650000D03*
%TD*%
D31*
%TO.C,J2*%
X223030000Y-107810000D03*
D32*
X225050000Y-107810000D03*
D33*
X226280000Y-107810000D03*
D34*
X224030000Y-107810000D03*
D35*
X222010000Y-107810000D03*
D36*
X220780000Y-107810000D03*
D37*
X219210000Y-107890000D03*
X219210000Y-111690000D03*
X227850000Y-107890000D03*
X227850000Y-111690000D03*
%TD*%
D27*
%TO.C,SW1*%
X208925000Y-84075000D03*
X208925000Y-79925000D03*
X211075000Y-84075000D03*
X211075000Y-79925000D03*
%TD*%
D38*
%TO.C,IC1*%
X220350000Y-103060000D03*
X220350000Y-104000000D03*
X220350000Y-104940000D03*
X222850000Y-104940000D03*
X222850000Y-103060000D03*
%TD*%
M02*
