%TF.GenerationSoftware,KiCad,Pcbnew,9.0.7*%
%TF.CreationDate,2026-02-20T10:44:59+09:00*%
%TF.ProjectId,USB_isolation,5553425f-6973-46f6-9c61-74696f6e2e6b,rev?*%
%TF.SameCoordinates,Original*%
%TF.FileFunction,Soldermask,Top*%
%TF.FilePolarity,Negative*%
%FSLAX46Y46*%
G04 Gerber Fmt 4.6, Leading zero omitted, Abs format (unit mm)*
G04 Created by KiCad (PCBNEW 9.0.7) date 2026-02-20 10:44:59*
%MOMM*%
%LPD*%
G01*
G04 APERTURE LIST*
G04 Aperture macros list*
%AMRoundRect*
0 Rectangle with rounded corners*
0 $1 Rounding radius*
0 $2 $3 $4 $5 $6 $7 $8 $9 X,Y pos of 4 corners*
0 Add a 4 corners polygon primitive as box body*
4,1,4,$2,$3,$4,$5,$6,$7,$8,$9,$2,$3,0*
0 Add four circle primitives for the rounded corners*
1,1,$1+$1,$2,$3*
1,1,$1+$1,$4,$5*
1,1,$1+$1,$6,$7*
1,1,$1+$1,$8,$9*
0 Add four rect primitives between the rounded corners*
20,1,$1+$1,$2,$3,$4,$5,0*
20,1,$1+$1,$4,$5,$6,$7,0*
20,1,$1+$1,$6,$7,$8,$9,0*
20,1,$1+$1,$8,$9,$2,$3,0*%
G04 Aperture macros list end*
%ADD10RoundRect,0.250000X-1.655000X-0.385000X1.655000X-0.385000X1.655000X0.385000X-1.655000X0.385000X0*%
%ADD11RoundRect,0.225000X-0.225000X-0.250000X0.225000X-0.250000X0.225000X0.250000X-0.225000X0.250000X0*%
%ADD12C,0.650000*%
%ADD13R,0.300000X1.150000*%
%ADD14O,1.000000X2.100000*%
%ADD15O,1.000000X1.600000*%
%ADD16RoundRect,0.218750X0.218750X0.256250X-0.218750X0.256250X-0.218750X-0.256250X0.218750X-0.256250X0*%
%ADD17R,1.000000X0.300000*%
%ADD18R,2.100000X1.300000*%
%ADD19R,1.200000X0.500000*%
%ADD20RoundRect,0.200000X0.200000X0.275000X-0.200000X0.275000X-0.200000X-0.275000X0.200000X-0.275000X0*%
%ADD21RoundRect,0.200000X-0.200000X-0.275000X0.200000X-0.275000X0.200000X0.275000X-0.200000X0.275000X0*%
%ADD22RoundRect,0.200000X-0.275000X0.200000X-0.275000X-0.200000X0.275000X-0.200000X0.275000X0.200000X0*%
G04 APERTURE END LIST*
D10*
%TO.C,J8*%
X154800000Y-58580000D03*
X154800000Y-73820000D03*
%TD*%
D11*
%TO.C,C1*%
X164425000Y-64300000D03*
X165975000Y-64300000D03*
%TD*%
D12*
%TO.C,J1*%
X159510000Y-71080000D03*
X165290000Y-71080000D03*
D13*
X159050000Y-70015000D03*
X159850000Y-70015000D03*
X161150000Y-70015000D03*
X162150000Y-70015000D03*
X162650000Y-70015000D03*
X163650000Y-70015000D03*
X164950000Y-70015000D03*
X165750000Y-70015000D03*
X165450000Y-70015000D03*
X164650000Y-70015000D03*
X164150000Y-70015000D03*
X163150000Y-70015000D03*
X161650000Y-70015000D03*
X160650000Y-70015000D03*
X160150000Y-70015000D03*
X159350000Y-70015000D03*
D14*
X158080000Y-70580000D03*
D15*
X158080000Y-74760000D03*
D14*
X166720000Y-70580000D03*
D15*
X166720000Y-74760000D03*
%TD*%
D16*
%TO.C,D1*%
X165987500Y-65800000D03*
X164412500Y-65800000D03*
%TD*%
D17*
%TO.C,U1*%
X154100000Y-69150000D03*
X154100000Y-68650000D03*
X154100000Y-68150000D03*
X154100000Y-67650000D03*
X154100000Y-65150000D03*
X154100000Y-64650000D03*
X154100000Y-64150000D03*
X154100000Y-63650000D03*
X154100000Y-65650000D03*
X154100000Y-66150000D03*
X154100000Y-66650000D03*
X154100000Y-67150000D03*
D18*
X153650000Y-71100000D03*
X153650000Y-61700000D03*
D19*
X153200000Y-69975000D03*
X153200000Y-62825000D03*
%TD*%
D12*
%TO.C,J2*%
X165290000Y-61430000D03*
X159510000Y-61430000D03*
D13*
X165750000Y-62495000D03*
X164950000Y-62495000D03*
X163650000Y-62495000D03*
X162650000Y-62495000D03*
X162150000Y-62495000D03*
X161150000Y-62495000D03*
X159850000Y-62495000D03*
X159050000Y-62495000D03*
X159350000Y-62495000D03*
X160150000Y-62495000D03*
X160650000Y-62495000D03*
X161650000Y-62495000D03*
X163150000Y-62495000D03*
X164150000Y-62495000D03*
X164650000Y-62495000D03*
X165450000Y-62495000D03*
D14*
X166720000Y-61930000D03*
D15*
X166720000Y-57750000D03*
D14*
X158080000Y-61930000D03*
D15*
X158080000Y-57750000D03*
%TD*%
D20*
%TO.C,R2*%
X161145000Y-68190000D03*
X159495000Y-68190000D03*
%TD*%
D10*
%TO.C,J3*%
X170000000Y-61120000D03*
X170000000Y-58580000D03*
X170000000Y-73820000D03*
X170000000Y-71280000D03*
%TD*%
D20*
%TO.C,R5*%
X160625000Y-64300000D03*
X158975000Y-64300000D03*
%TD*%
D21*
%TO.C,R3*%
X164145000Y-68200000D03*
X165795000Y-68200000D03*
%TD*%
D22*
%TO.C,R4*%
X162940000Y-64225000D03*
X162940000Y-65875000D03*
%TD*%
%TO.C,R1*%
X156260000Y-65525000D03*
X156260000Y-67175000D03*
%TD*%
D21*
%TO.C,R6*%
X167395000Y-65800000D03*
X169045000Y-65800000D03*
%TD*%
M02*
