%TF.GenerationSoftware,KiCad,Pcbnew,9.0.7*%
%TF.CreationDate,2026-02-20T10:44:58+09:00*%
%TF.ProjectId,USB_isolation,5553425f-6973-46f6-9c61-74696f6e2e6b,rev?*%
%TF.SameCoordinates,Original*%
%TF.FileFunction,Copper,L1,Top*%
%TF.FilePolarity,Positive*%
%FSLAX46Y46*%
G04 Gerber Fmt 4.6, Leading zero omitted, Abs format (unit mm)*
G04 Created by KiCad (PCBNEW 9.0.7) date 2026-02-20 10:44:58*
%MOMM*%
%LPD*%
G01*
G04 APERTURE LIST*
G04 Aperture macros list*
%AMRoundRect*
0 Rectangle with rounded corners*
0 $1 Rounding radius*
0 $2 $3 $4 $5 $6 $7 $8 $9 X,Y pos of 4 corners*
0 Add a 4 corners polygon primitive as box body*
4,1,4,$2,$3,$4,$5,$6,$7,$8,$9,$2,$3,0*
0 Add four circle primitives for the rounded corners*
1,1,$1+$1,$2,$3*
1,1,$1+$1,$4,$5*
1,1,$1+$1,$6,$7*
1,1,$1+$1,$8,$9*
0 Add four rect primitives between the rounded corners*
20,1,$1+$1,$2,$3,$4,$5,0*
20,1,$1+$1,$4,$5,$6,$7,0*
20,1,$1+$1,$6,$7,$8,$9,0*
20,1,$1+$1,$8,$9,$2,$3,0*%
G04 Aperture macros list end*
%TA.AperFunction,ComponentPad*%
%ADD10RoundRect,0.250000X-1.655000X-0.385000X1.655000X-0.385000X1.655000X0.385000X-1.655000X0.385000X0*%
%TD*%
%TA.AperFunction,SMDPad,CuDef*%
%ADD11RoundRect,0.225000X-0.225000X-0.250000X0.225000X-0.250000X0.225000X0.250000X-0.225000X0.250000X0*%
%TD*%
%TA.AperFunction,SMDPad,CuDef*%
%ADD12R,0.300000X1.150000*%
%TD*%
%TA.AperFunction,HeatsinkPad*%
%ADD13O,1.000000X2.100000*%
%TD*%
%TA.AperFunction,HeatsinkPad*%
%ADD14O,1.000000X1.600000*%
%TD*%
%TA.AperFunction,SMDPad,CuDef*%
%ADD15RoundRect,0.218750X0.218750X0.256250X-0.218750X0.256250X-0.218750X-0.256250X0.218750X-0.256250X0*%
%TD*%
%TA.AperFunction,SMDPad,CuDef*%
%ADD16R,1.000000X0.300000*%
%TD*%
%TA.AperFunction,SMDPad,CuDef*%
%ADD17R,2.100000X1.300000*%
%TD*%
%TA.AperFunction,SMDPad,CuDef*%
%ADD18R,1.200000X0.500000*%
%TD*%
%TA.AperFunction,SMDPad,CuDef*%
%ADD19RoundRect,0.200000X0.200000X0.275000X-0.200000X0.275000X-0.200000X-0.275000X0.200000X-0.275000X0*%
%TD*%
%TA.AperFunction,SMDPad,CuDef*%
%ADD20RoundRect,0.200000X-0.200000X-0.275000X0.200000X-0.275000X0.200000X0.275000X-0.200000X0.275000X0*%
%TD*%
%TA.AperFunction,SMDPad,CuDef*%
%ADD21RoundRect,0.200000X-0.275000X0.200000X-0.275000X-0.200000X0.275000X-0.200000X0.275000X0.200000X0*%
%TD*%
%TA.AperFunction,ViaPad*%
%ADD22C,0.600000*%
%TD*%
%TA.AperFunction,Conductor*%
%ADD23C,0.600000*%
%TD*%
%TA.AperFunction,Conductor*%
%ADD24C,0.300000*%
%TD*%
%TA.AperFunction,Conductor*%
%ADD25C,0.200000*%
%TD*%
G04 APERTURE END LIST*
D10*
%TO.P,J8,1,Pin_1*%
%TO.N,GND*%
X154800000Y-58580000D03*
%TO.P,J8,2,Pin_2*%
X154800000Y-73820000D03*
%TD*%
D11*
%TO.P,C1,1*%
%TO.N,+5V*%
X164425000Y-64300000D03*
%TO.P,C1,2*%
%TO.N,GND*%
X165975000Y-64300000D03*
%TD*%
D12*
%TO.P,J1,A1,GND*%
%TO.N,GND*%
X159050000Y-70015000D03*
%TO.P,J1,A4,VBUS*%
%TO.N,unconnected-(J1-VBUS-PadA4)_3*%
X159850000Y-70015000D03*
%TO.P,J1,A5,CC1*%
%TO.N,Net-(J1-CC1)*%
X161150000Y-70015000D03*
%TO.P,J1,A6,D+*%
%TO.N,/D+*%
X162150000Y-70015000D03*
%TO.P,J1,A7,D-*%
%TO.N,/D-*%
X162650000Y-70015000D03*
%TO.P,J1,A8,SBU1*%
%TO.N,unconnected-(J1-SBU1-PadA8)*%
X163650000Y-70015000D03*
%TO.P,J1,A9,VBUS*%
%TO.N,unconnected-(J1-VBUS-PadA4)_1*%
X164950000Y-70015000D03*
%TO.P,J1,A12,GND*%
%TO.N,GND*%
X165750000Y-70015000D03*
%TO.P,J1,B1,GND*%
X165450000Y-70015000D03*
%TO.P,J1,B4,VBUS*%
%TO.N,unconnected-(J1-VBUS-PadA4)_2*%
X164650000Y-70015000D03*
%TO.P,J1,B5,CC2*%
%TO.N,Net-(J1-CC2)*%
X164150000Y-70015000D03*
%TO.P,J1,B6,D+*%
%TO.N,/D+*%
X163150000Y-70015000D03*
%TO.P,J1,B7,D-*%
%TO.N,/D-*%
X161650000Y-70015000D03*
%TO.P,J1,B8,SBU2*%
%TO.N,unconnected-(J1-SBU2-PadB8)*%
X160650000Y-70015000D03*
%TO.P,J1,B9,VBUS*%
%TO.N,unconnected-(J1-VBUS-PadA4)*%
X160150000Y-70015000D03*
%TO.P,J1,B12,GND*%
%TO.N,GND*%
X159350000Y-70015000D03*
D13*
%TO.P,J1,S1,SHIELD*%
X158080000Y-70580000D03*
D14*
X158080000Y-74760000D03*
D13*
X166720000Y-70580000D03*
D14*
X166720000Y-74760000D03*
%TD*%
D15*
%TO.P,D1,1,K*%
%TO.N,Net-(D1-K)*%
X165987500Y-65800000D03*
%TO.P,D1,2,A*%
%TO.N,+5V*%
X164412500Y-65800000D03*
%TD*%
D16*
%TO.P,U1,A1,GND*%
%TO.N,GND*%
X154100000Y-69150000D03*
%TO.P,U1,A2,TX1+*%
%TO.N,unconnected-(U1-TX1+-PadA2)*%
X154100000Y-68650000D03*
%TO.P,U1,A3,TX1-*%
%TO.N,unconnected-(U1-TX1--PadA3)*%
X154100000Y-68150000D03*
%TO.P,U1,A4,VBUS*%
%TO.N,+5V*%
X154100000Y-67650000D03*
%TO.P,U1,A5,CC1*%
%TO.N,Net-(U1-CC1)*%
X154100000Y-65150000D03*
%TO.P,U1,A6,D+*%
%TO.N,/D+*%
X154100000Y-64650000D03*
%TO.P,U1,A7,D-*%
%TO.N,/D-*%
X154100000Y-64150000D03*
%TO.P,U1,A12,GND*%
%TO.N,GND*%
X154100000Y-63650000D03*
%TO.P,U1,B9,VBUS*%
%TO.N,+5V*%
X154100000Y-65650000D03*
%TO.P,U1,B10,RX1-*%
%TO.N,unconnected-(U1-RX1--PadB10)*%
X154100000Y-66150000D03*
%TO.P,U1,B11,RX1+*%
%TO.N,unconnected-(U1-RX1+-PadB11)*%
X154100000Y-66650000D03*
%TO.P,U1,B12,GND*%
%TO.N,GND*%
X154100000Y-67150000D03*
D17*
%TO.P,U1,S1,SHIELD*%
X153650000Y-71100000D03*
X153650000Y-61700000D03*
D18*
%TO.P,U1,S2,SHIELD*%
X153200000Y-69975000D03*
X153200000Y-62825000D03*
%TD*%
D12*
%TO.P,J2,A1,GND*%
%TO.N,GND*%
X165750000Y-62495000D03*
%TO.P,J2,A4,VBUS*%
%TO.N,+5V*%
X164950000Y-62495000D03*
%TO.P,J2,A5,CC1*%
%TO.N,Net-(J2-CC1)*%
X163650000Y-62495000D03*
%TO.P,J2,A6,D+*%
%TO.N,unconnected-(J2-D+-PadA6)*%
X162650000Y-62495000D03*
%TO.P,J2,A7,D-*%
%TO.N,unconnected-(J2-D--PadA7)*%
X162150000Y-62495000D03*
%TO.P,J2,A8,SBU1*%
%TO.N,unconnected-(J2-SBU1-PadA8)*%
X161150000Y-62495000D03*
%TO.P,J2,A9,VBUS*%
%TO.N,+5V*%
X159850000Y-62495000D03*
%TO.P,J2,A12,GND*%
%TO.N,GND*%
X159050000Y-62495000D03*
%TO.P,J2,B1,GND*%
X159350000Y-62495000D03*
%TO.P,J2,B4,VBUS*%
%TO.N,+5V*%
X160150000Y-62495000D03*
%TO.P,J2,B5,CC2*%
%TO.N,Net-(J2-CC2)*%
X160650000Y-62495000D03*
%TO.P,J2,B6,D+*%
%TO.N,unconnected-(J2-D+-PadB6)*%
X161650000Y-62495000D03*
%TO.P,J2,B7,D-*%
%TO.N,unconnected-(J2-D--PadB7)*%
X163150000Y-62495000D03*
%TO.P,J2,B8,SBU2*%
%TO.N,unconnected-(J2-SBU2-PadB8)*%
X164150000Y-62495000D03*
%TO.P,J2,B9,VBUS*%
%TO.N,+5V*%
X164650000Y-62495000D03*
%TO.P,J2,B12,GND*%
%TO.N,GND*%
X165450000Y-62495000D03*
D13*
%TO.P,J2,S1,SHIELD*%
X166720000Y-61930000D03*
D14*
X166720000Y-57750000D03*
D13*
X158080000Y-61930000D03*
D14*
X158080000Y-57750000D03*
%TD*%
D19*
%TO.P,R2,1*%
%TO.N,Net-(J1-CC1)*%
X161145000Y-68190000D03*
%TO.P,R2,2*%
%TO.N,GND*%
X159495000Y-68190000D03*
%TD*%
D10*
%TO.P,J3,1,Pin_1*%
%TO.N,GND*%
X170000000Y-61120000D03*
%TO.P,J3,2,Pin_2*%
X170000000Y-58580000D03*
%TO.P,J3,3,Pin_3*%
X170000000Y-73820000D03*
%TO.P,J3,4,Pin_4*%
X170000000Y-71280000D03*
%TD*%
D19*
%TO.P,R5,1*%
%TO.N,Net-(J2-CC2)*%
X160625000Y-64300000D03*
%TO.P,R5,2*%
%TO.N,GND*%
X158975000Y-64300000D03*
%TD*%
D20*
%TO.P,R3,1*%
%TO.N,Net-(J1-CC2)*%
X164145000Y-68200000D03*
%TO.P,R3,2*%
%TO.N,GND*%
X165795000Y-68200000D03*
%TD*%
D21*
%TO.P,R4,1*%
%TO.N,Net-(J2-CC1)*%
X162940000Y-64225000D03*
%TO.P,R4,2*%
%TO.N,GND*%
X162940000Y-65875000D03*
%TD*%
%TO.P,R1,1*%
%TO.N,Net-(U1-CC1)*%
X156260000Y-65525000D03*
%TO.P,R1,2*%
%TO.N,GND*%
X156260000Y-67175000D03*
%TD*%
D20*
%TO.P,R6,1*%
%TO.N,Net-(D1-K)*%
X167395000Y-65800000D03*
%TO.P,R6,2*%
%TO.N,GND*%
X169045000Y-65800000D03*
%TD*%
D22*
%TO.N,+5V*%
X155100000Y-65700000D03*
X160000000Y-62500000D03*
X164800000Y-62500000D03*
X155100000Y-67600000D03*
%TO.N,/D+*%
X162150035Y-70962108D03*
X162050000Y-68450000D03*
%TD*%
D23*
%TO.N,GND*%
X165975000Y-64275000D02*
X165601000Y-63901000D01*
X158645000Y-70030000D02*
X158080000Y-70595000D01*
X166155000Y-70030000D02*
X166720000Y-70595000D01*
X165750000Y-70030000D02*
X166155000Y-70030000D01*
X165975000Y-64300000D02*
X165975000Y-64275000D01*
X165601000Y-63901000D02*
X165601000Y-62470000D01*
X166155000Y-62470000D02*
X166720000Y-61905000D01*
X165750000Y-62470000D02*
X166155000Y-62470000D01*
X159050000Y-70030000D02*
X158645000Y-70030000D01*
X158645000Y-62470000D02*
X158080000Y-61905000D01*
X159050000Y-62470000D02*
X158645000Y-62470000D01*
D24*
%TO.N,+5V*%
X154100000Y-65650000D02*
X155050000Y-65650000D01*
X155050000Y-67650000D02*
X155100000Y-67600000D01*
X154100000Y-67650000D02*
X155050000Y-67650000D01*
D25*
X164425000Y-64300000D02*
X164425000Y-65787500D01*
D23*
X160000000Y-62500000D02*
X160000000Y-63000000D01*
D25*
X164425000Y-65787500D02*
X164412500Y-65800000D01*
D24*
X155050000Y-65650000D02*
X155100000Y-65700000D01*
D23*
X164425000Y-64300000D02*
X164800000Y-63925000D01*
X164800000Y-63925000D02*
X164800000Y-62500000D01*
D25*
%TO.N,Net-(D1-K)*%
X165987500Y-65800000D02*
X167400000Y-65800000D01*
%TO.N,Net-(J1-CC1)*%
X161150000Y-68200000D02*
X161150000Y-70030000D01*
%TO.N,/D+*%
X154100000Y-64650000D02*
X154950000Y-64650000D01*
X163150000Y-70850000D02*
X163150000Y-70030000D01*
X156851000Y-64551000D02*
X158251000Y-65951000D01*
X162050000Y-67267100D02*
X162050000Y-68450000D01*
X163094000Y-70906000D02*
X163150000Y-70850000D01*
X155049000Y-64551000D02*
X156851000Y-64551000D01*
X158251000Y-65951000D02*
X160733900Y-65951000D01*
X162199000Y-70906000D02*
X163094000Y-70906000D01*
X160733900Y-65951000D02*
X162050000Y-67267100D01*
X154950000Y-64650000D02*
X155049000Y-64551000D01*
X162150000Y-70857000D02*
X162199000Y-70906000D01*
X162150000Y-70030000D02*
X162150000Y-70857000D01*
%TO.N,Net-(J1-CC2)*%
X164150000Y-70030000D02*
X164150000Y-68200000D01*
%TO.N,/D-*%
X161650000Y-69203000D02*
X161650000Y-70030000D01*
X162601000Y-69154000D02*
X161699000Y-69154000D01*
X162650000Y-69203000D02*
X162601000Y-69154000D01*
X160900000Y-65550000D02*
X162650000Y-67300000D01*
X157017100Y-64150000D02*
X158417100Y-65550000D01*
X161699000Y-69154000D02*
X161650000Y-69203000D01*
X162650000Y-67300000D02*
X162650000Y-69203000D01*
X154100000Y-64150000D02*
X157017100Y-64150000D01*
X158417100Y-65550000D02*
X160900000Y-65550000D01*
X162650000Y-70030000D02*
X162650000Y-69203000D01*
%TO.N,Net-(J2-CC1)*%
X162950000Y-64000000D02*
X163650000Y-63300000D01*
X163650000Y-63300000D02*
X163650000Y-62470000D01*
X162950000Y-64225000D02*
X162950000Y-64000000D01*
%TO.N,Net-(J2-CC2)*%
X160650000Y-64275000D02*
X160625000Y-64300000D01*
X160650000Y-62470000D02*
X160650000Y-64275000D01*
%TO.N,Net-(U1-CC1)*%
X154150000Y-65100000D02*
X155825000Y-65100000D01*
X155825000Y-65100000D02*
X156250000Y-65525000D01*
X154100000Y-65150000D02*
X154150000Y-65100000D01*
%TD*%
%TA.AperFunction,Conductor*%
%TO.N,GND*%
G36*
X157607226Y-56720185D02*
G01*
X157652981Y-56772989D01*
X157662925Y-56842147D01*
X157633900Y-56905703D01*
X157627868Y-56912181D01*
X157536278Y-57003770D01*
X157536275Y-57003773D01*
X157459671Y-57118420D01*
X157459664Y-57118433D01*
X157406902Y-57245813D01*
X157406899Y-57245823D01*
X157380000Y-57381053D01*
X157380000Y-57500000D01*
X157780000Y-57500000D01*
X157780000Y-58000000D01*
X157380000Y-58000000D01*
X157380000Y-58118946D01*
X157379999Y-58118946D01*
X157406899Y-58254176D01*
X157406902Y-58254186D01*
X157459664Y-58381566D01*
X157459671Y-58381579D01*
X157536275Y-58496226D01*
X157633773Y-58593724D01*
X157748420Y-58670328D01*
X157748424Y-58670330D01*
X157830000Y-58704119D01*
X157830000Y-58216988D01*
X157839940Y-58234205D01*
X157895795Y-58290060D01*
X157964204Y-58329556D01*
X158040504Y-58350000D01*
X158119496Y-58350000D01*
X158195796Y-58329556D01*
X158264205Y-58290060D01*
X158320060Y-58234205D01*
X158330000Y-58216988D01*
X158330000Y-58704118D01*
X158411575Y-58670330D01*
X158411579Y-58670328D01*
X158526226Y-58593724D01*
X158623724Y-58496226D01*
X158700328Y-58381579D01*
X158700335Y-58381566D01*
X158753097Y-58254186D01*
X158753100Y-58254176D01*
X158780000Y-58118946D01*
X158780000Y-58000000D01*
X158380000Y-58000000D01*
X158380000Y-57500000D01*
X158780000Y-57500000D01*
X158780000Y-57381053D01*
X158753100Y-57245823D01*
X158753097Y-57245813D01*
X158700335Y-57118433D01*
X158700328Y-57118420D01*
X158623724Y-57003773D01*
X158532132Y-56912181D01*
X158498647Y-56850858D01*
X158503631Y-56781166D01*
X158545503Y-56725233D01*
X158610967Y-56700816D01*
X158619813Y-56700500D01*
X166180187Y-56700500D01*
X166247226Y-56720185D01*
X166292981Y-56772989D01*
X166302925Y-56842147D01*
X166273900Y-56905703D01*
X166267868Y-56912181D01*
X166176278Y-57003770D01*
X166176275Y-57003773D01*
X166099671Y-57118420D01*
X166099664Y-57118433D01*
X166046902Y-57245813D01*
X166046899Y-57245823D01*
X166020000Y-57381053D01*
X166020000Y-57500000D01*
X166420000Y-57500000D01*
X166420000Y-58000000D01*
X166020000Y-58000000D01*
X166020000Y-58118946D01*
X166019999Y-58118946D01*
X166046899Y-58254176D01*
X166046902Y-58254186D01*
X166099664Y-58381566D01*
X166099671Y-58381579D01*
X166176275Y-58496226D01*
X166273773Y-58593724D01*
X166388420Y-58670328D01*
X166388424Y-58670330D01*
X166470000Y-58704119D01*
X166470000Y-58216988D01*
X166479940Y-58234205D01*
X166535795Y-58290060D01*
X166604204Y-58329556D01*
X166680504Y-58350000D01*
X166759496Y-58350000D01*
X166835796Y-58329556D01*
X166904205Y-58290060D01*
X166960060Y-58234205D01*
X166970000Y-58216988D01*
X166970000Y-58704118D01*
X167051576Y-58670329D01*
X167051577Y-58670329D01*
X167166226Y-58593724D01*
X167263724Y-58496226D01*
X167340328Y-58381579D01*
X167340335Y-58381566D01*
X167393097Y-58254186D01*
X167393100Y-58254174D01*
X167420000Y-58118945D01*
X167420000Y-58000000D01*
X167020000Y-58000000D01*
X167020000Y-57500000D01*
X167420000Y-57500000D01*
X167420000Y-57381053D01*
X167393100Y-57245823D01*
X167393097Y-57245813D01*
X167340335Y-57118433D01*
X167340328Y-57118420D01*
X167263724Y-57003773D01*
X167172132Y-56912181D01*
X167138647Y-56850858D01*
X167143631Y-56781166D01*
X167185503Y-56725233D01*
X167250967Y-56700816D01*
X167259813Y-56700500D01*
X171775500Y-56700500D01*
X171842539Y-56720185D01*
X171888294Y-56772989D01*
X171899500Y-56824500D01*
X171899500Y-57629038D01*
X171879815Y-57696077D01*
X171827011Y-57741832D01*
X171757853Y-57751776D01*
X171747046Y-57749137D01*
X171746976Y-57749461D01*
X171739600Y-57747850D01*
X171709207Y-57745000D01*
X170250000Y-57745000D01*
X170250000Y-58230000D01*
X169750000Y-58230000D01*
X169750000Y-57745000D01*
X168290803Y-57745000D01*
X168260393Y-57747851D01*
X168132354Y-57792653D01*
X168023207Y-57873207D01*
X167942653Y-57982354D01*
X167897850Y-58110395D01*
X167897850Y-58110399D01*
X167895000Y-58140793D01*
X167895000Y-58330000D01*
X168835025Y-58330000D01*
X168799930Y-58365095D01*
X168753852Y-58444905D01*
X168730000Y-58533922D01*
X168730000Y-58626078D01*
X168753852Y-58715095D01*
X168799930Y-58794905D01*
X168835025Y-58830000D01*
X167895001Y-58830000D01*
X167895001Y-59019196D01*
X167897851Y-59049606D01*
X167942653Y-59177645D01*
X168023207Y-59286792D01*
X168132354Y-59367346D01*
X168260397Y-59412149D01*
X168290792Y-59414999D01*
X169749999Y-59414999D01*
X169750000Y-59414998D01*
X169750000Y-58930000D01*
X170250000Y-58930000D01*
X170250000Y-59414999D01*
X171709196Y-59414999D01*
X171739607Y-59412147D01*
X171746980Y-59410538D01*
X171747574Y-59413260D01*
X171804284Y-59410347D01*
X171864923Y-59445056D01*
X171897171Y-59507038D01*
X171899500Y-59530960D01*
X171899500Y-60169038D01*
X171879815Y-60236077D01*
X171827011Y-60281832D01*
X171757853Y-60291776D01*
X171747046Y-60289137D01*
X171746976Y-60289461D01*
X171739600Y-60287850D01*
X171709207Y-60285000D01*
X170250000Y-60285000D01*
X170250000Y-60770000D01*
X169750000Y-60770000D01*
X169750000Y-60285000D01*
X168290803Y-60285000D01*
X168260393Y-60287851D01*
X168132354Y-60332653D01*
X168023207Y-60413207D01*
X167942653Y-60522354D01*
X167897850Y-60650395D01*
X167897850Y-60650399D01*
X167895000Y-60680793D01*
X167895000Y-60870000D01*
X168835025Y-60870000D01*
X168799930Y-60905095D01*
X168753852Y-60984905D01*
X168730000Y-61073922D01*
X168730000Y-61166078D01*
X168753852Y-61255095D01*
X168799930Y-61334905D01*
X168835025Y-61370000D01*
X167895001Y-61370000D01*
X167895001Y-61559196D01*
X167897851Y-61589606D01*
X167942653Y-61717645D01*
X168023207Y-61826792D01*
X168132354Y-61907346D01*
X168260397Y-61952149D01*
X168290792Y-61954999D01*
X169749999Y-61954999D01*
X169750000Y-61954998D01*
X169750000Y-61470000D01*
X170250000Y-61470000D01*
X170250000Y-61954999D01*
X171709196Y-61954999D01*
X171739607Y-61952147D01*
X171746980Y-61950538D01*
X171747574Y-61953260D01*
X171804284Y-61950347D01*
X171864923Y-61985056D01*
X171897171Y-62047038D01*
X171899500Y-62070960D01*
X171899500Y-70329038D01*
X171879815Y-70396077D01*
X171827011Y-70441832D01*
X171757853Y-70451776D01*
X171747046Y-70449137D01*
X171746976Y-70449461D01*
X171739600Y-70447850D01*
X171709207Y-70445000D01*
X170250000Y-70445000D01*
X170250000Y-70930000D01*
X169750000Y-70930000D01*
X169750000Y-70445000D01*
X168290803Y-70445000D01*
X168260393Y-70447851D01*
X168132354Y-70492653D01*
X168023207Y-70573207D01*
X167942653Y-70682354D01*
X167897850Y-70810395D01*
X167897850Y-70810399D01*
X167895000Y-70840793D01*
X167895000Y-71030000D01*
X168835025Y-71030000D01*
X168799930Y-71065095D01*
X168753852Y-71144905D01*
X168730000Y-71233922D01*
X168730000Y-71326078D01*
X168753852Y-71415095D01*
X168799930Y-71494905D01*
X168835025Y-71530000D01*
X167895001Y-71530000D01*
X167895001Y-71719196D01*
X167897851Y-71749606D01*
X167942653Y-71877645D01*
X168023207Y-71986792D01*
X168132354Y-72067346D01*
X168260397Y-72112149D01*
X168290792Y-72114999D01*
X169749999Y-72114999D01*
X169750000Y-72114998D01*
X169750000Y-71630000D01*
X170250000Y-71630000D01*
X170250000Y-72114999D01*
X171709196Y-72114999D01*
X171739607Y-72112147D01*
X171746980Y-72110538D01*
X171747574Y-72113260D01*
X171804284Y-72110347D01*
X171864923Y-72145056D01*
X171897171Y-72207038D01*
X171899500Y-72230960D01*
X171899500Y-72869038D01*
X171879815Y-72936077D01*
X171827011Y-72981832D01*
X171757853Y-72991776D01*
X171747046Y-72989137D01*
X171746976Y-72989461D01*
X171739600Y-72987850D01*
X171709207Y-72985000D01*
X170250000Y-72985000D01*
X170250000Y-73470000D01*
X169750000Y-73470000D01*
X169750000Y-72985000D01*
X168290803Y-72985000D01*
X168260393Y-72987851D01*
X168132354Y-73032653D01*
X168023207Y-73113207D01*
X167942653Y-73222354D01*
X167897850Y-73350395D01*
X167897850Y-73350399D01*
X167895000Y-73380793D01*
X167895000Y-73570000D01*
X168835025Y-73570000D01*
X168799930Y-73605095D01*
X168753852Y-73684905D01*
X168730000Y-73773922D01*
X168730000Y-73866078D01*
X168753852Y-73955095D01*
X168799930Y-74034905D01*
X168835025Y-74070000D01*
X167895001Y-74070000D01*
X167895001Y-74259196D01*
X167897851Y-74289606D01*
X167942653Y-74417645D01*
X168023207Y-74526792D01*
X168132354Y-74607346D01*
X168260397Y-74652149D01*
X168290792Y-74654999D01*
X169749999Y-74654999D01*
X169750000Y-74654998D01*
X169750000Y-74170000D01*
X170250000Y-74170000D01*
X170250000Y-74654999D01*
X171709196Y-74654999D01*
X171739607Y-74652147D01*
X171746980Y-74650538D01*
X171747574Y-74653260D01*
X171804284Y-74650347D01*
X171864923Y-74685056D01*
X171897171Y-74747038D01*
X171899500Y-74770960D01*
X171899500Y-75575500D01*
X171879815Y-75642539D01*
X171827011Y-75688294D01*
X171775500Y-75699500D01*
X167366570Y-75699500D01*
X167299531Y-75679815D01*
X167253776Y-75627011D01*
X167243832Y-75557853D01*
X167263468Y-75506609D01*
X167340328Y-75391579D01*
X167340335Y-75391566D01*
X167393097Y-75264186D01*
X167393100Y-75264176D01*
X167420000Y-75128946D01*
X167420000Y-75010000D01*
X167020000Y-75010000D01*
X167020000Y-74510000D01*
X167420000Y-74510000D01*
X167420000Y-74391053D01*
X167393100Y-74255823D01*
X167393097Y-74255813D01*
X167340335Y-74128433D01*
X167340329Y-74128422D01*
X167313005Y-74087528D01*
X167313004Y-74087527D01*
X167263724Y-74013773D01*
X167166226Y-73916275D01*
X167051573Y-73839667D01*
X166970000Y-73805879D01*
X166970000Y-74293011D01*
X166960060Y-74275795D01*
X166904205Y-74219940D01*
X166835796Y-74180444D01*
X166759496Y-74160000D01*
X166680504Y-74160000D01*
X166604204Y-74180444D01*
X166535795Y-74219940D01*
X166479940Y-74275795D01*
X166470000Y-74293011D01*
X166470000Y-73805879D01*
X166469999Y-73805879D01*
X166388426Y-73839667D01*
X166273773Y-73916275D01*
X166176275Y-74013773D01*
X166099671Y-74128420D01*
X166099664Y-74128433D01*
X166046902Y-74255813D01*
X166046899Y-74255823D01*
X166020000Y-74391053D01*
X166020000Y-74510000D01*
X166420000Y-74510000D01*
X166420000Y-75010000D01*
X166020000Y-75010000D01*
X166020000Y-75128946D01*
X166019999Y-75128946D01*
X166046899Y-75264176D01*
X166046902Y-75264186D01*
X166099664Y-75391566D01*
X166099671Y-75391579D01*
X166176532Y-75506609D01*
X166197410Y-75573287D01*
X166178925Y-75640667D01*
X166126947Y-75687357D01*
X166073430Y-75699500D01*
X158726570Y-75699500D01*
X158659531Y-75679815D01*
X158613776Y-75627011D01*
X158603832Y-75557853D01*
X158623468Y-75506609D01*
X158700328Y-75391579D01*
X158700335Y-75391566D01*
X158753097Y-75264186D01*
X158753100Y-75264176D01*
X158780000Y-75128946D01*
X158780000Y-75010000D01*
X158380000Y-75010000D01*
X158380000Y-74510000D01*
X158780000Y-74510000D01*
X158780000Y-74391053D01*
X158753100Y-74255823D01*
X158753097Y-74255813D01*
X158700335Y-74128433D01*
X158700328Y-74128420D01*
X158623724Y-74013773D01*
X158526226Y-73916275D01*
X158411573Y-73839667D01*
X158330000Y-73805879D01*
X158330000Y-74293011D01*
X158320060Y-74275795D01*
X158264205Y-74219940D01*
X158195796Y-74180444D01*
X158119496Y-74160000D01*
X158040504Y-74160000D01*
X157964204Y-74180444D01*
X157895795Y-74219940D01*
X157839940Y-74275795D01*
X157830000Y-74293011D01*
X157830000Y-73805879D01*
X157829999Y-73805879D01*
X157748426Y-73839667D01*
X157633773Y-73916275D01*
X157536275Y-74013773D01*
X157459671Y-74128420D01*
X157459664Y-74128433D01*
X157406902Y-74255813D01*
X157406899Y-74255823D01*
X157380000Y-74391053D01*
X157380000Y-74510000D01*
X157780000Y-74510000D01*
X157780000Y-75010000D01*
X157380000Y-75010000D01*
X157380000Y-75128946D01*
X157379999Y-75128946D01*
X157406899Y-75264176D01*
X157406902Y-75264186D01*
X157459664Y-75391566D01*
X157459671Y-75391579D01*
X157536532Y-75506609D01*
X157557410Y-75573287D01*
X157538925Y-75640667D01*
X157486947Y-75687357D01*
X157433430Y-75699500D01*
X153024500Y-75699500D01*
X152957461Y-75679815D01*
X152911706Y-75627011D01*
X152900500Y-75575500D01*
X152900500Y-74770961D01*
X152920185Y-74703922D01*
X152972989Y-74658167D01*
X153042147Y-74648223D01*
X153052952Y-74650864D01*
X153053024Y-74650539D01*
X153060399Y-74652149D01*
X153090792Y-74654999D01*
X154549999Y-74654999D01*
X154550000Y-74654998D01*
X154550000Y-74170000D01*
X155050000Y-74170000D01*
X155050000Y-74654999D01*
X156509196Y-74654999D01*
X156539606Y-74652148D01*
X156667645Y-74607346D01*
X156776792Y-74526792D01*
X156857346Y-74417645D01*
X156883112Y-74344010D01*
X156902149Y-74289604D01*
X156902149Y-74289600D01*
X156905000Y-74259206D01*
X156905000Y-74070000D01*
X155964975Y-74070000D01*
X156000070Y-74034905D01*
X156046148Y-73955095D01*
X156070000Y-73866078D01*
X156070000Y-73773922D01*
X156046148Y-73684905D01*
X156000070Y-73605095D01*
X155964975Y-73570000D01*
X156904999Y-73570000D01*
X156904999Y-73380803D01*
X156902148Y-73350393D01*
X156857346Y-73222354D01*
X156776792Y-73113207D01*
X156667645Y-73032653D01*
X156539602Y-72987850D01*
X156509207Y-72985000D01*
X155050000Y-72985000D01*
X155050000Y-73470000D01*
X154550000Y-73470000D01*
X154550000Y-72985000D01*
X153090803Y-72985000D01*
X153060392Y-72987852D01*
X153053020Y-72989462D01*
X153052427Y-72986748D01*
X152995664Y-72989640D01*
X152935040Y-72954905D01*
X152902819Y-72892908D01*
X152900500Y-72869039D01*
X152900500Y-72074000D01*
X152920185Y-72006961D01*
X152972989Y-71961206D01*
X153024500Y-71950000D01*
X153400000Y-71950000D01*
X153900000Y-71950000D01*
X154719699Y-71950000D01*
X154719702Y-71949999D01*
X154778033Y-71938397D01*
X154778034Y-71938396D01*
X154844191Y-71894191D01*
X154888396Y-71828034D01*
X154888397Y-71828033D01*
X154899999Y-71769702D01*
X154900000Y-71769699D01*
X154900000Y-71350000D01*
X153900000Y-71350000D01*
X153900000Y-71950000D01*
X153400000Y-71950000D01*
X153400000Y-71224000D01*
X153419685Y-71156961D01*
X153472489Y-71111206D01*
X153524000Y-71100000D01*
X153650000Y-71100000D01*
X153650000Y-70974000D01*
X153669685Y-70906961D01*
X153722489Y-70861206D01*
X153774000Y-70850000D01*
X154900000Y-70850000D01*
X154900000Y-70430301D01*
X154899999Y-70430297D01*
X154888397Y-70371966D01*
X154888396Y-70371965D01*
X154844191Y-70305808D01*
X154778034Y-70261603D01*
X154778033Y-70261602D01*
X154719702Y-70250000D01*
X154076362Y-70250000D01*
X154009323Y-70230315D01*
X154002727Y-70225000D01*
X153324000Y-70225000D01*
X153315314Y-70222449D01*
X153306353Y-70223738D01*
X153282312Y-70212759D01*
X153256961Y-70205315D01*
X153251033Y-70198474D01*
X153242797Y-70194713D01*
X153228507Y-70172478D01*
X153211206Y-70152511D01*
X153208918Y-70141996D01*
X153205023Y-70135935D01*
X153200000Y-70101000D01*
X153200000Y-69975000D01*
X153074000Y-69975000D01*
X153006961Y-69955315D01*
X152961206Y-69902511D01*
X152950000Y-69851000D01*
X152950000Y-69525000D01*
X152936819Y-69511819D01*
X152922115Y-69484891D01*
X152905523Y-69459073D01*
X152904631Y-69452872D01*
X152903334Y-69450496D01*
X152900500Y-69424138D01*
X152900500Y-69319702D01*
X153400000Y-69319702D01*
X153411602Y-69378033D01*
X153411604Y-69378036D01*
X153429312Y-69404539D01*
X153450189Y-69471216D01*
X153449525Y-69473638D01*
X153450000Y-69473638D01*
X153450000Y-69725000D01*
X154000000Y-69725000D01*
X154000000Y-69705301D01*
X153999999Y-69705297D01*
X153988397Y-69646966D01*
X153970687Y-69620461D01*
X153949810Y-69553783D01*
X153950474Y-69551362D01*
X153950000Y-69551362D01*
X153950000Y-69500000D01*
X154250000Y-69500000D01*
X154619699Y-69500000D01*
X154619702Y-69499999D01*
X154678033Y-69488397D01*
X154678034Y-69488396D01*
X154744191Y-69444191D01*
X154788396Y-69378034D01*
X154788397Y-69378033D01*
X154799999Y-69319702D01*
X154800000Y-69319699D01*
X154800000Y-69300000D01*
X154250000Y-69300000D01*
X154250000Y-69500000D01*
X153950000Y-69500000D01*
X153950000Y-69300000D01*
X153400000Y-69300000D01*
X153400000Y-69319702D01*
X152900500Y-69319702D01*
X152900500Y-63980252D01*
X153399500Y-63980252D01*
X153399500Y-64319747D01*
X153410651Y-64375810D01*
X153410651Y-64424190D01*
X153399500Y-64480252D01*
X153399500Y-64819747D01*
X153410651Y-64875810D01*
X153410651Y-64924190D01*
X153399500Y-64980252D01*
X153399500Y-65319747D01*
X153410651Y-65375810D01*
X153410651Y-65424190D01*
X153399500Y-65480252D01*
X153399500Y-65819747D01*
X153410651Y-65875810D01*
X153410651Y-65924190D01*
X153399500Y-65980252D01*
X153399500Y-66319747D01*
X153410651Y-66375810D01*
X153410651Y-66424190D01*
X153399500Y-66480252D01*
X153399500Y-66819747D01*
X153410906Y-66877092D01*
X153410906Y-66925472D01*
X153400000Y-66980303D01*
X153400000Y-67000000D01*
X153569084Y-67000000D01*
X153574161Y-67001490D01*
X153574161Y-67000500D01*
X153976000Y-67000500D01*
X154043039Y-67020185D01*
X154088794Y-67072989D01*
X154100000Y-67124500D01*
X154100000Y-67175500D01*
X154080315Y-67242539D01*
X154027511Y-67288294D01*
X153976000Y-67299500D01*
X153579262Y-67299500D01*
X153569084Y-67300000D01*
X153400000Y-67300000D01*
X153400000Y-67319696D01*
X153410906Y-67374528D01*
X153410906Y-67422908D01*
X153399500Y-67480252D01*
X153399500Y-67819747D01*
X153410651Y-67875810D01*
X153410651Y-67924190D01*
X153399500Y-67980252D01*
X153399500Y-68319748D01*
X153403011Y-68337399D01*
X153410651Y-68375810D01*
X153410651Y-68424190D01*
X153399500Y-68480252D01*
X153399500Y-68819747D01*
X153410906Y-68877092D01*
X153410906Y-68925472D01*
X153400000Y-68980303D01*
X153400000Y-69000000D01*
X153569084Y-69000000D01*
X153579262Y-69000500D01*
X153580252Y-69000500D01*
X154620738Y-69000500D01*
X154630916Y-69000000D01*
X154800000Y-69000000D01*
X154800000Y-68980301D01*
X154799999Y-68980297D01*
X154789094Y-68925471D01*
X154789094Y-68877089D01*
X154800500Y-68819748D01*
X154800500Y-68496479D01*
X158895001Y-68496479D01*
X158909835Y-68590149D01*
X158909837Y-68590155D01*
X158967356Y-68703041D01*
X158967363Y-68703050D01*
X159056949Y-68792636D01*
X159056958Y-68792643D01*
X159169844Y-68850162D01*
X159169850Y-68850164D01*
X159245000Y-68862065D01*
X159245000Y-68862064D01*
X159745000Y-68862064D01*
X159820149Y-68850164D01*
X159820155Y-68850162D01*
X159933041Y-68792643D01*
X159933050Y-68792636D01*
X160022636Y-68703050D01*
X160022639Y-68703046D01*
X160080166Y-68590144D01*
X160095000Y-68496486D01*
X160095000Y-68440000D01*
X159745000Y-68440000D01*
X159745000Y-68862064D01*
X159245000Y-68862064D01*
X159245000Y-68440000D01*
X158895001Y-68440000D01*
X158895001Y-68496479D01*
X154800500Y-68496479D01*
X154800500Y-68480252D01*
X154800500Y-68480249D01*
X154789349Y-68424192D01*
X154789349Y-68415854D01*
X154787460Y-68411053D01*
X154789349Y-68375809D01*
X154791609Y-68364447D01*
X154791609Y-68364446D01*
X154800500Y-68319750D01*
X154800500Y-68199504D01*
X154820185Y-68132465D01*
X154872989Y-68086710D01*
X154942147Y-68076766D01*
X154956571Y-68079724D01*
X155034108Y-68100500D01*
X155034111Y-68100500D01*
X155165890Y-68100500D01*
X155165892Y-68100500D01*
X155293186Y-68066392D01*
X155407314Y-68000500D01*
X155500500Y-67907314D01*
X155514242Y-67883513D01*
X158895000Y-67883513D01*
X158895000Y-67940000D01*
X159245000Y-67940000D01*
X159745000Y-67940000D01*
X160094999Y-67940000D01*
X160094999Y-67883520D01*
X160080164Y-67789850D01*
X160080162Y-67789844D01*
X160022643Y-67676958D01*
X160022636Y-67676949D01*
X159933050Y-67587363D01*
X159933046Y-67587360D01*
X159820144Y-67529833D01*
X159745000Y-67517932D01*
X159745000Y-67940000D01*
X159245000Y-67940000D01*
X159245000Y-67517932D01*
X159169855Y-67529833D01*
X159056953Y-67587360D01*
X159056949Y-67587363D01*
X158967363Y-67676949D01*
X158967360Y-67676953D01*
X158909833Y-67789855D01*
X158895000Y-67883513D01*
X155514242Y-67883513D01*
X155566392Y-67793186D01*
X155569796Y-67780479D01*
X155606157Y-67720820D01*
X155669002Y-67690288D01*
X155738378Y-67698579D01*
X155745866Y-67702085D01*
X155859855Y-67760166D01*
X155953514Y-67774999D01*
X156510000Y-67774999D01*
X156566479Y-67774999D01*
X156660152Y-67760163D01*
X156773041Y-67702643D01*
X156773050Y-67702636D01*
X156862636Y-67613050D01*
X156862639Y-67613046D01*
X156920166Y-67500144D01*
X156932068Y-67425000D01*
X156510000Y-67425000D01*
X156510000Y-67774999D01*
X155953514Y-67774999D01*
X156009999Y-67774998D01*
X156010000Y-67774998D01*
X156010000Y-67425000D01*
X155648483Y-67425000D01*
X155581444Y-67405315D01*
X155541096Y-67363000D01*
X155511150Y-67311133D01*
X155500500Y-67292686D01*
X155407314Y-67199500D01*
X155350250Y-67166554D01*
X155293187Y-67133608D01*
X155225553Y-67115486D01*
X155165892Y-67099500D01*
X155034108Y-67099500D01*
X154956092Y-67120403D01*
X154932962Y-67119853D01*
X154910176Y-67123856D01*
X154898693Y-67119037D01*
X154886243Y-67118741D01*
X154867081Y-67105772D01*
X154845749Y-67096820D01*
X154838694Y-67086558D01*
X154828381Y-67079578D01*
X154819273Y-67058309D01*
X154806166Y-67039244D01*
X154803226Y-67020837D01*
X154800877Y-67015350D01*
X154800060Y-67004482D01*
X154799180Y-66976183D01*
X154789093Y-66925470D01*
X154789093Y-66925000D01*
X155587932Y-66925000D01*
X156010000Y-66925000D01*
X156510000Y-66925000D01*
X156932065Y-66925000D01*
X156920164Y-66849850D01*
X156920162Y-66849844D01*
X156862643Y-66736958D01*
X156862636Y-66736949D01*
X156773050Y-66647363D01*
X156773046Y-66647360D01*
X156660144Y-66589833D01*
X156566486Y-66575000D01*
X156510000Y-66575000D01*
X156510000Y-66925000D01*
X156010000Y-66925000D01*
X156010000Y-66575000D01*
X156009999Y-66574999D01*
X155953521Y-66575000D01*
X155859849Y-66589835D01*
X155859844Y-66589837D01*
X155746958Y-66647356D01*
X155746949Y-66647363D01*
X155657363Y-66736949D01*
X155657360Y-66736953D01*
X155599833Y-66849855D01*
X155587932Y-66925000D01*
X154789093Y-66925000D01*
X154789093Y-66877089D01*
X154800500Y-66819748D01*
X154800500Y-66480252D01*
X154800500Y-66480249D01*
X154789349Y-66424192D01*
X154789235Y-66420548D01*
X154788391Y-66418743D01*
X154788718Y-66404044D01*
X154788075Y-66383450D01*
X154788755Y-66378398D01*
X154788867Y-66378231D01*
X154800500Y-66319748D01*
X154800500Y-66291188D01*
X154801609Y-66282954D01*
X154812590Y-66258327D01*
X154820185Y-66232465D01*
X154826604Y-66226902D01*
X154830065Y-66219142D01*
X154852616Y-66204362D01*
X154872989Y-66186710D01*
X154881398Y-66185500D01*
X154888504Y-66180844D01*
X154915459Y-66180603D01*
X154942147Y-66176766D01*
X154956571Y-66179724D01*
X155034108Y-66200500D01*
X155034111Y-66200500D01*
X155165890Y-66200500D01*
X155165892Y-66200500D01*
X155293186Y-66166392D01*
X155407314Y-66100500D01*
X155500500Y-66007314D01*
X155500505Y-66007303D01*
X155501435Y-66006094D01*
X155502491Y-66005322D01*
X155506247Y-66001567D01*
X155506832Y-66002152D01*
X155557859Y-65964886D01*
X155627605Y-65960726D01*
X155687498Y-65993891D01*
X155746652Y-66053045D01*
X155746654Y-66053046D01*
X155746658Y-66053050D01*
X155851606Y-66106524D01*
X155859698Y-66110647D01*
X155953475Y-66125499D01*
X155953481Y-66125500D01*
X156566518Y-66125499D01*
X156660304Y-66110646D01*
X156773342Y-66053050D01*
X156863050Y-65963342D01*
X156920646Y-65850304D01*
X156920646Y-65850302D01*
X156920647Y-65850301D01*
X156935499Y-65756524D01*
X156935500Y-65756519D01*
X156935499Y-65359831D01*
X156955183Y-65292793D01*
X157007987Y-65247038D01*
X157077146Y-65237094D01*
X157140701Y-65266119D01*
X157147180Y-65272151D01*
X158010540Y-66135511D01*
X158066489Y-66191460D01*
X158066491Y-66191461D01*
X158066495Y-66191464D01*
X158135004Y-66231017D01*
X158135011Y-66231021D01*
X158211438Y-66251500D01*
X160558067Y-66251500D01*
X160625106Y-66271185D01*
X160645748Y-66287819D01*
X161713181Y-67355252D01*
X161727884Y-67382179D01*
X161744477Y-67407998D01*
X161745368Y-67414198D01*
X161746666Y-67416575D01*
X161749500Y-67442933D01*
X161749500Y-67469262D01*
X161729815Y-67536301D01*
X161677011Y-67582056D01*
X161607853Y-67592000D01*
X161569205Y-67579747D01*
X161470301Y-67529352D01*
X161376524Y-67514500D01*
X160913482Y-67514500D01*
X160832519Y-67527323D01*
X160819696Y-67529354D01*
X160706658Y-67586950D01*
X160706657Y-67586951D01*
X160706652Y-67586954D01*
X160616954Y-67676652D01*
X160616951Y-67676657D01*
X160616950Y-67676658D01*
X160603710Y-67702643D01*
X160559352Y-67789698D01*
X160544500Y-67883475D01*
X160544500Y-68496517D01*
X160555292Y-68564657D01*
X160559354Y-68590304D01*
X160616950Y-68703342D01*
X160616952Y-68703344D01*
X160616954Y-68703347D01*
X160706652Y-68793045D01*
X160706655Y-68793047D01*
X160706658Y-68793050D01*
X160781796Y-68831334D01*
X160792857Y-68841782D01*
X160806703Y-68848105D01*
X160817744Y-68865286D01*
X160832590Y-68879307D01*
X160836831Y-68894986D01*
X160844477Y-68906883D01*
X160849500Y-68941818D01*
X160849500Y-69115500D01*
X160829815Y-69182539D01*
X160777011Y-69228294D01*
X160725500Y-69239500D01*
X160480252Y-69239500D01*
X160424190Y-69250651D01*
X160375810Y-69250651D01*
X160319748Y-69239500D01*
X160019748Y-69239500D01*
X159680252Y-69239500D01*
X159622908Y-69250906D01*
X159574528Y-69250906D01*
X159519697Y-69240000D01*
X159500000Y-69240000D01*
X159500000Y-69409084D01*
X159499500Y-69419262D01*
X159499500Y-69891000D01*
X159479815Y-69958039D01*
X159427011Y-70003794D01*
X159375500Y-70015000D01*
X159024000Y-70015000D01*
X158956961Y-69995315D01*
X158911206Y-69942511D01*
X158900000Y-69891000D01*
X158900000Y-69240000D01*
X158880297Y-69240000D01*
X158821966Y-69251602D01*
X158821965Y-69251603D01*
X158755808Y-69295808D01*
X158711603Y-69361965D01*
X158711602Y-69361966D01*
X158704234Y-69399012D01*
X158671849Y-69460923D01*
X158611133Y-69495498D01*
X158541364Y-69491758D01*
X158513727Y-69477924D01*
X158411572Y-69409667D01*
X158330000Y-69375879D01*
X158330000Y-69863011D01*
X158320060Y-69845795D01*
X158264205Y-69789940D01*
X158195796Y-69750444D01*
X158119496Y-69730000D01*
X158040504Y-69730000D01*
X157964204Y-69750444D01*
X157895795Y-69789940D01*
X157839940Y-69845795D01*
X157830000Y-69863011D01*
X157830000Y-69375879D01*
X157829999Y-69375879D01*
X157748426Y-69409667D01*
X157633773Y-69486275D01*
X157536275Y-69583773D01*
X157459671Y-69698420D01*
X157459664Y-69698433D01*
X157406902Y-69825813D01*
X157406899Y-69825823D01*
X157380000Y-69961053D01*
X157380000Y-70330000D01*
X157780000Y-70330000D01*
X157780000Y-70830000D01*
X157380000Y-70830000D01*
X157380000Y-71198946D01*
X157379999Y-71198946D01*
X157406899Y-71334176D01*
X157406902Y-71334186D01*
X157459664Y-71461566D01*
X157459671Y-71461579D01*
X157536275Y-71576226D01*
X157633773Y-71673724D01*
X157748420Y-71750328D01*
X157748424Y-71750330D01*
X157830000Y-71784119D01*
X157830000Y-71296988D01*
X157839940Y-71314205D01*
X157895795Y-71370060D01*
X157964204Y-71409556D01*
X158040504Y-71430000D01*
X158119496Y-71430000D01*
X158195796Y-71409556D01*
X158264205Y-71370060D01*
X158320060Y-71314205D01*
X158330000Y-71296988D01*
X158330000Y-71784118D01*
X158411575Y-71750330D01*
X158411579Y-71750328D01*
X158526226Y-71673724D01*
X158623724Y-71576226D01*
X158700328Y-71461579D01*
X158700335Y-71461566D01*
X158755430Y-71328555D01*
X158757109Y-71329250D01*
X158790715Y-71277956D01*
X158854523Y-71249491D01*
X158923592Y-71260042D01*
X158975992Y-71306259D01*
X158978478Y-71310378D01*
X159049485Y-71433365D01*
X159156635Y-71540515D01*
X159287865Y-71616281D01*
X159434234Y-71655500D01*
X159434236Y-71655500D01*
X159585764Y-71655500D01*
X159585766Y-71655500D01*
X159732135Y-71616281D01*
X159863365Y-71540515D01*
X159970515Y-71433365D01*
X160046281Y-71302135D01*
X160085500Y-71155766D01*
X160085500Y-71004234D01*
X160070055Y-70946591D01*
X160070558Y-70925461D01*
X160066212Y-70904777D01*
X160071373Y-70891233D01*
X160071718Y-70876743D01*
X160083564Y-70859239D01*
X160091092Y-70839487D01*
X160102757Y-70830882D01*
X160110881Y-70818881D01*
X160130311Y-70810560D01*
X160147322Y-70798014D01*
X160168248Y-70794314D01*
X160175109Y-70791377D01*
X160181861Y-70790756D01*
X160185836Y-70790500D01*
X160319748Y-70790500D01*
X160378231Y-70778867D01*
X160379483Y-70778029D01*
X160392031Y-70777222D01*
X160401485Y-70779349D01*
X160424192Y-70779349D01*
X160480249Y-70790500D01*
X160480252Y-70790500D01*
X160819750Y-70790500D01*
X160875808Y-70779349D01*
X160924192Y-70779349D01*
X160980249Y-70790500D01*
X160980252Y-70790500D01*
X161319750Y-70790500D01*
X161375808Y-70779349D01*
X161377316Y-70779281D01*
X161378020Y-70778930D01*
X161383999Y-70778984D01*
X161413291Y-70777680D01*
X161421281Y-70778541D01*
X161421769Y-70778867D01*
X161480252Y-70790500D01*
X161532203Y-70790500D01*
X161538826Y-70791214D01*
X161565196Y-70802146D01*
X161592574Y-70810185D01*
X161597050Y-70815351D01*
X161603370Y-70817971D01*
X161619644Y-70841425D01*
X161638329Y-70862989D01*
X161640029Y-70870804D01*
X161643201Y-70875376D01*
X161643624Y-70887330D01*
X161649535Y-70914500D01*
X161649535Y-71028000D01*
X161666285Y-71090511D01*
X161683643Y-71155295D01*
X161713207Y-71206500D01*
X161749535Y-71269422D01*
X161842721Y-71362608D01*
X161956849Y-71428500D01*
X162084143Y-71462608D01*
X162084145Y-71462608D01*
X162215925Y-71462608D01*
X162215927Y-71462608D01*
X162343221Y-71428500D01*
X162457349Y-71362608D01*
X162550535Y-71269422D01*
X162551069Y-71268496D01*
X162551723Y-71267872D01*
X162555481Y-71262976D01*
X162556244Y-71263562D01*
X162601637Y-71220283D01*
X162658454Y-71206500D01*
X163133560Y-71206500D01*
X163133562Y-71206500D01*
X163209989Y-71186021D01*
X163278511Y-71146460D01*
X163334460Y-71090511D01*
X163390460Y-71034511D01*
X163394219Y-71028000D01*
X163430021Y-70965989D01*
X163450500Y-70889562D01*
X163450500Y-70884758D01*
X163457148Y-70868230D01*
X163474339Y-70846440D01*
X163488783Y-70822746D01*
X163495677Y-70819397D01*
X163500427Y-70813377D01*
X163526672Y-70804340D01*
X163551630Y-70792217D01*
X163565166Y-70791086D01*
X163566490Y-70790631D01*
X163567542Y-70790888D01*
X163572192Y-70790500D01*
X163819750Y-70790500D01*
X163875808Y-70779349D01*
X163924192Y-70779349D01*
X163980249Y-70790500D01*
X163980252Y-70790500D01*
X164319750Y-70790500D01*
X164375808Y-70779349D01*
X164407969Y-70777222D01*
X164420516Y-70778029D01*
X164421769Y-70778867D01*
X164480252Y-70790500D01*
X164614164Y-70790500D01*
X164618139Y-70790756D01*
X164647370Y-70801423D01*
X164677209Y-70810185D01*
X164679904Y-70813295D01*
X164683774Y-70814708D01*
X164702597Y-70839484D01*
X164722964Y-70862989D01*
X164723549Y-70867064D01*
X164726041Y-70870343D01*
X164728480Y-70901352D01*
X164732908Y-70932147D01*
X164731458Y-70939214D01*
X164731520Y-70939998D01*
X164731160Y-70940668D01*
X164729946Y-70946587D01*
X164714500Y-71004234D01*
X164714500Y-71155766D01*
X164722607Y-71186021D01*
X164753719Y-71302136D01*
X164788633Y-71362607D01*
X164829485Y-71433365D01*
X164936635Y-71540515D01*
X165067865Y-71616281D01*
X165214234Y-71655500D01*
X165214236Y-71655500D01*
X165365764Y-71655500D01*
X165365766Y-71655500D01*
X165512135Y-71616281D01*
X165643365Y-71540515D01*
X165750515Y-71433365D01*
X165821521Y-71310378D01*
X165872088Y-71262163D01*
X165940695Y-71248940D01*
X166005560Y-71274908D01*
X166043945Y-71328813D01*
X166044570Y-71328555D01*
X166045695Y-71331271D01*
X166046088Y-71331823D01*
X166046683Y-71333657D01*
X166099664Y-71461566D01*
X166099671Y-71461579D01*
X166176275Y-71576226D01*
X166273773Y-71673724D01*
X166388420Y-71750328D01*
X166388424Y-71750330D01*
X166470000Y-71784119D01*
X166470000Y-71296988D01*
X166479940Y-71314205D01*
X166535795Y-71370060D01*
X166604204Y-71409556D01*
X166680504Y-71430000D01*
X166759496Y-71430000D01*
X166835796Y-71409556D01*
X166904205Y-71370060D01*
X166960060Y-71314205D01*
X166970000Y-71296988D01*
X166970000Y-71784118D01*
X167051575Y-71750330D01*
X167051579Y-71750328D01*
X167166226Y-71673724D01*
X167263724Y-71576226D01*
X167340328Y-71461579D01*
X167340335Y-71461566D01*
X167352919Y-71431186D01*
X167352919Y-71431185D01*
X167393098Y-71334182D01*
X167393100Y-71334176D01*
X167420000Y-71198946D01*
X167420000Y-70830000D01*
X167020000Y-70830000D01*
X167020000Y-70330000D01*
X167420000Y-70330000D01*
X167420000Y-69961053D01*
X167393100Y-69825823D01*
X167393097Y-69825813D01*
X167340335Y-69698433D01*
X167340328Y-69698420D01*
X167263724Y-69583773D01*
X167166226Y-69486275D01*
X167051573Y-69409667D01*
X166970000Y-69375879D01*
X166970000Y-69863011D01*
X166960060Y-69845795D01*
X166904205Y-69789940D01*
X166835796Y-69750444D01*
X166759496Y-69730000D01*
X166680504Y-69730000D01*
X166604204Y-69750444D01*
X166535795Y-69789940D01*
X166479940Y-69845795D01*
X166470000Y-69863011D01*
X166470000Y-69375879D01*
X166469999Y-69375879D01*
X166388427Y-69409667D01*
X166286272Y-69477924D01*
X166219594Y-69498801D01*
X166152214Y-69480316D01*
X166105525Y-69428336D01*
X166095764Y-69399010D01*
X166088395Y-69361964D01*
X166044191Y-69295808D01*
X165978034Y-69251603D01*
X165978033Y-69251602D01*
X165919702Y-69240000D01*
X165900000Y-69240000D01*
X165900000Y-69891000D01*
X165880315Y-69958039D01*
X165827511Y-70003794D01*
X165776000Y-70015000D01*
X165424500Y-70015000D01*
X165357461Y-69995315D01*
X165311706Y-69942511D01*
X165300500Y-69891000D01*
X165300500Y-69419262D01*
X165300000Y-69409084D01*
X165300000Y-69240000D01*
X165280303Y-69240000D01*
X165225472Y-69250906D01*
X165177092Y-69250906D01*
X165119748Y-69239500D01*
X164819748Y-69239500D01*
X164574500Y-69239500D01*
X164565814Y-69236949D01*
X164556853Y-69238238D01*
X164532812Y-69227259D01*
X164507461Y-69219815D01*
X164501533Y-69212974D01*
X164493297Y-69209213D01*
X164479007Y-69186978D01*
X164461706Y-69167011D01*
X164459418Y-69156496D01*
X164455523Y-69150435D01*
X164450500Y-69115500D01*
X164450500Y-68946723D01*
X164470185Y-68879684D01*
X164518204Y-68836239D01*
X164583342Y-68803050D01*
X164673050Y-68713342D01*
X164730646Y-68600304D01*
X164730646Y-68600302D01*
X164730647Y-68600301D01*
X164745500Y-68506524D01*
X164745500Y-68506479D01*
X165195001Y-68506479D01*
X165209835Y-68600149D01*
X165209837Y-68600155D01*
X165267356Y-68713041D01*
X165267363Y-68713050D01*
X165356949Y-68802636D01*
X165356958Y-68802643D01*
X165469844Y-68860162D01*
X165469850Y-68860164D01*
X165545000Y-68872065D01*
X165545000Y-68872064D01*
X166045000Y-68872064D01*
X166120149Y-68860164D01*
X166120155Y-68860162D01*
X166233041Y-68802643D01*
X166233050Y-68802636D01*
X166322636Y-68713050D01*
X166322639Y-68713046D01*
X166380166Y-68600144D01*
X166395000Y-68506486D01*
X166395000Y-68450000D01*
X166045000Y-68450000D01*
X166045000Y-68872064D01*
X165545000Y-68872064D01*
X165545000Y-68450000D01*
X165195001Y-68450000D01*
X165195001Y-68506479D01*
X164745500Y-68506479D01*
X164745500Y-68398638D01*
X164745499Y-67893513D01*
X165195000Y-67893513D01*
X165195000Y-67950000D01*
X165545000Y-67950000D01*
X166045000Y-67950000D01*
X166394999Y-67950000D01*
X166394999Y-67893520D01*
X166380164Y-67799850D01*
X166380162Y-67799844D01*
X166322643Y-67686958D01*
X166322636Y-67686949D01*
X166233050Y-67597363D01*
X166233046Y-67597360D01*
X166120144Y-67539833D01*
X166045000Y-67527932D01*
X166045000Y-67950000D01*
X165545000Y-67950000D01*
X165545000Y-67527932D01*
X165469855Y-67539833D01*
X165356953Y-67597360D01*
X165356949Y-67597363D01*
X165267363Y-67686949D01*
X165267360Y-67686953D01*
X165209833Y-67799855D01*
X165195000Y-67893513D01*
X164745499Y-67893513D01*
X164745499Y-67893482D01*
X164743914Y-67883475D01*
X164730646Y-67799696D01*
X164673050Y-67686658D01*
X164673046Y-67686654D01*
X164673045Y-67686652D01*
X164583347Y-67596954D01*
X164583344Y-67596952D01*
X164583342Y-67596950D01*
X164506517Y-67557805D01*
X164470301Y-67539352D01*
X164376524Y-67524500D01*
X163913482Y-67524500D01*
X163838973Y-67536301D01*
X163819696Y-67539354D01*
X163706658Y-67596950D01*
X163706657Y-67596951D01*
X163706652Y-67596954D01*
X163616954Y-67686652D01*
X163616951Y-67686657D01*
X163616950Y-67686658D01*
X163610876Y-67698579D01*
X163559352Y-67799698D01*
X163544500Y-67893475D01*
X163544500Y-68506517D01*
X163555292Y-68574657D01*
X163559354Y-68600304D01*
X163616950Y-68713342D01*
X163616952Y-68713344D01*
X163616954Y-68713347D01*
X163706652Y-68803045D01*
X163706655Y-68803047D01*
X163706658Y-68803050D01*
X163781796Y-68841334D01*
X163792857Y-68851782D01*
X163806703Y-68858105D01*
X163817744Y-68875286D01*
X163832590Y-68889307D01*
X163836831Y-68904986D01*
X163844477Y-68916883D01*
X163849500Y-68951818D01*
X163849500Y-69115500D01*
X163829815Y-69182539D01*
X163777011Y-69228294D01*
X163725500Y-69239500D01*
X163480252Y-69239500D01*
X163424190Y-69250651D01*
X163375810Y-69250651D01*
X163319748Y-69239500D01*
X163074500Y-69239500D01*
X163007461Y-69219815D01*
X162961706Y-69167011D01*
X162950500Y-69115500D01*
X162950500Y-67260439D01*
X162950500Y-67260438D01*
X162947569Y-67249500D01*
X162930022Y-67184012D01*
X162890460Y-67115489D01*
X162447646Y-66672675D01*
X162414161Y-66611352D01*
X162419145Y-66541660D01*
X162461017Y-66485727D01*
X162526481Y-66461310D01*
X162554725Y-66462521D01*
X162633514Y-66474999D01*
X162689999Y-66474998D01*
X162690000Y-66474998D01*
X162690000Y-66125000D01*
X162267934Y-66125000D01*
X162277480Y-66185278D01*
X162268523Y-66254571D01*
X162223526Y-66308022D01*
X162156774Y-66328660D01*
X162089461Y-66309934D01*
X162067325Y-66292354D01*
X161399971Y-65625000D01*
X162267932Y-65625000D01*
X162690000Y-65625000D01*
X162690000Y-65275000D01*
X162689999Y-65274999D01*
X162633521Y-65275000D01*
X162539849Y-65289835D01*
X162539844Y-65289837D01*
X162426958Y-65347356D01*
X162426949Y-65347363D01*
X162337363Y-65436949D01*
X162337360Y-65436953D01*
X162279833Y-65549855D01*
X162267932Y-65625000D01*
X161399971Y-65625000D01*
X161084510Y-65309539D01*
X161071268Y-65301894D01*
X161058026Y-65294249D01*
X161024686Y-65275000D01*
X161015990Y-65269979D01*
X160990513Y-65263152D01*
X160939562Y-65249500D01*
X160939560Y-65249500D01*
X158592933Y-65249500D01*
X158525894Y-65229815D01*
X158505252Y-65213181D01*
X157898550Y-64606479D01*
X158375001Y-64606479D01*
X158389835Y-64700149D01*
X158438549Y-64795754D01*
X158554245Y-64911450D01*
X158649847Y-64960163D01*
X158649850Y-64960164D01*
X158725000Y-64972065D01*
X158725000Y-64972064D01*
X159225000Y-64972064D01*
X159300149Y-64960164D01*
X159300155Y-64960162D01*
X159413041Y-64902643D01*
X159413050Y-64902636D01*
X159502636Y-64813050D01*
X159502639Y-64813046D01*
X159560166Y-64700144D01*
X159575000Y-64606486D01*
X159575000Y-64550000D01*
X159225000Y-64550000D01*
X159225000Y-64972064D01*
X158725000Y-64972064D01*
X158725000Y-64550000D01*
X158375001Y-64550000D01*
X158375001Y-64606479D01*
X157898550Y-64606479D01*
X157285584Y-63993513D01*
X158375000Y-63993513D01*
X158375000Y-64050000D01*
X158725000Y-64050000D01*
X159225000Y-64050000D01*
X159574999Y-64050000D01*
X159574999Y-63993520D01*
X159560164Y-63899850D01*
X159560162Y-63899844D01*
X159502643Y-63786958D01*
X159502636Y-63786949D01*
X159413050Y-63697363D01*
X159413046Y-63697360D01*
X159300144Y-63639833D01*
X159225000Y-63627932D01*
X159225000Y-64050000D01*
X158725000Y-64050000D01*
X158725000Y-63627932D01*
X158649855Y-63639833D01*
X158536953Y-63697360D01*
X158536949Y-63697363D01*
X158447363Y-63786949D01*
X158447360Y-63786953D01*
X158389833Y-63899855D01*
X158375000Y-63993513D01*
X157285584Y-63993513D01*
X157201612Y-63909541D01*
X157201604Y-63909535D01*
X157133095Y-63869982D01*
X157133090Y-63869979D01*
X157107613Y-63863152D01*
X157056662Y-63849500D01*
X157056660Y-63849500D01*
X154900862Y-63849500D01*
X154833823Y-63829815D01*
X154813181Y-63813181D01*
X154800000Y-63800000D01*
X154630916Y-63800000D01*
X154620738Y-63799500D01*
X154619748Y-63799500D01*
X153580252Y-63799500D01*
X153579262Y-63799500D01*
X153569084Y-63800000D01*
X153400000Y-63800000D01*
X153400000Y-63819696D01*
X153410906Y-63874528D01*
X153410906Y-63922908D01*
X153399500Y-63980252D01*
X152900500Y-63980252D01*
X152900500Y-63480297D01*
X153400000Y-63480297D01*
X153400000Y-63500000D01*
X153950000Y-63500000D01*
X154250000Y-63500000D01*
X154800000Y-63500000D01*
X154800000Y-63480301D01*
X154799999Y-63480297D01*
X154788397Y-63421966D01*
X154788396Y-63421965D01*
X154744191Y-63355808D01*
X154678034Y-63311603D01*
X154678033Y-63311602D01*
X154619702Y-63300000D01*
X154250000Y-63300000D01*
X154250000Y-63500000D01*
X153950000Y-63500000D01*
X153950000Y-63248638D01*
X153954494Y-63248638D01*
X153957608Y-63205094D01*
X153970688Y-63179537D01*
X153988396Y-63153034D01*
X153988397Y-63153033D01*
X153999999Y-63094702D01*
X154000000Y-63094699D01*
X154000000Y-63075000D01*
X153450000Y-63075000D01*
X153450000Y-63326362D01*
X153445505Y-63326362D01*
X153442391Y-63369905D01*
X153429313Y-63395459D01*
X153411604Y-63421963D01*
X153411602Y-63421966D01*
X153400000Y-63480297D01*
X152900500Y-63480297D01*
X152900500Y-63375862D01*
X152920185Y-63308823D01*
X152936819Y-63288181D01*
X152950000Y-63275000D01*
X152950000Y-62949000D01*
X152969685Y-62881961D01*
X153022489Y-62836206D01*
X153074000Y-62825000D01*
X153200000Y-62825000D01*
X153200000Y-62699000D01*
X153219685Y-62631961D01*
X153272489Y-62586206D01*
X153324000Y-62575000D01*
X154009410Y-62575000D01*
X154050004Y-62552834D01*
X154076362Y-62550000D01*
X154719699Y-62550000D01*
X154719702Y-62549999D01*
X154724996Y-62548946D01*
X157379999Y-62548946D01*
X157406899Y-62684176D01*
X157406902Y-62684186D01*
X157459664Y-62811566D01*
X157459671Y-62811579D01*
X157536275Y-62926226D01*
X157633773Y-63023724D01*
X157748420Y-63100328D01*
X157748424Y-63100330D01*
X157830000Y-63134119D01*
X157830000Y-62646988D01*
X157839940Y-62664205D01*
X157895795Y-62720060D01*
X157964204Y-62759556D01*
X158040504Y-62780000D01*
X158119496Y-62780000D01*
X158195796Y-62759556D01*
X158264205Y-62720060D01*
X158320060Y-62664205D01*
X158330000Y-62646988D01*
X158330000Y-63134118D01*
X158411575Y-63100330D01*
X158411579Y-63100328D01*
X158513726Y-63032076D01*
X158580404Y-63011198D01*
X158647784Y-63029682D01*
X158694474Y-63081661D01*
X158704234Y-63110987D01*
X158711602Y-63148033D01*
X158711603Y-63148034D01*
X158755808Y-63214191D01*
X158821965Y-63258396D01*
X158821966Y-63258397D01*
X158880297Y-63269999D01*
X158880301Y-63270000D01*
X158900000Y-63270000D01*
X158900000Y-62619000D01*
X158919685Y-62551961D01*
X158972489Y-62506206D01*
X159024000Y-62495000D01*
X159375500Y-62495000D01*
X159442539Y-62514685D01*
X159488294Y-62567489D01*
X159499500Y-62619000D01*
X159499500Y-63090747D01*
X159500000Y-63100915D01*
X159500000Y-63270000D01*
X159510824Y-63270000D01*
X159577863Y-63289685D01*
X159598505Y-63306319D01*
X159599500Y-63307314D01*
X159692686Y-63400500D01*
X159806814Y-63466392D01*
X159934108Y-63500500D01*
X159934110Y-63500500D01*
X160065892Y-63500500D01*
X160069028Y-63500087D01*
X160071677Y-63500500D01*
X160074019Y-63500500D01*
X160074019Y-63500865D01*
X160138064Y-63510849D01*
X160190322Y-63557227D01*
X160209210Y-63624495D01*
X160188732Y-63691297D01*
X160172901Y-63710706D01*
X160096951Y-63786656D01*
X160096951Y-63786657D01*
X160096950Y-63786658D01*
X160091642Y-63797076D01*
X160039352Y-63899698D01*
X160024500Y-63993475D01*
X160024500Y-64606517D01*
X160031003Y-64647574D01*
X160039354Y-64700304D01*
X160096950Y-64813342D01*
X160096952Y-64813344D01*
X160096954Y-64813347D01*
X160186652Y-64903045D01*
X160186654Y-64903046D01*
X160186658Y-64903050D01*
X160297877Y-64959719D01*
X160299698Y-64960647D01*
X160393475Y-64975499D01*
X160393481Y-64975500D01*
X160856518Y-64975499D01*
X160950304Y-64960646D01*
X161063342Y-64903050D01*
X161153050Y-64813342D01*
X161210646Y-64700304D01*
X161210646Y-64700302D01*
X161210647Y-64700301D01*
X161225499Y-64606524D01*
X161225500Y-64606519D01*
X161225499Y-63993482D01*
X161210646Y-63899696D01*
X161153050Y-63786658D01*
X161153046Y-63786654D01*
X161153045Y-63786652D01*
X161063343Y-63696950D01*
X161018204Y-63673950D01*
X161007141Y-63663501D01*
X160993297Y-63657179D01*
X160982254Y-63639996D01*
X160967409Y-63625975D01*
X160963168Y-63610296D01*
X160955523Y-63598401D01*
X160950500Y-63563466D01*
X160950500Y-63394500D01*
X160970185Y-63327461D01*
X161022989Y-63281706D01*
X161074500Y-63270500D01*
X161319750Y-63270500D01*
X161375808Y-63259349D01*
X161424192Y-63259349D01*
X161480249Y-63270500D01*
X161480252Y-63270500D01*
X161819750Y-63270500D01*
X161875808Y-63259349D01*
X161924192Y-63259349D01*
X161980249Y-63270500D01*
X161980252Y-63270500D01*
X162319750Y-63270500D01*
X162375808Y-63259349D01*
X162424192Y-63259349D01*
X162480249Y-63270500D01*
X162480252Y-63270500D01*
X162819750Y-63270500D01*
X162875808Y-63259349D01*
X162884147Y-63259349D01*
X162888948Y-63257460D01*
X162924191Y-63259349D01*
X162981492Y-63270747D01*
X163043403Y-63303132D01*
X163077978Y-63363848D01*
X163074238Y-63433617D01*
X163044982Y-63480045D01*
X162936846Y-63588181D01*
X162875523Y-63621666D01*
X162849166Y-63624500D01*
X162633482Y-63624500D01*
X162552519Y-63637323D01*
X162539696Y-63639354D01*
X162426658Y-63696950D01*
X162426657Y-63696951D01*
X162426652Y-63696954D01*
X162336954Y-63786652D01*
X162336952Y-63786656D01*
X162336950Y-63786658D01*
X162331642Y-63797076D01*
X162279352Y-63899698D01*
X162264500Y-63993475D01*
X162264500Y-64456517D01*
X162275292Y-64524657D01*
X162279354Y-64550304D01*
X162336950Y-64663342D01*
X162336952Y-64663344D01*
X162336954Y-64663347D01*
X162426652Y-64753045D01*
X162426654Y-64753046D01*
X162426658Y-64753050D01*
X162524539Y-64802923D01*
X162539698Y-64810647D01*
X162633475Y-64825499D01*
X162633481Y-64825500D01*
X163246518Y-64825499D01*
X163340304Y-64810646D01*
X163453342Y-64753050D01*
X163543050Y-64663342D01*
X163556006Y-64637913D01*
X163603978Y-64587119D01*
X163671799Y-64570323D01*
X163737934Y-64592859D01*
X163781386Y-64647574D01*
X163788963Y-64674809D01*
X163790279Y-64683122D01*
X163790280Y-64683125D01*
X163790281Y-64683126D01*
X163851323Y-64802928D01*
X163851473Y-64803221D01*
X163851476Y-64803225D01*
X163946774Y-64898523D01*
X163946776Y-64898524D01*
X163946780Y-64898528D01*
X164024847Y-64938305D01*
X164075643Y-64986280D01*
X164092438Y-65054101D01*
X164069900Y-65120236D01*
X164024848Y-65159274D01*
X163944250Y-65200341D01*
X163944243Y-65200346D01*
X163850346Y-65294243D01*
X163850343Y-65294248D01*
X163850342Y-65294249D01*
X163823280Y-65347360D01*
X163790048Y-65412581D01*
X163788134Y-65424666D01*
X163758202Y-65487799D01*
X163698889Y-65524728D01*
X163629026Y-65523728D01*
X163570795Y-65485115D01*
X163555176Y-65461557D01*
X163542641Y-65436956D01*
X163542636Y-65436949D01*
X163453050Y-65347363D01*
X163453046Y-65347360D01*
X163340144Y-65289833D01*
X163246486Y-65275000D01*
X163190000Y-65275000D01*
X163190000Y-66474999D01*
X163246479Y-66474999D01*
X163340149Y-66460164D01*
X163340155Y-66460162D01*
X163453041Y-66402643D01*
X163453050Y-66402636D01*
X163542636Y-66313050D01*
X163542641Y-66313043D01*
X163587864Y-66224288D01*
X163635838Y-66173492D01*
X163703659Y-66156696D01*
X163769794Y-66179233D01*
X163808833Y-66224287D01*
X163850339Y-66305747D01*
X163850346Y-66305756D01*
X163944243Y-66399653D01*
X163944245Y-66399654D01*
X163944249Y-66399658D01*
X164062580Y-66459951D01*
X164062581Y-66459951D01*
X164062583Y-66459952D01*
X164062582Y-66459952D01*
X164160749Y-66475500D01*
X164160754Y-66475500D01*
X164664251Y-66475500D01*
X164762417Y-66459952D01*
X164762418Y-66459951D01*
X164762420Y-66459951D01*
X164880751Y-66399658D01*
X164974658Y-66305751D01*
X165034951Y-66187420D01*
X165034951Y-66187418D01*
X165034952Y-66187417D01*
X165050500Y-66089249D01*
X165050500Y-65510748D01*
X165034952Y-65412582D01*
X165028465Y-65399850D01*
X164974658Y-65294249D01*
X164974654Y-65294245D01*
X164974653Y-65294243D01*
X164880756Y-65200346D01*
X164880751Y-65200342D01*
X164874904Y-65197363D01*
X164812651Y-65165643D01*
X164761856Y-65117669D01*
X164745061Y-65049848D01*
X164767599Y-64983713D01*
X164812649Y-64944675D01*
X164903220Y-64898528D01*
X164998528Y-64803220D01*
X165059719Y-64683126D01*
X165059744Y-64682967D01*
X165075500Y-64583493D01*
X165075500Y-64583449D01*
X165325001Y-64583449D01*
X165340762Y-64682967D01*
X165401883Y-64802923D01*
X165401886Y-64802928D01*
X165497071Y-64898113D01*
X165497076Y-64898116D01*
X165587898Y-64944393D01*
X165638694Y-64992368D01*
X165655489Y-65060189D01*
X165632952Y-65126324D01*
X165587899Y-65165362D01*
X165519250Y-65200341D01*
X165519243Y-65200346D01*
X165425346Y-65294243D01*
X165425343Y-65294248D01*
X165425342Y-65294249D01*
X165417551Y-65309540D01*
X165365047Y-65412582D01*
X165349500Y-65510748D01*
X165349500Y-66089248D01*
X165349499Y-66089249D01*
X165365047Y-66187417D01*
X165373681Y-66204362D01*
X165425342Y-66305751D01*
X165425344Y-66305753D01*
X165425346Y-66305756D01*
X165519243Y-66399653D01*
X165519245Y-66399654D01*
X165519249Y-66399658D01*
X165637580Y-66459951D01*
X165637581Y-66459951D01*
X165637583Y-66459952D01*
X165637582Y-66459952D01*
X165735749Y-66475500D01*
X165735754Y-66475500D01*
X166239251Y-66475500D01*
X166337417Y-66459952D01*
X166337418Y-66459951D01*
X166337420Y-66459951D01*
X166455751Y-66399658D01*
X166549658Y-66305751D01*
X166595887Y-66215021D01*
X166643860Y-66164228D01*
X166711680Y-66147433D01*
X166777815Y-66169970D01*
X166816853Y-66215021D01*
X166866950Y-66313342D01*
X166866952Y-66313344D01*
X166866954Y-66313347D01*
X166956652Y-66403045D01*
X166956654Y-66403046D01*
X166956658Y-66403050D01*
X167068332Y-66459951D01*
X167069698Y-66460647D01*
X167157116Y-66474491D01*
X167160311Y-66474998D01*
X167163475Y-66475499D01*
X167163481Y-66475500D01*
X167626518Y-66475499D01*
X167720304Y-66460646D01*
X167833342Y-66403050D01*
X167923050Y-66313342D01*
X167980646Y-66200304D01*
X167980646Y-66200302D01*
X167980647Y-66200301D01*
X167995500Y-66106524D01*
X167995500Y-66106479D01*
X168445001Y-66106479D01*
X168459835Y-66200149D01*
X168459837Y-66200155D01*
X168517356Y-66313041D01*
X168517363Y-66313050D01*
X168606949Y-66402636D01*
X168606958Y-66402643D01*
X168719844Y-66460162D01*
X168719850Y-66460164D01*
X168795000Y-66472065D01*
X168795000Y-66472064D01*
X169295000Y-66472064D01*
X169370149Y-66460164D01*
X169370155Y-66460162D01*
X169483041Y-66402643D01*
X169483050Y-66402636D01*
X169572636Y-66313050D01*
X169572639Y-66313046D01*
X169630166Y-66200144D01*
X169645000Y-66106486D01*
X169645000Y-66050000D01*
X169295000Y-66050000D01*
X169295000Y-66472064D01*
X168795000Y-66472064D01*
X168795000Y-66050000D01*
X168445001Y-66050000D01*
X168445001Y-66106479D01*
X167995500Y-66106479D01*
X167995500Y-65998638D01*
X167995499Y-65493513D01*
X168445000Y-65493513D01*
X168445000Y-65550000D01*
X168795000Y-65550000D01*
X169295000Y-65550000D01*
X169644999Y-65550000D01*
X169644999Y-65493520D01*
X169630164Y-65399850D01*
X169630162Y-65399844D01*
X169572643Y-65286958D01*
X169572636Y-65286949D01*
X169483050Y-65197363D01*
X169483046Y-65197360D01*
X169370144Y-65139833D01*
X169295000Y-65127932D01*
X169295000Y-65550000D01*
X168795000Y-65550000D01*
X168795000Y-65127932D01*
X168719855Y-65139833D01*
X168606953Y-65197360D01*
X168606949Y-65197363D01*
X168517363Y-65286949D01*
X168517360Y-65286953D01*
X168459833Y-65399855D01*
X168445000Y-65493513D01*
X167995499Y-65493513D01*
X167995499Y-65493482D01*
X167989019Y-65452566D01*
X167980646Y-65399696D01*
X167923050Y-65286658D01*
X167923046Y-65286654D01*
X167923045Y-65286652D01*
X167833347Y-65196954D01*
X167833344Y-65196952D01*
X167833342Y-65196950D01*
X167756517Y-65157805D01*
X167720301Y-65139352D01*
X167626524Y-65124500D01*
X167163482Y-65124500D01*
X167082519Y-65137323D01*
X167069696Y-65139354D01*
X166956658Y-65196950D01*
X166956657Y-65196951D01*
X166956652Y-65196954D01*
X166866954Y-65286652D01*
X166866951Y-65286657D01*
X166866950Y-65286658D01*
X166850090Y-65319748D01*
X166816855Y-65384975D01*
X166768880Y-65435771D01*
X166701059Y-65452566D01*
X166634924Y-65430028D01*
X166595885Y-65384975D01*
X166592449Y-65378231D01*
X166549658Y-65294249D01*
X166549654Y-65294245D01*
X166549653Y-65294243D01*
X166455756Y-65200346D01*
X166455747Y-65200339D01*
X166374601Y-65158993D01*
X166323805Y-65111019D01*
X166307010Y-65043198D01*
X166329548Y-64977063D01*
X166374602Y-64938024D01*
X166452921Y-64898118D01*
X166452928Y-64898113D01*
X166548113Y-64802928D01*
X166548116Y-64802923D01*
X166609239Y-64682966D01*
X166625000Y-64583456D01*
X166625000Y-64550000D01*
X165325001Y-64550000D01*
X165325001Y-64583449D01*
X165075500Y-64583449D01*
X165075500Y-64408676D01*
X165095185Y-64341637D01*
X165111819Y-64320995D01*
X165113067Y-64319747D01*
X165200500Y-64232314D01*
X165266392Y-64118186D01*
X165269964Y-64112000D01*
X165320531Y-64063784D01*
X165377351Y-64050000D01*
X165725000Y-64050000D01*
X166225000Y-64050000D01*
X166624999Y-64050000D01*
X166624999Y-64016550D01*
X166609237Y-63917032D01*
X166548116Y-63797076D01*
X166548113Y-63797071D01*
X166452928Y-63701886D01*
X166452923Y-63701883D01*
X166332965Y-63640760D01*
X166332966Y-63640760D01*
X166233456Y-63625000D01*
X166225000Y-63625000D01*
X166225000Y-64050000D01*
X165725000Y-64050000D01*
X165725000Y-63625000D01*
X165724999Y-63625000D01*
X165716553Y-63625001D01*
X165716547Y-63625001D01*
X165617032Y-63640762D01*
X165488382Y-63706313D01*
X165487760Y-63705093D01*
X165431565Y-63725138D01*
X165363513Y-63709305D01*
X165314824Y-63659194D01*
X165300500Y-63601339D01*
X165300500Y-62619000D01*
X165320185Y-62551961D01*
X165372989Y-62506206D01*
X165424500Y-62495000D01*
X165776000Y-62495000D01*
X165843039Y-62514685D01*
X165888794Y-62567489D01*
X165900000Y-62619000D01*
X165900000Y-63270000D01*
X165919699Y-63270000D01*
X165919702Y-63269999D01*
X165978033Y-63258397D01*
X165978034Y-63258396D01*
X166044191Y-63214191D01*
X166088395Y-63148035D01*
X166095764Y-63110989D01*
X166128148Y-63049078D01*
X166188863Y-63014502D01*
X166258632Y-63018240D01*
X166286272Y-63032076D01*
X166388415Y-63100325D01*
X166388424Y-63100330D01*
X166470000Y-63134119D01*
X166470000Y-62646988D01*
X166479940Y-62664205D01*
X166535795Y-62720060D01*
X166604204Y-62759556D01*
X166680504Y-62780000D01*
X166759496Y-62780000D01*
X166835796Y-62759556D01*
X166904205Y-62720060D01*
X166960060Y-62664205D01*
X166970000Y-62646988D01*
X166970000Y-63134118D01*
X167051575Y-63100330D01*
X167051579Y-63100328D01*
X167166226Y-63023724D01*
X167263724Y-62926226D01*
X167340328Y-62811579D01*
X167340335Y-62811566D01*
X167393097Y-62684186D01*
X167393100Y-62684176D01*
X167420000Y-62548946D01*
X167420000Y-62180000D01*
X167020000Y-62180000D01*
X167020000Y-61680000D01*
X167420000Y-61680000D01*
X167420000Y-61311053D01*
X167393100Y-61175823D01*
X167393097Y-61175813D01*
X167340335Y-61048433D01*
X167340328Y-61048420D01*
X167263724Y-60933773D01*
X167166226Y-60836275D01*
X167083500Y-60781000D01*
X167051572Y-60759667D01*
X166970000Y-60725879D01*
X166970000Y-61213011D01*
X166960060Y-61195795D01*
X166904205Y-61139940D01*
X166835796Y-61100444D01*
X166759496Y-61080000D01*
X166680504Y-61080000D01*
X166604204Y-61100444D01*
X166535795Y-61139940D01*
X166479940Y-61195795D01*
X166470000Y-61213011D01*
X166470000Y-60725879D01*
X166469999Y-60725879D01*
X166388426Y-60759667D01*
X166273773Y-60836275D01*
X166176275Y-60933773D01*
X166099671Y-61048420D01*
X166099664Y-61048433D01*
X166044570Y-61181445D01*
X166042897Y-61180752D01*
X166009253Y-61232069D01*
X165945435Y-61260514D01*
X165876370Y-61249940D01*
X165823986Y-61203706D01*
X165821521Y-61199620D01*
X165764261Y-61100444D01*
X165750515Y-61076635D01*
X165643365Y-60969485D01*
X165531839Y-60905095D01*
X165512136Y-60893719D01*
X165423613Y-60870000D01*
X165365766Y-60854500D01*
X165214234Y-60854500D01*
X165067863Y-60893719D01*
X164936635Y-60969485D01*
X164936632Y-60969487D01*
X164829487Y-61076632D01*
X164829485Y-61076635D01*
X164753719Y-61207863D01*
X164746424Y-61235090D01*
X164714500Y-61354234D01*
X164714500Y-61505766D01*
X164728816Y-61559196D01*
X164729945Y-61563407D01*
X164729441Y-61584539D01*
X164733788Y-61605224D01*
X164728626Y-61618766D01*
X164728282Y-61633257D01*
X164716433Y-61650762D01*
X164708907Y-61670513D01*
X164697243Y-61679116D01*
X164689119Y-61691119D01*
X164669688Y-61699439D01*
X164652678Y-61711986D01*
X164631751Y-61715685D01*
X164624891Y-61718623D01*
X164618138Y-61719244D01*
X164614162Y-61719500D01*
X164480252Y-61719500D01*
X164421769Y-61731133D01*
X164420517Y-61731968D01*
X164407968Y-61732777D01*
X164398518Y-61730651D01*
X164375810Y-61730651D01*
X164319748Y-61719500D01*
X163980252Y-61719500D01*
X163924190Y-61730651D01*
X163875810Y-61730651D01*
X163819748Y-61719500D01*
X163480252Y-61719500D01*
X163424190Y-61730651D01*
X163375810Y-61730651D01*
X163319748Y-61719500D01*
X162980252Y-61719500D01*
X162924190Y-61730651D01*
X162875810Y-61730651D01*
X162819748Y-61719500D01*
X162480252Y-61719500D01*
X162424190Y-61730651D01*
X162375810Y-61730651D01*
X162319748Y-61719500D01*
X161980252Y-61719500D01*
X161924190Y-61730651D01*
X161875810Y-61730651D01*
X161819748Y-61719500D01*
X161480252Y-61719500D01*
X161424190Y-61730651D01*
X161375810Y-61730651D01*
X161319748Y-61719500D01*
X160980252Y-61719500D01*
X160924190Y-61730651D01*
X160875810Y-61730651D01*
X160819748Y-61719500D01*
X160480252Y-61719500D01*
X160424190Y-61730651D01*
X160392032Y-61732777D01*
X160379482Y-61731968D01*
X160378231Y-61731133D01*
X160319748Y-61719500D01*
X160185838Y-61719500D01*
X160181862Y-61719244D01*
X160152632Y-61708577D01*
X160122791Y-61699815D01*
X160120095Y-61696703D01*
X160116226Y-61695292D01*
X160097401Y-61670513D01*
X160077036Y-61647011D01*
X160076450Y-61642935D01*
X160073959Y-61639657D01*
X160071519Y-61608646D01*
X160067092Y-61577853D01*
X160068541Y-61570785D01*
X160068480Y-61570003D01*
X160068839Y-61569333D01*
X160070055Y-61563407D01*
X160085500Y-61505766D01*
X160085500Y-61354234D01*
X160046281Y-61207865D01*
X159970515Y-61076635D01*
X159863365Y-60969485D01*
X159751839Y-60905095D01*
X159732136Y-60893719D01*
X159643613Y-60870000D01*
X159585766Y-60854500D01*
X159434234Y-60854500D01*
X159287863Y-60893719D01*
X159156635Y-60969485D01*
X159156632Y-60969487D01*
X159049487Y-61076632D01*
X159049485Y-61076635D01*
X158978478Y-61199621D01*
X158927910Y-61247836D01*
X158859303Y-61261058D01*
X158794438Y-61235090D01*
X158756055Y-61181186D01*
X158755430Y-61181445D01*
X158754304Y-61178727D01*
X158753911Y-61178175D01*
X158753313Y-61176336D01*
X158700335Y-61048433D01*
X158700328Y-61048420D01*
X158623724Y-60933773D01*
X158526226Y-60836275D01*
X158411573Y-60759667D01*
X158330000Y-60725879D01*
X158330000Y-61213011D01*
X158320060Y-61195795D01*
X158264205Y-61139940D01*
X158195796Y-61100444D01*
X158119496Y-61080000D01*
X158040504Y-61080000D01*
X157964204Y-61100444D01*
X157895795Y-61139940D01*
X157839940Y-61195795D01*
X157830000Y-61213011D01*
X157830000Y-60725879D01*
X157829999Y-60725879D01*
X157748426Y-60759667D01*
X157633773Y-60836275D01*
X157536275Y-60933773D01*
X157459671Y-61048420D01*
X157459664Y-61048433D01*
X157406902Y-61175813D01*
X157406899Y-61175823D01*
X157380000Y-61311053D01*
X157380000Y-61680000D01*
X157780000Y-61680000D01*
X157780000Y-62180000D01*
X157380000Y-62180000D01*
X157380000Y-62548946D01*
X157379999Y-62548946D01*
X154724996Y-62548946D01*
X154778033Y-62538397D01*
X154778034Y-62538396D01*
X154844191Y-62494191D01*
X154888396Y-62428034D01*
X154888397Y-62428033D01*
X154899999Y-62369702D01*
X154900000Y-62369699D01*
X154900000Y-61950000D01*
X153774000Y-61950000D01*
X153706961Y-61930315D01*
X153661206Y-61877511D01*
X153650000Y-61826000D01*
X153650000Y-61700000D01*
X153524000Y-61700000D01*
X153456961Y-61680315D01*
X153411206Y-61627511D01*
X153400000Y-61576000D01*
X153400000Y-61450000D01*
X153900000Y-61450000D01*
X154900000Y-61450000D01*
X154900000Y-61030301D01*
X154899999Y-61030297D01*
X154888397Y-60971966D01*
X154888396Y-60971965D01*
X154844191Y-60905808D01*
X154778034Y-60861603D01*
X154778033Y-60861602D01*
X154719702Y-60850000D01*
X153900000Y-60850000D01*
X153900000Y-61450000D01*
X153400000Y-61450000D01*
X153400000Y-60850000D01*
X153024500Y-60850000D01*
X152957461Y-60830315D01*
X152911706Y-60777511D01*
X152900500Y-60726000D01*
X152900500Y-59530961D01*
X152920185Y-59463922D01*
X152972989Y-59418167D01*
X153042147Y-59408223D01*
X153052952Y-59410864D01*
X153053024Y-59410539D01*
X153060399Y-59412149D01*
X153090792Y-59414999D01*
X154549999Y-59414999D01*
X154550000Y-59414998D01*
X154550000Y-58930000D01*
X155050000Y-58930000D01*
X155050000Y-59414999D01*
X156509196Y-59414999D01*
X156539606Y-59412148D01*
X156667645Y-59367346D01*
X156776792Y-59286792D01*
X156857346Y-59177645D01*
X156902149Y-59049604D01*
X156902149Y-59049600D01*
X156905000Y-59019206D01*
X156905000Y-58830000D01*
X155964975Y-58830000D01*
X156000070Y-58794905D01*
X156046148Y-58715095D01*
X156070000Y-58626078D01*
X156070000Y-58533922D01*
X156046148Y-58444905D01*
X156000070Y-58365095D01*
X155964975Y-58330000D01*
X156904999Y-58330000D01*
X156904999Y-58140803D01*
X156902148Y-58110393D01*
X156859879Y-57989592D01*
X156859878Y-57989590D01*
X156857347Y-57982357D01*
X156857346Y-57982354D01*
X156776792Y-57873207D01*
X156667645Y-57792653D01*
X156539602Y-57747850D01*
X156509207Y-57745000D01*
X155050000Y-57745000D01*
X155050000Y-58230000D01*
X154550000Y-58230000D01*
X154550000Y-57745000D01*
X153090803Y-57745000D01*
X153060392Y-57747852D01*
X153053020Y-57749462D01*
X153052427Y-57746748D01*
X152995664Y-57749640D01*
X152935040Y-57714905D01*
X152902819Y-57652908D01*
X152900500Y-57629039D01*
X152900500Y-56824500D01*
X152920185Y-56757461D01*
X152972989Y-56711706D01*
X153024500Y-56700500D01*
X157540187Y-56700500D01*
X157607226Y-56720185D01*
G37*
%TD.AperFunction*%
%TD*%
M02*
