%TF.GenerationSoftware,KiCad,Pcbnew,9.0.7*%
%TF.CreationDate,2026-02-20T10:44:58+09:00*%
%TF.ProjectId,USB_isolation,5553425f-6973-46f6-9c61-74696f6e2e6b,rev?*%
%TF.SameCoordinates,Original*%
%TF.FileFunction,Legend,Top*%
%TF.FilePolarity,Positive*%
%FSLAX46Y46*%
G04 Gerber Fmt 4.6, Leading zero omitted, Abs format (unit mm)*
G04 Created by KiCad (PCBNEW 9.0.7) date 2026-02-20 10:44:58*
%MOMM*%
%LPD*%
G01*
G04 APERTURE LIST*
%ADD10C,0.150000*%
%ADD11C,0.087500*%
%ADD12C,0.120000*%
G04 APERTURE END LIST*
D10*
X167433333Y-64659580D02*
X167385714Y-64707200D01*
X167385714Y-64707200D02*
X167242857Y-64754819D01*
X167242857Y-64754819D02*
X167147619Y-64754819D01*
X167147619Y-64754819D02*
X167004762Y-64707200D01*
X167004762Y-64707200D02*
X166909524Y-64611961D01*
X166909524Y-64611961D02*
X166861905Y-64516723D01*
X166861905Y-64516723D02*
X166814286Y-64326247D01*
X166814286Y-64326247D02*
X166814286Y-64183390D01*
X166814286Y-64183390D02*
X166861905Y-63992914D01*
X166861905Y-63992914D02*
X166909524Y-63897676D01*
X166909524Y-63897676D02*
X167004762Y-63802438D01*
X167004762Y-63802438D02*
X167147619Y-63754819D01*
X167147619Y-63754819D02*
X167242857Y-63754819D01*
X167242857Y-63754819D02*
X167385714Y-63802438D01*
X167385714Y-63802438D02*
X167433333Y-63850057D01*
X168385714Y-64754819D02*
X167814286Y-64754819D01*
X168100000Y-64754819D02*
X168100000Y-63754819D01*
X168100000Y-63754819D02*
X168004762Y-63897676D01*
X168004762Y-63897676D02*
X167909524Y-63992914D01*
X167909524Y-63992914D02*
X167814286Y-64040533D01*
X162066666Y-73154819D02*
X162066666Y-73869104D01*
X162066666Y-73869104D02*
X162019047Y-74011961D01*
X162019047Y-74011961D02*
X161923809Y-74107200D01*
X161923809Y-74107200D02*
X161780952Y-74154819D01*
X161780952Y-74154819D02*
X161685714Y-74154819D01*
X163066666Y-74154819D02*
X162495238Y-74154819D01*
X162780952Y-74154819D02*
X162780952Y-73154819D01*
X162780952Y-73154819D02*
X162685714Y-73297676D01*
X162685714Y-73297676D02*
X162590476Y-73392914D01*
X162590476Y-73392914D02*
X162495238Y-73440533D01*
D11*
X164683333Y-67319283D02*
X164683333Y-66619283D01*
X164683333Y-66619283D02*
X164850000Y-66619283D01*
X164850000Y-66619283D02*
X164950000Y-66652616D01*
X164950000Y-66652616D02*
X165016667Y-66719283D01*
X165016667Y-66719283D02*
X165050000Y-66785950D01*
X165050000Y-66785950D02*
X165083333Y-66919283D01*
X165083333Y-66919283D02*
X165083333Y-67019283D01*
X165083333Y-67019283D02*
X165050000Y-67152616D01*
X165050000Y-67152616D02*
X165016667Y-67219283D01*
X165016667Y-67219283D02*
X164950000Y-67285950D01*
X164950000Y-67285950D02*
X164850000Y-67319283D01*
X164850000Y-67319283D02*
X164683333Y-67319283D01*
X165750000Y-67319283D02*
X165350000Y-67319283D01*
X165550000Y-67319283D02*
X165550000Y-66619283D01*
X165550000Y-66619283D02*
X165483333Y-66719283D01*
X165483333Y-66719283D02*
X165416667Y-66785950D01*
X165416667Y-66785950D02*
X165350000Y-66819283D01*
D10*
X162066666Y-58284819D02*
X162066666Y-58999104D01*
X162066666Y-58999104D02*
X162019047Y-59141961D01*
X162019047Y-59141961D02*
X161923809Y-59237200D01*
X161923809Y-59237200D02*
X161780952Y-59284819D01*
X161780952Y-59284819D02*
X161685714Y-59284819D01*
X162495238Y-58380057D02*
X162542857Y-58332438D01*
X162542857Y-58332438D02*
X162638095Y-58284819D01*
X162638095Y-58284819D02*
X162876190Y-58284819D01*
X162876190Y-58284819D02*
X162971428Y-58332438D01*
X162971428Y-58332438D02*
X163019047Y-58380057D01*
X163019047Y-58380057D02*
X163066666Y-58475295D01*
X163066666Y-58475295D02*
X163066666Y-58570533D01*
X163066666Y-58570533D02*
X163019047Y-58713390D01*
X163019047Y-58713390D02*
X162447619Y-59284819D01*
X162447619Y-59284819D02*
X163066666Y-59284819D01*
X157713333Y-68644819D02*
X157380000Y-68168628D01*
X157141905Y-68644819D02*
X157141905Y-67644819D01*
X157141905Y-67644819D02*
X157522857Y-67644819D01*
X157522857Y-67644819D02*
X157618095Y-67692438D01*
X157618095Y-67692438D02*
X157665714Y-67740057D01*
X157665714Y-67740057D02*
X157713333Y-67835295D01*
X157713333Y-67835295D02*
X157713333Y-67978152D01*
X157713333Y-67978152D02*
X157665714Y-68073390D01*
X157665714Y-68073390D02*
X157618095Y-68121009D01*
X157618095Y-68121009D02*
X157522857Y-68168628D01*
X157522857Y-68168628D02*
X157141905Y-68168628D01*
X158094286Y-67740057D02*
X158141905Y-67692438D01*
X158141905Y-67692438D02*
X158237143Y-67644819D01*
X158237143Y-67644819D02*
X158475238Y-67644819D01*
X158475238Y-67644819D02*
X158570476Y-67692438D01*
X158570476Y-67692438D02*
X158618095Y-67740057D01*
X158618095Y-67740057D02*
X158665714Y-67835295D01*
X158665714Y-67835295D02*
X158665714Y-67930533D01*
X158665714Y-67930533D02*
X158618095Y-68073390D01*
X158618095Y-68073390D02*
X158046667Y-68644819D01*
X158046667Y-68644819D02*
X158665714Y-68644819D01*
X157033333Y-64854819D02*
X156700000Y-64378628D01*
X156461905Y-64854819D02*
X156461905Y-63854819D01*
X156461905Y-63854819D02*
X156842857Y-63854819D01*
X156842857Y-63854819D02*
X156938095Y-63902438D01*
X156938095Y-63902438D02*
X156985714Y-63950057D01*
X156985714Y-63950057D02*
X157033333Y-64045295D01*
X157033333Y-64045295D02*
X157033333Y-64188152D01*
X157033333Y-64188152D02*
X156985714Y-64283390D01*
X156985714Y-64283390D02*
X156938095Y-64331009D01*
X156938095Y-64331009D02*
X156842857Y-64378628D01*
X156842857Y-64378628D02*
X156461905Y-64378628D01*
X157938095Y-63854819D02*
X157461905Y-63854819D01*
X157461905Y-63854819D02*
X157414286Y-64331009D01*
X157414286Y-64331009D02*
X157461905Y-64283390D01*
X157461905Y-64283390D02*
X157557143Y-64235771D01*
X157557143Y-64235771D02*
X157795238Y-64235771D01*
X157795238Y-64235771D02*
X157890476Y-64283390D01*
X157890476Y-64283390D02*
X157938095Y-64331009D01*
X157938095Y-64331009D02*
X157985714Y-64426247D01*
X157985714Y-64426247D02*
X157985714Y-64664342D01*
X157985714Y-64664342D02*
X157938095Y-64759580D01*
X157938095Y-64759580D02*
X157890476Y-64807200D01*
X157890476Y-64807200D02*
X157795238Y-64854819D01*
X157795238Y-64854819D02*
X157557143Y-64854819D01*
X157557143Y-64854819D02*
X157461905Y-64807200D01*
X157461905Y-64807200D02*
X157414286Y-64759580D01*
X167563333Y-68634819D02*
X167230000Y-68158628D01*
X166991905Y-68634819D02*
X166991905Y-67634819D01*
X166991905Y-67634819D02*
X167372857Y-67634819D01*
X167372857Y-67634819D02*
X167468095Y-67682438D01*
X167468095Y-67682438D02*
X167515714Y-67730057D01*
X167515714Y-67730057D02*
X167563333Y-67825295D01*
X167563333Y-67825295D02*
X167563333Y-67968152D01*
X167563333Y-67968152D02*
X167515714Y-68063390D01*
X167515714Y-68063390D02*
X167468095Y-68111009D01*
X167468095Y-68111009D02*
X167372857Y-68158628D01*
X167372857Y-68158628D02*
X166991905Y-68158628D01*
X167896667Y-67634819D02*
X168515714Y-67634819D01*
X168515714Y-67634819D02*
X168182381Y-68015771D01*
X168182381Y-68015771D02*
X168325238Y-68015771D01*
X168325238Y-68015771D02*
X168420476Y-68063390D01*
X168420476Y-68063390D02*
X168468095Y-68111009D01*
X168468095Y-68111009D02*
X168515714Y-68206247D01*
X168515714Y-68206247D02*
X168515714Y-68444342D01*
X168515714Y-68444342D02*
X168468095Y-68539580D01*
X168468095Y-68539580D02*
X168420476Y-68587200D01*
X168420476Y-68587200D02*
X168325238Y-68634819D01*
X168325238Y-68634819D02*
X168039524Y-68634819D01*
X168039524Y-68634819D02*
X167944286Y-68587200D01*
X167944286Y-68587200D02*
X167896667Y-68539580D01*
X161063333Y-66504819D02*
X160730000Y-66028628D01*
X160491905Y-66504819D02*
X160491905Y-65504819D01*
X160491905Y-65504819D02*
X160872857Y-65504819D01*
X160872857Y-65504819D02*
X160968095Y-65552438D01*
X160968095Y-65552438D02*
X161015714Y-65600057D01*
X161015714Y-65600057D02*
X161063333Y-65695295D01*
X161063333Y-65695295D02*
X161063333Y-65838152D01*
X161063333Y-65838152D02*
X161015714Y-65933390D01*
X161015714Y-65933390D02*
X160968095Y-65981009D01*
X160968095Y-65981009D02*
X160872857Y-66028628D01*
X160872857Y-66028628D02*
X160491905Y-66028628D01*
X161920476Y-65838152D02*
X161920476Y-66504819D01*
X161682381Y-65457200D02*
X161444286Y-66171485D01*
X161444286Y-66171485D02*
X162063333Y-66171485D01*
X158144819Y-66516666D02*
X157668628Y-66849999D01*
X158144819Y-67088094D02*
X157144819Y-67088094D01*
X157144819Y-67088094D02*
X157144819Y-66707142D01*
X157144819Y-66707142D02*
X157192438Y-66611904D01*
X157192438Y-66611904D02*
X157240057Y-66564285D01*
X157240057Y-66564285D02*
X157335295Y-66516666D01*
X157335295Y-66516666D02*
X157478152Y-66516666D01*
X157478152Y-66516666D02*
X157573390Y-66564285D01*
X157573390Y-66564285D02*
X157621009Y-66611904D01*
X157621009Y-66611904D02*
X157668628Y-66707142D01*
X157668628Y-66707142D02*
X157668628Y-67088094D01*
X158144819Y-65564285D02*
X158144819Y-66135713D01*
X158144819Y-65849999D02*
X157144819Y-65849999D01*
X157144819Y-65849999D02*
X157287676Y-65945237D01*
X157287676Y-65945237D02*
X157382914Y-66040475D01*
X157382914Y-66040475D02*
X157430533Y-66135713D01*
X170633333Y-66254819D02*
X170300000Y-65778628D01*
X170061905Y-66254819D02*
X170061905Y-65254819D01*
X170061905Y-65254819D02*
X170442857Y-65254819D01*
X170442857Y-65254819D02*
X170538095Y-65302438D01*
X170538095Y-65302438D02*
X170585714Y-65350057D01*
X170585714Y-65350057D02*
X170633333Y-65445295D01*
X170633333Y-65445295D02*
X170633333Y-65588152D01*
X170633333Y-65588152D02*
X170585714Y-65683390D01*
X170585714Y-65683390D02*
X170538095Y-65731009D01*
X170538095Y-65731009D02*
X170442857Y-65778628D01*
X170442857Y-65778628D02*
X170061905Y-65778628D01*
X171490476Y-65254819D02*
X171300000Y-65254819D01*
X171300000Y-65254819D02*
X171204762Y-65302438D01*
X171204762Y-65302438D02*
X171157143Y-65350057D01*
X171157143Y-65350057D02*
X171061905Y-65492914D01*
X171061905Y-65492914D02*
X171014286Y-65683390D01*
X171014286Y-65683390D02*
X171014286Y-66064342D01*
X171014286Y-66064342D02*
X171061905Y-66159580D01*
X171061905Y-66159580D02*
X171109524Y-66207200D01*
X171109524Y-66207200D02*
X171204762Y-66254819D01*
X171204762Y-66254819D02*
X171395238Y-66254819D01*
X171395238Y-66254819D02*
X171490476Y-66207200D01*
X171490476Y-66207200D02*
X171538095Y-66159580D01*
X171538095Y-66159580D02*
X171585714Y-66064342D01*
X171585714Y-66064342D02*
X171585714Y-65826247D01*
X171585714Y-65826247D02*
X171538095Y-65731009D01*
X171538095Y-65731009D02*
X171490476Y-65683390D01*
X171490476Y-65683390D02*
X171395238Y-65635771D01*
X171395238Y-65635771D02*
X171204762Y-65635771D01*
X171204762Y-65635771D02*
X171109524Y-65683390D01*
X171109524Y-65683390D02*
X171061905Y-65731009D01*
X171061905Y-65731009D02*
X171014286Y-65826247D01*
D12*
%TO.C,C1*%
X165059420Y-63790000D02*
X165340580Y-63790000D01*
X165059420Y-64810000D02*
X165340580Y-64810000D01*
%TO.C,J1*%
X157820000Y-71835000D02*
X157820000Y-73755000D01*
X157820000Y-77470000D02*
X157820000Y-75765000D01*
X166980000Y-73755000D02*
X166980000Y-71835000D01*
X166980000Y-75765000D02*
X166980000Y-77470000D01*
X166980000Y-77470000D02*
X157820000Y-77470000D01*
%TO.C,D1*%
X164400000Y-66535000D02*
X166685000Y-66535000D01*
X166685000Y-65065000D02*
X164400000Y-65065000D01*
X166685000Y-66535000D02*
X166685000Y-65065000D01*
%TO.C,J2*%
X157820000Y-55040000D02*
X166980000Y-55040000D01*
X157820000Y-56745000D02*
X157820000Y-55040000D01*
X157820000Y-58755000D02*
X157820000Y-60675000D01*
X166980000Y-55040000D02*
X166980000Y-56745000D01*
X166980000Y-60675000D02*
X166980000Y-58755000D01*
%TO.C,R2*%
X160557258Y-67667500D02*
X160082742Y-67667500D01*
X160557258Y-68712500D02*
X160082742Y-68712500D01*
%TO.C,R5*%
X160037258Y-63777500D02*
X159562742Y-63777500D01*
X160037258Y-64822500D02*
X159562742Y-64822500D01*
%TO.C,R3*%
X164732742Y-67677500D02*
X165207258Y-67677500D01*
X164732742Y-68722500D02*
X165207258Y-68722500D01*
%TO.C,R4*%
X162417500Y-64812742D02*
X162417500Y-65287258D01*
X163462500Y-64812742D02*
X163462500Y-65287258D01*
%TO.C,R1*%
X155737500Y-66112742D02*
X155737500Y-66587258D01*
X156782500Y-66112742D02*
X156782500Y-66587258D01*
%TO.C,R6*%
X167982742Y-65277500D02*
X168457258Y-65277500D01*
X167982742Y-66322500D02*
X168457258Y-66322500D01*
%TD*%
M02*
