M48
; DRILL file {KiCad 9.0.7} date 2026-02-20T10:44:52+0900
; FORMAT={-:-/ absolute / metric / decimal}
; #@! TF.CreationDate,2026-02-20T10:44:52+09:00
; #@! TF.GenerationSoftware,Kicad,Pcbnew,9.0.7
; #@! TF.FileFunction,Plated,1,2,PTH
FMAT,2
METRIC
; #@! TA.AperFunction,Plated,PTH,ViaDrill
T1C0.300
; #@! TA.AperFunction,Plated,PTH,ComponentDrill
T2C0.600
; #@! TA.AperFunction,Plated,PTH,ComponentDrill
T3C0.700
%
G90
G05
T1
X155.1Y-65.7
X155.1Y-67.6
X160.0Y-62.5
X162.05Y-68.45
X162.15Y-70.962
X164.8Y-62.5
T2
G00X158.08Y-58.05
M15
G01X158.08Y-57.45
M16
G05
G00X158.08Y-62.48
M15
G01X158.08Y-61.38
M16
G05
G00X158.08Y-70.03
M15
G01X158.08Y-71.13
M16
G05
G00X158.08Y-74.46
M15
G01X158.08Y-75.06
M16
G05
G00X166.72Y-58.05
M15
G01X166.72Y-57.45
M16
G05
G00X166.72Y-62.48
M15
G01X166.72Y-61.38
M16
G05
G00X166.72Y-70.03
M15
G01X166.72Y-71.13
M16
G05
G00X166.72Y-74.46
M15
G01X166.72Y-75.06
M16
G05
T3
G00X153.88Y-58.58
M15
G01X155.72Y-58.58
M16
G05
G00X153.88Y-73.82
M15
G01X155.72Y-73.82
M16
G05
G00X169.08Y-58.58
M15
G01X170.92Y-58.58
M16
G05
G00X169.08Y-61.12
M15
G01X170.92Y-61.12
M16
G05
G00X169.08Y-71.28
M15
G01X170.92Y-71.28
M16
G05
G00X169.08Y-73.82
M15
G01X170.92Y-73.82
M16
G05
M30
