%TF.GenerationSoftware,KiCad,Pcbnew,9.0.5*%
%TF.CreationDate,2025-10-13T20:41:13+09:00*%
%TF.ProjectId,555,3535352e-6b69-4636-9164-5f7063625858,rev?*%
%TF.SameCoordinates,Original*%
%TF.FileFunction,Paste,Top*%
%TF.FilePolarity,Positive*%
%FSLAX46Y46*%
G04 Gerber Fmt 4.6, Leading zero omitted, Abs format (unit mm)*
G04 Created by KiCad (PCBNEW 9.0.5) date 2025-10-13 20:41:13*
%MOMM*%
%LPD*%
G01*
G04 APERTURE LIST*
G04 Aperture macros list*
%AMRoundRect*
0 Rectangle with rounded corners*
0 $1 Rounding radius*
0 $2 $3 $4 $5 $6 $7 $8 $9 X,Y pos of 4 corners*
0 Add a 4 corners polygon primitive as box body*
4,1,4,$2,$3,$4,$5,$6,$7,$8,$9,$2,$3,0*
0 Add four circle primitives for the rounded corners*
1,1,$1+$1,$2,$3*
1,1,$1+$1,$4,$5*
1,1,$1+$1,$6,$7*
1,1,$1+$1,$8,$9*
0 Add four rect primitives between the rounded corners*
20,1,$1+$1,$2,$3,$4,$5,0*
20,1,$1+$1,$4,$5,$6,$7,0*
20,1,$1+$1,$6,$7,$8,$9,0*
20,1,$1+$1,$8,$9,$2,$3,0*%
G04 Aperture macros list end*
%ADD10RoundRect,0.225000X0.225000X0.250000X-0.225000X0.250000X-0.225000X-0.250000X0.225000X-0.250000X0*%
%ADD11RoundRect,0.200000X0.200000X0.275000X-0.200000X0.275000X-0.200000X-0.275000X0.200000X-0.275000X0*%
%ADD12RoundRect,0.150000X0.150000X-0.825000X0.150000X0.825000X-0.150000X0.825000X-0.150000X-0.825000X0*%
G04 APERTURE END LIST*
D10*
%TO.C,C1*%
X183925000Y-137130000D03*
X182375000Y-137130000D03*
%TD*%
%TO.C,C1*%
X196625000Y-137130000D03*
X195075000Y-137130000D03*
%TD*%
D11*
%TO.C,R1*%
X180475000Y-137630000D03*
X178825000Y-137630000D03*
%TD*%
D10*
%TO.C,C1*%
X171225000Y-137130000D03*
X169675000Y-137130000D03*
%TD*%
%TO.C,C2*%
X196625000Y-135630000D03*
X195075000Y-135630000D03*
%TD*%
%TO.C,C2*%
X183925000Y-135630000D03*
X182375000Y-135630000D03*
%TD*%
D11*
%TO.C,R1*%
X155075000Y-137630000D03*
X153425000Y-137630000D03*
%TD*%
D10*
%TO.C,C1*%
X158525000Y-137130000D03*
X156975000Y-137130000D03*
%TD*%
D11*
%TO.C,R1*%
X193175000Y-137630000D03*
X191525000Y-137630000D03*
%TD*%
%TO.C,R2*%
X180475000Y-135630000D03*
X178825000Y-135630000D03*
%TD*%
%TO.C,R2*%
X193175000Y-135630000D03*
X191525000Y-135630000D03*
%TD*%
D12*
%TO.C,U1*%
X166225000Y-144895000D03*
X167495000Y-144895000D03*
X168765000Y-144895000D03*
X170035000Y-144895000D03*
X170035000Y-139945000D03*
X168765000Y-139945000D03*
X167495000Y-139945000D03*
X166225000Y-139945000D03*
%TD*%
D11*
%TO.C,R2*%
X167775000Y-135630000D03*
X166125000Y-135630000D03*
%TD*%
D12*
%TO.C,U1*%
X191625000Y-144895000D03*
X192895000Y-144895000D03*
X194165000Y-144895000D03*
X195435000Y-144895000D03*
X195435000Y-139945000D03*
X194165000Y-139945000D03*
X192895000Y-139945000D03*
X191625000Y-139945000D03*
%TD*%
%TO.C,U1*%
X153525000Y-144895000D03*
X154795000Y-144895000D03*
X156065000Y-144895000D03*
X157335000Y-144895000D03*
X157335000Y-139945000D03*
X156065000Y-139945000D03*
X154795000Y-139945000D03*
X153525000Y-139945000D03*
%TD*%
D11*
%TO.C,R1*%
X167775000Y-137630000D03*
X166125000Y-137630000D03*
%TD*%
D10*
%TO.C,C2*%
X171225000Y-135630000D03*
X169675000Y-135630000D03*
%TD*%
D12*
%TO.C,U1*%
X178925000Y-144895000D03*
X180195000Y-144895000D03*
X181465000Y-144895000D03*
X182735000Y-144895000D03*
X182735000Y-139945000D03*
X181465000Y-139945000D03*
X180195000Y-139945000D03*
X178925000Y-139945000D03*
%TD*%
D10*
%TO.C,C2*%
X158525000Y-135630000D03*
X156975000Y-135630000D03*
%TD*%
D11*
%TO.C,R2*%
X155075000Y-135630000D03*
X153425000Y-135630000D03*
%TD*%
D10*
%TO.C,C1*%
X183925000Y-123160000D03*
X182375000Y-123160000D03*
%TD*%
%TO.C,C1*%
X196625000Y-123160000D03*
X195075000Y-123160000D03*
%TD*%
D11*
%TO.C,R1*%
X180475000Y-123660000D03*
X178825000Y-123660000D03*
%TD*%
D10*
%TO.C,C1*%
X171225000Y-123160000D03*
X169675000Y-123160000D03*
%TD*%
%TO.C,C2*%
X196625000Y-121660000D03*
X195075000Y-121660000D03*
%TD*%
%TO.C,C2*%
X183925000Y-121660000D03*
X182375000Y-121660000D03*
%TD*%
D11*
%TO.C,R1*%
X155075000Y-123660000D03*
X153425000Y-123660000D03*
%TD*%
D10*
%TO.C,C1*%
X158525000Y-123160000D03*
X156975000Y-123160000D03*
%TD*%
D11*
%TO.C,R1*%
X193175000Y-123660000D03*
X191525000Y-123660000D03*
%TD*%
%TO.C,R2*%
X180475000Y-121660000D03*
X178825000Y-121660000D03*
%TD*%
%TO.C,R2*%
X193175000Y-121660000D03*
X191525000Y-121660000D03*
%TD*%
D12*
%TO.C,U1*%
X166225000Y-130925000D03*
X167495000Y-130925000D03*
X168765000Y-130925000D03*
X170035000Y-130925000D03*
X170035000Y-125975000D03*
X168765000Y-125975000D03*
X167495000Y-125975000D03*
X166225000Y-125975000D03*
%TD*%
D11*
%TO.C,R2*%
X167775000Y-121660000D03*
X166125000Y-121660000D03*
%TD*%
D12*
%TO.C,U1*%
X191625000Y-130925000D03*
X192895000Y-130925000D03*
X194165000Y-130925000D03*
X195435000Y-130925000D03*
X195435000Y-125975000D03*
X194165000Y-125975000D03*
X192895000Y-125975000D03*
X191625000Y-125975000D03*
%TD*%
%TO.C,U1*%
X153525000Y-130925000D03*
X154795000Y-130925000D03*
X156065000Y-130925000D03*
X157335000Y-130925000D03*
X157335000Y-125975000D03*
X156065000Y-125975000D03*
X154795000Y-125975000D03*
X153525000Y-125975000D03*
%TD*%
D11*
%TO.C,R1*%
X167775000Y-123660000D03*
X166125000Y-123660000D03*
%TD*%
D10*
%TO.C,C2*%
X171225000Y-121660000D03*
X169675000Y-121660000D03*
%TD*%
D12*
%TO.C,U1*%
X178925000Y-130925000D03*
X180195000Y-130925000D03*
X181465000Y-130925000D03*
X182735000Y-130925000D03*
X182735000Y-125975000D03*
X181465000Y-125975000D03*
X180195000Y-125975000D03*
X178925000Y-125975000D03*
%TD*%
D10*
%TO.C,C2*%
X158525000Y-121660000D03*
X156975000Y-121660000D03*
%TD*%
D11*
%TO.C,R2*%
X155075000Y-121660000D03*
X153425000Y-121660000D03*
%TD*%
D10*
%TO.C,C1*%
X183925000Y-109190000D03*
X182375000Y-109190000D03*
%TD*%
%TO.C,C1*%
X196625000Y-109190000D03*
X195075000Y-109190000D03*
%TD*%
D11*
%TO.C,R1*%
X180475000Y-109690000D03*
X178825000Y-109690000D03*
%TD*%
D10*
%TO.C,C1*%
X171225000Y-109190000D03*
X169675000Y-109190000D03*
%TD*%
%TO.C,C2*%
X196625000Y-107690000D03*
X195075000Y-107690000D03*
%TD*%
%TO.C,C2*%
X183925000Y-107690000D03*
X182375000Y-107690000D03*
%TD*%
D11*
%TO.C,R1*%
X155075000Y-109690000D03*
X153425000Y-109690000D03*
%TD*%
D10*
%TO.C,C1*%
X158525000Y-109190000D03*
X156975000Y-109190000D03*
%TD*%
D11*
%TO.C,R1*%
X193175000Y-109690000D03*
X191525000Y-109690000D03*
%TD*%
%TO.C,R2*%
X180475000Y-107690000D03*
X178825000Y-107690000D03*
%TD*%
%TO.C,R2*%
X193175000Y-107690000D03*
X191525000Y-107690000D03*
%TD*%
D12*
%TO.C,U1*%
X166225000Y-116955000D03*
X167495000Y-116955000D03*
X168765000Y-116955000D03*
X170035000Y-116955000D03*
X170035000Y-112005000D03*
X168765000Y-112005000D03*
X167495000Y-112005000D03*
X166225000Y-112005000D03*
%TD*%
D11*
%TO.C,R2*%
X167775000Y-107690000D03*
X166125000Y-107690000D03*
%TD*%
D12*
%TO.C,U1*%
X191625000Y-116955000D03*
X192895000Y-116955000D03*
X194165000Y-116955000D03*
X195435000Y-116955000D03*
X195435000Y-112005000D03*
X194165000Y-112005000D03*
X192895000Y-112005000D03*
X191625000Y-112005000D03*
%TD*%
%TO.C,U1*%
X153525000Y-116955000D03*
X154795000Y-116955000D03*
X156065000Y-116955000D03*
X157335000Y-116955000D03*
X157335000Y-112005000D03*
X156065000Y-112005000D03*
X154795000Y-112005000D03*
X153525000Y-112005000D03*
%TD*%
D11*
%TO.C,R1*%
X167775000Y-109690000D03*
X166125000Y-109690000D03*
%TD*%
D10*
%TO.C,C2*%
X171225000Y-107690000D03*
X169675000Y-107690000D03*
%TD*%
D12*
%TO.C,U1*%
X178925000Y-116955000D03*
X180195000Y-116955000D03*
X181465000Y-116955000D03*
X182735000Y-116955000D03*
X182735000Y-112005000D03*
X181465000Y-112005000D03*
X180195000Y-112005000D03*
X178925000Y-112005000D03*
%TD*%
D10*
%TO.C,C2*%
X158525000Y-107690000D03*
X156975000Y-107690000D03*
%TD*%
D11*
%TO.C,R2*%
X155075000Y-107690000D03*
X153425000Y-107690000D03*
%TD*%
D10*
%TO.C,C1*%
X183925000Y-95220000D03*
X182375000Y-95220000D03*
%TD*%
%TO.C,C1*%
X196625000Y-95220000D03*
X195075000Y-95220000D03*
%TD*%
D11*
%TO.C,R1*%
X180475000Y-95720000D03*
X178825000Y-95720000D03*
%TD*%
D10*
%TO.C,C1*%
X171225000Y-95220000D03*
X169675000Y-95220000D03*
%TD*%
%TO.C,C2*%
X196625000Y-93720000D03*
X195075000Y-93720000D03*
%TD*%
%TO.C,C2*%
X183925000Y-93720000D03*
X182375000Y-93720000D03*
%TD*%
D11*
%TO.C,R1*%
X155075000Y-95720000D03*
X153425000Y-95720000D03*
%TD*%
D10*
%TO.C,C1*%
X158525000Y-95220000D03*
X156975000Y-95220000D03*
%TD*%
D11*
%TO.C,R1*%
X193175000Y-95720000D03*
X191525000Y-95720000D03*
%TD*%
%TO.C,R2*%
X180475000Y-93720000D03*
X178825000Y-93720000D03*
%TD*%
%TO.C,R2*%
X193175000Y-93720000D03*
X191525000Y-93720000D03*
%TD*%
D12*
%TO.C,U1*%
X166225000Y-102985000D03*
X167495000Y-102985000D03*
X168765000Y-102985000D03*
X170035000Y-102985000D03*
X170035000Y-98035000D03*
X168765000Y-98035000D03*
X167495000Y-98035000D03*
X166225000Y-98035000D03*
%TD*%
D11*
%TO.C,R2*%
X167775000Y-93720000D03*
X166125000Y-93720000D03*
%TD*%
D12*
%TO.C,U1*%
X191625000Y-102985000D03*
X192895000Y-102985000D03*
X194165000Y-102985000D03*
X195435000Y-102985000D03*
X195435000Y-98035000D03*
X194165000Y-98035000D03*
X192895000Y-98035000D03*
X191625000Y-98035000D03*
%TD*%
%TO.C,U1*%
X153525000Y-102985000D03*
X154795000Y-102985000D03*
X156065000Y-102985000D03*
X157335000Y-102985000D03*
X157335000Y-98035000D03*
X156065000Y-98035000D03*
X154795000Y-98035000D03*
X153525000Y-98035000D03*
%TD*%
D11*
%TO.C,R1*%
X167775000Y-95720000D03*
X166125000Y-95720000D03*
%TD*%
D10*
%TO.C,C2*%
X171225000Y-93720000D03*
X169675000Y-93720000D03*
%TD*%
D12*
%TO.C,U1*%
X178925000Y-102985000D03*
X180195000Y-102985000D03*
X181465000Y-102985000D03*
X182735000Y-102985000D03*
X182735000Y-98035000D03*
X181465000Y-98035000D03*
X180195000Y-98035000D03*
X178925000Y-98035000D03*
%TD*%
D10*
%TO.C,C2*%
X158525000Y-93720000D03*
X156975000Y-93720000D03*
%TD*%
D11*
%TO.C,R2*%
X155075000Y-93720000D03*
X153425000Y-93720000D03*
%TD*%
%TO.C,R1*%
X193175000Y-81750000D03*
X191525000Y-81750000D03*
%TD*%
D10*
%TO.C,C1*%
X196625000Y-81250000D03*
X195075000Y-81250000D03*
%TD*%
D12*
%TO.C,U1*%
X191625000Y-89015000D03*
X192895000Y-89015000D03*
X194165000Y-89015000D03*
X195435000Y-89015000D03*
X195435000Y-84065000D03*
X194165000Y-84065000D03*
X192895000Y-84065000D03*
X191625000Y-84065000D03*
%TD*%
D10*
%TO.C,C2*%
X196625000Y-79750000D03*
X195075000Y-79750000D03*
%TD*%
D11*
%TO.C,R2*%
X193175000Y-79750000D03*
X191525000Y-79750000D03*
%TD*%
%TO.C,R1*%
X180475000Y-81750000D03*
X178825000Y-81750000D03*
%TD*%
D10*
%TO.C,C1*%
X183925000Y-81250000D03*
X182375000Y-81250000D03*
%TD*%
D12*
%TO.C,U1*%
X178925000Y-89015000D03*
X180195000Y-89015000D03*
X181465000Y-89015000D03*
X182735000Y-89015000D03*
X182735000Y-84065000D03*
X181465000Y-84065000D03*
X180195000Y-84065000D03*
X178925000Y-84065000D03*
%TD*%
D10*
%TO.C,C2*%
X183925000Y-79750000D03*
X182375000Y-79750000D03*
%TD*%
D11*
%TO.C,R2*%
X180475000Y-79750000D03*
X178825000Y-79750000D03*
%TD*%
%TO.C,R1*%
X167775000Y-81750000D03*
X166125000Y-81750000D03*
%TD*%
D10*
%TO.C,C1*%
X171225000Y-81250000D03*
X169675000Y-81250000D03*
%TD*%
D12*
%TO.C,U1*%
X166225000Y-89015000D03*
X167495000Y-89015000D03*
X168765000Y-89015000D03*
X170035000Y-89015000D03*
X170035000Y-84065000D03*
X168765000Y-84065000D03*
X167495000Y-84065000D03*
X166225000Y-84065000D03*
%TD*%
D10*
%TO.C,C2*%
X171225000Y-79750000D03*
X169675000Y-79750000D03*
%TD*%
D11*
%TO.C,R2*%
X167775000Y-79750000D03*
X166125000Y-79750000D03*
%TD*%
D12*
%TO.C,U1*%
X153525000Y-84065000D03*
X154795000Y-84065000D03*
X156065000Y-84065000D03*
X157335000Y-84065000D03*
X157335000Y-89015000D03*
X156065000Y-89015000D03*
X154795000Y-89015000D03*
X153525000Y-89015000D03*
%TD*%
D11*
%TO.C,R2*%
X155075000Y-79750000D03*
X153425000Y-79750000D03*
%TD*%
%TO.C,R1*%
X155075000Y-81750000D03*
X153425000Y-81750000D03*
%TD*%
D10*
%TO.C,C2*%
X158525000Y-79750000D03*
X156975000Y-79750000D03*
%TD*%
%TO.C,C1*%
X158525000Y-81250000D03*
X156975000Y-81250000D03*
%TD*%
M02*
