M48
; DRILL file {KiCad 9.0.5} date 2025-10-13T20:41:10+0900
; FORMAT={-:-/ absolute / metric / decimal}
; #@! TF.CreationDate,2025-10-13T20:41:10+09:00
; #@! TF.GenerationSoftware,Kicad,Pcbnew,9.0.5
; #@! TF.FileFunction,Plated,1,2,PTH
FMAT,2
METRIC
; #@! TA.AperFunction,Plated,PTH,ViaDrill
T1C0.300
; #@! TA.AperFunction,Plated,PTH,ComponentDrill
T2C1.000
%
G90
G05
T1
X151.25Y-80.25
X151.25Y-90.0
X151.25Y-94.22
X151.25Y-103.97
X151.25Y-108.19
X151.25Y-117.94
X151.25Y-122.16
X151.25Y-131.91
X151.25Y-136.13
X151.25Y-145.88
X153.525Y-84.065
X153.525Y-98.035
X153.525Y-112.005
X153.525Y-125.975
X153.525Y-139.945
X156.75Y-85.5
X156.75Y-99.47
X156.75Y-113.44
X156.75Y-127.41
X156.75Y-141.38
X157.335Y-89.015
X157.335Y-102.985
X157.335Y-116.955
X157.335Y-130.925
X157.335Y-144.895
X158.75Y-90.0
X158.75Y-103.97
X158.75Y-117.94
X158.75Y-131.91
X158.75Y-145.88
X158.84Y-86.75
X158.84Y-100.72
X158.84Y-114.69
X158.84Y-128.66
X158.84Y-142.63
X163.95Y-80.25
X163.95Y-90.0
X163.95Y-94.22
X163.95Y-103.97
X163.95Y-108.19
X163.95Y-117.94
X163.95Y-122.16
X163.95Y-131.91
X163.95Y-136.13
X163.95Y-145.88
X166.225Y-84.065
X166.225Y-98.035
X166.225Y-112.005
X166.225Y-125.975
X166.225Y-139.945
X169.45Y-85.5
X169.45Y-99.47
X169.45Y-113.44
X169.45Y-127.41
X169.45Y-141.38
X170.035Y-89.015
X170.035Y-102.985
X170.035Y-116.955
X170.035Y-130.925
X170.035Y-144.895
X171.45Y-90.0
X171.45Y-103.97
X171.45Y-117.94
X171.45Y-131.91
X171.45Y-145.88
X171.54Y-86.75
X171.54Y-100.72
X171.54Y-114.69
X171.54Y-128.66
X171.54Y-142.63
X176.65Y-80.25
X176.65Y-90.0
X176.65Y-94.22
X176.65Y-103.97
X176.65Y-108.19
X176.65Y-117.94
X176.65Y-122.16
X176.65Y-131.91
X176.65Y-136.13
X176.65Y-145.88
X178.925Y-84.065
X178.925Y-98.035
X178.925Y-112.005
X178.925Y-125.975
X178.925Y-139.945
X182.15Y-85.5
X182.15Y-99.47
X182.15Y-113.44
X182.15Y-127.41
X182.15Y-141.38
X182.735Y-89.015
X182.735Y-102.985
X182.735Y-116.955
X182.735Y-130.925
X182.735Y-144.895
X184.15Y-90.0
X184.15Y-103.97
X184.15Y-117.94
X184.15Y-131.91
X184.15Y-145.88
X184.24Y-86.75
X184.24Y-100.72
X184.24Y-114.69
X184.24Y-128.66
X184.24Y-142.63
X189.35Y-80.25
X189.35Y-90.0
X189.35Y-94.22
X189.35Y-103.97
X189.35Y-108.19
X189.35Y-117.94
X189.35Y-122.16
X189.35Y-131.91
X189.35Y-136.13
X189.35Y-145.88
X191.625Y-84.065
X191.625Y-98.035
X191.625Y-112.005
X191.625Y-125.975
X191.625Y-139.945
X194.85Y-85.5
X194.85Y-99.47
X194.85Y-113.44
X194.85Y-127.41
X194.85Y-141.38
X195.435Y-89.015
X195.435Y-102.985
X195.435Y-116.955
X195.435Y-130.925
X195.435Y-144.895
X196.85Y-90.0
X196.85Y-103.97
X196.85Y-117.94
X196.85Y-131.91
X196.85Y-145.88
X196.94Y-86.75
X196.94Y-100.72
X196.94Y-114.69
X196.94Y-128.66
X196.94Y-142.63
T2
X149.86Y-83.82
X149.86Y-88.9
X149.86Y-97.79
X149.86Y-102.87
X149.86Y-111.76
X149.86Y-116.84
X149.86Y-125.73
X149.86Y-130.81
X149.86Y-139.7
X149.86Y-144.78
X160.02Y-83.82
X160.02Y-88.9
X160.02Y-97.79
X160.02Y-102.87
X160.02Y-111.76
X160.02Y-116.84
X160.02Y-125.73
X160.02Y-130.81
X160.02Y-139.7
X160.02Y-144.78
X162.56Y-83.82
X162.56Y-88.9
X162.56Y-97.79
X162.56Y-102.87
X162.56Y-111.76
X162.56Y-116.84
X162.56Y-125.73
X162.56Y-130.81
X162.56Y-139.7
X162.56Y-144.78
X172.72Y-83.82
X172.72Y-88.9
X172.72Y-97.79
X172.72Y-102.87
X172.72Y-111.76
X172.72Y-116.84
X172.72Y-125.73
X172.72Y-130.81
X172.72Y-139.7
X172.72Y-144.78
X175.26Y-83.82
X175.26Y-88.9
X175.26Y-97.79
X175.26Y-102.87
X175.26Y-111.76
X175.26Y-116.84
X175.26Y-125.73
X175.26Y-130.81
X175.26Y-139.7
X175.26Y-144.78
X185.42Y-83.82
X185.42Y-88.9
X185.42Y-97.79
X185.42Y-102.87
X185.42Y-111.76
X185.42Y-116.84
X185.42Y-125.73
X185.42Y-130.81
X185.42Y-139.7
X185.42Y-144.78
X187.96Y-83.82
X187.96Y-88.9
X187.96Y-97.79
X187.96Y-102.87
X187.96Y-111.76
X187.96Y-116.84
X187.96Y-125.73
X187.96Y-130.81
X187.96Y-139.7
X187.96Y-144.78
X198.12Y-83.82
X198.12Y-88.9
X198.12Y-97.79
X198.12Y-102.87
X198.12Y-111.76
X198.12Y-116.84
X198.12Y-125.73
X198.12Y-130.81
X198.12Y-139.7
X198.12Y-144.78
M30
