%TF.GenerationSoftware,KiCad,Pcbnew,9.0.5*%
%TF.CreationDate,2025-10-13T20:41:13+09:00*%
%TF.ProjectId,555,3535352e-6b69-4636-9164-5f7063625858,rev?*%
%TF.SameCoordinates,Original*%
%TF.FileFunction,Copper,L2,Bot*%
%TF.FilePolarity,Positive*%
%FSLAX46Y46*%
G04 Gerber Fmt 4.6, Leading zero omitted, Abs format (unit mm)*
G04 Created by KiCad (PCBNEW 9.0.5) date 2025-10-13 20:41:13*
%MOMM*%
%LPD*%
G01*
G04 APERTURE LIST*
%TA.AperFunction,ComponentPad*%
%ADD10R,1.700000X1.700000*%
%TD*%
%TA.AperFunction,ViaPad*%
%ADD11C,0.600000*%
%TD*%
%TA.AperFunction,Conductor*%
%ADD12C,0.600000*%
%TD*%
G04 APERTURE END LIST*
D10*
%TO.P,J1,1,Pin_1*%
%TO.N,trg*%
X175260000Y-144780000D03*
%TD*%
%TO.P,J3,1,Pin_1*%
%TO.N,OUT*%
X198120000Y-139700000D03*
%TD*%
%TO.P,J4,1,Pin_1*%
%TO.N,VCC*%
X185420000Y-144780000D03*
%TD*%
%TO.P,J3,1,Pin_1*%
%TO.N,OUT*%
X160020000Y-139700000D03*
%TD*%
%TO.P,J1,1,Pin_1*%
%TO.N,trg*%
X149860000Y-144780000D03*
%TD*%
%TO.P,J1,1,Pin_1*%
%TO.N,trg*%
X187960000Y-144780000D03*
%TD*%
%TO.P,J2,1,Pin_1*%
%TO.N,GND*%
X175260000Y-139700000D03*
%TD*%
%TO.P,J2,1,Pin_1*%
%TO.N,GND*%
X162560000Y-139700000D03*
%TD*%
%TO.P,J1,1,Pin_1*%
%TO.N,trg*%
X162560000Y-144780000D03*
%TD*%
%TO.P,J3,1,Pin_1*%
%TO.N,OUT*%
X185420000Y-139700000D03*
%TD*%
%TO.P,J4,1,Pin_1*%
%TO.N,VCC*%
X172720000Y-144780000D03*
%TD*%
%TO.P,J4,1,Pin_1*%
%TO.N,VCC*%
X160020000Y-144780000D03*
%TD*%
%TO.P,J2,1,Pin_1*%
%TO.N,GND*%
X187960000Y-139700000D03*
%TD*%
%TO.P,J3,1,Pin_1*%
%TO.N,OUT*%
X172720000Y-139700000D03*
%TD*%
%TO.P,J4,1,Pin_1*%
%TO.N,VCC*%
X198120000Y-144780000D03*
%TD*%
%TO.P,J2,1,Pin_1*%
%TO.N,GND*%
X149860000Y-139700000D03*
%TD*%
%TO.P,J1,1,Pin_1*%
%TO.N,trg*%
X175260000Y-130810000D03*
%TD*%
%TO.P,J3,1,Pin_1*%
%TO.N,OUT*%
X198120000Y-125730000D03*
%TD*%
%TO.P,J4,1,Pin_1*%
%TO.N,VCC*%
X185420000Y-130810000D03*
%TD*%
%TO.P,J3,1,Pin_1*%
%TO.N,OUT*%
X160020000Y-125730000D03*
%TD*%
%TO.P,J1,1,Pin_1*%
%TO.N,trg*%
X149860000Y-130810000D03*
%TD*%
%TO.P,J1,1,Pin_1*%
%TO.N,trg*%
X187960000Y-130810000D03*
%TD*%
%TO.P,J2,1,Pin_1*%
%TO.N,GND*%
X175260000Y-125730000D03*
%TD*%
%TO.P,J2,1,Pin_1*%
%TO.N,GND*%
X162560000Y-125730000D03*
%TD*%
%TO.P,J1,1,Pin_1*%
%TO.N,trg*%
X162560000Y-130810000D03*
%TD*%
%TO.P,J3,1,Pin_1*%
%TO.N,OUT*%
X185420000Y-125730000D03*
%TD*%
%TO.P,J4,1,Pin_1*%
%TO.N,VCC*%
X172720000Y-130810000D03*
%TD*%
%TO.P,J4,1,Pin_1*%
%TO.N,VCC*%
X160020000Y-130810000D03*
%TD*%
%TO.P,J2,1,Pin_1*%
%TO.N,GND*%
X187960000Y-125730000D03*
%TD*%
%TO.P,J3,1,Pin_1*%
%TO.N,OUT*%
X172720000Y-125730000D03*
%TD*%
%TO.P,J4,1,Pin_1*%
%TO.N,VCC*%
X198120000Y-130810000D03*
%TD*%
%TO.P,J2,1,Pin_1*%
%TO.N,GND*%
X149860000Y-125730000D03*
%TD*%
%TO.P,J1,1,Pin_1*%
%TO.N,trg*%
X175260000Y-116840000D03*
%TD*%
%TO.P,J3,1,Pin_1*%
%TO.N,OUT*%
X198120000Y-111760000D03*
%TD*%
%TO.P,J4,1,Pin_1*%
%TO.N,VCC*%
X185420000Y-116840000D03*
%TD*%
%TO.P,J3,1,Pin_1*%
%TO.N,OUT*%
X160020000Y-111760000D03*
%TD*%
%TO.P,J1,1,Pin_1*%
%TO.N,trg*%
X149860000Y-116840000D03*
%TD*%
%TO.P,J1,1,Pin_1*%
%TO.N,trg*%
X187960000Y-116840000D03*
%TD*%
%TO.P,J2,1,Pin_1*%
%TO.N,GND*%
X175260000Y-111760000D03*
%TD*%
%TO.P,J2,1,Pin_1*%
%TO.N,GND*%
X162560000Y-111760000D03*
%TD*%
%TO.P,J1,1,Pin_1*%
%TO.N,trg*%
X162560000Y-116840000D03*
%TD*%
%TO.P,J3,1,Pin_1*%
%TO.N,OUT*%
X185420000Y-111760000D03*
%TD*%
%TO.P,J4,1,Pin_1*%
%TO.N,VCC*%
X172720000Y-116840000D03*
%TD*%
%TO.P,J4,1,Pin_1*%
%TO.N,VCC*%
X160020000Y-116840000D03*
%TD*%
%TO.P,J2,1,Pin_1*%
%TO.N,GND*%
X187960000Y-111760000D03*
%TD*%
%TO.P,J3,1,Pin_1*%
%TO.N,OUT*%
X172720000Y-111760000D03*
%TD*%
%TO.P,J4,1,Pin_1*%
%TO.N,VCC*%
X198120000Y-116840000D03*
%TD*%
%TO.P,J2,1,Pin_1*%
%TO.N,GND*%
X149860000Y-111760000D03*
%TD*%
%TO.P,J1,1,Pin_1*%
%TO.N,trg*%
X175260000Y-102870000D03*
%TD*%
%TO.P,J3,1,Pin_1*%
%TO.N,OUT*%
X198120000Y-97790000D03*
%TD*%
%TO.P,J4,1,Pin_1*%
%TO.N,VCC*%
X185420000Y-102870000D03*
%TD*%
%TO.P,J3,1,Pin_1*%
%TO.N,OUT*%
X160020000Y-97790000D03*
%TD*%
%TO.P,J1,1,Pin_1*%
%TO.N,trg*%
X149860000Y-102870000D03*
%TD*%
%TO.P,J1,1,Pin_1*%
%TO.N,trg*%
X187960000Y-102870000D03*
%TD*%
%TO.P,J2,1,Pin_1*%
%TO.N,GND*%
X175260000Y-97790000D03*
%TD*%
%TO.P,J2,1,Pin_1*%
%TO.N,GND*%
X162560000Y-97790000D03*
%TD*%
%TO.P,J1,1,Pin_1*%
%TO.N,trg*%
X162560000Y-102870000D03*
%TD*%
%TO.P,J3,1,Pin_1*%
%TO.N,OUT*%
X185420000Y-97790000D03*
%TD*%
%TO.P,J4,1,Pin_1*%
%TO.N,VCC*%
X172720000Y-102870000D03*
%TD*%
%TO.P,J4,1,Pin_1*%
%TO.N,VCC*%
X160020000Y-102870000D03*
%TD*%
%TO.P,J2,1,Pin_1*%
%TO.N,GND*%
X187960000Y-97790000D03*
%TD*%
%TO.P,J3,1,Pin_1*%
%TO.N,OUT*%
X172720000Y-97790000D03*
%TD*%
%TO.P,J4,1,Pin_1*%
%TO.N,VCC*%
X198120000Y-102870000D03*
%TD*%
%TO.P,J2,1,Pin_1*%
%TO.N,GND*%
X149860000Y-97790000D03*
%TD*%
%TO.P,J3,1,Pin_1*%
%TO.N,OUT*%
X198120000Y-83820000D03*
%TD*%
%TO.P,J1,1,Pin_1*%
%TO.N,trg*%
X187960000Y-88900000D03*
%TD*%
%TO.P,J4,1,Pin_1*%
%TO.N,VCC*%
X198120000Y-88900000D03*
%TD*%
%TO.P,J2,1,Pin_1*%
%TO.N,GND*%
X187960000Y-83820000D03*
%TD*%
%TO.P,J3,1,Pin_1*%
%TO.N,OUT*%
X185420000Y-83820000D03*
%TD*%
%TO.P,J1,1,Pin_1*%
%TO.N,trg*%
X175260000Y-88900000D03*
%TD*%
%TO.P,J4,1,Pin_1*%
%TO.N,VCC*%
X185420000Y-88900000D03*
%TD*%
%TO.P,J2,1,Pin_1*%
%TO.N,GND*%
X175260000Y-83820000D03*
%TD*%
%TO.P,J3,1,Pin_1*%
%TO.N,OUT*%
X172720000Y-83820000D03*
%TD*%
%TO.P,J1,1,Pin_1*%
%TO.N,trg*%
X162560000Y-88900000D03*
%TD*%
%TO.P,J4,1,Pin_1*%
%TO.N,VCC*%
X172720000Y-88900000D03*
%TD*%
%TO.P,J2,1,Pin_1*%
%TO.N,GND*%
X162560000Y-83820000D03*
%TD*%
%TO.P,J3,1,Pin_1*%
%TO.N,OUT*%
X160020000Y-83820000D03*
%TD*%
%TO.P,J4,1,Pin_1*%
%TO.N,VCC*%
X160020000Y-88900000D03*
%TD*%
%TO.P,J1,1,Pin_1*%
%TO.N,trg*%
X149860000Y-88900000D03*
%TD*%
%TO.P,J2,1,Pin_1*%
%TO.N,GND*%
X149860000Y-83820000D03*
%TD*%
D11*
%TO.N,GND*%
X158840000Y-142630000D03*
X163950000Y-136130000D03*
X184240000Y-142630000D03*
%TO.N,VCC*%
X157335000Y-144895000D03*
X153525000Y-139945000D03*
%TO.N,GND*%
X184150000Y-145880000D03*
%TO.N,VCC*%
X191625000Y-139945000D03*
X182735000Y-144895000D03*
%TO.N,GND*%
X182150000Y-141380000D03*
X189350000Y-136130000D03*
X158750000Y-145880000D03*
X176650000Y-145880000D03*
%TO.N,VCC*%
X195435000Y-144895000D03*
%TO.N,GND*%
X171450000Y-145880000D03*
X196850000Y-145880000D03*
X151250000Y-145880000D03*
%TO.N,VCC*%
X166225000Y-139945000D03*
%TO.N,GND*%
X163950000Y-145880000D03*
%TO.N,VCC*%
X178925000Y-139945000D03*
%TO.N,GND*%
X156750000Y-141380000D03*
X194850000Y-141380000D03*
X171540000Y-142630000D03*
%TO.N,VCC*%
X170035000Y-144895000D03*
%TO.N,GND*%
X176650000Y-136130000D03*
X169450000Y-141380000D03*
X196940000Y-142630000D03*
X151250000Y-136130000D03*
X189350000Y-145880000D03*
X158840000Y-128660000D03*
X163950000Y-122160000D03*
X184240000Y-128660000D03*
%TO.N,VCC*%
X157335000Y-130925000D03*
X153525000Y-125975000D03*
%TO.N,GND*%
X184150000Y-131910000D03*
%TO.N,VCC*%
X191625000Y-125975000D03*
X182735000Y-130925000D03*
%TO.N,GND*%
X182150000Y-127410000D03*
X189350000Y-122160000D03*
X158750000Y-131910000D03*
X176650000Y-131910000D03*
%TO.N,VCC*%
X195435000Y-130925000D03*
%TO.N,GND*%
X171450000Y-131910000D03*
X196850000Y-131910000D03*
X151250000Y-131910000D03*
%TO.N,VCC*%
X166225000Y-125975000D03*
%TO.N,GND*%
X163950000Y-131910000D03*
%TO.N,VCC*%
X178925000Y-125975000D03*
%TO.N,GND*%
X156750000Y-127410000D03*
X194850000Y-127410000D03*
X171540000Y-128660000D03*
%TO.N,VCC*%
X170035000Y-130925000D03*
%TO.N,GND*%
X176650000Y-122160000D03*
X169450000Y-127410000D03*
X196940000Y-128660000D03*
X151250000Y-122160000D03*
X189350000Y-131910000D03*
X158840000Y-114690000D03*
X163950000Y-108190000D03*
X184240000Y-114690000D03*
%TO.N,VCC*%
X157335000Y-116955000D03*
X153525000Y-112005000D03*
%TO.N,GND*%
X184150000Y-117940000D03*
%TO.N,VCC*%
X191625000Y-112005000D03*
X182735000Y-116955000D03*
%TO.N,GND*%
X182150000Y-113440000D03*
X189350000Y-108190000D03*
X158750000Y-117940000D03*
X176650000Y-117940000D03*
%TO.N,VCC*%
X195435000Y-116955000D03*
%TO.N,GND*%
X171450000Y-117940000D03*
X196850000Y-117940000D03*
X151250000Y-117940000D03*
%TO.N,VCC*%
X166225000Y-112005000D03*
%TO.N,GND*%
X163950000Y-117940000D03*
%TO.N,VCC*%
X178925000Y-112005000D03*
%TO.N,GND*%
X156750000Y-113440000D03*
X194850000Y-113440000D03*
X171540000Y-114690000D03*
%TO.N,VCC*%
X170035000Y-116955000D03*
%TO.N,GND*%
X176650000Y-108190000D03*
X169450000Y-113440000D03*
X196940000Y-114690000D03*
X151250000Y-108190000D03*
X189350000Y-117940000D03*
X158840000Y-100720000D03*
X163950000Y-94220000D03*
X184240000Y-100720000D03*
%TO.N,VCC*%
X157335000Y-102985000D03*
X153525000Y-98035000D03*
%TO.N,GND*%
X184150000Y-103970000D03*
%TO.N,VCC*%
X191625000Y-98035000D03*
X182735000Y-102985000D03*
%TO.N,GND*%
X182150000Y-99470000D03*
X189350000Y-94220000D03*
X158750000Y-103970000D03*
X176650000Y-103970000D03*
%TO.N,VCC*%
X195435000Y-102985000D03*
%TO.N,GND*%
X171450000Y-103970000D03*
X196850000Y-103970000D03*
X151250000Y-103970000D03*
%TO.N,VCC*%
X166225000Y-98035000D03*
%TO.N,GND*%
X163950000Y-103970000D03*
%TO.N,VCC*%
X178925000Y-98035000D03*
%TO.N,GND*%
X156750000Y-99470000D03*
X194850000Y-99470000D03*
X171540000Y-100720000D03*
%TO.N,VCC*%
X170035000Y-102985000D03*
%TO.N,GND*%
X176650000Y-94220000D03*
X169450000Y-99470000D03*
X196940000Y-100720000D03*
X151250000Y-94220000D03*
X189350000Y-103970000D03*
X196940000Y-86750000D03*
%TO.N,VCC*%
X195435000Y-89015000D03*
X191625000Y-84065000D03*
%TO.N,GND*%
X196850000Y-90000000D03*
X189350000Y-90000000D03*
X194850000Y-85500000D03*
X189350000Y-80250000D03*
X184240000Y-86750000D03*
%TO.N,VCC*%
X182735000Y-89015000D03*
X178925000Y-84065000D03*
%TO.N,GND*%
X184150000Y-90000000D03*
X176650000Y-90000000D03*
X182150000Y-85500000D03*
X176650000Y-80250000D03*
X171540000Y-86750000D03*
%TO.N,VCC*%
X170035000Y-89015000D03*
X166225000Y-84065000D03*
%TO.N,GND*%
X171450000Y-90000000D03*
X163950000Y-90000000D03*
X169450000Y-85500000D03*
X163950000Y-80250000D03*
X158840000Y-86750000D03*
X156750000Y-85500000D03*
X151250000Y-80250000D03*
X151250000Y-90000000D03*
X158750000Y-90000000D03*
%TO.N,VCC*%
X153525000Y-84065000D03*
X157335000Y-89015000D03*
%TD*%
D12*
%TO.N,VCC*%
X195435000Y-144895000D02*
X195435000Y-144865000D01*
X157335000Y-144895000D02*
X157335000Y-144865000D01*
X166225000Y-141055000D02*
X166225000Y-139945000D01*
X178925000Y-141055000D02*
X178925000Y-139945000D01*
X182735000Y-144895000D02*
X182735000Y-144865000D01*
X157335000Y-144865000D02*
X153525000Y-141055000D01*
X153525000Y-141055000D02*
X153525000Y-139945000D01*
X170035000Y-144865000D02*
X166225000Y-141055000D01*
X170035000Y-144895000D02*
X170035000Y-144865000D01*
X182735000Y-144865000D02*
X178925000Y-141055000D01*
X191625000Y-141055000D02*
X191625000Y-139945000D01*
X195435000Y-144865000D02*
X191625000Y-141055000D01*
X195435000Y-130925000D02*
X195435000Y-130895000D01*
X157335000Y-130925000D02*
X157335000Y-130895000D01*
X166225000Y-127085000D02*
X166225000Y-125975000D01*
X178925000Y-127085000D02*
X178925000Y-125975000D01*
X182735000Y-130925000D02*
X182735000Y-130895000D01*
X157335000Y-130895000D02*
X153525000Y-127085000D01*
X153525000Y-127085000D02*
X153525000Y-125975000D01*
X170035000Y-130895000D02*
X166225000Y-127085000D01*
X170035000Y-130925000D02*
X170035000Y-130895000D01*
X182735000Y-130895000D02*
X178925000Y-127085000D01*
X191625000Y-127085000D02*
X191625000Y-125975000D01*
X195435000Y-130895000D02*
X191625000Y-127085000D01*
X195435000Y-116955000D02*
X195435000Y-116925000D01*
X157335000Y-116955000D02*
X157335000Y-116925000D01*
X166225000Y-113115000D02*
X166225000Y-112005000D01*
X178925000Y-113115000D02*
X178925000Y-112005000D01*
X182735000Y-116955000D02*
X182735000Y-116925000D01*
X157335000Y-116925000D02*
X153525000Y-113115000D01*
X153525000Y-113115000D02*
X153525000Y-112005000D01*
X170035000Y-116925000D02*
X166225000Y-113115000D01*
X170035000Y-116955000D02*
X170035000Y-116925000D01*
X182735000Y-116925000D02*
X178925000Y-113115000D01*
X191625000Y-113115000D02*
X191625000Y-112005000D01*
X195435000Y-116925000D02*
X191625000Y-113115000D01*
X195435000Y-102985000D02*
X195435000Y-102955000D01*
X157335000Y-102985000D02*
X157335000Y-102955000D01*
X166225000Y-99145000D02*
X166225000Y-98035000D01*
X178925000Y-99145000D02*
X178925000Y-98035000D01*
X182735000Y-102985000D02*
X182735000Y-102955000D01*
X157335000Y-102955000D02*
X153525000Y-99145000D01*
X153525000Y-99145000D02*
X153525000Y-98035000D01*
X170035000Y-102955000D02*
X166225000Y-99145000D01*
X170035000Y-102985000D02*
X170035000Y-102955000D01*
X182735000Y-102955000D02*
X178925000Y-99145000D01*
X191625000Y-99145000D02*
X191625000Y-98035000D01*
X195435000Y-102955000D02*
X191625000Y-99145000D01*
X195435000Y-89015000D02*
X195435000Y-88985000D01*
X195435000Y-88985000D02*
X191625000Y-85175000D01*
X191625000Y-85175000D02*
X191625000Y-84065000D01*
X182735000Y-89015000D02*
X182735000Y-88985000D01*
X182735000Y-88985000D02*
X178925000Y-85175000D01*
X178925000Y-85175000D02*
X178925000Y-84065000D01*
X170035000Y-89015000D02*
X170035000Y-88985000D01*
X170035000Y-88985000D02*
X166225000Y-85175000D01*
X166225000Y-85175000D02*
X166225000Y-84065000D01*
X157335000Y-89015000D02*
X157335000Y-88985000D01*
X157335000Y-88985000D02*
X153525000Y-85175000D01*
X153525000Y-85175000D02*
X153525000Y-84065000D01*
%TD*%
%TA.AperFunction,Conductor*%
%TO.N,GND*%
G36*
X159963039Y-79260185D02*
G01*
X160008794Y-79312989D01*
X160020000Y-79364500D01*
X160020000Y-82645500D01*
X160000315Y-82712539D01*
X159947511Y-82758294D01*
X159896000Y-82769500D01*
X159150247Y-82769500D01*
X159091770Y-82781131D01*
X159091769Y-82781132D01*
X159025447Y-82825447D01*
X158981132Y-82891769D01*
X158981131Y-82891770D01*
X158969500Y-82950247D01*
X158969500Y-84689752D01*
X158981131Y-84748229D01*
X158981132Y-84748230D01*
X159025447Y-84814552D01*
X159091769Y-84858867D01*
X159091770Y-84858868D01*
X159150247Y-84870499D01*
X159150250Y-84870500D01*
X159896000Y-84870500D01*
X159963039Y-84890185D01*
X160008794Y-84942989D01*
X160020000Y-84994500D01*
X160020000Y-87725500D01*
X160000315Y-87792539D01*
X159947511Y-87838294D01*
X159896000Y-87849500D01*
X159150247Y-87849500D01*
X159091770Y-87861131D01*
X159091769Y-87861132D01*
X159025447Y-87905447D01*
X158981132Y-87971769D01*
X158981131Y-87971770D01*
X158969500Y-88030247D01*
X158969500Y-89769752D01*
X158981131Y-89828229D01*
X158981132Y-89828230D01*
X159025447Y-89894552D01*
X159091769Y-89938867D01*
X159091770Y-89938868D01*
X159150247Y-89950499D01*
X159150250Y-89950500D01*
X159896000Y-89950500D01*
X159963039Y-89970185D01*
X160008794Y-90022989D01*
X160020000Y-90074500D01*
X160020000Y-91316000D01*
X160000315Y-91383039D01*
X159947511Y-91428794D01*
X159896000Y-91440000D01*
X149984000Y-91440000D01*
X149916961Y-91420315D01*
X149871206Y-91367511D01*
X149860000Y-91316000D01*
X149860000Y-90074500D01*
X149879685Y-90007461D01*
X149932489Y-89961706D01*
X149984000Y-89950500D01*
X150729750Y-89950500D01*
X150729751Y-89950499D01*
X150744568Y-89947552D01*
X150788229Y-89938868D01*
X150788229Y-89938867D01*
X150788231Y-89938867D01*
X150854552Y-89894552D01*
X150898867Y-89828231D01*
X150898867Y-89828229D01*
X150898868Y-89828229D01*
X150910499Y-89769752D01*
X150910500Y-89769750D01*
X150910500Y-88030249D01*
X150910499Y-88030247D01*
X150898868Y-87971770D01*
X150898867Y-87971769D01*
X150854552Y-87905447D01*
X150788230Y-87861132D01*
X150788229Y-87861131D01*
X150729752Y-87849500D01*
X150729748Y-87849500D01*
X149984000Y-87849500D01*
X149916961Y-87829815D01*
X149871206Y-87777011D01*
X149860000Y-87725500D01*
X149860000Y-85000000D01*
X149860000Y-84320000D01*
X149925826Y-84320000D01*
X150052993Y-84285925D01*
X150110000Y-84253012D01*
X150110000Y-84870000D01*
X150729699Y-84870000D01*
X150729702Y-84869999D01*
X150788033Y-84858397D01*
X150788034Y-84858396D01*
X150854191Y-84814191D01*
X150898396Y-84748034D01*
X150898397Y-84748033D01*
X150909999Y-84689702D01*
X150910000Y-84689699D01*
X150910000Y-84070000D01*
X150293012Y-84070000D01*
X150325925Y-84012993D01*
X150329646Y-83999108D01*
X153024500Y-83999108D01*
X153024500Y-85240891D01*
X153058608Y-85368187D01*
X153091554Y-85425250D01*
X153124500Y-85482314D01*
X153124502Y-85482316D01*
X156881973Y-89239787D01*
X156901678Y-89265467D01*
X156933122Y-89319928D01*
X156934500Y-89322314D01*
X157027686Y-89415500D01*
X157141814Y-89481392D01*
X157269108Y-89515500D01*
X157269110Y-89515500D01*
X157400890Y-89515500D01*
X157400892Y-89515500D01*
X157528186Y-89481392D01*
X157642314Y-89415500D01*
X157735500Y-89322314D01*
X157801392Y-89208186D01*
X157835500Y-89080892D01*
X157835500Y-88949108D01*
X157835500Y-88919108D01*
X157801392Y-88791814D01*
X157735500Y-88677686D01*
X157642314Y-88584500D01*
X154061819Y-85004005D01*
X154028334Y-84942682D01*
X154025500Y-84916324D01*
X154025500Y-83999110D01*
X154025500Y-83999108D01*
X153991392Y-83871814D01*
X153925500Y-83757686D01*
X153832314Y-83664500D01*
X153775250Y-83631554D01*
X153718187Y-83598608D01*
X153611418Y-83570000D01*
X153590892Y-83564500D01*
X153459108Y-83564500D01*
X153331812Y-83598608D01*
X153217686Y-83664500D01*
X153217683Y-83664502D01*
X153124502Y-83757683D01*
X153124500Y-83757686D01*
X153058608Y-83871812D01*
X153024500Y-83999108D01*
X150329646Y-83999108D01*
X150360000Y-83885826D01*
X150360000Y-83754174D01*
X150325925Y-83627007D01*
X150293012Y-83570000D01*
X150910000Y-83570000D01*
X150910000Y-82950301D01*
X150909999Y-82950297D01*
X150898397Y-82891966D01*
X150898396Y-82891965D01*
X150854191Y-82825808D01*
X150788034Y-82781603D01*
X150788033Y-82781602D01*
X150729702Y-82770000D01*
X150110000Y-82770000D01*
X150110000Y-83386988D01*
X150052993Y-83354075D01*
X149925826Y-83320000D01*
X149860000Y-83320000D01*
X149860000Y-79364500D01*
X149879685Y-79297461D01*
X149932489Y-79251706D01*
X149984000Y-79240500D01*
X159896000Y-79240500D01*
X159963039Y-79260185D01*
G37*
%TD.AperFunction*%
%TD*%
%TA.AperFunction,Conductor*%
%TO.N,GND*%
G36*
X172663039Y-79260185D02*
G01*
X172708794Y-79312989D01*
X172720000Y-79364500D01*
X172720000Y-82645500D01*
X172700315Y-82712539D01*
X172647511Y-82758294D01*
X172596000Y-82769500D01*
X171850247Y-82769500D01*
X171791770Y-82781131D01*
X171791769Y-82781132D01*
X171725447Y-82825447D01*
X171681132Y-82891769D01*
X171681131Y-82891770D01*
X171669500Y-82950247D01*
X171669500Y-84689752D01*
X171681131Y-84748229D01*
X171681132Y-84748230D01*
X171725447Y-84814552D01*
X171791769Y-84858867D01*
X171791770Y-84858868D01*
X171850247Y-84870499D01*
X171850250Y-84870500D01*
X172596000Y-84870500D01*
X172663039Y-84890185D01*
X172708794Y-84942989D01*
X172720000Y-84994500D01*
X172720000Y-87725500D01*
X172700315Y-87792539D01*
X172647511Y-87838294D01*
X172596000Y-87849500D01*
X171850247Y-87849500D01*
X171791770Y-87861131D01*
X171791769Y-87861132D01*
X171725447Y-87905447D01*
X171681132Y-87971769D01*
X171681131Y-87971770D01*
X171669500Y-88030247D01*
X171669500Y-89769752D01*
X171681131Y-89828229D01*
X171681132Y-89828230D01*
X171725447Y-89894552D01*
X171791769Y-89938867D01*
X171791770Y-89938868D01*
X171850247Y-89950499D01*
X171850250Y-89950500D01*
X172596000Y-89950500D01*
X172663039Y-89970185D01*
X172708794Y-90022989D01*
X172720000Y-90074500D01*
X172720000Y-91316000D01*
X172700315Y-91383039D01*
X172647511Y-91428794D01*
X172596000Y-91440000D01*
X162684000Y-91440000D01*
X162616961Y-91420315D01*
X162571206Y-91367511D01*
X162560000Y-91316000D01*
X162560000Y-90074500D01*
X162579685Y-90007461D01*
X162632489Y-89961706D01*
X162684000Y-89950500D01*
X163429750Y-89950500D01*
X163429751Y-89950499D01*
X163444568Y-89947552D01*
X163488229Y-89938868D01*
X163488229Y-89938867D01*
X163488231Y-89938867D01*
X163554552Y-89894552D01*
X163598867Y-89828231D01*
X163598867Y-89828229D01*
X163598868Y-89828229D01*
X163610499Y-89769752D01*
X163610500Y-89769750D01*
X163610500Y-88030249D01*
X163610499Y-88030247D01*
X163598868Y-87971770D01*
X163598867Y-87971769D01*
X163554552Y-87905447D01*
X163488230Y-87861132D01*
X163488229Y-87861131D01*
X163429752Y-87849500D01*
X163429748Y-87849500D01*
X162684000Y-87849500D01*
X162616961Y-87829815D01*
X162571206Y-87777011D01*
X162560000Y-87725500D01*
X162560000Y-85000000D01*
X162560000Y-84320000D01*
X162625826Y-84320000D01*
X162752993Y-84285925D01*
X162810000Y-84253012D01*
X162810000Y-84870000D01*
X163429699Y-84870000D01*
X163429702Y-84869999D01*
X163488033Y-84858397D01*
X163488034Y-84858396D01*
X163554191Y-84814191D01*
X163598396Y-84748034D01*
X163598397Y-84748033D01*
X163609999Y-84689702D01*
X163610000Y-84689699D01*
X163610000Y-84070000D01*
X162993012Y-84070000D01*
X163025925Y-84012993D01*
X163029646Y-83999108D01*
X165724500Y-83999108D01*
X165724500Y-85240891D01*
X165758608Y-85368187D01*
X165791554Y-85425250D01*
X165824500Y-85482314D01*
X165824502Y-85482316D01*
X169581973Y-89239787D01*
X169601678Y-89265467D01*
X169633122Y-89319928D01*
X169634500Y-89322314D01*
X169727686Y-89415500D01*
X169841814Y-89481392D01*
X169969108Y-89515500D01*
X169969110Y-89515500D01*
X170100890Y-89515500D01*
X170100892Y-89515500D01*
X170228186Y-89481392D01*
X170342314Y-89415500D01*
X170435500Y-89322314D01*
X170501392Y-89208186D01*
X170535500Y-89080892D01*
X170535500Y-88949108D01*
X170535500Y-88919108D01*
X170501392Y-88791814D01*
X170435500Y-88677686D01*
X170342314Y-88584500D01*
X166761819Y-85004005D01*
X166728334Y-84942682D01*
X166725500Y-84916324D01*
X166725500Y-83999110D01*
X166725500Y-83999108D01*
X166691392Y-83871814D01*
X166625500Y-83757686D01*
X166532314Y-83664500D01*
X166475250Y-83631554D01*
X166418187Y-83598608D01*
X166311418Y-83570000D01*
X166290892Y-83564500D01*
X166159108Y-83564500D01*
X166031812Y-83598608D01*
X165917686Y-83664500D01*
X165917683Y-83664502D01*
X165824502Y-83757683D01*
X165824500Y-83757686D01*
X165758608Y-83871812D01*
X165724500Y-83999108D01*
X163029646Y-83999108D01*
X163060000Y-83885826D01*
X163060000Y-83754174D01*
X163025925Y-83627007D01*
X162993012Y-83570000D01*
X163610000Y-83570000D01*
X163610000Y-82950301D01*
X163609999Y-82950297D01*
X163598397Y-82891966D01*
X163598396Y-82891965D01*
X163554191Y-82825808D01*
X163488034Y-82781603D01*
X163488033Y-82781602D01*
X163429702Y-82770000D01*
X162810000Y-82770000D01*
X162810000Y-83386988D01*
X162752993Y-83354075D01*
X162625826Y-83320000D01*
X162560000Y-83320000D01*
X162560000Y-79364500D01*
X162579685Y-79297461D01*
X162632489Y-79251706D01*
X162684000Y-79240500D01*
X172596000Y-79240500D01*
X172663039Y-79260185D01*
G37*
%TD.AperFunction*%
%TD*%
%TA.AperFunction,Conductor*%
%TO.N,GND*%
G36*
X185363039Y-79260185D02*
G01*
X185408794Y-79312989D01*
X185420000Y-79364500D01*
X185420000Y-82645500D01*
X185400315Y-82712539D01*
X185347511Y-82758294D01*
X185296000Y-82769500D01*
X184550247Y-82769500D01*
X184491770Y-82781131D01*
X184491769Y-82781132D01*
X184425447Y-82825447D01*
X184381132Y-82891769D01*
X184381131Y-82891770D01*
X184369500Y-82950247D01*
X184369500Y-84689752D01*
X184381131Y-84748229D01*
X184381132Y-84748230D01*
X184425447Y-84814552D01*
X184491769Y-84858867D01*
X184491770Y-84858868D01*
X184550247Y-84870499D01*
X184550250Y-84870500D01*
X185296000Y-84870500D01*
X185363039Y-84890185D01*
X185408794Y-84942989D01*
X185420000Y-84994500D01*
X185420000Y-87725500D01*
X185400315Y-87792539D01*
X185347511Y-87838294D01*
X185296000Y-87849500D01*
X184550247Y-87849500D01*
X184491770Y-87861131D01*
X184491769Y-87861132D01*
X184425447Y-87905447D01*
X184381132Y-87971769D01*
X184381131Y-87971770D01*
X184369500Y-88030247D01*
X184369500Y-89769752D01*
X184381131Y-89828229D01*
X184381132Y-89828230D01*
X184425447Y-89894552D01*
X184491769Y-89938867D01*
X184491770Y-89938868D01*
X184550247Y-89950499D01*
X184550250Y-89950500D01*
X185296000Y-89950500D01*
X185363039Y-89970185D01*
X185408794Y-90022989D01*
X185420000Y-90074500D01*
X185420000Y-91316000D01*
X185400315Y-91383039D01*
X185347511Y-91428794D01*
X185296000Y-91440000D01*
X175384000Y-91440000D01*
X175316961Y-91420315D01*
X175271206Y-91367511D01*
X175260000Y-91316000D01*
X175260000Y-90074500D01*
X175279685Y-90007461D01*
X175332489Y-89961706D01*
X175384000Y-89950500D01*
X176129750Y-89950500D01*
X176129751Y-89950499D01*
X176144568Y-89947552D01*
X176188229Y-89938868D01*
X176188229Y-89938867D01*
X176188231Y-89938867D01*
X176254552Y-89894552D01*
X176298867Y-89828231D01*
X176298867Y-89828229D01*
X176298868Y-89828229D01*
X176310499Y-89769752D01*
X176310500Y-89769750D01*
X176310500Y-88030249D01*
X176310499Y-88030247D01*
X176298868Y-87971770D01*
X176298867Y-87971769D01*
X176254552Y-87905447D01*
X176188230Y-87861132D01*
X176188229Y-87861131D01*
X176129752Y-87849500D01*
X176129748Y-87849500D01*
X175384000Y-87849500D01*
X175316961Y-87829815D01*
X175271206Y-87777011D01*
X175260000Y-87725500D01*
X175260000Y-85000000D01*
X175260000Y-84320000D01*
X175325826Y-84320000D01*
X175452993Y-84285925D01*
X175510000Y-84253012D01*
X175510000Y-84870000D01*
X176129699Y-84870000D01*
X176129702Y-84869999D01*
X176188033Y-84858397D01*
X176188034Y-84858396D01*
X176254191Y-84814191D01*
X176298396Y-84748034D01*
X176298397Y-84748033D01*
X176309999Y-84689702D01*
X176310000Y-84689699D01*
X176310000Y-84070000D01*
X175693012Y-84070000D01*
X175725925Y-84012993D01*
X175729646Y-83999108D01*
X178424500Y-83999108D01*
X178424500Y-85240891D01*
X178458608Y-85368187D01*
X178491554Y-85425250D01*
X178524500Y-85482314D01*
X178524502Y-85482316D01*
X182281973Y-89239787D01*
X182301678Y-89265467D01*
X182333122Y-89319928D01*
X182334500Y-89322314D01*
X182427686Y-89415500D01*
X182541814Y-89481392D01*
X182669108Y-89515500D01*
X182669110Y-89515500D01*
X182800890Y-89515500D01*
X182800892Y-89515500D01*
X182928186Y-89481392D01*
X183042314Y-89415500D01*
X183135500Y-89322314D01*
X183201392Y-89208186D01*
X183235500Y-89080892D01*
X183235500Y-88949108D01*
X183235500Y-88919108D01*
X183201392Y-88791814D01*
X183135500Y-88677686D01*
X183042314Y-88584500D01*
X179461819Y-85004005D01*
X179428334Y-84942682D01*
X179425500Y-84916324D01*
X179425500Y-83999110D01*
X179425500Y-83999108D01*
X179391392Y-83871814D01*
X179325500Y-83757686D01*
X179232314Y-83664500D01*
X179175250Y-83631554D01*
X179118187Y-83598608D01*
X179011418Y-83570000D01*
X178990892Y-83564500D01*
X178859108Y-83564500D01*
X178731812Y-83598608D01*
X178617686Y-83664500D01*
X178617683Y-83664502D01*
X178524502Y-83757683D01*
X178524500Y-83757686D01*
X178458608Y-83871812D01*
X178424500Y-83999108D01*
X175729646Y-83999108D01*
X175760000Y-83885826D01*
X175760000Y-83754174D01*
X175725925Y-83627007D01*
X175693012Y-83570000D01*
X176310000Y-83570000D01*
X176310000Y-82950301D01*
X176309999Y-82950297D01*
X176298397Y-82891966D01*
X176298396Y-82891965D01*
X176254191Y-82825808D01*
X176188034Y-82781603D01*
X176188033Y-82781602D01*
X176129702Y-82770000D01*
X175510000Y-82770000D01*
X175510000Y-83386988D01*
X175452993Y-83354075D01*
X175325826Y-83320000D01*
X175260000Y-83320000D01*
X175260000Y-79364500D01*
X175279685Y-79297461D01*
X175332489Y-79251706D01*
X175384000Y-79240500D01*
X185296000Y-79240500D01*
X185363039Y-79260185D01*
G37*
%TD.AperFunction*%
%TD*%
%TA.AperFunction,Conductor*%
%TO.N,GND*%
G36*
X198063039Y-79260185D02*
G01*
X198108794Y-79312989D01*
X198120000Y-79364500D01*
X198120000Y-82645500D01*
X198100315Y-82712539D01*
X198047511Y-82758294D01*
X197996000Y-82769500D01*
X197250247Y-82769500D01*
X197191770Y-82781131D01*
X197191769Y-82781132D01*
X197125447Y-82825447D01*
X197081132Y-82891769D01*
X197081131Y-82891770D01*
X197069500Y-82950247D01*
X197069500Y-84689752D01*
X197081131Y-84748229D01*
X197081132Y-84748230D01*
X197125447Y-84814552D01*
X197191769Y-84858867D01*
X197191770Y-84858868D01*
X197250247Y-84870499D01*
X197250250Y-84870500D01*
X197996000Y-84870500D01*
X198063039Y-84890185D01*
X198108794Y-84942989D01*
X198120000Y-84994500D01*
X198120000Y-87725500D01*
X198100315Y-87792539D01*
X198047511Y-87838294D01*
X197996000Y-87849500D01*
X197250247Y-87849500D01*
X197191770Y-87861131D01*
X197191769Y-87861132D01*
X197125447Y-87905447D01*
X197081132Y-87971769D01*
X197081131Y-87971770D01*
X197069500Y-88030247D01*
X197069500Y-89769752D01*
X197081131Y-89828229D01*
X197081132Y-89828230D01*
X197125447Y-89894552D01*
X197191769Y-89938867D01*
X197191770Y-89938868D01*
X197250247Y-89950499D01*
X197250250Y-89950500D01*
X197996000Y-89950500D01*
X198063039Y-89970185D01*
X198108794Y-90022989D01*
X198120000Y-90074500D01*
X198120000Y-91316000D01*
X198100315Y-91383039D01*
X198047511Y-91428794D01*
X197996000Y-91440000D01*
X188084000Y-91440000D01*
X188016961Y-91420315D01*
X187971206Y-91367511D01*
X187960000Y-91316000D01*
X187960000Y-90074500D01*
X187979685Y-90007461D01*
X188032489Y-89961706D01*
X188084000Y-89950500D01*
X188829750Y-89950500D01*
X188829751Y-89950499D01*
X188844568Y-89947552D01*
X188888229Y-89938868D01*
X188888229Y-89938867D01*
X188888231Y-89938867D01*
X188954552Y-89894552D01*
X188998867Y-89828231D01*
X188998867Y-89828229D01*
X188998868Y-89828229D01*
X189010499Y-89769752D01*
X189010500Y-89769750D01*
X189010500Y-88030249D01*
X189010499Y-88030247D01*
X188998868Y-87971770D01*
X188998867Y-87971769D01*
X188954552Y-87905447D01*
X188888230Y-87861132D01*
X188888229Y-87861131D01*
X188829752Y-87849500D01*
X188829748Y-87849500D01*
X188084000Y-87849500D01*
X188016961Y-87829815D01*
X187971206Y-87777011D01*
X187960000Y-87725500D01*
X187960000Y-85000000D01*
X187960000Y-84320000D01*
X188025826Y-84320000D01*
X188152993Y-84285925D01*
X188210000Y-84253012D01*
X188210000Y-84870000D01*
X188829699Y-84870000D01*
X188829702Y-84869999D01*
X188888033Y-84858397D01*
X188888034Y-84858396D01*
X188954191Y-84814191D01*
X188998396Y-84748034D01*
X188998397Y-84748033D01*
X189009999Y-84689702D01*
X189010000Y-84689699D01*
X189010000Y-84070000D01*
X188393012Y-84070000D01*
X188425925Y-84012993D01*
X188429646Y-83999108D01*
X191124500Y-83999108D01*
X191124500Y-85240891D01*
X191158608Y-85368187D01*
X191191554Y-85425250D01*
X191224500Y-85482314D01*
X191224502Y-85482316D01*
X194981973Y-89239787D01*
X195001678Y-89265467D01*
X195033122Y-89319928D01*
X195034500Y-89322314D01*
X195127686Y-89415500D01*
X195241814Y-89481392D01*
X195369108Y-89515500D01*
X195369110Y-89515500D01*
X195500890Y-89515500D01*
X195500892Y-89515500D01*
X195628186Y-89481392D01*
X195742314Y-89415500D01*
X195835500Y-89322314D01*
X195901392Y-89208186D01*
X195935500Y-89080892D01*
X195935500Y-88949108D01*
X195935500Y-88919108D01*
X195901392Y-88791814D01*
X195835500Y-88677686D01*
X195742314Y-88584500D01*
X192161819Y-85004005D01*
X192128334Y-84942682D01*
X192125500Y-84916324D01*
X192125500Y-83999110D01*
X192125500Y-83999108D01*
X192091392Y-83871814D01*
X192025500Y-83757686D01*
X191932314Y-83664500D01*
X191875250Y-83631554D01*
X191818187Y-83598608D01*
X191711418Y-83570000D01*
X191690892Y-83564500D01*
X191559108Y-83564500D01*
X191431812Y-83598608D01*
X191317686Y-83664500D01*
X191317683Y-83664502D01*
X191224502Y-83757683D01*
X191224500Y-83757686D01*
X191158608Y-83871812D01*
X191124500Y-83999108D01*
X188429646Y-83999108D01*
X188460000Y-83885826D01*
X188460000Y-83754174D01*
X188425925Y-83627007D01*
X188393012Y-83570000D01*
X189010000Y-83570000D01*
X189010000Y-82950301D01*
X189009999Y-82950297D01*
X188998397Y-82891966D01*
X188998396Y-82891965D01*
X188954191Y-82825808D01*
X188888034Y-82781603D01*
X188888033Y-82781602D01*
X188829702Y-82770000D01*
X188210000Y-82770000D01*
X188210000Y-83386988D01*
X188152993Y-83354075D01*
X188025826Y-83320000D01*
X187960000Y-83320000D01*
X187960000Y-79364500D01*
X187979685Y-79297461D01*
X188032489Y-79251706D01*
X188084000Y-79240500D01*
X197996000Y-79240500D01*
X198063039Y-79260185D01*
G37*
%TD.AperFunction*%
%TD*%
%TA.AperFunction,Conductor*%
%TO.N,GND*%
G36*
X172663039Y-92729685D02*
G01*
X172708794Y-92782489D01*
X172720000Y-92834000D01*
X172720000Y-96615500D01*
X172700315Y-96682539D01*
X172647511Y-96728294D01*
X172596000Y-96739500D01*
X171850247Y-96739500D01*
X171791770Y-96751131D01*
X171791769Y-96751132D01*
X171725447Y-96795447D01*
X171681132Y-96861769D01*
X171681131Y-96861770D01*
X171669500Y-96920247D01*
X171669500Y-98659752D01*
X171681131Y-98718229D01*
X171681132Y-98718230D01*
X171725447Y-98784552D01*
X171791769Y-98828867D01*
X171791770Y-98828868D01*
X171850247Y-98840499D01*
X171850250Y-98840500D01*
X172596000Y-98840500D01*
X172663039Y-98860185D01*
X172708794Y-98912989D01*
X172720000Y-98964500D01*
X172720000Y-101695500D01*
X172700315Y-101762539D01*
X172647511Y-101808294D01*
X172596000Y-101819500D01*
X171850247Y-101819500D01*
X171791770Y-101831131D01*
X171791769Y-101831132D01*
X171725447Y-101875447D01*
X171681132Y-101941769D01*
X171681131Y-101941770D01*
X171669500Y-102000247D01*
X171669500Y-103739752D01*
X171681131Y-103798229D01*
X171681132Y-103798230D01*
X171725447Y-103864552D01*
X171791769Y-103908867D01*
X171791770Y-103908868D01*
X171850247Y-103920499D01*
X171850250Y-103920500D01*
X172596000Y-103920500D01*
X172663039Y-103940185D01*
X172708794Y-103992989D01*
X172720000Y-104044500D01*
X172720000Y-105286000D01*
X172700315Y-105353039D01*
X172647511Y-105398794D01*
X172596000Y-105410000D01*
X162684000Y-105410000D01*
X162616961Y-105390315D01*
X162571206Y-105337511D01*
X162560000Y-105286000D01*
X162560000Y-104044500D01*
X162579685Y-103977461D01*
X162632489Y-103931706D01*
X162684000Y-103920500D01*
X163429750Y-103920500D01*
X163429751Y-103920499D01*
X163444568Y-103917552D01*
X163488229Y-103908868D01*
X163488229Y-103908867D01*
X163488231Y-103908867D01*
X163554552Y-103864552D01*
X163598867Y-103798231D01*
X163598867Y-103798229D01*
X163598868Y-103798229D01*
X163610499Y-103739752D01*
X163610500Y-103739750D01*
X163610500Y-102000249D01*
X163610499Y-102000247D01*
X163598868Y-101941770D01*
X163598867Y-101941769D01*
X163554552Y-101875447D01*
X163488230Y-101831132D01*
X163488229Y-101831131D01*
X163429752Y-101819500D01*
X163429748Y-101819500D01*
X162684000Y-101819500D01*
X162616961Y-101799815D01*
X162571206Y-101747011D01*
X162560000Y-101695500D01*
X162560000Y-98970000D01*
X162560000Y-98290000D01*
X162625826Y-98290000D01*
X162752993Y-98255925D01*
X162810000Y-98223012D01*
X162810000Y-98840000D01*
X163429699Y-98840000D01*
X163429702Y-98839999D01*
X163488033Y-98828397D01*
X163488034Y-98828396D01*
X163554191Y-98784191D01*
X163598396Y-98718034D01*
X163598397Y-98718033D01*
X163609999Y-98659702D01*
X163610000Y-98659699D01*
X163610000Y-98040000D01*
X162993012Y-98040000D01*
X163025925Y-97982993D01*
X163029646Y-97969108D01*
X165724500Y-97969108D01*
X165724500Y-99210891D01*
X165758608Y-99338187D01*
X165791554Y-99395250D01*
X165824500Y-99452314D01*
X165824502Y-99452316D01*
X169581973Y-103209787D01*
X169601678Y-103235467D01*
X169633122Y-103289928D01*
X169634500Y-103292314D01*
X169727686Y-103385500D01*
X169841814Y-103451392D01*
X169969108Y-103485500D01*
X169969110Y-103485500D01*
X170100890Y-103485500D01*
X170100892Y-103485500D01*
X170228186Y-103451392D01*
X170342314Y-103385500D01*
X170435500Y-103292314D01*
X170501392Y-103178186D01*
X170535500Y-103050892D01*
X170535500Y-102919108D01*
X170535500Y-102889108D01*
X170501392Y-102761814D01*
X170435500Y-102647686D01*
X170342314Y-102554500D01*
X166761819Y-98974005D01*
X166728334Y-98912682D01*
X166725500Y-98886324D01*
X166725500Y-97969110D01*
X166725500Y-97969108D01*
X166691392Y-97841814D01*
X166625500Y-97727686D01*
X166532314Y-97634500D01*
X166475250Y-97601554D01*
X166418187Y-97568608D01*
X166311418Y-97540000D01*
X166290892Y-97534500D01*
X166159108Y-97534500D01*
X166031812Y-97568608D01*
X165917686Y-97634500D01*
X165917683Y-97634502D01*
X165824502Y-97727683D01*
X165824500Y-97727686D01*
X165758608Y-97841812D01*
X165724500Y-97969108D01*
X163029646Y-97969108D01*
X163060000Y-97855826D01*
X163060000Y-97724174D01*
X163025925Y-97597007D01*
X162993012Y-97540000D01*
X163610000Y-97540000D01*
X163610000Y-96920301D01*
X163609999Y-96920297D01*
X163598397Y-96861966D01*
X163598396Y-96861965D01*
X163554191Y-96795808D01*
X163488034Y-96751603D01*
X163488033Y-96751602D01*
X163429702Y-96740000D01*
X162810000Y-96740000D01*
X162810000Y-97356988D01*
X162752993Y-97324075D01*
X162625826Y-97290000D01*
X162560000Y-97290000D01*
X162560000Y-92834000D01*
X162579685Y-92766961D01*
X162632489Y-92721206D01*
X162684000Y-92710000D01*
X172596000Y-92710000D01*
X172663039Y-92729685D01*
G37*
%TD.AperFunction*%
%TD*%
%TA.AperFunction,Conductor*%
%TO.N,GND*%
G36*
X185363039Y-92729685D02*
G01*
X185408794Y-92782489D01*
X185420000Y-92834000D01*
X185420000Y-96615500D01*
X185400315Y-96682539D01*
X185347511Y-96728294D01*
X185296000Y-96739500D01*
X184550247Y-96739500D01*
X184491770Y-96751131D01*
X184491769Y-96751132D01*
X184425447Y-96795447D01*
X184381132Y-96861769D01*
X184381131Y-96861770D01*
X184369500Y-96920247D01*
X184369500Y-98659752D01*
X184381131Y-98718229D01*
X184381132Y-98718230D01*
X184425447Y-98784552D01*
X184491769Y-98828867D01*
X184491770Y-98828868D01*
X184550247Y-98840499D01*
X184550250Y-98840500D01*
X185296000Y-98840500D01*
X185363039Y-98860185D01*
X185408794Y-98912989D01*
X185420000Y-98964500D01*
X185420000Y-101695500D01*
X185400315Y-101762539D01*
X185347511Y-101808294D01*
X185296000Y-101819500D01*
X184550247Y-101819500D01*
X184491770Y-101831131D01*
X184491769Y-101831132D01*
X184425447Y-101875447D01*
X184381132Y-101941769D01*
X184381131Y-101941770D01*
X184369500Y-102000247D01*
X184369500Y-103739752D01*
X184381131Y-103798229D01*
X184381132Y-103798230D01*
X184425447Y-103864552D01*
X184491769Y-103908867D01*
X184491770Y-103908868D01*
X184550247Y-103920499D01*
X184550250Y-103920500D01*
X185296000Y-103920500D01*
X185363039Y-103940185D01*
X185408794Y-103992989D01*
X185420000Y-104044500D01*
X185420000Y-105286000D01*
X185400315Y-105353039D01*
X185347511Y-105398794D01*
X185296000Y-105410000D01*
X175384000Y-105410000D01*
X175316961Y-105390315D01*
X175271206Y-105337511D01*
X175260000Y-105286000D01*
X175260000Y-104044500D01*
X175279685Y-103977461D01*
X175332489Y-103931706D01*
X175384000Y-103920500D01*
X176129750Y-103920500D01*
X176129751Y-103920499D01*
X176144568Y-103917552D01*
X176188229Y-103908868D01*
X176188229Y-103908867D01*
X176188231Y-103908867D01*
X176254552Y-103864552D01*
X176298867Y-103798231D01*
X176298867Y-103798229D01*
X176298868Y-103798229D01*
X176310499Y-103739752D01*
X176310500Y-103739750D01*
X176310500Y-102000249D01*
X176310499Y-102000247D01*
X176298868Y-101941770D01*
X176298867Y-101941769D01*
X176254552Y-101875447D01*
X176188230Y-101831132D01*
X176188229Y-101831131D01*
X176129752Y-101819500D01*
X176129748Y-101819500D01*
X175384000Y-101819500D01*
X175316961Y-101799815D01*
X175271206Y-101747011D01*
X175260000Y-101695500D01*
X175260000Y-98970000D01*
X175260000Y-98290000D01*
X175325826Y-98290000D01*
X175452993Y-98255925D01*
X175510000Y-98223012D01*
X175510000Y-98840000D01*
X176129699Y-98840000D01*
X176129702Y-98839999D01*
X176188033Y-98828397D01*
X176188034Y-98828396D01*
X176254191Y-98784191D01*
X176298396Y-98718034D01*
X176298397Y-98718033D01*
X176309999Y-98659702D01*
X176310000Y-98659699D01*
X176310000Y-98040000D01*
X175693012Y-98040000D01*
X175725925Y-97982993D01*
X175729646Y-97969108D01*
X178424500Y-97969108D01*
X178424500Y-99210891D01*
X178458608Y-99338187D01*
X178491554Y-99395250D01*
X178524500Y-99452314D01*
X178524502Y-99452316D01*
X182281973Y-103209787D01*
X182301678Y-103235467D01*
X182333122Y-103289928D01*
X182334500Y-103292314D01*
X182427686Y-103385500D01*
X182541814Y-103451392D01*
X182669108Y-103485500D01*
X182669110Y-103485500D01*
X182800890Y-103485500D01*
X182800892Y-103485500D01*
X182928186Y-103451392D01*
X183042314Y-103385500D01*
X183135500Y-103292314D01*
X183201392Y-103178186D01*
X183235500Y-103050892D01*
X183235500Y-102919108D01*
X183235500Y-102889108D01*
X183201392Y-102761814D01*
X183135500Y-102647686D01*
X183042314Y-102554500D01*
X179461819Y-98974005D01*
X179428334Y-98912682D01*
X179425500Y-98886324D01*
X179425500Y-97969110D01*
X179425500Y-97969108D01*
X179391392Y-97841814D01*
X179325500Y-97727686D01*
X179232314Y-97634500D01*
X179175250Y-97601554D01*
X179118187Y-97568608D01*
X179011418Y-97540000D01*
X178990892Y-97534500D01*
X178859108Y-97534500D01*
X178731812Y-97568608D01*
X178617686Y-97634500D01*
X178617683Y-97634502D01*
X178524502Y-97727683D01*
X178524500Y-97727686D01*
X178458608Y-97841812D01*
X178424500Y-97969108D01*
X175729646Y-97969108D01*
X175760000Y-97855826D01*
X175760000Y-97724174D01*
X175725925Y-97597007D01*
X175693012Y-97540000D01*
X176310000Y-97540000D01*
X176310000Y-96920301D01*
X176309999Y-96920297D01*
X176298397Y-96861966D01*
X176298396Y-96861965D01*
X176254191Y-96795808D01*
X176188034Y-96751603D01*
X176188033Y-96751602D01*
X176129702Y-96740000D01*
X175510000Y-96740000D01*
X175510000Y-97356988D01*
X175452993Y-97324075D01*
X175325826Y-97290000D01*
X175260000Y-97290000D01*
X175260000Y-92834000D01*
X175279685Y-92766961D01*
X175332489Y-92721206D01*
X175384000Y-92710000D01*
X185296000Y-92710000D01*
X185363039Y-92729685D01*
G37*
%TD.AperFunction*%
%TD*%
%TA.AperFunction,Conductor*%
%TO.N,GND*%
G36*
X198063039Y-92729685D02*
G01*
X198108794Y-92782489D01*
X198120000Y-92834000D01*
X198120000Y-96615500D01*
X198100315Y-96682539D01*
X198047511Y-96728294D01*
X197996000Y-96739500D01*
X197250247Y-96739500D01*
X197191770Y-96751131D01*
X197191769Y-96751132D01*
X197125447Y-96795447D01*
X197081132Y-96861769D01*
X197081131Y-96861770D01*
X197069500Y-96920247D01*
X197069500Y-98659752D01*
X197081131Y-98718229D01*
X197081132Y-98718230D01*
X197125447Y-98784552D01*
X197191769Y-98828867D01*
X197191770Y-98828868D01*
X197250247Y-98840499D01*
X197250250Y-98840500D01*
X197996000Y-98840500D01*
X198063039Y-98860185D01*
X198108794Y-98912989D01*
X198120000Y-98964500D01*
X198120000Y-101695500D01*
X198100315Y-101762539D01*
X198047511Y-101808294D01*
X197996000Y-101819500D01*
X197250247Y-101819500D01*
X197191770Y-101831131D01*
X197191769Y-101831132D01*
X197125447Y-101875447D01*
X197081132Y-101941769D01*
X197081131Y-101941770D01*
X197069500Y-102000247D01*
X197069500Y-103739752D01*
X197081131Y-103798229D01*
X197081132Y-103798230D01*
X197125447Y-103864552D01*
X197191769Y-103908867D01*
X197191770Y-103908868D01*
X197250247Y-103920499D01*
X197250250Y-103920500D01*
X197996000Y-103920500D01*
X198063039Y-103940185D01*
X198108794Y-103992989D01*
X198120000Y-104044500D01*
X198120000Y-105286000D01*
X198100315Y-105353039D01*
X198047511Y-105398794D01*
X197996000Y-105410000D01*
X188084000Y-105410000D01*
X188016961Y-105390315D01*
X187971206Y-105337511D01*
X187960000Y-105286000D01*
X187960000Y-104044500D01*
X187979685Y-103977461D01*
X188032489Y-103931706D01*
X188084000Y-103920500D01*
X188829750Y-103920500D01*
X188829751Y-103920499D01*
X188844568Y-103917552D01*
X188888229Y-103908868D01*
X188888229Y-103908867D01*
X188888231Y-103908867D01*
X188954552Y-103864552D01*
X188998867Y-103798231D01*
X188998867Y-103798229D01*
X188998868Y-103798229D01*
X189010499Y-103739752D01*
X189010500Y-103739750D01*
X189010500Y-102000249D01*
X189010499Y-102000247D01*
X188998868Y-101941770D01*
X188998867Y-101941769D01*
X188954552Y-101875447D01*
X188888230Y-101831132D01*
X188888229Y-101831131D01*
X188829752Y-101819500D01*
X188829748Y-101819500D01*
X188084000Y-101819500D01*
X188016961Y-101799815D01*
X187971206Y-101747011D01*
X187960000Y-101695500D01*
X187960000Y-98970000D01*
X187960000Y-98290000D01*
X188025826Y-98290000D01*
X188152993Y-98255925D01*
X188210000Y-98223012D01*
X188210000Y-98840000D01*
X188829699Y-98840000D01*
X188829702Y-98839999D01*
X188888033Y-98828397D01*
X188888034Y-98828396D01*
X188954191Y-98784191D01*
X188998396Y-98718034D01*
X188998397Y-98718033D01*
X189009999Y-98659702D01*
X189010000Y-98659699D01*
X189010000Y-98040000D01*
X188393012Y-98040000D01*
X188425925Y-97982993D01*
X188429646Y-97969108D01*
X191124500Y-97969108D01*
X191124500Y-99210891D01*
X191158608Y-99338187D01*
X191191554Y-99395250D01*
X191224500Y-99452314D01*
X191224502Y-99452316D01*
X194981973Y-103209787D01*
X195001678Y-103235467D01*
X195033122Y-103289928D01*
X195034500Y-103292314D01*
X195127686Y-103385500D01*
X195241814Y-103451392D01*
X195369108Y-103485500D01*
X195369110Y-103485500D01*
X195500890Y-103485500D01*
X195500892Y-103485500D01*
X195628186Y-103451392D01*
X195742314Y-103385500D01*
X195835500Y-103292314D01*
X195901392Y-103178186D01*
X195935500Y-103050892D01*
X195935500Y-102919108D01*
X195935500Y-102889108D01*
X195901392Y-102761814D01*
X195835500Y-102647686D01*
X195742314Y-102554500D01*
X192161819Y-98974005D01*
X192128334Y-98912682D01*
X192125500Y-98886324D01*
X192125500Y-97969110D01*
X192125500Y-97969108D01*
X192091392Y-97841814D01*
X192025500Y-97727686D01*
X191932314Y-97634500D01*
X191875250Y-97601554D01*
X191818187Y-97568608D01*
X191711418Y-97540000D01*
X191690892Y-97534500D01*
X191559108Y-97534500D01*
X191431812Y-97568608D01*
X191317686Y-97634500D01*
X191317683Y-97634502D01*
X191224502Y-97727683D01*
X191224500Y-97727686D01*
X191158608Y-97841812D01*
X191124500Y-97969108D01*
X188429646Y-97969108D01*
X188460000Y-97855826D01*
X188460000Y-97724174D01*
X188425925Y-97597007D01*
X188393012Y-97540000D01*
X189010000Y-97540000D01*
X189010000Y-96920301D01*
X189009999Y-96920297D01*
X188998397Y-96861966D01*
X188998396Y-96861965D01*
X188954191Y-96795808D01*
X188888034Y-96751603D01*
X188888033Y-96751602D01*
X188829702Y-96740000D01*
X188210000Y-96740000D01*
X188210000Y-97356988D01*
X188152993Y-97324075D01*
X188025826Y-97290000D01*
X187960000Y-97290000D01*
X187960000Y-92834000D01*
X187979685Y-92766961D01*
X188032489Y-92721206D01*
X188084000Y-92710000D01*
X197996000Y-92710000D01*
X198063039Y-92729685D01*
G37*
%TD.AperFunction*%
%TD*%
%TA.AperFunction,Conductor*%
%TO.N,GND*%
G36*
X159963039Y-92729685D02*
G01*
X160008794Y-92782489D01*
X160020000Y-92834000D01*
X160020000Y-96615500D01*
X160000315Y-96682539D01*
X159947511Y-96728294D01*
X159896000Y-96739500D01*
X159150247Y-96739500D01*
X159091770Y-96751131D01*
X159091769Y-96751132D01*
X159025447Y-96795447D01*
X158981132Y-96861769D01*
X158981131Y-96861770D01*
X158969500Y-96920247D01*
X158969500Y-98659752D01*
X158981131Y-98718229D01*
X158981132Y-98718230D01*
X159025447Y-98784552D01*
X159091769Y-98828867D01*
X159091770Y-98828868D01*
X159150247Y-98840499D01*
X159150250Y-98840500D01*
X159896000Y-98840500D01*
X159963039Y-98860185D01*
X160008794Y-98912989D01*
X160020000Y-98964500D01*
X160020000Y-101695500D01*
X160000315Y-101762539D01*
X159947511Y-101808294D01*
X159896000Y-101819500D01*
X159150247Y-101819500D01*
X159091770Y-101831131D01*
X159091769Y-101831132D01*
X159025447Y-101875447D01*
X158981132Y-101941769D01*
X158981131Y-101941770D01*
X158969500Y-102000247D01*
X158969500Y-103739752D01*
X158981131Y-103798229D01*
X158981132Y-103798230D01*
X159025447Y-103864552D01*
X159091769Y-103908867D01*
X159091770Y-103908868D01*
X159150247Y-103920499D01*
X159150250Y-103920500D01*
X159896000Y-103920500D01*
X159963039Y-103940185D01*
X160008794Y-103992989D01*
X160020000Y-104044500D01*
X160020000Y-105286000D01*
X160000315Y-105353039D01*
X159947511Y-105398794D01*
X159896000Y-105410000D01*
X149984000Y-105410000D01*
X149916961Y-105390315D01*
X149871206Y-105337511D01*
X149860000Y-105286000D01*
X149860000Y-104044500D01*
X149879685Y-103977461D01*
X149932489Y-103931706D01*
X149984000Y-103920500D01*
X150729750Y-103920500D01*
X150729751Y-103920499D01*
X150744568Y-103917552D01*
X150788229Y-103908868D01*
X150788229Y-103908867D01*
X150788231Y-103908867D01*
X150854552Y-103864552D01*
X150898867Y-103798231D01*
X150898867Y-103798229D01*
X150898868Y-103798229D01*
X150910499Y-103739752D01*
X150910500Y-103739750D01*
X150910500Y-102000249D01*
X150910499Y-102000247D01*
X150898868Y-101941770D01*
X150898867Y-101941769D01*
X150854552Y-101875447D01*
X150788230Y-101831132D01*
X150788229Y-101831131D01*
X150729752Y-101819500D01*
X150729748Y-101819500D01*
X149984000Y-101819500D01*
X149916961Y-101799815D01*
X149871206Y-101747011D01*
X149860000Y-101695500D01*
X149860000Y-98970000D01*
X149860000Y-98290000D01*
X149925826Y-98290000D01*
X150052993Y-98255925D01*
X150110000Y-98223012D01*
X150110000Y-98840000D01*
X150729699Y-98840000D01*
X150729702Y-98839999D01*
X150788033Y-98828397D01*
X150788034Y-98828396D01*
X150854191Y-98784191D01*
X150898396Y-98718034D01*
X150898397Y-98718033D01*
X150909999Y-98659702D01*
X150910000Y-98659699D01*
X150910000Y-98040000D01*
X150293012Y-98040000D01*
X150325925Y-97982993D01*
X150329646Y-97969108D01*
X153024500Y-97969108D01*
X153024500Y-99210891D01*
X153058608Y-99338187D01*
X153091554Y-99395250D01*
X153124500Y-99452314D01*
X153124502Y-99452316D01*
X156881973Y-103209787D01*
X156901678Y-103235467D01*
X156933122Y-103289928D01*
X156934500Y-103292314D01*
X157027686Y-103385500D01*
X157141814Y-103451392D01*
X157269108Y-103485500D01*
X157269110Y-103485500D01*
X157400890Y-103485500D01*
X157400892Y-103485500D01*
X157528186Y-103451392D01*
X157642314Y-103385500D01*
X157735500Y-103292314D01*
X157801392Y-103178186D01*
X157835500Y-103050892D01*
X157835500Y-102919108D01*
X157835500Y-102889108D01*
X157801392Y-102761814D01*
X157735500Y-102647686D01*
X157642314Y-102554500D01*
X154061819Y-98974005D01*
X154028334Y-98912682D01*
X154025500Y-98886324D01*
X154025500Y-97969110D01*
X154025500Y-97969108D01*
X153991392Y-97841814D01*
X153925500Y-97727686D01*
X153832314Y-97634500D01*
X153775250Y-97601554D01*
X153718187Y-97568608D01*
X153611418Y-97540000D01*
X153590892Y-97534500D01*
X153459108Y-97534500D01*
X153331812Y-97568608D01*
X153217686Y-97634500D01*
X153217683Y-97634502D01*
X153124502Y-97727683D01*
X153124500Y-97727686D01*
X153058608Y-97841812D01*
X153024500Y-97969108D01*
X150329646Y-97969108D01*
X150360000Y-97855826D01*
X150360000Y-97724174D01*
X150325925Y-97597007D01*
X150293012Y-97540000D01*
X150910000Y-97540000D01*
X150910000Y-96920301D01*
X150909999Y-96920297D01*
X150898397Y-96861966D01*
X150898396Y-96861965D01*
X150854191Y-96795808D01*
X150788034Y-96751603D01*
X150788033Y-96751602D01*
X150729702Y-96740000D01*
X150110000Y-96740000D01*
X150110000Y-97356988D01*
X150052993Y-97324075D01*
X149925826Y-97290000D01*
X149860000Y-97290000D01*
X149860000Y-92834000D01*
X149879685Y-92766961D01*
X149932489Y-92721206D01*
X149984000Y-92710000D01*
X159896000Y-92710000D01*
X159963039Y-92729685D01*
G37*
%TD.AperFunction*%
%TD*%
%TA.AperFunction,Conductor*%
%TO.N,GND*%
G36*
X172663039Y-106699685D02*
G01*
X172708794Y-106752489D01*
X172720000Y-106804000D01*
X172720000Y-110585500D01*
X172700315Y-110652539D01*
X172647511Y-110698294D01*
X172596000Y-110709500D01*
X171850247Y-110709500D01*
X171791770Y-110721131D01*
X171791769Y-110721132D01*
X171725447Y-110765447D01*
X171681132Y-110831769D01*
X171681131Y-110831770D01*
X171669500Y-110890247D01*
X171669500Y-112629752D01*
X171681131Y-112688229D01*
X171681132Y-112688230D01*
X171725447Y-112754552D01*
X171791769Y-112798867D01*
X171791770Y-112798868D01*
X171850247Y-112810499D01*
X171850250Y-112810500D01*
X172596000Y-112810500D01*
X172663039Y-112830185D01*
X172708794Y-112882989D01*
X172720000Y-112934500D01*
X172720000Y-115665500D01*
X172700315Y-115732539D01*
X172647511Y-115778294D01*
X172596000Y-115789500D01*
X171850247Y-115789500D01*
X171791770Y-115801131D01*
X171791769Y-115801132D01*
X171725447Y-115845447D01*
X171681132Y-115911769D01*
X171681131Y-115911770D01*
X171669500Y-115970247D01*
X171669500Y-117709752D01*
X171681131Y-117768229D01*
X171681132Y-117768230D01*
X171725447Y-117834552D01*
X171791769Y-117878867D01*
X171791770Y-117878868D01*
X171850247Y-117890499D01*
X171850250Y-117890500D01*
X172596000Y-117890500D01*
X172663039Y-117910185D01*
X172708794Y-117962989D01*
X172720000Y-118014500D01*
X172720000Y-119256000D01*
X172700315Y-119323039D01*
X172647511Y-119368794D01*
X172596000Y-119380000D01*
X162684000Y-119380000D01*
X162616961Y-119360315D01*
X162571206Y-119307511D01*
X162560000Y-119256000D01*
X162560000Y-118014500D01*
X162579685Y-117947461D01*
X162632489Y-117901706D01*
X162684000Y-117890500D01*
X163429750Y-117890500D01*
X163429751Y-117890499D01*
X163444568Y-117887552D01*
X163488229Y-117878868D01*
X163488229Y-117878867D01*
X163488231Y-117878867D01*
X163554552Y-117834552D01*
X163598867Y-117768231D01*
X163598867Y-117768229D01*
X163598868Y-117768229D01*
X163610499Y-117709752D01*
X163610500Y-117709750D01*
X163610500Y-115970249D01*
X163610499Y-115970247D01*
X163598868Y-115911770D01*
X163598867Y-115911769D01*
X163554552Y-115845447D01*
X163488230Y-115801132D01*
X163488229Y-115801131D01*
X163429752Y-115789500D01*
X163429748Y-115789500D01*
X162684000Y-115789500D01*
X162616961Y-115769815D01*
X162571206Y-115717011D01*
X162560000Y-115665500D01*
X162560000Y-112940000D01*
X162560000Y-112260000D01*
X162625826Y-112260000D01*
X162752993Y-112225925D01*
X162810000Y-112193012D01*
X162810000Y-112810000D01*
X163429699Y-112810000D01*
X163429702Y-112809999D01*
X163488033Y-112798397D01*
X163488034Y-112798396D01*
X163554191Y-112754191D01*
X163598396Y-112688034D01*
X163598397Y-112688033D01*
X163609999Y-112629702D01*
X163610000Y-112629699D01*
X163610000Y-112010000D01*
X162993012Y-112010000D01*
X163025925Y-111952993D01*
X163029646Y-111939108D01*
X165724500Y-111939108D01*
X165724500Y-113180891D01*
X165758608Y-113308187D01*
X165791554Y-113365250D01*
X165824500Y-113422314D01*
X165824502Y-113422316D01*
X169581973Y-117179787D01*
X169601678Y-117205467D01*
X169633122Y-117259928D01*
X169634500Y-117262314D01*
X169727686Y-117355500D01*
X169841814Y-117421392D01*
X169969108Y-117455500D01*
X169969110Y-117455500D01*
X170100890Y-117455500D01*
X170100892Y-117455500D01*
X170228186Y-117421392D01*
X170342314Y-117355500D01*
X170435500Y-117262314D01*
X170501392Y-117148186D01*
X170535500Y-117020892D01*
X170535500Y-116889108D01*
X170535500Y-116859108D01*
X170501392Y-116731814D01*
X170435500Y-116617686D01*
X170342314Y-116524500D01*
X166761819Y-112944005D01*
X166728334Y-112882682D01*
X166725500Y-112856324D01*
X166725500Y-111939110D01*
X166725500Y-111939108D01*
X166691392Y-111811814D01*
X166625500Y-111697686D01*
X166532314Y-111604500D01*
X166475250Y-111571554D01*
X166418187Y-111538608D01*
X166311418Y-111510000D01*
X166290892Y-111504500D01*
X166159108Y-111504500D01*
X166031812Y-111538608D01*
X165917686Y-111604500D01*
X165917683Y-111604502D01*
X165824502Y-111697683D01*
X165824500Y-111697686D01*
X165758608Y-111811812D01*
X165724500Y-111939108D01*
X163029646Y-111939108D01*
X163060000Y-111825826D01*
X163060000Y-111694174D01*
X163025925Y-111567007D01*
X162993012Y-111510000D01*
X163610000Y-111510000D01*
X163610000Y-110890301D01*
X163609999Y-110890297D01*
X163598397Y-110831966D01*
X163598396Y-110831965D01*
X163554191Y-110765808D01*
X163488034Y-110721603D01*
X163488033Y-110721602D01*
X163429702Y-110710000D01*
X162810000Y-110710000D01*
X162810000Y-111326988D01*
X162752993Y-111294075D01*
X162625826Y-111260000D01*
X162560000Y-111260000D01*
X162560000Y-106804000D01*
X162579685Y-106736961D01*
X162632489Y-106691206D01*
X162684000Y-106680000D01*
X172596000Y-106680000D01*
X172663039Y-106699685D01*
G37*
%TD.AperFunction*%
%TD*%
%TA.AperFunction,Conductor*%
%TO.N,GND*%
G36*
X185363039Y-106699685D02*
G01*
X185408794Y-106752489D01*
X185420000Y-106804000D01*
X185420000Y-110585500D01*
X185400315Y-110652539D01*
X185347511Y-110698294D01*
X185296000Y-110709500D01*
X184550247Y-110709500D01*
X184491770Y-110721131D01*
X184491769Y-110721132D01*
X184425447Y-110765447D01*
X184381132Y-110831769D01*
X184381131Y-110831770D01*
X184369500Y-110890247D01*
X184369500Y-112629752D01*
X184381131Y-112688229D01*
X184381132Y-112688230D01*
X184425447Y-112754552D01*
X184491769Y-112798867D01*
X184491770Y-112798868D01*
X184550247Y-112810499D01*
X184550250Y-112810500D01*
X185296000Y-112810500D01*
X185363039Y-112830185D01*
X185408794Y-112882989D01*
X185420000Y-112934500D01*
X185420000Y-115665500D01*
X185400315Y-115732539D01*
X185347511Y-115778294D01*
X185296000Y-115789500D01*
X184550247Y-115789500D01*
X184491770Y-115801131D01*
X184491769Y-115801132D01*
X184425447Y-115845447D01*
X184381132Y-115911769D01*
X184381131Y-115911770D01*
X184369500Y-115970247D01*
X184369500Y-117709752D01*
X184381131Y-117768229D01*
X184381132Y-117768230D01*
X184425447Y-117834552D01*
X184491769Y-117878867D01*
X184491770Y-117878868D01*
X184550247Y-117890499D01*
X184550250Y-117890500D01*
X185296000Y-117890500D01*
X185363039Y-117910185D01*
X185408794Y-117962989D01*
X185420000Y-118014500D01*
X185420000Y-119256000D01*
X185400315Y-119323039D01*
X185347511Y-119368794D01*
X185296000Y-119380000D01*
X175384000Y-119380000D01*
X175316961Y-119360315D01*
X175271206Y-119307511D01*
X175260000Y-119256000D01*
X175260000Y-118014500D01*
X175279685Y-117947461D01*
X175332489Y-117901706D01*
X175384000Y-117890500D01*
X176129750Y-117890500D01*
X176129751Y-117890499D01*
X176144568Y-117887552D01*
X176188229Y-117878868D01*
X176188229Y-117878867D01*
X176188231Y-117878867D01*
X176254552Y-117834552D01*
X176298867Y-117768231D01*
X176298867Y-117768229D01*
X176298868Y-117768229D01*
X176310499Y-117709752D01*
X176310500Y-117709750D01*
X176310500Y-115970249D01*
X176310499Y-115970247D01*
X176298868Y-115911770D01*
X176298867Y-115911769D01*
X176254552Y-115845447D01*
X176188230Y-115801132D01*
X176188229Y-115801131D01*
X176129752Y-115789500D01*
X176129748Y-115789500D01*
X175384000Y-115789500D01*
X175316961Y-115769815D01*
X175271206Y-115717011D01*
X175260000Y-115665500D01*
X175260000Y-112940000D01*
X175260000Y-112260000D01*
X175325826Y-112260000D01*
X175452993Y-112225925D01*
X175510000Y-112193012D01*
X175510000Y-112810000D01*
X176129699Y-112810000D01*
X176129702Y-112809999D01*
X176188033Y-112798397D01*
X176188034Y-112798396D01*
X176254191Y-112754191D01*
X176298396Y-112688034D01*
X176298397Y-112688033D01*
X176309999Y-112629702D01*
X176310000Y-112629699D01*
X176310000Y-112010000D01*
X175693012Y-112010000D01*
X175725925Y-111952993D01*
X175729646Y-111939108D01*
X178424500Y-111939108D01*
X178424500Y-113180891D01*
X178458608Y-113308187D01*
X178491554Y-113365250D01*
X178524500Y-113422314D01*
X178524502Y-113422316D01*
X182281973Y-117179787D01*
X182301678Y-117205467D01*
X182333122Y-117259928D01*
X182334500Y-117262314D01*
X182427686Y-117355500D01*
X182541814Y-117421392D01*
X182669108Y-117455500D01*
X182669110Y-117455500D01*
X182800890Y-117455500D01*
X182800892Y-117455500D01*
X182928186Y-117421392D01*
X183042314Y-117355500D01*
X183135500Y-117262314D01*
X183201392Y-117148186D01*
X183235500Y-117020892D01*
X183235500Y-116889108D01*
X183235500Y-116859108D01*
X183201392Y-116731814D01*
X183135500Y-116617686D01*
X183042314Y-116524500D01*
X179461819Y-112944005D01*
X179428334Y-112882682D01*
X179425500Y-112856324D01*
X179425500Y-111939110D01*
X179425500Y-111939108D01*
X179391392Y-111811814D01*
X179325500Y-111697686D01*
X179232314Y-111604500D01*
X179175250Y-111571554D01*
X179118187Y-111538608D01*
X179011418Y-111510000D01*
X178990892Y-111504500D01*
X178859108Y-111504500D01*
X178731812Y-111538608D01*
X178617686Y-111604500D01*
X178617683Y-111604502D01*
X178524502Y-111697683D01*
X178524500Y-111697686D01*
X178458608Y-111811812D01*
X178424500Y-111939108D01*
X175729646Y-111939108D01*
X175760000Y-111825826D01*
X175760000Y-111694174D01*
X175725925Y-111567007D01*
X175693012Y-111510000D01*
X176310000Y-111510000D01*
X176310000Y-110890301D01*
X176309999Y-110890297D01*
X176298397Y-110831966D01*
X176298396Y-110831965D01*
X176254191Y-110765808D01*
X176188034Y-110721603D01*
X176188033Y-110721602D01*
X176129702Y-110710000D01*
X175510000Y-110710000D01*
X175510000Y-111326988D01*
X175452993Y-111294075D01*
X175325826Y-111260000D01*
X175260000Y-111260000D01*
X175260000Y-106804000D01*
X175279685Y-106736961D01*
X175332489Y-106691206D01*
X175384000Y-106680000D01*
X185296000Y-106680000D01*
X185363039Y-106699685D01*
G37*
%TD.AperFunction*%
%TD*%
%TA.AperFunction,Conductor*%
%TO.N,GND*%
G36*
X198063039Y-106699685D02*
G01*
X198108794Y-106752489D01*
X198120000Y-106804000D01*
X198120000Y-110585500D01*
X198100315Y-110652539D01*
X198047511Y-110698294D01*
X197996000Y-110709500D01*
X197250247Y-110709500D01*
X197191770Y-110721131D01*
X197191769Y-110721132D01*
X197125447Y-110765447D01*
X197081132Y-110831769D01*
X197081131Y-110831770D01*
X197069500Y-110890247D01*
X197069500Y-112629752D01*
X197081131Y-112688229D01*
X197081132Y-112688230D01*
X197125447Y-112754552D01*
X197191769Y-112798867D01*
X197191770Y-112798868D01*
X197250247Y-112810499D01*
X197250250Y-112810500D01*
X197996000Y-112810500D01*
X198063039Y-112830185D01*
X198108794Y-112882989D01*
X198120000Y-112934500D01*
X198120000Y-115665500D01*
X198100315Y-115732539D01*
X198047511Y-115778294D01*
X197996000Y-115789500D01*
X197250247Y-115789500D01*
X197191770Y-115801131D01*
X197191769Y-115801132D01*
X197125447Y-115845447D01*
X197081132Y-115911769D01*
X197081131Y-115911770D01*
X197069500Y-115970247D01*
X197069500Y-117709752D01*
X197081131Y-117768229D01*
X197081132Y-117768230D01*
X197125447Y-117834552D01*
X197191769Y-117878867D01*
X197191770Y-117878868D01*
X197250247Y-117890499D01*
X197250250Y-117890500D01*
X197996000Y-117890500D01*
X198063039Y-117910185D01*
X198108794Y-117962989D01*
X198120000Y-118014500D01*
X198120000Y-119256000D01*
X198100315Y-119323039D01*
X198047511Y-119368794D01*
X197996000Y-119380000D01*
X188084000Y-119380000D01*
X188016961Y-119360315D01*
X187971206Y-119307511D01*
X187960000Y-119256000D01*
X187960000Y-118014500D01*
X187979685Y-117947461D01*
X188032489Y-117901706D01*
X188084000Y-117890500D01*
X188829750Y-117890500D01*
X188829751Y-117890499D01*
X188844568Y-117887552D01*
X188888229Y-117878868D01*
X188888229Y-117878867D01*
X188888231Y-117878867D01*
X188954552Y-117834552D01*
X188998867Y-117768231D01*
X188998867Y-117768229D01*
X188998868Y-117768229D01*
X189010499Y-117709752D01*
X189010500Y-117709750D01*
X189010500Y-115970249D01*
X189010499Y-115970247D01*
X188998868Y-115911770D01*
X188998867Y-115911769D01*
X188954552Y-115845447D01*
X188888230Y-115801132D01*
X188888229Y-115801131D01*
X188829752Y-115789500D01*
X188829748Y-115789500D01*
X188084000Y-115789500D01*
X188016961Y-115769815D01*
X187971206Y-115717011D01*
X187960000Y-115665500D01*
X187960000Y-112940000D01*
X187960000Y-112260000D01*
X188025826Y-112260000D01*
X188152993Y-112225925D01*
X188210000Y-112193012D01*
X188210000Y-112810000D01*
X188829699Y-112810000D01*
X188829702Y-112809999D01*
X188888033Y-112798397D01*
X188888034Y-112798396D01*
X188954191Y-112754191D01*
X188998396Y-112688034D01*
X188998397Y-112688033D01*
X189009999Y-112629702D01*
X189010000Y-112629699D01*
X189010000Y-112010000D01*
X188393012Y-112010000D01*
X188425925Y-111952993D01*
X188429646Y-111939108D01*
X191124500Y-111939108D01*
X191124500Y-113180891D01*
X191158608Y-113308187D01*
X191191554Y-113365250D01*
X191224500Y-113422314D01*
X191224502Y-113422316D01*
X194981973Y-117179787D01*
X195001678Y-117205467D01*
X195033122Y-117259928D01*
X195034500Y-117262314D01*
X195127686Y-117355500D01*
X195241814Y-117421392D01*
X195369108Y-117455500D01*
X195369110Y-117455500D01*
X195500890Y-117455500D01*
X195500892Y-117455500D01*
X195628186Y-117421392D01*
X195742314Y-117355500D01*
X195835500Y-117262314D01*
X195901392Y-117148186D01*
X195935500Y-117020892D01*
X195935500Y-116889108D01*
X195935500Y-116859108D01*
X195901392Y-116731814D01*
X195835500Y-116617686D01*
X195742314Y-116524500D01*
X192161819Y-112944005D01*
X192128334Y-112882682D01*
X192125500Y-112856324D01*
X192125500Y-111939110D01*
X192125500Y-111939108D01*
X192091392Y-111811814D01*
X192025500Y-111697686D01*
X191932314Y-111604500D01*
X191875250Y-111571554D01*
X191818187Y-111538608D01*
X191711418Y-111510000D01*
X191690892Y-111504500D01*
X191559108Y-111504500D01*
X191431812Y-111538608D01*
X191317686Y-111604500D01*
X191317683Y-111604502D01*
X191224502Y-111697683D01*
X191224500Y-111697686D01*
X191158608Y-111811812D01*
X191124500Y-111939108D01*
X188429646Y-111939108D01*
X188460000Y-111825826D01*
X188460000Y-111694174D01*
X188425925Y-111567007D01*
X188393012Y-111510000D01*
X189010000Y-111510000D01*
X189010000Y-110890301D01*
X189009999Y-110890297D01*
X188998397Y-110831966D01*
X188998396Y-110831965D01*
X188954191Y-110765808D01*
X188888034Y-110721603D01*
X188888033Y-110721602D01*
X188829702Y-110710000D01*
X188210000Y-110710000D01*
X188210000Y-111326988D01*
X188152993Y-111294075D01*
X188025826Y-111260000D01*
X187960000Y-111260000D01*
X187960000Y-106804000D01*
X187979685Y-106736961D01*
X188032489Y-106691206D01*
X188084000Y-106680000D01*
X197996000Y-106680000D01*
X198063039Y-106699685D01*
G37*
%TD.AperFunction*%
%TD*%
%TA.AperFunction,Conductor*%
%TO.N,GND*%
G36*
X159963039Y-106699685D02*
G01*
X160008794Y-106752489D01*
X160020000Y-106804000D01*
X160020000Y-110585500D01*
X160000315Y-110652539D01*
X159947511Y-110698294D01*
X159896000Y-110709500D01*
X159150247Y-110709500D01*
X159091770Y-110721131D01*
X159091769Y-110721132D01*
X159025447Y-110765447D01*
X158981132Y-110831769D01*
X158981131Y-110831770D01*
X158969500Y-110890247D01*
X158969500Y-112629752D01*
X158981131Y-112688229D01*
X158981132Y-112688230D01*
X159025447Y-112754552D01*
X159091769Y-112798867D01*
X159091770Y-112798868D01*
X159150247Y-112810499D01*
X159150250Y-112810500D01*
X159896000Y-112810500D01*
X159963039Y-112830185D01*
X160008794Y-112882989D01*
X160020000Y-112934500D01*
X160020000Y-115665500D01*
X160000315Y-115732539D01*
X159947511Y-115778294D01*
X159896000Y-115789500D01*
X159150247Y-115789500D01*
X159091770Y-115801131D01*
X159091769Y-115801132D01*
X159025447Y-115845447D01*
X158981132Y-115911769D01*
X158981131Y-115911770D01*
X158969500Y-115970247D01*
X158969500Y-117709752D01*
X158981131Y-117768229D01*
X158981132Y-117768230D01*
X159025447Y-117834552D01*
X159091769Y-117878867D01*
X159091770Y-117878868D01*
X159150247Y-117890499D01*
X159150250Y-117890500D01*
X159896000Y-117890500D01*
X159963039Y-117910185D01*
X160008794Y-117962989D01*
X160020000Y-118014500D01*
X160020000Y-119256000D01*
X160000315Y-119323039D01*
X159947511Y-119368794D01*
X159896000Y-119380000D01*
X149984000Y-119380000D01*
X149916961Y-119360315D01*
X149871206Y-119307511D01*
X149860000Y-119256000D01*
X149860000Y-118014500D01*
X149879685Y-117947461D01*
X149932489Y-117901706D01*
X149984000Y-117890500D01*
X150729750Y-117890500D01*
X150729751Y-117890499D01*
X150744568Y-117887552D01*
X150788229Y-117878868D01*
X150788229Y-117878867D01*
X150788231Y-117878867D01*
X150854552Y-117834552D01*
X150898867Y-117768231D01*
X150898867Y-117768229D01*
X150898868Y-117768229D01*
X150910499Y-117709752D01*
X150910500Y-117709750D01*
X150910500Y-115970249D01*
X150910499Y-115970247D01*
X150898868Y-115911770D01*
X150898867Y-115911769D01*
X150854552Y-115845447D01*
X150788230Y-115801132D01*
X150788229Y-115801131D01*
X150729752Y-115789500D01*
X150729748Y-115789500D01*
X149984000Y-115789500D01*
X149916961Y-115769815D01*
X149871206Y-115717011D01*
X149860000Y-115665500D01*
X149860000Y-112940000D01*
X149860000Y-112260000D01*
X149925826Y-112260000D01*
X150052993Y-112225925D01*
X150110000Y-112193012D01*
X150110000Y-112810000D01*
X150729699Y-112810000D01*
X150729702Y-112809999D01*
X150788033Y-112798397D01*
X150788034Y-112798396D01*
X150854191Y-112754191D01*
X150898396Y-112688034D01*
X150898397Y-112688033D01*
X150909999Y-112629702D01*
X150910000Y-112629699D01*
X150910000Y-112010000D01*
X150293012Y-112010000D01*
X150325925Y-111952993D01*
X150329646Y-111939108D01*
X153024500Y-111939108D01*
X153024500Y-113180891D01*
X153058608Y-113308187D01*
X153091554Y-113365250D01*
X153124500Y-113422314D01*
X153124502Y-113422316D01*
X156881973Y-117179787D01*
X156901678Y-117205467D01*
X156933122Y-117259928D01*
X156934500Y-117262314D01*
X157027686Y-117355500D01*
X157141814Y-117421392D01*
X157269108Y-117455500D01*
X157269110Y-117455500D01*
X157400890Y-117455500D01*
X157400892Y-117455500D01*
X157528186Y-117421392D01*
X157642314Y-117355500D01*
X157735500Y-117262314D01*
X157801392Y-117148186D01*
X157835500Y-117020892D01*
X157835500Y-116889108D01*
X157835500Y-116859108D01*
X157801392Y-116731814D01*
X157735500Y-116617686D01*
X157642314Y-116524500D01*
X154061819Y-112944005D01*
X154028334Y-112882682D01*
X154025500Y-112856324D01*
X154025500Y-111939110D01*
X154025500Y-111939108D01*
X153991392Y-111811814D01*
X153925500Y-111697686D01*
X153832314Y-111604500D01*
X153775250Y-111571554D01*
X153718187Y-111538608D01*
X153611418Y-111510000D01*
X153590892Y-111504500D01*
X153459108Y-111504500D01*
X153331812Y-111538608D01*
X153217686Y-111604500D01*
X153217683Y-111604502D01*
X153124502Y-111697683D01*
X153124500Y-111697686D01*
X153058608Y-111811812D01*
X153024500Y-111939108D01*
X150329646Y-111939108D01*
X150360000Y-111825826D01*
X150360000Y-111694174D01*
X150325925Y-111567007D01*
X150293012Y-111510000D01*
X150910000Y-111510000D01*
X150910000Y-110890301D01*
X150909999Y-110890297D01*
X150898397Y-110831966D01*
X150898396Y-110831965D01*
X150854191Y-110765808D01*
X150788034Y-110721603D01*
X150788033Y-110721602D01*
X150729702Y-110710000D01*
X150110000Y-110710000D01*
X150110000Y-111326988D01*
X150052993Y-111294075D01*
X149925826Y-111260000D01*
X149860000Y-111260000D01*
X149860000Y-106804000D01*
X149879685Y-106736961D01*
X149932489Y-106691206D01*
X149984000Y-106680000D01*
X159896000Y-106680000D01*
X159963039Y-106699685D01*
G37*
%TD.AperFunction*%
%TD*%
%TA.AperFunction,Conductor*%
%TO.N,GND*%
G36*
X172663039Y-120669685D02*
G01*
X172708794Y-120722489D01*
X172720000Y-120774000D01*
X172720000Y-124555500D01*
X172700315Y-124622539D01*
X172647511Y-124668294D01*
X172596000Y-124679500D01*
X171850247Y-124679500D01*
X171791770Y-124691131D01*
X171791769Y-124691132D01*
X171725447Y-124735447D01*
X171681132Y-124801769D01*
X171681131Y-124801770D01*
X171669500Y-124860247D01*
X171669500Y-126599752D01*
X171681131Y-126658229D01*
X171681132Y-126658230D01*
X171725447Y-126724552D01*
X171791769Y-126768867D01*
X171791770Y-126768868D01*
X171850247Y-126780499D01*
X171850250Y-126780500D01*
X172596000Y-126780500D01*
X172663039Y-126800185D01*
X172708794Y-126852989D01*
X172720000Y-126904500D01*
X172720000Y-129635500D01*
X172700315Y-129702539D01*
X172647511Y-129748294D01*
X172596000Y-129759500D01*
X171850247Y-129759500D01*
X171791770Y-129771131D01*
X171791769Y-129771132D01*
X171725447Y-129815447D01*
X171681132Y-129881769D01*
X171681131Y-129881770D01*
X171669500Y-129940247D01*
X171669500Y-131679752D01*
X171681131Y-131738229D01*
X171681132Y-131738230D01*
X171725447Y-131804552D01*
X171791769Y-131848867D01*
X171791770Y-131848868D01*
X171850247Y-131860499D01*
X171850250Y-131860500D01*
X172596000Y-131860500D01*
X172663039Y-131880185D01*
X172708794Y-131932989D01*
X172720000Y-131984500D01*
X172720000Y-133226000D01*
X172700315Y-133293039D01*
X172647511Y-133338794D01*
X172596000Y-133350000D01*
X162684000Y-133350000D01*
X162616961Y-133330315D01*
X162571206Y-133277511D01*
X162560000Y-133226000D01*
X162560000Y-131984500D01*
X162579685Y-131917461D01*
X162632489Y-131871706D01*
X162684000Y-131860500D01*
X163429750Y-131860500D01*
X163429751Y-131860499D01*
X163444568Y-131857552D01*
X163488229Y-131848868D01*
X163488229Y-131848867D01*
X163488231Y-131848867D01*
X163554552Y-131804552D01*
X163598867Y-131738231D01*
X163598867Y-131738229D01*
X163598868Y-131738229D01*
X163610499Y-131679752D01*
X163610500Y-131679750D01*
X163610500Y-129940249D01*
X163610499Y-129940247D01*
X163598868Y-129881770D01*
X163598867Y-129881769D01*
X163554552Y-129815447D01*
X163488230Y-129771132D01*
X163488229Y-129771131D01*
X163429752Y-129759500D01*
X163429748Y-129759500D01*
X162684000Y-129759500D01*
X162616961Y-129739815D01*
X162571206Y-129687011D01*
X162560000Y-129635500D01*
X162560000Y-126910000D01*
X162560000Y-126230000D01*
X162625826Y-126230000D01*
X162752993Y-126195925D01*
X162810000Y-126163012D01*
X162810000Y-126780000D01*
X163429699Y-126780000D01*
X163429702Y-126779999D01*
X163488033Y-126768397D01*
X163488034Y-126768396D01*
X163554191Y-126724191D01*
X163598396Y-126658034D01*
X163598397Y-126658033D01*
X163609999Y-126599702D01*
X163610000Y-126599699D01*
X163610000Y-125980000D01*
X162993012Y-125980000D01*
X163025925Y-125922993D01*
X163029646Y-125909108D01*
X165724500Y-125909108D01*
X165724500Y-127150891D01*
X165758608Y-127278187D01*
X165791554Y-127335250D01*
X165824500Y-127392314D01*
X165824502Y-127392316D01*
X169581973Y-131149787D01*
X169601678Y-131175467D01*
X169633122Y-131229928D01*
X169634500Y-131232314D01*
X169727686Y-131325500D01*
X169841814Y-131391392D01*
X169969108Y-131425500D01*
X169969110Y-131425500D01*
X170100890Y-131425500D01*
X170100892Y-131425500D01*
X170228186Y-131391392D01*
X170342314Y-131325500D01*
X170435500Y-131232314D01*
X170501392Y-131118186D01*
X170535500Y-130990892D01*
X170535500Y-130859108D01*
X170535500Y-130829108D01*
X170501392Y-130701814D01*
X170435500Y-130587686D01*
X170342314Y-130494500D01*
X166761819Y-126914005D01*
X166728334Y-126852682D01*
X166725500Y-126826324D01*
X166725500Y-125909110D01*
X166725500Y-125909108D01*
X166691392Y-125781814D01*
X166625500Y-125667686D01*
X166532314Y-125574500D01*
X166475250Y-125541554D01*
X166418187Y-125508608D01*
X166311418Y-125480000D01*
X166290892Y-125474500D01*
X166159108Y-125474500D01*
X166031812Y-125508608D01*
X165917686Y-125574500D01*
X165917683Y-125574502D01*
X165824502Y-125667683D01*
X165824500Y-125667686D01*
X165758608Y-125781812D01*
X165724500Y-125909108D01*
X163029646Y-125909108D01*
X163060000Y-125795826D01*
X163060000Y-125664174D01*
X163025925Y-125537007D01*
X162993012Y-125480000D01*
X163610000Y-125480000D01*
X163610000Y-124860301D01*
X163609999Y-124860297D01*
X163598397Y-124801966D01*
X163598396Y-124801965D01*
X163554191Y-124735808D01*
X163488034Y-124691603D01*
X163488033Y-124691602D01*
X163429702Y-124680000D01*
X162810000Y-124680000D01*
X162810000Y-125296988D01*
X162752993Y-125264075D01*
X162625826Y-125230000D01*
X162560000Y-125230000D01*
X162560000Y-120774000D01*
X162579685Y-120706961D01*
X162632489Y-120661206D01*
X162684000Y-120650000D01*
X172596000Y-120650000D01*
X172663039Y-120669685D01*
G37*
%TD.AperFunction*%
%TD*%
%TA.AperFunction,Conductor*%
%TO.N,GND*%
G36*
X185363039Y-120669685D02*
G01*
X185408794Y-120722489D01*
X185420000Y-120774000D01*
X185420000Y-124555500D01*
X185400315Y-124622539D01*
X185347511Y-124668294D01*
X185296000Y-124679500D01*
X184550247Y-124679500D01*
X184491770Y-124691131D01*
X184491769Y-124691132D01*
X184425447Y-124735447D01*
X184381132Y-124801769D01*
X184381131Y-124801770D01*
X184369500Y-124860247D01*
X184369500Y-126599752D01*
X184381131Y-126658229D01*
X184381132Y-126658230D01*
X184425447Y-126724552D01*
X184491769Y-126768867D01*
X184491770Y-126768868D01*
X184550247Y-126780499D01*
X184550250Y-126780500D01*
X185296000Y-126780500D01*
X185363039Y-126800185D01*
X185408794Y-126852989D01*
X185420000Y-126904500D01*
X185420000Y-129635500D01*
X185400315Y-129702539D01*
X185347511Y-129748294D01*
X185296000Y-129759500D01*
X184550247Y-129759500D01*
X184491770Y-129771131D01*
X184491769Y-129771132D01*
X184425447Y-129815447D01*
X184381132Y-129881769D01*
X184381131Y-129881770D01*
X184369500Y-129940247D01*
X184369500Y-131679752D01*
X184381131Y-131738229D01*
X184381132Y-131738230D01*
X184425447Y-131804552D01*
X184491769Y-131848867D01*
X184491770Y-131848868D01*
X184550247Y-131860499D01*
X184550250Y-131860500D01*
X185296000Y-131860500D01*
X185363039Y-131880185D01*
X185408794Y-131932989D01*
X185420000Y-131984500D01*
X185420000Y-133226000D01*
X185400315Y-133293039D01*
X185347511Y-133338794D01*
X185296000Y-133350000D01*
X175384000Y-133350000D01*
X175316961Y-133330315D01*
X175271206Y-133277511D01*
X175260000Y-133226000D01*
X175260000Y-131984500D01*
X175279685Y-131917461D01*
X175332489Y-131871706D01*
X175384000Y-131860500D01*
X176129750Y-131860500D01*
X176129751Y-131860499D01*
X176144568Y-131857552D01*
X176188229Y-131848868D01*
X176188229Y-131848867D01*
X176188231Y-131848867D01*
X176254552Y-131804552D01*
X176298867Y-131738231D01*
X176298867Y-131738229D01*
X176298868Y-131738229D01*
X176310499Y-131679752D01*
X176310500Y-131679750D01*
X176310500Y-129940249D01*
X176310499Y-129940247D01*
X176298868Y-129881770D01*
X176298867Y-129881769D01*
X176254552Y-129815447D01*
X176188230Y-129771132D01*
X176188229Y-129771131D01*
X176129752Y-129759500D01*
X176129748Y-129759500D01*
X175384000Y-129759500D01*
X175316961Y-129739815D01*
X175271206Y-129687011D01*
X175260000Y-129635500D01*
X175260000Y-126910000D01*
X175260000Y-126230000D01*
X175325826Y-126230000D01*
X175452993Y-126195925D01*
X175510000Y-126163012D01*
X175510000Y-126780000D01*
X176129699Y-126780000D01*
X176129702Y-126779999D01*
X176188033Y-126768397D01*
X176188034Y-126768396D01*
X176254191Y-126724191D01*
X176298396Y-126658034D01*
X176298397Y-126658033D01*
X176309999Y-126599702D01*
X176310000Y-126599699D01*
X176310000Y-125980000D01*
X175693012Y-125980000D01*
X175725925Y-125922993D01*
X175729646Y-125909108D01*
X178424500Y-125909108D01*
X178424500Y-127150891D01*
X178458608Y-127278187D01*
X178491554Y-127335250D01*
X178524500Y-127392314D01*
X178524502Y-127392316D01*
X182281973Y-131149787D01*
X182301678Y-131175467D01*
X182333122Y-131229928D01*
X182334500Y-131232314D01*
X182427686Y-131325500D01*
X182541814Y-131391392D01*
X182669108Y-131425500D01*
X182669110Y-131425500D01*
X182800890Y-131425500D01*
X182800892Y-131425500D01*
X182928186Y-131391392D01*
X183042314Y-131325500D01*
X183135500Y-131232314D01*
X183201392Y-131118186D01*
X183235500Y-130990892D01*
X183235500Y-130859108D01*
X183235500Y-130829108D01*
X183201392Y-130701814D01*
X183135500Y-130587686D01*
X183042314Y-130494500D01*
X179461819Y-126914005D01*
X179428334Y-126852682D01*
X179425500Y-126826324D01*
X179425500Y-125909110D01*
X179425500Y-125909108D01*
X179391392Y-125781814D01*
X179325500Y-125667686D01*
X179232314Y-125574500D01*
X179175250Y-125541554D01*
X179118187Y-125508608D01*
X179011418Y-125480000D01*
X178990892Y-125474500D01*
X178859108Y-125474500D01*
X178731812Y-125508608D01*
X178617686Y-125574500D01*
X178617683Y-125574502D01*
X178524502Y-125667683D01*
X178524500Y-125667686D01*
X178458608Y-125781812D01*
X178424500Y-125909108D01*
X175729646Y-125909108D01*
X175760000Y-125795826D01*
X175760000Y-125664174D01*
X175725925Y-125537007D01*
X175693012Y-125480000D01*
X176310000Y-125480000D01*
X176310000Y-124860301D01*
X176309999Y-124860297D01*
X176298397Y-124801966D01*
X176298396Y-124801965D01*
X176254191Y-124735808D01*
X176188034Y-124691603D01*
X176188033Y-124691602D01*
X176129702Y-124680000D01*
X175510000Y-124680000D01*
X175510000Y-125296988D01*
X175452993Y-125264075D01*
X175325826Y-125230000D01*
X175260000Y-125230000D01*
X175260000Y-120774000D01*
X175279685Y-120706961D01*
X175332489Y-120661206D01*
X175384000Y-120650000D01*
X185296000Y-120650000D01*
X185363039Y-120669685D01*
G37*
%TD.AperFunction*%
%TD*%
%TA.AperFunction,Conductor*%
%TO.N,GND*%
G36*
X198063039Y-120669685D02*
G01*
X198108794Y-120722489D01*
X198120000Y-120774000D01*
X198120000Y-124555500D01*
X198100315Y-124622539D01*
X198047511Y-124668294D01*
X197996000Y-124679500D01*
X197250247Y-124679500D01*
X197191770Y-124691131D01*
X197191769Y-124691132D01*
X197125447Y-124735447D01*
X197081132Y-124801769D01*
X197081131Y-124801770D01*
X197069500Y-124860247D01*
X197069500Y-126599752D01*
X197081131Y-126658229D01*
X197081132Y-126658230D01*
X197125447Y-126724552D01*
X197191769Y-126768867D01*
X197191770Y-126768868D01*
X197250247Y-126780499D01*
X197250250Y-126780500D01*
X197996000Y-126780500D01*
X198063039Y-126800185D01*
X198108794Y-126852989D01*
X198120000Y-126904500D01*
X198120000Y-129635500D01*
X198100315Y-129702539D01*
X198047511Y-129748294D01*
X197996000Y-129759500D01*
X197250247Y-129759500D01*
X197191770Y-129771131D01*
X197191769Y-129771132D01*
X197125447Y-129815447D01*
X197081132Y-129881769D01*
X197081131Y-129881770D01*
X197069500Y-129940247D01*
X197069500Y-131679752D01*
X197081131Y-131738229D01*
X197081132Y-131738230D01*
X197125447Y-131804552D01*
X197191769Y-131848867D01*
X197191770Y-131848868D01*
X197250247Y-131860499D01*
X197250250Y-131860500D01*
X197996000Y-131860500D01*
X198063039Y-131880185D01*
X198108794Y-131932989D01*
X198120000Y-131984500D01*
X198120000Y-133226000D01*
X198100315Y-133293039D01*
X198047511Y-133338794D01*
X197996000Y-133350000D01*
X188084000Y-133350000D01*
X188016961Y-133330315D01*
X187971206Y-133277511D01*
X187960000Y-133226000D01*
X187960000Y-131984500D01*
X187979685Y-131917461D01*
X188032489Y-131871706D01*
X188084000Y-131860500D01*
X188829750Y-131860500D01*
X188829751Y-131860499D01*
X188844568Y-131857552D01*
X188888229Y-131848868D01*
X188888229Y-131848867D01*
X188888231Y-131848867D01*
X188954552Y-131804552D01*
X188998867Y-131738231D01*
X188998867Y-131738229D01*
X188998868Y-131738229D01*
X189010499Y-131679752D01*
X189010500Y-131679750D01*
X189010500Y-129940249D01*
X189010499Y-129940247D01*
X188998868Y-129881770D01*
X188998867Y-129881769D01*
X188954552Y-129815447D01*
X188888230Y-129771132D01*
X188888229Y-129771131D01*
X188829752Y-129759500D01*
X188829748Y-129759500D01*
X188084000Y-129759500D01*
X188016961Y-129739815D01*
X187971206Y-129687011D01*
X187960000Y-129635500D01*
X187960000Y-126910000D01*
X187960000Y-126230000D01*
X188025826Y-126230000D01*
X188152993Y-126195925D01*
X188210000Y-126163012D01*
X188210000Y-126780000D01*
X188829699Y-126780000D01*
X188829702Y-126779999D01*
X188888033Y-126768397D01*
X188888034Y-126768396D01*
X188954191Y-126724191D01*
X188998396Y-126658034D01*
X188998397Y-126658033D01*
X189009999Y-126599702D01*
X189010000Y-126599699D01*
X189010000Y-125980000D01*
X188393012Y-125980000D01*
X188425925Y-125922993D01*
X188429646Y-125909108D01*
X191124500Y-125909108D01*
X191124500Y-127150891D01*
X191158608Y-127278187D01*
X191191554Y-127335250D01*
X191224500Y-127392314D01*
X191224502Y-127392316D01*
X194981973Y-131149787D01*
X195001678Y-131175467D01*
X195033122Y-131229928D01*
X195034500Y-131232314D01*
X195127686Y-131325500D01*
X195241814Y-131391392D01*
X195369108Y-131425500D01*
X195369110Y-131425500D01*
X195500890Y-131425500D01*
X195500892Y-131425500D01*
X195628186Y-131391392D01*
X195742314Y-131325500D01*
X195835500Y-131232314D01*
X195901392Y-131118186D01*
X195935500Y-130990892D01*
X195935500Y-130859108D01*
X195935500Y-130829108D01*
X195901392Y-130701814D01*
X195835500Y-130587686D01*
X195742314Y-130494500D01*
X192161819Y-126914005D01*
X192128334Y-126852682D01*
X192125500Y-126826324D01*
X192125500Y-125909110D01*
X192125500Y-125909108D01*
X192091392Y-125781814D01*
X192025500Y-125667686D01*
X191932314Y-125574500D01*
X191875250Y-125541554D01*
X191818187Y-125508608D01*
X191711418Y-125480000D01*
X191690892Y-125474500D01*
X191559108Y-125474500D01*
X191431812Y-125508608D01*
X191317686Y-125574500D01*
X191317683Y-125574502D01*
X191224502Y-125667683D01*
X191224500Y-125667686D01*
X191158608Y-125781812D01*
X191124500Y-125909108D01*
X188429646Y-125909108D01*
X188460000Y-125795826D01*
X188460000Y-125664174D01*
X188425925Y-125537007D01*
X188393012Y-125480000D01*
X189010000Y-125480000D01*
X189010000Y-124860301D01*
X189009999Y-124860297D01*
X188998397Y-124801966D01*
X188998396Y-124801965D01*
X188954191Y-124735808D01*
X188888034Y-124691603D01*
X188888033Y-124691602D01*
X188829702Y-124680000D01*
X188210000Y-124680000D01*
X188210000Y-125296988D01*
X188152993Y-125264075D01*
X188025826Y-125230000D01*
X187960000Y-125230000D01*
X187960000Y-120774000D01*
X187979685Y-120706961D01*
X188032489Y-120661206D01*
X188084000Y-120650000D01*
X197996000Y-120650000D01*
X198063039Y-120669685D01*
G37*
%TD.AperFunction*%
%TD*%
%TA.AperFunction,Conductor*%
%TO.N,GND*%
G36*
X159963039Y-120669685D02*
G01*
X160008794Y-120722489D01*
X160020000Y-120774000D01*
X160020000Y-124555500D01*
X160000315Y-124622539D01*
X159947511Y-124668294D01*
X159896000Y-124679500D01*
X159150247Y-124679500D01*
X159091770Y-124691131D01*
X159091769Y-124691132D01*
X159025447Y-124735447D01*
X158981132Y-124801769D01*
X158981131Y-124801770D01*
X158969500Y-124860247D01*
X158969500Y-126599752D01*
X158981131Y-126658229D01*
X158981132Y-126658230D01*
X159025447Y-126724552D01*
X159091769Y-126768867D01*
X159091770Y-126768868D01*
X159150247Y-126780499D01*
X159150250Y-126780500D01*
X159896000Y-126780500D01*
X159963039Y-126800185D01*
X160008794Y-126852989D01*
X160020000Y-126904500D01*
X160020000Y-129635500D01*
X160000315Y-129702539D01*
X159947511Y-129748294D01*
X159896000Y-129759500D01*
X159150247Y-129759500D01*
X159091770Y-129771131D01*
X159091769Y-129771132D01*
X159025447Y-129815447D01*
X158981132Y-129881769D01*
X158981131Y-129881770D01*
X158969500Y-129940247D01*
X158969500Y-131679752D01*
X158981131Y-131738229D01*
X158981132Y-131738230D01*
X159025447Y-131804552D01*
X159091769Y-131848867D01*
X159091770Y-131848868D01*
X159150247Y-131860499D01*
X159150250Y-131860500D01*
X159896000Y-131860500D01*
X159963039Y-131880185D01*
X160008794Y-131932989D01*
X160020000Y-131984500D01*
X160020000Y-133226000D01*
X160000315Y-133293039D01*
X159947511Y-133338794D01*
X159896000Y-133350000D01*
X149984000Y-133350000D01*
X149916961Y-133330315D01*
X149871206Y-133277511D01*
X149860000Y-133226000D01*
X149860000Y-131984500D01*
X149879685Y-131917461D01*
X149932489Y-131871706D01*
X149984000Y-131860500D01*
X150729750Y-131860500D01*
X150729751Y-131860499D01*
X150744568Y-131857552D01*
X150788229Y-131848868D01*
X150788229Y-131848867D01*
X150788231Y-131848867D01*
X150854552Y-131804552D01*
X150898867Y-131738231D01*
X150898867Y-131738229D01*
X150898868Y-131738229D01*
X150910499Y-131679752D01*
X150910500Y-131679750D01*
X150910500Y-129940249D01*
X150910499Y-129940247D01*
X150898868Y-129881770D01*
X150898867Y-129881769D01*
X150854552Y-129815447D01*
X150788230Y-129771132D01*
X150788229Y-129771131D01*
X150729752Y-129759500D01*
X150729748Y-129759500D01*
X149984000Y-129759500D01*
X149916961Y-129739815D01*
X149871206Y-129687011D01*
X149860000Y-129635500D01*
X149860000Y-126910000D01*
X149860000Y-126230000D01*
X149925826Y-126230000D01*
X150052993Y-126195925D01*
X150110000Y-126163012D01*
X150110000Y-126780000D01*
X150729699Y-126780000D01*
X150729702Y-126779999D01*
X150788033Y-126768397D01*
X150788034Y-126768396D01*
X150854191Y-126724191D01*
X150898396Y-126658034D01*
X150898397Y-126658033D01*
X150909999Y-126599702D01*
X150910000Y-126599699D01*
X150910000Y-125980000D01*
X150293012Y-125980000D01*
X150325925Y-125922993D01*
X150329646Y-125909108D01*
X153024500Y-125909108D01*
X153024500Y-127150891D01*
X153058608Y-127278187D01*
X153091554Y-127335250D01*
X153124500Y-127392314D01*
X153124502Y-127392316D01*
X156881973Y-131149787D01*
X156901678Y-131175467D01*
X156933122Y-131229928D01*
X156934500Y-131232314D01*
X157027686Y-131325500D01*
X157141814Y-131391392D01*
X157269108Y-131425500D01*
X157269110Y-131425500D01*
X157400890Y-131425500D01*
X157400892Y-131425500D01*
X157528186Y-131391392D01*
X157642314Y-131325500D01*
X157735500Y-131232314D01*
X157801392Y-131118186D01*
X157835500Y-130990892D01*
X157835500Y-130859108D01*
X157835500Y-130829108D01*
X157801392Y-130701814D01*
X157735500Y-130587686D01*
X157642314Y-130494500D01*
X154061819Y-126914005D01*
X154028334Y-126852682D01*
X154025500Y-126826324D01*
X154025500Y-125909110D01*
X154025500Y-125909108D01*
X153991392Y-125781814D01*
X153925500Y-125667686D01*
X153832314Y-125574500D01*
X153775250Y-125541554D01*
X153718187Y-125508608D01*
X153611418Y-125480000D01*
X153590892Y-125474500D01*
X153459108Y-125474500D01*
X153331812Y-125508608D01*
X153217686Y-125574500D01*
X153217683Y-125574502D01*
X153124502Y-125667683D01*
X153124500Y-125667686D01*
X153058608Y-125781812D01*
X153024500Y-125909108D01*
X150329646Y-125909108D01*
X150360000Y-125795826D01*
X150360000Y-125664174D01*
X150325925Y-125537007D01*
X150293012Y-125480000D01*
X150910000Y-125480000D01*
X150910000Y-124860301D01*
X150909999Y-124860297D01*
X150898397Y-124801966D01*
X150898396Y-124801965D01*
X150854191Y-124735808D01*
X150788034Y-124691603D01*
X150788033Y-124691602D01*
X150729702Y-124680000D01*
X150110000Y-124680000D01*
X150110000Y-125296988D01*
X150052993Y-125264075D01*
X149925826Y-125230000D01*
X149860000Y-125230000D01*
X149860000Y-120774000D01*
X149879685Y-120706961D01*
X149932489Y-120661206D01*
X149984000Y-120650000D01*
X159896000Y-120650000D01*
X159963039Y-120669685D01*
G37*
%TD.AperFunction*%
%TD*%
%TA.AperFunction,Conductor*%
%TO.N,GND*%
G36*
X172663039Y-134639685D02*
G01*
X172708794Y-134692489D01*
X172720000Y-134744000D01*
X172720000Y-138525500D01*
X172700315Y-138592539D01*
X172647511Y-138638294D01*
X172596000Y-138649500D01*
X171850247Y-138649500D01*
X171791770Y-138661131D01*
X171791769Y-138661132D01*
X171725447Y-138705447D01*
X171681132Y-138771769D01*
X171681131Y-138771770D01*
X171669500Y-138830247D01*
X171669500Y-140569752D01*
X171681131Y-140628229D01*
X171681132Y-140628230D01*
X171725447Y-140694552D01*
X171791769Y-140738867D01*
X171791770Y-140738868D01*
X171850247Y-140750499D01*
X171850250Y-140750500D01*
X172596000Y-140750500D01*
X172663039Y-140770185D01*
X172708794Y-140822989D01*
X172720000Y-140874500D01*
X172720000Y-143605500D01*
X172700315Y-143672539D01*
X172647511Y-143718294D01*
X172596000Y-143729500D01*
X171850247Y-143729500D01*
X171791770Y-143741131D01*
X171791769Y-143741132D01*
X171725447Y-143785447D01*
X171681132Y-143851769D01*
X171681131Y-143851770D01*
X171669500Y-143910247D01*
X171669500Y-145649752D01*
X171681131Y-145708229D01*
X171681132Y-145708230D01*
X171725447Y-145774552D01*
X171791769Y-145818867D01*
X171791770Y-145818868D01*
X171850247Y-145830499D01*
X171850250Y-145830500D01*
X172596000Y-145830500D01*
X172663039Y-145850185D01*
X172708794Y-145902989D01*
X172720000Y-145954500D01*
X172720000Y-146695500D01*
X172700315Y-146762539D01*
X172647511Y-146808294D01*
X172596000Y-146819500D01*
X162684000Y-146819500D01*
X162616961Y-146799815D01*
X162571206Y-146747011D01*
X162560000Y-146695500D01*
X162560000Y-145954500D01*
X162579685Y-145887461D01*
X162632489Y-145841706D01*
X162684000Y-145830500D01*
X163429750Y-145830500D01*
X163429751Y-145830499D01*
X163444568Y-145827552D01*
X163488229Y-145818868D01*
X163488229Y-145818867D01*
X163488231Y-145818867D01*
X163554552Y-145774552D01*
X163598867Y-145708231D01*
X163598867Y-145708229D01*
X163598868Y-145708229D01*
X163610499Y-145649752D01*
X163610500Y-145649750D01*
X163610500Y-143910249D01*
X163610499Y-143910247D01*
X163598868Y-143851770D01*
X163598867Y-143851769D01*
X163554552Y-143785447D01*
X163488230Y-143741132D01*
X163488229Y-143741131D01*
X163429752Y-143729500D01*
X163429748Y-143729500D01*
X162684000Y-143729500D01*
X162616961Y-143709815D01*
X162571206Y-143657011D01*
X162560000Y-143605500D01*
X162560000Y-140880000D01*
X162560000Y-140200000D01*
X162625826Y-140200000D01*
X162752993Y-140165925D01*
X162810000Y-140133012D01*
X162810000Y-140750000D01*
X163429699Y-140750000D01*
X163429702Y-140749999D01*
X163488033Y-140738397D01*
X163488034Y-140738396D01*
X163554191Y-140694191D01*
X163598396Y-140628034D01*
X163598397Y-140628033D01*
X163609999Y-140569702D01*
X163610000Y-140569699D01*
X163610000Y-139950000D01*
X162993012Y-139950000D01*
X163025925Y-139892993D01*
X163029646Y-139879108D01*
X165724500Y-139879108D01*
X165724500Y-141120891D01*
X165758608Y-141248187D01*
X165791554Y-141305250D01*
X165824500Y-141362314D01*
X165824502Y-141362316D01*
X169581973Y-145119787D01*
X169601678Y-145145467D01*
X169633122Y-145199928D01*
X169634500Y-145202314D01*
X169727686Y-145295500D01*
X169841814Y-145361392D01*
X169969108Y-145395500D01*
X169969110Y-145395500D01*
X170100890Y-145395500D01*
X170100892Y-145395500D01*
X170228186Y-145361392D01*
X170342314Y-145295500D01*
X170435500Y-145202314D01*
X170501392Y-145088186D01*
X170535500Y-144960892D01*
X170535500Y-144829108D01*
X170535500Y-144799108D01*
X170501392Y-144671814D01*
X170435500Y-144557686D01*
X170342314Y-144464500D01*
X166761819Y-140884005D01*
X166728334Y-140822682D01*
X166725500Y-140796324D01*
X166725500Y-139879110D01*
X166725500Y-139879108D01*
X166691392Y-139751814D01*
X166625500Y-139637686D01*
X166532314Y-139544500D01*
X166475250Y-139511554D01*
X166418187Y-139478608D01*
X166311418Y-139450000D01*
X166290892Y-139444500D01*
X166159108Y-139444500D01*
X166031812Y-139478608D01*
X165917686Y-139544500D01*
X165917683Y-139544502D01*
X165824502Y-139637683D01*
X165824500Y-139637686D01*
X165758608Y-139751812D01*
X165724500Y-139879108D01*
X163029646Y-139879108D01*
X163060000Y-139765826D01*
X163060000Y-139634174D01*
X163025925Y-139507007D01*
X162993012Y-139450000D01*
X163610000Y-139450000D01*
X163610000Y-138830301D01*
X163609999Y-138830297D01*
X163598397Y-138771966D01*
X163598396Y-138771965D01*
X163554191Y-138705808D01*
X163488034Y-138661603D01*
X163488033Y-138661602D01*
X163429702Y-138650000D01*
X162810000Y-138650000D01*
X162810000Y-139266988D01*
X162752993Y-139234075D01*
X162625826Y-139200000D01*
X162560000Y-139200000D01*
X162560000Y-134744000D01*
X162579685Y-134676961D01*
X162632489Y-134631206D01*
X162684000Y-134620000D01*
X172596000Y-134620000D01*
X172663039Y-134639685D01*
G37*
%TD.AperFunction*%
%TD*%
%TA.AperFunction,Conductor*%
%TO.N,GND*%
G36*
X185363039Y-134639685D02*
G01*
X185408794Y-134692489D01*
X185420000Y-134744000D01*
X185420000Y-138525500D01*
X185400315Y-138592539D01*
X185347511Y-138638294D01*
X185296000Y-138649500D01*
X184550247Y-138649500D01*
X184491770Y-138661131D01*
X184491769Y-138661132D01*
X184425447Y-138705447D01*
X184381132Y-138771769D01*
X184381131Y-138771770D01*
X184369500Y-138830247D01*
X184369500Y-140569752D01*
X184381131Y-140628229D01*
X184381132Y-140628230D01*
X184425447Y-140694552D01*
X184491769Y-140738867D01*
X184491770Y-140738868D01*
X184550247Y-140750499D01*
X184550250Y-140750500D01*
X185296000Y-140750500D01*
X185363039Y-140770185D01*
X185408794Y-140822989D01*
X185420000Y-140874500D01*
X185420000Y-143605500D01*
X185400315Y-143672539D01*
X185347511Y-143718294D01*
X185296000Y-143729500D01*
X184550247Y-143729500D01*
X184491770Y-143741131D01*
X184491769Y-143741132D01*
X184425447Y-143785447D01*
X184381132Y-143851769D01*
X184381131Y-143851770D01*
X184369500Y-143910247D01*
X184369500Y-145649752D01*
X184381131Y-145708229D01*
X184381132Y-145708230D01*
X184425447Y-145774552D01*
X184491769Y-145818867D01*
X184491770Y-145818868D01*
X184550247Y-145830499D01*
X184550250Y-145830500D01*
X185296000Y-145830500D01*
X185363039Y-145850185D01*
X185408794Y-145902989D01*
X185420000Y-145954500D01*
X185420000Y-146695500D01*
X185400315Y-146762539D01*
X185347511Y-146808294D01*
X185296000Y-146819500D01*
X175384000Y-146819500D01*
X175316961Y-146799815D01*
X175271206Y-146747011D01*
X175260000Y-146695500D01*
X175260000Y-145954500D01*
X175279685Y-145887461D01*
X175332489Y-145841706D01*
X175384000Y-145830500D01*
X176129750Y-145830500D01*
X176129751Y-145830499D01*
X176144568Y-145827552D01*
X176188229Y-145818868D01*
X176188229Y-145818867D01*
X176188231Y-145818867D01*
X176254552Y-145774552D01*
X176298867Y-145708231D01*
X176298867Y-145708229D01*
X176298868Y-145708229D01*
X176310499Y-145649752D01*
X176310500Y-145649750D01*
X176310500Y-143910249D01*
X176310499Y-143910247D01*
X176298868Y-143851770D01*
X176298867Y-143851769D01*
X176254552Y-143785447D01*
X176188230Y-143741132D01*
X176188229Y-143741131D01*
X176129752Y-143729500D01*
X176129748Y-143729500D01*
X175384000Y-143729500D01*
X175316961Y-143709815D01*
X175271206Y-143657011D01*
X175260000Y-143605500D01*
X175260000Y-140880000D01*
X175260000Y-140200000D01*
X175325826Y-140200000D01*
X175452993Y-140165925D01*
X175510000Y-140133012D01*
X175510000Y-140750000D01*
X176129699Y-140750000D01*
X176129702Y-140749999D01*
X176188033Y-140738397D01*
X176188034Y-140738396D01*
X176254191Y-140694191D01*
X176298396Y-140628034D01*
X176298397Y-140628033D01*
X176309999Y-140569702D01*
X176310000Y-140569699D01*
X176310000Y-139950000D01*
X175693012Y-139950000D01*
X175725925Y-139892993D01*
X175729646Y-139879108D01*
X178424500Y-139879108D01*
X178424500Y-141120891D01*
X178458608Y-141248187D01*
X178491554Y-141305250D01*
X178524500Y-141362314D01*
X178524502Y-141362316D01*
X182281973Y-145119787D01*
X182301678Y-145145467D01*
X182333122Y-145199928D01*
X182334500Y-145202314D01*
X182427686Y-145295500D01*
X182541814Y-145361392D01*
X182669108Y-145395500D01*
X182669110Y-145395500D01*
X182800890Y-145395500D01*
X182800892Y-145395500D01*
X182928186Y-145361392D01*
X183042314Y-145295500D01*
X183135500Y-145202314D01*
X183201392Y-145088186D01*
X183235500Y-144960892D01*
X183235500Y-144829108D01*
X183235500Y-144799108D01*
X183201392Y-144671814D01*
X183135500Y-144557686D01*
X183042314Y-144464500D01*
X179461819Y-140884005D01*
X179428334Y-140822682D01*
X179425500Y-140796324D01*
X179425500Y-139879110D01*
X179425500Y-139879108D01*
X179391392Y-139751814D01*
X179325500Y-139637686D01*
X179232314Y-139544500D01*
X179175250Y-139511554D01*
X179118187Y-139478608D01*
X179011418Y-139450000D01*
X178990892Y-139444500D01*
X178859108Y-139444500D01*
X178731812Y-139478608D01*
X178617686Y-139544500D01*
X178617683Y-139544502D01*
X178524502Y-139637683D01*
X178524500Y-139637686D01*
X178458608Y-139751812D01*
X178424500Y-139879108D01*
X175729646Y-139879108D01*
X175760000Y-139765826D01*
X175760000Y-139634174D01*
X175725925Y-139507007D01*
X175693012Y-139450000D01*
X176310000Y-139450000D01*
X176310000Y-138830301D01*
X176309999Y-138830297D01*
X176298397Y-138771966D01*
X176298396Y-138771965D01*
X176254191Y-138705808D01*
X176188034Y-138661603D01*
X176188033Y-138661602D01*
X176129702Y-138650000D01*
X175510000Y-138650000D01*
X175510000Y-139266988D01*
X175452993Y-139234075D01*
X175325826Y-139200000D01*
X175260000Y-139200000D01*
X175260000Y-134744000D01*
X175279685Y-134676961D01*
X175332489Y-134631206D01*
X175384000Y-134620000D01*
X185296000Y-134620000D01*
X185363039Y-134639685D01*
G37*
%TD.AperFunction*%
%TD*%
%TA.AperFunction,Conductor*%
%TO.N,GND*%
G36*
X198063039Y-134639685D02*
G01*
X198108794Y-134692489D01*
X198120000Y-134744000D01*
X198120000Y-138525500D01*
X198100315Y-138592539D01*
X198047511Y-138638294D01*
X197996000Y-138649500D01*
X197250247Y-138649500D01*
X197191770Y-138661131D01*
X197191769Y-138661132D01*
X197125447Y-138705447D01*
X197081132Y-138771769D01*
X197081131Y-138771770D01*
X197069500Y-138830247D01*
X197069500Y-140569752D01*
X197081131Y-140628229D01*
X197081132Y-140628230D01*
X197125447Y-140694552D01*
X197191769Y-140738867D01*
X197191770Y-140738868D01*
X197250247Y-140750499D01*
X197250250Y-140750500D01*
X197996000Y-140750500D01*
X198063039Y-140770185D01*
X198108794Y-140822989D01*
X198120000Y-140874500D01*
X198120000Y-143605500D01*
X198100315Y-143672539D01*
X198047511Y-143718294D01*
X197996000Y-143729500D01*
X197250247Y-143729500D01*
X197191770Y-143741131D01*
X197191769Y-143741132D01*
X197125447Y-143785447D01*
X197081132Y-143851769D01*
X197081131Y-143851770D01*
X197069500Y-143910247D01*
X197069500Y-145649752D01*
X197081131Y-145708229D01*
X197081132Y-145708230D01*
X197125447Y-145774552D01*
X197191769Y-145818867D01*
X197191770Y-145818868D01*
X197250247Y-145830499D01*
X197250250Y-145830500D01*
X197996000Y-145830500D01*
X198063039Y-145850185D01*
X198108794Y-145902989D01*
X198120000Y-145954500D01*
X198120000Y-146695500D01*
X198100315Y-146762539D01*
X198047511Y-146808294D01*
X197996000Y-146819500D01*
X188084000Y-146819500D01*
X188016961Y-146799815D01*
X187971206Y-146747011D01*
X187960000Y-146695500D01*
X187960000Y-145954500D01*
X187979685Y-145887461D01*
X188032489Y-145841706D01*
X188084000Y-145830500D01*
X188829750Y-145830500D01*
X188829751Y-145830499D01*
X188844568Y-145827552D01*
X188888229Y-145818868D01*
X188888229Y-145818867D01*
X188888231Y-145818867D01*
X188954552Y-145774552D01*
X188998867Y-145708231D01*
X188998867Y-145708229D01*
X188998868Y-145708229D01*
X189010499Y-145649752D01*
X189010500Y-145649750D01*
X189010500Y-143910249D01*
X189010499Y-143910247D01*
X188998868Y-143851770D01*
X188998867Y-143851769D01*
X188954552Y-143785447D01*
X188888230Y-143741132D01*
X188888229Y-143741131D01*
X188829752Y-143729500D01*
X188829748Y-143729500D01*
X188084000Y-143729500D01*
X188016961Y-143709815D01*
X187971206Y-143657011D01*
X187960000Y-143605500D01*
X187960000Y-140880000D01*
X187960000Y-140200000D01*
X188025826Y-140200000D01*
X188152993Y-140165925D01*
X188210000Y-140133012D01*
X188210000Y-140750000D01*
X188829699Y-140750000D01*
X188829702Y-140749999D01*
X188888033Y-140738397D01*
X188888034Y-140738396D01*
X188954191Y-140694191D01*
X188998396Y-140628034D01*
X188998397Y-140628033D01*
X189009999Y-140569702D01*
X189010000Y-140569699D01*
X189010000Y-139950000D01*
X188393012Y-139950000D01*
X188425925Y-139892993D01*
X188429646Y-139879108D01*
X191124500Y-139879108D01*
X191124500Y-141120891D01*
X191158608Y-141248187D01*
X191191554Y-141305250D01*
X191224500Y-141362314D01*
X191224502Y-141362316D01*
X194981973Y-145119787D01*
X195001678Y-145145467D01*
X195033122Y-145199928D01*
X195034500Y-145202314D01*
X195127686Y-145295500D01*
X195241814Y-145361392D01*
X195369108Y-145395500D01*
X195369110Y-145395500D01*
X195500890Y-145395500D01*
X195500892Y-145395500D01*
X195628186Y-145361392D01*
X195742314Y-145295500D01*
X195835500Y-145202314D01*
X195901392Y-145088186D01*
X195935500Y-144960892D01*
X195935500Y-144829108D01*
X195935500Y-144799108D01*
X195901392Y-144671814D01*
X195835500Y-144557686D01*
X195742314Y-144464500D01*
X192161819Y-140884005D01*
X192128334Y-140822682D01*
X192125500Y-140796324D01*
X192125500Y-139879110D01*
X192125500Y-139879108D01*
X192091392Y-139751814D01*
X192025500Y-139637686D01*
X191932314Y-139544500D01*
X191875250Y-139511554D01*
X191818187Y-139478608D01*
X191711418Y-139450000D01*
X191690892Y-139444500D01*
X191559108Y-139444500D01*
X191431812Y-139478608D01*
X191317686Y-139544500D01*
X191317683Y-139544502D01*
X191224502Y-139637683D01*
X191224500Y-139637686D01*
X191158608Y-139751812D01*
X191124500Y-139879108D01*
X188429646Y-139879108D01*
X188460000Y-139765826D01*
X188460000Y-139634174D01*
X188425925Y-139507007D01*
X188393012Y-139450000D01*
X189010000Y-139450000D01*
X189010000Y-138830301D01*
X189009999Y-138830297D01*
X188998397Y-138771966D01*
X188998396Y-138771965D01*
X188954191Y-138705808D01*
X188888034Y-138661603D01*
X188888033Y-138661602D01*
X188829702Y-138650000D01*
X188210000Y-138650000D01*
X188210000Y-139266988D01*
X188152993Y-139234075D01*
X188025826Y-139200000D01*
X187960000Y-139200000D01*
X187960000Y-134744000D01*
X187979685Y-134676961D01*
X188032489Y-134631206D01*
X188084000Y-134620000D01*
X197996000Y-134620000D01*
X198063039Y-134639685D01*
G37*
%TD.AperFunction*%
%TD*%
%TA.AperFunction,Conductor*%
%TO.N,GND*%
G36*
X159963039Y-134639685D02*
G01*
X160008794Y-134692489D01*
X160020000Y-134744000D01*
X160020000Y-138525500D01*
X160000315Y-138592539D01*
X159947511Y-138638294D01*
X159896000Y-138649500D01*
X159150247Y-138649500D01*
X159091770Y-138661131D01*
X159091769Y-138661132D01*
X159025447Y-138705447D01*
X158981132Y-138771769D01*
X158981131Y-138771770D01*
X158969500Y-138830247D01*
X158969500Y-140569752D01*
X158981131Y-140628229D01*
X158981132Y-140628230D01*
X159025447Y-140694552D01*
X159091769Y-140738867D01*
X159091770Y-140738868D01*
X159150247Y-140750499D01*
X159150250Y-140750500D01*
X159896000Y-140750500D01*
X159963039Y-140770185D01*
X160008794Y-140822989D01*
X160020000Y-140874500D01*
X160020000Y-143605500D01*
X160000315Y-143672539D01*
X159947511Y-143718294D01*
X159896000Y-143729500D01*
X159150247Y-143729500D01*
X159091770Y-143741131D01*
X159091769Y-143741132D01*
X159025447Y-143785447D01*
X158981132Y-143851769D01*
X158981131Y-143851770D01*
X158969500Y-143910247D01*
X158969500Y-145649752D01*
X158981131Y-145708229D01*
X158981132Y-145708230D01*
X159025447Y-145774552D01*
X159091769Y-145818867D01*
X159091770Y-145818868D01*
X159150247Y-145830499D01*
X159150250Y-145830500D01*
X159896000Y-145830500D01*
X159963039Y-145850185D01*
X160008794Y-145902989D01*
X160020000Y-145954500D01*
X160020000Y-146695500D01*
X160000315Y-146762539D01*
X159947511Y-146808294D01*
X159896000Y-146819500D01*
X149984000Y-146819500D01*
X149916961Y-146799815D01*
X149871206Y-146747011D01*
X149860000Y-146695500D01*
X149860000Y-145954500D01*
X149879685Y-145887461D01*
X149932489Y-145841706D01*
X149984000Y-145830500D01*
X150729750Y-145830500D01*
X150729751Y-145830499D01*
X150744568Y-145827552D01*
X150788229Y-145818868D01*
X150788229Y-145818867D01*
X150788231Y-145818867D01*
X150854552Y-145774552D01*
X150898867Y-145708231D01*
X150898867Y-145708229D01*
X150898868Y-145708229D01*
X150910499Y-145649752D01*
X150910500Y-145649750D01*
X150910500Y-143910249D01*
X150910499Y-143910247D01*
X150898868Y-143851770D01*
X150898867Y-143851769D01*
X150854552Y-143785447D01*
X150788230Y-143741132D01*
X150788229Y-143741131D01*
X150729752Y-143729500D01*
X150729748Y-143729500D01*
X149984000Y-143729500D01*
X149916961Y-143709815D01*
X149871206Y-143657011D01*
X149860000Y-143605500D01*
X149860000Y-140880000D01*
X149860000Y-140200000D01*
X149925826Y-140200000D01*
X150052993Y-140165925D01*
X150110000Y-140133012D01*
X150110000Y-140750000D01*
X150729699Y-140750000D01*
X150729702Y-140749999D01*
X150788033Y-140738397D01*
X150788034Y-140738396D01*
X150854191Y-140694191D01*
X150898396Y-140628034D01*
X150898397Y-140628033D01*
X150909999Y-140569702D01*
X150910000Y-140569699D01*
X150910000Y-139950000D01*
X150293012Y-139950000D01*
X150325925Y-139892993D01*
X150329646Y-139879108D01*
X153024500Y-139879108D01*
X153024500Y-141120891D01*
X153058608Y-141248187D01*
X153091554Y-141305250D01*
X153124500Y-141362314D01*
X153124502Y-141362316D01*
X156881973Y-145119787D01*
X156901678Y-145145467D01*
X156933122Y-145199928D01*
X156934500Y-145202314D01*
X157027686Y-145295500D01*
X157141814Y-145361392D01*
X157269108Y-145395500D01*
X157269110Y-145395500D01*
X157400890Y-145395500D01*
X157400892Y-145395500D01*
X157528186Y-145361392D01*
X157642314Y-145295500D01*
X157735500Y-145202314D01*
X157801392Y-145088186D01*
X157835500Y-144960892D01*
X157835500Y-144829108D01*
X157835500Y-144799108D01*
X157801392Y-144671814D01*
X157735500Y-144557686D01*
X157642314Y-144464500D01*
X154061819Y-140884005D01*
X154028334Y-140822682D01*
X154025500Y-140796324D01*
X154025500Y-139879110D01*
X154025500Y-139879108D01*
X153991392Y-139751814D01*
X153925500Y-139637686D01*
X153832314Y-139544500D01*
X153775250Y-139511554D01*
X153718187Y-139478608D01*
X153611418Y-139450000D01*
X153590892Y-139444500D01*
X153459108Y-139444500D01*
X153331812Y-139478608D01*
X153217686Y-139544500D01*
X153217683Y-139544502D01*
X153124502Y-139637683D01*
X153124500Y-139637686D01*
X153058608Y-139751812D01*
X153024500Y-139879108D01*
X150329646Y-139879108D01*
X150360000Y-139765826D01*
X150360000Y-139634174D01*
X150325925Y-139507007D01*
X150293012Y-139450000D01*
X150910000Y-139450000D01*
X150910000Y-138830301D01*
X150909999Y-138830297D01*
X150898397Y-138771966D01*
X150898396Y-138771965D01*
X150854191Y-138705808D01*
X150788034Y-138661603D01*
X150788033Y-138661602D01*
X150729702Y-138650000D01*
X150110000Y-138650000D01*
X150110000Y-139266988D01*
X150052993Y-139234075D01*
X149925826Y-139200000D01*
X149860000Y-139200000D01*
X149860000Y-134744000D01*
X149879685Y-134676961D01*
X149932489Y-134631206D01*
X149984000Y-134620000D01*
X159896000Y-134620000D01*
X159963039Y-134639685D01*
G37*
%TD.AperFunction*%
%TD*%
%TA.AperFunction,Conductor*%
%TO.N,GND*%
G36*
X202642539Y-79260185D02*
G01*
X202688294Y-79312989D01*
X202699500Y-79364500D01*
X202699500Y-146695500D01*
X202679815Y-146762539D01*
X202627011Y-146808294D01*
X202575500Y-146819500D01*
X199514000Y-146819500D01*
X199446961Y-146799815D01*
X199401206Y-146747011D01*
X199390000Y-146695500D01*
X199390000Y-79364500D01*
X199409685Y-79297461D01*
X199462489Y-79251706D01*
X199514000Y-79240500D01*
X202575500Y-79240500D01*
X202642539Y-79260185D01*
G37*
%TD.AperFunction*%
%TD*%
%TA.AperFunction,Conductor*%
%TO.N,GND*%
G36*
X148533039Y-79260185D02*
G01*
X148578794Y-79312989D01*
X148590000Y-79364500D01*
X148590000Y-146695500D01*
X148570315Y-146762539D01*
X148517511Y-146808294D01*
X148466000Y-146819500D01*
X145404500Y-146819500D01*
X145337461Y-146799815D01*
X145291706Y-146747011D01*
X145280500Y-146695500D01*
X145280500Y-79364500D01*
X145300185Y-79297461D01*
X145352989Y-79251706D01*
X145404500Y-79240500D01*
X148466000Y-79240500D01*
X148533039Y-79260185D01*
G37*
%TD.AperFunction*%
%TD*%
M02*
