%TF.GenerationSoftware,KiCad,Pcbnew,9.0.7*%
%TF.CreationDate,2026-02-26T12:28:59+09:00*%
%TF.ProjectId,USB_isolation2,5553425f-6973-46f6-9c61-74696f6e322e,rev?*%
%TF.SameCoordinates,Original*%
%TF.FileFunction,Soldermask,Top*%
%TF.FilePolarity,Negative*%
%FSLAX46Y46*%
G04 Gerber Fmt 4.6, Leading zero omitted, Abs format (unit mm)*
G04 Created by KiCad (PCBNEW 9.0.7) date 2026-02-26 12:28:59*
%MOMM*%
%LPD*%
G01*
G04 APERTURE LIST*
G04 Aperture macros list*
%AMRoundRect*
0 Rectangle with rounded corners*
0 $1 Rounding radius*
0 $2 $3 $4 $5 $6 $7 $8 $9 X,Y pos of 4 corners*
0 Add a 4 corners polygon primitive as box body*
4,1,4,$2,$3,$4,$5,$6,$7,$8,$9,$2,$3,0*
0 Add four circle primitives for the rounded corners*
1,1,$1+$1,$2,$3*
1,1,$1+$1,$4,$5*
1,1,$1+$1,$6,$7*
1,1,$1+$1,$8,$9*
0 Add four rect primitives between the rounded corners*
20,1,$1+$1,$2,$3,$4,$5,0*
20,1,$1+$1,$4,$5,$6,$7,0*
20,1,$1+$1,$6,$7,$8,$9,0*
20,1,$1+$1,$8,$9,$2,$3,0*%
G04 Aperture macros list end*
%ADD10C,0.650000*%
%ADD11RoundRect,0.150000X0.425000X-0.150000X0.425000X0.150000X-0.425000X0.150000X-0.425000X-0.150000X0*%
%ADD12RoundRect,0.075000X0.500000X-0.075000X0.500000X0.075000X-0.500000X0.075000X-0.500000X-0.075000X0*%
%ADD13O,2.100000X1.000000*%
%ADD14O,1.800000X1.000000*%
%ADD15RoundRect,0.150000X-0.150000X-0.425000X0.150000X-0.425000X0.150000X0.425000X-0.150000X0.425000X0*%
%ADD16RoundRect,0.075000X-0.075000X-0.500000X0.075000X-0.500000X0.075000X0.500000X-0.075000X0.500000X0*%
%ADD17O,1.000000X2.100000*%
%ADD18O,1.000000X1.800000*%
%ADD19C,2.200000*%
%ADD20RoundRect,0.150000X-0.150000X0.512500X-0.150000X-0.512500X0.150000X-0.512500X0.150000X0.512500X0*%
%ADD21RoundRect,0.135000X0.135000X0.185000X-0.135000X0.185000X-0.135000X-0.185000X0.135000X-0.185000X0*%
%ADD22RoundRect,0.150000X0.512500X0.150000X-0.512500X0.150000X-0.512500X-0.150000X0.512500X-0.150000X0*%
%ADD23R,1.100000X1.530000*%
%ADD24RoundRect,0.135000X0.185000X-0.135000X0.185000X0.135000X-0.185000X0.135000X-0.185000X-0.135000X0*%
%ADD25R,1.700000X1.700000*%
%ADD26C,1.700000*%
%ADD27R,1.530000X1.100000*%
%ADD28RoundRect,0.140000X-0.140000X-0.170000X0.140000X-0.170000X0.140000X0.170000X-0.140000X0.170000X0*%
%ADD29RoundRect,0.147500X-0.147500X-0.172500X0.147500X-0.172500X0.147500X0.172500X-0.147500X0.172500X0*%
G04 APERTURE END LIST*
D10*
%TO.C,J3*%
X113685000Y-95890000D03*
X113685000Y-90110000D03*
D11*
X112610000Y-96200000D03*
X112610000Y-95400000D03*
D12*
X112610000Y-94250000D03*
X112610000Y-93250000D03*
X112610000Y-92750000D03*
X112610000Y-91750000D03*
D11*
X112610000Y-90600000D03*
X112610000Y-89800000D03*
X112610000Y-89800000D03*
X112610000Y-90600000D03*
D12*
X112610000Y-91250000D03*
X112610000Y-92250000D03*
X112610000Y-93750000D03*
X112610000Y-94750000D03*
D11*
X112610000Y-95400000D03*
X112610000Y-96200000D03*
D13*
X113185000Y-97320000D03*
D14*
X117365000Y-97320000D03*
D13*
X113185000Y-88680000D03*
D14*
X117365000Y-88680000D03*
%TD*%
D10*
%TO.C,J2*%
X113695000Y-83090000D03*
X113695000Y-77310000D03*
D11*
X112620000Y-83400000D03*
X112620000Y-82600000D03*
D12*
X112620000Y-81450000D03*
X112620000Y-80450000D03*
X112620000Y-79950000D03*
X112620000Y-78950000D03*
D11*
X112620000Y-77800000D03*
X112620000Y-77000000D03*
X112620000Y-77000000D03*
X112620000Y-77800000D03*
D12*
X112620000Y-78450000D03*
X112620000Y-79450000D03*
X112620000Y-80950000D03*
X112620000Y-81950000D03*
D11*
X112620000Y-82600000D03*
X112620000Y-83400000D03*
D13*
X113195000Y-84520000D03*
D14*
X117375000Y-84520000D03*
D13*
X113195000Y-75880000D03*
D14*
X117375000Y-75880000D03*
%TD*%
D10*
%TO.C,J1*%
X107110000Y-103685000D03*
X112890000Y-103685000D03*
D15*
X106800000Y-102610000D03*
X107600000Y-102610000D03*
D16*
X108750000Y-102610000D03*
X109750000Y-102610000D03*
X110250000Y-102610000D03*
X111250000Y-102610000D03*
D15*
X112400000Y-102610000D03*
X113200000Y-102610000D03*
X113200000Y-102610000D03*
X112400000Y-102610000D03*
D16*
X111750000Y-102610000D03*
X110750000Y-102610000D03*
X109250000Y-102610000D03*
X108250000Y-102610000D03*
D15*
X107600000Y-102610000D03*
X106800000Y-102610000D03*
D17*
X105680000Y-103185000D03*
D18*
X105680000Y-107365000D03*
D17*
X114320000Y-103185000D03*
D18*
X114320000Y-107365000D03*
%TD*%
D19*
%TO.C,REF\u002A\u002A*%
X102500000Y-107500000D03*
%TD*%
D20*
%TO.C,U2*%
X110550000Y-83262500D03*
X108650000Y-83262500D03*
X109600000Y-85537500D03*
%TD*%
D21*
%TO.C,R4*%
X110820000Y-78500000D03*
X109800000Y-78500000D03*
%TD*%
D22*
%TO.C,U1*%
X109937500Y-95750000D03*
X109937500Y-93850000D03*
X107662500Y-94800000D03*
%TD*%
D23*
%TO.C,F1*%
X107215000Y-100400000D03*
X105385000Y-100400000D03*
%TD*%
D21*
%TO.C,R3*%
X110820000Y-81500000D03*
X109800000Y-81500000D03*
%TD*%
%TO.C,R5*%
X110500000Y-92300000D03*
X109480000Y-92300000D03*
%TD*%
D24*
%TO.C,R7*%
X106200000Y-97610000D03*
X106200000Y-96590000D03*
%TD*%
%TO.C,R2*%
X111100000Y-101010000D03*
X111100000Y-99990000D03*
%TD*%
D25*
%TO.C,J4*%
X101800000Y-93380000D03*
D26*
X101800000Y-95920000D03*
X101800000Y-98460000D03*
X101800000Y-101000000D03*
%TD*%
D19*
%TO.C,REF\u002A\u002A*%
X117500000Y-72500000D03*
%TD*%
D27*
%TO.C,F2*%
X105200000Y-91670000D03*
X105200000Y-93500000D03*
%TD*%
D19*
%TO.C,REF\u002A\u002A*%
X102500000Y-72500000D03*
%TD*%
D28*
%TO.C,C1*%
X112420000Y-100600000D03*
X113380000Y-100600000D03*
%TD*%
D24*
%TO.C,R1*%
X108743887Y-101010000D03*
X108743887Y-99990000D03*
%TD*%
D19*
%TO.C,REF\u002A\u002A*%
X117500000Y-107500000D03*
%TD*%
D21*
%TO.C,R6*%
X110510000Y-91300000D03*
X109490000Y-91300000D03*
%TD*%
D25*
%TO.C,J5*%
X101800000Y-79000000D03*
D26*
X101800000Y-81540000D03*
X101800000Y-84080000D03*
X101800000Y-86620000D03*
%TD*%
D29*
%TO.C,D1*%
X106215000Y-98700000D03*
X107185000Y-98700000D03*
%TD*%
M02*
