%TF.GenerationSoftware,KiCad,Pcbnew,9.0.7*%
%TF.CreationDate,2026-02-26T12:28:58+09:00*%
%TF.ProjectId,USB_isolation2,5553425f-6973-46f6-9c61-74696f6e322e,rev?*%
%TF.SameCoordinates,Original*%
%TF.FileFunction,Copper,L1,Top*%
%TF.FilePolarity,Positive*%
%FSLAX46Y46*%
G04 Gerber Fmt 4.6, Leading zero omitted, Abs format (unit mm)*
G04 Created by KiCad (PCBNEW 9.0.7) date 2026-02-26 12:28:58*
%MOMM*%
%LPD*%
G01*
G04 APERTURE LIST*
G04 Aperture macros list*
%AMRoundRect*
0 Rectangle with rounded corners*
0 $1 Rounding radius*
0 $2 $3 $4 $5 $6 $7 $8 $9 X,Y pos of 4 corners*
0 Add a 4 corners polygon primitive as box body*
4,1,4,$2,$3,$4,$5,$6,$7,$8,$9,$2,$3,0*
0 Add four circle primitives for the rounded corners*
1,1,$1+$1,$2,$3*
1,1,$1+$1,$4,$5*
1,1,$1+$1,$6,$7*
1,1,$1+$1,$8,$9*
0 Add four rect primitives between the rounded corners*
20,1,$1+$1,$2,$3,$4,$5,0*
20,1,$1+$1,$4,$5,$6,$7,0*
20,1,$1+$1,$6,$7,$8,$9,0*
20,1,$1+$1,$8,$9,$2,$3,0*%
G04 Aperture macros list end*
%TA.AperFunction,SMDPad,CuDef*%
%ADD10RoundRect,0.150000X0.425000X-0.150000X0.425000X0.150000X-0.425000X0.150000X-0.425000X-0.150000X0*%
%TD*%
%TA.AperFunction,SMDPad,CuDef*%
%ADD11RoundRect,0.075000X0.500000X-0.075000X0.500000X0.075000X-0.500000X0.075000X-0.500000X-0.075000X0*%
%TD*%
%TA.AperFunction,HeatsinkPad*%
%ADD12O,2.100000X1.000000*%
%TD*%
%TA.AperFunction,HeatsinkPad*%
%ADD13O,1.800000X1.000000*%
%TD*%
%TA.AperFunction,SMDPad,CuDef*%
%ADD14RoundRect,0.150000X-0.150000X-0.425000X0.150000X-0.425000X0.150000X0.425000X-0.150000X0.425000X0*%
%TD*%
%TA.AperFunction,SMDPad,CuDef*%
%ADD15RoundRect,0.075000X-0.075000X-0.500000X0.075000X-0.500000X0.075000X0.500000X-0.075000X0.500000X0*%
%TD*%
%TA.AperFunction,HeatsinkPad*%
%ADD16O,1.000000X2.100000*%
%TD*%
%TA.AperFunction,HeatsinkPad*%
%ADD17O,1.000000X1.800000*%
%TD*%
%TA.AperFunction,SMDPad,CuDef*%
%ADD18RoundRect,0.150000X-0.150000X0.512500X-0.150000X-0.512500X0.150000X-0.512500X0.150000X0.512500X0*%
%TD*%
%TA.AperFunction,SMDPad,CuDef*%
%ADD19RoundRect,0.135000X0.135000X0.185000X-0.135000X0.185000X-0.135000X-0.185000X0.135000X-0.185000X0*%
%TD*%
%TA.AperFunction,SMDPad,CuDef*%
%ADD20RoundRect,0.150000X0.512500X0.150000X-0.512500X0.150000X-0.512500X-0.150000X0.512500X-0.150000X0*%
%TD*%
%TA.AperFunction,SMDPad,CuDef*%
%ADD21R,1.100000X1.530000*%
%TD*%
%TA.AperFunction,SMDPad,CuDef*%
%ADD22RoundRect,0.135000X0.185000X-0.135000X0.185000X0.135000X-0.185000X0.135000X-0.185000X-0.135000X0*%
%TD*%
%TA.AperFunction,ComponentPad*%
%ADD23R,1.700000X1.700000*%
%TD*%
%TA.AperFunction,ComponentPad*%
%ADD24C,1.700000*%
%TD*%
%TA.AperFunction,SMDPad,CuDef*%
%ADD25R,1.530000X1.100000*%
%TD*%
%TA.AperFunction,SMDPad,CuDef*%
%ADD26RoundRect,0.140000X-0.140000X-0.170000X0.140000X-0.170000X0.140000X0.170000X-0.140000X0.170000X0*%
%TD*%
%TA.AperFunction,SMDPad,CuDef*%
%ADD27RoundRect,0.147500X-0.147500X-0.172500X0.147500X-0.172500X0.147500X0.172500X-0.147500X0.172500X0*%
%TD*%
%TA.AperFunction,ViaPad*%
%ADD28C,0.600000*%
%TD*%
%TA.AperFunction,ViaPad*%
%ADD29C,1.000000*%
%TD*%
%TA.AperFunction,Conductor*%
%ADD30C,0.600000*%
%TD*%
%TA.AperFunction,Conductor*%
%ADD31C,0.200000*%
%TD*%
%TA.AperFunction,Conductor*%
%ADD32C,1.000000*%
%TD*%
G04 APERTURE END LIST*
D10*
%TO.P,J3,A1,GND*%
%TO.N,GND*%
X112610000Y-96200000D03*
%TO.P,J3,A4,VBUS*%
%TO.N,unconnected-(J3-VBUS-PadA4)_2*%
X112610000Y-95400000D03*
D11*
%TO.P,J3,A5,CC1*%
%TO.N,Net-(J3-CC1)*%
X112610000Y-94250000D03*
%TO.P,J3,A6,D+*%
%TO.N,D+*%
X112610000Y-93250000D03*
%TO.P,J3,A7,D-*%
%TO.N,D-*%
X112610000Y-92750000D03*
%TO.P,J3,A8,SBU1*%
%TO.N,unconnected-(J3-SBU1-PadA8)*%
X112610000Y-91750000D03*
D10*
%TO.P,J3,A9,VBUS*%
%TO.N,unconnected-(J3-VBUS-PadA4)_3*%
X112610000Y-90600000D03*
%TO.P,J3,A12,GND*%
%TO.N,GND*%
X112610000Y-89800000D03*
%TO.P,J3,B1,GND*%
X112610000Y-89800000D03*
%TO.P,J3,B4,VBUS*%
%TO.N,unconnected-(J3-VBUS-PadA4)*%
X112610000Y-90600000D03*
D11*
%TO.P,J3,B5,CC2*%
%TO.N,Net-(J3-CC2)*%
X112610000Y-91250000D03*
%TO.P,J3,B6,D+*%
%TO.N,D+*%
X112610000Y-92250000D03*
%TO.P,J3,B7,D-*%
%TO.N,D-*%
X112610000Y-93750000D03*
%TO.P,J3,B8,SBU2*%
%TO.N,unconnected-(J3-SBU2-PadB8)*%
X112610000Y-94750000D03*
D10*
%TO.P,J3,B9,VBUS*%
%TO.N,unconnected-(J3-VBUS-PadA4)_1*%
X112610000Y-95400000D03*
%TO.P,J3,B12,GND*%
%TO.N,GND*%
X112610000Y-96200000D03*
D12*
%TO.P,J3,S1,SHIELD*%
X113185000Y-97320000D03*
D13*
X117365000Y-97320000D03*
D12*
X113185000Y-88680000D03*
D13*
X117365000Y-88680000D03*
%TD*%
D10*
%TO.P,J2,A1,GND*%
%TO.N,GND*%
X112620000Y-83400000D03*
%TO.P,J2,A4,VBUS*%
%TO.N,VBUS*%
X112620000Y-82600000D03*
D11*
%TO.P,J2,A5,CC1*%
%TO.N,Net-(J2-CC1)*%
X112620000Y-81450000D03*
%TO.P,J2,A6,D+*%
%TO.N,unconnected-(J2-D+-PadA6)*%
X112620000Y-80450000D03*
%TO.P,J2,A7,D-*%
%TO.N,unconnected-(J2-D--PadA7)*%
X112620000Y-79950000D03*
%TO.P,J2,A8,SBU1*%
%TO.N,unconnected-(J2-SBU1-PadA8)*%
X112620000Y-78950000D03*
D10*
%TO.P,J2,A9,VBUS*%
%TO.N,VBUS*%
X112620000Y-77800000D03*
%TO.P,J2,A12,GND*%
%TO.N,GND*%
X112620000Y-77000000D03*
%TO.P,J2,B1,GND*%
X112620000Y-77000000D03*
%TO.P,J2,B4,VBUS*%
%TO.N,VBUS*%
X112620000Y-77800000D03*
D11*
%TO.P,J2,B5,CC2*%
%TO.N,Net-(J2-CC2)*%
X112620000Y-78450000D03*
%TO.P,J2,B6,D+*%
%TO.N,unconnected-(J2-D+-PadB6)*%
X112620000Y-79450000D03*
%TO.P,J2,B7,D-*%
%TO.N,unconnected-(J2-D--PadB7)*%
X112620000Y-80950000D03*
%TO.P,J2,B8,SBU2*%
%TO.N,unconnected-(J2-SBU2-PadB8)*%
X112620000Y-81950000D03*
D10*
%TO.P,J2,B9,VBUS*%
%TO.N,VBUS*%
X112620000Y-82600000D03*
%TO.P,J2,B12,GND*%
%TO.N,GND*%
X112620000Y-83400000D03*
D12*
%TO.P,J2,S1,SHIELD*%
X113195000Y-84520000D03*
D13*
X117375000Y-84520000D03*
D12*
X113195000Y-75880000D03*
D13*
X117375000Y-75880000D03*
%TD*%
D14*
%TO.P,J1,A1,GND*%
%TO.N,GND*%
X106800000Y-102610000D03*
%TO.P,J1,A4,VBUS*%
%TO.N,+5V*%
X107600000Y-102610000D03*
D15*
%TO.P,J1,A5,CC1*%
%TO.N,Net-(J1-CC1)*%
X108750000Y-102610000D03*
%TO.P,J1,A6,D+*%
%TO.N,D+*%
X109750000Y-102610000D03*
%TO.P,J1,A7,D-*%
%TO.N,D-*%
X110250000Y-102610000D03*
%TO.P,J1,A8,SBU1*%
%TO.N,unconnected-(J1-SBU1-PadA8)*%
X111250000Y-102610000D03*
D14*
%TO.P,J1,A9,VBUS*%
%TO.N,+5V*%
X112400000Y-102610000D03*
%TO.P,J1,A12,GND*%
%TO.N,GND*%
X113200000Y-102610000D03*
%TO.P,J1,B1,GND*%
X113200000Y-102610000D03*
%TO.P,J1,B4,VBUS*%
%TO.N,+5V*%
X112400000Y-102610000D03*
D15*
%TO.P,J1,B5,CC2*%
%TO.N,Net-(J1-CC2)*%
X111750000Y-102610000D03*
%TO.P,J1,B6,D+*%
%TO.N,D+*%
X110750000Y-102610000D03*
%TO.P,J1,B7,D-*%
%TO.N,D-*%
X109250000Y-102610000D03*
%TO.P,J1,B8,SBU2*%
%TO.N,unconnected-(J1-SBU2-PadB8)*%
X108250000Y-102610000D03*
D14*
%TO.P,J1,B9,VBUS*%
%TO.N,+5V*%
X107600000Y-102610000D03*
%TO.P,J1,B12,GND*%
%TO.N,GND*%
X106800000Y-102610000D03*
D16*
%TO.P,J1,S1,SHIELD*%
X105680000Y-103185000D03*
D17*
X105680000Y-107365000D03*
D16*
X114320000Y-103185000D03*
D17*
X114320000Y-107365000D03*
%TD*%
D18*
%TO.P,U2,1*%
%TO.N,VBUS*%
X110550000Y-83262500D03*
%TO.P,U2,2*%
X108650000Y-83262500D03*
%TO.P,U2,3*%
%TO.N,GND*%
X109600000Y-85537500D03*
%TD*%
D19*
%TO.P,R4,1*%
%TO.N,Net-(J2-CC2)*%
X110820000Y-78500000D03*
%TO.P,R4,2*%
%TO.N,GND*%
X109800000Y-78500000D03*
%TD*%
D20*
%TO.P,U1,1*%
%TO.N,D+*%
X109937500Y-95750000D03*
%TO.P,U1,2*%
%TO.N,D-*%
X109937500Y-93850000D03*
%TO.P,U1,3*%
%TO.N,GND*%
X107662500Y-94800000D03*
%TD*%
D21*
%TO.P,F1,1,1*%
%TO.N,+5V*%
X107215000Y-100400000D03*
%TO.P,F1,2,2*%
%TO.N,VBUS*%
X105385000Y-100400000D03*
%TD*%
D19*
%TO.P,R3,1*%
%TO.N,Net-(J2-CC1)*%
X110820000Y-81500000D03*
%TO.P,R3,2*%
%TO.N,GND*%
X109800000Y-81500000D03*
%TD*%
%TO.P,R5,1*%
%TO.N,Net-(J3-CC1)*%
X110500000Y-92300000D03*
%TO.P,R5,2*%
%TO.N,GND*%
X109480000Y-92300000D03*
%TD*%
D22*
%TO.P,R7,1*%
%TO.N,Net-(D1-K)*%
X106200000Y-97610000D03*
%TO.P,R7,2*%
%TO.N,GND*%
X106200000Y-96590000D03*
%TD*%
%TO.P,R2,1*%
%TO.N,Net-(J1-CC2)*%
X111100000Y-101010000D03*
%TO.P,R2,2*%
%TO.N,GND*%
X111100000Y-99990000D03*
%TD*%
D23*
%TO.P,J4,1,Pin_1*%
%TO.N,Net-(J4-Pin_1)*%
X101800000Y-93380000D03*
D24*
%TO.P,J4,2,Pin_2*%
X101800000Y-95920000D03*
%TO.P,J4,3,Pin_3*%
X101800000Y-98460000D03*
%TO.P,J4,4,Pin_4*%
X101800000Y-101000000D03*
%TD*%
D25*
%TO.P,F2,1,1*%
%TO.N,VBUS*%
X105200000Y-91670000D03*
%TO.P,F2,2,2*%
%TO.N,Net-(J4-Pin_1)*%
X105200000Y-93500000D03*
%TD*%
D26*
%TO.P,C1,1*%
%TO.N,+5V*%
X112420000Y-100600000D03*
%TO.P,C1,2*%
%TO.N,GND*%
X113380000Y-100600000D03*
%TD*%
D22*
%TO.P,R1,1*%
%TO.N,Net-(J1-CC1)*%
X108743887Y-101010000D03*
%TO.P,R1,2*%
%TO.N,GND*%
X108743887Y-99990000D03*
%TD*%
D19*
%TO.P,R6,1*%
%TO.N,Net-(J3-CC2)*%
X110510000Y-91300000D03*
%TO.P,R6,2*%
%TO.N,GND*%
X109490000Y-91300000D03*
%TD*%
D23*
%TO.P,J5,1,Pin_1*%
%TO.N,GND*%
X101800000Y-79000000D03*
D24*
%TO.P,J5,2,Pin_2*%
X101800000Y-81540000D03*
%TO.P,J5,3,Pin_3*%
X101800000Y-84080000D03*
%TO.P,J5,4,Pin_4*%
X101800000Y-86620000D03*
%TD*%
D27*
%TO.P,D1,1,K*%
%TO.N,Net-(D1-K)*%
X106215000Y-98700000D03*
%TO.P,D1,2,A*%
%TO.N,+5V*%
X107185000Y-98700000D03*
%TD*%
D28*
%TO.N,VBUS*%
X108650000Y-83262500D03*
X112200000Y-77800000D03*
X112900003Y-77800000D03*
X112900003Y-82600000D03*
X112200000Y-82600000D03*
X110550000Y-83262500D03*
D29*
X105385000Y-100400000D03*
X105200000Y-91670000D03*
D28*
%TO.N,GND*%
X112620000Y-83400000D03*
X106800000Y-102610000D03*
X112610000Y-96200000D03*
X112610000Y-89800000D03*
X112620000Y-77000000D03*
X113200000Y-102610000D03*
%TO.N,D-*%
X109801000Y-97200000D03*
X111570156Y-93527052D03*
X109937500Y-93850000D03*
%TO.N,Net-(J3-CC1)*%
X113575403Y-94163338D03*
X110500000Y-92300000D03*
%TO.N,+5V*%
X107600000Y-102200000D03*
X107185000Y-98700000D03*
X107600000Y-102900003D03*
D29*
X107215000Y-100400000D03*
D28*
X112400000Y-102900003D03*
X112400000Y-100600000D03*
X112400000Y-102200000D03*
%TD*%
D30*
%TO.N,GND*%
X112620000Y-76455000D02*
X113195000Y-75880000D01*
X112610000Y-89800000D02*
X112610000Y-89255000D01*
X112620000Y-83945000D02*
X113195000Y-84520000D01*
X112620000Y-77000000D02*
X112620000Y-76455000D01*
X112610000Y-89255000D02*
X113185000Y-88680000D01*
X112620000Y-83400000D02*
X112620000Y-83945000D01*
D31*
%TO.N,Net-(D1-K)*%
X106200000Y-97610000D02*
X106200000Y-98685000D01*
X106200000Y-98685000D02*
X106215000Y-98700000D01*
%TO.N,Net-(J1-CC2)*%
X111750000Y-101660000D02*
X111100000Y-101010000D01*
X111750000Y-102610000D02*
X111750000Y-101660000D01*
%TO.N,D-*%
X112585001Y-92725001D02*
X112026175Y-92725001D01*
X110250000Y-102610000D02*
X110250000Y-103218824D01*
X110250000Y-103218824D02*
X109982824Y-103486000D01*
X109801000Y-101285076D02*
X109801000Y-97200000D01*
X112001176Y-92750000D02*
X111734000Y-93017176D01*
X109250000Y-103218824D02*
X109250000Y-102610000D01*
X111570156Y-93527052D02*
X111793104Y-93750000D01*
X109250000Y-102610000D02*
X109250000Y-101836076D01*
X109250000Y-101836076D02*
X109801000Y-101285076D01*
X111793104Y-93750000D02*
X112610000Y-93750000D01*
X112610000Y-92750000D02*
X112001176Y-92750000D01*
X112026175Y-92725001D02*
X111734000Y-93017176D01*
X111734000Y-93017176D02*
X111570156Y-93181020D01*
X109982824Y-103486000D02*
X109517176Y-103486000D01*
X109517176Y-103486000D02*
X109250000Y-103218824D01*
X111570156Y-93181020D02*
X111570156Y-93527052D01*
X112610000Y-92750000D02*
X112585001Y-92725001D01*
%TO.N,D+*%
X110400000Y-101500000D02*
X110400000Y-101253176D01*
X113218824Y-93250000D02*
X112610000Y-93250000D01*
X109750000Y-101903176D02*
X109928176Y-101725000D01*
X111839809Y-92274999D02*
X112585001Y-92274999D01*
X110969156Y-93145652D02*
X111839809Y-92274999D01*
X113486000Y-92982824D02*
X113218824Y-93250000D01*
X112610000Y-92250000D02*
X113218824Y-92250000D01*
X110400000Y-96400000D02*
X110400000Y-95800000D01*
X110750000Y-102610000D02*
X110750000Y-101850000D01*
X113218824Y-92250000D02*
X113486000Y-92517176D01*
X110400000Y-101253176D02*
X110401000Y-101252176D01*
X109750000Y-102610000D02*
X109750000Y-101903176D01*
X110400000Y-95800000D02*
X110969156Y-95230844D01*
X110750000Y-101850000D02*
X110400000Y-101500000D01*
X109928176Y-101725000D02*
X110625000Y-101725000D01*
X110969156Y-95230844D02*
X110969156Y-93145652D01*
X110401000Y-101252176D02*
X110401000Y-96401000D01*
X110401000Y-96401000D02*
X110400000Y-96400000D01*
X113486000Y-92517176D02*
X113486000Y-92982824D01*
X112585001Y-92274999D02*
X112610000Y-92250000D01*
%TO.N,Net-(J1-CC1)*%
X108750000Y-101016113D02*
X108743887Y-101010000D01*
X108750000Y-102610000D02*
X108750000Y-101016113D01*
%TO.N,Net-(J2-CC2)*%
X110870000Y-78450000D02*
X110820000Y-78500000D01*
X112620000Y-78450000D02*
X110870000Y-78450000D01*
%TO.N,Net-(J2-CC1)*%
X112620000Y-81450000D02*
X110870000Y-81450000D01*
X110870000Y-81450000D02*
X110820000Y-81500000D01*
%TO.N,Net-(J3-CC2)*%
X110560000Y-91250000D02*
X110510000Y-91300000D01*
X112610000Y-91250000D02*
X110560000Y-91250000D01*
%TO.N,Net-(J3-CC1)*%
X112610000Y-94250000D02*
X113488741Y-94250000D01*
X113488741Y-94250000D02*
X113575403Y-94163338D01*
D32*
%TO.N,Net-(J4-Pin_1)*%
X101800000Y-93490000D02*
X105190000Y-93490000D01*
X105190000Y-93490000D02*
X105200000Y-93500000D01*
D31*
%TO.N,+5V*%
X107185000Y-100370000D02*
X107215000Y-100400000D01*
%TD*%
%TA.AperFunction,Conductor*%
%TO.N,GND*%
G36*
X117504043Y-70500765D02*
G01*
X117752895Y-70517075D01*
X117768953Y-70519190D01*
X117976105Y-70560395D01*
X118009535Y-70567045D01*
X118025202Y-70571243D01*
X118194947Y-70628863D01*
X118257481Y-70650091D01*
X118272458Y-70656294D01*
X118481799Y-70759529D01*
X118492460Y-70764787D01*
X118506508Y-70772897D01*
X118710464Y-70909177D01*
X118723328Y-70919048D01*
X118907749Y-71080781D01*
X118919218Y-71092250D01*
X119056196Y-71248444D01*
X119080951Y-71276671D01*
X119090825Y-71289539D01*
X119227102Y-71493492D01*
X119235212Y-71507539D01*
X119343702Y-71727534D01*
X119349909Y-71742520D01*
X119428756Y-71974797D01*
X119432954Y-71990464D01*
X119480807Y-72231035D01*
X119482925Y-72247116D01*
X119499235Y-72495956D01*
X119499500Y-72504066D01*
X119499500Y-107495933D01*
X119499235Y-107504043D01*
X119482925Y-107752883D01*
X119480807Y-107768964D01*
X119432954Y-108009535D01*
X119428756Y-108025202D01*
X119349909Y-108257479D01*
X119343702Y-108272465D01*
X119235212Y-108492460D01*
X119227102Y-108506507D01*
X119090825Y-108710460D01*
X119080951Y-108723328D01*
X118919218Y-108907749D01*
X118907749Y-108919218D01*
X118723328Y-109080951D01*
X118710460Y-109090825D01*
X118506507Y-109227102D01*
X118492460Y-109235212D01*
X118272465Y-109343702D01*
X118257479Y-109349909D01*
X118025202Y-109428756D01*
X118009535Y-109432954D01*
X117768964Y-109480807D01*
X117752883Y-109482925D01*
X117504043Y-109499235D01*
X117495933Y-109499500D01*
X102504067Y-109499500D01*
X102495957Y-109499235D01*
X102247116Y-109482925D01*
X102231035Y-109480807D01*
X101990464Y-109432954D01*
X101974797Y-109428756D01*
X101742520Y-109349909D01*
X101727534Y-109343702D01*
X101507539Y-109235212D01*
X101493492Y-109227102D01*
X101289539Y-109090825D01*
X101276671Y-109080951D01*
X101092250Y-108919218D01*
X101080781Y-108907749D01*
X100943804Y-108751557D01*
X100919045Y-108723325D01*
X100909174Y-108710460D01*
X100772897Y-108506507D01*
X100764787Y-108492460D01*
X100658855Y-108277652D01*
X100656294Y-108272458D01*
X100650090Y-108257479D01*
X100571243Y-108025202D01*
X100567045Y-108009535D01*
X100532118Y-107833946D01*
X100519190Y-107768953D01*
X100517075Y-107752895D01*
X100500765Y-107504043D01*
X100500500Y-107495933D01*
X100500500Y-107393713D01*
X101149500Y-107393713D01*
X101149500Y-107606286D01*
X101175265Y-107768964D01*
X101182754Y-107816243D01*
X101232721Y-107970026D01*
X101248444Y-108018414D01*
X101344951Y-108207820D01*
X101469890Y-108379786D01*
X101620213Y-108530109D01*
X101792179Y-108655048D01*
X101792181Y-108655049D01*
X101792184Y-108655051D01*
X101981588Y-108751557D01*
X102183757Y-108817246D01*
X102393713Y-108850500D01*
X102393714Y-108850500D01*
X102606286Y-108850500D01*
X102606287Y-108850500D01*
X102816243Y-108817246D01*
X103018412Y-108751557D01*
X103207816Y-108655051D01*
X103229789Y-108639086D01*
X103379786Y-108530109D01*
X103379788Y-108530106D01*
X103379792Y-108530104D01*
X103530104Y-108379792D01*
X103530106Y-108379788D01*
X103530109Y-108379786D01*
X103639086Y-108229789D01*
X103655051Y-108207816D01*
X103751557Y-108018412D01*
X103811494Y-107833946D01*
X104979999Y-107833946D01*
X105006899Y-107969176D01*
X105006902Y-107969186D01*
X105059664Y-108096566D01*
X105059671Y-108096579D01*
X105136275Y-108211226D01*
X105233773Y-108308724D01*
X105348420Y-108385328D01*
X105348424Y-108385330D01*
X105430000Y-108419119D01*
X105430000Y-107931988D01*
X105439940Y-107949205D01*
X105495795Y-108005060D01*
X105564204Y-108044556D01*
X105640504Y-108065000D01*
X105719496Y-108065000D01*
X105795796Y-108044556D01*
X105864205Y-108005060D01*
X105920060Y-107949205D01*
X105930000Y-107931988D01*
X105930000Y-108419118D01*
X106011575Y-108385330D01*
X106011579Y-108385328D01*
X106126226Y-108308724D01*
X106223724Y-108211226D01*
X106300328Y-108096579D01*
X106300335Y-108096566D01*
X106353097Y-107969186D01*
X106353100Y-107969176D01*
X106380000Y-107833946D01*
X113619999Y-107833946D01*
X113646899Y-107969176D01*
X113646902Y-107969186D01*
X113699664Y-108096566D01*
X113699671Y-108096579D01*
X113776275Y-108211226D01*
X113873773Y-108308724D01*
X113988420Y-108385328D01*
X113988424Y-108385330D01*
X114070000Y-108419119D01*
X114070000Y-107931988D01*
X114079940Y-107949205D01*
X114135795Y-108005060D01*
X114204204Y-108044556D01*
X114280504Y-108065000D01*
X114359496Y-108065000D01*
X114435796Y-108044556D01*
X114504205Y-108005060D01*
X114560060Y-107949205D01*
X114570000Y-107931988D01*
X114570000Y-108419118D01*
X114651575Y-108385330D01*
X114651579Y-108385328D01*
X114766226Y-108308724D01*
X114863724Y-108211226D01*
X114940328Y-108096579D01*
X114940335Y-108096566D01*
X114993097Y-107969186D01*
X114993100Y-107969176D01*
X115020000Y-107833946D01*
X115020000Y-107615000D01*
X114620000Y-107615000D01*
X114620000Y-107393713D01*
X116149500Y-107393713D01*
X116149500Y-107606286D01*
X116175265Y-107768964D01*
X116182754Y-107816243D01*
X116232721Y-107970026D01*
X116248444Y-108018414D01*
X116344951Y-108207820D01*
X116469890Y-108379786D01*
X116620213Y-108530109D01*
X116792179Y-108655048D01*
X116792181Y-108655049D01*
X116792184Y-108655051D01*
X116981588Y-108751557D01*
X117183757Y-108817246D01*
X117393713Y-108850500D01*
X117393714Y-108850500D01*
X117606286Y-108850500D01*
X117606287Y-108850500D01*
X117816243Y-108817246D01*
X118018412Y-108751557D01*
X118207816Y-108655051D01*
X118229789Y-108639086D01*
X118379786Y-108530109D01*
X118379788Y-108530106D01*
X118379792Y-108530104D01*
X118530104Y-108379792D01*
X118530106Y-108379788D01*
X118530109Y-108379786D01*
X118639086Y-108229789D01*
X118655051Y-108207816D01*
X118751557Y-108018412D01*
X118817246Y-107816243D01*
X118850500Y-107606287D01*
X118850500Y-107393713D01*
X118817246Y-107183757D01*
X118751557Y-106981588D01*
X118655051Y-106792184D01*
X118655049Y-106792181D01*
X118655048Y-106792179D01*
X118530109Y-106620213D01*
X118379786Y-106469890D01*
X118207820Y-106344951D01*
X118018414Y-106248444D01*
X118018413Y-106248443D01*
X118018412Y-106248443D01*
X117816243Y-106182754D01*
X117816241Y-106182753D01*
X117816240Y-106182753D01*
X117654957Y-106157208D01*
X117606287Y-106149500D01*
X117393713Y-106149500D01*
X117345042Y-106157208D01*
X117183760Y-106182753D01*
X116981585Y-106248444D01*
X116792179Y-106344951D01*
X116620213Y-106469890D01*
X116469890Y-106620213D01*
X116344951Y-106792179D01*
X116248444Y-106981585D01*
X116182753Y-107183760D01*
X116149500Y-107393713D01*
X114620000Y-107393713D01*
X114620000Y-107115000D01*
X115020000Y-107115000D01*
X115020000Y-106896053D01*
X114993100Y-106760823D01*
X114993097Y-106760813D01*
X114940335Y-106633433D01*
X114940328Y-106633420D01*
X114863724Y-106518773D01*
X114766226Y-106421275D01*
X114651573Y-106344667D01*
X114570000Y-106310879D01*
X114570000Y-106798011D01*
X114560060Y-106780795D01*
X114504205Y-106724940D01*
X114435796Y-106685444D01*
X114359496Y-106665000D01*
X114280504Y-106665000D01*
X114204204Y-106685444D01*
X114135795Y-106724940D01*
X114079940Y-106780795D01*
X114070000Y-106798011D01*
X114070000Y-106310879D01*
X114069999Y-106310879D01*
X113988426Y-106344667D01*
X113873773Y-106421275D01*
X113776275Y-106518773D01*
X113699671Y-106633420D01*
X113699664Y-106633433D01*
X113646902Y-106760813D01*
X113646899Y-106760823D01*
X113620000Y-106896053D01*
X113620000Y-107115000D01*
X114020000Y-107115000D01*
X114020000Y-107615000D01*
X113620000Y-107615000D01*
X113620000Y-107833946D01*
X113619999Y-107833946D01*
X106380000Y-107833946D01*
X106380000Y-107615000D01*
X105980000Y-107615000D01*
X105980000Y-107115000D01*
X106380000Y-107115000D01*
X106380000Y-106896053D01*
X106353100Y-106760823D01*
X106353097Y-106760813D01*
X106300335Y-106633433D01*
X106300328Y-106633420D01*
X106223724Y-106518773D01*
X106126226Y-106421275D01*
X106011573Y-106344667D01*
X105930000Y-106310879D01*
X105930000Y-106798011D01*
X105920060Y-106780795D01*
X105864205Y-106724940D01*
X105795796Y-106685444D01*
X105719496Y-106665000D01*
X105640504Y-106665000D01*
X105564204Y-106685444D01*
X105495795Y-106724940D01*
X105439940Y-106780795D01*
X105430000Y-106798011D01*
X105430000Y-106310879D01*
X105429999Y-106310879D01*
X105348426Y-106344667D01*
X105233773Y-106421275D01*
X105136275Y-106518773D01*
X105059671Y-106633420D01*
X105059664Y-106633433D01*
X105006902Y-106760813D01*
X105006899Y-106760823D01*
X104980000Y-106896053D01*
X104980000Y-107115000D01*
X105380000Y-107115000D01*
X105380000Y-107615000D01*
X104980000Y-107615000D01*
X104980000Y-107833946D01*
X104979999Y-107833946D01*
X103811494Y-107833946D01*
X103817246Y-107816243D01*
X103850500Y-107606287D01*
X103850500Y-107393713D01*
X103817246Y-107183757D01*
X103751557Y-106981588D01*
X103655051Y-106792184D01*
X103655049Y-106792181D01*
X103655048Y-106792179D01*
X103530109Y-106620213D01*
X103379786Y-106469890D01*
X103207820Y-106344951D01*
X103018414Y-106248444D01*
X103018413Y-106248443D01*
X103018412Y-106248443D01*
X102816243Y-106182754D01*
X102816241Y-106182753D01*
X102816240Y-106182753D01*
X102654957Y-106157208D01*
X102606287Y-106149500D01*
X102393713Y-106149500D01*
X102345042Y-106157208D01*
X102183760Y-106182753D01*
X101981585Y-106248444D01*
X101792179Y-106344951D01*
X101620213Y-106469890D01*
X101469890Y-106620213D01*
X101344951Y-106792179D01*
X101248444Y-106981585D01*
X101182753Y-107183760D01*
X101149500Y-107393713D01*
X100500500Y-107393713D01*
X100500500Y-103803946D01*
X104979999Y-103803946D01*
X105006899Y-103939176D01*
X105006902Y-103939186D01*
X105059664Y-104066566D01*
X105059671Y-104066579D01*
X105136275Y-104181226D01*
X105233773Y-104278724D01*
X105348420Y-104355328D01*
X105348424Y-104355330D01*
X105430000Y-104389119D01*
X105430000Y-103901988D01*
X105439940Y-103919205D01*
X105495795Y-103975060D01*
X105564204Y-104014556D01*
X105640504Y-104035000D01*
X105719496Y-104035000D01*
X105795796Y-104014556D01*
X105864205Y-103975060D01*
X105920060Y-103919205D01*
X105930000Y-103901988D01*
X105930000Y-104389118D01*
X106011575Y-104355330D01*
X106011579Y-104355328D01*
X106126226Y-104278724D01*
X106223724Y-104181226D01*
X106300328Y-104066579D01*
X106300335Y-104066566D01*
X106355430Y-103933555D01*
X106357109Y-103934250D01*
X106390715Y-103882956D01*
X106454523Y-103854491D01*
X106523592Y-103865042D01*
X106575992Y-103911259D01*
X106578478Y-103915378D01*
X106649485Y-104038365D01*
X106756635Y-104145515D01*
X106887865Y-104221281D01*
X107034234Y-104260500D01*
X107034236Y-104260500D01*
X107185764Y-104260500D01*
X107185766Y-104260500D01*
X107332135Y-104221281D01*
X107463365Y-104145515D01*
X107570515Y-104038365D01*
X107646281Y-103907135D01*
X107685500Y-103760766D01*
X107685500Y-103609234D01*
X107667375Y-103541590D01*
X107669038Y-103471744D01*
X107708200Y-103413881D01*
X107751888Y-103390620D01*
X107769149Y-103385500D01*
X107783260Y-103385500D01*
X107851393Y-103375573D01*
X107926652Y-103338781D01*
X107936568Y-103335840D01*
X107961583Y-103335770D01*
X107986243Y-103331561D01*
X107997408Y-103335671D01*
X108006437Y-103335647D01*
X108018812Y-103343551D01*
X108040719Y-103351617D01*
X108061520Y-103365516D01*
X108067505Y-103369515D01*
X108067509Y-103369516D01*
X108094533Y-103374891D01*
X108147867Y-103385500D01*
X108352132Y-103385499D01*
X108432495Y-103369515D01*
X108432498Y-103369512D01*
X108443778Y-103364841D01*
X108444376Y-103366286D01*
X108497782Y-103349563D01*
X108555943Y-103365516D01*
X108556223Y-103364842D01*
X108561590Y-103367065D01*
X108565162Y-103368045D01*
X108567351Y-103369451D01*
X108567506Y-103369516D01*
X108620957Y-103380147D01*
X108647867Y-103385500D01*
X108852132Y-103385499D01*
X108903544Y-103375273D01*
X108973133Y-103381500D01*
X109015414Y-103409209D01*
X109276716Y-103670511D01*
X109332665Y-103726460D01*
X109332667Y-103726461D01*
X109332671Y-103726464D01*
X109392083Y-103760765D01*
X109401187Y-103766021D01*
X109477614Y-103786500D01*
X109477616Y-103786500D01*
X110022384Y-103786500D01*
X110022386Y-103786500D01*
X110098813Y-103766021D01*
X110167335Y-103726460D01*
X110223284Y-103670511D01*
X110484586Y-103409208D01*
X110545907Y-103375725D01*
X110596457Y-103375274D01*
X110602984Y-103376572D01*
X110647867Y-103385500D01*
X110852132Y-103385499D01*
X110932495Y-103369515D01*
X110932498Y-103369512D01*
X110943778Y-103364841D01*
X110944376Y-103366286D01*
X110997782Y-103349563D01*
X111055943Y-103365516D01*
X111056223Y-103364842D01*
X111061590Y-103367065D01*
X111065162Y-103368045D01*
X111067351Y-103369451D01*
X111067506Y-103369516D01*
X111120957Y-103380147D01*
X111147867Y-103385500D01*
X111352132Y-103385499D01*
X111432495Y-103369515D01*
X111432498Y-103369512D01*
X111443778Y-103364841D01*
X111444376Y-103366286D01*
X111497782Y-103349563D01*
X111555943Y-103365516D01*
X111556223Y-103364842D01*
X111561590Y-103367065D01*
X111565162Y-103368045D01*
X111567351Y-103369451D01*
X111567506Y-103369516D01*
X111620957Y-103380147D01*
X111647867Y-103385500D01*
X111852132Y-103385499D01*
X111932495Y-103369515D01*
X111959281Y-103351616D01*
X112025954Y-103330739D01*
X112063433Y-103335839D01*
X112073341Y-103338778D01*
X112148607Y-103375573D01*
X112216740Y-103385500D01*
X112230852Y-103385500D01*
X112248113Y-103390620D01*
X112262944Y-103400209D01*
X112279889Y-103405185D01*
X112291672Y-103418783D01*
X112306787Y-103428556D01*
X112314080Y-103444643D01*
X112325644Y-103457989D01*
X112328205Y-103475800D01*
X112335636Y-103492192D01*
X112333074Y-103509665D01*
X112335588Y-103527147D01*
X112332628Y-103541576D01*
X112314500Y-103609234D01*
X112314500Y-103609236D01*
X112314500Y-103760765D01*
X112353719Y-103907136D01*
X112391602Y-103972750D01*
X112429485Y-104038365D01*
X112536635Y-104145515D01*
X112667865Y-104221281D01*
X112814234Y-104260500D01*
X112814236Y-104260500D01*
X112965764Y-104260500D01*
X112965766Y-104260500D01*
X113112135Y-104221281D01*
X113243365Y-104145515D01*
X113350515Y-104038365D01*
X113421521Y-103915378D01*
X113472088Y-103867163D01*
X113540695Y-103853940D01*
X113605560Y-103879908D01*
X113643945Y-103933813D01*
X113644570Y-103933555D01*
X113645695Y-103936271D01*
X113646088Y-103936823D01*
X113646683Y-103938657D01*
X113699664Y-104066566D01*
X113699671Y-104066579D01*
X113776275Y-104181226D01*
X113873773Y-104278724D01*
X113988420Y-104355328D01*
X113988424Y-104355330D01*
X114070000Y-104389119D01*
X114070000Y-103901988D01*
X114079940Y-103919205D01*
X114135795Y-103975060D01*
X114204204Y-104014556D01*
X114280504Y-104035000D01*
X114359496Y-104035000D01*
X114435796Y-104014556D01*
X114504205Y-103975060D01*
X114560060Y-103919205D01*
X114570000Y-103901988D01*
X114570000Y-104389118D01*
X114651575Y-104355330D01*
X114651579Y-104355328D01*
X114766226Y-104278724D01*
X114863724Y-104181226D01*
X114940328Y-104066579D01*
X114940335Y-104066566D01*
X114993097Y-103939186D01*
X114993100Y-103939176D01*
X115020000Y-103803946D01*
X115020000Y-103435000D01*
X114620000Y-103435000D01*
X114620000Y-102935000D01*
X115020000Y-102935000D01*
X115020000Y-102566053D01*
X114993100Y-102430823D01*
X114993097Y-102430813D01*
X114940335Y-102303433D01*
X114940328Y-102303420D01*
X114863724Y-102188773D01*
X114766226Y-102091275D01*
X114651573Y-102014667D01*
X114570000Y-101980879D01*
X114570000Y-102468011D01*
X114560060Y-102450795D01*
X114504205Y-102394940D01*
X114435796Y-102355444D01*
X114359496Y-102335000D01*
X114280504Y-102335000D01*
X114204204Y-102355444D01*
X114135795Y-102394940D01*
X114079940Y-102450795D01*
X114070000Y-102468011D01*
X114070000Y-101980879D01*
X114069999Y-101980879D01*
X113988426Y-102014667D01*
X113873773Y-102091275D01*
X113869061Y-102095143D01*
X113867841Y-102093656D01*
X113814328Y-102122863D01*
X113744637Y-102117864D01*
X113688712Y-102075981D01*
X113676594Y-102056150D01*
X113638785Y-101978809D01*
X113556188Y-101896212D01*
X113451249Y-101844911D01*
X113451250Y-101844911D01*
X113450000Y-101844729D01*
X113450000Y-103131758D01*
X113430315Y-103198797D01*
X113377511Y-103244552D01*
X113308353Y-103254496D01*
X113250760Y-103228194D01*
X113249811Y-103229432D01*
X113243368Y-103224488D01*
X113243365Y-103224485D01*
X113177750Y-103186602D01*
X113112136Y-103148719D01*
X113079988Y-103140105D01*
X113041906Y-103129901D01*
X112982246Y-103093537D01*
X112951717Y-103030690D01*
X112950000Y-103010127D01*
X112950000Y-102860000D01*
X112936819Y-102846819D01*
X112903334Y-102785496D01*
X112900500Y-102759138D01*
X112900500Y-102460862D01*
X112920185Y-102393823D01*
X112936819Y-102373181D01*
X112950000Y-102360000D01*
X112950000Y-101844730D01*
X112949999Y-101844729D01*
X112948751Y-101844911D01*
X112896627Y-101870393D01*
X112827754Y-101882151D01*
X112763457Y-101854808D01*
X112754487Y-101846673D01*
X112707316Y-101799502D01*
X112707314Y-101799500D01*
X112650250Y-101766554D01*
X112593187Y-101733608D01*
X112506945Y-101710500D01*
X112465892Y-101699500D01*
X112334108Y-101699500D01*
X112206593Y-101733667D01*
X112136743Y-101732004D01*
X112078881Y-101692841D01*
X112051377Y-101628612D01*
X112051212Y-101625849D01*
X112050500Y-101620440D01*
X112050500Y-101620438D01*
X112030021Y-101544011D01*
X112003225Y-101497598D01*
X111990464Y-101475495D01*
X111990458Y-101475487D01*
X111656819Y-101141848D01*
X111649076Y-101127668D01*
X111637342Y-101116562D01*
X111631799Y-101096028D01*
X111623334Y-101080525D01*
X111624088Y-101067459D01*
X111620500Y-101054167D01*
X111620500Y-100835683D01*
X111615200Y-100795425D01*
X111614068Y-100786827D01*
X111564065Y-100679596D01*
X111480404Y-100595935D01*
X111479905Y-100595702D01*
X111472091Y-100588000D01*
X111459965Y-100566168D01*
X111444376Y-100546655D01*
X111443291Y-100536150D01*
X111442157Y-100534108D01*
X111899500Y-100534108D01*
X111899500Y-100665891D01*
X111935711Y-100801036D01*
X111935435Y-100801109D01*
X111941151Y-100822439D01*
X111946027Y-100859483D01*
X111946029Y-100859490D01*
X111963303Y-100896534D01*
X111996776Y-100968316D01*
X112081684Y-101053224D01*
X112190513Y-101103972D01*
X112240099Y-101110500D01*
X112599900Y-101110499D01*
X112649487Y-101103972D01*
X112758316Y-101053224D01*
X112812673Y-100998867D01*
X112873996Y-100965382D01*
X112943688Y-100970366D01*
X112988035Y-100998867D01*
X113041976Y-101052808D01*
X113129999Y-101093853D01*
X113130000Y-101093853D01*
X113630000Y-101093853D01*
X113718023Y-101052808D01*
X113802807Y-100968024D01*
X113853478Y-100859361D01*
X113853480Y-100859355D01*
X113854712Y-100850000D01*
X113630000Y-100850000D01*
X113630000Y-101093853D01*
X113130000Y-101093853D01*
X113130000Y-100350000D01*
X113630000Y-100350000D01*
X113854712Y-100350000D01*
X113853480Y-100340644D01*
X113853478Y-100340638D01*
X113802807Y-100231975D01*
X113718025Y-100147193D01*
X113630000Y-100106145D01*
X113630000Y-100350000D01*
X113130000Y-100350000D01*
X113130000Y-100106145D01*
X113041974Y-100147193D01*
X112988035Y-100201133D01*
X112926712Y-100234618D01*
X112857020Y-100229634D01*
X112812673Y-100201133D01*
X112758316Y-100146776D01*
X112732805Y-100134880D01*
X112649487Y-100096028D01*
X112649485Y-100096027D01*
X112649486Y-100096027D01*
X112599902Y-100089500D01*
X112240105Y-100089500D01*
X112224386Y-100091569D01*
X112190513Y-100096028D01*
X112190511Y-100096029D01*
X112190509Y-100096029D01*
X112081683Y-100146776D01*
X111996776Y-100231683D01*
X111946027Y-100340514D01*
X111941150Y-100377563D01*
X111935435Y-100398890D01*
X111935711Y-100398964D01*
X111899500Y-100534108D01*
X111442157Y-100534108D01*
X111438165Y-100526920D01*
X111439767Y-100501997D01*
X111437203Y-100477154D01*
X111441969Y-100467731D01*
X111442647Y-100457194D01*
X111457468Y-100437093D01*
X111468743Y-100414808D01*
X111472594Y-100411473D01*
X111472441Y-100411320D01*
X111563648Y-100320112D01*
X111601005Y-100240000D01*
X111224000Y-100240000D01*
X111156961Y-100220315D01*
X111111206Y-100167511D01*
X111100000Y-100116000D01*
X111100000Y-99990000D01*
X110974000Y-99990000D01*
X110906961Y-99970315D01*
X110861206Y-99917511D01*
X110850000Y-99866000D01*
X110850000Y-99740000D01*
X111350000Y-99740000D01*
X111601006Y-99740000D01*
X111601005Y-99739999D01*
X111563648Y-99659887D01*
X111480112Y-99576351D01*
X111373046Y-99526425D01*
X111373041Y-99526423D01*
X111350000Y-99523389D01*
X111350000Y-99740000D01*
X110850000Y-99740000D01*
X110850000Y-99547958D01*
X110775356Y-99514954D01*
X110774176Y-99513956D01*
X110772652Y-99513719D01*
X110747595Y-99491480D01*
X110722003Y-99469841D01*
X110721550Y-99468365D01*
X110720395Y-99467340D01*
X110708096Y-99424515D01*
X110701509Y-99403044D01*
X110701717Y-99402301D01*
X110701500Y-99401545D01*
X110701500Y-96360972D01*
X110700500Y-96345716D01*
X110700500Y-96196543D01*
X110720185Y-96129504D01*
X110736818Y-96108862D01*
X110739198Y-96106483D01*
X110790573Y-96001393D01*
X110800500Y-95933260D01*
X110800500Y-95875833D01*
X110820185Y-95808794D01*
X110836819Y-95788152D01*
X111011392Y-95613579D01*
X111209616Y-95415355D01*
X111245201Y-95353719D01*
X111249177Y-95346833D01*
X111269656Y-95270406D01*
X111269656Y-94126288D01*
X111289341Y-94059249D01*
X111342145Y-94013494D01*
X111411303Y-94003550D01*
X111425727Y-94006508D01*
X111504264Y-94027552D01*
X111504267Y-94027552D01*
X111644177Y-94027552D01*
X111644177Y-94027575D01*
X111646188Y-94026933D01*
X111681230Y-94031123D01*
X111689203Y-94033260D01*
X111742595Y-94047567D01*
X111802255Y-94083932D01*
X111832783Y-94146780D01*
X111834500Y-94167340D01*
X111834500Y-94352129D01*
X111838960Y-94374552D01*
X111850088Y-94430500D01*
X111850486Y-94432498D01*
X111855159Y-94443780D01*
X111853714Y-94444378D01*
X111870436Y-94497788D01*
X111854482Y-94555938D01*
X111855159Y-94556219D01*
X111852926Y-94561609D01*
X111851950Y-94565168D01*
X111850550Y-94567345D01*
X111850484Y-94567505D01*
X111834500Y-94647863D01*
X111834500Y-94852129D01*
X111845985Y-94909870D01*
X111850485Y-94932495D01*
X111868380Y-94959277D01*
X111868382Y-94959279D01*
X111889260Y-95025956D01*
X111876681Y-95082630D01*
X111844426Y-95148608D01*
X111834500Y-95216739D01*
X111834500Y-95583260D01*
X111844426Y-95651391D01*
X111890730Y-95746108D01*
X111902488Y-95814981D01*
X111890730Y-95855028D01*
X111844911Y-95948752D01*
X111844729Y-95949999D01*
X111844730Y-95950000D01*
X112486000Y-95950000D01*
X112553039Y-95969685D01*
X112598794Y-96022489D01*
X112610000Y-96074000D01*
X112610000Y-96200000D01*
X112736000Y-96200000D01*
X112803039Y-96219685D01*
X112848794Y-96272489D01*
X112860000Y-96324000D01*
X112860000Y-96706000D01*
X112840315Y-96773039D01*
X112787511Y-96818794D01*
X112736000Y-96830000D01*
X112484000Y-96830000D01*
X112416961Y-96810315D01*
X112371206Y-96757511D01*
X112360000Y-96706000D01*
X112360000Y-96450000D01*
X111844730Y-96450000D01*
X111844911Y-96451249D01*
X111896212Y-96556188D01*
X111978809Y-96638785D01*
X112056150Y-96676594D01*
X112107733Y-96723721D01*
X112125648Y-96791255D01*
X112104208Y-96857754D01*
X112094968Y-96868917D01*
X112095143Y-96869061D01*
X112091275Y-96873773D01*
X112014667Y-96988426D01*
X111980879Y-97069999D01*
X111980879Y-97070000D01*
X112468012Y-97070000D01*
X112450795Y-97079940D01*
X112394940Y-97135795D01*
X112355444Y-97204204D01*
X112335000Y-97280504D01*
X112335000Y-97359496D01*
X112355444Y-97435796D01*
X112394940Y-97504205D01*
X112450795Y-97560060D01*
X112468012Y-97570000D01*
X111980879Y-97570000D01*
X112014667Y-97651573D01*
X112091275Y-97766226D01*
X112188773Y-97863724D01*
X112303420Y-97940328D01*
X112303433Y-97940335D01*
X112430813Y-97993097D01*
X112430823Y-97993100D01*
X112566053Y-98020000D01*
X112935000Y-98020000D01*
X112935000Y-97620000D01*
X113435000Y-97620000D01*
X113435000Y-98020000D01*
X113803946Y-98020000D01*
X113939176Y-97993100D01*
X113939186Y-97993097D01*
X114066566Y-97940335D01*
X114066579Y-97940328D01*
X114181226Y-97863724D01*
X114278724Y-97766226D01*
X114355332Y-97651573D01*
X114389121Y-97570000D01*
X113901988Y-97570000D01*
X113919205Y-97560060D01*
X113975060Y-97504205D01*
X114014556Y-97435796D01*
X114035000Y-97359496D01*
X114035000Y-97280504D01*
X114014556Y-97204204D01*
X113975060Y-97135795D01*
X113919205Y-97079940D01*
X113901988Y-97070000D01*
X114389121Y-97070000D01*
X114389120Y-97069999D01*
X116310879Y-97069999D01*
X116310879Y-97070000D01*
X116798012Y-97070000D01*
X116780795Y-97079940D01*
X116724940Y-97135795D01*
X116685444Y-97204204D01*
X116665000Y-97280504D01*
X116665000Y-97359496D01*
X116685444Y-97435796D01*
X116724940Y-97504205D01*
X116780795Y-97560060D01*
X116798012Y-97570000D01*
X116310879Y-97570000D01*
X116344667Y-97651573D01*
X116421275Y-97766226D01*
X116518773Y-97863724D01*
X116633420Y-97940328D01*
X116633433Y-97940335D01*
X116760813Y-97993097D01*
X116760823Y-97993100D01*
X116896053Y-98020000D01*
X117115000Y-98020000D01*
X117115000Y-97620000D01*
X117615000Y-97620000D01*
X117615000Y-98020000D01*
X117833946Y-98020000D01*
X117969176Y-97993100D01*
X117969186Y-97993097D01*
X118096566Y-97940335D01*
X118096579Y-97940328D01*
X118211226Y-97863724D01*
X118308724Y-97766226D01*
X118385332Y-97651573D01*
X118419121Y-97570000D01*
X117931988Y-97570000D01*
X117949205Y-97560060D01*
X118005060Y-97504205D01*
X118044556Y-97435796D01*
X118065000Y-97359496D01*
X118065000Y-97280504D01*
X118044556Y-97204204D01*
X118005060Y-97135795D01*
X117949205Y-97079940D01*
X117931988Y-97070000D01*
X118419121Y-97070000D01*
X118419120Y-97069999D01*
X118385332Y-96988426D01*
X118308724Y-96873773D01*
X118211226Y-96776275D01*
X118096579Y-96699671D01*
X118096566Y-96699664D01*
X117969186Y-96646902D01*
X117969176Y-96646899D01*
X117833946Y-96620000D01*
X117615000Y-96620000D01*
X117615000Y-97020000D01*
X117115000Y-97020000D01*
X117115000Y-96620000D01*
X116896054Y-96620000D01*
X116760823Y-96646899D01*
X116760813Y-96646902D01*
X116633433Y-96699664D01*
X116633420Y-96699671D01*
X116518773Y-96776275D01*
X116421275Y-96873773D01*
X116344667Y-96988426D01*
X116310879Y-97069999D01*
X114389120Y-97069999D01*
X114355332Y-96988426D01*
X114278724Y-96873773D01*
X114181226Y-96776275D01*
X114066579Y-96699671D01*
X114066566Y-96699664D01*
X113933555Y-96644570D01*
X113934248Y-96642895D01*
X113882936Y-96609260D01*
X113854487Y-96545445D01*
X113865055Y-96476379D01*
X113911285Y-96423991D01*
X113915367Y-96421528D01*
X114038365Y-96350515D01*
X114145515Y-96243365D01*
X114221281Y-96112135D01*
X114260500Y-95965766D01*
X114260500Y-95814234D01*
X114221281Y-95667865D01*
X114145515Y-95536635D01*
X114038365Y-95429485D01*
X113972750Y-95391602D01*
X113907136Y-95353719D01*
X113822200Y-95330961D01*
X113760766Y-95314500D01*
X113609234Y-95314500D01*
X113609232Y-95314500D01*
X113541592Y-95332624D01*
X113471743Y-95330961D01*
X113413880Y-95291798D01*
X113390620Y-95248112D01*
X113385500Y-95230851D01*
X113385500Y-95216740D01*
X113375573Y-95148607D01*
X113338778Y-95073341D01*
X113335839Y-95063433D01*
X113335769Y-95038419D01*
X113331559Y-95013758D01*
X113335670Y-95002589D01*
X113335646Y-94993564D01*
X113343549Y-94981190D01*
X113351615Y-94959282D01*
X113369515Y-94932495D01*
X113385500Y-94852133D01*
X113385500Y-94787838D01*
X113405185Y-94720799D01*
X113457989Y-94675044D01*
X113509500Y-94663838D01*
X113641293Y-94663838D01*
X113641295Y-94663838D01*
X113768589Y-94629730D01*
X113882717Y-94563838D01*
X113975903Y-94470652D01*
X114041795Y-94356524D01*
X114075903Y-94229230D01*
X114075903Y-94097446D01*
X114041795Y-93970152D01*
X113975903Y-93856024D01*
X113882717Y-93762838D01*
X113825653Y-93729892D01*
X113768590Y-93696946D01*
X113704942Y-93679892D01*
X113641295Y-93662838D01*
X113530319Y-93662838D01*
X113463280Y-93643153D01*
X113417525Y-93590349D01*
X113407581Y-93521191D01*
X113436606Y-93457635D01*
X113442638Y-93451157D01*
X113547865Y-93345930D01*
X113726460Y-93167335D01*
X113745699Y-93134012D01*
X113766021Y-93098813D01*
X113786500Y-93022386D01*
X113786500Y-92477614D01*
X113766021Y-92401187D01*
X113745644Y-92365892D01*
X113726464Y-92332671D01*
X113726458Y-92332663D01*
X113409210Y-92015415D01*
X113375725Y-91954092D01*
X113375274Y-91903542D01*
X113377434Y-91892681D01*
X113385500Y-91852133D01*
X113385499Y-91647868D01*
X113369515Y-91567505D01*
X113369513Y-91567502D01*
X113364841Y-91556222D01*
X113366285Y-91555623D01*
X113349563Y-91502211D01*
X113365517Y-91444056D01*
X113364842Y-91443777D01*
X113367070Y-91438396D01*
X113368049Y-91434831D01*
X113369452Y-91432647D01*
X113369516Y-91432493D01*
X113385499Y-91352136D01*
X113385500Y-91352133D01*
X113385499Y-91147868D01*
X113369515Y-91067505D01*
X113351617Y-91040720D01*
X113330740Y-90974044D01*
X113335840Y-90936568D01*
X113338781Y-90926652D01*
X113375573Y-90851393D01*
X113385500Y-90783260D01*
X113385500Y-90769149D01*
X113390620Y-90751888D01*
X113400209Y-90737057D01*
X113405185Y-90720111D01*
X113418784Y-90708326D01*
X113428556Y-90693214D01*
X113444642Y-90685921D01*
X113457989Y-90674356D01*
X113475800Y-90671794D01*
X113492191Y-90664364D01*
X113509665Y-90666925D01*
X113527147Y-90664412D01*
X113541576Y-90667371D01*
X113609234Y-90685500D01*
X113609237Y-90685500D01*
X113760764Y-90685500D01*
X113760766Y-90685500D01*
X113907135Y-90646281D01*
X114038365Y-90570515D01*
X114145515Y-90463365D01*
X114221281Y-90332135D01*
X114260500Y-90185766D01*
X114260500Y-90034234D01*
X114221281Y-89887865D01*
X114145515Y-89756635D01*
X114038365Y-89649485D01*
X113915378Y-89578478D01*
X113867163Y-89527910D01*
X113853941Y-89459303D01*
X113879909Y-89394439D01*
X113933813Y-89356054D01*
X113933555Y-89355430D01*
X113936267Y-89354306D01*
X113936823Y-89353911D01*
X113938669Y-89353311D01*
X114066566Y-89300335D01*
X114066579Y-89300328D01*
X114181226Y-89223724D01*
X114278724Y-89126226D01*
X114355332Y-89011573D01*
X114389121Y-88930000D01*
X113901988Y-88930000D01*
X113919205Y-88920060D01*
X113975060Y-88864205D01*
X114014556Y-88795796D01*
X114035000Y-88719496D01*
X114035000Y-88640504D01*
X114014556Y-88564204D01*
X113975060Y-88495795D01*
X113919205Y-88439940D01*
X113901988Y-88430000D01*
X114389121Y-88430000D01*
X114389120Y-88429999D01*
X116310879Y-88429999D01*
X116310879Y-88430000D01*
X116798012Y-88430000D01*
X116780795Y-88439940D01*
X116724940Y-88495795D01*
X116685444Y-88564204D01*
X116665000Y-88640504D01*
X116665000Y-88719496D01*
X116685444Y-88795796D01*
X116724940Y-88864205D01*
X116780795Y-88920060D01*
X116798012Y-88930000D01*
X116310879Y-88930000D01*
X116344667Y-89011573D01*
X116421275Y-89126226D01*
X116518773Y-89223724D01*
X116633420Y-89300328D01*
X116633433Y-89300335D01*
X116760813Y-89353097D01*
X116760823Y-89353100D01*
X116896053Y-89380000D01*
X117115000Y-89380000D01*
X117115000Y-88980000D01*
X117615000Y-88980000D01*
X117615000Y-89380000D01*
X117833946Y-89380000D01*
X117969176Y-89353100D01*
X117969186Y-89353097D01*
X118096566Y-89300335D01*
X118096579Y-89300328D01*
X118211226Y-89223724D01*
X118308724Y-89126226D01*
X118385332Y-89011573D01*
X118419121Y-88930000D01*
X117931988Y-88930000D01*
X117949205Y-88920060D01*
X118005060Y-88864205D01*
X118044556Y-88795796D01*
X118065000Y-88719496D01*
X118065000Y-88640504D01*
X118044556Y-88564204D01*
X118005060Y-88495795D01*
X117949205Y-88439940D01*
X117931988Y-88430000D01*
X118419121Y-88430000D01*
X118419120Y-88429999D01*
X118385332Y-88348426D01*
X118308724Y-88233773D01*
X118211226Y-88136275D01*
X118096579Y-88059671D01*
X118096566Y-88059664D01*
X117969186Y-88006902D01*
X117969176Y-88006899D01*
X117833946Y-87980000D01*
X117615000Y-87980000D01*
X117615000Y-88380000D01*
X117115000Y-88380000D01*
X117115000Y-87980000D01*
X116896054Y-87980000D01*
X116760823Y-88006899D01*
X116760813Y-88006902D01*
X116633433Y-88059664D01*
X116633420Y-88059671D01*
X116518773Y-88136275D01*
X116421275Y-88233773D01*
X116344667Y-88348426D01*
X116310879Y-88429999D01*
X114389120Y-88429999D01*
X114355332Y-88348426D01*
X114278724Y-88233773D01*
X114181226Y-88136275D01*
X114066579Y-88059671D01*
X114066566Y-88059664D01*
X113939186Y-88006902D01*
X113939176Y-88006899D01*
X113803946Y-87980000D01*
X113435000Y-87980000D01*
X113435000Y-88380000D01*
X112935000Y-88380000D01*
X112935000Y-87980000D01*
X112566054Y-87980000D01*
X112430823Y-88006899D01*
X112430813Y-88006902D01*
X112303433Y-88059664D01*
X112303420Y-88059671D01*
X112188773Y-88136275D01*
X112091275Y-88233773D01*
X112014667Y-88348426D01*
X111980879Y-88429999D01*
X111980879Y-88430000D01*
X112468012Y-88430000D01*
X112450795Y-88439940D01*
X112394940Y-88495795D01*
X112355444Y-88564204D01*
X112335000Y-88640504D01*
X112335000Y-88719496D01*
X112355444Y-88795796D01*
X112394940Y-88864205D01*
X112450795Y-88920060D01*
X112468012Y-88930000D01*
X111980879Y-88930000D01*
X112014667Y-89011573D01*
X112091275Y-89126226D01*
X112095143Y-89130939D01*
X112093652Y-89132162D01*
X112122857Y-89185646D01*
X112117873Y-89255338D01*
X112076001Y-89311271D01*
X112056151Y-89323404D01*
X111978811Y-89361212D01*
X111896212Y-89443811D01*
X111844911Y-89548750D01*
X111844729Y-89549999D01*
X111844730Y-89550000D01*
X112486000Y-89550000D01*
X112553039Y-89569685D01*
X112598794Y-89622489D01*
X112610000Y-89674000D01*
X112610000Y-89800000D01*
X112736000Y-89800000D01*
X112744685Y-89802550D01*
X112753647Y-89801262D01*
X112777687Y-89812240D01*
X112803039Y-89819685D01*
X112808966Y-89826525D01*
X112817203Y-89830287D01*
X112831492Y-89852521D01*
X112848794Y-89872489D01*
X112851081Y-89883003D01*
X112854977Y-89889065D01*
X112860000Y-89924000D01*
X112860000Y-89975500D01*
X112840315Y-90042539D01*
X112787511Y-90088294D01*
X112736000Y-90099500D01*
X112460862Y-90099500D01*
X112393823Y-90079815D01*
X112373181Y-90063181D01*
X112360000Y-90050000D01*
X111844730Y-90050000D01*
X111844911Y-90051246D01*
X111890730Y-90144971D01*
X111902489Y-90213844D01*
X111890730Y-90253890D01*
X111844426Y-90348606D01*
X111844426Y-90348607D01*
X111834500Y-90416739D01*
X111834500Y-90416740D01*
X111834500Y-90783260D01*
X111838050Y-90807624D01*
X111828235Y-90876801D01*
X111782579Y-90929690D01*
X111715576Y-90949500D01*
X111005331Y-90949500D01*
X110938292Y-90929815D01*
X110917650Y-90913181D01*
X110840404Y-90835935D01*
X110761182Y-90798993D01*
X110733173Y-90785932D01*
X110733171Y-90785931D01*
X110733172Y-90785931D01*
X110684317Y-90779500D01*
X110684316Y-90779500D01*
X110335684Y-90779500D01*
X110335683Y-90779500D01*
X110286828Y-90785931D01*
X110179595Y-90835935D01*
X110088264Y-90927267D01*
X110085552Y-90924555D01*
X110046612Y-90955640D01*
X109977109Y-90962788D01*
X109914775Y-90931225D01*
X109911470Y-90927408D01*
X109911320Y-90927559D01*
X109820112Y-90836351D01*
X109740000Y-90798993D01*
X109740000Y-91888638D01*
X109730000Y-91922693D01*
X109730000Y-92801005D01*
X109810112Y-92763648D01*
X109901320Y-92672441D01*
X109904115Y-92675236D01*
X109942612Y-92644422D01*
X110012106Y-92637181D01*
X110074482Y-92668661D01*
X110078130Y-92672866D01*
X110078264Y-92672733D01*
X110085935Y-92680404D01*
X110169596Y-92764065D01*
X110276827Y-92814068D01*
X110325683Y-92820500D01*
X110595121Y-92820500D01*
X110662160Y-92840185D01*
X110707915Y-92892989D01*
X110717859Y-92962147D01*
X110702508Y-93006500D01*
X110689136Y-93029660D01*
X110689135Y-93029661D01*
X110675482Y-93080614D01*
X110670606Y-93098815D01*
X110668656Y-93106091D01*
X110668656Y-93233136D01*
X110648971Y-93300175D01*
X110596167Y-93345930D01*
X110527009Y-93355874D01*
X110526899Y-93355858D01*
X110483260Y-93349500D01*
X109391740Y-93349500D01*
X109391739Y-93349500D01*
X109323608Y-93359426D01*
X109218514Y-93410803D01*
X109135803Y-93493514D01*
X109084426Y-93598608D01*
X109074500Y-93666739D01*
X109074500Y-94033260D01*
X109084426Y-94101391D01*
X109135803Y-94206485D01*
X109218514Y-94289196D01*
X109218515Y-94289196D01*
X109218517Y-94289198D01*
X109323607Y-94340573D01*
X109348219Y-94344159D01*
X109391739Y-94350500D01*
X109391740Y-94350500D01*
X110483259Y-94350500D01*
X110483260Y-94350500D01*
X110526778Y-94344159D01*
X110595954Y-94353971D01*
X110648844Y-94399626D01*
X110668656Y-94466628D01*
X110668656Y-95055009D01*
X110660011Y-95084449D01*
X110653488Y-95114436D01*
X110649733Y-95119451D01*
X110648971Y-95122048D01*
X110632337Y-95142690D01*
X110561846Y-95213181D01*
X110500523Y-95246666D01*
X110474165Y-95249500D01*
X109391739Y-95249500D01*
X109323608Y-95259426D01*
X109218514Y-95310803D01*
X109135803Y-95393514D01*
X109084426Y-95498608D01*
X109074500Y-95566739D01*
X109074500Y-95933260D01*
X109084426Y-96001391D01*
X109135803Y-96106485D01*
X109218514Y-96189196D01*
X109218515Y-96189196D01*
X109218517Y-96189198D01*
X109323607Y-96240573D01*
X109357673Y-96245536D01*
X109391739Y-96250500D01*
X109391740Y-96250500D01*
X109975500Y-96250500D01*
X109983444Y-96252832D01*
X109991626Y-96251553D01*
X110016477Y-96262532D01*
X110042539Y-96270185D01*
X110047960Y-96276441D01*
X110055537Y-96279789D01*
X110070509Y-96302464D01*
X110088294Y-96322989D01*
X110090467Y-96332690D01*
X110094036Y-96338095D01*
X110098820Y-96369971D01*
X110099491Y-96372965D01*
X110099500Y-96373692D01*
X110099500Y-96439562D01*
X110100354Y-96442751D01*
X110100491Y-96453750D01*
X110100416Y-96454015D01*
X110100500Y-96455285D01*
X110100500Y-96600495D01*
X110080815Y-96667534D01*
X110028011Y-96713289D01*
X109958853Y-96723233D01*
X109944407Y-96720270D01*
X109866892Y-96699500D01*
X109735108Y-96699500D01*
X109607812Y-96733608D01*
X109493686Y-96799500D01*
X109493683Y-96799502D01*
X109400502Y-96892683D01*
X109400500Y-96892686D01*
X109334608Y-97006812D01*
X109300500Y-97134108D01*
X109300500Y-97265891D01*
X109334608Y-97393187D01*
X109344027Y-97409500D01*
X109400500Y-97507314D01*
X109400502Y-97507316D01*
X109464181Y-97570995D01*
X109497666Y-97632318D01*
X109500500Y-97658676D01*
X109500500Y-99732224D01*
X109480815Y-99799263D01*
X109428011Y-99845018D01*
X109358853Y-99854962D01*
X109295297Y-99825937D01*
X109262586Y-99775038D01*
X109261474Y-99775557D01*
X109257650Y-99767356D01*
X109257523Y-99767159D01*
X109257464Y-99766957D01*
X109207535Y-99659887D01*
X109123999Y-99576351D01*
X109016933Y-99526425D01*
X109016928Y-99526423D01*
X108993887Y-99523389D01*
X108993887Y-99866000D01*
X108974202Y-99933039D01*
X108921398Y-99978794D01*
X108869887Y-99990000D01*
X108743887Y-99990000D01*
X108743887Y-100116000D01*
X108724202Y-100183039D01*
X108671398Y-100228794D01*
X108619887Y-100240000D01*
X108242881Y-100240000D01*
X108280238Y-100320112D01*
X108371446Y-100411320D01*
X108368654Y-100414111D01*
X108399487Y-100452667D01*
X108406694Y-100522164D01*
X108375185Y-100584525D01*
X108371023Y-100588133D01*
X108371154Y-100588264D01*
X108279822Y-100679595D01*
X108229818Y-100786828D01*
X108223387Y-100835683D01*
X108223387Y-101184316D01*
X108229818Y-101233171D01*
X108229819Y-101233173D01*
X108279822Y-101340404D01*
X108363483Y-101424065D01*
X108377903Y-101430789D01*
X108390923Y-101442252D01*
X108406703Y-101449459D01*
X108416600Y-101464860D01*
X108430342Y-101476959D01*
X108435227Y-101493844D01*
X108444477Y-101508237D01*
X108449500Y-101543172D01*
X108449500Y-101710500D01*
X108429815Y-101777539D01*
X108377011Y-101823294D01*
X108325501Y-101834500D01*
X108147870Y-101834500D01*
X108067504Y-101850485D01*
X108066830Y-101850765D01*
X108065241Y-101850935D01*
X108055527Y-101852868D01*
X108055354Y-101851998D01*
X107997361Y-101858233D01*
X107934882Y-101826957D01*
X107931698Y-101823884D01*
X107907316Y-101799502D01*
X107907314Y-101799500D01*
X107850250Y-101766554D01*
X107793187Y-101733608D01*
X107706945Y-101710500D01*
X107665892Y-101699500D01*
X107534108Y-101699500D01*
X107406812Y-101733608D01*
X107292686Y-101799500D01*
X107292682Y-101799503D01*
X107245511Y-101846674D01*
X107184188Y-101880158D01*
X107114496Y-101875173D01*
X107103371Y-101870393D01*
X107051246Y-101844911D01*
X107050000Y-101844729D01*
X107050000Y-103010127D01*
X107030315Y-103077166D01*
X106977511Y-103122921D01*
X106958096Y-103129900D01*
X106931968Y-103136901D01*
X106887863Y-103148719D01*
X106756635Y-103224485D01*
X106750189Y-103229432D01*
X106748178Y-103226811D01*
X106700358Y-103252924D01*
X106630666Y-103247940D01*
X106574733Y-103206068D01*
X106550316Y-103140604D01*
X106550000Y-103131758D01*
X106550000Y-102860000D01*
X106294000Y-102860000D01*
X106226961Y-102840315D01*
X106181206Y-102787511D01*
X106170000Y-102736000D01*
X106170000Y-102484000D01*
X106189685Y-102416961D01*
X106242489Y-102371206D01*
X106294000Y-102360000D01*
X106550000Y-102360000D01*
X106550000Y-101844730D01*
X106549999Y-101844729D01*
X106548750Y-101844911D01*
X106443811Y-101896212D01*
X106361212Y-101978811D01*
X106323404Y-102056151D01*
X106276277Y-102107734D01*
X106208743Y-102125648D01*
X106142244Y-102104207D01*
X106131082Y-102094967D01*
X106130939Y-102095143D01*
X106126226Y-102091275D01*
X106011573Y-102014667D01*
X105930000Y-101980879D01*
X105930000Y-102468011D01*
X105920060Y-102450795D01*
X105864205Y-102394940D01*
X105795796Y-102355444D01*
X105719496Y-102335000D01*
X105640504Y-102335000D01*
X105564204Y-102355444D01*
X105495795Y-102394940D01*
X105439940Y-102450795D01*
X105430000Y-102468011D01*
X105430000Y-101980879D01*
X105429999Y-101980879D01*
X105348426Y-102014667D01*
X105233773Y-102091275D01*
X105136275Y-102188773D01*
X105059671Y-102303420D01*
X105059664Y-102303433D01*
X105006902Y-102430813D01*
X105006899Y-102430823D01*
X104980000Y-102566053D01*
X104980000Y-102935000D01*
X105380000Y-102935000D01*
X105380000Y-103435000D01*
X104980000Y-103435000D01*
X104980000Y-103803946D01*
X104979999Y-103803946D01*
X100500500Y-103803946D01*
X100500500Y-100896530D01*
X100749500Y-100896530D01*
X100749500Y-101103469D01*
X100789868Y-101306412D01*
X100789870Y-101306420D01*
X100859903Y-101475495D01*
X100869059Y-101497598D01*
X100900066Y-101544004D01*
X100984024Y-101669657D01*
X101130342Y-101815975D01*
X101130345Y-101815977D01*
X101302402Y-101930941D01*
X101493580Y-102010130D01*
X101696530Y-102050499D01*
X101696534Y-102050500D01*
X101696535Y-102050500D01*
X101903466Y-102050500D01*
X101903467Y-102050499D01*
X102106420Y-102010130D01*
X102297598Y-101930941D01*
X102469655Y-101815977D01*
X102615977Y-101669655D01*
X102730941Y-101497598D01*
X102810130Y-101306420D01*
X102850500Y-101103465D01*
X102850500Y-100896535D01*
X102810130Y-100693580D01*
X102730941Y-100502402D01*
X102615977Y-100330345D01*
X102615975Y-100330342D01*
X102469657Y-100184024D01*
X102367851Y-100116000D01*
X102297598Y-100069059D01*
X102106420Y-99989870D01*
X102106412Y-99989868D01*
X101903469Y-99949500D01*
X101903465Y-99949500D01*
X101696535Y-99949500D01*
X101696530Y-99949500D01*
X101493587Y-99989868D01*
X101493579Y-99989870D01*
X101302403Y-100069058D01*
X101130342Y-100184024D01*
X100984024Y-100330342D01*
X100869058Y-100502403D01*
X100789870Y-100693579D01*
X100789868Y-100693587D01*
X100749500Y-100896530D01*
X100500500Y-100896530D01*
X100500500Y-99615247D01*
X104634500Y-99615247D01*
X104634500Y-101184752D01*
X104646131Y-101243229D01*
X104646132Y-101243230D01*
X104690447Y-101309552D01*
X104756769Y-101353867D01*
X104756770Y-101353868D01*
X104815247Y-101365499D01*
X104815250Y-101365500D01*
X104815252Y-101365500D01*
X105954750Y-101365500D01*
X105954751Y-101365499D01*
X105969568Y-101362552D01*
X106013229Y-101353868D01*
X106013229Y-101353867D01*
X106013231Y-101353867D01*
X106079552Y-101309552D01*
X106123867Y-101243231D01*
X106123867Y-101243229D01*
X106123868Y-101243229D01*
X106135499Y-101184752D01*
X106135500Y-101184750D01*
X106135500Y-99615249D01*
X106135499Y-99615247D01*
X106123868Y-99556770D01*
X106123867Y-99556769D01*
X106079552Y-99490447D01*
X106037240Y-99462175D01*
X106037238Y-99462174D01*
X106013231Y-99446133D01*
X105954748Y-99434500D01*
X104815252Y-99434500D01*
X104815247Y-99434500D01*
X104756770Y-99446131D01*
X104756769Y-99446132D01*
X104690447Y-99490447D01*
X104646132Y-99556769D01*
X104646131Y-99556770D01*
X104634500Y-99615247D01*
X100500500Y-99615247D01*
X100500500Y-98356530D01*
X100749500Y-98356530D01*
X100749500Y-98563469D01*
X100789765Y-98765892D01*
X100789870Y-98766420D01*
X100869059Y-98957598D01*
X100880345Y-98974489D01*
X100984024Y-99129657D01*
X101130342Y-99275975D01*
X101130345Y-99275977D01*
X101302402Y-99390941D01*
X101493580Y-99470130D01*
X101696530Y-99510499D01*
X101696534Y-99510500D01*
X101696535Y-99510500D01*
X101903466Y-99510500D01*
X101903467Y-99510499D01*
X101935930Y-99504042D01*
X102018881Y-99487543D01*
X102059931Y-99479377D01*
X102106420Y-99470130D01*
X102297598Y-99390941D01*
X102469655Y-99275977D01*
X102615977Y-99129655D01*
X102730941Y-98957598D01*
X102810130Y-98766420D01*
X102850500Y-98563465D01*
X102850500Y-98356535D01*
X102810130Y-98153580D01*
X102730941Y-97962402D01*
X102615977Y-97790345D01*
X102615975Y-97790342D01*
X102469657Y-97644024D01*
X102358871Y-97570000D01*
X102297598Y-97529059D01*
X102245101Y-97507314D01*
X102106420Y-97449870D01*
X102106412Y-97449868D01*
X102035099Y-97435683D01*
X105679500Y-97435683D01*
X105679500Y-97784316D01*
X105685931Y-97833171D01*
X105685932Y-97833173D01*
X105735935Y-97940404D01*
X105819596Y-98024065D01*
X105827904Y-98027939D01*
X105840922Y-98039401D01*
X105856703Y-98046608D01*
X105866602Y-98062011D01*
X105880343Y-98074110D01*
X105885228Y-98090994D01*
X105894477Y-98105386D01*
X105899500Y-98140321D01*
X105899500Y-98151990D01*
X105879815Y-98219029D01*
X105863181Y-98239671D01*
X105780365Y-98322486D01*
X105729355Y-98426828D01*
X105729355Y-98426830D01*
X105719500Y-98494472D01*
X105719500Y-98905528D01*
X105727086Y-98957596D01*
X105729355Y-98973171D01*
X105780365Y-99077513D01*
X105862486Y-99159634D01*
X105862487Y-99159634D01*
X105862489Y-99159636D01*
X105966830Y-99210645D01*
X106034472Y-99220500D01*
X106095022Y-99220500D01*
X106395522Y-99220500D01*
X106395528Y-99220500D01*
X106463170Y-99210645D01*
X106567511Y-99159636D01*
X106567513Y-99159634D01*
X106612319Y-99114829D01*
X106673642Y-99081344D01*
X106743334Y-99086328D01*
X106769743Y-99099983D01*
X106779415Y-99106562D01*
X106832489Y-99159636D01*
X106921168Y-99202988D01*
X106928496Y-99207973D01*
X106945278Y-99228395D01*
X106964795Y-99246227D01*
X106967113Y-99254967D01*
X106972855Y-99261954D01*
X106975932Y-99288211D01*
X106982710Y-99313761D01*
X106979935Y-99322366D01*
X106980988Y-99331349D01*
X106969380Y-99355101D01*
X106961269Y-99380260D01*
X106954281Y-99385999D01*
X106950311Y-99394125D01*
X106927704Y-99407831D01*
X106907280Y-99424610D01*
X106896363Y-99426834D01*
X106890566Y-99430350D01*
X106880418Y-99430084D01*
X106858753Y-99434500D01*
X106645247Y-99434500D01*
X106586770Y-99446131D01*
X106586769Y-99446132D01*
X106520447Y-99490447D01*
X106476132Y-99556769D01*
X106476131Y-99556770D01*
X106464500Y-99615247D01*
X106464500Y-101184752D01*
X106476131Y-101243229D01*
X106476132Y-101243230D01*
X106520447Y-101309552D01*
X106586769Y-101353867D01*
X106586770Y-101353868D01*
X106645247Y-101365499D01*
X106645250Y-101365500D01*
X106645252Y-101365500D01*
X107784750Y-101365500D01*
X107784751Y-101365499D01*
X107799568Y-101362552D01*
X107843229Y-101353868D01*
X107843229Y-101353867D01*
X107843231Y-101353867D01*
X107909552Y-101309552D01*
X107953867Y-101243231D01*
X107953867Y-101243229D01*
X107953868Y-101243229D01*
X107965499Y-101184752D01*
X107965500Y-101184750D01*
X107965500Y-99739999D01*
X108242881Y-99739999D01*
X108242881Y-99740000D01*
X108493887Y-99740000D01*
X108493887Y-99523389D01*
X108470845Y-99526423D01*
X108470840Y-99526425D01*
X108363774Y-99576351D01*
X108280238Y-99659887D01*
X108242881Y-99739999D01*
X107965500Y-99739999D01*
X107965500Y-99615249D01*
X107965499Y-99615247D01*
X107953868Y-99556770D01*
X107953867Y-99556769D01*
X107909552Y-99490447D01*
X107843230Y-99446132D01*
X107843229Y-99446131D01*
X107784752Y-99434500D01*
X107784748Y-99434500D01*
X107511247Y-99434500D01*
X107444208Y-99414815D01*
X107398453Y-99362011D01*
X107388509Y-99292853D01*
X107417534Y-99229297D01*
X107456785Y-99199100D01*
X107537511Y-99159636D01*
X107619636Y-99077511D01*
X107670645Y-98973170D01*
X107680500Y-98905528D01*
X107680500Y-98784552D01*
X107685500Y-98765892D01*
X107685500Y-98634108D01*
X107680500Y-98615447D01*
X107680500Y-98494472D01*
X107670645Y-98426830D01*
X107619636Y-98322489D01*
X107619634Y-98322487D01*
X107619634Y-98322486D01*
X107537513Y-98240365D01*
X107433171Y-98189355D01*
X107423506Y-98187947D01*
X107365528Y-98179500D01*
X107004472Y-98179500D01*
X106953740Y-98186891D01*
X106936828Y-98189355D01*
X106832486Y-98240365D01*
X106787681Y-98285171D01*
X106781407Y-98288596D01*
X106777299Y-98294448D01*
X106751146Y-98305120D01*
X106726358Y-98318656D01*
X106719227Y-98318146D01*
X106712609Y-98320847D01*
X106684840Y-98315686D01*
X106656666Y-98313672D01*
X106649271Y-98309077D01*
X106643915Y-98308082D01*
X106621431Y-98291778D01*
X106615030Y-98287801D01*
X106613643Y-98286496D01*
X106567511Y-98240364D01*
X106561475Y-98237413D01*
X106549384Y-98226037D01*
X106535780Y-98202833D01*
X106519179Y-98181668D01*
X106518375Y-98173145D01*
X106514047Y-98165762D01*
X106515147Y-98138886D01*
X106512624Y-98112106D01*
X106516555Y-98104503D01*
X106516906Y-98095951D01*
X106532364Y-98073934D01*
X106544719Y-98050044D01*
X106553619Y-98043661D01*
X106557055Y-98038768D01*
X106564915Y-98035560D01*
X106571767Y-98030646D01*
X106571517Y-98030288D01*
X106580401Y-98024066D01*
X106580404Y-98024065D01*
X106664065Y-97940404D01*
X106714068Y-97833173D01*
X106720500Y-97784316D01*
X106720500Y-97435684D01*
X106714068Y-97386827D01*
X106664065Y-97279596D01*
X106580404Y-97195935D01*
X106572733Y-97188264D01*
X106575447Y-97185549D01*
X106544376Y-97146655D01*
X106537203Y-97077154D01*
X106568743Y-97014808D01*
X106572594Y-97011473D01*
X106572441Y-97011320D01*
X106663648Y-96920112D01*
X106701005Y-96840000D01*
X105698994Y-96840000D01*
X105736351Y-96920112D01*
X105827559Y-97011320D01*
X105824767Y-97014111D01*
X105855600Y-97052667D01*
X105862807Y-97122164D01*
X105831298Y-97184525D01*
X105827136Y-97188133D01*
X105827267Y-97188264D01*
X105735935Y-97279595D01*
X105685931Y-97386828D01*
X105679500Y-97435683D01*
X102035099Y-97435683D01*
X101903469Y-97409500D01*
X101903465Y-97409500D01*
X101696535Y-97409500D01*
X101696530Y-97409500D01*
X101493587Y-97449868D01*
X101493579Y-97449870D01*
X101302403Y-97529058D01*
X101130342Y-97644024D01*
X100984024Y-97790342D01*
X100869058Y-97962403D01*
X100789870Y-98153579D01*
X100789868Y-98153587D01*
X100749500Y-98356530D01*
X100500500Y-98356530D01*
X100500500Y-95816530D01*
X100749500Y-95816530D01*
X100749500Y-96023469D01*
X100789868Y-96226412D01*
X100789870Y-96226420D01*
X100845603Y-96360972D01*
X100869059Y-96417598D01*
X100901066Y-96465500D01*
X100984024Y-96589657D01*
X101130342Y-96735975D01*
X101130345Y-96735977D01*
X101302402Y-96850941D01*
X101493580Y-96930130D01*
X101696530Y-96970499D01*
X101696534Y-96970500D01*
X101696535Y-96970500D01*
X101903466Y-96970500D01*
X101903467Y-96970499D01*
X102106420Y-96930130D01*
X102297598Y-96850941D01*
X102469655Y-96735977D01*
X102615977Y-96589655D01*
X102730941Y-96417598D01*
X102755749Y-96357706D01*
X102763084Y-96339999D01*
X105698994Y-96339999D01*
X105698994Y-96340000D01*
X105950000Y-96340000D01*
X106450000Y-96340000D01*
X106701006Y-96340000D01*
X106701005Y-96339999D01*
X106663648Y-96259887D01*
X106580112Y-96176351D01*
X106473046Y-96126425D01*
X106473041Y-96126423D01*
X106450000Y-96123389D01*
X106450000Y-96340000D01*
X105950000Y-96340000D01*
X105950000Y-96123389D01*
X105926958Y-96126423D01*
X105926953Y-96126425D01*
X105819887Y-96176351D01*
X105736351Y-96259887D01*
X105698994Y-96339999D01*
X102763084Y-96339999D01*
X102778908Y-96301797D01*
X102778908Y-96301795D01*
X102788024Y-96279789D01*
X102810130Y-96226420D01*
X102850500Y-96023465D01*
X102850500Y-95816535D01*
X102810130Y-95613580D01*
X102730941Y-95422402D01*
X102615977Y-95250345D01*
X102615975Y-95250342D01*
X102469657Y-95104024D01*
X102388803Y-95050000D01*
X106809730Y-95050000D01*
X106809911Y-95051249D01*
X106861212Y-95156188D01*
X106943811Y-95238787D01*
X107048748Y-95290087D01*
X107048751Y-95290088D01*
X107116780Y-95299999D01*
X107412499Y-95299999D01*
X107912500Y-95299999D01*
X108208218Y-95299999D01*
X108276249Y-95290087D01*
X108381191Y-95238784D01*
X108463787Y-95156188D01*
X108515088Y-95051249D01*
X108515270Y-95050000D01*
X107912500Y-95050000D01*
X107912500Y-95299999D01*
X107412499Y-95299999D01*
X107412500Y-95299998D01*
X107412500Y-95050000D01*
X106809730Y-95050000D01*
X102388803Y-95050000D01*
X102371471Y-95038419D01*
X102297598Y-94989059D01*
X102225698Y-94959277D01*
X102106420Y-94909870D01*
X102106412Y-94909868D01*
X101903469Y-94869500D01*
X101903465Y-94869500D01*
X101696535Y-94869500D01*
X101696530Y-94869500D01*
X101493587Y-94909868D01*
X101493579Y-94909870D01*
X101302403Y-94989058D01*
X101130342Y-95104024D01*
X100984024Y-95250342D01*
X100869058Y-95422403D01*
X100789870Y-95613579D01*
X100789868Y-95613587D01*
X100749500Y-95816530D01*
X100500500Y-95816530D01*
X100500500Y-94549999D01*
X106809729Y-94549999D01*
X106809730Y-94550000D01*
X107412500Y-94550000D01*
X107912500Y-94550000D01*
X108515270Y-94550000D01*
X108515270Y-94549999D01*
X108515088Y-94548750D01*
X108463787Y-94443811D01*
X108381188Y-94361212D01*
X108276251Y-94309912D01*
X108276248Y-94309911D01*
X108208220Y-94300000D01*
X107912500Y-94300000D01*
X107912500Y-94550000D01*
X107412500Y-94550000D01*
X107412500Y-94300000D01*
X107116787Y-94300000D01*
X107048751Y-94309912D01*
X106943808Y-94361215D01*
X106861212Y-94443811D01*
X106809911Y-94548750D01*
X106809729Y-94549999D01*
X100500500Y-94549999D01*
X100500500Y-92510247D01*
X100749500Y-92510247D01*
X100749500Y-94249752D01*
X100761131Y-94308229D01*
X100761132Y-94308230D01*
X100805447Y-94374552D01*
X100871769Y-94418867D01*
X100871770Y-94418868D01*
X100930247Y-94430499D01*
X100930250Y-94430500D01*
X100930252Y-94430500D01*
X102669750Y-94430500D01*
X102669751Y-94430499D01*
X102684568Y-94427552D01*
X102728229Y-94418868D01*
X102728229Y-94418867D01*
X102728231Y-94418867D01*
X102794552Y-94374552D01*
X102838867Y-94308231D01*
X102840504Y-94300000D01*
X102842433Y-94290308D01*
X102874819Y-94228397D01*
X102935535Y-94193823D01*
X102964050Y-94190500D01*
X104246768Y-94190500D01*
X104313807Y-94210185D01*
X104315659Y-94211398D01*
X104356769Y-94238867D01*
X104356770Y-94238868D01*
X104415247Y-94250499D01*
X104415250Y-94250500D01*
X104415252Y-94250500D01*
X105984750Y-94250500D01*
X105984751Y-94250499D01*
X105999568Y-94247552D01*
X106043229Y-94238868D01*
X106043229Y-94238867D01*
X106043231Y-94238867D01*
X106109552Y-94194552D01*
X106153867Y-94128231D01*
X106153867Y-94128229D01*
X106153868Y-94128229D01*
X106165499Y-94069752D01*
X106165500Y-94069750D01*
X106165500Y-92930249D01*
X106165499Y-92930247D01*
X106153868Y-92871770D01*
X106153867Y-92871769D01*
X106109552Y-92805447D01*
X106043230Y-92761132D01*
X106043229Y-92761131D01*
X105984752Y-92749500D01*
X105984748Y-92749500D01*
X104415252Y-92749500D01*
X104415247Y-92749500D01*
X104356773Y-92761131D01*
X104356770Y-92761132D01*
X104356769Y-92761133D01*
X104345588Y-92768603D01*
X104278912Y-92789480D01*
X104276700Y-92789500D01*
X102974500Y-92789500D01*
X102907461Y-92769815D01*
X102861706Y-92717011D01*
X102850500Y-92665500D01*
X102850500Y-92550000D01*
X109013390Y-92550000D01*
X109016422Y-92573037D01*
X109016424Y-92573045D01*
X109066351Y-92680112D01*
X109149887Y-92763648D01*
X109229999Y-92801005D01*
X109230000Y-92801005D01*
X109230000Y-92550000D01*
X109013390Y-92550000D01*
X102850500Y-92550000D01*
X102850500Y-92510249D01*
X102850499Y-92510247D01*
X102838868Y-92451770D01*
X102838867Y-92451769D01*
X102794552Y-92385447D01*
X102728230Y-92341132D01*
X102728229Y-92341131D01*
X102669752Y-92329500D01*
X102669748Y-92329500D01*
X100930252Y-92329500D01*
X100930247Y-92329500D01*
X100871770Y-92341131D01*
X100871769Y-92341132D01*
X100805447Y-92385447D01*
X100761132Y-92451769D01*
X100761131Y-92451770D01*
X100749500Y-92510247D01*
X100500500Y-92510247D01*
X100500500Y-91100247D01*
X104234500Y-91100247D01*
X104234500Y-92239752D01*
X104246131Y-92298229D01*
X104246132Y-92298230D01*
X104290447Y-92364552D01*
X104356769Y-92408867D01*
X104356770Y-92408868D01*
X104415247Y-92420499D01*
X104415250Y-92420500D01*
X104415252Y-92420500D01*
X105984750Y-92420500D01*
X105984751Y-92420499D01*
X105999568Y-92417552D01*
X106043229Y-92408868D01*
X106043233Y-92408866D01*
X106045456Y-92407380D01*
X106045460Y-92407378D01*
X106109552Y-92364552D01*
X106125201Y-92341132D01*
X106153867Y-92298231D01*
X106153867Y-92298229D01*
X106153868Y-92298229D01*
X106165499Y-92239752D01*
X106165500Y-92239750D01*
X106165500Y-92050000D01*
X109013389Y-92050000D01*
X109230000Y-92050000D01*
X109230000Y-91711362D01*
X109240000Y-91677306D01*
X109240000Y-91550000D01*
X109023390Y-91550000D01*
X109026422Y-91573037D01*
X109026424Y-91573045D01*
X109076351Y-91680112D01*
X109103558Y-91707320D01*
X109137043Y-91768644D01*
X109132057Y-91838335D01*
X109103558Y-91882680D01*
X109066351Y-91919887D01*
X109016425Y-92026953D01*
X109016423Y-92026958D01*
X109013389Y-92050000D01*
X106165500Y-92050000D01*
X106165500Y-91100251D01*
X106165499Y-91100245D01*
X106155505Y-91050000D01*
X109023389Y-91050000D01*
X109240000Y-91050000D01*
X109240000Y-90798993D01*
X109239999Y-90798993D01*
X109159887Y-90836351D01*
X109076351Y-90919887D01*
X109026425Y-91026953D01*
X109026423Y-91026958D01*
X109023389Y-91050000D01*
X106155505Y-91050000D01*
X106153868Y-91041770D01*
X106153867Y-91041769D01*
X106109552Y-90975447D01*
X106043230Y-90931132D01*
X106043229Y-90931131D01*
X105984752Y-90919500D01*
X105984748Y-90919500D01*
X104415252Y-90919500D01*
X104415247Y-90919500D01*
X104356770Y-90931131D01*
X104356769Y-90931132D01*
X104290447Y-90975447D01*
X104246132Y-91041769D01*
X104246131Y-91041770D01*
X104234500Y-91100247D01*
X100500500Y-91100247D01*
X100500500Y-86516579D01*
X100750000Y-86516579D01*
X100750000Y-86723420D01*
X100790348Y-86926266D01*
X100790350Y-86926274D01*
X100869500Y-87117359D01*
X100901377Y-87165067D01*
X100901378Y-87165067D01*
X101317037Y-86749408D01*
X101334075Y-86812993D01*
X101399901Y-86927007D01*
X101492993Y-87020099D01*
X101607007Y-87085925D01*
X101670590Y-87102962D01*
X101254931Y-87518620D01*
X101254932Y-87518621D01*
X101302633Y-87550495D01*
X101302639Y-87550498D01*
X101493725Y-87629649D01*
X101493733Y-87629651D01*
X101696579Y-87669999D01*
X101696583Y-87670000D01*
X101903417Y-87670000D01*
X101903420Y-87669999D01*
X102106266Y-87629651D01*
X102106274Y-87629649D01*
X102297366Y-87550495D01*
X102345066Y-87518621D01*
X102345067Y-87518620D01*
X101929409Y-87102962D01*
X101992993Y-87085925D01*
X102107007Y-87020099D01*
X102200099Y-86927007D01*
X102265925Y-86812993D01*
X102282962Y-86749409D01*
X102698620Y-87165067D01*
X102698621Y-87165066D01*
X102730495Y-87117366D01*
X102809649Y-86926274D01*
X102809651Y-86926266D01*
X102849999Y-86723420D01*
X102850000Y-86723417D01*
X102850000Y-86516583D01*
X102849999Y-86516579D01*
X102809651Y-86313733D01*
X102809649Y-86313725D01*
X102730498Y-86122639D01*
X102730495Y-86122633D01*
X102704157Y-86083217D01*
X109100001Y-86083217D01*
X109109912Y-86151249D01*
X109161215Y-86256191D01*
X109243808Y-86338784D01*
X109348755Y-86390089D01*
X109350000Y-86390269D01*
X109350000Y-86390268D01*
X109850000Y-86390268D01*
X109851244Y-86390089D01*
X109956191Y-86338784D01*
X110038787Y-86256188D01*
X110090087Y-86151251D01*
X110090088Y-86151248D01*
X110100000Y-86083219D01*
X110100000Y-85787500D01*
X109850000Y-85787500D01*
X109850000Y-86390268D01*
X109350000Y-86390268D01*
X109350000Y-85787500D01*
X109100001Y-85787500D01*
X109100001Y-86083217D01*
X102704157Y-86083217D01*
X102698621Y-86074932D01*
X102698620Y-86074931D01*
X102282962Y-86490590D01*
X102265925Y-86427007D01*
X102200099Y-86312993D01*
X102107007Y-86219901D01*
X101992993Y-86154075D01*
X101929408Y-86137037D01*
X102345067Y-85721377D01*
X102297359Y-85689500D01*
X102106274Y-85610350D01*
X102106266Y-85610348D01*
X101903420Y-85570000D01*
X101696579Y-85570000D01*
X101493733Y-85610348D01*
X101493725Y-85610350D01*
X101302641Y-85689500D01*
X101302631Y-85689505D01*
X101254932Y-85721377D01*
X101254932Y-85721378D01*
X101670591Y-86137037D01*
X101607007Y-86154075D01*
X101492993Y-86219901D01*
X101399901Y-86312993D01*
X101334075Y-86427007D01*
X101317037Y-86490591D01*
X100901378Y-86074932D01*
X100901377Y-86074932D01*
X100869505Y-86122631D01*
X100869500Y-86122641D01*
X100790350Y-86313725D01*
X100790348Y-86313733D01*
X100750000Y-86516579D01*
X100500500Y-86516579D01*
X100500500Y-83976579D01*
X100750000Y-83976579D01*
X100750000Y-84183420D01*
X100790348Y-84386266D01*
X100790350Y-84386274D01*
X100869500Y-84577359D01*
X100901377Y-84625067D01*
X100901378Y-84625067D01*
X101317037Y-84209408D01*
X101334075Y-84272993D01*
X101399901Y-84387007D01*
X101492993Y-84480099D01*
X101607007Y-84545925D01*
X101670590Y-84562962D01*
X101254931Y-84978620D01*
X101254932Y-84978621D01*
X101302633Y-85010495D01*
X101302639Y-85010498D01*
X101493725Y-85089649D01*
X101493733Y-85089651D01*
X101696579Y-85129999D01*
X101696583Y-85130000D01*
X101903417Y-85130000D01*
X101903420Y-85129999D01*
X102106266Y-85089651D01*
X102106274Y-85089649D01*
X102297366Y-85010495D01*
X102325374Y-84991780D01*
X109100000Y-84991780D01*
X109100000Y-85287500D01*
X109350000Y-85287500D01*
X109850000Y-85287500D01*
X110099999Y-85287500D01*
X110099999Y-84991782D01*
X110090087Y-84923751D01*
X110038784Y-84818808D01*
X109956188Y-84736212D01*
X109851249Y-84684911D01*
X109851250Y-84684911D01*
X109850000Y-84684729D01*
X109850000Y-85287500D01*
X109350000Y-85287500D01*
X109350000Y-84684730D01*
X109349999Y-84684729D01*
X109348750Y-84684911D01*
X109243811Y-84736212D01*
X109161212Y-84818811D01*
X109109912Y-84923748D01*
X109109911Y-84923751D01*
X109100000Y-84991780D01*
X102325374Y-84991780D01*
X102345067Y-84978621D01*
X102345067Y-84978620D01*
X101929409Y-84562962D01*
X101992993Y-84545925D01*
X102107007Y-84480099D01*
X102200099Y-84387007D01*
X102265925Y-84272993D01*
X102282962Y-84209409D01*
X102698620Y-84625067D01*
X102698621Y-84625066D01*
X102730495Y-84577366D01*
X102809649Y-84386274D01*
X102809651Y-84386266D01*
X102849999Y-84183420D01*
X102850000Y-84183417D01*
X102850000Y-83976583D01*
X102849999Y-83976579D01*
X102809651Y-83773733D01*
X102809649Y-83773725D01*
X102730498Y-83582639D01*
X102730495Y-83582633D01*
X102698621Y-83534932D01*
X102698620Y-83534931D01*
X102282962Y-83950590D01*
X102265925Y-83887007D01*
X102200099Y-83772993D01*
X102107007Y-83679901D01*
X101992993Y-83614075D01*
X101929409Y-83597037D01*
X102345067Y-83181378D01*
X102345067Y-83181377D01*
X102297359Y-83149500D01*
X102106274Y-83070350D01*
X102106266Y-83070348D01*
X101903420Y-83030000D01*
X101696579Y-83030000D01*
X101493733Y-83070348D01*
X101493725Y-83070350D01*
X101302641Y-83149500D01*
X101302631Y-83149505D01*
X101254932Y-83181377D01*
X101254932Y-83181378D01*
X101670591Y-83597037D01*
X101607007Y-83614075D01*
X101492993Y-83679901D01*
X101399901Y-83772993D01*
X101334075Y-83887007D01*
X101317037Y-83950591D01*
X100901378Y-83534932D01*
X100901377Y-83534932D01*
X100869505Y-83582631D01*
X100869500Y-83582641D01*
X100790350Y-83773725D01*
X100790348Y-83773733D01*
X100750000Y-83976579D01*
X100500500Y-83976579D01*
X100500500Y-82716739D01*
X108149500Y-82716739D01*
X108149500Y-83808260D01*
X108159426Y-83876391D01*
X108210803Y-83981485D01*
X108293514Y-84064196D01*
X108293515Y-84064196D01*
X108293517Y-84064198D01*
X108398607Y-84115573D01*
X108432673Y-84120536D01*
X108466739Y-84125500D01*
X108466740Y-84125500D01*
X108833261Y-84125500D01*
X108855971Y-84122191D01*
X108901393Y-84115573D01*
X109006483Y-84064198D01*
X109089198Y-83981483D01*
X109140573Y-83876393D01*
X109150500Y-83808260D01*
X109150500Y-82716740D01*
X109150500Y-82716739D01*
X110049500Y-82716739D01*
X110049500Y-83808260D01*
X110059426Y-83876391D01*
X110110803Y-83981485D01*
X110193514Y-84064196D01*
X110193515Y-84064196D01*
X110193517Y-84064198D01*
X110298607Y-84115573D01*
X110332673Y-84120536D01*
X110366739Y-84125500D01*
X110366740Y-84125500D01*
X110733261Y-84125500D01*
X110755971Y-84122191D01*
X110801393Y-84115573D01*
X110906483Y-84064198D01*
X110989198Y-83981483D01*
X111040573Y-83876393D01*
X111050500Y-83808260D01*
X111050500Y-82716740D01*
X111040573Y-82648607D01*
X110989198Y-82543517D01*
X110989196Y-82543515D01*
X110989196Y-82543514D01*
X110906485Y-82460803D01*
X110801391Y-82409426D01*
X110733261Y-82399500D01*
X110733260Y-82399500D01*
X110366740Y-82399500D01*
X110366739Y-82399500D01*
X110298608Y-82409426D01*
X110193514Y-82460803D01*
X110110803Y-82543514D01*
X110059426Y-82648608D01*
X110049500Y-82716739D01*
X109150500Y-82716739D01*
X109140573Y-82648607D01*
X109089198Y-82543517D01*
X109089196Y-82543515D01*
X109089196Y-82543514D01*
X109006485Y-82460803D01*
X108901391Y-82409426D01*
X108833261Y-82399500D01*
X108833260Y-82399500D01*
X108466740Y-82399500D01*
X108466739Y-82399500D01*
X108398608Y-82409426D01*
X108293514Y-82460803D01*
X108210803Y-82543514D01*
X108159426Y-82648608D01*
X108149500Y-82716739D01*
X100500500Y-82716739D01*
X100500500Y-81436579D01*
X100750000Y-81436579D01*
X100750000Y-81643420D01*
X100790348Y-81846266D01*
X100790350Y-81846274D01*
X100869500Y-82037359D01*
X100901377Y-82085067D01*
X100901378Y-82085067D01*
X101317037Y-81669408D01*
X101334075Y-81732993D01*
X101399901Y-81847007D01*
X101492993Y-81940099D01*
X101607007Y-82005925D01*
X101670590Y-82022962D01*
X101254931Y-82438620D01*
X101254932Y-82438621D01*
X101302633Y-82470495D01*
X101302639Y-82470498D01*
X101493725Y-82549649D01*
X101493733Y-82549651D01*
X101696579Y-82589999D01*
X101696583Y-82590000D01*
X101903417Y-82590000D01*
X101903419Y-82589999D01*
X102106266Y-82549651D01*
X102106274Y-82549649D01*
X102297366Y-82470495D01*
X102345066Y-82438621D01*
X102345067Y-82438620D01*
X101929409Y-82022962D01*
X101992993Y-82005925D01*
X102107007Y-81940099D01*
X102200099Y-81847007D01*
X102265925Y-81732993D01*
X102282962Y-81669409D01*
X102698620Y-82085067D01*
X102698621Y-82085066D01*
X102730495Y-82037366D01*
X102809649Y-81846274D01*
X102809651Y-81846266D01*
X102828800Y-81750000D01*
X109333390Y-81750000D01*
X109336422Y-81773037D01*
X109336424Y-81773045D01*
X109386351Y-81880112D01*
X109469887Y-81963648D01*
X109549999Y-82001005D01*
X109550000Y-82001005D01*
X109550000Y-81750000D01*
X109333390Y-81750000D01*
X102828800Y-81750000D01*
X102841467Y-81686318D01*
X102841472Y-81686290D01*
X102850000Y-81643414D01*
X102850000Y-81436583D01*
X102849999Y-81436579D01*
X102825560Y-81313712D01*
X102825558Y-81313706D01*
X102812886Y-81250000D01*
X109333389Y-81250000D01*
X109550000Y-81250000D01*
X109550000Y-80998993D01*
X109549999Y-80998993D01*
X109469887Y-81036351D01*
X109386351Y-81119887D01*
X109336425Y-81226953D01*
X109336423Y-81226958D01*
X109333389Y-81250000D01*
X102812886Y-81250000D01*
X102809649Y-81233725D01*
X102730498Y-81042639D01*
X102730495Y-81042633D01*
X102698621Y-80994932D01*
X102698620Y-80994931D01*
X102282962Y-81410590D01*
X102265925Y-81347007D01*
X102200099Y-81232993D01*
X102107007Y-81139901D01*
X101992993Y-81074075D01*
X101929409Y-81057037D01*
X102345067Y-80641378D01*
X102345067Y-80641377D01*
X102297359Y-80609500D01*
X102106274Y-80530350D01*
X102106266Y-80530348D01*
X101903420Y-80490000D01*
X101696579Y-80490000D01*
X101493733Y-80530348D01*
X101493725Y-80530350D01*
X101302641Y-80609500D01*
X101302631Y-80609505D01*
X101254932Y-80641377D01*
X101254932Y-80641378D01*
X101670591Y-81057037D01*
X101607007Y-81074075D01*
X101492993Y-81139901D01*
X101399901Y-81232993D01*
X101334075Y-81347007D01*
X101317037Y-81410591D01*
X100901378Y-80994932D01*
X100901377Y-80994932D01*
X100869505Y-81042631D01*
X100869500Y-81042641D01*
X100790350Y-81233725D01*
X100790348Y-81233733D01*
X100750000Y-81436579D01*
X100500500Y-81436579D01*
X100500500Y-78130297D01*
X100750000Y-78130297D01*
X100750000Y-78750000D01*
X101366988Y-78750000D01*
X101334075Y-78807007D01*
X101300000Y-78934174D01*
X101300000Y-79065826D01*
X101334075Y-79192993D01*
X101366988Y-79250000D01*
X100750000Y-79250000D01*
X100750000Y-79869702D01*
X100761602Y-79928033D01*
X100761603Y-79928034D01*
X100805808Y-79994191D01*
X100871965Y-80038396D01*
X100871966Y-80038397D01*
X100930297Y-80049999D01*
X100930301Y-80050000D01*
X101550000Y-80050000D01*
X101550000Y-79433012D01*
X101607007Y-79465925D01*
X101734174Y-79500000D01*
X101865826Y-79500000D01*
X101992993Y-79465925D01*
X102050000Y-79433012D01*
X102050000Y-80050000D01*
X102669699Y-80050000D01*
X102669702Y-80049999D01*
X102728033Y-80038397D01*
X102728034Y-80038396D01*
X102794191Y-79994191D01*
X102838396Y-79928034D01*
X102838397Y-79928033D01*
X102849999Y-79869702D01*
X102850000Y-79869699D01*
X102850000Y-79250000D01*
X102233012Y-79250000D01*
X102265925Y-79192993D01*
X102300000Y-79065826D01*
X102300000Y-78934174D01*
X102265925Y-78807007D01*
X102233012Y-78750000D01*
X102850000Y-78750000D01*
X109333390Y-78750000D01*
X109336422Y-78773037D01*
X109336424Y-78773045D01*
X109386351Y-78880112D01*
X109469887Y-78963648D01*
X109549999Y-79001005D01*
X109550000Y-79001005D01*
X109550000Y-78750000D01*
X109333390Y-78750000D01*
X102850000Y-78750000D01*
X102850000Y-78250000D01*
X109333389Y-78250000D01*
X109550000Y-78250000D01*
X109550000Y-77998993D01*
X110050000Y-77998993D01*
X110050000Y-79001005D01*
X110130112Y-78963648D01*
X110221320Y-78872441D01*
X110224115Y-78875236D01*
X110262612Y-78844422D01*
X110332106Y-78837181D01*
X110394482Y-78868661D01*
X110398130Y-78872866D01*
X110398264Y-78872733D01*
X110405935Y-78880404D01*
X110489596Y-78964065D01*
X110596827Y-79014068D01*
X110645683Y-79020500D01*
X110645684Y-79020500D01*
X110994317Y-79020500D01*
X111010601Y-79018356D01*
X111043173Y-79014068D01*
X111150404Y-78964065D01*
X111234065Y-78880404D01*
X111261255Y-78822094D01*
X111307428Y-78769656D01*
X111373637Y-78750500D01*
X111720500Y-78750500D01*
X111787539Y-78770185D01*
X111833294Y-78822989D01*
X111844500Y-78874499D01*
X111844500Y-79052129D01*
X111860486Y-79132498D01*
X111865159Y-79143780D01*
X111863714Y-79144378D01*
X111880436Y-79197788D01*
X111864482Y-79255938D01*
X111865159Y-79256219D01*
X111862926Y-79261609D01*
X111861950Y-79265168D01*
X111860550Y-79267345D01*
X111860484Y-79267505D01*
X111844500Y-79347863D01*
X111844500Y-79552129D01*
X111860486Y-79632498D01*
X111865159Y-79643780D01*
X111863714Y-79644378D01*
X111880436Y-79697788D01*
X111864482Y-79755938D01*
X111865159Y-79756219D01*
X111862926Y-79761609D01*
X111861950Y-79765168D01*
X111860550Y-79767345D01*
X111860484Y-79767505D01*
X111844500Y-79847863D01*
X111844500Y-80052129D01*
X111860486Y-80132498D01*
X111865159Y-80143780D01*
X111863714Y-80144378D01*
X111880436Y-80197788D01*
X111864482Y-80255938D01*
X111865159Y-80256219D01*
X111862926Y-80261609D01*
X111861950Y-80265168D01*
X111860550Y-80267345D01*
X111860484Y-80267505D01*
X111844500Y-80347863D01*
X111844500Y-80552129D01*
X111852493Y-80592313D01*
X111855912Y-80609505D01*
X111860486Y-80632498D01*
X111865159Y-80643780D01*
X111863714Y-80644378D01*
X111880436Y-80697788D01*
X111864482Y-80755938D01*
X111865159Y-80756219D01*
X111862926Y-80761609D01*
X111861950Y-80765168D01*
X111860550Y-80767345D01*
X111860484Y-80767505D01*
X111844500Y-80847863D01*
X111844500Y-80847865D01*
X111844501Y-81025499D01*
X111824817Y-81092539D01*
X111772013Y-81138294D01*
X111720501Y-81149500D01*
X111315331Y-81149500D01*
X111248292Y-81129815D01*
X111227650Y-81113181D01*
X111150404Y-81035935D01*
X111062471Y-80994931D01*
X111043173Y-80985932D01*
X111043171Y-80985931D01*
X111043172Y-80985931D01*
X110994317Y-80979500D01*
X110994316Y-80979500D01*
X110645684Y-80979500D01*
X110645683Y-80979500D01*
X110596828Y-80985931D01*
X110489595Y-81035935D01*
X110398264Y-81127267D01*
X110395552Y-81124555D01*
X110356612Y-81155640D01*
X110287109Y-81162788D01*
X110224775Y-81131225D01*
X110221470Y-81127408D01*
X110221320Y-81127559D01*
X110130112Y-81036351D01*
X110050000Y-80998993D01*
X110050000Y-82001005D01*
X110130112Y-81963648D01*
X110221320Y-81872441D01*
X110224115Y-81875236D01*
X110262612Y-81844422D01*
X110332106Y-81837181D01*
X110394482Y-81868661D01*
X110398130Y-81872866D01*
X110398264Y-81872733D01*
X110405935Y-81880404D01*
X110489596Y-81964065D01*
X110596827Y-82014068D01*
X110645683Y-82020500D01*
X110645684Y-82020500D01*
X110994317Y-82020500D01*
X111010601Y-82018356D01*
X111043173Y-82014068D01*
X111150404Y-81964065D01*
X111234065Y-81880404D01*
X111261255Y-81822094D01*
X111307428Y-81769656D01*
X111373637Y-81750500D01*
X111720500Y-81750500D01*
X111787539Y-81770185D01*
X111833294Y-81822989D01*
X111844500Y-81874499D01*
X111844500Y-82052129D01*
X111851051Y-82085066D01*
X111860484Y-82132491D01*
X111862868Y-82144473D01*
X111859874Y-82145068D01*
X111865304Y-82195562D01*
X111834031Y-82258042D01*
X111830956Y-82261229D01*
X111799503Y-82292682D01*
X111799500Y-82292686D01*
X111733608Y-82406812D01*
X111699500Y-82534108D01*
X111699500Y-82665891D01*
X111733608Y-82793187D01*
X111766554Y-82850250D01*
X111799500Y-82907314D01*
X111799502Y-82907316D01*
X111853389Y-82961203D01*
X111886874Y-83022526D01*
X111881890Y-83092218D01*
X111877110Y-83103342D01*
X111854911Y-83148752D01*
X111854729Y-83149999D01*
X111854730Y-83150000D01*
X112496000Y-83150000D01*
X112563039Y-83169685D01*
X112608794Y-83222489D01*
X112620000Y-83274000D01*
X112620000Y-83400000D01*
X112746000Y-83400000D01*
X112813039Y-83419685D01*
X112858794Y-83472489D01*
X112870000Y-83524000D01*
X112870000Y-83906000D01*
X112850315Y-83973039D01*
X112797511Y-84018794D01*
X112746000Y-84030000D01*
X112494000Y-84030000D01*
X112426961Y-84010315D01*
X112381206Y-83957511D01*
X112370000Y-83906000D01*
X112370000Y-83650000D01*
X111854730Y-83650000D01*
X111854911Y-83651249D01*
X111906212Y-83756188D01*
X111988809Y-83838785D01*
X112066150Y-83876594D01*
X112117733Y-83923721D01*
X112135648Y-83991255D01*
X112114208Y-84057754D01*
X112104968Y-84068917D01*
X112105143Y-84069061D01*
X112101275Y-84073773D01*
X112024667Y-84188426D01*
X111990879Y-84269999D01*
X111990879Y-84270000D01*
X112478012Y-84270000D01*
X112460795Y-84279940D01*
X112404940Y-84335795D01*
X112365444Y-84404204D01*
X112345000Y-84480504D01*
X112345000Y-84559496D01*
X112365444Y-84635796D01*
X112404940Y-84704205D01*
X112460795Y-84760060D01*
X112478012Y-84770000D01*
X111990879Y-84770000D01*
X112024667Y-84851573D01*
X112101275Y-84966226D01*
X112198773Y-85063724D01*
X112313420Y-85140328D01*
X112313433Y-85140335D01*
X112440813Y-85193097D01*
X112440823Y-85193100D01*
X112576053Y-85220000D01*
X112945000Y-85220000D01*
X112945000Y-84820000D01*
X113445000Y-84820000D01*
X113445000Y-85220000D01*
X113813946Y-85220000D01*
X113949176Y-85193100D01*
X113949186Y-85193097D01*
X114076566Y-85140335D01*
X114076579Y-85140328D01*
X114191226Y-85063724D01*
X114288724Y-84966226D01*
X114365332Y-84851573D01*
X114399121Y-84770000D01*
X113911988Y-84770000D01*
X113929205Y-84760060D01*
X113985060Y-84704205D01*
X114024556Y-84635796D01*
X114045000Y-84559496D01*
X114045000Y-84480504D01*
X114024556Y-84404204D01*
X113985060Y-84335795D01*
X113929205Y-84279940D01*
X113911988Y-84270000D01*
X114399121Y-84270000D01*
X114399120Y-84269999D01*
X116320879Y-84269999D01*
X116320879Y-84270000D01*
X116808012Y-84270000D01*
X116790795Y-84279940D01*
X116734940Y-84335795D01*
X116695444Y-84404204D01*
X116675000Y-84480504D01*
X116675000Y-84559496D01*
X116695444Y-84635796D01*
X116734940Y-84704205D01*
X116790795Y-84760060D01*
X116808012Y-84770000D01*
X116320879Y-84770000D01*
X116354667Y-84851573D01*
X116431275Y-84966226D01*
X116528773Y-85063724D01*
X116643420Y-85140328D01*
X116643433Y-85140335D01*
X116770813Y-85193097D01*
X116770823Y-85193100D01*
X116906053Y-85220000D01*
X117125000Y-85220000D01*
X117125000Y-84820000D01*
X117625000Y-84820000D01*
X117625000Y-85220000D01*
X117843946Y-85220000D01*
X117979176Y-85193100D01*
X117979186Y-85193097D01*
X118106566Y-85140335D01*
X118106579Y-85140328D01*
X118221226Y-85063724D01*
X118318724Y-84966226D01*
X118395332Y-84851573D01*
X118429121Y-84770000D01*
X117941988Y-84770000D01*
X117959205Y-84760060D01*
X118015060Y-84704205D01*
X118054556Y-84635796D01*
X118075000Y-84559496D01*
X118075000Y-84480504D01*
X118054556Y-84404204D01*
X118015060Y-84335795D01*
X117959205Y-84279940D01*
X117941988Y-84270000D01*
X118429121Y-84270000D01*
X118429120Y-84269999D01*
X118395332Y-84188426D01*
X118318724Y-84073773D01*
X118221226Y-83976275D01*
X118106579Y-83899671D01*
X118106566Y-83899664D01*
X117979186Y-83846902D01*
X117979176Y-83846899D01*
X117843946Y-83820000D01*
X117625000Y-83820000D01*
X117625000Y-84220000D01*
X117125000Y-84220000D01*
X117125000Y-83820000D01*
X116906054Y-83820000D01*
X116770823Y-83846899D01*
X116770813Y-83846902D01*
X116643433Y-83899664D01*
X116643420Y-83899671D01*
X116528773Y-83976275D01*
X116431275Y-84073773D01*
X116354667Y-84188426D01*
X116320879Y-84269999D01*
X114399120Y-84269999D01*
X114365332Y-84188426D01*
X114288724Y-84073773D01*
X114191226Y-83976275D01*
X114076579Y-83899671D01*
X114076566Y-83899664D01*
X113943555Y-83844570D01*
X113944248Y-83842895D01*
X113892936Y-83809260D01*
X113864487Y-83745445D01*
X113875055Y-83676379D01*
X113921285Y-83623991D01*
X113925367Y-83621528D01*
X114048365Y-83550515D01*
X114155515Y-83443365D01*
X114231281Y-83312135D01*
X114270500Y-83165766D01*
X114270500Y-83014234D01*
X114231281Y-82867865D01*
X114155515Y-82736635D01*
X114048365Y-82629485D01*
X113979974Y-82589999D01*
X113917136Y-82553719D01*
X113832200Y-82530961D01*
X113770766Y-82514500D01*
X113619234Y-82514500D01*
X113619232Y-82514500D01*
X113551592Y-82532624D01*
X113481743Y-82530961D01*
X113423880Y-82491798D01*
X113400620Y-82448112D01*
X113395500Y-82430851D01*
X113395500Y-82416740D01*
X113385573Y-82348607D01*
X113348778Y-82273341D01*
X113345839Y-82263433D01*
X113345769Y-82238419D01*
X113341559Y-82213758D01*
X113345670Y-82202589D01*
X113345646Y-82193564D01*
X113353549Y-82181190D01*
X113361615Y-82159282D01*
X113379515Y-82132495D01*
X113395500Y-82052133D01*
X113395499Y-81847868D01*
X113379515Y-81767505D01*
X113379513Y-81767502D01*
X113374841Y-81756222D01*
X113376285Y-81755623D01*
X113359563Y-81702211D01*
X113375517Y-81644056D01*
X113374842Y-81643777D01*
X113377070Y-81638396D01*
X113378049Y-81634831D01*
X113379452Y-81632647D01*
X113379516Y-81632493D01*
X113395499Y-81552136D01*
X113395500Y-81552133D01*
X113395499Y-81347868D01*
X113379515Y-81267505D01*
X113379513Y-81267502D01*
X113374841Y-81256222D01*
X113376285Y-81255623D01*
X113359563Y-81202211D01*
X113375517Y-81144056D01*
X113374842Y-81143777D01*
X113377070Y-81138396D01*
X113378049Y-81134831D01*
X113379452Y-81132647D01*
X113379516Y-81132493D01*
X113395499Y-81052136D01*
X113395500Y-81052133D01*
X113395499Y-80847868D01*
X113379515Y-80767505D01*
X113379513Y-80767502D01*
X113374841Y-80756222D01*
X113376285Y-80755623D01*
X113359563Y-80702211D01*
X113375517Y-80644056D01*
X113374842Y-80643777D01*
X113377070Y-80638396D01*
X113378049Y-80634831D01*
X113379452Y-80632647D01*
X113379516Y-80632493D01*
X113395499Y-80552136D01*
X113395500Y-80552133D01*
X113395499Y-80347868D01*
X113379515Y-80267505D01*
X113379513Y-80267502D01*
X113374841Y-80256222D01*
X113376285Y-80255623D01*
X113359563Y-80202211D01*
X113375517Y-80144056D01*
X113374842Y-80143777D01*
X113377070Y-80138396D01*
X113378049Y-80134831D01*
X113379452Y-80132647D01*
X113379516Y-80132493D01*
X113395499Y-80052136D01*
X113395500Y-80052133D01*
X113395499Y-79847868D01*
X113379515Y-79767505D01*
X113379513Y-79767502D01*
X113374841Y-79756222D01*
X113376285Y-79755623D01*
X113359563Y-79702211D01*
X113375517Y-79644056D01*
X113374842Y-79643777D01*
X113377070Y-79638396D01*
X113378049Y-79634831D01*
X113379452Y-79632647D01*
X113379516Y-79632493D01*
X113395499Y-79552136D01*
X113395500Y-79552133D01*
X113395499Y-79347868D01*
X113379515Y-79267505D01*
X113379513Y-79267502D01*
X113374841Y-79256222D01*
X113376285Y-79255623D01*
X113359563Y-79202211D01*
X113375517Y-79144056D01*
X113374842Y-79143777D01*
X113377070Y-79138396D01*
X113378049Y-79134831D01*
X113379452Y-79132647D01*
X113379516Y-79132493D01*
X113395499Y-79052136D01*
X113395500Y-79052133D01*
X113395499Y-78847868D01*
X113379515Y-78767505D01*
X113379513Y-78767502D01*
X113374841Y-78756222D01*
X113376285Y-78755623D01*
X113359563Y-78702211D01*
X113375517Y-78644056D01*
X113374842Y-78643777D01*
X113377070Y-78638396D01*
X113378049Y-78634831D01*
X113379452Y-78632647D01*
X113379516Y-78632493D01*
X113395499Y-78552136D01*
X113395500Y-78552133D01*
X113395499Y-78347868D01*
X113379515Y-78267505D01*
X113361617Y-78240720D01*
X113340740Y-78174044D01*
X113345840Y-78136568D01*
X113348781Y-78126652D01*
X113385573Y-78051393D01*
X113395500Y-77983260D01*
X113395500Y-77969149D01*
X113400620Y-77951888D01*
X113410209Y-77937057D01*
X113415185Y-77920111D01*
X113428784Y-77908326D01*
X113438556Y-77893214D01*
X113454642Y-77885921D01*
X113467989Y-77874356D01*
X113485800Y-77871794D01*
X113502191Y-77864364D01*
X113519665Y-77866925D01*
X113537147Y-77864412D01*
X113551576Y-77867371D01*
X113619234Y-77885500D01*
X113619237Y-77885500D01*
X113770764Y-77885500D01*
X113770766Y-77885500D01*
X113917135Y-77846281D01*
X114048365Y-77770515D01*
X114155515Y-77663365D01*
X114231281Y-77532135D01*
X114270500Y-77385766D01*
X114270500Y-77234234D01*
X114231281Y-77087865D01*
X114155515Y-76956635D01*
X114048365Y-76849485D01*
X113925378Y-76778478D01*
X113877163Y-76727910D01*
X113863941Y-76659303D01*
X113889909Y-76594439D01*
X113943813Y-76556054D01*
X113943555Y-76555430D01*
X113946267Y-76554306D01*
X113946823Y-76553911D01*
X113948669Y-76553311D01*
X114076566Y-76500335D01*
X114076579Y-76500328D01*
X114191226Y-76423724D01*
X114288724Y-76326226D01*
X114365332Y-76211573D01*
X114399121Y-76130000D01*
X113911988Y-76130000D01*
X113929205Y-76120060D01*
X113985060Y-76064205D01*
X114024556Y-75995796D01*
X114045000Y-75919496D01*
X114045000Y-75840504D01*
X114024556Y-75764204D01*
X113985060Y-75695795D01*
X113929205Y-75639940D01*
X113911988Y-75630000D01*
X114399121Y-75630000D01*
X114399120Y-75629999D01*
X116320879Y-75629999D01*
X116320879Y-75630000D01*
X116808012Y-75630000D01*
X116790795Y-75639940D01*
X116734940Y-75695795D01*
X116695444Y-75764204D01*
X116675000Y-75840504D01*
X116675000Y-75919496D01*
X116695444Y-75995796D01*
X116734940Y-76064205D01*
X116790795Y-76120060D01*
X116808012Y-76130000D01*
X116320879Y-76130000D01*
X116354667Y-76211573D01*
X116431275Y-76326226D01*
X116528773Y-76423724D01*
X116643420Y-76500328D01*
X116643433Y-76500335D01*
X116770813Y-76553097D01*
X116770823Y-76553100D01*
X116906053Y-76580000D01*
X117125000Y-76580000D01*
X117125000Y-76180000D01*
X117625000Y-76180000D01*
X117625000Y-76580000D01*
X117843946Y-76580000D01*
X117979176Y-76553100D01*
X117979186Y-76553097D01*
X118106566Y-76500335D01*
X118106579Y-76500328D01*
X118221226Y-76423724D01*
X118318724Y-76326226D01*
X118395332Y-76211573D01*
X118429121Y-76130000D01*
X117941988Y-76130000D01*
X117959205Y-76120060D01*
X118015060Y-76064205D01*
X118054556Y-75995796D01*
X118075000Y-75919496D01*
X118075000Y-75840504D01*
X118054556Y-75764204D01*
X118015060Y-75695795D01*
X117959205Y-75639940D01*
X117941988Y-75630000D01*
X118429121Y-75630000D01*
X118429120Y-75629999D01*
X118395332Y-75548426D01*
X118318724Y-75433773D01*
X118221226Y-75336275D01*
X118106579Y-75259671D01*
X118106566Y-75259664D01*
X117979186Y-75206902D01*
X117979176Y-75206899D01*
X117843946Y-75180000D01*
X117625000Y-75180000D01*
X117625000Y-75580000D01*
X117125000Y-75580000D01*
X117125000Y-75180000D01*
X116906054Y-75180000D01*
X116770823Y-75206899D01*
X116770813Y-75206902D01*
X116643433Y-75259664D01*
X116643420Y-75259671D01*
X116528773Y-75336275D01*
X116431275Y-75433773D01*
X116354667Y-75548426D01*
X116320879Y-75629999D01*
X114399120Y-75629999D01*
X114365332Y-75548426D01*
X114288724Y-75433773D01*
X114191226Y-75336275D01*
X114076579Y-75259671D01*
X114076566Y-75259664D01*
X113949186Y-75206902D01*
X113949176Y-75206899D01*
X113813946Y-75180000D01*
X113445000Y-75180000D01*
X113445000Y-75580000D01*
X112945000Y-75580000D01*
X112945000Y-75180000D01*
X112576054Y-75180000D01*
X112440823Y-75206899D01*
X112440813Y-75206902D01*
X112313433Y-75259664D01*
X112313420Y-75259671D01*
X112198773Y-75336275D01*
X112101275Y-75433773D01*
X112024667Y-75548426D01*
X111990879Y-75629999D01*
X111990879Y-75630000D01*
X112478012Y-75630000D01*
X112460795Y-75639940D01*
X112404940Y-75695795D01*
X112365444Y-75764204D01*
X112345000Y-75840504D01*
X112345000Y-75919496D01*
X112365444Y-75995796D01*
X112404940Y-76064205D01*
X112460795Y-76120060D01*
X112478012Y-76130000D01*
X111990879Y-76130000D01*
X112024667Y-76211573D01*
X112101275Y-76326226D01*
X112105143Y-76330939D01*
X112103652Y-76332162D01*
X112132857Y-76385646D01*
X112127873Y-76455338D01*
X112086001Y-76511271D01*
X112066151Y-76523404D01*
X111988811Y-76561212D01*
X111906212Y-76643811D01*
X111854911Y-76748750D01*
X111854729Y-76749999D01*
X111854730Y-76750000D01*
X112496000Y-76750000D01*
X112563039Y-76769685D01*
X112608794Y-76822489D01*
X112620000Y-76874000D01*
X112620000Y-77000000D01*
X112746000Y-77000000D01*
X112754685Y-77002550D01*
X112763647Y-77001262D01*
X112787687Y-77012240D01*
X112813039Y-77019685D01*
X112818966Y-77026525D01*
X112827203Y-77030287D01*
X112841492Y-77052521D01*
X112858794Y-77072489D01*
X112861081Y-77083003D01*
X112864977Y-77089065D01*
X112870000Y-77124000D01*
X112870000Y-77175500D01*
X112850315Y-77242539D01*
X112797511Y-77288294D01*
X112746000Y-77299500D01*
X112470862Y-77299500D01*
X112403823Y-77279815D01*
X112383181Y-77263181D01*
X112370000Y-77250000D01*
X111854730Y-77250000D01*
X111854911Y-77251247D01*
X111877109Y-77296654D01*
X111888867Y-77365527D01*
X111861524Y-77429824D01*
X111853391Y-77438794D01*
X111799500Y-77492686D01*
X111733608Y-77606812D01*
X111718455Y-77663365D01*
X111699500Y-77734108D01*
X111699500Y-77865892D01*
X111733608Y-77993186D01*
X111733609Y-77993189D01*
X111733668Y-77993406D01*
X111732005Y-78063256D01*
X111692843Y-78121119D01*
X111628614Y-78148623D01*
X111613893Y-78149500D01*
X111315331Y-78149500D01*
X111248292Y-78129815D01*
X111227650Y-78113181D01*
X111150404Y-78035935D01*
X111043173Y-77985932D01*
X111043171Y-77985931D01*
X111043172Y-77985931D01*
X110994317Y-77979500D01*
X110994316Y-77979500D01*
X110645684Y-77979500D01*
X110645683Y-77979500D01*
X110596828Y-77985931D01*
X110489595Y-78035935D01*
X110398264Y-78127267D01*
X110395552Y-78124555D01*
X110356612Y-78155640D01*
X110287109Y-78162788D01*
X110224775Y-78131225D01*
X110221470Y-78127408D01*
X110221320Y-78127559D01*
X110130112Y-78036351D01*
X110050000Y-77998993D01*
X109550000Y-77998993D01*
X109549999Y-77998993D01*
X109469887Y-78036351D01*
X109386351Y-78119887D01*
X109336425Y-78226953D01*
X109336423Y-78226958D01*
X109333389Y-78250000D01*
X102850000Y-78250000D01*
X102850000Y-78130301D01*
X102849999Y-78130297D01*
X102838397Y-78071966D01*
X102838396Y-78071965D01*
X102794191Y-78005808D01*
X102728034Y-77961603D01*
X102728033Y-77961602D01*
X102669702Y-77950000D01*
X102050000Y-77950000D01*
X102050000Y-78566988D01*
X101992993Y-78534075D01*
X101865826Y-78500000D01*
X101734174Y-78500000D01*
X101607007Y-78534075D01*
X101550000Y-78566988D01*
X101550000Y-77950000D01*
X100930297Y-77950000D01*
X100871966Y-77961602D01*
X100871965Y-77961603D01*
X100805808Y-78005808D01*
X100761603Y-78071965D01*
X100761602Y-78071966D01*
X100750000Y-78130297D01*
X100500500Y-78130297D01*
X100500500Y-72504066D01*
X100500765Y-72495956D01*
X100507466Y-72393713D01*
X101149500Y-72393713D01*
X101149500Y-72606286D01*
X101182753Y-72816239D01*
X101248444Y-73018414D01*
X101344951Y-73207820D01*
X101469890Y-73379786D01*
X101620213Y-73530109D01*
X101792179Y-73655048D01*
X101792181Y-73655049D01*
X101792184Y-73655051D01*
X101981588Y-73751557D01*
X102183757Y-73817246D01*
X102393713Y-73850500D01*
X102393714Y-73850500D01*
X102606286Y-73850500D01*
X102606287Y-73850500D01*
X102816243Y-73817246D01*
X103018412Y-73751557D01*
X103207816Y-73655051D01*
X103229789Y-73639086D01*
X103379786Y-73530109D01*
X103379788Y-73530106D01*
X103379792Y-73530104D01*
X103530104Y-73379792D01*
X103530106Y-73379788D01*
X103530109Y-73379786D01*
X103655048Y-73207820D01*
X103655047Y-73207820D01*
X103655051Y-73207816D01*
X103751557Y-73018412D01*
X103817246Y-72816243D01*
X103850500Y-72606287D01*
X103850500Y-72393713D01*
X116149500Y-72393713D01*
X116149500Y-72606286D01*
X116182753Y-72816239D01*
X116248444Y-73018414D01*
X116344951Y-73207820D01*
X116469890Y-73379786D01*
X116620213Y-73530109D01*
X116792179Y-73655048D01*
X116792181Y-73655049D01*
X116792184Y-73655051D01*
X116981588Y-73751557D01*
X117183757Y-73817246D01*
X117393713Y-73850500D01*
X117393714Y-73850500D01*
X117606286Y-73850500D01*
X117606287Y-73850500D01*
X117816243Y-73817246D01*
X118018412Y-73751557D01*
X118207816Y-73655051D01*
X118229789Y-73639086D01*
X118379786Y-73530109D01*
X118379788Y-73530106D01*
X118379792Y-73530104D01*
X118530104Y-73379792D01*
X118530106Y-73379788D01*
X118530109Y-73379786D01*
X118655048Y-73207820D01*
X118655047Y-73207820D01*
X118655051Y-73207816D01*
X118751557Y-73018412D01*
X118817246Y-72816243D01*
X118850500Y-72606287D01*
X118850500Y-72393713D01*
X118817246Y-72183757D01*
X118751557Y-71981588D01*
X118655051Y-71792184D01*
X118655049Y-71792181D01*
X118655048Y-71792179D01*
X118530109Y-71620213D01*
X118379786Y-71469890D01*
X118207820Y-71344951D01*
X118018414Y-71248444D01*
X118018413Y-71248443D01*
X118018412Y-71248443D01*
X117816243Y-71182754D01*
X117816241Y-71182753D01*
X117816240Y-71182753D01*
X117654957Y-71157208D01*
X117606287Y-71149500D01*
X117393713Y-71149500D01*
X117345042Y-71157208D01*
X117183760Y-71182753D01*
X116981585Y-71248444D01*
X116792179Y-71344951D01*
X116620213Y-71469890D01*
X116469890Y-71620213D01*
X116344951Y-71792179D01*
X116248444Y-71981585D01*
X116182753Y-72183760D01*
X116149500Y-72393713D01*
X103850500Y-72393713D01*
X103817246Y-72183757D01*
X103751557Y-71981588D01*
X103655051Y-71792184D01*
X103655049Y-71792181D01*
X103655048Y-71792179D01*
X103530109Y-71620213D01*
X103379786Y-71469890D01*
X103207820Y-71344951D01*
X103018414Y-71248444D01*
X103018413Y-71248443D01*
X103018412Y-71248443D01*
X102816243Y-71182754D01*
X102816241Y-71182753D01*
X102816240Y-71182753D01*
X102654957Y-71157208D01*
X102606287Y-71149500D01*
X102393713Y-71149500D01*
X102345042Y-71157208D01*
X102183760Y-71182753D01*
X101981585Y-71248444D01*
X101792179Y-71344951D01*
X101620213Y-71469890D01*
X101469890Y-71620213D01*
X101344951Y-71792179D01*
X101248444Y-71981585D01*
X101182753Y-72183760D01*
X101149500Y-72393713D01*
X100507466Y-72393713D01*
X100508317Y-72380731D01*
X100508317Y-72380730D01*
X100517075Y-72247104D01*
X100519190Y-72231048D01*
X100567045Y-71990462D01*
X100571243Y-71974797D01*
X100594337Y-71906762D01*
X100650093Y-71742512D01*
X100656291Y-71727547D01*
X100764790Y-71507533D01*
X100772893Y-71493498D01*
X100909182Y-71289527D01*
X100919039Y-71276681D01*
X101080786Y-71092244D01*
X101092244Y-71080786D01*
X101276681Y-70919039D01*
X101289527Y-70909182D01*
X101493498Y-70772893D01*
X101507533Y-70764790D01*
X101727547Y-70656291D01*
X101742512Y-70650093D01*
X101906762Y-70594337D01*
X101974797Y-70571243D01*
X101990464Y-70567045D01*
X102231048Y-70519190D01*
X102247102Y-70517075D01*
X102495957Y-70500765D01*
X102504067Y-70500500D01*
X102565892Y-70500500D01*
X117434108Y-70500500D01*
X117495933Y-70500500D01*
X117504043Y-70500765D01*
G37*
%TD.AperFunction*%
%TD*%
M02*
