%TF.GenerationSoftware,KiCad,Pcbnew,9.0.7*%
%TF.CreationDate,2026-02-26T12:28:58+09:00*%
%TF.ProjectId,USB_isolation2,5553425f-6973-46f6-9c61-74696f6e322e,rev?*%
%TF.SameCoordinates,Original*%
%TF.FileFunction,Legend,Top*%
%TF.FilePolarity,Positive*%
%FSLAX46Y46*%
G04 Gerber Fmt 4.6, Leading zero omitted, Abs format (unit mm)*
G04 Created by KiCad (PCBNEW 9.0.7) date 2026-02-26 12:28:58*
%MOMM*%
%LPD*%
G01*
G04 APERTURE LIST*
%ADD10C,0.100000*%
%ADD11C,0.125000*%
%ADD12C,0.150000*%
%ADD13C,0.120000*%
%ADD14C,0.200000*%
G04 APERTURE END LIST*
D10*
X105303884Y-72372419D02*
X105303884Y-73181942D01*
X105303884Y-73181942D02*
X105351503Y-73277180D01*
X105351503Y-73277180D02*
X105399122Y-73324800D01*
X105399122Y-73324800D02*
X105494360Y-73372419D01*
X105494360Y-73372419D02*
X105684836Y-73372419D01*
X105684836Y-73372419D02*
X105780074Y-73324800D01*
X105780074Y-73324800D02*
X105827693Y-73277180D01*
X105827693Y-73277180D02*
X105875312Y-73181942D01*
X105875312Y-73181942D02*
X105875312Y-72372419D01*
X106303884Y-73324800D02*
X106446741Y-73372419D01*
X106446741Y-73372419D02*
X106684836Y-73372419D01*
X106684836Y-73372419D02*
X106780074Y-73324800D01*
X106780074Y-73324800D02*
X106827693Y-73277180D01*
X106827693Y-73277180D02*
X106875312Y-73181942D01*
X106875312Y-73181942D02*
X106875312Y-73086704D01*
X106875312Y-73086704D02*
X106827693Y-72991466D01*
X106827693Y-72991466D02*
X106780074Y-72943847D01*
X106780074Y-72943847D02*
X106684836Y-72896228D01*
X106684836Y-72896228D02*
X106494360Y-72848609D01*
X106494360Y-72848609D02*
X106399122Y-72800990D01*
X106399122Y-72800990D02*
X106351503Y-72753371D01*
X106351503Y-72753371D02*
X106303884Y-72658133D01*
X106303884Y-72658133D02*
X106303884Y-72562895D01*
X106303884Y-72562895D02*
X106351503Y-72467657D01*
X106351503Y-72467657D02*
X106399122Y-72420038D01*
X106399122Y-72420038D02*
X106494360Y-72372419D01*
X106494360Y-72372419D02*
X106732455Y-72372419D01*
X106732455Y-72372419D02*
X106875312Y-72420038D01*
X107637217Y-72848609D02*
X107780074Y-72896228D01*
X107780074Y-72896228D02*
X107827693Y-72943847D01*
X107827693Y-72943847D02*
X107875312Y-73039085D01*
X107875312Y-73039085D02*
X107875312Y-73181942D01*
X107875312Y-73181942D02*
X107827693Y-73277180D01*
X107827693Y-73277180D02*
X107780074Y-73324800D01*
X107780074Y-73324800D02*
X107684836Y-73372419D01*
X107684836Y-73372419D02*
X107303884Y-73372419D01*
X107303884Y-73372419D02*
X107303884Y-72372419D01*
X107303884Y-72372419D02*
X107637217Y-72372419D01*
X107637217Y-72372419D02*
X107732455Y-72420038D01*
X107732455Y-72420038D02*
X107780074Y-72467657D01*
X107780074Y-72467657D02*
X107827693Y-72562895D01*
X107827693Y-72562895D02*
X107827693Y-72658133D01*
X107827693Y-72658133D02*
X107780074Y-72753371D01*
X107780074Y-72753371D02*
X107732455Y-72800990D01*
X107732455Y-72800990D02*
X107637217Y-72848609D01*
X107637217Y-72848609D02*
X107303884Y-72848609D01*
X109065789Y-73372419D02*
X109065789Y-72372419D01*
X109494360Y-73324800D02*
X109589598Y-73372419D01*
X109589598Y-73372419D02*
X109780074Y-73372419D01*
X109780074Y-73372419D02*
X109875312Y-73324800D01*
X109875312Y-73324800D02*
X109922931Y-73229561D01*
X109922931Y-73229561D02*
X109922931Y-73181942D01*
X109922931Y-73181942D02*
X109875312Y-73086704D01*
X109875312Y-73086704D02*
X109780074Y-73039085D01*
X109780074Y-73039085D02*
X109637217Y-73039085D01*
X109637217Y-73039085D02*
X109541979Y-72991466D01*
X109541979Y-72991466D02*
X109494360Y-72896228D01*
X109494360Y-72896228D02*
X109494360Y-72848609D01*
X109494360Y-72848609D02*
X109541979Y-72753371D01*
X109541979Y-72753371D02*
X109637217Y-72705752D01*
X109637217Y-72705752D02*
X109780074Y-72705752D01*
X109780074Y-72705752D02*
X109875312Y-72753371D01*
X110494360Y-73372419D02*
X110399122Y-73324800D01*
X110399122Y-73324800D02*
X110351503Y-73277180D01*
X110351503Y-73277180D02*
X110303884Y-73181942D01*
X110303884Y-73181942D02*
X110303884Y-72896228D01*
X110303884Y-72896228D02*
X110351503Y-72800990D01*
X110351503Y-72800990D02*
X110399122Y-72753371D01*
X110399122Y-72753371D02*
X110494360Y-72705752D01*
X110494360Y-72705752D02*
X110637217Y-72705752D01*
X110637217Y-72705752D02*
X110732455Y-72753371D01*
X110732455Y-72753371D02*
X110780074Y-72800990D01*
X110780074Y-72800990D02*
X110827693Y-72896228D01*
X110827693Y-72896228D02*
X110827693Y-73181942D01*
X110827693Y-73181942D02*
X110780074Y-73277180D01*
X110780074Y-73277180D02*
X110732455Y-73324800D01*
X110732455Y-73324800D02*
X110637217Y-73372419D01*
X110637217Y-73372419D02*
X110494360Y-73372419D01*
X111399122Y-73372419D02*
X111303884Y-73324800D01*
X111303884Y-73324800D02*
X111256265Y-73229561D01*
X111256265Y-73229561D02*
X111256265Y-72372419D01*
X112208646Y-73372419D02*
X112208646Y-72848609D01*
X112208646Y-72848609D02*
X112161027Y-72753371D01*
X112161027Y-72753371D02*
X112065789Y-72705752D01*
X112065789Y-72705752D02*
X111875313Y-72705752D01*
X111875313Y-72705752D02*
X111780075Y-72753371D01*
X112208646Y-73324800D02*
X112113408Y-73372419D01*
X112113408Y-73372419D02*
X111875313Y-73372419D01*
X111875313Y-73372419D02*
X111780075Y-73324800D01*
X111780075Y-73324800D02*
X111732456Y-73229561D01*
X111732456Y-73229561D02*
X111732456Y-73134323D01*
X111732456Y-73134323D02*
X111780075Y-73039085D01*
X111780075Y-73039085D02*
X111875313Y-72991466D01*
X111875313Y-72991466D02*
X112113408Y-72991466D01*
X112113408Y-72991466D02*
X112208646Y-72943847D01*
X112541980Y-72705752D02*
X112922932Y-72705752D01*
X112684837Y-72372419D02*
X112684837Y-73229561D01*
X112684837Y-73229561D02*
X112732456Y-73324800D01*
X112732456Y-73324800D02*
X112827694Y-73372419D01*
X112827694Y-73372419D02*
X112922932Y-73372419D01*
X113399123Y-73372419D02*
X113303885Y-73324800D01*
X113303885Y-73324800D02*
X113256266Y-73277180D01*
X113256266Y-73277180D02*
X113208647Y-73181942D01*
X113208647Y-73181942D02*
X113208647Y-72896228D01*
X113208647Y-72896228D02*
X113256266Y-72800990D01*
X113256266Y-72800990D02*
X113303885Y-72753371D01*
X113303885Y-72753371D02*
X113399123Y-72705752D01*
X113399123Y-72705752D02*
X113541980Y-72705752D01*
X113541980Y-72705752D02*
X113637218Y-72753371D01*
X113637218Y-72753371D02*
X113684837Y-72800990D01*
X113684837Y-72800990D02*
X113732456Y-72896228D01*
X113732456Y-72896228D02*
X113732456Y-73181942D01*
X113732456Y-73181942D02*
X113684837Y-73277180D01*
X113684837Y-73277180D02*
X113637218Y-73324800D01*
X113637218Y-73324800D02*
X113541980Y-73372419D01*
X113541980Y-73372419D02*
X113399123Y-73372419D01*
X114161028Y-73372419D02*
X114161028Y-72705752D01*
X114161028Y-72896228D02*
X114208647Y-72800990D01*
X114208647Y-72800990D02*
X114256266Y-72753371D01*
X114256266Y-72753371D02*
X114351504Y-72705752D01*
X114351504Y-72705752D02*
X114446742Y-72705752D01*
D11*
X104781261Y-82344140D02*
X104828880Y-82248902D01*
X104828880Y-82248902D02*
X104828880Y-82106045D01*
X104828880Y-82106045D02*
X104781261Y-81963188D01*
X104781261Y-81963188D02*
X104686023Y-81867950D01*
X104686023Y-81867950D02*
X104590785Y-81820331D01*
X104590785Y-81820331D02*
X104400309Y-81772712D01*
X104400309Y-81772712D02*
X104257452Y-81772712D01*
X104257452Y-81772712D02*
X104066976Y-81820331D01*
X104066976Y-81820331D02*
X103971738Y-81867950D01*
X103971738Y-81867950D02*
X103876500Y-81963188D01*
X103876500Y-81963188D02*
X103828880Y-82106045D01*
X103828880Y-82106045D02*
X103828880Y-82201283D01*
X103828880Y-82201283D02*
X103876500Y-82344140D01*
X103876500Y-82344140D02*
X103924119Y-82391759D01*
X103924119Y-82391759D02*
X104257452Y-82391759D01*
X104257452Y-82391759D02*
X104257452Y-82201283D01*
X103828880Y-82820331D02*
X104828880Y-82820331D01*
X104828880Y-82820331D02*
X103828880Y-83391759D01*
X103828880Y-83391759D02*
X104828880Y-83391759D01*
X103828880Y-83867950D02*
X104828880Y-83867950D01*
X104828880Y-83867950D02*
X104828880Y-84106045D01*
X104828880Y-84106045D02*
X104781261Y-84248902D01*
X104781261Y-84248902D02*
X104686023Y-84344140D01*
X104686023Y-84344140D02*
X104590785Y-84391759D01*
X104590785Y-84391759D02*
X104400309Y-84439378D01*
X104400309Y-84439378D02*
X104257452Y-84439378D01*
X104257452Y-84439378D02*
X104066976Y-84391759D01*
X104066976Y-84391759D02*
X103971738Y-84344140D01*
X103971738Y-84344140D02*
X103876500Y-84248902D01*
X103876500Y-84248902D02*
X103828880Y-84106045D01*
X103828880Y-84106045D02*
X103828880Y-83867950D01*
X104728880Y-96796521D02*
X104728880Y-96320331D01*
X104728880Y-96320331D02*
X104252690Y-96272712D01*
X104252690Y-96272712D02*
X104300309Y-96320331D01*
X104300309Y-96320331D02*
X104347928Y-96415569D01*
X104347928Y-96415569D02*
X104347928Y-96653664D01*
X104347928Y-96653664D02*
X104300309Y-96748902D01*
X104300309Y-96748902D02*
X104252690Y-96796521D01*
X104252690Y-96796521D02*
X104157452Y-96844140D01*
X104157452Y-96844140D02*
X103919357Y-96844140D01*
X103919357Y-96844140D02*
X103824119Y-96796521D01*
X103824119Y-96796521D02*
X103776500Y-96748902D01*
X103776500Y-96748902D02*
X103728880Y-96653664D01*
X103728880Y-96653664D02*
X103728880Y-96415569D01*
X103728880Y-96415569D02*
X103776500Y-96320331D01*
X103776500Y-96320331D02*
X103824119Y-96272712D01*
X104728880Y-97129855D02*
X103728880Y-97463188D01*
X103728880Y-97463188D02*
X104728880Y-97796521D01*
X106320331Y-76871119D02*
X106320331Y-75871119D01*
X106320331Y-75871119D02*
X106701283Y-75871119D01*
X106701283Y-75871119D02*
X106796521Y-75918738D01*
X106796521Y-75918738D02*
X106844140Y-75966357D01*
X106844140Y-75966357D02*
X106891759Y-76061595D01*
X106891759Y-76061595D02*
X106891759Y-76204452D01*
X106891759Y-76204452D02*
X106844140Y-76299690D01*
X106844140Y-76299690D02*
X106796521Y-76347309D01*
X106796521Y-76347309D02*
X106701283Y-76394928D01*
X106701283Y-76394928D02*
X106320331Y-76394928D01*
X107510807Y-75871119D02*
X107701283Y-75871119D01*
X107701283Y-75871119D02*
X107796521Y-75918738D01*
X107796521Y-75918738D02*
X107891759Y-76013976D01*
X107891759Y-76013976D02*
X107939378Y-76204452D01*
X107939378Y-76204452D02*
X107939378Y-76537785D01*
X107939378Y-76537785D02*
X107891759Y-76728261D01*
X107891759Y-76728261D02*
X107796521Y-76823500D01*
X107796521Y-76823500D02*
X107701283Y-76871119D01*
X107701283Y-76871119D02*
X107510807Y-76871119D01*
X107510807Y-76871119D02*
X107415569Y-76823500D01*
X107415569Y-76823500D02*
X107320331Y-76728261D01*
X107320331Y-76728261D02*
X107272712Y-76537785D01*
X107272712Y-76537785D02*
X107272712Y-76204452D01*
X107272712Y-76204452D02*
X107320331Y-76013976D01*
X107320331Y-76013976D02*
X107415569Y-75918738D01*
X107415569Y-75918738D02*
X107510807Y-75871119D01*
X108272712Y-75871119D02*
X108510807Y-76871119D01*
X108510807Y-76871119D02*
X108701283Y-76156833D01*
X108701283Y-76156833D02*
X108891759Y-76871119D01*
X108891759Y-76871119D02*
X109129855Y-75871119D01*
X109510807Y-76347309D02*
X109844140Y-76347309D01*
X109986997Y-76871119D02*
X109510807Y-76871119D01*
X109510807Y-76871119D02*
X109510807Y-75871119D01*
X109510807Y-75871119D02*
X109986997Y-75871119D01*
X110986997Y-76871119D02*
X110653664Y-76394928D01*
X110415569Y-76871119D02*
X110415569Y-75871119D01*
X110415569Y-75871119D02*
X110796521Y-75871119D01*
X110796521Y-75871119D02*
X110891759Y-75918738D01*
X110891759Y-75918738D02*
X110939378Y-75966357D01*
X110939378Y-75966357D02*
X110986997Y-76061595D01*
X110986997Y-76061595D02*
X110986997Y-76204452D01*
X110986997Y-76204452D02*
X110939378Y-76299690D01*
X110939378Y-76299690D02*
X110891759Y-76347309D01*
X110891759Y-76347309D02*
X110796521Y-76394928D01*
X110796521Y-76394928D02*
X110415569Y-76394928D01*
X109320331Y-89871119D02*
X109320331Y-88871119D01*
X109320331Y-88871119D02*
X109701283Y-88871119D01*
X109701283Y-88871119D02*
X109796521Y-88918738D01*
X109796521Y-88918738D02*
X109844140Y-88966357D01*
X109844140Y-88966357D02*
X109891759Y-89061595D01*
X109891759Y-89061595D02*
X109891759Y-89204452D01*
X109891759Y-89204452D02*
X109844140Y-89299690D01*
X109844140Y-89299690D02*
X109796521Y-89347309D01*
X109796521Y-89347309D02*
X109701283Y-89394928D01*
X109701283Y-89394928D02*
X109320331Y-89394928D01*
X110891759Y-89775880D02*
X110844140Y-89823500D01*
X110844140Y-89823500D02*
X110701283Y-89871119D01*
X110701283Y-89871119D02*
X110606045Y-89871119D01*
X110606045Y-89871119D02*
X110463188Y-89823500D01*
X110463188Y-89823500D02*
X110367950Y-89728261D01*
X110367950Y-89728261D02*
X110320331Y-89633023D01*
X110320331Y-89633023D02*
X110272712Y-89442547D01*
X110272712Y-89442547D02*
X110272712Y-89299690D01*
X110272712Y-89299690D02*
X110320331Y-89109214D01*
X110320331Y-89109214D02*
X110367950Y-89013976D01*
X110367950Y-89013976D02*
X110463188Y-88918738D01*
X110463188Y-88918738D02*
X110606045Y-88871119D01*
X110606045Y-88871119D02*
X110701283Y-88871119D01*
X110701283Y-88871119D02*
X110844140Y-88918738D01*
X110844140Y-88918738D02*
X110891759Y-88966357D01*
D12*
X115744819Y-93333333D02*
X116459104Y-93333333D01*
X116459104Y-93333333D02*
X116601961Y-93380952D01*
X116601961Y-93380952D02*
X116697200Y-93476190D01*
X116697200Y-93476190D02*
X116744819Y-93619047D01*
X116744819Y-93619047D02*
X116744819Y-93714285D01*
X115744819Y-92952380D02*
X115744819Y-92333333D01*
X115744819Y-92333333D02*
X116125771Y-92666666D01*
X116125771Y-92666666D02*
X116125771Y-92523809D01*
X116125771Y-92523809D02*
X116173390Y-92428571D01*
X116173390Y-92428571D02*
X116221009Y-92380952D01*
X116221009Y-92380952D02*
X116316247Y-92333333D01*
X116316247Y-92333333D02*
X116554342Y-92333333D01*
X116554342Y-92333333D02*
X116649580Y-92380952D01*
X116649580Y-92380952D02*
X116697200Y-92428571D01*
X116697200Y-92428571D02*
X116744819Y-92523809D01*
X116744819Y-92523809D02*
X116744819Y-92809523D01*
X116744819Y-92809523D02*
X116697200Y-92904761D01*
X116697200Y-92904761D02*
X116649580Y-92952380D01*
X115754819Y-80533333D02*
X116469104Y-80533333D01*
X116469104Y-80533333D02*
X116611961Y-80580952D01*
X116611961Y-80580952D02*
X116707200Y-80676190D01*
X116707200Y-80676190D02*
X116754819Y-80819047D01*
X116754819Y-80819047D02*
X116754819Y-80914285D01*
X115850057Y-80104761D02*
X115802438Y-80057142D01*
X115802438Y-80057142D02*
X115754819Y-79961904D01*
X115754819Y-79961904D02*
X115754819Y-79723809D01*
X115754819Y-79723809D02*
X115802438Y-79628571D01*
X115802438Y-79628571D02*
X115850057Y-79580952D01*
X115850057Y-79580952D02*
X115945295Y-79533333D01*
X115945295Y-79533333D02*
X116040533Y-79533333D01*
X116040533Y-79533333D02*
X116183390Y-79580952D01*
X116183390Y-79580952D02*
X116754819Y-80152380D01*
X116754819Y-80152380D02*
X116754819Y-79533333D01*
X109666666Y-105744819D02*
X109666666Y-106459104D01*
X109666666Y-106459104D02*
X109619047Y-106601961D01*
X109619047Y-106601961D02*
X109523809Y-106697200D01*
X109523809Y-106697200D02*
X109380952Y-106744819D01*
X109380952Y-106744819D02*
X109285714Y-106744819D01*
X110666666Y-106744819D02*
X110095238Y-106744819D01*
X110380952Y-106744819D02*
X110380952Y-105744819D01*
X110380952Y-105744819D02*
X110285714Y-105887676D01*
X110285714Y-105887676D02*
X110190476Y-105982914D01*
X110190476Y-105982914D02*
X110095238Y-106030533D01*
D10*
X108990476Y-83964895D02*
X108990476Y-84612514D01*
X108990476Y-84612514D02*
X109028571Y-84688704D01*
X109028571Y-84688704D02*
X109066666Y-84726800D01*
X109066666Y-84726800D02*
X109142857Y-84764895D01*
X109142857Y-84764895D02*
X109295238Y-84764895D01*
X109295238Y-84764895D02*
X109371428Y-84726800D01*
X109371428Y-84726800D02*
X109409523Y-84688704D01*
X109409523Y-84688704D02*
X109447619Y-84612514D01*
X109447619Y-84612514D02*
X109447619Y-83964895D01*
X109790475Y-84041085D02*
X109828571Y-84002990D01*
X109828571Y-84002990D02*
X109904761Y-83964895D01*
X109904761Y-83964895D02*
X110095237Y-83964895D01*
X110095237Y-83964895D02*
X110171428Y-84002990D01*
X110171428Y-84002990D02*
X110209523Y-84041085D01*
X110209523Y-84041085D02*
X110247618Y-84117276D01*
X110247618Y-84117276D02*
X110247618Y-84193466D01*
X110247618Y-84193466D02*
X110209523Y-84307752D01*
X110209523Y-84307752D02*
X109752380Y-84764895D01*
X109752380Y-84764895D02*
X110247618Y-84764895D01*
X108466667Y-78864895D02*
X108200000Y-78483942D01*
X108009524Y-78864895D02*
X108009524Y-78064895D01*
X108009524Y-78064895D02*
X108314286Y-78064895D01*
X108314286Y-78064895D02*
X108390476Y-78102990D01*
X108390476Y-78102990D02*
X108428571Y-78141085D01*
X108428571Y-78141085D02*
X108466667Y-78217276D01*
X108466667Y-78217276D02*
X108466667Y-78331561D01*
X108466667Y-78331561D02*
X108428571Y-78407752D01*
X108428571Y-78407752D02*
X108390476Y-78445847D01*
X108390476Y-78445847D02*
X108314286Y-78483942D01*
X108314286Y-78483942D02*
X108009524Y-78483942D01*
X109152381Y-78331561D02*
X109152381Y-78864895D01*
X108961905Y-78026800D02*
X108771428Y-78598228D01*
X108771428Y-78598228D02*
X109266667Y-78598228D01*
X106290476Y-93264895D02*
X106290476Y-93912514D01*
X106290476Y-93912514D02*
X106328571Y-93988704D01*
X106328571Y-93988704D02*
X106366666Y-94026800D01*
X106366666Y-94026800D02*
X106442857Y-94064895D01*
X106442857Y-94064895D02*
X106595238Y-94064895D01*
X106595238Y-94064895D02*
X106671428Y-94026800D01*
X106671428Y-94026800D02*
X106709523Y-93988704D01*
X106709523Y-93988704D02*
X106747619Y-93912514D01*
X106747619Y-93912514D02*
X106747619Y-93264895D01*
X107547618Y-94064895D02*
X107090475Y-94064895D01*
X107319047Y-94064895D02*
X107319047Y-93264895D01*
X107319047Y-93264895D02*
X107242856Y-93379180D01*
X107242856Y-93379180D02*
X107166666Y-93455371D01*
X107166666Y-93455371D02*
X107090475Y-93493466D01*
X104733333Y-98445847D02*
X104466667Y-98445847D01*
X104466667Y-98864895D02*
X104466667Y-98064895D01*
X104466667Y-98064895D02*
X104847619Y-98064895D01*
X105571428Y-98864895D02*
X105114285Y-98864895D01*
X105342857Y-98864895D02*
X105342857Y-98064895D01*
X105342857Y-98064895D02*
X105266666Y-98179180D01*
X105266666Y-98179180D02*
X105190476Y-98255371D01*
X105190476Y-98255371D02*
X105114285Y-98293466D01*
X108466667Y-81864895D02*
X108200000Y-81483942D01*
X108009524Y-81864895D02*
X108009524Y-81064895D01*
X108009524Y-81064895D02*
X108314286Y-81064895D01*
X108314286Y-81064895D02*
X108390476Y-81102990D01*
X108390476Y-81102990D02*
X108428571Y-81141085D01*
X108428571Y-81141085D02*
X108466667Y-81217276D01*
X108466667Y-81217276D02*
X108466667Y-81331561D01*
X108466667Y-81331561D02*
X108428571Y-81407752D01*
X108428571Y-81407752D02*
X108390476Y-81445847D01*
X108390476Y-81445847D02*
X108314286Y-81483942D01*
X108314286Y-81483942D02*
X108009524Y-81483942D01*
X108733333Y-81064895D02*
X109228571Y-81064895D01*
X109228571Y-81064895D02*
X108961905Y-81369657D01*
X108961905Y-81369657D02*
X109076190Y-81369657D01*
X109076190Y-81369657D02*
X109152381Y-81407752D01*
X109152381Y-81407752D02*
X109190476Y-81445847D01*
X109190476Y-81445847D02*
X109228571Y-81522038D01*
X109228571Y-81522038D02*
X109228571Y-81712514D01*
X109228571Y-81712514D02*
X109190476Y-81788704D01*
X109190476Y-81788704D02*
X109152381Y-81826800D01*
X109152381Y-81826800D02*
X109076190Y-81864895D01*
X109076190Y-81864895D02*
X108847619Y-81864895D01*
X108847619Y-81864895D02*
X108771428Y-81826800D01*
X108771428Y-81826800D02*
X108733333Y-81788704D01*
X108191667Y-92664895D02*
X107925000Y-92283942D01*
X107734524Y-92664895D02*
X107734524Y-91864895D01*
X107734524Y-91864895D02*
X108039286Y-91864895D01*
X108039286Y-91864895D02*
X108115476Y-91902990D01*
X108115476Y-91902990D02*
X108153571Y-91941085D01*
X108153571Y-91941085D02*
X108191667Y-92017276D01*
X108191667Y-92017276D02*
X108191667Y-92131561D01*
X108191667Y-92131561D02*
X108153571Y-92207752D01*
X108153571Y-92207752D02*
X108115476Y-92245847D01*
X108115476Y-92245847D02*
X108039286Y-92283942D01*
X108039286Y-92283942D02*
X107734524Y-92283942D01*
X108915476Y-91864895D02*
X108534524Y-91864895D01*
X108534524Y-91864895D02*
X108496428Y-92245847D01*
X108496428Y-92245847D02*
X108534524Y-92207752D01*
X108534524Y-92207752D02*
X108610714Y-92169657D01*
X108610714Y-92169657D02*
X108801190Y-92169657D01*
X108801190Y-92169657D02*
X108877381Y-92207752D01*
X108877381Y-92207752D02*
X108915476Y-92245847D01*
X108915476Y-92245847D02*
X108953571Y-92322038D01*
X108953571Y-92322038D02*
X108953571Y-92512514D01*
X108953571Y-92512514D02*
X108915476Y-92588704D01*
X108915476Y-92588704D02*
X108877381Y-92626800D01*
X108877381Y-92626800D02*
X108801190Y-92664895D01*
X108801190Y-92664895D02*
X108610714Y-92664895D01*
X108610714Y-92664895D02*
X108534524Y-92626800D01*
X108534524Y-92626800D02*
X108496428Y-92588704D01*
X106066667Y-95954895D02*
X105800000Y-95573942D01*
X105609524Y-95954895D02*
X105609524Y-95154895D01*
X105609524Y-95154895D02*
X105914286Y-95154895D01*
X105914286Y-95154895D02*
X105990476Y-95192990D01*
X105990476Y-95192990D02*
X106028571Y-95231085D01*
X106028571Y-95231085D02*
X106066667Y-95307276D01*
X106066667Y-95307276D02*
X106066667Y-95421561D01*
X106066667Y-95421561D02*
X106028571Y-95497752D01*
X106028571Y-95497752D02*
X105990476Y-95535847D01*
X105990476Y-95535847D02*
X105914286Y-95573942D01*
X105914286Y-95573942D02*
X105609524Y-95573942D01*
X106333333Y-95154895D02*
X106866667Y-95154895D01*
X106866667Y-95154895D02*
X106523809Y-95954895D01*
X110966667Y-99164895D02*
X110700000Y-98783942D01*
X110509524Y-99164895D02*
X110509524Y-98364895D01*
X110509524Y-98364895D02*
X110814286Y-98364895D01*
X110814286Y-98364895D02*
X110890476Y-98402990D01*
X110890476Y-98402990D02*
X110928571Y-98441085D01*
X110928571Y-98441085D02*
X110966667Y-98517276D01*
X110966667Y-98517276D02*
X110966667Y-98631561D01*
X110966667Y-98631561D02*
X110928571Y-98707752D01*
X110928571Y-98707752D02*
X110890476Y-98745847D01*
X110890476Y-98745847D02*
X110814286Y-98783942D01*
X110814286Y-98783942D02*
X110509524Y-98783942D01*
X111271428Y-98441085D02*
X111309524Y-98402990D01*
X111309524Y-98402990D02*
X111385714Y-98364895D01*
X111385714Y-98364895D02*
X111576190Y-98364895D01*
X111576190Y-98364895D02*
X111652381Y-98402990D01*
X111652381Y-98402990D02*
X111690476Y-98441085D01*
X111690476Y-98441085D02*
X111728571Y-98517276D01*
X111728571Y-98517276D02*
X111728571Y-98593466D01*
X111728571Y-98593466D02*
X111690476Y-98707752D01*
X111690476Y-98707752D02*
X111233333Y-99164895D01*
X111233333Y-99164895D02*
X111728571Y-99164895D01*
X104933333Y-90145847D02*
X104666667Y-90145847D01*
X104666667Y-90564895D02*
X104666667Y-89764895D01*
X104666667Y-89764895D02*
X105047619Y-89764895D01*
X105314285Y-89841085D02*
X105352381Y-89802990D01*
X105352381Y-89802990D02*
X105428571Y-89764895D01*
X105428571Y-89764895D02*
X105619047Y-89764895D01*
X105619047Y-89764895D02*
X105695238Y-89802990D01*
X105695238Y-89802990D02*
X105733333Y-89841085D01*
X105733333Y-89841085D02*
X105771428Y-89917276D01*
X105771428Y-89917276D02*
X105771428Y-89993466D01*
X105771428Y-89993466D02*
X105733333Y-90107752D01*
X105733333Y-90107752D02*
X105276190Y-90564895D01*
X105276190Y-90564895D02*
X105771428Y-90564895D01*
X114666667Y-100888704D02*
X114628571Y-100926800D01*
X114628571Y-100926800D02*
X114514286Y-100964895D01*
X114514286Y-100964895D02*
X114438095Y-100964895D01*
X114438095Y-100964895D02*
X114323809Y-100926800D01*
X114323809Y-100926800D02*
X114247619Y-100850609D01*
X114247619Y-100850609D02*
X114209524Y-100774419D01*
X114209524Y-100774419D02*
X114171428Y-100622038D01*
X114171428Y-100622038D02*
X114171428Y-100507752D01*
X114171428Y-100507752D02*
X114209524Y-100355371D01*
X114209524Y-100355371D02*
X114247619Y-100279180D01*
X114247619Y-100279180D02*
X114323809Y-100202990D01*
X114323809Y-100202990D02*
X114438095Y-100164895D01*
X114438095Y-100164895D02*
X114514286Y-100164895D01*
X114514286Y-100164895D02*
X114628571Y-100202990D01*
X114628571Y-100202990D02*
X114666667Y-100241085D01*
X115428571Y-100964895D02*
X114971428Y-100964895D01*
X115200000Y-100964895D02*
X115200000Y-100164895D01*
X115200000Y-100164895D02*
X115123809Y-100279180D01*
X115123809Y-100279180D02*
X115047619Y-100355371D01*
X115047619Y-100355371D02*
X114971428Y-100393466D01*
X108666667Y-99164895D02*
X108400000Y-98783942D01*
X108209524Y-99164895D02*
X108209524Y-98364895D01*
X108209524Y-98364895D02*
X108514286Y-98364895D01*
X108514286Y-98364895D02*
X108590476Y-98402990D01*
X108590476Y-98402990D02*
X108628571Y-98441085D01*
X108628571Y-98441085D02*
X108666667Y-98517276D01*
X108666667Y-98517276D02*
X108666667Y-98631561D01*
X108666667Y-98631561D02*
X108628571Y-98707752D01*
X108628571Y-98707752D02*
X108590476Y-98745847D01*
X108590476Y-98745847D02*
X108514286Y-98783942D01*
X108514286Y-98783942D02*
X108209524Y-98783942D01*
X109428571Y-99164895D02*
X108971428Y-99164895D01*
X109200000Y-99164895D02*
X109200000Y-98364895D01*
X109200000Y-98364895D02*
X109123809Y-98479180D01*
X109123809Y-98479180D02*
X109047619Y-98555371D01*
X109047619Y-98555371D02*
X108971428Y-98593466D01*
X108191667Y-91639895D02*
X107925000Y-91258942D01*
X107734524Y-91639895D02*
X107734524Y-90839895D01*
X107734524Y-90839895D02*
X108039286Y-90839895D01*
X108039286Y-90839895D02*
X108115476Y-90877990D01*
X108115476Y-90877990D02*
X108153571Y-90916085D01*
X108153571Y-90916085D02*
X108191667Y-90992276D01*
X108191667Y-90992276D02*
X108191667Y-91106561D01*
X108191667Y-91106561D02*
X108153571Y-91182752D01*
X108153571Y-91182752D02*
X108115476Y-91220847D01*
X108115476Y-91220847D02*
X108039286Y-91258942D01*
X108039286Y-91258942D02*
X107734524Y-91258942D01*
X108877381Y-90839895D02*
X108725000Y-90839895D01*
X108725000Y-90839895D02*
X108648809Y-90877990D01*
X108648809Y-90877990D02*
X108610714Y-90916085D01*
X108610714Y-90916085D02*
X108534524Y-91030371D01*
X108534524Y-91030371D02*
X108496428Y-91182752D01*
X108496428Y-91182752D02*
X108496428Y-91487514D01*
X108496428Y-91487514D02*
X108534524Y-91563704D01*
X108534524Y-91563704D02*
X108572619Y-91601800D01*
X108572619Y-91601800D02*
X108648809Y-91639895D01*
X108648809Y-91639895D02*
X108801190Y-91639895D01*
X108801190Y-91639895D02*
X108877381Y-91601800D01*
X108877381Y-91601800D02*
X108915476Y-91563704D01*
X108915476Y-91563704D02*
X108953571Y-91487514D01*
X108953571Y-91487514D02*
X108953571Y-91297038D01*
X108953571Y-91297038D02*
X108915476Y-91220847D01*
X108915476Y-91220847D02*
X108877381Y-91182752D01*
X108877381Y-91182752D02*
X108801190Y-91144657D01*
X108801190Y-91144657D02*
X108648809Y-91144657D01*
X108648809Y-91144657D02*
X108572619Y-91182752D01*
X108572619Y-91182752D02*
X108534524Y-91220847D01*
X108534524Y-91220847D02*
X108496428Y-91297038D01*
X106909524Y-97864895D02*
X106909524Y-97064895D01*
X106909524Y-97064895D02*
X107100000Y-97064895D01*
X107100000Y-97064895D02*
X107214286Y-97102990D01*
X107214286Y-97102990D02*
X107290476Y-97179180D01*
X107290476Y-97179180D02*
X107328571Y-97255371D01*
X107328571Y-97255371D02*
X107366667Y-97407752D01*
X107366667Y-97407752D02*
X107366667Y-97522038D01*
X107366667Y-97522038D02*
X107328571Y-97674419D01*
X107328571Y-97674419D02*
X107290476Y-97750609D01*
X107290476Y-97750609D02*
X107214286Y-97826800D01*
X107214286Y-97826800D02*
X107100000Y-97864895D01*
X107100000Y-97864895D02*
X106909524Y-97864895D01*
X108128571Y-97864895D02*
X107671428Y-97864895D01*
X107900000Y-97864895D02*
X107900000Y-97064895D01*
X107900000Y-97064895D02*
X107823809Y-97179180D01*
X107823809Y-97179180D02*
X107747619Y-97255371D01*
X107747619Y-97255371D02*
X107671428Y-97293466D01*
D13*
%TO.C,J3*%
X116190000Y-97670000D02*
X114490000Y-97670000D01*
X116190000Y-88330000D02*
X114490000Y-88330000D01*
%TO.C,J2*%
X116200000Y-84870000D02*
X114500000Y-84870000D01*
X116200000Y-75530000D02*
X114500000Y-75530000D01*
%TO.C,J1*%
X105330000Y-106190000D02*
X105330000Y-104490000D01*
X114670000Y-106190000D02*
X114670000Y-104490000D01*
%TO.C,U2*%
X108040000Y-83490000D02*
X108090000Y-83490000D01*
X108040000Y-85310000D02*
X108040000Y-83490000D01*
X109040000Y-85310000D02*
X108040000Y-85310000D01*
X109210000Y-83490000D02*
X109990000Y-83490000D01*
X111110000Y-83490000D02*
X111160000Y-83490000D01*
X111160000Y-83490000D02*
X111160000Y-85310000D01*
X111160000Y-85310000D02*
X110160000Y-85310000D01*
X109980000Y-82950000D02*
X109650000Y-83190000D01*
X109650000Y-82710000D01*
X109980000Y-82950000D01*
G36*
X109980000Y-82950000D02*
G01*
X109650000Y-83190000D01*
X109650000Y-82710000D01*
X109980000Y-82950000D01*
G37*
%TO.C,R4*%
X110463641Y-78120000D02*
X110156359Y-78120000D01*
X110463641Y-78880000D02*
X110156359Y-78880000D01*
%TO.C,U1*%
X107890000Y-93240000D02*
X109710000Y-93240000D01*
X107890000Y-94240000D02*
X107890000Y-93240000D01*
X107890000Y-96360000D02*
X107890000Y-95360000D01*
X109710000Y-93240000D02*
X109710000Y-93290000D01*
X109710000Y-94410000D02*
X109710000Y-95190000D01*
X109710000Y-96310000D02*
X109710000Y-96360000D01*
X109710000Y-96360000D02*
X107890000Y-96360000D01*
X110250000Y-95180000D02*
X110010000Y-94850000D01*
X110490000Y-94850000D01*
X110250000Y-95180000D01*
G36*
X110250000Y-95180000D02*
G01*
X110010000Y-94850000D01*
X110490000Y-94850000D01*
X110250000Y-95180000D01*
G37*
D14*
%TO.C,F1*%
X106300000Y-101000000D02*
X106300000Y-99800000D01*
D13*
%TO.C,R3*%
X110463641Y-81120000D02*
X110156359Y-81120000D01*
X110463641Y-81880000D02*
X110156359Y-81880000D01*
%TO.C,R5*%
X110143641Y-91920000D02*
X109836359Y-91920000D01*
X110143641Y-92680000D02*
X109836359Y-92680000D01*
%TO.C,R7*%
X105820000Y-97253641D02*
X105820000Y-96946359D01*
X106580000Y-97253641D02*
X106580000Y-96946359D01*
%TO.C,R2*%
X110720000Y-100653641D02*
X110720000Y-100346359D01*
X111480000Y-100653641D02*
X111480000Y-100346359D01*
%TO.C,J4*%
X100420000Y-92000000D02*
X101800000Y-92000000D01*
X100420000Y-93380000D02*
X100420000Y-92000000D01*
X100420000Y-94650000D02*
X100420000Y-102380000D01*
X100420000Y-94650000D02*
X103180000Y-94650000D01*
X100420000Y-102380000D02*
X103180000Y-102380000D01*
X103180000Y-94650000D02*
X103180000Y-102380000D01*
D14*
%TO.C,F2*%
X105800000Y-92585000D02*
X104600000Y-92585000D01*
D13*
%TO.C,C1*%
X112792164Y-100240000D02*
X113007836Y-100240000D01*
X112792164Y-100960000D02*
X113007836Y-100960000D01*
%TO.C,R1*%
X108363887Y-100653641D02*
X108363887Y-100346359D01*
X109123887Y-100653641D02*
X109123887Y-100346359D01*
%TO.C,R6*%
X110153641Y-90920000D02*
X109846359Y-90920000D01*
X110153641Y-91680000D02*
X109846359Y-91680000D01*
%TO.C,J5*%
X100420000Y-77620000D02*
X101800000Y-77620000D01*
X100420000Y-79000000D02*
X100420000Y-77620000D01*
X100420000Y-80270000D02*
X100420000Y-88000000D01*
X100420000Y-80270000D02*
X103180000Y-80270000D01*
X100420000Y-88000000D02*
X103180000Y-88000000D01*
X103180000Y-80270000D02*
X103180000Y-88000000D01*
D10*
%TO.C,D1*%
X105660000Y-98700000D02*
G75*
G02*
X105560000Y-98700000I-50000J0D01*
G01*
X105560000Y-98700000D02*
G75*
G02*
X105660000Y-98700000I50000J0D01*
G01*
%TD*%
M02*
