M48
; DRILL file {KiCad 9.0.5} date 2025-11-06T18:30:32+0900
; FORMAT={-:-/ absolute / metric / decimal}
; #@! TF.CreationDate,2025-11-06T18:30:32+09:00
; #@! TF.GenerationSoftware,Kicad,Pcbnew,9.0.5
; #@! TF.FileFunction,Plated,1,2,PTH
FMAT,2
METRIC
; #@! TA.AperFunction,Plated,PTH,ComponentDrill
T1C0.200
; #@! TA.AperFunction,Plated,PTH,ViaDrill
T2C0.300
; #@! TA.AperFunction,Plated,PTH,ComponentDrill
T3C0.600
; #@! TA.AperFunction,Plated,PTH,ComponentDrill
T4C1.000
; #@! TA.AperFunction,Plated,PTH,ComponentDrill
T5C3.200
%
G90
G05
T1
X96.0Y-77.55
X96.0Y-78.65
X96.55Y-77.0
X96.55Y-78.1
X96.55Y-79.2
X97.1Y-77.55
X97.1Y-78.65
X97.65Y-77.0
X97.65Y-78.1
X97.65Y-79.2
X98.2Y-77.55
X98.2Y-78.65
T2
X90.8Y-68.31
X92.45Y-68.31
X93.9Y-68.39
X94.025Y-69.9
X96.188Y-87.712
X96.6Y-81.4
X99.735Y-105.3
X99.735Y-117.3
X99.75Y-111.25
X99.9Y-68.39
X101.4Y-68.39
X101.765Y-107.2
X101.765Y-113.2
X101.765Y-119.2
X102.9Y-68.39
X103.485Y-105.3
X103.485Y-111.3
X103.485Y-117.3
X105.515Y-107.2
X105.515Y-113.2
X105.515Y-119.2
X106.0Y-94.8
X107.235Y-105.3
X107.235Y-111.3
X107.235Y-117.3
X107.5Y-77.5
X107.5Y-100.0
X109.265Y-107.2
X109.265Y-113.2
X109.265Y-119.2
X110.985Y-105.3
X110.985Y-111.3
X110.985Y-117.3
X112.5Y-77.5
X112.5Y-100.0
X113.015Y-107.2
X113.015Y-113.2
X113.015Y-119.2
X114.735Y-105.3
X114.735Y-111.3
X114.735Y-117.3
X116.765Y-107.2
X116.765Y-113.2
X116.765Y-119.2
X117.5Y-77.5
X117.5Y-100.0
X118.485Y-105.3
X118.485Y-111.3
X118.485Y-117.3
X120.515Y-107.2
X120.515Y-113.2
X120.515Y-119.2
X122.235Y-105.3
X122.235Y-111.3
X122.235Y-117.3
X122.5Y-77.5
X122.5Y-100.0
X124.265Y-107.2
X124.265Y-113.2
X124.265Y-119.2
X125.985Y-105.3
X125.985Y-111.3
X125.985Y-117.3
X127.5Y-77.5
X127.5Y-100.0
X128.015Y-107.2
X128.015Y-113.2
X128.015Y-119.2
X132.5Y-77.5
X132.5Y-100.0
X137.5Y-77.5
X137.5Y-100.0
X142.5Y-77.5
X142.5Y-100.0
X147.5Y-77.5
X147.5Y-100.0
X152.5Y-77.5
X152.5Y-100.0
X157.5Y-77.5
X157.5Y-100.0
X160.987Y-94.2
X162.5Y-77.5
X162.5Y-100.0
X167.987Y-87.15
X167.987Y-99.2
X168.75Y-94.25
X171.0Y-72.67
X172.4Y-75.6
X172.4Y-76.4
X173.2Y-75.6
X173.2Y-76.4
X174.0Y-75.6
X174.0Y-76.4
X174.8Y-75.6
X174.8Y-76.4
X175.0Y-73.8
X175.0Y-74.6
X175.5Y-71.53
X175.5Y-76.33
X176.66Y-70.75
X176.66Y-71.55
X176.66Y-76.35
X176.66Y-77.15
X178.875Y-81.0
X179.0Y-72.43
X179.0Y-74.94
T4
X178.4Y-83.0
X180.9Y-83.0
T5
X93.0Y-63.0
X93.0Y-120.0
X181.0Y-63.0
X181.0Y-120.0
T3
G00X176.685Y-69.63
M15
G01X177.785Y-69.63
M16
G05
G00X176.685Y-78.27
M15
G01X177.785Y-78.27
M16
G05
G00X181.015Y-69.63
M15
G01X181.815Y-69.63
M16
G05
G00X181.015Y-78.27
M15
G01X181.815Y-78.27
M16
G05
M30
