%TF.GenerationSoftware,KiCad,Pcbnew,9.0.5*%
%TF.CreationDate,2025-11-06T18:30:36+09:00*%
%TF.ProjectId,Nafuda,4e616675-6461-42e6-9b69-6361645f7063,rev?*%
%TF.SameCoordinates,Original*%
%TF.FileFunction,Legend,Top*%
%TF.FilePolarity,Positive*%
%FSLAX46Y46*%
G04 Gerber Fmt 4.6, Leading zero omitted, Abs format (unit mm)*
G04 Created by KiCad (PCBNEW 9.0.5) date 2025-11-06 18:30:36*
%MOMM*%
%LPD*%
G01*
G04 APERTURE LIST*
%ADD10C,2.000000*%
%ADD11C,0.100000*%
%ADD12C,0.000000*%
%ADD13C,0.127000*%
%ADD14C,0.200000*%
%ADD15C,0.120000*%
G04 APERTURE END LIST*
D10*
G36*
X113759891Y-90300000D02*
G01*
X115505006Y-90300000D01*
X117199441Y-82150226D01*
X120264689Y-82150226D01*
X120593196Y-80569364D01*
X112738956Y-80569364D01*
X112410450Y-82150226D01*
X115454326Y-82150226D01*
X113759891Y-90300000D01*
G37*
G36*
X122291905Y-90456315D02*
G01*
X123255653Y-90379808D01*
X123771806Y-90280567D01*
X124282936Y-90142510D01*
X124743492Y-89981263D01*
X124613433Y-88746615D01*
X124169688Y-88896353D01*
X123721763Y-89006266D01*
X123287798Y-89072622D01*
X122865174Y-89095874D01*
X122857327Y-89095882D01*
X122492742Y-89076380D01*
X122168836Y-89018021D01*
X121910774Y-88931778D01*
X121686642Y-88813986D01*
X121508364Y-88675795D01*
X121360044Y-88510423D01*
X121156421Y-88106041D01*
X121070297Y-87574885D01*
X121123457Y-86876468D01*
X121156786Y-86700471D01*
X121263360Y-86282369D01*
X121399207Y-85911756D01*
X121550941Y-85610514D01*
X121726373Y-85351779D01*
X121911051Y-85149028D01*
X122115113Y-84984576D01*
X122327921Y-84863607D01*
X122557340Y-84778720D01*
X123010589Y-84718440D01*
X123269005Y-84737811D01*
X123494198Y-84795251D01*
X123670760Y-84880498D01*
X123818073Y-84996115D01*
X124017196Y-85301872D01*
X124101472Y-85728206D01*
X124046179Y-86313956D01*
X120996196Y-86313956D01*
X120769661Y-87404501D01*
X125387072Y-87404501D01*
X125674057Y-86388450D01*
X125742123Y-85965745D01*
X125765965Y-85569726D01*
X125748448Y-85218655D01*
X125692548Y-84894060D01*
X125604238Y-84610173D01*
X125482494Y-84352350D01*
X125333625Y-84128701D01*
X125154812Y-83931209D01*
X124714368Y-83620456D01*
X124153073Y-83420290D01*
X123455923Y-83344115D01*
X123420917Y-83343963D01*
X122644663Y-83420283D01*
X121909183Y-83645737D01*
X121227865Y-84015410D01*
X120617264Y-84523250D01*
X120096330Y-85160181D01*
X119875463Y-85523425D01*
X119684591Y-85913122D01*
X119525488Y-86327720D01*
X119400010Y-86765477D01*
X119362822Y-86931280D01*
X119290845Y-87372735D01*
X119263038Y-87788808D01*
X119276920Y-88161140D01*
X119329530Y-88508673D01*
X119415640Y-88817712D01*
X119536045Y-89102469D01*
X119685426Y-89355396D01*
X119866068Y-89583991D01*
X120315910Y-89963607D01*
X120893706Y-90242964D01*
X121614838Y-90412555D01*
X122291905Y-90456315D01*
G37*
G36*
X126351221Y-90300000D02*
G01*
X128097557Y-90300000D01*
X129070865Y-85619696D01*
X129151465Y-83500279D01*
X127764776Y-83500279D01*
X126351221Y-90300000D01*
G37*
G36*
X128566503Y-86418981D02*
G01*
X128786006Y-86123204D01*
X129027967Y-85861222D01*
X129289548Y-85634568D01*
X129567165Y-85445498D01*
X129852638Y-85298023D01*
X130147390Y-85190427D01*
X130438644Y-85125916D01*
X130732901Y-85102013D01*
X130754309Y-85101901D01*
X131330245Y-85173502D01*
X131568859Y-85249668D01*
X132315631Y-83612020D01*
X131803695Y-83458305D01*
X131367358Y-83422121D01*
X130755109Y-83498351D01*
X130126676Y-83732588D01*
X129512871Y-84128305D01*
X129223458Y-84385015D01*
X128954379Y-84676381D01*
X128920655Y-84717219D01*
X128566503Y-86418981D01*
G37*
G36*
X131236078Y-90300000D02*
G01*
X132982414Y-90300000D01*
X133955722Y-85619696D01*
X134036322Y-83500279D01*
X132649633Y-83500279D01*
X131236078Y-90300000D01*
G37*
G36*
X133451360Y-86418981D02*
G01*
X133670862Y-86123204D01*
X133912824Y-85861222D01*
X134174405Y-85634568D01*
X134452022Y-85445498D01*
X134737495Y-85298023D01*
X135032247Y-85190427D01*
X135323501Y-85125916D01*
X135617758Y-85102013D01*
X135639166Y-85101901D01*
X136215102Y-85173502D01*
X136453715Y-85249668D01*
X137200488Y-83612020D01*
X136688552Y-83458305D01*
X136252215Y-83422121D01*
X135639966Y-83498351D01*
X135011533Y-83732588D01*
X134397728Y-84128305D01*
X134108315Y-84385015D01*
X133839236Y-84676381D01*
X133805512Y-84717219D01*
X133451360Y-86418981D01*
G37*
G36*
X140299930Y-90300000D02*
G01*
X141549232Y-90300000D01*
X142399197Y-86212595D01*
X142468954Y-85780872D01*
X142492158Y-85382541D01*
X142472633Y-85046684D01*
X142414177Y-84739793D01*
X142324830Y-84480327D01*
X142201946Y-84246654D01*
X142052142Y-84046443D01*
X141871498Y-83870694D01*
X141415517Y-83592579D01*
X140807478Y-83411320D01*
X140003175Y-83343963D01*
X139046087Y-83419440D01*
X138019391Y-83653946D01*
X137115003Y-84002808D01*
X137270097Y-85247226D01*
X137801762Y-85068116D01*
X138311787Y-84938155D01*
X138775465Y-84860030D01*
X139216569Y-84826226D01*
X139329064Y-84824685D01*
X139699531Y-84844186D01*
X140015440Y-84902533D01*
X140245005Y-84984631D01*
X140432044Y-85095753D01*
X140562558Y-85219305D01*
X140658291Y-85365742D01*
X140743182Y-85714076D01*
X140710868Y-86068492D01*
X140102093Y-88994521D01*
X140299930Y-90300000D01*
G37*
G36*
X137946650Y-90456315D02*
G01*
X138323798Y-90436928D01*
X138689123Y-90379377D01*
X139040570Y-90284759D01*
X139377251Y-90153922D01*
X140001923Y-89786067D01*
X140552578Y-89279765D01*
X141016405Y-88637937D01*
X141279344Y-88114637D01*
X140768265Y-87852076D01*
X140439837Y-88322332D01*
X139990222Y-88701733D01*
X139729680Y-88845968D01*
X139452699Y-88954406D01*
X139167835Y-89023728D01*
X138874961Y-89053397D01*
X138811880Y-89054361D01*
X138553498Y-89035283D01*
X138331111Y-88979891D01*
X138158168Y-88897645D01*
X138021540Y-88788302D01*
X137928997Y-88664088D01*
X137871846Y-88520166D01*
X137870324Y-88184856D01*
X137927128Y-88009274D01*
X138021548Y-87853770D01*
X138312248Y-87611075D01*
X138800835Y-87423533D01*
X139609241Y-87295130D01*
X140762159Y-87251849D01*
X140967934Y-86260223D01*
X140093581Y-86279949D01*
X139311031Y-86339879D01*
X138698247Y-86426445D01*
X138152704Y-86545575D01*
X137721099Y-86680088D01*
X137340700Y-86841710D01*
X137037380Y-87013253D01*
X136774866Y-87208216D01*
X136564164Y-87413623D01*
X136388174Y-87640511D01*
X136140489Y-88150890D01*
X136066591Y-88427267D01*
X136022264Y-88735367D01*
X136020649Y-89022813D01*
X136057809Y-89276486D01*
X136131695Y-89508877D01*
X136237398Y-89712709D01*
X136375684Y-89894292D01*
X136745972Y-90186165D01*
X137251631Y-90379941D01*
X137907613Y-90456108D01*
X137946650Y-90456315D01*
G37*
G36*
X143125819Y-90300000D02*
G01*
X144872156Y-90300000D01*
X145845464Y-85619696D01*
X145926064Y-83500279D01*
X144539375Y-83500279D01*
X143125819Y-90300000D01*
G37*
G36*
X145341102Y-86418981D02*
G01*
X145560604Y-86123204D01*
X145802566Y-85861222D01*
X146064147Y-85634568D01*
X146341764Y-85445498D01*
X146627237Y-85298023D01*
X146921989Y-85190427D01*
X147213243Y-85125916D01*
X147507500Y-85102013D01*
X147528907Y-85101901D01*
X148104844Y-85173502D01*
X148343457Y-85249668D01*
X149090230Y-83612020D01*
X148578293Y-83458305D01*
X148141957Y-83422121D01*
X147529708Y-83498351D01*
X146901275Y-83732588D01*
X146287469Y-84128305D01*
X145998057Y-84385015D01*
X145728978Y-84676381D01*
X145695254Y-84717219D01*
X145341102Y-86418981D01*
G37*
G36*
X148010676Y-90300000D02*
G01*
X149757013Y-90300000D01*
X151170568Y-83500279D01*
X149424232Y-83500279D01*
X148010676Y-90300000D01*
G37*
G36*
X150567899Y-82249755D02*
G01*
X150802417Y-82230572D01*
X151021300Y-82174449D01*
X151402980Y-81959144D01*
X151692706Y-81618414D01*
X151796143Y-81405208D01*
X151867550Y-81167148D01*
X151870935Y-81151273D01*
X151901819Y-80908586D01*
X151889731Y-80691372D01*
X151841413Y-80513964D01*
X151758830Y-80362317D01*
X151649119Y-80243021D01*
X151510643Y-80150462D01*
X151145282Y-80051121D01*
X151025854Y-80046074D01*
X150791334Y-80065270D01*
X150572435Y-80121481D01*
X150191218Y-80337000D01*
X149901557Y-80678450D01*
X149797733Y-80892631D01*
X149725689Y-81132140D01*
X149721598Y-81151273D01*
X149691119Y-81391707D01*
X149703503Y-81607231D01*
X149752101Y-81783728D01*
X149834988Y-81934746D01*
X149945146Y-82053750D01*
X150084161Y-82146088D01*
X150450860Y-82244916D01*
X150567899Y-82249755D01*
G37*
G36*
X155472295Y-90300000D02*
G01*
X156721598Y-90300000D01*
X157571563Y-86212595D01*
X157641320Y-85780872D01*
X157664523Y-85382541D01*
X157644999Y-85046684D01*
X157586543Y-84739793D01*
X157497195Y-84480327D01*
X157374311Y-84246654D01*
X157224508Y-84046443D01*
X157043864Y-83870694D01*
X156587883Y-83592579D01*
X155979843Y-83411320D01*
X155175540Y-83343963D01*
X154218453Y-83419440D01*
X153191757Y-83653946D01*
X152287369Y-84002808D01*
X152442463Y-85247226D01*
X152974128Y-85068116D01*
X153484152Y-84938155D01*
X153947831Y-84860030D01*
X154388935Y-84826226D01*
X154501430Y-84824685D01*
X154871896Y-84844186D01*
X155187806Y-84902533D01*
X155417370Y-84984631D01*
X155604409Y-85095753D01*
X155734924Y-85219305D01*
X155830657Y-85365742D01*
X155915548Y-85714076D01*
X155883234Y-86068492D01*
X155274459Y-88994521D01*
X155472295Y-90300000D01*
G37*
G36*
X153119016Y-90456315D02*
G01*
X153496164Y-90436928D01*
X153861489Y-90379377D01*
X154212936Y-90284759D01*
X154549617Y-90153922D01*
X155174289Y-89786067D01*
X155724944Y-89279765D01*
X156188771Y-88637937D01*
X156451709Y-88114637D01*
X155940631Y-87852076D01*
X155612202Y-88322332D01*
X155162588Y-88701733D01*
X154902046Y-88845968D01*
X154625064Y-88954406D01*
X154340200Y-89023728D01*
X154047327Y-89053397D01*
X153984246Y-89054361D01*
X153725863Y-89035283D01*
X153503477Y-88979891D01*
X153330534Y-88897645D01*
X153193906Y-88788302D01*
X153101362Y-88664088D01*
X153044212Y-88520166D01*
X153042690Y-88184856D01*
X153099493Y-88009274D01*
X153193914Y-87853770D01*
X153484613Y-87611075D01*
X153973201Y-87423533D01*
X154781607Y-87295130D01*
X155934525Y-87251849D01*
X156140300Y-86260223D01*
X155265946Y-86279949D01*
X154483397Y-86339879D01*
X153870613Y-86426445D01*
X153325069Y-86545575D01*
X152893465Y-86680088D01*
X152513065Y-86841710D01*
X152209745Y-87013253D01*
X151947232Y-87208216D01*
X151736529Y-87413623D01*
X151560540Y-87640511D01*
X151312855Y-88150890D01*
X151238956Y-88427267D01*
X151194629Y-88735367D01*
X151193014Y-89022813D01*
X151230174Y-89276486D01*
X151304060Y-89508877D01*
X151409764Y-89712709D01*
X151548050Y-89894292D01*
X151918338Y-90186165D01*
X152423997Y-90379941D01*
X153079978Y-90456108D01*
X153119016Y-90456315D01*
G37*
D11*
X166788704Y-70633332D02*
X166826800Y-70671428D01*
X166826800Y-70671428D02*
X166864895Y-70785713D01*
X166864895Y-70785713D02*
X166864895Y-70861904D01*
X166864895Y-70861904D02*
X166826800Y-70976190D01*
X166826800Y-70976190D02*
X166750609Y-71052380D01*
X166750609Y-71052380D02*
X166674419Y-71090475D01*
X166674419Y-71090475D02*
X166522038Y-71128571D01*
X166522038Y-71128571D02*
X166407752Y-71128571D01*
X166407752Y-71128571D02*
X166255371Y-71090475D01*
X166255371Y-71090475D02*
X166179180Y-71052380D01*
X166179180Y-71052380D02*
X166102990Y-70976190D01*
X166102990Y-70976190D02*
X166064895Y-70861904D01*
X166064895Y-70861904D02*
X166064895Y-70785713D01*
X166064895Y-70785713D02*
X166102990Y-70671428D01*
X166102990Y-70671428D02*
X166141085Y-70633332D01*
X166864895Y-70252380D02*
X166864895Y-70099999D01*
X166864895Y-70099999D02*
X166826800Y-70023809D01*
X166826800Y-70023809D02*
X166788704Y-69985713D01*
X166788704Y-69985713D02*
X166674419Y-69909523D01*
X166674419Y-69909523D02*
X166522038Y-69871428D01*
X166522038Y-69871428D02*
X166217276Y-69871428D01*
X166217276Y-69871428D02*
X166141085Y-69909523D01*
X166141085Y-69909523D02*
X166102990Y-69947618D01*
X166102990Y-69947618D02*
X166064895Y-70023809D01*
X166064895Y-70023809D02*
X166064895Y-70176190D01*
X166064895Y-70176190D02*
X166102990Y-70252380D01*
X166102990Y-70252380D02*
X166141085Y-70290475D01*
X166141085Y-70290475D02*
X166217276Y-70328571D01*
X166217276Y-70328571D02*
X166407752Y-70328571D01*
X166407752Y-70328571D02*
X166483942Y-70290475D01*
X166483942Y-70290475D02*
X166522038Y-70252380D01*
X166522038Y-70252380D02*
X166560133Y-70176190D01*
X166560133Y-70176190D02*
X166560133Y-70023809D01*
X166560133Y-70023809D02*
X166522038Y-69947618D01*
X166522038Y-69947618D02*
X166483942Y-69909523D01*
X166483942Y-69909523D02*
X166407752Y-69871428D01*
X93816667Y-68714895D02*
X93550000Y-68333942D01*
X93359524Y-68714895D02*
X93359524Y-67914895D01*
X93359524Y-67914895D02*
X93664286Y-67914895D01*
X93664286Y-67914895D02*
X93740476Y-67952990D01*
X93740476Y-67952990D02*
X93778571Y-67991085D01*
X93778571Y-67991085D02*
X93816667Y-68067276D01*
X93816667Y-68067276D02*
X93816667Y-68181561D01*
X93816667Y-68181561D02*
X93778571Y-68257752D01*
X93778571Y-68257752D02*
X93740476Y-68295847D01*
X93740476Y-68295847D02*
X93664286Y-68333942D01*
X93664286Y-68333942D02*
X93359524Y-68333942D01*
X94121428Y-67991085D02*
X94159524Y-67952990D01*
X94159524Y-67952990D02*
X94235714Y-67914895D01*
X94235714Y-67914895D02*
X94426190Y-67914895D01*
X94426190Y-67914895D02*
X94502381Y-67952990D01*
X94502381Y-67952990D02*
X94540476Y-67991085D01*
X94540476Y-67991085D02*
X94578571Y-68067276D01*
X94578571Y-68067276D02*
X94578571Y-68143466D01*
X94578571Y-68143466D02*
X94540476Y-68257752D01*
X94540476Y-68257752D02*
X94083333Y-68714895D01*
X94083333Y-68714895D02*
X94578571Y-68714895D01*
X168969048Y-70364895D02*
X168969048Y-69564895D01*
X169807143Y-70288704D02*
X169769047Y-70326800D01*
X169769047Y-70326800D02*
X169654762Y-70364895D01*
X169654762Y-70364895D02*
X169578571Y-70364895D01*
X169578571Y-70364895D02*
X169464285Y-70326800D01*
X169464285Y-70326800D02*
X169388095Y-70250609D01*
X169388095Y-70250609D02*
X169350000Y-70174419D01*
X169350000Y-70174419D02*
X169311904Y-70022038D01*
X169311904Y-70022038D02*
X169311904Y-69907752D01*
X169311904Y-69907752D02*
X169350000Y-69755371D01*
X169350000Y-69755371D02*
X169388095Y-69679180D01*
X169388095Y-69679180D02*
X169464285Y-69602990D01*
X169464285Y-69602990D02*
X169578571Y-69564895D01*
X169578571Y-69564895D02*
X169654762Y-69564895D01*
X169654762Y-69564895D02*
X169769047Y-69602990D01*
X169769047Y-69602990D02*
X169807143Y-69641085D01*
X170569047Y-70364895D02*
X170111904Y-70364895D01*
X170340476Y-70364895D02*
X170340476Y-69564895D01*
X170340476Y-69564895D02*
X170264285Y-69679180D01*
X170264285Y-69679180D02*
X170188095Y-69755371D01*
X170188095Y-69755371D02*
X170111904Y-69793466D01*
X174288704Y-68133332D02*
X174326800Y-68171428D01*
X174326800Y-68171428D02*
X174364895Y-68285713D01*
X174364895Y-68285713D02*
X174364895Y-68361904D01*
X174364895Y-68361904D02*
X174326800Y-68476190D01*
X174326800Y-68476190D02*
X174250609Y-68552380D01*
X174250609Y-68552380D02*
X174174419Y-68590475D01*
X174174419Y-68590475D02*
X174022038Y-68628571D01*
X174022038Y-68628571D02*
X173907752Y-68628571D01*
X173907752Y-68628571D02*
X173755371Y-68590475D01*
X173755371Y-68590475D02*
X173679180Y-68552380D01*
X173679180Y-68552380D02*
X173602990Y-68476190D01*
X173602990Y-68476190D02*
X173564895Y-68361904D01*
X173564895Y-68361904D02*
X173564895Y-68285713D01*
X173564895Y-68285713D02*
X173602990Y-68171428D01*
X173602990Y-68171428D02*
X173641085Y-68133332D01*
X173907752Y-67676190D02*
X173869657Y-67752380D01*
X173869657Y-67752380D02*
X173831561Y-67790475D01*
X173831561Y-67790475D02*
X173755371Y-67828571D01*
X173755371Y-67828571D02*
X173717276Y-67828571D01*
X173717276Y-67828571D02*
X173641085Y-67790475D01*
X173641085Y-67790475D02*
X173602990Y-67752380D01*
X173602990Y-67752380D02*
X173564895Y-67676190D01*
X173564895Y-67676190D02*
X173564895Y-67523809D01*
X173564895Y-67523809D02*
X173602990Y-67447618D01*
X173602990Y-67447618D02*
X173641085Y-67409523D01*
X173641085Y-67409523D02*
X173717276Y-67371428D01*
X173717276Y-67371428D02*
X173755371Y-67371428D01*
X173755371Y-67371428D02*
X173831561Y-67409523D01*
X173831561Y-67409523D02*
X173869657Y-67447618D01*
X173869657Y-67447618D02*
X173907752Y-67523809D01*
X173907752Y-67523809D02*
X173907752Y-67676190D01*
X173907752Y-67676190D02*
X173945847Y-67752380D01*
X173945847Y-67752380D02*
X173983942Y-67790475D01*
X173983942Y-67790475D02*
X174060133Y-67828571D01*
X174060133Y-67828571D02*
X174212514Y-67828571D01*
X174212514Y-67828571D02*
X174288704Y-67790475D01*
X174288704Y-67790475D02*
X174326800Y-67752380D01*
X174326800Y-67752380D02*
X174364895Y-67676190D01*
X174364895Y-67676190D02*
X174364895Y-67523809D01*
X174364895Y-67523809D02*
X174326800Y-67447618D01*
X174326800Y-67447618D02*
X174288704Y-67409523D01*
X174288704Y-67409523D02*
X174212514Y-67371428D01*
X174212514Y-67371428D02*
X174060133Y-67371428D01*
X174060133Y-67371428D02*
X173983942Y-67409523D01*
X173983942Y-67409523D02*
X173945847Y-67447618D01*
X173945847Y-67447618D02*
X173907752Y-67523809D01*
X179135714Y-79858704D02*
X179097618Y-79896800D01*
X179097618Y-79896800D02*
X178983333Y-79934895D01*
X178983333Y-79934895D02*
X178907142Y-79934895D01*
X178907142Y-79934895D02*
X178792856Y-79896800D01*
X178792856Y-79896800D02*
X178716666Y-79820609D01*
X178716666Y-79820609D02*
X178678571Y-79744419D01*
X178678571Y-79744419D02*
X178640475Y-79592038D01*
X178640475Y-79592038D02*
X178640475Y-79477752D01*
X178640475Y-79477752D02*
X178678571Y-79325371D01*
X178678571Y-79325371D02*
X178716666Y-79249180D01*
X178716666Y-79249180D02*
X178792856Y-79172990D01*
X178792856Y-79172990D02*
X178907142Y-79134895D01*
X178907142Y-79134895D02*
X178983333Y-79134895D01*
X178983333Y-79134895D02*
X179097618Y-79172990D01*
X179097618Y-79172990D02*
X179135714Y-79211085D01*
X179897618Y-79934895D02*
X179440475Y-79934895D01*
X179669047Y-79934895D02*
X179669047Y-79134895D01*
X179669047Y-79134895D02*
X179592856Y-79249180D01*
X179592856Y-79249180D02*
X179516666Y-79325371D01*
X179516666Y-79325371D02*
X179440475Y-79363466D01*
X180392857Y-79134895D02*
X180469047Y-79134895D01*
X180469047Y-79134895D02*
X180545238Y-79172990D01*
X180545238Y-79172990D02*
X180583333Y-79211085D01*
X180583333Y-79211085D02*
X180621428Y-79287276D01*
X180621428Y-79287276D02*
X180659523Y-79439657D01*
X180659523Y-79439657D02*
X180659523Y-79630133D01*
X180659523Y-79630133D02*
X180621428Y-79782514D01*
X180621428Y-79782514D02*
X180583333Y-79858704D01*
X180583333Y-79858704D02*
X180545238Y-79896800D01*
X180545238Y-79896800D02*
X180469047Y-79934895D01*
X180469047Y-79934895D02*
X180392857Y-79934895D01*
X180392857Y-79934895D02*
X180316666Y-79896800D01*
X180316666Y-79896800D02*
X180278571Y-79858704D01*
X180278571Y-79858704D02*
X180240476Y-79782514D01*
X180240476Y-79782514D02*
X180202380Y-79630133D01*
X180202380Y-79630133D02*
X180202380Y-79439657D01*
X180202380Y-79439657D02*
X180240476Y-79287276D01*
X180240476Y-79287276D02*
X180278571Y-79211085D01*
X180278571Y-79211085D02*
X180316666Y-79172990D01*
X180316666Y-79172990D02*
X180392857Y-79134895D01*
D12*
%TO.C,G\u002A\u002A\u002A*%
G36*
X164700845Y-106041093D02*
G01*
X164700845Y-108317643D01*
X163284731Y-108317643D01*
X161868617Y-108317643D01*
X161830283Y-108252232D01*
X161789522Y-108193526D01*
X161732188Y-108125251D01*
X161665037Y-108054447D01*
X161594824Y-107988155D01*
X161528303Y-107933416D01*
X161515468Y-107924071D01*
X161360766Y-107831449D01*
X161196648Y-107764850D01*
X161025935Y-107724412D01*
X160851446Y-107710270D01*
X160676004Y-107722560D01*
X160502430Y-107761416D01*
X160333545Y-107826975D01*
X160262288Y-107863845D01*
X160163035Y-107929695D01*
X160062545Y-108014859D01*
X159966534Y-108113046D01*
X159880715Y-108217966D01*
X159810803Y-108323328D01*
X159768734Y-108407130D01*
X159746459Y-108460823D01*
X160376639Y-108460823D01*
X161006820Y-108460823D01*
X161006820Y-108890360D01*
X161006820Y-109319898D01*
X160383991Y-109319898D01*
X160228555Y-109320056D01*
X160099633Y-109320570D01*
X159995106Y-109321502D01*
X159912851Y-109322914D01*
X159850749Y-109324869D01*
X159806680Y-109327428D01*
X159778524Y-109330653D01*
X159764159Y-109334606D01*
X159761161Y-109338095D01*
X159769654Y-109366463D01*
X159792705Y-109411422D01*
X159826670Y-109467453D01*
X159867903Y-109529040D01*
X159912760Y-109590667D01*
X159957598Y-109646816D01*
X159986815Y-109679689D01*
X160103720Y-109791451D01*
X160223526Y-109879873D01*
X160353821Y-109949863D01*
X160480840Y-109999321D01*
X160646171Y-110040114D01*
X160818098Y-110055094D01*
X160991960Y-110044781D01*
X161163096Y-110009694D01*
X161326846Y-109950350D01*
X161437743Y-109892784D01*
X161507443Y-109845825D01*
X161583781Y-109785338D01*
X161659352Y-109718004D01*
X161726749Y-109650502D01*
X161778567Y-109589511D01*
X161787087Y-109577707D01*
X161826837Y-109520349D01*
X164165870Y-109520349D01*
X166504904Y-109520349D01*
X166504904Y-110361474D01*
X166504904Y-111202599D01*
X165793140Y-111914470D01*
X165081375Y-112626341D01*
X165195636Y-112744963D01*
X165240420Y-112791635D01*
X165299975Y-112853965D01*
X165369396Y-112926804D01*
X165443780Y-113005006D01*
X165518221Y-113083422D01*
X165537815Y-113104092D01*
X165765733Y-113344599D01*
X165934867Y-113175905D01*
X166104002Y-113007212D01*
X166104002Y-114599857D01*
X166104002Y-116192502D01*
X166640924Y-116192502D01*
X167177846Y-116192502D01*
X167177846Y-115834554D01*
X167177846Y-115476606D01*
X168076202Y-115476606D01*
X168974557Y-115476606D01*
X168571266Y-115881087D01*
X168167975Y-116285569D01*
X168463976Y-116639140D01*
X168759977Y-116992711D01*
X170023534Y-115729982D01*
X171287091Y-114467253D01*
X171287091Y-113547296D01*
X171287091Y-112627339D01*
X171659357Y-112627339D01*
X172031623Y-112627339D01*
X172031623Y-115476606D01*
X172031623Y-118325873D01*
X165495490Y-118325873D01*
X158959357Y-118325873D01*
X158959357Y-117753156D01*
X160906595Y-117753156D01*
X161013979Y-117753156D01*
X161121364Y-117753156D01*
X161350450Y-117753156D01*
X161457835Y-117753156D01*
X161565219Y-117753156D01*
X161794306Y-117753156D01*
X161901691Y-117753156D01*
X162009075Y-117753156D01*
X162266798Y-117753156D01*
X162374182Y-117753156D01*
X162481567Y-117753156D01*
X162710653Y-117753156D01*
X162818038Y-117753156D01*
X162925422Y-117753156D01*
X163154509Y-117753156D01*
X163261894Y-117753156D01*
X163369278Y-117753156D01*
X163369278Y-117445321D01*
X163369278Y-117137485D01*
X163261894Y-117137485D01*
X163154509Y-117137485D01*
X163154509Y-117445321D01*
X163154509Y-117753156D01*
X162925422Y-117753156D01*
X162925422Y-117445321D01*
X162925422Y-117137485D01*
X162818038Y-117137485D01*
X162710653Y-117137485D01*
X162710653Y-117445321D01*
X162710653Y-117753156D01*
X162481567Y-117753156D01*
X162481567Y-117445321D01*
X162481567Y-117137485D01*
X162374182Y-117137485D01*
X162266798Y-117137485D01*
X162266798Y-117445321D01*
X162266798Y-117753156D01*
X162009075Y-117753156D01*
X162009075Y-117445321D01*
X162009075Y-117137485D01*
X161901691Y-117137485D01*
X161794306Y-117137485D01*
X161794306Y-117445321D01*
X161794306Y-117753156D01*
X161565219Y-117753156D01*
X161565219Y-117445321D01*
X161565219Y-117137485D01*
X161457835Y-117137485D01*
X161350450Y-117137485D01*
X161350450Y-117445321D01*
X161350450Y-117753156D01*
X161121364Y-117753156D01*
X161121364Y-117445321D01*
X161121364Y-117137485D01*
X161013979Y-117137485D01*
X160906595Y-117137485D01*
X160906595Y-117445321D01*
X160906595Y-117753156D01*
X158959357Y-117753156D01*
X158959357Y-117445321D01*
X158959357Y-116378635D01*
X159532074Y-116378635D01*
X159839909Y-116378635D01*
X160147745Y-116378635D01*
X160147745Y-116271251D01*
X160147745Y-116163866D01*
X159839909Y-116163866D01*
X159532074Y-116163866D01*
X159532074Y-116271251D01*
X159532074Y-116378635D01*
X158959357Y-116378635D01*
X158959357Y-116271251D01*
X158959357Y-115934780D01*
X159532074Y-115934780D01*
X159839909Y-115934780D01*
X160147745Y-115934780D01*
X160147745Y-115827395D01*
X160147745Y-115720011D01*
X159839909Y-115720011D01*
X159532074Y-115720011D01*
X159532074Y-115827395D01*
X159532074Y-115934780D01*
X158959357Y-115934780D01*
X158959357Y-115827395D01*
X158959357Y-115490924D01*
X159532074Y-115490924D01*
X159839909Y-115490924D01*
X160147745Y-115490924D01*
X160147745Y-115383540D01*
X160147745Y-115276155D01*
X159839909Y-115276155D01*
X159532074Y-115276155D01*
X159532074Y-115383540D01*
X159532074Y-115490924D01*
X158959357Y-115490924D01*
X158959357Y-115383540D01*
X158959357Y-115147294D01*
X160469898Y-115147294D01*
X160469919Y-115388786D01*
X160470001Y-115603296D01*
X160470170Y-115792475D01*
X160470453Y-115957977D01*
X160470877Y-116101454D01*
X160471470Y-116224560D01*
X160472257Y-116328947D01*
X160473266Y-116416268D01*
X160474524Y-116488176D01*
X160476058Y-116546324D01*
X160477895Y-116592365D01*
X160480061Y-116627951D01*
X160482583Y-116654735D01*
X160485489Y-116674370D01*
X160488805Y-116688510D01*
X160492558Y-116698806D01*
X160495252Y-116704233D01*
X160542748Y-116762481D01*
X160610224Y-116800369D01*
X160638492Y-116808752D01*
X160658951Y-116810264D01*
X160706082Y-116811671D01*
X160777922Y-116812964D01*
X160872508Y-116814130D01*
X160987877Y-116815157D01*
X161122065Y-116816036D01*
X161273109Y-116816754D01*
X161439046Y-116817299D01*
X161617913Y-116817662D01*
X161807746Y-116817829D01*
X162006582Y-116817790D01*
X162166572Y-116817609D01*
X162404909Y-116817234D01*
X162616290Y-116816861D01*
X162802396Y-116816455D01*
X162964906Y-116815982D01*
X163105501Y-116815408D01*
X163225861Y-116814698D01*
X163327667Y-116813818D01*
X163412598Y-116812733D01*
X163482334Y-116811409D01*
X163538557Y-116809811D01*
X163582945Y-116807905D01*
X163617179Y-116805656D01*
X163642939Y-116803030D01*
X163661906Y-116799992D01*
X163675760Y-116796508D01*
X163686180Y-116792544D01*
X163694848Y-116788065D01*
X163698084Y-116786190D01*
X163739626Y-116753069D01*
X163774408Y-116711399D01*
X163776832Y-116707441D01*
X163781477Y-116699102D01*
X163785599Y-116689709D01*
X163789232Y-116677601D01*
X163792404Y-116661114D01*
X163795149Y-116638584D01*
X163797496Y-116608349D01*
X163799476Y-116568746D01*
X163801122Y-116518111D01*
X163802463Y-116454781D01*
X163803511Y-116378635D01*
X164128128Y-116378635D01*
X164435963Y-116378635D01*
X164743799Y-116378635D01*
X164743799Y-116271251D01*
X164743799Y-116163866D01*
X164435963Y-116163866D01*
X164128128Y-116163866D01*
X164128128Y-116271251D01*
X164128128Y-116378635D01*
X163803511Y-116378635D01*
X163803532Y-116377094D01*
X163804358Y-116283386D01*
X163804425Y-116271251D01*
X163804973Y-116171994D01*
X163805409Y-116041255D01*
X163805610Y-115934780D01*
X164128128Y-115934780D01*
X164435963Y-115934780D01*
X164743799Y-115934780D01*
X164743799Y-115827395D01*
X164743799Y-115720011D01*
X164435963Y-115720011D01*
X164128128Y-115720011D01*
X164128128Y-115827395D01*
X164128128Y-115934780D01*
X163805610Y-115934780D01*
X163805695Y-115889506D01*
X163805755Y-115827395D01*
X163805864Y-115715084D01*
X163805946Y-115516325D01*
X163805949Y-115490924D01*
X164128128Y-115490924D01*
X164435963Y-115490924D01*
X164743799Y-115490924D01*
X164743799Y-115383540D01*
X164743799Y-115276155D01*
X164435963Y-115276155D01*
X164128128Y-115276155D01*
X164128128Y-115383540D01*
X164128128Y-115490924D01*
X163805949Y-115490924D01*
X163805962Y-115383540D01*
X163805973Y-115291567D01*
X163805975Y-115147294D01*
X163805970Y-115018432D01*
X164128128Y-115018432D01*
X164435963Y-115018432D01*
X164743799Y-115018432D01*
X164743799Y-114911048D01*
X164743799Y-114803664D01*
X164435963Y-114803664D01*
X164128128Y-114803664D01*
X164128128Y-114911048D01*
X164128128Y-115018432D01*
X163805970Y-115018432D01*
X163805966Y-114911048D01*
X163805966Y-114906547D01*
X163805921Y-114692774D01*
X163805849Y-114574577D01*
X164128128Y-114574577D01*
X164435963Y-114574577D01*
X164743799Y-114574577D01*
X164743799Y-114467192D01*
X164743799Y-114359808D01*
X164435963Y-114359808D01*
X164128128Y-114359808D01*
X164128128Y-114467192D01*
X164128128Y-114574577D01*
X163805849Y-114574577D01*
X163805806Y-114504310D01*
X163805758Y-114467192D01*
X163805592Y-114339492D01*
X163805248Y-114196658D01*
X163804976Y-114130721D01*
X164128128Y-114130721D01*
X164435963Y-114130721D01*
X164743799Y-114130721D01*
X164743799Y-114023337D01*
X164743799Y-113915952D01*
X164435963Y-113915952D01*
X164128128Y-113915952D01*
X164128128Y-114023337D01*
X164128128Y-114130721D01*
X163804976Y-114130721D01*
X163804742Y-114074145D01*
X163804400Y-114023337D01*
X163804043Y-113970288D01*
X163803120Y-113883426D01*
X163801942Y-113811895D01*
X163800478Y-113754032D01*
X163798697Y-113708174D01*
X163796569Y-113672658D01*
X163794061Y-113645820D01*
X163791142Y-113625998D01*
X163787783Y-113611529D01*
X163783951Y-113600749D01*
X163779616Y-113591995D01*
X163776832Y-113587147D01*
X163743712Y-113545604D01*
X163702042Y-113510822D01*
X163698084Y-113508398D01*
X163689744Y-113503754D01*
X163680352Y-113499631D01*
X163668244Y-113495999D01*
X163651756Y-113492826D01*
X163629227Y-113490081D01*
X163598992Y-113487734D01*
X163559388Y-113485754D01*
X163508753Y-113484108D01*
X163445424Y-113482767D01*
X163367737Y-113481699D01*
X163274029Y-113480872D01*
X163162637Y-113480257D01*
X163031898Y-113479822D01*
X162880149Y-113479535D01*
X162705726Y-113479366D01*
X162506968Y-113479284D01*
X162282210Y-113479258D01*
X162137936Y-113479255D01*
X161897190Y-113479264D01*
X161683416Y-113479310D01*
X161494952Y-113479424D01*
X161330135Y-113479638D01*
X161187301Y-113479982D01*
X161064787Y-113480489D01*
X160960931Y-113481188D01*
X160874069Y-113482110D01*
X160802538Y-113483288D01*
X160744675Y-113484752D01*
X160698817Y-113486533D01*
X160663300Y-113488662D01*
X160636463Y-113491170D01*
X160616641Y-113494088D01*
X160602171Y-113497447D01*
X160591391Y-113501279D01*
X160582637Y-113505615D01*
X160577789Y-113508398D01*
X160536247Y-113541518D01*
X160501464Y-113583188D01*
X160499041Y-113587147D01*
X160494396Y-113595486D01*
X160490273Y-113604878D01*
X160486641Y-113616986D01*
X160483468Y-113633474D01*
X160480724Y-113656003D01*
X160478377Y-113686238D01*
X160476396Y-113725842D01*
X160474751Y-113776477D01*
X160473409Y-113839806D01*
X160472341Y-113917494D01*
X160471515Y-114011202D01*
X160470900Y-114122594D01*
X160470464Y-114253333D01*
X160470178Y-114405082D01*
X160470009Y-114579504D01*
X160469927Y-114778262D01*
X160469900Y-115003020D01*
X160469898Y-115147294D01*
X158959357Y-115147294D01*
X158959357Y-115018432D01*
X159532074Y-115018432D01*
X159839909Y-115018432D01*
X160147745Y-115018432D01*
X160147745Y-114911048D01*
X160147745Y-114803664D01*
X159839909Y-114803664D01*
X159532074Y-114803664D01*
X159532074Y-114911048D01*
X159532074Y-115018432D01*
X158959357Y-115018432D01*
X158959357Y-114911048D01*
X158959357Y-114574577D01*
X159532074Y-114574577D01*
X159839909Y-114574577D01*
X160147745Y-114574577D01*
X160147745Y-114467192D01*
X160147745Y-114359808D01*
X159839909Y-114359808D01*
X159532074Y-114359808D01*
X159532074Y-114467192D01*
X159532074Y-114574577D01*
X158959357Y-114574577D01*
X158959357Y-114467192D01*
X158959357Y-114130721D01*
X159532074Y-114130721D01*
X159839909Y-114130721D01*
X160147745Y-114130721D01*
X160147745Y-114023337D01*
X160147745Y-113915952D01*
X159839909Y-113915952D01*
X159532074Y-113915952D01*
X159532074Y-114023337D01*
X159532074Y-114130721D01*
X158959357Y-114130721D01*
X158959357Y-114023337D01*
X158959357Y-113157102D01*
X160906595Y-113157102D01*
X161013979Y-113157102D01*
X161121364Y-113157102D01*
X161350450Y-113157102D01*
X161457835Y-113157102D01*
X161565219Y-113157102D01*
X161794306Y-113157102D01*
X161901691Y-113157102D01*
X162009075Y-113157102D01*
X162266798Y-113157102D01*
X162374182Y-113157102D01*
X162481567Y-113157102D01*
X162710653Y-113157102D01*
X162818038Y-113157102D01*
X162925422Y-113157102D01*
X163154509Y-113157102D01*
X163261894Y-113157102D01*
X163369278Y-113157102D01*
X163369278Y-112849267D01*
X163369278Y-112541431D01*
X163261894Y-112541431D01*
X163154509Y-112541431D01*
X163154509Y-112849267D01*
X163154509Y-113157102D01*
X162925422Y-113157102D01*
X162925422Y-112849267D01*
X162925422Y-112541431D01*
X162818038Y-112541431D01*
X162710653Y-112541431D01*
X162710653Y-112849267D01*
X162710653Y-113157102D01*
X162481567Y-113157102D01*
X162481567Y-112849267D01*
X162481567Y-112541431D01*
X162374182Y-112541431D01*
X162266798Y-112541431D01*
X162266798Y-112849267D01*
X162266798Y-113157102D01*
X162009075Y-113157102D01*
X162009075Y-112849267D01*
X162009075Y-112541431D01*
X161901691Y-112541431D01*
X161794306Y-112541431D01*
X161794306Y-112849267D01*
X161794306Y-113157102D01*
X161565219Y-113157102D01*
X161565219Y-112849267D01*
X161565219Y-112541431D01*
X161457835Y-112541431D01*
X161350450Y-112541431D01*
X161350450Y-112849267D01*
X161350450Y-113157102D01*
X161121364Y-113157102D01*
X161121364Y-112849267D01*
X161121364Y-112541431D01*
X161013979Y-112541431D01*
X160906595Y-112541431D01*
X160906595Y-112849267D01*
X160906595Y-113157102D01*
X158959357Y-113157102D01*
X158959357Y-112849267D01*
X158959357Y-111045208D01*
X158959357Y-103764543D01*
X161830101Y-103764543D01*
X164700845Y-103764543D01*
X164700845Y-106041093D01*
G37*
G36*
X176040642Y-109785231D02*
G01*
X176040642Y-118325873D01*
X174580214Y-118325873D01*
X173119785Y-118325873D01*
X173119785Y-115476606D01*
X173119785Y-112627339D01*
X173721138Y-112627339D01*
X174322491Y-112627339D01*
X174322491Y-112104735D01*
X174322491Y-111582130D01*
X173721138Y-111582130D01*
X173119785Y-111582130D01*
X173119785Y-110544081D01*
X173119785Y-109506031D01*
X173535005Y-109506031D01*
X173950225Y-109506031D01*
X173950225Y-108918996D01*
X173950225Y-108331961D01*
X171687993Y-108331961D01*
X169425761Y-108331961D01*
X169425761Y-108918996D01*
X169425761Y-109506031D01*
X169812345Y-109506031D01*
X170198929Y-109506031D01*
X170198929Y-110544081D01*
X170198929Y-111582130D01*
X169755073Y-111582130D01*
X169311217Y-111582130D01*
X169311217Y-112104735D01*
X169311217Y-112627339D01*
X169755073Y-112627339D01*
X170198929Y-112627339D01*
X170198929Y-113439954D01*
X170198929Y-114252569D01*
X169672673Y-114778680D01*
X169571263Y-114879863D01*
X169475876Y-114974651D01*
X169388439Y-115061157D01*
X169310876Y-115137495D01*
X169245112Y-115201779D01*
X169193073Y-115252122D01*
X169156683Y-115286638D01*
X169137867Y-115303441D01*
X169135751Y-115304791D01*
X169134498Y-115290741D01*
X169133287Y-115249664D01*
X169132126Y-115183169D01*
X169131023Y-115092863D01*
X169129988Y-114980356D01*
X169129029Y-114847256D01*
X169128153Y-114695173D01*
X169127370Y-114525713D01*
X169126688Y-114340487D01*
X169126115Y-114141103D01*
X169125660Y-113929169D01*
X169125331Y-113706294D01*
X169125137Y-113474087D01*
X169125084Y-113271646D01*
X169125084Y-111238500D01*
X168316121Y-111238500D01*
X167507158Y-111238500D01*
X167507158Y-110379425D01*
X167507158Y-109520349D01*
X168351916Y-109520349D01*
X169196674Y-109520349D01*
X169196674Y-108918996D01*
X169196674Y-108317643D01*
X167507158Y-108317643D01*
X165817643Y-108317643D01*
X165817643Y-106041093D01*
X165817643Y-105078715D01*
X170530746Y-105078715D01*
X170530993Y-105308849D01*
X170531503Y-105512123D01*
X170532279Y-105688981D01*
X170533323Y-105839866D01*
X170534638Y-105965222D01*
X170536226Y-106065492D01*
X170538090Y-106141121D01*
X170540233Y-106192552D01*
X170542656Y-106220229D01*
X170543032Y-106222303D01*
X170576997Y-106319322D01*
X170633880Y-106401083D01*
X170710628Y-106464342D01*
X170804187Y-106505851D01*
X170811873Y-106508017D01*
X170827279Y-106510704D01*
X170853466Y-106513114D01*
X170891687Y-106515256D01*
X170943195Y-106517139D01*
X171009244Y-106518774D01*
X171091086Y-106520171D01*
X171189975Y-106521338D01*
X171307163Y-106522286D01*
X171443904Y-106523024D01*
X171601451Y-106523562D01*
X171781056Y-106523909D01*
X171983973Y-106524076D01*
X172211456Y-106524071D01*
X172464756Y-106523905D01*
X172745128Y-106523586D01*
X172819109Y-106523485D01*
X173093727Y-106523093D01*
X173341177Y-106522716D01*
X173562926Y-106522330D01*
X173760444Y-106521912D01*
X173935196Y-106521437D01*
X174088652Y-106520882D01*
X174222278Y-106520223D01*
X174337543Y-106519435D01*
X174435914Y-106518496D01*
X174518860Y-106517380D01*
X174587848Y-106516065D01*
X174644345Y-106514526D01*
X174689820Y-106512740D01*
X174725741Y-106510682D01*
X174753574Y-106508328D01*
X174774789Y-106505656D01*
X174790852Y-106502640D01*
X174803231Y-106499257D01*
X174813395Y-106495483D01*
X174822811Y-106491294D01*
X174823779Y-106490846D01*
X174909258Y-106436227D01*
X174979138Y-106361162D01*
X175015648Y-106298976D01*
X175019851Y-106289645D01*
X175023640Y-106279760D01*
X175027037Y-106267867D01*
X175030063Y-106252508D01*
X175032740Y-106232228D01*
X175035089Y-106205570D01*
X175037132Y-106171077D01*
X175038889Y-106127295D01*
X175040384Y-106072766D01*
X175041636Y-106006034D01*
X175042667Y-105925643D01*
X175043499Y-105830137D01*
X175044152Y-105718059D01*
X175044650Y-105587952D01*
X175045012Y-105438362D01*
X175045261Y-105267831D01*
X175045417Y-105074903D01*
X175045502Y-104858122D01*
X175045538Y-104616032D01*
X175045546Y-104347176D01*
X175045546Y-104265670D01*
X175045542Y-103988941D01*
X175045517Y-103739391D01*
X175045447Y-103515564D01*
X175045314Y-103316005D01*
X175045093Y-103139256D01*
X175044766Y-102983862D01*
X175044309Y-102848366D01*
X175043702Y-102731311D01*
X175042922Y-102631243D01*
X175041950Y-102546704D01*
X175040763Y-102476237D01*
X175039340Y-102418388D01*
X175037659Y-102371699D01*
X175035700Y-102334715D01*
X175033440Y-102305978D01*
X175030858Y-102284033D01*
X175027934Y-102267424D01*
X175024644Y-102254693D01*
X175020969Y-102244386D01*
X175016886Y-102235045D01*
X175015648Y-102232364D01*
X174961030Y-102146885D01*
X174885965Y-102077005D01*
X174823779Y-102040495D01*
X174814447Y-102036293D01*
X174804563Y-102032504D01*
X174792669Y-102029107D01*
X174777310Y-102026081D01*
X174757030Y-102023404D01*
X174730372Y-102021054D01*
X174695880Y-102019012D01*
X174652098Y-102017254D01*
X174597569Y-102015760D01*
X174530837Y-102014508D01*
X174450446Y-102013477D01*
X174354939Y-102012645D01*
X174242861Y-102011991D01*
X174112755Y-102011494D01*
X173963165Y-102011131D01*
X173792634Y-102010883D01*
X173599706Y-102010726D01*
X173382925Y-102010641D01*
X173140835Y-102010605D01*
X172871979Y-102010597D01*
X172790473Y-102010597D01*
X172513744Y-102010601D01*
X172264194Y-102010627D01*
X172040367Y-102010696D01*
X171840808Y-102010830D01*
X171664059Y-102011050D01*
X171508664Y-102011378D01*
X171373168Y-102011835D01*
X171256114Y-102012442D01*
X171156045Y-102013221D01*
X171071506Y-102014193D01*
X171001040Y-102015380D01*
X170943191Y-102016803D01*
X170896502Y-102018484D01*
X170859517Y-102020444D01*
X170830781Y-102022703D01*
X170808836Y-102025285D01*
X170792226Y-102028210D01*
X170779496Y-102031499D01*
X170769189Y-102035174D01*
X170759848Y-102039257D01*
X170757167Y-102040495D01*
X170671688Y-102095113D01*
X170601808Y-102170178D01*
X170565298Y-102232364D01*
X170561050Y-102241830D01*
X170557222Y-102251915D01*
X170553789Y-102264093D01*
X170550725Y-102279837D01*
X170548005Y-102300622D01*
X170545605Y-102327921D01*
X170543499Y-102363207D01*
X170541663Y-102407954D01*
X170540072Y-102463635D01*
X170538700Y-102531725D01*
X170537523Y-102613697D01*
X170536516Y-102711025D01*
X170535653Y-102825182D01*
X170534909Y-102957641D01*
X170534261Y-103109877D01*
X170533682Y-103283363D01*
X170533148Y-103479573D01*
X170532634Y-103699980D01*
X170532114Y-103946058D01*
X170531564Y-104219280D01*
X170531557Y-104222717D01*
X170531031Y-104536093D01*
X170530759Y-104821278D01*
X170530746Y-105078715D01*
X165817643Y-105078715D01*
X165817643Y-103764543D01*
X167192164Y-103764543D01*
X168566685Y-103764543D01*
X168566685Y-103198985D01*
X168566685Y-102633427D01*
X163763021Y-102633427D01*
X158959357Y-102633427D01*
X158959357Y-101939007D01*
X158959357Y-101244588D01*
X167500000Y-101244588D01*
X176040642Y-101244588D01*
X176040642Y-109785231D01*
G37*
G36*
X168079876Y-113371871D02*
G01*
X168079876Y-114517305D01*
X167636020Y-114517305D01*
X167192164Y-114517305D01*
X167192164Y-113371871D01*
X167192164Y-112226437D01*
X167636020Y-112226437D01*
X168079876Y-112226437D01*
X168079876Y-113371871D01*
G37*
G36*
X172017305Y-110544081D02*
G01*
X172017305Y-111567812D01*
X171661743Y-111567812D01*
X171563594Y-111567443D01*
X171475059Y-111566405D01*
X171400123Y-111564801D01*
X171342771Y-111562737D01*
X171306990Y-111560316D01*
X171296636Y-111558267D01*
X171295057Y-111542721D01*
X171293560Y-111500846D01*
X171292166Y-111434947D01*
X171290897Y-111347332D01*
X171289773Y-111240306D01*
X171288817Y-111116175D01*
X171288050Y-110977246D01*
X171287493Y-110825826D01*
X171287169Y-110664219D01*
X171287091Y-110534535D01*
X171287091Y-109520349D01*
X171652198Y-109520349D01*
X172017305Y-109520349D01*
X172017305Y-110544081D01*
G37*
G36*
X162270207Y-114460084D02*
G01*
X162377027Y-114460358D01*
X162461582Y-114461039D01*
X162527058Y-114462311D01*
X162576640Y-114464357D01*
X162613513Y-114467361D01*
X162640864Y-114471507D01*
X162661877Y-114476977D01*
X162679739Y-114483957D01*
X162696881Y-114492249D01*
X162751557Y-114529607D01*
X162789828Y-114582248D01*
X162792981Y-114588349D01*
X162801582Y-114606182D01*
X162808498Y-114624108D01*
X162813912Y-114645312D01*
X162818009Y-114672981D01*
X162820972Y-114710299D01*
X162822983Y-114760452D01*
X162824228Y-114826626D01*
X162824890Y-114912006D01*
X162825151Y-115019778D01*
X162825197Y-115147294D01*
X162825146Y-115279564D01*
X162824872Y-115386384D01*
X162824191Y-115470939D01*
X162822919Y-115536415D01*
X162820873Y-115585997D01*
X162817869Y-115622871D01*
X162813723Y-115650221D01*
X162808253Y-115671235D01*
X162801274Y-115689096D01*
X162792981Y-115706239D01*
X162755623Y-115760914D01*
X162702982Y-115799185D01*
X162696881Y-115802339D01*
X162679048Y-115810940D01*
X162661123Y-115817855D01*
X162639918Y-115823270D01*
X162612249Y-115827366D01*
X162574931Y-115830329D01*
X162524778Y-115832341D01*
X162458604Y-115833586D01*
X162373224Y-115834247D01*
X162265452Y-115834509D01*
X162137936Y-115834554D01*
X162005666Y-115834504D01*
X161898846Y-115834230D01*
X161814291Y-115833548D01*
X161748815Y-115832277D01*
X161699233Y-115830230D01*
X161662360Y-115827226D01*
X161635009Y-115823081D01*
X161613996Y-115817610D01*
X161596134Y-115810631D01*
X161578992Y-115802339D01*
X161524316Y-115764981D01*
X161486045Y-115712340D01*
X161482891Y-115706239D01*
X161474291Y-115688406D01*
X161467375Y-115670480D01*
X161461960Y-115649275D01*
X161457864Y-115621607D01*
X161454901Y-115584289D01*
X161452889Y-115534135D01*
X161451645Y-115467961D01*
X161450983Y-115382581D01*
X161450721Y-115274810D01*
X161450676Y-115147294D01*
X161450727Y-115015023D01*
X161451001Y-114908203D01*
X161451682Y-114823648D01*
X161452954Y-114758172D01*
X161455000Y-114708590D01*
X161458004Y-114671717D01*
X161462149Y-114644366D01*
X161467620Y-114623353D01*
X161474599Y-114605492D01*
X161482891Y-114588349D01*
X161520249Y-114533674D01*
X161572891Y-114495402D01*
X161578992Y-114492249D01*
X161596824Y-114483648D01*
X161614750Y-114476732D01*
X161635955Y-114471318D01*
X161663623Y-114467221D01*
X161700942Y-114464259D01*
X161751095Y-114462247D01*
X161817269Y-114461002D01*
X161902649Y-114460340D01*
X162010421Y-114460079D01*
X162137936Y-114460033D01*
X162270207Y-114460084D01*
G37*
G36*
X174687598Y-104265670D02*
G01*
X174687598Y-106162795D01*
X172793623Y-106166428D01*
X172512477Y-106166918D01*
X172258734Y-106167250D01*
X172031165Y-106167416D01*
X171828537Y-106167405D01*
X171649620Y-106167208D01*
X171493182Y-106166816D01*
X171357992Y-106166220D01*
X171242819Y-106165411D01*
X171146432Y-106164378D01*
X171067599Y-106163114D01*
X171005089Y-106161608D01*
X170957672Y-106159852D01*
X170924115Y-106157836D01*
X170903187Y-106155550D01*
X170893658Y-106152986D01*
X170892817Y-106152110D01*
X170892010Y-106135849D01*
X170891285Y-106092645D01*
X170890645Y-106024191D01*
X170890093Y-105932181D01*
X170889631Y-105818306D01*
X170889262Y-105684260D01*
X170888990Y-105531736D01*
X170888816Y-105362426D01*
X170888745Y-105178024D01*
X170888777Y-104980223D01*
X170888917Y-104770715D01*
X170889003Y-104695208D01*
X172790473Y-104695208D01*
X173456257Y-104695208D01*
X174122040Y-104695208D01*
X174122040Y-104487598D01*
X174122040Y-104279988D01*
X173456257Y-104279988D01*
X172790473Y-104279988D01*
X172790473Y-104487598D01*
X172790473Y-104695208D01*
X170889003Y-104695208D01*
X170889167Y-104551193D01*
X170889530Y-104323351D01*
X170889666Y-104251352D01*
X170891738Y-103191778D01*
X171351736Y-103191778D01*
X171645015Y-103485320D01*
X171938295Y-103778861D01*
X171648510Y-104068904D01*
X171358725Y-104358948D01*
X171512565Y-104512787D01*
X171666404Y-104666627D01*
X171845433Y-104487598D01*
X172110287Y-104222744D01*
X172554170Y-103778861D01*
X172106791Y-103331482D01*
X171659412Y-102884102D01*
X171505574Y-103037940D01*
X171351736Y-103191778D01*
X170891738Y-103191778D01*
X170893348Y-102368545D01*
X172790473Y-102368545D01*
X174687598Y-102368545D01*
X174687598Y-104265670D01*
G37*
D13*
%TO.C,SW3*%
X168832500Y-96525000D02*
X171292500Y-96525000D01*
X168832500Y-99725000D02*
X171292500Y-99725000D01*
D14*
X166944500Y-96995000D02*
G75*
G02*
X166744500Y-96995000I-100000J0D01*
G01*
X166744500Y-96995000D02*
G75*
G02*
X166944500Y-96995000I100000J0D01*
G01*
D15*
%TO.C,C5*%
X180327500Y-92959420D02*
X180327500Y-93240580D01*
X181347500Y-92959420D02*
X181347500Y-93240580D01*
%TO.C,D48*%
X99150000Y-118660000D02*
X100180000Y-118660000D01*
X99150000Y-119600000D02*
X99150000Y-118660000D01*
%TO.C,D29*%
X110400000Y-112660000D02*
X111430000Y-112660000D01*
X110400000Y-113600000D02*
X110400000Y-112660000D01*
%TO.C,D20*%
X113600000Y-110900000D02*
X113600000Y-111840000D01*
X113600000Y-111840000D02*
X112570000Y-111840000D01*
%TO.C,D31*%
X102900000Y-112660000D02*
X103930000Y-112660000D01*
X102900000Y-113600000D02*
X102900000Y-112660000D01*
%TO.C,D10*%
X121650000Y-106660000D02*
X122680000Y-106660000D01*
X121650000Y-107600000D02*
X121650000Y-106660000D01*
%TO.C,D42*%
X121650000Y-118660000D02*
X122680000Y-118660000D01*
X121650000Y-119600000D02*
X121650000Y-118660000D01*
%TO.C,C3*%
X173427500Y-97959420D02*
X173427500Y-98240580D01*
X174447500Y-97959420D02*
X174447500Y-98240580D01*
%TO.C,D7*%
X124850000Y-104900000D02*
X124850000Y-105840000D01*
X124850000Y-105840000D02*
X123820000Y-105840000D01*
%TO.C,D24*%
X128600000Y-110900000D02*
X128600000Y-111840000D01*
X128600000Y-111840000D02*
X127570000Y-111840000D01*
D13*
%TO.C,SW5*%
X175832500Y-91525000D02*
X178292500Y-91525000D01*
X175832500Y-94725000D02*
X178292500Y-94725000D01*
D14*
X173944500Y-91995000D02*
G75*
G02*
X173744500Y-91995000I-100000J0D01*
G01*
X173744500Y-91995000D02*
G75*
G02*
X173944500Y-91995000I100000J0D01*
G01*
D15*
%TO.C,D30*%
X106650000Y-112660000D02*
X107680000Y-112660000D01*
X106650000Y-113600000D02*
X106650000Y-112660000D01*
%TO.C,D45*%
X110400000Y-118660000D02*
X111430000Y-118660000D01*
X110400000Y-119600000D02*
X110400000Y-118660000D01*
%TO.C,C9*%
X165990000Y-72859420D02*
X165990000Y-73140580D01*
X167010000Y-72859420D02*
X167010000Y-73140580D01*
%TO.C,J1*%
X180240000Y-69280000D02*
X178540000Y-69280000D01*
X180240000Y-78620000D02*
X178540000Y-78620000D01*
%TO.C,D6*%
X121100000Y-104900000D02*
X121100000Y-105840000D01*
X121100000Y-105840000D02*
X120070000Y-105840000D01*
%TO.C,D34*%
X106100000Y-116900000D02*
X106100000Y-117840000D01*
X106100000Y-117840000D02*
X105070000Y-117840000D01*
%TO.C,C6*%
X96559420Y-88815000D02*
X96840580Y-88815000D01*
X96559420Y-89835000D02*
X96840580Y-89835000D01*
%TO.C,D23*%
X124850000Y-110900000D02*
X124850000Y-111840000D01*
X124850000Y-111840000D02*
X123820000Y-111840000D01*
%TO.C,D15*%
X102900000Y-106660000D02*
X103930000Y-106660000D01*
X102900000Y-107600000D02*
X102900000Y-106660000D01*
%TO.C,D9*%
X125400000Y-106660000D02*
X126430000Y-106660000D01*
X125400000Y-107600000D02*
X125400000Y-106660000D01*
%TO.C,R2*%
X91387742Y-67787500D02*
X91862258Y-67787500D01*
X91387742Y-68832500D02*
X91862258Y-68832500D01*
D13*
%TO.C,SW1*%
X168832500Y-86625000D02*
X171292500Y-86625000D01*
X168832500Y-89825000D02*
X171292500Y-89825000D01*
D14*
X166944500Y-87095000D02*
G75*
G02*
X166744500Y-87095000I-100000J0D01*
G01*
X166744500Y-87095000D02*
G75*
G02*
X166944500Y-87095000I100000J0D01*
G01*
D15*
%TO.C,D38*%
X121100000Y-116900000D02*
X121100000Y-117840000D01*
X121100000Y-117840000D02*
X120070000Y-117840000D01*
%TO.C,C4*%
X103840580Y-88590000D02*
X103559420Y-88590000D01*
X103840580Y-89610000D02*
X103559420Y-89610000D01*
%TO.C,D19*%
X109850000Y-110900000D02*
X109850000Y-111840000D01*
X109850000Y-111840000D02*
X108820000Y-111840000D01*
D13*
%TO.C,SW6*%
X95100000Y-94330000D02*
X95100000Y-91870000D01*
X98300000Y-94330000D02*
X98300000Y-91870000D01*
D14*
X95670000Y-96318000D02*
G75*
G02*
X95470000Y-96318000I-100000J0D01*
G01*
X95470000Y-96318000D02*
G75*
G02*
X95670000Y-96318000I100000J0D01*
G01*
D15*
%TO.C,D32*%
X99150000Y-112660000D02*
X100180000Y-112660000D01*
X99150000Y-113600000D02*
X99150000Y-112660000D01*
%TO.C,D5*%
X117350000Y-104900000D02*
X117350000Y-105840000D01*
X117350000Y-105840000D02*
X116320000Y-105840000D01*
%TO.C,D43*%
X117900000Y-118660000D02*
X118930000Y-118660000D01*
X117900000Y-119600000D02*
X117900000Y-118660000D01*
%TO.C,D27*%
X117900000Y-112660000D02*
X118930000Y-112660000D01*
X117900000Y-113600000D02*
X117900000Y-112660000D01*
D14*
%TO.C,IC1*%
X169475000Y-71222000D02*
X170025000Y-71222000D01*
X169475000Y-74118000D02*
X169475000Y-71222000D01*
X170025000Y-71222000D02*
X170025000Y-74118000D01*
X170025000Y-74118000D02*
X169475000Y-74118000D01*
X171625000Y-74184000D02*
X170375000Y-74184000D01*
D15*
%TO.C,D14*%
X106650000Y-106660000D02*
X107680000Y-106660000D01*
X106650000Y-107600000D02*
X106650000Y-106660000D01*
%TO.C,C1*%
X173627500Y-88059420D02*
X173627500Y-88340580D01*
X174647500Y-88059420D02*
X174647500Y-88340580D01*
D13*
%TO.C,SW4*%
X102100000Y-91870000D02*
X102100000Y-94330000D01*
X105300000Y-91870000D02*
X105300000Y-94330000D01*
D14*
X104930000Y-89882000D02*
G75*
G02*
X104730000Y-89882000I-100000J0D01*
G01*
X104730000Y-89882000D02*
G75*
G02*
X104930000Y-89882000I100000J0D01*
G01*
D15*
%TO.C,D47*%
X102900000Y-118660000D02*
X103930000Y-118660000D01*
X102900000Y-119600000D02*
X102900000Y-118660000D01*
%TO.C,D46*%
X106650000Y-118660000D02*
X107680000Y-118660000D01*
X106650000Y-119600000D02*
X106650000Y-118660000D01*
%TO.C,D1*%
X102350000Y-104900000D02*
X102350000Y-105840000D01*
X102350000Y-105840000D02*
X101320000Y-105840000D01*
%TO.C,D18*%
X106100000Y-110900000D02*
X106100000Y-111840000D01*
X106100000Y-111840000D02*
X105070000Y-111840000D01*
D13*
%TO.C,SW2*%
X161832500Y-91525000D02*
X164292500Y-91525000D01*
X161832500Y-94725000D02*
X164292500Y-94725000D01*
D14*
X159944500Y-91995000D02*
G75*
G02*
X159744500Y-91995000I-100000J0D01*
G01*
X159744500Y-91995000D02*
G75*
G02*
X159944500Y-91995000I100000J0D01*
G01*
D15*
%TO.C,C8*%
X173490000Y-70914420D02*
X173490000Y-71195580D01*
X174510000Y-70914420D02*
X174510000Y-71195580D01*
%TO.C,C2*%
X166527500Y-92959420D02*
X166527500Y-93240580D01*
X167547500Y-92959420D02*
X167547500Y-93240580D01*
%TO.C,D16*%
X99150000Y-106660000D02*
X100180000Y-106660000D01*
X99150000Y-107600000D02*
X99150000Y-106660000D01*
%TO.C,D4*%
X113600000Y-104900000D02*
X113600000Y-105840000D01*
X113600000Y-105840000D02*
X112570000Y-105840000D01*
%TO.C,D8*%
X128600000Y-104900000D02*
X128600000Y-105840000D01*
X128600000Y-105840000D02*
X127570000Y-105840000D01*
%TO.C,D40*%
X128600000Y-116900000D02*
X128600000Y-117840000D01*
X128600000Y-117840000D02*
X127570000Y-117840000D01*
%TO.C,D22*%
X121100000Y-110900000D02*
X121100000Y-111840000D01*
X121100000Y-111840000D02*
X120070000Y-111840000D01*
%TO.C,C7*%
X93390580Y-69390000D02*
X93109420Y-69390000D01*
X93390580Y-70410000D02*
X93109420Y-70410000D01*
%TO.C,D28*%
X114150000Y-112660000D02*
X115180000Y-112660000D01*
X114150000Y-113600000D02*
X114150000Y-112660000D01*
%TO.C,D25*%
X125400000Y-112660000D02*
X126430000Y-112660000D01*
X125400000Y-113600000D02*
X125400000Y-112660000D01*
%TO.C,D26*%
X121650000Y-112660000D02*
X122680000Y-112660000D01*
X121650000Y-113600000D02*
X121650000Y-112660000D01*
%TO.C,D13*%
X110400000Y-106660000D02*
X111430000Y-106660000D01*
X110400000Y-107600000D02*
X110400000Y-106660000D01*
%TO.C,D33*%
X102350000Y-116900000D02*
X102350000Y-117840000D01*
X102350000Y-117840000D02*
X101320000Y-117840000D01*
%TO.C,D36*%
X113600000Y-116900000D02*
X113600000Y-117840000D01*
X113600000Y-117840000D02*
X112570000Y-117840000D01*
%TO.C,D21*%
X117350000Y-110900000D02*
X117350000Y-111840000D01*
X117350000Y-111840000D02*
X116320000Y-111840000D01*
%TO.C,D11*%
X117900000Y-106660000D02*
X118930000Y-106660000D01*
X117900000Y-107600000D02*
X117900000Y-106660000D01*
%TO.C,D37*%
X117350000Y-116900000D02*
X117350000Y-117840000D01*
X117350000Y-117840000D02*
X116320000Y-117840000D01*
%TO.C,D41*%
X125400000Y-118660000D02*
X126430000Y-118660000D01*
X125400000Y-119600000D02*
X125400000Y-118660000D01*
%TO.C,D17*%
X102365000Y-110850000D02*
X102365000Y-111790000D01*
X102365000Y-111790000D02*
X101335000Y-111790000D01*
%TO.C,D2*%
X106100000Y-104900000D02*
X106100000Y-105840000D01*
X106100000Y-105840000D02*
X105070000Y-105840000D01*
%TO.C,D12*%
X114150000Y-106660000D02*
X115180000Y-106660000D01*
X114150000Y-107600000D02*
X114150000Y-106660000D01*
%TO.C,D35*%
X109850000Y-116900000D02*
X109850000Y-117840000D01*
X109850000Y-117840000D02*
X108820000Y-117840000D01*
%TO.C,C10*%
X179509420Y-80490000D02*
X179790580Y-80490000D01*
X179509420Y-81510000D02*
X179790580Y-81510000D01*
%TO.C,D39*%
X124850000Y-116900000D02*
X124850000Y-117840000D01*
X124850000Y-117840000D02*
X123820000Y-117840000D01*
%TO.C,D3*%
X109850000Y-104900000D02*
X109850000Y-105840000D01*
X109850000Y-105840000D02*
X108820000Y-105840000D01*
%TO.C,D44*%
X114150000Y-118660000D02*
X115180000Y-118660000D01*
X114150000Y-119600000D02*
X114150000Y-118660000D01*
%TD*%
M02*
