M48
; DRILL file {KiCad 9.0.2} date 2025-08-16T11:40:49+0900
; FORMAT={-:-/ absolute / metric / decimal}
; #@! TF.CreationDate,2025-08-16T11:40:49+09:00
; #@! TF.GenerationSoftware,Kicad,Pcbnew,9.0.2
; #@! TF.FileFunction,Plated,1,2,PTH
FMAT,2
METRIC
; #@! TA.AperFunction,Plated,PTH,ComponentDrill
T1C0.200
; #@! TA.AperFunction,Plated,PTH,ViaDrill
T2C0.300
; #@! TA.AperFunction,Plated,PTH,ComponentDrill
T3C0.600
; #@! TA.AperFunction,Plated,PTH,ComponentDrill
T4C1.000
%
G90
G05
T1
X104.86Y-81.74
X104.86Y-83.14
X105.56Y-81.04
X105.56Y-82.44
X105.56Y-83.84
X106.26Y-81.74
X106.26Y-83.14
X106.96Y-81.04
X106.96Y-82.44
X106.96Y-83.84
X107.34Y-157.86
X107.34Y-159.26
X107.66Y-81.74
X107.66Y-83.14
X108.04Y-157.16
X108.04Y-158.56
X108.04Y-159.96
X108.74Y-157.86
X108.74Y-159.26
X109.44Y-157.16
X109.44Y-158.56
X109.44Y-159.96
X110.14Y-157.86
X110.14Y-159.26
X140.86Y-81.74
X140.86Y-83.14
X141.56Y-81.04
X141.56Y-82.44
X141.56Y-83.84
X142.26Y-81.74
X142.26Y-83.14
X142.96Y-81.04
X142.96Y-82.44
X142.96Y-83.84
X143.34Y-157.86
X143.34Y-159.26
X143.66Y-81.74
X143.66Y-83.14
X144.04Y-157.16
X144.04Y-158.56
X144.04Y-159.96
X144.74Y-157.86
X144.74Y-159.26
X145.44Y-157.16
X145.44Y-158.56
X145.44Y-159.96
X146.14Y-157.86
X146.14Y-159.26
T2
X92.0Y-75.0
X92.0Y-166.0
X94.23Y-94.413
X94.97Y-79.9
X95.0Y-113.75
X95.0Y-118.0
X95.0Y-123.0
X95.795Y-91.015
X96.0Y-86.0
X96.0Y-105.0
X97.075Y-78.59
X97.16Y-79.24
X98.0Y-98.0
X98.0Y-132.0
X98.0Y-138.0
X98.0Y-144.0
X98.49Y-163.74
X98.49Y-165.01
X98.49Y-166.28
X99.01Y-74.72
X99.01Y-84.88
X99.01Y-86.15
X99.01Y-87.42
X99.01Y-89.96
X99.01Y-91.23
X99.824Y-149.636
X100.06Y-98.525
X100.12Y-103.77
X100.405Y-158.8
X100.71Y-160.04
X100.88Y-100.05
X100.905Y-157.78
X101.0Y-113.75
X101.0Y-118.0
X101.0Y-123.0
X101.97Y-88.68
X101.97Y-101.27
X102.52Y-150.19
X102.91Y-103.77
X103.0Y-75.0
X103.0Y-81.0
X103.0Y-87.0
X103.0Y-154.0
X103.0Y-160.0
X103.0Y-166.0
X103.075Y-142.075
X103.655Y-88.785
X103.82Y-150.69
X104.0Y-132.0
X104.0Y-138.0
X104.0Y-144.0
X104.04Y-128.08
X104.56Y-112.92
X104.84Y-128.08
X104.975Y-88.285
X105.087Y-151.215
X105.09Y-149.69
X105.36Y-111.36
X105.36Y-112.92
X105.5Y-125.965
X106.0Y-102.0
X106.0Y-110.75
X106.385Y-151.715
X106.5Y-115.035
X108.5Y-125.965
X108.615Y-89.285
X109.0Y-130.25
X109.0Y-139.0
X109.5Y-115.035
X109.64Y-128.08
X109.64Y-129.64
X109.91Y-91.31
X109.913Y-89.785
X110.025Y-152.715
X110.16Y-112.92
X110.44Y-128.08
X110.96Y-112.92
X111.0Y-97.0
X111.0Y-103.0
X111.0Y-109.0
X111.18Y-90.31
X111.345Y-152.215
X111.925Y-98.925
X112.0Y-75.0
X112.0Y-81.0
X112.0Y-87.0
X112.0Y-154.0
X112.0Y-160.0
X112.0Y-166.0
X112.09Y-137.23
X112.48Y-90.81
X113.03Y-139.73
X113.03Y-152.32
X114.0Y-118.0
X114.0Y-123.0
X114.0Y-127.25
X114.095Y-83.22
X114.12Y-140.95
X114.29Y-80.96
X114.595Y-82.2
X114.88Y-137.23
X114.94Y-142.475
X115.176Y-91.364
X115.99Y-149.77
X115.99Y-151.04
X115.99Y-153.58
X115.99Y-154.85
X115.99Y-156.12
X115.99Y-166.28
X116.51Y-74.72
X116.51Y-75.99
X116.51Y-77.26
X117.0Y-97.0
X117.0Y-103.0
X117.0Y-109.0
X117.0Y-143.0
X117.84Y-161.76
X117.925Y-162.41
X119.0Y-136.0
X119.0Y-155.0
X119.205Y-149.985
X120.0Y-118.0
X120.0Y-123.0
X120.0Y-127.25
X120.03Y-161.1
X120.77Y-146.587
X123.0Y-75.0
X123.0Y-166.0
X128.0Y-75.0
X128.0Y-166.0
X130.23Y-94.413
X130.97Y-79.9
X131.0Y-113.75
X131.0Y-118.0
X131.0Y-123.0
X131.795Y-91.015
X132.0Y-86.0
X132.0Y-105.0
X133.075Y-78.59
X133.16Y-79.24
X134.0Y-98.0
X134.0Y-132.0
X134.0Y-138.0
X134.0Y-144.0
X134.49Y-163.74
X134.49Y-165.01
X134.49Y-166.28
X135.01Y-74.72
X135.01Y-84.88
X135.01Y-86.15
X135.01Y-87.42
X135.01Y-89.96
X135.01Y-91.23
X135.824Y-149.636
X136.06Y-98.525
X136.12Y-103.77
X136.405Y-158.8
X136.71Y-160.04
X136.88Y-100.05
X136.905Y-157.78
X137.0Y-113.75
X137.0Y-118.0
X137.0Y-123.0
X137.97Y-88.68
X137.97Y-101.27
X138.52Y-150.19
X138.91Y-103.77
X139.0Y-75.0
X139.0Y-81.0
X139.0Y-87.0
X139.0Y-154.0
X139.0Y-160.0
X139.0Y-166.0
X139.075Y-142.075
X139.655Y-88.785
X139.82Y-150.69
X140.0Y-132.0
X140.0Y-138.0
X140.0Y-144.0
X140.04Y-128.08
X140.56Y-112.92
X140.84Y-128.08
X140.975Y-88.285
X141.087Y-151.215
X141.09Y-149.69
X141.36Y-111.36
X141.36Y-112.92
X141.5Y-125.965
X142.0Y-102.0
X142.0Y-110.75
X142.385Y-151.715
X142.5Y-115.035
X144.5Y-125.965
X144.615Y-89.285
X145.0Y-130.25
X145.0Y-139.0
X145.5Y-115.035
X145.64Y-128.08
X145.64Y-129.64
X145.91Y-91.31
X145.913Y-89.785
X146.025Y-152.715
X146.16Y-112.92
X146.44Y-128.08
X146.96Y-112.92
X147.0Y-97.0
X147.0Y-103.0
X147.0Y-109.0
X147.18Y-90.31
X147.345Y-152.215
X147.925Y-98.925
X148.0Y-75.0
X148.0Y-81.0
X148.0Y-87.0
X148.0Y-154.0
X148.0Y-160.0
X148.0Y-166.0
X148.09Y-137.23
X148.48Y-90.81
X149.03Y-139.73
X149.03Y-152.32
X150.0Y-118.0
X150.0Y-123.0
X150.0Y-127.25
X150.095Y-83.22
X150.12Y-140.95
X150.29Y-80.96
X150.595Y-82.2
X150.88Y-137.23
X150.94Y-142.475
X151.176Y-91.364
X151.99Y-149.77
X151.99Y-151.04
X151.99Y-153.58
X151.99Y-154.85
X151.99Y-156.12
X151.99Y-166.28
X152.51Y-74.72
X152.51Y-75.99
X152.51Y-77.26
X153.0Y-97.0
X153.0Y-103.0
X153.0Y-109.0
X153.0Y-143.0
X153.84Y-161.76
X153.925Y-162.41
X155.0Y-136.0
X155.0Y-155.0
X155.205Y-149.985
X156.0Y-118.0
X156.0Y-123.0
X156.0Y-127.25
X156.03Y-161.1
X156.77Y-146.587
X159.0Y-75.0
X159.0Y-166.0
T4
X92.22Y-123.0
X92.22Y-125.54
X92.22Y-128.08
X92.22Y-130.62
X92.22Y-133.16
X92.22Y-135.7
X92.22Y-138.24
X92.22Y-140.78
X92.22Y-143.32
X92.22Y-145.86
X92.22Y-148.4
X92.22Y-150.94
X92.22Y-153.48
X92.22Y-156.02
X92.22Y-158.56
X92.22Y-161.1
X92.22Y-163.64
X92.3Y-77.36
X92.3Y-79.9
X92.3Y-82.44
X92.3Y-84.98
X92.3Y-87.52
X92.3Y-90.06
X92.3Y-92.6
X92.3Y-95.14
X92.3Y-97.68
X92.3Y-100.22
X92.3Y-102.76
X92.3Y-105.3
X92.3Y-107.84
X92.3Y-110.38
X92.3Y-112.92
X92.3Y-115.46
X92.3Y-118.0
X101.97Y-97.69
X104.51Y-97.69
X107.05Y-97.69
X107.95Y-143.31
X110.49Y-143.31
X113.03Y-143.31
X122.7Y-123.0
X122.7Y-125.54
X122.7Y-128.08
X122.7Y-130.62
X122.7Y-133.16
X122.7Y-135.7
X122.7Y-138.24
X122.7Y-140.78
X122.7Y-143.32
X122.7Y-145.86
X122.7Y-148.4
X122.7Y-150.94
X122.7Y-153.48
X122.7Y-156.02
X122.7Y-158.56
X122.7Y-161.1
X122.7Y-163.64
X122.78Y-77.36
X122.78Y-79.9
X122.78Y-82.44
X122.78Y-84.98
X122.78Y-87.52
X122.78Y-90.06
X122.78Y-92.6
X122.78Y-95.14
X122.78Y-97.68
X122.78Y-100.22
X122.78Y-102.76
X122.78Y-105.3
X122.78Y-107.84
X122.78Y-110.38
X122.78Y-112.92
X122.78Y-115.46
X122.78Y-118.0
X128.22Y-123.0
X128.22Y-125.54
X128.22Y-128.08
X128.22Y-130.62
X128.22Y-133.16
X128.22Y-135.7
X128.22Y-138.24
X128.22Y-140.78
X128.22Y-143.32
X128.22Y-145.86
X128.22Y-148.4
X128.22Y-150.94
X128.22Y-153.48
X128.22Y-156.02
X128.22Y-158.56
X128.22Y-161.1
X128.22Y-163.64
X128.3Y-77.36
X128.3Y-79.9
X128.3Y-82.44
X128.3Y-84.98
X128.3Y-87.52
X128.3Y-90.06
X128.3Y-92.6
X128.3Y-95.14
X128.3Y-97.68
X128.3Y-100.22
X128.3Y-102.76
X128.3Y-105.3
X128.3Y-107.84
X128.3Y-110.38
X128.3Y-112.92
X128.3Y-115.46
X128.3Y-118.0
X137.97Y-97.69
X140.51Y-97.69
X143.05Y-97.69
X143.95Y-143.31
X146.49Y-143.31
X149.03Y-143.31
X158.7Y-123.0
X158.7Y-125.54
X158.7Y-128.08
X158.7Y-130.62
X158.7Y-133.16
X158.7Y-135.7
X158.7Y-138.24
X158.7Y-140.78
X158.7Y-143.32
X158.7Y-145.86
X158.7Y-148.4
X158.7Y-150.94
X158.7Y-153.48
X158.7Y-156.02
X158.7Y-158.56
X158.7Y-161.1
X158.7Y-163.64
X158.78Y-77.36
X158.78Y-79.9
X158.78Y-82.44
X158.78Y-84.98
X158.78Y-87.52
X158.78Y-90.06
X158.78Y-92.6
X158.78Y-95.14
X158.78Y-97.68
X158.78Y-100.22
X158.78Y-102.76
X158.78Y-105.3
X158.78Y-107.84
X158.78Y-110.38
X158.78Y-112.92
X158.78Y-115.46
X158.78Y-118.0
T3
G00X102.92Y-123.725
M15
G01X102.92Y-122.925
M16
G05
G00X102.92Y-128.055
M15
G01X102.92Y-126.955
M16
G05
G00X103.44Y-112.945
M15
G01X103.44Y-114.045
M16
G05
G00X103.44Y-117.275
M15
G01X103.44Y-118.075
M16
G05
G00X111.56Y-123.725
M15
G01X111.56Y-122.925
M16
G05
G00X111.56Y-128.055
M15
G01X111.56Y-126.955
M16
G05
G00X112.08Y-112.945
M15
G01X112.08Y-114.045
M16
G05
G00X112.08Y-117.275
M15
G01X112.08Y-118.075
M16
G05
G00X138.92Y-123.725
M15
G01X138.92Y-122.925
M16
G05
G00X138.92Y-128.055
M15
G01X138.92Y-126.955
M16
G05
G00X139.44Y-112.945
M15
G01X139.44Y-114.045
M16
G05
G00X139.44Y-117.275
M15
G01X139.44Y-118.075
M16
G05
G00X147.56Y-123.725
M15
G01X147.56Y-122.925
M16
G05
G00X147.56Y-128.055
M15
G01X147.56Y-126.955
M16
G05
G00X148.08Y-112.945
M15
G01X148.08Y-114.045
M16
G05
G00X148.08Y-117.275
M15
G01X148.08Y-118.075
M16
G05
M30
