%TF.GenerationSoftware,KiCad,Pcbnew,9.0.2*%
%TF.CreationDate,2025-08-16T11:40:54+09:00*%
%TF.ProjectId,ESP32,45535033-322e-46b6-9963-61645f706362,rev?*%
%TF.SameCoordinates,Original*%
%TF.FileFunction,Paste,Top*%
%TF.FilePolarity,Positive*%
%FSLAX46Y46*%
G04 Gerber Fmt 4.6, Leading zero omitted, Abs format (unit mm)*
G04 Created by KiCad (PCBNEW 9.0.2) date 2025-08-16 11:40:54*
%MOMM*%
%LPD*%
G01*
G04 APERTURE LIST*
G04 Aperture macros list*
%AMRoundRect*
0 Rectangle with rounded corners*
0 $1 Rounding radius*
0 $2 $3 $4 $5 $6 $7 $8 $9 X,Y pos of 4 corners*
0 Add a 4 corners polygon primitive as box body*
4,1,4,$2,$3,$4,$5,$6,$7,$8,$9,$2,$3,0*
0 Add four circle primitives for the rounded corners*
1,1,$1+$1,$2,$3*
1,1,$1+$1,$4,$5*
1,1,$1+$1,$6,$7*
1,1,$1+$1,$8,$9*
0 Add four rect primitives between the rounded corners*
20,1,$1+$1,$2,$3,$4,$5,0*
20,1,$1+$1,$4,$5,$6,$7,0*
20,1,$1+$1,$6,$7,$8,$9,0*
20,1,$1+$1,$8,$9,$2,$3,0*%
G04 Aperture macros list end*
%ADD10RoundRect,0.237500X-0.237500X0.287500X-0.237500X-0.287500X0.237500X-0.287500X0.237500X0.287500X0*%
%ADD11R,1.050000X0.650000*%
%ADD12RoundRect,0.237500X0.237500X-0.250000X0.237500X0.250000X-0.237500X0.250000X-0.237500X-0.250000X0*%
%ADD13R,0.650000X1.250000*%
%ADD14R,0.900000X0.900000*%
%ADD15R,1.500000X0.900000*%
%ADD16R,0.900000X1.500000*%
%ADD17RoundRect,0.225000X-0.225000X-0.250000X0.225000X-0.250000X0.225000X0.250000X-0.225000X0.250000X0*%
%ADD18RoundRect,0.150000X0.150000X0.425000X-0.150000X0.425000X-0.150000X-0.425000X0.150000X-0.425000X0*%
%ADD19RoundRect,0.075000X0.075000X0.500000X-0.075000X0.500000X-0.075000X-0.500000X0.075000X-0.500000X0*%
%ADD20O,1.000000X2.100000*%
%ADD21O,1.000000X1.800000*%
%ADD22RoundRect,0.225000X0.225000X0.250000X-0.225000X0.250000X-0.225000X-0.250000X0.225000X-0.250000X0*%
%ADD23RoundRect,0.200000X0.275000X-0.200000X0.275000X0.200000X-0.275000X0.200000X-0.275000X-0.200000X0*%
%ADD24RoundRect,0.237500X0.237500X-0.287500X0.237500X0.287500X-0.237500X0.287500X-0.237500X-0.287500X0*%
%ADD25RoundRect,0.237500X-0.237500X0.250000X-0.237500X-0.250000X0.237500X-0.250000X0.237500X0.250000X0*%
%ADD26RoundRect,0.150000X-0.150000X-0.425000X0.150000X-0.425000X0.150000X0.425000X-0.150000X0.425000X0*%
%ADD27RoundRect,0.075000X-0.075000X-0.500000X0.075000X-0.500000X0.075000X0.500000X-0.075000X0.500000X0*%
%ADD28RoundRect,0.200000X-0.275000X0.200000X-0.275000X-0.200000X0.275000X-0.200000X0.275000X0.200000X0*%
G04 APERTURE END LIST*
D10*
%TO.C,D1*%
X153000000Y-128875000D03*
X153000000Y-130625000D03*
%TD*%
D11*
%TO.C,SW1*%
X139075000Y-142075000D03*
X134925000Y-142075000D03*
X139075000Y-139925000D03*
X134925000Y-139925000D03*
%TD*%
D12*
%TO.C,R4*%
X151000000Y-134000000D03*
X151000000Y-132175000D03*
%TD*%
D13*
%TO.C,IC1*%
X113030000Y-137230000D03*
X112090000Y-137230000D03*
X111150000Y-137230000D03*
X111150000Y-139730000D03*
X113030000Y-139730000D03*
%TD*%
D14*
%TO.C,U1*%
X110140000Y-159960000D03*
X110140000Y-158560000D03*
X110140000Y-157160000D03*
X108740000Y-159960000D03*
X108740000Y-158560000D03*
X108740000Y-157160000D03*
X107340000Y-159960000D03*
X107340000Y-158560000D03*
X107340000Y-157160000D03*
D15*
X115990000Y-166280000D03*
X115990000Y-165010000D03*
X115990000Y-163740000D03*
X115990000Y-162470000D03*
X115990000Y-161200000D03*
X115990000Y-159930000D03*
X115990000Y-158660000D03*
X115990000Y-157390000D03*
X115990000Y-156120000D03*
X115990000Y-154850000D03*
X115990000Y-153580000D03*
X115990000Y-152310000D03*
X115990000Y-151040000D03*
X115990000Y-149770000D03*
D16*
X114225000Y-148520000D03*
X112955000Y-148520000D03*
X111685000Y-148520000D03*
X110415000Y-148520000D03*
X109145000Y-148520000D03*
X107875000Y-148520000D03*
X106605000Y-148520000D03*
X105335000Y-148520000D03*
X104065000Y-148520000D03*
X102795000Y-148520000D03*
X101525000Y-148520000D03*
X100255000Y-148520000D03*
D15*
X98490000Y-149770000D03*
X98490000Y-151040000D03*
X98490000Y-152310000D03*
X98490000Y-153580000D03*
X98490000Y-154850000D03*
X98490000Y-156120000D03*
X98490000Y-157390000D03*
X98490000Y-158660000D03*
X98490000Y-159930000D03*
X98490000Y-161200000D03*
X98490000Y-162470000D03*
X98490000Y-163740000D03*
X98490000Y-165010000D03*
X98490000Y-166280000D03*
%TD*%
D10*
%TO.C,D2*%
X151000000Y-128875000D03*
X151000000Y-130625000D03*
%TD*%
D12*
%TO.C,R5*%
X117000000Y-134000000D03*
X117000000Y-132175000D03*
%TD*%
D17*
%TO.C,C1*%
X114885000Y-139730000D03*
X116435000Y-139730000D03*
%TD*%
D10*
%TO.C,D2*%
X115000000Y-128875000D03*
X115000000Y-130625000D03*
%TD*%
D18*
%TO.C,J1*%
X110440000Y-128080000D03*
X109640000Y-128080000D03*
D19*
X108490000Y-128080000D03*
X107490000Y-128080000D03*
X106990000Y-128080000D03*
X105990000Y-128080000D03*
D18*
X104840000Y-128080000D03*
X104040000Y-128080000D03*
X104040000Y-128080000D03*
X104840000Y-128080000D03*
D19*
X105490000Y-128080000D03*
X106490000Y-128080000D03*
X107990000Y-128080000D03*
X108990000Y-128080000D03*
D18*
X109640000Y-128080000D03*
X110440000Y-128080000D03*
D20*
X111560000Y-127505000D03*
D21*
X111560000Y-123325000D03*
D20*
X102920000Y-127505000D03*
D21*
X102920000Y-123325000D03*
%TD*%
D22*
%TO.C,C2*%
X116430000Y-137230000D03*
X114880000Y-137230000D03*
%TD*%
D12*
%TO.C,R5*%
X153000000Y-134000000D03*
X153000000Y-132175000D03*
%TD*%
D23*
%TO.C,R3*%
X117990000Y-165395000D03*
X117990000Y-163745000D03*
%TD*%
D11*
%TO.C,SW1*%
X103075000Y-142075000D03*
X98925000Y-142075000D03*
X103075000Y-139925000D03*
X98925000Y-139925000D03*
%TD*%
D12*
%TO.C,R4*%
X115000000Y-134000000D03*
X115000000Y-132175000D03*
%TD*%
D10*
%TO.C,D1*%
X117000000Y-128875000D03*
X117000000Y-130625000D03*
%TD*%
D18*
%TO.C,J1*%
X146440000Y-128080000D03*
X145640000Y-128080000D03*
D19*
X144490000Y-128080000D03*
X143490000Y-128080000D03*
X142990000Y-128080000D03*
X141990000Y-128080000D03*
D18*
X140840000Y-128080000D03*
X140040000Y-128080000D03*
X140040000Y-128080000D03*
X140840000Y-128080000D03*
D19*
X141490000Y-128080000D03*
X142490000Y-128080000D03*
X143990000Y-128080000D03*
X144990000Y-128080000D03*
D18*
X145640000Y-128080000D03*
X146440000Y-128080000D03*
D20*
X147560000Y-127505000D03*
D21*
X147560000Y-123325000D03*
D20*
X138920000Y-127505000D03*
D21*
X138920000Y-123325000D03*
%TD*%
D22*
%TO.C,C2*%
X152430000Y-137230000D03*
X150880000Y-137230000D03*
%TD*%
D13*
%TO.C,IC1*%
X149030000Y-137230000D03*
X148090000Y-137230000D03*
X147150000Y-137230000D03*
X147150000Y-139730000D03*
X149030000Y-139730000D03*
%TD*%
D17*
%TO.C,C1*%
X150885000Y-139730000D03*
X152435000Y-139730000D03*
%TD*%
D14*
%TO.C,U1*%
X146140000Y-159960000D03*
X146140000Y-158560000D03*
X146140000Y-157160000D03*
X144740000Y-159960000D03*
X144740000Y-158560000D03*
X144740000Y-157160000D03*
X143340000Y-159960000D03*
X143340000Y-158560000D03*
X143340000Y-157160000D03*
D15*
X151990000Y-166280000D03*
X151990000Y-165010000D03*
X151990000Y-163740000D03*
X151990000Y-162470000D03*
X151990000Y-161200000D03*
X151990000Y-159930000D03*
X151990000Y-158660000D03*
X151990000Y-157390000D03*
X151990000Y-156120000D03*
X151990000Y-154850000D03*
X151990000Y-153580000D03*
X151990000Y-152310000D03*
X151990000Y-151040000D03*
X151990000Y-149770000D03*
D16*
X150225000Y-148520000D03*
X148955000Y-148520000D03*
X147685000Y-148520000D03*
X146415000Y-148520000D03*
X145145000Y-148520000D03*
X143875000Y-148520000D03*
X142605000Y-148520000D03*
X141335000Y-148520000D03*
X140065000Y-148520000D03*
X138795000Y-148520000D03*
X137525000Y-148520000D03*
X136255000Y-148520000D03*
D15*
X134490000Y-149770000D03*
X134490000Y-151040000D03*
X134490000Y-152310000D03*
X134490000Y-153580000D03*
X134490000Y-154850000D03*
X134490000Y-156120000D03*
X134490000Y-157390000D03*
X134490000Y-158660000D03*
X134490000Y-159930000D03*
X134490000Y-161200000D03*
X134490000Y-162470000D03*
X134490000Y-163740000D03*
X134490000Y-165010000D03*
X134490000Y-166280000D03*
%TD*%
D23*
%TO.C,R3*%
X153990000Y-165395000D03*
X153990000Y-163745000D03*
%TD*%
D24*
%TO.C,D1*%
X134000000Y-112125000D03*
X134000000Y-110375000D03*
%TD*%
D11*
%TO.C,SW1*%
X147925000Y-98925000D03*
X152075000Y-98925000D03*
X147925000Y-101075000D03*
X152075000Y-101075000D03*
%TD*%
D25*
%TO.C,R4*%
X136000000Y-107000000D03*
X136000000Y-108825000D03*
%TD*%
D24*
%TO.C,D2*%
X136000000Y-112125000D03*
X136000000Y-110375000D03*
%TD*%
D25*
%TO.C,R5*%
X134000000Y-107000000D03*
X134000000Y-108825000D03*
%TD*%
D26*
%TO.C,J1*%
X140560000Y-112920000D03*
X141360000Y-112920000D03*
D27*
X142510000Y-112920000D03*
X143510000Y-112920000D03*
X144010000Y-112920000D03*
X145010000Y-112920000D03*
D26*
X146160000Y-112920000D03*
X146960000Y-112920000D03*
X146960000Y-112920000D03*
X146160000Y-112920000D03*
D27*
X145510000Y-112920000D03*
X144510000Y-112920000D03*
X143010000Y-112920000D03*
X142010000Y-112920000D03*
D26*
X141360000Y-112920000D03*
X140560000Y-112920000D03*
D20*
X139440000Y-113495000D03*
D21*
X139440000Y-117675000D03*
D20*
X148080000Y-113495000D03*
D21*
X148080000Y-117675000D03*
%TD*%
D17*
%TO.C,C2*%
X134570000Y-103770000D03*
X136120000Y-103770000D03*
%TD*%
D13*
%TO.C,IC1*%
X137970000Y-103770000D03*
X138910000Y-103770000D03*
X139850000Y-103770000D03*
X139850000Y-101270000D03*
X137970000Y-101270000D03*
%TD*%
D22*
%TO.C,C1*%
X136115000Y-101270000D03*
X134565000Y-101270000D03*
%TD*%
D14*
%TO.C,U1*%
X140860000Y-81040000D03*
X140860000Y-82440000D03*
X140860000Y-83840000D03*
X142260000Y-81040000D03*
X142260000Y-82440000D03*
X142260000Y-83840000D03*
X143660000Y-81040000D03*
X143660000Y-82440000D03*
X143660000Y-83840000D03*
D15*
X135010000Y-74720000D03*
X135010000Y-75990000D03*
X135010000Y-77260000D03*
X135010000Y-78530000D03*
X135010000Y-79800000D03*
X135010000Y-81070000D03*
X135010000Y-82340000D03*
X135010000Y-83610000D03*
X135010000Y-84880000D03*
X135010000Y-86150000D03*
X135010000Y-87420000D03*
X135010000Y-88690000D03*
X135010000Y-89960000D03*
X135010000Y-91230000D03*
D16*
X136775000Y-92480000D03*
X138045000Y-92480000D03*
X139315000Y-92480000D03*
X140585000Y-92480000D03*
X141855000Y-92480000D03*
X143125000Y-92480000D03*
X144395000Y-92480000D03*
X145665000Y-92480000D03*
X146935000Y-92480000D03*
X148205000Y-92480000D03*
X149475000Y-92480000D03*
X150745000Y-92480000D03*
D15*
X152510000Y-91230000D03*
X152510000Y-89960000D03*
X152510000Y-88690000D03*
X152510000Y-87420000D03*
X152510000Y-86150000D03*
X152510000Y-84880000D03*
X152510000Y-83610000D03*
X152510000Y-82340000D03*
X152510000Y-81070000D03*
X152510000Y-79800000D03*
X152510000Y-78530000D03*
X152510000Y-77260000D03*
X152510000Y-75990000D03*
X152510000Y-74720000D03*
%TD*%
D28*
%TO.C,R3*%
X133010000Y-75605000D03*
X133010000Y-77255000D03*
%TD*%
D24*
%TO.C,D1*%
X98000000Y-110375000D03*
X98000000Y-112125000D03*
%TD*%
D11*
%TO.C,SW1*%
X111925000Y-98925000D03*
X111925000Y-101075000D03*
X116075000Y-98925000D03*
X116075000Y-101075000D03*
%TD*%
D25*
%TO.C,R5*%
X98000000Y-107000000D03*
X98000000Y-108825000D03*
%TD*%
%TO.C,R4*%
X100000000Y-107000000D03*
X100000000Y-108825000D03*
%TD*%
D24*
%TO.C,D2*%
X100000000Y-112125000D03*
X100000000Y-110375000D03*
%TD*%
D28*
%TO.C,R3*%
X97010000Y-75605000D03*
X97010000Y-77255000D03*
%TD*%
D14*
%TO.C,U1*%
X104860000Y-81040000D03*
X104860000Y-82440000D03*
X104860000Y-83840000D03*
X106260000Y-81040000D03*
X106260000Y-82440000D03*
X106260000Y-83840000D03*
X107660000Y-81040000D03*
X107660000Y-82440000D03*
X107660000Y-83840000D03*
D15*
X99010000Y-74720000D03*
X99010000Y-75990000D03*
X99010000Y-77260000D03*
X99010000Y-78530000D03*
X99010000Y-79800000D03*
X99010000Y-81070000D03*
X99010000Y-82340000D03*
X99010000Y-83610000D03*
X99010000Y-84880000D03*
X99010000Y-86150000D03*
X99010000Y-87420000D03*
X99010000Y-88690000D03*
X99010000Y-89960000D03*
X99010000Y-91230000D03*
D16*
X100775000Y-92480000D03*
X102045000Y-92480000D03*
X103315000Y-92480000D03*
X104585000Y-92480000D03*
X105855000Y-92480000D03*
X107125000Y-92480000D03*
X108395000Y-92480000D03*
X109665000Y-92480000D03*
X110935000Y-92480000D03*
X112205000Y-92480000D03*
X113475000Y-92480000D03*
X114745000Y-92480000D03*
D15*
X116510000Y-91230000D03*
X116510000Y-89960000D03*
X116510000Y-88690000D03*
X116510000Y-87420000D03*
X116510000Y-86150000D03*
X116510000Y-84880000D03*
X116510000Y-83610000D03*
X116510000Y-82340000D03*
X116510000Y-81070000D03*
X116510000Y-79800000D03*
X116510000Y-78530000D03*
X116510000Y-77260000D03*
X116510000Y-75990000D03*
X116510000Y-74720000D03*
%TD*%
D22*
%TO.C,C1*%
X100115000Y-101270000D03*
X98565000Y-101270000D03*
%TD*%
D13*
%TO.C,IC1*%
X101970000Y-103770000D03*
X102910000Y-103770000D03*
X103850000Y-103770000D03*
X103850000Y-101270000D03*
X101970000Y-101270000D03*
%TD*%
D17*
%TO.C,C2*%
X98570000Y-103770000D03*
X100120000Y-103770000D03*
%TD*%
D26*
%TO.C,J1*%
X104560000Y-112920000D03*
X105360000Y-112920000D03*
D27*
X106510000Y-112920000D03*
X107510000Y-112920000D03*
X108010000Y-112920000D03*
X109010000Y-112920000D03*
D26*
X110160000Y-112920000D03*
X110960000Y-112920000D03*
X110960000Y-112920000D03*
X110160000Y-112920000D03*
D27*
X109510000Y-112920000D03*
X108510000Y-112920000D03*
X107010000Y-112920000D03*
X106010000Y-112920000D03*
D26*
X105360000Y-112920000D03*
X104560000Y-112920000D03*
D20*
X103440000Y-113495000D03*
D21*
X103440000Y-117675000D03*
D20*
X112080000Y-113495000D03*
D21*
X112080000Y-117675000D03*
%TD*%
M02*
