%TF.GenerationSoftware,KiCad,Pcbnew,9.0.2*%
%TF.CreationDate,2025-06-05T23:32:01+09:00*%
%TF.ProjectId,jogi_pcb,6a6f6769-5f70-4636-922e-6b696361645f,rev?*%
%TF.SameCoordinates,Original*%
%TF.FileFunction,Copper,L2,Bot*%
%TF.FilePolarity,Positive*%
%FSLAX46Y46*%
G04 Gerber Fmt 4.6, Leading zero omitted, Abs format (unit mm)*
G04 Created by KiCad (PCBNEW 9.0.2) date 2025-06-05 23:32:01*
%MOMM*%
%LPD*%
G01*
G04 APERTURE LIST*
%TA.AperFunction,HeatsinkPad*%
%ADD10O,1.000000X2.100000*%
%TD*%
%TA.AperFunction,HeatsinkPad*%
%ADD11O,1.000000X1.800000*%
%TD*%
%TA.AperFunction,ViaPad*%
%ADD12C,0.600000*%
%TD*%
%TA.AperFunction,Conductor*%
%ADD13C,0.600000*%
%TD*%
%TA.AperFunction,Conductor*%
%ADD14C,0.200000*%
%TD*%
G04 APERTURE END LIST*
D10*
%TO.P,J1,S1,SHIELD*%
%TO.N,GND*%
X180570000Y-143500000D03*
D11*
X180570000Y-147680000D03*
D10*
X189210000Y-143500000D03*
D11*
X189210000Y-147680000D03*
%TD*%
D10*
%TO.P,J1,S1,SHIELD*%
%TO.N,GND*%
X180570000Y-118500000D03*
D11*
X180570000Y-122680000D03*
D10*
X189210000Y-118500000D03*
D11*
X189210000Y-122680000D03*
%TD*%
D10*
%TO.P,J1,S1,SHIELD*%
%TO.N,GND*%
X180570000Y-93500000D03*
D11*
X180570000Y-97680000D03*
D10*
X189210000Y-93500000D03*
D11*
X189210000Y-97680000D03*
%TD*%
D10*
%TO.P,J1,S1,SHIELD*%
%TO.N,GND*%
X180570000Y-68500000D03*
D11*
X180570000Y-72680000D03*
D10*
X189210000Y-68500000D03*
D11*
X189210000Y-72680000D03*
%TD*%
D12*
%TO.N,GND*%
X176960000Y-139235000D03*
X178915000Y-130550000D03*
X108830000Y-130550000D03*
%TO.N,VCC*%
X130575000Y-129400000D03*
%TO.N,UPDI*%
X171365000Y-141015000D03*
X179392500Y-139540000D03*
%TO.N,VCC*%
X170660000Y-129450000D03*
%TO.N,GND*%
X158745000Y-130600000D03*
X148830000Y-130550000D03*
X103000000Y-146000000D03*
X118745000Y-130500000D03*
X189085000Y-130550000D03*
X197000000Y-146000000D03*
X103000000Y-146000000D03*
X168830000Y-130550000D03*
X181690000Y-142925000D03*
X188090000Y-142925000D03*
%TO.N,VCC*%
X179392500Y-137540000D03*
X120575000Y-129400000D03*
X173905000Y-136065000D03*
X182490000Y-142925000D03*
%TO.N,GND*%
X128745000Y-130500000D03*
X197000000Y-128000000D03*
X103000000Y-128000000D03*
%TO.N,VCC*%
X190915000Y-129450000D03*
X110660000Y-129450000D03*
X140745000Y-129500000D03*
X187290000Y-142925000D03*
X180745000Y-129450000D03*
X150660000Y-129450000D03*
X160575000Y-129500000D03*
%TO.N,GND*%
X176960000Y-114235000D03*
X178915000Y-105550000D03*
X108830000Y-105550000D03*
%TO.N,VCC*%
X130575000Y-104400000D03*
%TO.N,UPDI*%
X171365000Y-116015000D03*
X179392500Y-114540000D03*
%TO.N,VCC*%
X170660000Y-104450000D03*
%TO.N,GND*%
X158745000Y-105600000D03*
X148830000Y-105550000D03*
X103000000Y-121000000D03*
X118745000Y-105500000D03*
X189085000Y-105550000D03*
X197000000Y-121000000D03*
X103000000Y-121000000D03*
X168830000Y-105550000D03*
X181690000Y-117925000D03*
X188090000Y-117925000D03*
%TO.N,VCC*%
X179392500Y-112540000D03*
X120575000Y-104400000D03*
X173905000Y-111065000D03*
X182490000Y-117925000D03*
%TO.N,GND*%
X128745000Y-105500000D03*
X197000000Y-103000000D03*
X103000000Y-103000000D03*
%TO.N,VCC*%
X190915000Y-104450000D03*
X110660000Y-104450000D03*
X140745000Y-104500000D03*
X187290000Y-117925000D03*
X180745000Y-104450000D03*
X150660000Y-104450000D03*
X160575000Y-104500000D03*
%TO.N,GND*%
X176960000Y-89235000D03*
X178915000Y-80550000D03*
X108830000Y-80550000D03*
%TO.N,VCC*%
X130575000Y-79400000D03*
%TO.N,UPDI*%
X171365000Y-91015000D03*
X179392500Y-89540000D03*
%TO.N,VCC*%
X170660000Y-79450000D03*
%TO.N,GND*%
X158745000Y-80600000D03*
X148830000Y-80550000D03*
X103000000Y-96000000D03*
X118745000Y-80500000D03*
X189085000Y-80550000D03*
X197000000Y-96000000D03*
X103000000Y-96000000D03*
X168830000Y-80550000D03*
X181690000Y-92925000D03*
X188090000Y-92925000D03*
%TO.N,VCC*%
X179392500Y-87540000D03*
X120575000Y-79400000D03*
X173905000Y-86065000D03*
X182490000Y-92925000D03*
%TO.N,GND*%
X128745000Y-80500000D03*
X197000000Y-78000000D03*
X103000000Y-78000000D03*
%TO.N,VCC*%
X190915000Y-79450000D03*
X110660000Y-79450000D03*
X140745000Y-79500000D03*
X187290000Y-92925000D03*
X180745000Y-79450000D03*
X150660000Y-79450000D03*
X160575000Y-79500000D03*
%TO.N,GND*%
X176960000Y-64235000D03*
X178915000Y-55550000D03*
X108830000Y-55550000D03*
%TO.N,VCC*%
X130575000Y-54400000D03*
%TO.N,UPDI*%
X171365000Y-66015000D03*
X179392500Y-64540000D03*
%TO.N,VCC*%
X170660000Y-54450000D03*
%TO.N,GND*%
X158745000Y-55600000D03*
X148830000Y-55550000D03*
X103000000Y-71000000D03*
X118745000Y-55500000D03*
X189085000Y-55550000D03*
X197000000Y-71000000D03*
X103000000Y-71000000D03*
X168830000Y-55550000D03*
X181690000Y-67925000D03*
X188090000Y-67925000D03*
%TO.N,VCC*%
X179392500Y-62540000D03*
X120575000Y-54400000D03*
X173905000Y-61065000D03*
X182490000Y-67925000D03*
%TO.N,GND*%
X128745000Y-55500000D03*
X197000000Y-53000000D03*
X103000000Y-53000000D03*
%TO.N,VCC*%
X190915000Y-54450000D03*
X110660000Y-54450000D03*
X140745000Y-54500000D03*
X187290000Y-67925000D03*
X180745000Y-54450000D03*
X150660000Y-54450000D03*
X160575000Y-54500000D03*
%TD*%
D13*
%TO.N,VCC*%
X190915000Y-129450000D02*
X110660000Y-129450000D01*
D14*
%TO.N,UPDI*%
X179392500Y-139540000D02*
X177917500Y-141015000D01*
X177917500Y-141015000D02*
X171365000Y-141015000D01*
D13*
%TO.N,VCC*%
X190915000Y-137565000D02*
X190915000Y-129450000D01*
X182490000Y-142925000D02*
X182490000Y-140637500D01*
X187290000Y-141190000D02*
X190915000Y-137565000D01*
X187290000Y-142925000D02*
X182490000Y-142925000D01*
X177917500Y-136065000D02*
X173905000Y-136065000D01*
X182490000Y-140637500D02*
X177917500Y-136065000D01*
X187290000Y-142925000D02*
X187290000Y-141190000D01*
X190915000Y-104450000D02*
X110660000Y-104450000D01*
D14*
%TO.N,UPDI*%
X179392500Y-114540000D02*
X177917500Y-116015000D01*
X177917500Y-116015000D02*
X171365000Y-116015000D01*
D13*
%TO.N,VCC*%
X190915000Y-112565000D02*
X190915000Y-104450000D01*
X182490000Y-117925000D02*
X182490000Y-115637500D01*
X187290000Y-116190000D02*
X190915000Y-112565000D01*
X187290000Y-117925000D02*
X182490000Y-117925000D01*
X177917500Y-111065000D02*
X173905000Y-111065000D01*
X182490000Y-115637500D02*
X177917500Y-111065000D01*
X187290000Y-117925000D02*
X187290000Y-116190000D01*
X190915000Y-79450000D02*
X110660000Y-79450000D01*
D14*
%TO.N,UPDI*%
X179392500Y-89540000D02*
X177917500Y-91015000D01*
X177917500Y-91015000D02*
X171365000Y-91015000D01*
D13*
%TO.N,VCC*%
X190915000Y-87565000D02*
X190915000Y-79450000D01*
X182490000Y-92925000D02*
X182490000Y-90637500D01*
X187290000Y-91190000D02*
X190915000Y-87565000D01*
X187290000Y-92925000D02*
X182490000Y-92925000D01*
X177917500Y-86065000D02*
X173905000Y-86065000D01*
X182490000Y-90637500D02*
X177917500Y-86065000D01*
X187290000Y-92925000D02*
X187290000Y-91190000D01*
X190915000Y-54450000D02*
X110660000Y-54450000D01*
D14*
%TO.N,UPDI*%
X179392500Y-64540000D02*
X177917500Y-66015000D01*
X177917500Y-66015000D02*
X171365000Y-66015000D01*
D13*
%TO.N,VCC*%
X190915000Y-62565000D02*
X190915000Y-54450000D01*
X182490000Y-67925000D02*
X182490000Y-65637500D01*
X187290000Y-66190000D02*
X190915000Y-62565000D01*
X187290000Y-67925000D02*
X182490000Y-67925000D01*
X177917500Y-61065000D02*
X173905000Y-61065000D01*
X182490000Y-65637500D02*
X177917500Y-61065000D01*
X187290000Y-67925000D02*
X187290000Y-66190000D01*
%TD*%
%TA.AperFunction,Conductor*%
%TO.N,GND*%
G36*
X199442539Y-50520185D02*
G01*
X199488294Y-50572989D01*
X199499500Y-50624500D01*
X199499500Y-73375500D01*
X199479815Y-73442539D01*
X199427011Y-73488294D01*
X199375500Y-73499500D01*
X190297242Y-73499500D01*
X190230203Y-73479815D01*
X190184448Y-73427011D01*
X190174504Y-73357853D01*
X190175625Y-73351309D01*
X190209999Y-73178495D01*
X190210000Y-73178492D01*
X190210000Y-72930000D01*
X189510000Y-72930000D01*
X189510000Y-72430000D01*
X190210000Y-72430000D01*
X190210000Y-72181508D01*
X190209999Y-72181504D01*
X190171572Y-71988318D01*
X190171569Y-71988306D01*
X190096192Y-71806328D01*
X190096185Y-71806315D01*
X189986751Y-71642537D01*
X189986748Y-71642533D01*
X189847466Y-71503251D01*
X189847462Y-71503248D01*
X189683684Y-71393814D01*
X189683671Y-71393807D01*
X189501691Y-71318429D01*
X189501683Y-71318427D01*
X189460000Y-71310135D01*
X189460000Y-72113011D01*
X189450060Y-72095795D01*
X189394205Y-72039940D01*
X189325796Y-72000444D01*
X189249496Y-71980000D01*
X189170504Y-71980000D01*
X189094204Y-72000444D01*
X189025795Y-72039940D01*
X188969940Y-72095795D01*
X188960000Y-72113011D01*
X188960000Y-71310136D01*
X188959999Y-71310135D01*
X188918316Y-71318427D01*
X188918308Y-71318429D01*
X188736328Y-71393807D01*
X188736315Y-71393814D01*
X188572537Y-71503248D01*
X188572533Y-71503251D01*
X188433251Y-71642533D01*
X188433248Y-71642537D01*
X188323814Y-71806315D01*
X188323807Y-71806328D01*
X188248430Y-71988306D01*
X188248427Y-71988318D01*
X188210000Y-72181504D01*
X188210000Y-72430000D01*
X188910000Y-72430000D01*
X188910000Y-72930000D01*
X188210000Y-72930000D01*
X188210000Y-73178495D01*
X188244375Y-73351309D01*
X188238148Y-73420900D01*
X188195285Y-73476078D01*
X188129395Y-73499322D01*
X188122758Y-73499500D01*
X181657242Y-73499500D01*
X181590203Y-73479815D01*
X181544448Y-73427011D01*
X181534504Y-73357853D01*
X181535625Y-73351309D01*
X181569999Y-73178495D01*
X181570000Y-73178492D01*
X181570000Y-72930000D01*
X180870000Y-72930000D01*
X180870000Y-72430000D01*
X181570000Y-72430000D01*
X181570000Y-72181508D01*
X181569999Y-72181504D01*
X181531572Y-71988318D01*
X181531569Y-71988306D01*
X181456192Y-71806328D01*
X181456185Y-71806315D01*
X181346751Y-71642537D01*
X181346748Y-71642533D01*
X181207466Y-71503251D01*
X181207462Y-71503248D01*
X181043684Y-71393814D01*
X181043671Y-71393807D01*
X180861691Y-71318429D01*
X180861683Y-71318427D01*
X180820000Y-71310135D01*
X180820000Y-72113011D01*
X180810060Y-72095795D01*
X180754205Y-72039940D01*
X180685796Y-72000444D01*
X180609496Y-71980000D01*
X180530504Y-71980000D01*
X180454204Y-72000444D01*
X180385795Y-72039940D01*
X180329940Y-72095795D01*
X180320000Y-72113011D01*
X180320000Y-71310136D01*
X180319999Y-71310135D01*
X180278316Y-71318427D01*
X180278308Y-71318429D01*
X180096328Y-71393807D01*
X180096315Y-71393814D01*
X179932537Y-71503248D01*
X179932533Y-71503251D01*
X179793251Y-71642533D01*
X179793248Y-71642537D01*
X179683814Y-71806315D01*
X179683807Y-71806328D01*
X179608430Y-71988306D01*
X179608427Y-71988318D01*
X179570000Y-72181504D01*
X179570000Y-72430000D01*
X180270000Y-72430000D01*
X180270000Y-72930000D01*
X179570000Y-72930000D01*
X179570000Y-73178495D01*
X179604375Y-73351309D01*
X179598148Y-73420900D01*
X179555285Y-73476078D01*
X179489395Y-73499322D01*
X179482758Y-73499500D01*
X100624500Y-73499500D01*
X100557461Y-73479815D01*
X100511706Y-73427011D01*
X100500500Y-73375500D01*
X100500500Y-54371153D01*
X109859500Y-54371153D01*
X109859500Y-54528846D01*
X109890261Y-54683489D01*
X109890264Y-54683501D01*
X109950602Y-54829172D01*
X109950609Y-54829185D01*
X110038210Y-54960288D01*
X110038213Y-54960292D01*
X110149707Y-55071786D01*
X110149711Y-55071789D01*
X110280814Y-55159390D01*
X110280827Y-55159397D01*
X110426498Y-55219735D01*
X110426503Y-55219737D01*
X110581153Y-55250499D01*
X110581156Y-55250500D01*
X110581158Y-55250500D01*
X140440396Y-55250500D01*
X140487844Y-55259937D01*
X140511503Y-55269737D01*
X140511508Y-55269738D01*
X140511511Y-55269739D01*
X140666153Y-55300499D01*
X140666156Y-55300500D01*
X140666158Y-55300500D01*
X140823844Y-55300500D01*
X140823845Y-55300499D01*
X140900152Y-55285320D01*
X140978488Y-55269739D01*
X140978489Y-55269738D01*
X140978497Y-55269737D01*
X141002155Y-55259937D01*
X141049604Y-55250500D01*
X150581158Y-55250500D01*
X150738842Y-55250500D01*
X160270396Y-55250500D01*
X160317844Y-55259937D01*
X160341503Y-55269737D01*
X160341508Y-55269738D01*
X160341511Y-55269739D01*
X160496153Y-55300499D01*
X160496156Y-55300500D01*
X160496158Y-55300500D01*
X160653844Y-55300500D01*
X160653845Y-55300499D01*
X160730152Y-55285320D01*
X160808488Y-55269739D01*
X160808489Y-55269738D01*
X160808497Y-55269737D01*
X160832155Y-55259937D01*
X160879604Y-55250500D01*
X170581158Y-55250500D01*
X170738842Y-55250500D01*
X180666158Y-55250500D01*
X180823842Y-55250500D01*
X189990500Y-55250500D01*
X190057539Y-55270185D01*
X190103294Y-55322989D01*
X190114500Y-55374500D01*
X190114500Y-62182060D01*
X190094815Y-62249099D01*
X190078181Y-62269741D01*
X186779711Y-65568211D01*
X186723960Y-65623962D01*
X186668209Y-65679712D01*
X186580609Y-65810814D01*
X186580602Y-65810827D01*
X186520264Y-65956498D01*
X186520261Y-65956510D01*
X186489500Y-66111153D01*
X186489500Y-67000500D01*
X186469815Y-67067539D01*
X186417011Y-67113294D01*
X186365500Y-67124500D01*
X183414500Y-67124500D01*
X183347461Y-67104815D01*
X183301706Y-67052011D01*
X183290500Y-67000500D01*
X183290500Y-65558658D01*
X183285691Y-65534480D01*
X183285691Y-65534478D01*
X183285691Y-65534477D01*
X183259739Y-65404010D01*
X183259738Y-65404003D01*
X183199394Y-65258321D01*
X183199392Y-65258318D01*
X183199390Y-65258314D01*
X183111789Y-65127211D01*
X183111786Y-65127207D01*
X178427792Y-60443213D01*
X178427788Y-60443210D01*
X178296685Y-60355609D01*
X178296672Y-60355602D01*
X178151001Y-60295264D01*
X178150989Y-60295261D01*
X177996345Y-60264500D01*
X177996342Y-60264500D01*
X173826158Y-60264500D01*
X173826155Y-60264500D01*
X173671510Y-60295261D01*
X173671498Y-60295264D01*
X173525827Y-60355602D01*
X173525814Y-60355609D01*
X173394711Y-60443210D01*
X173394707Y-60443213D01*
X173283213Y-60554707D01*
X173283210Y-60554711D01*
X173195609Y-60685814D01*
X173195602Y-60685827D01*
X173135264Y-60831498D01*
X173135261Y-60831510D01*
X173104500Y-60986153D01*
X173104500Y-61143846D01*
X173135261Y-61298489D01*
X173135264Y-61298501D01*
X173195602Y-61444172D01*
X173195609Y-61444185D01*
X173283210Y-61575288D01*
X173283213Y-61575292D01*
X173394707Y-61686786D01*
X173394711Y-61686789D01*
X173525814Y-61774390D01*
X173525827Y-61774397D01*
X173671498Y-61834735D01*
X173671503Y-61834737D01*
X173826153Y-61865499D01*
X173826156Y-61865500D01*
X173826158Y-61865500D01*
X177534560Y-61865500D01*
X177601599Y-61885185D01*
X177622241Y-61901819D01*
X179271615Y-63551193D01*
X179305100Y-63612516D01*
X179300116Y-63682208D01*
X179258244Y-63738141D01*
X179208126Y-63760491D01*
X179159008Y-63770261D01*
X179158998Y-63770264D01*
X179013327Y-63830602D01*
X179013314Y-63830609D01*
X178882211Y-63918210D01*
X178882207Y-63918213D01*
X178770713Y-64029707D01*
X178770710Y-64029711D01*
X178683109Y-64160814D01*
X178683102Y-64160827D01*
X178622764Y-64306498D01*
X178622761Y-64306508D01*
X178591861Y-64461850D01*
X178559476Y-64523761D01*
X178557925Y-64525339D01*
X177705084Y-65378181D01*
X177643761Y-65411666D01*
X177617403Y-65414500D01*
X171944766Y-65414500D01*
X171877727Y-65394815D01*
X171875875Y-65393602D01*
X171744185Y-65305609D01*
X171744172Y-65305602D01*
X171598501Y-65245264D01*
X171598489Y-65245261D01*
X171443845Y-65214500D01*
X171443842Y-65214500D01*
X171286158Y-65214500D01*
X171286155Y-65214500D01*
X171131510Y-65245261D01*
X171131498Y-65245264D01*
X170985827Y-65305602D01*
X170985814Y-65305609D01*
X170854711Y-65393210D01*
X170854707Y-65393213D01*
X170743213Y-65504707D01*
X170743210Y-65504711D01*
X170655609Y-65635814D01*
X170655602Y-65635827D01*
X170595264Y-65781498D01*
X170595261Y-65781510D01*
X170564500Y-65936153D01*
X170564500Y-66093846D01*
X170595261Y-66248489D01*
X170595264Y-66248501D01*
X170655602Y-66394172D01*
X170655609Y-66394185D01*
X170743210Y-66525288D01*
X170743213Y-66525292D01*
X170854707Y-66636786D01*
X170854711Y-66636789D01*
X170985814Y-66724390D01*
X170985827Y-66724397D01*
X171131498Y-66784735D01*
X171131503Y-66784737D01*
X171286153Y-66815499D01*
X171286156Y-66815500D01*
X171286158Y-66815500D01*
X171443844Y-66815500D01*
X171443845Y-66815499D01*
X171598497Y-66784737D01*
X171744179Y-66724394D01*
X171744185Y-66724390D01*
X171875875Y-66636398D01*
X171942553Y-66615520D01*
X171944766Y-66615500D01*
X177830831Y-66615500D01*
X177830847Y-66615501D01*
X177838443Y-66615501D01*
X177996554Y-66615501D01*
X177996557Y-66615501D01*
X178149285Y-66574577D01*
X178199404Y-66545639D01*
X178286216Y-66495520D01*
X178398020Y-66383716D01*
X178398020Y-66383714D01*
X178408228Y-66373507D01*
X178408229Y-66373504D01*
X179407162Y-65374572D01*
X179468483Y-65341089D01*
X179470650Y-65340638D01*
X179528585Y-65329113D01*
X179625997Y-65309737D01*
X179771679Y-65249394D01*
X179902789Y-65161789D01*
X180014289Y-65050289D01*
X180101894Y-64919179D01*
X180162237Y-64773497D01*
X180172008Y-64724371D01*
X180204392Y-64662464D01*
X180265107Y-64627889D01*
X180334877Y-64631628D01*
X180381306Y-64660884D01*
X181653181Y-65932759D01*
X181686666Y-65994082D01*
X181689500Y-66020440D01*
X181689500Y-67417779D01*
X181669815Y-67484818D01*
X181617011Y-67530573D01*
X181547853Y-67540517D01*
X181484297Y-67511492D01*
X181460019Y-67481089D01*
X181459574Y-67481387D01*
X181346751Y-67312537D01*
X181346748Y-67312533D01*
X181207466Y-67173251D01*
X181207462Y-67173248D01*
X181043684Y-67063814D01*
X181043671Y-67063807D01*
X180861691Y-66988429D01*
X180861683Y-66988427D01*
X180820000Y-66980135D01*
X180820000Y-67783011D01*
X180810060Y-67765795D01*
X180754205Y-67709940D01*
X180685796Y-67670444D01*
X180609496Y-67650000D01*
X180530504Y-67650000D01*
X180454204Y-67670444D01*
X180385795Y-67709940D01*
X180329940Y-67765795D01*
X180320000Y-67783011D01*
X180320000Y-66980136D01*
X180319999Y-66980135D01*
X180278316Y-66988427D01*
X180278308Y-66988429D01*
X180096328Y-67063807D01*
X180096315Y-67063814D01*
X179932537Y-67173248D01*
X179932533Y-67173251D01*
X179793251Y-67312533D01*
X179793248Y-67312537D01*
X179683814Y-67476315D01*
X179683807Y-67476328D01*
X179608430Y-67658306D01*
X179608427Y-67658318D01*
X179570000Y-67851504D01*
X179570000Y-68250000D01*
X180270000Y-68250000D01*
X180270000Y-68750000D01*
X179570000Y-68750000D01*
X179570000Y-69148495D01*
X179608427Y-69341681D01*
X179608430Y-69341693D01*
X179683807Y-69523671D01*
X179683814Y-69523684D01*
X179793248Y-69687462D01*
X179793251Y-69687466D01*
X179932533Y-69826748D01*
X179932537Y-69826751D01*
X180096315Y-69936185D01*
X180096328Y-69936192D01*
X180278308Y-70011569D01*
X180320000Y-70019862D01*
X180320000Y-69216988D01*
X180329940Y-69234205D01*
X180385795Y-69290060D01*
X180454204Y-69329556D01*
X180530504Y-69350000D01*
X180609496Y-69350000D01*
X180685796Y-69329556D01*
X180754205Y-69290060D01*
X180810060Y-69234205D01*
X180820000Y-69216988D01*
X180820000Y-70019862D01*
X180861690Y-70011569D01*
X180861692Y-70011569D01*
X181043671Y-69936192D01*
X181043684Y-69936185D01*
X181207462Y-69826751D01*
X181207466Y-69826748D01*
X181346748Y-69687466D01*
X181346751Y-69687462D01*
X181456185Y-69523684D01*
X181456186Y-69523682D01*
X181460129Y-69514163D01*
X181503968Y-69459757D01*
X181570261Y-69437689D01*
X181637961Y-69454965D01*
X181643400Y-69458647D01*
X181646634Y-69460514D01*
X181646635Y-69460515D01*
X181777865Y-69536281D01*
X181924234Y-69575500D01*
X181924236Y-69575500D01*
X182075764Y-69575500D01*
X182075766Y-69575500D01*
X182222135Y-69536281D01*
X182353365Y-69460515D01*
X182460515Y-69353365D01*
X182536281Y-69222135D01*
X182575500Y-69075766D01*
X182575500Y-68924234D01*
X182564074Y-68881591D01*
X182565737Y-68811744D01*
X182604899Y-68753881D01*
X182669128Y-68726377D01*
X182683849Y-68725500D01*
X187096151Y-68725500D01*
X187163190Y-68745185D01*
X187208945Y-68797989D01*
X187218889Y-68867147D01*
X187215928Y-68881581D01*
X187204500Y-68924234D01*
X187204500Y-68924236D01*
X187204500Y-69075765D01*
X187243719Y-69222136D01*
X187281602Y-69287750D01*
X187319485Y-69353365D01*
X187426635Y-69460515D01*
X187557865Y-69536281D01*
X187704234Y-69575500D01*
X187704236Y-69575500D01*
X187855764Y-69575500D01*
X187855766Y-69575500D01*
X188002135Y-69536281D01*
X188133365Y-69460515D01*
X188133366Y-69460513D01*
X188140403Y-69456451D01*
X188141676Y-69458656D01*
X188194956Y-69438043D01*
X188263405Y-69452063D01*
X188313407Y-69500864D01*
X188319867Y-69514157D01*
X188323809Y-69523674D01*
X188323814Y-69523684D01*
X188433248Y-69687462D01*
X188433251Y-69687466D01*
X188572533Y-69826748D01*
X188572537Y-69826751D01*
X188736315Y-69936185D01*
X188736328Y-69936192D01*
X188918308Y-70011569D01*
X188960000Y-70019862D01*
X188960000Y-69216988D01*
X188969940Y-69234205D01*
X189025795Y-69290060D01*
X189094204Y-69329556D01*
X189170504Y-69350000D01*
X189249496Y-69350000D01*
X189325796Y-69329556D01*
X189394205Y-69290060D01*
X189450060Y-69234205D01*
X189460000Y-69216988D01*
X189460000Y-70019862D01*
X189501690Y-70011569D01*
X189501692Y-70011569D01*
X189683671Y-69936192D01*
X189683684Y-69936185D01*
X189847462Y-69826751D01*
X189847466Y-69826748D01*
X189986748Y-69687466D01*
X189986751Y-69687462D01*
X190096185Y-69523684D01*
X190096192Y-69523671D01*
X190171569Y-69341693D01*
X190171572Y-69341681D01*
X190209999Y-69148495D01*
X190210000Y-69148492D01*
X190210000Y-68750000D01*
X189510000Y-68750000D01*
X189510000Y-68250000D01*
X190210000Y-68250000D01*
X190210000Y-67851508D01*
X190209999Y-67851504D01*
X190171572Y-67658318D01*
X190171569Y-67658306D01*
X190096192Y-67476328D01*
X190096185Y-67476315D01*
X189986751Y-67312537D01*
X189986748Y-67312533D01*
X189847466Y-67173251D01*
X189847462Y-67173248D01*
X189683684Y-67063814D01*
X189683671Y-67063807D01*
X189501691Y-66988429D01*
X189501683Y-66988427D01*
X189460000Y-66980135D01*
X189460000Y-67783011D01*
X189450060Y-67765795D01*
X189394205Y-67709940D01*
X189325796Y-67670444D01*
X189249496Y-67650000D01*
X189170504Y-67650000D01*
X189094204Y-67670444D01*
X189025795Y-67709940D01*
X188969940Y-67765795D01*
X188960000Y-67783011D01*
X188960000Y-66980136D01*
X188959999Y-66980135D01*
X188918316Y-66988427D01*
X188918308Y-66988429D01*
X188736328Y-67063807D01*
X188736315Y-67063814D01*
X188572537Y-67173248D01*
X188572533Y-67173251D01*
X188433251Y-67312533D01*
X188433248Y-67312537D01*
X188320426Y-67481387D01*
X188319441Y-67480729D01*
X188274893Y-67526078D01*
X188206755Y-67541537D01*
X188141076Y-67517703D01*
X188098708Y-67462145D01*
X188090500Y-67417779D01*
X188090500Y-66572940D01*
X188110185Y-66505901D01*
X188126819Y-66485259D01*
X191536787Y-63075291D01*
X191536789Y-63075289D01*
X191556843Y-63045276D01*
X191624394Y-62944179D01*
X191684737Y-62798497D01*
X191715500Y-62643842D01*
X191715500Y-54371158D01*
X191715500Y-54371155D01*
X191715499Y-54371153D01*
X191684738Y-54216510D01*
X191684737Y-54216503D01*
X191684735Y-54216498D01*
X191624397Y-54070827D01*
X191624390Y-54070814D01*
X191536789Y-53939711D01*
X191536786Y-53939707D01*
X191425292Y-53828213D01*
X191425288Y-53828210D01*
X191294185Y-53740609D01*
X191294172Y-53740602D01*
X191148501Y-53680264D01*
X191148489Y-53680261D01*
X190993845Y-53649500D01*
X190993842Y-53649500D01*
X130879604Y-53649500D01*
X130832155Y-53640062D01*
X130808497Y-53630263D01*
X130808493Y-53630262D01*
X130808488Y-53630260D01*
X130653845Y-53599500D01*
X130653842Y-53599500D01*
X130496158Y-53599500D01*
X130496155Y-53599500D01*
X130341511Y-53630260D01*
X130341506Y-53630262D01*
X130341504Y-53630262D01*
X130341503Y-53630263D01*
X130317844Y-53640062D01*
X130270396Y-53649500D01*
X120879604Y-53649500D01*
X120832155Y-53640062D01*
X120808497Y-53630263D01*
X120808493Y-53630262D01*
X120808488Y-53630260D01*
X120653845Y-53599500D01*
X120653842Y-53599500D01*
X120496158Y-53599500D01*
X120496155Y-53599500D01*
X120341511Y-53630260D01*
X120341506Y-53630262D01*
X120341504Y-53630262D01*
X120341503Y-53630263D01*
X120317844Y-53640062D01*
X120270396Y-53649500D01*
X110581155Y-53649500D01*
X110426510Y-53680261D01*
X110426498Y-53680264D01*
X110280827Y-53740602D01*
X110280814Y-53740609D01*
X110149711Y-53828210D01*
X110149707Y-53828213D01*
X110038213Y-53939707D01*
X110038210Y-53939711D01*
X109950609Y-54070814D01*
X109950602Y-54070827D01*
X109890264Y-54216498D01*
X109890261Y-54216510D01*
X109859500Y-54371153D01*
X100500500Y-54371153D01*
X100500500Y-50624500D01*
X100520185Y-50557461D01*
X100572989Y-50511706D01*
X100624500Y-50500500D01*
X199375500Y-50500500D01*
X199442539Y-50520185D01*
G37*
%TD.AperFunction*%
%TD*%
%TA.AperFunction,Conductor*%
%TO.N,GND*%
G36*
X199442539Y-75520185D02*
G01*
X199488294Y-75572989D01*
X199499500Y-75624500D01*
X199499500Y-98375500D01*
X199479815Y-98442539D01*
X199427011Y-98488294D01*
X199375500Y-98499500D01*
X190297242Y-98499500D01*
X190230203Y-98479815D01*
X190184448Y-98427011D01*
X190174504Y-98357853D01*
X190175625Y-98351309D01*
X190209999Y-98178495D01*
X190210000Y-98178492D01*
X190210000Y-97930000D01*
X189510000Y-97930000D01*
X189510000Y-97430000D01*
X190210000Y-97430000D01*
X190210000Y-97181508D01*
X190209999Y-97181504D01*
X190171572Y-96988318D01*
X190171569Y-96988306D01*
X190096192Y-96806328D01*
X190096185Y-96806315D01*
X189986751Y-96642537D01*
X189986748Y-96642533D01*
X189847466Y-96503251D01*
X189847462Y-96503248D01*
X189683684Y-96393814D01*
X189683671Y-96393807D01*
X189501691Y-96318429D01*
X189501683Y-96318427D01*
X189460000Y-96310135D01*
X189460000Y-97113011D01*
X189450060Y-97095795D01*
X189394205Y-97039940D01*
X189325796Y-97000444D01*
X189249496Y-96980000D01*
X189170504Y-96980000D01*
X189094204Y-97000444D01*
X189025795Y-97039940D01*
X188969940Y-97095795D01*
X188960000Y-97113011D01*
X188960000Y-96310136D01*
X188959999Y-96310135D01*
X188918316Y-96318427D01*
X188918308Y-96318429D01*
X188736328Y-96393807D01*
X188736315Y-96393814D01*
X188572537Y-96503248D01*
X188572533Y-96503251D01*
X188433251Y-96642533D01*
X188433248Y-96642537D01*
X188323814Y-96806315D01*
X188323807Y-96806328D01*
X188248430Y-96988306D01*
X188248427Y-96988318D01*
X188210000Y-97181504D01*
X188210000Y-97430000D01*
X188910000Y-97430000D01*
X188910000Y-97930000D01*
X188210000Y-97930000D01*
X188210000Y-98178495D01*
X188244375Y-98351309D01*
X188238148Y-98420900D01*
X188195285Y-98476078D01*
X188129395Y-98499322D01*
X188122758Y-98499500D01*
X181657242Y-98499500D01*
X181590203Y-98479815D01*
X181544448Y-98427011D01*
X181534504Y-98357853D01*
X181535625Y-98351309D01*
X181569999Y-98178495D01*
X181570000Y-98178492D01*
X181570000Y-97930000D01*
X180870000Y-97930000D01*
X180870000Y-97430000D01*
X181570000Y-97430000D01*
X181570000Y-97181508D01*
X181569999Y-97181504D01*
X181531572Y-96988318D01*
X181531569Y-96988306D01*
X181456192Y-96806328D01*
X181456185Y-96806315D01*
X181346751Y-96642537D01*
X181346748Y-96642533D01*
X181207466Y-96503251D01*
X181207462Y-96503248D01*
X181043684Y-96393814D01*
X181043671Y-96393807D01*
X180861691Y-96318429D01*
X180861683Y-96318427D01*
X180820000Y-96310135D01*
X180820000Y-97113011D01*
X180810060Y-97095795D01*
X180754205Y-97039940D01*
X180685796Y-97000444D01*
X180609496Y-96980000D01*
X180530504Y-96980000D01*
X180454204Y-97000444D01*
X180385795Y-97039940D01*
X180329940Y-97095795D01*
X180320000Y-97113011D01*
X180320000Y-96310136D01*
X180319999Y-96310135D01*
X180278316Y-96318427D01*
X180278308Y-96318429D01*
X180096328Y-96393807D01*
X180096315Y-96393814D01*
X179932537Y-96503248D01*
X179932533Y-96503251D01*
X179793251Y-96642533D01*
X179793248Y-96642537D01*
X179683814Y-96806315D01*
X179683807Y-96806328D01*
X179608430Y-96988306D01*
X179608427Y-96988318D01*
X179570000Y-97181504D01*
X179570000Y-97430000D01*
X180270000Y-97430000D01*
X180270000Y-97930000D01*
X179570000Y-97930000D01*
X179570000Y-98178495D01*
X179604375Y-98351309D01*
X179598148Y-98420900D01*
X179555285Y-98476078D01*
X179489395Y-98499322D01*
X179482758Y-98499500D01*
X100624500Y-98499500D01*
X100557461Y-98479815D01*
X100511706Y-98427011D01*
X100500500Y-98375500D01*
X100500500Y-79371153D01*
X109859500Y-79371153D01*
X109859500Y-79528846D01*
X109890261Y-79683489D01*
X109890264Y-79683501D01*
X109950602Y-79829172D01*
X109950609Y-79829185D01*
X110038210Y-79960288D01*
X110038213Y-79960292D01*
X110149707Y-80071786D01*
X110149711Y-80071789D01*
X110280814Y-80159390D01*
X110280827Y-80159397D01*
X110426498Y-80219735D01*
X110426503Y-80219737D01*
X110581153Y-80250499D01*
X110581156Y-80250500D01*
X110581158Y-80250500D01*
X140440396Y-80250500D01*
X140487844Y-80259937D01*
X140511503Y-80269737D01*
X140511508Y-80269738D01*
X140511511Y-80269739D01*
X140666153Y-80300499D01*
X140666156Y-80300500D01*
X140666158Y-80300500D01*
X140823844Y-80300500D01*
X140823845Y-80300499D01*
X140900152Y-80285320D01*
X140978488Y-80269739D01*
X140978489Y-80269738D01*
X140978497Y-80269737D01*
X141002155Y-80259937D01*
X141049604Y-80250500D01*
X150581158Y-80250500D01*
X150738842Y-80250500D01*
X160270396Y-80250500D01*
X160317844Y-80259937D01*
X160341503Y-80269737D01*
X160341508Y-80269738D01*
X160341511Y-80269739D01*
X160496153Y-80300499D01*
X160496156Y-80300500D01*
X160496158Y-80300500D01*
X160653844Y-80300500D01*
X160653845Y-80300499D01*
X160730152Y-80285320D01*
X160808488Y-80269739D01*
X160808489Y-80269738D01*
X160808497Y-80269737D01*
X160832155Y-80259937D01*
X160879604Y-80250500D01*
X170581158Y-80250500D01*
X170738842Y-80250500D01*
X180666158Y-80250500D01*
X180823842Y-80250500D01*
X189990500Y-80250500D01*
X190057539Y-80270185D01*
X190103294Y-80322989D01*
X190114500Y-80374500D01*
X190114500Y-87182060D01*
X190094815Y-87249099D01*
X190078181Y-87269741D01*
X186779711Y-90568211D01*
X186723960Y-90623962D01*
X186668209Y-90679712D01*
X186580609Y-90810814D01*
X186580602Y-90810827D01*
X186520264Y-90956498D01*
X186520261Y-90956510D01*
X186489500Y-91111153D01*
X186489500Y-92000500D01*
X186469815Y-92067539D01*
X186417011Y-92113294D01*
X186365500Y-92124500D01*
X183414500Y-92124500D01*
X183347461Y-92104815D01*
X183301706Y-92052011D01*
X183290500Y-92000500D01*
X183290500Y-90558658D01*
X183285691Y-90534480D01*
X183285691Y-90534478D01*
X183285691Y-90534477D01*
X183259739Y-90404010D01*
X183259738Y-90404003D01*
X183199394Y-90258321D01*
X183199392Y-90258318D01*
X183199390Y-90258314D01*
X183111789Y-90127211D01*
X183111786Y-90127207D01*
X178427792Y-85443213D01*
X178427788Y-85443210D01*
X178296685Y-85355609D01*
X178296672Y-85355602D01*
X178151001Y-85295264D01*
X178150989Y-85295261D01*
X177996345Y-85264500D01*
X177996342Y-85264500D01*
X173826158Y-85264500D01*
X173826155Y-85264500D01*
X173671510Y-85295261D01*
X173671498Y-85295264D01*
X173525827Y-85355602D01*
X173525814Y-85355609D01*
X173394711Y-85443210D01*
X173394707Y-85443213D01*
X173283213Y-85554707D01*
X173283210Y-85554711D01*
X173195609Y-85685814D01*
X173195602Y-85685827D01*
X173135264Y-85831498D01*
X173135261Y-85831510D01*
X173104500Y-85986153D01*
X173104500Y-86143846D01*
X173135261Y-86298489D01*
X173135264Y-86298501D01*
X173195602Y-86444172D01*
X173195609Y-86444185D01*
X173283210Y-86575288D01*
X173283213Y-86575292D01*
X173394707Y-86686786D01*
X173394711Y-86686789D01*
X173525814Y-86774390D01*
X173525827Y-86774397D01*
X173671498Y-86834735D01*
X173671503Y-86834737D01*
X173826153Y-86865499D01*
X173826156Y-86865500D01*
X173826158Y-86865500D01*
X177534560Y-86865500D01*
X177601599Y-86885185D01*
X177622241Y-86901819D01*
X179271615Y-88551193D01*
X179305100Y-88612516D01*
X179300116Y-88682208D01*
X179258244Y-88738141D01*
X179208126Y-88760491D01*
X179159008Y-88770261D01*
X179158998Y-88770264D01*
X179013327Y-88830602D01*
X179013314Y-88830609D01*
X178882211Y-88918210D01*
X178882207Y-88918213D01*
X178770713Y-89029707D01*
X178770710Y-89029711D01*
X178683109Y-89160814D01*
X178683102Y-89160827D01*
X178622764Y-89306498D01*
X178622761Y-89306508D01*
X178591861Y-89461850D01*
X178559476Y-89523761D01*
X178557925Y-89525339D01*
X177705084Y-90378181D01*
X177643761Y-90411666D01*
X177617403Y-90414500D01*
X171944766Y-90414500D01*
X171877727Y-90394815D01*
X171875875Y-90393602D01*
X171744185Y-90305609D01*
X171744172Y-90305602D01*
X171598501Y-90245264D01*
X171598489Y-90245261D01*
X171443845Y-90214500D01*
X171443842Y-90214500D01*
X171286158Y-90214500D01*
X171286155Y-90214500D01*
X171131510Y-90245261D01*
X171131498Y-90245264D01*
X170985827Y-90305602D01*
X170985814Y-90305609D01*
X170854711Y-90393210D01*
X170854707Y-90393213D01*
X170743213Y-90504707D01*
X170743210Y-90504711D01*
X170655609Y-90635814D01*
X170655602Y-90635827D01*
X170595264Y-90781498D01*
X170595261Y-90781510D01*
X170564500Y-90936153D01*
X170564500Y-91093846D01*
X170595261Y-91248489D01*
X170595264Y-91248501D01*
X170655602Y-91394172D01*
X170655609Y-91394185D01*
X170743210Y-91525288D01*
X170743213Y-91525292D01*
X170854707Y-91636786D01*
X170854711Y-91636789D01*
X170985814Y-91724390D01*
X170985827Y-91724397D01*
X171131498Y-91784735D01*
X171131503Y-91784737D01*
X171286153Y-91815499D01*
X171286156Y-91815500D01*
X171286158Y-91815500D01*
X171443844Y-91815500D01*
X171443845Y-91815499D01*
X171598497Y-91784737D01*
X171744179Y-91724394D01*
X171744185Y-91724390D01*
X171875875Y-91636398D01*
X171942553Y-91615520D01*
X171944766Y-91615500D01*
X177830831Y-91615500D01*
X177830847Y-91615501D01*
X177838443Y-91615501D01*
X177996554Y-91615501D01*
X177996557Y-91615501D01*
X178149285Y-91574577D01*
X178199404Y-91545639D01*
X178286216Y-91495520D01*
X178398020Y-91383716D01*
X178398020Y-91383714D01*
X178408228Y-91373507D01*
X178408229Y-91373504D01*
X179407162Y-90374572D01*
X179468483Y-90341089D01*
X179470650Y-90340638D01*
X179528585Y-90329113D01*
X179625997Y-90309737D01*
X179771679Y-90249394D01*
X179902789Y-90161789D01*
X180014289Y-90050289D01*
X180101894Y-89919179D01*
X180162237Y-89773497D01*
X180172008Y-89724371D01*
X180204392Y-89662464D01*
X180265107Y-89627889D01*
X180334877Y-89631628D01*
X180381306Y-89660884D01*
X181653181Y-90932759D01*
X181686666Y-90994082D01*
X181689500Y-91020440D01*
X181689500Y-92417779D01*
X181669815Y-92484818D01*
X181617011Y-92530573D01*
X181547853Y-92540517D01*
X181484297Y-92511492D01*
X181460019Y-92481089D01*
X181459574Y-92481387D01*
X181346751Y-92312537D01*
X181346748Y-92312533D01*
X181207466Y-92173251D01*
X181207462Y-92173248D01*
X181043684Y-92063814D01*
X181043671Y-92063807D01*
X180861691Y-91988429D01*
X180861683Y-91988427D01*
X180820000Y-91980135D01*
X180820000Y-92783011D01*
X180810060Y-92765795D01*
X180754205Y-92709940D01*
X180685796Y-92670444D01*
X180609496Y-92650000D01*
X180530504Y-92650000D01*
X180454204Y-92670444D01*
X180385795Y-92709940D01*
X180329940Y-92765795D01*
X180320000Y-92783011D01*
X180320000Y-91980136D01*
X180319999Y-91980135D01*
X180278316Y-91988427D01*
X180278308Y-91988429D01*
X180096328Y-92063807D01*
X180096315Y-92063814D01*
X179932537Y-92173248D01*
X179932533Y-92173251D01*
X179793251Y-92312533D01*
X179793248Y-92312537D01*
X179683814Y-92476315D01*
X179683807Y-92476328D01*
X179608430Y-92658306D01*
X179608427Y-92658318D01*
X179570000Y-92851504D01*
X179570000Y-93250000D01*
X180270000Y-93250000D01*
X180270000Y-93750000D01*
X179570000Y-93750000D01*
X179570000Y-94148495D01*
X179608427Y-94341681D01*
X179608430Y-94341693D01*
X179683807Y-94523671D01*
X179683814Y-94523684D01*
X179793248Y-94687462D01*
X179793251Y-94687466D01*
X179932533Y-94826748D01*
X179932537Y-94826751D01*
X180096315Y-94936185D01*
X180096328Y-94936192D01*
X180278308Y-95011569D01*
X180320000Y-95019862D01*
X180320000Y-94216988D01*
X180329940Y-94234205D01*
X180385795Y-94290060D01*
X180454204Y-94329556D01*
X180530504Y-94350000D01*
X180609496Y-94350000D01*
X180685796Y-94329556D01*
X180754205Y-94290060D01*
X180810060Y-94234205D01*
X180820000Y-94216988D01*
X180820000Y-95019862D01*
X180861690Y-95011569D01*
X180861692Y-95011569D01*
X181043671Y-94936192D01*
X181043684Y-94936185D01*
X181207462Y-94826751D01*
X181207466Y-94826748D01*
X181346748Y-94687466D01*
X181346751Y-94687462D01*
X181456185Y-94523684D01*
X181456186Y-94523682D01*
X181460129Y-94514163D01*
X181503968Y-94459757D01*
X181570261Y-94437689D01*
X181637961Y-94454965D01*
X181643400Y-94458647D01*
X181646634Y-94460514D01*
X181646635Y-94460515D01*
X181777865Y-94536281D01*
X181924234Y-94575500D01*
X181924236Y-94575500D01*
X182075764Y-94575500D01*
X182075766Y-94575500D01*
X182222135Y-94536281D01*
X182353365Y-94460515D01*
X182460515Y-94353365D01*
X182536281Y-94222135D01*
X182575500Y-94075766D01*
X182575500Y-93924234D01*
X182564074Y-93881591D01*
X182565737Y-93811744D01*
X182604899Y-93753881D01*
X182669128Y-93726377D01*
X182683849Y-93725500D01*
X187096151Y-93725500D01*
X187163190Y-93745185D01*
X187208945Y-93797989D01*
X187218889Y-93867147D01*
X187215928Y-93881581D01*
X187204500Y-93924234D01*
X187204500Y-93924236D01*
X187204500Y-94075765D01*
X187243719Y-94222136D01*
X187281602Y-94287750D01*
X187319485Y-94353365D01*
X187426635Y-94460515D01*
X187557865Y-94536281D01*
X187704234Y-94575500D01*
X187704236Y-94575500D01*
X187855764Y-94575500D01*
X187855766Y-94575500D01*
X188002135Y-94536281D01*
X188133365Y-94460515D01*
X188133366Y-94460513D01*
X188140403Y-94456451D01*
X188141676Y-94458656D01*
X188194956Y-94438043D01*
X188263405Y-94452063D01*
X188313407Y-94500864D01*
X188319867Y-94514157D01*
X188323809Y-94523674D01*
X188323814Y-94523684D01*
X188433248Y-94687462D01*
X188433251Y-94687466D01*
X188572533Y-94826748D01*
X188572537Y-94826751D01*
X188736315Y-94936185D01*
X188736328Y-94936192D01*
X188918308Y-95011569D01*
X188960000Y-95019862D01*
X188960000Y-94216988D01*
X188969940Y-94234205D01*
X189025795Y-94290060D01*
X189094204Y-94329556D01*
X189170504Y-94350000D01*
X189249496Y-94350000D01*
X189325796Y-94329556D01*
X189394205Y-94290060D01*
X189450060Y-94234205D01*
X189460000Y-94216988D01*
X189460000Y-95019862D01*
X189501690Y-95011569D01*
X189501692Y-95011569D01*
X189683671Y-94936192D01*
X189683684Y-94936185D01*
X189847462Y-94826751D01*
X189847466Y-94826748D01*
X189986748Y-94687466D01*
X189986751Y-94687462D01*
X190096185Y-94523684D01*
X190096192Y-94523671D01*
X190171569Y-94341693D01*
X190171572Y-94341681D01*
X190209999Y-94148495D01*
X190210000Y-94148492D01*
X190210000Y-93750000D01*
X189510000Y-93750000D01*
X189510000Y-93250000D01*
X190210000Y-93250000D01*
X190210000Y-92851508D01*
X190209999Y-92851504D01*
X190171572Y-92658318D01*
X190171569Y-92658306D01*
X190096192Y-92476328D01*
X190096185Y-92476315D01*
X189986751Y-92312537D01*
X189986748Y-92312533D01*
X189847466Y-92173251D01*
X189847462Y-92173248D01*
X189683684Y-92063814D01*
X189683671Y-92063807D01*
X189501691Y-91988429D01*
X189501683Y-91988427D01*
X189460000Y-91980135D01*
X189460000Y-92783011D01*
X189450060Y-92765795D01*
X189394205Y-92709940D01*
X189325796Y-92670444D01*
X189249496Y-92650000D01*
X189170504Y-92650000D01*
X189094204Y-92670444D01*
X189025795Y-92709940D01*
X188969940Y-92765795D01*
X188960000Y-92783011D01*
X188960000Y-91980136D01*
X188959999Y-91980135D01*
X188918316Y-91988427D01*
X188918308Y-91988429D01*
X188736328Y-92063807D01*
X188736315Y-92063814D01*
X188572537Y-92173248D01*
X188572533Y-92173251D01*
X188433251Y-92312533D01*
X188433248Y-92312537D01*
X188320426Y-92481387D01*
X188319441Y-92480729D01*
X188274893Y-92526078D01*
X188206755Y-92541537D01*
X188141076Y-92517703D01*
X188098708Y-92462145D01*
X188090500Y-92417779D01*
X188090500Y-91572940D01*
X188110185Y-91505901D01*
X188126819Y-91485259D01*
X191536787Y-88075291D01*
X191536789Y-88075289D01*
X191556843Y-88045276D01*
X191624394Y-87944179D01*
X191684737Y-87798497D01*
X191715500Y-87643842D01*
X191715500Y-79371158D01*
X191715500Y-79371155D01*
X191715499Y-79371153D01*
X191684738Y-79216510D01*
X191684737Y-79216503D01*
X191684735Y-79216498D01*
X191624397Y-79070827D01*
X191624390Y-79070814D01*
X191536789Y-78939711D01*
X191536786Y-78939707D01*
X191425292Y-78828213D01*
X191425288Y-78828210D01*
X191294185Y-78740609D01*
X191294172Y-78740602D01*
X191148501Y-78680264D01*
X191148489Y-78680261D01*
X190993845Y-78649500D01*
X190993842Y-78649500D01*
X130879604Y-78649500D01*
X130832155Y-78640062D01*
X130808497Y-78630263D01*
X130808493Y-78630262D01*
X130808488Y-78630260D01*
X130653845Y-78599500D01*
X130653842Y-78599500D01*
X130496158Y-78599500D01*
X130496155Y-78599500D01*
X130341511Y-78630260D01*
X130341506Y-78630262D01*
X130341504Y-78630262D01*
X130341503Y-78630263D01*
X130317844Y-78640062D01*
X130270396Y-78649500D01*
X120879604Y-78649500D01*
X120832155Y-78640062D01*
X120808497Y-78630263D01*
X120808493Y-78630262D01*
X120808488Y-78630260D01*
X120653845Y-78599500D01*
X120653842Y-78599500D01*
X120496158Y-78599500D01*
X120496155Y-78599500D01*
X120341511Y-78630260D01*
X120341506Y-78630262D01*
X120341504Y-78630262D01*
X120341503Y-78630263D01*
X120317844Y-78640062D01*
X120270396Y-78649500D01*
X110581155Y-78649500D01*
X110426510Y-78680261D01*
X110426498Y-78680264D01*
X110280827Y-78740602D01*
X110280814Y-78740609D01*
X110149711Y-78828210D01*
X110149707Y-78828213D01*
X110038213Y-78939707D01*
X110038210Y-78939711D01*
X109950609Y-79070814D01*
X109950602Y-79070827D01*
X109890264Y-79216498D01*
X109890261Y-79216510D01*
X109859500Y-79371153D01*
X100500500Y-79371153D01*
X100500500Y-75624500D01*
X100520185Y-75557461D01*
X100572989Y-75511706D01*
X100624500Y-75500500D01*
X199375500Y-75500500D01*
X199442539Y-75520185D01*
G37*
%TD.AperFunction*%
%TD*%
%TA.AperFunction,Conductor*%
%TO.N,GND*%
G36*
X199442539Y-100520185D02*
G01*
X199488294Y-100572989D01*
X199499500Y-100624500D01*
X199499500Y-123375500D01*
X199479815Y-123442539D01*
X199427011Y-123488294D01*
X199375500Y-123499500D01*
X190297242Y-123499500D01*
X190230203Y-123479815D01*
X190184448Y-123427011D01*
X190174504Y-123357853D01*
X190175625Y-123351309D01*
X190209999Y-123178495D01*
X190210000Y-123178492D01*
X190210000Y-122930000D01*
X189510000Y-122930000D01*
X189510000Y-122430000D01*
X190210000Y-122430000D01*
X190210000Y-122181508D01*
X190209999Y-122181504D01*
X190171572Y-121988318D01*
X190171569Y-121988306D01*
X190096192Y-121806328D01*
X190096185Y-121806315D01*
X189986751Y-121642537D01*
X189986748Y-121642533D01*
X189847466Y-121503251D01*
X189847462Y-121503248D01*
X189683684Y-121393814D01*
X189683671Y-121393807D01*
X189501691Y-121318429D01*
X189501683Y-121318427D01*
X189460000Y-121310135D01*
X189460000Y-122113011D01*
X189450060Y-122095795D01*
X189394205Y-122039940D01*
X189325796Y-122000444D01*
X189249496Y-121980000D01*
X189170504Y-121980000D01*
X189094204Y-122000444D01*
X189025795Y-122039940D01*
X188969940Y-122095795D01*
X188960000Y-122113011D01*
X188960000Y-121310136D01*
X188959999Y-121310135D01*
X188918316Y-121318427D01*
X188918308Y-121318429D01*
X188736328Y-121393807D01*
X188736315Y-121393814D01*
X188572537Y-121503248D01*
X188572533Y-121503251D01*
X188433251Y-121642533D01*
X188433248Y-121642537D01*
X188323814Y-121806315D01*
X188323807Y-121806328D01*
X188248430Y-121988306D01*
X188248427Y-121988318D01*
X188210000Y-122181504D01*
X188210000Y-122430000D01*
X188910000Y-122430000D01*
X188910000Y-122930000D01*
X188210000Y-122930000D01*
X188210000Y-123178495D01*
X188244375Y-123351309D01*
X188238148Y-123420900D01*
X188195285Y-123476078D01*
X188129395Y-123499322D01*
X188122758Y-123499500D01*
X181657242Y-123499500D01*
X181590203Y-123479815D01*
X181544448Y-123427011D01*
X181534504Y-123357853D01*
X181535625Y-123351309D01*
X181569999Y-123178495D01*
X181570000Y-123178492D01*
X181570000Y-122930000D01*
X180870000Y-122930000D01*
X180870000Y-122430000D01*
X181570000Y-122430000D01*
X181570000Y-122181508D01*
X181569999Y-122181504D01*
X181531572Y-121988318D01*
X181531569Y-121988306D01*
X181456192Y-121806328D01*
X181456185Y-121806315D01*
X181346751Y-121642537D01*
X181346748Y-121642533D01*
X181207466Y-121503251D01*
X181207462Y-121503248D01*
X181043684Y-121393814D01*
X181043671Y-121393807D01*
X180861691Y-121318429D01*
X180861683Y-121318427D01*
X180820000Y-121310135D01*
X180820000Y-122113011D01*
X180810060Y-122095795D01*
X180754205Y-122039940D01*
X180685796Y-122000444D01*
X180609496Y-121980000D01*
X180530504Y-121980000D01*
X180454204Y-122000444D01*
X180385795Y-122039940D01*
X180329940Y-122095795D01*
X180320000Y-122113011D01*
X180320000Y-121310136D01*
X180319999Y-121310135D01*
X180278316Y-121318427D01*
X180278308Y-121318429D01*
X180096328Y-121393807D01*
X180096315Y-121393814D01*
X179932537Y-121503248D01*
X179932533Y-121503251D01*
X179793251Y-121642533D01*
X179793248Y-121642537D01*
X179683814Y-121806315D01*
X179683807Y-121806328D01*
X179608430Y-121988306D01*
X179608427Y-121988318D01*
X179570000Y-122181504D01*
X179570000Y-122430000D01*
X180270000Y-122430000D01*
X180270000Y-122930000D01*
X179570000Y-122930000D01*
X179570000Y-123178495D01*
X179604375Y-123351309D01*
X179598148Y-123420900D01*
X179555285Y-123476078D01*
X179489395Y-123499322D01*
X179482758Y-123499500D01*
X100624500Y-123499500D01*
X100557461Y-123479815D01*
X100511706Y-123427011D01*
X100500500Y-123375500D01*
X100500500Y-104371153D01*
X109859500Y-104371153D01*
X109859500Y-104528846D01*
X109890261Y-104683489D01*
X109890264Y-104683501D01*
X109950602Y-104829172D01*
X109950609Y-104829185D01*
X110038210Y-104960288D01*
X110038213Y-104960292D01*
X110149707Y-105071786D01*
X110149711Y-105071789D01*
X110280814Y-105159390D01*
X110280827Y-105159397D01*
X110426498Y-105219735D01*
X110426503Y-105219737D01*
X110581153Y-105250499D01*
X110581156Y-105250500D01*
X110581158Y-105250500D01*
X140440396Y-105250500D01*
X140487844Y-105259937D01*
X140511503Y-105269737D01*
X140511508Y-105269738D01*
X140511511Y-105269739D01*
X140666153Y-105300499D01*
X140666156Y-105300500D01*
X140666158Y-105300500D01*
X140823844Y-105300500D01*
X140823845Y-105300499D01*
X140900152Y-105285320D01*
X140978488Y-105269739D01*
X140978489Y-105269738D01*
X140978497Y-105269737D01*
X141002155Y-105259937D01*
X141049604Y-105250500D01*
X150581158Y-105250500D01*
X150738842Y-105250500D01*
X160270396Y-105250500D01*
X160317844Y-105259937D01*
X160341503Y-105269737D01*
X160341508Y-105269738D01*
X160341511Y-105269739D01*
X160496153Y-105300499D01*
X160496156Y-105300500D01*
X160496158Y-105300500D01*
X160653844Y-105300500D01*
X160653845Y-105300499D01*
X160730152Y-105285320D01*
X160808488Y-105269739D01*
X160808489Y-105269738D01*
X160808497Y-105269737D01*
X160832155Y-105259937D01*
X160879604Y-105250500D01*
X170581158Y-105250500D01*
X170738842Y-105250500D01*
X180666158Y-105250500D01*
X180823842Y-105250500D01*
X189990500Y-105250500D01*
X190057539Y-105270185D01*
X190103294Y-105322989D01*
X190114500Y-105374500D01*
X190114500Y-112182060D01*
X190094815Y-112249099D01*
X190078181Y-112269741D01*
X186779711Y-115568211D01*
X186723960Y-115623962D01*
X186668209Y-115679712D01*
X186580609Y-115810814D01*
X186580602Y-115810827D01*
X186520264Y-115956498D01*
X186520261Y-115956510D01*
X186489500Y-116111153D01*
X186489500Y-117000500D01*
X186469815Y-117067539D01*
X186417011Y-117113294D01*
X186365500Y-117124500D01*
X183414500Y-117124500D01*
X183347461Y-117104815D01*
X183301706Y-117052011D01*
X183290500Y-117000500D01*
X183290500Y-115558658D01*
X183285691Y-115534480D01*
X183285691Y-115534478D01*
X183285691Y-115534477D01*
X183259739Y-115404010D01*
X183259738Y-115404003D01*
X183199394Y-115258321D01*
X183199392Y-115258318D01*
X183199390Y-115258314D01*
X183111789Y-115127211D01*
X183111786Y-115127207D01*
X178427792Y-110443213D01*
X178427788Y-110443210D01*
X178296685Y-110355609D01*
X178296672Y-110355602D01*
X178151001Y-110295264D01*
X178150989Y-110295261D01*
X177996345Y-110264500D01*
X177996342Y-110264500D01*
X173826158Y-110264500D01*
X173826155Y-110264500D01*
X173671510Y-110295261D01*
X173671498Y-110295264D01*
X173525827Y-110355602D01*
X173525814Y-110355609D01*
X173394711Y-110443210D01*
X173394707Y-110443213D01*
X173283213Y-110554707D01*
X173283210Y-110554711D01*
X173195609Y-110685814D01*
X173195602Y-110685827D01*
X173135264Y-110831498D01*
X173135261Y-110831510D01*
X173104500Y-110986153D01*
X173104500Y-111143846D01*
X173135261Y-111298489D01*
X173135264Y-111298501D01*
X173195602Y-111444172D01*
X173195609Y-111444185D01*
X173283210Y-111575288D01*
X173283213Y-111575292D01*
X173394707Y-111686786D01*
X173394711Y-111686789D01*
X173525814Y-111774390D01*
X173525827Y-111774397D01*
X173671498Y-111834735D01*
X173671503Y-111834737D01*
X173826153Y-111865499D01*
X173826156Y-111865500D01*
X173826158Y-111865500D01*
X177534560Y-111865500D01*
X177601599Y-111885185D01*
X177622241Y-111901819D01*
X179271615Y-113551193D01*
X179305100Y-113612516D01*
X179300116Y-113682208D01*
X179258244Y-113738141D01*
X179208126Y-113760491D01*
X179159008Y-113770261D01*
X179158998Y-113770264D01*
X179013327Y-113830602D01*
X179013314Y-113830609D01*
X178882211Y-113918210D01*
X178882207Y-113918213D01*
X178770713Y-114029707D01*
X178770710Y-114029711D01*
X178683109Y-114160814D01*
X178683102Y-114160827D01*
X178622764Y-114306498D01*
X178622761Y-114306508D01*
X178591861Y-114461850D01*
X178559476Y-114523761D01*
X178557925Y-114525339D01*
X177705084Y-115378181D01*
X177643761Y-115411666D01*
X177617403Y-115414500D01*
X171944766Y-115414500D01*
X171877727Y-115394815D01*
X171875875Y-115393602D01*
X171744185Y-115305609D01*
X171744172Y-115305602D01*
X171598501Y-115245264D01*
X171598489Y-115245261D01*
X171443845Y-115214500D01*
X171443842Y-115214500D01*
X171286158Y-115214500D01*
X171286155Y-115214500D01*
X171131510Y-115245261D01*
X171131498Y-115245264D01*
X170985827Y-115305602D01*
X170985814Y-115305609D01*
X170854711Y-115393210D01*
X170854707Y-115393213D01*
X170743213Y-115504707D01*
X170743210Y-115504711D01*
X170655609Y-115635814D01*
X170655602Y-115635827D01*
X170595264Y-115781498D01*
X170595261Y-115781510D01*
X170564500Y-115936153D01*
X170564500Y-116093846D01*
X170595261Y-116248489D01*
X170595264Y-116248501D01*
X170655602Y-116394172D01*
X170655609Y-116394185D01*
X170743210Y-116525288D01*
X170743213Y-116525292D01*
X170854707Y-116636786D01*
X170854711Y-116636789D01*
X170985814Y-116724390D01*
X170985827Y-116724397D01*
X171131498Y-116784735D01*
X171131503Y-116784737D01*
X171286153Y-116815499D01*
X171286156Y-116815500D01*
X171286158Y-116815500D01*
X171443844Y-116815500D01*
X171443845Y-116815499D01*
X171598497Y-116784737D01*
X171744179Y-116724394D01*
X171744185Y-116724390D01*
X171875875Y-116636398D01*
X171942553Y-116615520D01*
X171944766Y-116615500D01*
X177830831Y-116615500D01*
X177830847Y-116615501D01*
X177838443Y-116615501D01*
X177996554Y-116615501D01*
X177996557Y-116615501D01*
X178149285Y-116574577D01*
X178199404Y-116545639D01*
X178286216Y-116495520D01*
X178398020Y-116383716D01*
X178398020Y-116383714D01*
X178408228Y-116373507D01*
X178408229Y-116373504D01*
X179407162Y-115374572D01*
X179468483Y-115341089D01*
X179470650Y-115340638D01*
X179528585Y-115329113D01*
X179625997Y-115309737D01*
X179771679Y-115249394D01*
X179902789Y-115161789D01*
X180014289Y-115050289D01*
X180101894Y-114919179D01*
X180162237Y-114773497D01*
X180172008Y-114724371D01*
X180204392Y-114662464D01*
X180265107Y-114627889D01*
X180334877Y-114631628D01*
X180381306Y-114660884D01*
X181653181Y-115932759D01*
X181686666Y-115994082D01*
X181689500Y-116020440D01*
X181689500Y-117417779D01*
X181669815Y-117484818D01*
X181617011Y-117530573D01*
X181547853Y-117540517D01*
X181484297Y-117511492D01*
X181460019Y-117481089D01*
X181459574Y-117481387D01*
X181346751Y-117312537D01*
X181346748Y-117312533D01*
X181207466Y-117173251D01*
X181207462Y-117173248D01*
X181043684Y-117063814D01*
X181043671Y-117063807D01*
X180861691Y-116988429D01*
X180861683Y-116988427D01*
X180820000Y-116980135D01*
X180820000Y-117783011D01*
X180810060Y-117765795D01*
X180754205Y-117709940D01*
X180685796Y-117670444D01*
X180609496Y-117650000D01*
X180530504Y-117650000D01*
X180454204Y-117670444D01*
X180385795Y-117709940D01*
X180329940Y-117765795D01*
X180320000Y-117783011D01*
X180320000Y-116980136D01*
X180319999Y-116980135D01*
X180278316Y-116988427D01*
X180278308Y-116988429D01*
X180096328Y-117063807D01*
X180096315Y-117063814D01*
X179932537Y-117173248D01*
X179932533Y-117173251D01*
X179793251Y-117312533D01*
X179793248Y-117312537D01*
X179683814Y-117476315D01*
X179683807Y-117476328D01*
X179608430Y-117658306D01*
X179608427Y-117658318D01*
X179570000Y-117851504D01*
X179570000Y-118250000D01*
X180270000Y-118250000D01*
X180270000Y-118750000D01*
X179570000Y-118750000D01*
X179570000Y-119148495D01*
X179608427Y-119341681D01*
X179608430Y-119341693D01*
X179683807Y-119523671D01*
X179683814Y-119523684D01*
X179793248Y-119687462D01*
X179793251Y-119687466D01*
X179932533Y-119826748D01*
X179932537Y-119826751D01*
X180096315Y-119936185D01*
X180096328Y-119936192D01*
X180278308Y-120011569D01*
X180320000Y-120019862D01*
X180320000Y-119216988D01*
X180329940Y-119234205D01*
X180385795Y-119290060D01*
X180454204Y-119329556D01*
X180530504Y-119350000D01*
X180609496Y-119350000D01*
X180685796Y-119329556D01*
X180754205Y-119290060D01*
X180810060Y-119234205D01*
X180820000Y-119216988D01*
X180820000Y-120019862D01*
X180861690Y-120011569D01*
X180861692Y-120011569D01*
X181043671Y-119936192D01*
X181043684Y-119936185D01*
X181207462Y-119826751D01*
X181207466Y-119826748D01*
X181346748Y-119687466D01*
X181346751Y-119687462D01*
X181456185Y-119523684D01*
X181456186Y-119523682D01*
X181460129Y-119514163D01*
X181503968Y-119459757D01*
X181570261Y-119437689D01*
X181637961Y-119454965D01*
X181643400Y-119458647D01*
X181646634Y-119460514D01*
X181646635Y-119460515D01*
X181777865Y-119536281D01*
X181924234Y-119575500D01*
X181924236Y-119575500D01*
X182075764Y-119575500D01*
X182075766Y-119575500D01*
X182222135Y-119536281D01*
X182353365Y-119460515D01*
X182460515Y-119353365D01*
X182536281Y-119222135D01*
X182575500Y-119075766D01*
X182575500Y-118924234D01*
X182564074Y-118881591D01*
X182565737Y-118811744D01*
X182604899Y-118753881D01*
X182669128Y-118726377D01*
X182683849Y-118725500D01*
X187096151Y-118725500D01*
X187163190Y-118745185D01*
X187208945Y-118797989D01*
X187218889Y-118867147D01*
X187215928Y-118881581D01*
X187204500Y-118924234D01*
X187204500Y-118924236D01*
X187204500Y-119075765D01*
X187243719Y-119222136D01*
X187281602Y-119287750D01*
X187319485Y-119353365D01*
X187426635Y-119460515D01*
X187557865Y-119536281D01*
X187704234Y-119575500D01*
X187704236Y-119575500D01*
X187855764Y-119575500D01*
X187855766Y-119575500D01*
X188002135Y-119536281D01*
X188133365Y-119460515D01*
X188133366Y-119460513D01*
X188140403Y-119456451D01*
X188141676Y-119458656D01*
X188194956Y-119438043D01*
X188263405Y-119452063D01*
X188313407Y-119500864D01*
X188319867Y-119514157D01*
X188323809Y-119523674D01*
X188323814Y-119523684D01*
X188433248Y-119687462D01*
X188433251Y-119687466D01*
X188572533Y-119826748D01*
X188572537Y-119826751D01*
X188736315Y-119936185D01*
X188736328Y-119936192D01*
X188918308Y-120011569D01*
X188960000Y-120019862D01*
X188960000Y-119216988D01*
X188969940Y-119234205D01*
X189025795Y-119290060D01*
X189094204Y-119329556D01*
X189170504Y-119350000D01*
X189249496Y-119350000D01*
X189325796Y-119329556D01*
X189394205Y-119290060D01*
X189450060Y-119234205D01*
X189460000Y-119216988D01*
X189460000Y-120019862D01*
X189501690Y-120011569D01*
X189501692Y-120011569D01*
X189683671Y-119936192D01*
X189683684Y-119936185D01*
X189847462Y-119826751D01*
X189847466Y-119826748D01*
X189986748Y-119687466D01*
X189986751Y-119687462D01*
X190096185Y-119523684D01*
X190096192Y-119523671D01*
X190171569Y-119341693D01*
X190171572Y-119341681D01*
X190209999Y-119148495D01*
X190210000Y-119148492D01*
X190210000Y-118750000D01*
X189510000Y-118750000D01*
X189510000Y-118250000D01*
X190210000Y-118250000D01*
X190210000Y-117851508D01*
X190209999Y-117851504D01*
X190171572Y-117658318D01*
X190171569Y-117658306D01*
X190096192Y-117476328D01*
X190096185Y-117476315D01*
X189986751Y-117312537D01*
X189986748Y-117312533D01*
X189847466Y-117173251D01*
X189847462Y-117173248D01*
X189683684Y-117063814D01*
X189683671Y-117063807D01*
X189501691Y-116988429D01*
X189501683Y-116988427D01*
X189460000Y-116980135D01*
X189460000Y-117783011D01*
X189450060Y-117765795D01*
X189394205Y-117709940D01*
X189325796Y-117670444D01*
X189249496Y-117650000D01*
X189170504Y-117650000D01*
X189094204Y-117670444D01*
X189025795Y-117709940D01*
X188969940Y-117765795D01*
X188960000Y-117783011D01*
X188960000Y-116980136D01*
X188959999Y-116980135D01*
X188918316Y-116988427D01*
X188918308Y-116988429D01*
X188736328Y-117063807D01*
X188736315Y-117063814D01*
X188572537Y-117173248D01*
X188572533Y-117173251D01*
X188433251Y-117312533D01*
X188433248Y-117312537D01*
X188320426Y-117481387D01*
X188319441Y-117480729D01*
X188274893Y-117526078D01*
X188206755Y-117541537D01*
X188141076Y-117517703D01*
X188098708Y-117462145D01*
X188090500Y-117417779D01*
X188090500Y-116572940D01*
X188110185Y-116505901D01*
X188126819Y-116485259D01*
X191536787Y-113075291D01*
X191536789Y-113075289D01*
X191556843Y-113045276D01*
X191624394Y-112944179D01*
X191684737Y-112798497D01*
X191715500Y-112643842D01*
X191715500Y-104371158D01*
X191715500Y-104371155D01*
X191715499Y-104371153D01*
X191684738Y-104216510D01*
X191684737Y-104216503D01*
X191684735Y-104216498D01*
X191624397Y-104070827D01*
X191624390Y-104070814D01*
X191536789Y-103939711D01*
X191536786Y-103939707D01*
X191425292Y-103828213D01*
X191425288Y-103828210D01*
X191294185Y-103740609D01*
X191294172Y-103740602D01*
X191148501Y-103680264D01*
X191148489Y-103680261D01*
X190993845Y-103649500D01*
X190993842Y-103649500D01*
X130879604Y-103649500D01*
X130832155Y-103640062D01*
X130808497Y-103630263D01*
X130808493Y-103630262D01*
X130808488Y-103630260D01*
X130653845Y-103599500D01*
X130653842Y-103599500D01*
X130496158Y-103599500D01*
X130496155Y-103599500D01*
X130341511Y-103630260D01*
X130341506Y-103630262D01*
X130341504Y-103630262D01*
X130341503Y-103630263D01*
X130317844Y-103640062D01*
X130270396Y-103649500D01*
X120879604Y-103649500D01*
X120832155Y-103640062D01*
X120808497Y-103630263D01*
X120808493Y-103630262D01*
X120808488Y-103630260D01*
X120653845Y-103599500D01*
X120653842Y-103599500D01*
X120496158Y-103599500D01*
X120496155Y-103599500D01*
X120341511Y-103630260D01*
X120341506Y-103630262D01*
X120341504Y-103630262D01*
X120341503Y-103630263D01*
X120317844Y-103640062D01*
X120270396Y-103649500D01*
X110581155Y-103649500D01*
X110426510Y-103680261D01*
X110426498Y-103680264D01*
X110280827Y-103740602D01*
X110280814Y-103740609D01*
X110149711Y-103828210D01*
X110149707Y-103828213D01*
X110038213Y-103939707D01*
X110038210Y-103939711D01*
X109950609Y-104070814D01*
X109950602Y-104070827D01*
X109890264Y-104216498D01*
X109890261Y-104216510D01*
X109859500Y-104371153D01*
X100500500Y-104371153D01*
X100500500Y-100624500D01*
X100520185Y-100557461D01*
X100572989Y-100511706D01*
X100624500Y-100500500D01*
X199375500Y-100500500D01*
X199442539Y-100520185D01*
G37*
%TD.AperFunction*%
%TD*%
%TA.AperFunction,Conductor*%
%TO.N,GND*%
G36*
X199442539Y-125520185D02*
G01*
X199488294Y-125572989D01*
X199499500Y-125624500D01*
X199499500Y-148375500D01*
X199479815Y-148442539D01*
X199427011Y-148488294D01*
X199375500Y-148499500D01*
X190297242Y-148499500D01*
X190230203Y-148479815D01*
X190184448Y-148427011D01*
X190174504Y-148357853D01*
X190175625Y-148351309D01*
X190209999Y-148178495D01*
X190210000Y-148178492D01*
X190210000Y-147930000D01*
X189510000Y-147930000D01*
X189510000Y-147430000D01*
X190210000Y-147430000D01*
X190210000Y-147181508D01*
X190209999Y-147181504D01*
X190171572Y-146988318D01*
X190171569Y-146988306D01*
X190096192Y-146806328D01*
X190096185Y-146806315D01*
X189986751Y-146642537D01*
X189986748Y-146642533D01*
X189847466Y-146503251D01*
X189847462Y-146503248D01*
X189683684Y-146393814D01*
X189683671Y-146393807D01*
X189501691Y-146318429D01*
X189501683Y-146318427D01*
X189460000Y-146310135D01*
X189460000Y-147113011D01*
X189450060Y-147095795D01*
X189394205Y-147039940D01*
X189325796Y-147000444D01*
X189249496Y-146980000D01*
X189170504Y-146980000D01*
X189094204Y-147000444D01*
X189025795Y-147039940D01*
X188969940Y-147095795D01*
X188960000Y-147113011D01*
X188960000Y-146310136D01*
X188959999Y-146310135D01*
X188918316Y-146318427D01*
X188918308Y-146318429D01*
X188736328Y-146393807D01*
X188736315Y-146393814D01*
X188572537Y-146503248D01*
X188572533Y-146503251D01*
X188433251Y-146642533D01*
X188433248Y-146642537D01*
X188323814Y-146806315D01*
X188323807Y-146806328D01*
X188248430Y-146988306D01*
X188248427Y-146988318D01*
X188210000Y-147181504D01*
X188210000Y-147430000D01*
X188910000Y-147430000D01*
X188910000Y-147930000D01*
X188210000Y-147930000D01*
X188210000Y-148178495D01*
X188244375Y-148351309D01*
X188238148Y-148420900D01*
X188195285Y-148476078D01*
X188129395Y-148499322D01*
X188122758Y-148499500D01*
X181657242Y-148499500D01*
X181590203Y-148479815D01*
X181544448Y-148427011D01*
X181534504Y-148357853D01*
X181535625Y-148351309D01*
X181569999Y-148178495D01*
X181570000Y-148178492D01*
X181570000Y-147930000D01*
X180870000Y-147930000D01*
X180870000Y-147430000D01*
X181570000Y-147430000D01*
X181570000Y-147181508D01*
X181569999Y-147181504D01*
X181531572Y-146988318D01*
X181531569Y-146988306D01*
X181456192Y-146806328D01*
X181456185Y-146806315D01*
X181346751Y-146642537D01*
X181346748Y-146642533D01*
X181207466Y-146503251D01*
X181207462Y-146503248D01*
X181043684Y-146393814D01*
X181043671Y-146393807D01*
X180861691Y-146318429D01*
X180861683Y-146318427D01*
X180820000Y-146310135D01*
X180820000Y-147113011D01*
X180810060Y-147095795D01*
X180754205Y-147039940D01*
X180685796Y-147000444D01*
X180609496Y-146980000D01*
X180530504Y-146980000D01*
X180454204Y-147000444D01*
X180385795Y-147039940D01*
X180329940Y-147095795D01*
X180320000Y-147113011D01*
X180320000Y-146310136D01*
X180319999Y-146310135D01*
X180278316Y-146318427D01*
X180278308Y-146318429D01*
X180096328Y-146393807D01*
X180096315Y-146393814D01*
X179932537Y-146503248D01*
X179932533Y-146503251D01*
X179793251Y-146642533D01*
X179793248Y-146642537D01*
X179683814Y-146806315D01*
X179683807Y-146806328D01*
X179608430Y-146988306D01*
X179608427Y-146988318D01*
X179570000Y-147181504D01*
X179570000Y-147430000D01*
X180270000Y-147430000D01*
X180270000Y-147930000D01*
X179570000Y-147930000D01*
X179570000Y-148178495D01*
X179604375Y-148351309D01*
X179598148Y-148420900D01*
X179555285Y-148476078D01*
X179489395Y-148499322D01*
X179482758Y-148499500D01*
X100624500Y-148499500D01*
X100557461Y-148479815D01*
X100511706Y-148427011D01*
X100500500Y-148375500D01*
X100500500Y-129371153D01*
X109859500Y-129371153D01*
X109859500Y-129528846D01*
X109890261Y-129683489D01*
X109890264Y-129683501D01*
X109950602Y-129829172D01*
X109950609Y-129829185D01*
X110038210Y-129960288D01*
X110038213Y-129960292D01*
X110149707Y-130071786D01*
X110149711Y-130071789D01*
X110280814Y-130159390D01*
X110280827Y-130159397D01*
X110426498Y-130219735D01*
X110426503Y-130219737D01*
X110581153Y-130250499D01*
X110581156Y-130250500D01*
X110581158Y-130250500D01*
X140440396Y-130250500D01*
X140487844Y-130259937D01*
X140511503Y-130269737D01*
X140511508Y-130269738D01*
X140511511Y-130269739D01*
X140666153Y-130300499D01*
X140666156Y-130300500D01*
X140666158Y-130300500D01*
X140823844Y-130300500D01*
X140823845Y-130300499D01*
X140900152Y-130285320D01*
X140978488Y-130269739D01*
X140978489Y-130269738D01*
X140978497Y-130269737D01*
X141002155Y-130259937D01*
X141049604Y-130250500D01*
X150581158Y-130250500D01*
X150738842Y-130250500D01*
X160270396Y-130250500D01*
X160317844Y-130259937D01*
X160341503Y-130269737D01*
X160341508Y-130269738D01*
X160341511Y-130269739D01*
X160496153Y-130300499D01*
X160496156Y-130300500D01*
X160496158Y-130300500D01*
X160653844Y-130300500D01*
X160653845Y-130300499D01*
X160730152Y-130285320D01*
X160808488Y-130269739D01*
X160808489Y-130269738D01*
X160808497Y-130269737D01*
X160832155Y-130259937D01*
X160879604Y-130250500D01*
X170581158Y-130250500D01*
X170738842Y-130250500D01*
X180666158Y-130250500D01*
X180823842Y-130250500D01*
X189990500Y-130250500D01*
X190057539Y-130270185D01*
X190103294Y-130322989D01*
X190114500Y-130374500D01*
X190114500Y-137182060D01*
X190094815Y-137249099D01*
X190078181Y-137269741D01*
X186779711Y-140568211D01*
X186723960Y-140623962D01*
X186668209Y-140679712D01*
X186580609Y-140810814D01*
X186580602Y-140810827D01*
X186520264Y-140956498D01*
X186520261Y-140956510D01*
X186489500Y-141111153D01*
X186489500Y-142000500D01*
X186469815Y-142067539D01*
X186417011Y-142113294D01*
X186365500Y-142124500D01*
X183414500Y-142124500D01*
X183347461Y-142104815D01*
X183301706Y-142052011D01*
X183290500Y-142000500D01*
X183290500Y-140558658D01*
X183285691Y-140534480D01*
X183285691Y-140534478D01*
X183285691Y-140534477D01*
X183259739Y-140404010D01*
X183259738Y-140404003D01*
X183199394Y-140258321D01*
X183199392Y-140258318D01*
X183199390Y-140258314D01*
X183111789Y-140127211D01*
X183111786Y-140127207D01*
X178427792Y-135443213D01*
X178427788Y-135443210D01*
X178296685Y-135355609D01*
X178296672Y-135355602D01*
X178151001Y-135295264D01*
X178150989Y-135295261D01*
X177996345Y-135264500D01*
X177996342Y-135264500D01*
X173826158Y-135264500D01*
X173826155Y-135264500D01*
X173671510Y-135295261D01*
X173671498Y-135295264D01*
X173525827Y-135355602D01*
X173525814Y-135355609D01*
X173394711Y-135443210D01*
X173394707Y-135443213D01*
X173283213Y-135554707D01*
X173283210Y-135554711D01*
X173195609Y-135685814D01*
X173195602Y-135685827D01*
X173135264Y-135831498D01*
X173135261Y-135831510D01*
X173104500Y-135986153D01*
X173104500Y-136143846D01*
X173135261Y-136298489D01*
X173135264Y-136298501D01*
X173195602Y-136444172D01*
X173195609Y-136444185D01*
X173283210Y-136575288D01*
X173283213Y-136575292D01*
X173394707Y-136686786D01*
X173394711Y-136686789D01*
X173525814Y-136774390D01*
X173525827Y-136774397D01*
X173671498Y-136834735D01*
X173671503Y-136834737D01*
X173826153Y-136865499D01*
X173826156Y-136865500D01*
X173826158Y-136865500D01*
X177534560Y-136865500D01*
X177601599Y-136885185D01*
X177622241Y-136901819D01*
X179271615Y-138551193D01*
X179305100Y-138612516D01*
X179300116Y-138682208D01*
X179258244Y-138738141D01*
X179208126Y-138760491D01*
X179159008Y-138770261D01*
X179158998Y-138770264D01*
X179013327Y-138830602D01*
X179013314Y-138830609D01*
X178882211Y-138918210D01*
X178882207Y-138918213D01*
X178770713Y-139029707D01*
X178770710Y-139029711D01*
X178683109Y-139160814D01*
X178683102Y-139160827D01*
X178622764Y-139306498D01*
X178622761Y-139306508D01*
X178591861Y-139461850D01*
X178559476Y-139523761D01*
X178557925Y-139525339D01*
X177705084Y-140378181D01*
X177643761Y-140411666D01*
X177617403Y-140414500D01*
X171944766Y-140414500D01*
X171877727Y-140394815D01*
X171875875Y-140393602D01*
X171744185Y-140305609D01*
X171744172Y-140305602D01*
X171598501Y-140245264D01*
X171598489Y-140245261D01*
X171443845Y-140214500D01*
X171443842Y-140214500D01*
X171286158Y-140214500D01*
X171286155Y-140214500D01*
X171131510Y-140245261D01*
X171131498Y-140245264D01*
X170985827Y-140305602D01*
X170985814Y-140305609D01*
X170854711Y-140393210D01*
X170854707Y-140393213D01*
X170743213Y-140504707D01*
X170743210Y-140504711D01*
X170655609Y-140635814D01*
X170655602Y-140635827D01*
X170595264Y-140781498D01*
X170595261Y-140781510D01*
X170564500Y-140936153D01*
X170564500Y-141093846D01*
X170595261Y-141248489D01*
X170595264Y-141248501D01*
X170655602Y-141394172D01*
X170655609Y-141394185D01*
X170743210Y-141525288D01*
X170743213Y-141525292D01*
X170854707Y-141636786D01*
X170854711Y-141636789D01*
X170985814Y-141724390D01*
X170985827Y-141724397D01*
X171131498Y-141784735D01*
X171131503Y-141784737D01*
X171286153Y-141815499D01*
X171286156Y-141815500D01*
X171286158Y-141815500D01*
X171443844Y-141815500D01*
X171443845Y-141815499D01*
X171598497Y-141784737D01*
X171744179Y-141724394D01*
X171744185Y-141724390D01*
X171875875Y-141636398D01*
X171942553Y-141615520D01*
X171944766Y-141615500D01*
X177830831Y-141615500D01*
X177830847Y-141615501D01*
X177838443Y-141615501D01*
X177996554Y-141615501D01*
X177996557Y-141615501D01*
X178149285Y-141574577D01*
X178199404Y-141545639D01*
X178286216Y-141495520D01*
X178398020Y-141383716D01*
X178398020Y-141383714D01*
X178408228Y-141373507D01*
X178408229Y-141373504D01*
X179407162Y-140374572D01*
X179468483Y-140341089D01*
X179470650Y-140340638D01*
X179528585Y-140329113D01*
X179625997Y-140309737D01*
X179771679Y-140249394D01*
X179902789Y-140161789D01*
X180014289Y-140050289D01*
X180101894Y-139919179D01*
X180162237Y-139773497D01*
X180172008Y-139724371D01*
X180204392Y-139662464D01*
X180265107Y-139627889D01*
X180334877Y-139631628D01*
X180381306Y-139660884D01*
X181653181Y-140932759D01*
X181686666Y-140994082D01*
X181689500Y-141020440D01*
X181689500Y-142417779D01*
X181669815Y-142484818D01*
X181617011Y-142530573D01*
X181547853Y-142540517D01*
X181484297Y-142511492D01*
X181460019Y-142481089D01*
X181459574Y-142481387D01*
X181346751Y-142312537D01*
X181346748Y-142312533D01*
X181207466Y-142173251D01*
X181207462Y-142173248D01*
X181043684Y-142063814D01*
X181043671Y-142063807D01*
X180861691Y-141988429D01*
X180861683Y-141988427D01*
X180820000Y-141980135D01*
X180820000Y-142783011D01*
X180810060Y-142765795D01*
X180754205Y-142709940D01*
X180685796Y-142670444D01*
X180609496Y-142650000D01*
X180530504Y-142650000D01*
X180454204Y-142670444D01*
X180385795Y-142709940D01*
X180329940Y-142765795D01*
X180320000Y-142783011D01*
X180320000Y-141980136D01*
X180319999Y-141980135D01*
X180278316Y-141988427D01*
X180278308Y-141988429D01*
X180096328Y-142063807D01*
X180096315Y-142063814D01*
X179932537Y-142173248D01*
X179932533Y-142173251D01*
X179793251Y-142312533D01*
X179793248Y-142312537D01*
X179683814Y-142476315D01*
X179683807Y-142476328D01*
X179608430Y-142658306D01*
X179608427Y-142658318D01*
X179570000Y-142851504D01*
X179570000Y-143250000D01*
X180270000Y-143250000D01*
X180270000Y-143750000D01*
X179570000Y-143750000D01*
X179570000Y-144148495D01*
X179608427Y-144341681D01*
X179608430Y-144341693D01*
X179683807Y-144523671D01*
X179683814Y-144523684D01*
X179793248Y-144687462D01*
X179793251Y-144687466D01*
X179932533Y-144826748D01*
X179932537Y-144826751D01*
X180096315Y-144936185D01*
X180096328Y-144936192D01*
X180278308Y-145011569D01*
X180320000Y-145019862D01*
X180320000Y-144216988D01*
X180329940Y-144234205D01*
X180385795Y-144290060D01*
X180454204Y-144329556D01*
X180530504Y-144350000D01*
X180609496Y-144350000D01*
X180685796Y-144329556D01*
X180754205Y-144290060D01*
X180810060Y-144234205D01*
X180820000Y-144216988D01*
X180820000Y-145019862D01*
X180861690Y-145011569D01*
X180861692Y-145011569D01*
X181043671Y-144936192D01*
X181043684Y-144936185D01*
X181207462Y-144826751D01*
X181207466Y-144826748D01*
X181346748Y-144687466D01*
X181346751Y-144687462D01*
X181456185Y-144523684D01*
X181456186Y-144523682D01*
X181460129Y-144514163D01*
X181503968Y-144459757D01*
X181570261Y-144437689D01*
X181637961Y-144454965D01*
X181643400Y-144458647D01*
X181646634Y-144460514D01*
X181646635Y-144460515D01*
X181777865Y-144536281D01*
X181924234Y-144575500D01*
X181924236Y-144575500D01*
X182075764Y-144575500D01*
X182075766Y-144575500D01*
X182222135Y-144536281D01*
X182353365Y-144460515D01*
X182460515Y-144353365D01*
X182536281Y-144222135D01*
X182575500Y-144075766D01*
X182575500Y-143924234D01*
X182564074Y-143881591D01*
X182565737Y-143811744D01*
X182604899Y-143753881D01*
X182669128Y-143726377D01*
X182683849Y-143725500D01*
X187096151Y-143725500D01*
X187163190Y-143745185D01*
X187208945Y-143797989D01*
X187218889Y-143867147D01*
X187215928Y-143881581D01*
X187204500Y-143924234D01*
X187204500Y-143924236D01*
X187204500Y-144075765D01*
X187243719Y-144222136D01*
X187281602Y-144287750D01*
X187319485Y-144353365D01*
X187426635Y-144460515D01*
X187557865Y-144536281D01*
X187704234Y-144575500D01*
X187704236Y-144575500D01*
X187855764Y-144575500D01*
X187855766Y-144575500D01*
X188002135Y-144536281D01*
X188133365Y-144460515D01*
X188133366Y-144460513D01*
X188140403Y-144456451D01*
X188141676Y-144458656D01*
X188194956Y-144438043D01*
X188263405Y-144452063D01*
X188313407Y-144500864D01*
X188319867Y-144514157D01*
X188323809Y-144523674D01*
X188323814Y-144523684D01*
X188433248Y-144687462D01*
X188433251Y-144687466D01*
X188572533Y-144826748D01*
X188572537Y-144826751D01*
X188736315Y-144936185D01*
X188736328Y-144936192D01*
X188918308Y-145011569D01*
X188960000Y-145019862D01*
X188960000Y-144216988D01*
X188969940Y-144234205D01*
X189025795Y-144290060D01*
X189094204Y-144329556D01*
X189170504Y-144350000D01*
X189249496Y-144350000D01*
X189325796Y-144329556D01*
X189394205Y-144290060D01*
X189450060Y-144234205D01*
X189460000Y-144216988D01*
X189460000Y-145019862D01*
X189501690Y-145011569D01*
X189501692Y-145011569D01*
X189683671Y-144936192D01*
X189683684Y-144936185D01*
X189847462Y-144826751D01*
X189847466Y-144826748D01*
X189986748Y-144687466D01*
X189986751Y-144687462D01*
X190096185Y-144523684D01*
X190096192Y-144523671D01*
X190171569Y-144341693D01*
X190171572Y-144341681D01*
X190209999Y-144148495D01*
X190210000Y-144148492D01*
X190210000Y-143750000D01*
X189510000Y-143750000D01*
X189510000Y-143250000D01*
X190210000Y-143250000D01*
X190210000Y-142851508D01*
X190209999Y-142851504D01*
X190171572Y-142658318D01*
X190171569Y-142658306D01*
X190096192Y-142476328D01*
X190096185Y-142476315D01*
X189986751Y-142312537D01*
X189986748Y-142312533D01*
X189847466Y-142173251D01*
X189847462Y-142173248D01*
X189683684Y-142063814D01*
X189683671Y-142063807D01*
X189501691Y-141988429D01*
X189501683Y-141988427D01*
X189460000Y-141980135D01*
X189460000Y-142783011D01*
X189450060Y-142765795D01*
X189394205Y-142709940D01*
X189325796Y-142670444D01*
X189249496Y-142650000D01*
X189170504Y-142650000D01*
X189094204Y-142670444D01*
X189025795Y-142709940D01*
X188969940Y-142765795D01*
X188960000Y-142783011D01*
X188960000Y-141980136D01*
X188959999Y-141980135D01*
X188918316Y-141988427D01*
X188918308Y-141988429D01*
X188736328Y-142063807D01*
X188736315Y-142063814D01*
X188572537Y-142173248D01*
X188572533Y-142173251D01*
X188433251Y-142312533D01*
X188433248Y-142312537D01*
X188320426Y-142481387D01*
X188319441Y-142480729D01*
X188274893Y-142526078D01*
X188206755Y-142541537D01*
X188141076Y-142517703D01*
X188098708Y-142462145D01*
X188090500Y-142417779D01*
X188090500Y-141572940D01*
X188110185Y-141505901D01*
X188126819Y-141485259D01*
X191536787Y-138075291D01*
X191536789Y-138075289D01*
X191556843Y-138045276D01*
X191624394Y-137944179D01*
X191684737Y-137798497D01*
X191715500Y-137643842D01*
X191715500Y-129371158D01*
X191715500Y-129371155D01*
X191715499Y-129371153D01*
X191684738Y-129216510D01*
X191684737Y-129216503D01*
X191684735Y-129216498D01*
X191624397Y-129070827D01*
X191624390Y-129070814D01*
X191536789Y-128939711D01*
X191536786Y-128939707D01*
X191425292Y-128828213D01*
X191425288Y-128828210D01*
X191294185Y-128740609D01*
X191294172Y-128740602D01*
X191148501Y-128680264D01*
X191148489Y-128680261D01*
X190993845Y-128649500D01*
X190993842Y-128649500D01*
X130879604Y-128649500D01*
X130832155Y-128640062D01*
X130808497Y-128630263D01*
X130808493Y-128630262D01*
X130808488Y-128630260D01*
X130653845Y-128599500D01*
X130653842Y-128599500D01*
X130496158Y-128599500D01*
X130496155Y-128599500D01*
X130341511Y-128630260D01*
X130341506Y-128630262D01*
X130341504Y-128630262D01*
X130341503Y-128630263D01*
X130317844Y-128640062D01*
X130270396Y-128649500D01*
X120879604Y-128649500D01*
X120832155Y-128640062D01*
X120808497Y-128630263D01*
X120808493Y-128630262D01*
X120808488Y-128630260D01*
X120653845Y-128599500D01*
X120653842Y-128599500D01*
X120496158Y-128599500D01*
X120496155Y-128599500D01*
X120341511Y-128630260D01*
X120341506Y-128630262D01*
X120341504Y-128630262D01*
X120341503Y-128630263D01*
X120317844Y-128640062D01*
X120270396Y-128649500D01*
X110581155Y-128649500D01*
X110426510Y-128680261D01*
X110426498Y-128680264D01*
X110280827Y-128740602D01*
X110280814Y-128740609D01*
X110149711Y-128828210D01*
X110149707Y-128828213D01*
X110038213Y-128939707D01*
X110038210Y-128939711D01*
X109950609Y-129070814D01*
X109950602Y-129070827D01*
X109890264Y-129216498D01*
X109890261Y-129216510D01*
X109859500Y-129371153D01*
X100500500Y-129371153D01*
X100500500Y-125624500D01*
X100520185Y-125557461D01*
X100572989Y-125511706D01*
X100624500Y-125500500D01*
X199375500Y-125500500D01*
X199442539Y-125520185D01*
G37*
%TD.AperFunction*%
%TD*%
M02*
