%TF.GenerationSoftware,KiCad,Pcbnew,9.0.2*%
%TF.CreationDate,2025-06-05T23:32:02+09:00*%
%TF.ProjectId,jogi_pcb,6a6f6769-5f70-4636-922e-6b696361645f,rev?*%
%TF.SameCoordinates,Original*%
%TF.FileFunction,Paste,Top*%
%TF.FilePolarity,Positive*%
%FSLAX46Y46*%
G04 Gerber Fmt 4.6, Leading zero omitted, Abs format (unit mm)*
G04 Created by KiCad (PCBNEW 9.0.2) date 2025-06-05 23:32:02*
%MOMM*%
%LPD*%
G01*
G04 APERTURE LIST*
G04 Aperture macros list*
%AMRoundRect*
0 Rectangle with rounded corners*
0 $1 Rounding radius*
0 $2 $3 $4 $5 $6 $7 $8 $9 X,Y pos of 4 corners*
0 Add a 4 corners polygon primitive as box body*
4,1,4,$2,$3,$4,$5,$6,$7,$8,$9,$2,$3,0*
0 Add four circle primitives for the rounded corners*
1,1,$1+$1,$2,$3*
1,1,$1+$1,$4,$5*
1,1,$1+$1,$6,$7*
1,1,$1+$1,$8,$9*
0 Add four rect primitives between the rounded corners*
20,1,$1+$1,$2,$3,$4,$5,0*
20,1,$1+$1,$4,$5,$6,$7,0*
20,1,$1+$1,$6,$7,$8,$9,0*
20,1,$1+$1,$8,$9,$2,$3,0*%
G04 Aperture macros list end*
%ADD10R,0.700000X0.700000*%
%ADD11RoundRect,0.237500X-0.237500X0.300000X-0.237500X-0.300000X0.237500X-0.300000X0.237500X0.300000X0*%
%ADD12RoundRect,0.250000X-0.650000X0.325000X-0.650000X-0.325000X0.650000X-0.325000X0.650000X0.325000X0*%
%ADD13RoundRect,0.250000X-1.100000X0.325000X-1.100000X-0.325000X1.100000X-0.325000X1.100000X0.325000X0*%
%ADD14RoundRect,0.162500X-0.447500X-0.162500X0.447500X-0.162500X0.447500X0.162500X-0.447500X0.162500X0*%
%ADD15RoundRect,0.067500X-0.067500X0.067500X-0.067500X-0.067500X0.067500X-0.067500X0.067500X0.067500X0*%
%ADD16RoundRect,0.150000X-0.150000X0.825000X-0.150000X-0.825000X0.150000X-0.825000X0.150000X0.825000X0*%
%ADD17RoundRect,0.150000X-0.150000X-0.425000X0.150000X-0.425000X0.150000X0.425000X-0.150000X0.425000X0*%
%ADD18RoundRect,0.075000X-0.075000X-0.500000X0.075000X-0.500000X0.075000X0.500000X-0.075000X0.500000X0*%
%ADD19O,1.000000X2.100000*%
%ADD20O,1.000000X1.800000*%
%ADD21RoundRect,0.237500X-0.250000X-0.237500X0.250000X-0.237500X0.250000X0.237500X-0.250000X0.237500X0*%
%ADD22RoundRect,0.140000X-0.170000X0.140000X-0.170000X-0.140000X0.170000X-0.140000X0.170000X0.140000X0*%
%ADD23R,1.200000X1.200000*%
%ADD24RoundRect,0.225000X-0.250000X0.225000X-0.250000X-0.225000X0.250000X-0.225000X0.250000X0.225000X0*%
%ADD25RoundRect,0.250000X0.595000X1.080000X-0.595000X1.080000X-0.595000X-1.080000X0.595000X-1.080000X0*%
%ADD26RoundRect,0.150000X0.687500X0.150000X-0.687500X0.150000X-0.687500X-0.150000X0.687500X-0.150000X0*%
%ADD27RoundRect,0.250000X-0.475000X0.250000X-0.475000X-0.250000X0.475000X-0.250000X0.475000X0.250000X0*%
G04 APERTURE END LIST*
D10*
%TO.C,D6*%
X138915000Y-129500000D03*
X138915000Y-130600000D03*
X140745000Y-130600000D03*
X140745000Y-129500000D03*
%TD*%
D11*
%TO.C,C7*%
X176960000Y-137510000D03*
X176960000Y-139235000D03*
%TD*%
D10*
%TO.C,D5*%
X148830000Y-129450000D03*
X148830000Y-130550000D03*
X150660000Y-130550000D03*
X150660000Y-129450000D03*
%TD*%
D12*
%TO.C,C2*%
X135000000Y-136050000D03*
X135000000Y-139000000D03*
%TD*%
D13*
%TO.C,C1*%
X130000000Y-136050000D03*
X130000000Y-139000000D03*
%TD*%
D10*
%TO.C,D3*%
X168830000Y-129450000D03*
X168830000Y-130550000D03*
X170660000Y-130550000D03*
X170660000Y-129450000D03*
%TD*%
D14*
%TO.C,Q1*%
X121970000Y-136817500D03*
X121970000Y-138717500D03*
X124590000Y-137767500D03*
%TD*%
D10*
%TO.C,D1*%
X189085000Y-129450000D03*
X189085000Y-130550000D03*
X190915000Y-130550000D03*
X190915000Y-129450000D03*
%TD*%
D15*
%TO.C,C6*%
X152500000Y-137155000D03*
X152500000Y-137705000D03*
%TD*%
D10*
%TO.C,D8*%
X118745000Y-129400000D03*
X118745000Y-130500000D03*
X120575000Y-130500000D03*
X120575000Y-129400000D03*
%TD*%
D16*
%TO.C,U1*%
X173905000Y-136065000D03*
X172635000Y-136065000D03*
X171365000Y-136065000D03*
X170095000Y-136065000D03*
X170095000Y-141015000D03*
X171365000Y-141015000D03*
X172635000Y-141015000D03*
X173905000Y-141015000D03*
%TD*%
D17*
%TO.C,J1*%
X181690000Y-142925000D03*
X182490000Y-142925000D03*
D18*
X183640000Y-142925000D03*
X184640000Y-142925000D03*
X185140000Y-142925000D03*
X186140000Y-142925000D03*
D17*
X187290000Y-142925000D03*
X188090000Y-142925000D03*
X188090000Y-142925000D03*
X187290000Y-142925000D03*
D18*
X186640000Y-142925000D03*
X185640000Y-142925000D03*
X184140000Y-142925000D03*
X183140000Y-142925000D03*
D17*
X182490000Y-142925000D03*
X181690000Y-142925000D03*
D19*
X180570000Y-143500000D03*
D20*
X180570000Y-147680000D03*
D19*
X189210000Y-143500000D03*
D20*
X189210000Y-147680000D03*
%TD*%
D21*
%TO.C,R1*%
X192000000Y-147000000D03*
X193825000Y-147000000D03*
%TD*%
D10*
%TO.C,D4*%
X158745000Y-129500000D03*
X158745000Y-130600000D03*
X160575000Y-130600000D03*
X160575000Y-129500000D03*
%TD*%
%TO.C,D9*%
X108830000Y-129450000D03*
X108830000Y-130550000D03*
X110660000Y-130550000D03*
X110660000Y-129450000D03*
%TD*%
D22*
%TO.C,C5*%
X148500000Y-137020000D03*
X148500000Y-137980000D03*
%TD*%
D23*
%TO.C,D10*%
X116270000Y-136370000D03*
X116270000Y-139170000D03*
%TD*%
D24*
%TO.C,C4*%
X143750000Y-136750000D03*
X143750000Y-138300000D03*
%TD*%
D25*
%TO.C,U2*%
X182030000Y-138540000D03*
D26*
X184667500Y-140540000D03*
X184667500Y-139540000D03*
X184667500Y-138540000D03*
X184667500Y-137540000D03*
X184667500Y-136540000D03*
X179392500Y-136540000D03*
X179392500Y-137540000D03*
X179392500Y-138540000D03*
X179392500Y-139540000D03*
X179392500Y-140540000D03*
%TD*%
D27*
%TO.C,C3*%
X139000000Y-136525000D03*
X139000000Y-138425000D03*
%TD*%
D21*
%TO.C,R2*%
X192000000Y-145000000D03*
X193825000Y-145000000D03*
%TD*%
D10*
%TO.C,D2*%
X178915000Y-129450000D03*
X178915000Y-130550000D03*
X180745000Y-130550000D03*
X180745000Y-129450000D03*
%TD*%
D11*
%TO.C,C8*%
X176960000Y-141487500D03*
X176960000Y-143212500D03*
%TD*%
D10*
%TO.C,D7*%
X128745000Y-129400000D03*
X128745000Y-130500000D03*
X130575000Y-130500000D03*
X130575000Y-129400000D03*
%TD*%
%TO.C,D6*%
X138915000Y-104500000D03*
X138915000Y-105600000D03*
X140745000Y-105600000D03*
X140745000Y-104500000D03*
%TD*%
D11*
%TO.C,C7*%
X176960000Y-112510000D03*
X176960000Y-114235000D03*
%TD*%
D10*
%TO.C,D5*%
X148830000Y-104450000D03*
X148830000Y-105550000D03*
X150660000Y-105550000D03*
X150660000Y-104450000D03*
%TD*%
D12*
%TO.C,C2*%
X135000000Y-111050000D03*
X135000000Y-114000000D03*
%TD*%
D13*
%TO.C,C1*%
X130000000Y-111050000D03*
X130000000Y-114000000D03*
%TD*%
D10*
%TO.C,D3*%
X168830000Y-104450000D03*
X168830000Y-105550000D03*
X170660000Y-105550000D03*
X170660000Y-104450000D03*
%TD*%
D14*
%TO.C,Q1*%
X121970000Y-111817500D03*
X121970000Y-113717500D03*
X124590000Y-112767500D03*
%TD*%
D10*
%TO.C,D1*%
X189085000Y-104450000D03*
X189085000Y-105550000D03*
X190915000Y-105550000D03*
X190915000Y-104450000D03*
%TD*%
D15*
%TO.C,C6*%
X152500000Y-112155000D03*
X152500000Y-112705000D03*
%TD*%
D10*
%TO.C,D8*%
X118745000Y-104400000D03*
X118745000Y-105500000D03*
X120575000Y-105500000D03*
X120575000Y-104400000D03*
%TD*%
D16*
%TO.C,U1*%
X173905000Y-111065000D03*
X172635000Y-111065000D03*
X171365000Y-111065000D03*
X170095000Y-111065000D03*
X170095000Y-116015000D03*
X171365000Y-116015000D03*
X172635000Y-116015000D03*
X173905000Y-116015000D03*
%TD*%
D17*
%TO.C,J1*%
X181690000Y-117925000D03*
X182490000Y-117925000D03*
D18*
X183640000Y-117925000D03*
X184640000Y-117925000D03*
X185140000Y-117925000D03*
X186140000Y-117925000D03*
D17*
X187290000Y-117925000D03*
X188090000Y-117925000D03*
X188090000Y-117925000D03*
X187290000Y-117925000D03*
D18*
X186640000Y-117925000D03*
X185640000Y-117925000D03*
X184140000Y-117925000D03*
X183140000Y-117925000D03*
D17*
X182490000Y-117925000D03*
X181690000Y-117925000D03*
D19*
X180570000Y-118500000D03*
D20*
X180570000Y-122680000D03*
D19*
X189210000Y-118500000D03*
D20*
X189210000Y-122680000D03*
%TD*%
D21*
%TO.C,R1*%
X192000000Y-122000000D03*
X193825000Y-122000000D03*
%TD*%
D10*
%TO.C,D4*%
X158745000Y-104500000D03*
X158745000Y-105600000D03*
X160575000Y-105600000D03*
X160575000Y-104500000D03*
%TD*%
%TO.C,D9*%
X108830000Y-104450000D03*
X108830000Y-105550000D03*
X110660000Y-105550000D03*
X110660000Y-104450000D03*
%TD*%
D22*
%TO.C,C5*%
X148500000Y-112020000D03*
X148500000Y-112980000D03*
%TD*%
D23*
%TO.C,D10*%
X116270000Y-111370000D03*
X116270000Y-114170000D03*
%TD*%
D24*
%TO.C,C4*%
X143750000Y-111750000D03*
X143750000Y-113300000D03*
%TD*%
D25*
%TO.C,U2*%
X182030000Y-113540000D03*
D26*
X184667500Y-115540000D03*
X184667500Y-114540000D03*
X184667500Y-113540000D03*
X184667500Y-112540000D03*
X184667500Y-111540000D03*
X179392500Y-111540000D03*
X179392500Y-112540000D03*
X179392500Y-113540000D03*
X179392500Y-114540000D03*
X179392500Y-115540000D03*
%TD*%
D27*
%TO.C,C3*%
X139000000Y-111525000D03*
X139000000Y-113425000D03*
%TD*%
D21*
%TO.C,R2*%
X192000000Y-120000000D03*
X193825000Y-120000000D03*
%TD*%
D10*
%TO.C,D2*%
X178915000Y-104450000D03*
X178915000Y-105550000D03*
X180745000Y-105550000D03*
X180745000Y-104450000D03*
%TD*%
D11*
%TO.C,C8*%
X176960000Y-116487500D03*
X176960000Y-118212500D03*
%TD*%
D10*
%TO.C,D7*%
X128745000Y-104400000D03*
X128745000Y-105500000D03*
X130575000Y-105500000D03*
X130575000Y-104400000D03*
%TD*%
%TO.C,D6*%
X138915000Y-79500000D03*
X138915000Y-80600000D03*
X140745000Y-80600000D03*
X140745000Y-79500000D03*
%TD*%
D11*
%TO.C,C7*%
X176960000Y-87510000D03*
X176960000Y-89235000D03*
%TD*%
D10*
%TO.C,D5*%
X148830000Y-79450000D03*
X148830000Y-80550000D03*
X150660000Y-80550000D03*
X150660000Y-79450000D03*
%TD*%
D12*
%TO.C,C2*%
X135000000Y-86050000D03*
X135000000Y-89000000D03*
%TD*%
D13*
%TO.C,C1*%
X130000000Y-86050000D03*
X130000000Y-89000000D03*
%TD*%
D10*
%TO.C,D3*%
X168830000Y-79450000D03*
X168830000Y-80550000D03*
X170660000Y-80550000D03*
X170660000Y-79450000D03*
%TD*%
D14*
%TO.C,Q1*%
X121970000Y-86817500D03*
X121970000Y-88717500D03*
X124590000Y-87767500D03*
%TD*%
D10*
%TO.C,D1*%
X189085000Y-79450000D03*
X189085000Y-80550000D03*
X190915000Y-80550000D03*
X190915000Y-79450000D03*
%TD*%
D15*
%TO.C,C6*%
X152500000Y-87155000D03*
X152500000Y-87705000D03*
%TD*%
D10*
%TO.C,D8*%
X118745000Y-79400000D03*
X118745000Y-80500000D03*
X120575000Y-80500000D03*
X120575000Y-79400000D03*
%TD*%
D16*
%TO.C,U1*%
X173905000Y-86065000D03*
X172635000Y-86065000D03*
X171365000Y-86065000D03*
X170095000Y-86065000D03*
X170095000Y-91015000D03*
X171365000Y-91015000D03*
X172635000Y-91015000D03*
X173905000Y-91015000D03*
%TD*%
D17*
%TO.C,J1*%
X181690000Y-92925000D03*
X182490000Y-92925000D03*
D18*
X183640000Y-92925000D03*
X184640000Y-92925000D03*
X185140000Y-92925000D03*
X186140000Y-92925000D03*
D17*
X187290000Y-92925000D03*
X188090000Y-92925000D03*
X188090000Y-92925000D03*
X187290000Y-92925000D03*
D18*
X186640000Y-92925000D03*
X185640000Y-92925000D03*
X184140000Y-92925000D03*
X183140000Y-92925000D03*
D17*
X182490000Y-92925000D03*
X181690000Y-92925000D03*
D19*
X180570000Y-93500000D03*
D20*
X180570000Y-97680000D03*
D19*
X189210000Y-93500000D03*
D20*
X189210000Y-97680000D03*
%TD*%
D21*
%TO.C,R1*%
X192000000Y-97000000D03*
X193825000Y-97000000D03*
%TD*%
D10*
%TO.C,D4*%
X158745000Y-79500000D03*
X158745000Y-80600000D03*
X160575000Y-80600000D03*
X160575000Y-79500000D03*
%TD*%
%TO.C,D9*%
X108830000Y-79450000D03*
X108830000Y-80550000D03*
X110660000Y-80550000D03*
X110660000Y-79450000D03*
%TD*%
D22*
%TO.C,C5*%
X148500000Y-87020000D03*
X148500000Y-87980000D03*
%TD*%
D23*
%TO.C,D10*%
X116270000Y-86370000D03*
X116270000Y-89170000D03*
%TD*%
D24*
%TO.C,C4*%
X143750000Y-86750000D03*
X143750000Y-88300000D03*
%TD*%
D25*
%TO.C,U2*%
X182030000Y-88540000D03*
D26*
X184667500Y-90540000D03*
X184667500Y-89540000D03*
X184667500Y-88540000D03*
X184667500Y-87540000D03*
X184667500Y-86540000D03*
X179392500Y-86540000D03*
X179392500Y-87540000D03*
X179392500Y-88540000D03*
X179392500Y-89540000D03*
X179392500Y-90540000D03*
%TD*%
D27*
%TO.C,C3*%
X139000000Y-86525000D03*
X139000000Y-88425000D03*
%TD*%
D21*
%TO.C,R2*%
X192000000Y-95000000D03*
X193825000Y-95000000D03*
%TD*%
D10*
%TO.C,D2*%
X178915000Y-79450000D03*
X178915000Y-80550000D03*
X180745000Y-80550000D03*
X180745000Y-79450000D03*
%TD*%
D11*
%TO.C,C8*%
X176960000Y-91487500D03*
X176960000Y-93212500D03*
%TD*%
D10*
%TO.C,D7*%
X128745000Y-79400000D03*
X128745000Y-80500000D03*
X130575000Y-80500000D03*
X130575000Y-79400000D03*
%TD*%
%TO.C,D6*%
X138915000Y-54500000D03*
X138915000Y-55600000D03*
X140745000Y-55600000D03*
X140745000Y-54500000D03*
%TD*%
D11*
%TO.C,C7*%
X176960000Y-62510000D03*
X176960000Y-64235000D03*
%TD*%
D10*
%TO.C,D5*%
X148830000Y-54450000D03*
X148830000Y-55550000D03*
X150660000Y-55550000D03*
X150660000Y-54450000D03*
%TD*%
D12*
%TO.C,C2*%
X135000000Y-61050000D03*
X135000000Y-64000000D03*
%TD*%
D13*
%TO.C,C1*%
X130000000Y-61050000D03*
X130000000Y-64000000D03*
%TD*%
D10*
%TO.C,D3*%
X168830000Y-54450000D03*
X168830000Y-55550000D03*
X170660000Y-55550000D03*
X170660000Y-54450000D03*
%TD*%
D14*
%TO.C,Q1*%
X121970000Y-61817500D03*
X121970000Y-63717500D03*
X124590000Y-62767500D03*
%TD*%
D10*
%TO.C,D1*%
X189085000Y-54450000D03*
X189085000Y-55550000D03*
X190915000Y-55550000D03*
X190915000Y-54450000D03*
%TD*%
D15*
%TO.C,C6*%
X152500000Y-62155000D03*
X152500000Y-62705000D03*
%TD*%
D10*
%TO.C,D8*%
X118745000Y-54400000D03*
X118745000Y-55500000D03*
X120575000Y-55500000D03*
X120575000Y-54400000D03*
%TD*%
D16*
%TO.C,U1*%
X173905000Y-61065000D03*
X172635000Y-61065000D03*
X171365000Y-61065000D03*
X170095000Y-61065000D03*
X170095000Y-66015000D03*
X171365000Y-66015000D03*
X172635000Y-66015000D03*
X173905000Y-66015000D03*
%TD*%
D17*
%TO.C,J1*%
X181690000Y-67925000D03*
X182490000Y-67925000D03*
D18*
X183640000Y-67925000D03*
X184640000Y-67925000D03*
X185140000Y-67925000D03*
X186140000Y-67925000D03*
D17*
X187290000Y-67925000D03*
X188090000Y-67925000D03*
X188090000Y-67925000D03*
X187290000Y-67925000D03*
D18*
X186640000Y-67925000D03*
X185640000Y-67925000D03*
X184140000Y-67925000D03*
X183140000Y-67925000D03*
D17*
X182490000Y-67925000D03*
X181690000Y-67925000D03*
D19*
X180570000Y-68500000D03*
D20*
X180570000Y-72680000D03*
D19*
X189210000Y-68500000D03*
D20*
X189210000Y-72680000D03*
%TD*%
D21*
%TO.C,R1*%
X192000000Y-72000000D03*
X193825000Y-72000000D03*
%TD*%
D10*
%TO.C,D4*%
X158745000Y-54500000D03*
X158745000Y-55600000D03*
X160575000Y-55600000D03*
X160575000Y-54500000D03*
%TD*%
%TO.C,D9*%
X108830000Y-54450000D03*
X108830000Y-55550000D03*
X110660000Y-55550000D03*
X110660000Y-54450000D03*
%TD*%
D22*
%TO.C,C5*%
X148500000Y-62020000D03*
X148500000Y-62980000D03*
%TD*%
D23*
%TO.C,D10*%
X116270000Y-61370000D03*
X116270000Y-64170000D03*
%TD*%
D24*
%TO.C,C4*%
X143750000Y-61750000D03*
X143750000Y-63300000D03*
%TD*%
D25*
%TO.C,U2*%
X182030000Y-63540000D03*
D26*
X184667500Y-65540000D03*
X184667500Y-64540000D03*
X184667500Y-63540000D03*
X184667500Y-62540000D03*
X184667500Y-61540000D03*
X179392500Y-61540000D03*
X179392500Y-62540000D03*
X179392500Y-63540000D03*
X179392500Y-64540000D03*
X179392500Y-65540000D03*
%TD*%
D27*
%TO.C,C3*%
X139000000Y-61525000D03*
X139000000Y-63425000D03*
%TD*%
D21*
%TO.C,R2*%
X192000000Y-70000000D03*
X193825000Y-70000000D03*
%TD*%
D10*
%TO.C,D2*%
X178915000Y-54450000D03*
X178915000Y-55550000D03*
X180745000Y-55550000D03*
X180745000Y-54450000D03*
%TD*%
D11*
%TO.C,C8*%
X176960000Y-66487500D03*
X176960000Y-68212500D03*
%TD*%
D10*
%TO.C,D7*%
X128745000Y-54400000D03*
X128745000Y-55500000D03*
X130575000Y-55500000D03*
X130575000Y-54400000D03*
%TD*%
M02*
