M48
; DRILL file {KiCad 9.0.2} date 2025-06-05T23:31:56+0900
; FORMAT={-:-/ absolute / metric / decimal}
; #@! TF.CreationDate,2025-06-05T23:31:56+09:00
; #@! TF.GenerationSoftware,Kicad,Pcbnew,9.0.2
; #@! TF.FileFunction,Plated,1,2,PTH
FMAT,2
METRIC
; #@! TA.AperFunction,Plated,PTH,ViaDrill
T1C0.300
; #@! TA.AperFunction,Plated,PTH,ComponentDrill
T2C0.600
%
G90
G05
T1
X103.0Y-53.0
X103.0Y-71.0
X103.0Y-71.0
X103.0Y-78.0
X103.0Y-96.0
X103.0Y-96.0
X103.0Y-103.0
X103.0Y-121.0
X103.0Y-121.0
X103.0Y-128.0
X103.0Y-146.0
X103.0Y-146.0
X108.83Y-55.55
X108.83Y-80.55
X108.83Y-105.55
X108.83Y-130.55
X110.66Y-54.45
X110.66Y-79.45
X110.66Y-104.45
X110.66Y-129.45
X118.745Y-55.5
X118.745Y-80.5
X118.745Y-105.5
X118.745Y-130.5
X120.575Y-54.4
X120.575Y-79.4
X120.575Y-104.4
X120.575Y-129.4
X128.745Y-55.5
X128.745Y-80.5
X128.745Y-105.5
X128.745Y-130.5
X130.575Y-54.4
X130.575Y-79.4
X130.575Y-104.4
X130.575Y-129.4
X140.745Y-54.5
X140.745Y-79.5
X140.745Y-104.5
X140.745Y-129.5
X148.83Y-55.55
X148.83Y-80.55
X148.83Y-105.55
X148.83Y-130.55
X150.66Y-54.45
X150.66Y-79.45
X150.66Y-104.45
X150.66Y-129.45
X158.745Y-55.6
X158.745Y-80.6
X158.745Y-105.6
X158.745Y-130.6
X160.575Y-54.5
X160.575Y-79.5
X160.575Y-104.5
X160.575Y-129.5
X168.83Y-55.55
X168.83Y-80.55
X168.83Y-105.55
X168.83Y-130.55
X170.66Y-54.45
X170.66Y-79.45
X170.66Y-104.45
X170.66Y-129.45
X171.365Y-66.015
X171.365Y-91.015
X171.365Y-116.015
X171.365Y-141.015
X173.905Y-61.065
X173.905Y-86.065
X173.905Y-111.065
X173.905Y-136.065
X176.96Y-64.235
X176.96Y-89.235
X176.96Y-114.235
X176.96Y-139.235
X178.915Y-55.55
X178.915Y-80.55
X178.915Y-105.55
X178.915Y-130.55
X179.392Y-62.54
X179.392Y-64.54
X179.392Y-87.54
X179.392Y-89.54
X179.392Y-112.54
X179.392Y-114.54
X179.392Y-137.54
X179.392Y-139.54
X180.745Y-54.45
X180.745Y-79.45
X180.745Y-104.45
X180.745Y-129.45
X181.69Y-67.925
X181.69Y-92.925
X181.69Y-117.925
X181.69Y-142.925
X182.49Y-67.925
X182.49Y-92.925
X182.49Y-117.925
X182.49Y-142.925
X187.29Y-67.925
X187.29Y-92.925
X187.29Y-117.925
X187.29Y-142.925
X188.09Y-67.925
X188.09Y-92.925
X188.09Y-117.925
X188.09Y-142.925
X189.085Y-55.55
X189.085Y-80.55
X189.085Y-105.55
X189.085Y-130.55
X190.915Y-54.45
X190.915Y-79.45
X190.915Y-104.45
X190.915Y-129.45
X197.0Y-53.0
X197.0Y-71.0
X197.0Y-78.0
X197.0Y-96.0
X197.0Y-103.0
X197.0Y-121.0
X197.0Y-128.0
X197.0Y-146.0
T2
G00X180.57Y-67.95
M15
G01X180.57Y-69.05
M16
G05
G00X180.57Y-72.28
M15
G01X180.57Y-73.08
M16
G05
G00X180.57Y-92.95
M15
G01X180.57Y-94.05
M16
G05
G00X180.57Y-97.28
M15
G01X180.57Y-98.08
M16
G05
G00X180.57Y-117.95
M15
G01X180.57Y-119.05
M16
G05
G00X180.57Y-122.28
M15
G01X180.57Y-123.08
M16
G05
G00X180.57Y-142.95
M15
G01X180.57Y-144.05
M16
G05
G00X180.57Y-147.28
M15
G01X180.57Y-148.08
M16
G05
G00X189.21Y-67.95
M15
G01X189.21Y-69.05
M16
G05
G00X189.21Y-72.28
M15
G01X189.21Y-73.08
M16
G05
G00X189.21Y-92.95
M15
G01X189.21Y-94.05
M16
G05
G00X189.21Y-97.28
M15
G01X189.21Y-98.08
M16
G05
G00X189.21Y-117.95
M15
G01X189.21Y-119.05
M16
G05
G00X189.21Y-122.28
M15
G01X189.21Y-123.08
M16
G05
G00X189.21Y-142.95
M15
G01X189.21Y-144.05
M16
G05
G00X189.21Y-147.28
M15
G01X189.21Y-148.08
M16
G05
M30
