%TF.GenerationSoftware,KiCad,Pcbnew,9.0.6*%
%TF.CreationDate,2025-11-25T17:10:00+09:00*%
%TF.ProjectId,UMA,554d412e-6b69-4636-9164-5f7063625858,rev?*%
%TF.SameCoordinates,Original*%
%TF.FileFunction,Legend,Top*%
%TF.FilePolarity,Positive*%
%FSLAX46Y46*%
G04 Gerber Fmt 4.6, Leading zero omitted, Abs format (unit mm)*
G04 Created by KiCad (PCBNEW 9.0.6) date 2025-11-25 17:10:00*
%MOMM*%
%LPD*%
G01*
G04 APERTURE LIST*
%ADD10C,0.100000*%
%ADD11C,0.150000*%
%ADD12C,0.120000*%
%ADD13C,0.127000*%
%ADD14C,0.200000*%
G04 APERTURE END LIST*
D10*
X152227693Y-119520038D02*
X152132455Y-119472419D01*
X152132455Y-119472419D02*
X151989598Y-119472419D01*
X151989598Y-119472419D02*
X151846741Y-119520038D01*
X151846741Y-119520038D02*
X151751503Y-119615276D01*
X151751503Y-119615276D02*
X151703884Y-119710514D01*
X151703884Y-119710514D02*
X151656265Y-119900990D01*
X151656265Y-119900990D02*
X151656265Y-120043847D01*
X151656265Y-120043847D02*
X151703884Y-120234323D01*
X151703884Y-120234323D02*
X151751503Y-120329561D01*
X151751503Y-120329561D02*
X151846741Y-120424800D01*
X151846741Y-120424800D02*
X151989598Y-120472419D01*
X151989598Y-120472419D02*
X152084836Y-120472419D01*
X152084836Y-120472419D02*
X152227693Y-120424800D01*
X152227693Y-120424800D02*
X152275312Y-120377180D01*
X152275312Y-120377180D02*
X152275312Y-120043847D01*
X152275312Y-120043847D02*
X152084836Y-120043847D01*
X152703884Y-120472419D02*
X152703884Y-119472419D01*
X152703884Y-119472419D02*
X153275312Y-120472419D01*
X153275312Y-120472419D02*
X153275312Y-119472419D01*
X153751503Y-120472419D02*
X153751503Y-119472419D01*
X153751503Y-119472419D02*
X153989598Y-119472419D01*
X153989598Y-119472419D02*
X154132455Y-119520038D01*
X154132455Y-119520038D02*
X154227693Y-119615276D01*
X154227693Y-119615276D02*
X154275312Y-119710514D01*
X154275312Y-119710514D02*
X154322931Y-119900990D01*
X154322931Y-119900990D02*
X154322931Y-120043847D01*
X154322931Y-120043847D02*
X154275312Y-120234323D01*
X154275312Y-120234323D02*
X154227693Y-120329561D01*
X154227693Y-120329561D02*
X154132455Y-120424800D01*
X154132455Y-120424800D02*
X153989598Y-120472419D01*
X153989598Y-120472419D02*
X153751503Y-120472419D01*
X149161027Y-119472419D02*
X149732455Y-119472419D01*
X149446741Y-120472419D02*
X149446741Y-119472419D01*
X149970551Y-120472419D02*
X150494360Y-119805752D01*
X149970551Y-119805752D02*
X150494360Y-120472419D01*
X146975312Y-120472419D02*
X146641979Y-119996228D01*
X146403884Y-120472419D02*
X146403884Y-119472419D01*
X146403884Y-119472419D02*
X146784836Y-119472419D01*
X146784836Y-119472419D02*
X146880074Y-119520038D01*
X146880074Y-119520038D02*
X146927693Y-119567657D01*
X146927693Y-119567657D02*
X146975312Y-119662895D01*
X146975312Y-119662895D02*
X146975312Y-119805752D01*
X146975312Y-119805752D02*
X146927693Y-119900990D01*
X146927693Y-119900990D02*
X146880074Y-119948609D01*
X146880074Y-119948609D02*
X146784836Y-119996228D01*
X146784836Y-119996228D02*
X146403884Y-119996228D01*
X147308646Y-120472419D02*
X147832455Y-119805752D01*
X147308646Y-119805752D02*
X147832455Y-120472419D01*
X143203884Y-119948609D02*
X143537217Y-119948609D01*
X143680074Y-120472419D02*
X143203884Y-120472419D01*
X143203884Y-120472419D02*
X143203884Y-119472419D01*
X143203884Y-119472419D02*
X143680074Y-119472419D01*
X144108646Y-120472419D02*
X144108646Y-119472419D01*
X144108646Y-119472419D02*
X144680074Y-120472419D01*
X144680074Y-120472419D02*
X144680074Y-119472419D01*
X135964895Y-109516666D02*
X136536323Y-109516666D01*
X136536323Y-109516666D02*
X136650609Y-109554761D01*
X136650609Y-109554761D02*
X136726800Y-109630952D01*
X136726800Y-109630952D02*
X136764895Y-109745237D01*
X136764895Y-109745237D02*
X136764895Y-109821428D01*
X135964895Y-109211904D02*
X135964895Y-108678570D01*
X135964895Y-108678570D02*
X136764895Y-109021428D01*
X145284895Y-83748332D02*
X144903942Y-84014999D01*
X145284895Y-84205475D02*
X144484895Y-84205475D01*
X144484895Y-84205475D02*
X144484895Y-83900713D01*
X144484895Y-83900713D02*
X144522990Y-83824523D01*
X144522990Y-83824523D02*
X144561085Y-83786428D01*
X144561085Y-83786428D02*
X144637276Y-83748332D01*
X144637276Y-83748332D02*
X144751561Y-83748332D01*
X144751561Y-83748332D02*
X144827752Y-83786428D01*
X144827752Y-83786428D02*
X144865847Y-83824523D01*
X144865847Y-83824523D02*
X144903942Y-83900713D01*
X144903942Y-83900713D02*
X144903942Y-84205475D01*
X145284895Y-82986428D02*
X145284895Y-83443571D01*
X145284895Y-83214999D02*
X144484895Y-83214999D01*
X144484895Y-83214999D02*
X144599180Y-83291190D01*
X144599180Y-83291190D02*
X144675371Y-83367380D01*
X144675371Y-83367380D02*
X144713466Y-83443571D01*
D11*
X117407200Y-121533332D02*
X117454819Y-121390475D01*
X117454819Y-121390475D02*
X117454819Y-121152380D01*
X117454819Y-121152380D02*
X117407200Y-121057142D01*
X117407200Y-121057142D02*
X117359580Y-121009523D01*
X117359580Y-121009523D02*
X117264342Y-120961904D01*
X117264342Y-120961904D02*
X117169104Y-120961904D01*
X117169104Y-120961904D02*
X117073866Y-121009523D01*
X117073866Y-121009523D02*
X117026247Y-121057142D01*
X117026247Y-121057142D02*
X116978628Y-121152380D01*
X116978628Y-121152380D02*
X116931009Y-121342856D01*
X116931009Y-121342856D02*
X116883390Y-121438094D01*
X116883390Y-121438094D02*
X116835771Y-121485713D01*
X116835771Y-121485713D02*
X116740533Y-121533332D01*
X116740533Y-121533332D02*
X116645295Y-121533332D01*
X116645295Y-121533332D02*
X116550057Y-121485713D01*
X116550057Y-121485713D02*
X116502438Y-121438094D01*
X116502438Y-121438094D02*
X116454819Y-121342856D01*
X116454819Y-121342856D02*
X116454819Y-121104761D01*
X116454819Y-121104761D02*
X116502438Y-120961904D01*
X116454819Y-120628570D02*
X117454819Y-120390475D01*
X117454819Y-120390475D02*
X116740533Y-120199999D01*
X116740533Y-120199999D02*
X117454819Y-120009523D01*
X117454819Y-120009523D02*
X116454819Y-119771428D01*
X117454819Y-118866666D02*
X117454819Y-119438094D01*
X117454819Y-119152380D02*
X116454819Y-119152380D01*
X116454819Y-119152380D02*
X116597676Y-119247618D01*
X116597676Y-119247618D02*
X116692914Y-119342856D01*
X116692914Y-119342856D02*
X116740533Y-119438094D01*
D10*
X121526800Y-121266667D02*
X121564895Y-121152381D01*
X121564895Y-121152381D02*
X121564895Y-120961905D01*
X121564895Y-120961905D02*
X121526800Y-120885714D01*
X121526800Y-120885714D02*
X121488704Y-120847619D01*
X121488704Y-120847619D02*
X121412514Y-120809524D01*
X121412514Y-120809524D02*
X121336323Y-120809524D01*
X121336323Y-120809524D02*
X121260133Y-120847619D01*
X121260133Y-120847619D02*
X121222038Y-120885714D01*
X121222038Y-120885714D02*
X121183942Y-120961905D01*
X121183942Y-120961905D02*
X121145847Y-121114286D01*
X121145847Y-121114286D02*
X121107752Y-121190476D01*
X121107752Y-121190476D02*
X121069657Y-121228571D01*
X121069657Y-121228571D02*
X120993466Y-121266667D01*
X120993466Y-121266667D02*
X120917276Y-121266667D01*
X120917276Y-121266667D02*
X120841085Y-121228571D01*
X120841085Y-121228571D02*
X120802990Y-121190476D01*
X120802990Y-121190476D02*
X120764895Y-121114286D01*
X120764895Y-121114286D02*
X120764895Y-120923809D01*
X120764895Y-120923809D02*
X120802990Y-120809524D01*
X120764895Y-120542857D02*
X121564895Y-120352381D01*
X121564895Y-120352381D02*
X120993466Y-120200000D01*
X120993466Y-120200000D02*
X121564895Y-120047619D01*
X121564895Y-120047619D02*
X120764895Y-119857143D01*
X120841085Y-119590476D02*
X120802990Y-119552380D01*
X120802990Y-119552380D02*
X120764895Y-119476190D01*
X120764895Y-119476190D02*
X120764895Y-119285714D01*
X120764895Y-119285714D02*
X120802990Y-119209523D01*
X120802990Y-119209523D02*
X120841085Y-119171428D01*
X120841085Y-119171428D02*
X120917276Y-119133333D01*
X120917276Y-119133333D02*
X120993466Y-119133333D01*
X120993466Y-119133333D02*
X121107752Y-119171428D01*
X121107752Y-119171428D02*
X121564895Y-119628571D01*
X121564895Y-119628571D02*
X121564895Y-119133333D01*
X111620476Y-114574895D02*
X111620476Y-115222514D01*
X111620476Y-115222514D02*
X111658571Y-115298704D01*
X111658571Y-115298704D02*
X111696666Y-115336800D01*
X111696666Y-115336800D02*
X111772857Y-115374895D01*
X111772857Y-115374895D02*
X111925238Y-115374895D01*
X111925238Y-115374895D02*
X112001428Y-115336800D01*
X112001428Y-115336800D02*
X112039523Y-115298704D01*
X112039523Y-115298704D02*
X112077619Y-115222514D01*
X112077619Y-115222514D02*
X112077619Y-114574895D01*
X112877618Y-115374895D02*
X112420475Y-115374895D01*
X112649047Y-115374895D02*
X112649047Y-114574895D01*
X112649047Y-114574895D02*
X112572856Y-114689180D01*
X112572856Y-114689180D02*
X112496666Y-114765371D01*
X112496666Y-114765371D02*
X112420475Y-114803466D01*
X121066667Y-125488704D02*
X121028571Y-125526800D01*
X121028571Y-125526800D02*
X120914286Y-125564895D01*
X120914286Y-125564895D02*
X120838095Y-125564895D01*
X120838095Y-125564895D02*
X120723809Y-125526800D01*
X120723809Y-125526800D02*
X120647619Y-125450609D01*
X120647619Y-125450609D02*
X120609524Y-125374419D01*
X120609524Y-125374419D02*
X120571428Y-125222038D01*
X120571428Y-125222038D02*
X120571428Y-125107752D01*
X120571428Y-125107752D02*
X120609524Y-124955371D01*
X120609524Y-124955371D02*
X120647619Y-124879180D01*
X120647619Y-124879180D02*
X120723809Y-124802990D01*
X120723809Y-124802990D02*
X120838095Y-124764895D01*
X120838095Y-124764895D02*
X120914286Y-124764895D01*
X120914286Y-124764895D02*
X121028571Y-124802990D01*
X121028571Y-124802990D02*
X121066667Y-124841085D01*
X121752381Y-125031561D02*
X121752381Y-125564895D01*
X121561905Y-124726800D02*
X121371428Y-125298228D01*
X121371428Y-125298228D02*
X121866667Y-125298228D01*
X158879895Y-109466666D02*
X159451323Y-109466666D01*
X159451323Y-109466666D02*
X159565609Y-109504761D01*
X159565609Y-109504761D02*
X159641800Y-109580952D01*
X159641800Y-109580952D02*
X159679895Y-109695237D01*
X159679895Y-109695237D02*
X159679895Y-109771428D01*
X159146561Y-108742856D02*
X159679895Y-108742856D01*
X158841800Y-108933332D02*
X159413228Y-109123809D01*
X159413228Y-109123809D02*
X159413228Y-108628570D01*
X148284895Y-83748332D02*
X147903942Y-84014999D01*
X148284895Y-84205475D02*
X147484895Y-84205475D01*
X147484895Y-84205475D02*
X147484895Y-83900713D01*
X147484895Y-83900713D02*
X147522990Y-83824523D01*
X147522990Y-83824523D02*
X147561085Y-83786428D01*
X147561085Y-83786428D02*
X147637276Y-83748332D01*
X147637276Y-83748332D02*
X147751561Y-83748332D01*
X147751561Y-83748332D02*
X147827752Y-83786428D01*
X147827752Y-83786428D02*
X147865847Y-83824523D01*
X147865847Y-83824523D02*
X147903942Y-83900713D01*
X147903942Y-83900713D02*
X147903942Y-84205475D01*
X147561085Y-83443571D02*
X147522990Y-83405475D01*
X147522990Y-83405475D02*
X147484895Y-83329285D01*
X147484895Y-83329285D02*
X147484895Y-83138809D01*
X147484895Y-83138809D02*
X147522990Y-83062618D01*
X147522990Y-83062618D02*
X147561085Y-83024523D01*
X147561085Y-83024523D02*
X147637276Y-82986428D01*
X147637276Y-82986428D02*
X147713466Y-82986428D01*
X147713466Y-82986428D02*
X147827752Y-83024523D01*
X147827752Y-83024523D02*
X148284895Y-83481666D01*
X148284895Y-83481666D02*
X148284895Y-82986428D01*
X102166667Y-117164895D02*
X101900000Y-116783942D01*
X101709524Y-117164895D02*
X101709524Y-116364895D01*
X101709524Y-116364895D02*
X102014286Y-116364895D01*
X102014286Y-116364895D02*
X102090476Y-116402990D01*
X102090476Y-116402990D02*
X102128571Y-116441085D01*
X102128571Y-116441085D02*
X102166667Y-116517276D01*
X102166667Y-116517276D02*
X102166667Y-116631561D01*
X102166667Y-116631561D02*
X102128571Y-116707752D01*
X102128571Y-116707752D02*
X102090476Y-116745847D01*
X102090476Y-116745847D02*
X102014286Y-116783942D01*
X102014286Y-116783942D02*
X101709524Y-116783942D01*
X102433333Y-116364895D02*
X102928571Y-116364895D01*
X102928571Y-116364895D02*
X102661905Y-116669657D01*
X102661905Y-116669657D02*
X102776190Y-116669657D01*
X102776190Y-116669657D02*
X102852381Y-116707752D01*
X102852381Y-116707752D02*
X102890476Y-116745847D01*
X102890476Y-116745847D02*
X102928571Y-116822038D01*
X102928571Y-116822038D02*
X102928571Y-117012514D01*
X102928571Y-117012514D02*
X102890476Y-117088704D01*
X102890476Y-117088704D02*
X102852381Y-117126800D01*
X102852381Y-117126800D02*
X102776190Y-117164895D01*
X102776190Y-117164895D02*
X102547619Y-117164895D01*
X102547619Y-117164895D02*
X102471428Y-117126800D01*
X102471428Y-117126800D02*
X102433333Y-117088704D01*
X158864895Y-99766666D02*
X159436323Y-99766666D01*
X159436323Y-99766666D02*
X159550609Y-99804761D01*
X159550609Y-99804761D02*
X159626800Y-99880952D01*
X159626800Y-99880952D02*
X159664895Y-99995237D01*
X159664895Y-99995237D02*
X159664895Y-100071428D01*
X158864895Y-99042856D02*
X158864895Y-99195237D01*
X158864895Y-99195237D02*
X158902990Y-99271428D01*
X158902990Y-99271428D02*
X158941085Y-99309523D01*
X158941085Y-99309523D02*
X159055371Y-99385713D01*
X159055371Y-99385713D02*
X159207752Y-99423809D01*
X159207752Y-99423809D02*
X159512514Y-99423809D01*
X159512514Y-99423809D02*
X159588704Y-99385713D01*
X159588704Y-99385713D02*
X159626800Y-99347618D01*
X159626800Y-99347618D02*
X159664895Y-99271428D01*
X159664895Y-99271428D02*
X159664895Y-99119047D01*
X159664895Y-99119047D02*
X159626800Y-99042856D01*
X159626800Y-99042856D02*
X159588704Y-99004761D01*
X159588704Y-99004761D02*
X159512514Y-98966666D01*
X159512514Y-98966666D02*
X159322038Y-98966666D01*
X159322038Y-98966666D02*
X159245847Y-99004761D01*
X159245847Y-99004761D02*
X159207752Y-99042856D01*
X159207752Y-99042856D02*
X159169657Y-99119047D01*
X159169657Y-99119047D02*
X159169657Y-99271428D01*
X159169657Y-99271428D02*
X159207752Y-99347618D01*
X159207752Y-99347618D02*
X159245847Y-99385713D01*
X159245847Y-99385713D02*
X159322038Y-99423809D01*
X178464895Y-117740475D02*
X177664895Y-117740475D01*
X177664895Y-117740475D02*
X177664895Y-117549999D01*
X177664895Y-117549999D02*
X177702990Y-117435713D01*
X177702990Y-117435713D02*
X177779180Y-117359523D01*
X177779180Y-117359523D02*
X177855371Y-117321428D01*
X177855371Y-117321428D02*
X178007752Y-117283332D01*
X178007752Y-117283332D02*
X178122038Y-117283332D01*
X178122038Y-117283332D02*
X178274419Y-117321428D01*
X178274419Y-117321428D02*
X178350609Y-117359523D01*
X178350609Y-117359523D02*
X178426800Y-117435713D01*
X178426800Y-117435713D02*
X178464895Y-117549999D01*
X178464895Y-117549999D02*
X178464895Y-117740475D01*
X178464895Y-116521428D02*
X178464895Y-116978571D01*
X178464895Y-116749999D02*
X177664895Y-116749999D01*
X177664895Y-116749999D02*
X177779180Y-116826190D01*
X177779180Y-116826190D02*
X177855371Y-116902380D01*
X177855371Y-116902380D02*
X177893466Y-116978571D01*
D11*
X175837704Y-113378571D02*
X175837704Y-112921428D01*
X175837704Y-113150000D02*
X176637704Y-113150000D01*
X176637704Y-113150000D02*
X176523419Y-113073809D01*
X176523419Y-113073809D02*
X176447228Y-112997619D01*
X176447228Y-112997619D02*
X176409133Y-112921428D01*
%TO.C,J7*%
D12*
X135050000Y-112220000D02*
X129050000Y-112220000D01*
X129050000Y-111360000D01*
X135050000Y-111360000D01*
X135050000Y-112220000D01*
G36*
X135050000Y-112220000D02*
G01*
X129050000Y-112220000D01*
X129050000Y-111360000D01*
X135050000Y-111360000D01*
X135050000Y-112220000D01*
G37*
X140470000Y-111790000D02*
X140470000Y-113060000D01*
X140470000Y-113060000D02*
X139200000Y-113060000D01*
X138122642Y-106280000D02*
X137810000Y-106280000D01*
X138122642Y-107140000D02*
X137810000Y-107140000D01*
X138122642Y-108820000D02*
X137810000Y-108820000D01*
X138122642Y-109680000D02*
X137810000Y-109680000D01*
X138040000Y-111360000D02*
X137810000Y-111360000D01*
X138040000Y-112220000D02*
X137810000Y-112220000D01*
X137810000Y-105330000D02*
X135050000Y-105330000D01*
X137810000Y-107980000D02*
X135050000Y-107980000D01*
X137810000Y-110520000D02*
X135050000Y-110520000D01*
X137810000Y-113170000D02*
X137810000Y-105330000D01*
X135050000Y-105330000D02*
X135050000Y-113170000D01*
X135050000Y-107140000D02*
X129050000Y-107140000D01*
X135050000Y-109680000D02*
X129050000Y-109680000D01*
X135050000Y-113170000D02*
X137810000Y-113170000D01*
X129050000Y-106280000D02*
X135050000Y-106280000D01*
X129050000Y-107140000D02*
X129050000Y-106280000D01*
X129050000Y-108820000D02*
X135050000Y-108820000D01*
X129050000Y-109680000D02*
X129050000Y-108820000D01*
%TO.C,R1*%
X145827500Y-83852258D02*
X145827500Y-83377742D01*
X146872500Y-83852258D02*
X146872500Y-83377742D01*
%TO.C,TP2*%
X148200000Y-117800000D02*
G75*
G02*
X145800000Y-117800000I-1200000J0D01*
G01*
X145800000Y-117800000D02*
G75*
G02*
X148200000Y-117800000I1200000J0D01*
G01*
D13*
%TO.C,SW1*%
X115400000Y-121430000D02*
X115400000Y-118970000D01*
X118600000Y-121430000D02*
X118600000Y-118970000D01*
D14*
X115970000Y-123418000D02*
G75*
G02*
X115770000Y-123418000I-100000J0D01*
G01*
X115770000Y-123418000D02*
G75*
G02*
X115970000Y-123418000I100000J0D01*
G01*
D12*
%TO.C,TP1*%
X145200000Y-117800000D02*
G75*
G02*
X142800000Y-117800000I-1200000J0D01*
G01*
X142800000Y-117800000D02*
G75*
G02*
X145200000Y-117800000I1200000J0D01*
G01*
%TO.C,TP4*%
X154200000Y-117800000D02*
G75*
G02*
X151800000Y-117800000I-1200000J0D01*
G01*
X151800000Y-117800000D02*
G75*
G02*
X154200000Y-117800000I1200000J0D01*
G01*
%TO.C,TP3*%
X151200000Y-117800000D02*
G75*
G02*
X148800000Y-117800000I-1200000J0D01*
G01*
X148800000Y-117800000D02*
G75*
G02*
X151200000Y-117800000I1200000J0D01*
G01*
D13*
%TO.C,SW2*%
X119600000Y-121430000D02*
X119600000Y-118970000D01*
X122800000Y-121430000D02*
X122800000Y-118970000D01*
D14*
X120170000Y-123418000D02*
G75*
G02*
X119970000Y-123418000I-100000J0D01*
G01*
X119970000Y-123418000D02*
G75*
G02*
X120170000Y-123418000I100000J0D01*
G01*
D12*
%TO.C,U1*%
X93890000Y-113620000D02*
X93890000Y-95400000D01*
X93890000Y-113620000D02*
X99700000Y-113620000D01*
X93890000Y-95400000D02*
X100390000Y-95400000D01*
X113810000Y-113620000D02*
X114110000Y-113620000D01*
X113810000Y-95400000D02*
X114110000Y-95400000D01*
X114110000Y-113620000D02*
X114110000Y-95400000D01*
X100400000Y-114110000D02*
X99900000Y-113610000D01*
X100400000Y-113610000D01*
X100400000Y-114110000D01*
G36*
X100400000Y-114110000D02*
G01*
X99900000Y-113610000D01*
X100400000Y-113610000D01*
X100400000Y-114110000D01*
G37*
%TO.C,C4*%
X121340580Y-124310000D02*
X121059420Y-124310000D01*
X121340580Y-123290000D02*
X121059420Y-123290000D01*
%TO.C,J4*%
X155245000Y-106660000D02*
X155245000Y-105390000D01*
X155245000Y-105390000D02*
X156515000Y-105390000D01*
X157592358Y-112170000D02*
X157905000Y-112170000D01*
X157592358Y-111310000D02*
X157905000Y-111310000D01*
X157592358Y-109630000D02*
X157905000Y-109630000D01*
X157592358Y-108770000D02*
X157905000Y-108770000D01*
X157675000Y-107090000D02*
X157905000Y-107090000D01*
X157675000Y-106230000D02*
X157905000Y-106230000D01*
X157905000Y-113120000D02*
X160665000Y-113120000D01*
X157905000Y-110470000D02*
X160665000Y-110470000D01*
X157905000Y-107930000D02*
X160665000Y-107930000D01*
X157905000Y-105280000D02*
X157905000Y-113120000D01*
X160665000Y-113120000D02*
X160665000Y-105280000D01*
X160665000Y-111310000D02*
X166665000Y-111310000D01*
X160665000Y-108770000D02*
X166665000Y-108770000D01*
X160665000Y-105280000D02*
X157905000Y-105280000D01*
X166665000Y-112170000D02*
X160665000Y-112170000D01*
X166665000Y-111310000D02*
X166665000Y-112170000D01*
X166665000Y-109630000D02*
X160665000Y-109630000D01*
X166665000Y-108770000D02*
X166665000Y-109630000D01*
X160665000Y-106230000D02*
X166665000Y-106230000D01*
X166665000Y-107090000D01*
X160665000Y-107090000D01*
X160665000Y-106230000D01*
G36*
X160665000Y-106230000D02*
G01*
X166665000Y-106230000D01*
X166665000Y-107090000D01*
X160665000Y-107090000D01*
X160665000Y-106230000D01*
G37*
%TO.C,R2*%
X148827500Y-83852258D02*
X148827500Y-83377742D01*
X149872500Y-83852258D02*
X149872500Y-83377742D01*
%TO.C,R3*%
X102062742Y-115922500D02*
X102537258Y-115922500D01*
X102062742Y-114877500D02*
X102537258Y-114877500D01*
%TO.C,J6*%
X155230000Y-96960000D02*
X155230000Y-95690000D01*
X155230000Y-95690000D02*
X156500000Y-95690000D01*
X157577358Y-102470000D02*
X157890000Y-102470000D01*
X157577358Y-101610000D02*
X157890000Y-101610000D01*
X157577358Y-99930000D02*
X157890000Y-99930000D01*
X157577358Y-99070000D02*
X157890000Y-99070000D01*
X157660000Y-97390000D02*
X157890000Y-97390000D01*
X157660000Y-96530000D02*
X157890000Y-96530000D01*
X157890000Y-103420000D02*
X160650000Y-103420000D01*
X157890000Y-100770000D02*
X160650000Y-100770000D01*
X157890000Y-98230000D02*
X160650000Y-98230000D01*
X157890000Y-95580000D02*
X157890000Y-103420000D01*
X160650000Y-103420000D02*
X160650000Y-95580000D01*
X160650000Y-101610000D02*
X166650000Y-101610000D01*
X160650000Y-99070000D02*
X166650000Y-99070000D01*
X160650000Y-95580000D02*
X157890000Y-95580000D01*
X166650000Y-102470000D02*
X160650000Y-102470000D01*
X166650000Y-101610000D02*
X166650000Y-102470000D01*
X166650000Y-99930000D02*
X160650000Y-99930000D01*
X166650000Y-99070000D02*
X166650000Y-99930000D01*
X160650000Y-96530000D02*
X166650000Y-96530000D01*
X166650000Y-97390000D01*
X160650000Y-97390000D01*
X160650000Y-96530000D01*
G36*
X160650000Y-96530000D02*
G01*
X166650000Y-96530000D01*
X166650000Y-97390000D01*
X160650000Y-97390000D01*
X160650000Y-96530000D01*
G37*
%TO.C,D1*%
X171850000Y-120200000D02*
X172300000Y-120650000D01*
X171850000Y-113650000D02*
X171850000Y-120200000D01*
X172300000Y-120650000D02*
X177350000Y-120650000D01*
X173700000Y-119850000D02*
X175500000Y-119850000D01*
X173700000Y-114450000D02*
X175500000Y-114450000D01*
X177350000Y-113650000D02*
X171850000Y-113650000D01*
X177350000Y-113650000D02*
X177350000Y-120650000D01*
%TO.C,J2*%
X129050000Y-99980000D02*
X129050000Y-99120000D01*
X129050000Y-99120000D02*
X135050000Y-99120000D01*
X129050000Y-97440000D02*
X129050000Y-96580000D01*
X129050000Y-96580000D02*
X135050000Y-96580000D01*
X135050000Y-103470000D02*
X137810000Y-103470000D01*
X135050000Y-99980000D02*
X129050000Y-99980000D01*
X135050000Y-97440000D02*
X129050000Y-97440000D01*
X135050000Y-95630000D02*
X135050000Y-103470000D01*
X137810000Y-103470000D02*
X137810000Y-95630000D01*
X137810000Y-100820000D02*
X135050000Y-100820000D01*
X137810000Y-98280000D02*
X135050000Y-98280000D01*
X137810000Y-95630000D02*
X135050000Y-95630000D01*
X138040000Y-102520000D02*
X137810000Y-102520000D01*
X138040000Y-101660000D02*
X137810000Y-101660000D01*
X138122642Y-99980000D02*
X137810000Y-99980000D01*
X138122642Y-99120000D02*
X137810000Y-99120000D01*
X138122642Y-97440000D02*
X137810000Y-97440000D01*
X138122642Y-96580000D02*
X137810000Y-96580000D01*
X140470000Y-103360000D02*
X139200000Y-103360000D01*
X140470000Y-102090000D02*
X140470000Y-103360000D01*
X135050000Y-102520000D02*
X129050000Y-102520000D01*
X129050000Y-101660000D01*
X135050000Y-101660000D01*
X135050000Y-102520000D01*
G36*
X135050000Y-102520000D02*
G01*
X129050000Y-102520000D01*
X129050000Y-101660000D01*
X135050000Y-101660000D01*
X135050000Y-102520000D01*
G37*
%TD*%
M02*
