%TF.GenerationSoftware,KiCad,Pcbnew,9.0.6*%
%TF.CreationDate,2025-11-25T17:10:00+09:00*%
%TF.ProjectId,UMA,554d412e-6b69-4636-9164-5f7063625858,rev?*%
%TF.SameCoordinates,Original*%
%TF.FileFunction,Legend,Bot*%
%TF.FilePolarity,Positive*%
%FSLAX46Y46*%
G04 Gerber Fmt 4.6, Leading zero omitted, Abs format (unit mm)*
G04 Created by KiCad (PCBNEW 9.0.6) date 2025-11-25 17:10:00*
%MOMM*%
%LPD*%
G01*
G04 APERTURE LIST*
%ADD10C,0.162500*%
%ADD11C,0.100000*%
%ADD12C,0.150000*%
%ADD13C,0.120000*%
%ADD14C,0.200000*%
G04 APERTURE END LIST*
D10*
X148516430Y-111962783D02*
X149506907Y-111962783D01*
X146016430Y-111962783D02*
X147006907Y-111962783D01*
X146511668Y-111467545D02*
X146511668Y-112458021D01*
D11*
X101788704Y-118466667D02*
X101826800Y-118428571D01*
X101826800Y-118428571D02*
X101864895Y-118314286D01*
X101864895Y-118314286D02*
X101864895Y-118238095D01*
X101864895Y-118238095D02*
X101826800Y-118123809D01*
X101826800Y-118123809D02*
X101750609Y-118047619D01*
X101750609Y-118047619D02*
X101674419Y-118009524D01*
X101674419Y-118009524D02*
X101522038Y-117971428D01*
X101522038Y-117971428D02*
X101407752Y-117971428D01*
X101407752Y-117971428D02*
X101255371Y-118009524D01*
X101255371Y-118009524D02*
X101179180Y-118047619D01*
X101179180Y-118047619D02*
X101102990Y-118123809D01*
X101102990Y-118123809D02*
X101064895Y-118238095D01*
X101064895Y-118238095D02*
X101064895Y-118314286D01*
X101064895Y-118314286D02*
X101102990Y-118428571D01*
X101102990Y-118428571D02*
X101141085Y-118466667D01*
X101141085Y-118771428D02*
X101102990Y-118809524D01*
X101102990Y-118809524D02*
X101064895Y-118885714D01*
X101064895Y-118885714D02*
X101064895Y-119076190D01*
X101064895Y-119076190D02*
X101102990Y-119152381D01*
X101102990Y-119152381D02*
X101141085Y-119190476D01*
X101141085Y-119190476D02*
X101217276Y-119228571D01*
X101217276Y-119228571D02*
X101293466Y-119228571D01*
X101293466Y-119228571D02*
X101407752Y-119190476D01*
X101407752Y-119190476D02*
X101864895Y-118733333D01*
X101864895Y-118733333D02*
X101864895Y-119228571D01*
X113588704Y-101726667D02*
X113626800Y-101688571D01*
X113626800Y-101688571D02*
X113664895Y-101574286D01*
X113664895Y-101574286D02*
X113664895Y-101498095D01*
X113664895Y-101498095D02*
X113626800Y-101383809D01*
X113626800Y-101383809D02*
X113550609Y-101307619D01*
X113550609Y-101307619D02*
X113474419Y-101269524D01*
X113474419Y-101269524D02*
X113322038Y-101231428D01*
X113322038Y-101231428D02*
X113207752Y-101231428D01*
X113207752Y-101231428D02*
X113055371Y-101269524D01*
X113055371Y-101269524D02*
X112979180Y-101307619D01*
X112979180Y-101307619D02*
X112902990Y-101383809D01*
X112902990Y-101383809D02*
X112864895Y-101498095D01*
X112864895Y-101498095D02*
X112864895Y-101574286D01*
X112864895Y-101574286D02*
X112902990Y-101688571D01*
X112902990Y-101688571D02*
X112941085Y-101726667D01*
X112864895Y-102450476D02*
X112864895Y-102069524D01*
X112864895Y-102069524D02*
X113245847Y-102031428D01*
X113245847Y-102031428D02*
X113207752Y-102069524D01*
X113207752Y-102069524D02*
X113169657Y-102145714D01*
X113169657Y-102145714D02*
X113169657Y-102336190D01*
X113169657Y-102336190D02*
X113207752Y-102412381D01*
X113207752Y-102412381D02*
X113245847Y-102450476D01*
X113245847Y-102450476D02*
X113322038Y-102488571D01*
X113322038Y-102488571D02*
X113512514Y-102488571D01*
X113512514Y-102488571D02*
X113588704Y-102450476D01*
X113588704Y-102450476D02*
X113626800Y-102412381D01*
X113626800Y-102412381D02*
X113664895Y-102336190D01*
X113664895Y-102336190D02*
X113664895Y-102145714D01*
X113664895Y-102145714D02*
X113626800Y-102069524D01*
X113626800Y-102069524D02*
X113588704Y-102031428D01*
X117330951Y-102164895D02*
X117330951Y-101364895D01*
X116492856Y-102088704D02*
X116530952Y-102126800D01*
X116530952Y-102126800D02*
X116645237Y-102164895D01*
X116645237Y-102164895D02*
X116721428Y-102164895D01*
X116721428Y-102164895D02*
X116835714Y-102126800D01*
X116835714Y-102126800D02*
X116911904Y-102050609D01*
X116911904Y-102050609D02*
X116949999Y-101974419D01*
X116949999Y-101974419D02*
X116988095Y-101822038D01*
X116988095Y-101822038D02*
X116988095Y-101707752D01*
X116988095Y-101707752D02*
X116949999Y-101555371D01*
X116949999Y-101555371D02*
X116911904Y-101479180D01*
X116911904Y-101479180D02*
X116835714Y-101402990D01*
X116835714Y-101402990D02*
X116721428Y-101364895D01*
X116721428Y-101364895D02*
X116645237Y-101364895D01*
X116645237Y-101364895D02*
X116530952Y-101402990D01*
X116530952Y-101402990D02*
X116492856Y-101441085D01*
X115730952Y-102164895D02*
X116188095Y-102164895D01*
X115959523Y-102164895D02*
X115959523Y-101364895D01*
X115959523Y-101364895D02*
X116035714Y-101479180D01*
X116035714Y-101479180D02*
X116111904Y-101555371D01*
X116111904Y-101555371D02*
X116188095Y-101593466D01*
X147283333Y-83585104D02*
X147283333Y-83013676D01*
X147283333Y-83013676D02*
X147245238Y-82899390D01*
X147245238Y-82899390D02*
X147169047Y-82823200D01*
X147169047Y-82823200D02*
X147054762Y-82785104D01*
X147054762Y-82785104D02*
X146978571Y-82785104D01*
X148083333Y-82785104D02*
X147626190Y-82785104D01*
X147854762Y-82785104D02*
X147854762Y-83585104D01*
X147854762Y-83585104D02*
X147778571Y-83470819D01*
X147778571Y-83470819D02*
X147702381Y-83394628D01*
X147702381Y-83394628D02*
X147626190Y-83356533D01*
D12*
X189718333Y-110464819D02*
X189718333Y-111179104D01*
X189718333Y-111179104D02*
X189765952Y-111321961D01*
X189765952Y-111321961D02*
X189861190Y-111417200D01*
X189861190Y-111417200D02*
X190004047Y-111464819D01*
X190004047Y-111464819D02*
X190099285Y-111464819D01*
X189099285Y-110893390D02*
X189194523Y-110845771D01*
X189194523Y-110845771D02*
X189242142Y-110798152D01*
X189242142Y-110798152D02*
X189289761Y-110702914D01*
X189289761Y-110702914D02*
X189289761Y-110655295D01*
X189289761Y-110655295D02*
X189242142Y-110560057D01*
X189242142Y-110560057D02*
X189194523Y-110512438D01*
X189194523Y-110512438D02*
X189099285Y-110464819D01*
X189099285Y-110464819D02*
X188908809Y-110464819D01*
X188908809Y-110464819D02*
X188813571Y-110512438D01*
X188813571Y-110512438D02*
X188765952Y-110560057D01*
X188765952Y-110560057D02*
X188718333Y-110655295D01*
X188718333Y-110655295D02*
X188718333Y-110702914D01*
X188718333Y-110702914D02*
X188765952Y-110798152D01*
X188765952Y-110798152D02*
X188813571Y-110845771D01*
X188813571Y-110845771D02*
X188908809Y-110893390D01*
X188908809Y-110893390D02*
X189099285Y-110893390D01*
X189099285Y-110893390D02*
X189194523Y-110941009D01*
X189194523Y-110941009D02*
X189242142Y-110988628D01*
X189242142Y-110988628D02*
X189289761Y-111083866D01*
X189289761Y-111083866D02*
X189289761Y-111274342D01*
X189289761Y-111274342D02*
X189242142Y-111369580D01*
X189242142Y-111369580D02*
X189194523Y-111417200D01*
X189194523Y-111417200D02*
X189099285Y-111464819D01*
X189099285Y-111464819D02*
X188908809Y-111464819D01*
X188908809Y-111464819D02*
X188813571Y-111417200D01*
X188813571Y-111417200D02*
X188765952Y-111369580D01*
X188765952Y-111369580D02*
X188718333Y-111274342D01*
X188718333Y-111274342D02*
X188718333Y-111083866D01*
X188718333Y-111083866D02*
X188765952Y-110988628D01*
X188765952Y-110988628D02*
X188813571Y-110941009D01*
X188813571Y-110941009D02*
X188908809Y-110893390D01*
D11*
X124966666Y-85464895D02*
X125233333Y-85083942D01*
X125423809Y-85464895D02*
X125423809Y-84664895D01*
X125423809Y-84664895D02*
X125119047Y-84664895D01*
X125119047Y-84664895D02*
X125042857Y-84702990D01*
X125042857Y-84702990D02*
X125004762Y-84741085D01*
X125004762Y-84741085D02*
X124966666Y-84817276D01*
X124966666Y-84817276D02*
X124966666Y-84931561D01*
X124966666Y-84931561D02*
X125004762Y-85007752D01*
X125004762Y-85007752D02*
X125042857Y-85045847D01*
X125042857Y-85045847D02*
X125119047Y-85083942D01*
X125119047Y-85083942D02*
X125423809Y-85083942D01*
X124623809Y-85045847D02*
X124357143Y-85045847D01*
X124242857Y-85464895D02*
X124623809Y-85464895D01*
X124623809Y-85464895D02*
X124623809Y-84664895D01*
X124623809Y-84664895D02*
X124242857Y-84664895D01*
X123633333Y-85045847D02*
X123899999Y-85045847D01*
X123899999Y-85464895D02*
X123899999Y-84664895D01*
X123899999Y-84664895D02*
X123519047Y-84664895D01*
X123100000Y-84664895D02*
X123100000Y-84855371D01*
X123290476Y-84779180D02*
X123100000Y-84855371D01*
X123100000Y-84855371D02*
X122909523Y-84779180D01*
X123214285Y-85007752D02*
X123100000Y-84855371D01*
X123100000Y-84855371D02*
X122985714Y-85007752D01*
X122490476Y-84664895D02*
X122490476Y-84855371D01*
X122680952Y-84779180D02*
X122490476Y-84855371D01*
X122490476Y-84855371D02*
X122299999Y-84779180D01*
X122604761Y-85007752D02*
X122490476Y-84855371D01*
X122490476Y-84855371D02*
X122376190Y-85007752D01*
X122833333Y-123335104D02*
X122566666Y-123716057D01*
X122376190Y-123335104D02*
X122376190Y-124135104D01*
X122376190Y-124135104D02*
X122680952Y-124135104D01*
X122680952Y-124135104D02*
X122757142Y-124097009D01*
X122757142Y-124097009D02*
X122795237Y-124058914D01*
X122795237Y-124058914D02*
X122833333Y-123982723D01*
X122833333Y-123982723D02*
X122833333Y-123868438D01*
X122833333Y-123868438D02*
X122795237Y-123792247D01*
X122795237Y-123792247D02*
X122757142Y-123754152D01*
X122757142Y-123754152D02*
X122680952Y-123716057D01*
X122680952Y-123716057D02*
X122376190Y-123716057D01*
X123176190Y-123754152D02*
X123442856Y-123754152D01*
X123557142Y-123335104D02*
X123176190Y-123335104D01*
X123176190Y-123335104D02*
X123176190Y-124135104D01*
X123176190Y-124135104D02*
X123557142Y-124135104D01*
X124166666Y-123754152D02*
X123900000Y-123754152D01*
X123900000Y-123335104D02*
X123900000Y-124135104D01*
X123900000Y-124135104D02*
X124280952Y-124135104D01*
X124699999Y-124135104D02*
X124699999Y-123944628D01*
X124509523Y-124020819D02*
X124699999Y-123944628D01*
X124699999Y-123944628D02*
X124890476Y-124020819D01*
X124585714Y-123792247D02*
X124699999Y-123944628D01*
X124699999Y-123944628D02*
X124814285Y-123792247D01*
X125309523Y-124135104D02*
X125309523Y-123944628D01*
X125119047Y-124020819D02*
X125309523Y-123944628D01*
X125309523Y-123944628D02*
X125500000Y-124020819D01*
X125195238Y-123792247D02*
X125309523Y-123944628D01*
X125309523Y-123944628D02*
X125423809Y-123792247D01*
X148016666Y-106314895D02*
X148016666Y-106886323D01*
X148016666Y-106886323D02*
X148054761Y-107000609D01*
X148054761Y-107000609D02*
X148130952Y-107076800D01*
X148130952Y-107076800D02*
X148245237Y-107114895D01*
X148245237Y-107114895D02*
X148321428Y-107114895D01*
X147254761Y-106314895D02*
X147635713Y-106314895D01*
X147635713Y-106314895D02*
X147673809Y-106695847D01*
X147673809Y-106695847D02*
X147635713Y-106657752D01*
X147635713Y-106657752D02*
X147559523Y-106619657D01*
X147559523Y-106619657D02*
X147369047Y-106619657D01*
X147369047Y-106619657D02*
X147292856Y-106657752D01*
X147292856Y-106657752D02*
X147254761Y-106695847D01*
X147254761Y-106695847D02*
X147216666Y-106772038D01*
X147216666Y-106772038D02*
X147216666Y-106962514D01*
X147216666Y-106962514D02*
X147254761Y-107038704D01*
X147254761Y-107038704D02*
X147292856Y-107076800D01*
X147292856Y-107076800D02*
X147369047Y-107114895D01*
X147369047Y-107114895D02*
X147559523Y-107114895D01*
X147559523Y-107114895D02*
X147635713Y-107076800D01*
X147635713Y-107076800D02*
X147673809Y-107038704D01*
X120088704Y-101726667D02*
X120126800Y-101688571D01*
X120126800Y-101688571D02*
X120164895Y-101574286D01*
X120164895Y-101574286D02*
X120164895Y-101498095D01*
X120164895Y-101498095D02*
X120126800Y-101383809D01*
X120126800Y-101383809D02*
X120050609Y-101307619D01*
X120050609Y-101307619D02*
X119974419Y-101269524D01*
X119974419Y-101269524D02*
X119822038Y-101231428D01*
X119822038Y-101231428D02*
X119707752Y-101231428D01*
X119707752Y-101231428D02*
X119555371Y-101269524D01*
X119555371Y-101269524D02*
X119479180Y-101307619D01*
X119479180Y-101307619D02*
X119402990Y-101383809D01*
X119402990Y-101383809D02*
X119364895Y-101498095D01*
X119364895Y-101498095D02*
X119364895Y-101574286D01*
X119364895Y-101574286D02*
X119402990Y-101688571D01*
X119402990Y-101688571D02*
X119441085Y-101726667D01*
X120164895Y-102488571D02*
X120164895Y-102031428D01*
X120164895Y-102260000D02*
X119364895Y-102260000D01*
X119364895Y-102260000D02*
X119479180Y-102183809D01*
X119479180Y-102183809D02*
X119555371Y-102107619D01*
X119555371Y-102107619D02*
X119593466Y-102031428D01*
X170633333Y-123335104D02*
X170366666Y-123716057D01*
X170176190Y-123335104D02*
X170176190Y-124135104D01*
X170176190Y-124135104D02*
X170480952Y-124135104D01*
X170480952Y-124135104D02*
X170557142Y-124097009D01*
X170557142Y-124097009D02*
X170595237Y-124058914D01*
X170595237Y-124058914D02*
X170633333Y-123982723D01*
X170633333Y-123982723D02*
X170633333Y-123868438D01*
X170633333Y-123868438D02*
X170595237Y-123792247D01*
X170595237Y-123792247D02*
X170557142Y-123754152D01*
X170557142Y-123754152D02*
X170480952Y-123716057D01*
X170480952Y-123716057D02*
X170176190Y-123716057D01*
X170976190Y-123754152D02*
X171242856Y-123754152D01*
X171357142Y-123335104D02*
X170976190Y-123335104D01*
X170976190Y-123335104D02*
X170976190Y-124135104D01*
X170976190Y-124135104D02*
X171357142Y-124135104D01*
X171966666Y-123754152D02*
X171700000Y-123754152D01*
X171700000Y-123335104D02*
X171700000Y-124135104D01*
X171700000Y-124135104D02*
X172080952Y-124135104D01*
X172499999Y-124135104D02*
X172499999Y-123944628D01*
X172309523Y-124020819D02*
X172499999Y-123944628D01*
X172499999Y-123944628D02*
X172690476Y-124020819D01*
X172385714Y-123792247D02*
X172499999Y-123944628D01*
X172499999Y-123944628D02*
X172614285Y-123792247D01*
X173109523Y-124135104D02*
X173109523Y-123944628D01*
X172919047Y-124020819D02*
X173109523Y-123944628D01*
X173109523Y-123944628D02*
X173300000Y-124020819D01*
X172995238Y-123792247D02*
X173109523Y-123944628D01*
X173109523Y-123944628D02*
X173223809Y-123792247D01*
X103388704Y-118466667D02*
X103426800Y-118428571D01*
X103426800Y-118428571D02*
X103464895Y-118314286D01*
X103464895Y-118314286D02*
X103464895Y-118238095D01*
X103464895Y-118238095D02*
X103426800Y-118123809D01*
X103426800Y-118123809D02*
X103350609Y-118047619D01*
X103350609Y-118047619D02*
X103274419Y-118009524D01*
X103274419Y-118009524D02*
X103122038Y-117971428D01*
X103122038Y-117971428D02*
X103007752Y-117971428D01*
X103007752Y-117971428D02*
X102855371Y-118009524D01*
X102855371Y-118009524D02*
X102779180Y-118047619D01*
X102779180Y-118047619D02*
X102702990Y-118123809D01*
X102702990Y-118123809D02*
X102664895Y-118238095D01*
X102664895Y-118238095D02*
X102664895Y-118314286D01*
X102664895Y-118314286D02*
X102702990Y-118428571D01*
X102702990Y-118428571D02*
X102741085Y-118466667D01*
X102664895Y-118733333D02*
X102664895Y-119228571D01*
X102664895Y-119228571D02*
X102969657Y-118961905D01*
X102969657Y-118961905D02*
X102969657Y-119076190D01*
X102969657Y-119076190D02*
X103007752Y-119152381D01*
X103007752Y-119152381D02*
X103045847Y-119190476D01*
X103045847Y-119190476D02*
X103122038Y-119228571D01*
X103122038Y-119228571D02*
X103312514Y-119228571D01*
X103312514Y-119228571D02*
X103388704Y-119190476D01*
X103388704Y-119190476D02*
X103426800Y-119152381D01*
X103426800Y-119152381D02*
X103464895Y-119076190D01*
X103464895Y-119076190D02*
X103464895Y-118847619D01*
X103464895Y-118847619D02*
X103426800Y-118771428D01*
X103426800Y-118771428D02*
X103388704Y-118733333D01*
X172766666Y-85564895D02*
X173033333Y-85183942D01*
X173223809Y-85564895D02*
X173223809Y-84764895D01*
X173223809Y-84764895D02*
X172919047Y-84764895D01*
X172919047Y-84764895D02*
X172842857Y-84802990D01*
X172842857Y-84802990D02*
X172804762Y-84841085D01*
X172804762Y-84841085D02*
X172766666Y-84917276D01*
X172766666Y-84917276D02*
X172766666Y-85031561D01*
X172766666Y-85031561D02*
X172804762Y-85107752D01*
X172804762Y-85107752D02*
X172842857Y-85145847D01*
X172842857Y-85145847D02*
X172919047Y-85183942D01*
X172919047Y-85183942D02*
X173223809Y-85183942D01*
X172423809Y-85145847D02*
X172157143Y-85145847D01*
X172042857Y-85564895D02*
X172423809Y-85564895D01*
X172423809Y-85564895D02*
X172423809Y-84764895D01*
X172423809Y-84764895D02*
X172042857Y-84764895D01*
X171433333Y-85145847D02*
X171699999Y-85145847D01*
X171699999Y-85564895D02*
X171699999Y-84764895D01*
X171699999Y-84764895D02*
X171319047Y-84764895D01*
X170900000Y-84764895D02*
X170900000Y-84955371D01*
X171090476Y-84879180D02*
X170900000Y-84955371D01*
X170900000Y-84955371D02*
X170709523Y-84879180D01*
X171014285Y-85107752D02*
X170900000Y-84955371D01*
X170900000Y-84955371D02*
X170785714Y-85107752D01*
X170290476Y-84764895D02*
X170290476Y-84955371D01*
X170480952Y-84879180D02*
X170290476Y-84955371D01*
X170290476Y-84955371D02*
X170099999Y-84879180D01*
X170404761Y-85107752D02*
X170290476Y-84955371D01*
X170290476Y-84955371D02*
X170176190Y-85107752D01*
D13*
%TO.C,C2*%
X100990000Y-116340580D02*
X100990000Y-116059420D01*
X102010000Y-116340580D02*
X102010000Y-116059420D01*
%TO.C,C5*%
X112790000Y-104525580D02*
X112790000Y-104244420D01*
X113810000Y-104525580D02*
X113810000Y-104244420D01*
D14*
%TO.C,IC1*%
X116275000Y-105848000D02*
X116825000Y-105848000D01*
X116275000Y-102952000D02*
X116275000Y-105848000D01*
X116825000Y-105848000D02*
X116825000Y-102952000D01*
X116825000Y-102952000D02*
X116275000Y-102952000D01*
X118425000Y-102886000D02*
X117175000Y-102886000D01*
D13*
%TO.C,J1*%
X142880000Y-83250000D02*
X142880000Y-84950000D01*
X152220000Y-83250000D02*
X152220000Y-84950000D01*
%TO.C,J8*%
X183730000Y-110010000D02*
X185000000Y-110010000D01*
X183730000Y-108740000D02*
X183730000Y-110010000D01*
X186077358Y-106630000D02*
X186390000Y-106630000D01*
X186077358Y-105770000D02*
X186390000Y-105770000D01*
X186077358Y-104090000D02*
X186390000Y-104090000D01*
X186077358Y-103230000D02*
X186390000Y-103230000D01*
X186077358Y-101550000D02*
X186390000Y-101550000D01*
X186077358Y-100690000D02*
X186390000Y-100690000D01*
X186160000Y-109170000D02*
X186390000Y-109170000D01*
X186160000Y-108310000D02*
X186390000Y-108310000D01*
X186390000Y-110120000D02*
X186390000Y-99740000D01*
X186390000Y-107470000D02*
X189150000Y-107470000D01*
X186390000Y-104930000D02*
X189150000Y-104930000D01*
X186390000Y-102390000D02*
X189150000Y-102390000D01*
X186390000Y-99740000D02*
X189150000Y-99740000D01*
X189150000Y-110120000D02*
X186390000Y-110120000D01*
X189150000Y-106630000D02*
X195150000Y-106630000D01*
X189150000Y-104090000D02*
X195150000Y-104090000D01*
X189150000Y-101550000D02*
X195150000Y-101550000D01*
X189150000Y-99740000D02*
X189150000Y-110120000D01*
X195150000Y-106630000D02*
X195150000Y-105770000D01*
X195150000Y-105770000D02*
X189150000Y-105770000D01*
X195150000Y-104090000D02*
X195150000Y-103230000D01*
X195150000Y-103230000D02*
X189150000Y-103230000D01*
X195150000Y-101550000D02*
X195150000Y-100690000D01*
X195150000Y-100690000D02*
X189150000Y-100690000D01*
X189150000Y-109170000D02*
X195150000Y-109170000D01*
X195150000Y-108310000D01*
X189150000Y-108310000D01*
X189150000Y-109170000D01*
G36*
X189150000Y-109170000D02*
G01*
X195150000Y-109170000D01*
X195150000Y-108310000D01*
X189150000Y-108310000D01*
X189150000Y-109170000D01*
G37*
D11*
%TO.C,REF\u002A\u002A*%
X107700000Y-81800000D02*
X112400000Y-81800000D01*
X107700000Y-79400000D02*
X107700000Y-81800000D01*
X112400000Y-97600000D02*
X135400000Y-97600000D01*
X112400000Y-81800000D02*
X112400000Y-97600000D01*
X112400000Y-79400000D02*
X107700000Y-79400000D01*
X112400000Y-68400000D02*
X112400000Y-79400000D01*
X126900000Y-75100000D02*
X126900000Y-68400000D01*
X126900000Y-68400000D02*
X112400000Y-68400000D01*
X135400000Y-97600000D02*
X135400000Y-81800000D01*
X135400000Y-81800000D02*
X140100000Y-81800000D01*
X135400000Y-79400000D02*
X135400000Y-75100000D01*
X135400000Y-75100000D02*
X126900000Y-75100000D01*
X140100000Y-81800000D02*
X140100000Y-79400000D01*
X140100000Y-79400000D02*
X135400000Y-79400000D01*
X107700000Y-129400000D02*
X112400000Y-129400000D01*
X107700000Y-127000000D02*
X107700000Y-129400000D01*
X112400000Y-133700000D02*
X120900000Y-133700000D01*
X112400000Y-129400000D02*
X112400000Y-133700000D01*
X112400000Y-127000000D02*
X107700000Y-127000000D01*
X112400000Y-111200000D02*
X112400000Y-127000000D01*
X120900000Y-140400000D02*
X135400000Y-140400000D01*
X120900000Y-133700000D02*
X120900000Y-140400000D01*
X135400000Y-140400000D02*
X135400000Y-129400000D01*
X135400000Y-129400000D02*
X140100000Y-129400000D01*
X135400000Y-127000000D02*
X135400000Y-111200000D01*
X135400000Y-111200000D02*
X112400000Y-111200000D01*
X140100000Y-129400000D02*
X140100000Y-127000000D01*
X140100000Y-127000000D02*
X135400000Y-127000000D01*
D13*
%TO.C,J5*%
X143940000Y-112610000D02*
X145360000Y-112610000D01*
X143940000Y-100890000D02*
X143940000Y-112610000D01*
X145360000Y-112610000D02*
X145360000Y-108110000D01*
X146200000Y-110700000D02*
X146800000Y-110700000D01*
X146250000Y-107000000D02*
X146250000Y-101500000D01*
X146250000Y-101500000D02*
X146750000Y-101500000D01*
X146500000Y-110100000D02*
X146200000Y-110700000D01*
X146750000Y-107000000D02*
X146250000Y-107000000D01*
X146750000Y-101500000D02*
X146750000Y-107000000D01*
X146800000Y-110700000D02*
X146500000Y-110100000D01*
X147750000Y-100890000D02*
X143940000Y-100890000D01*
X147750000Y-100890000D02*
X151560000Y-100890000D01*
X148750000Y-107000000D02*
X148750000Y-101500000D01*
X148750000Y-101500000D02*
X149250000Y-101500000D01*
X149250000Y-107000000D02*
X148750000Y-107000000D01*
X149250000Y-101500000D02*
X149250000Y-107000000D01*
X150140000Y-112610000D02*
X150140000Y-108110000D01*
X151560000Y-112610000D02*
X150140000Y-112610000D01*
X151560000Y-100890000D02*
X151560000Y-112610000D01*
%TO.C,C1*%
X119290000Y-104600580D02*
X119290000Y-104319420D01*
X120310000Y-104600580D02*
X120310000Y-104319420D01*
D11*
%TO.C,REF\u002A\u002A*%
X155500000Y-129400000D02*
X160200000Y-129400000D01*
X155500000Y-127000000D02*
X155500000Y-129400000D01*
X160200000Y-133700000D02*
X168700000Y-133700000D01*
X160200000Y-129400000D02*
X160200000Y-133700000D01*
X160200000Y-127000000D02*
X155500000Y-127000000D01*
X160200000Y-111200000D02*
X160200000Y-127000000D01*
X168700000Y-140400000D02*
X183200000Y-140400000D01*
X168700000Y-133700000D02*
X168700000Y-140400000D01*
X183200000Y-140400000D02*
X183200000Y-129400000D01*
X183200000Y-129400000D02*
X187900000Y-129400000D01*
X183200000Y-127000000D02*
X183200000Y-111200000D01*
X183200000Y-111200000D02*
X160200000Y-111200000D01*
X187900000Y-129400000D02*
X187900000Y-127000000D01*
X187900000Y-127000000D02*
X183200000Y-127000000D01*
D13*
%TO.C,C3*%
X102590000Y-116340580D02*
X102590000Y-116059420D01*
X103610000Y-116340580D02*
X103610000Y-116059420D01*
D11*
%TO.C,REF\u002A\u002A*%
X155500000Y-81900000D02*
X160200000Y-81900000D01*
X155500000Y-79500000D02*
X155500000Y-81900000D01*
X160200000Y-97700000D02*
X183200000Y-97700000D01*
X160200000Y-81900000D02*
X160200000Y-97700000D01*
X160200000Y-79500000D02*
X155500000Y-79500000D01*
X160200000Y-68500000D02*
X160200000Y-79500000D01*
X174700000Y-75200000D02*
X174700000Y-68500000D01*
X174700000Y-68500000D02*
X160200000Y-68500000D01*
X183200000Y-97700000D02*
X183200000Y-81900000D01*
X183200000Y-81900000D02*
X187900000Y-81900000D01*
X183200000Y-79500000D02*
X183200000Y-75200000D01*
X183200000Y-75200000D02*
X174700000Y-75200000D01*
X187900000Y-81900000D02*
X187900000Y-79500000D01*
X187900000Y-79500000D02*
X183200000Y-79500000D01*
%TD*%
M02*
