%TF.GenerationSoftware,KiCad,Pcbnew,9.0.6*%
%TF.CreationDate,2025-11-25T17:10:00+09:00*%
%TF.ProjectId,UMA,554d412e-6b69-4636-9164-5f7063625858,rev?*%
%TF.SameCoordinates,Original*%
%TF.FileFunction,Soldermask,Top*%
%TF.FilePolarity,Negative*%
%FSLAX46Y46*%
G04 Gerber Fmt 4.6, Leading zero omitted, Abs format (unit mm)*
G04 Created by KiCad (PCBNEW 9.0.6) date 2025-11-25 17:10:00*
%MOMM*%
%LPD*%
G01*
G04 APERTURE LIST*
G04 Aperture macros list*
%AMRoundRect*
0 Rectangle with rounded corners*
0 $1 Rounding radius*
0 $2 $3 $4 $5 $6 $7 $8 $9 X,Y pos of 4 corners*
0 Add a 4 corners polygon primitive as box body*
4,1,4,$2,$3,$4,$5,$6,$7,$8,$9,$2,$3,0*
0 Add four circle primitives for the rounded corners*
1,1,$1+$1,$2,$3*
1,1,$1+$1,$4,$5*
1,1,$1+$1,$6,$7*
1,1,$1+$1,$8,$9*
0 Add four rect primitives between the rounded corners*
20,1,$1+$1,$2,$3,$4,$5,0*
20,1,$1+$1,$4,$5,$6,$7,0*
20,1,$1+$1,$6,$7,$8,$9,0*
20,1,$1+$1,$8,$9,$2,$3,0*%
G04 Aperture macros list end*
%ADD10C,1.700000*%
%ADD11R,1.700000X1.700000*%
%ADD12C,3.800000*%
%ADD13C,0.650000*%
%ADD14O,1.000000X2.100000*%
%ADD15O,1.000000X1.800000*%
%ADD16RoundRect,0.250000X-0.600000X-0.750000X0.600000X-0.750000X0.600000X0.750000X-0.600000X0.750000X0*%
%ADD17O,1.700000X2.000000*%
%ADD18RoundRect,0.200000X0.275000X-0.200000X0.275000X0.200000X-0.275000X0.200000X-0.275000X-0.200000X0*%
%ADD19C,2.000000*%
%ADD20RoundRect,0.102000X0.325000X-0.525000X0.325000X0.525000X-0.325000X0.525000X-0.325000X-0.525000X0*%
%ADD21R,0.900000X1.500000*%
%ADD22C,0.600000*%
%ADD23R,2.900000X2.900000*%
%ADD24RoundRect,0.225000X0.225000X0.250000X-0.225000X0.250000X-0.225000X-0.250000X0.225000X-0.250000X0*%
%ADD25RoundRect,0.200000X-0.200000X-0.275000X0.200000X-0.275000X0.200000X0.275000X-0.200000X0.275000X0*%
%ADD26RoundRect,0.090000X-0.360000X0.660000X-0.360000X-0.660000X0.360000X-0.660000X0.360000X0.660000X0*%
G04 APERTURE END LIST*
D10*
%TO.C,J7*%
X139200000Y-106710000D03*
X139200000Y-109250000D03*
D11*
X139200000Y-111790000D03*
%TD*%
D12*
%TO.C,REF\u002A\u002A*%
X137800000Y-122200000D03*
%TD*%
D13*
%TO.C,J1*%
X144660000Y-85755000D03*
X150440000Y-85755000D03*
D14*
X143230000Y-86255000D03*
D15*
X143230000Y-82075000D03*
D14*
X151870000Y-86255000D03*
D15*
X151870000Y-82075000D03*
%TD*%
D12*
%TO.C,REF\u002A\u002A*%
X105000000Y-86600000D03*
%TD*%
D11*
%TO.C,J8*%
X185000000Y-108740000D03*
D10*
X185000000Y-106200000D03*
X185000000Y-103660000D03*
X185000000Y-101120000D03*
%TD*%
D12*
%TO.C,REF\u002A\u002A*%
X190600000Y-86600000D03*
%TD*%
%TO.C,REF\u002A\u002A*%
X137800000Y-86600000D03*
%TD*%
%TO.C,REF\u002A\u002A*%
X190600000Y-122200000D03*
%TD*%
%TO.C,REF\u002A\u002A*%
X157800000Y-122200000D03*
%TD*%
%TO.C,REF\u002A\u002A*%
X157800000Y-86600000D03*
%TD*%
D16*
%TO.C,J5*%
X146500000Y-108600000D03*
D17*
X149000000Y-108600000D03*
%TD*%
D12*
%TO.C,REF\u002A\u002A*%
X105000000Y-122200000D03*
%TD*%
D18*
%TO.C,R1*%
X146350000Y-84440000D03*
X146350000Y-82790000D03*
%TD*%
D19*
%TO.C,TP2*%
X147000000Y-117800000D03*
%TD*%
D20*
%TO.C,SW1*%
X115925000Y-122275000D03*
X115925000Y-118125000D03*
X118075000Y-122275000D03*
X118075000Y-118125000D03*
%TD*%
D19*
%TO.C,TP1*%
X144000000Y-117800000D03*
%TD*%
%TO.C,TP4*%
X153000000Y-117800000D03*
%TD*%
%TO.C,TP3*%
X150000000Y-117800000D03*
%TD*%
D20*
%TO.C,SW2*%
X120125000Y-122275000D03*
X120125000Y-118125000D03*
X122275000Y-122275000D03*
X122275000Y-118125000D03*
%TD*%
D21*
%TO.C,U1*%
X101100000Y-113260000D03*
X102600000Y-113260000D03*
X104100000Y-113260000D03*
X105600000Y-113260000D03*
X107100000Y-113260000D03*
X108600000Y-113260000D03*
X110100000Y-113260000D03*
X111600000Y-113260000D03*
X113100000Y-113260000D03*
X113100000Y-95760000D03*
X111600000Y-95760000D03*
X110100000Y-95760000D03*
X108600000Y-95760000D03*
X107100000Y-95760000D03*
X105600000Y-95760000D03*
X104100000Y-95760000D03*
X102600000Y-95760000D03*
X101100000Y-95760000D03*
D22*
X107850000Y-104650000D03*
X106750000Y-104650000D03*
X108400000Y-104100000D03*
X107300000Y-104100000D03*
X106200000Y-104100000D03*
X107850000Y-103550000D03*
D23*
X107300000Y-103550000D03*
D22*
X106750000Y-103550000D03*
X108400000Y-103000000D03*
X107300000Y-103000000D03*
X106200000Y-103000000D03*
X107850000Y-102450000D03*
X106750000Y-102450000D03*
%TD*%
D24*
%TO.C,C4*%
X121975000Y-123800000D03*
X120425000Y-123800000D03*
%TD*%
D11*
%TO.C,J4*%
X156515000Y-106660000D03*
D10*
X156515000Y-109200000D03*
X156515000Y-111740000D03*
%TD*%
D18*
%TO.C,R2*%
X149350000Y-84440000D03*
X149350000Y-82790000D03*
%TD*%
D25*
%TO.C,R3*%
X101475000Y-115400000D03*
X103125000Y-115400000D03*
%TD*%
D11*
%TO.C,J6*%
X156500000Y-96960000D03*
D10*
X156500000Y-99500000D03*
X156500000Y-102040000D03*
%TD*%
D26*
%TO.C,D1*%
X176250000Y-114700000D03*
X172950000Y-114700000D03*
X172950000Y-119600000D03*
X176250000Y-119600000D03*
%TD*%
D11*
%TO.C,J2*%
X139200000Y-102090000D03*
D10*
X139200000Y-99550000D03*
X139200000Y-97010000D03*
%TD*%
M02*
