M48
; DRILL file {KiCad 9.0.6} date 2025-11-25T17:09:56+0900
; FORMAT={-:-/ absolute / metric / decimal}
; #@! TF.CreationDate,2025-11-25T17:09:56+09:00
; #@! TF.GenerationSoftware,Kicad,Pcbnew,9.0.6
; #@! TF.FileFunction,Plated,1,2,PTH
FMAT,2
METRIC
; #@! TA.AperFunction,Plated,PTH,ComponentDrill
T1C0.200
; #@! TA.AperFunction,Plated,PTH,ViaDrill
T2C0.300
; #@! TA.AperFunction,Plated,PTH,ComponentDrill
T3C0.600
; #@! TA.AperFunction,Plated,PTH,ComponentDrill
T4C1.000
; #@! TA.AperFunction,Plated,PTH,ComponentDrill
T5C2.200
%
G90
G05
T1
X106.2Y-103.0
X106.2Y-104.1
X106.75Y-102.45
X106.75Y-103.55
X106.75Y-104.65
X107.3Y-103.0
X107.3Y-104.1
X107.85Y-102.45
X107.85Y-103.55
X107.85Y-104.65
X108.4Y-103.0
X108.4Y-104.1
T2
X101.1Y-113.26
X101.5Y-115.425
X102.6Y-95.76
X103.1Y-115.375
X104.1Y-95.76
X105.6Y-95.76
X105.6Y-113.26
X107.1Y-113.26
X110.4Y-111.19
X111.2Y-111.19
X113.1Y-113.26
X113.3Y-105.16
X114.25Y-112.6
X114.25Y-113.8
X115.648Y-116.35
X115.925Y-118.125
X117.8Y-104.4
X119.8Y-105.235
X143.551Y-114.749
X144.0Y-117.8
X144.339Y-114.61
X144.35Y-86.83
X145.15Y-86.83
X146.35Y-84.44
X146.964Y-88.4
X147.842Y-88.22
X149.35Y-84.44
X149.95Y-86.83
X150.75Y-86.83
X154.7Y-98.2
X172.95Y-119.6
X176.25Y-119.6
T4
X139.2Y-97.01
X139.2Y-99.55
X139.2Y-102.09
X139.2Y-106.71
X139.2Y-109.25
X139.2Y-111.79
X146.5Y-108.6
X149.0Y-108.6
X156.5Y-96.96
X156.5Y-99.5
X156.5Y-102.04
X156.515Y-106.66
X156.515Y-109.2
X156.515Y-111.74
X185.0Y-101.12
X185.0Y-103.66
X185.0Y-106.2
X185.0Y-108.74
T5
X105.0Y-86.6
X105.0Y-122.2
X137.8Y-86.6
X137.8Y-122.2
X157.8Y-86.6
X157.8Y-122.2
X190.6Y-86.6
X190.6Y-122.2
T3
G00X143.23Y-81.675
M15
G01X143.23Y-82.475
M16
G05
G00X143.23Y-85.705
M15
G01X143.23Y-86.805
M16
G05
G00X151.87Y-81.675
M15
G01X151.87Y-82.475
M16
G05
G00X151.87Y-85.705
M15
G01X151.87Y-86.805
M16
G05
M30
