%TF.GenerationSoftware,KiCad,Pcbnew,9.0.6*%
%TF.CreationDate,2025-11-25T17:10:01+09:00*%
%TF.ProjectId,UMA,554d412e-6b69-4636-9164-5f7063625858,rev?*%
%TF.SameCoordinates,Original*%
%TF.FileFunction,Profile,NP*%
%FSLAX46Y46*%
G04 Gerber Fmt 4.6, Leading zero omitted, Abs format (unit mm)*
G04 Created by KiCad (PCBNEW 9.0.6) date 2025-11-25 17:10:01*
%MOMM*%
%LPD*%
G01*
G04 APERTURE LIST*
%TA.AperFunction,Profile*%
%ADD10C,0.050000*%
%TD*%
G04 APERTURE END LIST*
D10*
X112087868Y-83512132D02*
G75*
G02*
X112387868Y-83812132I32J-299968D01*
G01*
X112387868Y-125112132D02*
G75*
G02*
X112087868Y-125412068I-299968J32D01*
G01*
X109487868Y-91712132D02*
G75*
G02*
X109187868Y-91412132I32J300032D01*
G01*
X186387868Y-91412132D02*
G75*
G02*
X186087868Y-91712068I-299968J32D01*
G01*
X112087868Y-117212132D02*
X109487868Y-117212132D01*
X183487868Y-91712132D02*
X186087868Y-91712132D01*
X151500000Y-89400000D02*
G75*
G02*
X151800000Y-89700000I0J-300000D01*
G01*
X195000000Y-79400000D02*
G75*
G02*
X195600000Y-80000000I0J-600000D01*
G01*
X183487868Y-91712132D02*
G75*
G02*
X183187868Y-91412132I32J300032D01*
G01*
X100000000Y-128800000D02*
X100000000Y-80000000D01*
X151800000Y-95100000D02*
G75*
G02*
X151500000Y-95400000I-300000J0D01*
G01*
X186387868Y-125112132D02*
X186387868Y-117512132D01*
X109187868Y-83812132D02*
G75*
G02*
X109487868Y-83512068I300032J32D01*
G01*
X112387868Y-125112132D02*
X112387868Y-117512132D01*
X183487868Y-125412132D02*
G75*
G02*
X183187868Y-125112132I32J300032D01*
G01*
X143800000Y-95100000D02*
X143800000Y-89700000D01*
X144100000Y-95400000D02*
G75*
G02*
X143800000Y-95100000I0J300000D01*
G01*
X186087868Y-83512132D02*
G75*
G02*
X186387868Y-83812132I32J-299968D01*
G01*
X109187868Y-117512132D02*
G75*
G02*
X109487868Y-117212068I300032J32D01*
G01*
X100000000Y-80000000D02*
G75*
G02*
X100600000Y-79400000I600000J0D01*
G01*
X186087868Y-117212132D02*
G75*
G02*
X186387868Y-117512132I32J-299968D01*
G01*
X109187868Y-117512132D02*
X109187868Y-125112132D01*
X183487868Y-125412132D02*
X186087868Y-125412132D01*
X195000000Y-129400000D02*
X100600000Y-129400000D01*
X112387868Y-91412132D02*
X112387868Y-83812132D01*
X144100000Y-89400000D02*
X151500000Y-89400000D01*
X109487868Y-125412132D02*
G75*
G02*
X109187868Y-125112132I32J300032D01*
G01*
X195600000Y-128800000D02*
G75*
G02*
X195000000Y-129400000I-600000J0D01*
G01*
X112387868Y-91412132D02*
G75*
G02*
X112087868Y-91712068I-299968J32D01*
G01*
X112087868Y-83512132D02*
X109487868Y-83512132D01*
X186387868Y-125112132D02*
G75*
G02*
X186087868Y-125412068I-299968J32D01*
G01*
X183187868Y-83812132D02*
G75*
G02*
X183487868Y-83512068I300032J32D01*
G01*
X100600000Y-79400000D02*
X195000000Y-79400000D01*
X109187868Y-83812132D02*
X109187868Y-91412132D01*
X151500000Y-95400000D02*
X144100000Y-95400000D01*
X195600000Y-128800000D02*
X195600000Y-80000000D01*
X183187868Y-117512132D02*
G75*
G02*
X183487868Y-117212068I300032J32D01*
G01*
X143800000Y-89700000D02*
G75*
G02*
X144100000Y-89400000I300000J0D01*
G01*
X186087868Y-117212132D02*
X183487868Y-117212132D01*
X183187868Y-83812132D02*
X183187868Y-91412132D01*
X186387868Y-91412132D02*
X186387868Y-83812132D01*
X109487868Y-91712132D02*
X112087868Y-91712132D01*
X100600000Y-129400000D02*
G75*
G02*
X100000000Y-128800000I0J600000D01*
G01*
X183187868Y-117512132D02*
X183187868Y-125112132D01*
X109487868Y-125412132D02*
X112087868Y-125412132D01*
X151800000Y-89700000D02*
X151800000Y-95100000D01*
X112087868Y-117212132D02*
G75*
G02*
X112387868Y-117512132I32J-299968D01*
G01*
X186087868Y-83512132D02*
X183487868Y-83512132D01*
M02*
