%TF.GenerationSoftware,KiCad,Pcbnew,9.0.6*%
%TF.CreationDate,2025-11-25T17:10:00+09:00*%
%TF.ProjectId,UMA,554d412e-6b69-4636-9164-5f7063625858,rev?*%
%TF.SameCoordinates,Original*%
%TF.FileFunction,Paste,Top*%
%TF.FilePolarity,Positive*%
%FSLAX46Y46*%
G04 Gerber Fmt 4.6, Leading zero omitted, Abs format (unit mm)*
G04 Created by KiCad (PCBNEW 9.0.6) date 2025-11-25 17:10:00*
%MOMM*%
%LPD*%
G01*
G04 APERTURE LIST*
G04 Aperture macros list*
%AMRoundRect*
0 Rectangle with rounded corners*
0 $1 Rounding radius*
0 $2 $3 $4 $5 $6 $7 $8 $9 X,Y pos of 4 corners*
0 Add a 4 corners polygon primitive as box body*
4,1,4,$2,$3,$4,$5,$6,$7,$8,$9,$2,$3,0*
0 Add four circle primitives for the rounded corners*
1,1,$1+$1,$2,$3*
1,1,$1+$1,$4,$5*
1,1,$1+$1,$6,$7*
1,1,$1+$1,$8,$9*
0 Add four rect primitives between the rounded corners*
20,1,$1+$1,$2,$3,$4,$5,0*
20,1,$1+$1,$4,$5,$6,$7,0*
20,1,$1+$1,$6,$7,$8,$9,0*
20,1,$1+$1,$8,$9,$2,$3,0*%
G04 Aperture macros list end*
%ADD10RoundRect,0.200000X0.275000X-0.200000X0.275000X0.200000X-0.275000X0.200000X-0.275000X-0.200000X0*%
%ADD11R,0.650000X1.050000*%
%ADD12R,0.700000X0.700000*%
%ADD13R,0.900000X1.500000*%
%ADD14RoundRect,0.225000X0.225000X0.250000X-0.225000X0.250000X-0.225000X-0.250000X0.225000X-0.250000X0*%
%ADD15RoundRect,0.200000X-0.200000X-0.275000X0.200000X-0.275000X0.200000X0.275000X-0.200000X0.275000X0*%
%ADD16RoundRect,0.090000X-0.360000X0.660000X-0.360000X-0.660000X0.360000X-0.660000X0.360000X0.660000X0*%
G04 APERTURE END LIST*
D10*
%TO.C,R1*%
X146350000Y-84440000D03*
X146350000Y-82790000D03*
%TD*%
D11*
%TO.C,SW1*%
X115925000Y-122275000D03*
X115925000Y-118125000D03*
X118075000Y-122275000D03*
X118075000Y-118125000D03*
%TD*%
%TO.C,SW2*%
X120125000Y-122275000D03*
X120125000Y-118125000D03*
X122275000Y-122275000D03*
X122275000Y-118125000D03*
%TD*%
D12*
%TO.C,U1*%
X108400000Y-104650000D03*
X107300000Y-104650000D03*
X106200000Y-104650000D03*
X108400000Y-103550000D03*
X107300000Y-103550000D03*
X106200000Y-103550000D03*
X108400000Y-102450000D03*
X107300000Y-102450000D03*
X106200000Y-102450000D03*
D13*
X101100000Y-113260000D03*
X102600000Y-113260000D03*
X104100000Y-113260000D03*
X105600000Y-113260000D03*
X107100000Y-113260000D03*
X108600000Y-113260000D03*
X110100000Y-113260000D03*
X111600000Y-113260000D03*
X113100000Y-113260000D03*
X113100000Y-95760000D03*
X111600000Y-95760000D03*
X110100000Y-95760000D03*
X108600000Y-95760000D03*
X107100000Y-95760000D03*
X105600000Y-95760000D03*
X104100000Y-95760000D03*
X102600000Y-95760000D03*
X101100000Y-95760000D03*
%TD*%
D14*
%TO.C,C4*%
X121975000Y-123800000D03*
X120425000Y-123800000D03*
%TD*%
D10*
%TO.C,R2*%
X149350000Y-84440000D03*
X149350000Y-82790000D03*
%TD*%
D15*
%TO.C,R3*%
X101475000Y-115400000D03*
X103125000Y-115400000D03*
%TD*%
D16*
%TO.C,D1*%
X176250000Y-114700000D03*
X172950000Y-114700000D03*
X172950000Y-119600000D03*
X176250000Y-119600000D03*
%TD*%
M02*
