%TF.GenerationSoftware,KiCad,Pcbnew,9.0.6*%
%TF.CreationDate,2025-11-25T17:10:01+09:00*%
%TF.ProjectId,UMA,554d412e-6b69-4636-9164-5f7063625858,rev?*%
%TF.SameCoordinates,Original*%
%TF.FileFunction,Soldermask,Bot*%
%TF.FilePolarity,Negative*%
%FSLAX46Y46*%
G04 Gerber Fmt 4.6, Leading zero omitted, Abs format (unit mm)*
G04 Created by KiCad (PCBNEW 9.0.6) date 2025-11-25 17:10:01*
%MOMM*%
%LPD*%
G01*
G04 APERTURE LIST*
G04 Aperture macros list*
%AMRoundRect*
0 Rectangle with rounded corners*
0 $1 Rounding radius*
0 $2 $3 $4 $5 $6 $7 $8 $9 X,Y pos of 4 corners*
0 Add a 4 corners polygon primitive as box body*
4,1,4,$2,$3,$4,$5,$6,$7,$8,$9,$2,$3,0*
0 Add four circle primitives for the rounded corners*
1,1,$1+$1,$2,$3*
1,1,$1+$1,$4,$5*
1,1,$1+$1,$6,$7*
1,1,$1+$1,$8,$9*
0 Add four rect primitives between the rounded corners*
20,1,$1+$1,$2,$3,$4,$5,0*
20,1,$1+$1,$4,$5,$6,$7,0*
20,1,$1+$1,$6,$7,$8,$9,0*
20,1,$1+$1,$8,$9,$2,$3,0*%
G04 Aperture macros list end*
%ADD10C,1.700000*%
%ADD11R,1.700000X1.700000*%
%ADD12RoundRect,0.225000X0.250000X-0.225000X0.250000X0.225000X-0.250000X0.225000X-0.250000X-0.225000X0*%
%ADD13C,3.800000*%
%ADD14R,1.250000X0.650000*%
%ADD15C,0.650000*%
%ADD16RoundRect,0.150000X-0.150000X-0.425000X0.150000X-0.425000X0.150000X0.425000X-0.150000X0.425000X0*%
%ADD17RoundRect,0.075000X-0.075000X-0.500000X0.075000X-0.500000X0.075000X0.500000X-0.075000X0.500000X0*%
%ADD18O,1.000000X2.100000*%
%ADD19O,1.000000X1.800000*%
%ADD20RoundRect,0.250000X-0.600000X-0.750000X0.600000X-0.750000X0.600000X0.750000X-0.600000X0.750000X0*%
%ADD21O,1.700000X2.000000*%
G04 APERTURE END LIST*
D10*
%TO.C,J7*%
X139200000Y-106710000D03*
X139200000Y-109250000D03*
D11*
X139200000Y-111790000D03*
%TD*%
D12*
%TO.C,C2*%
X101500000Y-116975000D03*
X101500000Y-115425000D03*
%TD*%
D13*
%TO.C,REF\u002A\u002A*%
X137800000Y-122200000D03*
%TD*%
D12*
%TO.C,C5*%
X113300000Y-105160000D03*
X113300000Y-103610000D03*
%TD*%
D14*
%TO.C,IC1*%
X117800000Y-103460000D03*
X117800000Y-104400000D03*
X117800000Y-105340000D03*
X115300000Y-105340000D03*
X115300000Y-103460000D03*
%TD*%
D15*
%TO.C,J1*%
X144660000Y-85755000D03*
X150440000Y-85755000D03*
D16*
X144350000Y-86830000D03*
X145150000Y-86830000D03*
D17*
X146300000Y-86830000D03*
X147300000Y-86830000D03*
X147800000Y-86830000D03*
X148800000Y-86830000D03*
D16*
X149950000Y-86830000D03*
X150750000Y-86830000D03*
X150750000Y-86830000D03*
X149950000Y-86830000D03*
D17*
X149300000Y-86830000D03*
X148300000Y-86830000D03*
X146800000Y-86830000D03*
X145800000Y-86830000D03*
D16*
X145150000Y-86830000D03*
X144350000Y-86830000D03*
D18*
X143230000Y-86255000D03*
D19*
X143230000Y-82075000D03*
D18*
X151870000Y-86255000D03*
D19*
X151870000Y-82075000D03*
%TD*%
D13*
%TO.C,REF\u002A\u002A*%
X105000000Y-86600000D03*
%TD*%
D11*
%TO.C,J8*%
X185000000Y-108740000D03*
D10*
X185000000Y-106200000D03*
X185000000Y-103660000D03*
X185000000Y-101120000D03*
%TD*%
D13*
%TO.C,REF\u002A\u002A*%
X190600000Y-86600000D03*
%TD*%
%TO.C,REF\u002A\u002A*%
X137800000Y-86600000D03*
%TD*%
%TO.C,REF\u002A\u002A*%
X190600000Y-122200000D03*
%TD*%
%TO.C,REF\u002A\u002A*%
X157800000Y-122200000D03*
%TD*%
%TO.C,REF\u002A\u002A*%
X157800000Y-86600000D03*
%TD*%
D20*
%TO.C,J5*%
X146500000Y-108600000D03*
D21*
X149000000Y-108600000D03*
%TD*%
D12*
%TO.C,C1*%
X119800000Y-105235000D03*
X119800000Y-103685000D03*
%TD*%
D13*
%TO.C,REF\u002A\u002A*%
X105000000Y-122200000D03*
%TD*%
D12*
%TO.C,C3*%
X103100000Y-116975000D03*
X103100000Y-115425000D03*
%TD*%
D11*
%TO.C,J4*%
X156515000Y-106660000D03*
D10*
X156515000Y-109200000D03*
X156515000Y-111740000D03*
%TD*%
D11*
%TO.C,J6*%
X156500000Y-96960000D03*
D10*
X156500000Y-99500000D03*
X156500000Y-102040000D03*
%TD*%
D11*
%TO.C,J2*%
X139200000Y-102090000D03*
D10*
X139200000Y-99550000D03*
X139200000Y-97010000D03*
%TD*%
M02*
