%TF.GenerationSoftware,KiCad,Pcbnew,10.0.2*%
%TF.CreationDate,2026-05-11T20:56:31+09:00*%
%TF.ProjectId,ammeter,616d6d65-7465-4722-9e6b-696361645f70,rev?*%
%TF.SameCoordinates,Original*%
%TF.FileFunction,Copper,L1,Top*%
%TF.FilePolarity,Positive*%
%FSLAX46Y46*%
G04 Gerber Fmt 4.6, Leading zero omitted, Abs format (unit mm)*
G04 Created by KiCad (PCBNEW 10.0.2) date 2026-05-11 20:56:31*
%MOMM*%
%LPD*%
G01*
G04 APERTURE LIST*
G04 Aperture macros list*
%AMRoundRect*
0 Rectangle with rounded corners*
0 $1 Rounding radius*
0 $2 $3 $4 $5 $6 $7 $8 $9 X,Y pos of 4 corners*
0 Add a 4 corners polygon primitive as box body*
4,1,4,$2,$3,$4,$5,$6,$7,$8,$9,$2,$3,0*
0 Add four circle primitives for the rounded corners*
1,1,$1+$1,$2,$3*
1,1,$1+$1,$4,$5*
1,1,$1+$1,$6,$7*
1,1,$1+$1,$8,$9*
0 Add four rect primitives between the rounded corners*
20,1,$1+$1,$2,$3,$4,$5,0*
20,1,$1+$1,$4,$5,$6,$7,0*
20,1,$1+$1,$6,$7,$8,$9,0*
20,1,$1+$1,$8,$9,$2,$3,0*%
G04 Aperture macros list end*
%TA.AperFunction,SMDPad,CuDef*%
%ADD10RoundRect,0.150000X0.425000X-0.150000X0.425000X0.150000X-0.425000X0.150000X-0.425000X-0.150000X0*%
%TD*%
%TA.AperFunction,SMDPad,CuDef*%
%ADD11RoundRect,0.075000X0.500000X-0.075000X0.500000X0.075000X-0.500000X0.075000X-0.500000X-0.075000X0*%
%TD*%
%TA.AperFunction,SMDPad,CuDef*%
%ADD12RoundRect,0.250000X0.750000X-0.840000X0.750000X0.840000X-0.750000X0.840000X-0.750000X-0.840000X0*%
%TD*%
%TA.AperFunction,SMDPad,CuDef*%
%ADD13R,0.500000X0.500000*%
%TD*%
%TA.AperFunction,SMDPad,CuDef*%
%ADD14RoundRect,0.087500X-0.425000X-0.087500X0.425000X-0.087500X0.425000X0.087500X-0.425000X0.087500X0*%
%TD*%
%TA.AperFunction,SMDPad,CuDef*%
%ADD15RoundRect,0.150000X0.825000X0.150000X-0.825000X0.150000X-0.825000X-0.150000X0.825000X-0.150000X0*%
%TD*%
%TA.AperFunction,SMDPad,CuDef*%
%ADD16RoundRect,0.062500X-0.287500X-0.062500X0.287500X-0.062500X0.287500X0.062500X-0.287500X0.062500X0*%
%TD*%
%TA.AperFunction,HeatsinkPad*%
%ADD17R,0.800000X1.200000*%
%TD*%
%TA.AperFunction,SMDPad,CuDef*%
%ADD18RoundRect,0.150000X-0.425000X0.150000X-0.425000X-0.150000X0.425000X-0.150000X0.425000X0.150000X0*%
%TD*%
%TA.AperFunction,SMDPad,CuDef*%
%ADD19RoundRect,0.075000X-0.500000X0.075000X-0.500000X-0.075000X0.500000X-0.075000X0.500000X0.075000X0*%
%TD*%
%TA.AperFunction,SMDPad,CuDef*%
%ADD20RoundRect,0.250000X-0.750000X0.840000X-0.750000X-0.840000X0.750000X-0.840000X0.750000X0.840000X0*%
%TD*%
%TA.AperFunction,ViaPad*%
%ADD21C,0.500000*%
%TD*%
%TA.AperFunction,Conductor*%
%ADD22C,0.200000*%
%TD*%
%TA.AperFunction,Conductor*%
%ADD23C,0.500000*%
%TD*%
G04 APERTURE END LIST*
D10*
%TO.P,J3,A1,GND_A1*%
%TO.N,GND*%
X144425000Y-94510000D03*
%TO.P,J3,A4,VBUS_A4*%
%TO.N,/ref*%
X144425000Y-93710000D03*
D11*
%TO.P,J3,A5,CC1_A5*%
%TO.N,Net-(J1-CC1)*%
X144425000Y-92560000D03*
%TO.P,J3,A6,D+_A6*%
%TO.N,Net-(J1-D+-PadA6)*%
X144425000Y-91560000D03*
%TO.P,J3,A7,D-_A7*%
%TO.N,Net-(J1-D--PadA7)*%
X144425000Y-91060000D03*
%TO.P,J3,A8,SBU1_A8*%
%TO.N,/3*%
X144425000Y-90060000D03*
D10*
%TO.P,J3,A9,VBUS_A9*%
%TO.N,/ref*%
X144425000Y-88910000D03*
%TO.P,J3,A12,GND_A12*%
%TO.N,GND*%
X144425000Y-88110000D03*
%TO.P,J3,B1,GND_B1*%
X144425000Y-88110000D03*
%TO.P,J3,B4,VBUS_B4*%
%TO.N,/ref*%
X144425000Y-88910000D03*
D11*
%TO.P,J3,B5,CC2_B5*%
%TO.N,Net-(J1-CC2)*%
X144425000Y-89560000D03*
%TO.P,J3,B6,D+_B6*%
%TO.N,Net-(J1-D+-PadA6)*%
X144425000Y-90560000D03*
%TO.P,J3,B7,D-_B7*%
%TO.N,Net-(J1-D--PadA7)*%
X144425000Y-92060000D03*
%TO.P,J3,B8,SBU2_B8*%
%TO.N,/4*%
X144425000Y-93060000D03*
D10*
%TO.P,J3,B9,VBUS_B9*%
%TO.N,/ref*%
X144425000Y-93710000D03*
%TO.P,J3,B12,GND_B12*%
%TO.N,GND*%
X144425000Y-94510000D03*
D12*
%TO.P,J3,SH,SHIELD_SH*%
X145000000Y-96420000D03*
X148930000Y-96420000D03*
X145000000Y-86200000D03*
X148930000Y-86200000D03*
%TD*%
D13*
%TO.P,R10,1*%
%TO.N,/SDA*%
X134800000Y-85400000D03*
%TO.P,R10,2*%
%TO.N,+3V3*%
X133600000Y-85400000D03*
%TD*%
%TO.P,C5,1*%
%TO.N,Net-(U2--)*%
X139200000Y-97100000D03*
%TO.P,C5,2*%
%TO.N,GND*%
X138000000Y-97100000D03*
%TD*%
%TO.P,R11,1*%
%TO.N,Net-(IC1-DB+)*%
X134800000Y-87600000D03*
%TO.P,R11,2*%
%TO.N,/UPDI*%
X134800000Y-86400000D03*
%TD*%
%TO.P,R7,1*%
%TO.N,Net-(U5-IREF)*%
X140700000Y-95800000D03*
%TO.P,R7,2*%
%TO.N,GND*%
X140700000Y-97000000D03*
%TD*%
%TO.P,R6,1*%
%TO.N,Net-(U2--)*%
X134700000Y-91600000D03*
%TO.P,R6,2*%
%TO.N,/V1*%
X134700000Y-90400000D03*
%TD*%
D14*
%TO.P,U2,1,+_1*%
%TO.N,Net-(U1-FB)*%
X137562500Y-94900000D03*
%TO.P,U2,2,V-_2*%
%TO.N,GND*%
X137562500Y-95550000D03*
%TO.P,U2,3,-_3*%
%TO.N,Net-(U2--)*%
X137562500Y-96200000D03*
%TO.P,U2,4*%
X139237500Y-96200000D03*
%TO.P,U2,5,V+_5*%
%TO.N,+3V3*%
X139237500Y-94900000D03*
%TD*%
D15*
%TO.P,U6,1,VCC_1*%
%TO.N,+3V3*%
X141475000Y-93350000D03*
%TO.P,U6,2,PA4_2*%
%TO.N,unconnected-(U6-PA4-Pad2)*%
X141475000Y-92080000D03*
%TO.P,U6,3,PA5_3*%
%TO.N,unconnected-(U6-PA5-Pad3)*%
X141475000Y-90810000D03*
%TO.P,U6,4,PA6_4*%
%TO.N,/sw2*%
X141475000Y-89540000D03*
%TO.P,U6,5,PA7_5*%
%TO.N,/sw1*%
X141475000Y-88270000D03*
%TO.P,U6,6,PB3_6*%
%TO.N,/Rx3*%
X141475000Y-87000000D03*
%TO.P,U6,7,PB2_7*%
%TO.N,/Tx2*%
X141475000Y-85730000D03*
%TO.P,U6,8,PB1_8*%
%TO.N,/SDA*%
X136525000Y-85730000D03*
%TO.P,U6,9,PB0_9*%
%TO.N,/SCL*%
X136525000Y-87000000D03*
%TO.P,U6,10,~{RESET}/PA0_10*%
%TO.N,/UPDI*%
X136525000Y-88270000D03*
%TO.P,U6,11,PA1_11*%
%TO.N,/V0*%
X136525000Y-89540000D03*
%TO.P,U6,12,PA2_12*%
%TO.N,/V1*%
X136525000Y-90810000D03*
%TO.P,U6,13,PA3_13*%
%TO.N,unconnected-(U6-PA3-Pad13)*%
X136525000Y-92080000D03*
%TO.P,U6,14,GND_14*%
%TO.N,GND*%
X136525000Y-93350000D03*
%TD*%
D13*
%TO.P,R12,1*%
%TO.N,Net-(IC1-OEN)*%
X133900000Y-87600000D03*
%TO.P,R12,2*%
%TO.N,GND*%
X133900000Y-86400000D03*
%TD*%
%TO.P,R3,1*%
%TO.N,Net-(J2-CC1)*%
X132600000Y-94200000D03*
%TO.P,R3,2*%
%TO.N,GND*%
X132600000Y-93000000D03*
%TD*%
%TO.P,C3,1*%
%TO.N,+3V3*%
X133400000Y-94200000D03*
%TO.P,C3,2*%
%TO.N,GND*%
X133400000Y-93000000D03*
%TD*%
%TO.P,C4,1*%
%TO.N,Net-(U1-FB)*%
X136200000Y-95800000D03*
%TO.P,C4,2*%
%TO.N,GND*%
X136200000Y-94600000D03*
%TD*%
D16*
%TO.P,U1,1,VDD_1*%
%TO.N,+3V3*%
X133000000Y-95350000D03*
%TO.P,U1,2,GND_2*%
%TO.N,GND*%
X133000000Y-95850000D03*
%TO.P,U1,3,~{SHDN}_3*%
%TO.N,+3V3*%
X133000000Y-96350000D03*
%TO.P,U1,4,GND_4*%
%TO.N,GND*%
X133000000Y-96850000D03*
%TO.P,U1,5,GND_5*%
X135000000Y-96850000D03*
%TO.P,U1,6,GND_6*%
X135000000Y-96350000D03*
%TO.P,U1,7,OUT_7*%
%TO.N,Net-(U1-FB)*%
X135000000Y-95850000D03*
%TO.P,U1,8,FB_8*%
X135000000Y-95350000D03*
D17*
%TO.P,U1,9,GND_9*%
%TO.N,GND*%
X134000000Y-96100000D03*
%TD*%
D13*
%TO.P,C6,1*%
%TO.N,+3V3*%
X134900000Y-88900000D03*
%TO.P,C6,2*%
%TO.N,GND*%
X133700000Y-88900000D03*
%TD*%
D18*
%TO.P,J1,A1,GND_A1*%
%TO.N,GND*%
X130805000Y-88260000D03*
%TO.P,J1,A4,VBUS_A4*%
%TO.N,VBUS*%
X130805000Y-89060000D03*
D19*
%TO.P,J1,A5,CC1_A5*%
%TO.N,Net-(J1-CC1)*%
X130805000Y-90210000D03*
%TO.P,J1,A6,D+_A6*%
%TO.N,Net-(J1-D+-PadA6)*%
X130805000Y-91210000D03*
%TO.P,J1,A7,D-_A7*%
%TO.N,Net-(J1-D--PadA7)*%
X130805000Y-91710000D03*
%TO.P,J1,A8,SBU1_A8*%
%TO.N,/1*%
X130805000Y-92710000D03*
D18*
%TO.P,J1,A9,VBUS_A9*%
%TO.N,VBUS*%
X130805000Y-93860000D03*
%TO.P,J1,A12,GND_A12*%
%TO.N,GND*%
X130805000Y-94660000D03*
%TO.P,J1,B1,GND_B1*%
X130805000Y-94660000D03*
%TO.P,J1,B4,VBUS_B4*%
%TO.N,VBUS*%
X130805000Y-93860000D03*
D19*
%TO.P,J1,B5,CC2_B5*%
%TO.N,Net-(J1-CC2)*%
X130805000Y-93210000D03*
%TO.P,J1,B6,D+_B6*%
%TO.N,Net-(J1-D+-PadA6)*%
X130805000Y-92210000D03*
%TO.P,J1,B7,D-_B7*%
%TO.N,Net-(J1-D--PadA7)*%
X130805000Y-90710000D03*
%TO.P,J1,B8,SBU2_B8*%
%TO.N,/2*%
X130805000Y-89710000D03*
D18*
%TO.P,J1,B9,VBUS_B9*%
%TO.N,VBUS*%
X130805000Y-89060000D03*
%TO.P,J1,B12,GND_B12*%
%TO.N,GND*%
X130805000Y-88260000D03*
D20*
%TO.P,J1,SH,SHIELD_SH*%
X130230000Y-86350000D03*
X126300000Y-86350000D03*
X130230000Y-96570000D03*
X126300000Y-96570000D03*
%TD*%
D21*
%TO.N,GND*%
X127850000Y-87937500D03*
X138000000Y-97100000D03*
X131200000Y-87400000D03*
X148800000Y-98050000D03*
X129300000Y-90798891D03*
X136610000Y-93820000D03*
X130805000Y-94660000D03*
X145000000Y-86200000D03*
X146900000Y-91400000D03*
X137562500Y-95550000D03*
X126300000Y-96570000D03*
X130805000Y-88260000D03*
X134000000Y-95750000D03*
X148930000Y-86200000D03*
X146700000Y-93700000D03*
X139100000Y-90860000D03*
X128300000Y-93245000D03*
X148800000Y-94650000D03*
X134900000Y-93100000D03*
X147400000Y-89200000D03*
X143200000Y-85250000D03*
X129300000Y-89900000D03*
X126390000Y-93820000D03*
X131200000Y-86200000D03*
X130230000Y-96570000D03*
X134000000Y-96450000D03*
X125800000Y-91950000D03*
X127400000Y-90750000D03*
X132801318Y-85995819D03*
X149200000Y-88400000D03*
%TO.N,/ref*%
X144425000Y-93710000D03*
X139800000Y-88800000D03*
X139800000Y-88000000D03*
X143300000Y-88400000D03*
%TO.N,Net-(J1-CC1)*%
X131900000Y-90392197D03*
X143400000Y-92450000D03*
%TO.N,Net-(J1-D+-PadA6)*%
X133044891Y-91500000D03*
X143487486Y-90509965D03*
%TO.N,Net-(J1-D--PadA7)*%
X143378413Y-91302495D03*
X132300000Y-91449558D03*
%TO.N,Net-(J1-CC2)*%
X135097523Y-94775000D03*
X142868480Y-92999999D03*
%TO.N,/SDA*%
X136525000Y-86250000D03*
X141360000Y-95008530D03*
%TO.N,+3V3*%
X127750000Y-86800000D03*
X132444923Y-96349999D03*
X149200000Y-89200000D03*
X126900000Y-92000000D03*
X133272183Y-85249999D03*
X139643503Y-92999999D03*
X138722183Y-94200000D03*
X134900000Y-88700000D03*
X133400000Y-94900000D03*
X127900000Y-92000000D03*
X128780000Y-86800000D03*
X149100000Y-93700000D03*
X141475000Y-93350000D03*
X127900000Y-92000000D03*
X143220000Y-97000000D03*
%TO.N,/sw2*%
X141475000Y-89540000D03*
%TO.N,/sw1*%
X143550040Y-87070666D03*
%TO.N,/Rx3*%
X141475000Y-87000000D03*
%TO.N,/Tx2*%
X141475000Y-85730000D03*
%TO.N,/SCL*%
X140900000Y-94150000D03*
X137125000Y-87000000D03*
%TO.N,/UPDI*%
X136525000Y-88270000D03*
X134800000Y-86400000D03*
%TO.N,/V0*%
X136525000Y-89540000D03*
%TO.N,VBUS*%
X128700000Y-85250000D03*
X138200000Y-88800000D03*
X131640211Y-88851694D03*
X131829999Y-94670000D03*
X138200000Y-88000000D03*
X127900000Y-85250000D03*
X127900000Y-86000000D03*
%TO.N,/Tx*%
X133800702Y-90306627D03*
X132602783Y-87363335D03*
%TO.N,/Rx*%
X132590859Y-86663434D03*
X133795442Y-91006610D03*
%TO.N,Net-(U2--)*%
X140051381Y-91009999D03*
%TO.N,Net-(IC1-DB+)*%
X134800000Y-87600000D03*
%TO.N,Net-(IC1-OEN)*%
X134150509Y-88057145D03*
%TO.N,Net-(J2-CC1)*%
X132682028Y-94192781D03*
%TO.N,Net-(U5-IREF)*%
X140740001Y-95729305D03*
%TD*%
%TO.N,GND*%
D22*
X133750000Y-95850000D02*
X134000000Y-96100000D01*
X133000000Y-95850000D02*
X133750000Y-95850000D01*
%TO.N,/ref*%
D23*
X143300000Y-88412684D02*
X143300000Y-88400000D01*
X144425000Y-88910000D02*
X144375000Y-88860000D01*
X143747316Y-88860000D02*
X143300000Y-88412684D01*
X144375000Y-88860000D02*
X143747316Y-88860000D01*
%TO.N,Net-(J1-CC1)*%
D22*
X143602438Y-92560000D02*
X144425000Y-92560000D01*
X143600195Y-92562243D02*
X143602438Y-92560000D01*
X131900000Y-90392197D02*
X131717803Y-90210000D01*
X143400000Y-92450000D02*
X143512243Y-92562243D01*
X131717803Y-90210000D02*
X130805000Y-90210000D01*
X143512243Y-92562243D02*
X143600195Y-92562243D01*
%TO.N,Net-(J1-D+-PadA6)*%
X129930000Y-91477590D02*
X130197590Y-91210000D01*
X144425000Y-90560000D02*
X143537521Y-90560000D01*
X130197590Y-91210000D02*
X130805000Y-91210000D01*
X130197590Y-92210000D02*
X129930000Y-91942410D01*
X145300000Y-90827590D02*
X145300000Y-91292410D01*
X130805000Y-92210000D02*
X130197590Y-92210000D01*
X145032410Y-90560000D02*
X145300000Y-90827590D01*
X131700000Y-92000000D02*
X131490000Y-92210000D01*
X131490000Y-92210000D02*
X130805000Y-92210000D01*
X143537521Y-90560000D02*
X143487486Y-90509965D01*
X145032410Y-91560000D02*
X144425000Y-91560000D01*
X133027376Y-91500000D02*
X132527376Y-92000000D01*
X132527376Y-92000000D02*
X131700000Y-92000000D01*
X144425000Y-90560000D02*
X145032410Y-90560000D01*
X133044891Y-91500000D02*
X133027376Y-91500000D01*
X129930000Y-91942410D02*
X129930000Y-91477590D01*
X145300000Y-91292410D02*
X145032410Y-91560000D01*
%TO.N,Net-(J1-D--PadA7)*%
X143817590Y-92060000D02*
X144425000Y-92060000D01*
X143817590Y-91060000D02*
X143550000Y-91327590D01*
X143378413Y-91302495D02*
X143378413Y-91302497D01*
X130855000Y-90760000D02*
X130805000Y-90710000D01*
X132292852Y-91442410D02*
X131680000Y-91442410D01*
X132300000Y-91449558D02*
X132292852Y-91442410D01*
X131680000Y-91442410D02*
X131680000Y-90977590D01*
X143378413Y-91302497D02*
X143403506Y-91327590D01*
X131680000Y-90977590D02*
X131462410Y-90760000D01*
X130805000Y-91710000D02*
X131412410Y-91710000D01*
X131462410Y-90760000D02*
X130855000Y-90760000D01*
X143550000Y-91327590D02*
X143550000Y-91792410D01*
X131412410Y-91710000D02*
X131680000Y-91442410D01*
X143403506Y-91327590D02*
X143550000Y-91327590D01*
X143550000Y-91792410D02*
X143817590Y-92060000D01*
X144425000Y-91060000D02*
X143817590Y-91060000D01*
%TO.N,Net-(J1-CC2)*%
X142828413Y-92959932D02*
X142868480Y-92999999D01*
X143659633Y-89560000D02*
X142828413Y-90391220D01*
X134667375Y-93642781D02*
X135097523Y-94072929D01*
X131660000Y-93210000D02*
X132092781Y-93642781D01*
X142828413Y-90391220D02*
X142828413Y-92959932D01*
X130805000Y-93210000D02*
X131660000Y-93210000D01*
X144425000Y-89560000D02*
X143659633Y-89560000D01*
X135097523Y-94072929D02*
X135097523Y-94775000D01*
X132092781Y-93642781D02*
X134667375Y-93642781D01*
%TO.N,/SDA*%
X134800000Y-85400000D02*
X136195000Y-85400000D01*
X136195000Y-85400000D02*
X136525000Y-85730000D01*
X136525000Y-85780000D02*
X136475000Y-85730000D01*
X136525000Y-86250000D02*
X136525000Y-85780000D01*
%TO.N,+3V3*%
X133400000Y-94200000D02*
X133400000Y-94900000D01*
X133400000Y-94950000D02*
X133000000Y-95350000D01*
X133600000Y-85400000D02*
X133422184Y-85400000D01*
X139237500Y-94900000D02*
X139237500Y-94715317D01*
X133422184Y-85400000D02*
X133272183Y-85249999D01*
X139237500Y-94715317D02*
X138722183Y-94200000D01*
X133000000Y-96350000D02*
X132444923Y-96349999D01*
X133400000Y-94900000D02*
X133400000Y-94950000D01*
%TO.N,/sw1*%
X141475000Y-88270000D02*
X142350706Y-88270000D01*
X142350706Y-88270000D02*
X143550040Y-87070666D01*
%TO.N,/V1*%
X136525000Y-90810000D02*
X135110000Y-90810000D01*
X135110000Y-90810000D02*
X134700000Y-90400000D01*
%TO.N,VBUS*%
D23*
X131432684Y-93860000D02*
X131830000Y-94257316D01*
X131830000Y-94257316D02*
X131829999Y-94670000D01*
X130805000Y-89060000D02*
X131431905Y-89060000D01*
D22*
X130805000Y-89010000D02*
X130755000Y-89060000D01*
D23*
X131431905Y-89060000D02*
X131640211Y-88851694D01*
X130805000Y-93860000D02*
X131432684Y-93860000D01*
%TO.N,Net-(U1-FB)*%
D22*
X137562500Y-94900000D02*
X137100000Y-94900000D01*
X135050000Y-95800000D02*
X135000000Y-95850000D01*
X137100000Y-94900000D02*
X136200000Y-95800000D01*
X136200000Y-95800000D02*
X135050000Y-95800000D01*
X135000000Y-95850000D02*
X135000000Y-95350000D01*
%TO.N,Net-(U2--)*%
X138400000Y-94655635D02*
X138172183Y-94427818D01*
X138172183Y-94427818D02*
X138172183Y-91432183D01*
X139200000Y-96237500D02*
X139237500Y-96200000D01*
X138150000Y-91410000D02*
X139651380Y-91410000D01*
X139200000Y-97100000D02*
X139200000Y-96237500D01*
X137562500Y-96200000D02*
X139237500Y-96200000D01*
X139237500Y-96043750D02*
X138400000Y-95206250D01*
X137960000Y-91600000D02*
X138150000Y-91410000D01*
X134820000Y-91480000D02*
X137540552Y-91480000D01*
X134700000Y-91600000D02*
X134820000Y-91480000D01*
X138172183Y-91432183D02*
X138150000Y-91410000D01*
X137660552Y-91600000D02*
X137960000Y-91600000D01*
X138400000Y-95206250D02*
X138400000Y-94655635D01*
X139237500Y-96200000D02*
X139237500Y-96043750D01*
X137540552Y-91480000D02*
X137660552Y-91600000D01*
X139651380Y-91410000D02*
X140051381Y-91009999D01*
%TO.N,Net-(IC1-OEN)*%
X134150002Y-87850002D02*
X133900000Y-87600000D01*
X134150509Y-88057145D02*
X134150002Y-88056638D01*
X134150002Y-88056638D02*
X134150002Y-87850002D01*
%TD*%
%TA.AperFunction,Conductor*%
%TO.N,GND*%
G36*
X132778084Y-85020185D02*
G01*
X132823839Y-85072989D01*
X132833783Y-85142147D01*
X132830823Y-85156578D01*
X132821683Y-85190690D01*
X132821683Y-85309308D01*
X132852384Y-85423885D01*
X132911694Y-85526612D01*
X132995570Y-85610488D01*
X133098214Y-85669750D01*
X133105336Y-85673862D01*
X133104574Y-85675180D01*
X133151874Y-85713290D01*
X133155117Y-85719228D01*
X133205447Y-85794552D01*
X133271769Y-85838867D01*
X133271770Y-85838868D01*
X133330247Y-85850499D01*
X133330250Y-85850500D01*
X133377594Y-85850500D01*
X133444633Y-85870185D01*
X133490388Y-85922989D01*
X133500332Y-85992147D01*
X133480697Y-86043390D01*
X133461603Y-86071966D01*
X133461602Y-86071966D01*
X133450000Y-86130297D01*
X133450000Y-86150000D01*
X133776000Y-86150000D01*
X133843039Y-86169685D01*
X133888794Y-86222489D01*
X133900000Y-86274000D01*
X133900000Y-86400000D01*
X134026000Y-86400000D01*
X134093039Y-86419685D01*
X134138794Y-86472489D01*
X134150000Y-86524000D01*
X134150000Y-86850000D01*
X134169699Y-86850000D01*
X134169702Y-86849999D01*
X134228032Y-86838397D01*
X134280657Y-86803234D01*
X134290214Y-86800241D01*
X134297766Y-86793666D01*
X134322999Y-86789975D01*
X134347335Y-86782356D01*
X134356991Y-86785005D01*
X134366900Y-86783556D01*
X134405673Y-86798359D01*
X134414715Y-86800840D01*
X134416043Y-86802319D01*
X134418440Y-86803234D01*
X134471769Y-86838867D01*
X134471770Y-86838868D01*
X134530247Y-86850499D01*
X134530250Y-86850500D01*
X134530252Y-86850500D01*
X135069750Y-86850500D01*
X135069751Y-86850499D01*
X135084568Y-86847552D01*
X135128229Y-86838868D01*
X135128231Y-86838867D01*
X135156608Y-86819906D01*
X135166308Y-86816868D01*
X135173989Y-86810213D01*
X135199087Y-86806604D01*
X135223285Y-86799027D01*
X135233085Y-86801715D01*
X135243147Y-86800269D01*
X135266214Y-86810803D01*
X135290665Y-86817511D01*
X135297456Y-86825071D01*
X135306703Y-86829294D01*
X135320413Y-86850627D01*
X135337356Y-86869489D01*
X135339987Y-86881086D01*
X135344477Y-86888072D01*
X135349500Y-86923007D01*
X135349500Y-87076992D01*
X135329815Y-87144031D01*
X135277011Y-87189786D01*
X135207853Y-87199730D01*
X135156610Y-87180095D01*
X135138980Y-87168315D01*
X135128231Y-87161133D01*
X135128230Y-87161132D01*
X135128229Y-87161132D01*
X135128229Y-87161131D01*
X135069752Y-87149500D01*
X135069748Y-87149500D01*
X134530252Y-87149500D01*
X134530247Y-87149500D01*
X134471770Y-87161131D01*
X134471769Y-87161132D01*
X134418891Y-87196465D01*
X134409335Y-87199457D01*
X134401783Y-87206033D01*
X134376549Y-87209723D01*
X134352214Y-87217343D01*
X134342557Y-87214693D01*
X134332649Y-87216143D01*
X134309427Y-87205605D01*
X134284834Y-87198859D01*
X134281109Y-87196465D01*
X134228230Y-87161132D01*
X134228229Y-87161131D01*
X134169752Y-87149500D01*
X134169748Y-87149500D01*
X133630252Y-87149500D01*
X133630247Y-87149500D01*
X133571770Y-87161131D01*
X133571769Y-87161132D01*
X133505447Y-87205447D01*
X133461132Y-87271769D01*
X133461131Y-87271770D01*
X133449500Y-87330247D01*
X133449500Y-87869752D01*
X133461131Y-87928229D01*
X133461132Y-87928230D01*
X133505447Y-87994552D01*
X133571769Y-88038867D01*
X133571770Y-88038868D01*
X133609642Y-88046401D01*
X133671553Y-88078785D01*
X133705226Y-88135924D01*
X133730710Y-88231032D01*
X133736070Y-88240315D01*
X133790020Y-88333758D01*
X133873896Y-88417634D01*
X133888000Y-88425777D01*
X133936216Y-88476344D01*
X133950000Y-88533164D01*
X133950000Y-88650000D01*
X134150000Y-88650000D01*
X134150000Y-88624210D01*
X134151393Y-88624210D01*
X134156357Y-88598009D01*
X134161946Y-88564776D01*
X134162841Y-88563791D01*
X134163089Y-88562484D01*
X134186272Y-88538016D01*
X134208945Y-88513077D01*
X134210558Y-88512386D01*
X134211146Y-88511766D01*
X134241381Y-88499187D01*
X134296143Y-88484514D01*
X134365992Y-88486177D01*
X134423854Y-88525341D01*
X134451357Y-88589569D01*
X134450019Y-88624179D01*
X134450097Y-88624187D01*
X134449969Y-88625483D01*
X134449854Y-88628468D01*
X134449500Y-88630247D01*
X134449500Y-89169752D01*
X134461131Y-89228229D01*
X134461132Y-89228230D01*
X134505447Y-89294552D01*
X134571769Y-89338867D01*
X134571770Y-89338868D01*
X134630247Y-89350499D01*
X134630250Y-89350500D01*
X134630252Y-89350500D01*
X135169748Y-89350500D01*
X135201308Y-89344222D01*
X135270898Y-89350448D01*
X135326076Y-89393310D01*
X135349322Y-89459199D01*
X135349500Y-89465839D01*
X135349500Y-89723260D01*
X135359426Y-89791391D01*
X135410803Y-89896485D01*
X135493514Y-89979196D01*
X135493515Y-89979196D01*
X135493517Y-89979198D01*
X135598607Y-90030573D01*
X135606411Y-90031710D01*
X135666739Y-90040500D01*
X135666740Y-90040500D01*
X137383261Y-90040500D01*
X137416458Y-90035663D01*
X137451393Y-90030573D01*
X137556483Y-89979198D01*
X137639198Y-89896483D01*
X137690573Y-89791393D01*
X137700500Y-89723260D01*
X137700500Y-89356740D01*
X137690573Y-89288607D01*
X137639198Y-89183517D01*
X137585537Y-89129856D01*
X137585535Y-89129853D01*
X137556485Y-89100803D01*
X137533601Y-89089616D01*
X137451393Y-89049427D01*
X137451391Y-89049426D01*
X137383261Y-89039500D01*
X137383260Y-89039500D01*
X135666740Y-89039500D01*
X135666739Y-89039500D01*
X135598608Y-89049426D01*
X135528960Y-89083475D01*
X135527289Y-89083760D01*
X135526011Y-89084868D01*
X135492983Y-89089616D01*
X135460087Y-89095233D01*
X135458530Y-89094570D01*
X135456853Y-89094812D01*
X135426483Y-89080942D01*
X135395790Y-89067890D01*
X135394837Y-89066490D01*
X135393297Y-89065787D01*
X135375245Y-89037698D01*
X135356483Y-89010125D01*
X135356145Y-89007977D01*
X135355523Y-89007009D01*
X135350500Y-88972074D01*
X135350500Y-88837925D01*
X135370185Y-88770886D01*
X135422989Y-88725131D01*
X135492147Y-88715187D01*
X135528958Y-88726524D01*
X135557942Y-88740693D01*
X135598607Y-88760573D01*
X135666739Y-88770500D01*
X135666740Y-88770500D01*
X137383261Y-88770500D01*
X137405971Y-88767191D01*
X137451393Y-88760573D01*
X137556483Y-88709198D01*
X137556483Y-88709197D01*
X137565714Y-88704685D01*
X137566724Y-88706752D01*
X137619440Y-88688431D01*
X137687361Y-88704816D01*
X137735642Y-88755321D01*
X137749500Y-88812283D01*
X137749500Y-88859309D01*
X137780201Y-88973886D01*
X137780202Y-88973889D01*
X137785500Y-88983065D01*
X137785503Y-88983069D01*
X137839511Y-89076613D01*
X137923387Y-89160489D01*
X138026114Y-89219799D01*
X138140691Y-89250500D01*
X138140694Y-89250500D01*
X138259306Y-89250500D01*
X138259309Y-89250500D01*
X138373886Y-89219799D01*
X138476613Y-89160489D01*
X138560489Y-89076613D01*
X138619799Y-88973886D01*
X138650500Y-88859309D01*
X138650500Y-88740691D01*
X138619799Y-88626114D01*
X138560489Y-88523387D01*
X138524783Y-88487681D01*
X138491298Y-88426358D01*
X138496282Y-88356666D01*
X138524783Y-88312319D01*
X138535594Y-88301508D01*
X138560489Y-88276613D01*
X138619799Y-88173886D01*
X138650500Y-88059309D01*
X138650500Y-87940691D01*
X138619799Y-87826114D01*
X138560489Y-87723387D01*
X138476613Y-87639511D01*
X138373886Y-87580201D01*
X138259309Y-87549500D01*
X138140691Y-87549500D01*
X138026114Y-87580201D01*
X138026112Y-87580201D01*
X138026112Y-87580202D01*
X137923387Y-87639511D01*
X137923384Y-87639513D01*
X137839513Y-87723384D01*
X137839507Y-87723393D01*
X137777397Y-87830968D01*
X137726830Y-87879183D01*
X137658223Y-87892405D01*
X137593358Y-87866437D01*
X137582330Y-87856648D01*
X137556485Y-87830803D01*
X137451391Y-87779426D01*
X137383261Y-87769500D01*
X137383260Y-87769500D01*
X135666740Y-87769500D01*
X135666739Y-87769500D01*
X135598608Y-87779426D01*
X135493514Y-87830803D01*
X135462181Y-87862137D01*
X135400858Y-87895622D01*
X135331166Y-87890638D01*
X135275233Y-87848766D01*
X135250816Y-87783302D01*
X135250500Y-87774456D01*
X135250500Y-87495544D01*
X135270185Y-87428505D01*
X135322989Y-87382750D01*
X135392147Y-87372806D01*
X135455703Y-87401831D01*
X135462181Y-87407863D01*
X135493514Y-87439196D01*
X135493515Y-87439196D01*
X135493517Y-87439198D01*
X135598607Y-87490573D01*
X135632673Y-87495536D01*
X135666739Y-87500500D01*
X135666740Y-87500500D01*
X137383261Y-87500500D01*
X137417275Y-87495544D01*
X137451393Y-87490573D01*
X137556483Y-87439198D01*
X137639198Y-87356483D01*
X137690573Y-87251393D01*
X137700500Y-87183260D01*
X137700500Y-86816740D01*
X137697194Y-86794053D01*
X137690573Y-86748608D01*
X137686302Y-86739871D01*
X137639198Y-86643517D01*
X137639196Y-86643515D01*
X137639196Y-86643514D01*
X137556485Y-86560803D01*
X137451391Y-86509426D01*
X137383261Y-86499500D01*
X137383260Y-86499500D01*
X137086138Y-86499500D01*
X137062149Y-86492456D01*
X137037325Y-86489488D01*
X137029202Y-86482781D01*
X137019099Y-86479815D01*
X137002730Y-86460924D01*
X136983447Y-86445003D01*
X136980239Y-86434968D01*
X136973344Y-86427011D01*
X136969786Y-86402267D01*
X136962173Y-86378451D01*
X136964074Y-86362545D01*
X136963400Y-86357853D01*
X136966360Y-86343416D01*
X136971991Y-86322404D01*
X137008355Y-86262746D01*
X137071202Y-86232217D01*
X137091765Y-86230500D01*
X137383261Y-86230500D01*
X137417275Y-86225544D01*
X137451393Y-86220573D01*
X137556483Y-86169198D01*
X137639198Y-86086483D01*
X137690573Y-85981393D01*
X137700500Y-85913260D01*
X137700500Y-85546740D01*
X137697567Y-85526613D01*
X137690573Y-85478608D01*
X137690573Y-85478607D01*
X137639198Y-85373517D01*
X137639196Y-85373515D01*
X137639196Y-85373514D01*
X137556485Y-85290803D01*
X137444180Y-85235901D01*
X137392598Y-85188773D01*
X137374683Y-85121239D01*
X137396124Y-85054740D01*
X137450113Y-85010390D01*
X137498640Y-85000500D01*
X140501360Y-85000500D01*
X140568399Y-85020185D01*
X140614154Y-85072989D01*
X140624098Y-85142147D01*
X140595073Y-85205703D01*
X140555820Y-85235901D01*
X140443514Y-85290803D01*
X140360803Y-85373514D01*
X140309426Y-85478608D01*
X140299500Y-85546739D01*
X140299500Y-85913260D01*
X140309426Y-85981391D01*
X140360803Y-86086485D01*
X140443514Y-86169196D01*
X140443515Y-86169196D01*
X140443517Y-86169198D01*
X140548607Y-86220573D01*
X140582673Y-86225536D01*
X140616739Y-86230500D01*
X140616740Y-86230500D01*
X142333261Y-86230500D01*
X142367275Y-86225544D01*
X142401393Y-86220573D01*
X142506483Y-86169198D01*
X142589198Y-86086483D01*
X142640573Y-85981393D01*
X142650500Y-85913260D01*
X142650500Y-85546740D01*
X142647567Y-85526613D01*
X142640573Y-85478608D01*
X142640573Y-85478607D01*
X142589198Y-85373517D01*
X142589196Y-85373515D01*
X142589196Y-85373514D01*
X142506485Y-85290803D01*
X142394180Y-85235901D01*
X142342598Y-85188773D01*
X142324683Y-85121239D01*
X142346124Y-85054740D01*
X142400113Y-85010390D01*
X142448640Y-85000500D01*
X143724279Y-85000500D01*
X143791318Y-85020185D01*
X143837073Y-85072989D01*
X143847017Y-85142147D01*
X143841321Y-85165455D01*
X143802850Y-85275398D01*
X143802850Y-85275399D01*
X143800000Y-85305793D01*
X143800000Y-86509651D01*
X143780315Y-86576690D01*
X143727511Y-86622445D01*
X143658353Y-86632389D01*
X143643909Y-86629426D01*
X143609349Y-86620166D01*
X143490731Y-86620166D01*
X143376154Y-86650867D01*
X143376152Y-86650867D01*
X143376152Y-86650868D01*
X143273427Y-86710177D01*
X143273424Y-86710179D01*
X143189553Y-86794050D01*
X143189551Y-86794053D01*
X143135269Y-86888072D01*
X143130241Y-86896780D01*
X143099540Y-87011357D01*
X143099540Y-87011359D01*
X143099540Y-87044832D01*
X143079855Y-87111871D01*
X143063221Y-87132513D01*
X142853034Y-87342699D01*
X142791711Y-87376184D01*
X142722019Y-87371200D01*
X142666086Y-87329328D01*
X142641669Y-87263864D01*
X142642648Y-87237146D01*
X142650500Y-87183260D01*
X142650500Y-86816740D01*
X142647194Y-86794053D01*
X142640573Y-86748608D01*
X142636302Y-86739871D01*
X142589198Y-86643517D01*
X142589196Y-86643515D01*
X142589196Y-86643514D01*
X142506485Y-86560803D01*
X142401391Y-86509426D01*
X142333261Y-86499500D01*
X142333260Y-86499500D01*
X140616740Y-86499500D01*
X140616739Y-86499500D01*
X140548608Y-86509426D01*
X140443514Y-86560803D01*
X140360803Y-86643514D01*
X140309426Y-86748608D01*
X140299500Y-86816739D01*
X140299500Y-87183260D01*
X140309426Y-87251391D01*
X140360803Y-87356485D01*
X140443514Y-87439196D01*
X140443515Y-87439196D01*
X140443517Y-87439198D01*
X140548607Y-87490573D01*
X140582673Y-87495536D01*
X140616739Y-87500500D01*
X140616740Y-87500500D01*
X142333258Y-87500500D01*
X142333260Y-87500500D01*
X142387141Y-87492649D01*
X142417630Y-87496973D01*
X142448352Y-87499171D01*
X142451912Y-87501836D01*
X142456316Y-87502461D01*
X142479631Y-87522587D01*
X142504285Y-87541043D01*
X142505839Y-87545209D01*
X142509206Y-87548116D01*
X142517939Y-87577652D01*
X142528702Y-87606507D01*
X142527756Y-87610852D01*
X142529018Y-87615118D01*
X142520396Y-87644687D01*
X142513850Y-87674780D01*
X142510200Y-87679654D01*
X142509460Y-87682195D01*
X142492699Y-87703034D01*
X142458403Y-87737330D01*
X142397080Y-87770815D01*
X142352847Y-87772353D01*
X142333260Y-87769500D01*
X140616740Y-87769500D01*
X140616739Y-87769500D01*
X140548608Y-87779426D01*
X140443516Y-87830802D01*
X140417668Y-87856650D01*
X140356344Y-87890134D01*
X140286653Y-87885148D01*
X140230720Y-87843276D01*
X140222601Y-87830967D01*
X140160491Y-87723390D01*
X140160486Y-87723384D01*
X140076615Y-87639513D01*
X140076613Y-87639511D01*
X139973886Y-87580201D01*
X139859309Y-87549500D01*
X139740691Y-87549500D01*
X139626114Y-87580201D01*
X139626112Y-87580201D01*
X139626112Y-87580202D01*
X139523387Y-87639511D01*
X139523384Y-87639513D01*
X139439513Y-87723384D01*
X139439511Y-87723387D01*
X139387184Y-87814020D01*
X139380201Y-87826114D01*
X139349500Y-87940691D01*
X139349500Y-88059309D01*
X139380201Y-88173886D01*
X139439511Y-88276613D01*
X139439513Y-88276615D01*
X139475217Y-88312319D01*
X139508702Y-88373642D01*
X139503718Y-88443334D01*
X139475217Y-88487681D01*
X139439513Y-88523384D01*
X139439511Y-88523387D01*
X139381314Y-88624187D01*
X139380201Y-88626114D01*
X139349500Y-88740691D01*
X139349500Y-88859309D01*
X139380201Y-88973886D01*
X139439511Y-89076613D01*
X139523387Y-89160489D01*
X139626114Y-89219799D01*
X139740691Y-89250500D01*
X139740694Y-89250500D01*
X139859306Y-89250500D01*
X139859309Y-89250500D01*
X139973886Y-89219799D01*
X140076613Y-89160489D01*
X140160489Y-89076613D01*
X140219799Y-88973886D01*
X140250500Y-88859309D01*
X140250500Y-88812283D01*
X140270185Y-88745244D01*
X140322989Y-88699489D01*
X140392147Y-88689545D01*
X140433565Y-88706158D01*
X140434286Y-88704685D01*
X140443516Y-88709197D01*
X140443517Y-88709198D01*
X140548607Y-88760573D01*
X140579355Y-88765053D01*
X140616739Y-88770500D01*
X140616740Y-88770500D01*
X142333261Y-88770500D01*
X142355971Y-88767191D01*
X142401393Y-88760573D01*
X142506483Y-88709198D01*
X142589198Y-88626483D01*
X142638623Y-88525379D01*
X142685750Y-88473800D01*
X142753284Y-88455885D01*
X142819782Y-88477325D01*
X142864133Y-88531314D01*
X142869796Y-88547740D01*
X142871495Y-88554079D01*
X142871496Y-88554086D01*
X142880200Y-88586569D01*
X142880200Y-88586570D01*
X142901914Y-88624179D01*
X142939511Y-88689298D01*
X142939513Y-88689300D01*
X143434756Y-89184543D01*
X143468241Y-89245866D01*
X143463257Y-89315558D01*
X143434756Y-89359905D01*
X142819117Y-89975544D01*
X142757794Y-90009029D01*
X142688102Y-90004045D01*
X142632169Y-89962173D01*
X142607752Y-89896709D01*
X142620036Y-89833402D01*
X142640573Y-89791393D01*
X142650500Y-89723260D01*
X142650500Y-89356740D01*
X142640573Y-89288607D01*
X142589198Y-89183517D01*
X142589196Y-89183515D01*
X142589196Y-89183514D01*
X142506485Y-89100803D01*
X142483601Y-89089616D01*
X142401393Y-89049427D01*
X142401391Y-89049426D01*
X142333261Y-89039500D01*
X142333260Y-89039500D01*
X140616740Y-89039500D01*
X140616739Y-89039500D01*
X140548608Y-89049426D01*
X140443514Y-89100803D01*
X140414463Y-89129853D01*
X140414455Y-89129863D01*
X140360802Y-89183517D01*
X140323995Y-89258806D01*
X140323988Y-89258817D01*
X140309427Y-89288603D01*
X140309426Y-89288607D01*
X140299500Y-89356739D01*
X140299500Y-89723260D01*
X140309426Y-89791391D01*
X140360803Y-89896485D01*
X140443514Y-89979196D01*
X140443515Y-89979196D01*
X140443517Y-89979198D01*
X140548607Y-90030573D01*
X140556411Y-90031710D01*
X140616739Y-90040500D01*
X140616740Y-90040500D01*
X142333261Y-90040500D01*
X142393589Y-90031710D01*
X142401393Y-90030573D01*
X142443402Y-90010035D01*
X142512275Y-89998276D01*
X142576572Y-90025619D01*
X142615880Y-90083383D01*
X142617718Y-90153229D01*
X142603046Y-90187106D01*
X142595550Y-90199111D01*
X142587953Y-90206709D01*
X142552884Y-90267448D01*
X142551748Y-90269270D01*
X142527183Y-90291124D01*
X142503385Y-90313816D01*
X142501204Y-90314236D01*
X142499547Y-90315711D01*
X142467081Y-90320812D01*
X142434778Y-90327039D01*
X142431559Y-90326395D01*
X142430524Y-90326558D01*
X142428988Y-90325880D01*
X142409959Y-90322074D01*
X142401394Y-90319427D01*
X142401393Y-90319427D01*
X142401391Y-90319426D01*
X142401389Y-90319426D01*
X142333261Y-90309500D01*
X142333260Y-90309500D01*
X140616740Y-90309500D01*
X140616739Y-90309500D01*
X140548608Y-90319426D01*
X140443514Y-90370803D01*
X140360802Y-90453515D01*
X140330874Y-90514734D01*
X140283746Y-90566316D01*
X140216212Y-90584230D01*
X140187381Y-90580048D01*
X140135265Y-90566084D01*
X140110690Y-90559499D01*
X139992072Y-90559499D01*
X139877495Y-90590200D01*
X139877493Y-90590200D01*
X139877493Y-90590201D01*
X139774768Y-90649510D01*
X139774765Y-90649512D01*
X139690894Y-90733383D01*
X139690892Y-90733386D01*
X139645428Y-90812132D01*
X139631582Y-90836113D01*
X139600881Y-90950690D01*
X139600881Y-90950692D01*
X139600881Y-90984166D01*
X139592236Y-91013606D01*
X139585713Y-91043593D01*
X139581958Y-91048608D01*
X139581196Y-91051205D01*
X139564562Y-91071847D01*
X139563228Y-91073181D01*
X139501905Y-91106666D01*
X139475547Y-91109500D01*
X138110438Y-91109500D01*
X138034010Y-91129978D01*
X137965489Y-91169540D01*
X137897957Y-91237072D01*
X137896390Y-91237927D01*
X137895492Y-91239469D01*
X137865837Y-91254609D01*
X137836633Y-91270556D01*
X137834854Y-91270428D01*
X137833264Y-91271241D01*
X137800124Y-91267944D01*
X137766942Y-91265571D01*
X137764946Y-91264445D01*
X137763737Y-91264325D01*
X137758016Y-91260535D01*
X137733241Y-91246558D01*
X137727642Y-91242119D01*
X137725063Y-91239540D01*
X137722581Y-91238107D01*
X137715442Y-91232447D01*
X137700330Y-91211047D01*
X137682255Y-91192087D01*
X137680497Y-91182963D01*
X137675138Y-91175374D01*
X137673994Y-91149200D01*
X137669040Y-91123479D01*
X137672356Y-91111723D01*
X137672088Y-91105571D01*
X137675975Y-91098897D01*
X137681077Y-91080819D01*
X137690572Y-91061395D01*
X137690573Y-91061392D01*
X137694342Y-91035528D01*
X137700500Y-90993260D01*
X137700500Y-90626740D01*
X137690573Y-90558607D01*
X137639198Y-90453517D01*
X137639196Y-90453515D01*
X137639196Y-90453514D01*
X137556485Y-90370803D01*
X137451391Y-90319426D01*
X137383261Y-90309500D01*
X137383260Y-90309500D01*
X135666740Y-90309500D01*
X135666739Y-90309500D01*
X135598608Y-90319426D01*
X135493514Y-90370803D01*
X135410805Y-90453512D01*
X135407923Y-90457550D01*
X135403206Y-90461249D01*
X135400716Y-90466703D01*
X135376034Y-90482564D01*
X135352949Y-90500674D01*
X135345684Y-90502069D01*
X135341938Y-90504477D01*
X135307003Y-90509500D01*
X135285833Y-90509500D01*
X135218794Y-90489815D01*
X135198152Y-90473181D01*
X135186819Y-90461848D01*
X135173628Y-90437691D01*
X135173039Y-90437011D01*
X135172961Y-90436469D01*
X135153334Y-90400525D01*
X135150500Y-90374167D01*
X135150500Y-90130249D01*
X135150499Y-90130247D01*
X135138868Y-90071770D01*
X135138867Y-90071769D01*
X135094552Y-90005447D01*
X135028230Y-89961132D01*
X135028229Y-89961131D01*
X134969752Y-89949500D01*
X134969748Y-89949500D01*
X134430252Y-89949500D01*
X134430247Y-89949500D01*
X134371770Y-89961131D01*
X134371769Y-89961132D01*
X134295293Y-90012233D01*
X134293958Y-90010236D01*
X134247394Y-90035663D01*
X134177702Y-90030679D01*
X134133355Y-90002178D01*
X134077317Y-89946140D01*
X134077315Y-89946138D01*
X133974588Y-89886828D01*
X133860011Y-89856127D01*
X133741393Y-89856127D01*
X133626816Y-89886828D01*
X133626814Y-89886828D01*
X133626814Y-89886829D01*
X133524089Y-89946138D01*
X133524086Y-89946140D01*
X133440215Y-90030011D01*
X133440213Y-90030014D01*
X133416106Y-90071769D01*
X133380903Y-90132741D01*
X133350202Y-90247318D01*
X133350202Y-90365936D01*
X133380903Y-90480513D01*
X133440213Y-90583240D01*
X133440214Y-90583241D01*
X133444277Y-90590278D01*
X133441465Y-90591901D01*
X133461165Y-90642942D01*
X133447088Y-90711379D01*
X133435970Y-90728671D01*
X133434956Y-90729992D01*
X133434953Y-90729996D01*
X133434953Y-90729997D01*
X133375643Y-90832724D01*
X133344942Y-90947301D01*
X133344942Y-90947303D01*
X133344942Y-90952407D01*
X133325257Y-91019446D01*
X133272453Y-91065201D01*
X133203295Y-91075145D01*
X133188855Y-91072183D01*
X133104200Y-91049500D01*
X132985582Y-91049500D01*
X132871005Y-91080201D01*
X132871003Y-91080201D01*
X132871003Y-91080202D01*
X132855645Y-91089069D01*
X132768278Y-91139511D01*
X132768276Y-91139512D01*
X132761240Y-91143575D01*
X132759588Y-91140714D01*
X132707875Y-91159943D01*
X132639617Y-91145021D01*
X132611475Y-91123931D01*
X132576615Y-91089071D01*
X132576613Y-91089069D01*
X132473886Y-91029759D01*
X132359309Y-90999058D01*
X132240691Y-90999058D01*
X132240686Y-90999058D01*
X132234610Y-91000687D01*
X132164761Y-90999023D01*
X132106899Y-90959860D01*
X132079396Y-90895631D01*
X132090983Y-90826729D01*
X132137983Y-90775030D01*
X132140519Y-90773525D01*
X132176613Y-90752686D01*
X132260489Y-90668810D01*
X132319799Y-90566083D01*
X132350500Y-90451506D01*
X132350500Y-90332888D01*
X132319799Y-90218311D01*
X132260489Y-90115584D01*
X132176613Y-90031708D01*
X132073886Y-89972398D01*
X131959309Y-89941697D01*
X131959306Y-89941697D01*
X131886748Y-89941697D01*
X131865175Y-89939806D01*
X131844480Y-89936149D01*
X131833792Y-89929979D01*
X131757365Y-89909500D01*
X131693631Y-89909500D01*
X131682927Y-89907609D01*
X131660971Y-89896718D01*
X131637461Y-89889815D01*
X131630230Y-89881470D01*
X131620335Y-89876562D01*
X131607751Y-89855528D01*
X131591706Y-89837011D01*
X131588867Y-89823963D01*
X131584464Y-89816603D01*
X131584824Y-89805377D01*
X131580500Y-89785501D01*
X131580499Y-89607870D01*
X131580499Y-89607868D01*
X131577589Y-89593238D01*
X131583815Y-89523650D01*
X131626677Y-89468472D01*
X131637201Y-89461664D01*
X131708519Y-89420489D01*
X131959306Y-89169702D01*
X133250000Y-89169702D01*
X133261602Y-89228033D01*
X133261603Y-89228034D01*
X133305808Y-89294191D01*
X133371965Y-89338396D01*
X133371966Y-89338397D01*
X133430297Y-89349999D01*
X133430301Y-89350000D01*
X133450000Y-89350000D01*
X133950000Y-89350000D01*
X133969699Y-89350000D01*
X133969702Y-89349999D01*
X134028033Y-89338397D01*
X134028034Y-89338396D01*
X134094191Y-89294191D01*
X134138396Y-89228034D01*
X134138397Y-89228033D01*
X134149999Y-89169702D01*
X134150000Y-89169699D01*
X134150000Y-89150000D01*
X133950000Y-89150000D01*
X133950000Y-89350000D01*
X133450000Y-89350000D01*
X133450000Y-89150000D01*
X133250000Y-89150000D01*
X133250000Y-89169702D01*
X131959306Y-89169702D01*
X132000700Y-89128308D01*
X132060010Y-89025581D01*
X132068070Y-88995500D01*
X132068071Y-88995499D01*
X132073047Y-88976925D01*
X132090711Y-88911003D01*
X132090711Y-88792385D01*
X132063089Y-88689298D01*
X132060010Y-88677807D01*
X132032580Y-88630297D01*
X133250000Y-88630297D01*
X133250000Y-88650000D01*
X133450000Y-88650000D01*
X133450000Y-88450000D01*
X133430297Y-88450000D01*
X133371966Y-88461602D01*
X133371965Y-88461603D01*
X133305808Y-88505808D01*
X133261603Y-88571965D01*
X133261602Y-88571966D01*
X133250000Y-88630297D01*
X132032580Y-88630297D01*
X132000700Y-88575080D01*
X131916825Y-88491205D01*
X131814098Y-88431895D01*
X131768954Y-88419799D01*
X131699520Y-88401194D01*
X131689611Y-88401194D01*
X131675604Y-88397899D01*
X131657231Y-88387461D01*
X131636960Y-88381509D01*
X131627464Y-88370550D01*
X131614853Y-88363386D01*
X131605039Y-88344670D01*
X131591205Y-88328705D01*
X131587332Y-88310902D01*
X131582406Y-88301508D01*
X131583239Y-88292089D01*
X131579999Y-88277194D01*
X131579999Y-88076782D01*
X131570087Y-88008749D01*
X131570086Y-88008746D01*
X131555613Y-87979140D01*
X131520347Y-87977083D01*
X131474470Y-87948023D01*
X131472500Y-87946053D01*
X131194872Y-88223681D01*
X131133549Y-88257166D01*
X131107191Y-88260000D01*
X130750809Y-88260000D01*
X130683770Y-88240315D01*
X130638015Y-88187511D01*
X130628071Y-88118353D01*
X130657096Y-88054797D01*
X130663128Y-88048319D01*
X130964452Y-87746993D01*
X130963432Y-87737501D01*
X130970423Y-87723532D01*
X130972638Y-87708070D01*
X130985742Y-87692929D01*
X130994706Y-87675021D01*
X131008760Y-87666333D01*
X131018362Y-87655240D01*
X131043760Y-87644698D01*
X131050458Y-87640559D01*
X131078140Y-87632413D01*
X131137936Y-87611489D01*
X131137936Y-87611488D01*
X130230000Y-86703553D01*
X129322062Y-87611488D01*
X129322063Y-87611489D01*
X129395392Y-87637148D01*
X129395394Y-87637149D01*
X129425792Y-87639999D01*
X130055662Y-87639999D01*
X130122701Y-87659683D01*
X130168456Y-87712487D01*
X130178400Y-87781646D01*
X130155807Y-87837121D01*
X130052549Y-87978539D01*
X130033162Y-87993415D01*
X130016676Y-88011460D01*
X130005934Y-88014309D01*
X129997119Y-88021074D01*
X129972764Y-88023107D01*
X129949142Y-88029374D01*
X129930358Y-88026649D01*
X129927491Y-88026889D01*
X129925791Y-88025986D01*
X129920311Y-88025192D01*
X129912530Y-88023107D01*
X129805766Y-87994500D01*
X129654234Y-87994500D01*
X129507863Y-88033719D01*
X129376635Y-88109485D01*
X129376632Y-88109487D01*
X129269487Y-88216632D01*
X129269485Y-88216635D01*
X129193719Y-88347863D01*
X129159133Y-88476944D01*
X129154500Y-88494234D01*
X129154500Y-88645766D01*
X129168895Y-88699489D01*
X129193719Y-88792136D01*
X129220156Y-88837925D01*
X129269485Y-88923365D01*
X129376635Y-89030515D01*
X129507865Y-89106281D01*
X129654234Y-89145500D01*
X129654236Y-89145500D01*
X129805763Y-89145500D01*
X129805766Y-89145500D01*
X129873409Y-89127375D01*
X129943256Y-89129038D01*
X130001119Y-89168200D01*
X130024380Y-89211887D01*
X130029500Y-89229147D01*
X130029500Y-89243260D01*
X130039427Y-89311393D01*
X130076220Y-89386655D01*
X130079160Y-89396566D01*
X130079229Y-89421580D01*
X130083440Y-89446242D01*
X130079328Y-89457410D01*
X130079353Y-89466436D01*
X130071449Y-89478808D01*
X130063383Y-89500719D01*
X130045484Y-89527506D01*
X130045483Y-89527509D01*
X130029500Y-89607863D01*
X130029500Y-89812129D01*
X130034449Y-89837011D01*
X130042503Y-89877504D01*
X130045486Y-89892498D01*
X130050159Y-89903780D01*
X130048714Y-89904378D01*
X130065436Y-89957788D01*
X130049482Y-90015938D01*
X130050159Y-90016219D01*
X130047926Y-90021609D01*
X130046950Y-90025168D01*
X130045550Y-90027345D01*
X130045484Y-90027505D01*
X130029500Y-90107863D01*
X130029500Y-90312129D01*
X130030952Y-90319427D01*
X130041170Y-90370802D01*
X130045486Y-90392498D01*
X130050159Y-90403780D01*
X130048714Y-90404378D01*
X130065436Y-90457788D01*
X130049482Y-90515938D01*
X130050159Y-90516219D01*
X130047926Y-90521609D01*
X130046950Y-90525168D01*
X130045550Y-90527345D01*
X130045484Y-90527505D01*
X130029500Y-90607863D01*
X130029500Y-90812131D01*
X130039961Y-90864723D01*
X130033732Y-90934315D01*
X130006025Y-90976593D01*
X129939026Y-91043593D01*
X129745489Y-91237130D01*
X129689541Y-91293077D01*
X129689535Y-91293085D01*
X129649982Y-91361594D01*
X129649979Y-91361599D01*
X129647182Y-91372038D01*
X129629500Y-91438028D01*
X129629500Y-91981972D01*
X129632871Y-91994552D01*
X129649979Y-92058400D01*
X129649982Y-92058405D01*
X129689535Y-92126914D01*
X129689541Y-92126922D01*
X130006024Y-92443405D01*
X130039509Y-92504728D01*
X130039960Y-92555277D01*
X130029500Y-92607863D01*
X130029500Y-92812129D01*
X130032281Y-92826111D01*
X130045212Y-92891123D01*
X130045486Y-92892498D01*
X130050159Y-92903780D01*
X130048714Y-92904378D01*
X130065436Y-92957788D01*
X130049482Y-93015938D01*
X130050159Y-93016219D01*
X130047926Y-93021609D01*
X130046950Y-93025168D01*
X130045550Y-93027345D01*
X130045484Y-93027505D01*
X130029500Y-93107863D01*
X130029500Y-93312129D01*
X130036718Y-93348419D01*
X130045485Y-93392495D01*
X130050832Y-93400498D01*
X130063382Y-93419279D01*
X130084260Y-93485956D01*
X130079160Y-93523433D01*
X130076219Y-93533346D01*
X130039427Y-93608607D01*
X130029500Y-93676740D01*
X130029500Y-93690851D01*
X130024380Y-93708112D01*
X130014790Y-93722943D01*
X130009815Y-93739888D01*
X129996215Y-93751672D01*
X129986444Y-93766785D01*
X129970357Y-93774077D01*
X129957011Y-93785643D01*
X129939199Y-93788204D01*
X129922809Y-93795635D01*
X129905334Y-93793073D01*
X129887853Y-93795587D01*
X129873408Y-93792624D01*
X129805767Y-93774500D01*
X129805766Y-93774500D01*
X129654234Y-93774500D01*
X129507863Y-93813719D01*
X129376635Y-93889485D01*
X129268592Y-93997528D01*
X129207269Y-94031012D01*
X129137577Y-94026028D01*
X129081644Y-93984156D01*
X129073526Y-93971849D01*
X129070518Y-93966641D01*
X129070515Y-93966635D01*
X128963365Y-93859485D01*
X128890718Y-93817542D01*
X128832136Y-93783719D01*
X128758950Y-93764109D01*
X128685766Y-93744500D01*
X128534234Y-93744500D01*
X128387863Y-93783719D01*
X128256635Y-93859485D01*
X128256632Y-93859487D01*
X128149487Y-93966632D01*
X128149485Y-93966635D01*
X128073719Y-94097863D01*
X128046199Y-94200573D01*
X128034500Y-94244234D01*
X128034500Y-94395766D01*
X128042765Y-94426612D01*
X128073719Y-94542136D01*
X128107771Y-94601114D01*
X128149485Y-94673365D01*
X128256635Y-94780515D01*
X128387865Y-94856281D01*
X128534234Y-94895500D01*
X128534236Y-94895500D01*
X128685764Y-94895500D01*
X128685766Y-94895500D01*
X128832135Y-94856281D01*
X128963365Y-94780515D01*
X129070515Y-94673365D01*
X129070517Y-94673360D01*
X129071406Y-94672472D01*
X129132729Y-94638987D01*
X129202421Y-94643971D01*
X129258355Y-94685842D01*
X129266472Y-94698147D01*
X129269482Y-94703361D01*
X129269484Y-94703363D01*
X129269485Y-94703365D01*
X129376635Y-94810515D01*
X129507865Y-94886281D01*
X129654234Y-94925500D01*
X129654236Y-94925500D01*
X129805763Y-94925500D01*
X129805766Y-94925500D01*
X129920314Y-94894807D01*
X129990160Y-94896470D01*
X130048023Y-94935632D01*
X130052549Y-94941460D01*
X130155807Y-95082878D01*
X130164505Y-95107074D01*
X130176828Y-95129642D01*
X130176129Y-95139410D01*
X130179443Y-95148628D01*
X130173678Y-95173685D01*
X130171844Y-95199334D01*
X130165973Y-95207175D01*
X130163778Y-95216719D01*
X130145381Y-95234682D01*
X130129972Y-95255267D01*
X130120796Y-95258689D01*
X130113788Y-95265533D01*
X130088596Y-95270699D01*
X130064508Y-95279684D01*
X130055662Y-95280000D01*
X129425803Y-95280000D01*
X129395392Y-95282852D01*
X129395391Y-95282852D01*
X129322062Y-95308509D01*
X130230000Y-96216447D01*
X130230001Y-96216447D01*
X131137936Y-95308509D01*
X131094558Y-95293331D01*
X131048260Y-95278771D01*
X131023669Y-95262295D01*
X130997706Y-95248090D01*
X130994968Y-95243066D01*
X130990214Y-95239881D01*
X130978432Y-95212721D01*
X130964273Y-95186739D01*
X130964685Y-95181033D01*
X130962408Y-95175783D01*
X130963085Y-95171637D01*
X130663128Y-94871681D01*
X130629643Y-94810358D01*
X130634627Y-94740667D01*
X130676498Y-94684733D01*
X130741963Y-94660316D01*
X130750809Y-94660000D01*
X131107191Y-94660000D01*
X131174230Y-94679685D01*
X131194872Y-94696319D01*
X131481505Y-94982952D01*
X131497148Y-94985223D01*
X131506843Y-94991964D01*
X131512521Y-94993632D01*
X131526813Y-95004346D01*
X131530093Y-95007196D01*
X131553386Y-95030489D01*
X131553414Y-95030505D01*
X131563857Y-95036534D01*
X131563860Y-95036537D01*
X131618072Y-95067836D01*
X131656112Y-95089799D01*
X131770689Y-95120500D01*
X131770690Y-95120500D01*
X131770692Y-95120500D01*
X131889305Y-95120500D01*
X131889308Y-95120500D01*
X132003885Y-95089799D01*
X132064886Y-95054580D01*
X132106611Y-95030490D01*
X132190487Y-94946614D01*
X132190489Y-94946612D01*
X132243992Y-94853943D01*
X132249798Y-94843887D01*
X132277771Y-94739487D01*
X132278694Y-94736614D01*
X132296676Y-94710107D01*
X132313354Y-94682746D01*
X132316165Y-94681380D01*
X132317920Y-94678794D01*
X132347382Y-94666216D01*
X132376201Y-94652217D01*
X132381139Y-94651804D01*
X132382179Y-94651361D01*
X132383590Y-94651599D01*
X132396764Y-94650500D01*
X132838862Y-94650500D01*
X132905901Y-94670185D01*
X132951656Y-94722989D01*
X132961600Y-94792147D01*
X132958639Y-94806583D01*
X132949500Y-94840691D01*
X132949500Y-94840693D01*
X132949500Y-94900500D01*
X132929815Y-94967539D01*
X132877011Y-95013294D01*
X132825501Y-95024500D01*
X132686601Y-95024500D01*
X132609881Y-95039760D01*
X132609879Y-95039761D01*
X132522888Y-95097888D01*
X132464760Y-95184883D01*
X132464758Y-95184887D01*
X132449500Y-95261595D01*
X132449500Y-95438398D01*
X132464760Y-95515118D01*
X132464761Y-95515120D01*
X132475745Y-95531558D01*
X132496623Y-95598235D01*
X132495123Y-95619806D01*
X132466383Y-95801658D01*
X132458418Y-95818473D01*
X132455279Y-95836812D01*
X132443773Y-95849393D01*
X132436475Y-95864803D01*
X132420682Y-95874643D01*
X132408127Y-95888373D01*
X132378092Y-95901182D01*
X132377175Y-95901754D01*
X132376765Y-95901748D01*
X132375997Y-95902075D01*
X132362028Y-95905819D01*
X132271035Y-95930200D01*
X132168310Y-95989510D01*
X132168307Y-95989512D01*
X132084436Y-96073383D01*
X132084434Y-96073386D01*
X132029036Y-96169338D01*
X132025124Y-96176113D01*
X131994423Y-96290690D01*
X131994423Y-96409308D01*
X132025124Y-96523885D01*
X132084434Y-96626612D01*
X132168310Y-96710488D01*
X132271037Y-96769798D01*
X132376000Y-96797922D01*
X132435658Y-96834286D01*
X132466187Y-96897132D01*
X132457893Y-96966508D01*
X132456165Y-96969352D01*
X132465228Y-97014920D01*
X132465229Y-97014921D01*
X132523247Y-97101752D01*
X132610077Y-97159769D01*
X132610081Y-97159771D01*
X132686639Y-97174999D01*
X132686643Y-97175000D01*
X132875000Y-97175000D01*
X133125000Y-97175000D01*
X133313357Y-97175000D01*
X133313360Y-97174999D01*
X133389918Y-97159771D01*
X133389922Y-97159769D01*
X133476752Y-97101752D01*
X133534770Y-97014921D01*
X133534771Y-97014920D01*
X133542711Y-96975000D01*
X134457288Y-96975000D01*
X134465228Y-97014920D01*
X134465229Y-97014921D01*
X134523247Y-97101752D01*
X134610077Y-97159769D01*
X134610081Y-97159771D01*
X134686639Y-97174999D01*
X134686643Y-97175000D01*
X134875000Y-97175000D01*
X135125000Y-97175000D01*
X135313357Y-97175000D01*
X135313360Y-97174999D01*
X135389918Y-97159771D01*
X135389922Y-97159769D01*
X135476752Y-97101752D01*
X135534770Y-97014921D01*
X135534771Y-97014920D01*
X135542711Y-96975000D01*
X135125000Y-96975000D01*
X135125000Y-97175000D01*
X134875000Y-97175000D01*
X134875000Y-96975000D01*
X134457288Y-96975000D01*
X133542711Y-96975000D01*
X133125000Y-96975000D01*
X133125000Y-97175000D01*
X132875000Y-97175000D01*
X132875000Y-96975000D01*
X132726163Y-96975000D01*
X132659124Y-96955315D01*
X132613369Y-96902511D01*
X132603425Y-96833353D01*
X132632450Y-96769797D01*
X132664162Y-96743614D01*
X132667626Y-96741614D01*
X132729627Y-96725000D01*
X133542711Y-96725000D01*
X133542711Y-96724999D01*
X134457288Y-96724999D01*
X134457289Y-96725000D01*
X134875000Y-96725000D01*
X135125000Y-96725000D01*
X135542711Y-96725000D01*
X135542711Y-96724999D01*
X135534771Y-96685079D01*
X135534770Y-96685077D01*
X135523956Y-96668894D01*
X135503076Y-96602217D01*
X135521559Y-96534836D01*
X135523956Y-96531106D01*
X135534770Y-96514922D01*
X135534771Y-96514920D01*
X135542711Y-96475000D01*
X135125000Y-96475000D01*
X135125000Y-96725000D01*
X134875000Y-96725000D01*
X134875000Y-96475000D01*
X134464220Y-96475000D01*
X134491460Y-96563536D01*
X134491685Y-96581061D01*
X134496923Y-96597788D01*
X134492126Y-96615271D01*
X134492360Y-96633400D01*
X134483075Y-96648265D01*
X134478438Y-96665168D01*
X134476046Y-96668889D01*
X134465230Y-96685076D01*
X134465228Y-96685079D01*
X134457288Y-96724999D01*
X133542711Y-96724999D01*
X133534771Y-96685079D01*
X133534769Y-96685075D01*
X133524255Y-96669340D01*
X133503376Y-96602663D01*
X133508485Y-96565153D01*
X133513825Y-96547166D01*
X133535240Y-96515117D01*
X133550500Y-96438401D01*
X133550499Y-96261600D01*
X133535240Y-96184883D01*
X133524253Y-96168440D01*
X133503376Y-96101765D01*
X133521860Y-96034384D01*
X133524256Y-96030657D01*
X133534771Y-96014921D01*
X133542711Y-95975000D01*
X132729631Y-95975000D01*
X132714141Y-95970849D01*
X132700395Y-95971504D01*
X132667630Y-95958386D01*
X132664166Y-95956386D01*
X132615951Y-95905819D01*
X132602729Y-95837211D01*
X132628697Y-95772347D01*
X132685612Y-95731819D01*
X132726167Y-95725000D01*
X133542711Y-95725000D01*
X133542711Y-95724999D01*
X133534771Y-95685079D01*
X133534769Y-95685075D01*
X133524255Y-95669340D01*
X133503376Y-95602663D01*
X133506809Y-95571388D01*
X133511983Y-95549922D01*
X133535240Y-95515117D01*
X133550500Y-95438401D01*
X133550499Y-95390153D01*
X133553952Y-95375832D01*
X133564324Y-95357807D01*
X133570182Y-95337855D01*
X133582641Y-95325974D01*
X133588800Y-95315272D01*
X133599874Y-95309542D01*
X133612497Y-95297506D01*
X133676613Y-95260489D01*
X133760489Y-95176613D01*
X133819799Y-95073886D01*
X133850500Y-94959309D01*
X133850500Y-94887824D01*
X133870185Y-94820785D01*
X133922989Y-94775030D01*
X133992147Y-94765086D01*
X134036501Y-94780437D01*
X134036633Y-94780513D01*
X134036635Y-94780515D01*
X134167865Y-94856281D01*
X134314234Y-94895500D01*
X134314236Y-94895500D01*
X134426132Y-94895500D01*
X134493171Y-94915185D01*
X134538926Y-94967989D01*
X134548870Y-95037147D01*
X134529234Y-95088391D01*
X134522888Y-95097887D01*
X134522888Y-95097888D01*
X134467332Y-95181033D01*
X134464760Y-95184883D01*
X134464758Y-95184887D01*
X134449500Y-95261595D01*
X134449500Y-95438398D01*
X134464760Y-95515119D01*
X134475446Y-95531111D01*
X134496323Y-95597788D01*
X134477837Y-95665168D01*
X134475446Y-95668889D01*
X134464759Y-95684882D01*
X134449500Y-95761596D01*
X134449500Y-95938398D01*
X134464760Y-96015118D01*
X134464761Y-96015120D01*
X134475745Y-96031558D01*
X134496623Y-96098235D01*
X134478139Y-96165616D01*
X134475746Y-96169338D01*
X134465230Y-96185076D01*
X134465228Y-96185079D01*
X134457288Y-96224999D01*
X134457289Y-96225000D01*
X135542711Y-96225000D01*
X135547987Y-96218570D01*
X135546303Y-96206853D01*
X135552352Y-96193605D01*
X135553651Y-96179099D01*
X135566576Y-96162461D01*
X135575328Y-96143297D01*
X135587580Y-96135422D01*
X135596515Y-96123922D01*
X135616381Y-96116913D01*
X135634106Y-96105523D01*
X135658691Y-96101988D01*
X135662405Y-96100678D01*
X135669041Y-96100500D01*
X135676324Y-96100500D01*
X135743363Y-96120185D01*
X135779425Y-96155608D01*
X135805446Y-96194551D01*
X135871769Y-96238867D01*
X135871770Y-96238868D01*
X135930247Y-96250499D01*
X135930250Y-96250500D01*
X135930252Y-96250500D01*
X136469750Y-96250500D01*
X136469751Y-96250499D01*
X136484568Y-96247552D01*
X136528229Y-96238868D01*
X136528229Y-96238867D01*
X136528231Y-96238867D01*
X136594552Y-96194552D01*
X136622399Y-96152875D01*
X136676009Y-96108073D01*
X136745334Y-96099364D01*
X136808362Y-96129519D01*
X136845081Y-96188961D01*
X136849500Y-96221767D01*
X136849500Y-96330495D01*
X136849501Y-96330505D01*
X136852293Y-96354580D01*
X136852294Y-96354584D01*
X136895781Y-96453073D01*
X136895784Y-96453077D01*
X136895785Y-96453079D01*
X136971921Y-96529215D01*
X137070420Y-96572707D01*
X137094495Y-96575500D01*
X137460892Y-96575499D01*
X137527929Y-96595183D01*
X137573684Y-96647987D01*
X137583628Y-96717146D01*
X137563994Y-96768388D01*
X137561602Y-96771966D01*
X137550000Y-96830297D01*
X137550000Y-96850000D01*
X138450000Y-96850000D01*
X138450000Y-96830301D01*
X138449999Y-96830297D01*
X138438397Y-96771966D01*
X138438396Y-96771965D01*
X138387407Y-96695654D01*
X138390435Y-96693630D01*
X138389952Y-96692744D01*
X138375452Y-96676011D01*
X138373535Y-96662679D01*
X138367080Y-96650858D01*
X138368659Y-96628771D01*
X138365508Y-96606853D01*
X138371103Y-96594601D01*
X138372064Y-96581166D01*
X138385334Y-96563439D01*
X138394533Y-96543297D01*
X138405864Y-96536014D01*
X138413936Y-96525233D01*
X138434681Y-96517495D01*
X138453311Y-96505523D01*
X138475229Y-96502371D01*
X138479400Y-96500816D01*
X138488246Y-96500500D01*
X138566844Y-96500500D01*
X138633883Y-96520185D01*
X138637297Y-96522936D01*
X138637444Y-96522722D01*
X138646918Y-96529212D01*
X138646921Y-96529215D01*
X138725252Y-96563802D01*
X138778626Y-96608886D01*
X138799154Y-96675672D01*
X138780316Y-96742955D01*
X138778267Y-96746124D01*
X138761133Y-96771767D01*
X138761131Y-96771770D01*
X138749500Y-96830247D01*
X138749500Y-97369752D01*
X138761131Y-97428229D01*
X138761132Y-97428230D01*
X138805447Y-97494552D01*
X138871769Y-97538867D01*
X138871770Y-97538868D01*
X138930247Y-97550499D01*
X138930250Y-97550500D01*
X138930252Y-97550500D01*
X139469750Y-97550500D01*
X139469751Y-97550499D01*
X139484568Y-97547552D01*
X139528229Y-97538868D01*
X139528230Y-97538867D01*
X139528231Y-97538867D01*
X139594552Y-97494552D01*
X139638867Y-97428231D01*
X139638867Y-97428229D01*
X139638868Y-97428229D01*
X139650499Y-97369752D01*
X139650500Y-97369750D01*
X139650500Y-97269702D01*
X140250000Y-97269702D01*
X140261602Y-97328033D01*
X140261603Y-97328034D01*
X140305808Y-97394191D01*
X140371965Y-97438396D01*
X140371966Y-97438397D01*
X140430297Y-97449999D01*
X140430301Y-97450000D01*
X140450000Y-97450000D01*
X140950000Y-97450000D01*
X140969699Y-97450000D01*
X140969702Y-97449999D01*
X141028033Y-97438397D01*
X141028034Y-97438396D01*
X141094191Y-97394191D01*
X141138396Y-97328034D01*
X141138397Y-97328033D01*
X141149999Y-97269702D01*
X141150000Y-97269699D01*
X141150000Y-97250000D01*
X140950000Y-97250000D01*
X140950000Y-97450000D01*
X140450000Y-97450000D01*
X140450000Y-97250000D01*
X140250000Y-97250000D01*
X140250000Y-97269702D01*
X139650500Y-97269702D01*
X139650500Y-96940691D01*
X142769500Y-96940691D01*
X142769500Y-97059309D01*
X142800201Y-97173886D01*
X142859511Y-97276613D01*
X142943387Y-97360489D01*
X143046114Y-97419799D01*
X143160691Y-97450500D01*
X143160694Y-97450500D01*
X143279306Y-97450500D01*
X143279309Y-97450500D01*
X143393886Y-97419799D01*
X143496613Y-97360489D01*
X143580489Y-97276613D01*
X143580496Y-97276599D01*
X143581421Y-97275396D01*
X143582477Y-97274624D01*
X143586236Y-97270866D01*
X143586821Y-97271451D01*
X143637846Y-97234189D01*
X143707592Y-97230029D01*
X143727256Y-97236314D01*
X143800000Y-97266445D01*
X144646447Y-96420000D01*
X144646447Y-96419999D01*
X145353553Y-96419999D01*
X145353553Y-96420001D01*
X146199998Y-97266446D01*
X147730000Y-97266446D01*
X148576447Y-96420000D01*
X148576447Y-96419999D01*
X147730000Y-95573552D01*
X147730000Y-97266446D01*
X146199998Y-97266446D01*
X146199999Y-97266445D01*
X146199999Y-95573553D01*
X146199998Y-95573552D01*
X145353553Y-96419999D01*
X144646447Y-96419999D01*
X143800000Y-95573552D01*
X143800000Y-96644167D01*
X143780315Y-96711206D01*
X143727511Y-96756961D01*
X143658353Y-96766905D01*
X143594797Y-96737880D01*
X143586400Y-96728969D01*
X143586236Y-96729134D01*
X143496615Y-96639513D01*
X143496613Y-96639511D01*
X143393886Y-96580201D01*
X143279309Y-96549500D01*
X143160691Y-96549500D01*
X143046114Y-96580201D01*
X143046112Y-96580201D01*
X143046112Y-96580202D01*
X142943387Y-96639511D01*
X142943384Y-96639513D01*
X142859513Y-96723384D01*
X142859511Y-96723387D01*
X142829937Y-96774611D01*
X142800201Y-96826114D01*
X142769500Y-96940691D01*
X139650500Y-96940691D01*
X139650500Y-96830249D01*
X139650499Y-96830247D01*
X139639433Y-96774611D01*
X139639431Y-96774609D01*
X139638867Y-96771769D01*
X139632099Y-96761640D01*
X139629826Y-96757620D01*
X139623457Y-96730297D01*
X140250000Y-96730297D01*
X140250000Y-96750000D01*
X140450000Y-96750000D01*
X140950000Y-96750000D01*
X141150000Y-96750000D01*
X141150000Y-96730301D01*
X141149999Y-96730297D01*
X141138397Y-96671966D01*
X141138396Y-96671965D01*
X141094191Y-96605808D01*
X141028034Y-96561603D01*
X141028033Y-96561602D01*
X140969702Y-96550000D01*
X140950000Y-96550000D01*
X140950000Y-96750000D01*
X140450000Y-96750000D01*
X140450000Y-96550000D01*
X140430297Y-96550000D01*
X140371966Y-96561602D01*
X140371965Y-96561603D01*
X140305808Y-96605808D01*
X140261603Y-96671965D01*
X140261602Y-96671966D01*
X140250000Y-96730297D01*
X139623457Y-96730297D01*
X139622902Y-96727918D01*
X139613786Y-96698804D01*
X139615045Y-96694211D01*
X139613965Y-96689574D01*
X139624198Y-96660845D01*
X139632269Y-96631423D01*
X139635812Y-96628239D01*
X139637410Y-96623755D01*
X139661550Y-96605119D01*
X139684247Y-96584732D01*
X139690177Y-96583021D01*
X139692717Y-96581061D01*
X139698794Y-96580535D01*
X139723483Y-96573413D01*
X139729580Y-96572707D01*
X139815349Y-96534836D01*
X139828073Y-96529218D01*
X139828074Y-96529217D01*
X139828079Y-96529215D01*
X139904215Y-96453079D01*
X139947707Y-96354580D01*
X139950500Y-96330505D01*
X139950499Y-96069496D01*
X139947707Y-96045420D01*
X139942834Y-96034384D01*
X139904218Y-95946926D01*
X139904216Y-95946923D01*
X139904215Y-95946921D01*
X139828079Y-95870785D01*
X139779631Y-95849393D01*
X139729581Y-95827293D01*
X139705508Y-95824500D01*
X139705505Y-95824500D01*
X139494583Y-95824500D01*
X139427544Y-95804815D01*
X139406902Y-95788181D01*
X139105901Y-95487180D01*
X139072416Y-95425857D01*
X139077400Y-95356165D01*
X139119272Y-95300232D01*
X139184736Y-95275815D01*
X139193582Y-95275499D01*
X139705496Y-95275499D01*
X139705504Y-95275499D01*
X139729580Y-95272707D01*
X139796710Y-95243066D01*
X139828073Y-95229218D01*
X139828074Y-95229217D01*
X139828079Y-95229215D01*
X139904215Y-95153079D01*
X139947707Y-95054580D01*
X139950500Y-95030505D01*
X139950499Y-94769496D01*
X139947707Y-94745420D01*
X139947705Y-94745415D01*
X139904218Y-94646926D01*
X139904216Y-94646923D01*
X139904215Y-94646921D01*
X139828079Y-94570785D01*
X139796561Y-94556868D01*
X139729581Y-94527293D01*
X139705508Y-94524500D01*
X139705505Y-94524500D01*
X139523016Y-94524500D01*
X139455977Y-94504815D01*
X139435335Y-94488181D01*
X139209002Y-94261848D01*
X139175517Y-94200525D01*
X139172683Y-94174167D01*
X139172683Y-94140693D01*
X139172683Y-94140691D01*
X139141982Y-94026114D01*
X139082672Y-93923387D01*
X138998796Y-93839511D01*
X138896069Y-93780201D01*
X138781492Y-93749500D01*
X138662874Y-93749500D01*
X138662869Y-93749500D01*
X138628774Y-93758636D01*
X138558924Y-93756972D01*
X138501063Y-93717809D01*
X138473560Y-93653580D01*
X138472683Y-93638861D01*
X138472683Y-92940690D01*
X139193003Y-92940690D01*
X139193003Y-93059308D01*
X139223704Y-93173885D01*
X139283014Y-93276612D01*
X139366890Y-93360488D01*
X139469617Y-93419798D01*
X139584194Y-93450499D01*
X139584197Y-93450499D01*
X139702809Y-93450499D01*
X139702812Y-93450499D01*
X139817389Y-93419798D01*
X139920116Y-93360488D01*
X140003992Y-93276612D01*
X140063302Y-93173885D01*
X140094003Y-93059308D01*
X140094003Y-92940690D01*
X140063302Y-92826113D01*
X140003992Y-92723386D01*
X139920116Y-92639510D01*
X139817389Y-92580200D01*
X139702812Y-92549499D01*
X139584194Y-92549499D01*
X139469617Y-92580200D01*
X139469615Y-92580200D01*
X139469615Y-92580201D01*
X139366890Y-92639510D01*
X139366887Y-92639512D01*
X139283016Y-92723383D01*
X139283014Y-92723386D01*
X139265307Y-92754056D01*
X139223704Y-92826113D01*
X139193003Y-92940690D01*
X138472683Y-92940690D01*
X138472683Y-91834500D01*
X138492368Y-91767461D01*
X138545172Y-91721706D01*
X138596683Y-91710500D01*
X139690940Y-91710500D01*
X139690942Y-91710500D01*
X139767369Y-91690021D01*
X139835891Y-91650460D01*
X139891840Y-91594511D01*
X139989533Y-91496818D01*
X140050856Y-91463333D01*
X140077214Y-91460499D01*
X140110687Y-91460499D01*
X140110690Y-91460499D01*
X140225267Y-91429798D01*
X140327994Y-91370488D01*
X140384790Y-91313691D01*
X140446109Y-91280209D01*
X140515801Y-91285193D01*
X140526915Y-91289968D01*
X140548607Y-91300573D01*
X140594029Y-91307191D01*
X140616739Y-91310500D01*
X140616740Y-91310500D01*
X142333258Y-91310500D01*
X142333260Y-91310500D01*
X142386036Y-91302810D01*
X142403798Y-91305329D01*
X142421560Y-91302776D01*
X142437672Y-91310134D01*
X142455211Y-91312622D01*
X142468794Y-91324347D01*
X142485116Y-91331801D01*
X142494692Y-91346702D01*
X142508101Y-91358277D01*
X142513188Y-91375483D01*
X142522890Y-91390579D01*
X142527847Y-91425056D01*
X142527913Y-91425279D01*
X142527913Y-91464485D01*
X142508228Y-91531524D01*
X142455424Y-91577279D01*
X142386266Y-91587223D01*
X142386035Y-91587189D01*
X142333261Y-91579500D01*
X142333260Y-91579500D01*
X140616740Y-91579500D01*
X140616739Y-91579500D01*
X140548608Y-91589426D01*
X140443514Y-91640803D01*
X140360803Y-91723514D01*
X140309426Y-91828608D01*
X140299500Y-91896739D01*
X140299500Y-92263260D01*
X140309426Y-92331391D01*
X140360803Y-92436485D01*
X140443514Y-92519196D01*
X140443515Y-92519196D01*
X140443517Y-92519198D01*
X140548607Y-92570573D01*
X140582673Y-92575536D01*
X140616739Y-92580500D01*
X140616740Y-92580500D01*
X142333257Y-92580500D01*
X142333260Y-92580500D01*
X142360908Y-92576471D01*
X142375797Y-92578583D01*
X142390570Y-92575736D01*
X142409689Y-92583389D01*
X142430081Y-92586282D01*
X142441469Y-92596112D01*
X142455435Y-92601703D01*
X142467380Y-92618477D01*
X142482972Y-92631936D01*
X142487238Y-92646363D01*
X142495964Y-92658617D01*
X142496944Y-92679186D01*
X142502785Y-92698938D01*
X142498627Y-92714512D01*
X142499290Y-92728407D01*
X142486173Y-92761173D01*
X142469319Y-92790366D01*
X142418753Y-92838583D01*
X142350146Y-92851807D01*
X142344056Y-92851073D01*
X142333260Y-92849500D01*
X140616740Y-92849500D01*
X140616739Y-92849500D01*
X140548608Y-92859426D01*
X140443514Y-92910803D01*
X140360800Y-92993517D01*
X140336718Y-93042779D01*
X140336717Y-93042783D01*
X140309427Y-93098607D01*
X140299500Y-93166740D01*
X140299500Y-93238716D01*
X140299500Y-93533260D01*
X140309426Y-93601391D01*
X140360803Y-93706485D01*
X140443515Y-93789197D01*
X140451878Y-93795168D01*
X140449946Y-93797872D01*
X140488506Y-93833090D01*
X140506432Y-93900622D01*
X140489863Y-93959377D01*
X140480202Y-93976110D01*
X140480067Y-93976613D01*
X140449500Y-94090691D01*
X140449500Y-94209309D01*
X140480201Y-94323886D01*
X140539511Y-94426613D01*
X140623387Y-94510489D01*
X140726114Y-94569799D01*
X140840691Y-94600500D01*
X140840694Y-94600500D01*
X140860610Y-94600500D01*
X140927649Y-94620185D01*
X140973404Y-94672989D01*
X140983348Y-94742147D01*
X140967997Y-94786499D01*
X140940201Y-94834644D01*
X140909500Y-94949221D01*
X140909500Y-95067839D01*
X140924203Y-95122714D01*
X140922541Y-95192561D01*
X140883379Y-95250423D01*
X140819151Y-95277928D01*
X140804429Y-95278805D01*
X140799310Y-95278805D01*
X140680692Y-95278805D01*
X140566115Y-95309506D01*
X140566113Y-95309506D01*
X140566113Y-95309507D01*
X140559750Y-95313181D01*
X140525617Y-95332887D01*
X140463618Y-95349500D01*
X140430247Y-95349500D01*
X140371770Y-95361131D01*
X140371769Y-95361132D01*
X140305447Y-95405447D01*
X140261132Y-95471769D01*
X140261131Y-95471770D01*
X140249500Y-95530247D01*
X140249500Y-96069752D01*
X140261131Y-96128229D01*
X140261132Y-96128230D01*
X140305447Y-96194552D01*
X140371769Y-96238867D01*
X140371770Y-96238868D01*
X140430247Y-96250499D01*
X140430250Y-96250500D01*
X140430252Y-96250500D01*
X140969750Y-96250500D01*
X140969751Y-96250499D01*
X140984568Y-96247552D01*
X141028229Y-96238868D01*
X141028229Y-96238867D01*
X141028231Y-96238867D01*
X141094552Y-96194552D01*
X141138867Y-96128231D01*
X141138867Y-96128229D01*
X141138868Y-96128229D01*
X141150499Y-96069752D01*
X141150500Y-96069750D01*
X141150500Y-95950308D01*
X141158279Y-95911199D01*
X141157696Y-95911043D01*
X141167449Y-95874643D01*
X141190501Y-95788614D01*
X141190501Y-95669996D01*
X141175797Y-95615120D01*
X141177460Y-95545274D01*
X141216622Y-95487412D01*
X141280850Y-95459907D01*
X141295572Y-95459030D01*
X141419306Y-95459030D01*
X141419309Y-95459030D01*
X141533886Y-95428329D01*
X141636613Y-95369019D01*
X141720489Y-95285143D01*
X141779799Y-95182416D01*
X141810500Y-95067839D01*
X141810500Y-94949221D01*
X141779799Y-94834644D01*
X141720489Y-94731917D01*
X141636613Y-94648041D01*
X141533886Y-94588731D01*
X141419309Y-94558030D01*
X141399390Y-94558030D01*
X141332351Y-94538345D01*
X141286596Y-94485541D01*
X141276652Y-94416383D01*
X141292003Y-94372029D01*
X141319799Y-94323886D01*
X141350500Y-94209309D01*
X141350500Y-94090691D01*
X141327966Y-94006593D01*
X141329629Y-93936743D01*
X141368792Y-93878881D01*
X141433020Y-93851377D01*
X141447741Y-93850500D01*
X142333261Y-93850500D01*
X142359787Y-93846635D01*
X142401393Y-93840573D01*
X142506483Y-93789198D01*
X142589198Y-93706483D01*
X142640573Y-93601393D01*
X142647962Y-93550674D01*
X142677105Y-93487177D01*
X142735954Y-93449513D01*
X142802759Y-93448781D01*
X142809171Y-93450499D01*
X142809175Y-93450499D01*
X142927786Y-93450499D01*
X142927789Y-93450499D01*
X143042366Y-93419798D01*
X143145093Y-93360488D01*
X143228969Y-93276612D01*
X143288279Y-93173885D01*
X143318980Y-93059308D01*
X143318980Y-93024500D01*
X143338665Y-92957461D01*
X143391469Y-92911706D01*
X143423160Y-92902094D01*
X143433004Y-92900500D01*
X143459309Y-92900500D01*
X143499482Y-92889735D01*
X143505680Y-92888732D01*
X143534360Y-92892338D01*
X143563256Y-92893026D01*
X143568600Y-92896642D01*
X143575003Y-92897448D01*
X143597176Y-92915983D01*
X143621119Y-92932188D01*
X143623660Y-92938122D01*
X143628610Y-92942260D01*
X143637244Y-92969844D01*
X143648623Y-92996417D01*
X143649342Y-93008497D01*
X143649481Y-93008939D01*
X143649389Y-93009274D01*
X143649500Y-93011137D01*
X143649500Y-93162129D01*
X143659754Y-93213681D01*
X143665485Y-93242495D01*
X143683380Y-93269277D01*
X143683382Y-93269279D01*
X143704260Y-93335956D01*
X143691681Y-93392630D01*
X143659426Y-93458608D01*
X143649500Y-93526739D01*
X143649500Y-93893260D01*
X143659426Y-93961391D01*
X143705730Y-94056108D01*
X143717488Y-94124981D01*
X143705730Y-94165028D01*
X143659911Y-94258752D01*
X143650000Y-94326780D01*
X143650000Y-94693212D01*
X143659913Y-94761251D01*
X143659912Y-94761251D01*
X143674387Y-94790859D01*
X143709648Y-94792915D01*
X143755529Y-94821976D01*
X143757500Y-94823947D01*
X144035128Y-94546319D01*
X144096451Y-94512834D01*
X144122809Y-94510000D01*
X144479190Y-94510000D01*
X144546229Y-94529685D01*
X144591984Y-94582489D01*
X144601928Y-94651647D01*
X144572903Y-94715203D01*
X144566871Y-94721681D01*
X144265546Y-95023004D01*
X144266567Y-95032500D01*
X144260081Y-95045455D01*
X144258295Y-95059829D01*
X144244757Y-95076069D01*
X144235292Y-95094979D01*
X144222007Y-95103361D01*
X144213558Y-95113498D01*
X144190129Y-95123477D01*
X144181740Y-95128771D01*
X144135413Y-95143341D01*
X144092063Y-95158509D01*
X144092063Y-95158510D01*
X145000000Y-96066447D01*
X145000001Y-96066447D01*
X145907936Y-95158510D01*
X145834602Y-95132850D01*
X145804207Y-95130000D01*
X145174337Y-95130000D01*
X145107298Y-95110315D01*
X145061543Y-95057511D01*
X145051599Y-94988353D01*
X145074192Y-94932878D01*
X145177450Y-94791460D01*
X145196835Y-94776584D01*
X145213321Y-94758540D01*
X145224063Y-94755690D01*
X145232880Y-94748925D01*
X145257233Y-94746891D01*
X145280855Y-94740625D01*
X145299639Y-94743349D01*
X145302508Y-94743110D01*
X145304207Y-94744012D01*
X145309679Y-94744805D01*
X145424234Y-94775500D01*
X145424237Y-94775500D01*
X145575764Y-94775500D01*
X145575766Y-94775500D01*
X145722135Y-94736281D01*
X145853365Y-94660515D01*
X145960515Y-94553365D01*
X146036281Y-94422135D01*
X146075500Y-94275766D01*
X146075500Y-94124234D01*
X146036281Y-93977865D01*
X145960515Y-93846635D01*
X145853365Y-93739485D01*
X145781213Y-93697828D01*
X145722136Y-93663719D01*
X145636192Y-93640691D01*
X145575766Y-93624500D01*
X145424234Y-93624500D01*
X145424232Y-93624500D01*
X145356592Y-93642624D01*
X145286743Y-93640961D01*
X145228880Y-93601798D01*
X145205620Y-93558112D01*
X145200500Y-93540851D01*
X145200500Y-93526740D01*
X145190573Y-93458607D01*
X145153778Y-93383341D01*
X145150839Y-93373433D01*
X145150769Y-93348419D01*
X145146559Y-93323758D01*
X145150670Y-93312589D01*
X145150646Y-93303564D01*
X145158549Y-93291190D01*
X145166615Y-93269282D01*
X145184515Y-93242495D01*
X145200500Y-93162133D01*
X145200499Y-92957868D01*
X145184515Y-92877505D01*
X145184513Y-92877502D01*
X145179841Y-92866222D01*
X145181285Y-92865623D01*
X145164563Y-92812211D01*
X145180517Y-92754056D01*
X145179842Y-92753777D01*
X145182070Y-92748396D01*
X145183049Y-92744831D01*
X145184452Y-92742647D01*
X145184516Y-92742493D01*
X145200499Y-92662136D01*
X145200500Y-92662133D01*
X145200499Y-92457868D01*
X145184515Y-92377505D01*
X145184513Y-92377502D01*
X145179841Y-92366222D01*
X145181285Y-92365623D01*
X145164563Y-92312211D01*
X145180517Y-92254056D01*
X145179842Y-92253777D01*
X145182070Y-92248396D01*
X145183049Y-92244831D01*
X145184452Y-92242647D01*
X145184516Y-92242493D01*
X145198162Y-92173886D01*
X145200500Y-92162133D01*
X145200499Y-91957868D01*
X145190038Y-91905273D01*
X145196267Y-91835684D01*
X145223974Y-91793406D01*
X145272870Y-91744511D01*
X145540460Y-91476921D01*
X145555737Y-91450460D01*
X145580021Y-91408399D01*
X145600500Y-91331972D01*
X145600500Y-90788028D01*
X145580021Y-90711601D01*
X145579893Y-90711379D01*
X145540464Y-90643085D01*
X145540458Y-90643077D01*
X145484511Y-90587130D01*
X145223976Y-90326594D01*
X145190491Y-90265271D01*
X145190040Y-90214722D01*
X145200499Y-90162136D01*
X145200500Y-90162133D01*
X145200499Y-89957868D01*
X145184515Y-89877505D01*
X145184513Y-89877502D01*
X145179841Y-89866222D01*
X145181285Y-89865623D01*
X145164563Y-89812211D01*
X145180517Y-89754056D01*
X145179842Y-89753777D01*
X145182070Y-89748396D01*
X145183049Y-89744831D01*
X145184452Y-89742647D01*
X145184516Y-89742493D01*
X145200499Y-89662136D01*
X145200500Y-89662133D01*
X145200499Y-89457868D01*
X145184515Y-89377505D01*
X145166617Y-89350720D01*
X145145740Y-89284044D01*
X145150840Y-89246568D01*
X145153781Y-89236652D01*
X145190573Y-89161393D01*
X145200500Y-89093260D01*
X145200500Y-89079149D01*
X145205620Y-89061888D01*
X145215209Y-89047057D01*
X145220185Y-89030111D01*
X145233784Y-89018326D01*
X145243556Y-89003214D01*
X145259642Y-88995921D01*
X145272989Y-88984356D01*
X145290800Y-88981794D01*
X145307191Y-88974364D01*
X145324665Y-88976925D01*
X145342147Y-88974412D01*
X145356576Y-88977371D01*
X145424234Y-88995500D01*
X145424237Y-88995500D01*
X145575764Y-88995500D01*
X145575766Y-88995500D01*
X145722135Y-88956281D01*
X145853365Y-88880515D01*
X145960515Y-88773365D01*
X146036281Y-88642135D01*
X146075500Y-88495766D01*
X146075500Y-88344234D01*
X146036281Y-88197865D01*
X145960515Y-88066635D01*
X145853365Y-87959485D01*
X145787750Y-87921602D01*
X145722136Y-87883719D01*
X145621103Y-87856648D01*
X145575766Y-87844500D01*
X145424234Y-87844500D01*
X145309688Y-87875192D01*
X145239838Y-87873529D01*
X145181976Y-87834366D01*
X145177450Y-87828539D01*
X145074192Y-87687121D01*
X145065493Y-87662924D01*
X145053171Y-87640357D01*
X145053869Y-87630588D01*
X145050556Y-87621371D01*
X145056320Y-87596313D01*
X145058155Y-87570665D01*
X145064025Y-87562823D01*
X145066221Y-87553280D01*
X145084617Y-87535316D01*
X145100027Y-87514732D01*
X145109202Y-87511309D01*
X145116211Y-87504466D01*
X145141402Y-87499299D01*
X145165491Y-87490315D01*
X145174337Y-87489999D01*
X145804196Y-87489999D01*
X145834608Y-87487148D01*
X145907935Y-87461488D01*
X145000000Y-86553553D01*
X144179086Y-87374463D01*
X144114533Y-87469351D01*
X144151869Y-87482416D01*
X144179540Y-87490559D01*
X144205356Y-87507171D01*
X144232290Y-87521907D01*
X144234468Y-87525905D01*
X144238296Y-87528368D01*
X144251030Y-87556294D01*
X144265724Y-87583258D01*
X144265395Y-87587799D01*
X144267284Y-87591941D01*
X144266427Y-87597875D01*
X144566872Y-87898319D01*
X144600357Y-87959642D01*
X144595373Y-88029333D01*
X144553502Y-88085267D01*
X144488037Y-88109684D01*
X144479191Y-88110000D01*
X144122809Y-88110000D01*
X144055770Y-88090315D01*
X144035128Y-88073681D01*
X143757500Y-87796053D01*
X143757499Y-87796053D01*
X143755528Y-87798024D01*
X143726233Y-87814020D01*
X143697360Y-87830779D01*
X143695520Y-87830790D01*
X143694205Y-87831509D01*
X143685109Y-87830858D01*
X143673510Y-87830933D01*
X143659913Y-87858748D01*
X143659911Y-87858755D01*
X143655516Y-87888918D01*
X143626371Y-87952418D01*
X143567521Y-87990081D01*
X143497652Y-87989949D01*
X143481519Y-87983023D01*
X143481400Y-87983313D01*
X143473890Y-87980202D01*
X143359238Y-87949481D01*
X143299578Y-87913115D01*
X143269049Y-87850268D01*
X143277344Y-87780893D01*
X143303648Y-87742028D01*
X143488192Y-87557485D01*
X143517474Y-87541495D01*
X143546361Y-87524729D01*
X143548040Y-87524805D01*
X143549515Y-87524000D01*
X143575873Y-87521166D01*
X143609346Y-87521166D01*
X143609349Y-87521166D01*
X143723926Y-87490465D01*
X143826653Y-87431155D01*
X143910529Y-87347279D01*
X143969839Y-87244552D01*
X144000540Y-87129975D01*
X144000540Y-87011357D01*
X143984104Y-86950017D01*
X143985767Y-86880173D01*
X144016198Y-86830247D01*
X144912318Y-85934127D01*
X144973641Y-85900642D01*
X145043333Y-85905626D01*
X145087680Y-85934127D01*
X146199998Y-87046446D01*
X146199999Y-87046445D01*
X146199999Y-85305803D01*
X146197148Y-85275393D01*
X146158679Y-85165454D01*
X146155118Y-85095675D01*
X146189847Y-85035048D01*
X146251840Y-85002821D01*
X146275721Y-85000500D01*
X147654279Y-85000500D01*
X147721318Y-85020185D01*
X147767073Y-85072989D01*
X147777017Y-85142147D01*
X147771321Y-85165455D01*
X147732850Y-85275398D01*
X147732850Y-85275399D01*
X147730000Y-85305793D01*
X147730000Y-87046446D01*
X148718319Y-86058127D01*
X148779642Y-86024642D01*
X148849334Y-86029626D01*
X148905267Y-86071498D01*
X148929684Y-86136962D01*
X148930000Y-86145808D01*
X148930000Y-86502190D01*
X148910315Y-86569229D01*
X148893681Y-86589871D01*
X148022062Y-87461488D01*
X148022063Y-87461489D01*
X148095392Y-87487148D01*
X148095394Y-87487149D01*
X148125792Y-87489999D01*
X149375500Y-87489999D01*
X149442539Y-87509684D01*
X149488294Y-87562487D01*
X149499500Y-87613999D01*
X149499500Y-88652259D01*
X149479815Y-88719298D01*
X149427011Y-88765053D01*
X149357853Y-88774997D01*
X149343407Y-88772034D01*
X149316328Y-88764778D01*
X149259309Y-88749500D01*
X149140691Y-88749500D01*
X149026114Y-88780201D01*
X149026112Y-88780201D01*
X149026112Y-88780202D01*
X148923387Y-88839511D01*
X148923384Y-88839513D01*
X148839513Y-88923384D01*
X148839511Y-88923387D01*
X148797876Y-88995501D01*
X148780201Y-89026114D01*
X148749500Y-89140691D01*
X148749500Y-89259309D01*
X148780201Y-89373886D01*
X148839511Y-89476613D01*
X148923387Y-89560489D01*
X149026114Y-89619799D01*
X149140691Y-89650500D01*
X149140694Y-89650500D01*
X149259306Y-89650500D01*
X149259309Y-89650500D01*
X149343409Y-89627965D01*
X149413256Y-89629628D01*
X149471118Y-89668790D01*
X149498623Y-89733018D01*
X149499500Y-89747740D01*
X149499500Y-93195685D01*
X149479815Y-93262724D01*
X149427011Y-93308479D01*
X149357853Y-93318423D01*
X149313499Y-93303072D01*
X149292919Y-93291190D01*
X149273886Y-93280201D01*
X149159309Y-93249500D01*
X149040691Y-93249500D01*
X148926114Y-93280201D01*
X148926112Y-93280201D01*
X148926112Y-93280202D01*
X148823387Y-93339511D01*
X148823384Y-93339513D01*
X148739513Y-93423384D01*
X148739511Y-93423387D01*
X148693248Y-93503517D01*
X148680201Y-93526114D01*
X148649500Y-93640691D01*
X148649500Y-93759309D01*
X148680201Y-93873886D01*
X148739511Y-93976613D01*
X148823387Y-94060489D01*
X148926114Y-94119799D01*
X149040691Y-94150500D01*
X149040694Y-94150500D01*
X149159306Y-94150500D01*
X149159309Y-94150500D01*
X149273886Y-94119799D01*
X149313501Y-94096927D01*
X149381397Y-94080454D01*
X149447425Y-94103305D01*
X149490617Y-94158225D01*
X149499500Y-94204314D01*
X149499500Y-95006000D01*
X149479815Y-95073039D01*
X149427011Y-95118794D01*
X149375500Y-95130000D01*
X148125803Y-95130000D01*
X148095392Y-95132852D01*
X148095391Y-95132852D01*
X148022062Y-95158509D01*
X148893681Y-96030128D01*
X148927166Y-96091451D01*
X148930000Y-96117809D01*
X148930000Y-96722190D01*
X148910315Y-96789229D01*
X148893681Y-96809871D01*
X148022062Y-97681488D01*
X148022063Y-97681489D01*
X148095392Y-97707148D01*
X148095394Y-97707149D01*
X148125792Y-97709999D01*
X149375500Y-97709999D01*
X149442539Y-97729684D01*
X149488294Y-97782487D01*
X149499500Y-97833999D01*
X149499500Y-98375500D01*
X149479815Y-98442539D01*
X149427011Y-98488294D01*
X149375500Y-98499500D01*
X125624500Y-98499500D01*
X125557461Y-98479815D01*
X125511706Y-98427011D01*
X125500500Y-98375500D01*
X125500500Y-97983999D01*
X125520185Y-97916960D01*
X125572989Y-97871205D01*
X125624500Y-97859999D01*
X127104196Y-97859999D01*
X127134608Y-97857148D01*
X127207935Y-97831488D01*
X127207936Y-97831488D01*
X129322062Y-97831488D01*
X129322063Y-97831489D01*
X129395392Y-97857148D01*
X129395394Y-97857149D01*
X129425792Y-97859999D01*
X131034196Y-97859999D01*
X131064608Y-97857148D01*
X131137935Y-97831488D01*
X130987935Y-97681488D01*
X144092062Y-97681488D01*
X144092063Y-97681489D01*
X144165392Y-97707148D01*
X144165394Y-97707149D01*
X144195792Y-97709999D01*
X145804196Y-97709999D01*
X145834608Y-97707148D01*
X145907935Y-97681488D01*
X145000000Y-96773553D01*
X144092062Y-97681488D01*
X130987935Y-97681488D01*
X130230000Y-96923553D01*
X129322062Y-97831488D01*
X127207936Y-97831488D01*
X126336319Y-96959871D01*
X126302834Y-96898548D01*
X126300000Y-96872190D01*
X126300000Y-96569999D01*
X126653553Y-96569999D01*
X126653553Y-96570001D01*
X127499998Y-97416446D01*
X129030000Y-97416446D01*
X129876447Y-96570000D01*
X129876447Y-96569999D01*
X130583553Y-96569999D01*
X130583553Y-96570001D01*
X131429998Y-97416446D01*
X131429999Y-97416445D01*
X131429999Y-97369702D01*
X137550000Y-97369702D01*
X137561602Y-97428033D01*
X137561603Y-97428034D01*
X137605808Y-97494191D01*
X137671965Y-97538396D01*
X137671966Y-97538397D01*
X137730297Y-97549999D01*
X137730301Y-97550000D01*
X137750000Y-97550000D01*
X138250000Y-97550000D01*
X138269699Y-97550000D01*
X138269702Y-97549999D01*
X138328033Y-97538397D01*
X138328034Y-97538396D01*
X138394191Y-97494191D01*
X138438396Y-97428034D01*
X138438397Y-97428033D01*
X138449999Y-97369702D01*
X138450000Y-97369699D01*
X138450000Y-97350000D01*
X138250000Y-97350000D01*
X138250000Y-97550000D01*
X137750000Y-97550000D01*
X137750000Y-97350000D01*
X137550000Y-97350000D01*
X137550000Y-97369702D01*
X131429999Y-97369702D01*
X131429999Y-95723553D01*
X131429998Y-95723552D01*
X130583553Y-96569999D01*
X129876447Y-96569999D01*
X129030000Y-95723552D01*
X129030000Y-97416446D01*
X127499998Y-97416446D01*
X127499999Y-97416445D01*
X127499999Y-95723553D01*
X127499998Y-95723552D01*
X126653553Y-96569999D01*
X126300000Y-96569999D01*
X126300000Y-96267808D01*
X126319685Y-96200769D01*
X126336319Y-96180127D01*
X127207936Y-95308510D01*
X127134602Y-95282850D01*
X127104207Y-95280000D01*
X125624500Y-95280000D01*
X125557461Y-95260315D01*
X125511706Y-95207511D01*
X125500500Y-95156000D01*
X125500500Y-91940691D01*
X126449500Y-91940691D01*
X126449500Y-92059309D01*
X126480201Y-92173886D01*
X126539511Y-92276613D01*
X126623387Y-92360489D01*
X126726114Y-92419799D01*
X126840691Y-92450500D01*
X126840694Y-92450500D01*
X126959306Y-92450500D01*
X126959309Y-92450500D01*
X127073886Y-92419799D01*
X127176613Y-92360489D01*
X127260489Y-92276613D01*
X127292613Y-92220972D01*
X127343180Y-92172757D01*
X127411787Y-92159535D01*
X127476652Y-92185503D01*
X127507386Y-92220972D01*
X127539511Y-92276613D01*
X127623387Y-92360489D01*
X127726114Y-92419799D01*
X127840691Y-92450500D01*
X127840694Y-92450500D01*
X127959306Y-92450500D01*
X127959309Y-92450500D01*
X128073886Y-92419799D01*
X128176613Y-92360489D01*
X128260489Y-92276613D01*
X128319799Y-92173886D01*
X128350500Y-92059309D01*
X128350500Y-91940691D01*
X128319799Y-91826114D01*
X128260489Y-91723387D01*
X128176613Y-91639511D01*
X128073886Y-91580201D01*
X127959309Y-91549500D01*
X127840691Y-91549500D01*
X127726114Y-91580201D01*
X127726112Y-91580201D01*
X127726112Y-91580202D01*
X127623387Y-91639511D01*
X127623384Y-91639513D01*
X127539513Y-91723384D01*
X127539511Y-91723387D01*
X127507387Y-91779027D01*
X127456819Y-91827242D01*
X127388212Y-91840464D01*
X127323347Y-91814496D01*
X127292613Y-91779027D01*
X127285935Y-91767461D01*
X127260489Y-91723387D01*
X127176613Y-91639511D01*
X127073886Y-91580201D01*
X126959309Y-91549500D01*
X126840691Y-91549500D01*
X126726114Y-91580201D01*
X126726112Y-91580201D01*
X126726112Y-91580202D01*
X126623387Y-91639511D01*
X126623384Y-91639513D01*
X126539513Y-91723384D01*
X126539511Y-91723387D01*
X126508780Y-91776615D01*
X126480201Y-91826114D01*
X126449500Y-91940691D01*
X125500500Y-91940691D01*
X125500500Y-87763999D01*
X125520185Y-87696960D01*
X125572989Y-87651205D01*
X125624500Y-87639999D01*
X127104196Y-87639999D01*
X127134608Y-87637148D01*
X127207935Y-87611488D01*
X127207936Y-87611488D01*
X126336319Y-86739871D01*
X126302834Y-86678548D01*
X126300000Y-86652190D01*
X126300000Y-86295809D01*
X126319685Y-86228770D01*
X126372489Y-86183015D01*
X126441647Y-86173071D01*
X126505203Y-86202096D01*
X126511681Y-86208128D01*
X127509891Y-87206339D01*
X127533739Y-87203776D01*
X127573724Y-87218420D01*
X127576108Y-87219796D01*
X127576109Y-87219797D01*
X127576111Y-87219797D01*
X127576114Y-87219799D01*
X127690691Y-87250500D01*
X127690694Y-87250500D01*
X127809306Y-87250500D01*
X127809309Y-87250500D01*
X127923886Y-87219799D01*
X128026613Y-87160489D01*
X128110489Y-87076613D01*
X128157613Y-86994991D01*
X128208181Y-86946777D01*
X128276788Y-86933555D01*
X128341652Y-86959523D01*
X128372385Y-86994990D01*
X128419511Y-87076613D01*
X128503387Y-87160489D01*
X128606114Y-87219799D01*
X128720691Y-87250500D01*
X128720694Y-87250500D01*
X128839307Y-87250500D01*
X128839309Y-87250500D01*
X128953886Y-87219799D01*
X128956270Y-87218422D01*
X128958538Y-87217871D01*
X128961394Y-87216689D01*
X128961578Y-87217134D01*
X129024166Y-87201946D01*
X129024438Y-87202007D01*
X129876448Y-86349999D01*
X130583553Y-86349999D01*
X130583553Y-86350001D01*
X131429998Y-87196446D01*
X131429999Y-87196445D01*
X131429999Y-86604125D01*
X132140359Y-86604125D01*
X132140359Y-86722743D01*
X132171060Y-86837320D01*
X132205390Y-86896780D01*
X132230372Y-86940050D01*
X132235059Y-86946158D01*
X132260253Y-87011327D01*
X132246214Y-87079772D01*
X132244070Y-87083644D01*
X132182985Y-87189445D01*
X132182984Y-87189449D01*
X132152283Y-87304026D01*
X132152283Y-87422644D01*
X132182984Y-87537221D01*
X132242294Y-87639948D01*
X132326170Y-87723824D01*
X132428897Y-87783134D01*
X132543474Y-87813835D01*
X132543477Y-87813835D01*
X132662089Y-87813835D01*
X132662092Y-87813835D01*
X132776669Y-87783134D01*
X132879396Y-87723824D01*
X132963272Y-87639948D01*
X133022582Y-87537221D01*
X133053283Y-87422644D01*
X133053283Y-87304026D01*
X133022582Y-87189449D01*
X132963272Y-87086722D01*
X132963270Y-87086720D01*
X132963269Y-87086718D01*
X132958583Y-87080611D01*
X132933388Y-87015442D01*
X132947426Y-86946997D01*
X132949572Y-86943123D01*
X132985389Y-86881086D01*
X133010658Y-86837320D01*
X133041359Y-86722743D01*
X133041359Y-86669702D01*
X133450000Y-86669702D01*
X133461602Y-86728033D01*
X133461603Y-86728034D01*
X133505808Y-86794191D01*
X133571965Y-86838396D01*
X133571966Y-86838397D01*
X133630297Y-86849999D01*
X133630301Y-86850000D01*
X133650000Y-86850000D01*
X133650000Y-86650000D01*
X133450000Y-86650000D01*
X133450000Y-86669702D01*
X133041359Y-86669702D01*
X133041359Y-86604125D01*
X133010658Y-86489548D01*
X132951348Y-86386821D01*
X132867472Y-86302945D01*
X132764745Y-86243635D01*
X132650168Y-86212934D01*
X132531550Y-86212934D01*
X132416973Y-86243635D01*
X132416971Y-86243635D01*
X132416971Y-86243636D01*
X132314246Y-86302945D01*
X132314243Y-86302947D01*
X132230372Y-86386818D01*
X132230370Y-86386821D01*
X132171095Y-86489488D01*
X132171060Y-86489548D01*
X132140359Y-86604125D01*
X131429999Y-86604125D01*
X131429999Y-85503553D01*
X131429998Y-85503552D01*
X130583553Y-86349999D01*
X129876448Y-86349999D01*
X130015490Y-86210957D01*
X130230000Y-85996447D01*
X131186396Y-85040050D01*
X131187162Y-85040816D01*
X131198034Y-85025986D01*
X131263249Y-85000911D01*
X131273340Y-85000500D01*
X132711045Y-85000500D01*
X132778084Y-85020185D01*
G37*
%TD.AperFunction*%
%TA.AperFunction,Conductor*%
G36*
X134197426Y-91378417D02*
G01*
X134240617Y-91433338D01*
X134249500Y-91479425D01*
X134249500Y-91869752D01*
X134261131Y-91928229D01*
X134261132Y-91928230D01*
X134305447Y-91994552D01*
X134371769Y-92038867D01*
X134371770Y-92038868D01*
X134430247Y-92050499D01*
X134430250Y-92050500D01*
X134430252Y-92050500D01*
X134969750Y-92050500D01*
X134969751Y-92050499D01*
X134984568Y-92047552D01*
X135028229Y-92038868D01*
X135028229Y-92038867D01*
X135028231Y-92038867D01*
X135094552Y-91994552D01*
X135122398Y-91952877D01*
X135176010Y-91908073D01*
X135245335Y-91899366D01*
X135308362Y-91929520D01*
X135345082Y-91988963D01*
X135349500Y-92021769D01*
X135349500Y-92263260D01*
X135359426Y-92331391D01*
X135410803Y-92436485D01*
X135493514Y-92519196D01*
X135493515Y-92519196D01*
X135493517Y-92519198D01*
X135598607Y-92570573D01*
X135632673Y-92575536D01*
X135666739Y-92580500D01*
X135666740Y-92580500D01*
X137383261Y-92580500D01*
X137405971Y-92577191D01*
X137451393Y-92570573D01*
X137556483Y-92519198D01*
X137639198Y-92436483D01*
X137639198Y-92436481D01*
X137645168Y-92428122D01*
X137647711Y-92429938D01*
X137683407Y-92390867D01*
X137750940Y-92372950D01*
X137817439Y-92394389D01*
X137861792Y-92448376D01*
X137871683Y-92496907D01*
X137871683Y-92934229D01*
X137851998Y-93001268D01*
X137799194Y-93047023D01*
X137730036Y-93056967D01*
X137666480Y-93027942D01*
X137645981Y-93001297D01*
X137644756Y-93002172D01*
X137638785Y-92993809D01*
X137556188Y-92911212D01*
X137451251Y-92859912D01*
X137451248Y-92859911D01*
X137383220Y-92850000D01*
X136775000Y-92850000D01*
X136775000Y-93849999D01*
X137383218Y-93849999D01*
X137451249Y-93840087D01*
X137556191Y-93788784D01*
X137638785Y-93706190D01*
X137644756Y-93697828D01*
X137647083Y-93699489D01*
X137683405Y-93659731D01*
X137750938Y-93641813D01*
X137817438Y-93663250D01*
X137861791Y-93717237D01*
X137871683Y-93765770D01*
X137871683Y-94400500D01*
X137851998Y-94467539D01*
X137799194Y-94513294D01*
X137747683Y-94524500D01*
X137094503Y-94524500D01*
X137094494Y-94524501D01*
X137070419Y-94527293D01*
X137070415Y-94527294D01*
X136971926Y-94570781D01*
X136971921Y-94570785D01*
X136895785Y-94646920D01*
X136895782Y-94646925D01*
X136879588Y-94683599D01*
X136875823Y-94689094D01*
X136874988Y-94692936D01*
X136853836Y-94721191D01*
X136761346Y-94813681D01*
X136700025Y-94847166D01*
X136673666Y-94850000D01*
X136450000Y-94850000D01*
X136450000Y-95073664D01*
X136441356Y-95103100D01*
X136434833Y-95133090D01*
X136431077Y-95138107D01*
X136430315Y-95140703D01*
X136413682Y-95161345D01*
X136261848Y-95313181D01*
X136200525Y-95346666D01*
X136174166Y-95349500D01*
X135930247Y-95349500D01*
X135871770Y-95361131D01*
X135871769Y-95361132D01*
X135805446Y-95405448D01*
X135779425Y-95444392D01*
X135773334Y-95449481D01*
X135770037Y-95456703D01*
X135746906Y-95471567D01*
X135725813Y-95489196D01*
X135716439Y-95491147D01*
X135711259Y-95494477D01*
X135676324Y-95499500D01*
X135674500Y-95499500D01*
X135607461Y-95479815D01*
X135561706Y-95427011D01*
X135550500Y-95375501D01*
X135550499Y-95261601D01*
X135547812Y-95248090D01*
X135535240Y-95184883D01*
X135535239Y-95184881D01*
X135535238Y-95184879D01*
X135495372Y-95125216D01*
X135492215Y-95115136D01*
X135485350Y-95107109D01*
X135481955Y-95082367D01*
X135474494Y-95058539D01*
X135477036Y-95046521D01*
X135475852Y-95037888D01*
X135483473Y-95016094D01*
X135486014Y-95004088D01*
X135488331Y-94999098D01*
X135517322Y-94948886D01*
X135525047Y-94920052D01*
X135529577Y-94910302D01*
X135545813Y-94891805D01*
X135558625Y-94870787D01*
X135568458Y-94866009D01*
X135569576Y-94864736D01*
X135714945Y-94864736D01*
X135725745Y-94877363D01*
X135744726Y-94893034D01*
X135750055Y-94905785D01*
X135755161Y-94911755D01*
X135755904Y-94917174D01*
X135756929Y-94916750D01*
X135761603Y-94928034D01*
X135805808Y-94994191D01*
X135871965Y-95038396D01*
X135871966Y-95038397D01*
X135930297Y-95049999D01*
X135930301Y-95050000D01*
X135950000Y-95050000D01*
X135950000Y-94850000D01*
X135741933Y-94850000D01*
X135714945Y-94864736D01*
X135569576Y-94864736D01*
X135575671Y-94857794D01*
X135599328Y-94851012D01*
X135602727Y-94849361D01*
X135572756Y-94826925D01*
X135548339Y-94761461D01*
X135548023Y-94752615D01*
X135548023Y-94715693D01*
X135548023Y-94715691D01*
X135517322Y-94601114D01*
X135458012Y-94498387D01*
X135434342Y-94474717D01*
X135419638Y-94447789D01*
X135403046Y-94421971D01*
X135402154Y-94415770D01*
X135400857Y-94413394D01*
X135398023Y-94387036D01*
X135398023Y-94330297D01*
X135750000Y-94330297D01*
X135750000Y-94350000D01*
X135950000Y-94350000D01*
X136450000Y-94350000D01*
X136650000Y-94350000D01*
X136650000Y-94330301D01*
X136649999Y-94330297D01*
X136638397Y-94271966D01*
X136638396Y-94271965D01*
X136594191Y-94205808D01*
X136528034Y-94161603D01*
X136528033Y-94161602D01*
X136469702Y-94150000D01*
X136450000Y-94150000D01*
X136450000Y-94350000D01*
X135950000Y-94350000D01*
X135950000Y-94150000D01*
X135930297Y-94150000D01*
X135871966Y-94161602D01*
X135871965Y-94161603D01*
X135805808Y-94205808D01*
X135761603Y-94271965D01*
X135761602Y-94271966D01*
X135750000Y-94330297D01*
X135398023Y-94330297D01*
X135398023Y-94033368D01*
X135398022Y-94033364D01*
X135397392Y-94031012D01*
X135378678Y-93961172D01*
X135380339Y-93891324D01*
X135419501Y-93833461D01*
X135483729Y-93805956D01*
X135552631Y-93817542D01*
X135552913Y-93817679D01*
X135598751Y-93840088D01*
X135666780Y-93849999D01*
X136274999Y-93849999D01*
X136275000Y-93849998D01*
X136275000Y-93600000D01*
X135359730Y-93600000D01*
X135357400Y-93602693D01*
X135348930Y-93662410D01*
X135303275Y-93715301D01*
X135236273Y-93735112D01*
X135169197Y-93715554D01*
X135148358Y-93698793D01*
X134851888Y-93402322D01*
X134848728Y-93400498D01*
X134848727Y-93400497D01*
X134783367Y-93362761D01*
X134783368Y-93362761D01*
X134748869Y-93353517D01*
X134706937Y-93342281D01*
X134706935Y-93342281D01*
X133974000Y-93342281D01*
X133906961Y-93322596D01*
X133875020Y-93292974D01*
X133842591Y-93250000D01*
X132176333Y-93250000D01*
X132109294Y-93230315D01*
X132088652Y-93213681D01*
X131974970Y-93099999D01*
X135359729Y-93099999D01*
X135359730Y-93100000D01*
X136275000Y-93100000D01*
X136275000Y-92850000D01*
X135666782Y-92850000D01*
X135598750Y-92859912D01*
X135493808Y-92911215D01*
X135411212Y-92993811D01*
X135359911Y-93098750D01*
X135359729Y-93099999D01*
X131974970Y-93099999D01*
X131844512Y-92969541D01*
X131844511Y-92969540D01*
X131824294Y-92957868D01*
X131824294Y-92957867D01*
X131824291Y-92957866D01*
X131775994Y-92929981D01*
X131775991Y-92929979D01*
X131699559Y-92909499D01*
X131691503Y-92908439D01*
X131691852Y-92905786D01*
X131637461Y-92889815D01*
X131591706Y-92837011D01*
X131580500Y-92785500D01*
X131580500Y-92730297D01*
X132150000Y-92730297D01*
X132150000Y-92750000D01*
X132350000Y-92750000D01*
X132850000Y-92750000D01*
X133150000Y-92750000D01*
X133650000Y-92750000D01*
X133850000Y-92750000D01*
X133850000Y-92730301D01*
X133849999Y-92730297D01*
X133838397Y-92671966D01*
X133838396Y-92671965D01*
X133794191Y-92605808D01*
X133728034Y-92561603D01*
X133728033Y-92561602D01*
X133669702Y-92550000D01*
X133650000Y-92550000D01*
X133650000Y-92750000D01*
X133150000Y-92750000D01*
X133150000Y-92550000D01*
X133130297Y-92550000D01*
X133071966Y-92561602D01*
X133071964Y-92561603D01*
X133068887Y-92563660D01*
X133061163Y-92566078D01*
X133060683Y-92566277D01*
X133060665Y-92566234D01*
X133002209Y-92584535D01*
X132934829Y-92566048D01*
X132931113Y-92563660D01*
X132928035Y-92561603D01*
X132928033Y-92561602D01*
X132869702Y-92550000D01*
X132850000Y-92550000D01*
X132850000Y-92750000D01*
X132350000Y-92750000D01*
X132350000Y-92550000D01*
X132330297Y-92550000D01*
X132271966Y-92561602D01*
X132271965Y-92561603D01*
X132205808Y-92605808D01*
X132161603Y-92671965D01*
X132161602Y-92671966D01*
X132150000Y-92730297D01*
X131580500Y-92730297D01*
X131580500Y-92724210D01*
X131580499Y-92607871D01*
X131580499Y-92607868D01*
X131579434Y-92602515D01*
X131585657Y-92532927D01*
X131628517Y-92477747D01*
X131639052Y-92470932D01*
X131661676Y-92457870D01*
X131674511Y-92450460D01*
X131730460Y-92394511D01*
X131788152Y-92336819D01*
X131849475Y-92303334D01*
X131875833Y-92300500D01*
X132566936Y-92300500D01*
X132566938Y-92300500D01*
X132643365Y-92280021D01*
X132711887Y-92240460D01*
X132767836Y-92184511D01*
X132965528Y-91986819D01*
X133026851Y-91953334D01*
X133053209Y-91950500D01*
X133104197Y-91950500D01*
X133104200Y-91950500D01*
X133218777Y-91919799D01*
X133321504Y-91860489D01*
X133405380Y-91776613D01*
X133464690Y-91673886D01*
X133495391Y-91559309D01*
X133495391Y-91554202D01*
X133515076Y-91487163D01*
X133567880Y-91441408D01*
X133637038Y-91431464D01*
X133651473Y-91434425D01*
X133736133Y-91457110D01*
X133736135Y-91457110D01*
X133854748Y-91457110D01*
X133854751Y-91457110D01*
X133969328Y-91426409D01*
X134063501Y-91372037D01*
X134131399Y-91355565D01*
X134197426Y-91378417D01*
G37*
%TD.AperFunction*%
%TD*%
%TA.AperFunction,NonConductor*%
G36*
X134292539Y-85020185D02*
G01*
X134338294Y-85072989D01*
X134349500Y-85124500D01*
X134349500Y-85669752D01*
X134361131Y-85728229D01*
X134361132Y-85728230D01*
X134403854Y-85792167D01*
X134424732Y-85858844D01*
X134406248Y-85926224D01*
X134354269Y-85972915D01*
X134285299Y-85984091D01*
X134276800Y-85982723D01*
X134098721Y-85947665D01*
X134078019Y-85936888D01*
X134055634Y-85930315D01*
X134047614Y-85921059D01*
X134036746Y-85915402D01*
X134025156Y-85895142D01*
X134009879Y-85877511D01*
X134008135Y-85865387D01*
X134002053Y-85854754D01*
X134003256Y-85831449D01*
X133999935Y-85808353D01*
X134005150Y-85794741D01*
X134005655Y-85784977D01*
X134012596Y-85775310D01*
X134019572Y-85757108D01*
X134038867Y-85728231D01*
X134038868Y-85728229D01*
X134048498Y-85679814D01*
X134050500Y-85669748D01*
X134050500Y-85130252D01*
X134050500Y-85124500D01*
X134053050Y-85115814D01*
X134051762Y-85106853D01*
X134062740Y-85082812D01*
X134070185Y-85057461D01*
X134077025Y-85051533D01*
X134080787Y-85043297D01*
X134103021Y-85029007D01*
X134122989Y-85011706D01*
X134133503Y-85009418D01*
X134139565Y-85005523D01*
X134174500Y-85000500D01*
X134225500Y-85000500D01*
X134292539Y-85020185D01*
G37*
%TD.AperFunction*%
%TA.AperFunction,NonConductor*%
G36*
X135455703Y-86131831D02*
G01*
X135462181Y-86137863D01*
X135493514Y-86169196D01*
X135493515Y-86169196D01*
X135493517Y-86169198D01*
X135598607Y-86220573D01*
X135632673Y-86225536D01*
X135666739Y-86230500D01*
X135666740Y-86230500D01*
X135958235Y-86230500D01*
X135984951Y-86238344D01*
X136012416Y-86242963D01*
X136018015Y-86248053D01*
X136025274Y-86250185D01*
X136043506Y-86271226D01*
X136064116Y-86289962D01*
X136068391Y-86299944D01*
X136071029Y-86302989D01*
X136078007Y-86322398D01*
X136083636Y-86343408D01*
X136081974Y-86413256D01*
X136042812Y-86471119D01*
X135978584Y-86498623D01*
X135963862Y-86499500D01*
X135666739Y-86499500D01*
X135598608Y-86509426D01*
X135493514Y-86560803D01*
X135462181Y-86592137D01*
X135400858Y-86625622D01*
X135331166Y-86620638D01*
X135275233Y-86578766D01*
X135250816Y-86513302D01*
X135250500Y-86504456D01*
X135250500Y-86225544D01*
X135270185Y-86158505D01*
X135322989Y-86112750D01*
X135392147Y-86102806D01*
X135455703Y-86131831D01*
G37*
%TD.AperFunction*%
%TA.AperFunction,NonConductor*%
G36*
X128482042Y-85644354D02*
G01*
X128526114Y-85669799D01*
X128640691Y-85700500D01*
X128640694Y-85700500D01*
X128759306Y-85700500D01*
X128759309Y-85700500D01*
X128873886Y-85669799D01*
X128873888Y-85669797D01*
X128873906Y-85669793D01*
X128943756Y-85671456D01*
X129001619Y-85710618D01*
X129029123Y-85774847D01*
X129030000Y-85789568D01*
X129030000Y-86238995D01*
X129010315Y-86306034D01*
X128957511Y-86351789D01*
X128888353Y-86361733D01*
X128873909Y-86358770D01*
X128839313Y-86349500D01*
X128839309Y-86349500D01*
X128720691Y-86349500D01*
X128606114Y-86380201D01*
X128606112Y-86380201D01*
X128606112Y-86380202D01*
X128503387Y-86439511D01*
X128503384Y-86439513D01*
X128419513Y-86523384D01*
X128419507Y-86523393D01*
X128372386Y-86605007D01*
X128367993Y-86609195D01*
X128366008Y-86614932D01*
X128342999Y-86633026D01*
X128321819Y-86653222D01*
X128315859Y-86654370D01*
X128311088Y-86658123D01*
X128281950Y-86660905D01*
X128253212Y-86666444D01*
X128247576Y-86664188D01*
X128241535Y-86664765D01*
X128215522Y-86651355D01*
X128188347Y-86640476D01*
X128183446Y-86634819D01*
X128179431Y-86632750D01*
X128157614Y-86605007D01*
X128118484Y-86537234D01*
X128102010Y-86469335D01*
X128124862Y-86403307D01*
X128163871Y-86367846D01*
X128168280Y-86365300D01*
X128176613Y-86360489D01*
X128260489Y-86276613D01*
X128319799Y-86173886D01*
X128350500Y-86059309D01*
X128350500Y-85940691D01*
X128319799Y-85826114D01*
X128319797Y-85826110D01*
X128312656Y-85813741D01*
X128296183Y-85745841D01*
X128319035Y-85679814D01*
X128373957Y-85636623D01*
X128443510Y-85629982D01*
X128482042Y-85644354D01*
G37*
%TD.AperFunction*%
%TA.AperFunction,NonConductor*%
G36*
X134383688Y-90842755D02*
G01*
X134387589Y-90842195D01*
X134394134Y-90843316D01*
X134430249Y-90850500D01*
X134430252Y-90850500D01*
X134674167Y-90850500D01*
X134741206Y-90870185D01*
X134761848Y-90886819D01*
X134812848Y-90937819D01*
X134846333Y-90999142D01*
X134841349Y-91068834D01*
X134799477Y-91124767D01*
X134734013Y-91149184D01*
X134725167Y-91149500D01*
X134430251Y-91149500D01*
X134394131Y-91156684D01*
X134324539Y-91150455D01*
X134269363Y-91107591D01*
X134246120Y-91041701D01*
X134245942Y-91035066D01*
X134245942Y-90964933D01*
X134251877Y-90944720D01*
X134253005Y-90923680D01*
X134261524Y-90911865D01*
X134265627Y-90897894D01*
X134281547Y-90884098D01*
X134293872Y-90867008D01*
X134307425Y-90861675D01*
X134318431Y-90852139D01*
X134339282Y-90849140D01*
X134358890Y-90841426D01*
X134383688Y-90842755D01*
G37*
%TD.AperFunction*%
M02*
