%TF.GenerationSoftware,KiCad,Pcbnew,10.0.2*%
%TF.CreationDate,2026-05-11T20:56:31+09:00*%
%TF.ProjectId,ammeter,616d6d65-7465-4722-9e6b-696361645f70,rev?*%
%TF.SameCoordinates,Original*%
%TF.FileFunction,Copper,L2,Inr*%
%TF.FilePolarity,Positive*%
%FSLAX46Y46*%
G04 Gerber Fmt 4.6, Leading zero omitted, Abs format (unit mm)*
G04 Created by KiCad (PCBNEW 10.0.2) date 2026-05-11 20:56:31*
%MOMM*%
%LPD*%
G01*
G04 APERTURE LIST*
%TA.AperFunction,ViaPad*%
%ADD10C,0.500000*%
%TD*%
%TA.AperFunction,Conductor*%
%ADD11C,0.200000*%
%TD*%
G04 APERTURE END LIST*
D10*
%TO.N,GND*%
X127850000Y-87937500D03*
X138000000Y-97100000D03*
X131200000Y-87400000D03*
X148800000Y-98050000D03*
X129300000Y-90798891D03*
X136610000Y-93820000D03*
X130805000Y-94660000D03*
X145000000Y-86200000D03*
X146900000Y-91400000D03*
X137562500Y-95550000D03*
X126300000Y-96570000D03*
X130805000Y-88260000D03*
X134000000Y-95750000D03*
X148930000Y-86200000D03*
X146700000Y-93700000D03*
X139100000Y-90860000D03*
X128300000Y-93245000D03*
X148800000Y-94650000D03*
X134900000Y-93100000D03*
X147400000Y-89200000D03*
X143200000Y-85250000D03*
X129300000Y-89900000D03*
X126390000Y-93820000D03*
X131200000Y-86200000D03*
X130230000Y-96570000D03*
X134000000Y-96450000D03*
X125800000Y-91950000D03*
X127400000Y-90750000D03*
X132801318Y-85995819D03*
X149200000Y-88400000D03*
%TO.N,/ref*%
X144425000Y-93710000D03*
X139800000Y-88800000D03*
X139800000Y-88000000D03*
X143300000Y-88400000D03*
%TO.N,Net-(J1-CC1)*%
X131900000Y-90392197D03*
X143400000Y-92450000D03*
%TO.N,Net-(J1-D+-PadA6)*%
X133044891Y-91500000D03*
X143487486Y-90509965D03*
%TO.N,Net-(J1-D--PadA7)*%
X143378413Y-91302495D03*
X132300000Y-91449558D03*
%TO.N,Net-(J1-CC2)*%
X135097523Y-94775000D03*
X142868480Y-92999999D03*
%TO.N,/SDA*%
X136525000Y-86250000D03*
X141360000Y-95008530D03*
%TO.N,+3V3*%
X127750000Y-86800000D03*
X132444923Y-96349999D03*
X149200000Y-89200000D03*
X126900000Y-92000000D03*
X133272183Y-85249999D03*
X139643503Y-92999999D03*
X138722183Y-94200000D03*
X134900000Y-88700000D03*
X133400000Y-94900000D03*
X127900000Y-92000000D03*
X128780000Y-86800000D03*
X149100000Y-93700000D03*
X141475000Y-93350000D03*
X127900000Y-92000000D03*
X143220000Y-97000000D03*
%TO.N,/sw2*%
X141475000Y-89540000D03*
%TO.N,/sw1*%
X143550040Y-87070666D03*
%TO.N,/Rx3*%
X141475000Y-87000000D03*
%TO.N,/Tx2*%
X141475000Y-85730000D03*
%TO.N,/SCL*%
X140900000Y-94150000D03*
X137125000Y-87000000D03*
%TO.N,/UPDI*%
X136525000Y-88270000D03*
X134800000Y-86400000D03*
%TO.N,/V0*%
X136525000Y-89540000D03*
%TO.N,VBUS*%
X128700000Y-85250000D03*
X138200000Y-88800000D03*
X131640211Y-88851694D03*
X131829999Y-94670000D03*
X138200000Y-88000000D03*
X127900000Y-85250000D03*
X127900000Y-86000000D03*
%TO.N,/Tx*%
X133800702Y-90306627D03*
X132602783Y-87363335D03*
%TO.N,/Rx*%
X132590859Y-86663434D03*
X133795442Y-91006610D03*
%TO.N,Net-(U2--)*%
X140051381Y-91009999D03*
%TO.N,Net-(IC1-DB+)*%
X134800000Y-87600000D03*
%TO.N,Net-(IC1-OEN)*%
X134150509Y-88057145D03*
%TO.N,Net-(J2-CC1)*%
X132682028Y-94192781D03*
%TO.N,Net-(U5-IREF)*%
X140740001Y-95729305D03*
%TD*%
%TO.N,Net-(J1-CC1)*%
D11*
X132450000Y-92450000D02*
X131750000Y-91750000D01*
X131750000Y-90542197D02*
X131900000Y-90392197D01*
X131750000Y-91750000D02*
X131750000Y-90542197D01*
X143400000Y-92450000D02*
X132450000Y-92450000D01*
%TO.N,Net-(J1-D+-PadA6)*%
X141630820Y-90509965D02*
X143487486Y-90509965D01*
X140580786Y-91559999D02*
X141630820Y-90509965D01*
X133197025Y-91559999D02*
X140580786Y-91559999D01*
X133144891Y-91600000D02*
X133157023Y-91600000D01*
X133044891Y-91500000D02*
X133144891Y-91600000D01*
X133157023Y-91600000D02*
X133197025Y-91559999D01*
%TO.N,Net-(J1-D--PadA7)*%
X132300000Y-91449558D02*
X132300000Y-91532927D01*
X133362710Y-91959999D02*
X140746472Y-91959999D01*
X132300000Y-91532927D02*
X132817073Y-92050000D01*
X140746472Y-91959999D02*
X141403976Y-91302495D01*
X133272709Y-92050000D02*
X133362710Y-91959999D01*
X141403976Y-91302495D02*
X143378413Y-91302495D01*
X132817073Y-92050000D02*
X133272709Y-92050000D01*
%TO.N,/UPDI*%
X136525000Y-88270000D02*
X135427593Y-88270000D01*
%TD*%
%TA.AperFunction,Conductor*%
%TO.N,+3V3*%
G36*
X127405901Y-85020185D02*
G01*
X127451656Y-85072989D01*
X127461600Y-85142147D01*
X127458639Y-85156583D01*
X127449500Y-85190691D01*
X127449500Y-85309309D01*
X127480201Y-85423886D01*
X127539511Y-85526613D01*
X127550219Y-85537321D01*
X127583702Y-85598646D01*
X127578715Y-85668337D01*
X127550219Y-85712679D01*
X127539511Y-85723386D01*
X127539511Y-85723387D01*
X127487345Y-85813741D01*
X127480201Y-85826114D01*
X127449500Y-85940691D01*
X127449500Y-86059309D01*
X127480201Y-86173886D01*
X127539511Y-86276613D01*
X127623387Y-86360489D01*
X127726114Y-86419799D01*
X127840691Y-86450500D01*
X127840694Y-86450500D01*
X127959306Y-86450500D01*
X127959309Y-86450500D01*
X128073886Y-86419799D01*
X128176613Y-86360489D01*
X128260489Y-86276613D01*
X128319799Y-86173886D01*
X128328694Y-86140691D01*
X130749500Y-86140691D01*
X130749500Y-86259309D01*
X130780201Y-86373886D01*
X130839511Y-86476613D01*
X130923387Y-86560489D01*
X131026114Y-86619799D01*
X131140691Y-86650500D01*
X131140694Y-86650500D01*
X131259306Y-86650500D01*
X131259309Y-86650500D01*
X131373886Y-86619799D01*
X131401034Y-86604125D01*
X132140359Y-86604125D01*
X132140359Y-86722743D01*
X132171060Y-86837320D01*
X132205390Y-86896780D01*
X132230372Y-86940050D01*
X132235059Y-86946158D01*
X132260253Y-87011327D01*
X132246214Y-87079772D01*
X132244070Y-87083644D01*
X132182985Y-87189445D01*
X132182984Y-87189449D01*
X132152283Y-87304026D01*
X132152283Y-87422644D01*
X132182984Y-87537221D01*
X132242294Y-87639948D01*
X132326170Y-87723824D01*
X132428897Y-87783134D01*
X132543474Y-87813835D01*
X132543477Y-87813835D01*
X132662089Y-87813835D01*
X132662092Y-87813835D01*
X132776669Y-87783134D01*
X132879396Y-87723824D01*
X132963272Y-87639948D01*
X133022582Y-87537221D01*
X133053283Y-87422644D01*
X133053283Y-87304026D01*
X133022582Y-87189449D01*
X132963272Y-87086722D01*
X132963270Y-87086720D01*
X132963269Y-87086718D01*
X132958583Y-87080611D01*
X132933388Y-87015442D01*
X132947426Y-86946997D01*
X132949572Y-86943123D01*
X133010655Y-86837325D01*
X133010656Y-86837324D01*
X133010657Y-86837321D01*
X133010658Y-86837320D01*
X133041359Y-86722743D01*
X133041359Y-86604125D01*
X133013378Y-86499699D01*
X133015041Y-86429852D01*
X133046143Y-86379261D01*
X133057431Y-86368143D01*
X133077931Y-86356308D01*
X133093548Y-86340691D01*
X134349500Y-86340691D01*
X134349500Y-86459309D01*
X134380201Y-86573886D01*
X134439511Y-86676613D01*
X134523387Y-86760489D01*
X134626114Y-86819799D01*
X134740691Y-86850500D01*
X134740694Y-86850500D01*
X134859306Y-86850500D01*
X134859309Y-86850500D01*
X134973886Y-86819799D01*
X135076613Y-86760489D01*
X135160489Y-86676613D01*
X135219799Y-86573886D01*
X135250500Y-86459309D01*
X135250500Y-86340691D01*
X135219799Y-86226114D01*
X135199347Y-86190691D01*
X136074500Y-86190691D01*
X136074500Y-86309309D01*
X136105201Y-86423886D01*
X136164511Y-86526613D01*
X136248387Y-86610489D01*
X136351114Y-86669799D01*
X136465691Y-86700500D01*
X136465694Y-86700500D01*
X136577259Y-86700500D01*
X136644298Y-86720185D01*
X136690053Y-86772989D01*
X136699997Y-86842147D01*
X136697034Y-86856593D01*
X136686266Y-86896780D01*
X136674500Y-86940691D01*
X136674500Y-87059309D01*
X136705201Y-87173886D01*
X136764511Y-87276613D01*
X136848387Y-87360489D01*
X136951114Y-87419799D01*
X137065691Y-87450500D01*
X137065694Y-87450500D01*
X137184306Y-87450500D01*
X137184309Y-87450500D01*
X137298886Y-87419799D01*
X137401613Y-87360489D01*
X137485489Y-87276613D01*
X137544799Y-87173886D01*
X137575500Y-87059309D01*
X137575500Y-86940691D01*
X141024500Y-86940691D01*
X141024500Y-87059309D01*
X141055201Y-87173886D01*
X141114511Y-87276613D01*
X141198387Y-87360489D01*
X141301114Y-87419799D01*
X141415691Y-87450500D01*
X141415694Y-87450500D01*
X141534306Y-87450500D01*
X141534309Y-87450500D01*
X141648886Y-87419799D01*
X141751613Y-87360489D01*
X141835489Y-87276613D01*
X141894799Y-87173886D01*
X141925500Y-87059309D01*
X141925500Y-87011357D01*
X143099540Y-87011357D01*
X143099540Y-87129975D01*
X143130241Y-87244552D01*
X143189551Y-87347279D01*
X143273427Y-87431155D01*
X143376154Y-87490465D01*
X143490731Y-87521166D01*
X143490734Y-87521166D01*
X143609346Y-87521166D01*
X143609349Y-87521166D01*
X143723926Y-87490465D01*
X143826653Y-87431155D01*
X143910529Y-87347279D01*
X143969839Y-87244552D01*
X144000540Y-87129975D01*
X144000540Y-87011357D01*
X143969839Y-86896780D01*
X143910529Y-86794053D01*
X143826653Y-86710177D01*
X143723926Y-86650867D01*
X143609349Y-86620166D01*
X143490731Y-86620166D01*
X143376154Y-86650867D01*
X143376152Y-86650867D01*
X143376152Y-86650868D01*
X143273427Y-86710177D01*
X143273424Y-86710179D01*
X143189553Y-86794050D01*
X143189551Y-86794053D01*
X143164571Y-86837320D01*
X143130241Y-86896780D01*
X143099540Y-87011357D01*
X141925500Y-87011357D01*
X141925500Y-86940691D01*
X141894799Y-86826114D01*
X141835489Y-86723387D01*
X141751613Y-86639511D01*
X141648886Y-86580201D01*
X141534309Y-86549500D01*
X141415691Y-86549500D01*
X141301114Y-86580201D01*
X141301112Y-86580201D01*
X141301112Y-86580202D01*
X141198387Y-86639511D01*
X141198384Y-86639513D01*
X141114513Y-86723384D01*
X141114511Y-86723387D01*
X141073712Y-86794053D01*
X141055201Y-86826114D01*
X141024500Y-86940691D01*
X137575500Y-86940691D01*
X137544799Y-86826114D01*
X137485489Y-86723387D01*
X137401613Y-86639511D01*
X137298886Y-86580201D01*
X137184309Y-86549500D01*
X137072741Y-86549500D01*
X137005702Y-86529815D01*
X136959947Y-86477011D01*
X136950003Y-86407853D01*
X136952966Y-86393407D01*
X136958196Y-86373887D01*
X136975500Y-86309309D01*
X136975500Y-86190691D01*
X136944799Y-86076114D01*
X136885489Y-85973387D01*
X136801613Y-85889511D01*
X136698886Y-85830201D01*
X136584309Y-85799500D01*
X136465691Y-85799500D01*
X136351114Y-85830201D01*
X136351112Y-85830201D01*
X136351112Y-85830202D01*
X136248387Y-85889511D01*
X136248384Y-85889513D01*
X136164513Y-85973384D01*
X136164511Y-85973387D01*
X136105201Y-86076114D01*
X136074500Y-86190691D01*
X135199347Y-86190691D01*
X135160489Y-86123387D01*
X135076613Y-86039511D01*
X134973886Y-85980201D01*
X134859309Y-85949500D01*
X134740691Y-85949500D01*
X134626114Y-85980201D01*
X134626112Y-85980201D01*
X134626112Y-85980202D01*
X134523387Y-86039511D01*
X134523384Y-86039513D01*
X134439513Y-86123384D01*
X134439511Y-86123387D01*
X134400652Y-86190693D01*
X134380201Y-86226114D01*
X134349500Y-86340691D01*
X133093548Y-86340691D01*
X133161807Y-86272432D01*
X133221117Y-86169705D01*
X133251818Y-86055128D01*
X133251818Y-85936510D01*
X133221117Y-85821933D01*
X133221115Y-85821929D01*
X133164901Y-85724564D01*
X133163603Y-85722317D01*
X133161807Y-85719206D01*
X133113292Y-85670691D01*
X141024500Y-85670691D01*
X141024500Y-85789309D01*
X141055201Y-85903886D01*
X141114511Y-86006613D01*
X141198387Y-86090489D01*
X141301114Y-86149799D01*
X141415691Y-86180500D01*
X141415694Y-86180500D01*
X141534306Y-86180500D01*
X141534309Y-86180500D01*
X141648886Y-86149799D01*
X141664661Y-86140691D01*
X144549500Y-86140691D01*
X144549500Y-86259309D01*
X144580201Y-86373886D01*
X144639511Y-86476613D01*
X144723387Y-86560489D01*
X144826114Y-86619799D01*
X144940691Y-86650500D01*
X144940694Y-86650500D01*
X145059306Y-86650500D01*
X145059309Y-86650500D01*
X145173886Y-86619799D01*
X145276613Y-86560489D01*
X145360489Y-86476613D01*
X145419799Y-86373886D01*
X145450500Y-86259309D01*
X145450500Y-86140691D01*
X145419799Y-86026114D01*
X145360489Y-85923387D01*
X145276613Y-85839511D01*
X145173886Y-85780201D01*
X145059309Y-85749500D01*
X144940691Y-85749500D01*
X144826114Y-85780201D01*
X144826112Y-85780201D01*
X144826112Y-85780202D01*
X144723387Y-85839511D01*
X144723384Y-85839513D01*
X144639513Y-85923384D01*
X144639511Y-85923387D01*
X144591461Y-86006612D01*
X144580201Y-86026114D01*
X144549500Y-86140691D01*
X141664661Y-86140691D01*
X141751613Y-86090489D01*
X141835489Y-86006613D01*
X141894799Y-85903886D01*
X141925500Y-85789309D01*
X141925500Y-85670691D01*
X141894799Y-85556114D01*
X141835489Y-85453387D01*
X141751613Y-85369511D01*
X141648886Y-85310201D01*
X141534309Y-85279500D01*
X141415691Y-85279500D01*
X141301114Y-85310201D01*
X141301112Y-85310201D01*
X141301112Y-85310202D01*
X141198387Y-85369511D01*
X141198384Y-85369513D01*
X141114513Y-85453384D01*
X141114511Y-85453387D01*
X141061434Y-85545319D01*
X141055201Y-85556114D01*
X141024500Y-85670691D01*
X133113292Y-85670691D01*
X133077931Y-85635330D01*
X132975204Y-85576020D01*
X132860627Y-85545319D01*
X132742009Y-85545319D01*
X132627432Y-85576020D01*
X132627430Y-85576020D01*
X132627430Y-85576021D01*
X132524705Y-85635330D01*
X132524702Y-85635332D01*
X132440831Y-85719203D01*
X132440829Y-85719206D01*
X132381519Y-85821933D01*
X132350818Y-85936510D01*
X132350818Y-86055128D01*
X132356441Y-86076112D01*
X132378798Y-86159551D01*
X132377135Y-86229401D01*
X132337972Y-86287263D01*
X132321031Y-86299027D01*
X132314249Y-86302942D01*
X132314243Y-86302947D01*
X132230372Y-86386818D01*
X132230370Y-86386821D01*
X132176987Y-86479283D01*
X132171060Y-86489548D01*
X132140359Y-86604125D01*
X131401034Y-86604125D01*
X131476613Y-86560489D01*
X131560489Y-86476613D01*
X131619799Y-86373886D01*
X131650500Y-86259309D01*
X131650500Y-86140691D01*
X131619799Y-86026114D01*
X131560489Y-85923387D01*
X131476613Y-85839511D01*
X131373886Y-85780201D01*
X131259309Y-85749500D01*
X131140691Y-85749500D01*
X131026114Y-85780201D01*
X131026112Y-85780201D01*
X131026112Y-85780202D01*
X130923387Y-85839511D01*
X130923384Y-85839513D01*
X130839513Y-85923384D01*
X130839511Y-85923387D01*
X130791461Y-86006612D01*
X130780201Y-86026114D01*
X130749500Y-86140691D01*
X128328694Y-86140691D01*
X128350500Y-86059309D01*
X128350500Y-85940691D01*
X128319799Y-85826114D01*
X128317383Y-85821929D01*
X128312656Y-85813741D01*
X128296183Y-85745841D01*
X128319035Y-85679814D01*
X128373957Y-85636623D01*
X128443510Y-85629982D01*
X128482042Y-85644354D01*
X128526114Y-85669799D01*
X128640691Y-85700500D01*
X128640694Y-85700500D01*
X128759306Y-85700500D01*
X128759309Y-85700500D01*
X128873886Y-85669799D01*
X128976613Y-85610489D01*
X129060489Y-85526613D01*
X129119799Y-85423886D01*
X129150500Y-85309309D01*
X129150500Y-85190691D01*
X129141363Y-85156591D01*
X129143026Y-85086744D01*
X129182188Y-85028881D01*
X129246417Y-85001377D01*
X129261138Y-85000500D01*
X142638862Y-85000500D01*
X142705901Y-85020185D01*
X142751656Y-85072989D01*
X142761600Y-85142147D01*
X142758639Y-85156583D01*
X142749500Y-85190691D01*
X142749500Y-85309309D01*
X142780201Y-85423886D01*
X142839511Y-85526613D01*
X142923387Y-85610489D01*
X143026114Y-85669799D01*
X143140691Y-85700500D01*
X143140694Y-85700500D01*
X143259306Y-85700500D01*
X143259309Y-85700500D01*
X143373886Y-85669799D01*
X143476613Y-85610489D01*
X143560489Y-85526613D01*
X143619799Y-85423886D01*
X143650500Y-85309309D01*
X143650500Y-85190691D01*
X143641363Y-85156591D01*
X143643026Y-85086744D01*
X143682188Y-85028881D01*
X143746417Y-85001377D01*
X143761138Y-85000500D01*
X149375500Y-85000500D01*
X149442539Y-85020185D01*
X149488294Y-85072989D01*
X149499500Y-85124500D01*
X149499500Y-85833036D01*
X149479815Y-85900075D01*
X149427011Y-85945830D01*
X149357853Y-85955774D01*
X149294297Y-85926749D01*
X149287819Y-85920717D01*
X149206615Y-85839513D01*
X149206613Y-85839511D01*
X149103886Y-85780201D01*
X148989309Y-85749500D01*
X148870691Y-85749500D01*
X148756114Y-85780201D01*
X148756112Y-85780201D01*
X148756112Y-85780202D01*
X148653387Y-85839511D01*
X148653384Y-85839513D01*
X148569513Y-85923384D01*
X148569511Y-85923387D01*
X148521461Y-86006612D01*
X148510201Y-86026114D01*
X148479500Y-86140691D01*
X148479500Y-86259309D01*
X148510201Y-86373886D01*
X148569511Y-86476613D01*
X148653387Y-86560489D01*
X148756114Y-86619799D01*
X148870691Y-86650500D01*
X148870694Y-86650500D01*
X148989306Y-86650500D01*
X148989309Y-86650500D01*
X149103886Y-86619799D01*
X149206613Y-86560489D01*
X149287819Y-86479283D01*
X149349142Y-86445798D01*
X149418834Y-86450782D01*
X149474767Y-86492654D01*
X149499184Y-86558118D01*
X149499500Y-86566964D01*
X149499500Y-87852259D01*
X149479815Y-87919298D01*
X149427011Y-87965053D01*
X149357853Y-87974997D01*
X149343407Y-87972034D01*
X149300320Y-87960489D01*
X149259309Y-87949500D01*
X149140691Y-87949500D01*
X149026114Y-87980201D01*
X149026112Y-87980201D01*
X149026112Y-87980202D01*
X148923387Y-88039511D01*
X148923384Y-88039513D01*
X148839513Y-88123384D01*
X148839511Y-88123387D01*
X148780654Y-88225330D01*
X148780201Y-88226114D01*
X148749500Y-88340691D01*
X148749500Y-88459309D01*
X148780201Y-88573886D01*
X148839511Y-88676613D01*
X148923387Y-88760489D01*
X149026114Y-88819799D01*
X149140691Y-88850500D01*
X149140694Y-88850500D01*
X149259306Y-88850500D01*
X149259309Y-88850500D01*
X149343409Y-88827965D01*
X149413256Y-88829628D01*
X149471118Y-88868790D01*
X149498623Y-88933018D01*
X149499500Y-88947740D01*
X149499500Y-98375500D01*
X149479815Y-98442539D01*
X149427011Y-98488294D01*
X149375500Y-98499500D01*
X149275447Y-98499500D01*
X149208408Y-98479815D01*
X149162653Y-98427011D01*
X149152709Y-98357853D01*
X149168060Y-98313499D01*
X149219799Y-98223886D01*
X149250500Y-98109309D01*
X149250500Y-97990691D01*
X149219799Y-97876114D01*
X149160489Y-97773387D01*
X149076613Y-97689511D01*
X148973886Y-97630201D01*
X148859309Y-97599500D01*
X148740691Y-97599500D01*
X148626114Y-97630201D01*
X148626112Y-97630201D01*
X148626112Y-97630202D01*
X148523387Y-97689511D01*
X148523384Y-97689513D01*
X148439513Y-97773384D01*
X148439511Y-97773387D01*
X148380201Y-97876114D01*
X148349500Y-97990691D01*
X148349500Y-98109309D01*
X148380201Y-98223886D01*
X148380202Y-98223887D01*
X148431940Y-98313499D01*
X148448413Y-98381399D01*
X148425561Y-98447426D01*
X148370640Y-98490617D01*
X148324553Y-98499500D01*
X125624500Y-98499500D01*
X125557461Y-98479815D01*
X125511706Y-98427011D01*
X125500500Y-98375500D01*
X125500500Y-97040691D01*
X137549500Y-97040691D01*
X137549500Y-97159309D01*
X137580201Y-97273886D01*
X137639511Y-97376613D01*
X137723387Y-97460489D01*
X137826114Y-97519799D01*
X137940691Y-97550500D01*
X137940694Y-97550500D01*
X138059306Y-97550500D01*
X138059309Y-97550500D01*
X138173886Y-97519799D01*
X138276613Y-97460489D01*
X138360489Y-97376613D01*
X138419799Y-97273886D01*
X138450500Y-97159309D01*
X138450500Y-97040691D01*
X138419799Y-96926114D01*
X138360489Y-96823387D01*
X138276613Y-96739511D01*
X138173886Y-96680201D01*
X138059309Y-96649500D01*
X137940691Y-96649500D01*
X137826114Y-96680201D01*
X137826112Y-96680201D01*
X137826112Y-96680202D01*
X137723387Y-96739511D01*
X137723384Y-96739513D01*
X137639513Y-96823384D01*
X137639511Y-96823387D01*
X137580201Y-96926114D01*
X137549500Y-97040691D01*
X125500500Y-97040691D01*
X125500500Y-96510691D01*
X125849500Y-96510691D01*
X125849500Y-96629309D01*
X125880201Y-96743886D01*
X125939511Y-96846613D01*
X126023387Y-96930489D01*
X126126114Y-96989799D01*
X126240691Y-97020500D01*
X126240694Y-97020500D01*
X126359306Y-97020500D01*
X126359309Y-97020500D01*
X126473886Y-96989799D01*
X126576613Y-96930489D01*
X126660489Y-96846613D01*
X126719799Y-96743886D01*
X126750500Y-96629309D01*
X126750500Y-96510691D01*
X129779500Y-96510691D01*
X129779500Y-96629309D01*
X129810201Y-96743886D01*
X129869511Y-96846613D01*
X129953387Y-96930489D01*
X130056114Y-96989799D01*
X130170691Y-97020500D01*
X130170694Y-97020500D01*
X130289306Y-97020500D01*
X130289309Y-97020500D01*
X130403886Y-96989799D01*
X130506613Y-96930489D01*
X130590489Y-96846613D01*
X130649799Y-96743886D01*
X130680500Y-96629309D01*
X130680500Y-96510691D01*
X130649799Y-96396114D01*
X130590489Y-96293387D01*
X130506613Y-96209511D01*
X130403886Y-96150201D01*
X130289309Y-96119500D01*
X130170691Y-96119500D01*
X130056114Y-96150201D01*
X130056112Y-96150201D01*
X130056112Y-96150202D01*
X129953387Y-96209511D01*
X129953384Y-96209513D01*
X129869513Y-96293384D01*
X129869511Y-96293387D01*
X129810201Y-96396114D01*
X129779500Y-96510691D01*
X126750500Y-96510691D01*
X126719799Y-96396114D01*
X126660489Y-96293387D01*
X126576613Y-96209511D01*
X126473886Y-96150201D01*
X126359309Y-96119500D01*
X126240691Y-96119500D01*
X126126114Y-96150201D01*
X126126112Y-96150201D01*
X126126112Y-96150202D01*
X126023387Y-96209511D01*
X126023384Y-96209513D01*
X125939513Y-96293384D01*
X125939511Y-96293387D01*
X125880201Y-96396114D01*
X125849500Y-96510691D01*
X125500500Y-96510691D01*
X125500500Y-95690691D01*
X133549500Y-95690691D01*
X133549500Y-95809309D01*
X133580201Y-95923886D01*
X133639511Y-96026613D01*
X133639512Y-96026614D01*
X133643575Y-96033651D01*
X133641824Y-96034661D01*
X133663095Y-96089689D01*
X133649053Y-96158133D01*
X133641822Y-96169384D01*
X133618655Y-96209511D01*
X133580201Y-96276114D01*
X133549500Y-96390691D01*
X133549500Y-96509309D01*
X133580201Y-96623886D01*
X133639511Y-96726613D01*
X133723387Y-96810489D01*
X133826114Y-96869799D01*
X133940691Y-96900500D01*
X133940694Y-96900500D01*
X134059306Y-96900500D01*
X134059309Y-96900500D01*
X134173886Y-96869799D01*
X134276613Y-96810489D01*
X134360489Y-96726613D01*
X134419799Y-96623886D01*
X134450500Y-96509309D01*
X134450500Y-96390691D01*
X134419799Y-96276114D01*
X134360489Y-96173387D01*
X134360487Y-96173385D01*
X134356425Y-96166349D01*
X134358177Y-96165337D01*
X134336906Y-96110329D01*
X134350938Y-96041883D01*
X134358167Y-96030632D01*
X134360485Y-96026616D01*
X134360489Y-96026613D01*
X134419799Y-95923886D01*
X134450500Y-95809309D01*
X134450500Y-95690691D01*
X134419799Y-95576114D01*
X134407851Y-95555419D01*
X134401585Y-95544566D01*
X134401584Y-95544565D01*
X134370480Y-95490691D01*
X137112000Y-95490691D01*
X137112000Y-95609309D01*
X137142701Y-95723886D01*
X137202011Y-95826613D01*
X137285887Y-95910489D01*
X137388614Y-95969799D01*
X137503191Y-96000500D01*
X137503194Y-96000500D01*
X137621806Y-96000500D01*
X137621809Y-96000500D01*
X137736386Y-95969799D01*
X137839113Y-95910489D01*
X137922989Y-95826613D01*
X137982299Y-95723886D01*
X137996739Y-95669996D01*
X140289501Y-95669996D01*
X140289501Y-95788614D01*
X140320202Y-95903191D01*
X140379512Y-96005918D01*
X140463388Y-96089794D01*
X140566115Y-96149104D01*
X140680692Y-96179805D01*
X140680695Y-96179805D01*
X140799307Y-96179805D01*
X140799310Y-96179805D01*
X140913887Y-96149104D01*
X141016614Y-96089794D01*
X141100490Y-96005918D01*
X141159800Y-95903191D01*
X141190501Y-95788614D01*
X141190501Y-95669996D01*
X141175797Y-95615120D01*
X141177460Y-95545274D01*
X141216622Y-95487412D01*
X141280850Y-95459907D01*
X141295572Y-95459030D01*
X141419306Y-95459030D01*
X141419309Y-95459030D01*
X141533886Y-95428329D01*
X141636613Y-95369019D01*
X141720489Y-95285143D01*
X141779799Y-95182416D01*
X141810500Y-95067839D01*
X141810500Y-94949221D01*
X141779799Y-94834644D01*
X141720489Y-94731917D01*
X141636613Y-94648041D01*
X141533886Y-94588731D01*
X141419309Y-94558030D01*
X141399390Y-94558030D01*
X141332351Y-94538345D01*
X141286596Y-94485541D01*
X141276652Y-94416383D01*
X141292003Y-94372029D01*
X141319799Y-94323886D01*
X141350500Y-94209309D01*
X141350500Y-94090691D01*
X141319799Y-93976114D01*
X141260489Y-93873387D01*
X141176613Y-93789511D01*
X141108092Y-93749950D01*
X141108090Y-93749948D01*
X141073891Y-93730203D01*
X141073890Y-93730202D01*
X141064494Y-93727684D01*
X140959309Y-93699500D01*
X140840691Y-93699500D01*
X140726114Y-93730201D01*
X140726112Y-93730201D01*
X140726112Y-93730202D01*
X140623387Y-93789511D01*
X140623384Y-93789513D01*
X140539513Y-93873384D01*
X140539511Y-93873387D01*
X140480201Y-93976114D01*
X140449500Y-94090691D01*
X140449500Y-94209309D01*
X140480201Y-94323886D01*
X140539511Y-94426613D01*
X140623387Y-94510489D01*
X140726114Y-94569799D01*
X140840691Y-94600500D01*
X140840694Y-94600500D01*
X140860610Y-94600500D01*
X140927649Y-94620185D01*
X140973404Y-94672989D01*
X140983348Y-94742147D01*
X140967997Y-94786501D01*
X140940639Y-94833886D01*
X140940201Y-94834644D01*
X140909500Y-94949221D01*
X140909500Y-95067839D01*
X140924203Y-95122714D01*
X140922541Y-95192561D01*
X140883379Y-95250423D01*
X140819151Y-95277928D01*
X140804429Y-95278805D01*
X140799310Y-95278805D01*
X140680692Y-95278805D01*
X140566115Y-95309506D01*
X140566113Y-95309506D01*
X140566113Y-95309507D01*
X140463388Y-95368816D01*
X140463385Y-95368818D01*
X140379514Y-95452689D01*
X140379512Y-95452692D01*
X140326469Y-95544565D01*
X140320202Y-95555419D01*
X140289501Y-95669996D01*
X137996739Y-95669996D01*
X138013000Y-95609309D01*
X138013000Y-95490691D01*
X137982299Y-95376114D01*
X137922989Y-95273387D01*
X137839113Y-95189511D01*
X137736386Y-95130201D01*
X137621809Y-95099500D01*
X137503191Y-95099500D01*
X137388614Y-95130201D01*
X137388612Y-95130201D01*
X137388612Y-95130202D01*
X137285887Y-95189511D01*
X137285884Y-95189513D01*
X137202013Y-95273384D01*
X137202011Y-95273387D01*
X137146915Y-95368816D01*
X137142701Y-95376114D01*
X137112000Y-95490691D01*
X134370480Y-95490691D01*
X134360489Y-95473387D01*
X134276613Y-95389511D01*
X134173886Y-95330201D01*
X134059309Y-95299500D01*
X133940691Y-95299500D01*
X133826114Y-95330201D01*
X133826112Y-95330201D01*
X133826112Y-95330202D01*
X133723387Y-95389511D01*
X133723384Y-95389513D01*
X133639513Y-95473384D01*
X133639511Y-95473387D01*
X133592151Y-95555417D01*
X133580201Y-95576114D01*
X133549500Y-95690691D01*
X125500500Y-95690691D01*
X125500500Y-93760691D01*
X125939500Y-93760691D01*
X125939500Y-93879309D01*
X125970201Y-93993886D01*
X126029511Y-94096613D01*
X126113387Y-94180489D01*
X126216114Y-94239799D01*
X126330691Y-94270500D01*
X126330694Y-94270500D01*
X126449306Y-94270500D01*
X126449309Y-94270500D01*
X126563886Y-94239799D01*
X126666613Y-94180489D01*
X126750489Y-94096613D01*
X126809799Y-93993886D01*
X126840500Y-93879309D01*
X126840500Y-93760691D01*
X126809799Y-93646114D01*
X126750489Y-93543387D01*
X126666613Y-93459511D01*
X126563886Y-93400201D01*
X126449309Y-93369500D01*
X126330691Y-93369500D01*
X126216114Y-93400201D01*
X126216112Y-93400201D01*
X126216112Y-93400202D01*
X126113387Y-93459511D01*
X126113384Y-93459513D01*
X126029513Y-93543384D01*
X126029511Y-93543387D01*
X125970201Y-93646114D01*
X125939500Y-93760691D01*
X125500500Y-93760691D01*
X125500500Y-93185691D01*
X127849500Y-93185691D01*
X127849500Y-93304309D01*
X127880201Y-93418886D01*
X127939511Y-93521613D01*
X128023387Y-93605489D01*
X128126114Y-93664799D01*
X128175141Y-93677935D01*
X128234801Y-93714300D01*
X128265330Y-93777147D01*
X128257035Y-93846522D01*
X128230729Y-93885391D01*
X128149485Y-93966635D01*
X128073719Y-94097863D01*
X128056936Y-94160500D01*
X128034500Y-94244234D01*
X128034500Y-94395766D01*
X128042765Y-94426612D01*
X128073719Y-94542136D01*
X128107771Y-94601114D01*
X128149485Y-94673365D01*
X128256635Y-94780515D01*
X128387865Y-94856281D01*
X128534234Y-94895500D01*
X128534236Y-94895500D01*
X128685764Y-94895500D01*
X128685766Y-94895500D01*
X128832135Y-94856281D01*
X128963365Y-94780515D01*
X129070515Y-94673365D01*
X129070517Y-94673360D01*
X129071406Y-94672472D01*
X129132729Y-94638987D01*
X129202421Y-94643971D01*
X129258355Y-94685842D01*
X129266472Y-94698147D01*
X129269482Y-94703361D01*
X129269484Y-94703363D01*
X129269485Y-94703365D01*
X129376635Y-94810515D01*
X129507865Y-94886281D01*
X129654234Y-94925500D01*
X129654236Y-94925500D01*
X129805764Y-94925500D01*
X129805766Y-94925500D01*
X129952135Y-94886281D01*
X130083365Y-94810515D01*
X130164611Y-94729268D01*
X130225930Y-94695786D01*
X130295622Y-94700770D01*
X130351556Y-94742641D01*
X130372063Y-94784857D01*
X130385200Y-94833885D01*
X130410267Y-94877302D01*
X130444511Y-94936613D01*
X130528387Y-95020489D01*
X130631114Y-95079799D01*
X130745691Y-95110500D01*
X130745694Y-95110500D01*
X130864306Y-95110500D01*
X130864309Y-95110500D01*
X130978886Y-95079799D01*
X131081613Y-95020489D01*
X131165489Y-94936613D01*
X131207226Y-94864323D01*
X131257792Y-94816108D01*
X131326399Y-94802885D01*
X131391264Y-94828853D01*
X131421998Y-94864323D01*
X131469505Y-94946606D01*
X131469508Y-94946610D01*
X131469510Y-94946613D01*
X131553386Y-95030489D01*
X131656113Y-95089799D01*
X131770690Y-95120500D01*
X131770693Y-95120500D01*
X131889305Y-95120500D01*
X131889308Y-95120500D01*
X132003885Y-95089799D01*
X132106612Y-95030489D01*
X132190488Y-94946613D01*
X132249798Y-94843886D01*
X132280499Y-94729309D01*
X132280499Y-94695924D01*
X132300184Y-94628885D01*
X132352988Y-94583130D01*
X132422146Y-94573186D01*
X132466499Y-94588537D01*
X132508142Y-94612580D01*
X132622719Y-94643281D01*
X132622722Y-94643281D01*
X132741334Y-94643281D01*
X132741337Y-94643281D01*
X132855914Y-94612580D01*
X132958641Y-94553270D01*
X133042517Y-94469394D01*
X133101827Y-94366667D01*
X133132528Y-94252090D01*
X133132528Y-94244234D01*
X133814500Y-94244234D01*
X133814500Y-94395766D01*
X133822765Y-94426612D01*
X133853719Y-94542136D01*
X133887771Y-94601114D01*
X133929485Y-94673365D01*
X134036635Y-94780515D01*
X134167865Y-94856281D01*
X134314234Y-94895500D01*
X134314236Y-94895500D01*
X134465763Y-94895500D01*
X134465766Y-94895500D01*
X134531607Y-94877858D01*
X134601454Y-94879521D01*
X134659317Y-94918683D01*
X134673355Y-94942023D01*
X134673660Y-94941847D01*
X134677723Y-94948885D01*
X134677724Y-94948886D01*
X134737034Y-95051613D01*
X134820910Y-95135489D01*
X134923637Y-95194799D01*
X135038214Y-95225500D01*
X135038217Y-95225500D01*
X135156829Y-95225500D01*
X135156832Y-95225500D01*
X135271409Y-95194799D01*
X135374136Y-95135489D01*
X135458012Y-95051613D01*
X135517322Y-94948886D01*
X135548023Y-94834309D01*
X135548023Y-94715691D01*
X135517322Y-94601114D01*
X135458012Y-94498387D01*
X135374136Y-94414511D01*
X135271409Y-94355201D01*
X135156832Y-94324500D01*
X135082155Y-94324500D01*
X135015116Y-94304815D01*
X134969361Y-94252011D01*
X134962383Y-94232602D01*
X134926281Y-94097865D01*
X134850515Y-93966635D01*
X134743365Y-93859485D01*
X134677750Y-93821602D01*
X134612136Y-93783719D01*
X134526192Y-93760691D01*
X136159500Y-93760691D01*
X136159500Y-93879309D01*
X136190201Y-93993886D01*
X136249511Y-94096613D01*
X136333387Y-94180489D01*
X136436114Y-94239799D01*
X136550691Y-94270500D01*
X136550694Y-94270500D01*
X136669306Y-94270500D01*
X136669309Y-94270500D01*
X136783886Y-94239799D01*
X136886613Y-94180489D01*
X136970489Y-94096613D01*
X137029799Y-93993886D01*
X137060500Y-93879309D01*
X137060500Y-93760691D01*
X137031025Y-93650691D01*
X143974500Y-93650691D01*
X143974500Y-93769309D01*
X144005201Y-93883886D01*
X144064511Y-93986613D01*
X144148387Y-94070489D01*
X144251114Y-94129799D01*
X144365691Y-94160500D01*
X144365694Y-94160500D01*
X144484306Y-94160500D01*
X144484309Y-94160500D01*
X144598886Y-94129799D01*
X144701613Y-94070489D01*
X144712819Y-94059283D01*
X144774142Y-94025798D01*
X144843834Y-94030782D01*
X144899767Y-94072654D01*
X144924184Y-94138118D01*
X144924500Y-94146964D01*
X144924500Y-94275766D01*
X144935840Y-94318088D01*
X144963719Y-94422136D01*
X144991004Y-94469394D01*
X145039485Y-94553365D01*
X145146635Y-94660515D01*
X145277865Y-94736281D01*
X145424234Y-94775500D01*
X145424236Y-94775500D01*
X145575764Y-94775500D01*
X145575766Y-94775500D01*
X145722135Y-94736281D01*
X145853365Y-94660515D01*
X145923189Y-94590691D01*
X148349500Y-94590691D01*
X148349500Y-94709309D01*
X148380201Y-94823886D01*
X148439511Y-94926613D01*
X148523387Y-95010489D01*
X148626114Y-95069799D01*
X148740691Y-95100500D01*
X148740694Y-95100500D01*
X148859306Y-95100500D01*
X148859309Y-95100500D01*
X148973886Y-95069799D01*
X149076613Y-95010489D01*
X149160489Y-94926613D01*
X149219799Y-94823886D01*
X149250500Y-94709309D01*
X149250500Y-94590691D01*
X149219799Y-94476114D01*
X149160489Y-94373387D01*
X149076613Y-94289511D01*
X148973886Y-94230201D01*
X148859309Y-94199500D01*
X148740691Y-94199500D01*
X148626114Y-94230201D01*
X148626112Y-94230201D01*
X148626112Y-94230202D01*
X148523387Y-94289511D01*
X148523384Y-94289513D01*
X148439513Y-94373384D01*
X148439511Y-94373387D01*
X148408780Y-94426615D01*
X148380201Y-94476114D01*
X148349500Y-94590691D01*
X145923189Y-94590691D01*
X145960515Y-94553365D01*
X146036281Y-94422135D01*
X146075500Y-94275766D01*
X146075500Y-94124234D01*
X146036281Y-93977865D01*
X145960515Y-93846635D01*
X145853365Y-93739485D01*
X145746758Y-93677935D01*
X145722136Y-93663719D01*
X145636192Y-93640691D01*
X146249500Y-93640691D01*
X146249500Y-93759309D01*
X146280201Y-93873886D01*
X146339511Y-93976613D01*
X146423387Y-94060489D01*
X146526114Y-94119799D01*
X146640691Y-94150500D01*
X146640694Y-94150500D01*
X146759306Y-94150500D01*
X146759309Y-94150500D01*
X146873886Y-94119799D01*
X146976613Y-94060489D01*
X147060489Y-93976613D01*
X147119799Y-93873886D01*
X147150500Y-93759309D01*
X147150500Y-93640691D01*
X147119799Y-93526114D01*
X147060489Y-93423387D01*
X146976613Y-93339511D01*
X146873886Y-93280201D01*
X146759309Y-93249500D01*
X146640691Y-93249500D01*
X146526114Y-93280201D01*
X146526112Y-93280201D01*
X146526112Y-93280202D01*
X146423387Y-93339511D01*
X146423384Y-93339513D01*
X146339513Y-93423384D01*
X146339511Y-93423387D01*
X146282799Y-93521615D01*
X146280201Y-93526114D01*
X146249500Y-93640691D01*
X145636192Y-93640691D01*
X145575766Y-93624500D01*
X145424234Y-93624500D01*
X145277863Y-93663719D01*
X145146635Y-93739485D01*
X145146632Y-93739487D01*
X145087181Y-93798939D01*
X145025858Y-93832424D01*
X144956166Y-93827440D01*
X144900233Y-93785568D01*
X144875816Y-93720104D01*
X144875500Y-93711258D01*
X144875500Y-93650693D01*
X144875500Y-93650691D01*
X144844799Y-93536114D01*
X144785489Y-93433387D01*
X144701613Y-93349511D01*
X144598886Y-93290201D01*
X144484309Y-93259500D01*
X144365691Y-93259500D01*
X144251114Y-93290201D01*
X144251112Y-93290201D01*
X144251112Y-93290202D01*
X144148387Y-93349511D01*
X144148384Y-93349513D01*
X144064513Y-93433384D01*
X144064511Y-93433387D01*
X144010975Y-93526114D01*
X144005201Y-93536114D01*
X143974500Y-93650691D01*
X137031025Y-93650691D01*
X137029799Y-93646114D01*
X136970489Y-93543387D01*
X136886613Y-93459511D01*
X136783886Y-93400201D01*
X136669309Y-93369500D01*
X136550691Y-93369500D01*
X136436114Y-93400201D01*
X136436112Y-93400201D01*
X136436112Y-93400202D01*
X136333387Y-93459511D01*
X136333384Y-93459513D01*
X136249513Y-93543384D01*
X136249511Y-93543387D01*
X136190201Y-93646114D01*
X136159500Y-93760691D01*
X134526192Y-93760691D01*
X134465766Y-93744500D01*
X134314234Y-93744500D01*
X134167863Y-93783719D01*
X134036635Y-93859485D01*
X134036632Y-93859487D01*
X133929487Y-93966632D01*
X133929485Y-93966635D01*
X133853719Y-94097863D01*
X133836936Y-94160500D01*
X133814500Y-94244234D01*
X133132528Y-94244234D01*
X133132528Y-94133472D01*
X133101827Y-94018895D01*
X133042517Y-93916168D01*
X132958641Y-93832292D01*
X132855914Y-93772982D01*
X132741337Y-93742281D01*
X132622719Y-93742281D01*
X132508142Y-93772982D01*
X132508140Y-93772982D01*
X132508140Y-93772983D01*
X132405415Y-93832292D01*
X132405412Y-93832294D01*
X132321541Y-93916165D01*
X132321539Y-93916168D01*
X132276668Y-93993887D01*
X132262229Y-94018895D01*
X132231528Y-94133472D01*
X132231528Y-94133474D01*
X132231528Y-94166856D01*
X132211843Y-94233895D01*
X132159039Y-94279650D01*
X132089881Y-94289594D01*
X132045528Y-94274243D01*
X132003888Y-94250202D01*
X132003889Y-94250202D01*
X131966568Y-94240202D01*
X131889308Y-94219500D01*
X131770690Y-94219500D01*
X131656113Y-94250201D01*
X131656111Y-94250201D01*
X131656111Y-94250202D01*
X131553386Y-94309511D01*
X131553383Y-94309513D01*
X131469512Y-94393384D01*
X131469508Y-94393390D01*
X131427772Y-94465677D01*
X131377204Y-94513891D01*
X131308597Y-94527113D01*
X131243733Y-94501144D01*
X131212999Y-94465676D01*
X131165489Y-94383387D01*
X131081613Y-94299511D01*
X130978886Y-94240201D01*
X130864309Y-94209500D01*
X130745691Y-94209500D01*
X130631114Y-94240201D01*
X130631112Y-94240201D01*
X130631112Y-94240202D01*
X130528387Y-94299511D01*
X130528383Y-94299514D01*
X130509809Y-94318088D01*
X130448486Y-94351572D01*
X130378794Y-94346586D01*
X130322861Y-94304713D01*
X130302355Y-94262498D01*
X130266281Y-94127865D01*
X130190515Y-93996635D01*
X130083365Y-93889485D01*
X129984308Y-93832294D01*
X129952136Y-93813719D01*
X129861788Y-93789511D01*
X129805766Y-93774500D01*
X129654234Y-93774500D01*
X129507863Y-93813719D01*
X129376635Y-93889485D01*
X129268592Y-93997528D01*
X129207269Y-94031012D01*
X129137577Y-94026028D01*
X129081644Y-93984156D01*
X129073526Y-93971849D01*
X129070518Y-93966641D01*
X129070515Y-93966635D01*
X128963365Y-93859485D01*
X128832135Y-93783719D01*
X128706110Y-93749951D01*
X128697500Y-93747644D01*
X128637840Y-93711279D01*
X128607311Y-93648432D01*
X128615606Y-93579056D01*
X128641912Y-93540189D01*
X128660489Y-93521613D01*
X128719799Y-93418886D01*
X128750500Y-93304309D01*
X128750500Y-93185691D01*
X128719799Y-93071114D01*
X128660489Y-92968387D01*
X128576613Y-92884511D01*
X128473886Y-92825201D01*
X128359309Y-92794500D01*
X128240691Y-92794500D01*
X128126114Y-92825201D01*
X128126112Y-92825201D01*
X128126112Y-92825202D01*
X128023387Y-92884511D01*
X128023384Y-92884513D01*
X127939513Y-92968384D01*
X127939511Y-92968387D01*
X127880201Y-93071114D01*
X127849500Y-93185691D01*
X125500500Y-93185691D01*
X125500500Y-92497740D01*
X125520185Y-92430701D01*
X125572989Y-92384946D01*
X125642147Y-92375002D01*
X125656575Y-92377961D01*
X125740691Y-92400500D01*
X125740694Y-92400500D01*
X125859306Y-92400500D01*
X125859309Y-92400500D01*
X125973886Y-92369799D01*
X126076613Y-92310489D01*
X126160489Y-92226613D01*
X126219799Y-92123886D01*
X126250500Y-92009309D01*
X126250500Y-91890691D01*
X126219799Y-91776114D01*
X126160489Y-91673387D01*
X126076613Y-91589511D01*
X125973886Y-91530201D01*
X125859309Y-91499500D01*
X125740691Y-91499500D01*
X125656593Y-91522034D01*
X125586743Y-91520371D01*
X125528881Y-91481208D01*
X125501377Y-91416980D01*
X125500500Y-91402259D01*
X125500500Y-90690691D01*
X126949500Y-90690691D01*
X126949500Y-90809309D01*
X126980201Y-90923886D01*
X127039511Y-91026613D01*
X127123387Y-91110489D01*
X127226114Y-91169799D01*
X127340691Y-91200500D01*
X127340694Y-91200500D01*
X127459306Y-91200500D01*
X127459309Y-91200500D01*
X127573886Y-91169799D01*
X127676613Y-91110489D01*
X127760489Y-91026613D01*
X127819799Y-90923886D01*
X127850500Y-90809309D01*
X127850500Y-90690691D01*
X127819799Y-90576114D01*
X127760489Y-90473387D01*
X127676613Y-90389511D01*
X127573886Y-90330201D01*
X127459309Y-90299500D01*
X127340691Y-90299500D01*
X127226114Y-90330201D01*
X127226112Y-90330201D01*
X127226112Y-90330202D01*
X127123387Y-90389511D01*
X127123384Y-90389513D01*
X127039513Y-90473384D01*
X127039511Y-90473387D01*
X127011284Y-90522278D01*
X126980201Y-90576114D01*
X126949500Y-90690691D01*
X125500500Y-90690691D01*
X125500500Y-89840691D01*
X128849500Y-89840691D01*
X128849500Y-89959309D01*
X128880201Y-90073886D01*
X128939511Y-90176613D01*
X128939513Y-90176615D01*
X129024662Y-90261764D01*
X129058147Y-90323087D01*
X129053163Y-90392779D01*
X129024663Y-90437126D01*
X128939510Y-90522278D01*
X128880202Y-90625003D01*
X128880201Y-90625005D01*
X128849500Y-90739582D01*
X128849500Y-90858200D01*
X128880201Y-90972777D01*
X128939511Y-91075504D01*
X129023387Y-91159380D01*
X129126114Y-91218690D01*
X129240691Y-91249391D01*
X129240694Y-91249391D01*
X129359306Y-91249391D01*
X129359309Y-91249391D01*
X129473886Y-91218690D01*
X129576613Y-91159380D01*
X129660489Y-91075504D01*
X129719799Y-90972777D01*
X129750500Y-90858200D01*
X129750500Y-90739582D01*
X129719799Y-90625005D01*
X129660489Y-90522278D01*
X129598141Y-90459930D01*
X131447768Y-90459930D01*
X131447775Y-90494212D01*
X131450561Y-90494579D01*
X131449500Y-90502633D01*
X131449500Y-90502635D01*
X131449500Y-91789562D01*
X131457602Y-91819797D01*
X131469979Y-91865990D01*
X131469982Y-91865995D01*
X131509235Y-91933984D01*
X131509537Y-91934508D01*
X131509540Y-91934511D01*
X132209540Y-92634511D01*
X132265489Y-92690460D01*
X132265491Y-92690461D01*
X132265495Y-92690464D01*
X132334004Y-92730017D01*
X132334011Y-92730021D01*
X132410438Y-92750500D01*
X134367363Y-92750500D01*
X134434402Y-92770185D01*
X134480157Y-92822989D01*
X134490101Y-92892147D01*
X134481927Y-92921945D01*
X134480203Y-92926106D01*
X134480201Y-92926114D01*
X134449500Y-93040691D01*
X134449500Y-93159309D01*
X134480201Y-93273886D01*
X134539511Y-93376613D01*
X134623387Y-93460489D01*
X134726114Y-93519799D01*
X134840691Y-93550500D01*
X134840694Y-93550500D01*
X134959306Y-93550500D01*
X134959309Y-93550500D01*
X135073886Y-93519799D01*
X135176613Y-93460489D01*
X135260489Y-93376613D01*
X135319799Y-93273886D01*
X135350500Y-93159309D01*
X135350500Y-93040691D01*
X135319799Y-92926114D01*
X135319797Y-92926111D01*
X135319796Y-92926106D01*
X135318073Y-92921945D01*
X135310609Y-92852476D01*
X135341887Y-92789998D01*
X135401979Y-92754350D01*
X135432637Y-92750500D01*
X142307342Y-92750500D01*
X142374381Y-92770185D01*
X142420136Y-92822989D01*
X142430080Y-92892147D01*
X142427120Y-92906578D01*
X142417980Y-92940690D01*
X142417980Y-93059308D01*
X142448681Y-93173885D01*
X142507991Y-93276612D01*
X142591867Y-93360488D01*
X142694594Y-93419798D01*
X142809171Y-93450499D01*
X142809174Y-93450499D01*
X142927786Y-93450499D01*
X142927789Y-93450499D01*
X143042366Y-93419798D01*
X143145093Y-93360488D01*
X143228969Y-93276612D01*
X143288279Y-93173885D01*
X143318980Y-93059308D01*
X143318980Y-93024500D01*
X143338665Y-92957461D01*
X143391469Y-92911706D01*
X143442980Y-92900500D01*
X143459306Y-92900500D01*
X143459309Y-92900500D01*
X143573886Y-92869799D01*
X143676613Y-92810489D01*
X143760489Y-92726613D01*
X143819799Y-92623886D01*
X143850500Y-92509309D01*
X143850500Y-92390691D01*
X143819799Y-92276114D01*
X143760489Y-92173387D01*
X143676613Y-92089511D01*
X143573886Y-92030201D01*
X143459309Y-91999500D01*
X143340691Y-91999500D01*
X143335678Y-92000842D01*
X143335677Y-92000843D01*
X143278562Y-92016147D01*
X143226114Y-92030201D01*
X143226112Y-92030201D01*
X143226112Y-92030202D01*
X143123387Y-92089511D01*
X143123384Y-92089513D01*
X143099717Y-92113181D01*
X143038394Y-92146666D01*
X143012036Y-92149500D01*
X141281304Y-92149500D01*
X141214265Y-92129815D01*
X141168510Y-92077011D01*
X141158566Y-92007853D01*
X141187591Y-91944297D01*
X141193623Y-91937819D01*
X141492128Y-91639314D01*
X141553451Y-91605829D01*
X141579809Y-91602995D01*
X142990449Y-91602995D01*
X143057488Y-91622680D01*
X143078130Y-91639314D01*
X143101800Y-91662984D01*
X143204527Y-91722294D01*
X143319104Y-91752995D01*
X143319107Y-91752995D01*
X143320484Y-91752995D01*
X143437722Y-91752995D01*
X143552299Y-91722294D01*
X143655026Y-91662984D01*
X143738902Y-91579108D01*
X143798212Y-91476381D01*
X143828913Y-91361804D01*
X143828913Y-91340691D01*
X146449500Y-91340691D01*
X146449500Y-91459309D01*
X146480201Y-91573886D01*
X146539511Y-91676613D01*
X146623387Y-91760489D01*
X146726114Y-91819799D01*
X146840691Y-91850500D01*
X146840694Y-91850500D01*
X146959306Y-91850500D01*
X146959309Y-91850500D01*
X147073886Y-91819799D01*
X147176613Y-91760489D01*
X147260489Y-91676613D01*
X147319799Y-91573886D01*
X147350500Y-91459309D01*
X147350500Y-91340691D01*
X147319799Y-91226114D01*
X147260489Y-91123387D01*
X147176613Y-91039511D01*
X147073886Y-90980201D01*
X146959309Y-90949500D01*
X146840691Y-90949500D01*
X146726114Y-90980201D01*
X146726112Y-90980201D01*
X146726112Y-90980202D01*
X146623387Y-91039511D01*
X146623384Y-91039513D01*
X146539513Y-91123384D01*
X146539511Y-91123387D01*
X146483449Y-91220489D01*
X146480201Y-91226114D01*
X146449500Y-91340691D01*
X143828913Y-91340691D01*
X143828913Y-91243186D01*
X143798212Y-91128609D01*
X143738902Y-91025882D01*
X143738900Y-91025880D01*
X143738808Y-91025720D01*
X143722335Y-90957820D01*
X143745187Y-90891793D01*
X143758514Y-90876037D01*
X143764094Y-90870456D01*
X143764099Y-90870454D01*
X143847975Y-90786578D01*
X143907285Y-90683851D01*
X143937986Y-90569274D01*
X143937986Y-90450656D01*
X143907285Y-90336079D01*
X143847975Y-90233352D01*
X143764099Y-90149476D01*
X143661372Y-90090166D01*
X143546795Y-90059465D01*
X143428177Y-90059465D01*
X143313600Y-90090166D01*
X143313598Y-90090166D01*
X143313598Y-90090167D01*
X143210873Y-90149476D01*
X143210870Y-90149478D01*
X143187203Y-90173146D01*
X143125880Y-90206631D01*
X143099522Y-90209465D01*
X141591258Y-90209465D01*
X141514831Y-90229944D01*
X141507620Y-90234106D01*
X141507620Y-90234107D01*
X141496594Y-90240472D01*
X141473338Y-90253900D01*
X141465307Y-90258536D01*
X141446309Y-90269504D01*
X140709378Y-91006435D01*
X140648055Y-91039920D01*
X140578363Y-91034936D01*
X140522430Y-90993064D01*
X140501922Y-90950847D01*
X140501881Y-90950693D01*
X140501881Y-90950690D01*
X140471180Y-90836113D01*
X140411870Y-90733386D01*
X140327994Y-90649510D01*
X140225267Y-90590200D01*
X140110690Y-90559499D01*
X139992072Y-90559499D01*
X139877495Y-90590200D01*
X139877493Y-90590200D01*
X139877493Y-90590201D01*
X139774768Y-90649510D01*
X139713994Y-90710284D01*
X139652670Y-90743768D01*
X139582979Y-90738783D01*
X139527045Y-90696912D01*
X139518926Y-90684602D01*
X139510715Y-90670380D01*
X139460489Y-90583387D01*
X139376613Y-90499511D01*
X139273886Y-90440201D01*
X139159309Y-90409500D01*
X139040691Y-90409500D01*
X138926114Y-90440201D01*
X138926112Y-90440201D01*
X138926112Y-90440202D01*
X138823387Y-90499511D01*
X138823384Y-90499513D01*
X138739513Y-90583384D01*
X138739511Y-90583387D01*
X138681508Y-90683851D01*
X138680201Y-90686114D01*
X138649500Y-90800691D01*
X138649500Y-90919309D01*
X138680201Y-91033886D01*
X138680202Y-91033889D01*
X138703071Y-91073499D01*
X138719544Y-91141399D01*
X138696691Y-91207426D01*
X138641770Y-91250617D01*
X138595684Y-91259499D01*
X134355672Y-91259499D01*
X134288633Y-91239814D01*
X134242878Y-91187010D01*
X134232934Y-91117852D01*
X134235895Y-91103414D01*
X134245942Y-91065919D01*
X134245942Y-90947301D01*
X134215241Y-90832724D01*
X134155931Y-90729997D01*
X134155929Y-90729995D01*
X134151867Y-90722959D01*
X134154689Y-90721329D01*
X134134985Y-90670380D01*
X134149014Y-90601933D01*
X134160179Y-90584558D01*
X134161183Y-90583247D01*
X134161191Y-90583240D01*
X134220501Y-90480513D01*
X134251202Y-90365936D01*
X134251202Y-90247318D01*
X134220501Y-90132741D01*
X134161191Y-90030014D01*
X134077315Y-89946138D01*
X133974588Y-89886828D01*
X133860011Y-89856127D01*
X133741393Y-89856127D01*
X133626816Y-89886828D01*
X133626814Y-89886828D01*
X133626814Y-89886829D01*
X133524089Y-89946138D01*
X133524086Y-89946140D01*
X133440215Y-90030011D01*
X133440213Y-90030014D01*
X133380903Y-90132741D01*
X133350202Y-90247318D01*
X133350202Y-90365936D01*
X133380903Y-90480513D01*
X133440213Y-90583240D01*
X133440214Y-90583241D01*
X133444277Y-90590278D01*
X133441465Y-90591901D01*
X133461165Y-90642942D01*
X133447088Y-90711379D01*
X133435970Y-90728671D01*
X133434956Y-90729992D01*
X133389164Y-90809306D01*
X133375643Y-90832724D01*
X133344942Y-90947301D01*
X133344942Y-90947303D01*
X133344942Y-90952407D01*
X133325257Y-91019446D01*
X133272453Y-91065201D01*
X133203295Y-91075145D01*
X133188855Y-91072183D01*
X133104200Y-91049500D01*
X132985582Y-91049500D01*
X132871005Y-91080201D01*
X132768278Y-91139511D01*
X132768276Y-91139512D01*
X132761240Y-91143575D01*
X132759588Y-91140714D01*
X132707875Y-91159943D01*
X132639617Y-91145021D01*
X132611475Y-91123931D01*
X132576615Y-91089071D01*
X132576613Y-91089069D01*
X132473886Y-91029759D01*
X132359309Y-90999058D01*
X132240691Y-90999058D01*
X132240686Y-90999058D01*
X132234610Y-91000687D01*
X132164761Y-90999023D01*
X132106899Y-90959860D01*
X132079396Y-90895631D01*
X132090983Y-90826729D01*
X132137983Y-90775030D01*
X132140519Y-90773525D01*
X132176613Y-90752686D01*
X132260489Y-90668810D01*
X132319799Y-90566083D01*
X132350500Y-90451506D01*
X132350500Y-90332888D01*
X132319799Y-90218311D01*
X132260489Y-90115584D01*
X132176613Y-90031708D01*
X132073886Y-89972398D01*
X131959309Y-89941697D01*
X131840691Y-89941697D01*
X131726114Y-89972398D01*
X131726112Y-89972398D01*
X131726112Y-89972399D01*
X131623387Y-90031708D01*
X131623384Y-90031710D01*
X131539513Y-90115581D01*
X131539511Y-90115584D01*
X131486945Y-90206631D01*
X131480201Y-90218311D01*
X131449500Y-90332888D01*
X131449500Y-90332890D01*
X131449500Y-90451505D01*
X131450561Y-90459563D01*
X131447768Y-90459930D01*
X129598141Y-90459930D01*
X129576613Y-90438402D01*
X129575337Y-90437126D01*
X129570998Y-90429180D01*
X129563751Y-90423755D01*
X129554516Y-90398995D01*
X129541852Y-90375803D01*
X129542497Y-90366773D01*
X129539334Y-90358291D01*
X129544950Y-90332470D01*
X129546836Y-90306111D01*
X129552654Y-90297057D01*
X129554186Y-90290018D01*
X129575337Y-90261764D01*
X129576610Y-90260490D01*
X129576613Y-90260489D01*
X129660489Y-90176613D01*
X129719799Y-90073886D01*
X129750500Y-89959309D01*
X129750500Y-89840691D01*
X129719799Y-89726114D01*
X129660489Y-89623387D01*
X129576613Y-89539511D01*
X129474735Y-89480691D01*
X136074500Y-89480691D01*
X136074500Y-89599309D01*
X136105201Y-89713886D01*
X136164511Y-89816613D01*
X136248387Y-89900489D01*
X136351114Y-89959799D01*
X136465691Y-89990500D01*
X136465694Y-89990500D01*
X136584306Y-89990500D01*
X136584309Y-89990500D01*
X136698886Y-89959799D01*
X136801613Y-89900489D01*
X136885489Y-89816613D01*
X136944799Y-89713886D01*
X136975500Y-89599309D01*
X136975500Y-89480691D01*
X141024500Y-89480691D01*
X141024500Y-89599309D01*
X141055201Y-89713886D01*
X141114511Y-89816613D01*
X141198387Y-89900489D01*
X141301114Y-89959799D01*
X141415691Y-89990500D01*
X141415694Y-89990500D01*
X141460067Y-89990500D01*
X141534309Y-89990500D01*
X141648886Y-89959799D01*
X141751613Y-89900489D01*
X141835489Y-89816613D01*
X141894799Y-89713886D01*
X141925500Y-89599309D01*
X141925500Y-89480691D01*
X141894799Y-89366114D01*
X141835489Y-89263387D01*
X141751613Y-89179511D01*
X141684375Y-89140691D01*
X146949500Y-89140691D01*
X146949500Y-89259309D01*
X146980201Y-89373886D01*
X147039511Y-89476613D01*
X147123387Y-89560489D01*
X147226114Y-89619799D01*
X147340691Y-89650500D01*
X147340694Y-89650500D01*
X147459306Y-89650500D01*
X147459309Y-89650500D01*
X147573886Y-89619799D01*
X147676613Y-89560489D01*
X147760489Y-89476613D01*
X147819799Y-89373886D01*
X147850500Y-89259309D01*
X147850500Y-89140691D01*
X147819799Y-89026114D01*
X147760489Y-88923387D01*
X147676613Y-88839511D01*
X147573886Y-88780201D01*
X147459309Y-88749500D01*
X147340691Y-88749500D01*
X147226114Y-88780201D01*
X147226112Y-88780201D01*
X147226112Y-88780202D01*
X147123387Y-88839511D01*
X147123384Y-88839513D01*
X147039513Y-88923384D01*
X147039511Y-88923387D01*
X147010355Y-88973887D01*
X146980201Y-89026114D01*
X146949500Y-89140691D01*
X141684375Y-89140691D01*
X141648886Y-89120201D01*
X141534309Y-89089500D01*
X141415691Y-89089500D01*
X141301114Y-89120201D01*
X141301112Y-89120201D01*
X141301112Y-89120202D01*
X141198387Y-89179511D01*
X141198384Y-89179513D01*
X141114513Y-89263384D01*
X141114511Y-89263387D01*
X141055201Y-89366114D01*
X141024500Y-89480691D01*
X136975500Y-89480691D01*
X136944799Y-89366114D01*
X136885489Y-89263387D01*
X136801613Y-89179511D01*
X136698886Y-89120201D01*
X136584309Y-89089500D01*
X136465691Y-89089500D01*
X136351114Y-89120201D01*
X136351112Y-89120201D01*
X136351112Y-89120202D01*
X136248387Y-89179511D01*
X136248384Y-89179513D01*
X136164513Y-89263384D01*
X136164511Y-89263387D01*
X136105201Y-89366114D01*
X136074500Y-89480691D01*
X129474735Y-89480691D01*
X129473886Y-89480201D01*
X129359309Y-89449500D01*
X129240691Y-89449500D01*
X129126114Y-89480201D01*
X129126112Y-89480201D01*
X129126112Y-89480202D01*
X129023387Y-89539511D01*
X129023384Y-89539513D01*
X128939513Y-89623384D01*
X128939511Y-89623387D01*
X128880201Y-89726114D01*
X128849500Y-89840691D01*
X125500500Y-89840691D01*
X125500500Y-88494234D01*
X129154500Y-88494234D01*
X129154500Y-88645766D01*
X129171845Y-88710500D01*
X129193719Y-88792136D01*
X129221072Y-88839511D01*
X129269485Y-88923365D01*
X129376635Y-89030515D01*
X129507865Y-89106281D01*
X129654234Y-89145500D01*
X129654236Y-89145500D01*
X129805764Y-89145500D01*
X129805766Y-89145500D01*
X129952135Y-89106281D01*
X130083365Y-89030515D01*
X130190515Y-88923365D01*
X130266281Y-88792135D01*
X130302356Y-88657499D01*
X130338720Y-88597840D01*
X130401566Y-88567311D01*
X130470942Y-88575605D01*
X130509811Y-88601913D01*
X130528387Y-88620489D01*
X130631114Y-88679799D01*
X130745691Y-88710500D01*
X130745694Y-88710500D01*
X130864306Y-88710500D01*
X130864309Y-88710500D01*
X130978886Y-88679799D01*
X131005334Y-88664528D01*
X131073234Y-88648055D01*
X131139261Y-88670906D01*
X131182453Y-88725827D01*
X131190275Y-88788100D01*
X131189711Y-88792383D01*
X131189711Y-88792385D01*
X131189711Y-88911003D01*
X131220412Y-89025580D01*
X131279722Y-89128307D01*
X131363598Y-89212183D01*
X131466325Y-89271493D01*
X131580902Y-89302194D01*
X131580905Y-89302194D01*
X131699517Y-89302194D01*
X131699520Y-89302194D01*
X131814097Y-89271493D01*
X131916824Y-89212183D01*
X132000700Y-89128307D01*
X132060010Y-89025580D01*
X132090711Y-88911003D01*
X132090711Y-88792385D01*
X132060010Y-88677808D01*
X132000700Y-88575081D01*
X131916824Y-88491205D01*
X131814097Y-88431895D01*
X131699520Y-88401194D01*
X131580902Y-88401194D01*
X131504929Y-88421551D01*
X131466320Y-88431896D01*
X131466319Y-88431897D01*
X131439872Y-88447166D01*
X131371971Y-88463637D01*
X131305945Y-88440784D01*
X131262755Y-88385862D01*
X131254936Y-88323582D01*
X131255497Y-88319316D01*
X131255500Y-88319309D01*
X131255500Y-88200691D01*
X131224799Y-88086114D01*
X131224438Y-88085489D01*
X131204937Y-88051711D01*
X131192416Y-88030025D01*
X131184606Y-87997836D01*
X133700009Y-87997836D01*
X133700009Y-88116454D01*
X133730710Y-88231031D01*
X133790020Y-88333758D01*
X133873896Y-88417634D01*
X133976623Y-88476944D01*
X134091200Y-88507645D01*
X134091203Y-88507645D01*
X134209815Y-88507645D01*
X134209818Y-88507645D01*
X134324395Y-88476944D01*
X134427122Y-88417634D01*
X134510998Y-88333758D01*
X134570308Y-88231031D01*
X134594761Y-88139769D01*
X134631125Y-88080111D01*
X134693972Y-88049582D01*
X134732374Y-88051415D01*
X134732635Y-88049439D01*
X134740689Y-88050499D01*
X134740691Y-88050500D01*
X134740693Y-88050500D01*
X134859306Y-88050500D01*
X134859309Y-88050500D01*
X134973886Y-88019799D01*
X134973897Y-88019792D01*
X134977399Y-88018343D01*
X134980603Y-88017998D01*
X134981736Y-88017695D01*
X134981783Y-88017871D01*
X135046868Y-88010874D01*
X135109348Y-88042148D01*
X135145001Y-88102237D01*
X135144628Y-88164997D01*
X135127093Y-88230438D01*
X135127093Y-88309562D01*
X135137404Y-88348041D01*
X135147572Y-88385990D01*
X135147575Y-88385995D01*
X135187128Y-88454504D01*
X135187132Y-88454509D01*
X135187133Y-88454511D01*
X135243082Y-88510460D01*
X135243084Y-88510461D01*
X135243088Y-88510464D01*
X135311597Y-88550017D01*
X135311604Y-88550021D01*
X135388031Y-88570500D01*
X136137036Y-88570500D01*
X136204075Y-88590185D01*
X136224717Y-88606819D01*
X136248387Y-88630489D01*
X136351114Y-88689799D01*
X136465691Y-88720500D01*
X136465694Y-88720500D01*
X136584306Y-88720500D01*
X136584309Y-88720500D01*
X136698886Y-88689799D01*
X136801613Y-88630489D01*
X136885489Y-88546613D01*
X136944799Y-88443886D01*
X136975500Y-88329309D01*
X136975500Y-88210691D01*
X136944799Y-88096114D01*
X136886168Y-87994564D01*
X136886168Y-87994562D01*
X136885493Y-87993393D01*
X136885490Y-87993390D01*
X136885489Y-87993387D01*
X136832793Y-87940691D01*
X137749500Y-87940691D01*
X137749500Y-88059309D01*
X137780201Y-88173886D01*
X137839511Y-88276613D01*
X137839513Y-88276615D01*
X137875217Y-88312319D01*
X137908702Y-88373642D01*
X137903718Y-88443334D01*
X137875217Y-88487681D01*
X137839513Y-88523384D01*
X137839511Y-88523387D01*
X137783449Y-88620489D01*
X137780201Y-88626114D01*
X137749500Y-88740691D01*
X137749500Y-88859309D01*
X137780201Y-88973886D01*
X137839511Y-89076613D01*
X137923387Y-89160489D01*
X138026114Y-89219799D01*
X138140691Y-89250500D01*
X138140694Y-89250500D01*
X138259306Y-89250500D01*
X138259309Y-89250500D01*
X138373886Y-89219799D01*
X138476613Y-89160489D01*
X138560489Y-89076613D01*
X138619799Y-88973886D01*
X138650500Y-88859309D01*
X138650500Y-88740691D01*
X138619799Y-88626114D01*
X138560489Y-88523387D01*
X138524783Y-88487681D01*
X138491298Y-88426358D01*
X138496282Y-88356666D01*
X138524783Y-88312319D01*
X138539116Y-88297986D01*
X138560489Y-88276613D01*
X138619799Y-88173886D01*
X138650500Y-88059309D01*
X138650500Y-87940691D01*
X139349500Y-87940691D01*
X139349500Y-88059309D01*
X139380201Y-88173886D01*
X139439511Y-88276613D01*
X139439513Y-88276615D01*
X139475217Y-88312319D01*
X139508702Y-88373642D01*
X139503718Y-88443334D01*
X139475217Y-88487681D01*
X139439513Y-88523384D01*
X139439511Y-88523387D01*
X139383449Y-88620489D01*
X139380201Y-88626114D01*
X139349500Y-88740691D01*
X139349500Y-88859309D01*
X139380201Y-88973886D01*
X139439511Y-89076613D01*
X139523387Y-89160489D01*
X139626114Y-89219799D01*
X139740691Y-89250500D01*
X139740694Y-89250500D01*
X139859306Y-89250500D01*
X139859309Y-89250500D01*
X139973886Y-89219799D01*
X140076613Y-89160489D01*
X140160489Y-89076613D01*
X140219799Y-88973886D01*
X140250500Y-88859309D01*
X140250500Y-88740691D01*
X140219799Y-88626114D01*
X140160489Y-88523387D01*
X140124783Y-88487681D01*
X140122473Y-88483452D01*
X140118429Y-88480830D01*
X140105887Y-88453075D01*
X140091298Y-88426358D01*
X140091641Y-88421551D01*
X140089657Y-88417160D01*
X140094109Y-88387038D01*
X140096282Y-88356666D01*
X140099364Y-88351494D01*
X140099875Y-88348041D01*
X140104999Y-88340691D01*
X142849500Y-88340691D01*
X142849500Y-88459309D01*
X142880201Y-88573886D01*
X142939511Y-88676613D01*
X143023387Y-88760489D01*
X143126114Y-88819799D01*
X143240691Y-88850500D01*
X143240694Y-88850500D01*
X143359306Y-88850500D01*
X143359309Y-88850500D01*
X143473886Y-88819799D01*
X143576613Y-88760489D01*
X143660489Y-88676613D01*
X143719799Y-88573886D01*
X143750500Y-88459309D01*
X143750500Y-88344234D01*
X144924500Y-88344234D01*
X144924500Y-88495765D01*
X144963719Y-88642136D01*
X144984315Y-88677808D01*
X145039485Y-88773365D01*
X145146635Y-88880515D01*
X145277865Y-88956281D01*
X145424234Y-88995500D01*
X145424236Y-88995500D01*
X145575764Y-88995500D01*
X145575766Y-88995500D01*
X145722135Y-88956281D01*
X145853365Y-88880515D01*
X145960515Y-88773365D01*
X146036281Y-88642135D01*
X146075500Y-88495766D01*
X146075500Y-88344234D01*
X146036281Y-88197865D01*
X146032160Y-88190728D01*
X146026129Y-88180281D01*
X145960515Y-88066635D01*
X145853365Y-87959485D01*
X145783759Y-87919298D01*
X145722136Y-87883719D01*
X145648950Y-87864109D01*
X145575766Y-87844500D01*
X145424234Y-87844500D01*
X145277863Y-87883719D01*
X145146635Y-87959485D01*
X145146632Y-87959487D01*
X145039487Y-88066632D01*
X145039485Y-88066635D01*
X144963719Y-88197863D01*
X144924500Y-88344234D01*
X143750500Y-88344234D01*
X143750500Y-88340691D01*
X143719799Y-88226114D01*
X143660489Y-88123387D01*
X143576613Y-88039511D01*
X143473886Y-87980201D01*
X143359309Y-87949500D01*
X143240691Y-87949500D01*
X143126114Y-87980201D01*
X143126112Y-87980201D01*
X143126112Y-87980202D01*
X143023387Y-88039511D01*
X143023384Y-88039513D01*
X142939513Y-88123384D01*
X142939511Y-88123387D01*
X142880654Y-88225330D01*
X142880201Y-88226114D01*
X142849500Y-88340691D01*
X140104999Y-88340691D01*
X140110533Y-88332754D01*
X140119074Y-88318426D01*
X140121821Y-88315280D01*
X140160489Y-88276613D01*
X140219799Y-88173886D01*
X140250500Y-88059309D01*
X140250500Y-87940691D01*
X140219799Y-87826114D01*
X140160489Y-87723387D01*
X140076613Y-87639511D01*
X139973886Y-87580201D01*
X139859309Y-87549500D01*
X139740691Y-87549500D01*
X139626114Y-87580201D01*
X139626112Y-87580201D01*
X139626112Y-87580202D01*
X139523387Y-87639511D01*
X139523384Y-87639513D01*
X139439513Y-87723384D01*
X139439511Y-87723387D01*
X139383848Y-87819798D01*
X139380201Y-87826114D01*
X139349500Y-87940691D01*
X138650500Y-87940691D01*
X138619799Y-87826114D01*
X138560489Y-87723387D01*
X138476613Y-87639511D01*
X138373886Y-87580201D01*
X138259309Y-87549500D01*
X138140691Y-87549500D01*
X138026114Y-87580201D01*
X138026112Y-87580201D01*
X138026112Y-87580202D01*
X137923387Y-87639511D01*
X137923384Y-87639513D01*
X137839513Y-87723384D01*
X137839511Y-87723387D01*
X137783848Y-87819798D01*
X137780201Y-87826114D01*
X137749500Y-87940691D01*
X136832793Y-87940691D01*
X136801613Y-87909511D01*
X136698886Y-87850201D01*
X136584309Y-87819500D01*
X136465691Y-87819500D01*
X136351114Y-87850201D01*
X136351112Y-87850201D01*
X136351112Y-87850202D01*
X136248387Y-87909511D01*
X136248384Y-87909513D01*
X136224717Y-87933181D01*
X136163394Y-87966666D01*
X136137036Y-87969500D01*
X135388030Y-87969500D01*
X135344564Y-87981147D01*
X135274715Y-87979484D01*
X135216852Y-87940321D01*
X135189348Y-87876093D01*
X135200935Y-87807191D01*
X135205086Y-87799369D01*
X135219799Y-87773886D01*
X135250500Y-87659309D01*
X135250500Y-87540691D01*
X135219799Y-87426114D01*
X135160489Y-87323387D01*
X135076613Y-87239511D01*
X134973886Y-87180201D01*
X134859309Y-87149500D01*
X134740691Y-87149500D01*
X134626114Y-87180201D01*
X134626112Y-87180201D01*
X134626112Y-87180202D01*
X134523387Y-87239511D01*
X134523384Y-87239513D01*
X134439513Y-87323384D01*
X134439511Y-87323387D01*
X134380201Y-87426112D01*
X134355748Y-87517373D01*
X134319382Y-87577034D01*
X134256535Y-87607562D01*
X134218133Y-87605735D01*
X134217874Y-87607706D01*
X134209819Y-87606645D01*
X134209818Y-87606645D01*
X134091200Y-87606645D01*
X133976623Y-87637346D01*
X133976621Y-87637346D01*
X133976621Y-87637347D01*
X133873896Y-87696656D01*
X133873893Y-87696658D01*
X133790022Y-87780529D01*
X133790020Y-87780532D01*
X133749624Y-87850500D01*
X133730710Y-87883259D01*
X133700009Y-87997836D01*
X131184606Y-87997836D01*
X131175942Y-87962125D01*
X131198793Y-87896098D01*
X131253714Y-87852906D01*
X131267690Y-87848254D01*
X131373886Y-87819799D01*
X131476613Y-87760489D01*
X131560489Y-87676613D01*
X131619799Y-87573886D01*
X131650500Y-87459309D01*
X131650500Y-87340691D01*
X131619799Y-87226114D01*
X131560489Y-87123387D01*
X131476613Y-87039511D01*
X131373886Y-86980201D01*
X131259309Y-86949500D01*
X131140691Y-86949500D01*
X131026114Y-86980201D01*
X131026112Y-86980201D01*
X131026112Y-86980202D01*
X130923387Y-87039511D01*
X130923384Y-87039513D01*
X130839513Y-87123384D01*
X130839511Y-87123387D01*
X130806709Y-87180202D01*
X130780201Y-87226114D01*
X130749500Y-87340691D01*
X130749500Y-87459309D01*
X130771307Y-87540693D01*
X130780202Y-87573889D01*
X130812584Y-87629976D01*
X130829057Y-87697876D01*
X130806204Y-87763903D01*
X130751283Y-87807094D01*
X130737294Y-87811749D01*
X130631114Y-87840201D01*
X130631112Y-87840201D01*
X130631112Y-87840202D01*
X130528387Y-87899511D01*
X130528384Y-87899513D01*
X130444513Y-87983384D01*
X130444511Y-87983387D01*
X130385200Y-88086114D01*
X130385200Y-88086115D01*
X130372063Y-88135142D01*
X130335698Y-88194802D01*
X130272850Y-88225330D01*
X130203475Y-88217035D01*
X130164608Y-88190728D01*
X130083367Y-88109487D01*
X130083365Y-88109485D01*
X130009142Y-88066632D01*
X129952136Y-88033719D01*
X129866875Y-88010874D01*
X129805766Y-87994500D01*
X129654234Y-87994500D01*
X129507863Y-88033719D01*
X129376635Y-88109485D01*
X129376632Y-88109487D01*
X129269487Y-88216632D01*
X129269485Y-88216635D01*
X129193719Y-88347863D01*
X129165143Y-88454512D01*
X129154500Y-88494234D01*
X125500500Y-88494234D01*
X125500500Y-87878191D01*
X127399500Y-87878191D01*
X127399500Y-87996809D01*
X127430201Y-88111386D01*
X127489511Y-88214113D01*
X127573387Y-88297989D01*
X127676114Y-88357299D01*
X127790691Y-88388000D01*
X127790694Y-88388000D01*
X127909306Y-88388000D01*
X127909309Y-88388000D01*
X128023886Y-88357299D01*
X128126613Y-88297989D01*
X128210489Y-88214113D01*
X128269799Y-88111386D01*
X128300500Y-87996809D01*
X128300500Y-87878191D01*
X128269799Y-87763614D01*
X128210489Y-87660887D01*
X128126613Y-87577011D01*
X128023886Y-87517701D01*
X127909309Y-87487000D01*
X127790691Y-87487000D01*
X127676114Y-87517701D01*
X127676112Y-87517701D01*
X127676112Y-87517702D01*
X127573387Y-87577011D01*
X127573384Y-87577013D01*
X127489513Y-87660884D01*
X127489511Y-87660887D01*
X127453175Y-87723823D01*
X127430201Y-87763614D01*
X127399500Y-87878191D01*
X125500500Y-87878191D01*
X125500500Y-85124500D01*
X125520185Y-85057461D01*
X125572989Y-85011706D01*
X125624500Y-85000500D01*
X127338862Y-85000500D01*
X127405901Y-85020185D01*
G37*
%TD.AperFunction*%
%TD*%
M02*
