%TF.GenerationSoftware,KiCad,Pcbnew,10.0.2*%
%TF.CreationDate,2026-05-11T20:56:31+09:00*%
%TF.ProjectId,ammeter,616d6d65-7465-4722-9e6b-696361645f70,rev?*%
%TF.SameCoordinates,Original*%
%TF.FileFunction,Legend,Top*%
%TF.FilePolarity,Positive*%
%FSLAX46Y46*%
G04 Gerber Fmt 4.6, Leading zero omitted, Abs format (unit mm)*
G04 Created by KiCad (PCBNEW 10.0.2) date 2026-05-11 20:56:31*
%MOMM*%
%LPD*%
G01*
G04 APERTURE LIST*
%ADD10C,0.062500*%
%ADD11C,0.120000*%
G04 APERTURE END LIST*
D10*
X147833059Y-91476666D02*
X148190202Y-91476666D01*
X148190202Y-91476666D02*
X148261630Y-91500475D01*
X148261630Y-91500475D02*
X148309250Y-91548094D01*
X148309250Y-91548094D02*
X148333059Y-91619523D01*
X148333059Y-91619523D02*
X148333059Y-91667142D01*
X147833059Y-91286190D02*
X147833059Y-90976666D01*
X147833059Y-90976666D02*
X148023535Y-91143333D01*
X148023535Y-91143333D02*
X148023535Y-91071904D01*
X148023535Y-91071904D02*
X148047345Y-91024285D01*
X148047345Y-91024285D02*
X148071154Y-91000476D01*
X148071154Y-91000476D02*
X148118773Y-90976666D01*
X148118773Y-90976666D02*
X148237821Y-90976666D01*
X148237821Y-90976666D02*
X148285440Y-91000476D01*
X148285440Y-91000476D02*
X148309250Y-91024285D01*
X148309250Y-91024285D02*
X148333059Y-91071904D01*
X148333059Y-91071904D02*
X148333059Y-91214761D01*
X148333059Y-91214761D02*
X148309250Y-91262380D01*
X148309250Y-91262380D02*
X148285440Y-91286190D01*
X133971940Y-85078571D02*
X134210035Y-84911905D01*
X133971940Y-84792857D02*
X134471940Y-84792857D01*
X134471940Y-84792857D02*
X134471940Y-84983333D01*
X134471940Y-84983333D02*
X134448130Y-85030952D01*
X134448130Y-85030952D02*
X134424321Y-85054762D01*
X134424321Y-85054762D02*
X134376702Y-85078571D01*
X134376702Y-85078571D02*
X134305273Y-85078571D01*
X134305273Y-85078571D02*
X134257654Y-85054762D01*
X134257654Y-85054762D02*
X134233845Y-85030952D01*
X134233845Y-85030952D02*
X134210035Y-84983333D01*
X134210035Y-84983333D02*
X134210035Y-84792857D01*
X133971940Y-85554762D02*
X133971940Y-85269048D01*
X133971940Y-85411905D02*
X134471940Y-85411905D01*
X134471940Y-85411905D02*
X134400511Y-85364286D01*
X134400511Y-85364286D02*
X134352892Y-85316667D01*
X134352892Y-85316667D02*
X134329083Y-85269048D01*
X134471940Y-85864285D02*
X134471940Y-85911904D01*
X134471940Y-85911904D02*
X134448130Y-85959523D01*
X134448130Y-85959523D02*
X134424321Y-85983333D01*
X134424321Y-85983333D02*
X134376702Y-86007142D01*
X134376702Y-86007142D02*
X134281464Y-86030952D01*
X134281464Y-86030952D02*
X134162416Y-86030952D01*
X134162416Y-86030952D02*
X134067178Y-86007142D01*
X134067178Y-86007142D02*
X134019559Y-85983333D01*
X134019559Y-85983333D02*
X133995750Y-85959523D01*
X133995750Y-85959523D02*
X133971940Y-85911904D01*
X133971940Y-85911904D02*
X133971940Y-85864285D01*
X133971940Y-85864285D02*
X133995750Y-85816666D01*
X133995750Y-85816666D02*
X134019559Y-85792857D01*
X134019559Y-85792857D02*
X134067178Y-85769047D01*
X134067178Y-85769047D02*
X134162416Y-85745238D01*
X134162416Y-85745238D02*
X134281464Y-85745238D01*
X134281464Y-85745238D02*
X134376702Y-85769047D01*
X134376702Y-85769047D02*
X134424321Y-85792857D01*
X134424321Y-85792857D02*
X134448130Y-85816666D01*
X134448130Y-85816666D02*
X134471940Y-85864285D01*
X138419559Y-97016666D02*
X138395750Y-96992857D01*
X138395750Y-96992857D02*
X138371940Y-96921428D01*
X138371940Y-96921428D02*
X138371940Y-96873809D01*
X138371940Y-96873809D02*
X138395750Y-96802381D01*
X138395750Y-96802381D02*
X138443369Y-96754762D01*
X138443369Y-96754762D02*
X138490988Y-96730952D01*
X138490988Y-96730952D02*
X138586226Y-96707143D01*
X138586226Y-96707143D02*
X138657654Y-96707143D01*
X138657654Y-96707143D02*
X138752892Y-96730952D01*
X138752892Y-96730952D02*
X138800511Y-96754762D01*
X138800511Y-96754762D02*
X138848130Y-96802381D01*
X138848130Y-96802381D02*
X138871940Y-96873809D01*
X138871940Y-96873809D02*
X138871940Y-96921428D01*
X138871940Y-96921428D02*
X138848130Y-96992857D01*
X138848130Y-96992857D02*
X138824321Y-97016666D01*
X138871940Y-97469047D02*
X138871940Y-97230952D01*
X138871940Y-97230952D02*
X138633845Y-97207143D01*
X138633845Y-97207143D02*
X138657654Y-97230952D01*
X138657654Y-97230952D02*
X138681464Y-97278571D01*
X138681464Y-97278571D02*
X138681464Y-97397619D01*
X138681464Y-97397619D02*
X138657654Y-97445238D01*
X138657654Y-97445238D02*
X138633845Y-97469047D01*
X138633845Y-97469047D02*
X138586226Y-97492857D01*
X138586226Y-97492857D02*
X138467178Y-97492857D01*
X138467178Y-97492857D02*
X138419559Y-97469047D01*
X138419559Y-97469047D02*
X138395750Y-97445238D01*
X138395750Y-97445238D02*
X138371940Y-97397619D01*
X138371940Y-97397619D02*
X138371940Y-97278571D01*
X138371940Y-97278571D02*
X138395750Y-97230952D01*
X138395750Y-97230952D02*
X138419559Y-97207143D01*
X134478571Y-87228059D02*
X134311905Y-86989964D01*
X134192857Y-87228059D02*
X134192857Y-86728059D01*
X134192857Y-86728059D02*
X134383333Y-86728059D01*
X134383333Y-86728059D02*
X134430952Y-86751869D01*
X134430952Y-86751869D02*
X134454762Y-86775678D01*
X134454762Y-86775678D02*
X134478571Y-86823297D01*
X134478571Y-86823297D02*
X134478571Y-86894726D01*
X134478571Y-86894726D02*
X134454762Y-86942345D01*
X134454762Y-86942345D02*
X134430952Y-86966154D01*
X134430952Y-86966154D02*
X134383333Y-86989964D01*
X134383333Y-86989964D02*
X134192857Y-86989964D01*
X134954762Y-87228059D02*
X134669048Y-87228059D01*
X134811905Y-87228059D02*
X134811905Y-86728059D01*
X134811905Y-86728059D02*
X134764286Y-86799488D01*
X134764286Y-86799488D02*
X134716667Y-86847107D01*
X134716667Y-86847107D02*
X134669048Y-86870916D01*
X135430952Y-87228059D02*
X135145238Y-87228059D01*
X135288095Y-87228059D02*
X135288095Y-86728059D01*
X135288095Y-86728059D02*
X135240476Y-86799488D01*
X135240476Y-86799488D02*
X135192857Y-86847107D01*
X135192857Y-86847107D02*
X135145238Y-86870916D01*
X140616666Y-96628059D02*
X140450000Y-96389964D01*
X140330952Y-96628059D02*
X140330952Y-96128059D01*
X140330952Y-96128059D02*
X140521428Y-96128059D01*
X140521428Y-96128059D02*
X140569047Y-96151869D01*
X140569047Y-96151869D02*
X140592857Y-96175678D01*
X140592857Y-96175678D02*
X140616666Y-96223297D01*
X140616666Y-96223297D02*
X140616666Y-96294726D01*
X140616666Y-96294726D02*
X140592857Y-96342345D01*
X140592857Y-96342345D02*
X140569047Y-96366154D01*
X140569047Y-96366154D02*
X140521428Y-96389964D01*
X140521428Y-96389964D02*
X140330952Y-96389964D01*
X140783333Y-96128059D02*
X141116666Y-96128059D01*
X141116666Y-96128059D02*
X140902381Y-96628059D01*
X134616666Y-91228059D02*
X134450000Y-90989964D01*
X134330952Y-91228059D02*
X134330952Y-90728059D01*
X134330952Y-90728059D02*
X134521428Y-90728059D01*
X134521428Y-90728059D02*
X134569047Y-90751869D01*
X134569047Y-90751869D02*
X134592857Y-90775678D01*
X134592857Y-90775678D02*
X134616666Y-90823297D01*
X134616666Y-90823297D02*
X134616666Y-90894726D01*
X134616666Y-90894726D02*
X134592857Y-90942345D01*
X134592857Y-90942345D02*
X134569047Y-90966154D01*
X134569047Y-90966154D02*
X134521428Y-90989964D01*
X134521428Y-90989964D02*
X134330952Y-90989964D01*
X135045238Y-90728059D02*
X134950000Y-90728059D01*
X134950000Y-90728059D02*
X134902381Y-90751869D01*
X134902381Y-90751869D02*
X134878571Y-90775678D01*
X134878571Y-90775678D02*
X134830952Y-90847107D01*
X134830952Y-90847107D02*
X134807143Y-90942345D01*
X134807143Y-90942345D02*
X134807143Y-91132821D01*
X134807143Y-91132821D02*
X134830952Y-91180440D01*
X134830952Y-91180440D02*
X134854762Y-91204250D01*
X134854762Y-91204250D02*
X134902381Y-91228059D01*
X134902381Y-91228059D02*
X134997619Y-91228059D01*
X134997619Y-91228059D02*
X135045238Y-91204250D01*
X135045238Y-91204250D02*
X135069047Y-91180440D01*
X135069047Y-91180440D02*
X135092857Y-91132821D01*
X135092857Y-91132821D02*
X135092857Y-91013773D01*
X135092857Y-91013773D02*
X135069047Y-90966154D01*
X135069047Y-90966154D02*
X135045238Y-90942345D01*
X135045238Y-90942345D02*
X134997619Y-90918535D01*
X134997619Y-90918535D02*
X134902381Y-90918535D01*
X134902381Y-90918535D02*
X134854762Y-90942345D01*
X134854762Y-90942345D02*
X134830952Y-90966154D01*
X134830952Y-90966154D02*
X134807143Y-91013773D01*
X138128059Y-95930952D02*
X138532821Y-95930952D01*
X138532821Y-95930952D02*
X138580440Y-95907142D01*
X138580440Y-95907142D02*
X138604250Y-95883333D01*
X138604250Y-95883333D02*
X138628059Y-95835714D01*
X138628059Y-95835714D02*
X138628059Y-95740476D01*
X138628059Y-95740476D02*
X138604250Y-95692857D01*
X138604250Y-95692857D02*
X138580440Y-95669047D01*
X138580440Y-95669047D02*
X138532821Y-95645238D01*
X138532821Y-95645238D02*
X138128059Y-95645238D01*
X138175678Y-95430951D02*
X138151869Y-95407142D01*
X138151869Y-95407142D02*
X138128059Y-95359523D01*
X138128059Y-95359523D02*
X138128059Y-95240475D01*
X138128059Y-95240475D02*
X138151869Y-95192856D01*
X138151869Y-95192856D02*
X138175678Y-95169047D01*
X138175678Y-95169047D02*
X138223297Y-95145237D01*
X138223297Y-95145237D02*
X138270916Y-95145237D01*
X138270916Y-95145237D02*
X138342345Y-95169047D01*
X138342345Y-95169047D02*
X138628059Y-95454761D01*
X138628059Y-95454761D02*
X138628059Y-95145237D01*
X138619047Y-89268059D02*
X138619047Y-89672821D01*
X138619047Y-89672821D02*
X138642857Y-89720440D01*
X138642857Y-89720440D02*
X138666666Y-89744250D01*
X138666666Y-89744250D02*
X138714285Y-89768059D01*
X138714285Y-89768059D02*
X138809523Y-89768059D01*
X138809523Y-89768059D02*
X138857142Y-89744250D01*
X138857142Y-89744250D02*
X138880952Y-89720440D01*
X138880952Y-89720440D02*
X138904761Y-89672821D01*
X138904761Y-89672821D02*
X138904761Y-89268059D01*
X139357143Y-89268059D02*
X139261905Y-89268059D01*
X139261905Y-89268059D02*
X139214286Y-89291869D01*
X139214286Y-89291869D02*
X139190476Y-89315678D01*
X139190476Y-89315678D02*
X139142857Y-89387107D01*
X139142857Y-89387107D02*
X139119048Y-89482345D01*
X139119048Y-89482345D02*
X139119048Y-89672821D01*
X139119048Y-89672821D02*
X139142857Y-89720440D01*
X139142857Y-89720440D02*
X139166667Y-89744250D01*
X139166667Y-89744250D02*
X139214286Y-89768059D01*
X139214286Y-89768059D02*
X139309524Y-89768059D01*
X139309524Y-89768059D02*
X139357143Y-89744250D01*
X139357143Y-89744250D02*
X139380952Y-89720440D01*
X139380952Y-89720440D02*
X139404762Y-89672821D01*
X139404762Y-89672821D02*
X139404762Y-89553773D01*
X139404762Y-89553773D02*
X139380952Y-89506154D01*
X139380952Y-89506154D02*
X139357143Y-89482345D01*
X139357143Y-89482345D02*
X139309524Y-89458535D01*
X139309524Y-89458535D02*
X139214286Y-89458535D01*
X139214286Y-89458535D02*
X139166667Y-89482345D01*
X139166667Y-89482345D02*
X139142857Y-89506154D01*
X139142857Y-89506154D02*
X139119048Y-89553773D01*
X133578571Y-87228059D02*
X133411905Y-86989964D01*
X133292857Y-87228059D02*
X133292857Y-86728059D01*
X133292857Y-86728059D02*
X133483333Y-86728059D01*
X133483333Y-86728059D02*
X133530952Y-86751869D01*
X133530952Y-86751869D02*
X133554762Y-86775678D01*
X133554762Y-86775678D02*
X133578571Y-86823297D01*
X133578571Y-86823297D02*
X133578571Y-86894726D01*
X133578571Y-86894726D02*
X133554762Y-86942345D01*
X133554762Y-86942345D02*
X133530952Y-86966154D01*
X133530952Y-86966154D02*
X133483333Y-86989964D01*
X133483333Y-86989964D02*
X133292857Y-86989964D01*
X134054762Y-87228059D02*
X133769048Y-87228059D01*
X133911905Y-87228059D02*
X133911905Y-86728059D01*
X133911905Y-86728059D02*
X133864286Y-86799488D01*
X133864286Y-86799488D02*
X133816667Y-86847107D01*
X133816667Y-86847107D02*
X133769048Y-86870916D01*
X134245238Y-86775678D02*
X134269047Y-86751869D01*
X134269047Y-86751869D02*
X134316666Y-86728059D01*
X134316666Y-86728059D02*
X134435714Y-86728059D01*
X134435714Y-86728059D02*
X134483333Y-86751869D01*
X134483333Y-86751869D02*
X134507142Y-86775678D01*
X134507142Y-86775678D02*
X134530952Y-86823297D01*
X134530952Y-86823297D02*
X134530952Y-86870916D01*
X134530952Y-86870916D02*
X134507142Y-86942345D01*
X134507142Y-86942345D02*
X134221428Y-87228059D01*
X134221428Y-87228059D02*
X134530952Y-87228059D01*
X132516666Y-92528059D02*
X132350000Y-92289964D01*
X132230952Y-92528059D02*
X132230952Y-92028059D01*
X132230952Y-92028059D02*
X132421428Y-92028059D01*
X132421428Y-92028059D02*
X132469047Y-92051869D01*
X132469047Y-92051869D02*
X132492857Y-92075678D01*
X132492857Y-92075678D02*
X132516666Y-92123297D01*
X132516666Y-92123297D02*
X132516666Y-92194726D01*
X132516666Y-92194726D02*
X132492857Y-92242345D01*
X132492857Y-92242345D02*
X132469047Y-92266154D01*
X132469047Y-92266154D02*
X132421428Y-92289964D01*
X132421428Y-92289964D02*
X132230952Y-92289964D01*
X132683333Y-92028059D02*
X132992857Y-92028059D01*
X132992857Y-92028059D02*
X132826190Y-92218535D01*
X132826190Y-92218535D02*
X132897619Y-92218535D01*
X132897619Y-92218535D02*
X132945238Y-92242345D01*
X132945238Y-92242345D02*
X132969047Y-92266154D01*
X132969047Y-92266154D02*
X132992857Y-92313773D01*
X132992857Y-92313773D02*
X132992857Y-92432821D01*
X132992857Y-92432821D02*
X132969047Y-92480440D01*
X132969047Y-92480440D02*
X132945238Y-92504250D01*
X132945238Y-92504250D02*
X132897619Y-92528059D01*
X132897619Y-92528059D02*
X132754762Y-92528059D01*
X132754762Y-92528059D02*
X132707143Y-92504250D01*
X132707143Y-92504250D02*
X132683333Y-92480440D01*
X134216666Y-93180440D02*
X134192857Y-93204250D01*
X134192857Y-93204250D02*
X134121428Y-93228059D01*
X134121428Y-93228059D02*
X134073809Y-93228059D01*
X134073809Y-93228059D02*
X134002381Y-93204250D01*
X134002381Y-93204250D02*
X133954762Y-93156630D01*
X133954762Y-93156630D02*
X133930952Y-93109011D01*
X133930952Y-93109011D02*
X133907143Y-93013773D01*
X133907143Y-93013773D02*
X133907143Y-92942345D01*
X133907143Y-92942345D02*
X133930952Y-92847107D01*
X133930952Y-92847107D02*
X133954762Y-92799488D01*
X133954762Y-92799488D02*
X134002381Y-92751869D01*
X134002381Y-92751869D02*
X134073809Y-92728059D01*
X134073809Y-92728059D02*
X134121428Y-92728059D01*
X134121428Y-92728059D02*
X134192857Y-92751869D01*
X134192857Y-92751869D02*
X134216666Y-92775678D01*
X134383333Y-92728059D02*
X134692857Y-92728059D01*
X134692857Y-92728059D02*
X134526190Y-92918535D01*
X134526190Y-92918535D02*
X134597619Y-92918535D01*
X134597619Y-92918535D02*
X134645238Y-92942345D01*
X134645238Y-92942345D02*
X134669047Y-92966154D01*
X134669047Y-92966154D02*
X134692857Y-93013773D01*
X134692857Y-93013773D02*
X134692857Y-93132821D01*
X134692857Y-93132821D02*
X134669047Y-93180440D01*
X134669047Y-93180440D02*
X134645238Y-93204250D01*
X134645238Y-93204250D02*
X134597619Y-93228059D01*
X134597619Y-93228059D02*
X134454762Y-93228059D01*
X134454762Y-93228059D02*
X134407143Y-93204250D01*
X134407143Y-93204250D02*
X134383333Y-93180440D01*
X136283333Y-95019559D02*
X136307142Y-94995750D01*
X136307142Y-94995750D02*
X136378571Y-94971940D01*
X136378571Y-94971940D02*
X136426190Y-94971940D01*
X136426190Y-94971940D02*
X136497618Y-94995750D01*
X136497618Y-94995750D02*
X136545237Y-95043369D01*
X136545237Y-95043369D02*
X136569047Y-95090988D01*
X136569047Y-95090988D02*
X136592856Y-95186226D01*
X136592856Y-95186226D02*
X136592856Y-95257654D01*
X136592856Y-95257654D02*
X136569047Y-95352892D01*
X136569047Y-95352892D02*
X136545237Y-95400511D01*
X136545237Y-95400511D02*
X136497618Y-95448130D01*
X136497618Y-95448130D02*
X136426190Y-95471940D01*
X136426190Y-95471940D02*
X136378571Y-95471940D01*
X136378571Y-95471940D02*
X136307142Y-95448130D01*
X136307142Y-95448130D02*
X136283333Y-95424321D01*
X135854761Y-95305273D02*
X135854761Y-94971940D01*
X135973809Y-95495750D02*
X136092856Y-95138607D01*
X136092856Y-95138607D02*
X135783333Y-95138607D01*
X133619047Y-97528059D02*
X133619047Y-97932821D01*
X133619047Y-97932821D02*
X133642857Y-97980440D01*
X133642857Y-97980440D02*
X133666666Y-98004250D01*
X133666666Y-98004250D02*
X133714285Y-98028059D01*
X133714285Y-98028059D02*
X133809523Y-98028059D01*
X133809523Y-98028059D02*
X133857142Y-98004250D01*
X133857142Y-98004250D02*
X133880952Y-97980440D01*
X133880952Y-97980440D02*
X133904761Y-97932821D01*
X133904761Y-97932821D02*
X133904761Y-97528059D01*
X134404762Y-98028059D02*
X134119048Y-98028059D01*
X134261905Y-98028059D02*
X134261905Y-97528059D01*
X134261905Y-97528059D02*
X134214286Y-97599488D01*
X134214286Y-97599488D02*
X134166667Y-97647107D01*
X134166667Y-97647107D02*
X134119048Y-97670916D01*
X134119559Y-88816666D02*
X134095750Y-88792857D01*
X134095750Y-88792857D02*
X134071940Y-88721428D01*
X134071940Y-88721428D02*
X134071940Y-88673809D01*
X134071940Y-88673809D02*
X134095750Y-88602381D01*
X134095750Y-88602381D02*
X134143369Y-88554762D01*
X134143369Y-88554762D02*
X134190988Y-88530952D01*
X134190988Y-88530952D02*
X134286226Y-88507143D01*
X134286226Y-88507143D02*
X134357654Y-88507143D01*
X134357654Y-88507143D02*
X134452892Y-88530952D01*
X134452892Y-88530952D02*
X134500511Y-88554762D01*
X134500511Y-88554762D02*
X134548130Y-88602381D01*
X134548130Y-88602381D02*
X134571940Y-88673809D01*
X134571940Y-88673809D02*
X134571940Y-88721428D01*
X134571940Y-88721428D02*
X134548130Y-88792857D01*
X134548130Y-88792857D02*
X134524321Y-88816666D01*
X134571940Y-89245238D02*
X134571940Y-89150000D01*
X134571940Y-89150000D02*
X134548130Y-89102381D01*
X134548130Y-89102381D02*
X134524321Y-89078571D01*
X134524321Y-89078571D02*
X134452892Y-89030952D01*
X134452892Y-89030952D02*
X134357654Y-89007143D01*
X134357654Y-89007143D02*
X134167178Y-89007143D01*
X134167178Y-89007143D02*
X134119559Y-89030952D01*
X134119559Y-89030952D02*
X134095750Y-89054762D01*
X134095750Y-89054762D02*
X134071940Y-89102381D01*
X134071940Y-89102381D02*
X134071940Y-89197619D01*
X134071940Y-89197619D02*
X134095750Y-89245238D01*
X134095750Y-89245238D02*
X134119559Y-89269047D01*
X134119559Y-89269047D02*
X134167178Y-89292857D01*
X134167178Y-89292857D02*
X134286226Y-89292857D01*
X134286226Y-89292857D02*
X134333845Y-89269047D01*
X134333845Y-89269047D02*
X134357654Y-89245238D01*
X134357654Y-89245238D02*
X134381464Y-89197619D01*
X134381464Y-89197619D02*
X134381464Y-89102381D01*
X134381464Y-89102381D02*
X134357654Y-89054762D01*
X134357654Y-89054762D02*
X134333845Y-89030952D01*
X134333845Y-89030952D02*
X134286226Y-89007143D01*
X127326940Y-91293333D02*
X126969797Y-91293333D01*
X126969797Y-91293333D02*
X126898369Y-91269524D01*
X126898369Y-91269524D02*
X126850750Y-91221905D01*
X126850750Y-91221905D02*
X126826940Y-91150476D01*
X126826940Y-91150476D02*
X126826940Y-91102857D01*
X126826940Y-91793333D02*
X126826940Y-91507619D01*
X126826940Y-91650476D02*
X127326940Y-91650476D01*
X127326940Y-91650476D02*
X127255511Y-91602857D01*
X127255511Y-91602857D02*
X127207892Y-91555238D01*
X127207892Y-91555238D02*
X127184083Y-91507619D01*
%TO.C,J3*%
D11*
X143590000Y-95070000D02*
X143740000Y-95070000D01*
X147670000Y-86730000D02*
X146260000Y-86730000D01*
X147670000Y-95890000D02*
X146260000Y-95890000D01*
%TO.C,U2*%
X137665000Y-94440000D02*
X139135000Y-94440000D01*
X137665000Y-94465000D02*
X137665000Y-94440000D01*
X137665000Y-96660000D02*
X137665000Y-96635000D01*
X139135000Y-94440000D02*
X139135000Y-94465000D01*
X139135000Y-95335000D02*
X139135000Y-95765000D01*
X139135000Y-96635000D02*
X139135000Y-96660000D01*
X139135000Y-96660000D02*
X137665000Y-96660000D01*
X137220000Y-94460000D02*
X137080000Y-94270000D01*
X137360000Y-94270000D01*
X137220000Y-94460000D01*
G36*
X137220000Y-94460000D02*
G01*
X137080000Y-94270000D01*
X137360000Y-94270000D01*
X137220000Y-94460000D01*
G37*
%TO.C,U6*%
X136940000Y-85105000D02*
X141060000Y-85105000D01*
X136940000Y-85170000D02*
X136940000Y-85105000D01*
X136940000Y-93975000D02*
X136940000Y-93910000D01*
X141060000Y-85105000D02*
X141060000Y-85170000D01*
X141060000Y-93910000D02*
X141060000Y-93975000D01*
X141060000Y-93975000D02*
X136940000Y-93975000D01*
X141600000Y-93910000D02*
X141840000Y-94240000D01*
X141360000Y-94240000D01*
X141600000Y-93910000D01*
G36*
X141840000Y-94240000D02*
G01*
X141360000Y-94240000D01*
X141600000Y-93910000D01*
X141840000Y-94240000D01*
G37*
%TO.C,U1*%
X133294432Y-94965000D02*
X135110000Y-94965000D01*
X135110000Y-97235000D02*
X132890000Y-97235000D01*
X133000000Y-94960000D02*
X132860000Y-94770000D01*
X133140000Y-94770000D01*
X133000000Y-94960000D01*
G36*
X133000000Y-94960000D02*
G01*
X132860000Y-94770000D01*
X133140000Y-94770000D01*
X133000000Y-94960000D01*
G37*
%TO.C,J1*%
X127560000Y-86880000D02*
X128970000Y-86880000D01*
X127560000Y-96040000D02*
X128970000Y-96040000D01*
X131640000Y-87700000D02*
X131490000Y-87700000D01*
X131640000Y-88500000D02*
X131640000Y-87700000D01*
%TD*%
M02*
