M48
; DRILL file KiCad 10.0.2 date 2026-05-11T20:56:29
; FORMAT={-:-/ absolute / metric / decimal}
; #@! TF.CreationDate,2026-05-11T20:56:29+09:00
; #@! TF.GenerationSoftware,Kicad,Pcbnew,10.0.2
; #@! TF.FileFunction,Plated,1,4,PTH
FMAT,2
METRIC
; #@! TA.AperFunction,Plated,PTH,ViaDrill
T1C0.300
%
G90
G05
T1
X125.8Y-91.95
X126.3Y-96.57
X126.39Y-93.82
X126.9Y-92.0
X127.4Y-90.75
X127.75Y-86.8
X127.85Y-87.938
X127.9Y-85.25
X127.9Y-86.0
X127.9Y-92.0
X127.9Y-92.0
X128.3Y-93.245
X128.7Y-85.25
X128.78Y-86.8
X129.3Y-89.9
X129.3Y-90.799
X130.23Y-96.57
X130.805Y-88.26
X130.805Y-94.66
X131.2Y-86.2
X131.2Y-87.4
X131.64Y-88.852
X131.83Y-94.67
X131.9Y-90.392
X132.3Y-91.45
X132.445Y-96.35
X132.591Y-86.663
X132.603Y-87.363
X132.682Y-94.193
X132.801Y-85.996
X133.045Y-91.5
X133.272Y-85.25
X133.4Y-94.9
X133.795Y-91.007
X133.801Y-90.307
X134.0Y-95.75
X134.0Y-96.45
X134.151Y-88.057
X134.8Y-86.4
X134.8Y-87.6
X134.9Y-88.7
X134.9Y-93.1
X135.098Y-94.775
X136.525Y-86.25
X136.525Y-88.27
X136.525Y-89.54
X136.61Y-93.82
X137.125Y-87.0
X137.562Y-95.55
X138.0Y-97.1
X138.2Y-88.0
X138.2Y-88.8
X138.722Y-94.2
X139.1Y-90.86
X139.644Y-93.0
X139.8Y-88.0
X139.8Y-88.8
X140.051Y-91.01
X140.74Y-95.729
X140.9Y-94.15
X141.36Y-95.009
X141.475Y-85.73
X141.475Y-87.0
X141.475Y-89.54
X141.475Y-93.35
X142.868Y-93.0
X143.2Y-85.25
X143.22Y-97.0
X143.3Y-88.4
X143.378Y-91.302
X143.4Y-92.45
X143.487Y-90.51
X143.55Y-87.071
X144.425Y-93.71
X145.0Y-86.2
X146.7Y-93.7
X146.9Y-91.4
X147.4Y-89.2
X148.8Y-94.65
X148.8Y-98.05
X148.93Y-86.2
X149.1Y-93.7
X149.2Y-88.4
X149.2Y-89.2
M30
