%TF.GenerationSoftware,KiCad,Pcbnew,10.0.2*%
%TF.CreationDate,2026-05-11T20:56:31+09:00*%
%TF.ProjectId,ammeter,616d6d65-7465-4722-9e6b-696361645f70,rev?*%
%TF.SameCoordinates,Original*%
%TF.FileFunction,Copper,L3,Inr*%
%TF.FilePolarity,Positive*%
%FSLAX46Y46*%
G04 Gerber Fmt 4.6, Leading zero omitted, Abs format (unit mm)*
G04 Created by KiCad (PCBNEW 10.0.2) date 2026-05-11 20:56:31*
%MOMM*%
%LPD*%
G01*
G04 APERTURE LIST*
%TA.AperFunction,ViaPad*%
%ADD10C,0.500000*%
%TD*%
%TA.AperFunction,Conductor*%
%ADD11C,0.200000*%
%TD*%
G04 APERTURE END LIST*
D10*
%TO.N,GND*%
X127850000Y-87937500D03*
X138000000Y-97100000D03*
X131200000Y-87400000D03*
X148800000Y-98050000D03*
X129300000Y-90798891D03*
X136610000Y-93820000D03*
X130805000Y-94660000D03*
X145000000Y-86200000D03*
X146900000Y-91400000D03*
X137562500Y-95550000D03*
X126300000Y-96570000D03*
X130805000Y-88260000D03*
X134000000Y-95750000D03*
X148930000Y-86200000D03*
X146700000Y-93700000D03*
X139100000Y-90860000D03*
X128300000Y-93245000D03*
X148800000Y-94650000D03*
X134900000Y-93100000D03*
X147400000Y-89200000D03*
X143200000Y-85250000D03*
X129300000Y-89900000D03*
X126390000Y-93820000D03*
X131200000Y-86200000D03*
X130230000Y-96570000D03*
X134000000Y-96450000D03*
X125800000Y-91950000D03*
X127400000Y-90750000D03*
X132801318Y-85995819D03*
X149200000Y-88400000D03*
%TO.N,/ref*%
X144425000Y-93710000D03*
X139800000Y-88800000D03*
X139800000Y-88000000D03*
X143300000Y-88400000D03*
%TO.N,Net-(J1-CC1)*%
X131900000Y-90392197D03*
X143400000Y-92450000D03*
%TO.N,Net-(J1-D+-PadA6)*%
X133044891Y-91500000D03*
X143487486Y-90509965D03*
%TO.N,Net-(J1-D--PadA7)*%
X143378413Y-91302495D03*
X132300000Y-91449558D03*
%TO.N,Net-(J1-CC2)*%
X135097523Y-94775000D03*
X142868480Y-92999999D03*
%TO.N,/SDA*%
X136525000Y-86250000D03*
X141360000Y-95008530D03*
%TO.N,+3V3*%
X127750000Y-86800000D03*
X132444923Y-96349999D03*
X149200000Y-89200000D03*
X126900000Y-92000000D03*
X133272183Y-85249999D03*
X139643503Y-92999999D03*
X138722183Y-94200000D03*
X134900000Y-88700000D03*
X133400000Y-94900000D03*
X127900000Y-92000000D03*
X128780000Y-86800000D03*
X149100000Y-93700000D03*
X141475000Y-93350000D03*
X127900000Y-92000000D03*
X143220000Y-97000000D03*
%TO.N,/sw2*%
X141475000Y-89540000D03*
%TO.N,/sw1*%
X143550040Y-87070666D03*
%TO.N,/Rx3*%
X141475000Y-87000000D03*
%TO.N,/Tx2*%
X141475000Y-85730000D03*
%TO.N,/SCL*%
X140900000Y-94150000D03*
X137125000Y-87000000D03*
%TO.N,/UPDI*%
X136525000Y-88270000D03*
X134800000Y-86400000D03*
%TO.N,/V0*%
X136525000Y-89540000D03*
%TO.N,VBUS*%
X128700000Y-85250000D03*
X138200000Y-88800000D03*
X131640211Y-88851694D03*
X131829999Y-94670000D03*
X138200000Y-88000000D03*
X127900000Y-85250000D03*
X127900000Y-86000000D03*
%TO.N,/Tx*%
X133800702Y-90306627D03*
X132602783Y-87363335D03*
%TO.N,/Rx*%
X132590859Y-86663434D03*
X133795442Y-91006610D03*
%TO.N,Net-(U2--)*%
X140051381Y-91009999D03*
%TO.N,Net-(IC1-DB+)*%
X134800000Y-87600000D03*
%TO.N,Net-(IC1-OEN)*%
X134150509Y-88057145D03*
%TO.N,Net-(J2-CC1)*%
X132682028Y-94192781D03*
%TO.N,Net-(U5-IREF)*%
X140740001Y-95729305D03*
%TD*%
%TO.N,Net-(J1-CC2)*%
D11*
X142868480Y-94378644D02*
X140967819Y-96279305D01*
X136601828Y-96279305D02*
X135097523Y-94775000D01*
X142868480Y-92999999D02*
X142868480Y-94378644D01*
X140967819Y-96279305D02*
X136601828Y-96279305D01*
%TO.N,/SDA*%
X137125000Y-87925000D02*
X137125000Y-91824999D01*
X137125000Y-91824999D02*
X140050001Y-94750000D01*
X140050001Y-94750000D02*
X141101470Y-94750000D01*
X136525000Y-86250000D02*
X136525000Y-87325000D01*
X136525000Y-87325000D02*
X137125000Y-87925000D01*
X141101470Y-94750000D02*
X141360000Y-95008530D01*
%TO.N,/SCL*%
X140900000Y-94150000D02*
X140015686Y-94150000D01*
X137525000Y-87759314D02*
X137125000Y-87359314D01*
X137125000Y-87359314D02*
X137125000Y-87000000D01*
X140015686Y-94150000D02*
X137525000Y-91659314D01*
X137525000Y-91659314D02*
X137525000Y-87759314D01*
%TO.N,/UPDI*%
X134800000Y-86545000D02*
X136525000Y-88270000D01*
X134800000Y-86400000D02*
X134800000Y-86545000D01*
%TO.N,/Tx*%
X133800702Y-90306627D02*
X132602783Y-89108708D01*
X132602783Y-89108708D02*
X132602783Y-87363335D01*
%TO.N,/Rx*%
X133795442Y-91006610D02*
X133878537Y-91006610D01*
X132052783Y-87650000D02*
X132052783Y-87135517D01*
X133722867Y-91006610D02*
X132202783Y-89486526D01*
X132202783Y-89486526D02*
X132202783Y-87800000D01*
X132052783Y-87135517D02*
X132524866Y-86663434D01*
X132202783Y-87800000D02*
X132052783Y-87650000D01*
X133795442Y-91006610D02*
X133722867Y-91006610D01*
X132524866Y-86663434D02*
X132590859Y-86663434D01*
X132680700Y-86663434D02*
X132590859Y-86663434D01*
%TD*%
%TA.AperFunction,Conductor*%
%TO.N,/ref*%
G36*
X143815677Y-87619685D02*
G01*
X143836319Y-87636319D01*
X144963666Y-88763666D01*
X144997151Y-88824989D01*
X144999985Y-88851382D01*
X144998571Y-93884307D01*
X144996879Y-93892720D01*
X144997810Y-93897988D01*
X144992680Y-93913612D01*
X144988954Y-93932153D01*
X144985903Y-93939440D01*
X144963719Y-93977865D01*
X144952869Y-94018355D01*
X144949640Y-94026071D01*
X144932671Y-94046967D01*
X144918664Y-94069946D01*
X144910981Y-94073677D01*
X144905596Y-94080310D01*
X144880023Y-94088715D01*
X144855816Y-94100474D01*
X144840329Y-94101762D01*
X144839220Y-94102127D01*
X144838424Y-94101920D01*
X144835188Y-94102190D01*
X143921323Y-94101681D01*
X143854294Y-94081959D01*
X143808569Y-94029130D01*
X143797392Y-93977612D01*
X143797428Y-93913612D01*
X143798107Y-92694608D01*
X143814722Y-92632677D01*
X143819799Y-92623886D01*
X143850500Y-92509309D01*
X143850500Y-92390691D01*
X143819799Y-92276114D01*
X143814991Y-92267786D01*
X143798379Y-92205723D01*
X143798778Y-91490510D01*
X143803002Y-91458503D01*
X143828913Y-91361804D01*
X143828913Y-91243186D01*
X143803211Y-91147267D01*
X143798988Y-91115115D01*
X143799115Y-90886726D01*
X143818836Y-90819703D01*
X143835426Y-90799126D01*
X143847975Y-90786578D01*
X143907285Y-90683851D01*
X143937986Y-90569274D01*
X143937986Y-90450656D01*
X143907285Y-90336079D01*
X143847975Y-90233352D01*
X143835853Y-90221230D01*
X143802368Y-90159907D01*
X143799535Y-90133492D01*
X143800000Y-89300000D01*
X141923465Y-89300000D01*
X141856426Y-89280315D01*
X141835784Y-89263682D01*
X141751612Y-89179510D01*
X141700249Y-89149856D01*
X141648886Y-89120201D01*
X141534309Y-89089500D01*
X141415691Y-89089500D01*
X141301114Y-89120201D01*
X141301112Y-89120201D01*
X141301112Y-89120202D01*
X141198387Y-89179510D01*
X141114216Y-89263682D01*
X141052892Y-89297166D01*
X141026535Y-89300000D01*
X139424000Y-89300000D01*
X139356961Y-89280315D01*
X139311206Y-89227511D01*
X139300000Y-89176000D01*
X139300000Y-87724000D01*
X139319685Y-87656961D01*
X139372489Y-87611206D01*
X139424000Y-87600000D01*
X143748638Y-87600000D01*
X143815677Y-87619685D01*
G37*
%TD.AperFunction*%
%TD*%
%TA.AperFunction,Conductor*%
%TO.N,VBUS*%
G36*
X132728147Y-85005521D02*
G01*
X132741466Y-85009432D01*
X132756461Y-85019069D01*
X132773567Y-85024091D01*
X132785244Y-85037566D01*
X132800244Y-85047206D01*
X132807649Y-85063421D01*
X132819324Y-85076893D01*
X132829269Y-85110757D01*
X132830479Y-85119170D01*
X132827518Y-85168912D01*
X132821683Y-85190690D01*
X132821683Y-85309308D01*
X132825198Y-85322425D01*
X132838842Y-85373349D01*
X132842326Y-85402491D01*
X132843031Y-85408389D01*
X132842695Y-85422515D01*
X132821422Y-85489067D01*
X132768226Y-85533259D01*
X132746627Y-85542662D01*
X132729225Y-85548744D01*
X132643200Y-85571795D01*
X132626585Y-85573982D01*
X132613292Y-85584183D01*
X132524704Y-85635330D01*
X132524696Y-85635336D01*
X132440835Y-85719197D01*
X132440831Y-85719202D01*
X132394471Y-85799500D01*
X132381519Y-85821933D01*
X132350818Y-85936510D01*
X132350818Y-85936512D01*
X132350818Y-86055128D01*
X132374182Y-86142326D01*
X132374183Y-86142328D01*
X132378373Y-86177373D01*
X132378001Y-86193000D01*
X132356728Y-86259550D01*
X132351759Y-86266892D01*
X132317704Y-86298613D01*
X132318604Y-86299904D01*
X132314249Y-86302941D01*
X132314242Y-86302947D01*
X132314229Y-86302959D01*
X132230376Y-86386812D01*
X132230372Y-86386817D01*
X132230366Y-86386826D01*
X132176989Y-86479279D01*
X132171062Y-86489544D01*
X132171059Y-86489551D01*
X132146286Y-86582006D01*
X132133897Y-86611914D01*
X132118129Y-86639224D01*
X132098424Y-86664903D01*
X131868272Y-86895057D01*
X131812328Y-86950999D01*
X131812323Y-86951004D01*
X131812313Y-86951020D01*
X131772770Y-87019510D01*
X131772760Y-87019530D01*
X131766156Y-87044179D01*
X131752261Y-87076625D01*
X131745039Y-87088473D01*
X131693338Y-87135470D01*
X131624436Y-87147056D01*
X131622822Y-87146863D01*
X131568039Y-87126428D01*
X131563889Y-87123619D01*
X131545714Y-87108612D01*
X131476615Y-87039513D01*
X131476613Y-87039511D01*
X131373886Y-86980201D01*
X131259309Y-86949500D01*
X131259306Y-86949500D01*
X131140691Y-86949500D01*
X131049728Y-86973873D01*
X131049723Y-86973874D01*
X131026114Y-86980201D01*
X131026112Y-86980201D01*
X131026112Y-86980202D01*
X131004947Y-86992421D01*
X131004939Y-86992425D01*
X130923386Y-87039511D01*
X130923378Y-87039517D01*
X130839517Y-87123378D01*
X130839513Y-87123383D01*
X130839512Y-87123385D01*
X130839511Y-87123387D01*
X130806709Y-87180202D01*
X130780201Y-87226114D01*
X130749500Y-87340691D01*
X130749500Y-87459309D01*
X130755146Y-87480381D01*
X130773666Y-87549498D01*
X130780201Y-87573888D01*
X130791199Y-87592937D01*
X130802996Y-87613370D01*
X130803670Y-87614536D01*
X130809023Y-87627907D01*
X130816786Y-87647299D01*
X130817888Y-87651840D01*
X130820059Y-87660786D01*
X130816736Y-87730577D01*
X130776209Y-87787492D01*
X130776200Y-87787499D01*
X130769518Y-87792753D01*
X130724969Y-87815051D01*
X130670666Y-87829602D01*
X130646884Y-87835975D01*
X130630267Y-87838163D01*
X130616974Y-87848364D01*
X130528386Y-87899511D01*
X130528378Y-87899517D01*
X130444517Y-87983378D01*
X130444513Y-87983383D01*
X130444504Y-87983397D01*
X130385200Y-88086113D01*
X130385199Y-88086117D01*
X130385199Y-88086119D01*
X130376675Y-88117926D01*
X130362785Y-88150361D01*
X130355564Y-88162209D01*
X130342365Y-88174208D01*
X130340307Y-88177585D01*
X130336752Y-88179311D01*
X130303866Y-88209210D01*
X130234964Y-88220800D01*
X130234957Y-88220799D01*
X130233343Y-88220606D01*
X130178560Y-88200171D01*
X130174410Y-88197362D01*
X130156235Y-88182355D01*
X130083367Y-88109487D01*
X130083365Y-88109485D01*
X130009142Y-88066632D01*
X129952136Y-88033719D01*
X129878950Y-88014109D01*
X129878949Y-88014108D01*
X129805767Y-87994500D01*
X129805766Y-87994500D01*
X129654234Y-87994500D01*
X129507859Y-88033720D01*
X129507857Y-88033721D01*
X129376645Y-88109478D01*
X129376631Y-88109487D01*
X129376626Y-88109491D01*
X129269491Y-88216626D01*
X129269487Y-88216631D01*
X129269478Y-88216645D01*
X129193721Y-88347857D01*
X129193720Y-88347860D01*
X129193719Y-88347862D01*
X129193719Y-88347863D01*
X129167990Y-88443887D01*
X129167989Y-88443886D01*
X129154500Y-88494230D01*
X129154500Y-88645766D01*
X129166466Y-88690427D01*
X129166470Y-88690440D01*
X129167693Y-88695002D01*
X129193719Y-88792136D01*
X129209691Y-88819799D01*
X129269485Y-88923365D01*
X129376635Y-89030515D01*
X129507865Y-89106281D01*
X129654234Y-89145500D01*
X129654236Y-89145500D01*
X129805764Y-89145500D01*
X129805766Y-89145500D01*
X129952135Y-89106281D01*
X130083365Y-89030515D01*
X130190515Y-88923365D01*
X130266281Y-88792135D01*
X130297744Y-88674711D01*
X130311632Y-88642279D01*
X130318860Y-88630421D01*
X130370559Y-88583427D01*
X130439401Y-88571834D01*
X130441021Y-88572027D01*
X130495853Y-88592466D01*
X130500013Y-88595281D01*
X130518184Y-88610286D01*
X130528387Y-88620489D01*
X130631114Y-88679799D01*
X130745691Y-88710500D01*
X130745694Y-88710500D01*
X130864306Y-88710500D01*
X130864309Y-88710500D01*
X130978886Y-88679799D01*
X131081613Y-88620489D01*
X131165489Y-88536613D01*
X131224799Y-88433886D01*
X131255500Y-88319309D01*
X131255500Y-88200691D01*
X131224799Y-88086114D01*
X131201326Y-88045460D01*
X131188212Y-88012702D01*
X131184939Y-87999212D01*
X131188262Y-87929422D01*
X131228785Y-87872510D01*
X131235485Y-87867241D01*
X131280027Y-87844948D01*
X131373886Y-87819799D01*
X131476613Y-87760489D01*
X131544544Y-87692557D01*
X131572794Y-87671408D01*
X131584977Y-87664756D01*
X131653248Y-87649906D01*
X131718712Y-87674324D01*
X131718713Y-87674324D01*
X131721243Y-87676218D01*
X131763113Y-87732152D01*
X131766705Y-87743386D01*
X131772762Y-87765989D01*
X131803829Y-87819799D01*
X131812323Y-87834511D01*
X131812325Y-87834513D01*
X131858568Y-87880756D01*
X131863214Y-87887713D01*
X131867472Y-87890672D01*
X131875643Y-87906323D01*
X131885468Y-87921033D01*
X131888029Y-87927224D01*
X131888871Y-87930103D01*
X131890312Y-87932743D01*
X131892864Y-87938910D01*
X131894802Y-87957016D01*
X131902283Y-87986314D01*
X131902283Y-89526089D01*
X131911499Y-89560486D01*
X131911500Y-89560486D01*
X131922762Y-89602517D01*
X131930920Y-89616648D01*
X131930924Y-89616652D01*
X131938415Y-89629628D01*
X131950396Y-89650378D01*
X131950466Y-89650500D01*
X131950468Y-89650503D01*
X131962322Y-89671035D01*
X131962324Y-89671038D01*
X132011228Y-89719942D01*
X132014623Y-89724848D01*
X132017526Y-89726728D01*
X132036508Y-89756480D01*
X132039790Y-89763729D01*
X132049506Y-89832918D01*
X132020273Y-89896378D01*
X131970175Y-89931044D01*
X131962593Y-89933873D01*
X131919245Y-89941697D01*
X131840691Y-89941697D01*
X131749728Y-89966070D01*
X131749723Y-89966071D01*
X131726114Y-89972398D01*
X131726112Y-89972398D01*
X131726112Y-89972399D01*
X131704947Y-89984618D01*
X131704939Y-89984622D01*
X131623386Y-90031708D01*
X131623378Y-90031714D01*
X131539517Y-90115575D01*
X131539513Y-90115580D01*
X131539512Y-90115582D01*
X131539511Y-90115584D01*
X131504276Y-90176613D01*
X131504275Y-90176615D01*
X131480201Y-90218309D01*
X131470118Y-90255940D01*
X131449500Y-90332888D01*
X131449500Y-90451506D01*
X131480201Y-90566083D01*
X131539511Y-90668810D01*
X131623387Y-90752686D01*
X131726114Y-90811996D01*
X131840691Y-90842697D01*
X131840694Y-90842697D01*
X131959145Y-90842697D01*
X131959307Y-90842697D01*
X131959309Y-90842697D01*
X131965384Y-90841069D01*
X131984651Y-90841527D01*
X132003381Y-90836984D01*
X132018857Y-90842340D01*
X132035233Y-90842730D01*
X132051193Y-90853532D01*
X132069407Y-90859836D01*
X132079532Y-90872712D01*
X132082870Y-90874971D01*
X132090983Y-90826729D01*
X132137983Y-90775030D01*
X132140519Y-90773525D01*
X132144366Y-90771304D01*
X132176613Y-90752686D01*
X132260489Y-90668810D01*
X132319799Y-90566083D01*
X132350500Y-90451506D01*
X132350500Y-90376405D01*
X132355521Y-90341478D01*
X132358707Y-90330625D01*
X132396477Y-90271844D01*
X132460031Y-90242815D01*
X132529186Y-90252753D01*
X132536172Y-90255943D01*
X132572342Y-90281056D01*
X133116497Y-90825211D01*
X133129612Y-90842730D01*
X133137646Y-90853461D01*
X133143067Y-90863388D01*
X133157921Y-90931661D01*
X133133507Y-90997126D01*
X133077575Y-91038999D01*
X133077571Y-91039001D01*
X133070383Y-91041682D01*
X133027049Y-91049500D01*
X132985582Y-91049500D01*
X132888527Y-91075506D01*
X132871001Y-91080202D01*
X132787166Y-91128605D01*
X132768383Y-91137443D01*
X132742003Y-91147252D01*
X132672314Y-91152168D01*
X132672308Y-91152166D01*
X132672306Y-91152167D01*
X132672303Y-91152165D01*
X132666104Y-91150811D01*
X132604895Y-91117351D01*
X132576615Y-91089071D01*
X132576613Y-91089069D01*
X132473886Y-91029759D01*
X132359309Y-90999058D01*
X132359306Y-90999058D01*
X132240686Y-90999058D01*
X132234610Y-91000687D01*
X132164761Y-90999023D01*
X132117594Y-90967099D01*
X132119238Y-90984312D01*
X132111732Y-90998869D01*
X132109017Y-91015022D01*
X132096052Y-91029283D01*
X132087221Y-91046414D01*
X132063581Y-91065003D01*
X132062019Y-91066723D01*
X132059478Y-91068231D01*
X132054519Y-91071094D01*
X132054458Y-91071127D01*
X132023393Y-91089064D01*
X132023386Y-91089069D01*
X131939513Y-91172941D01*
X131898957Y-91243186D01*
X131880201Y-91275672D01*
X131849500Y-91390249D01*
X131849500Y-91508867D01*
X131880201Y-91623444D01*
X131939511Y-91726171D01*
X132023387Y-91810047D01*
X132126114Y-91869357D01*
X132240691Y-91900058D01*
X132240694Y-91900058D01*
X132359306Y-91900058D01*
X132359309Y-91900058D01*
X132473886Y-91869357D01*
X132555487Y-91822244D01*
X132572699Y-91814003D01*
X132585433Y-91809071D01*
X132585434Y-91809072D01*
X132601393Y-91802890D01*
X132671004Y-91797035D01*
X132676961Y-91798253D01*
X132725792Y-91819994D01*
X132725953Y-91820112D01*
X132739961Y-91832172D01*
X132768278Y-91860489D01*
X132871005Y-91919799D01*
X132985582Y-91950500D01*
X132985585Y-91950500D01*
X133104197Y-91950500D01*
X133104200Y-91950500D01*
X133218777Y-91919799D01*
X133321504Y-91860489D01*
X133405380Y-91776613D01*
X133464690Y-91673886D01*
X133495391Y-91559309D01*
X133495391Y-91559303D01*
X133495495Y-91558915D01*
X133499313Y-91540843D01*
X133504326Y-91523771D01*
X133542102Y-91464998D01*
X133605656Y-91435976D01*
X133614073Y-91434766D01*
X133663806Y-91437730D01*
X133677533Y-91441408D01*
X133736133Y-91457110D01*
X133736135Y-91457110D01*
X133854748Y-91457110D01*
X133854751Y-91457110D01*
X133969328Y-91426409D01*
X134072055Y-91367099D01*
X134155931Y-91283223D01*
X134215241Y-91180496D01*
X134245942Y-91065919D01*
X134245942Y-90947301D01*
X134215241Y-90832724D01*
X134167120Y-90749377D01*
X134158859Y-90732112D01*
X134152594Y-90715912D01*
X134148117Y-90704338D01*
X134147222Y-90693627D01*
X134142294Y-90634719D01*
X134144215Y-90625345D01*
X134158304Y-90588240D01*
X134171097Y-90566083D01*
X134220501Y-90480513D01*
X134251202Y-90365936D01*
X134251202Y-90247318D01*
X134220501Y-90132741D01*
X134161191Y-90030014D01*
X134077315Y-89946138D01*
X133974588Y-89886828D01*
X133860011Y-89856127D01*
X133860008Y-89856127D01*
X133844365Y-89856127D01*
X133844364Y-89856126D01*
X133844364Y-89856127D01*
X133809429Y-89851104D01*
X133784187Y-89843692D01*
X133731442Y-89812396D01*
X132952209Y-89033163D01*
X132931057Y-89004907D01*
X132918450Y-88981818D01*
X132903283Y-88922393D01*
X132903283Y-87769128D01*
X132908305Y-87734195D01*
X132908905Y-87732152D01*
X132915717Y-87708950D01*
X132947021Y-87656198D01*
X132951380Y-87651840D01*
X132963272Y-87639948D01*
X133022582Y-87537221D01*
X133053283Y-87422644D01*
X133053283Y-87304026D01*
X133022582Y-87189449D01*
X133022580Y-87189446D01*
X133022580Y-87189444D01*
X133022579Y-87189443D01*
X132965124Y-87089930D01*
X132962177Y-87084826D01*
X132962176Y-87084824D01*
X132962151Y-87084782D01*
X132961010Y-87082804D01*
X132952765Y-87065563D01*
X132951155Y-87061399D01*
X132946517Y-87049403D01*
X132940702Y-86979779D01*
X132943439Y-86966432D01*
X132957522Y-86929353D01*
X132977323Y-86895057D01*
X133010658Y-86837320D01*
X133041359Y-86722743D01*
X133041359Y-86604125D01*
X133017991Y-86516918D01*
X133013802Y-86481875D01*
X133013864Y-86479279D01*
X133014174Y-86466248D01*
X133014471Y-86465320D01*
X133035442Y-86399708D01*
X133040414Y-86392361D01*
X133072459Y-86362535D01*
X133071479Y-86361258D01*
X133077923Y-86356312D01*
X133077931Y-86356308D01*
X133161807Y-86272432D01*
X133221117Y-86169705D01*
X133251818Y-86055128D01*
X133251818Y-85936510D01*
X133234656Y-85872464D01*
X133230467Y-85837422D01*
X133230803Y-85823302D01*
X133252077Y-85756752D01*
X133305272Y-85712561D01*
X133324112Y-85704361D01*
X133324111Y-85704359D01*
X133326900Y-85703146D01*
X133344282Y-85697071D01*
X133442736Y-85670691D01*
X141024500Y-85670691D01*
X141024500Y-85789309D01*
X141055201Y-85903886D01*
X141114511Y-86006613D01*
X141198387Y-86090489D01*
X141301114Y-86149799D01*
X141415691Y-86180500D01*
X141415694Y-86180500D01*
X141534306Y-86180500D01*
X141534309Y-86180500D01*
X141648886Y-86149799D01*
X141664661Y-86140691D01*
X144549500Y-86140691D01*
X144549500Y-86259309D01*
X144580201Y-86373886D01*
X144639511Y-86476613D01*
X144723387Y-86560489D01*
X144826114Y-86619799D01*
X144940691Y-86650500D01*
X144940694Y-86650500D01*
X145059306Y-86650500D01*
X145059309Y-86650500D01*
X145173886Y-86619799D01*
X145276613Y-86560489D01*
X145360489Y-86476613D01*
X145419799Y-86373886D01*
X145450500Y-86259309D01*
X145450500Y-86140691D01*
X145419799Y-86026114D01*
X145360489Y-85923387D01*
X145276613Y-85839511D01*
X145173886Y-85780201D01*
X145059309Y-85749500D01*
X145059306Y-85749500D01*
X144940691Y-85749500D01*
X144849728Y-85773873D01*
X144849723Y-85773874D01*
X144826114Y-85780201D01*
X144826112Y-85780201D01*
X144826112Y-85780202D01*
X144804947Y-85792421D01*
X144804939Y-85792425D01*
X144723386Y-85839511D01*
X144723378Y-85839517D01*
X144639517Y-85923378D01*
X144639513Y-85923383D01*
X144639507Y-85923392D01*
X144598356Y-85994668D01*
X144598354Y-85994671D01*
X144591461Y-86006612D01*
X144580201Y-86026114D01*
X144549500Y-86140691D01*
X141664661Y-86140691D01*
X141751613Y-86090489D01*
X141835489Y-86006613D01*
X141894799Y-85903886D01*
X141925500Y-85789309D01*
X141925500Y-85670691D01*
X141894799Y-85556114D01*
X141835489Y-85453387D01*
X141751613Y-85369511D01*
X141648886Y-85310201D01*
X141534309Y-85279500D01*
X141534306Y-85279500D01*
X141415691Y-85279500D01*
X141324728Y-85303873D01*
X141324723Y-85303874D01*
X141301114Y-85310201D01*
X141301112Y-85310201D01*
X141301112Y-85310202D01*
X141279947Y-85322421D01*
X141279939Y-85322425D01*
X141198386Y-85369511D01*
X141198378Y-85369517D01*
X141114517Y-85453378D01*
X141114513Y-85453383D01*
X141114507Y-85453392D01*
X141061436Y-85545315D01*
X141055203Y-85556110D01*
X141055199Y-85556119D01*
X141040631Y-85610488D01*
X141024500Y-85670691D01*
X133442736Y-85670691D01*
X133446069Y-85669798D01*
X133548796Y-85610488D01*
X133632672Y-85526612D01*
X133691982Y-85423885D01*
X133722683Y-85309308D01*
X133722683Y-85190690D01*
X133718159Y-85173808D01*
X133713970Y-85138769D01*
X133714300Y-85124896D01*
X133735574Y-85058345D01*
X133789450Y-85013859D01*
X133797275Y-85010509D01*
X133846082Y-85000500D01*
X142621032Y-85000500D01*
X142655964Y-85005521D01*
X142669283Y-85009432D01*
X142684281Y-85019071D01*
X142701385Y-85024093D01*
X142713060Y-85037565D01*
X142728061Y-85047206D01*
X142735467Y-85063422D01*
X142747142Y-85076895D01*
X142757086Y-85110759D01*
X142758296Y-85119173D01*
X142755335Y-85168913D01*
X142749500Y-85190691D01*
X142749500Y-85309309D01*
X142780201Y-85423886D01*
X142839511Y-85526613D01*
X142923387Y-85610489D01*
X143026114Y-85669799D01*
X143140691Y-85700500D01*
X143140694Y-85700500D01*
X143259306Y-85700500D01*
X143259309Y-85700500D01*
X143373886Y-85669799D01*
X143476613Y-85610489D01*
X143560489Y-85526613D01*
X143619799Y-85423886D01*
X143650500Y-85309309D01*
X143650500Y-85190691D01*
X143645976Y-85173809D01*
X143641787Y-85138770D01*
X143641787Y-85138769D01*
X143642117Y-85124894D01*
X143663390Y-85058345D01*
X143717265Y-85013860D01*
X143722867Y-85011461D01*
X143725104Y-85010504D01*
X143773899Y-85000500D01*
X149357670Y-85000500D01*
X149392606Y-85005523D01*
X149407604Y-85009927D01*
X149422594Y-85019557D01*
X149439675Y-85024567D01*
X149466355Y-85047672D01*
X149467542Y-85049041D01*
X149495018Y-85103902D01*
X149496663Y-85111460D01*
X149499500Y-85137831D01*
X149499500Y-85815206D01*
X149494476Y-85850144D01*
X149491289Y-85860997D01*
X149481651Y-85875992D01*
X149476631Y-85893094D01*
X149463156Y-85904770D01*
X149453514Y-85919774D01*
X149437298Y-85927178D01*
X149423829Y-85938851D01*
X149406178Y-85941389D01*
X149389957Y-85948797D01*
X149372313Y-85946260D01*
X149354671Y-85948798D01*
X149320808Y-85938856D01*
X149313829Y-85935669D01*
X149277657Y-85910555D01*
X149206615Y-85839513D01*
X149206613Y-85839511D01*
X149103886Y-85780201D01*
X148989309Y-85749500D01*
X148989306Y-85749500D01*
X148870691Y-85749500D01*
X148779728Y-85773873D01*
X148779723Y-85773874D01*
X148756114Y-85780201D01*
X148756112Y-85780201D01*
X148756112Y-85780202D01*
X148734947Y-85792421D01*
X148734939Y-85792425D01*
X148653386Y-85839511D01*
X148653378Y-85839517D01*
X148569517Y-85923378D01*
X148569513Y-85923383D01*
X148569507Y-85923392D01*
X148529652Y-85992425D01*
X148521461Y-86006612D01*
X148510201Y-86026114D01*
X148479500Y-86140691D01*
X148479500Y-86259309D01*
X148510201Y-86373886D01*
X148569511Y-86476613D01*
X148653387Y-86560489D01*
X148756114Y-86619799D01*
X148870691Y-86650500D01*
X148870694Y-86650500D01*
X148989306Y-86650500D01*
X148989309Y-86650500D01*
X149103886Y-86619799D01*
X149206613Y-86560489D01*
X149275217Y-86491884D01*
X149303457Y-86470743D01*
X149313391Y-86465319D01*
X149381661Y-86450466D01*
X149447126Y-86474880D01*
X149488999Y-86530812D01*
X149491682Y-86538004D01*
X149499500Y-86581338D01*
X149499500Y-87834429D01*
X149494475Y-87869370D01*
X149490564Y-87882687D01*
X149480926Y-87897681D01*
X149475905Y-87914784D01*
X149462428Y-87926461D01*
X149452787Y-87941463D01*
X149436571Y-87948868D01*
X149423102Y-87960540D01*
X149389238Y-87970484D01*
X149380823Y-87971694D01*
X149331082Y-87968731D01*
X149300321Y-87960489D01*
X149300320Y-87960488D01*
X149259310Y-87949500D01*
X149259309Y-87949500D01*
X149140691Y-87949500D01*
X149049728Y-87973873D01*
X149049723Y-87973874D01*
X149026114Y-87980201D01*
X149026112Y-87980201D01*
X149026112Y-87980202D01*
X149004947Y-87992421D01*
X149004939Y-87992425D01*
X148923386Y-88039511D01*
X148923378Y-88039517D01*
X148839517Y-88123378D01*
X148839511Y-88123386D01*
X148780675Y-88225293D01*
X148780659Y-88225321D01*
X148780203Y-88226110D01*
X148780202Y-88226111D01*
X148780201Y-88226113D01*
X148780201Y-88226114D01*
X148749500Y-88340691D01*
X148749500Y-88459309D01*
X148780201Y-88573886D01*
X148839511Y-88676613D01*
X148839513Y-88676615D01*
X148862610Y-88699712D01*
X148883761Y-88727967D01*
X148891253Y-88741688D01*
X148906105Y-88809948D01*
X148905976Y-88811754D01*
X148886603Y-88869964D01*
X148882422Y-88876469D01*
X148865791Y-88897105D01*
X148839515Y-88923380D01*
X148839510Y-88923387D01*
X148822858Y-88952230D01*
X148808780Y-88976615D01*
X148780201Y-89026114D01*
X148749500Y-89140691D01*
X148749500Y-89259309D01*
X148780201Y-89373886D01*
X148839511Y-89476613D01*
X148923387Y-89560489D01*
X149026114Y-89619799D01*
X149140691Y-89650500D01*
X149140694Y-89650500D01*
X149259306Y-89650500D01*
X149259309Y-89650500D01*
X149326192Y-89632578D01*
X149361227Y-89628389D01*
X149375102Y-89628719D01*
X149441654Y-89649993D01*
X149486135Y-89703859D01*
X149489483Y-89711675D01*
X149499500Y-89760500D01*
X149499500Y-93177855D01*
X149494475Y-93212796D01*
X149490564Y-93226113D01*
X149480920Y-93241117D01*
X149475891Y-93258233D01*
X149462420Y-93269899D01*
X149452787Y-93284889D01*
X149436560Y-93292298D01*
X149423077Y-93303977D01*
X149389242Y-93313904D01*
X149389229Y-93313911D01*
X149389211Y-93313914D01*
X149387602Y-93314145D01*
X149329426Y-93308584D01*
X149324693Y-93306946D01*
X149318746Y-93304230D01*
X149318445Y-93304187D01*
X149318214Y-93303987D01*
X149303247Y-93297152D01*
X149273889Y-93280202D01*
X149273890Y-93280202D01*
X149250318Y-93273886D01*
X149159309Y-93249500D01*
X149159306Y-93249500D01*
X149040691Y-93249500D01*
X148949728Y-93273873D01*
X148949723Y-93273874D01*
X148926114Y-93280201D01*
X148926112Y-93280201D01*
X148926112Y-93280202D01*
X148904947Y-93292421D01*
X148904939Y-93292425D01*
X148823386Y-93339511D01*
X148823378Y-93339517D01*
X148739517Y-93423378D01*
X148739513Y-93423383D01*
X148739507Y-93423392D01*
X148682804Y-93521606D01*
X148682796Y-93521620D01*
X148680200Y-93526114D01*
X148660185Y-93600814D01*
X148649500Y-93640691D01*
X148649500Y-93759309D01*
X148680201Y-93873886D01*
X148739511Y-93976613D01*
X148739513Y-93976615D01*
X148751071Y-93988173D01*
X148772220Y-94016424D01*
X148778872Y-94028606D01*
X148793724Y-94096879D01*
X148769308Y-94162344D01*
X148769277Y-94162385D01*
X148768303Y-94163685D01*
X148723259Y-94200865D01*
X148718754Y-94203054D01*
X148696656Y-94211297D01*
X148626117Y-94230198D01*
X148626118Y-94230199D01*
X148626113Y-94230200D01*
X148523397Y-94289504D01*
X148523383Y-94289513D01*
X148523378Y-94289517D01*
X148439517Y-94373378D01*
X148439513Y-94373383D01*
X148439507Y-94373392D01*
X148395567Y-94449500D01*
X148391054Y-94457317D01*
X148380201Y-94476114D01*
X148349500Y-94590691D01*
X148349500Y-94709309D01*
X148380201Y-94823886D01*
X148439511Y-94926613D01*
X148523387Y-95010489D01*
X148626114Y-95069799D01*
X148740691Y-95100500D01*
X148740694Y-95100500D01*
X148859306Y-95100500D01*
X148859309Y-95100500D01*
X148973886Y-95069799D01*
X149076613Y-95010489D01*
X149160489Y-94926613D01*
X149219799Y-94823886D01*
X149250500Y-94709309D01*
X149250500Y-94590691D01*
X149219799Y-94476114D01*
X149160489Y-94373387D01*
X149148926Y-94361824D01*
X149127780Y-94333577D01*
X149121125Y-94321389D01*
X149106274Y-94253119D01*
X149130688Y-94187658D01*
X149131696Y-94186311D01*
X149176738Y-94149134D01*
X149177555Y-94148736D01*
X149181249Y-94146942D01*
X149203340Y-94138701D01*
X149273886Y-94119799D01*
X149298065Y-94105838D01*
X149330824Y-94092724D01*
X149344310Y-94089452D01*
X149414100Y-94092773D01*
X149471011Y-94133295D01*
X149472040Y-94134604D01*
X149496308Y-94187755D01*
X149497257Y-94192677D01*
X149499500Y-94216153D01*
X149499500Y-98357670D01*
X149494475Y-98392614D01*
X149490070Y-98407612D01*
X149480439Y-98422601D01*
X149475432Y-98439675D01*
X149452327Y-98466355D01*
X149450958Y-98467542D01*
X149396097Y-98495018D01*
X149388539Y-98496663D01*
X149362168Y-98499500D01*
X149293277Y-98499500D01*
X149258338Y-98494476D01*
X149245020Y-98490565D01*
X149230013Y-98480920D01*
X149212898Y-98475891D01*
X149201232Y-98462423D01*
X149186243Y-98452789D01*
X149178832Y-98436560D01*
X149167154Y-98423077D01*
X149157227Y-98389245D01*
X149157221Y-98389232D01*
X149157220Y-98389229D01*
X149156986Y-98387599D01*
X149162550Y-98329418D01*
X149164188Y-98324686D01*
X149166900Y-98318746D01*
X149166944Y-98318445D01*
X149167143Y-98318215D01*
X149173979Y-98303247D01*
X149176974Y-98298060D01*
X149219799Y-98223886D01*
X149250500Y-98109309D01*
X149250500Y-97990691D01*
X149219799Y-97876114D01*
X149160489Y-97773387D01*
X149076613Y-97689511D01*
X148973886Y-97630201D01*
X148859309Y-97599500D01*
X148859306Y-97599500D01*
X148740691Y-97599500D01*
X148649728Y-97623873D01*
X148649723Y-97623874D01*
X148626114Y-97630201D01*
X148626112Y-97630201D01*
X148626112Y-97630202D01*
X148604947Y-97642421D01*
X148604939Y-97642425D01*
X148523386Y-97689511D01*
X148523378Y-97689517D01*
X148439517Y-97773378D01*
X148439513Y-97773383D01*
X148439511Y-97773387D01*
X148380201Y-97876114D01*
X148349500Y-97990691D01*
X148349500Y-97990693D01*
X148349500Y-98109308D01*
X148380200Y-98223886D01*
X148388361Y-98238021D01*
X148388363Y-98238024D01*
X148388365Y-98238026D01*
X148423026Y-98298060D01*
X148436143Y-98330823D01*
X148439415Y-98344309D01*
X148438567Y-98362118D01*
X148439499Y-98365960D01*
X148438206Y-98369695D01*
X148436092Y-98414100D01*
X148395598Y-98470989D01*
X148394321Y-98471994D01*
X148341110Y-98496308D01*
X148336188Y-98497257D01*
X148312712Y-98499500D01*
X125642330Y-98499500D01*
X125642325Y-98499499D01*
X125642323Y-98499500D01*
X125607389Y-98494475D01*
X125592390Y-98490070D01*
X125533644Y-98452327D01*
X125533615Y-98452293D01*
X125533614Y-98452293D01*
X125533613Y-98452291D01*
X125532457Y-98450958D01*
X125504977Y-98396083D01*
X125503332Y-98388521D01*
X125500500Y-98362168D01*
X125500500Y-96510691D01*
X125849500Y-96510691D01*
X125849500Y-96629309D01*
X125880201Y-96743886D01*
X125939511Y-96846613D01*
X126023387Y-96930489D01*
X126126114Y-96989799D01*
X126240691Y-97020500D01*
X126240694Y-97020500D01*
X126359306Y-97020500D01*
X126359309Y-97020500D01*
X126473886Y-96989799D01*
X126576613Y-96930489D01*
X126660489Y-96846613D01*
X126719799Y-96743886D01*
X126750500Y-96629309D01*
X126750500Y-96510691D01*
X129779500Y-96510691D01*
X129779500Y-96629309D01*
X129810201Y-96743886D01*
X129869511Y-96846613D01*
X129953387Y-96930489D01*
X130056114Y-96989799D01*
X130170691Y-97020500D01*
X130170694Y-97020500D01*
X130289306Y-97020500D01*
X130289309Y-97020500D01*
X130403886Y-96989799D01*
X130506613Y-96930489D01*
X130590489Y-96846613D01*
X130649799Y-96743886D01*
X130680500Y-96629309D01*
X130680500Y-96510691D01*
X130649799Y-96396114D01*
X130590489Y-96293387D01*
X130587792Y-96290690D01*
X131994423Y-96290690D01*
X131994423Y-96409308D01*
X132025124Y-96523885D01*
X132084434Y-96626612D01*
X132168310Y-96710488D01*
X132271037Y-96769798D01*
X132385614Y-96800499D01*
X132385617Y-96800499D01*
X132504229Y-96800499D01*
X132504232Y-96800499D01*
X132618809Y-96769798D01*
X132721536Y-96710488D01*
X132805412Y-96626612D01*
X132864722Y-96523885D01*
X132895423Y-96409308D01*
X132895423Y-96290690D01*
X132864722Y-96176113D01*
X132805412Y-96073386D01*
X132721536Y-95989510D01*
X132618809Y-95930200D01*
X132504232Y-95899499D01*
X132504229Y-95899499D01*
X132385614Y-95899499D01*
X132294651Y-95923872D01*
X132294646Y-95923873D01*
X132271037Y-95930200D01*
X132271035Y-95930200D01*
X132271035Y-95930201D01*
X132249870Y-95942420D01*
X132249862Y-95942424D01*
X132168309Y-95989510D01*
X132168301Y-95989516D01*
X132084440Y-96073377D01*
X132084436Y-96073382D01*
X132084430Y-96073391D01*
X132038615Y-96152745D01*
X132038613Y-96152748D01*
X132031346Y-96165337D01*
X132025124Y-96176113D01*
X131994423Y-96290690D01*
X130587792Y-96290690D01*
X130506613Y-96209511D01*
X130403886Y-96150201D01*
X130289309Y-96119500D01*
X130289306Y-96119500D01*
X130170691Y-96119500D01*
X130079728Y-96143873D01*
X130079723Y-96143874D01*
X130056114Y-96150201D01*
X130056112Y-96150201D01*
X130056112Y-96150202D01*
X130034947Y-96162421D01*
X130034939Y-96162425D01*
X129953388Y-96209510D01*
X129953378Y-96209517D01*
X129869517Y-96293378D01*
X129869513Y-96293383D01*
X129813332Y-96390691D01*
X129810201Y-96396114D01*
X129779500Y-96510691D01*
X126750500Y-96510691D01*
X126719799Y-96396114D01*
X126660489Y-96293387D01*
X126576613Y-96209511D01*
X126473886Y-96150201D01*
X126359309Y-96119500D01*
X126359306Y-96119500D01*
X126240691Y-96119500D01*
X126149728Y-96143873D01*
X126149723Y-96143874D01*
X126126114Y-96150201D01*
X126126112Y-96150201D01*
X126126112Y-96150202D01*
X126104947Y-96162421D01*
X126104939Y-96162425D01*
X126023388Y-96209510D01*
X126023378Y-96209517D01*
X125939517Y-96293378D01*
X125939513Y-96293383D01*
X125883332Y-96390691D01*
X125880201Y-96396114D01*
X125849500Y-96510691D01*
X125500500Y-96510691D01*
X125500500Y-93760691D01*
X125939500Y-93760691D01*
X125939500Y-93879309D01*
X125970201Y-93993886D01*
X126029511Y-94096613D01*
X126113387Y-94180489D01*
X126216114Y-94239799D01*
X126330691Y-94270500D01*
X126330694Y-94270500D01*
X126449306Y-94270500D01*
X126449309Y-94270500D01*
X126563886Y-94239799D01*
X126666613Y-94180489D01*
X126750489Y-94096613D01*
X126809799Y-93993886D01*
X126840500Y-93879309D01*
X126840500Y-93760691D01*
X126809799Y-93646114D01*
X126750489Y-93543387D01*
X126666613Y-93459511D01*
X126563886Y-93400201D01*
X126449309Y-93369500D01*
X126449306Y-93369500D01*
X126330691Y-93369500D01*
X126239728Y-93393873D01*
X126239723Y-93393874D01*
X126216114Y-93400201D01*
X126216112Y-93400201D01*
X126216112Y-93400202D01*
X126194947Y-93412421D01*
X126194939Y-93412425D01*
X126113386Y-93459511D01*
X126113378Y-93459517D01*
X126029517Y-93543378D01*
X126029513Y-93543383D01*
X126029507Y-93543392D01*
X125988638Y-93614181D01*
X125981461Y-93626612D01*
X125970201Y-93646114D01*
X125939500Y-93760691D01*
X125500500Y-93760691D01*
X125500500Y-93185691D01*
X127849500Y-93185691D01*
X127849500Y-93304309D01*
X127880201Y-93418886D01*
X127939511Y-93521613D01*
X128023387Y-93605489D01*
X128126114Y-93664799D01*
X128157932Y-93673324D01*
X128190363Y-93687213D01*
X128202218Y-93694439D01*
X128249215Y-93746141D01*
X128260799Y-93815041D01*
X128260606Y-93816655D01*
X128240172Y-93871438D01*
X128237361Y-93875591D01*
X128222354Y-93893766D01*
X128149484Y-93966636D01*
X128149481Y-93966641D01*
X128073721Y-94097857D01*
X128073720Y-94097860D01*
X128073719Y-94097862D01*
X128073719Y-94097863D01*
X128067840Y-94119805D01*
X128056936Y-94160500D01*
X128034500Y-94244234D01*
X128034500Y-94395768D01*
X128038466Y-94410569D01*
X128042765Y-94426613D01*
X128050992Y-94457317D01*
X128073719Y-94542137D01*
X128084314Y-94560486D01*
X128107770Y-94601112D01*
X128107771Y-94601115D01*
X128149480Y-94673358D01*
X128149482Y-94673360D01*
X128149485Y-94673365D01*
X128256635Y-94780515D01*
X128354206Y-94836848D01*
X128370281Y-94846129D01*
X128370280Y-94846130D01*
X128370287Y-94846132D01*
X128380550Y-94852058D01*
X128380564Y-94852066D01*
X128380563Y-94852066D01*
X128385297Y-94854798D01*
X128387865Y-94856281D01*
X128387867Y-94856281D01*
X128387868Y-94856282D01*
X128411870Y-94862713D01*
X128534234Y-94895500D01*
X128534236Y-94895500D01*
X128685764Y-94895500D01*
X128685766Y-94895500D01*
X128832135Y-94856281D01*
X128963365Y-94780515D01*
X129058809Y-94685070D01*
X129087051Y-94663928D01*
X129099238Y-94657274D01*
X129167508Y-94642424D01*
X129232972Y-94666842D01*
X129239778Y-94671937D01*
X129261879Y-94696834D01*
X129262417Y-94696297D01*
X129263684Y-94697564D01*
X129264534Y-94696912D01*
X129268352Y-94701888D01*
X129269350Y-94703230D01*
X129269485Y-94703365D01*
X129376635Y-94810515D01*
X129474908Y-94867253D01*
X129501267Y-94882472D01*
X129507865Y-94886281D01*
X129654234Y-94925500D01*
X129654236Y-94925500D01*
X129805764Y-94925500D01*
X129805766Y-94925500D01*
X129952135Y-94886281D01*
X130083365Y-94810515D01*
X130152005Y-94741874D01*
X130180255Y-94720725D01*
X130192438Y-94714073D01*
X130260709Y-94699223D01*
X130326173Y-94723641D01*
X130326177Y-94723643D01*
X130327478Y-94724617D01*
X130364703Y-94769707D01*
X130366892Y-94774214D01*
X130375126Y-94796292D01*
X130385199Y-94833884D01*
X130398130Y-94856280D01*
X130398129Y-94856280D01*
X130442658Y-94933404D01*
X130444511Y-94936613D01*
X130528387Y-95020489D01*
X130631114Y-95079799D01*
X130745691Y-95110500D01*
X130745694Y-95110500D01*
X130864306Y-95110500D01*
X130864309Y-95110500D01*
X130978886Y-95079799D01*
X131081613Y-95020489D01*
X131165489Y-94936613D01*
X131224799Y-94833886D01*
X131255500Y-94719309D01*
X131255500Y-94600691D01*
X131224799Y-94486114D01*
X131165489Y-94383387D01*
X131081613Y-94299511D01*
X130978886Y-94240201D01*
X130864309Y-94209500D01*
X130864306Y-94209500D01*
X130745691Y-94209500D01*
X130654728Y-94233873D01*
X130654723Y-94233874D01*
X130631114Y-94240201D01*
X130631112Y-94240201D01*
X130631112Y-94240202D01*
X130609946Y-94252422D01*
X130609937Y-94252426D01*
X130528393Y-94299507D01*
X130528380Y-94299515D01*
X130522411Y-94305484D01*
X130498108Y-94323676D01*
X130494163Y-94326629D01*
X130481983Y-94333280D01*
X130413711Y-94348133D01*
X130348246Y-94323717D01*
X130348192Y-94323676D01*
X130346891Y-94322701D01*
X130309723Y-94277667D01*
X130307531Y-94273154D01*
X130299293Y-94251069D01*
X130267783Y-94133472D01*
X132231528Y-94133472D01*
X132231528Y-94252090D01*
X132262229Y-94366667D01*
X132321539Y-94469394D01*
X132405415Y-94553270D01*
X132508142Y-94612580D01*
X132622719Y-94643281D01*
X132622722Y-94643281D01*
X132741335Y-94643281D01*
X132741336Y-94643281D01*
X132741337Y-94643281D01*
X132797915Y-94628120D01*
X132832950Y-94623930D01*
X132846830Y-94624260D01*
X132913380Y-94645533D01*
X132957861Y-94699397D01*
X132958501Y-94700891D01*
X132968202Y-94758580D01*
X132967844Y-94763577D01*
X132963937Y-94786807D01*
X132949500Y-94840689D01*
X132949500Y-94840691D01*
X132949500Y-94959309D01*
X132980201Y-95073886D01*
X133039511Y-95176613D01*
X133123387Y-95260489D01*
X133226114Y-95319799D01*
X133340691Y-95350500D01*
X133340694Y-95350500D01*
X133459306Y-95350500D01*
X133459308Y-95350500D01*
X133459309Y-95350500D01*
X133459309Y-95350499D01*
X133464698Y-95349790D01*
X133483825Y-95348763D01*
X133496385Y-95349061D01*
X133562936Y-95370332D01*
X133607425Y-95424207D01*
X133615723Y-95493582D01*
X133615722Y-95493590D01*
X133614450Y-95501154D01*
X133599555Y-95542588D01*
X133580202Y-95576109D01*
X133571306Y-95609309D01*
X133549500Y-95690691D01*
X133549500Y-95809309D01*
X133580201Y-95923886D01*
X133632292Y-96014110D01*
X133640563Y-96031399D01*
X133649967Y-96055728D01*
X133655777Y-96125356D01*
X133655777Y-96125358D01*
X133653495Y-96136480D01*
X133639413Y-96173556D01*
X133618656Y-96209509D01*
X133618655Y-96209510D01*
X133580201Y-96276113D01*
X133580201Y-96276114D01*
X133549500Y-96390691D01*
X133549500Y-96509309D01*
X133580201Y-96623886D01*
X133639511Y-96726613D01*
X133723387Y-96810489D01*
X133826114Y-96869799D01*
X133940691Y-96900500D01*
X133940694Y-96900500D01*
X134059306Y-96900500D01*
X134059309Y-96900500D01*
X134173886Y-96869799D01*
X134276613Y-96810489D01*
X134360489Y-96726613D01*
X134419799Y-96623886D01*
X134450500Y-96509309D01*
X134450500Y-96390691D01*
X134419799Y-96276114D01*
X134419797Y-96276111D01*
X134419797Y-96276109D01*
X134419796Y-96276108D01*
X134367717Y-96185906D01*
X134359449Y-96168629D01*
X134358176Y-96165337D01*
X134358177Y-96165337D01*
X134350036Y-96144285D01*
X134344217Y-96074665D01*
X134344480Y-96073383D01*
X134346499Y-96063539D01*
X134360585Y-96026446D01*
X134367711Y-96014105D01*
X134419799Y-95923886D01*
X134450500Y-95809309D01*
X134450500Y-95690691D01*
X134419799Y-95576114D01*
X134360489Y-95473387D01*
X134276613Y-95389511D01*
X134173886Y-95330201D01*
X134059309Y-95299500D01*
X134059306Y-95299500D01*
X133940691Y-95299500D01*
X133935288Y-95300211D01*
X133916157Y-95301236D01*
X133903607Y-95300937D01*
X133837055Y-95279661D01*
X133792571Y-95225782D01*
X133784277Y-95156407D01*
X133784278Y-95156400D01*
X133785551Y-95148833D01*
X133800443Y-95107410D01*
X133819796Y-95073891D01*
X133819797Y-95073890D01*
X133819798Y-95073887D01*
X133819799Y-95073886D01*
X133850500Y-94959309D01*
X133850500Y-94905653D01*
X133855522Y-94870720D01*
X133856540Y-94867253D01*
X133859433Y-94857401D01*
X133897206Y-94798624D01*
X133960758Y-94769599D01*
X133962399Y-94769363D01*
X134020571Y-94774923D01*
X134025309Y-94776563D01*
X134046751Y-94786355D01*
X134116070Y-94826377D01*
X134160550Y-94852058D01*
X134160552Y-94852059D01*
X134160551Y-94852059D01*
X134165024Y-94854641D01*
X134167865Y-94856281D01*
X134167867Y-94856281D01*
X134167868Y-94856282D01*
X134191870Y-94862713D01*
X134314234Y-94895500D01*
X134314236Y-94895500D01*
X134465763Y-94895500D01*
X134465766Y-94895500D01*
X134514389Y-94882471D01*
X134549426Y-94878282D01*
X134565056Y-94878654D01*
X134631607Y-94899929D01*
X134636660Y-94903349D01*
X134673415Y-94942124D01*
X134682926Y-94957936D01*
X134684040Y-94959826D01*
X134737034Y-95051613D01*
X134820910Y-95135489D01*
X134923637Y-95194799D01*
X135038214Y-95225500D01*
X135053860Y-95225500D01*
X135088792Y-95230521D01*
X135114036Y-95237934D01*
X135166782Y-95269230D01*
X136417317Y-96519765D01*
X136468819Y-96549500D01*
X136485836Y-96559325D01*
X136485840Y-96559327D01*
X136562266Y-96579805D01*
X136562268Y-96579805D01*
X137565901Y-96579805D01*
X137600828Y-96584826D01*
X137611681Y-96588012D01*
X137670462Y-96625782D01*
X137699491Y-96689336D01*
X137689552Y-96758495D01*
X137689551Y-96758496D01*
X137686367Y-96765469D01*
X137661251Y-96801645D01*
X137639515Y-96823380D01*
X137639514Y-96823382D01*
X137639513Y-96823384D01*
X137639511Y-96823387D01*
X137580201Y-96926114D01*
X137549500Y-97040691D01*
X137549500Y-97159309D01*
X137580201Y-97273886D01*
X137639511Y-97376613D01*
X137723387Y-97460489D01*
X137826114Y-97519799D01*
X137940691Y-97550500D01*
X137940694Y-97550500D01*
X138059306Y-97550500D01*
X138059309Y-97550500D01*
X138173886Y-97519799D01*
X138276613Y-97460489D01*
X138360489Y-97376613D01*
X138419799Y-97273886D01*
X138450500Y-97159309D01*
X138450500Y-97040691D01*
X138423705Y-96940691D01*
X142769500Y-96940691D01*
X142769500Y-97059309D01*
X142800201Y-97173886D01*
X142859511Y-97276613D01*
X142943387Y-97360489D01*
X143046114Y-97419799D01*
X143160691Y-97450500D01*
X143160694Y-97450500D01*
X143279306Y-97450500D01*
X143279309Y-97450500D01*
X143393886Y-97419799D01*
X143496613Y-97360489D01*
X143580489Y-97276613D01*
X143639799Y-97173886D01*
X143670500Y-97059309D01*
X143670500Y-96940691D01*
X143639799Y-96826114D01*
X143580489Y-96723387D01*
X143496613Y-96639511D01*
X143393886Y-96580201D01*
X143279309Y-96549500D01*
X143279306Y-96549500D01*
X143160691Y-96549500D01*
X143069728Y-96573873D01*
X143069723Y-96573874D01*
X143046114Y-96580201D01*
X143046112Y-96580201D01*
X143046112Y-96580202D01*
X143024947Y-96592421D01*
X143024939Y-96592425D01*
X142943386Y-96639511D01*
X142943378Y-96639517D01*
X142859517Y-96723378D01*
X142859513Y-96723383D01*
X142859509Y-96723389D01*
X142859506Y-96723394D01*
X142847676Y-96743886D01*
X142832717Y-96769796D01*
X142800201Y-96826114D01*
X142769500Y-96940691D01*
X138423705Y-96940691D01*
X138419799Y-96926114D01*
X138360489Y-96823387D01*
X138329062Y-96791960D01*
X138320681Y-96776991D01*
X138320582Y-96776559D01*
X138320046Y-96775843D01*
X138316744Y-96769796D01*
X138314624Y-96765913D01*
X138299771Y-96697643D01*
X138324185Y-96632178D01*
X138380115Y-96590306D01*
X138383994Y-96588859D01*
X138387330Y-96587616D01*
X138430644Y-96579805D01*
X141007379Y-96579805D01*
X141007381Y-96579805D01*
X141083808Y-96559326D01*
X141152330Y-96519765D01*
X141208279Y-96463816D01*
X143108940Y-94563155D01*
X143148502Y-94494632D01*
X143168980Y-94418206D01*
X143168980Y-94339082D01*
X143168980Y-93405792D01*
X143174002Y-93370859D01*
X143174401Y-93369500D01*
X143181414Y-93345614D01*
X143212723Y-93292857D01*
X143215380Y-93290201D01*
X143228969Y-93276612D01*
X143288279Y-93173885D01*
X143318980Y-93059308D01*
X143318980Y-93042329D01*
X143324003Y-93007393D01*
X143328407Y-92992395D01*
X143329619Y-92990509D01*
X143366152Y-92933644D01*
X143366180Y-92933619D01*
X143366179Y-92933619D01*
X143367521Y-92932456D01*
X143422400Y-92904977D01*
X143429959Y-92903333D01*
X143456312Y-92900500D01*
X143467436Y-92900500D01*
X143467436Y-92903805D01*
X143521251Y-92912187D01*
X143573515Y-92958557D01*
X143592422Y-93024439D01*
X143591891Y-93977490D01*
X143591892Y-93977498D01*
X143596563Y-94021175D01*
X143596564Y-94021186D01*
X143607739Y-94072693D01*
X143610223Y-94082882D01*
X143610224Y-94082883D01*
X143653186Y-94163616D01*
X143653190Y-94163622D01*
X143674079Y-94187755D01*
X143698912Y-94216446D01*
X143698917Y-94216451D01*
X143698924Y-94216459D01*
X143716494Y-94234411D01*
X143716498Y-94234413D01*
X143726832Y-94240201D01*
X143796285Y-94279101D01*
X143796285Y-94279102D01*
X143796287Y-94279102D01*
X143796288Y-94279103D01*
X143863317Y-94298825D01*
X143921209Y-94307181D01*
X144813373Y-94307677D01*
X144817756Y-94307759D01*
X144842644Y-94308663D01*
X144869040Y-94317466D01*
X144896305Y-94323067D01*
X144901730Y-94328368D01*
X144908925Y-94330768D01*
X144926373Y-94352447D01*
X144946279Y-94371897D01*
X144950630Y-94382585D01*
X144952733Y-94385198D01*
X144953103Y-94388659D01*
X144957917Y-94400485D01*
X144963718Y-94422135D01*
X144978502Y-94447741D01*
X144997244Y-94480202D01*
X145039485Y-94553365D01*
X145146635Y-94660515D01*
X145231149Y-94709309D01*
X145242203Y-94715691D01*
X145242205Y-94715693D01*
X145242206Y-94715693D01*
X145270307Y-94731918D01*
X145274353Y-94734254D01*
X145277865Y-94736281D01*
X145277867Y-94736281D01*
X145277868Y-94736282D01*
X145298739Y-94741874D01*
X145424234Y-94775500D01*
X145424236Y-94775500D01*
X145575764Y-94775500D01*
X145575766Y-94775500D01*
X145722135Y-94736281D01*
X145853365Y-94660515D01*
X145960515Y-94553365D01*
X146036281Y-94422135D01*
X146075500Y-94275766D01*
X146075500Y-94124234D01*
X146036281Y-93977865D01*
X146035265Y-93976106D01*
X145996547Y-93909044D01*
X145960515Y-93846635D01*
X145853365Y-93739485D01*
X145746758Y-93677935D01*
X145722136Y-93663719D01*
X145636192Y-93640691D01*
X146249500Y-93640691D01*
X146249500Y-93759309D01*
X146280201Y-93873886D01*
X146339511Y-93976613D01*
X146423387Y-94060489D01*
X146526114Y-94119799D01*
X146640691Y-94150500D01*
X146640694Y-94150500D01*
X146759306Y-94150500D01*
X146759309Y-94150500D01*
X146873886Y-94119799D01*
X146976613Y-94060489D01*
X147060489Y-93976613D01*
X147119799Y-93873886D01*
X147150500Y-93759309D01*
X147150500Y-93640691D01*
X147119799Y-93526114D01*
X147060489Y-93423387D01*
X146976613Y-93339511D01*
X146873886Y-93280201D01*
X146759309Y-93249500D01*
X146759306Y-93249500D01*
X146640691Y-93249500D01*
X146549728Y-93273873D01*
X146549723Y-93273874D01*
X146526114Y-93280201D01*
X146526112Y-93280201D01*
X146526112Y-93280202D01*
X146504947Y-93292421D01*
X146504939Y-93292425D01*
X146423386Y-93339511D01*
X146423378Y-93339517D01*
X146339517Y-93423378D01*
X146339513Y-93423383D01*
X146339507Y-93423392D01*
X146282804Y-93521606D01*
X146282796Y-93521620D01*
X146280200Y-93526114D01*
X146260185Y-93600814D01*
X146249500Y-93640691D01*
X145636192Y-93640691D01*
X145575766Y-93624500D01*
X145575765Y-93624500D01*
X145424232Y-93624500D01*
X145360264Y-93641640D01*
X145290414Y-93639977D01*
X145232552Y-93600814D01*
X145205049Y-93536585D01*
X145204172Y-93521843D01*
X145204785Y-91340691D01*
X146449500Y-91340691D01*
X146449500Y-91459309D01*
X146480201Y-91573886D01*
X146539511Y-91676613D01*
X146623387Y-91760489D01*
X146726114Y-91819799D01*
X146840691Y-91850500D01*
X146840694Y-91850500D01*
X146959306Y-91850500D01*
X146959309Y-91850500D01*
X147073886Y-91819799D01*
X147176613Y-91760489D01*
X147260489Y-91676613D01*
X147319799Y-91573886D01*
X147350500Y-91459309D01*
X147350500Y-91340691D01*
X147319799Y-91226114D01*
X147260489Y-91123387D01*
X147176613Y-91039511D01*
X147073886Y-90980201D01*
X146959309Y-90949500D01*
X146959306Y-90949500D01*
X146840691Y-90949500D01*
X146749728Y-90973873D01*
X146749723Y-90973874D01*
X146726114Y-90980201D01*
X146726112Y-90980201D01*
X146726112Y-90980202D01*
X146704947Y-90992421D01*
X146704939Y-90992425D01*
X146623386Y-91039511D01*
X146623378Y-91039517D01*
X146539517Y-91123378D01*
X146539511Y-91123386D01*
X146490955Y-91207485D01*
X146490953Y-91207491D01*
X146483449Y-91220489D01*
X146480201Y-91226114D01*
X146449500Y-91340691D01*
X145204785Y-91340691D01*
X145205403Y-89140691D01*
X146949500Y-89140691D01*
X146949500Y-89259309D01*
X146980201Y-89373886D01*
X147039511Y-89476613D01*
X147123387Y-89560489D01*
X147226114Y-89619799D01*
X147340691Y-89650500D01*
X147340694Y-89650500D01*
X147459306Y-89650500D01*
X147459309Y-89650500D01*
X147573886Y-89619799D01*
X147676613Y-89560489D01*
X147760489Y-89476613D01*
X147819799Y-89373886D01*
X147850500Y-89259309D01*
X147850500Y-89140691D01*
X147819799Y-89026114D01*
X147760489Y-88923387D01*
X147676613Y-88839511D01*
X147573886Y-88780201D01*
X147459309Y-88749500D01*
X147459306Y-88749500D01*
X147340691Y-88749500D01*
X147249728Y-88773873D01*
X147249723Y-88773874D01*
X147226114Y-88780201D01*
X147226112Y-88780201D01*
X147226112Y-88780202D01*
X147204947Y-88792421D01*
X147204939Y-88792425D01*
X147123386Y-88839511D01*
X147123378Y-88839517D01*
X147039517Y-88923378D01*
X147039513Y-88923383D01*
X147039512Y-88923385D01*
X147039511Y-88923387D01*
X147008780Y-88976615D01*
X146980201Y-89026114D01*
X146949500Y-89140691D01*
X145205403Y-89140691D01*
X145205415Y-89098429D01*
X145225119Y-89031397D01*
X145277937Y-88985658D01*
X145347098Y-88975734D01*
X145361491Y-88978688D01*
X145424234Y-88995500D01*
X145424236Y-88995500D01*
X145575764Y-88995500D01*
X145575766Y-88995500D01*
X145722135Y-88956281D01*
X145853365Y-88880515D01*
X145960515Y-88773365D01*
X146036281Y-88642135D01*
X146075500Y-88495766D01*
X146075500Y-88344234D01*
X146036281Y-88197865D01*
X146032160Y-88190728D01*
X146026129Y-88180281D01*
X145960515Y-88066635D01*
X145853365Y-87959485D01*
X145783759Y-87919298D01*
X145783758Y-87919297D01*
X145783757Y-87919297D01*
X145722136Y-87883719D01*
X145648950Y-87864109D01*
X145648949Y-87864108D01*
X145575767Y-87844500D01*
X145575766Y-87844500D01*
X145424234Y-87844500D01*
X145277859Y-87883720D01*
X145277857Y-87883721D01*
X145146645Y-87959478D01*
X145146631Y-87959487D01*
X145146626Y-87959491D01*
X145039491Y-88066626D01*
X145039487Y-88066631D01*
X145039478Y-88066645D01*
X144963721Y-88197857D01*
X144963718Y-88197864D01*
X144961140Y-88207485D01*
X144924772Y-88267143D01*
X144861923Y-88297669D01*
X144792548Y-88289371D01*
X144753686Y-88263066D01*
X143981634Y-87491013D01*
X143981633Y-87491012D01*
X143965283Y-87476325D01*
X143965269Y-87476313D01*
X143965262Y-87476307D01*
X143959727Y-87471846D01*
X143919880Y-87414455D01*
X143917387Y-87344630D01*
X143930146Y-87313299D01*
X143969839Y-87244552D01*
X144000540Y-87129975D01*
X144000540Y-87011357D01*
X143969839Y-86896780D01*
X143910529Y-86794053D01*
X143826653Y-86710177D01*
X143723926Y-86650867D01*
X143609349Y-86620166D01*
X143609346Y-86620166D01*
X143490731Y-86620166D01*
X143399768Y-86644539D01*
X143399763Y-86644540D01*
X143376154Y-86650867D01*
X143376152Y-86650867D01*
X143376152Y-86650868D01*
X143354987Y-86663087D01*
X143354979Y-86663091D01*
X143273426Y-86710177D01*
X143273418Y-86710183D01*
X143189557Y-86794044D01*
X143189553Y-86794049D01*
X143189552Y-86794051D01*
X143189551Y-86794053D01*
X143156111Y-86851973D01*
X143130241Y-86896780D01*
X143099540Y-87011357D01*
X143099540Y-87129975D01*
X143128594Y-87238408D01*
X143126932Y-87308256D01*
X143087770Y-87366119D01*
X143023541Y-87393623D01*
X143008820Y-87394500D01*
X141982202Y-87394500D01*
X141915163Y-87374815D01*
X141869408Y-87322011D01*
X141859464Y-87252853D01*
X141874815Y-87208500D01*
X141891153Y-87180201D01*
X141894799Y-87173886D01*
X141925500Y-87059309D01*
X141925500Y-86940691D01*
X141894799Y-86826114D01*
X141835489Y-86723387D01*
X141751613Y-86639511D01*
X141648886Y-86580201D01*
X141534309Y-86549500D01*
X141534306Y-86549500D01*
X141415691Y-86549500D01*
X141324728Y-86573873D01*
X141324723Y-86573874D01*
X141301114Y-86580201D01*
X141301112Y-86580201D01*
X141301112Y-86580202D01*
X141279947Y-86592421D01*
X141279939Y-86592425D01*
X141198386Y-86639511D01*
X141198378Y-86639517D01*
X141114517Y-86723378D01*
X141114513Y-86723383D01*
X141114507Y-86723392D01*
X141058851Y-86819792D01*
X141058848Y-86819797D01*
X141055202Y-86826110D01*
X141055200Y-86826115D01*
X141027538Y-86929353D01*
X141024500Y-86940691D01*
X141024500Y-87059309D01*
X141055200Y-87173883D01*
X141055202Y-87173889D01*
X141075185Y-87208500D01*
X141091658Y-87276400D01*
X141068806Y-87342427D01*
X141013885Y-87385617D01*
X140967798Y-87394500D01*
X139423992Y-87394500D01*
X139380313Y-87399197D01*
X139328825Y-87410397D01*
X139318627Y-87412890D01*
X139318624Y-87412891D01*
X139237916Y-87455899D01*
X139237913Y-87455901D01*
X139185104Y-87501660D01*
X139167160Y-87519242D01*
X139167154Y-87519249D01*
X139122511Y-87599059D01*
X139122509Y-87599064D01*
X139102826Y-87666096D01*
X139102825Y-87666101D01*
X139102825Y-87666102D01*
X139096664Y-87708954D01*
X139094500Y-87724003D01*
X139094500Y-89176007D01*
X139099197Y-89219686D01*
X139110397Y-89271174D01*
X139112342Y-89279133D01*
X139112890Y-89281373D01*
X139155900Y-89362085D01*
X139159391Y-89366114D01*
X139201660Y-89414895D01*
X139219242Y-89432839D01*
X139219246Y-89432843D01*
X139219247Y-89432844D01*
X139219249Y-89432845D01*
X139299059Y-89477488D01*
X139299063Y-89477490D01*
X139366102Y-89497175D01*
X139424000Y-89505500D01*
X140904216Y-89505500D01*
X140971255Y-89525185D01*
X141017010Y-89577989D01*
X141023991Y-89597407D01*
X141024500Y-89599306D01*
X141024500Y-89599309D01*
X141055201Y-89713886D01*
X141114511Y-89816613D01*
X141198387Y-89900489D01*
X141301114Y-89959799D01*
X141415691Y-89990500D01*
X141415694Y-89990500D01*
X141534306Y-89990500D01*
X141534309Y-89990500D01*
X141648886Y-89959799D01*
X141751613Y-89900489D01*
X141835489Y-89816613D01*
X141894799Y-89713886D01*
X141925500Y-89599309D01*
X141925500Y-89599306D01*
X141926009Y-89597407D01*
X141962374Y-89537746D01*
X142025221Y-89507217D01*
X142045784Y-89505500D01*
X143470316Y-89505500D01*
X143537355Y-89525185D01*
X143583110Y-89577989D01*
X143594315Y-89629568D01*
X143594304Y-89650378D01*
X143594145Y-89935534D01*
X143574423Y-90002563D01*
X143521593Y-90048288D01*
X143491827Y-90057555D01*
X143481072Y-90059465D01*
X143428177Y-90059465D01*
X143324211Y-90087322D01*
X143318956Y-90088256D01*
X143315052Y-90087825D01*
X143312753Y-90088128D01*
X143299460Y-90098329D01*
X143210872Y-90149476D01*
X143210864Y-90149482D01*
X143127003Y-90233343D01*
X143126999Y-90233348D01*
X143126998Y-90233350D01*
X143126997Y-90233352D01*
X143093404Y-90291537D01*
X143067687Y-90336079D01*
X143036986Y-90450656D01*
X143036986Y-90450658D01*
X143036986Y-90569273D01*
X143067682Y-90683835D01*
X143067688Y-90683854D01*
X143067691Y-90683860D01*
X143118176Y-90771304D01*
X143122118Y-90781151D01*
X143131293Y-90804066D01*
X143134978Y-90819254D01*
X143131655Y-90889044D01*
X143131654Y-90889048D01*
X143128755Y-90897424D01*
X143099256Y-90944548D01*
X143017924Y-91025879D01*
X142958624Y-91128589D01*
X142958613Y-91128609D01*
X142932488Y-91226112D01*
X142927913Y-91243186D01*
X142927913Y-91361804D01*
X142958614Y-91476381D01*
X143017924Y-91579108D01*
X143101800Y-91662984D01*
X143204527Y-91722294D01*
X143319104Y-91752995D01*
X143319107Y-91752995D01*
X143321205Y-91752995D01*
X143322911Y-91753496D01*
X143327164Y-91754056D01*
X143327076Y-91754719D01*
X143340752Y-91758734D01*
X143361110Y-91759591D01*
X143373597Y-91768379D01*
X143388244Y-91772680D01*
X143401584Y-91788075D01*
X143418248Y-91799803D01*
X143424001Y-91813946D01*
X143433999Y-91825484D01*
X143436898Y-91845650D01*
X143444576Y-91864523D01*
X143441770Y-91879530D01*
X143443943Y-91894642D01*
X143435479Y-91913174D01*
X143431735Y-91933202D01*
X143421260Y-91944310D01*
X143414918Y-91958198D01*
X143397778Y-91969212D01*
X143383801Y-91984036D01*
X143364343Y-91990700D01*
X143356140Y-91995972D01*
X143351108Y-91997335D01*
X143342394Y-91999500D01*
X143340691Y-91999500D01*
X143335678Y-92000842D01*
X143335677Y-92000843D01*
X143318954Y-92005323D01*
X143318833Y-92005354D01*
X143278564Y-92016146D01*
X143241885Y-92025975D01*
X143225267Y-92028162D01*
X143211974Y-92038364D01*
X143123386Y-92089511D01*
X143123378Y-92089517D01*
X143039517Y-92173378D01*
X143039513Y-92173383D01*
X143039512Y-92173385D01*
X143039511Y-92173387D01*
X143008780Y-92226615D01*
X142980201Y-92276114D01*
X142949500Y-92390691D01*
X142949500Y-92390693D01*
X142949500Y-92407669D01*
X142949499Y-92407675D01*
X142949500Y-92407678D01*
X142944475Y-92442613D01*
X142940070Y-92457611D01*
X142902327Y-92516354D01*
X142902292Y-92516384D01*
X142902291Y-92516386D01*
X142902289Y-92516386D01*
X142900958Y-92517541D01*
X142846097Y-92545017D01*
X142838539Y-92546662D01*
X142812168Y-92549499D01*
X142809171Y-92549499D01*
X142718208Y-92573872D01*
X142718203Y-92573873D01*
X142694594Y-92580200D01*
X142694592Y-92580200D01*
X142694592Y-92580201D01*
X142673427Y-92592420D01*
X142673419Y-92592424D01*
X142591866Y-92639510D01*
X142591858Y-92639516D01*
X142507997Y-92723377D01*
X142507993Y-92723382D01*
X142507987Y-92723391D01*
X142450258Y-92823383D01*
X142449208Y-92825201D01*
X142448986Y-92825585D01*
X142448681Y-92826112D01*
X142448681Y-92826113D01*
X142417980Y-92940690D01*
X142417980Y-93059308D01*
X142448681Y-93173885D01*
X142507991Y-93276612D01*
X142507993Y-93276614D01*
X142519054Y-93287675D01*
X142540203Y-93315926D01*
X142552811Y-93339015D01*
X142567980Y-93398444D01*
X142567980Y-94184981D01*
X142562956Y-94219918D01*
X142555544Y-94245159D01*
X142524249Y-94297903D01*
X141982703Y-94839447D01*
X141982702Y-94839450D01*
X141954448Y-94860601D01*
X141942266Y-94867253D01*
X141873993Y-94882105D01*
X141808530Y-94857689D01*
X141808527Y-94857687D01*
X141801721Y-94852592D01*
X141768640Y-94815317D01*
X141765865Y-94810510D01*
X141742242Y-94769594D01*
X141720489Y-94731917D01*
X141636613Y-94648041D01*
X141533886Y-94588731D01*
X141419309Y-94558030D01*
X141419306Y-94558030D01*
X141417220Y-94558030D01*
X141417217Y-94558029D01*
X141417216Y-94558030D01*
X141382281Y-94553006D01*
X141368963Y-94549095D01*
X141310186Y-94511319D01*
X141281164Y-94447762D01*
X141281163Y-94447759D01*
X141280929Y-94446129D01*
X141286489Y-94387958D01*
X141288131Y-94383216D01*
X141297922Y-94361777D01*
X141305172Y-94349220D01*
X141319799Y-94323886D01*
X141350500Y-94209309D01*
X141350500Y-94090691D01*
X141320816Y-93979911D01*
X141319942Y-93976444D01*
X141319205Y-93973334D01*
X141319235Y-93972766D01*
X141319003Y-93972146D01*
X141318603Y-93970144D01*
X141319033Y-93970057D01*
X141316574Y-93957998D01*
X141314685Y-93940418D01*
X141327093Y-93871664D01*
X141374706Y-93820529D01*
X141374721Y-93820520D01*
X141379228Y-93817847D01*
X141442482Y-93800500D01*
X141534306Y-93800500D01*
X141534309Y-93800500D01*
X141648886Y-93769799D01*
X141751613Y-93710489D01*
X141835489Y-93626613D01*
X141894799Y-93523886D01*
X141925500Y-93409309D01*
X141925500Y-93290691D01*
X141894799Y-93176114D01*
X141835489Y-93073387D01*
X141751613Y-92989511D01*
X141648886Y-92930201D01*
X141534309Y-92899500D01*
X141534306Y-92899500D01*
X141415691Y-92899500D01*
X141324728Y-92923873D01*
X141324723Y-92923874D01*
X141301114Y-92930201D01*
X141301112Y-92930201D01*
X141301112Y-92930202D01*
X141279947Y-92942421D01*
X141279939Y-92942425D01*
X141198386Y-92989511D01*
X141198378Y-92989517D01*
X141114517Y-93073378D01*
X141114513Y-93073383D01*
X141114511Y-93073387D01*
X141055201Y-93176114D01*
X141024500Y-93290691D01*
X141024500Y-93409309D01*
X141054847Y-93522563D01*
X141058360Y-93541398D01*
X141060314Y-93559582D01*
X141047904Y-93628339D01*
X141000306Y-93679463D01*
X140995800Y-93682137D01*
X140932518Y-93699500D01*
X140840691Y-93699500D01*
X140749728Y-93723873D01*
X140749723Y-93723874D01*
X140726114Y-93730201D01*
X140726112Y-93730201D01*
X140726112Y-93730202D01*
X140704947Y-93742421D01*
X140704939Y-93742425D01*
X140623385Y-93789511D01*
X140612326Y-93800570D01*
X140612325Y-93800572D01*
X140612322Y-93800574D01*
X140584071Y-93821724D01*
X140560984Y-93834331D01*
X140501555Y-93849500D01*
X140209349Y-93849500D01*
X140174413Y-93844477D01*
X140149171Y-93837065D01*
X140096426Y-93805769D01*
X139876472Y-93585815D01*
X139876467Y-93585810D01*
X139855321Y-93557563D01*
X139848666Y-93545375D01*
X139833815Y-93477105D01*
X139858229Y-93411644D01*
X139863332Y-93404827D01*
X139900593Y-93371758D01*
X139920116Y-93360488D01*
X140003992Y-93276612D01*
X140063302Y-93173885D01*
X140094003Y-93059308D01*
X140094003Y-92940690D01*
X140063302Y-92826113D01*
X140003992Y-92723386D01*
X139920116Y-92639510D01*
X139817389Y-92580200D01*
X139702812Y-92549499D01*
X139702809Y-92549499D01*
X139584194Y-92549499D01*
X139493231Y-92573872D01*
X139493226Y-92573873D01*
X139469617Y-92580200D01*
X139469615Y-92580200D01*
X139469615Y-92580201D01*
X139448450Y-92592420D01*
X139448442Y-92592424D01*
X139366889Y-92639510D01*
X139366881Y-92639516D01*
X139283020Y-92723377D01*
X139283015Y-92723383D01*
X139283011Y-92723389D01*
X139274270Y-92738528D01*
X139252462Y-92766258D01*
X139247894Y-92770614D01*
X139242419Y-92775833D01*
X139180320Y-92807852D01*
X139110766Y-92801214D01*
X139110757Y-92801210D01*
X139102862Y-92798049D01*
X139061271Y-92770614D01*
X137874426Y-91583769D01*
X137853274Y-91555513D01*
X137840667Y-91532424D01*
X137825500Y-91472999D01*
X137825500Y-90800691D01*
X138649500Y-90800691D01*
X138649500Y-90919309D01*
X138680201Y-91033886D01*
X138739511Y-91136613D01*
X138823387Y-91220489D01*
X138926114Y-91279799D01*
X139040691Y-91310500D01*
X139040694Y-91310500D01*
X139159306Y-91310500D01*
X139159309Y-91310500D01*
X139273886Y-91279799D01*
X139376613Y-91220489D01*
X139400656Y-91196446D01*
X139424782Y-91172320D01*
X139453032Y-91151170D01*
X139465212Y-91144519D01*
X139533483Y-91129667D01*
X139598948Y-91154082D01*
X139598954Y-91154086D01*
X139605761Y-91159182D01*
X139638834Y-91196446D01*
X139690892Y-91286612D01*
X139774768Y-91370488D01*
X139877495Y-91429798D01*
X139992072Y-91460499D01*
X139992075Y-91460499D01*
X140110687Y-91460499D01*
X140110690Y-91460499D01*
X140225267Y-91429798D01*
X140327994Y-91370488D01*
X140411870Y-91286612D01*
X140471180Y-91183885D01*
X140501881Y-91069308D01*
X140501881Y-90950690D01*
X140471180Y-90836113D01*
X140411870Y-90733386D01*
X140327994Y-90649510D01*
X140225267Y-90590200D01*
X140110690Y-90559499D01*
X140110687Y-90559499D01*
X139992072Y-90559499D01*
X139901109Y-90583872D01*
X139901104Y-90583873D01*
X139877495Y-90590200D01*
X139877493Y-90590200D01*
X139877493Y-90590201D01*
X139856327Y-90602421D01*
X139856318Y-90602425D01*
X139774771Y-90649508D01*
X139774764Y-90649513D01*
X139726599Y-90697678D01*
X139698345Y-90718828D01*
X139686164Y-90725479D01*
X139617890Y-90740330D01*
X139552427Y-90715912D01*
X139552425Y-90715911D01*
X139545618Y-90710815D01*
X139512542Y-90673545D01*
X139510715Y-90670380D01*
X139460489Y-90583387D01*
X139376613Y-90499511D01*
X139273886Y-90440201D01*
X139159309Y-90409500D01*
X139159306Y-90409500D01*
X139040691Y-90409500D01*
X138949728Y-90433873D01*
X138949723Y-90433874D01*
X138926114Y-90440201D01*
X138926112Y-90440201D01*
X138926112Y-90440202D01*
X138904947Y-90452421D01*
X138904939Y-90452425D01*
X138823386Y-90499511D01*
X138823378Y-90499517D01*
X138739517Y-90583378D01*
X138739513Y-90583383D01*
X138739507Y-90583392D01*
X138689186Y-90670551D01*
X138689185Y-90670553D01*
X138681508Y-90683851D01*
X138680201Y-90686114D01*
X138649500Y-90800691D01*
X137825500Y-90800691D01*
X137825500Y-87719753D01*
X137824745Y-87716936D01*
X137805021Y-87643325D01*
X137805017Y-87643318D01*
X137765464Y-87574809D01*
X137765458Y-87574801D01*
X137765454Y-87574797D01*
X137765454Y-87574796D01*
X137558707Y-87368050D01*
X137554926Y-87363000D01*
X137537555Y-87339794D01*
X137530063Y-87326073D01*
X137515212Y-87257804D01*
X137515844Y-87248965D01*
X137532140Y-87195809D01*
X137544799Y-87173886D01*
X137575500Y-87059309D01*
X137575500Y-86940691D01*
X137544799Y-86826114D01*
X137485489Y-86723387D01*
X137401613Y-86639511D01*
X137298886Y-86580201D01*
X137184309Y-86549500D01*
X137184306Y-86549500D01*
X137090571Y-86549500D01*
X137090568Y-86549499D01*
X137090567Y-86549500D01*
X137055632Y-86544476D01*
X137042314Y-86540565D01*
X136983537Y-86502789D01*
X136954515Y-86439233D01*
X136953305Y-86430816D01*
X136956267Y-86381083D01*
X136958196Y-86373887D01*
X136975500Y-86309309D01*
X136975500Y-86190691D01*
X136944799Y-86076114D01*
X136885489Y-85973387D01*
X136801613Y-85889511D01*
X136698886Y-85830201D01*
X136584309Y-85799500D01*
X136584306Y-85799500D01*
X136465691Y-85799500D01*
X136374728Y-85823873D01*
X136374723Y-85823874D01*
X136351114Y-85830201D01*
X136351112Y-85830201D01*
X136351112Y-85830202D01*
X136329947Y-85842421D01*
X136329939Y-85842425D01*
X136248386Y-85889511D01*
X136248378Y-85889517D01*
X136164517Y-85973378D01*
X136164513Y-85973383D01*
X136134070Y-86026112D01*
X136105201Y-86076114D01*
X136074500Y-86190691D01*
X136074500Y-86309309D01*
X136105201Y-86423886D01*
X136164511Y-86526613D01*
X136164513Y-86526615D01*
X136175574Y-86537676D01*
X136196723Y-86565927D01*
X136209331Y-86589016D01*
X136224500Y-86648445D01*
X136224500Y-87227337D01*
X136219476Y-87262275D01*
X136216289Y-87273128D01*
X136178514Y-87331905D01*
X136114957Y-87360928D01*
X136045807Y-87350987D01*
X136038829Y-87347800D01*
X136002657Y-87322686D01*
X135290226Y-86610255D01*
X135290221Y-86610250D01*
X135269074Y-86581999D01*
X135260057Y-86565485D01*
X135244925Y-86503109D01*
X135245173Y-86492690D01*
X135249343Y-86463624D01*
X135249522Y-86462955D01*
X135250362Y-86460154D01*
X135250500Y-86459309D01*
X135250500Y-86340693D01*
X135250500Y-86340691D01*
X135219799Y-86226114D01*
X135160489Y-86123387D01*
X135076613Y-86039511D01*
X134973886Y-85980201D01*
X134859309Y-85949500D01*
X134859306Y-85949500D01*
X134740691Y-85949500D01*
X134649728Y-85973873D01*
X134649723Y-85973874D01*
X134626114Y-85980201D01*
X134626112Y-85980201D01*
X134626112Y-85980202D01*
X134604947Y-85992421D01*
X134604939Y-85992425D01*
X134523386Y-86039511D01*
X134523378Y-86039517D01*
X134439517Y-86123378D01*
X134439513Y-86123383D01*
X134439509Y-86123389D01*
X134439507Y-86123391D01*
X134400653Y-86190691D01*
X134400652Y-86190692D01*
X134380201Y-86226111D01*
X134380201Y-86226112D01*
X134357909Y-86309307D01*
X134349500Y-86340691D01*
X134349500Y-86459309D01*
X134380201Y-86573886D01*
X134439511Y-86676613D01*
X134523387Y-86760489D01*
X134626114Y-86819799D01*
X134626116Y-86819799D01*
X134629041Y-86821488D01*
X134633341Y-86823591D01*
X134633245Y-86823824D01*
X134640296Y-86827895D01*
X134643615Y-86828617D01*
X134653871Y-86833634D01*
X134657048Y-86836538D01*
X134673721Y-86845774D01*
X134674928Y-86846678D01*
X134688275Y-86858246D01*
X134764580Y-86934551D01*
X134785730Y-86962803D01*
X134791357Y-86973108D01*
X134792383Y-86974986D01*
X134796178Y-86992433D01*
X134804728Y-87008106D01*
X134803450Y-87025862D01*
X134807235Y-87043259D01*
X134800995Y-87059987D01*
X134799715Y-87077795D01*
X134782837Y-87108674D01*
X134782819Y-87108724D01*
X134782788Y-87108765D01*
X134781814Y-87110065D01*
X134736761Y-87147249D01*
X134732253Y-87149439D01*
X134726106Y-87151731D01*
X134725863Y-87151914D01*
X134725560Y-87151935D01*
X134710164Y-87157678D01*
X134699681Y-87160488D01*
X134627935Y-87179713D01*
X134626228Y-87180142D01*
X134626122Y-87180196D01*
X134626101Y-87180206D01*
X134523397Y-87239504D01*
X134523383Y-87239513D01*
X134523378Y-87239517D01*
X134439517Y-87323378D01*
X134439514Y-87323382D01*
X134439513Y-87323384D01*
X134439511Y-87323387D01*
X134382204Y-87422644D01*
X134380199Y-87426116D01*
X134360361Y-87500152D01*
X134360361Y-87500153D01*
X134346467Y-87532597D01*
X134338330Y-87545946D01*
X134286642Y-87592937D01*
X134286630Y-87592942D01*
X134286629Y-87592944D01*
X134286626Y-87592944D01*
X134285012Y-87593729D01*
X134224929Y-87606058D01*
X134190405Y-87604416D01*
X134187512Y-87605676D01*
X134172041Y-87606645D01*
X134091200Y-87606645D01*
X134000237Y-87631018D01*
X134000232Y-87631019D01*
X133976623Y-87637346D01*
X133976621Y-87637346D01*
X133976621Y-87637347D01*
X133955456Y-87649566D01*
X133955448Y-87649570D01*
X133873895Y-87696656D01*
X133873887Y-87696662D01*
X133790026Y-87780523D01*
X133790022Y-87780528D01*
X133790020Y-87780530D01*
X133774684Y-87807094D01*
X133749624Y-87850500D01*
X133748235Y-87852906D01*
X133730709Y-87883259D01*
X133703878Y-87983397D01*
X133700009Y-87997836D01*
X133700009Y-88116454D01*
X133730710Y-88231031D01*
X133790020Y-88333758D01*
X133873896Y-88417634D01*
X133976623Y-88476944D01*
X134091200Y-88507645D01*
X134091203Y-88507645D01*
X134209815Y-88507645D01*
X134209818Y-88507645D01*
X134281776Y-88488363D01*
X134316812Y-88484174D01*
X134330686Y-88484504D01*
X134397238Y-88505778D01*
X134441714Y-88559632D01*
X134442355Y-88561128D01*
X134452061Y-88618812D01*
X134451609Y-88625131D01*
X134449519Y-88640595D01*
X134449501Y-88640681D01*
X134449501Y-88640684D01*
X134449500Y-88640689D01*
X134449500Y-88640691D01*
X134449500Y-88759309D01*
X134480201Y-88873886D01*
X134539511Y-88976613D01*
X134623387Y-89060489D01*
X134726114Y-89119799D01*
X134840691Y-89150500D01*
X134840694Y-89150500D01*
X134959306Y-89150500D01*
X134959309Y-89150500D01*
X135073886Y-89119799D01*
X135176613Y-89060489D01*
X135260489Y-88976613D01*
X135319799Y-88873886D01*
X135350500Y-88759309D01*
X135350500Y-88640691D01*
X135319799Y-88526114D01*
X135260489Y-88423387D01*
X135176613Y-88339511D01*
X135117302Y-88305267D01*
X135073885Y-88280200D01*
X135073882Y-88280199D01*
X135001498Y-88260803D01*
X134987783Y-88252929D01*
X134974694Y-88250148D01*
X134969052Y-88246909D01*
X134959396Y-88241023D01*
X134951045Y-88231836D01*
X134946338Y-88229134D01*
X134938352Y-88221225D01*
X134933631Y-88212679D01*
X134912399Y-88189321D01*
X134908753Y-88167638D01*
X134904570Y-88160065D01*
X134905396Y-88147670D01*
X134900814Y-88120418D01*
X134908392Y-88102719D01*
X134909217Y-88090350D01*
X134919810Y-88076055D01*
X134928311Y-88056203D01*
X134929983Y-88054178D01*
X134946170Y-88040483D01*
X134950817Y-88034214D01*
X134955820Y-88032319D01*
X134963607Y-88025733D01*
X134973885Y-88019799D01*
X134973886Y-88019799D01*
X135076613Y-87960489D01*
X135160489Y-87876613D01*
X135219799Y-87773886D01*
X135240771Y-87695615D01*
X135254660Y-87663179D01*
X135261886Y-87651323D01*
X135313584Y-87604327D01*
X135382484Y-87592739D01*
X135384107Y-87592933D01*
X135438888Y-87613368D01*
X135443050Y-87616185D01*
X135461213Y-87631184D01*
X136025574Y-88195545D01*
X136046723Y-88223796D01*
X136059331Y-88246885D01*
X136074500Y-88306314D01*
X136074500Y-88329309D01*
X136105201Y-88443886D01*
X136164511Y-88546613D01*
X136248387Y-88630489D01*
X136351114Y-88689799D01*
X136465691Y-88720500D01*
X136465694Y-88720500D01*
X136584306Y-88720500D01*
X136584307Y-88720500D01*
X136584309Y-88720500D01*
X136651191Y-88702578D01*
X136684664Y-88698362D01*
X136685454Y-88698370D01*
X136693401Y-88698560D01*
X136694050Y-88698466D01*
X136699198Y-88698524D01*
X136728566Y-88707503D01*
X136758487Y-88714373D01*
X136761664Y-88717624D01*
X136766014Y-88718954D01*
X136785860Y-88742380D01*
X136801549Y-88758434D01*
X136803152Y-88757404D01*
X136804803Y-88759972D01*
X136805555Y-88762532D01*
X136807323Y-88764341D01*
X136807341Y-88764376D01*
X136808374Y-88766322D01*
X136806898Y-88767105D01*
X136806948Y-88767273D01*
X136811177Y-88772265D01*
X136813443Y-88789378D01*
X136824500Y-88827008D01*
X136824500Y-88974429D01*
X136824499Y-88974433D01*
X136824500Y-88974436D01*
X136819475Y-89009370D01*
X136815564Y-89022687D01*
X136777787Y-89081463D01*
X136714240Y-89110483D01*
X136714230Y-89110484D01*
X136714229Y-89110485D01*
X136714227Y-89110484D01*
X136705826Y-89111693D01*
X136656082Y-89108731D01*
X136641329Y-89104778D01*
X136641329Y-89104777D01*
X136584310Y-89089500D01*
X136584309Y-89089500D01*
X136465691Y-89089500D01*
X136374728Y-89113873D01*
X136374723Y-89113874D01*
X136351114Y-89120201D01*
X136351112Y-89120201D01*
X136351112Y-89120202D01*
X136329947Y-89132421D01*
X136329939Y-89132425D01*
X136248386Y-89179511D01*
X136248378Y-89179517D01*
X136164517Y-89263378D01*
X136164513Y-89263383D01*
X136105202Y-89366112D01*
X136105201Y-89366114D01*
X136074500Y-89480691D01*
X136074500Y-89599309D01*
X136105201Y-89713886D01*
X136164511Y-89816613D01*
X136248387Y-89900489D01*
X136351114Y-89959799D01*
X136465691Y-89990500D01*
X136465694Y-89990500D01*
X136584306Y-89990500D01*
X136584309Y-89990500D01*
X136651192Y-89972578D01*
X136686227Y-89968389D01*
X136700102Y-89968719D01*
X136766654Y-89989993D01*
X136811135Y-90043859D01*
X136814483Y-90051675D01*
X136824500Y-90100500D01*
X136824500Y-91864561D01*
X136844979Y-91940988D01*
X136876724Y-91995972D01*
X136878762Y-91999501D01*
X136878769Y-91999515D01*
X136882687Y-92006303D01*
X136884038Y-92008814D01*
X136884540Y-92009510D01*
X136884541Y-92009512D01*
X138489217Y-93614187D01*
X138507241Y-93638264D01*
X138510364Y-93642436D01*
X138513638Y-93648432D01*
X138517017Y-93654619D01*
X138531869Y-93722892D01*
X138507453Y-93788357D01*
X138507450Y-93788359D01*
X138502356Y-93795164D01*
X138465094Y-93828238D01*
X138445568Y-93839512D01*
X138445567Y-93839512D01*
X138445561Y-93839517D01*
X138361700Y-93923378D01*
X138361694Y-93923386D01*
X138330453Y-93977497D01*
X138302434Y-94026028D01*
X138302383Y-94026115D01*
X138275120Y-94127865D01*
X138271683Y-94140691D01*
X138271683Y-94259309D01*
X138302384Y-94373886D01*
X138361694Y-94476613D01*
X138445570Y-94560489D01*
X138548297Y-94619799D01*
X138662874Y-94650500D01*
X138662877Y-94650500D01*
X138781489Y-94650500D01*
X138781492Y-94650500D01*
X138896069Y-94619799D01*
X138998796Y-94560489D01*
X139082672Y-94476613D01*
X139091409Y-94461478D01*
X139113220Y-94433742D01*
X139123265Y-94424163D01*
X139185364Y-94392145D01*
X139254917Y-94398782D01*
X139262811Y-94401943D01*
X139304411Y-94429381D01*
X139865489Y-94990459D01*
X139866182Y-94990959D01*
X139868699Y-94992313D01*
X139917496Y-95020486D01*
X139917498Y-95020486D01*
X139934012Y-95030021D01*
X140010439Y-95050500D01*
X140573036Y-95050500D01*
X140589807Y-95055424D01*
X140607953Y-95055518D01*
X140611828Y-95056655D01*
X140613814Y-95057238D01*
X140628824Y-95066881D01*
X140640075Y-95070185D01*
X140647744Y-95079036D01*
X140672598Y-95095003D01*
X140684885Y-95121899D01*
X140685830Y-95122989D01*
X140686362Y-95124168D01*
X140688258Y-95128437D01*
X140688416Y-95129627D01*
X140701632Y-95158555D01*
X140696772Y-95192389D01*
X140697479Y-95197696D01*
X140695362Y-95202204D01*
X140691699Y-95227715D01*
X140673561Y-95248652D01*
X140667792Y-95260945D01*
X140657092Y-95267664D01*
X140645952Y-95280525D01*
X140641987Y-95283074D01*
X140610060Y-95297200D01*
X140608623Y-95298104D01*
X140608034Y-95298097D01*
X140607028Y-95298542D01*
X140581884Y-95305280D01*
X140565268Y-95307468D01*
X140551975Y-95317669D01*
X140463387Y-95368816D01*
X140463379Y-95368822D01*
X140379518Y-95452683D01*
X140379514Y-95452688D01*
X140357573Y-95490691D01*
X140320202Y-95555419D01*
X140289501Y-95669996D01*
X140289501Y-95669998D01*
X140289501Y-95788612D01*
X140289502Y-95788623D01*
X140294023Y-95805498D01*
X140297377Y-95833552D01*
X140298212Y-95840534D01*
X140297882Y-95854407D01*
X140276609Y-95920959D01*
X140222735Y-95965444D01*
X140214920Y-95968791D01*
X140166102Y-95978805D01*
X138067725Y-95978805D01*
X138032786Y-95973781D01*
X138019468Y-95969870D01*
X138004464Y-95960227D01*
X137987355Y-95955201D01*
X137975686Y-95941731D01*
X137960691Y-95932094D01*
X137953283Y-95915871D01*
X137941606Y-95902392D01*
X137931672Y-95868544D01*
X137931669Y-95868537D01*
X137931667Y-95868526D01*
X137931436Y-95866918D01*
X137936996Y-95808730D01*
X137938641Y-95803978D01*
X137941345Y-95798057D01*
X137941388Y-95797761D01*
X137941584Y-95797534D01*
X137948423Y-95782560D01*
X137974137Y-95738021D01*
X137979146Y-95731493D01*
X137979185Y-95731402D01*
X137979186Y-95731398D01*
X137982296Y-95723891D01*
X137982297Y-95723890D01*
X137982297Y-95723888D01*
X137982299Y-95723886D01*
X137982301Y-95723876D01*
X137985411Y-95716370D01*
X137985412Y-95716368D01*
X137985448Y-95716281D01*
X137986522Y-95708126D01*
X137991193Y-95690693D01*
X138013000Y-95609309D01*
X138013000Y-95490691D01*
X137982299Y-95376114D01*
X137922989Y-95273387D01*
X137839113Y-95189511D01*
X137736386Y-95130201D01*
X137621809Y-95099500D01*
X137621806Y-95099500D01*
X137503191Y-95099500D01*
X137412228Y-95123873D01*
X137412223Y-95123874D01*
X137388614Y-95130201D01*
X137388612Y-95130201D01*
X137388612Y-95130202D01*
X137367447Y-95142421D01*
X137367439Y-95142425D01*
X137285886Y-95189511D01*
X137285878Y-95189517D01*
X137202017Y-95273378D01*
X137202013Y-95273383D01*
X137202009Y-95273389D01*
X137202007Y-95273391D01*
X137146918Y-95368811D01*
X137146913Y-95368820D01*
X137142700Y-95376114D01*
X137142700Y-95376115D01*
X137112000Y-95490691D01*
X137112000Y-95609308D01*
X137133807Y-95690694D01*
X137142701Y-95723890D01*
X137150861Y-95738024D01*
X137150865Y-95738028D01*
X137150867Y-95738031D01*
X137173576Y-95777364D01*
X137186692Y-95810123D01*
X137189965Y-95823611D01*
X137189117Y-95841424D01*
X137190049Y-95845264D01*
X137188757Y-95848995D01*
X137186645Y-95893401D01*
X137146176Y-95950273D01*
X137144901Y-95951277D01*
X137091658Y-95975614D01*
X137086735Y-95976563D01*
X137063264Y-95978805D01*
X136795491Y-95978805D01*
X136795490Y-95978804D01*
X136795490Y-95978805D01*
X136760555Y-95973782D01*
X136735313Y-95966370D01*
X136682568Y-95935074D01*
X135596949Y-94849455D01*
X135575797Y-94821199D01*
X135563190Y-94798110D01*
X135548023Y-94738685D01*
X135548023Y-94715693D01*
X135548023Y-94715691D01*
X135517322Y-94601114D01*
X135458012Y-94498387D01*
X135374136Y-94414511D01*
X135271409Y-94355201D01*
X135156832Y-94324500D01*
X135156829Y-94324500D01*
X135099985Y-94324500D01*
X135099980Y-94324499D01*
X135099978Y-94324500D01*
X135065044Y-94319475D01*
X135050045Y-94315070D01*
X134991276Y-94277301D01*
X134985470Y-94270601D01*
X134959405Y-94221488D01*
X134958525Y-94218205D01*
X134926281Y-94097865D01*
X134926276Y-94097857D01*
X134885698Y-94027574D01*
X134850515Y-93966635D01*
X134743365Y-93859485D01*
X134664133Y-93813740D01*
X134650327Y-93805769D01*
X134612137Y-93783719D01*
X134526192Y-93760691D01*
X136159500Y-93760691D01*
X136159500Y-93879309D01*
X136190201Y-93993886D01*
X136249511Y-94096613D01*
X136333387Y-94180489D01*
X136436114Y-94239799D01*
X136550691Y-94270500D01*
X136550694Y-94270500D01*
X136669306Y-94270500D01*
X136669309Y-94270500D01*
X136783886Y-94239799D01*
X136886613Y-94180489D01*
X136970489Y-94096613D01*
X137029799Y-93993886D01*
X137060500Y-93879309D01*
X137060500Y-93760691D01*
X137029799Y-93646114D01*
X136970489Y-93543387D01*
X136886613Y-93459511D01*
X136783886Y-93400201D01*
X136669309Y-93369500D01*
X136669306Y-93369500D01*
X136550691Y-93369500D01*
X136459728Y-93393873D01*
X136459723Y-93393874D01*
X136436114Y-93400201D01*
X136436112Y-93400201D01*
X136436112Y-93400202D01*
X136414947Y-93412421D01*
X136414939Y-93412425D01*
X136333386Y-93459511D01*
X136333378Y-93459517D01*
X136249517Y-93543378D01*
X136249513Y-93543383D01*
X136249507Y-93543392D01*
X136208638Y-93614181D01*
X136201461Y-93626612D01*
X136190201Y-93646114D01*
X136159500Y-93760691D01*
X134526192Y-93760691D01*
X134494719Y-93752258D01*
X134465766Y-93744500D01*
X134465765Y-93744500D01*
X134314234Y-93744500D01*
X134167859Y-93783720D01*
X134167857Y-93783721D01*
X134036645Y-93859478D01*
X134036631Y-93859487D01*
X134036626Y-93859491D01*
X133929491Y-93966626D01*
X133929487Y-93966631D01*
X133929478Y-93966645D01*
X133853721Y-94097857D01*
X133853720Y-94097859D01*
X133814500Y-94244234D01*
X133814500Y-94372347D01*
X133813003Y-94391554D01*
X133811389Y-94401848D01*
X133781558Y-94465030D01*
X133722304Y-94502053D01*
X133656792Y-94502416D01*
X133560492Y-94476612D01*
X133560492Y-94476611D01*
X133480690Y-94455229D01*
X133459309Y-94449500D01*
X133459308Y-94449500D01*
X133340689Y-94449500D01*
X133284113Y-94464659D01*
X133249072Y-94468849D01*
X133235198Y-94468519D01*
X133168646Y-94447246D01*
X133124160Y-94393369D01*
X133123512Y-94391856D01*
X133113822Y-94334223D01*
X133114181Y-94329211D01*
X133118088Y-94305975D01*
X133132528Y-94252090D01*
X133132528Y-94133472D01*
X133101827Y-94018895D01*
X133042517Y-93916168D01*
X132958641Y-93832292D01*
X132855914Y-93772982D01*
X132741337Y-93742281D01*
X132741334Y-93742281D01*
X132622719Y-93742281D01*
X132531756Y-93766654D01*
X132531751Y-93766655D01*
X132508142Y-93772982D01*
X132508140Y-93772982D01*
X132508140Y-93772983D01*
X132486975Y-93785202D01*
X132486967Y-93785206D01*
X132405414Y-93832292D01*
X132405406Y-93832298D01*
X132321545Y-93916159D01*
X132321541Y-93916164D01*
X132321535Y-93916173D01*
X132283348Y-93982315D01*
X132283346Y-93982319D01*
X132276668Y-93993887D01*
X132262229Y-94018895D01*
X132231528Y-94133472D01*
X130267783Y-94133472D01*
X130266281Y-94127865D01*
X130261626Y-94119804D01*
X130261625Y-94119798D01*
X130261624Y-94119799D01*
X130248240Y-94096617D01*
X130246021Y-94092773D01*
X130190515Y-93996635D01*
X130083365Y-93889485D01*
X130008951Y-93846522D01*
X129952136Y-93813719D01*
X129861788Y-93789511D01*
X129805766Y-93774500D01*
X129805765Y-93774500D01*
X129654234Y-93774500D01*
X129507859Y-93813720D01*
X129507857Y-93813721D01*
X129376641Y-93889481D01*
X129376636Y-93889484D01*
X129281200Y-93984920D01*
X129281198Y-93984921D01*
X129281198Y-93984922D01*
X129252943Y-94006072D01*
X129240760Y-94012724D01*
X129172487Y-94027574D01*
X129107028Y-94003159D01*
X129103849Y-94000779D01*
X129100089Y-93997964D01*
X129073805Y-93971200D01*
X129070515Y-93966636D01*
X129070515Y-93966635D01*
X128963365Y-93859485D01*
X128832135Y-93783719D01*
X128714718Y-93752257D01*
X128714716Y-93752256D01*
X128714715Y-93752256D01*
X128714713Y-93752256D01*
X128682274Y-93738363D01*
X128670421Y-93731138D01*
X128623425Y-93679437D01*
X128611840Y-93610549D01*
X128612034Y-93608927D01*
X128632470Y-93554138D01*
X128635287Y-93549976D01*
X128650285Y-93531816D01*
X128660489Y-93521613D01*
X128660491Y-93521608D01*
X128660494Y-93521606D01*
X128717202Y-93423384D01*
X128719799Y-93418886D01*
X128750500Y-93304309D01*
X128750500Y-93185691D01*
X128719799Y-93071114D01*
X128702234Y-93040691D01*
X134449500Y-93040691D01*
X134449500Y-93159309D01*
X134480201Y-93273886D01*
X134539511Y-93376613D01*
X134623387Y-93460489D01*
X134726114Y-93519799D01*
X134840691Y-93550500D01*
X134840694Y-93550500D01*
X134959306Y-93550500D01*
X134959309Y-93550500D01*
X135073886Y-93519799D01*
X135176613Y-93460489D01*
X135260489Y-93376613D01*
X135319799Y-93273886D01*
X135350500Y-93159309D01*
X135350500Y-93040691D01*
X135319799Y-92926114D01*
X135260489Y-92823387D01*
X135176613Y-92739511D01*
X135073886Y-92680201D01*
X134959309Y-92649500D01*
X134959306Y-92649500D01*
X134840691Y-92649500D01*
X134749728Y-92673873D01*
X134749723Y-92673874D01*
X134726114Y-92680201D01*
X134726112Y-92680201D01*
X134726112Y-92680202D01*
X134704947Y-92692421D01*
X134704939Y-92692425D01*
X134623386Y-92739511D01*
X134623378Y-92739517D01*
X134539517Y-92823378D01*
X134539513Y-92823383D01*
X134539509Y-92823389D01*
X134539507Y-92823391D01*
X134495629Y-92899392D01*
X134488520Y-92911706D01*
X134480201Y-92926114D01*
X134449500Y-93040691D01*
X128702234Y-93040691D01*
X128660489Y-92968387D01*
X128576613Y-92884511D01*
X128473886Y-92825201D01*
X128359309Y-92794500D01*
X128359306Y-92794500D01*
X128240691Y-92794500D01*
X128149728Y-92818873D01*
X128149723Y-92818874D01*
X128126114Y-92825201D01*
X128126112Y-92825201D01*
X128126112Y-92825202D01*
X128104947Y-92837421D01*
X128104939Y-92837425D01*
X128023386Y-92884511D01*
X128023378Y-92884517D01*
X127939517Y-92968378D01*
X127939513Y-92968383D01*
X127907149Y-93024439D01*
X127880201Y-93071114D01*
X127849500Y-93185691D01*
X125500500Y-93185691D01*
X125500500Y-92515569D01*
X125505522Y-92480636D01*
X125509433Y-92467317D01*
X125547206Y-92408540D01*
X125610758Y-92379515D01*
X125614590Y-92378964D01*
X125619185Y-92378304D01*
X125668916Y-92381268D01*
X125681459Y-92384628D01*
X125740691Y-92400500D01*
X125740694Y-92400500D01*
X125859306Y-92400500D01*
X125859309Y-92400500D01*
X125973886Y-92369799D01*
X126076613Y-92310489D01*
X126160489Y-92226613D01*
X126219799Y-92123886D01*
X126219801Y-92123875D01*
X126222907Y-92116380D01*
X126224750Y-92117143D01*
X126227074Y-92113141D01*
X126230156Y-92099310D01*
X126232805Y-92094749D01*
X126238691Y-92085093D01*
X126248581Y-92076101D01*
X126251449Y-92071163D01*
X126258740Y-92063945D01*
X126266643Y-92059680D01*
X126290387Y-92038095D01*
X126314019Y-92034120D01*
X126320231Y-92030769D01*
X126329653Y-92031490D01*
X126359289Y-92026506D01*
X126379919Y-92035339D01*
X126389897Y-92036104D01*
X126400583Y-92044188D01*
X126423519Y-92054009D01*
X126423577Y-92054057D01*
X126424050Y-92054448D01*
X126437733Y-92072291D01*
X126445619Y-92078256D01*
X126448661Y-92086540D01*
X126457838Y-92098506D01*
X126458772Y-92100551D01*
X126465753Y-92119970D01*
X126480200Y-92173884D01*
X126480200Y-92173885D01*
X126502216Y-92212017D01*
X126539511Y-92276613D01*
X126623387Y-92360489D01*
X126726114Y-92419799D01*
X126840691Y-92450500D01*
X126840694Y-92450500D01*
X126959306Y-92450500D01*
X126959309Y-92450500D01*
X127073886Y-92419799D01*
X127176613Y-92360489D01*
X127260489Y-92276613D01*
X127283702Y-92236406D01*
X127285869Y-92233651D01*
X127305508Y-92208676D01*
X127315563Y-92199089D01*
X127377661Y-92167076D01*
X127447211Y-92173716D01*
X127448756Y-92174335D01*
X127496345Y-92208230D01*
X127499629Y-92212020D01*
X127513305Y-92231225D01*
X127539509Y-92276611D01*
X127539510Y-92276612D01*
X127539511Y-92276613D01*
X127623387Y-92360489D01*
X127726114Y-92419799D01*
X127840691Y-92450500D01*
X127840694Y-92450500D01*
X127959306Y-92450500D01*
X127959309Y-92450500D01*
X128073886Y-92419799D01*
X128176613Y-92360489D01*
X128260489Y-92276613D01*
X128319799Y-92173886D01*
X128350500Y-92059309D01*
X128350500Y-91940691D01*
X128319799Y-91826114D01*
X128260489Y-91723387D01*
X128176613Y-91639511D01*
X128073886Y-91580201D01*
X127959309Y-91549500D01*
X127959306Y-91549500D01*
X127840691Y-91549500D01*
X127749728Y-91573873D01*
X127749723Y-91573874D01*
X127726114Y-91580201D01*
X127726112Y-91580201D01*
X127726112Y-91580202D01*
X127704947Y-91592421D01*
X127704939Y-91592425D01*
X127623386Y-91639511D01*
X127623378Y-91639517D01*
X127539517Y-91723378D01*
X127539511Y-91723385D01*
X127516299Y-91763589D01*
X127497127Y-91787969D01*
X127494487Y-91791326D01*
X127488589Y-91796949D01*
X127484443Y-91800902D01*
X127422344Y-91832921D01*
X127352791Y-91826283D01*
X127352779Y-91826278D01*
X127351268Y-91825673D01*
X127303645Y-91791758D01*
X127300362Y-91787969D01*
X127286693Y-91768774D01*
X127276807Y-91751651D01*
X127262097Y-91726173D01*
X127260491Y-91723390D01*
X127260487Y-91723385D01*
X127176615Y-91639513D01*
X127176613Y-91639511D01*
X127073886Y-91580201D01*
X126959309Y-91549500D01*
X126959306Y-91549500D01*
X126840691Y-91549500D01*
X126749728Y-91573873D01*
X126749723Y-91573874D01*
X126726114Y-91580201D01*
X126726112Y-91580201D01*
X126726112Y-91580202D01*
X126704947Y-91592421D01*
X126704939Y-91592425D01*
X126623386Y-91639511D01*
X126623378Y-91639517D01*
X126539517Y-91723378D01*
X126539513Y-91723383D01*
X126539512Y-91723384D01*
X126480199Y-91826114D01*
X126477090Y-91833621D01*
X126475252Y-91832859D01*
X126472932Y-91836855D01*
X126469864Y-91850650D01*
X126467186Y-91855262D01*
X126461301Y-91864915D01*
X126451441Y-91873876D01*
X126448580Y-91878805D01*
X126441289Y-91886028D01*
X126433361Y-91890308D01*
X126409597Y-91911908D01*
X126386022Y-91915870D01*
X126379810Y-91919225D01*
X126370352Y-91918504D01*
X126340694Y-91923489D01*
X126320103Y-91914673D01*
X126310143Y-91913914D01*
X126299449Y-91905830D01*
X126276500Y-91896005D01*
X126276025Y-91895613D01*
X126262329Y-91877771D01*
X126254406Y-91871782D01*
X126251349Y-91863467D01*
X126242163Y-91851500D01*
X126241227Y-91849451D01*
X126234247Y-91830035D01*
X126219799Y-91776114D01*
X126215559Y-91768771D01*
X126190964Y-91726171D01*
X126160489Y-91673387D01*
X126076613Y-91589511D01*
X125973886Y-91530201D01*
X125859309Y-91499500D01*
X125859306Y-91499500D01*
X125740689Y-91499500D01*
X125673812Y-91517419D01*
X125638771Y-91521609D01*
X125624897Y-91521279D01*
X125558345Y-91500006D01*
X125513859Y-91446129D01*
X125513855Y-91446120D01*
X125510509Y-91438305D01*
X125500500Y-91389499D01*
X125500500Y-90690691D01*
X126949500Y-90690691D01*
X126949500Y-90809309D01*
X126980201Y-90923886D01*
X127039511Y-91026613D01*
X127123387Y-91110489D01*
X127226114Y-91169799D01*
X127340691Y-91200500D01*
X127340694Y-91200500D01*
X127459306Y-91200500D01*
X127459309Y-91200500D01*
X127573886Y-91169799D01*
X127676613Y-91110489D01*
X127760489Y-91026613D01*
X127819799Y-90923886D01*
X127850500Y-90809309D01*
X127850500Y-90690691D01*
X127819799Y-90576114D01*
X127760489Y-90473387D01*
X127676613Y-90389511D01*
X127573886Y-90330201D01*
X127459309Y-90299500D01*
X127459306Y-90299500D01*
X127340691Y-90299500D01*
X127249728Y-90323873D01*
X127249723Y-90323874D01*
X127226114Y-90330201D01*
X127226112Y-90330201D01*
X127226112Y-90330202D01*
X127204947Y-90342421D01*
X127204939Y-90342425D01*
X127123386Y-90389511D01*
X127123378Y-90389517D01*
X127039517Y-90473378D01*
X127039513Y-90473383D01*
X127039512Y-90473385D01*
X127035394Y-90480518D01*
X127011284Y-90522278D01*
X126980201Y-90576114D01*
X126949500Y-90690691D01*
X125500500Y-90690691D01*
X125500500Y-89840691D01*
X128849500Y-89840691D01*
X128849500Y-89959309D01*
X128880201Y-90073886D01*
X128923847Y-90149482D01*
X128939510Y-90176611D01*
X128939512Y-90176614D01*
X129012055Y-90249157D01*
X129033206Y-90277412D01*
X129040698Y-90291133D01*
X129055550Y-90359393D01*
X129055421Y-90361199D01*
X129036053Y-90419402D01*
X129031872Y-90425908D01*
X129015236Y-90446551D01*
X128939511Y-90522275D01*
X128880211Y-90624985D01*
X128880200Y-90625005D01*
X128855842Y-90715912D01*
X128849500Y-90739582D01*
X128849500Y-90858200D01*
X128880201Y-90972777D01*
X128939511Y-91075504D01*
X129023387Y-91159380D01*
X129126114Y-91218690D01*
X129240691Y-91249391D01*
X129240694Y-91249391D01*
X129359306Y-91249391D01*
X129359309Y-91249391D01*
X129473886Y-91218690D01*
X129576613Y-91159380D01*
X129660489Y-91075504D01*
X129719799Y-90972777D01*
X129750500Y-90858200D01*
X129750500Y-90739582D01*
X129719799Y-90625005D01*
X129660489Y-90522278D01*
X129587944Y-90449733D01*
X129583237Y-90443446D01*
X129566792Y-90421477D01*
X129559300Y-90407756D01*
X129544448Y-90339496D01*
X129544577Y-90337687D01*
X129563944Y-90279490D01*
X129568128Y-90272978D01*
X129584751Y-90252350D01*
X129660489Y-90176613D01*
X129719799Y-90073886D01*
X129750500Y-89959309D01*
X129750500Y-89840691D01*
X129719799Y-89726114D01*
X129660489Y-89623387D01*
X129576613Y-89539511D01*
X129473886Y-89480201D01*
X129359309Y-89449500D01*
X129359306Y-89449500D01*
X129240691Y-89449500D01*
X129149728Y-89473873D01*
X129149723Y-89473874D01*
X129126114Y-89480201D01*
X129126112Y-89480201D01*
X129126112Y-89480202D01*
X129104947Y-89492421D01*
X129104939Y-89492425D01*
X129023386Y-89539511D01*
X129023378Y-89539517D01*
X128939517Y-89623378D01*
X128939513Y-89623383D01*
X128923857Y-89650500D01*
X128880201Y-89726114D01*
X128849500Y-89840691D01*
X125500500Y-89840691D01*
X125500500Y-87878191D01*
X127399500Y-87878191D01*
X127399500Y-87996809D01*
X127430201Y-88111386D01*
X127489511Y-88214113D01*
X127573387Y-88297989D01*
X127676114Y-88357299D01*
X127790691Y-88388000D01*
X127790694Y-88388000D01*
X127909306Y-88388000D01*
X127909309Y-88388000D01*
X128023886Y-88357299D01*
X128126613Y-88297989D01*
X128210489Y-88214113D01*
X128269799Y-88111386D01*
X128300500Y-87996809D01*
X128300500Y-87878191D01*
X128269799Y-87763614D01*
X128210489Y-87660887D01*
X128126613Y-87577011D01*
X128023886Y-87517701D01*
X127909309Y-87487000D01*
X127909306Y-87487000D01*
X127868551Y-87487000D01*
X127806525Y-87468787D01*
X127795986Y-87480381D01*
X127768337Y-87492221D01*
X127766383Y-87493477D01*
X127763551Y-87494272D01*
X127741607Y-87500152D01*
X127691881Y-87513476D01*
X127675267Y-87515663D01*
X127661974Y-87525864D01*
X127573386Y-87577011D01*
X127573378Y-87577017D01*
X127489517Y-87660878D01*
X127489514Y-87660882D01*
X127489495Y-87660913D01*
X127480433Y-87676610D01*
X127480432Y-87676612D01*
X127430201Y-87763613D01*
X127425668Y-87780530D01*
X127399500Y-87878191D01*
X125500500Y-87878191D01*
X125500500Y-86740691D01*
X127299500Y-86740691D01*
X127299500Y-86859309D01*
X127330201Y-86973886D01*
X127389511Y-87076613D01*
X127473387Y-87160489D01*
X127576114Y-87219799D01*
X127690691Y-87250500D01*
X127690694Y-87250500D01*
X127731448Y-87250500D01*
X127749937Y-87255929D01*
X127769205Y-87256388D01*
X127782771Y-87265570D01*
X127794656Y-87269060D01*
X127833616Y-87244023D01*
X127836405Y-87243239D01*
X127923886Y-87219799D01*
X128026613Y-87160489D01*
X128110489Y-87076613D01*
X128148705Y-87010418D01*
X128170514Y-86982690D01*
X128180566Y-86973106D01*
X128242667Y-86941095D01*
X128312179Y-86947723D01*
X128313691Y-86948329D01*
X128361345Y-86982250D01*
X128364632Y-86986043D01*
X128378304Y-87005243D01*
X128409519Y-87059307D01*
X128419511Y-87076613D01*
X128503387Y-87160489D01*
X128606114Y-87219799D01*
X128720691Y-87250500D01*
X128720694Y-87250500D01*
X128839306Y-87250500D01*
X128839309Y-87250500D01*
X128953886Y-87219799D01*
X129056613Y-87160489D01*
X129140489Y-87076613D01*
X129199799Y-86973886D01*
X129230500Y-86859309D01*
X129230500Y-86740691D01*
X129199799Y-86626114D01*
X129140489Y-86523387D01*
X129056613Y-86439511D01*
X128953886Y-86380201D01*
X128839309Y-86349500D01*
X128839306Y-86349500D01*
X128720691Y-86349500D01*
X128629728Y-86373873D01*
X128629723Y-86373874D01*
X128606114Y-86380201D01*
X128606112Y-86380201D01*
X128606112Y-86380202D01*
X128584947Y-86392421D01*
X128584939Y-86392425D01*
X128503386Y-86439511D01*
X128503378Y-86439517D01*
X128419517Y-86523378D01*
X128419512Y-86523385D01*
X128419508Y-86523391D01*
X128381298Y-86589570D01*
X128362118Y-86613959D01*
X128359482Y-86617310D01*
X128350250Y-86626114D01*
X128349440Y-86626886D01*
X128287337Y-86658902D01*
X128217784Y-86652261D01*
X128217668Y-86652214D01*
X128216242Y-86651643D01*
X128168649Y-86617743D01*
X128168275Y-86617311D01*
X128165366Y-86613954D01*
X128151695Y-86594756D01*
X128144329Y-86581999D01*
X128114200Y-86529815D01*
X128110489Y-86523387D01*
X128026613Y-86439511D01*
X128026612Y-86439510D01*
X127944956Y-86392366D01*
X127923886Y-86380201D01*
X127809309Y-86349500D01*
X127809306Y-86349500D01*
X127690691Y-86349500D01*
X127599728Y-86373873D01*
X127599723Y-86373874D01*
X127576114Y-86380201D01*
X127576112Y-86380201D01*
X127576112Y-86380202D01*
X127554947Y-86392421D01*
X127554939Y-86392425D01*
X127473386Y-86439511D01*
X127473378Y-86439517D01*
X127389517Y-86523378D01*
X127389513Y-86523383D01*
X127389512Y-86523385D01*
X127387649Y-86526612D01*
X127356709Y-86580202D01*
X127330201Y-86626114D01*
X127299500Y-86740691D01*
X125500500Y-86740691D01*
X125500500Y-86140691D01*
X130749500Y-86140691D01*
X130749500Y-86259309D01*
X130780201Y-86373886D01*
X130839511Y-86476613D01*
X130923387Y-86560489D01*
X131026114Y-86619799D01*
X131140691Y-86650500D01*
X131140694Y-86650500D01*
X131259306Y-86650500D01*
X131259309Y-86650500D01*
X131373886Y-86619799D01*
X131476613Y-86560489D01*
X131560489Y-86476613D01*
X131619799Y-86373886D01*
X131650500Y-86259309D01*
X131650500Y-86140691D01*
X131619799Y-86026114D01*
X131560489Y-85923387D01*
X131476613Y-85839511D01*
X131373886Y-85780201D01*
X131259309Y-85749500D01*
X131259306Y-85749500D01*
X131140691Y-85749500D01*
X131049728Y-85773873D01*
X131049723Y-85773874D01*
X131026114Y-85780201D01*
X131026112Y-85780201D01*
X131026112Y-85780202D01*
X131004947Y-85792421D01*
X131004939Y-85792425D01*
X130923386Y-85839511D01*
X130923378Y-85839517D01*
X130839517Y-85923378D01*
X130839513Y-85923383D01*
X130839507Y-85923392D01*
X130798356Y-85994668D01*
X130798354Y-85994671D01*
X130791461Y-86006612D01*
X130780201Y-86026114D01*
X130749500Y-86140691D01*
X125500500Y-86140691D01*
X125500500Y-85142329D01*
X125505523Y-85107393D01*
X125509927Y-85092395D01*
X125547672Y-85033644D01*
X125547700Y-85033619D01*
X125547699Y-85033619D01*
X125549041Y-85032456D01*
X125603920Y-85004977D01*
X125611479Y-85003333D01*
X125637832Y-85000500D01*
X132693215Y-85000500D01*
X132728147Y-85005521D01*
G37*
%TD.AperFunction*%
%TD*%
M02*
