%TF.GenerationSoftware,KiCad,Pcbnew,9.0.5*%
%TF.CreationDate,2025-10-08T18:58:19+09:00*%
%TF.ProjectId,universal,756e6976-6572-4736-916c-2e6b69636164,rev?*%
%TF.SameCoordinates,Original*%
%TF.FileFunction,Legend,Top*%
%TF.FilePolarity,Positive*%
%FSLAX46Y46*%
G04 Gerber Fmt 4.6, Leading zero omitted, Abs format (unit mm)*
G04 Created by KiCad (PCBNEW 9.0.5) date 2025-10-08 18:58:19*
%MOMM*%
%LPD*%
G01*
G04 APERTURE LIST*
%ADD10C,0.100000*%
%ADD11C,0.200000*%
%ADD12C,0.120000*%
G04 APERTURE END LIST*
D10*
X100982455Y-85955752D02*
X100982455Y-86622419D01*
X100744360Y-85574800D02*
X100506265Y-86289085D01*
X100506265Y-86289085D02*
X101125312Y-86289085D01*
X101077693Y-99372419D02*
X100506265Y-99372419D01*
X100791979Y-99372419D02*
X100791979Y-98372419D01*
X100791979Y-98372419D02*
X100696741Y-98515276D01*
X100696741Y-98515276D02*
X100601503Y-98610514D01*
X100601503Y-98610514D02*
X100506265Y-98658133D01*
X101934836Y-98705752D02*
X101934836Y-99372419D01*
X101696741Y-98324800D02*
X101458646Y-99039085D01*
X101458646Y-99039085D02*
X102077693Y-99039085D01*
X102293496Y-126170038D02*
X102198258Y-126122419D01*
X102198258Y-126122419D02*
X102055401Y-126122419D01*
X102055401Y-126122419D02*
X101912544Y-126170038D01*
X101912544Y-126170038D02*
X101817306Y-126265276D01*
X101817306Y-126265276D02*
X101769687Y-126360514D01*
X101769687Y-126360514D02*
X101722068Y-126550990D01*
X101722068Y-126550990D02*
X101722068Y-126693847D01*
X101722068Y-126693847D02*
X101769687Y-126884323D01*
X101769687Y-126884323D02*
X101817306Y-126979561D01*
X101817306Y-126979561D02*
X101912544Y-127074800D01*
X101912544Y-127074800D02*
X102055401Y-127122419D01*
X102055401Y-127122419D02*
X102150639Y-127122419D01*
X102150639Y-127122419D02*
X102293496Y-127074800D01*
X102293496Y-127074800D02*
X102341115Y-127027180D01*
X102341115Y-127027180D02*
X102341115Y-126693847D01*
X102341115Y-126693847D02*
X102150639Y-126693847D01*
X102769687Y-127122419D02*
X102769687Y-126122419D01*
X102769687Y-126122419D02*
X103341115Y-127122419D01*
X103341115Y-127122419D02*
X103341115Y-126122419D01*
X103817306Y-127122419D02*
X103817306Y-126122419D01*
X103817306Y-126122419D02*
X104055401Y-126122419D01*
X104055401Y-126122419D02*
X104198258Y-126170038D01*
X104198258Y-126170038D02*
X104293496Y-126265276D01*
X104293496Y-126265276D02*
X104341115Y-126360514D01*
X104341115Y-126360514D02*
X104388734Y-126550990D01*
X104388734Y-126550990D02*
X104388734Y-126693847D01*
X104388734Y-126693847D02*
X104341115Y-126884323D01*
X104341115Y-126884323D02*
X104293496Y-126979561D01*
X104293496Y-126979561D02*
X104198258Y-127074800D01*
X104198258Y-127074800D02*
X104055401Y-127122419D01*
X104055401Y-127122419D02*
X103817306Y-127122419D01*
X190506265Y-116217657D02*
X190553884Y-116170038D01*
X190553884Y-116170038D02*
X190649122Y-116122419D01*
X190649122Y-116122419D02*
X190887217Y-116122419D01*
X190887217Y-116122419D02*
X190982455Y-116170038D01*
X190982455Y-116170038D02*
X191030074Y-116217657D01*
X191030074Y-116217657D02*
X191077693Y-116312895D01*
X191077693Y-116312895D02*
X191077693Y-116408133D01*
X191077693Y-116408133D02*
X191030074Y-116550990D01*
X191030074Y-116550990D02*
X190458646Y-117122419D01*
X190458646Y-117122419D02*
X191077693Y-117122419D01*
X191649122Y-116550990D02*
X191553884Y-116503371D01*
X191553884Y-116503371D02*
X191506265Y-116455752D01*
X191506265Y-116455752D02*
X191458646Y-116360514D01*
X191458646Y-116360514D02*
X191458646Y-116312895D01*
X191458646Y-116312895D02*
X191506265Y-116217657D01*
X191506265Y-116217657D02*
X191553884Y-116170038D01*
X191553884Y-116170038D02*
X191649122Y-116122419D01*
X191649122Y-116122419D02*
X191839598Y-116122419D01*
X191839598Y-116122419D02*
X191934836Y-116170038D01*
X191934836Y-116170038D02*
X191982455Y-116217657D01*
X191982455Y-116217657D02*
X192030074Y-116312895D01*
X192030074Y-116312895D02*
X192030074Y-116360514D01*
X192030074Y-116360514D02*
X191982455Y-116455752D01*
X191982455Y-116455752D02*
X191934836Y-116503371D01*
X191934836Y-116503371D02*
X191839598Y-116550990D01*
X191839598Y-116550990D02*
X191649122Y-116550990D01*
X191649122Y-116550990D02*
X191553884Y-116598609D01*
X191553884Y-116598609D02*
X191506265Y-116646228D01*
X191506265Y-116646228D02*
X191458646Y-116741466D01*
X191458646Y-116741466D02*
X191458646Y-116931942D01*
X191458646Y-116931942D02*
X191506265Y-117027180D01*
X191506265Y-117027180D02*
X191553884Y-117074800D01*
X191553884Y-117074800D02*
X191649122Y-117122419D01*
X191649122Y-117122419D02*
X191839598Y-117122419D01*
X191839598Y-117122419D02*
X191934836Y-117074800D01*
X191934836Y-117074800D02*
X191982455Y-117027180D01*
X191982455Y-117027180D02*
X192030074Y-116931942D01*
X192030074Y-116931942D02*
X192030074Y-116741466D01*
X192030074Y-116741466D02*
X191982455Y-116646228D01*
X191982455Y-116646228D02*
X191934836Y-116598609D01*
X191934836Y-116598609D02*
X191839598Y-116550990D01*
X198256265Y-105967657D02*
X198303884Y-105920038D01*
X198303884Y-105920038D02*
X198399122Y-105872419D01*
X198399122Y-105872419D02*
X198637217Y-105872419D01*
X198637217Y-105872419D02*
X198732455Y-105920038D01*
X198732455Y-105920038D02*
X198780074Y-105967657D01*
X198780074Y-105967657D02*
X198827693Y-106062895D01*
X198827693Y-106062895D02*
X198827693Y-106158133D01*
X198827693Y-106158133D02*
X198780074Y-106300990D01*
X198780074Y-106300990D02*
X198208646Y-106872419D01*
X198208646Y-106872419D02*
X198827693Y-106872419D01*
X199446741Y-105872419D02*
X199541979Y-105872419D01*
X199541979Y-105872419D02*
X199637217Y-105920038D01*
X199637217Y-105920038D02*
X199684836Y-105967657D01*
X199684836Y-105967657D02*
X199732455Y-106062895D01*
X199732455Y-106062895D02*
X199780074Y-106253371D01*
X199780074Y-106253371D02*
X199780074Y-106491466D01*
X199780074Y-106491466D02*
X199732455Y-106681942D01*
X199732455Y-106681942D02*
X199684836Y-106777180D01*
X199684836Y-106777180D02*
X199637217Y-106824800D01*
X199637217Y-106824800D02*
X199541979Y-106872419D01*
X199541979Y-106872419D02*
X199446741Y-106872419D01*
X199446741Y-106872419D02*
X199351503Y-106824800D01*
X199351503Y-106824800D02*
X199303884Y-106777180D01*
X199303884Y-106777180D02*
X199256265Y-106681942D01*
X199256265Y-106681942D02*
X199208646Y-106491466D01*
X199208646Y-106491466D02*
X199208646Y-106253371D01*
X199208646Y-106253371D02*
X199256265Y-106062895D01*
X199256265Y-106062895D02*
X199303884Y-105967657D01*
X199303884Y-105967657D02*
X199351503Y-105920038D01*
X199351503Y-105920038D02*
X199446741Y-105872419D01*
X190506265Y-118467657D02*
X190553884Y-118420038D01*
X190553884Y-118420038D02*
X190649122Y-118372419D01*
X190649122Y-118372419D02*
X190887217Y-118372419D01*
X190887217Y-118372419D02*
X190982455Y-118420038D01*
X190982455Y-118420038D02*
X191030074Y-118467657D01*
X191030074Y-118467657D02*
X191077693Y-118562895D01*
X191077693Y-118562895D02*
X191077693Y-118658133D01*
X191077693Y-118658133D02*
X191030074Y-118800990D01*
X191030074Y-118800990D02*
X190458646Y-119372419D01*
X190458646Y-119372419D02*
X191077693Y-119372419D01*
X191553884Y-119372419D02*
X191744360Y-119372419D01*
X191744360Y-119372419D02*
X191839598Y-119324800D01*
X191839598Y-119324800D02*
X191887217Y-119277180D01*
X191887217Y-119277180D02*
X191982455Y-119134323D01*
X191982455Y-119134323D02*
X192030074Y-118943847D01*
X192030074Y-118943847D02*
X192030074Y-118562895D01*
X192030074Y-118562895D02*
X191982455Y-118467657D01*
X191982455Y-118467657D02*
X191934836Y-118420038D01*
X191934836Y-118420038D02*
X191839598Y-118372419D01*
X191839598Y-118372419D02*
X191649122Y-118372419D01*
X191649122Y-118372419D02*
X191553884Y-118420038D01*
X191553884Y-118420038D02*
X191506265Y-118467657D01*
X191506265Y-118467657D02*
X191458646Y-118562895D01*
X191458646Y-118562895D02*
X191458646Y-118800990D01*
X191458646Y-118800990D02*
X191506265Y-118896228D01*
X191506265Y-118896228D02*
X191553884Y-118943847D01*
X191553884Y-118943847D02*
X191649122Y-118991466D01*
X191649122Y-118991466D02*
X191839598Y-118991466D01*
X191839598Y-118991466D02*
X191934836Y-118943847D01*
X191934836Y-118943847D02*
X191982455Y-118896228D01*
X191982455Y-118896228D02*
X192030074Y-118800990D01*
X198827693Y-104372419D02*
X198256265Y-104372419D01*
X198541979Y-104372419D02*
X198541979Y-103372419D01*
X198541979Y-103372419D02*
X198446741Y-103515276D01*
X198446741Y-103515276D02*
X198351503Y-103610514D01*
X198351503Y-103610514D02*
X198256265Y-103658133D01*
X199399122Y-103800990D02*
X199303884Y-103753371D01*
X199303884Y-103753371D02*
X199256265Y-103705752D01*
X199256265Y-103705752D02*
X199208646Y-103610514D01*
X199208646Y-103610514D02*
X199208646Y-103562895D01*
X199208646Y-103562895D02*
X199256265Y-103467657D01*
X199256265Y-103467657D02*
X199303884Y-103420038D01*
X199303884Y-103420038D02*
X199399122Y-103372419D01*
X199399122Y-103372419D02*
X199589598Y-103372419D01*
X199589598Y-103372419D02*
X199684836Y-103420038D01*
X199684836Y-103420038D02*
X199732455Y-103467657D01*
X199732455Y-103467657D02*
X199780074Y-103562895D01*
X199780074Y-103562895D02*
X199780074Y-103610514D01*
X199780074Y-103610514D02*
X199732455Y-103705752D01*
X199732455Y-103705752D02*
X199684836Y-103753371D01*
X199684836Y-103753371D02*
X199589598Y-103800990D01*
X199589598Y-103800990D02*
X199399122Y-103800990D01*
X199399122Y-103800990D02*
X199303884Y-103848609D01*
X199303884Y-103848609D02*
X199256265Y-103896228D01*
X199256265Y-103896228D02*
X199208646Y-103991466D01*
X199208646Y-103991466D02*
X199208646Y-104181942D01*
X199208646Y-104181942D02*
X199256265Y-104277180D01*
X199256265Y-104277180D02*
X199303884Y-104324800D01*
X199303884Y-104324800D02*
X199399122Y-104372419D01*
X199399122Y-104372419D02*
X199589598Y-104372419D01*
X199589598Y-104372419D02*
X199684836Y-104324800D01*
X199684836Y-104324800D02*
X199732455Y-104277180D01*
X199732455Y-104277180D02*
X199780074Y-104181942D01*
X199780074Y-104181942D02*
X199780074Y-103991466D01*
X199780074Y-103991466D02*
X199732455Y-103896228D01*
X199732455Y-103896228D02*
X199684836Y-103848609D01*
X199684836Y-103848609D02*
X199589598Y-103800990D01*
X190506265Y-110967657D02*
X190553884Y-110920038D01*
X190553884Y-110920038D02*
X190649122Y-110872419D01*
X190649122Y-110872419D02*
X190887217Y-110872419D01*
X190887217Y-110872419D02*
X190982455Y-110920038D01*
X190982455Y-110920038D02*
X191030074Y-110967657D01*
X191030074Y-110967657D02*
X191077693Y-111062895D01*
X191077693Y-111062895D02*
X191077693Y-111158133D01*
X191077693Y-111158133D02*
X191030074Y-111300990D01*
X191030074Y-111300990D02*
X190458646Y-111872419D01*
X190458646Y-111872419D02*
X191077693Y-111872419D01*
X191982455Y-110872419D02*
X191506265Y-110872419D01*
X191506265Y-110872419D02*
X191458646Y-111348609D01*
X191458646Y-111348609D02*
X191506265Y-111300990D01*
X191506265Y-111300990D02*
X191601503Y-111253371D01*
X191601503Y-111253371D02*
X191839598Y-111253371D01*
X191839598Y-111253371D02*
X191934836Y-111300990D01*
X191934836Y-111300990D02*
X191982455Y-111348609D01*
X191982455Y-111348609D02*
X192030074Y-111443847D01*
X192030074Y-111443847D02*
X192030074Y-111681942D01*
X192030074Y-111681942D02*
X191982455Y-111777180D01*
X191982455Y-111777180D02*
X191934836Y-111824800D01*
X191934836Y-111824800D02*
X191839598Y-111872419D01*
X191839598Y-111872419D02*
X191601503Y-111872419D01*
X191601503Y-111872419D02*
X191506265Y-111824800D01*
X191506265Y-111824800D02*
X191458646Y-111777180D01*
X193280074Y-72372419D02*
X192803884Y-72372419D01*
X192803884Y-72372419D02*
X192756265Y-72848609D01*
X192756265Y-72848609D02*
X192803884Y-72800990D01*
X192803884Y-72800990D02*
X192899122Y-72753371D01*
X192899122Y-72753371D02*
X193137217Y-72753371D01*
X193137217Y-72753371D02*
X193232455Y-72800990D01*
X193232455Y-72800990D02*
X193280074Y-72848609D01*
X193280074Y-72848609D02*
X193327693Y-72943847D01*
X193327693Y-72943847D02*
X193327693Y-73181942D01*
X193327693Y-73181942D02*
X193280074Y-73277180D01*
X193280074Y-73277180D02*
X193232455Y-73324800D01*
X193232455Y-73324800D02*
X193137217Y-73372419D01*
X193137217Y-73372419D02*
X192899122Y-73372419D01*
X192899122Y-73372419D02*
X192803884Y-73324800D01*
X192803884Y-73324800D02*
X192756265Y-73277180D01*
X193613408Y-72372419D02*
X193946741Y-73372419D01*
X193946741Y-73372419D02*
X194280074Y-72372419D01*
X108827693Y-94122419D02*
X108256265Y-94122419D01*
X108541979Y-94122419D02*
X108541979Y-93122419D01*
X108541979Y-93122419D02*
X108446741Y-93265276D01*
X108446741Y-93265276D02*
X108351503Y-93360514D01*
X108351503Y-93360514D02*
X108256265Y-93408133D01*
X109780074Y-94122419D02*
X109208646Y-94122419D01*
X109494360Y-94122419D02*
X109494360Y-93122419D01*
X109494360Y-93122419D02*
X109399122Y-93265276D01*
X109399122Y-93265276D02*
X109303884Y-93360514D01*
X109303884Y-93360514D02*
X109208646Y-93408133D01*
X191077693Y-94122419D02*
X190506265Y-94122419D01*
X190791979Y-94122419D02*
X190791979Y-93122419D01*
X190791979Y-93122419D02*
X190696741Y-93265276D01*
X190696741Y-93265276D02*
X190601503Y-93360514D01*
X190601503Y-93360514D02*
X190506265Y-93408133D01*
X192030074Y-94122419D02*
X191458646Y-94122419D01*
X191744360Y-94122419D02*
X191744360Y-93122419D01*
X191744360Y-93122419D02*
X191649122Y-93265276D01*
X191649122Y-93265276D02*
X191553884Y-93360514D01*
X191553884Y-93360514D02*
X191458646Y-93408133D01*
D11*
G36*
X163250063Y-138728111D02*
G01*
X163419554Y-138767533D01*
X163558262Y-138828553D01*
X163669702Y-138909194D01*
X163716090Y-138956825D01*
X163756351Y-139009322D01*
X163790879Y-139067508D01*
X163818925Y-139130518D01*
X163840995Y-139200551D01*
X163855968Y-139275519D01*
X163863926Y-139358914D01*
X163863948Y-139447447D01*
X163855342Y-139545579D01*
X163837787Y-139649078D01*
X163800300Y-139792371D01*
X163765258Y-139889685D01*
X163723735Y-139982120D01*
X163675852Y-140069737D01*
X163621996Y-140152072D01*
X163562268Y-140229143D01*
X163497083Y-140300526D01*
X163426552Y-140366176D01*
X163351095Y-140425732D01*
X163270865Y-140479080D01*
X163186251Y-140525935D01*
X163097479Y-140566127D01*
X163004877Y-140599434D01*
X162908760Y-140625659D01*
X162809374Y-140644622D01*
X162707120Y-140656123D01*
X162602163Y-140660000D01*
X161972505Y-140660000D01*
X162037321Y-140348224D01*
X162386374Y-140348224D01*
X162708286Y-140348224D01*
X162849927Y-140337525D01*
X162997535Y-140299272D01*
X163126843Y-140234739D01*
X163185186Y-140192514D01*
X163238853Y-140143913D01*
X163288688Y-140087840D01*
X163333400Y-140025359D01*
X163374008Y-139954339D01*
X163408894Y-139876760D01*
X163438866Y-139789565D01*
X163462386Y-139695607D01*
X163476280Y-139614029D01*
X163482688Y-139459197D01*
X163460991Y-139332438D01*
X163414753Y-139229331D01*
X163382576Y-139185377D01*
X163344432Y-139146547D01*
X163298982Y-139112012D01*
X163247354Y-139083122D01*
X163186351Y-139058906D01*
X163118662Y-139041201D01*
X163039397Y-139029653D01*
X162952773Y-139025771D01*
X162661270Y-139025771D01*
X162386374Y-140348224D01*
X162037321Y-140348224D01*
X162377093Y-138713872D01*
X163044975Y-138713872D01*
X163250063Y-138728111D01*
G37*
G36*
X164567096Y-140691263D02*
G01*
X164759846Y-140675961D01*
X164863077Y-140656113D01*
X164965303Y-140628502D01*
X165057414Y-140596252D01*
X165031402Y-140349323D01*
X164942653Y-140379270D01*
X164853068Y-140401253D01*
X164766275Y-140414524D01*
X164681750Y-140419174D01*
X164680181Y-140419176D01*
X164607264Y-140415276D01*
X164542483Y-140403604D01*
X164490870Y-140386355D01*
X164446044Y-140362797D01*
X164410388Y-140335159D01*
X164380724Y-140302084D01*
X164340000Y-140221208D01*
X164322775Y-140114977D01*
X164333407Y-139975293D01*
X164340073Y-139940094D01*
X164361388Y-139856473D01*
X164388557Y-139782351D01*
X164418904Y-139722102D01*
X164453990Y-139670355D01*
X164490926Y-139629805D01*
X164531738Y-139596915D01*
X164574300Y-139572721D01*
X164620184Y-139555744D01*
X164710833Y-139543688D01*
X164762517Y-139547562D01*
X164807555Y-139559050D01*
X164842868Y-139576099D01*
X164872330Y-139599223D01*
X164912155Y-139660374D01*
X164929010Y-139745641D01*
X164917951Y-139862791D01*
X164307955Y-139862791D01*
X164262648Y-140080900D01*
X165186130Y-140080900D01*
X165243527Y-139877690D01*
X165257140Y-139793149D01*
X165261909Y-139713945D01*
X165258405Y-139643731D01*
X165247225Y-139578812D01*
X165229563Y-139522034D01*
X165205214Y-139470470D01*
X165175441Y-139425740D01*
X165139678Y-139386241D01*
X165051589Y-139324091D01*
X164939330Y-139284058D01*
X164799900Y-139268823D01*
X164792899Y-139268792D01*
X164637648Y-139284056D01*
X164490552Y-139329147D01*
X164354289Y-139403082D01*
X164232168Y-139504650D01*
X164127982Y-139632036D01*
X164083808Y-139704685D01*
X164045634Y-139782624D01*
X164013813Y-139865544D01*
X163988718Y-139953095D01*
X163981280Y-139986256D01*
X163966885Y-140074547D01*
X163961323Y-140157761D01*
X163964100Y-140232228D01*
X163974622Y-140301734D01*
X163991844Y-140363542D01*
X164015925Y-140420493D01*
X164045801Y-140471079D01*
X164081929Y-140516798D01*
X164171898Y-140592721D01*
X164287457Y-140648592D01*
X164431683Y-140682511D01*
X164567096Y-140691263D01*
G37*
G36*
X165808827Y-140691263D02*
G01*
X165903999Y-140687392D01*
X165993261Y-140675933D01*
X166073781Y-140657812D01*
X166148169Y-140632990D01*
X166213842Y-140602889D01*
X166273279Y-140566928D01*
X166324572Y-140526761D01*
X166369558Y-140481456D01*
X166407173Y-140432422D01*
X166438331Y-140378803D01*
X166462635Y-140321265D01*
X166480164Y-140259524D01*
X166481594Y-140252847D01*
X166490440Y-140191665D01*
X166490561Y-140137279D01*
X166483146Y-140090848D01*
X166469038Y-140049839D01*
X166422407Y-139981189D01*
X166348878Y-139924997D01*
X166240224Y-139877792D01*
X166082529Y-139835167D01*
X165984848Y-139810327D01*
X165906204Y-139780915D01*
X165877302Y-139762428D01*
X165857097Y-139740319D01*
X165846902Y-139713762D01*
X165848028Y-139681929D01*
X165874733Y-139628646D01*
X165931819Y-139585996D01*
X166026312Y-139556567D01*
X166133304Y-139547962D01*
X166300395Y-139562666D01*
X166485502Y-139607069D01*
X166612875Y-139338768D01*
X166460921Y-139294699D01*
X166265772Y-139270483D01*
X166197906Y-139268792D01*
X166097598Y-139272672D01*
X166003809Y-139284196D01*
X165920337Y-139302258D01*
X165843422Y-139327034D01*
X165776356Y-139356821D01*
X165715768Y-139392463D01*
X165663980Y-139432017D01*
X165618586Y-139476718D01*
X165580812Y-139524966D01*
X165549471Y-139577857D01*
X165524964Y-139634719D01*
X165507151Y-139695931D01*
X165504989Y-139705865D01*
X165496162Y-139766983D01*
X165496108Y-139821048D01*
X165503579Y-139866785D01*
X165517714Y-139906970D01*
X165564175Y-139973507D01*
X165637385Y-140027275D01*
X165746096Y-140071879D01*
X165890379Y-140108909D01*
X165990388Y-140133471D01*
X166071175Y-140163691D01*
X166100849Y-140183262D01*
X166121502Y-140207054D01*
X166131730Y-140236002D01*
X166130129Y-140271043D01*
X166102589Y-140328836D01*
X166046490Y-140373870D01*
X165957377Y-140403889D01*
X165862194Y-140412215D01*
X165703531Y-140397501D01*
X165513309Y-140349482D01*
X165435502Y-140319403D01*
X165303122Y-140585017D01*
X165455967Y-140642600D01*
X165646051Y-140681038D01*
X165808827Y-140691263D01*
G37*
G36*
X166641207Y-140660000D02*
G01*
X166990474Y-140660000D01*
X167273185Y-139300055D01*
X166923918Y-139300055D01*
X166641207Y-140660000D01*
G37*
G36*
X167152651Y-139049951D02*
G01*
X167199555Y-139046114D01*
X167243331Y-139034889D01*
X167319668Y-138991828D01*
X167377613Y-138923682D01*
X167398300Y-138881041D01*
X167412581Y-138833429D01*
X167413258Y-138830254D01*
X167419435Y-138781717D01*
X167417018Y-138738274D01*
X167407354Y-138702792D01*
X167390837Y-138672463D01*
X167368895Y-138648604D01*
X167341200Y-138630092D01*
X167268128Y-138610224D01*
X167244242Y-138609214D01*
X167197338Y-138613054D01*
X167153558Y-138624296D01*
X167077315Y-138667400D01*
X167019383Y-138735690D01*
X166998618Y-138778526D01*
X166984209Y-138826428D01*
X166983391Y-138830254D01*
X166977295Y-138878341D01*
X166979772Y-138921446D01*
X166989492Y-138956745D01*
X167006069Y-138986949D01*
X167028101Y-139010750D01*
X167055904Y-139029217D01*
X167129243Y-139048983D01*
X167152651Y-139049951D01*
G37*
G36*
X167664829Y-141300893D02*
G01*
X167752268Y-141297032D01*
X167836796Y-141285640D01*
X167918599Y-141266852D01*
X167996757Y-141241008D01*
X168071234Y-141208243D01*
X168141327Y-141168946D01*
X168206746Y-141123365D01*
X168267065Y-141071828D01*
X168321781Y-141014801D01*
X168370723Y-140952437D01*
X168413291Y-140885465D01*
X168449465Y-140813796D01*
X168478683Y-140738376D01*
X168500938Y-140658898D01*
X168504780Y-140641315D01*
X168783583Y-139300055D01*
X168536409Y-139300055D01*
X168386810Y-139561395D01*
X168158932Y-140657679D01*
X168140947Y-140725030D01*
X168116546Y-140785400D01*
X168087673Y-140836023D01*
X168053282Y-140880279D01*
X168014789Y-140917039D01*
X167971315Y-140947713D01*
X167869548Y-140990661D01*
X167744404Y-141008668D01*
X167722470Y-141009023D01*
X167571663Y-140994035D01*
X167489218Y-140974353D01*
X167409710Y-140947320D01*
X167370638Y-140930621D01*
X167246563Y-141195990D01*
X167322293Y-141232547D01*
X167400179Y-141261296D01*
X167478754Y-141281900D01*
X167559717Y-141295017D01*
X167664829Y-141300893D01*
G37*
G36*
X167785362Y-140691263D02*
G01*
X167920080Y-140675986D01*
X168049032Y-140630532D01*
X168170725Y-140554792D01*
X168282487Y-140448383D01*
X168360310Y-140344193D01*
X168284595Y-140218164D01*
X168245505Y-140264204D01*
X168201592Y-140303802D01*
X168154307Y-140335916D01*
X168103303Y-140360918D01*
X168050482Y-140378000D01*
X167994987Y-140387484D01*
X167955966Y-140389378D01*
X167904352Y-140385521D01*
X167858100Y-140374149D01*
X167819193Y-140356613D01*
X167785434Y-140332799D01*
X167734426Y-140268319D01*
X167704549Y-140179144D01*
X167699561Y-140061661D01*
X167712822Y-139968914D01*
X167732239Y-139894385D01*
X167758000Y-139826390D01*
X167788711Y-139767083D01*
X167824698Y-139714779D01*
X167863911Y-139671522D01*
X167907369Y-139635480D01*
X167952844Y-139607988D01*
X168001687Y-139587827D01*
X168052232Y-139575551D01*
X168105466Y-139570842D01*
X168111182Y-139570799D01*
X168164597Y-139574666D01*
X168213126Y-139586105D01*
X168254565Y-139603849D01*
X168290983Y-139628050D01*
X168346577Y-139693157D01*
X168379849Y-139780603D01*
X168535066Y-139575928D01*
X168518949Y-139516089D01*
X168496199Y-139462431D01*
X168468581Y-139417340D01*
X168435187Y-139378018D01*
X168353505Y-139318149D01*
X168249051Y-139281115D01*
X168125226Y-139268792D01*
X167979538Y-139284092D01*
X167840706Y-139329461D01*
X167711190Y-139404327D01*
X167594209Y-139508031D01*
X167493631Y-139639333D01*
X167450726Y-139714836D01*
X167413607Y-139796105D01*
X167382555Y-139883139D01*
X167358088Y-139975354D01*
X167354640Y-139991385D01*
X167339285Y-140084173D01*
X167332679Y-140171641D01*
X167334368Y-140251045D01*
X167343773Y-140324856D01*
X167359903Y-140390419D01*
X167382744Y-140450252D01*
X167410933Y-140502304D01*
X167444962Y-140548545D01*
X167483589Y-140587824D01*
X167527396Y-140621131D01*
X167629116Y-140668741D01*
X167750848Y-140690285D01*
X167785362Y-140691263D01*
G37*
G36*
X169761531Y-140660000D02*
G01*
X170110799Y-140660000D01*
X170285188Y-139821025D01*
X170298489Y-139738073D01*
X170302834Y-139661061D01*
X170298896Y-139594002D01*
X170287321Y-139532711D01*
X170269509Y-139480271D01*
X170245171Y-139433381D01*
X170215751Y-139393708D01*
X170180564Y-139359513D01*
X170094212Y-139308568D01*
X169983803Y-139280816D01*
X169912473Y-139276608D01*
X169770421Y-139291986D01*
X169627071Y-139338765D01*
X169487825Y-139417208D01*
X169368911Y-139516210D01*
X169375750Y-139733464D01*
X169434992Y-139686822D01*
X169496256Y-139648758D01*
X169556272Y-139620692D01*
X169617474Y-139600947D01*
X169727337Y-139587163D01*
X169782232Y-139591056D01*
X169828813Y-139602678D01*
X169863006Y-139619288D01*
X169890695Y-139641791D01*
X169925237Y-139700250D01*
X169936339Y-139783157D01*
X169925785Y-139870118D01*
X169761531Y-140660000D01*
G37*
G36*
X168884333Y-140660000D02*
G01*
X169233600Y-140660000D01*
X169466486Y-139539780D01*
X169417027Y-139300055D01*
X169167044Y-139300055D01*
X168884333Y-140660000D01*
G37*
G36*
X171103035Y-140691263D02*
G01*
X171295785Y-140675961D01*
X171399015Y-140656113D01*
X171501241Y-140628502D01*
X171593353Y-140596252D01*
X171567341Y-140349323D01*
X171478592Y-140379270D01*
X171389007Y-140401253D01*
X171302214Y-140414524D01*
X171217689Y-140419174D01*
X171216120Y-140419176D01*
X171143203Y-140415276D01*
X171078421Y-140403604D01*
X171026809Y-140386355D01*
X170981983Y-140362797D01*
X170946327Y-140335159D01*
X170916663Y-140302084D01*
X170875938Y-140221208D01*
X170858714Y-140114977D01*
X170869346Y-139975293D01*
X170876011Y-139940094D01*
X170897326Y-139856473D01*
X170924496Y-139782351D01*
X170954842Y-139722102D01*
X170989929Y-139670355D01*
X171026864Y-139629805D01*
X171067677Y-139596915D01*
X171110238Y-139572721D01*
X171156122Y-139555744D01*
X171246772Y-139543688D01*
X171298455Y-139547562D01*
X171343494Y-139559050D01*
X171378806Y-139576099D01*
X171408269Y-139599223D01*
X171448093Y-139660374D01*
X171464949Y-139745641D01*
X171453890Y-139862791D01*
X170843893Y-139862791D01*
X170798586Y-140080900D01*
X171722069Y-140080900D01*
X171779466Y-139877690D01*
X171793079Y-139793149D01*
X171797847Y-139713945D01*
X171794344Y-139643731D01*
X171783164Y-139578812D01*
X171765502Y-139522034D01*
X171741153Y-139470470D01*
X171711379Y-139425740D01*
X171675617Y-139386241D01*
X171587528Y-139324091D01*
X171475269Y-139284058D01*
X171335839Y-139268823D01*
X171328838Y-139268792D01*
X171173587Y-139284056D01*
X171026491Y-139329147D01*
X170890227Y-139403082D01*
X170768107Y-139504650D01*
X170663920Y-139632036D01*
X170619747Y-139704685D01*
X170581572Y-139782624D01*
X170549752Y-139865544D01*
X170524656Y-139953095D01*
X170517219Y-139986256D01*
X170502823Y-140074547D01*
X170497262Y-140157761D01*
X170500038Y-140232228D01*
X170510560Y-140301734D01*
X170527782Y-140363542D01*
X170551863Y-140420493D01*
X170581739Y-140471079D01*
X170617868Y-140516798D01*
X170707836Y-140592721D01*
X170823395Y-140648592D01*
X170967622Y-140682511D01*
X171103035Y-140691263D01*
G37*
G36*
X172403995Y-140691263D02*
G01*
X172539647Y-140676001D01*
X172669442Y-140630607D01*
X172791695Y-140555083D01*
X172903550Y-140449266D01*
X172935589Y-140410261D01*
X172894678Y-140225369D01*
X172853219Y-140271349D01*
X172807271Y-140310544D01*
X172758675Y-140341713D01*
X172706784Y-140365469D01*
X172653990Y-140380925D01*
X172598996Y-140388587D01*
X172574476Y-140389378D01*
X172522534Y-140385521D01*
X172476012Y-140374149D01*
X172436923Y-140356628D01*
X172403017Y-140332837D01*
X172351837Y-140268488D01*
X172321831Y-140179561D01*
X172316678Y-140062396D01*
X172329989Y-139968914D01*
X172349408Y-139894385D01*
X172375181Y-139826390D01*
X172405883Y-139767151D01*
X172441878Y-139714897D01*
X172481096Y-139671698D01*
X172524589Y-139635685D01*
X172570138Y-139608189D01*
X172619102Y-139587995D01*
X172669858Y-139575650D01*
X172723366Y-139570853D01*
X172729815Y-139570799D01*
X172783767Y-139574650D01*
X172832835Y-139585978D01*
X172875287Y-139603692D01*
X172912619Y-139627755D01*
X172970026Y-139692411D01*
X172994696Y-139744577D01*
X173139532Y-139528667D01*
X173117758Y-139474365D01*
X173089860Y-139426174D01*
X173057382Y-139385686D01*
X173019496Y-139351044D01*
X172928761Y-139299969D01*
X172815050Y-139272674D01*
X172745202Y-139268792D01*
X172597995Y-139284085D01*
X172458537Y-139329307D01*
X172328967Y-139403784D01*
X172212170Y-139506889D01*
X172111734Y-139637537D01*
X172031640Y-139793812D01*
X172000439Y-139880775D01*
X171975808Y-139972884D01*
X171971807Y-139991385D01*
X171956520Y-140083940D01*
X171949969Y-140171252D01*
X171951705Y-140250579D01*
X171961157Y-140324365D01*
X171977337Y-140389936D01*
X172000238Y-140449810D01*
X172028489Y-140501908D01*
X172062595Y-140548212D01*
X172101294Y-140587544D01*
X172145190Y-140620914D01*
X172247088Y-140668626D01*
X172369019Y-140690262D01*
X172403995Y-140691263D01*
G37*
G36*
X172893213Y-140660000D02*
G01*
X173116573Y-140660000D01*
X173547173Y-138588820D01*
X173207676Y-138588820D01*
X172828855Y-140411116D01*
X172893213Y-140660000D01*
G37*
G36*
X174188555Y-140660000D02*
G01*
X174898935Y-140660000D01*
X174999845Y-140656132D01*
X175096295Y-140644694D01*
X175186923Y-140626183D01*
X175272524Y-140600747D01*
X175351499Y-140569199D01*
X175424970Y-140531403D01*
X175491366Y-140488490D01*
X175551867Y-140439998D01*
X175605177Y-140387235D01*
X175652249Y-140329511D01*
X175692204Y-140268065D01*
X175725579Y-140202200D01*
X175751878Y-140132818D01*
X175771204Y-140059474D01*
X175771371Y-140058674D01*
X175782514Y-139986019D01*
X175785007Y-139917689D01*
X175779493Y-139856699D01*
X175766434Y-139800024D01*
X175746812Y-139749557D01*
X175720452Y-139703452D01*
X175649073Y-139625778D01*
X175551318Y-139566304D01*
X175424226Y-139526743D01*
X175264391Y-139511138D01*
X175253332Y-139511081D01*
X174651151Y-139511081D01*
X174592655Y-139792449D01*
X175129623Y-139792449D01*
X175189487Y-139796296D01*
X175242527Y-139807592D01*
X175286008Y-139824706D01*
X175323022Y-139847792D01*
X175352163Y-139875152D01*
X175375037Y-139907418D01*
X175401210Y-139985166D01*
X175399897Y-140083025D01*
X175395847Y-140105324D01*
X175379998Y-140162218D01*
X175357518Y-140211898D01*
X175331094Y-140251016D01*
X175298882Y-140284337D01*
X175218723Y-140333080D01*
X175109457Y-140361557D01*
X175005181Y-140368251D01*
X174598272Y-140368251D01*
X174881472Y-139005743D01*
X175134752Y-139005743D01*
X175208523Y-139009620D01*
X175272155Y-139021127D01*
X175320237Y-139037693D01*
X175359965Y-139060059D01*
X175388620Y-139085202D01*
X175410223Y-139114894D01*
X175431613Y-139184607D01*
X175426011Y-139268914D01*
X175411811Y-139317850D01*
X175390149Y-139363028D01*
X175326535Y-139440068D01*
X175228035Y-139507962D01*
X175072348Y-139572752D01*
X175412456Y-139611465D01*
X175528251Y-139558980D01*
X175633898Y-139477753D01*
X175721240Y-139371928D01*
X175755267Y-139312425D01*
X175782056Y-139249510D01*
X175802512Y-139176835D01*
X175812018Y-139112045D01*
X175812680Y-139051868D01*
X175805436Y-139000121D01*
X175790688Y-138952477D01*
X175769495Y-138910587D01*
X175741486Y-138872591D01*
X175664500Y-138808006D01*
X175554371Y-138757828D01*
X175402807Y-138724686D01*
X175222801Y-138713872D01*
X174593143Y-138713872D01*
X174188555Y-140660000D01*
G37*
G36*
X175897034Y-141269630D02*
G01*
X176274023Y-141269630D01*
X176613886Y-140661831D01*
X177407676Y-139300055D01*
X177059752Y-139300055D01*
X176441085Y-140470101D01*
X176527791Y-140471566D01*
X176416538Y-139300055D01*
X176029902Y-139300055D01*
X176264497Y-140661831D01*
X175897034Y-141269630D01*
G37*
G36*
X178335921Y-140660000D02*
G01*
X178684944Y-140660000D01*
X179023831Y-139030045D01*
X179636880Y-139030045D01*
X179702581Y-138713872D01*
X178131734Y-138713872D01*
X178066032Y-139030045D01*
X178674808Y-139030045D01*
X178335921Y-140660000D01*
G37*
G36*
X180042323Y-140691263D02*
G01*
X180235073Y-140675961D01*
X180338304Y-140656113D01*
X180440529Y-140628502D01*
X180532641Y-140596252D01*
X180506629Y-140349323D01*
X180417880Y-140379270D01*
X180328295Y-140401253D01*
X180241502Y-140414524D01*
X180156977Y-140419174D01*
X180155408Y-140419176D01*
X180082491Y-140415276D01*
X180017710Y-140403604D01*
X179966097Y-140386355D01*
X179921271Y-140362797D01*
X179885615Y-140335159D01*
X179855951Y-140302084D01*
X179815227Y-140221208D01*
X179798002Y-140114977D01*
X179808634Y-139975293D01*
X179815300Y-139940094D01*
X179836614Y-139856473D01*
X179863784Y-139782351D01*
X179894131Y-139722102D01*
X179929217Y-139670355D01*
X179966152Y-139629805D01*
X180006965Y-139596915D01*
X180049527Y-139572721D01*
X180095410Y-139555744D01*
X180186060Y-139543688D01*
X180237743Y-139547562D01*
X180282782Y-139559050D01*
X180318094Y-139576099D01*
X180347557Y-139599223D01*
X180387382Y-139660374D01*
X180404237Y-139745641D01*
X180393178Y-139862791D01*
X179783182Y-139862791D01*
X179737875Y-140080900D01*
X180661357Y-140080900D01*
X180718754Y-139877690D01*
X180732367Y-139793149D01*
X180737135Y-139713945D01*
X180733632Y-139643731D01*
X180722452Y-139578812D01*
X180704790Y-139522034D01*
X180680441Y-139470470D01*
X180650667Y-139425740D01*
X180614905Y-139386241D01*
X180526816Y-139324091D01*
X180414557Y-139284058D01*
X180275127Y-139268823D01*
X180268126Y-139268792D01*
X180112875Y-139284056D01*
X179965779Y-139329147D01*
X179829515Y-139403082D01*
X179707395Y-139504650D01*
X179603208Y-139632036D01*
X179559035Y-139704685D01*
X179520861Y-139782624D01*
X179489040Y-139865544D01*
X179463944Y-139953095D01*
X179456507Y-139986256D01*
X179442111Y-140074547D01*
X179436550Y-140157761D01*
X179439326Y-140232228D01*
X179449848Y-140301734D01*
X179467070Y-140363542D01*
X179491151Y-140420493D01*
X179521028Y-140471079D01*
X179557156Y-140516798D01*
X179647124Y-140592721D01*
X179762684Y-140648592D01*
X179906910Y-140682511D01*
X180042323Y-140691263D01*
G37*
G36*
X180854187Y-140660000D02*
G01*
X181203454Y-140660000D01*
X181398115Y-139723939D01*
X181414235Y-139300055D01*
X181136898Y-139300055D01*
X180854187Y-140660000D01*
G37*
G36*
X181297243Y-139883796D02*
G01*
X181341143Y-139824640D01*
X181389536Y-139772244D01*
X181441852Y-139726913D01*
X181497375Y-139689099D01*
X181554470Y-139659604D01*
X181613420Y-139638085D01*
X181671671Y-139625183D01*
X181730523Y-139620402D01*
X181734804Y-139620380D01*
X181849991Y-139634700D01*
X181897714Y-139649933D01*
X182047069Y-139322404D01*
X181944681Y-139291661D01*
X181857414Y-139284424D01*
X181734964Y-139299670D01*
X181609278Y-139346517D01*
X181486517Y-139425661D01*
X181428634Y-139477003D01*
X181374818Y-139535276D01*
X181368073Y-139543443D01*
X181297243Y-139883796D01*
G37*
G36*
X181831158Y-140660000D02*
G01*
X182180425Y-140660000D01*
X182375087Y-139723939D01*
X182391207Y-139300055D01*
X182113869Y-139300055D01*
X181831158Y-140660000D01*
G37*
G36*
X182274214Y-139883796D02*
G01*
X182318115Y-139824640D01*
X182366507Y-139772244D01*
X182418823Y-139726913D01*
X182474347Y-139689099D01*
X182531441Y-139659604D01*
X182590392Y-139638085D01*
X182648643Y-139625183D01*
X182707494Y-139620402D01*
X182711775Y-139620380D01*
X182826963Y-139634700D01*
X182874685Y-139649933D01*
X183024040Y-139322404D01*
X182921653Y-139291661D01*
X182834385Y-139284424D01*
X182711936Y-139299670D01*
X182586249Y-139346517D01*
X182463488Y-139425661D01*
X182405605Y-139477003D01*
X182351790Y-139535276D01*
X182345045Y-139543443D01*
X182274214Y-139883796D01*
G37*
G36*
X183643928Y-140660000D02*
G01*
X183893789Y-140660000D01*
X184063782Y-139842519D01*
X184077733Y-139756174D01*
X184082374Y-139676508D01*
X184078469Y-139609336D01*
X184066778Y-139547958D01*
X184048908Y-139496065D01*
X184024332Y-139449330D01*
X183994371Y-139409288D01*
X183958242Y-139374138D01*
X183867046Y-139318515D01*
X183745438Y-139282264D01*
X183584577Y-139268792D01*
X183393160Y-139283888D01*
X183187821Y-139330789D01*
X183006943Y-139400561D01*
X183037962Y-139649445D01*
X183144295Y-139613623D01*
X183246300Y-139587631D01*
X183339035Y-139572006D01*
X183427256Y-139565245D01*
X183449755Y-139564937D01*
X183523848Y-139568837D01*
X183587030Y-139580506D01*
X183632943Y-139596926D01*
X183670351Y-139619150D01*
X183696454Y-139643861D01*
X183715601Y-139673148D01*
X183732579Y-139742815D01*
X183726116Y-139813698D01*
X183604361Y-140398904D01*
X183643928Y-140660000D01*
G37*
G36*
X183173272Y-140691263D02*
G01*
X183248702Y-140687385D01*
X183321767Y-140675875D01*
X183392056Y-140656951D01*
X183459393Y-140630784D01*
X183584327Y-140557213D01*
X183694458Y-140455953D01*
X183787223Y-140327587D01*
X183839811Y-140222927D01*
X183737595Y-140170415D01*
X183671910Y-140264466D01*
X183581987Y-140340346D01*
X183529878Y-140369193D01*
X183474482Y-140390881D01*
X183417509Y-140404745D01*
X183358935Y-140410679D01*
X183346318Y-140410872D01*
X183294642Y-140407056D01*
X183250165Y-140395978D01*
X183215576Y-140379529D01*
X183188250Y-140357660D01*
X183169742Y-140332817D01*
X183158312Y-140304033D01*
X183158007Y-140236971D01*
X183169368Y-140201854D01*
X183188252Y-140170754D01*
X183246392Y-140122215D01*
X183344109Y-140084706D01*
X183505791Y-140059026D01*
X183736374Y-140050369D01*
X183777529Y-139852044D01*
X183602658Y-139855989D01*
X183446149Y-139867975D01*
X183323592Y-139885289D01*
X183214483Y-139909115D01*
X183128162Y-139936017D01*
X183052082Y-139968342D01*
X182991418Y-140002650D01*
X182938916Y-140041643D01*
X182896775Y-140082724D01*
X182861577Y-140128102D01*
X182812040Y-140230178D01*
X182797260Y-140285453D01*
X182788395Y-140347073D01*
X182788072Y-140404562D01*
X182795504Y-140455297D01*
X182810281Y-140501775D01*
X182831422Y-140542541D01*
X182859079Y-140578858D01*
X182933137Y-140637233D01*
X183034269Y-140675988D01*
X183165465Y-140691221D01*
X183173272Y-140691263D01*
G37*
G36*
X184209106Y-140660000D02*
G01*
X184558374Y-140660000D01*
X184753035Y-139723939D01*
X184769155Y-139300055D01*
X184491817Y-139300055D01*
X184209106Y-140660000D01*
G37*
G36*
X184652163Y-139883796D02*
G01*
X184696063Y-139824640D01*
X184744455Y-139772244D01*
X184796772Y-139726913D01*
X184852295Y-139689099D01*
X184909390Y-139659604D01*
X184968340Y-139638085D01*
X185026591Y-139625183D01*
X185085442Y-139620402D01*
X185089724Y-139620380D01*
X185204911Y-139634700D01*
X185252634Y-139649933D01*
X185401988Y-139322404D01*
X185299601Y-139291661D01*
X185212334Y-139284424D01*
X185089884Y-139299670D01*
X184964197Y-139346517D01*
X184841436Y-139425661D01*
X184783554Y-139477003D01*
X184729738Y-139535276D01*
X184722993Y-139543443D01*
X184652163Y-139883796D01*
G37*
G36*
X185186078Y-140660000D02*
G01*
X185535345Y-140660000D01*
X185818056Y-139300055D01*
X185468789Y-139300055D01*
X185186078Y-140660000D01*
G37*
G36*
X185697522Y-139049951D02*
G01*
X185744426Y-139046114D01*
X185788202Y-139034889D01*
X185864538Y-138991828D01*
X185922484Y-138923682D01*
X185943171Y-138881041D01*
X185957452Y-138833429D01*
X185958129Y-138830254D01*
X185964306Y-138781717D01*
X185961889Y-138738274D01*
X185952225Y-138702792D01*
X185935708Y-138672463D01*
X185913766Y-138648604D01*
X185886071Y-138630092D01*
X185812999Y-138610224D01*
X185789113Y-138609214D01*
X185742209Y-138613054D01*
X185698429Y-138624296D01*
X185622186Y-138667400D01*
X185564254Y-138735690D01*
X185543489Y-138778526D01*
X185529080Y-138826428D01*
X185528262Y-138830254D01*
X185522166Y-138878341D01*
X185524643Y-138921446D01*
X185534363Y-138956745D01*
X185550940Y-138986949D01*
X185572972Y-139010750D01*
X185600775Y-139029217D01*
X185674114Y-139048983D01*
X185697522Y-139049951D01*
G37*
G36*
X186678401Y-140660000D02*
G01*
X186928262Y-140660000D01*
X187098255Y-139842519D01*
X187112206Y-139756174D01*
X187116847Y-139676508D01*
X187112942Y-139609336D01*
X187101251Y-139547958D01*
X187083381Y-139496065D01*
X187058805Y-139449330D01*
X187028844Y-139409288D01*
X186992715Y-139374138D01*
X186901519Y-139318515D01*
X186779911Y-139282264D01*
X186619050Y-139268792D01*
X186427633Y-139283888D01*
X186222294Y-139330789D01*
X186041416Y-139400561D01*
X186072435Y-139649445D01*
X186178768Y-139613623D01*
X186280773Y-139587631D01*
X186373509Y-139572006D01*
X186461729Y-139565245D01*
X186484228Y-139564937D01*
X186558322Y-139568837D01*
X186621503Y-139580506D01*
X186667416Y-139596926D01*
X186704824Y-139619150D01*
X186730927Y-139643861D01*
X186750074Y-139673148D01*
X186767052Y-139742815D01*
X186760589Y-139813698D01*
X186638834Y-140398904D01*
X186678401Y-140660000D01*
G37*
G36*
X186207745Y-140691263D02*
G01*
X186283175Y-140687385D01*
X186356240Y-140675875D01*
X186426530Y-140656951D01*
X186493866Y-140630784D01*
X186618800Y-140557213D01*
X186728931Y-140455953D01*
X186821697Y-140327587D01*
X186874284Y-140222927D01*
X186772069Y-140170415D01*
X186706383Y-140264466D01*
X186616460Y-140340346D01*
X186564352Y-140369193D01*
X186508955Y-140390881D01*
X186451982Y-140404745D01*
X186393408Y-140410679D01*
X186380792Y-140410872D01*
X186329115Y-140407056D01*
X186284638Y-140395978D01*
X186250049Y-140379529D01*
X186222724Y-140357660D01*
X186204215Y-140332817D01*
X186192785Y-140304033D01*
X186192480Y-140236971D01*
X186203841Y-140201854D01*
X186222725Y-140170754D01*
X186280865Y-140122215D01*
X186378583Y-140084706D01*
X186540264Y-140059026D01*
X186770847Y-140050369D01*
X186812002Y-139852044D01*
X186637132Y-139855989D01*
X186480622Y-139867975D01*
X186358065Y-139885289D01*
X186248956Y-139909115D01*
X186162635Y-139936017D01*
X186086555Y-139968342D01*
X186025891Y-140002650D01*
X185973389Y-140041643D01*
X185931248Y-140082724D01*
X185896050Y-140128102D01*
X185846513Y-140230178D01*
X185831734Y-140285453D01*
X185822868Y-140347073D01*
X185822545Y-140404562D01*
X185829977Y-140455297D01*
X185844754Y-140501775D01*
X185865895Y-140542541D01*
X185893552Y-140578858D01*
X185967610Y-140637233D01*
X186068742Y-140675988D01*
X186199938Y-140691221D01*
X186207745Y-140691263D01*
G37*
D10*
X190506265Y-113467657D02*
X190553884Y-113420038D01*
X190553884Y-113420038D02*
X190649122Y-113372419D01*
X190649122Y-113372419D02*
X190887217Y-113372419D01*
X190887217Y-113372419D02*
X190982455Y-113420038D01*
X190982455Y-113420038D02*
X191030074Y-113467657D01*
X191030074Y-113467657D02*
X191077693Y-113562895D01*
X191077693Y-113562895D02*
X191077693Y-113658133D01*
X191077693Y-113658133D02*
X191030074Y-113800990D01*
X191030074Y-113800990D02*
X190458646Y-114372419D01*
X190458646Y-114372419D02*
X191077693Y-114372419D01*
X191411027Y-113372419D02*
X192077693Y-113372419D01*
X192077693Y-113372419D02*
X191649122Y-114372419D01*
X190506265Y-105967657D02*
X190553884Y-105920038D01*
X190553884Y-105920038D02*
X190649122Y-105872419D01*
X190649122Y-105872419D02*
X190887217Y-105872419D01*
X190887217Y-105872419D02*
X190982455Y-105920038D01*
X190982455Y-105920038D02*
X191030074Y-105967657D01*
X191030074Y-105967657D02*
X191077693Y-106062895D01*
X191077693Y-106062895D02*
X191077693Y-106158133D01*
X191077693Y-106158133D02*
X191030074Y-106300990D01*
X191030074Y-106300990D02*
X190458646Y-106872419D01*
X190458646Y-106872419D02*
X191077693Y-106872419D01*
X192030074Y-106872419D02*
X191458646Y-106872419D01*
X191744360Y-106872419D02*
X191744360Y-105872419D01*
X191744360Y-105872419D02*
X191649122Y-106015276D01*
X191649122Y-106015276D02*
X191553884Y-106110514D01*
X191553884Y-106110514D02*
X191458646Y-106158133D01*
X101077693Y-94122419D02*
X100506265Y-94122419D01*
X100791979Y-94122419D02*
X100791979Y-93122419D01*
X100791979Y-93122419D02*
X100696741Y-93265276D01*
X100696741Y-93265276D02*
X100601503Y-93360514D01*
X100601503Y-93360514D02*
X100506265Y-93408133D01*
X101696741Y-93122419D02*
X101791979Y-93122419D01*
X101791979Y-93122419D02*
X101887217Y-93170038D01*
X101887217Y-93170038D02*
X101934836Y-93217657D01*
X101934836Y-93217657D02*
X101982455Y-93312895D01*
X101982455Y-93312895D02*
X102030074Y-93503371D01*
X102030074Y-93503371D02*
X102030074Y-93741466D01*
X102030074Y-93741466D02*
X101982455Y-93931942D01*
X101982455Y-93931942D02*
X101934836Y-94027180D01*
X101934836Y-94027180D02*
X101887217Y-94074800D01*
X101887217Y-94074800D02*
X101791979Y-94122419D01*
X101791979Y-94122419D02*
X101696741Y-94122419D01*
X101696741Y-94122419D02*
X101601503Y-94074800D01*
X101601503Y-94074800D02*
X101553884Y-94027180D01*
X101553884Y-94027180D02*
X101506265Y-93931942D01*
X101506265Y-93931942D02*
X101458646Y-93741466D01*
X101458646Y-93741466D02*
X101458646Y-93503371D01*
X101458646Y-93503371D02*
X101506265Y-93312895D01*
X101506265Y-93312895D02*
X101553884Y-93217657D01*
X101553884Y-93217657D02*
X101601503Y-93170038D01*
X101601503Y-93170038D02*
X101696741Y-93122419D01*
X191077693Y-101872419D02*
X190506265Y-101872419D01*
X190791979Y-101872419D02*
X190791979Y-100872419D01*
X190791979Y-100872419D02*
X190696741Y-101015276D01*
X190696741Y-101015276D02*
X190601503Y-101110514D01*
X190601503Y-101110514D02*
X190506265Y-101158133D01*
X191411027Y-100872419D02*
X192077693Y-100872419D01*
X192077693Y-100872419D02*
X191649122Y-101872419D01*
X198446741Y-91050990D02*
X198351503Y-91003371D01*
X198351503Y-91003371D02*
X198303884Y-90955752D01*
X198303884Y-90955752D02*
X198256265Y-90860514D01*
X198256265Y-90860514D02*
X198256265Y-90812895D01*
X198256265Y-90812895D02*
X198303884Y-90717657D01*
X198303884Y-90717657D02*
X198351503Y-90670038D01*
X198351503Y-90670038D02*
X198446741Y-90622419D01*
X198446741Y-90622419D02*
X198637217Y-90622419D01*
X198637217Y-90622419D02*
X198732455Y-90670038D01*
X198732455Y-90670038D02*
X198780074Y-90717657D01*
X198780074Y-90717657D02*
X198827693Y-90812895D01*
X198827693Y-90812895D02*
X198827693Y-90860514D01*
X198827693Y-90860514D02*
X198780074Y-90955752D01*
X198780074Y-90955752D02*
X198732455Y-91003371D01*
X198732455Y-91003371D02*
X198637217Y-91050990D01*
X198637217Y-91050990D02*
X198446741Y-91050990D01*
X198446741Y-91050990D02*
X198351503Y-91098609D01*
X198351503Y-91098609D02*
X198303884Y-91146228D01*
X198303884Y-91146228D02*
X198256265Y-91241466D01*
X198256265Y-91241466D02*
X198256265Y-91431942D01*
X198256265Y-91431942D02*
X198303884Y-91527180D01*
X198303884Y-91527180D02*
X198351503Y-91574800D01*
X198351503Y-91574800D02*
X198446741Y-91622419D01*
X198446741Y-91622419D02*
X198637217Y-91622419D01*
X198637217Y-91622419D02*
X198732455Y-91574800D01*
X198732455Y-91574800D02*
X198780074Y-91527180D01*
X198780074Y-91527180D02*
X198827693Y-91431942D01*
X198827693Y-91431942D02*
X198827693Y-91241466D01*
X198827693Y-91241466D02*
X198780074Y-91146228D01*
X198780074Y-91146228D02*
X198732455Y-91098609D01*
X198732455Y-91098609D02*
X198637217Y-91050990D01*
X198827693Y-94122419D02*
X198256265Y-94122419D01*
X198541979Y-94122419D02*
X198541979Y-93122419D01*
X198541979Y-93122419D02*
X198446741Y-93265276D01*
X198446741Y-93265276D02*
X198351503Y-93360514D01*
X198351503Y-93360514D02*
X198256265Y-93408133D01*
X199446741Y-93122419D02*
X199541979Y-93122419D01*
X199541979Y-93122419D02*
X199637217Y-93170038D01*
X199637217Y-93170038D02*
X199684836Y-93217657D01*
X199684836Y-93217657D02*
X199732455Y-93312895D01*
X199732455Y-93312895D02*
X199780074Y-93503371D01*
X199780074Y-93503371D02*
X199780074Y-93741466D01*
X199780074Y-93741466D02*
X199732455Y-93931942D01*
X199732455Y-93931942D02*
X199684836Y-94027180D01*
X199684836Y-94027180D02*
X199637217Y-94074800D01*
X199637217Y-94074800D02*
X199541979Y-94122419D01*
X199541979Y-94122419D02*
X199446741Y-94122419D01*
X199446741Y-94122419D02*
X199351503Y-94074800D01*
X199351503Y-94074800D02*
X199303884Y-94027180D01*
X199303884Y-94027180D02*
X199256265Y-93931942D01*
X199256265Y-93931942D02*
X199208646Y-93741466D01*
X199208646Y-93741466D02*
X199208646Y-93503371D01*
X199208646Y-93503371D02*
X199256265Y-93312895D01*
X199256265Y-93312895D02*
X199303884Y-93217657D01*
X199303884Y-93217657D02*
X199351503Y-93170038D01*
X199351503Y-93170038D02*
X199446741Y-93122419D01*
X108256265Y-110967657D02*
X108303884Y-110920038D01*
X108303884Y-110920038D02*
X108399122Y-110872419D01*
X108399122Y-110872419D02*
X108637217Y-110872419D01*
X108637217Y-110872419D02*
X108732455Y-110920038D01*
X108732455Y-110920038D02*
X108780074Y-110967657D01*
X108780074Y-110967657D02*
X108827693Y-111062895D01*
X108827693Y-111062895D02*
X108827693Y-111158133D01*
X108827693Y-111158133D02*
X108780074Y-111300990D01*
X108780074Y-111300990D02*
X108208646Y-111872419D01*
X108208646Y-111872419D02*
X108827693Y-111872419D01*
X109732455Y-110872419D02*
X109256265Y-110872419D01*
X109256265Y-110872419D02*
X109208646Y-111348609D01*
X109208646Y-111348609D02*
X109256265Y-111300990D01*
X109256265Y-111300990D02*
X109351503Y-111253371D01*
X109351503Y-111253371D02*
X109589598Y-111253371D01*
X109589598Y-111253371D02*
X109684836Y-111300990D01*
X109684836Y-111300990D02*
X109732455Y-111348609D01*
X109732455Y-111348609D02*
X109780074Y-111443847D01*
X109780074Y-111443847D02*
X109780074Y-111681942D01*
X109780074Y-111681942D02*
X109732455Y-111777180D01*
X109732455Y-111777180D02*
X109684836Y-111824800D01*
X109684836Y-111824800D02*
X109589598Y-111872419D01*
X109589598Y-111872419D02*
X109351503Y-111872419D01*
X109351503Y-111872419D02*
X109256265Y-111824800D01*
X109256265Y-111824800D02*
X109208646Y-111777180D01*
X198256265Y-110967657D02*
X198303884Y-110920038D01*
X198303884Y-110920038D02*
X198399122Y-110872419D01*
X198399122Y-110872419D02*
X198637217Y-110872419D01*
X198637217Y-110872419D02*
X198732455Y-110920038D01*
X198732455Y-110920038D02*
X198780074Y-110967657D01*
X198780074Y-110967657D02*
X198827693Y-111062895D01*
X198827693Y-111062895D02*
X198827693Y-111158133D01*
X198827693Y-111158133D02*
X198780074Y-111300990D01*
X198780074Y-111300990D02*
X198208646Y-111872419D01*
X198208646Y-111872419D02*
X198827693Y-111872419D01*
X199684836Y-111205752D02*
X199684836Y-111872419D01*
X199446741Y-110824800D02*
X199208646Y-111539085D01*
X199208646Y-111539085D02*
X199827693Y-111539085D01*
X100506265Y-110967657D02*
X100553884Y-110920038D01*
X100553884Y-110920038D02*
X100649122Y-110872419D01*
X100649122Y-110872419D02*
X100887217Y-110872419D01*
X100887217Y-110872419D02*
X100982455Y-110920038D01*
X100982455Y-110920038D02*
X101030074Y-110967657D01*
X101030074Y-110967657D02*
X101077693Y-111062895D01*
X101077693Y-111062895D02*
X101077693Y-111158133D01*
X101077693Y-111158133D02*
X101030074Y-111300990D01*
X101030074Y-111300990D02*
X100458646Y-111872419D01*
X100458646Y-111872419D02*
X101077693Y-111872419D01*
X101934836Y-111205752D02*
X101934836Y-111872419D01*
X101696741Y-110824800D02*
X101458646Y-111539085D01*
X101458646Y-111539085D02*
X102077693Y-111539085D01*
X108256265Y-105967657D02*
X108303884Y-105920038D01*
X108303884Y-105920038D02*
X108399122Y-105872419D01*
X108399122Y-105872419D02*
X108637217Y-105872419D01*
X108637217Y-105872419D02*
X108732455Y-105920038D01*
X108732455Y-105920038D02*
X108780074Y-105967657D01*
X108780074Y-105967657D02*
X108827693Y-106062895D01*
X108827693Y-106062895D02*
X108827693Y-106158133D01*
X108827693Y-106158133D02*
X108780074Y-106300990D01*
X108780074Y-106300990D02*
X108208646Y-106872419D01*
X108208646Y-106872419D02*
X108827693Y-106872419D01*
X109780074Y-106872419D02*
X109208646Y-106872419D01*
X109494360Y-106872419D02*
X109494360Y-105872419D01*
X109494360Y-105872419D02*
X109399122Y-106015276D01*
X109399122Y-106015276D02*
X109303884Y-106110514D01*
X109303884Y-106110514D02*
X109208646Y-106158133D01*
X108256265Y-116217657D02*
X108303884Y-116170038D01*
X108303884Y-116170038D02*
X108399122Y-116122419D01*
X108399122Y-116122419D02*
X108637217Y-116122419D01*
X108637217Y-116122419D02*
X108732455Y-116170038D01*
X108732455Y-116170038D02*
X108780074Y-116217657D01*
X108780074Y-116217657D02*
X108827693Y-116312895D01*
X108827693Y-116312895D02*
X108827693Y-116408133D01*
X108827693Y-116408133D02*
X108780074Y-116550990D01*
X108780074Y-116550990D02*
X108208646Y-117122419D01*
X108208646Y-117122419D02*
X108827693Y-117122419D01*
X109399122Y-116550990D02*
X109303884Y-116503371D01*
X109303884Y-116503371D02*
X109256265Y-116455752D01*
X109256265Y-116455752D02*
X109208646Y-116360514D01*
X109208646Y-116360514D02*
X109208646Y-116312895D01*
X109208646Y-116312895D02*
X109256265Y-116217657D01*
X109256265Y-116217657D02*
X109303884Y-116170038D01*
X109303884Y-116170038D02*
X109399122Y-116122419D01*
X109399122Y-116122419D02*
X109589598Y-116122419D01*
X109589598Y-116122419D02*
X109684836Y-116170038D01*
X109684836Y-116170038D02*
X109732455Y-116217657D01*
X109732455Y-116217657D02*
X109780074Y-116312895D01*
X109780074Y-116312895D02*
X109780074Y-116360514D01*
X109780074Y-116360514D02*
X109732455Y-116455752D01*
X109732455Y-116455752D02*
X109684836Y-116503371D01*
X109684836Y-116503371D02*
X109589598Y-116550990D01*
X109589598Y-116550990D02*
X109399122Y-116550990D01*
X109399122Y-116550990D02*
X109303884Y-116598609D01*
X109303884Y-116598609D02*
X109256265Y-116646228D01*
X109256265Y-116646228D02*
X109208646Y-116741466D01*
X109208646Y-116741466D02*
X109208646Y-116931942D01*
X109208646Y-116931942D02*
X109256265Y-117027180D01*
X109256265Y-117027180D02*
X109303884Y-117074800D01*
X109303884Y-117074800D02*
X109399122Y-117122419D01*
X109399122Y-117122419D02*
X109589598Y-117122419D01*
X109589598Y-117122419D02*
X109684836Y-117074800D01*
X109684836Y-117074800D02*
X109732455Y-117027180D01*
X109732455Y-117027180D02*
X109780074Y-116931942D01*
X109780074Y-116931942D02*
X109780074Y-116741466D01*
X109780074Y-116741466D02*
X109732455Y-116646228D01*
X109732455Y-116646228D02*
X109684836Y-116598609D01*
X109684836Y-116598609D02*
X109589598Y-116550990D01*
X190506265Y-108467657D02*
X190553884Y-108420038D01*
X190553884Y-108420038D02*
X190649122Y-108372419D01*
X190649122Y-108372419D02*
X190887217Y-108372419D01*
X190887217Y-108372419D02*
X190982455Y-108420038D01*
X190982455Y-108420038D02*
X191030074Y-108467657D01*
X191030074Y-108467657D02*
X191077693Y-108562895D01*
X191077693Y-108562895D02*
X191077693Y-108658133D01*
X191077693Y-108658133D02*
X191030074Y-108800990D01*
X191030074Y-108800990D02*
X190458646Y-109372419D01*
X190458646Y-109372419D02*
X191077693Y-109372419D01*
X191411027Y-108372419D02*
X192030074Y-108372419D01*
X192030074Y-108372419D02*
X191696741Y-108753371D01*
X191696741Y-108753371D02*
X191839598Y-108753371D01*
X191839598Y-108753371D02*
X191934836Y-108800990D01*
X191934836Y-108800990D02*
X191982455Y-108848609D01*
X191982455Y-108848609D02*
X192030074Y-108943847D01*
X192030074Y-108943847D02*
X192030074Y-109181942D01*
X192030074Y-109181942D02*
X191982455Y-109277180D01*
X191982455Y-109277180D02*
X191934836Y-109324800D01*
X191934836Y-109324800D02*
X191839598Y-109372419D01*
X191839598Y-109372419D02*
X191553884Y-109372419D01*
X191553884Y-109372419D02*
X191458646Y-109324800D01*
X191458646Y-109324800D02*
X191411027Y-109277180D01*
X108827693Y-99122419D02*
X108256265Y-99122419D01*
X108541979Y-99122419D02*
X108541979Y-98122419D01*
X108541979Y-98122419D02*
X108446741Y-98265276D01*
X108446741Y-98265276D02*
X108351503Y-98360514D01*
X108351503Y-98360514D02*
X108256265Y-98408133D01*
X109732455Y-98122419D02*
X109256265Y-98122419D01*
X109256265Y-98122419D02*
X109208646Y-98598609D01*
X109208646Y-98598609D02*
X109256265Y-98550990D01*
X109256265Y-98550990D02*
X109351503Y-98503371D01*
X109351503Y-98503371D02*
X109589598Y-98503371D01*
X109589598Y-98503371D02*
X109684836Y-98550990D01*
X109684836Y-98550990D02*
X109732455Y-98598609D01*
X109732455Y-98598609D02*
X109780074Y-98693847D01*
X109780074Y-98693847D02*
X109780074Y-98931942D01*
X109780074Y-98931942D02*
X109732455Y-99027180D01*
X109732455Y-99027180D02*
X109684836Y-99074800D01*
X109684836Y-99074800D02*
X109589598Y-99122419D01*
X109589598Y-99122419D02*
X109351503Y-99122419D01*
X109351503Y-99122419D02*
X109256265Y-99074800D01*
X109256265Y-99074800D02*
X109208646Y-99027180D01*
X198827693Y-101872419D02*
X198256265Y-101872419D01*
X198541979Y-101872419D02*
X198541979Y-100872419D01*
X198541979Y-100872419D02*
X198446741Y-101015276D01*
X198446741Y-101015276D02*
X198351503Y-101110514D01*
X198351503Y-101110514D02*
X198256265Y-101158133D01*
X199684836Y-100872419D02*
X199494360Y-100872419D01*
X199494360Y-100872419D02*
X199399122Y-100920038D01*
X199399122Y-100920038D02*
X199351503Y-100967657D01*
X199351503Y-100967657D02*
X199256265Y-101110514D01*
X199256265Y-101110514D02*
X199208646Y-101300990D01*
X199208646Y-101300990D02*
X199208646Y-101681942D01*
X199208646Y-101681942D02*
X199256265Y-101777180D01*
X199256265Y-101777180D02*
X199303884Y-101824800D01*
X199303884Y-101824800D02*
X199399122Y-101872419D01*
X199399122Y-101872419D02*
X199589598Y-101872419D01*
X199589598Y-101872419D02*
X199684836Y-101824800D01*
X199684836Y-101824800D02*
X199732455Y-101777180D01*
X199732455Y-101777180D02*
X199780074Y-101681942D01*
X199780074Y-101681942D02*
X199780074Y-101443847D01*
X199780074Y-101443847D02*
X199732455Y-101348609D01*
X199732455Y-101348609D02*
X199684836Y-101300990D01*
X199684836Y-101300990D02*
X199589598Y-101253371D01*
X199589598Y-101253371D02*
X199399122Y-101253371D01*
X199399122Y-101253371D02*
X199303884Y-101300990D01*
X199303884Y-101300990D02*
X199256265Y-101348609D01*
X199256265Y-101348609D02*
X199208646Y-101443847D01*
X102148496Y-72920038D02*
X102053258Y-72872419D01*
X102053258Y-72872419D02*
X101910401Y-72872419D01*
X101910401Y-72872419D02*
X101767544Y-72920038D01*
X101767544Y-72920038D02*
X101672306Y-73015276D01*
X101672306Y-73015276D02*
X101624687Y-73110514D01*
X101624687Y-73110514D02*
X101577068Y-73300990D01*
X101577068Y-73300990D02*
X101577068Y-73443847D01*
X101577068Y-73443847D02*
X101624687Y-73634323D01*
X101624687Y-73634323D02*
X101672306Y-73729561D01*
X101672306Y-73729561D02*
X101767544Y-73824800D01*
X101767544Y-73824800D02*
X101910401Y-73872419D01*
X101910401Y-73872419D02*
X102005639Y-73872419D01*
X102005639Y-73872419D02*
X102148496Y-73824800D01*
X102148496Y-73824800D02*
X102196115Y-73777180D01*
X102196115Y-73777180D02*
X102196115Y-73443847D01*
X102196115Y-73443847D02*
X102005639Y-73443847D01*
X102624687Y-73872419D02*
X102624687Y-72872419D01*
X102624687Y-72872419D02*
X103196115Y-73872419D01*
X103196115Y-73872419D02*
X103196115Y-72872419D01*
X103672306Y-73872419D02*
X103672306Y-72872419D01*
X103672306Y-72872419D02*
X103910401Y-72872419D01*
X103910401Y-72872419D02*
X104053258Y-72920038D01*
X104053258Y-72920038D02*
X104148496Y-73015276D01*
X104148496Y-73015276D02*
X104196115Y-73110514D01*
X104196115Y-73110514D02*
X104243734Y-73300990D01*
X104243734Y-73300990D02*
X104243734Y-73443847D01*
X104243734Y-73443847D02*
X104196115Y-73634323D01*
X104196115Y-73634323D02*
X104148496Y-73729561D01*
X104148496Y-73729561D02*
X104053258Y-73824800D01*
X104053258Y-73824800D02*
X103910401Y-73872419D01*
X103910401Y-73872419D02*
X103672306Y-73872419D01*
X191077693Y-104372419D02*
X190506265Y-104372419D01*
X190791979Y-104372419D02*
X190791979Y-103372419D01*
X190791979Y-103372419D02*
X190696741Y-103515276D01*
X190696741Y-103515276D02*
X190601503Y-103610514D01*
X190601503Y-103610514D02*
X190506265Y-103658133D01*
X191553884Y-104372419D02*
X191744360Y-104372419D01*
X191744360Y-104372419D02*
X191839598Y-104324800D01*
X191839598Y-104324800D02*
X191887217Y-104277180D01*
X191887217Y-104277180D02*
X191982455Y-104134323D01*
X191982455Y-104134323D02*
X192030074Y-103943847D01*
X192030074Y-103943847D02*
X192030074Y-103562895D01*
X192030074Y-103562895D02*
X191982455Y-103467657D01*
X191982455Y-103467657D02*
X191934836Y-103420038D01*
X191934836Y-103420038D02*
X191839598Y-103372419D01*
X191839598Y-103372419D02*
X191649122Y-103372419D01*
X191649122Y-103372419D02*
X191553884Y-103420038D01*
X191553884Y-103420038D02*
X191506265Y-103467657D01*
X191506265Y-103467657D02*
X191458646Y-103562895D01*
X191458646Y-103562895D02*
X191458646Y-103800990D01*
X191458646Y-103800990D02*
X191506265Y-103896228D01*
X191506265Y-103896228D02*
X191553884Y-103943847D01*
X191553884Y-103943847D02*
X191649122Y-103991466D01*
X191649122Y-103991466D02*
X191839598Y-103991466D01*
X191839598Y-103991466D02*
X191934836Y-103943847D01*
X191934836Y-103943847D02*
X191982455Y-103896228D01*
X191982455Y-103896228D02*
X192030074Y-103800990D01*
X196327693Y-72420038D02*
X196232455Y-72372419D01*
X196232455Y-72372419D02*
X196089598Y-72372419D01*
X196089598Y-72372419D02*
X195946741Y-72420038D01*
X195946741Y-72420038D02*
X195851503Y-72515276D01*
X195851503Y-72515276D02*
X195803884Y-72610514D01*
X195803884Y-72610514D02*
X195756265Y-72800990D01*
X195756265Y-72800990D02*
X195756265Y-72943847D01*
X195756265Y-72943847D02*
X195803884Y-73134323D01*
X195803884Y-73134323D02*
X195851503Y-73229561D01*
X195851503Y-73229561D02*
X195946741Y-73324800D01*
X195946741Y-73324800D02*
X196089598Y-73372419D01*
X196089598Y-73372419D02*
X196184836Y-73372419D01*
X196184836Y-73372419D02*
X196327693Y-73324800D01*
X196327693Y-73324800D02*
X196375312Y-73277180D01*
X196375312Y-73277180D02*
X196375312Y-72943847D01*
X196375312Y-72943847D02*
X196184836Y-72943847D01*
X196803884Y-73372419D02*
X196803884Y-72372419D01*
X196803884Y-72372419D02*
X197375312Y-73372419D01*
X197375312Y-73372419D02*
X197375312Y-72372419D01*
X197851503Y-73372419D02*
X197851503Y-72372419D01*
X197851503Y-72372419D02*
X198089598Y-72372419D01*
X198089598Y-72372419D02*
X198232455Y-72420038D01*
X198232455Y-72420038D02*
X198327693Y-72515276D01*
X198327693Y-72515276D02*
X198375312Y-72610514D01*
X198375312Y-72610514D02*
X198422931Y-72800990D01*
X198422931Y-72800990D02*
X198422931Y-72943847D01*
X198422931Y-72943847D02*
X198375312Y-73134323D01*
X198375312Y-73134323D02*
X198327693Y-73229561D01*
X198327693Y-73229561D02*
X198232455Y-73324800D01*
X198232455Y-73324800D02*
X198089598Y-73372419D01*
X198089598Y-73372419D02*
X197851503Y-73372419D01*
X109101503Y-91372419D02*
X109291979Y-91372419D01*
X109291979Y-91372419D02*
X109387217Y-91324800D01*
X109387217Y-91324800D02*
X109434836Y-91277180D01*
X109434836Y-91277180D02*
X109530074Y-91134323D01*
X109530074Y-91134323D02*
X109577693Y-90943847D01*
X109577693Y-90943847D02*
X109577693Y-90562895D01*
X109577693Y-90562895D02*
X109530074Y-90467657D01*
X109530074Y-90467657D02*
X109482455Y-90420038D01*
X109482455Y-90420038D02*
X109387217Y-90372419D01*
X109387217Y-90372419D02*
X109196741Y-90372419D01*
X109196741Y-90372419D02*
X109101503Y-90420038D01*
X109101503Y-90420038D02*
X109053884Y-90467657D01*
X109053884Y-90467657D02*
X109006265Y-90562895D01*
X109006265Y-90562895D02*
X109006265Y-90800990D01*
X109006265Y-90800990D02*
X109053884Y-90896228D01*
X109053884Y-90896228D02*
X109101503Y-90943847D01*
X109101503Y-90943847D02*
X109196741Y-90991466D01*
X109196741Y-90991466D02*
X109387217Y-90991466D01*
X109387217Y-90991466D02*
X109482455Y-90943847D01*
X109482455Y-90943847D02*
X109530074Y-90896228D01*
X109530074Y-90896228D02*
X109577693Y-90800990D01*
X109577693Y-78872419D02*
X109006265Y-78872419D01*
X109291979Y-78872419D02*
X109291979Y-77872419D01*
X109291979Y-77872419D02*
X109196741Y-78015276D01*
X109196741Y-78015276D02*
X109101503Y-78110514D01*
X109101503Y-78110514D02*
X109006265Y-78158133D01*
X198827693Y-96622419D02*
X198256265Y-96622419D01*
X198541979Y-96622419D02*
X198541979Y-95622419D01*
X198541979Y-95622419D02*
X198446741Y-95765276D01*
X198446741Y-95765276D02*
X198351503Y-95860514D01*
X198351503Y-95860514D02*
X198256265Y-95908133D01*
X199208646Y-95717657D02*
X199256265Y-95670038D01*
X199256265Y-95670038D02*
X199351503Y-95622419D01*
X199351503Y-95622419D02*
X199589598Y-95622419D01*
X199589598Y-95622419D02*
X199684836Y-95670038D01*
X199684836Y-95670038D02*
X199732455Y-95717657D01*
X199732455Y-95717657D02*
X199780074Y-95812895D01*
X199780074Y-95812895D02*
X199780074Y-95908133D01*
X199780074Y-95908133D02*
X199732455Y-96050990D01*
X199732455Y-96050990D02*
X199161027Y-96622419D01*
X199161027Y-96622419D02*
X199780074Y-96622419D01*
X100506265Y-113467657D02*
X100553884Y-113420038D01*
X100553884Y-113420038D02*
X100649122Y-113372419D01*
X100649122Y-113372419D02*
X100887217Y-113372419D01*
X100887217Y-113372419D02*
X100982455Y-113420038D01*
X100982455Y-113420038D02*
X101030074Y-113467657D01*
X101030074Y-113467657D02*
X101077693Y-113562895D01*
X101077693Y-113562895D02*
X101077693Y-113658133D01*
X101077693Y-113658133D02*
X101030074Y-113800990D01*
X101030074Y-113800990D02*
X100458646Y-114372419D01*
X100458646Y-114372419D02*
X101077693Y-114372419D01*
X101934836Y-113372419D02*
X101744360Y-113372419D01*
X101744360Y-113372419D02*
X101649122Y-113420038D01*
X101649122Y-113420038D02*
X101601503Y-113467657D01*
X101601503Y-113467657D02*
X101506265Y-113610514D01*
X101506265Y-113610514D02*
X101458646Y-113800990D01*
X101458646Y-113800990D02*
X101458646Y-114181942D01*
X101458646Y-114181942D02*
X101506265Y-114277180D01*
X101506265Y-114277180D02*
X101553884Y-114324800D01*
X101553884Y-114324800D02*
X101649122Y-114372419D01*
X101649122Y-114372419D02*
X101839598Y-114372419D01*
X101839598Y-114372419D02*
X101934836Y-114324800D01*
X101934836Y-114324800D02*
X101982455Y-114277180D01*
X101982455Y-114277180D02*
X102030074Y-114181942D01*
X102030074Y-114181942D02*
X102030074Y-113943847D01*
X102030074Y-113943847D02*
X101982455Y-113848609D01*
X101982455Y-113848609D02*
X101934836Y-113800990D01*
X101934836Y-113800990D02*
X101839598Y-113753371D01*
X101839598Y-113753371D02*
X101649122Y-113753371D01*
X101649122Y-113753371D02*
X101553884Y-113800990D01*
X101553884Y-113800990D02*
X101506265Y-113848609D01*
X101506265Y-113848609D02*
X101458646Y-113943847D01*
X198256265Y-108467657D02*
X198303884Y-108420038D01*
X198303884Y-108420038D02*
X198399122Y-108372419D01*
X198399122Y-108372419D02*
X198637217Y-108372419D01*
X198637217Y-108372419D02*
X198732455Y-108420038D01*
X198732455Y-108420038D02*
X198780074Y-108467657D01*
X198780074Y-108467657D02*
X198827693Y-108562895D01*
X198827693Y-108562895D02*
X198827693Y-108658133D01*
X198827693Y-108658133D02*
X198780074Y-108800990D01*
X198780074Y-108800990D02*
X198208646Y-109372419D01*
X198208646Y-109372419D02*
X198827693Y-109372419D01*
X199208646Y-108467657D02*
X199256265Y-108420038D01*
X199256265Y-108420038D02*
X199351503Y-108372419D01*
X199351503Y-108372419D02*
X199589598Y-108372419D01*
X199589598Y-108372419D02*
X199684836Y-108420038D01*
X199684836Y-108420038D02*
X199732455Y-108467657D01*
X199732455Y-108467657D02*
X199780074Y-108562895D01*
X199780074Y-108562895D02*
X199780074Y-108658133D01*
X199780074Y-108658133D02*
X199732455Y-108800990D01*
X199732455Y-108800990D02*
X199161027Y-109372419D01*
X199161027Y-109372419D02*
X199780074Y-109372419D01*
X191780074Y-85372419D02*
X191303884Y-85372419D01*
X191303884Y-85372419D02*
X191256265Y-85848609D01*
X191256265Y-85848609D02*
X191303884Y-85800990D01*
X191303884Y-85800990D02*
X191399122Y-85753371D01*
X191399122Y-85753371D02*
X191637217Y-85753371D01*
X191637217Y-85753371D02*
X191732455Y-85800990D01*
X191732455Y-85800990D02*
X191780074Y-85848609D01*
X191780074Y-85848609D02*
X191827693Y-85943847D01*
X191827693Y-85943847D02*
X191827693Y-86181942D01*
X191827693Y-86181942D02*
X191780074Y-86277180D01*
X191780074Y-86277180D02*
X191732455Y-86324800D01*
X191732455Y-86324800D02*
X191637217Y-86372419D01*
X191637217Y-86372419D02*
X191399122Y-86372419D01*
X191399122Y-86372419D02*
X191303884Y-86324800D01*
X191303884Y-86324800D02*
X191256265Y-86277180D01*
X198732455Y-85955752D02*
X198732455Y-86622419D01*
X198494360Y-85574800D02*
X198256265Y-86289085D01*
X198256265Y-86289085D02*
X198875312Y-86289085D01*
X191208646Y-87872419D02*
X191875312Y-87872419D01*
X191875312Y-87872419D02*
X191446741Y-88872419D01*
X100982455Y-88122419D02*
X100791979Y-88122419D01*
X100791979Y-88122419D02*
X100696741Y-88170038D01*
X100696741Y-88170038D02*
X100649122Y-88217657D01*
X100649122Y-88217657D02*
X100553884Y-88360514D01*
X100553884Y-88360514D02*
X100506265Y-88550990D01*
X100506265Y-88550990D02*
X100506265Y-88931942D01*
X100506265Y-88931942D02*
X100553884Y-89027180D01*
X100553884Y-89027180D02*
X100601503Y-89074800D01*
X100601503Y-89074800D02*
X100696741Y-89122419D01*
X100696741Y-89122419D02*
X100887217Y-89122419D01*
X100887217Y-89122419D02*
X100982455Y-89074800D01*
X100982455Y-89074800D02*
X101030074Y-89027180D01*
X101030074Y-89027180D02*
X101077693Y-88931942D01*
X101077693Y-88931942D02*
X101077693Y-88693847D01*
X101077693Y-88693847D02*
X101030074Y-88598609D01*
X101030074Y-88598609D02*
X100982455Y-88550990D01*
X100982455Y-88550990D02*
X100887217Y-88503371D01*
X100887217Y-88503371D02*
X100696741Y-88503371D01*
X100696741Y-88503371D02*
X100601503Y-88550990D01*
X100601503Y-88550990D02*
X100553884Y-88598609D01*
X100553884Y-88598609D02*
X100506265Y-88693847D01*
X198827693Y-99372419D02*
X198256265Y-99372419D01*
X198541979Y-99372419D02*
X198541979Y-98372419D01*
X198541979Y-98372419D02*
X198446741Y-98515276D01*
X198446741Y-98515276D02*
X198351503Y-98610514D01*
X198351503Y-98610514D02*
X198256265Y-98658133D01*
X199684836Y-98705752D02*
X199684836Y-99372419D01*
X199446741Y-98324800D02*
X199208646Y-99039085D01*
X199208646Y-99039085D02*
X199827693Y-99039085D01*
X106483972Y-126122419D02*
X106007782Y-126122419D01*
X106007782Y-126122419D02*
X105960163Y-126598609D01*
X105960163Y-126598609D02*
X106007782Y-126550990D01*
X106007782Y-126550990D02*
X106103020Y-126503371D01*
X106103020Y-126503371D02*
X106341115Y-126503371D01*
X106341115Y-126503371D02*
X106436353Y-126550990D01*
X106436353Y-126550990D02*
X106483972Y-126598609D01*
X106483972Y-126598609D02*
X106531591Y-126693847D01*
X106531591Y-126693847D02*
X106531591Y-126931942D01*
X106531591Y-126931942D02*
X106483972Y-127027180D01*
X106483972Y-127027180D02*
X106436353Y-127074800D01*
X106436353Y-127074800D02*
X106341115Y-127122419D01*
X106341115Y-127122419D02*
X106103020Y-127122419D01*
X106103020Y-127122419D02*
X106007782Y-127074800D01*
X106007782Y-127074800D02*
X105960163Y-127027180D01*
X106817306Y-126122419D02*
X107150639Y-127122419D01*
X107150639Y-127122419D02*
X107483972Y-126122419D01*
X108256265Y-108467657D02*
X108303884Y-108420038D01*
X108303884Y-108420038D02*
X108399122Y-108372419D01*
X108399122Y-108372419D02*
X108637217Y-108372419D01*
X108637217Y-108372419D02*
X108732455Y-108420038D01*
X108732455Y-108420038D02*
X108780074Y-108467657D01*
X108780074Y-108467657D02*
X108827693Y-108562895D01*
X108827693Y-108562895D02*
X108827693Y-108658133D01*
X108827693Y-108658133D02*
X108780074Y-108800990D01*
X108780074Y-108800990D02*
X108208646Y-109372419D01*
X108208646Y-109372419D02*
X108827693Y-109372419D01*
X109161027Y-108372419D02*
X109780074Y-108372419D01*
X109780074Y-108372419D02*
X109446741Y-108753371D01*
X109446741Y-108753371D02*
X109589598Y-108753371D01*
X109589598Y-108753371D02*
X109684836Y-108800990D01*
X109684836Y-108800990D02*
X109732455Y-108848609D01*
X109732455Y-108848609D02*
X109780074Y-108943847D01*
X109780074Y-108943847D02*
X109780074Y-109181942D01*
X109780074Y-109181942D02*
X109732455Y-109277180D01*
X109732455Y-109277180D02*
X109684836Y-109324800D01*
X109684836Y-109324800D02*
X109589598Y-109372419D01*
X109589598Y-109372419D02*
X109303884Y-109372419D01*
X109303884Y-109372419D02*
X109208646Y-109324800D01*
X109208646Y-109324800D02*
X109161027Y-109277180D01*
X191827693Y-78872419D02*
X191256265Y-78872419D01*
X191541979Y-78872419D02*
X191541979Y-77872419D01*
X191541979Y-77872419D02*
X191446741Y-78015276D01*
X191446741Y-78015276D02*
X191351503Y-78110514D01*
X191351503Y-78110514D02*
X191256265Y-78158133D01*
X198256265Y-113467657D02*
X198303884Y-113420038D01*
X198303884Y-113420038D02*
X198399122Y-113372419D01*
X198399122Y-113372419D02*
X198637217Y-113372419D01*
X198637217Y-113372419D02*
X198732455Y-113420038D01*
X198732455Y-113420038D02*
X198780074Y-113467657D01*
X198780074Y-113467657D02*
X198827693Y-113562895D01*
X198827693Y-113562895D02*
X198827693Y-113658133D01*
X198827693Y-113658133D02*
X198780074Y-113800990D01*
X198780074Y-113800990D02*
X198208646Y-114372419D01*
X198208646Y-114372419D02*
X198827693Y-114372419D01*
X199684836Y-113372419D02*
X199494360Y-113372419D01*
X199494360Y-113372419D02*
X199399122Y-113420038D01*
X199399122Y-113420038D02*
X199351503Y-113467657D01*
X199351503Y-113467657D02*
X199256265Y-113610514D01*
X199256265Y-113610514D02*
X199208646Y-113800990D01*
X199208646Y-113800990D02*
X199208646Y-114181942D01*
X199208646Y-114181942D02*
X199256265Y-114277180D01*
X199256265Y-114277180D02*
X199303884Y-114324800D01*
X199303884Y-114324800D02*
X199399122Y-114372419D01*
X199399122Y-114372419D02*
X199589598Y-114372419D01*
X199589598Y-114372419D02*
X199684836Y-114324800D01*
X199684836Y-114324800D02*
X199732455Y-114277180D01*
X199732455Y-114277180D02*
X199780074Y-114181942D01*
X199780074Y-114181942D02*
X199780074Y-113943847D01*
X199780074Y-113943847D02*
X199732455Y-113848609D01*
X199732455Y-113848609D02*
X199684836Y-113800990D01*
X199684836Y-113800990D02*
X199589598Y-113753371D01*
X199589598Y-113753371D02*
X199399122Y-113753371D01*
X199399122Y-113753371D02*
X199303884Y-113800990D01*
X199303884Y-113800990D02*
X199256265Y-113848609D01*
X199256265Y-113848609D02*
X199208646Y-113943847D01*
X191077693Y-99122419D02*
X190506265Y-99122419D01*
X190791979Y-99122419D02*
X190791979Y-98122419D01*
X190791979Y-98122419D02*
X190696741Y-98265276D01*
X190696741Y-98265276D02*
X190601503Y-98360514D01*
X190601503Y-98360514D02*
X190506265Y-98408133D01*
X191982455Y-98122419D02*
X191506265Y-98122419D01*
X191506265Y-98122419D02*
X191458646Y-98598609D01*
X191458646Y-98598609D02*
X191506265Y-98550990D01*
X191506265Y-98550990D02*
X191601503Y-98503371D01*
X191601503Y-98503371D02*
X191839598Y-98503371D01*
X191839598Y-98503371D02*
X191934836Y-98550990D01*
X191934836Y-98550990D02*
X191982455Y-98598609D01*
X191982455Y-98598609D02*
X192030074Y-98693847D01*
X192030074Y-98693847D02*
X192030074Y-98931942D01*
X192030074Y-98931942D02*
X191982455Y-99027180D01*
X191982455Y-99027180D02*
X191934836Y-99074800D01*
X191934836Y-99074800D02*
X191839598Y-99122419D01*
X191839598Y-99122419D02*
X191601503Y-99122419D01*
X191601503Y-99122419D02*
X191506265Y-99074800D01*
X191506265Y-99074800D02*
X191458646Y-99027180D01*
X108827693Y-104372419D02*
X108256265Y-104372419D01*
X108541979Y-104372419D02*
X108541979Y-103372419D01*
X108541979Y-103372419D02*
X108446741Y-103515276D01*
X108446741Y-103515276D02*
X108351503Y-103610514D01*
X108351503Y-103610514D02*
X108256265Y-103658133D01*
X109303884Y-104372419D02*
X109494360Y-104372419D01*
X109494360Y-104372419D02*
X109589598Y-104324800D01*
X109589598Y-104324800D02*
X109637217Y-104277180D01*
X109637217Y-104277180D02*
X109732455Y-104134323D01*
X109732455Y-104134323D02*
X109780074Y-103943847D01*
X109780074Y-103943847D02*
X109780074Y-103562895D01*
X109780074Y-103562895D02*
X109732455Y-103467657D01*
X109732455Y-103467657D02*
X109684836Y-103420038D01*
X109684836Y-103420038D02*
X109589598Y-103372419D01*
X109589598Y-103372419D02*
X109399122Y-103372419D01*
X109399122Y-103372419D02*
X109303884Y-103420038D01*
X109303884Y-103420038D02*
X109256265Y-103467657D01*
X109256265Y-103467657D02*
X109208646Y-103562895D01*
X109208646Y-103562895D02*
X109208646Y-103800990D01*
X109208646Y-103800990D02*
X109256265Y-103896228D01*
X109256265Y-103896228D02*
X109303884Y-103943847D01*
X109303884Y-103943847D02*
X109399122Y-103991466D01*
X109399122Y-103991466D02*
X109589598Y-103991466D01*
X109589598Y-103991466D02*
X109684836Y-103943847D01*
X109684836Y-103943847D02*
X109732455Y-103896228D01*
X109732455Y-103896228D02*
X109780074Y-103800990D01*
X108256265Y-118467657D02*
X108303884Y-118420038D01*
X108303884Y-118420038D02*
X108399122Y-118372419D01*
X108399122Y-118372419D02*
X108637217Y-118372419D01*
X108637217Y-118372419D02*
X108732455Y-118420038D01*
X108732455Y-118420038D02*
X108780074Y-118467657D01*
X108780074Y-118467657D02*
X108827693Y-118562895D01*
X108827693Y-118562895D02*
X108827693Y-118658133D01*
X108827693Y-118658133D02*
X108780074Y-118800990D01*
X108780074Y-118800990D02*
X108208646Y-119372419D01*
X108208646Y-119372419D02*
X108827693Y-119372419D01*
X109303884Y-119372419D02*
X109494360Y-119372419D01*
X109494360Y-119372419D02*
X109589598Y-119324800D01*
X109589598Y-119324800D02*
X109637217Y-119277180D01*
X109637217Y-119277180D02*
X109732455Y-119134323D01*
X109732455Y-119134323D02*
X109780074Y-118943847D01*
X109780074Y-118943847D02*
X109780074Y-118562895D01*
X109780074Y-118562895D02*
X109732455Y-118467657D01*
X109732455Y-118467657D02*
X109684836Y-118420038D01*
X109684836Y-118420038D02*
X109589598Y-118372419D01*
X109589598Y-118372419D02*
X109399122Y-118372419D01*
X109399122Y-118372419D02*
X109303884Y-118420038D01*
X109303884Y-118420038D02*
X109256265Y-118467657D01*
X109256265Y-118467657D02*
X109208646Y-118562895D01*
X109208646Y-118562895D02*
X109208646Y-118800990D01*
X109208646Y-118800990D02*
X109256265Y-118896228D01*
X109256265Y-118896228D02*
X109303884Y-118943847D01*
X109303884Y-118943847D02*
X109399122Y-118991466D01*
X109399122Y-118991466D02*
X109589598Y-118991466D01*
X109589598Y-118991466D02*
X109684836Y-118943847D01*
X109684836Y-118943847D02*
X109732455Y-118896228D01*
X109732455Y-118896228D02*
X109780074Y-118800990D01*
X109530074Y-85372419D02*
X109053884Y-85372419D01*
X109053884Y-85372419D02*
X109006265Y-85848609D01*
X109006265Y-85848609D02*
X109053884Y-85800990D01*
X109053884Y-85800990D02*
X109149122Y-85753371D01*
X109149122Y-85753371D02*
X109387217Y-85753371D01*
X109387217Y-85753371D02*
X109482455Y-85800990D01*
X109482455Y-85800990D02*
X109530074Y-85848609D01*
X109530074Y-85848609D02*
X109577693Y-85943847D01*
X109577693Y-85943847D02*
X109577693Y-86181942D01*
X109577693Y-86181942D02*
X109530074Y-86277180D01*
X109530074Y-86277180D02*
X109482455Y-86324800D01*
X109482455Y-86324800D02*
X109387217Y-86372419D01*
X109387217Y-86372419D02*
X109149122Y-86372419D01*
X109149122Y-86372419D02*
X109053884Y-86324800D01*
X109053884Y-86324800D02*
X109006265Y-86277180D01*
X108827693Y-101872419D02*
X108256265Y-101872419D01*
X108541979Y-101872419D02*
X108541979Y-100872419D01*
X108541979Y-100872419D02*
X108446741Y-101015276D01*
X108446741Y-101015276D02*
X108351503Y-101110514D01*
X108351503Y-101110514D02*
X108256265Y-101158133D01*
X109161027Y-100872419D02*
X109827693Y-100872419D01*
X109827693Y-100872419D02*
X109399122Y-101872419D01*
X196327693Y-126420038D02*
X196232455Y-126372419D01*
X196232455Y-126372419D02*
X196089598Y-126372419D01*
X196089598Y-126372419D02*
X195946741Y-126420038D01*
X195946741Y-126420038D02*
X195851503Y-126515276D01*
X195851503Y-126515276D02*
X195803884Y-126610514D01*
X195803884Y-126610514D02*
X195756265Y-126800990D01*
X195756265Y-126800990D02*
X195756265Y-126943847D01*
X195756265Y-126943847D02*
X195803884Y-127134323D01*
X195803884Y-127134323D02*
X195851503Y-127229561D01*
X195851503Y-127229561D02*
X195946741Y-127324800D01*
X195946741Y-127324800D02*
X196089598Y-127372419D01*
X196089598Y-127372419D02*
X196184836Y-127372419D01*
X196184836Y-127372419D02*
X196327693Y-127324800D01*
X196327693Y-127324800D02*
X196375312Y-127277180D01*
X196375312Y-127277180D02*
X196375312Y-126943847D01*
X196375312Y-126943847D02*
X196184836Y-126943847D01*
X196803884Y-127372419D02*
X196803884Y-126372419D01*
X196803884Y-126372419D02*
X197375312Y-127372419D01*
X197375312Y-127372419D02*
X197375312Y-126372419D01*
X197851503Y-127372419D02*
X197851503Y-126372419D01*
X197851503Y-126372419D02*
X198089598Y-126372419D01*
X198089598Y-126372419D02*
X198232455Y-126420038D01*
X198232455Y-126420038D02*
X198327693Y-126515276D01*
X198327693Y-126515276D02*
X198375312Y-126610514D01*
X198375312Y-126610514D02*
X198422931Y-126800990D01*
X198422931Y-126800990D02*
X198422931Y-126943847D01*
X198422931Y-126943847D02*
X198375312Y-127134323D01*
X198375312Y-127134323D02*
X198327693Y-127229561D01*
X198327693Y-127229561D02*
X198232455Y-127324800D01*
X198232455Y-127324800D02*
X198089598Y-127372419D01*
X198089598Y-127372419D02*
X197851503Y-127372419D01*
X191208646Y-82872419D02*
X191827693Y-82872419D01*
X191827693Y-82872419D02*
X191494360Y-83253371D01*
X191494360Y-83253371D02*
X191637217Y-83253371D01*
X191637217Y-83253371D02*
X191732455Y-83300990D01*
X191732455Y-83300990D02*
X191780074Y-83348609D01*
X191780074Y-83348609D02*
X191827693Y-83443847D01*
X191827693Y-83443847D02*
X191827693Y-83681942D01*
X191827693Y-83681942D02*
X191780074Y-83777180D01*
X191780074Y-83777180D02*
X191732455Y-83824800D01*
X191732455Y-83824800D02*
X191637217Y-83872419D01*
X191637217Y-83872419D02*
X191351503Y-83872419D01*
X191351503Y-83872419D02*
X191256265Y-83824800D01*
X191256265Y-83824800D02*
X191208646Y-83777180D01*
X109006265Y-80467657D02*
X109053884Y-80420038D01*
X109053884Y-80420038D02*
X109149122Y-80372419D01*
X109149122Y-80372419D02*
X109387217Y-80372419D01*
X109387217Y-80372419D02*
X109482455Y-80420038D01*
X109482455Y-80420038D02*
X109530074Y-80467657D01*
X109530074Y-80467657D02*
X109577693Y-80562895D01*
X109577693Y-80562895D02*
X109577693Y-80658133D01*
X109577693Y-80658133D02*
X109530074Y-80800990D01*
X109530074Y-80800990D02*
X108958646Y-81372419D01*
X108958646Y-81372419D02*
X109577693Y-81372419D01*
X108256265Y-113467657D02*
X108303884Y-113420038D01*
X108303884Y-113420038D02*
X108399122Y-113372419D01*
X108399122Y-113372419D02*
X108637217Y-113372419D01*
X108637217Y-113372419D02*
X108732455Y-113420038D01*
X108732455Y-113420038D02*
X108780074Y-113467657D01*
X108780074Y-113467657D02*
X108827693Y-113562895D01*
X108827693Y-113562895D02*
X108827693Y-113658133D01*
X108827693Y-113658133D02*
X108780074Y-113800990D01*
X108780074Y-113800990D02*
X108208646Y-114372419D01*
X108208646Y-114372419D02*
X108827693Y-114372419D01*
X109161027Y-113372419D02*
X109827693Y-113372419D01*
X109827693Y-113372419D02*
X109399122Y-114372419D01*
X100506265Y-108467657D02*
X100553884Y-108420038D01*
X100553884Y-108420038D02*
X100649122Y-108372419D01*
X100649122Y-108372419D02*
X100887217Y-108372419D01*
X100887217Y-108372419D02*
X100982455Y-108420038D01*
X100982455Y-108420038D02*
X101030074Y-108467657D01*
X101030074Y-108467657D02*
X101077693Y-108562895D01*
X101077693Y-108562895D02*
X101077693Y-108658133D01*
X101077693Y-108658133D02*
X101030074Y-108800990D01*
X101030074Y-108800990D02*
X100458646Y-109372419D01*
X100458646Y-109372419D02*
X101077693Y-109372419D01*
X101458646Y-108467657D02*
X101506265Y-108420038D01*
X101506265Y-108420038D02*
X101601503Y-108372419D01*
X101601503Y-108372419D02*
X101839598Y-108372419D01*
X101839598Y-108372419D02*
X101934836Y-108420038D01*
X101934836Y-108420038D02*
X101982455Y-108467657D01*
X101982455Y-108467657D02*
X102030074Y-108562895D01*
X102030074Y-108562895D02*
X102030074Y-108658133D01*
X102030074Y-108658133D02*
X101982455Y-108800990D01*
X101982455Y-108800990D02*
X101411027Y-109372419D01*
X101411027Y-109372419D02*
X102030074Y-109372419D01*
X108958646Y-82872419D02*
X109577693Y-82872419D01*
X109577693Y-82872419D02*
X109244360Y-83253371D01*
X109244360Y-83253371D02*
X109387217Y-83253371D01*
X109387217Y-83253371D02*
X109482455Y-83300990D01*
X109482455Y-83300990D02*
X109530074Y-83348609D01*
X109530074Y-83348609D02*
X109577693Y-83443847D01*
X109577693Y-83443847D02*
X109577693Y-83681942D01*
X109577693Y-83681942D02*
X109530074Y-83777180D01*
X109530074Y-83777180D02*
X109482455Y-83824800D01*
X109482455Y-83824800D02*
X109387217Y-83872419D01*
X109387217Y-83872419D02*
X109101503Y-83872419D01*
X109101503Y-83872419D02*
X109006265Y-83824800D01*
X109006265Y-83824800D02*
X108958646Y-83777180D01*
X193280074Y-126372419D02*
X192803884Y-126372419D01*
X192803884Y-126372419D02*
X192756265Y-126848609D01*
X192756265Y-126848609D02*
X192803884Y-126800990D01*
X192803884Y-126800990D02*
X192899122Y-126753371D01*
X192899122Y-126753371D02*
X193137217Y-126753371D01*
X193137217Y-126753371D02*
X193232455Y-126800990D01*
X193232455Y-126800990D02*
X193280074Y-126848609D01*
X193280074Y-126848609D02*
X193327693Y-126943847D01*
X193327693Y-126943847D02*
X193327693Y-127181942D01*
X193327693Y-127181942D02*
X193280074Y-127277180D01*
X193280074Y-127277180D02*
X193232455Y-127324800D01*
X193232455Y-127324800D02*
X193137217Y-127372419D01*
X193137217Y-127372419D02*
X192899122Y-127372419D01*
X192899122Y-127372419D02*
X192803884Y-127324800D01*
X192803884Y-127324800D02*
X192756265Y-127277180D01*
X193613408Y-126372419D02*
X193946741Y-127372419D01*
X193946741Y-127372419D02*
X194280074Y-126372419D01*
X106338972Y-72872419D02*
X105862782Y-72872419D01*
X105862782Y-72872419D02*
X105815163Y-73348609D01*
X105815163Y-73348609D02*
X105862782Y-73300990D01*
X105862782Y-73300990D02*
X105958020Y-73253371D01*
X105958020Y-73253371D02*
X106196115Y-73253371D01*
X106196115Y-73253371D02*
X106291353Y-73300990D01*
X106291353Y-73300990D02*
X106338972Y-73348609D01*
X106338972Y-73348609D02*
X106386591Y-73443847D01*
X106386591Y-73443847D02*
X106386591Y-73681942D01*
X106386591Y-73681942D02*
X106338972Y-73777180D01*
X106338972Y-73777180D02*
X106291353Y-73824800D01*
X106291353Y-73824800D02*
X106196115Y-73872419D01*
X106196115Y-73872419D02*
X105958020Y-73872419D01*
X105958020Y-73872419D02*
X105862782Y-73824800D01*
X105862782Y-73824800D02*
X105815163Y-73777180D01*
X106672306Y-72872419D02*
X107005639Y-73872419D01*
X107005639Y-73872419D02*
X107338972Y-72872419D01*
X101077693Y-96622419D02*
X100506265Y-96622419D01*
X100791979Y-96622419D02*
X100791979Y-95622419D01*
X100791979Y-95622419D02*
X100696741Y-95765276D01*
X100696741Y-95765276D02*
X100601503Y-95860514D01*
X100601503Y-95860514D02*
X100506265Y-95908133D01*
X101458646Y-95717657D02*
X101506265Y-95670038D01*
X101506265Y-95670038D02*
X101601503Y-95622419D01*
X101601503Y-95622419D02*
X101839598Y-95622419D01*
X101839598Y-95622419D02*
X101934836Y-95670038D01*
X101934836Y-95670038D02*
X101982455Y-95717657D01*
X101982455Y-95717657D02*
X102030074Y-95812895D01*
X102030074Y-95812895D02*
X102030074Y-95908133D01*
X102030074Y-95908133D02*
X101982455Y-96050990D01*
X101982455Y-96050990D02*
X101411027Y-96622419D01*
X101411027Y-96622419D02*
X102030074Y-96622419D01*
X100506265Y-105967657D02*
X100553884Y-105920038D01*
X100553884Y-105920038D02*
X100649122Y-105872419D01*
X100649122Y-105872419D02*
X100887217Y-105872419D01*
X100887217Y-105872419D02*
X100982455Y-105920038D01*
X100982455Y-105920038D02*
X101030074Y-105967657D01*
X101030074Y-105967657D02*
X101077693Y-106062895D01*
X101077693Y-106062895D02*
X101077693Y-106158133D01*
X101077693Y-106158133D02*
X101030074Y-106300990D01*
X101030074Y-106300990D02*
X100458646Y-106872419D01*
X100458646Y-106872419D02*
X101077693Y-106872419D01*
X101696741Y-105872419D02*
X101791979Y-105872419D01*
X101791979Y-105872419D02*
X101887217Y-105920038D01*
X101887217Y-105920038D02*
X101934836Y-105967657D01*
X101934836Y-105967657D02*
X101982455Y-106062895D01*
X101982455Y-106062895D02*
X102030074Y-106253371D01*
X102030074Y-106253371D02*
X102030074Y-106491466D01*
X102030074Y-106491466D02*
X101982455Y-106681942D01*
X101982455Y-106681942D02*
X101934836Y-106777180D01*
X101934836Y-106777180D02*
X101887217Y-106824800D01*
X101887217Y-106824800D02*
X101791979Y-106872419D01*
X101791979Y-106872419D02*
X101696741Y-106872419D01*
X101696741Y-106872419D02*
X101601503Y-106824800D01*
X101601503Y-106824800D02*
X101553884Y-106777180D01*
X101553884Y-106777180D02*
X101506265Y-106681942D01*
X101506265Y-106681942D02*
X101458646Y-106491466D01*
X101458646Y-106491466D02*
X101458646Y-106253371D01*
X101458646Y-106253371D02*
X101506265Y-106062895D01*
X101506265Y-106062895D02*
X101553884Y-105967657D01*
X101553884Y-105967657D02*
X101601503Y-105920038D01*
X101601503Y-105920038D02*
X101696741Y-105872419D01*
X108208646Y-121122419D02*
X108827693Y-121122419D01*
X108827693Y-121122419D02*
X108494360Y-121503371D01*
X108494360Y-121503371D02*
X108637217Y-121503371D01*
X108637217Y-121503371D02*
X108732455Y-121550990D01*
X108732455Y-121550990D02*
X108780074Y-121598609D01*
X108780074Y-121598609D02*
X108827693Y-121693847D01*
X108827693Y-121693847D02*
X108827693Y-121931942D01*
X108827693Y-121931942D02*
X108780074Y-122027180D01*
X108780074Y-122027180D02*
X108732455Y-122074800D01*
X108732455Y-122074800D02*
X108637217Y-122122419D01*
X108637217Y-122122419D02*
X108351503Y-122122419D01*
X108351503Y-122122419D02*
X108256265Y-122074800D01*
X108256265Y-122074800D02*
X108208646Y-122027180D01*
X109446741Y-121122419D02*
X109541979Y-121122419D01*
X109541979Y-121122419D02*
X109637217Y-121170038D01*
X109637217Y-121170038D02*
X109684836Y-121217657D01*
X109684836Y-121217657D02*
X109732455Y-121312895D01*
X109732455Y-121312895D02*
X109780074Y-121503371D01*
X109780074Y-121503371D02*
X109780074Y-121741466D01*
X109780074Y-121741466D02*
X109732455Y-121931942D01*
X109732455Y-121931942D02*
X109684836Y-122027180D01*
X109684836Y-122027180D02*
X109637217Y-122074800D01*
X109637217Y-122074800D02*
X109541979Y-122122419D01*
X109541979Y-122122419D02*
X109446741Y-122122419D01*
X109446741Y-122122419D02*
X109351503Y-122074800D01*
X109351503Y-122074800D02*
X109303884Y-122027180D01*
X109303884Y-122027180D02*
X109256265Y-121931942D01*
X109256265Y-121931942D02*
X109208646Y-121741466D01*
X109208646Y-121741466D02*
X109208646Y-121503371D01*
X109208646Y-121503371D02*
X109256265Y-121312895D01*
X109256265Y-121312895D02*
X109303884Y-121217657D01*
X109303884Y-121217657D02*
X109351503Y-121170038D01*
X109351503Y-121170038D02*
X109446741Y-121122419D01*
X190458646Y-121122419D02*
X191077693Y-121122419D01*
X191077693Y-121122419D02*
X190744360Y-121503371D01*
X190744360Y-121503371D02*
X190887217Y-121503371D01*
X190887217Y-121503371D02*
X190982455Y-121550990D01*
X190982455Y-121550990D02*
X191030074Y-121598609D01*
X191030074Y-121598609D02*
X191077693Y-121693847D01*
X191077693Y-121693847D02*
X191077693Y-121931942D01*
X191077693Y-121931942D02*
X191030074Y-122027180D01*
X191030074Y-122027180D02*
X190982455Y-122074800D01*
X190982455Y-122074800D02*
X190887217Y-122122419D01*
X190887217Y-122122419D02*
X190601503Y-122122419D01*
X190601503Y-122122419D02*
X190506265Y-122074800D01*
X190506265Y-122074800D02*
X190458646Y-122027180D01*
X191696741Y-121122419D02*
X191791979Y-121122419D01*
X191791979Y-121122419D02*
X191887217Y-121170038D01*
X191887217Y-121170038D02*
X191934836Y-121217657D01*
X191934836Y-121217657D02*
X191982455Y-121312895D01*
X191982455Y-121312895D02*
X192030074Y-121503371D01*
X192030074Y-121503371D02*
X192030074Y-121741466D01*
X192030074Y-121741466D02*
X191982455Y-121931942D01*
X191982455Y-121931942D02*
X191934836Y-122027180D01*
X191934836Y-122027180D02*
X191887217Y-122074800D01*
X191887217Y-122074800D02*
X191791979Y-122122419D01*
X191791979Y-122122419D02*
X191696741Y-122122419D01*
X191696741Y-122122419D02*
X191601503Y-122074800D01*
X191601503Y-122074800D02*
X191553884Y-122027180D01*
X191553884Y-122027180D02*
X191506265Y-121931942D01*
X191506265Y-121931942D02*
X191458646Y-121741466D01*
X191458646Y-121741466D02*
X191458646Y-121503371D01*
X191458646Y-121503371D02*
X191506265Y-121312895D01*
X191506265Y-121312895D02*
X191553884Y-121217657D01*
X191553884Y-121217657D02*
X191601503Y-121170038D01*
X191601503Y-121170038D02*
X191696741Y-121122419D01*
X108827693Y-96622419D02*
X108256265Y-96622419D01*
X108541979Y-96622419D02*
X108541979Y-95622419D01*
X108541979Y-95622419D02*
X108446741Y-95765276D01*
X108446741Y-95765276D02*
X108351503Y-95860514D01*
X108351503Y-95860514D02*
X108256265Y-95908133D01*
X109161027Y-95622419D02*
X109780074Y-95622419D01*
X109780074Y-95622419D02*
X109446741Y-96003371D01*
X109446741Y-96003371D02*
X109589598Y-96003371D01*
X109589598Y-96003371D02*
X109684836Y-96050990D01*
X109684836Y-96050990D02*
X109732455Y-96098609D01*
X109732455Y-96098609D02*
X109780074Y-96193847D01*
X109780074Y-96193847D02*
X109780074Y-96431942D01*
X109780074Y-96431942D02*
X109732455Y-96527180D01*
X109732455Y-96527180D02*
X109684836Y-96574800D01*
X109684836Y-96574800D02*
X109589598Y-96622419D01*
X109589598Y-96622419D02*
X109303884Y-96622419D01*
X109303884Y-96622419D02*
X109208646Y-96574800D01*
X109208646Y-96574800D02*
X109161027Y-96527180D01*
X191256265Y-80467657D02*
X191303884Y-80420038D01*
X191303884Y-80420038D02*
X191399122Y-80372419D01*
X191399122Y-80372419D02*
X191637217Y-80372419D01*
X191637217Y-80372419D02*
X191732455Y-80420038D01*
X191732455Y-80420038D02*
X191780074Y-80467657D01*
X191780074Y-80467657D02*
X191827693Y-80562895D01*
X191827693Y-80562895D02*
X191827693Y-80658133D01*
X191827693Y-80658133D02*
X191780074Y-80800990D01*
X191780074Y-80800990D02*
X191208646Y-81372419D01*
X191208646Y-81372419D02*
X191827693Y-81372419D01*
X108958646Y-87872419D02*
X109625312Y-87872419D01*
X109625312Y-87872419D02*
X109196741Y-88872419D01*
X101077693Y-101872419D02*
X100506265Y-101872419D01*
X100791979Y-101872419D02*
X100791979Y-100872419D01*
X100791979Y-100872419D02*
X100696741Y-101015276D01*
X100696741Y-101015276D02*
X100601503Y-101110514D01*
X100601503Y-101110514D02*
X100506265Y-101158133D01*
X101934836Y-100872419D02*
X101744360Y-100872419D01*
X101744360Y-100872419D02*
X101649122Y-100920038D01*
X101649122Y-100920038D02*
X101601503Y-100967657D01*
X101601503Y-100967657D02*
X101506265Y-101110514D01*
X101506265Y-101110514D02*
X101458646Y-101300990D01*
X101458646Y-101300990D02*
X101458646Y-101681942D01*
X101458646Y-101681942D02*
X101506265Y-101777180D01*
X101506265Y-101777180D02*
X101553884Y-101824800D01*
X101553884Y-101824800D02*
X101649122Y-101872419D01*
X101649122Y-101872419D02*
X101839598Y-101872419D01*
X101839598Y-101872419D02*
X101934836Y-101824800D01*
X101934836Y-101824800D02*
X101982455Y-101777180D01*
X101982455Y-101777180D02*
X102030074Y-101681942D01*
X102030074Y-101681942D02*
X102030074Y-101443847D01*
X102030074Y-101443847D02*
X101982455Y-101348609D01*
X101982455Y-101348609D02*
X101934836Y-101300990D01*
X101934836Y-101300990D02*
X101839598Y-101253371D01*
X101839598Y-101253371D02*
X101649122Y-101253371D01*
X101649122Y-101253371D02*
X101553884Y-101300990D01*
X101553884Y-101300990D02*
X101506265Y-101348609D01*
X101506265Y-101348609D02*
X101458646Y-101443847D01*
X101077693Y-104372419D02*
X100506265Y-104372419D01*
X100791979Y-104372419D02*
X100791979Y-103372419D01*
X100791979Y-103372419D02*
X100696741Y-103515276D01*
X100696741Y-103515276D02*
X100601503Y-103610514D01*
X100601503Y-103610514D02*
X100506265Y-103658133D01*
X101649122Y-103800990D02*
X101553884Y-103753371D01*
X101553884Y-103753371D02*
X101506265Y-103705752D01*
X101506265Y-103705752D02*
X101458646Y-103610514D01*
X101458646Y-103610514D02*
X101458646Y-103562895D01*
X101458646Y-103562895D02*
X101506265Y-103467657D01*
X101506265Y-103467657D02*
X101553884Y-103420038D01*
X101553884Y-103420038D02*
X101649122Y-103372419D01*
X101649122Y-103372419D02*
X101839598Y-103372419D01*
X101839598Y-103372419D02*
X101934836Y-103420038D01*
X101934836Y-103420038D02*
X101982455Y-103467657D01*
X101982455Y-103467657D02*
X102030074Y-103562895D01*
X102030074Y-103562895D02*
X102030074Y-103610514D01*
X102030074Y-103610514D02*
X101982455Y-103705752D01*
X101982455Y-103705752D02*
X101934836Y-103753371D01*
X101934836Y-103753371D02*
X101839598Y-103800990D01*
X101839598Y-103800990D02*
X101649122Y-103800990D01*
X101649122Y-103800990D02*
X101553884Y-103848609D01*
X101553884Y-103848609D02*
X101506265Y-103896228D01*
X101506265Y-103896228D02*
X101458646Y-103991466D01*
X101458646Y-103991466D02*
X101458646Y-104181942D01*
X101458646Y-104181942D02*
X101506265Y-104277180D01*
X101506265Y-104277180D02*
X101553884Y-104324800D01*
X101553884Y-104324800D02*
X101649122Y-104372419D01*
X101649122Y-104372419D02*
X101839598Y-104372419D01*
X101839598Y-104372419D02*
X101934836Y-104324800D01*
X101934836Y-104324800D02*
X101982455Y-104277180D01*
X101982455Y-104277180D02*
X102030074Y-104181942D01*
X102030074Y-104181942D02*
X102030074Y-103991466D01*
X102030074Y-103991466D02*
X101982455Y-103896228D01*
X101982455Y-103896228D02*
X101934836Y-103848609D01*
X101934836Y-103848609D02*
X101839598Y-103800990D01*
X191351503Y-91372419D02*
X191541979Y-91372419D01*
X191541979Y-91372419D02*
X191637217Y-91324800D01*
X191637217Y-91324800D02*
X191684836Y-91277180D01*
X191684836Y-91277180D02*
X191780074Y-91134323D01*
X191780074Y-91134323D02*
X191827693Y-90943847D01*
X191827693Y-90943847D02*
X191827693Y-90562895D01*
X191827693Y-90562895D02*
X191780074Y-90467657D01*
X191780074Y-90467657D02*
X191732455Y-90420038D01*
X191732455Y-90420038D02*
X191637217Y-90372419D01*
X191637217Y-90372419D02*
X191446741Y-90372419D01*
X191446741Y-90372419D02*
X191351503Y-90420038D01*
X191351503Y-90420038D02*
X191303884Y-90467657D01*
X191303884Y-90467657D02*
X191256265Y-90562895D01*
X191256265Y-90562895D02*
X191256265Y-90800990D01*
X191256265Y-90800990D02*
X191303884Y-90896228D01*
X191303884Y-90896228D02*
X191351503Y-90943847D01*
X191351503Y-90943847D02*
X191446741Y-90991466D01*
X191446741Y-90991466D02*
X191637217Y-90991466D01*
X191637217Y-90991466D02*
X191732455Y-90943847D01*
X191732455Y-90943847D02*
X191780074Y-90896228D01*
X191780074Y-90896228D02*
X191827693Y-90800990D01*
X191077693Y-96622419D02*
X190506265Y-96622419D01*
X190791979Y-96622419D02*
X190791979Y-95622419D01*
X190791979Y-95622419D02*
X190696741Y-95765276D01*
X190696741Y-95765276D02*
X190601503Y-95860514D01*
X190601503Y-95860514D02*
X190506265Y-95908133D01*
X191411027Y-95622419D02*
X192030074Y-95622419D01*
X192030074Y-95622419D02*
X191696741Y-96003371D01*
X191696741Y-96003371D02*
X191839598Y-96003371D01*
X191839598Y-96003371D02*
X191934836Y-96050990D01*
X191934836Y-96050990D02*
X191982455Y-96098609D01*
X191982455Y-96098609D02*
X192030074Y-96193847D01*
X192030074Y-96193847D02*
X192030074Y-96431942D01*
X192030074Y-96431942D02*
X191982455Y-96527180D01*
X191982455Y-96527180D02*
X191934836Y-96574800D01*
X191934836Y-96574800D02*
X191839598Y-96622419D01*
X191839598Y-96622419D02*
X191553884Y-96622419D01*
X191553884Y-96622419D02*
X191458646Y-96574800D01*
X191458646Y-96574800D02*
X191411027Y-96527180D01*
X100696741Y-91050990D02*
X100601503Y-91003371D01*
X100601503Y-91003371D02*
X100553884Y-90955752D01*
X100553884Y-90955752D02*
X100506265Y-90860514D01*
X100506265Y-90860514D02*
X100506265Y-90812895D01*
X100506265Y-90812895D02*
X100553884Y-90717657D01*
X100553884Y-90717657D02*
X100601503Y-90670038D01*
X100601503Y-90670038D02*
X100696741Y-90622419D01*
X100696741Y-90622419D02*
X100887217Y-90622419D01*
X100887217Y-90622419D02*
X100982455Y-90670038D01*
X100982455Y-90670038D02*
X101030074Y-90717657D01*
X101030074Y-90717657D02*
X101077693Y-90812895D01*
X101077693Y-90812895D02*
X101077693Y-90860514D01*
X101077693Y-90860514D02*
X101030074Y-90955752D01*
X101030074Y-90955752D02*
X100982455Y-91003371D01*
X100982455Y-91003371D02*
X100887217Y-91050990D01*
X100887217Y-91050990D02*
X100696741Y-91050990D01*
X100696741Y-91050990D02*
X100601503Y-91098609D01*
X100601503Y-91098609D02*
X100553884Y-91146228D01*
X100553884Y-91146228D02*
X100506265Y-91241466D01*
X100506265Y-91241466D02*
X100506265Y-91431942D01*
X100506265Y-91431942D02*
X100553884Y-91527180D01*
X100553884Y-91527180D02*
X100601503Y-91574800D01*
X100601503Y-91574800D02*
X100696741Y-91622419D01*
X100696741Y-91622419D02*
X100887217Y-91622419D01*
X100887217Y-91622419D02*
X100982455Y-91574800D01*
X100982455Y-91574800D02*
X101030074Y-91527180D01*
X101030074Y-91527180D02*
X101077693Y-91431942D01*
X101077693Y-91431942D02*
X101077693Y-91241466D01*
X101077693Y-91241466D02*
X101030074Y-91146228D01*
X101030074Y-91146228D02*
X100982455Y-91098609D01*
X100982455Y-91098609D02*
X100887217Y-91050990D01*
X198732455Y-88122419D02*
X198541979Y-88122419D01*
X198541979Y-88122419D02*
X198446741Y-88170038D01*
X198446741Y-88170038D02*
X198399122Y-88217657D01*
X198399122Y-88217657D02*
X198303884Y-88360514D01*
X198303884Y-88360514D02*
X198256265Y-88550990D01*
X198256265Y-88550990D02*
X198256265Y-88931942D01*
X198256265Y-88931942D02*
X198303884Y-89027180D01*
X198303884Y-89027180D02*
X198351503Y-89074800D01*
X198351503Y-89074800D02*
X198446741Y-89122419D01*
X198446741Y-89122419D02*
X198637217Y-89122419D01*
X198637217Y-89122419D02*
X198732455Y-89074800D01*
X198732455Y-89074800D02*
X198780074Y-89027180D01*
X198780074Y-89027180D02*
X198827693Y-88931942D01*
X198827693Y-88931942D02*
X198827693Y-88693847D01*
X198827693Y-88693847D02*
X198780074Y-88598609D01*
X198780074Y-88598609D02*
X198732455Y-88550990D01*
X198732455Y-88550990D02*
X198637217Y-88503371D01*
X198637217Y-88503371D02*
X198446741Y-88503371D01*
X198446741Y-88503371D02*
X198351503Y-88550990D01*
X198351503Y-88550990D02*
X198303884Y-88598609D01*
X198303884Y-88598609D02*
X198256265Y-88693847D01*
D11*
%TO.C,RN2*%
X127900000Y-55800000D02*
X127900000Y-56200000D01*
D10*
X128300000Y-57900000D02*
X128300000Y-57900000D01*
X128300000Y-58000000D02*
X128300000Y-58000000D01*
D11*
X131100000Y-55800000D02*
X131100000Y-56200000D01*
X131100000Y-56200000D02*
X131100000Y-56200000D01*
D10*
X128300000Y-57900000D02*
G75*
G02*
X128300000Y-58000000I0J-50000D01*
G01*
X128300000Y-58000000D02*
G75*
G02*
X128300000Y-57900000I0J50000D01*
G01*
D12*
%TO.C,D2*%
X117515000Y-50265000D02*
X117515000Y-52550000D01*
X118985000Y-50265000D02*
X117515000Y-50265000D01*
X118985000Y-52550000D02*
X118985000Y-50265000D01*
%TO.C,D5*%
X125015000Y-50265000D02*
X125015000Y-52550000D01*
X126485000Y-50265000D02*
X125015000Y-50265000D01*
X126485000Y-52550000D02*
X126485000Y-50265000D01*
%TO.C,D9*%
X135015000Y-50265000D02*
X135015000Y-52550000D01*
X136485000Y-50265000D02*
X135015000Y-50265000D01*
X136485000Y-52550000D02*
X136485000Y-50265000D01*
%TO.C,D7*%
X130015000Y-50265000D02*
X130015000Y-52550000D01*
X131485000Y-50265000D02*
X130015000Y-50265000D01*
X131485000Y-52550000D02*
X131485000Y-50265000D01*
%TO.C,C1*%
X191749759Y-66661000D02*
X192379759Y-66661000D01*
X192064759Y-66346000D02*
X192064759Y-66976000D01*
X195250000Y-65270000D02*
X195250000Y-71730000D01*
X195290000Y-65270000D02*
X195290000Y-71730000D01*
X195330000Y-65271000D02*
X195330000Y-71729000D01*
X195370000Y-65272000D02*
X195370000Y-71728000D01*
X195410000Y-65274000D02*
X195410000Y-71726000D01*
X195450000Y-65276000D02*
X195450000Y-71724000D01*
X195490000Y-65279000D02*
X195490000Y-67460000D01*
X195490000Y-69540000D02*
X195490000Y-71721000D01*
X195530000Y-65282000D02*
X195530000Y-67460000D01*
X195530000Y-69540000D02*
X195530000Y-71718000D01*
X195570000Y-65286000D02*
X195570000Y-67460000D01*
X195570000Y-69540000D02*
X195570000Y-71714000D01*
X195610000Y-65290000D02*
X195610000Y-67460000D01*
X195610000Y-69540000D02*
X195610000Y-71710000D01*
X195650000Y-65295000D02*
X195650000Y-67460000D01*
X195650000Y-69540000D02*
X195650000Y-71705000D01*
X195690000Y-65300000D02*
X195690000Y-67460000D01*
X195690000Y-69540000D02*
X195690000Y-71700000D01*
X195730000Y-65305000D02*
X195730000Y-67460000D01*
X195730000Y-69540000D02*
X195730000Y-71695000D01*
X195770000Y-65312000D02*
X195770000Y-67460000D01*
X195770000Y-69540000D02*
X195770000Y-71688000D01*
X195810000Y-65318000D02*
X195810000Y-67460000D01*
X195810000Y-69540000D02*
X195810000Y-71682000D01*
X195850000Y-65326000D02*
X195850000Y-67460000D01*
X195850000Y-69540000D02*
X195850000Y-71674000D01*
X195890000Y-65333000D02*
X195890000Y-67460000D01*
X195890000Y-69540000D02*
X195890000Y-71667000D01*
X195930000Y-65341000D02*
X195930000Y-67460000D01*
X195930000Y-69540000D02*
X195930000Y-71659000D01*
X195970000Y-65350000D02*
X195970000Y-67460000D01*
X195970000Y-69540000D02*
X195970000Y-71650000D01*
X196010000Y-65360000D02*
X196010000Y-67460000D01*
X196010000Y-69540000D02*
X196010000Y-71640000D01*
X196050000Y-65369000D02*
X196050000Y-67460000D01*
X196050000Y-69540000D02*
X196050000Y-71631000D01*
X196090000Y-65380000D02*
X196090000Y-67460000D01*
X196090000Y-69540000D02*
X196090000Y-71620000D01*
X196130000Y-65391000D02*
X196130000Y-67460000D01*
X196130000Y-69540000D02*
X196130000Y-71609000D01*
X196170000Y-65402000D02*
X196170000Y-67460000D01*
X196170000Y-69540000D02*
X196170000Y-71598000D01*
X196210000Y-65414000D02*
X196210000Y-67460000D01*
X196210000Y-69540000D02*
X196210000Y-71586000D01*
X196250000Y-65427000D02*
X196250000Y-67460000D01*
X196250000Y-69540000D02*
X196250000Y-71573000D01*
X196290000Y-65440000D02*
X196290000Y-67460000D01*
X196290000Y-69540000D02*
X196290000Y-71560000D01*
X196330000Y-65453000D02*
X196330000Y-67460000D01*
X196330000Y-69540000D02*
X196330000Y-71547000D01*
X196370000Y-65468000D02*
X196370000Y-67460000D01*
X196370000Y-69540000D02*
X196370000Y-71532000D01*
X196410000Y-65483000D02*
X196410000Y-67460000D01*
X196410000Y-69540000D02*
X196410000Y-71517000D01*
X196450000Y-65498000D02*
X196450000Y-67460000D01*
X196450000Y-69540000D02*
X196450000Y-71502000D01*
X196490000Y-65514000D02*
X196490000Y-67460000D01*
X196490000Y-69540000D02*
X196490000Y-71486000D01*
X196530000Y-65531000D02*
X196530000Y-67460000D01*
X196530000Y-69540000D02*
X196530000Y-71469000D01*
X196570000Y-65548000D02*
X196570000Y-67460000D01*
X196570000Y-69540000D02*
X196570000Y-71452000D01*
X196610000Y-65566000D02*
X196610000Y-67460000D01*
X196610000Y-69540000D02*
X196610000Y-71434000D01*
X196650000Y-65585000D02*
X196650000Y-67460000D01*
X196650000Y-69540000D02*
X196650000Y-71415000D01*
X196690000Y-65604000D02*
X196690000Y-67460000D01*
X196690000Y-69540000D02*
X196690000Y-71396000D01*
X196730000Y-65624000D02*
X196730000Y-67460000D01*
X196730000Y-69540000D02*
X196730000Y-71376000D01*
X196770000Y-65645000D02*
X196770000Y-67460000D01*
X196770000Y-69540000D02*
X196770000Y-71355000D01*
X196810000Y-65666000D02*
X196810000Y-67460000D01*
X196810000Y-69540000D02*
X196810000Y-71334000D01*
X196850000Y-65688000D02*
X196850000Y-67460000D01*
X196850000Y-69540000D02*
X196850000Y-71312000D01*
X196890000Y-65711000D02*
X196890000Y-67460000D01*
X196890000Y-69540000D02*
X196890000Y-71289000D01*
X196930000Y-65735000D02*
X196930000Y-67460000D01*
X196930000Y-69540000D02*
X196930000Y-71265000D01*
X196970000Y-65759000D02*
X196970000Y-67460000D01*
X196970000Y-69540000D02*
X196970000Y-71241000D01*
X197010000Y-65784000D02*
X197010000Y-67460000D01*
X197010000Y-69540000D02*
X197010000Y-71216000D01*
X197050000Y-65810000D02*
X197050000Y-67460000D01*
X197050000Y-69540000D02*
X197050000Y-71190000D01*
X197090000Y-65837000D02*
X197090000Y-67460000D01*
X197090000Y-69540000D02*
X197090000Y-71163000D01*
X197130000Y-65864000D02*
X197130000Y-67460000D01*
X197130000Y-69540000D02*
X197130000Y-71136000D01*
X197170000Y-65893000D02*
X197170000Y-67460000D01*
X197170000Y-69540000D02*
X197170000Y-71107000D01*
X197210000Y-65923000D02*
X197210000Y-67460000D01*
X197210000Y-69540000D02*
X197210000Y-71077000D01*
X197250000Y-65953000D02*
X197250000Y-67460000D01*
X197250000Y-69540000D02*
X197250000Y-71047000D01*
X197290000Y-65984000D02*
X197290000Y-67460000D01*
X197290000Y-69540000D02*
X197290000Y-71016000D01*
X197330000Y-66017000D02*
X197330000Y-67460000D01*
X197330000Y-69540000D02*
X197330000Y-70983000D01*
X197370000Y-66050000D02*
X197370000Y-67460000D01*
X197370000Y-69540000D02*
X197370000Y-70950000D01*
X197410000Y-66085000D02*
X197410000Y-67460000D01*
X197410000Y-69540000D02*
X197410000Y-70915000D01*
X197450000Y-66121000D02*
X197450000Y-67460000D01*
X197450000Y-69540000D02*
X197450000Y-70879000D01*
X197490000Y-66158000D02*
X197490000Y-67460000D01*
X197490000Y-69540000D02*
X197490000Y-70842000D01*
X197530000Y-66196000D02*
X197530000Y-67460000D01*
X197530000Y-69540000D02*
X197530000Y-70804000D01*
X197570000Y-66236000D02*
X197570000Y-70764000D01*
X197610000Y-66277000D02*
X197610000Y-70723000D01*
X197650000Y-66319000D02*
X197650000Y-70681000D01*
X197690000Y-66363000D02*
X197690000Y-70637000D01*
X197730000Y-66409000D02*
X197730000Y-70591000D01*
X197770000Y-66456000D02*
X197770000Y-70544000D01*
X197810000Y-66505000D02*
X197810000Y-70495000D01*
X197850000Y-66557000D02*
X197850000Y-70443000D01*
X197890000Y-66610000D02*
X197890000Y-70390000D01*
X197930000Y-66666000D02*
X197930000Y-70334000D01*
X197970000Y-66725000D02*
X197970000Y-70275000D01*
X198010000Y-66786000D02*
X198010000Y-70214000D01*
X198050000Y-66851000D02*
X198050000Y-70149000D01*
X198090000Y-66919000D02*
X198090000Y-70081000D01*
X198130000Y-66991000D02*
X198130000Y-70009000D01*
X198170000Y-67068000D02*
X198170000Y-69932000D01*
X198210000Y-67150000D02*
X198210000Y-69850000D01*
X198250000Y-67239000D02*
X198250000Y-69761000D01*
X198290000Y-67335000D02*
X198290000Y-69665000D01*
X198330000Y-67442000D02*
X198330000Y-69558000D01*
X198370000Y-67561000D02*
X198370000Y-69439000D01*
X198410000Y-67699000D02*
X198410000Y-69301000D01*
X198450000Y-67867000D02*
X198450000Y-69133000D01*
X198490000Y-68098000D02*
X198490000Y-68902000D01*
X198520000Y-68500000D02*
G75*
G02*
X191980000Y-68500000I-3270000J0D01*
G01*
X191980000Y-68500000D02*
G75*
G02*
X198520000Y-68500000I3270000J0D01*
G01*
%TO.C,J11*%
X196350000Y-129430000D02*
X194650000Y-129430000D01*
X196350000Y-138770000D02*
X194650000Y-138770000D01*
%TO.C,D1*%
X115015000Y-50265000D02*
X115015000Y-52550000D01*
X116485000Y-50265000D02*
X115015000Y-50265000D01*
X116485000Y-52550000D02*
X116485000Y-50265000D01*
%TO.C,D3*%
X120015000Y-50265000D02*
X120015000Y-52550000D01*
X121485000Y-50265000D02*
X120015000Y-50265000D01*
X121485000Y-52550000D02*
X121485000Y-50265000D01*
%TO.C,J5*%
X192330000Y-74510000D02*
X193710000Y-74510000D01*
X192330000Y-75890000D02*
X192330000Y-74510000D01*
X192330000Y-77160000D02*
X192330000Y-125530000D01*
X192330000Y-77160000D02*
X194980000Y-77160000D01*
X192330000Y-125530000D02*
X197630000Y-125530000D01*
X194980000Y-74510000D02*
X197630000Y-74510000D01*
X194980000Y-77160000D02*
X194980000Y-74510000D01*
X197630000Y-74510000D02*
X197630000Y-125530000D01*
%TO.C,D4*%
X122515000Y-50265000D02*
X122515000Y-52550000D01*
X123985000Y-50265000D02*
X122515000Y-50265000D01*
X123985000Y-52550000D02*
X123985000Y-50265000D01*
%TO.C,J10*%
X144870000Y-54380000D02*
X144870000Y-53000000D01*
X146250000Y-54380000D02*
X144870000Y-54380000D01*
X147520000Y-51620000D02*
X185730000Y-51620000D01*
X147520000Y-54380000D02*
X147520000Y-51620000D01*
X147520000Y-54380000D02*
X185730000Y-54380000D01*
X185730000Y-54380000D02*
X185730000Y-51620000D01*
%TO.C,D11*%
X140015000Y-50265000D02*
X140015000Y-52550000D01*
X141485000Y-50265000D02*
X140015000Y-50265000D01*
X141485000Y-52550000D02*
X141485000Y-50265000D01*
%TO.C,D10*%
X137515000Y-50265000D02*
X137515000Y-52550000D01*
X138985000Y-50265000D02*
X137515000Y-50265000D01*
X138985000Y-52550000D02*
X138985000Y-50265000D01*
%TO.C,D8*%
X132515000Y-50265000D02*
X132515000Y-52550000D01*
X133985000Y-50265000D02*
X132515000Y-50265000D01*
X133985000Y-52550000D02*
X133985000Y-50265000D01*
%TO.C,D12*%
X142515000Y-50265000D02*
X142515000Y-52550000D01*
X143985000Y-50265000D02*
X142515000Y-50265000D01*
X143985000Y-52550000D02*
X143985000Y-50265000D01*
%TO.C,J8*%
X102345000Y-74495000D02*
X103725000Y-74495000D01*
X102345000Y-75875000D02*
X102345000Y-74495000D01*
X102345000Y-77145000D02*
X102345000Y-125515000D01*
X102345000Y-77145000D02*
X104995000Y-77145000D01*
X102345000Y-125515000D02*
X107645000Y-125515000D01*
X104995000Y-74495000D02*
X107645000Y-74495000D01*
X104995000Y-77145000D02*
X104995000Y-74495000D01*
X107645000Y-74495000D02*
X107645000Y-125515000D01*
%TO.C,D6*%
X127515000Y-50265000D02*
X127515000Y-52550000D01*
X128985000Y-50265000D02*
X127515000Y-50265000D01*
X128985000Y-52550000D02*
X128985000Y-50265000D01*
D11*
%TO.C,RN3*%
X137900000Y-55800000D02*
X137900000Y-56200000D01*
D10*
X138300000Y-57900000D02*
X138300000Y-57900000D01*
X138300000Y-58000000D02*
X138300000Y-58000000D01*
D11*
X141100000Y-55800000D02*
X141100000Y-56200000D01*
X141100000Y-56200000D02*
X141100000Y-56200000D01*
D10*
X138300000Y-57900000D02*
G75*
G02*
X138300000Y-58000000I0J-50000D01*
G01*
X138300000Y-58000000D02*
G75*
G02*
X138300000Y-57900000I0J50000D01*
G01*
D11*
%TO.C,RN1*%
X117900000Y-55800000D02*
X117900000Y-56200000D01*
D10*
X118300000Y-57900000D02*
X118300000Y-57900000D01*
X118300000Y-58000000D02*
X118300000Y-58000000D01*
D11*
X121100000Y-55800000D02*
X121100000Y-56200000D01*
X121100000Y-56200000D02*
X121100000Y-56200000D01*
D10*
X118300000Y-57900000D02*
G75*
G02*
X118300000Y-58000000I0J-50000D01*
G01*
X118300000Y-58000000D02*
G75*
G02*
X118300000Y-57900000I0J50000D01*
G01*
%TD*%
M02*
