M48
; DRILL file {KiCad 9.0.5} date 2025-10-08T18:58:15+0900
; FORMAT={-:-/ absolute / metric / decimal}
; #@! TF.CreationDate,2025-10-08T18:58:15+09:00
; #@! TF.GenerationSoftware,Kicad,Pcbnew,9.0.5
; #@! TF.FileFunction,Plated,1,2,PTH
FMAT,2
METRIC
; #@! TA.AperFunction,Plated,PTH,ViaDrill
T1C0.300
; #@! TA.AperFunction,Plated,PTH,ComponentDrill
T2C0.600
; #@! TA.AperFunction,Plated,PTH,ComponentDrill
T3C0.800
; #@! TA.AperFunction,Plated,PTH,ComponentDrill
T4C1.000
; #@! TA.AperFunction,Plated,PTH,ComponentDrill
T5C3.200
%
G90
G05
T1
X111.0Y-56.0
X111.0Y-57.0
X111.0Y-143.0
X111.0Y-144.0
X125.0Y-56.0
X135.0Y-56.0
X147.0Y-56.0
X147.0Y-57.0
X150.0Y-56.0
X150.0Y-57.0
X150.0Y-143.0
X150.0Y-144.0
X152.0Y-56.0
X152.0Y-57.0
X155.0Y-56.0
X155.0Y-57.0
X157.0Y-56.0
X157.0Y-57.0
X160.0Y-56.0
X160.0Y-57.0
X162.0Y-56.0
X162.0Y-57.0
X165.0Y-56.0
X165.0Y-57.0
X168.0Y-56.0
X168.0Y-57.0
X170.0Y-56.0
X170.0Y-57.0
X173.0Y-56.0
X173.0Y-57.0
X176.0Y-56.0
X176.0Y-57.0
X178.0Y-56.0
X178.0Y-57.0
X181.0Y-56.0
X181.0Y-57.0
X183.0Y-56.0
X183.0Y-57.0
X189.0Y-56.0
X189.0Y-57.0
X189.0Y-143.0
X189.0Y-144.0
X195.175Y-133.25
X195.175Y-134.75
T3
X194.0Y-68.5
X196.5Y-68.5
T4
X103.725Y-75.875
X103.725Y-78.415
X103.725Y-80.955
X103.725Y-83.495
X103.725Y-86.035
X103.725Y-88.575
X103.725Y-91.115
X103.725Y-93.655
X103.725Y-96.195
X103.725Y-98.735
X103.725Y-101.275
X103.725Y-103.815
X103.725Y-106.355
X103.725Y-108.895
X103.725Y-111.435
X103.725Y-113.975
X103.725Y-116.515
X103.725Y-119.055
X103.725Y-121.595
X103.725Y-124.135
X106.265Y-75.875
X106.265Y-78.415
X106.265Y-80.955
X106.265Y-83.495
X106.265Y-86.035
X106.265Y-88.575
X106.265Y-91.115
X106.265Y-93.655
X106.265Y-96.195
X106.265Y-98.735
X106.265Y-101.275
X106.265Y-103.815
X106.265Y-106.355
X106.265Y-108.895
X106.265Y-111.435
X106.265Y-113.975
X106.265Y-116.515
X106.265Y-119.055
X106.265Y-121.595
X106.265Y-124.135
X115.69Y-63.15
X115.69Y-65.69
X115.69Y-68.23
X115.69Y-70.77
X115.69Y-73.31
X115.69Y-75.85
X115.69Y-78.39
X115.69Y-80.93
X115.69Y-83.47
X115.69Y-86.01
X115.69Y-88.55
X115.69Y-91.09
X115.69Y-93.63
X115.69Y-96.17
X115.69Y-98.71
X115.69Y-101.25
X115.69Y-103.79
X115.69Y-106.33
X115.69Y-108.87
X115.69Y-111.41
X115.69Y-113.95
X115.69Y-116.49
X115.69Y-119.03
X115.69Y-121.57
X115.69Y-124.11
X115.69Y-126.65
X115.69Y-129.19
X115.69Y-131.73
X115.69Y-134.27
X115.69Y-136.81
X118.23Y-63.15
X118.23Y-65.69
X118.23Y-68.23
X118.23Y-70.77
X118.23Y-73.31
X118.23Y-75.85
X118.23Y-78.39
X118.23Y-80.93
X118.23Y-83.47
X118.23Y-86.01
X118.23Y-88.55
X118.23Y-91.09
X118.23Y-93.63
X118.23Y-96.17
X118.23Y-98.71
X118.23Y-101.25
X118.23Y-103.79
X118.23Y-106.33
X118.23Y-108.87
X118.23Y-111.41
X118.23Y-113.95
X118.23Y-116.49
X118.23Y-119.03
X118.23Y-121.57
X118.23Y-124.11
X118.23Y-126.65
X118.23Y-129.19
X118.23Y-131.73
X118.23Y-134.27
X118.23Y-136.81
X120.77Y-63.15
X120.77Y-65.69
X120.77Y-68.23
X120.77Y-70.77
X120.77Y-73.31
X120.77Y-75.85
X120.77Y-78.39
X120.77Y-80.93
X120.77Y-83.47
X120.77Y-86.01
X120.77Y-88.55
X120.77Y-91.09
X120.77Y-93.63
X120.77Y-96.17
X120.77Y-98.71
X120.77Y-101.25
X120.77Y-103.79
X120.77Y-106.33
X120.77Y-108.87
X120.77Y-111.41
X120.77Y-113.95
X120.77Y-116.49
X120.77Y-119.03
X120.77Y-121.57
X120.77Y-124.11
X120.77Y-126.65
X120.77Y-129.19
X120.77Y-131.73
X120.77Y-134.27
X120.77Y-136.81
X123.31Y-63.15
X123.31Y-65.69
X123.31Y-68.23
X123.31Y-70.77
X123.31Y-73.31
X123.31Y-75.85
X123.31Y-78.39
X123.31Y-80.93
X123.31Y-83.47
X123.31Y-86.01
X123.31Y-88.55
X123.31Y-91.09
X123.31Y-93.63
X123.31Y-96.17
X123.31Y-98.71
X123.31Y-101.25
X123.31Y-103.79
X123.31Y-106.33
X123.31Y-108.87
X123.31Y-111.41
X123.31Y-113.95
X123.31Y-116.49
X123.31Y-119.03
X123.31Y-121.57
X123.31Y-124.11
X123.31Y-126.65
X123.31Y-129.19
X123.31Y-131.73
X123.31Y-134.27
X123.31Y-136.81
X125.85Y-63.15
X125.85Y-65.69
X125.85Y-68.23
X125.85Y-70.77
X125.85Y-73.31
X125.85Y-75.85
X125.85Y-78.39
X125.85Y-80.93
X125.85Y-83.47
X125.85Y-86.01
X125.85Y-88.55
X125.85Y-91.09
X125.85Y-93.63
X125.85Y-96.17
X125.85Y-98.71
X125.85Y-101.25
X125.85Y-103.79
X125.85Y-106.33
X125.85Y-108.87
X125.85Y-111.41
X125.85Y-113.95
X125.85Y-116.49
X125.85Y-119.03
X125.85Y-121.57
X125.85Y-124.11
X125.85Y-126.65
X125.85Y-129.19
X125.85Y-131.73
X125.85Y-134.27
X125.85Y-136.81
X128.39Y-63.15
X128.39Y-65.69
X128.39Y-68.23
X128.39Y-70.77
X128.39Y-73.31
X128.39Y-75.85
X128.39Y-78.39
X128.39Y-80.93
X128.39Y-83.47
X128.39Y-86.01
X128.39Y-88.55
X128.39Y-91.09
X128.39Y-93.63
X128.39Y-96.17
X128.39Y-98.71
X128.39Y-101.25
X128.39Y-103.79
X128.39Y-106.33
X128.39Y-108.87
X128.39Y-111.41
X128.39Y-113.95
X128.39Y-116.49
X128.39Y-119.03
X128.39Y-121.57
X128.39Y-124.11
X128.39Y-126.65
X128.39Y-129.19
X128.39Y-131.73
X128.39Y-134.27
X128.39Y-136.81
X130.93Y-63.15
X130.93Y-65.69
X130.93Y-68.23
X130.93Y-70.77
X130.93Y-73.31
X130.93Y-75.85
X130.93Y-78.39
X130.93Y-80.93
X130.93Y-83.47
X130.93Y-86.01
X130.93Y-88.55
X130.93Y-91.09
X130.93Y-93.63
X130.93Y-96.17
X130.93Y-98.71
X130.93Y-101.25
X130.93Y-103.79
X130.93Y-106.33
X130.93Y-108.87
X130.93Y-111.41
X130.93Y-113.95
X130.93Y-116.49
X130.93Y-119.03
X130.93Y-121.57
X130.93Y-124.11
X130.93Y-126.65
X130.93Y-129.19
X130.93Y-131.73
X130.93Y-134.27
X130.93Y-136.81
X133.47Y-63.15
X133.47Y-65.69
X133.47Y-68.23
X133.47Y-70.77
X133.47Y-73.31
X133.47Y-75.85
X133.47Y-78.39
X133.47Y-80.93
X133.47Y-83.47
X133.47Y-86.01
X133.47Y-88.55
X133.47Y-91.09
X133.47Y-93.63
X133.47Y-96.17
X133.47Y-98.71
X133.47Y-101.25
X133.47Y-103.79
X133.47Y-106.33
X133.47Y-108.87
X133.47Y-111.41
X133.47Y-113.95
X133.47Y-116.49
X133.47Y-119.03
X133.47Y-121.57
X133.47Y-124.11
X133.47Y-126.65
X133.47Y-129.19
X133.47Y-131.73
X133.47Y-134.27
X133.47Y-136.81
X136.01Y-63.15
X136.01Y-65.69
X136.01Y-68.23
X136.01Y-70.77
X136.01Y-73.31
X136.01Y-75.85
X136.01Y-78.39
X136.01Y-80.93
X136.01Y-83.47
X136.01Y-86.01
X136.01Y-88.55
X136.01Y-91.09
X136.01Y-93.63
X136.01Y-96.17
X136.01Y-98.71
X136.01Y-101.25
X136.01Y-103.79
X136.01Y-106.33
X136.01Y-108.87
X136.01Y-111.41
X136.01Y-113.95
X136.01Y-116.49
X136.01Y-119.03
X136.01Y-121.57
X136.01Y-124.11
X136.01Y-126.65
X136.01Y-129.19
X136.01Y-131.73
X136.01Y-134.27
X136.01Y-136.81
X138.55Y-63.15
X138.55Y-65.69
X138.55Y-68.23
X138.55Y-70.77
X138.55Y-73.31
X138.55Y-75.85
X138.55Y-78.39
X138.55Y-80.93
X138.55Y-83.47
X138.55Y-86.01
X138.55Y-88.55
X138.55Y-91.09
X138.55Y-93.63
X138.55Y-96.17
X138.55Y-98.71
X138.55Y-101.25
X138.55Y-103.79
X138.55Y-106.33
X138.55Y-108.87
X138.55Y-111.41
X138.55Y-113.95
X138.55Y-116.49
X138.55Y-119.03
X138.55Y-121.57
X138.55Y-124.11
X138.55Y-126.65
X138.55Y-129.19
X138.55Y-131.73
X138.55Y-134.27
X138.55Y-136.81
X141.09Y-63.15
X141.09Y-65.69
X141.09Y-68.23
X141.09Y-70.77
X141.09Y-73.31
X141.09Y-75.85
X141.09Y-78.39
X141.09Y-80.93
X141.09Y-83.47
X141.09Y-86.01
X141.09Y-88.55
X141.09Y-91.09
X141.09Y-93.63
X141.09Y-96.17
X141.09Y-98.71
X141.09Y-101.25
X141.09Y-103.79
X141.09Y-106.33
X141.09Y-108.87
X141.09Y-111.41
X141.09Y-113.95
X141.09Y-116.49
X141.09Y-119.03
X141.09Y-121.57
X141.09Y-124.11
X141.09Y-126.65
X141.09Y-129.19
X141.09Y-131.73
X141.09Y-134.27
X141.09Y-136.81
X143.63Y-63.15
X143.63Y-65.69
X143.63Y-68.23
X143.63Y-70.77
X143.63Y-73.31
X143.63Y-75.85
X143.63Y-78.39
X143.63Y-80.93
X143.63Y-83.47
X143.63Y-86.01
X143.63Y-88.55
X143.63Y-91.09
X143.63Y-93.63
X143.63Y-96.17
X143.63Y-98.71
X143.63Y-101.25
X143.63Y-103.79
X143.63Y-106.33
X143.63Y-108.87
X143.63Y-111.41
X143.63Y-113.95
X143.63Y-116.49
X143.63Y-119.03
X143.63Y-121.57
X143.63Y-124.11
X143.63Y-126.65
X143.63Y-129.19
X143.63Y-131.73
X143.63Y-134.27
X143.63Y-136.81
X146.17Y-63.15
X146.17Y-65.69
X146.17Y-68.23
X146.17Y-70.77
X146.17Y-73.31
X146.17Y-75.85
X146.17Y-78.39
X146.17Y-80.93
X146.17Y-83.47
X146.17Y-86.01
X146.17Y-88.55
X146.17Y-91.09
X146.17Y-93.63
X146.17Y-96.17
X146.17Y-98.71
X146.17Y-101.25
X146.17Y-103.79
X146.17Y-106.33
X146.17Y-108.87
X146.17Y-111.41
X146.17Y-113.95
X146.17Y-116.49
X146.17Y-119.03
X146.17Y-121.57
X146.17Y-124.11
X146.17Y-126.65
X146.17Y-129.19
X146.17Y-131.73
X146.17Y-134.27
X146.17Y-136.81
X146.25Y-53.0
X148.71Y-63.15
X148.71Y-65.69
X148.71Y-68.23
X148.71Y-70.77
X148.71Y-73.31
X148.71Y-75.85
X148.71Y-78.39
X148.71Y-80.93
X148.71Y-83.47
X148.71Y-86.01
X148.71Y-88.55
X148.71Y-91.09
X148.71Y-93.63
X148.71Y-96.17
X148.71Y-98.71
X148.71Y-101.25
X148.71Y-103.79
X148.71Y-106.33
X148.71Y-108.87
X148.71Y-111.41
X148.71Y-113.95
X148.71Y-116.49
X148.71Y-119.03
X148.71Y-121.57
X148.71Y-124.11
X148.71Y-126.65
X148.71Y-129.19
X148.71Y-131.73
X148.71Y-134.27
X148.71Y-136.81
X148.79Y-53.0
X151.25Y-63.15
X151.25Y-65.69
X151.25Y-68.23
X151.25Y-70.77
X151.25Y-73.31
X151.25Y-75.85
X151.25Y-78.39
X151.25Y-80.93
X151.25Y-83.47
X151.25Y-86.01
X151.25Y-88.55
X151.25Y-91.09
X151.25Y-93.63
X151.25Y-96.17
X151.25Y-98.71
X151.25Y-101.25
X151.25Y-103.79
X151.25Y-106.33
X151.25Y-108.87
X151.25Y-111.41
X151.25Y-113.95
X151.25Y-116.49
X151.25Y-119.03
X151.25Y-121.57
X151.25Y-124.11
X151.25Y-126.65
X151.25Y-129.19
X151.25Y-131.73
X151.25Y-134.27
X151.25Y-136.81
X151.33Y-53.0
X153.79Y-63.15
X153.79Y-65.69
X153.79Y-68.23
X153.79Y-70.77
X153.79Y-73.31
X153.79Y-75.85
X153.79Y-78.39
X153.79Y-80.93
X153.79Y-83.47
X153.79Y-86.01
X153.79Y-88.55
X153.79Y-91.09
X153.79Y-93.63
X153.79Y-96.17
X153.79Y-98.71
X153.79Y-101.25
X153.79Y-103.79
X153.79Y-106.33
X153.79Y-108.87
X153.79Y-111.41
X153.79Y-113.95
X153.79Y-116.49
X153.79Y-119.03
X153.79Y-121.57
X153.79Y-124.11
X153.79Y-126.65
X153.79Y-129.19
X153.79Y-131.73
X153.79Y-134.27
X153.79Y-136.81
X153.87Y-53.0
X156.33Y-63.15
X156.33Y-65.69
X156.33Y-68.23
X156.33Y-70.77
X156.33Y-73.31
X156.33Y-75.85
X156.33Y-78.39
X156.33Y-80.93
X156.33Y-83.47
X156.33Y-86.01
X156.33Y-88.55
X156.33Y-91.09
X156.33Y-93.63
X156.33Y-96.17
X156.33Y-98.71
X156.33Y-101.25
X156.33Y-103.79
X156.33Y-106.33
X156.33Y-108.87
X156.33Y-111.41
X156.33Y-113.95
X156.33Y-116.49
X156.33Y-119.03
X156.33Y-121.57
X156.33Y-124.11
X156.33Y-126.65
X156.33Y-129.19
X156.33Y-131.73
X156.33Y-134.27
X156.33Y-136.81
X156.41Y-53.0
X158.87Y-63.15
X158.87Y-65.69
X158.87Y-68.23
X158.87Y-70.77
X158.87Y-73.31
X158.87Y-75.85
X158.87Y-78.39
X158.87Y-80.93
X158.87Y-83.47
X158.87Y-86.01
X158.87Y-88.55
X158.87Y-91.09
X158.87Y-93.63
X158.87Y-96.17
X158.87Y-98.71
X158.87Y-101.25
X158.87Y-103.79
X158.87Y-106.33
X158.87Y-108.87
X158.87Y-111.41
X158.87Y-113.95
X158.87Y-116.49
X158.87Y-119.03
X158.87Y-121.57
X158.87Y-124.11
X158.87Y-126.65
X158.87Y-129.19
X158.87Y-131.73
X158.87Y-134.27
X158.87Y-136.81
X158.95Y-53.0
X161.41Y-63.15
X161.41Y-65.69
X161.41Y-68.23
X161.41Y-70.77
X161.41Y-73.31
X161.41Y-75.85
X161.41Y-78.39
X161.41Y-80.93
X161.41Y-83.47
X161.41Y-86.01
X161.41Y-88.55
X161.41Y-91.09
X161.41Y-93.63
X161.41Y-96.17
X161.41Y-98.71
X161.41Y-101.25
X161.41Y-103.79
X161.41Y-106.33
X161.41Y-108.87
X161.41Y-111.41
X161.41Y-113.95
X161.41Y-116.49
X161.41Y-119.03
X161.41Y-121.57
X161.41Y-124.11
X161.41Y-126.65
X161.41Y-129.19
X161.41Y-131.73
X161.41Y-134.27
X161.41Y-136.81
X161.49Y-53.0
X163.95Y-63.15
X163.95Y-65.69
X163.95Y-68.23
X163.95Y-70.77
X163.95Y-73.31
X163.95Y-75.85
X163.95Y-78.39
X163.95Y-80.93
X163.95Y-83.47
X163.95Y-86.01
X163.95Y-88.55
X163.95Y-91.09
X163.95Y-93.63
X163.95Y-96.17
X163.95Y-98.71
X163.95Y-101.25
X163.95Y-103.79
X163.95Y-106.33
X163.95Y-108.87
X163.95Y-111.41
X163.95Y-113.95
X163.95Y-116.49
X163.95Y-119.03
X163.95Y-121.57
X163.95Y-124.11
X163.95Y-126.65
X163.95Y-129.19
X163.95Y-131.73
X163.95Y-134.27
X163.95Y-136.81
X164.03Y-53.0
X166.49Y-63.15
X166.49Y-65.69
X166.49Y-68.23
X166.49Y-70.77
X166.49Y-73.31
X166.49Y-75.85
X166.49Y-78.39
X166.49Y-80.93
X166.49Y-83.47
X166.49Y-86.01
X166.49Y-88.55
X166.49Y-91.09
X166.49Y-93.63
X166.49Y-96.17
X166.49Y-98.71
X166.49Y-101.25
X166.49Y-103.79
X166.49Y-106.33
X166.49Y-108.87
X166.49Y-111.41
X166.49Y-113.95
X166.49Y-116.49
X166.49Y-119.03
X166.49Y-121.57
X166.49Y-124.11
X166.49Y-126.65
X166.49Y-129.19
X166.49Y-131.73
X166.49Y-134.27
X166.49Y-136.81
X166.57Y-53.0
X169.03Y-63.15
X169.03Y-65.69
X169.03Y-68.23
X169.03Y-70.77
X169.03Y-73.31
X169.03Y-75.85
X169.03Y-78.39
X169.03Y-80.93
X169.03Y-83.47
X169.03Y-86.01
X169.03Y-88.55
X169.03Y-91.09
X169.03Y-93.63
X169.03Y-96.17
X169.03Y-98.71
X169.03Y-101.25
X169.03Y-103.79
X169.03Y-106.33
X169.03Y-108.87
X169.03Y-111.41
X169.03Y-113.95
X169.03Y-116.49
X169.03Y-119.03
X169.03Y-121.57
X169.03Y-124.11
X169.03Y-126.65
X169.03Y-129.19
X169.03Y-131.73
X169.03Y-134.27
X169.03Y-136.81
X169.11Y-53.0
X171.57Y-63.15
X171.57Y-65.69
X171.57Y-68.23
X171.57Y-70.77
X171.57Y-73.31
X171.57Y-75.85
X171.57Y-78.39
X171.57Y-80.93
X171.57Y-83.47
X171.57Y-86.01
X171.57Y-88.55
X171.57Y-91.09
X171.57Y-93.63
X171.57Y-96.17
X171.57Y-98.71
X171.57Y-101.25
X171.57Y-103.79
X171.57Y-106.33
X171.57Y-108.87
X171.57Y-111.41
X171.57Y-113.95
X171.57Y-116.49
X171.57Y-119.03
X171.57Y-121.57
X171.57Y-124.11
X171.57Y-126.65
X171.57Y-129.19
X171.57Y-131.73
X171.57Y-134.27
X171.57Y-136.81
X171.65Y-53.0
X174.11Y-63.15
X174.11Y-65.69
X174.11Y-68.23
X174.11Y-70.77
X174.11Y-73.31
X174.11Y-75.85
X174.11Y-78.39
X174.11Y-80.93
X174.11Y-83.47
X174.11Y-86.01
X174.11Y-88.55
X174.11Y-91.09
X174.11Y-93.63
X174.11Y-96.17
X174.11Y-98.71
X174.11Y-101.25
X174.11Y-103.79
X174.11Y-106.33
X174.11Y-108.87
X174.11Y-111.41
X174.11Y-113.95
X174.11Y-116.49
X174.11Y-119.03
X174.11Y-121.57
X174.11Y-124.11
X174.11Y-126.65
X174.11Y-129.19
X174.11Y-131.73
X174.11Y-134.27
X174.11Y-136.81
X174.19Y-53.0
X176.65Y-63.15
X176.65Y-65.69
X176.65Y-68.23
X176.65Y-70.77
X176.65Y-73.31
X176.65Y-75.85
X176.65Y-78.39
X176.65Y-80.93
X176.65Y-83.47
X176.65Y-86.01
X176.65Y-88.55
X176.65Y-91.09
X176.65Y-93.63
X176.65Y-96.17
X176.65Y-98.71
X176.65Y-101.25
X176.65Y-103.79
X176.65Y-106.33
X176.65Y-108.87
X176.65Y-111.41
X176.65Y-113.95
X176.65Y-116.49
X176.65Y-119.03
X176.65Y-121.57
X176.65Y-124.11
X176.65Y-126.65
X176.65Y-129.19
X176.65Y-131.73
X176.65Y-134.27
X176.65Y-136.81
X176.73Y-53.0
X179.19Y-63.15
X179.19Y-65.69
X179.19Y-68.23
X179.19Y-70.77
X179.19Y-73.31
X179.19Y-75.85
X179.19Y-78.39
X179.19Y-80.93
X179.19Y-83.47
X179.19Y-86.01
X179.19Y-88.55
X179.19Y-91.09
X179.19Y-93.63
X179.19Y-96.17
X179.19Y-98.71
X179.19Y-101.25
X179.19Y-103.79
X179.19Y-106.33
X179.19Y-108.87
X179.19Y-111.41
X179.19Y-113.95
X179.19Y-116.49
X179.19Y-119.03
X179.19Y-121.57
X179.19Y-124.11
X179.19Y-126.65
X179.19Y-129.19
X179.19Y-131.73
X179.19Y-134.27
X179.19Y-136.81
X179.27Y-53.0
X181.73Y-63.15
X181.73Y-65.69
X181.73Y-68.23
X181.73Y-70.77
X181.73Y-73.31
X181.73Y-75.85
X181.73Y-78.39
X181.73Y-80.93
X181.73Y-83.47
X181.73Y-86.01
X181.73Y-88.55
X181.73Y-91.09
X181.73Y-93.63
X181.73Y-96.17
X181.73Y-98.71
X181.73Y-101.25
X181.73Y-103.79
X181.73Y-106.33
X181.73Y-108.87
X181.73Y-111.41
X181.73Y-113.95
X181.73Y-116.49
X181.73Y-119.03
X181.73Y-121.57
X181.73Y-124.11
X181.73Y-126.65
X181.73Y-129.19
X181.73Y-131.73
X181.73Y-134.27
X181.73Y-136.81
X181.81Y-53.0
X184.27Y-63.15
X184.27Y-65.69
X184.27Y-68.23
X184.27Y-70.77
X184.27Y-73.31
X184.27Y-75.85
X184.27Y-78.39
X184.27Y-80.93
X184.27Y-83.47
X184.27Y-86.01
X184.27Y-88.55
X184.27Y-91.09
X184.27Y-93.63
X184.27Y-96.17
X184.27Y-98.71
X184.27Y-101.25
X184.27Y-103.79
X184.27Y-106.33
X184.27Y-108.87
X184.27Y-111.41
X184.27Y-113.95
X184.27Y-116.49
X184.27Y-119.03
X184.27Y-121.57
X184.27Y-124.11
X184.27Y-126.65
X184.27Y-129.19
X184.27Y-131.73
X184.27Y-134.27
X184.27Y-136.81
X184.35Y-53.0
X193.71Y-75.89
X193.71Y-78.43
X193.71Y-80.97
X193.71Y-83.51
X193.71Y-86.05
X193.71Y-88.59
X193.71Y-91.13
X193.71Y-93.67
X193.71Y-96.21
X193.71Y-98.75
X193.71Y-101.29
X193.71Y-103.83
X193.71Y-106.37
X193.71Y-108.91
X193.71Y-111.45
X193.71Y-113.99
X193.71Y-116.53
X193.71Y-119.07
X193.71Y-121.61
X193.71Y-124.15
X196.25Y-75.89
X196.25Y-78.43
X196.25Y-80.97
X196.25Y-83.51
X196.25Y-86.05
X196.25Y-88.59
X196.25Y-91.13
X196.25Y-93.67
X196.25Y-96.21
X196.25Y-98.75
X196.25Y-101.29
X196.25Y-103.83
X196.25Y-106.37
X196.25Y-108.91
X196.25Y-111.45
X196.25Y-113.99
X196.25Y-116.53
X196.25Y-119.07
X196.25Y-121.61
X196.25Y-124.15
T5
X105.0Y-55.0
X105.0Y-145.0
X195.0Y-55.0
X195.0Y-145.0
T2
G00X193.3Y-129.78
M15
G01X193.9Y-129.78
M16
G05
G00X193.3Y-138.42
M15
G01X193.9Y-138.42
M16
G05
G00X197.1Y-129.78
M15
G01X197.7Y-129.78
M16
G05
G00X197.1Y-138.42
M15
G01X197.7Y-138.42
M16
G05
M30
