%TF.GenerationSoftware,KiCad,Pcbnew,9.0.5*%
%TF.CreationDate,2025-10-08T18:58:19+09:00*%
%TF.ProjectId,universal,756e6976-6572-4736-916c-2e6b69636164,rev?*%
%TF.SameCoordinates,Original*%
%TF.FileFunction,Paste,Bot*%
%TF.FilePolarity,Positive*%
%FSLAX46Y46*%
G04 Gerber Fmt 4.6, Leading zero omitted, Abs format (unit mm)*
G04 Created by KiCad (PCBNEW 9.0.5) date 2025-10-08 18:58:19*
%MOMM*%
%LPD*%
G01*
G04 APERTURE LIST*
G04 Aperture macros list*
%AMRoundRect*
0 Rectangle with rounded corners*
0 $1 Rounding radius*
0 $2 $3 $4 $5 $6 $7 $8 $9 X,Y pos of 4 corners*
0 Add a 4 corners polygon primitive as box body*
4,1,4,$2,$3,$4,$5,$6,$7,$8,$9,$2,$3,0*
0 Add four circle primitives for the rounded corners*
1,1,$1+$1,$2,$3*
1,1,$1+$1,$4,$5*
1,1,$1+$1,$6,$7*
1,1,$1+$1,$8,$9*
0 Add four rect primitives between the rounded corners*
20,1,$1+$1,$2,$3,$4,$5,0*
20,1,$1+$1,$4,$5,$6,$7,0*
20,1,$1+$1,$6,$7,$8,$9,0*
20,1,$1+$1,$8,$9,$2,$3,0*%
G04 Aperture macros list end*
%ADD10RoundRect,0.255000X0.995000X0.595000X-0.995000X0.595000X-0.995000X-0.595000X0.995000X-0.595000X0*%
%ADD11RoundRect,0.200000X-0.200000X-0.275000X0.200000X-0.275000X0.200000X0.275000X-0.200000X0.275000X0*%
G04 APERTURE END LIST*
D10*
%TO.C,J7*%
X112250000Y-63150000D03*
X112250000Y-65690000D03*
X112250000Y-68230000D03*
X112250000Y-70770000D03*
X112250000Y-73310000D03*
X112250000Y-75850000D03*
X112250000Y-78390000D03*
X112250000Y-80930000D03*
X112250000Y-83470000D03*
X112250000Y-86010000D03*
X112250000Y-88550000D03*
X112250000Y-91090000D03*
X112250000Y-93630000D03*
X112250000Y-96170000D03*
X112250000Y-98710000D03*
X112250000Y-101250000D03*
X112250000Y-103790000D03*
X112250000Y-106330000D03*
X112250000Y-108870000D03*
X112250000Y-111410000D03*
X112250000Y-113950000D03*
X112250000Y-116490000D03*
X112250000Y-119030000D03*
X112250000Y-121570000D03*
X112250000Y-124110000D03*
X112250000Y-126650000D03*
X112250000Y-129190000D03*
X112250000Y-131730000D03*
X112250000Y-134270000D03*
X112250000Y-136810000D03*
%TD*%
%TO.C,J6*%
X187750000Y-63150000D03*
X187750000Y-65690000D03*
X187750000Y-68230000D03*
X187750000Y-70770000D03*
X187750000Y-73310000D03*
X187750000Y-75850000D03*
X187750000Y-78390000D03*
X187750000Y-80930000D03*
X187750000Y-83470000D03*
X187750000Y-86010000D03*
X187750000Y-88550000D03*
X187750000Y-91090000D03*
X187750000Y-93630000D03*
X187750000Y-96170000D03*
X187750000Y-98710000D03*
X187750000Y-101250000D03*
X187750000Y-103790000D03*
X187750000Y-106330000D03*
X187750000Y-108870000D03*
X187750000Y-111410000D03*
X187750000Y-113950000D03*
X187750000Y-116490000D03*
X187750000Y-119030000D03*
X187750000Y-121570000D03*
X187750000Y-124110000D03*
X187750000Y-126650000D03*
X187750000Y-129190000D03*
X187750000Y-131730000D03*
X187750000Y-134270000D03*
X187750000Y-136810000D03*
%TD*%
D11*
%TO.C,R1*%
X195175000Y-134750000D03*
X196825000Y-134750000D03*
%TD*%
%TO.C,R2*%
X195175000Y-133250000D03*
X196825000Y-133250000D03*
%TD*%
M02*
