%TF.GenerationSoftware,KiCad,Pcbnew,9.0.5*%
%TF.CreationDate,2025-10-08T18:58:18+09:00*%
%TF.ProjectId,universal,756e6976-6572-4736-916c-2e6b69636164,rev?*%
%TF.SameCoordinates,Original*%
%TF.FileFunction,Paste,Top*%
%TF.FilePolarity,Positive*%
%FSLAX46Y46*%
G04 Gerber Fmt 4.6, Leading zero omitted, Abs format (unit mm)*
G04 Created by KiCad (PCBNEW 9.0.5) date 2025-10-08 18:58:18*
%MOMM*%
%LPD*%
G01*
G04 APERTURE LIST*
G04 Aperture macros list*
%AMRoundRect*
0 Rectangle with rounded corners*
0 $1 Rounding radius*
0 $2 $3 $4 $5 $6 $7 $8 $9 X,Y pos of 4 corners*
0 Add a 4 corners polygon primitive as box body*
4,1,4,$2,$3,$4,$5,$6,$7,$8,$9,$2,$3,0*
0 Add four circle primitives for the rounded corners*
1,1,$1+$1,$2,$3*
1,1,$1+$1,$4,$5*
1,1,$1+$1,$6,$7*
1,1,$1+$1,$8,$9*
0 Add four rect primitives between the rounded corners*
20,1,$1+$1,$2,$3,$4,$5,0*
20,1,$1+$1,$4,$5,$6,$7,0*
20,1,$1+$1,$6,$7,$8,$9,0*
20,1,$1+$1,$8,$9,$2,$3,0*%
G04 Aperture macros list end*
%ADD10R,0.450000X1.000000*%
%ADD11RoundRect,0.218750X-0.256250X0.218750X-0.256250X-0.218750X0.256250X-0.218750X0.256250X0.218750X0*%
%ADD12RoundRect,0.175000X0.425000X-0.175000X0.425000X0.175000X-0.425000X0.175000X-0.425000X-0.175000X0*%
%ADD13RoundRect,0.190000X-0.410000X0.190000X-0.410000X-0.190000X0.410000X-0.190000X0.410000X0.190000X0*%
%ADD14RoundRect,0.200000X-0.400000X0.200000X-0.400000X-0.200000X0.400000X-0.200000X0.400000X0.200000X0*%
%ADD15RoundRect,0.175000X-0.425000X0.175000X-0.425000X-0.175000X0.425000X-0.175000X0.425000X0.175000X0*%
%ADD16RoundRect,0.190000X0.410000X-0.190000X0.410000X0.190000X-0.410000X0.190000X-0.410000X-0.190000X0*%
%ADD17RoundRect,0.200000X0.400000X-0.200000X0.400000X0.200000X-0.400000X0.200000X-0.400000X-0.200000X0*%
%ADD18O,1.700000X1.100000*%
%ADD19RoundRect,0.255000X0.595000X-0.995000X0.595000X0.995000X-0.595000X0.995000X-0.595000X-0.995000X0*%
G04 APERTURE END LIST*
D10*
%TO.C,RN2*%
X128300000Y-57000000D03*
X129100000Y-57000000D03*
X129900000Y-57000000D03*
X130700000Y-57000000D03*
X130700000Y-55000000D03*
X129900000Y-55000000D03*
X129100000Y-55000000D03*
X128300000Y-55000000D03*
%TD*%
D11*
%TO.C,D2*%
X118250000Y-50962500D03*
X118250000Y-52537500D03*
%TD*%
%TO.C,D5*%
X125750000Y-50962500D03*
X125750000Y-52537500D03*
%TD*%
%TO.C,D9*%
X135750000Y-50962500D03*
X135750000Y-52537500D03*
%TD*%
%TO.C,D7*%
X130750000Y-50962500D03*
X130750000Y-52537500D03*
%TD*%
D12*
%TO.C,J11*%
X193520000Y-134600000D03*
D13*
X193520000Y-132580000D03*
D14*
X193520000Y-131350000D03*
D15*
X193520000Y-133600000D03*
D16*
X193520000Y-135620000D03*
D17*
X193520000Y-136850000D03*
D18*
X193600000Y-138420000D03*
X197400000Y-138420000D03*
X193600000Y-129780000D03*
X197400000Y-129780000D03*
%TD*%
D11*
%TO.C,D1*%
X115750000Y-50962500D03*
X115750000Y-52537500D03*
%TD*%
%TO.C,D3*%
X120750000Y-50962500D03*
X120750000Y-52537500D03*
%TD*%
%TO.C,D4*%
X123250000Y-50962500D03*
X123250000Y-52537500D03*
%TD*%
D19*
%TO.C,J9*%
X115690000Y-59750000D03*
X118230000Y-59750000D03*
X120770000Y-59750000D03*
X123310000Y-59750000D03*
X125850000Y-59750000D03*
X128390000Y-59750000D03*
X130930000Y-59750000D03*
X133470000Y-59750000D03*
X136010000Y-59750000D03*
X138550000Y-59750000D03*
X141090000Y-59750000D03*
X143630000Y-59750000D03*
X146170000Y-59750000D03*
X148710000Y-59750000D03*
X151250000Y-59750000D03*
X153790000Y-59750000D03*
X156330000Y-59750000D03*
X158870000Y-59750000D03*
X161410000Y-59750000D03*
X163950000Y-59750000D03*
X166490000Y-59750000D03*
X169030000Y-59750000D03*
X171570000Y-59750000D03*
X174110000Y-59750000D03*
X176650000Y-59750000D03*
X179190000Y-59750000D03*
X181730000Y-59750000D03*
X184270000Y-59750000D03*
%TD*%
D11*
%TO.C,D11*%
X140750000Y-50962500D03*
X140750000Y-52537500D03*
%TD*%
%TO.C,D10*%
X138250000Y-50962500D03*
X138250000Y-52537500D03*
%TD*%
%TO.C,D8*%
X133250000Y-50962500D03*
X133250000Y-52537500D03*
%TD*%
%TO.C,D12*%
X143250000Y-50962500D03*
X143250000Y-52537500D03*
%TD*%
%TO.C,D6*%
X128250000Y-50962500D03*
X128250000Y-52537500D03*
%TD*%
D10*
%TO.C,RN3*%
X138300000Y-57000000D03*
X139100000Y-57000000D03*
X139900000Y-57000000D03*
X140700000Y-57000000D03*
X140700000Y-55000000D03*
X139900000Y-55000000D03*
X139100000Y-55000000D03*
X138300000Y-55000000D03*
%TD*%
%TO.C,RN1*%
X118300000Y-57000000D03*
X119100000Y-57000000D03*
X119900000Y-57000000D03*
X120700000Y-57000000D03*
X120700000Y-55000000D03*
X119900000Y-55000000D03*
X119100000Y-55000000D03*
X118300000Y-55000000D03*
%TD*%
M02*
