%TF.GenerationSoftware,KiCad,Pcbnew,9.0.5*%
%TF.CreationDate,2025-10-08T18:58:18+09:00*%
%TF.ProjectId,universal,756e6976-6572-4736-916c-2e6b69636164,rev?*%
%TF.SameCoordinates,Original*%
%TF.FileFunction,Copper,L2,Bot*%
%TF.FilePolarity,Positive*%
%FSLAX46Y46*%
G04 Gerber Fmt 4.6, Leading zero omitted, Abs format (unit mm)*
G04 Created by KiCad (PCBNEW 9.0.5) date 2025-10-08 18:58:18*
%MOMM*%
%LPD*%
G01*
G04 APERTURE LIST*
G04 Aperture macros list*
%AMRoundRect*
0 Rectangle with rounded corners*
0 $1 Rounding radius*
0 $2 $3 $4 $5 $6 $7 $8 $9 X,Y pos of 4 corners*
0 Add a 4 corners polygon primitive as box body*
4,1,4,$2,$3,$4,$5,$6,$7,$8,$9,$2,$3,0*
0 Add four circle primitives for the rounded corners*
1,1,$1+$1,$2,$3*
1,1,$1+$1,$4,$5*
1,1,$1+$1,$6,$7*
1,1,$1+$1,$8,$9*
0 Add four rect primitives between the rounded corners*
20,1,$1+$1,$2,$3,$4,$5,0*
20,1,$1+$1,$4,$5,$6,$7,0*
20,1,$1+$1,$6,$7,$8,$9,0*
20,1,$1+$1,$8,$9,$2,$3,0*%
G04 Aperture macros list end*
%TA.AperFunction,ComponentPad*%
%ADD10C,1.700000*%
%TD*%
%TA.AperFunction,ComponentPad*%
%ADD11C,3.600000*%
%TD*%
%TA.AperFunction,ConnectorPad*%
%ADD12C,5.600000*%
%TD*%
%TA.AperFunction,ComponentPad*%
%ADD13RoundRect,0.250000X-0.550000X-0.550000X0.550000X-0.550000X0.550000X0.550000X-0.550000X0.550000X0*%
%TD*%
%TA.AperFunction,ComponentPad*%
%ADD14C,1.600000*%
%TD*%
%TA.AperFunction,HeatsinkPad*%
%ADD15O,1.700000X1.100000*%
%TD*%
%TA.AperFunction,ComponentPad*%
%ADD16R,1.700000X1.700000*%
%TD*%
%TA.AperFunction,SMDPad,CuDef*%
%ADD17RoundRect,0.255000X0.995000X0.595000X-0.995000X0.595000X-0.995000X-0.595000X0.995000X-0.595000X0*%
%TD*%
%TA.AperFunction,SMDPad,CuDef*%
%ADD18RoundRect,0.200000X-0.200000X-0.275000X0.200000X-0.275000X0.200000X0.275000X-0.200000X0.275000X0*%
%TD*%
%TA.AperFunction,ViaPad*%
%ADD19C,0.500000*%
%TD*%
%TA.AperFunction,Conductor*%
%ADD20C,0.200000*%
%TD*%
G04 APERTURE END LIST*
D10*
%TO.P,REF\u002A\u002A181,1*%
%TO.N,N/C*%
X163950000Y-73310000D03*
%TD*%
D11*
%TO.P,J2,1,Pin_1*%
%TO.N,GND*%
X195000000Y-55000000D03*
D12*
X195000000Y-55000000D03*
%TD*%
D10*
%TO.P,REF\u002A\u002A149,1*%
%TO.N,N/C*%
X163950000Y-70770000D03*
%TD*%
%TO.P,REF\u002A\u002A75,1*%
%TO.N,N/C*%
X138550000Y-65690000D03*
%TD*%
%TO.P,REF\u002A\u002A969,1*%
%TO.N,N/C*%
X133470000Y-136810000D03*
%TD*%
%TO.P,REF\u002A\u002A39,1*%
%TO.N,N/C*%
X128390000Y-63150000D03*
%TD*%
%TO.P,REF\u002A\u002A916,1*%
%TO.N,N/C*%
X161410000Y-131730000D03*
%TD*%
%TO.P,REF\u002A\u002A325,1*%
%TO.N,N/C*%
X123310000Y-86010000D03*
%TD*%
%TO.P,REF\u002A\u002A668,1*%
%TO.N,N/C*%
X181730000Y-111410000D03*
%TD*%
%TO.P,REF\u002A\u002A758,1*%
%TO.N,N/C*%
X166490000Y-119030000D03*
%TD*%
%TO.P,REF\u002A\u002A359,1*%
%TO.N,N/C*%
X128390000Y-88550000D03*
%TD*%
%TO.P,REF\u002A\u002A413,1*%
%TO.N,N/C*%
X184270000Y-91090000D03*
%TD*%
%TO.P,REF\u002A\u002A44,1*%
%TO.N,N/C*%
X141090000Y-63150000D03*
%TD*%
%TO.P,REF\u002A\u002A680,1*%
%TO.N,N/C*%
X130930000Y-113950000D03*
%TD*%
%TO.P,REF\u002A\u002A828,1*%
%TO.N,N/C*%
X181730000Y-124110000D03*
%TD*%
%TO.P,REF\u002A\u002A484,1*%
%TO.N,N/C*%
X120770000Y-98710000D03*
%TD*%
%TO.P,REF\u002A\u002A298,1*%
%TO.N,N/C*%
X136010000Y-83470000D03*
%TD*%
%TO.P,REF\u002A\u002A285,1*%
%TO.N,N/C*%
X184270000Y-80930000D03*
%TD*%
%TO.P,REF\u002A\u002A388,1*%
%TO.N,N/C*%
X120770000Y-91090000D03*
%TD*%
%TO.P,REF\u002A\u002A882,1*%
%TO.N,N/C*%
X156330000Y-129190000D03*
%TD*%
%TO.P,REF\u002A\u002A945,1*%
%TO.N,N/C*%
X153790000Y-134270000D03*
%TD*%
%TO.P,REF\u002A\u002A477,1*%
%TO.N,N/C*%
X184270000Y-96170000D03*
%TD*%
%TO.P,REF\u002A\u002A495,1*%
%TO.N,N/C*%
X148710000Y-98710000D03*
%TD*%
%TO.P,REF\u002A\u002A791,1*%
%TO.N,N/C*%
X169030000Y-121570000D03*
%TD*%
%TO.P,REF\u002A\u002A548,1*%
%TO.N,N/C*%
X120770000Y-103790000D03*
%TD*%
%TO.P,REF\u002A\u002A681,1*%
%TO.N,N/C*%
X133470000Y-113950000D03*
%TD*%
%TO.P,REF\u002A\u002A455,1*%
%TO.N,N/C*%
X128390000Y-96170000D03*
%TD*%
%TO.P,REF\u002A\u002A664,1*%
%TO.N,N/C*%
X171570000Y-111410000D03*
%TD*%
%TO.P,REF\u002A\u002A114,1*%
%TO.N,N/C*%
X156330000Y-68230000D03*
%TD*%
%TO.P,REF\u002A\u002A987,1*%
%TO.N,N/C*%
X179190000Y-136810000D03*
%TD*%
%TO.P,REF\u002A\u002A650,1*%
%TO.N,N/C*%
X136010000Y-111410000D03*
%TD*%
%TO.P,REF\u002A\u002A844,1*%
%TO.N,N/C*%
X141090000Y-126650000D03*
%TD*%
%TO.P,REF\u002A\u002A60,1*%
%TO.N,N/C*%
X181730000Y-63150000D03*
%TD*%
%TO.P,REF\u002A\u002A972,1*%
%TO.N,N/C*%
X141090000Y-136810000D03*
%TD*%
%TO.P,REF\u002A\u002A657,1*%
%TO.N,N/C*%
X153790000Y-111410000D03*
%TD*%
%TO.P,REF\u002A\u002A788,1*%
%TO.N,N/C*%
X161410000Y-121570000D03*
%TD*%
%TO.P,REF\u002A\u002A252,1*%
%TO.N,N/C*%
X181730000Y-78390000D03*
%TD*%
%TO.P,REF\u002A\u002A934,1*%
%TO.N,N/C*%
X125850000Y-134270000D03*
%TD*%
%TO.P,REF\u002A\u002A213,1*%
%TO.N,N/C*%
X163950000Y-75850000D03*
%TD*%
%TO.P,REF\u002A\u002A509,1*%
%TO.N,N/C*%
X184270000Y-98710000D03*
%TD*%
%TO.P,REF\u002A\u002A983,1*%
%TO.N,N/C*%
X169030000Y-136810000D03*
%TD*%
%TO.P,REF\u002A\u002A135,1*%
%TO.N,N/C*%
X128390000Y-70770000D03*
%TD*%
%TO.P,REF\u002A\u002A943,1*%
%TO.N,N/C*%
X148710000Y-134270000D03*
%TD*%
%TO.P,REF\u002A\u002A326,1*%
%TO.N,N/C*%
X125850000Y-86010000D03*
%TD*%
%TO.P,REF\u002A\u002A242,1*%
%TO.N,N/C*%
X156330000Y-78390000D03*
%TD*%
%TO.P,REF\u002A\u002A540,1*%
%TO.N,N/C*%
X181730000Y-101250000D03*
%TD*%
%TO.P,REF\u002A\u002A772,1*%
%TO.N,N/C*%
X120770000Y-121570000D03*
%TD*%
%TO.P,REF\u002A\u002A636,1*%
%TO.N,N/C*%
X181730000Y-108870000D03*
%TD*%
%TO.P,REF\u002A\u002A507,1*%
%TO.N,N/C*%
X179190000Y-98710000D03*
%TD*%
%TO.P,REF\u002A\u002A498,1*%
%TO.N,N/C*%
X156330000Y-98710000D03*
%TD*%
%TO.P,REF\u002A\u002A785,1*%
%TO.N,N/C*%
X153790000Y-121570000D03*
%TD*%
%TO.P,REF\u002A\u002A443,1*%
%TO.N,N/C*%
X179190000Y-93630000D03*
%TD*%
%TO.P,REF\u002A\u002A747,1*%
%TO.N,N/C*%
X138550000Y-119030000D03*
%TD*%
%TO.P,REF\u002A\u002A528,1*%
%TO.N,N/C*%
X151250000Y-101250000D03*
%TD*%
%TO.P,REF\u002A\u002A517,1*%
%TO.N,N/C*%
X123310000Y-101250000D03*
%TD*%
%TO.P,REF\u002A\u002A155,1*%
%TO.N,N/C*%
X179190000Y-70770000D03*
%TD*%
%TO.P,REF\u002A\u002A115,1*%
%TO.N,N/C*%
X158870000Y-68230000D03*
%TD*%
%TO.P,REF\u002A\u002A341,1*%
%TO.N,N/C*%
X163950000Y-86010000D03*
%TD*%
%TO.P,REF\u002A\u002A936,1*%
%TO.N,N/C*%
X130930000Y-134270000D03*
%TD*%
%TO.P,REF\u002A\u002A134,1*%
%TO.N,N/C*%
X125850000Y-70770000D03*
%TD*%
%TO.P,REF\u002A\u002A923,1*%
%TO.N,N/C*%
X179190000Y-131730000D03*
%TD*%
%TO.P,REF\u002A\u002A634,1*%
%TO.N,N/C*%
X176650000Y-108870000D03*
%TD*%
%TO.P,REF\u002A\u002A239,1*%
%TO.N,N/C*%
X148710000Y-78390000D03*
%TD*%
%TO.P,REF\u002A\u002A68,1*%
%TO.N,N/C*%
X120770000Y-65690000D03*
%TD*%
%TO.P,REF\u002A\u002A89,1*%
%TO.N,N/C*%
X174110000Y-65690000D03*
%TD*%
%TO.P,REF\u002A\u002A553,1*%
%TO.N,N/C*%
X133470000Y-103790000D03*
%TD*%
%TO.P,REF\u002A\u002A169,1*%
%TO.N,N/C*%
X133470000Y-73310000D03*
%TD*%
%TO.P,REF\u002A\u002A164,1*%
%TO.N,N/C*%
X120770000Y-73310000D03*
%TD*%
%TO.P,REF\u002A\u002A229,1*%
%TO.N,N/C*%
X123310000Y-78390000D03*
%TD*%
%TO.P,REF\u002A\u002A501,1*%
%TO.N,N/C*%
X163950000Y-98710000D03*
%TD*%
%TO.P,REF\u002A\u002A36,1*%
%TO.N,N/C*%
X120770000Y-63150000D03*
%TD*%
%TO.P,REF\u002A\u002A901,1*%
%TO.N,N/C*%
X123310000Y-131730000D03*
%TD*%
%TO.P,REF\u002A\u002A124,1*%
%TO.N,N/C*%
X181730000Y-68230000D03*
%TD*%
%TO.P,REF\u002A\u002A47,1*%
%TO.N,N/C*%
X148710000Y-63150000D03*
%TD*%
%TO.P,REF\u002A\u002A626,1*%
%TO.N,N/C*%
X156330000Y-108870000D03*
%TD*%
%TO.P,REF\u002A\u002A172,1*%
%TO.N,N/C*%
X141090000Y-73310000D03*
%TD*%
%TO.P,REF\u002A\u002A56,1*%
%TO.N,N/C*%
X171570000Y-63150000D03*
%TD*%
%TO.P,REF\u002A\u002A440,1*%
%TO.N,N/C*%
X171570000Y-93630000D03*
%TD*%
%TO.P,REF\u002A\u002A438,1*%
%TO.N,N/C*%
X166490000Y-93630000D03*
%TD*%
%TO.P,REF\u002A\u002A270,1*%
%TO.N,N/C*%
X146170000Y-80930000D03*
%TD*%
%TO.P,REF\u002A\u002A599,1*%
%TO.N,N/C*%
X169030000Y-106330000D03*
%TD*%
%TO.P,REF\u002A\u002A72,1*%
%TO.N,N/C*%
X130930000Y-65690000D03*
%TD*%
%TO.P,REF\u002A\u002A486,1*%
%TO.N,N/C*%
X125850000Y-98710000D03*
%TD*%
%TO.P,REF\u002A\u002A613,1*%
%TO.N,N/C*%
X123310000Y-108870000D03*
%TD*%
%TO.P,REF\u002A\u002A918,1*%
%TO.N,N/C*%
X166490000Y-131730000D03*
%TD*%
%TO.P,REF\u002A\u002A709,1*%
%TO.N,N/C*%
X123310000Y-116490000D03*
%TD*%
%TO.P,REF\u002A\u002A258,1*%
%TO.N,N/C*%
X115690000Y-80930000D03*
%TD*%
%TO.P,REF\u002A\u002A450,1*%
%TO.N,N/C*%
X115690000Y-96170000D03*
%TD*%
%TO.P,REF\u002A\u002A921,1*%
%TO.N,N/C*%
X174110000Y-131730000D03*
%TD*%
%TO.P,REF\u002A\u002A820,1*%
%TO.N,N/C*%
X161410000Y-124110000D03*
%TD*%
%TO.P,REF\u002A\u002A99,1*%
%TO.N,N/C*%
X118230000Y-68230000D03*
%TD*%
%TO.P,REF\u002A\u002A868,1*%
%TO.N,N/C*%
X120770000Y-129190000D03*
%TD*%
%TO.P,REF\u002A\u002A893,1*%
%TO.N,N/C*%
X184270000Y-129190000D03*
%TD*%
%TO.P,REF\u002A\u002A765,1*%
%TO.N,N/C*%
X184270000Y-119030000D03*
%TD*%
%TO.P,REF\u002A\u002A839,1*%
%TO.N,N/C*%
X128390000Y-126650000D03*
%TD*%
%TO.P,REF\u002A\u002A558,1*%
%TO.N,N/C*%
X146170000Y-103790000D03*
%TD*%
%TO.P,REF\u002A\u002A784,1*%
%TO.N,N/C*%
X151250000Y-121570000D03*
%TD*%
%TO.P,REF\u002A\u002A363,1*%
%TO.N,N/C*%
X138550000Y-88550000D03*
%TD*%
%TO.P,REF\u002A\u002A207,1*%
%TO.N,N/C*%
X148710000Y-75850000D03*
%TD*%
%TO.P,REF\u002A\u002A731,1*%
%TO.N,N/C*%
X179190000Y-116490000D03*
%TD*%
%TO.P,REF\u002A\u002A947,1*%
%TO.N,N/C*%
X158870000Y-134270000D03*
%TD*%
%TO.P,REF\u002A\u002A982,1*%
%TO.N,N/C*%
X166490000Y-136810000D03*
%TD*%
%TO.P,REF\u002A\u002A666,1*%
%TO.N,N/C*%
X176650000Y-111410000D03*
%TD*%
%TO.P,REF\u002A\u002A234,1*%
%TO.N,N/C*%
X136010000Y-78390000D03*
%TD*%
%TO.P,REF\u002A\u002A331,1*%
%TO.N,N/C*%
X138550000Y-86010000D03*
%TD*%
D13*
%TO.P,C1,1*%
%TO.N,VCC*%
X194000000Y-68500000D03*
D14*
%TO.P,C1,2*%
%TO.N,GND*%
X196500000Y-68500000D03*
%TD*%
D10*
%TO.P,REF\u002A\u002A271,1*%
%TO.N,N/C*%
X148710000Y-80930000D03*
%TD*%
%TO.P,REF\u002A\u002A506,1*%
%TO.N,N/C*%
X176650000Y-98710000D03*
%TD*%
%TO.P,REF\u002A\u002A720,1*%
%TO.N,N/C*%
X151250000Y-116490000D03*
%TD*%
%TO.P,REF\u002A\u002A147,1*%
%TO.N,N/C*%
X158870000Y-70770000D03*
%TD*%
%TO.P,REF\u002A\u002A468,1*%
%TO.N,N/C*%
X161410000Y-96170000D03*
%TD*%
%TO.P,REF\u002A\u002A430,1*%
%TO.N,N/C*%
X146170000Y-93630000D03*
%TD*%
%TO.P,REF\u002A\u002A827,1*%
%TO.N,N/C*%
X179190000Y-124110000D03*
%TD*%
%TO.P,REF\u002A\u002A105,1*%
%TO.N,N/C*%
X133470000Y-68230000D03*
%TD*%
%TO.P,REF\u002A\u002A746,1*%
%TO.N,N/C*%
X136010000Y-119030000D03*
%TD*%
%TO.P,REF\u002A\u002A986,1*%
%TO.N,N/C*%
X176650000Y-136810000D03*
%TD*%
%TO.P,REF\u002A\u002A400,1*%
%TO.N,N/C*%
X151250000Y-91090000D03*
%TD*%
%TO.P,REF\u002A\u002A925,1*%
%TO.N,N/C*%
X184270000Y-131730000D03*
%TD*%
%TO.P,REF\u002A\u002A55,1*%
%TO.N,N/C*%
X169030000Y-63150000D03*
%TD*%
D15*
%TO.P,J11,S1,SHIELD*%
%TO.N,GND*%
X193600000Y-138420000D03*
X197400000Y-138420000D03*
X193600000Y-129780000D03*
X197400000Y-129780000D03*
%TD*%
D10*
%TO.P,REF\u002A\u002A755,1*%
%TO.N,N/C*%
X158870000Y-119030000D03*
%TD*%
%TO.P,REF\u002A\u002A444,1*%
%TO.N,N/C*%
X181730000Y-93630000D03*
%TD*%
%TO.P,REF\u002A\u002A603,1*%
%TO.N,N/C*%
X179190000Y-106330000D03*
%TD*%
%TO.P,REF\u002A\u002A492,1*%
%TO.N,N/C*%
X141090000Y-98710000D03*
%TD*%
%TO.P,REF\u002A\u002A850,1*%
%TO.N,N/C*%
X156330000Y-126650000D03*
%TD*%
%TO.P,REF\u002A\u002A651,1*%
%TO.N,N/C*%
X138550000Y-111410000D03*
%TD*%
%TO.P,REF\u002A\u002A652,1*%
%TO.N,N/C*%
X141090000Y-111410000D03*
%TD*%
%TO.P,REF\u002A\u002A919,1*%
%TO.N,N/C*%
X169030000Y-131730000D03*
%TD*%
%TO.P,REF\u002A\u002A910,1*%
%TO.N,N/C*%
X146170000Y-131730000D03*
%TD*%
%TO.P,REF\u002A\u002A125,1*%
%TO.N,N/C*%
X184270000Y-68230000D03*
%TD*%
%TO.P,REF\u002A\u002A300,1*%
%TO.N,N/C*%
X141090000Y-83470000D03*
%TD*%
%TO.P,REF\u002A\u002A179,1*%
%TO.N,N/C*%
X158870000Y-73310000D03*
%TD*%
%TO.P,REF\u002A\u002A188,1*%
%TO.N,N/C*%
X181730000Y-73310000D03*
%TD*%
%TO.P,REF\u002A\u002A884,1*%
%TO.N,N/C*%
X161410000Y-129190000D03*
%TD*%
%TO.P,REF\u002A\u002A939,1*%
%TO.N,N/C*%
X138550000Y-134270000D03*
%TD*%
%TO.P,REF\u002A\u002A952,1*%
%TO.N,N/C*%
X171570000Y-134270000D03*
%TD*%
%TO.P,REF\u002A\u002A562,1*%
%TO.N,N/C*%
X156330000Y-103790000D03*
%TD*%
%TO.P,REF\u002A\u002A655,1*%
%TO.N,N/C*%
X148710000Y-111410000D03*
%TD*%
%TO.P,REF\u002A\u002A244,1*%
%TO.N,N/C*%
X161410000Y-78390000D03*
%TD*%
%TO.P,REF\u002A\u002A619,1*%
%TO.N,N/C*%
X138550000Y-108870000D03*
%TD*%
%TO.P,REF\u002A\u002A730,1*%
%TO.N,N/C*%
X176650000Y-116490000D03*
%TD*%
%TO.P,REF\u002A\u002A855,1*%
%TO.N,N/C*%
X169030000Y-126650000D03*
%TD*%
%TO.P,REF\u002A\u002A139,1*%
%TO.N,N/C*%
X138550000Y-70770000D03*
%TD*%
%TO.P,REF\u002A\u002A565,1*%
%TO.N,N/C*%
X163950000Y-103790000D03*
%TD*%
%TO.P,REF\u002A\u002A675,1*%
%TO.N,N/C*%
X118230000Y-113950000D03*
%TD*%
%TO.P,REF\u002A\u002A250,1*%
%TO.N,N/C*%
X176650000Y-78390000D03*
%TD*%
%TO.P,REF\u002A\u002A549,1*%
%TO.N,N/C*%
X123310000Y-103790000D03*
%TD*%
%TO.P,REF\u002A\u002A399,1*%
%TO.N,N/C*%
X148710000Y-91090000D03*
%TD*%
%TO.P,REF\u002A\u002A409,1*%
%TO.N,N/C*%
X174110000Y-91090000D03*
%TD*%
%TO.P,REF\u002A\u002A930,1*%
%TO.N,N/C*%
X115690000Y-134270000D03*
%TD*%
%TO.P,REF\u002A\u002A328,1*%
%TO.N,N/C*%
X130930000Y-86010000D03*
%TD*%
%TO.P,REF\u002A\u002A180,1*%
%TO.N,N/C*%
X161410000Y-73310000D03*
%TD*%
%TO.P,REF\u002A\u002A112,1*%
%TO.N,N/C*%
X151250000Y-68230000D03*
%TD*%
%TO.P,REF\u002A\u002A873,1*%
%TO.N,N/C*%
X133470000Y-129190000D03*
%TD*%
%TO.P,REF\u002A\u002A299,1*%
%TO.N,N/C*%
X138550000Y-83470000D03*
%TD*%
%TO.P,REF\u002A\u002A571,1*%
%TO.N,N/C*%
X179190000Y-103790000D03*
%TD*%
%TO.P,REF\u002A\u002A218,1*%
%TO.N,N/C*%
X176650000Y-75850000D03*
%TD*%
%TO.P,REF\u002A\u002A402,1*%
%TO.N,N/C*%
X156330000Y-91090000D03*
%TD*%
%TO.P,REF\u002A\u002A533,1*%
%TO.N,N/C*%
X163950000Y-101250000D03*
%TD*%
%TO.P,REF\u002A\u002A718,1*%
%TO.N,N/C*%
X146170000Y-116490000D03*
%TD*%
%TO.P,REF\u002A\u002A488,1*%
%TO.N,N/C*%
X130930000Y-98710000D03*
%TD*%
%TO.P,REF\u002A\u002A825,1*%
%TO.N,N/C*%
X174110000Y-124110000D03*
%TD*%
%TO.P,REF\u002A\u002A272,1*%
%TO.N,N/C*%
X151250000Y-80930000D03*
%TD*%
%TO.P,REF\u002A\u002A197,1*%
%TO.N,N/C*%
X123310000Y-75850000D03*
%TD*%
%TO.P,REF\u002A\u002A310,1*%
%TO.N,N/C*%
X166490000Y-83470000D03*
%TD*%
%TO.P,REF\u002A\u002A687,1*%
%TO.N,N/C*%
X148710000Y-113950000D03*
%TD*%
%TO.P,REF\u002A\u002A121,1*%
%TO.N,N/C*%
X174110000Y-68230000D03*
%TD*%
%TO.P,REF\u002A\u002A834,1*%
%TO.N,N/C*%
X115690000Y-126650000D03*
%TD*%
%TO.P,REF\u002A\u002A913,1*%
%TO.N,N/C*%
X153790000Y-131730000D03*
%TD*%
%TO.P,REF\u002A\u002A362,1*%
%TO.N,N/C*%
X136010000Y-88550000D03*
%TD*%
%TO.P,REF\u002A\u002A588,1*%
%TO.N,N/C*%
X141090000Y-106330000D03*
%TD*%
%TO.P,REF\u002A\u002A646,1*%
%TO.N,N/C*%
X125850000Y-111410000D03*
%TD*%
%TO.P,REF\u002A\u002A886,1*%
%TO.N,N/C*%
X166490000Y-129190000D03*
%TD*%
%TO.P,REF\u002A\u002A787,1*%
%TO.N,N/C*%
X158870000Y-121570000D03*
%TD*%
%TO.P,REF\u002A\u002A854,1*%
%TO.N,N/C*%
X166490000Y-126650000D03*
%TD*%
%TO.P,REF\u002A\u002A456,1*%
%TO.N,N/C*%
X130930000Y-96170000D03*
%TD*%
%TO.P,REF\u002A\u002A304,1*%
%TO.N,N/C*%
X151250000Y-83470000D03*
%TD*%
%TO.P,REF\u002A\u002A706,1*%
%TO.N,N/C*%
X115690000Y-116490000D03*
%TD*%
%TO.P,REF\u002A\u002A303,1*%
%TO.N,N/C*%
X148710000Y-83470000D03*
%TD*%
%TO.P,REF\u002A\u002A627,1*%
%TO.N,N/C*%
X158870000Y-108870000D03*
%TD*%
%TO.P,REF\u002A\u002A282,1*%
%TO.N,N/C*%
X176650000Y-80930000D03*
%TD*%
%TO.P,REF\u002A\u002A701,1*%
%TO.N,N/C*%
X184270000Y-113950000D03*
%TD*%
%TO.P,REF\u002A\u002A245,1*%
%TO.N,N/C*%
X163950000Y-78390000D03*
%TD*%
%TO.P,REF\u002A\u002A824,1*%
%TO.N,N/C*%
X171570000Y-124110000D03*
%TD*%
%TO.P,REF\u002A\u002A937,1*%
%TO.N,N/C*%
X133470000Y-134270000D03*
%TD*%
%TO.P,REF\u002A\u002A902,1*%
%TO.N,N/C*%
X125850000Y-131730000D03*
%TD*%
%TO.P,REF\u002A\u002A761,1*%
%TO.N,N/C*%
X174110000Y-119030000D03*
%TD*%
%TO.P,REF\u002A\u002A153,1*%
%TO.N,N/C*%
X174110000Y-70770000D03*
%TD*%
%TO.P,REF\u002A\u002A950,1*%
%TO.N,N/C*%
X166490000Y-134270000D03*
%TD*%
%TO.P,REF\u002A\u002A202,1*%
%TO.N,N/C*%
X136010000Y-75850000D03*
%TD*%
%TO.P,REF\u002A\u002A391,1*%
%TO.N,N/C*%
X128390000Y-91090000D03*
%TD*%
%TO.P,REF\u002A\u002A240,1*%
%TO.N,N/C*%
X151250000Y-78390000D03*
%TD*%
%TO.P,REF\u002A\u002A617,1*%
%TO.N,N/C*%
X133470000Y-108870000D03*
%TD*%
%TO.P,REF\u002A\u002A274,1*%
%TO.N,N/C*%
X156330000Y-80930000D03*
%TD*%
%TO.P,REF\u002A\u002A37,1*%
%TO.N,N/C*%
X123310000Y-63150000D03*
%TD*%
%TO.P,REF\u002A\u002A931,1*%
%TO.N,N/C*%
X118230000Y-134270000D03*
%TD*%
%TO.P,REF\u002A\u002A805,1*%
%TO.N,N/C*%
X123310000Y-124110000D03*
%TD*%
%TO.P,REF\u002A\u002A133,1*%
%TO.N,N/C*%
X123310000Y-70770000D03*
%TD*%
%TO.P,REF\u002A\u002A816,1*%
%TO.N,N/C*%
X151250000Y-124110000D03*
%TD*%
%TO.P,REF\u002A\u002A598,1*%
%TO.N,N/C*%
X166490000Y-106330000D03*
%TD*%
%TO.P,REF\u002A\u002A392,1*%
%TO.N,N/C*%
X130930000Y-91090000D03*
%TD*%
%TO.P,REF\u002A\u002A612,1*%
%TO.N,N/C*%
X120770000Y-108870000D03*
%TD*%
%TO.P,REF\u002A\u002A277,1*%
%TO.N,N/C*%
X163950000Y-80930000D03*
%TD*%
%TO.P,REF\u002A\u002A665,1*%
%TO.N,N/C*%
X174110000Y-111410000D03*
%TD*%
%TO.P,REF\u002A\u002A911,1*%
%TO.N,N/C*%
X148710000Y-131730000D03*
%TD*%
%TO.P,REF\u002A\u002A685,1*%
%TO.N,N/C*%
X143630000Y-113950000D03*
%TD*%
%TO.P,REF\u002A\u002A733,1*%
%TO.N,N/C*%
X184270000Y-116490000D03*
%TD*%
%TO.P,REF\u002A\u002A163,1*%
%TO.N,N/C*%
X118230000Y-73310000D03*
%TD*%
%TO.P,REF\u002A\u002A812,1*%
%TO.N,N/C*%
X141090000Y-124110000D03*
%TD*%
%TO.P,REF\u002A\u002A53,1*%
%TO.N,N/C*%
X163950000Y-63150000D03*
%TD*%
%TO.P,REF\u002A\u002A907,1*%
%TO.N,N/C*%
X138550000Y-131730000D03*
%TD*%
%TO.P,REF\u002A\u002A467,1*%
%TO.N,N/C*%
X158870000Y-96170000D03*
%TD*%
%TO.P,REF\u002A\u002A166,1*%
%TO.N,N/C*%
X125850000Y-73310000D03*
%TD*%
%TO.P,REF\u002A\u002A396,1*%
%TO.N,N/C*%
X141090000Y-91090000D03*
%TD*%
%TO.P,REF\u002A\u002A710,1*%
%TO.N,N/C*%
X125850000Y-116490000D03*
%TD*%
%TO.P,REF\u002A\u002A623,1*%
%TO.N,N/C*%
X148710000Y-108870000D03*
%TD*%
%TO.P,REF\u002A\u002A248,1*%
%TO.N,N/C*%
X171570000Y-78390000D03*
%TD*%
%TO.P,REF\u002A\u002A976,1*%
%TO.N,N/C*%
X151250000Y-136810000D03*
%TD*%
%TO.P,REF\u002A\u002A174,1*%
%TO.N,N/C*%
X146170000Y-73310000D03*
%TD*%
%TO.P,REF\u002A\u002A315,1*%
%TO.N,N/C*%
X179190000Y-83470000D03*
%TD*%
%TO.P,REF\u002A\u002A66,1*%
%TO.N,N/C*%
X115690000Y-65690000D03*
%TD*%
%TO.P,REF\u002A\u002A985,1*%
%TO.N,N/C*%
X174110000Y-136810000D03*
%TD*%
%TO.P,REF\u002A\u002A373,1*%
%TO.N,N/C*%
X163950000Y-88550000D03*
%TD*%
%TO.P,REF\u002A\u002A974,1*%
%TO.N,N/C*%
X146170000Y-136810000D03*
%TD*%
%TO.P,REF\u002A\u002A221,1*%
%TO.N,N/C*%
X184270000Y-75850000D03*
%TD*%
%TO.P,REF\u002A\u002A713,1*%
%TO.N,N/C*%
X133470000Y-116490000D03*
%TD*%
%TO.P,REF\u002A\u002A451,1*%
%TO.N,N/C*%
X118230000Y-96170000D03*
%TD*%
%TO.P,REF\u002A\u002A582,1*%
%TO.N,N/C*%
X125850000Y-106330000D03*
%TD*%
%TO.P,REF\u002A\u002A306,1*%
%TO.N,N/C*%
X156330000Y-83470000D03*
%TD*%
%TO.P,REF\u002A\u002A604,1*%
%TO.N,N/C*%
X181730000Y-106330000D03*
%TD*%
%TO.P,REF\u002A\u002A370,1*%
%TO.N,N/C*%
X156330000Y-88550000D03*
%TD*%
%TO.P,REF\u002A\u002A721,1*%
%TO.N,N/C*%
X153790000Y-116490000D03*
%TD*%
%TO.P,REF\u002A\u002A920,1*%
%TO.N,N/C*%
X171570000Y-131730000D03*
%TD*%
%TO.P,REF\u002A\u002A690,1*%
%TO.N,N/C*%
X156330000Y-113950000D03*
%TD*%
%TO.P,REF\u002A\u002A150,1*%
%TO.N,N/C*%
X166490000Y-70770000D03*
%TD*%
%TO.P,REF\u002A\u002A922,1*%
%TO.N,N/C*%
X176650000Y-131730000D03*
%TD*%
%TO.P,REF\u002A\u002A777,1*%
%TO.N,N/C*%
X133470000Y-121570000D03*
%TD*%
%TO.P,REF\u002A\u002A555,1*%
%TO.N,N/C*%
X138550000Y-103790000D03*
%TD*%
%TO.P,REF\u002A\u002A908,1*%
%TO.N,N/C*%
X141090000Y-131730000D03*
%TD*%
%TO.P,REF\u002A\u002A642,1*%
%TO.N,N/C*%
X115690000Y-111410000D03*
%TD*%
%TO.P,REF\u002A\u002A740,1*%
%TO.N,N/C*%
X120770000Y-119030000D03*
%TD*%
%TO.P,REF\u002A\u002A187,1*%
%TO.N,N/C*%
X179190000Y-73310000D03*
%TD*%
%TO.P,REF\u002A\u002A497,1*%
%TO.N,N/C*%
X153790000Y-98710000D03*
%TD*%
%TO.P,REF\u002A\u002A232,1*%
%TO.N,N/C*%
X130930000Y-78390000D03*
%TD*%
%TO.P,REF\u002A\u002A49,1*%
%TO.N,N/C*%
X153790000Y-63150000D03*
%TD*%
%TO.P,REF\u002A\u002A745,1*%
%TO.N,N/C*%
X133470000Y-119030000D03*
%TD*%
%TO.P,REF\u002A\u002A881,1*%
%TO.N,N/C*%
X153790000Y-129190000D03*
%TD*%
%TO.P,REF\u002A\u002A119,1*%
%TO.N,N/C*%
X169030000Y-68230000D03*
%TD*%
%TO.P,REF\u002A\u002A482,1*%
%TO.N,N/C*%
X115690000Y-98710000D03*
%TD*%
%TO.P,REF\u002A\u002A261,1*%
%TO.N,N/C*%
X123310000Y-80930000D03*
%TD*%
%TO.P,REF\u002A\u002A466,1*%
%TO.N,N/C*%
X156330000Y-96170000D03*
%TD*%
%TO.P,REF\u002A\u002A538,1*%
%TO.N,N/C*%
X176650000Y-101250000D03*
%TD*%
%TO.P,REF\u002A\u002A935,1*%
%TO.N,N/C*%
X128390000Y-134270000D03*
%TD*%
%TO.P,REF\u002A\u002A377,1*%
%TO.N,N/C*%
X174110000Y-88550000D03*
%TD*%
%TO.P,REF\u002A\u002A677,1*%
%TO.N,N/C*%
X123310000Y-113950000D03*
%TD*%
%TO.P,REF\u002A\u002A567,1*%
%TO.N,N/C*%
X169030000Y-103790000D03*
%TD*%
%TO.P,REF\u002A\u002A782,1*%
%TO.N,N/C*%
X146170000Y-121570000D03*
%TD*%
%TO.P,REF\u002A\u002A293,1*%
%TO.N,N/C*%
X123310000Y-83470000D03*
%TD*%
%TO.P,REF\u002A\u002A594,1*%
%TO.N,N/C*%
X156330000Y-106330000D03*
%TD*%
%TO.P,REF\u002A\u002A984,1*%
%TO.N,N/C*%
X171570000Y-136810000D03*
%TD*%
%TO.P,REF\u002A\u002A550,1*%
%TO.N,N/C*%
X125850000Y-103790000D03*
%TD*%
%TO.P,REF\u002A\u002A979,1*%
%TO.N,N/C*%
X158870000Y-136810000D03*
%TD*%
%TO.P,REF\u002A\u002A630,1*%
%TO.N,N/C*%
X166490000Y-108870000D03*
%TD*%
%TO.P,REF\u002A\u002A754,1*%
%TO.N,N/C*%
X156330000Y-119030000D03*
%TD*%
%TO.P,REF\u002A\u002A358,1*%
%TO.N,N/C*%
X125850000Y-88550000D03*
%TD*%
%TO.P,REF\u002A\u002A941,1*%
%TO.N,N/C*%
X143630000Y-134270000D03*
%TD*%
%TO.P,REF\u002A\u002A140,1*%
%TO.N,N/C*%
X141090000Y-70770000D03*
%TD*%
%TO.P,REF\u002A\u002A433,1*%
%TO.N,N/C*%
X153790000Y-93630000D03*
%TD*%
%TO.P,REF\u002A\u002A425,1*%
%TO.N,N/C*%
X133470000Y-93630000D03*
%TD*%
%TO.P,REF\u002A\u002A141,1*%
%TO.N,N/C*%
X143630000Y-70770000D03*
%TD*%
%TO.P,REF\u002A\u002A759,1*%
%TO.N,N/C*%
X169030000Y-119030000D03*
%TD*%
%TO.P,REF\u002A\u002A42,1*%
%TO.N,N/C*%
X136010000Y-63150000D03*
%TD*%
%TO.P,REF\u002A\u002A516,1*%
%TO.N,N/C*%
X120770000Y-101250000D03*
%TD*%
%TO.P,REF\u002A\u002A743,1*%
%TO.N,N/C*%
X128390000Y-119030000D03*
%TD*%
%TO.P,REF\u002A\u002A616,1*%
%TO.N,N/C*%
X130930000Y-108870000D03*
%TD*%
%TO.P,REF\u002A\u002A856,1*%
%TO.N,N/C*%
X171570000Y-126650000D03*
%TD*%
%TO.P,REF\u002A\u002A361,1*%
%TO.N,N/C*%
X133470000Y-88550000D03*
%TD*%
%TO.P,REF\u002A\u002A380,1*%
%TO.N,N/C*%
X181730000Y-88550000D03*
%TD*%
%TO.P,REF\u002A\u002A579,1*%
%TO.N,N/C*%
X118230000Y-106330000D03*
%TD*%
%TO.P,REF\u002A\u002A344,1*%
%TO.N,N/C*%
X171570000Y-86010000D03*
%TD*%
%TO.P,REF\u002A\u002A892,1*%
%TO.N,N/C*%
X181730000Y-129190000D03*
%TD*%
%TO.P,REF\u002A\u002A846,1*%
%TO.N,N/C*%
X146170000Y-126650000D03*
%TD*%
%TO.P,REF\u002A\u002A452,1*%
%TO.N,N/C*%
X120770000Y-96170000D03*
%TD*%
%TO.P,REF\u002A\u002A269,1*%
%TO.N,N/C*%
X143630000Y-80930000D03*
%TD*%
%TO.P,REF\u002A\u002A118,1*%
%TO.N,N/C*%
X166490000Y-68230000D03*
%TD*%
%TO.P,REF\u002A\u002A810,1*%
%TO.N,N/C*%
X136010000Y-124110000D03*
%TD*%
%TO.P,REF\u002A\u002A249,1*%
%TO.N,N/C*%
X174110000Y-78390000D03*
%TD*%
%TO.P,REF\u002A\u002A814,1*%
%TO.N,N/C*%
X146170000Y-124110000D03*
%TD*%
%TO.P,REF\u002A\u002A938,1*%
%TO.N,N/C*%
X136010000Y-134270000D03*
%TD*%
%TO.P,REF\u002A\u002A804,1*%
%TO.N,N/C*%
X120770000Y-124110000D03*
%TD*%
%TO.P,REF\u002A\u002A393,1*%
%TO.N,N/C*%
X133470000Y-91090000D03*
%TD*%
%TO.P,REF\u002A\u002A92,1*%
%TO.N,N/C*%
X181730000Y-65690000D03*
%TD*%
%TO.P,REF\u002A\u002A401,1*%
%TO.N,N/C*%
X153790000Y-91090000D03*
%TD*%
%TO.P,REF\u002A\u002A243,1*%
%TO.N,N/C*%
X158870000Y-78390000D03*
%TD*%
%TO.P,REF\u002A\u002A408,1*%
%TO.N,N/C*%
X171570000Y-91090000D03*
%TD*%
%TO.P,REF\u002A\u002A136,1*%
%TO.N,N/C*%
X130930000Y-70770000D03*
%TD*%
%TO.P,REF\u002A\u002A867,1*%
%TO.N,N/C*%
X118230000Y-129190000D03*
%TD*%
%TO.P,REF\u002A\u002A618,1*%
%TO.N,N/C*%
X136010000Y-108870000D03*
%TD*%
%TO.P,REF\u002A\u002A732,1*%
%TO.N,N/C*%
X181730000Y-116490000D03*
%TD*%
%TO.P,REF\u002A\u002A903,1*%
%TO.N,N/C*%
X128390000Y-131730000D03*
%TD*%
%TO.P,REF\u002A\u002A693,1*%
%TO.N,N/C*%
X163950000Y-113950000D03*
%TD*%
%TO.P,REF\u002A\u002A649,1*%
%TO.N,N/C*%
X133470000Y-111410000D03*
%TD*%
%TO.P,REF\u002A\u002A841,1*%
%TO.N,N/C*%
X133470000Y-126650000D03*
%TD*%
%TO.P,REF\u002A\u002A404,1*%
%TO.N,N/C*%
X161410000Y-91090000D03*
%TD*%
%TO.P,REF\u002A\u002A203,1*%
%TO.N,N/C*%
X138550000Y-75850000D03*
%TD*%
%TO.P,REF\u002A\u002A779,1*%
%TO.N,N/C*%
X138550000Y-121570000D03*
%TD*%
%TO.P,REF\u002A\u002A557,1*%
%TO.N,N/C*%
X143630000Y-103790000D03*
%TD*%
%TO.P,REF\u002A\u002A317,1*%
%TO.N,N/C*%
X184270000Y-83470000D03*
%TD*%
%TO.P,REF\u002A\u002A145,1*%
%TO.N,N/C*%
X153790000Y-70770000D03*
%TD*%
%TO.P,REF\u002A\u002A789,1*%
%TO.N,N/C*%
X163950000Y-121570000D03*
%TD*%
%TO.P,REF\u002A\u002A458,1*%
%TO.N,N/C*%
X136010000Y-96170000D03*
%TD*%
%TO.P,REF\u002A\u002A365,1*%
%TO.N,N/C*%
X143630000Y-88550000D03*
%TD*%
%TO.P,REF\u002A\u002A600,1*%
%TO.N,N/C*%
X171570000Y-106330000D03*
%TD*%
%TO.P,REF\u002A\u002A177,1*%
%TO.N,N/C*%
X153790000Y-73310000D03*
%TD*%
%TO.P,REF\u002A\u002A977,1*%
%TO.N,N/C*%
X153790000Y-136810000D03*
%TD*%
%TO.P,REF\u002A\u002A390,1*%
%TO.N,N/C*%
X125850000Y-91090000D03*
%TD*%
%TO.P,REF\u002A\u002A205,1*%
%TO.N,N/C*%
X143630000Y-75850000D03*
%TD*%
%TO.P,REF\u002A\u002A418,1*%
%TO.N,N/C*%
X115690000Y-93630000D03*
%TD*%
%TO.P,REF\u002A\u002A858,1*%
%TO.N,N/C*%
X176650000Y-126650000D03*
%TD*%
%TO.P,REF\u002A\u002A752,1*%
%TO.N,N/C*%
X151250000Y-119030000D03*
%TD*%
%TO.P,REF\u002A\u002A305,1*%
%TO.N,N/C*%
X153790000Y-83470000D03*
%TD*%
%TO.P,REF\u002A\u002A196,1*%
%TO.N,N/C*%
X120770000Y-75850000D03*
%TD*%
%TO.P,REF\u002A\u002A156,1*%
%TO.N,N/C*%
X181730000Y-70770000D03*
%TD*%
%TO.P,REF\u002A\u002A837,1*%
%TO.N,N/C*%
X123310000Y-126650000D03*
%TD*%
%TO.P,REF\u002A\u002A208,1*%
%TO.N,N/C*%
X151250000Y-75850000D03*
%TD*%
%TO.P,REF\u002A\u002A826,1*%
%TO.N,N/C*%
X176650000Y-124110000D03*
%TD*%
%TO.P,REF\u002A\u002A110,1*%
%TO.N,N/C*%
X146170000Y-68230000D03*
%TD*%
%TO.P,REF\u002A\u002A432,1*%
%TO.N,N/C*%
X151250000Y-93630000D03*
%TD*%
%TO.P,REF\u002A\u002A924,1*%
%TO.N,N/C*%
X181730000Y-131730000D03*
%TD*%
%TO.P,REF\u002A\u002A949,1*%
%TO.N,N/C*%
X163950000Y-134270000D03*
%TD*%
%TO.P,REF\u002A\u002A211,1*%
%TO.N,N/C*%
X158870000Y-75850000D03*
%TD*%
%TO.P,REF\u002A\u002A201,1*%
%TO.N,N/C*%
X133470000Y-75850000D03*
%TD*%
%TO.P,REF\u002A\u002A792,1*%
%TO.N,N/C*%
X171570000Y-121570000D03*
%TD*%
%TO.P,REF\u002A\u002A410,1*%
%TO.N,N/C*%
X176650000Y-91090000D03*
%TD*%
%TO.P,REF\u002A\u002A165,1*%
%TO.N,N/C*%
X123310000Y-73310000D03*
%TD*%
%TO.P,REF\u002A\u002A696,1*%
%TO.N,N/C*%
X171570000Y-113950000D03*
%TD*%
%TO.P,REF\u002A\u002A470,1*%
%TO.N,N/C*%
X166490000Y-96170000D03*
%TD*%
%TO.P,REF\u002A\u002A502,1*%
%TO.N,N/C*%
X166490000Y-98710000D03*
%TD*%
%TO.P,REF\u002A\u002A602,1*%
%TO.N,N/C*%
X176650000Y-106330000D03*
%TD*%
%TO.P,REF\u002A\u002A611,1*%
%TO.N,N/C*%
X118230000Y-108870000D03*
%TD*%
%TO.P,REF\u002A\u002A742,1*%
%TO.N,N/C*%
X125850000Y-119030000D03*
%TD*%
%TO.P,REF\u002A\u002A593,1*%
%TO.N,N/C*%
X153790000Y-106330000D03*
%TD*%
%TO.P,REF\u002A\u002A233,1*%
%TO.N,N/C*%
X133470000Y-78390000D03*
%TD*%
%TO.P,REF\u002A\u002A857,1*%
%TO.N,N/C*%
X174110000Y-126650000D03*
%TD*%
%TO.P,REF\u002A\u002A266,1*%
%TO.N,N/C*%
X136010000Y-80930000D03*
%TD*%
%TO.P,REF\u002A\u002A583,1*%
%TO.N,N/C*%
X128390000Y-106330000D03*
%TD*%
%TO.P,REF\u002A\u002A539,1*%
%TO.N,N/C*%
X179190000Y-101250000D03*
%TD*%
%TO.P,REF\u002A\u002A280,1*%
%TO.N,N/C*%
X171570000Y-80930000D03*
%TD*%
%TO.P,REF\u002A\u002A419,1*%
%TO.N,N/C*%
X118230000Y-93630000D03*
%TD*%
%TO.P,REF\u002A\u002A137,1*%
%TO.N,N/C*%
X133470000Y-70770000D03*
%TD*%
%TO.P,REF\u002A\u002A851,1*%
%TO.N,N/C*%
X158870000Y-126650000D03*
%TD*%
%TO.P,REF\u002A\u002A717,1*%
%TO.N,N/C*%
X143630000Y-116490000D03*
%TD*%
%TO.P,REF\u002A\u002A534,1*%
%TO.N,N/C*%
X166490000Y-101250000D03*
%TD*%
%TO.P,REF\u002A\u002A334,1*%
%TO.N,N/C*%
X146170000Y-86010000D03*
%TD*%
%TO.P,REF\u002A\u002A860,1*%
%TO.N,N/C*%
X181730000Y-126650000D03*
%TD*%
%TO.P,REF\u002A\u002A674,1*%
%TO.N,N/C*%
X115690000Y-113950000D03*
%TD*%
%TO.P,REF\u002A\u002A70,1*%
%TO.N,N/C*%
X125850000Y-65690000D03*
%TD*%
%TO.P,REF\u002A\u002A283,1*%
%TO.N,N/C*%
X179190000Y-80930000D03*
%TD*%
%TO.P,REF\u002A\u002A806,1*%
%TO.N,N/C*%
X125850000Y-124110000D03*
%TD*%
%TO.P,REF\u002A\u002A386,1*%
%TO.N,N/C*%
X115690000Y-91090000D03*
%TD*%
%TO.P,REF\u002A\u002A322,1*%
%TO.N,N/C*%
X115690000Y-86010000D03*
%TD*%
%TO.P,REF\u002A\u002A573,1*%
%TO.N,N/C*%
X184270000Y-103790000D03*
%TD*%
%TO.P,REF\u002A\u002A496,1*%
%TO.N,N/C*%
X151250000Y-98710000D03*
%TD*%
%TO.P,REF\u002A\u002A236,1*%
%TO.N,N/C*%
X141090000Y-78390000D03*
%TD*%
%TO.P,REF\u002A\u002A904,1*%
%TO.N,N/C*%
X130930000Y-131730000D03*
%TD*%
%TO.P,REF\u002A\u002A38,1*%
%TO.N,N/C*%
X125850000Y-63150000D03*
%TD*%
%TO.P,REF\u002A\u002A199,1*%
%TO.N,N/C*%
X128390000Y-75850000D03*
%TD*%
%TO.P,REF\u002A\u002A591,1*%
%TO.N,N/C*%
X148710000Y-106330000D03*
%TD*%
%TO.P,REF\u002A\u002A625,1*%
%TO.N,N/C*%
X153790000Y-108870000D03*
%TD*%
D16*
%TO.P,J5,1,Pin_1*%
%TO.N,VCC*%
X193710000Y-75890000D03*
D10*
%TO.P,J5,2,Pin_2*%
%TO.N,GND*%
X196250000Y-75890000D03*
%TO.P,J5,3,Pin_3*%
%TO.N,Net-(J5-Pin_3)*%
X193710000Y-78430000D03*
%TO.P,J5,4,Pin_4*%
%TO.N,GND*%
X196250000Y-78430000D03*
%TO.P,J5,5,Pin_5*%
%TO.N,Net-(J5-Pin_5)*%
X193710000Y-80970000D03*
%TO.P,J5,6,Pin_6*%
%TO.N,GND*%
X196250000Y-80970000D03*
%TO.P,J5,7,Pin_7*%
%TO.N,Net-(J5-Pin_7)*%
X193710000Y-83510000D03*
%TO.P,J5,8,Pin_8*%
%TO.N,GND*%
X196250000Y-83510000D03*
%TO.P,J5,9,Pin_9*%
%TO.N,Net-(J5-Pin_9)*%
X193710000Y-86050000D03*
%TO.P,J5,10,Pin_10*%
%TO.N,Net-(J5-Pin_10)*%
X196250000Y-86050000D03*
%TO.P,J5,11,Pin_11*%
%TO.N,Net-(J5-Pin_11)*%
X193710000Y-88590000D03*
%TO.P,J5,12,Pin_12*%
%TO.N,Net-(J5-Pin_12)*%
X196250000Y-88590000D03*
%TO.P,J5,13,Pin_13*%
%TO.N,Net-(J5-Pin_13)*%
X193710000Y-91130000D03*
%TO.P,J5,14,Pin_14*%
%TO.N,Net-(J5-Pin_14)*%
X196250000Y-91130000D03*
%TO.P,J5,15,Pin_15*%
%TO.N,Net-(J5-Pin_15)*%
X193710000Y-93670000D03*
%TO.P,J5,16,Pin_16*%
%TO.N,Net-(J5-Pin_16)*%
X196250000Y-93670000D03*
%TO.P,J5,17,Pin_17*%
%TO.N,Net-(J5-Pin_17)*%
X193710000Y-96210000D03*
%TO.P,J5,18,Pin_18*%
%TO.N,Net-(J5-Pin_18)*%
X196250000Y-96210000D03*
%TO.P,J5,19,Pin_19*%
%TO.N,Net-(J5-Pin_19)*%
X193710000Y-98750000D03*
%TO.P,J5,20,Pin_20*%
%TO.N,Net-(J5-Pin_20)*%
X196250000Y-98750000D03*
%TO.P,J5,21,Pin_21*%
%TO.N,Net-(J5-Pin_21)*%
X193710000Y-101290000D03*
%TO.P,J5,22,Pin_22*%
%TO.N,Net-(J5-Pin_22)*%
X196250000Y-101290000D03*
%TO.P,J5,23,Pin_23*%
%TO.N,Net-(J5-Pin_23)*%
X193710000Y-103830000D03*
%TO.P,J5,24,Pin_24*%
%TO.N,Net-(J5-Pin_24)*%
X196250000Y-103830000D03*
%TO.P,J5,25,Pin_25*%
%TO.N,Net-(J5-Pin_25)*%
X193710000Y-106370000D03*
%TO.P,J5,26,Pin_26*%
%TO.N,Net-(J5-Pin_26)*%
X196250000Y-106370000D03*
%TO.P,J5,27,Pin_27*%
%TO.N,Net-(J5-Pin_27)*%
X193710000Y-108910000D03*
%TO.P,J5,28,Pin_28*%
%TO.N,Net-(J5-Pin_28)*%
X196250000Y-108910000D03*
%TO.P,J5,29,Pin_29*%
%TO.N,Net-(J5-Pin_29)*%
X193710000Y-111450000D03*
%TO.P,J5,30,Pin_30*%
%TO.N,Net-(J5-Pin_30)*%
X196250000Y-111450000D03*
%TO.P,J5,31,Pin_31*%
%TO.N,Net-(J5-Pin_31)*%
X193710000Y-113990000D03*
%TO.P,J5,32,Pin_32*%
%TO.N,Net-(J5-Pin_32)*%
X196250000Y-113990000D03*
%TO.P,J5,33,Pin_33*%
%TO.N,Net-(J5-Pin_33)*%
X193710000Y-116530000D03*
%TO.P,J5,34,Pin_34*%
%TO.N,GND*%
X196250000Y-116530000D03*
%TO.P,J5,35,Pin_35*%
%TO.N,Net-(J5-Pin_35)*%
X193710000Y-119070000D03*
%TO.P,J5,36,Pin_36*%
%TO.N,GND*%
X196250000Y-119070000D03*
%TO.P,J5,37,Pin_37*%
%TO.N,Net-(J5-Pin_37)*%
X193710000Y-121610000D03*
%TO.P,J5,38,Pin_38*%
%TO.N,GND*%
X196250000Y-121610000D03*
%TO.P,J5,39,Pin_39*%
%TO.N,VCC*%
X193710000Y-124150000D03*
%TO.P,J5,40,Pin_40*%
%TO.N,GND*%
X196250000Y-124150000D03*
%TD*%
%TO.P,REF\u002A\u002A631,1*%
%TO.N,N/C*%
X169030000Y-108870000D03*
%TD*%
%TO.P,REF\u002A\u002A343,1*%
%TO.N,N/C*%
X169030000Y-86010000D03*
%TD*%
%TO.P,REF\u002A\u002A741,1*%
%TO.N,N/C*%
X123310000Y-119030000D03*
%TD*%
%TO.P,REF\u002A\u002A113,1*%
%TO.N,N/C*%
X153790000Y-68230000D03*
%TD*%
%TO.P,REF\u002A\u002A700,1*%
%TO.N,N/C*%
X181730000Y-113950000D03*
%TD*%
%TO.P,REF\u002A\u002A206,1*%
%TO.N,N/C*%
X146170000Y-75850000D03*
%TD*%
%TO.P,REF\u002A\u002A336,1*%
%TO.N,N/C*%
X151250000Y-86010000D03*
%TD*%
%TO.P,REF\u002A\u002A429,1*%
%TO.N,N/C*%
X143630000Y-93630000D03*
%TD*%
%TO.P,REF\u002A\u002A624,1*%
%TO.N,N/C*%
X151250000Y-108870000D03*
%TD*%
%TO.P,REF\u002A\u002A891,1*%
%TO.N,N/C*%
X179190000Y-129190000D03*
%TD*%
%TO.P,REF\u002A\u002A581,1*%
%TO.N,N/C*%
X123310000Y-106330000D03*
%TD*%
%TO.P,REF\u002A\u002A880,1*%
%TO.N,N/C*%
X151250000Y-129190000D03*
%TD*%
%TO.P,REF\u002A\u002A691,1*%
%TO.N,N/C*%
X158870000Y-113950000D03*
%TD*%
%TO.P,REF\u002A\u002A246,1*%
%TO.N,N/C*%
X166490000Y-78390000D03*
%TD*%
%TO.P,REF\u002A\u002A756,1*%
%TO.N,N/C*%
X161410000Y-119030000D03*
%TD*%
%TO.P,REF\u002A\u002A793,1*%
%TO.N,N/C*%
X174110000Y-121570000D03*
%TD*%
%TO.P,REF\u002A\u002A878,1*%
%TO.N,N/C*%
X146170000Y-129190000D03*
%TD*%
%TO.P,REF\u002A\u002A899,1*%
%TO.N,N/C*%
X118230000Y-131730000D03*
%TD*%
%TO.P,REF\u002A\u002A719,1*%
%TO.N,N/C*%
X148710000Y-116490000D03*
%TD*%
%TO.P,REF\u002A\u002A275,1*%
%TO.N,N/C*%
X158870000Y-80930000D03*
%TD*%
%TO.P,REF\u002A\u002A853,1*%
%TO.N,N/C*%
X163950000Y-126650000D03*
%TD*%
%TO.P,REF\u002A\u002A656,1*%
%TO.N,N/C*%
X151250000Y-111410000D03*
%TD*%
%TO.P,REF\u002A\u002A654,1*%
%TO.N,N/C*%
X146170000Y-111410000D03*
%TD*%
%TO.P,REF\u002A\u002A369,1*%
%TO.N,N/C*%
X153790000Y-88550000D03*
%TD*%
%TO.P,REF\u002A\u002A957,1*%
%TO.N,N/C*%
X184270000Y-134270000D03*
%TD*%
%TO.P,REF\u002A\u002A531,1*%
%TO.N,N/C*%
X158870000Y-101250000D03*
%TD*%
%TO.P,REF\u002A\u002A216,1*%
%TO.N,N/C*%
X171570000Y-75850000D03*
%TD*%
%TO.P,REF\u002A\u002A978,1*%
%TO.N,N/C*%
X156330000Y-136810000D03*
%TD*%
%TO.P,REF\u002A\u002A253,1*%
%TO.N,N/C*%
X184270000Y-78390000D03*
%TD*%
%TO.P,REF\u002A\u002A439,1*%
%TO.N,N/C*%
X169030000Y-93630000D03*
%TD*%
%TO.P,REF\u002A\u002A552,1*%
%TO.N,N/C*%
X130930000Y-103790000D03*
%TD*%
%TO.P,REF\u002A\u002A861,1*%
%TO.N,N/C*%
X184270000Y-126650000D03*
%TD*%
%TO.P,REF\u002A\u002A915,1*%
%TO.N,N/C*%
X158870000Y-131730000D03*
%TD*%
%TO.P,REF\u002A\u002A374,1*%
%TO.N,N/C*%
X166490000Y-88550000D03*
%TD*%
%TO.P,REF\u002A\u002A46,1*%
%TO.N,N/C*%
X146170000Y-63150000D03*
%TD*%
%TO.P,REF\u002A\u002A93,1*%
%TO.N,N/C*%
X184270000Y-65690000D03*
%TD*%
%TO.P,REF\u002A\u002A662,1*%
%TO.N,N/C*%
X166490000Y-111410000D03*
%TD*%
%TO.P,REF\u002A\u002A276,1*%
%TO.N,N/C*%
X161410000Y-80930000D03*
%TD*%
%TO.P,REF\u002A\u002A535,1*%
%TO.N,N/C*%
X169030000Y-101250000D03*
%TD*%
%TO.P,REF\u002A\u002A151,1*%
%TO.N,N/C*%
X169030000Y-70770000D03*
%TD*%
%TO.P,REF\u002A\u002A578,1*%
%TO.N,N/C*%
X115690000Y-106330000D03*
%TD*%
%TO.P,REF\u002A\u002A441,1*%
%TO.N,N/C*%
X174110000Y-93630000D03*
%TD*%
%TO.P,REF\u002A\u002A338,1*%
%TO.N,N/C*%
X156330000Y-86010000D03*
%TD*%
%TO.P,REF\u002A\u002A676,1*%
%TO.N,N/C*%
X120770000Y-113950000D03*
%TD*%
%TO.P,REF\u002A\u002A463,1*%
%TO.N,N/C*%
X148710000Y-96170000D03*
%TD*%
%TO.P,REF\u002A\u002A569,1*%
%TO.N,N/C*%
X174110000Y-103790000D03*
%TD*%
%TO.P,REF\u002A\u002A327,1*%
%TO.N,N/C*%
X128390000Y-86010000D03*
%TD*%
%TO.P,REF\u002A\u002A781,1*%
%TO.N,N/C*%
X143630000Y-121570000D03*
%TD*%
%TO.P,REF\u002A\u002A739,1*%
%TO.N,N/C*%
X118230000Y-119030000D03*
%TD*%
%TO.P,REF\u002A\u002A332,1*%
%TO.N,N/C*%
X141090000Y-86010000D03*
%TD*%
%TO.P,REF\u002A\u002A724,1*%
%TO.N,N/C*%
X161410000Y-116490000D03*
%TD*%
%TO.P,REF\u002A\u002A210,1*%
%TO.N,N/C*%
X156330000Y-75850000D03*
%TD*%
%TO.P,REF\u002A\u002A434,1*%
%TO.N,N/C*%
X156330000Y-93630000D03*
%TD*%
%TO.P,REF\u002A\u002A148,1*%
%TO.N,N/C*%
X161410000Y-70770000D03*
%TD*%
%TO.P,REF\u002A\u002A52,1*%
%TO.N,N/C*%
X161410000Y-63150000D03*
%TD*%
%TO.P,REF\u002A\u002A340,1*%
%TO.N,N/C*%
X161410000Y-86010000D03*
%TD*%
%TO.P,REF\u002A\u002A628,1*%
%TO.N,N/C*%
X161410000Y-108870000D03*
%TD*%
%TO.P,REF\u002A\u002A763,1*%
%TO.N,N/C*%
X179190000Y-119030000D03*
%TD*%
%TO.P,REF\u002A\u002A708,1*%
%TO.N,N/C*%
X120770000Y-116490000D03*
%TD*%
%TO.P,REF\u002A\u002A348,1*%
%TO.N,N/C*%
X181730000Y-86010000D03*
%TD*%
%TO.P,REF\u002A\u002A566,1*%
%TO.N,N/C*%
X166490000Y-103790000D03*
%TD*%
%TO.P,REF\u002A\u002A217,1*%
%TO.N,N/C*%
X174110000Y-75850000D03*
%TD*%
%TO.P,REF\u002A\u002A601,1*%
%TO.N,N/C*%
X174110000Y-106330000D03*
%TD*%
%TO.P,REF\u002A\u002A43,1*%
%TO.N,N/C*%
X138550000Y-63150000D03*
%TD*%
%TO.P,REF\u002A\u002A811,1*%
%TO.N,N/C*%
X138550000Y-124110000D03*
%TD*%
%TO.P,REF\u002A\u002A281,1*%
%TO.N,N/C*%
X174110000Y-80930000D03*
%TD*%
%TO.P,REF\u002A\u002A394,1*%
%TO.N,N/C*%
X136010000Y-91090000D03*
%TD*%
%TO.P,REF\u002A\u002A215,1*%
%TO.N,N/C*%
X169030000Y-75850000D03*
%TD*%
%TO.P,REF\u002A\u002A459,1*%
%TO.N,N/C*%
X138550000Y-96170000D03*
%TD*%
D16*
%TO.P,J10,1,Pin_1*%
%TO.N,Net-(J10-Pin_1)*%
X146250000Y-53000000D03*
D10*
%TO.P,J10,2,Pin_2*%
%TO.N,Net-(J10-Pin_2)*%
X148790000Y-53000000D03*
%TO.P,J10,3,Pin_3*%
%TO.N,Net-(J10-Pin_3)*%
X151330000Y-53000000D03*
%TO.P,J10,4,Pin_4*%
%TO.N,Net-(J10-Pin_4)*%
X153870000Y-53000000D03*
%TO.P,J10,5,Pin_5*%
%TO.N,Net-(J10-Pin_5)*%
X156410000Y-53000000D03*
%TO.P,J10,6,Pin_6*%
%TO.N,Net-(J10-Pin_6)*%
X158950000Y-53000000D03*
%TO.P,J10,7,Pin_7*%
%TO.N,Net-(J10-Pin_7)*%
X161490000Y-53000000D03*
%TO.P,J10,8,Pin_8*%
%TO.N,Net-(J10-Pin_8)*%
X164030000Y-53000000D03*
%TO.P,J10,9,Pin_9*%
%TO.N,Net-(J10-Pin_9)*%
X166570000Y-53000000D03*
%TO.P,J10,10,Pin_10*%
%TO.N,Net-(J10-Pin_10)*%
X169110000Y-53000000D03*
%TO.P,J10,11,Pin_11*%
%TO.N,Net-(J10-Pin_11)*%
X171650000Y-53000000D03*
%TO.P,J10,12,Pin_12*%
%TO.N,Net-(J10-Pin_12)*%
X174190000Y-53000000D03*
%TO.P,J10,13,Pin_13*%
%TO.N,Net-(J10-Pin_13)*%
X176730000Y-53000000D03*
%TO.P,J10,14,Pin_14*%
%TO.N,Net-(J10-Pin_14)*%
X179270000Y-53000000D03*
%TO.P,J10,15,Pin_15*%
%TO.N,Net-(J10-Pin_15)*%
X181810000Y-53000000D03*
%TO.P,J10,16,Pin_16*%
%TO.N,Net-(J10-Pin_16)*%
X184350000Y-53000000D03*
%TD*%
%TO.P,REF\u002A\u002A333,1*%
%TO.N,N/C*%
X143630000Y-86010000D03*
%TD*%
%TO.P,REF\u002A\u002A302,1*%
%TO.N,N/C*%
X146170000Y-83470000D03*
%TD*%
%TO.P,REF\u002A\u002A744,1*%
%TO.N,N/C*%
X130930000Y-119030000D03*
%TD*%
%TO.P,REF\u002A\u002A966,1*%
%TO.N,N/C*%
X125850000Y-136810000D03*
%TD*%
%TO.P,REF\u002A\u002A45,1*%
%TO.N,N/C*%
X143630000Y-63150000D03*
%TD*%
%TO.P,REF\u002A\u002A774,1*%
%TO.N,N/C*%
X125850000Y-121570000D03*
%TD*%
%TO.P,REF\u002A\u002A546,1*%
%TO.N,N/C*%
X115690000Y-103790000D03*
%TD*%
%TO.P,REF\u002A\u002A294,1*%
%TO.N,N/C*%
X125850000Y-83470000D03*
%TD*%
%TO.P,REF\u002A\u002A460,1*%
%TO.N,N/C*%
X141090000Y-96170000D03*
%TD*%
%TO.P,REF\u002A\u002A422,1*%
%TO.N,N/C*%
X125850000Y-93630000D03*
%TD*%
%TO.P,REF\u002A\u002A821,1*%
%TO.N,N/C*%
X163950000Y-124110000D03*
%TD*%
%TO.P,REF\u002A\u002A485,1*%
%TO.N,N/C*%
X123310000Y-98710000D03*
%TD*%
%TO.P,REF\u002A\u002A643,1*%
%TO.N,N/C*%
X118230000Y-111410000D03*
%TD*%
%TO.P,REF\u002A\u002A499,1*%
%TO.N,N/C*%
X158870000Y-98710000D03*
%TD*%
%TO.P,REF\u002A\u002A689,1*%
%TO.N,N/C*%
X153790000Y-113950000D03*
%TD*%
%TO.P,REF\u002A\u002A556,1*%
%TO.N,N/C*%
X141090000Y-103790000D03*
%TD*%
%TO.P,REF\u002A\u002A711,1*%
%TO.N,N/C*%
X128390000Y-116490000D03*
%TD*%
%TO.P,REF\u002A\u002A967,1*%
%TO.N,N/C*%
X128390000Y-136810000D03*
%TD*%
%TO.P,REF\u002A\u002A226,1*%
%TO.N,N/C*%
X115690000Y-78390000D03*
%TD*%
%TO.P,REF\u002A\u002A381,1*%
%TO.N,N/C*%
X184270000Y-88550000D03*
%TD*%
%TO.P,REF\u002A\u002A387,1*%
%TO.N,N/C*%
X118230000Y-91090000D03*
%TD*%
%TO.P,REF\u002A\u002A932,1*%
%TO.N,N/C*%
X120770000Y-134270000D03*
%TD*%
%TO.P,REF\u002A\u002A175,1*%
%TO.N,N/C*%
X148710000Y-73310000D03*
%TD*%
%TO.P,REF\u002A\u002A367,1*%
%TO.N,N/C*%
X148710000Y-88550000D03*
%TD*%
%TO.P,REF\u002A\u002A753,1*%
%TO.N,N/C*%
X153790000Y-119030000D03*
%TD*%
%TO.P,REF\u002A\u002A659,1*%
%TO.N,N/C*%
X158870000Y-111410000D03*
%TD*%
%TO.P,REF\u002A\u002A330,1*%
%TO.N,N/C*%
X136010000Y-86010000D03*
%TD*%
%TO.P,REF\u002A\u002A51,1*%
%TO.N,N/C*%
X158870000Y-63150000D03*
%TD*%
%TO.P,REF\u002A\u002A749,1*%
%TO.N,N/C*%
X143630000Y-119030000D03*
%TD*%
%TO.P,REF\u002A\u002A241,1*%
%TO.N,N/C*%
X153790000Y-78390000D03*
%TD*%
%TO.P,REF\u002A\u002A346,1*%
%TO.N,N/C*%
X176650000Y-86010000D03*
%TD*%
%TO.P,REF\u002A\u002A554,1*%
%TO.N,N/C*%
X136010000Y-103790000D03*
%TD*%
%TO.P,REF\u002A\u002A563,1*%
%TO.N,N/C*%
X158870000Y-103790000D03*
%TD*%
%TO.P,REF\u002A\u002A503,1*%
%TO.N,N/C*%
X169030000Y-98710000D03*
%TD*%
%TO.P,REF\u002A\u002A688,1*%
%TO.N,N/C*%
X151250000Y-113950000D03*
%TD*%
%TO.P,REF\u002A\u002A520,1*%
%TO.N,N/C*%
X130930000Y-101250000D03*
%TD*%
%TO.P,REF\u002A\u002A726,1*%
%TO.N,N/C*%
X166490000Y-116490000D03*
%TD*%
%TO.P,REF\u002A\u002A653,1*%
%TO.N,N/C*%
X143630000Y-111410000D03*
%TD*%
%TO.P,REF\u002A\u002A963,1*%
%TO.N,N/C*%
X118230000Y-136810000D03*
%TD*%
%TO.P,REF\u002A\u002A267,1*%
%TO.N,N/C*%
X138550000Y-80930000D03*
%TD*%
%TO.P,REF\u002A\u002A117,1*%
%TO.N,N/C*%
X163950000Y-68230000D03*
%TD*%
%TO.P,REF\u002A\u002A909,1*%
%TO.N,N/C*%
X143630000Y-131730000D03*
%TD*%
%TO.P,REF\u002A\u002A297,1*%
%TO.N,N/C*%
X133470000Y-83470000D03*
%TD*%
%TO.P,REF\u002A\u002A888,1*%
%TO.N,N/C*%
X171570000Y-129190000D03*
%TD*%
%TO.P,REF\u002A\u002A345,1*%
%TO.N,N/C*%
X174110000Y-86010000D03*
%TD*%
%TO.P,REF\u002A\u002A168,1*%
%TO.N,N/C*%
X130930000Y-73310000D03*
%TD*%
%TO.P,REF\u002A\u002A988,1*%
%TO.N,N/C*%
X181730000Y-136810000D03*
%TD*%
%TO.P,REF\u002A\u002A771,1*%
%TO.N,N/C*%
X118230000Y-121570000D03*
%TD*%
%TO.P,REF\u002A\u002A559,1*%
%TO.N,N/C*%
X148710000Y-103790000D03*
%TD*%
%TO.P,REF\u002A\u002A471,1*%
%TO.N,N/C*%
X169030000Y-96170000D03*
%TD*%
%TO.P,REF\u002A\u002A883,1*%
%TO.N,N/C*%
X158870000Y-129190000D03*
%TD*%
%TO.P,REF\u002A\u002A445,1*%
%TO.N,N/C*%
X184270000Y-93630000D03*
%TD*%
%TO.P,REF\u002A\u002A355,1*%
%TO.N,N/C*%
X118230000Y-88550000D03*
%TD*%
%TO.P,REF\u002A\u002A87,1*%
%TO.N,N/C*%
X169030000Y-65690000D03*
%TD*%
%TO.P,REF\u002A\u002A712,1*%
%TO.N,N/C*%
X130930000Y-116490000D03*
%TD*%
%TO.P,REF\u002A\u002A204,1*%
%TO.N,N/C*%
X141090000Y-75850000D03*
%TD*%
%TO.P,REF\u002A\u002A220,1*%
%TO.N,N/C*%
X181730000Y-75850000D03*
%TD*%
%TO.P,REF\u002A\u002A198,1*%
%TO.N,N/C*%
X125850000Y-75850000D03*
%TD*%
%TO.P,REF\u002A\u002A472,1*%
%TO.N,N/C*%
X171570000Y-96170000D03*
%TD*%
%TO.P,REF\u002A\u002A620,1*%
%TO.N,N/C*%
X141090000Y-108870000D03*
%TD*%
%TO.P,REF\u002A\u002A176,1*%
%TO.N,N/C*%
X151250000Y-73310000D03*
%TD*%
%TO.P,REF\u002A\u002A645,1*%
%TO.N,N/C*%
X123310000Y-111410000D03*
%TD*%
%TO.P,REF\u002A\u002A813,1*%
%TO.N,N/C*%
X143630000Y-124110000D03*
%TD*%
%TO.P,REF\u002A\u002A61,1*%
%TO.N,N/C*%
X184270000Y-63150000D03*
%TD*%
%TO.P,REF\u002A\u002A107,1*%
%TO.N,N/C*%
X138550000Y-68230000D03*
%TD*%
%TO.P,REF\u002A\u002A80,1*%
%TO.N,N/C*%
X151250000Y-65690000D03*
%TD*%
%TO.P,REF\u002A\u002A956,1*%
%TO.N,N/C*%
X181730000Y-134270000D03*
%TD*%
%TO.P,REF\u002A\u002A778,1*%
%TO.N,N/C*%
X136010000Y-121570000D03*
%TD*%
%TO.P,REF\u002A\u002A968,1*%
%TO.N,N/C*%
X130930000Y-136810000D03*
%TD*%
%TO.P,REF\u002A\u002A560,1*%
%TO.N,N/C*%
X151250000Y-103790000D03*
%TD*%
%TO.P,REF\u002A\u002A980,1*%
%TO.N,N/C*%
X161410000Y-136810000D03*
%TD*%
%TO.P,REF\u002A\u002A715,1*%
%TO.N,N/C*%
X138550000Y-116490000D03*
%TD*%
%TO.P,REF\u002A\u002A423,1*%
%TO.N,N/C*%
X128390000Y-93630000D03*
%TD*%
%TO.P,REF\u002A\u002A716,1*%
%TO.N,N/C*%
X141090000Y-116490000D03*
%TD*%
%TO.P,REF\u002A\u002A764,1*%
%TO.N,N/C*%
X181730000Y-119030000D03*
%TD*%
%TO.P,REF\u002A\u002A877,1*%
%TO.N,N/C*%
X143630000Y-129190000D03*
%TD*%
%TO.P,REF\u002A\u002A786,1*%
%TO.N,N/C*%
X156330000Y-121570000D03*
%TD*%
%TO.P,REF\u002A\u002A273,1*%
%TO.N,N/C*%
X153790000Y-80930000D03*
%TD*%
%TO.P,REF\u002A\u002A532,1*%
%TO.N,N/C*%
X161410000Y-101250000D03*
%TD*%
%TO.P,REF\u002A\u002A237,1*%
%TO.N,N/C*%
X143630000Y-78390000D03*
%TD*%
%TO.P,REF\u002A\u002A372,1*%
%TO.N,N/C*%
X161410000Y-88550000D03*
%TD*%
%TO.P,REF\u002A\u002A111,1*%
%TO.N,N/C*%
X148710000Y-68230000D03*
%TD*%
%TO.P,REF\u002A\u002A421,1*%
%TO.N,N/C*%
X123310000Y-93630000D03*
%TD*%
%TO.P,REF\u002A\u002A230,1*%
%TO.N,N/C*%
X125850000Y-78390000D03*
%TD*%
%TO.P,REF\u002A\u002A807,1*%
%TO.N,N/C*%
X128390000Y-124110000D03*
%TD*%
%TO.P,REF\u002A\u002A227,1*%
%TO.N,N/C*%
X118230000Y-78390000D03*
%TD*%
%TO.P,REF\u002A\u002A376,1*%
%TO.N,N/C*%
X171570000Y-88550000D03*
%TD*%
%TO.P,REF\u002A\u002A876,1*%
%TO.N,N/C*%
X141090000Y-129190000D03*
%TD*%
%TO.P,REF\u002A\u002A268,1*%
%TO.N,N/C*%
X141090000Y-80930000D03*
%TD*%
%TO.P,REF\u002A\u002A547,1*%
%TO.N,N/C*%
X118230000Y-103790000D03*
%TD*%
%TO.P,REF\u002A\u002A817,1*%
%TO.N,N/C*%
X153790000Y-124110000D03*
%TD*%
%TO.P,REF\u002A\u002A109,1*%
%TO.N,N/C*%
X143630000Y-68230000D03*
%TD*%
%TO.P,REF\u002A\u002A683,1*%
%TO.N,N/C*%
X138550000Y-113950000D03*
%TD*%
%TO.P,REF\u002A\u002A219,1*%
%TO.N,N/C*%
X179190000Y-75850000D03*
%TD*%
%TO.P,REF\u002A\u002A946,1*%
%TO.N,N/C*%
X156330000Y-134270000D03*
%TD*%
%TO.P,REF\u002A\u002A142,1*%
%TO.N,N/C*%
X146170000Y-70770000D03*
%TD*%
%TO.P,REF\u002A\u002A875,1*%
%TO.N,N/C*%
X138550000Y-129190000D03*
%TD*%
%TO.P,REF\u002A\u002A184,1*%
%TO.N,N/C*%
X171570000Y-73310000D03*
%TD*%
%TO.P,REF\u002A\u002A975,1*%
%TO.N,N/C*%
X148710000Y-136810000D03*
%TD*%
%TO.P,REF\u002A\u002A522,1*%
%TO.N,N/C*%
X136010000Y-101250000D03*
%TD*%
%TO.P,REF\u002A\u002A587,1*%
%TO.N,N/C*%
X138550000Y-106330000D03*
%TD*%
%TO.P,REF\u002A\u002A98,1*%
%TO.N,N/C*%
X115690000Y-68230000D03*
%TD*%
%TO.P,REF\u002A\u002A483,1*%
%TO.N,N/C*%
X118230000Y-98710000D03*
%TD*%
%TO.P,REF\u002A\u002A122,1*%
%TO.N,N/C*%
X176650000Y-68230000D03*
%TD*%
%TO.P,REF\u002A\u002A524,1*%
%TO.N,N/C*%
X141090000Y-101250000D03*
%TD*%
%TO.P,REF\u002A\u002A427,1*%
%TO.N,N/C*%
X138550000Y-93630000D03*
%TD*%
%TO.P,REF\u002A\u002A476,1*%
%TO.N,N/C*%
X181730000Y-96170000D03*
%TD*%
%TO.P,REF\u002A\u002A572,1*%
%TO.N,N/C*%
X181730000Y-103790000D03*
%TD*%
%TO.P,REF\u002A\u002A933,1*%
%TO.N,N/C*%
X123310000Y-134270000D03*
%TD*%
%TO.P,REF\u002A\u002A658,1*%
%TO.N,N/C*%
X156330000Y-111410000D03*
%TD*%
%TO.P,REF\u002A\u002A523,1*%
%TO.N,N/C*%
X138550000Y-101250000D03*
%TD*%
%TO.P,REF\u002A\u002A457,1*%
%TO.N,N/C*%
X133470000Y-96170000D03*
%TD*%
%TO.P,REF\u002A\u002A836,1*%
%TO.N,N/C*%
X120770000Y-126650000D03*
%TD*%
%TO.P,REF\u002A\u002A629,1*%
%TO.N,N/C*%
X163950000Y-108870000D03*
%TD*%
%TO.P,REF\u002A\u002A453,1*%
%TO.N,N/C*%
X123310000Y-96170000D03*
%TD*%
%TO.P,REF\u002A\u002A194,1*%
%TO.N,N/C*%
X115690000Y-75850000D03*
%TD*%
%TO.P,REF\u002A\u002A84,1*%
%TO.N,N/C*%
X161410000Y-65690000D03*
%TD*%
%TO.P,REF\u002A\u002A951,1*%
%TO.N,N/C*%
X169030000Y-134270000D03*
%TD*%
%TO.P,REF\u002A\u002A403,1*%
%TO.N,N/C*%
X158870000Y-91090000D03*
%TD*%
%TO.P,REF\u002A\u002A845,1*%
%TO.N,N/C*%
X143630000Y-126650000D03*
%TD*%
%TO.P,REF\u002A\u002A835,1*%
%TO.N,N/C*%
X118230000Y-126650000D03*
%TD*%
%TO.P,REF\u002A\u002A212,1*%
%TO.N,N/C*%
X161410000Y-75850000D03*
%TD*%
%TO.P,REF\u002A\u002A85,1*%
%TO.N,N/C*%
X163950000Y-65690000D03*
%TD*%
%TO.P,REF\u002A\u002A970,1*%
%TO.N,N/C*%
X136010000Y-136810000D03*
%TD*%
%TO.P,REF\u002A\u002A751,1*%
%TO.N,N/C*%
X148710000Y-119030000D03*
%TD*%
%TO.P,REF\u002A\u002A635,1*%
%TO.N,N/C*%
X179190000Y-108870000D03*
%TD*%
%TO.P,REF\u002A\u002A77,1*%
%TO.N,N/C*%
X143630000Y-65690000D03*
%TD*%
%TO.P,REF\u002A\u002A526,1*%
%TO.N,N/C*%
X146170000Y-101250000D03*
%TD*%
%TO.P,REF\u002A\u002A79,1*%
%TO.N,N/C*%
X148710000Y-65690000D03*
%TD*%
%TO.P,REF\u002A\u002A663,1*%
%TO.N,N/C*%
X169030000Y-111410000D03*
%TD*%
%TO.P,REF\u002A\u002A847,1*%
%TO.N,N/C*%
X148710000Y-126650000D03*
%TD*%
%TO.P,REF\u002A\u002A173,1*%
%TO.N,N/C*%
X143630000Y-73310000D03*
%TD*%
%TO.P,REF\u002A\u002A86,1*%
%TO.N,N/C*%
X166490000Y-65690000D03*
%TD*%
%TO.P,REF\u002A\u002A152,1*%
%TO.N,N/C*%
X171570000Y-70770000D03*
%TD*%
%TO.P,REF\u002A\u002A802,1*%
%TO.N,N/C*%
X115690000Y-124110000D03*
%TD*%
%TO.P,REF\u002A\u002A185,1*%
%TO.N,N/C*%
X174110000Y-73310000D03*
%TD*%
%TO.P,REF\u002A\u002A872,1*%
%TO.N,N/C*%
X130930000Y-129190000D03*
%TD*%
%TO.P,REF\u002A\u002A597,1*%
%TO.N,N/C*%
X163950000Y-106330000D03*
%TD*%
%TO.P,REF\u002A\u002A251,1*%
%TO.N,N/C*%
X179190000Y-78390000D03*
%TD*%
%TO.P,REF\u002A\u002A783,1*%
%TO.N,N/C*%
X148710000Y-121570000D03*
%TD*%
%TO.P,REF\u002A\u002A914,1*%
%TO.N,N/C*%
X156330000Y-131730000D03*
%TD*%
%TO.P,REF\u002A\u002A942,1*%
%TO.N,N/C*%
X146170000Y-134270000D03*
%TD*%
%TO.P,REF\u002A\u002A770,1*%
%TO.N,N/C*%
X115690000Y-121570000D03*
%TD*%
%TO.P,REF\u002A\u002A34,1*%
%TO.N,N/C*%
X115690000Y-63150000D03*
%TD*%
%TO.P,REF\u002A\u002A596,1*%
%TO.N,N/C*%
X161410000Y-106330000D03*
%TD*%
%TO.P,REF\u002A\u002A231,1*%
%TO.N,N/C*%
X128390000Y-78390000D03*
%TD*%
%TO.P,REF\u002A\u002A412,1*%
%TO.N,N/C*%
X181730000Y-91090000D03*
%TD*%
%TO.P,REF\u002A\u002A132,1*%
%TO.N,N/C*%
X120770000Y-70770000D03*
%TD*%
%TO.P,REF\u002A\u002A780,1*%
%TO.N,N/C*%
X141090000Y-121570000D03*
%TD*%
%TO.P,REF\u002A\u002A329,1*%
%TO.N,N/C*%
X133470000Y-86010000D03*
%TD*%
%TO.P,REF\u002A\u002A614,1*%
%TO.N,N/C*%
X125850000Y-108870000D03*
%TD*%
%TO.P,REF\u002A\u002A437,1*%
%TO.N,N/C*%
X163950000Y-93630000D03*
%TD*%
%TO.P,REF\u002A\u002A108,1*%
%TO.N,N/C*%
X141090000Y-68230000D03*
%TD*%
%TO.P,REF\u002A\u002A504,1*%
%TO.N,N/C*%
X171570000Y-98710000D03*
%TD*%
%TO.P,REF\u002A\u002A699,1*%
%TO.N,N/C*%
X179190000Y-113950000D03*
%TD*%
%TO.P,REF\u002A\u002A728,1*%
%TO.N,N/C*%
X171570000Y-116490000D03*
%TD*%
%TO.P,REF\u002A\u002A722,1*%
%TO.N,N/C*%
X156330000Y-116490000D03*
%TD*%
%TO.P,REF\u002A\u002A818,1*%
%TO.N,N/C*%
X156330000Y-124110000D03*
%TD*%
%TO.P,REF\u002A\u002A869,1*%
%TO.N,N/C*%
X123310000Y-129190000D03*
%TD*%
%TO.P,REF\u002A\u002A378,1*%
%TO.N,N/C*%
X176650000Y-88550000D03*
%TD*%
%TO.P,REF\u002A\u002A906,1*%
%TO.N,N/C*%
X136010000Y-131730000D03*
%TD*%
%TO.P,REF\u002A\u002A809,1*%
%TO.N,N/C*%
X133470000Y-124110000D03*
%TD*%
%TO.P,REF\u002A\u002A637,1*%
%TO.N,N/C*%
X184270000Y-108870000D03*
%TD*%
%TO.P,REF\u002A\u002A890,1*%
%TO.N,N/C*%
X176650000Y-129190000D03*
%TD*%
%TO.P,REF\u002A\u002A76,1*%
%TO.N,N/C*%
X141090000Y-65690000D03*
%TD*%
%TO.P,REF\u002A\u002A537,1*%
%TO.N,N/C*%
X174110000Y-101250000D03*
%TD*%
%TO.P,REF\u002A\u002A698,1*%
%TO.N,N/C*%
X176650000Y-113950000D03*
%TD*%
%TO.P,REF\u002A\u002A101,1*%
%TO.N,N/C*%
X123310000Y-68230000D03*
%TD*%
%TO.P,REF\u002A\u002A146,1*%
%TO.N,N/C*%
X156330000Y-70770000D03*
%TD*%
D11*
%TO.P,J3,1,Pin_1*%
%TO.N,GND*%
X105000000Y-145000000D03*
D12*
X105000000Y-145000000D03*
%TD*%
D10*
%TO.P,REF\u002A\u002A307,1*%
%TO.N,N/C*%
X158870000Y-83470000D03*
%TD*%
%TO.P,REF\u002A\u002A871,1*%
%TO.N,N/C*%
X128390000Y-129190000D03*
%TD*%
%TO.P,REF\u002A\u002A263,1*%
%TO.N,N/C*%
X128390000Y-80930000D03*
%TD*%
%TO.P,REF\u002A\u002A357,1*%
%TO.N,N/C*%
X123310000Y-88550000D03*
%TD*%
%TO.P,REF\u002A\u002A50,1*%
%TO.N,N/C*%
X156330000Y-63150000D03*
%TD*%
%TO.P,REF\u002A\u002A67,1*%
%TO.N,N/C*%
X118230000Y-65690000D03*
%TD*%
%TO.P,REF\u002A\u002A238,1*%
%TO.N,N/C*%
X146170000Y-78390000D03*
%TD*%
%TO.P,REF\u002A\u002A527,1*%
%TO.N,N/C*%
X148710000Y-101250000D03*
%TD*%
%TO.P,REF\u002A\u002A143,1*%
%TO.N,N/C*%
X148710000Y-70770000D03*
%TD*%
%TO.P,REF\u002A\u002A279,1*%
%TO.N,N/C*%
X169030000Y-80930000D03*
%TD*%
%TO.P,REF\u002A\u002A259,1*%
%TO.N,N/C*%
X118230000Y-80930000D03*
%TD*%
%TO.P,REF\u002A\u002A314,1*%
%TO.N,N/C*%
X176650000Y-83470000D03*
%TD*%
%TO.P,REF\u002A\u002A707,1*%
%TO.N,N/C*%
X118230000Y-116490000D03*
%TD*%
%TO.P,REF\u002A\u002A313,1*%
%TO.N,N/C*%
X174110000Y-83470000D03*
%TD*%
%TO.P,REF\u002A\u002A214,1*%
%TO.N,N/C*%
X166490000Y-75850000D03*
%TD*%
%TO.P,REF\u002A\u002A309,1*%
%TO.N,N/C*%
X163950000Y-83470000D03*
%TD*%
%TO.P,REF\u002A\u002A848,1*%
%TO.N,N/C*%
X151250000Y-126650000D03*
%TD*%
%TO.P,REF\u002A\u002A465,1*%
%TO.N,N/C*%
X153790000Y-96170000D03*
%TD*%
%TO.P,REF\u002A\u002A840,1*%
%TO.N,N/C*%
X130930000Y-126650000D03*
%TD*%
%TO.P,REF\u002A\u002A162,1*%
%TO.N,N/C*%
X115690000Y-73310000D03*
%TD*%
%TO.P,REF\u002A\u002A615,1*%
%TO.N,N/C*%
X128390000Y-108870000D03*
%TD*%
%TO.P,REF\u002A\u002A889,1*%
%TO.N,N/C*%
X174110000Y-129190000D03*
%TD*%
%TO.P,REF\u002A\u002A973,1*%
%TO.N,N/C*%
X143630000Y-136810000D03*
%TD*%
%TO.P,REF\u002A\u002A428,1*%
%TO.N,N/C*%
X141090000Y-93630000D03*
%TD*%
%TO.P,REF\u002A\u002A82,1*%
%TO.N,N/C*%
X156330000Y-65690000D03*
%TD*%
%TO.P,REF\u002A\u002A290,1*%
%TO.N,N/C*%
X115690000Y-83470000D03*
%TD*%
%TO.P,REF\u002A\u002A171,1*%
%TO.N,N/C*%
X138550000Y-73310000D03*
%TD*%
%TO.P,REF\u002A\u002A525,1*%
%TO.N,N/C*%
X143630000Y-101250000D03*
%TD*%
%TO.P,REF\u002A\u002A750,1*%
%TO.N,N/C*%
X146170000Y-119030000D03*
%TD*%
%TO.P,REF\u002A\u002A41,1*%
%TO.N,N/C*%
X133470000Y-63150000D03*
%TD*%
%TO.P,REF\u002A\u002A371,1*%
%TO.N,N/C*%
X158870000Y-88550000D03*
%TD*%
%TO.P,REF\u002A\u002A570,1*%
%TO.N,N/C*%
X176650000Y-103790000D03*
%TD*%
D16*
%TO.P,J8,1,Pin_1*%
%TO.N,GND*%
X103725000Y-75875000D03*
D10*
%TO.P,J8,2,Pin_2*%
%TO.N,VCC*%
X106265000Y-75875000D03*
%TO.P,J8,3,Pin_3*%
%TO.N,GND*%
X103725000Y-78415000D03*
%TO.P,J8,4,Pin_4*%
%TO.N,Net-(J7-Pin_1)*%
X106265000Y-78415000D03*
%TO.P,J8,5,Pin_5*%
%TO.N,GND*%
X103725000Y-80955000D03*
%TO.P,J8,6,Pin_6*%
%TO.N,Net-(J7-Pin_2)*%
X106265000Y-80955000D03*
%TO.P,J8,7,Pin_7*%
%TO.N,GND*%
X103725000Y-83495000D03*
%TO.P,J8,8,Pin_8*%
%TO.N,Net-(J7-Pin_3)*%
X106265000Y-83495000D03*
%TO.P,J8,9,Pin_9*%
%TO.N,Net-(J7-Pin_4)*%
X103725000Y-86035000D03*
%TO.P,J8,10,Pin_10*%
%TO.N,Net-(J7-Pin_5)*%
X106265000Y-86035000D03*
%TO.P,J8,11,Pin_11*%
%TO.N,Net-(J7-Pin_6)*%
X103725000Y-88575000D03*
%TO.P,J8,12,Pin_12*%
%TO.N,Net-(J7-Pin_7)*%
X106265000Y-88575000D03*
%TO.P,J8,13,Pin_13*%
%TO.N,Net-(J7-Pin_8)*%
X103725000Y-91115000D03*
%TO.P,J8,14,Pin_14*%
%TO.N,Net-(J7-Pin_9)*%
X106265000Y-91115000D03*
%TO.P,J8,15,Pin_15*%
%TO.N,Net-(J7-Pin_10)*%
X103725000Y-93655000D03*
%TO.P,J8,16,Pin_16*%
%TO.N,Net-(J7-Pin_11)*%
X106265000Y-93655000D03*
%TO.P,J8,17,Pin_17*%
%TO.N,Net-(J7-Pin_12)*%
X103725000Y-96195000D03*
%TO.P,J8,18,Pin_18*%
%TO.N,Net-(J7-Pin_13)*%
X106265000Y-96195000D03*
%TO.P,J8,19,Pin_19*%
%TO.N,Net-(J7-Pin_14)*%
X103725000Y-98735000D03*
%TO.P,J8,20,Pin_20*%
%TO.N,Net-(J7-Pin_15)*%
X106265000Y-98735000D03*
%TO.P,J8,21,Pin_21*%
%TO.N,Net-(J7-Pin_16)*%
X103725000Y-101275000D03*
%TO.P,J8,22,Pin_22*%
%TO.N,Net-(J7-Pin_17)*%
X106265000Y-101275000D03*
%TO.P,J8,23,Pin_23*%
%TO.N,Net-(J7-Pin_18)*%
X103725000Y-103815000D03*
%TO.P,J8,24,Pin_24*%
%TO.N,Net-(J7-Pin_19)*%
X106265000Y-103815000D03*
%TO.P,J8,25,Pin_25*%
%TO.N,Net-(J7-Pin_20)*%
X103725000Y-106355000D03*
%TO.P,J8,26,Pin_26*%
%TO.N,Net-(J7-Pin_21)*%
X106265000Y-106355000D03*
%TO.P,J8,27,Pin_27*%
%TO.N,Net-(J7-Pin_22)*%
X103725000Y-108895000D03*
%TO.P,J8,28,Pin_28*%
%TO.N,Net-(J7-Pin_23)*%
X106265000Y-108895000D03*
%TO.P,J8,29,Pin_29*%
%TO.N,Net-(J7-Pin_24)*%
X103725000Y-111435000D03*
%TO.P,J8,30,Pin_30*%
%TO.N,Net-(J7-Pin_25)*%
X106265000Y-111435000D03*
%TO.P,J8,31,Pin_31*%
%TO.N,Net-(J7-Pin_26)*%
X103725000Y-113975000D03*
%TO.P,J8,32,Pin_32*%
%TO.N,Net-(J7-Pin_27)*%
X106265000Y-113975000D03*
%TO.P,J8,33,Pin_33*%
%TO.N,GND*%
X103725000Y-116515000D03*
%TO.P,J8,34,Pin_34*%
%TO.N,Net-(J7-Pin_28)*%
X106265000Y-116515000D03*
%TO.P,J8,35,Pin_35*%
%TO.N,GND*%
X103725000Y-119055000D03*
%TO.P,J8,36,Pin_36*%
%TO.N,Net-(J7-Pin_29)*%
X106265000Y-119055000D03*
%TO.P,J8,37,Pin_37*%
%TO.N,GND*%
X103725000Y-121595000D03*
%TO.P,J8,38,Pin_38*%
%TO.N,Net-(J7-Pin_30)*%
X106265000Y-121595000D03*
%TO.P,J8,39,Pin_39*%
%TO.N,GND*%
X103725000Y-124135000D03*
%TO.P,J8,40,Pin_40*%
%TO.N,VCC*%
X106265000Y-124135000D03*
%TD*%
%TO.P,REF\u002A\u002A859,1*%
%TO.N,N/C*%
X179190000Y-126650000D03*
%TD*%
%TO.P,REF\u002A\u002A182,1*%
%TO.N,N/C*%
X166490000Y-73310000D03*
%TD*%
%TO.P,REF\u002A\u002A682,1*%
%TO.N,N/C*%
X136010000Y-113950000D03*
%TD*%
%TO.P,REF\u002A\u002A981,1*%
%TO.N,N/C*%
X163950000Y-136810000D03*
%TD*%
%TO.P,REF\u002A\u002A773,1*%
%TO.N,N/C*%
X123310000Y-121570000D03*
%TD*%
D11*
%TO.P,J4,1,Pin_1*%
%TO.N,GND*%
X195000000Y-145000000D03*
D12*
X195000000Y-145000000D03*
%TD*%
D10*
%TO.P,REF\u002A\u002A692,1*%
%TO.N,N/C*%
X161410000Y-113950000D03*
%TD*%
%TO.P,REF\u002A\u002A822,1*%
%TO.N,N/C*%
X166490000Y-124110000D03*
%TD*%
%TO.P,REF\u002A\u002A100,1*%
%TO.N,N/C*%
X120770000Y-68230000D03*
%TD*%
%TO.P,REF\u002A\u002A632,1*%
%TO.N,N/C*%
X171570000Y-108870000D03*
%TD*%
%TO.P,REF\u002A\u002A962,1*%
%TO.N,N/C*%
X115690000Y-136810000D03*
%TD*%
%TO.P,REF\u002A\u002A971,1*%
%TO.N,N/C*%
X138550000Y-136810000D03*
%TD*%
%TO.P,REF\u002A\u002A568,1*%
%TO.N,N/C*%
X171570000Y-103790000D03*
%TD*%
%TO.P,REF\u002A\u002A57,1*%
%TO.N,N/C*%
X174110000Y-63150000D03*
%TD*%
%TO.P,REF\u002A\u002A684,1*%
%TO.N,N/C*%
X141090000Y-113950000D03*
%TD*%
%TO.P,REF\u002A\u002A842,1*%
%TO.N,N/C*%
X136010000Y-126650000D03*
%TD*%
%TO.P,REF\u002A\u002A349,1*%
%TO.N,N/C*%
X184270000Y-86010000D03*
%TD*%
%TO.P,REF\u002A\u002A296,1*%
%TO.N,N/C*%
X130930000Y-83470000D03*
%TD*%
%TO.P,REF\u002A\u002A311,1*%
%TO.N,N/C*%
X169030000Y-83470000D03*
%TD*%
%TO.P,REF\u002A\u002A475,1*%
%TO.N,N/C*%
X179190000Y-96170000D03*
%TD*%
%TO.P,REF\u002A\u002A360,1*%
%TO.N,N/C*%
X130930000Y-88550000D03*
%TD*%
%TO.P,REF\u002A\u002A505,1*%
%TO.N,N/C*%
X174110000Y-98710000D03*
%TD*%
%TO.P,REF\u002A\u002A667,1*%
%TO.N,N/C*%
X179190000Y-111410000D03*
%TD*%
%TO.P,REF\u002A\u002A905,1*%
%TO.N,N/C*%
X133470000Y-131730000D03*
%TD*%
%TO.P,REF\u002A\u002A494,1*%
%TO.N,N/C*%
X146170000Y-98710000D03*
%TD*%
%TO.P,REF\u002A\u002A866,1*%
%TO.N,N/C*%
X115690000Y-129190000D03*
%TD*%
%TO.P,REF\u002A\u002A944,1*%
%TO.N,N/C*%
X151250000Y-134270000D03*
%TD*%
%TO.P,REF\u002A\u002A138,1*%
%TO.N,N/C*%
X136010000Y-70770000D03*
%TD*%
%TO.P,REF\u002A\u002A316,1*%
%TO.N,N/C*%
X181730000Y-83470000D03*
%TD*%
%TO.P,REF\u002A\u002A157,1*%
%TO.N,N/C*%
X184270000Y-70770000D03*
%TD*%
%TO.P,REF\u002A\u002A354,1*%
%TO.N,N/C*%
X115690000Y-88550000D03*
%TD*%
%TO.P,REF\u002A\u002A284,1*%
%TO.N,N/C*%
X181730000Y-80930000D03*
%TD*%
%TO.P,REF\u002A\u002A102,1*%
%TO.N,N/C*%
X125850000Y-68230000D03*
%TD*%
%TO.P,REF\u002A\u002A648,1*%
%TO.N,N/C*%
X130930000Y-111410000D03*
%TD*%
%TO.P,REF\u002A\u002A48,1*%
%TO.N,N/C*%
X151250000Y-63150000D03*
%TD*%
%TO.P,REF\u002A\u002A59,1*%
%TO.N,N/C*%
X179190000Y-63150000D03*
%TD*%
%TO.P,REF\u002A\u002A442,1*%
%TO.N,N/C*%
X176650000Y-93630000D03*
%TD*%
%TO.P,REF\u002A\u002A564,1*%
%TO.N,N/C*%
X161410000Y-103790000D03*
%TD*%
%TO.P,REF\u002A\u002A71,1*%
%TO.N,N/C*%
X128390000Y-65690000D03*
%TD*%
D11*
%TO.P,J1,1,Pin_1*%
%TO.N,GND*%
X105000000Y-55000000D03*
D12*
X105000000Y-55000000D03*
%TD*%
D10*
%TO.P,REF\u002A\u002A435,1*%
%TO.N,N/C*%
X158870000Y-93630000D03*
%TD*%
%TO.P,REF\u002A\u002A898,1*%
%TO.N,N/C*%
X115690000Y-131730000D03*
%TD*%
%TO.P,REF\u002A\u002A366,1*%
%TO.N,N/C*%
X146170000Y-88550000D03*
%TD*%
%TO.P,REF\u002A\u002A407,1*%
%TO.N,N/C*%
X169030000Y-91090000D03*
%TD*%
%TO.P,REF\u002A\u002A714,1*%
%TO.N,N/C*%
X136010000Y-116490000D03*
%TD*%
%TO.P,REF\u002A\u002A308,1*%
%TO.N,N/C*%
X161410000Y-83470000D03*
%TD*%
%TO.P,REF\u002A\u002A195,1*%
%TO.N,N/C*%
X118230000Y-75850000D03*
%TD*%
%TO.P,REF\u002A\u002A183,1*%
%TO.N,N/C*%
X169030000Y-73310000D03*
%TD*%
%TO.P,REF\u002A\u002A964,1*%
%TO.N,N/C*%
X120770000Y-136810000D03*
%TD*%
%TO.P,REF\u002A\u002A420,1*%
%TO.N,N/C*%
X120770000Y-93630000D03*
%TD*%
%TO.P,REF\u002A\u002A474,1*%
%TO.N,N/C*%
X176650000Y-96170000D03*
%TD*%
%TO.P,REF\u002A\u002A167,1*%
%TO.N,N/C*%
X128390000Y-73310000D03*
%TD*%
%TO.P,REF\u002A\u002A760,1*%
%TO.N,N/C*%
X171570000Y-119030000D03*
%TD*%
%TO.P,REF\u002A\u002A776,1*%
%TO.N,N/C*%
X130930000Y-121570000D03*
%TD*%
%TO.P,REF\u002A\u002A200,1*%
%TO.N,N/C*%
X130930000Y-75850000D03*
%TD*%
%TO.P,REF\u002A\u002A678,1*%
%TO.N,N/C*%
X125850000Y-113950000D03*
%TD*%
%TO.P,REF\u002A\u002A356,1*%
%TO.N,N/C*%
X120770000Y-88550000D03*
%TD*%
%TO.P,REF\u002A\u002A590,1*%
%TO.N,N/C*%
X146170000Y-106330000D03*
%TD*%
%TO.P,REF\u002A\u002A694,1*%
%TO.N,N/C*%
X166490000Y-113950000D03*
%TD*%
%TO.P,REF\u002A\u002A154,1*%
%TO.N,N/C*%
X176650000Y-70770000D03*
%TD*%
%TO.P,REF\u002A\u002A661,1*%
%TO.N,N/C*%
X163950000Y-111410000D03*
%TD*%
%TO.P,REF\u002A\u002A405,1*%
%TO.N,N/C*%
X163950000Y-91090000D03*
%TD*%
%TO.P,REF\u002A\u002A130,1*%
%TO.N,N/C*%
X115690000Y-70770000D03*
%TD*%
%TO.P,REF\u002A\u002A954,1*%
%TO.N,N/C*%
X176650000Y-134270000D03*
%TD*%
%TO.P,REF\u002A\u002A260,1*%
%TO.N,N/C*%
X120770000Y-80930000D03*
%TD*%
%TO.P,REF\u002A\u002A790,1*%
%TO.N,N/C*%
X166490000Y-121570000D03*
%TD*%
%TO.P,REF\u002A\u002A965,1*%
%TO.N,N/C*%
X123310000Y-136810000D03*
%TD*%
%TO.P,REF\u002A\u002A948,1*%
%TO.N,N/C*%
X161410000Y-134270000D03*
%TD*%
%TO.P,REF\u002A\u002A795,1*%
%TO.N,N/C*%
X179190000Y-121570000D03*
%TD*%
%TO.P,REF\u002A\u002A301,1*%
%TO.N,N/C*%
X143630000Y-83470000D03*
%TD*%
%TO.P,REF\u002A\u002A462,1*%
%TO.N,N/C*%
X146170000Y-96170000D03*
%TD*%
%TO.P,REF\u002A\u002A335,1*%
%TO.N,N/C*%
X148710000Y-86010000D03*
%TD*%
%TO.P,REF\u002A\u002A323,1*%
%TO.N,N/C*%
X118230000Y-86010000D03*
%TD*%
%TO.P,REF\u002A\u002A91,1*%
%TO.N,N/C*%
X179190000Y-65690000D03*
%TD*%
%TO.P,REF\u002A\u002A78,1*%
%TO.N,N/C*%
X146170000Y-65690000D03*
%TD*%
%TO.P,REF\u002A\u002A794,1*%
%TO.N,N/C*%
X176650000Y-121570000D03*
%TD*%
%TO.P,REF\u002A\u002A819,1*%
%TO.N,N/C*%
X158870000Y-124110000D03*
%TD*%
%TO.P,REF\u002A\u002A508,1*%
%TO.N,N/C*%
X181730000Y-98710000D03*
%TD*%
%TO.P,REF\u002A\u002A940,1*%
%TO.N,N/C*%
X141090000Y-134270000D03*
%TD*%
%TO.P,REF\u002A\u002A852,1*%
%TO.N,N/C*%
X161410000Y-126650000D03*
%TD*%
%TO.P,REF\u002A\u002A398,1*%
%TO.N,N/C*%
X146170000Y-91090000D03*
%TD*%
%TO.P,REF\u002A\u002A83,1*%
%TO.N,N/C*%
X158870000Y-65690000D03*
%TD*%
%TO.P,REF\u002A\u002A426,1*%
%TO.N,N/C*%
X136010000Y-93630000D03*
%TD*%
%TO.P,REF\u002A\u002A473,1*%
%TO.N,N/C*%
X174110000Y-96170000D03*
%TD*%
%TO.P,REF\u002A\u002A489,1*%
%TO.N,N/C*%
X133470000Y-98710000D03*
%TD*%
%TO.P,REF\u002A\u002A762,1*%
%TO.N,N/C*%
X176650000Y-119030000D03*
%TD*%
%TO.P,REF\u002A\u002A339,1*%
%TO.N,N/C*%
X158870000Y-86010000D03*
%TD*%
%TO.P,REF\u002A\u002A584,1*%
%TO.N,N/C*%
X130930000Y-106330000D03*
%TD*%
%TO.P,REF\u002A\u002A757,1*%
%TO.N,N/C*%
X163950000Y-119030000D03*
%TD*%
%TO.P,REF\u002A\u002A660,1*%
%TO.N,N/C*%
X161410000Y-111410000D03*
%TD*%
%TO.P,REF\u002A\u002A738,1*%
%TO.N,N/C*%
X115690000Y-119030000D03*
%TD*%
%TO.P,REF\u002A\u002A295,1*%
%TO.N,N/C*%
X128390000Y-83470000D03*
%TD*%
%TO.P,REF\u002A\u002A337,1*%
%TO.N,N/C*%
X153790000Y-86010000D03*
%TD*%
%TO.P,REF\u002A\u002A727,1*%
%TO.N,N/C*%
X169030000Y-116490000D03*
%TD*%
%TO.P,REF\u002A\u002A431,1*%
%TO.N,N/C*%
X148710000Y-93630000D03*
%TD*%
%TO.P,REF\u002A\u002A123,1*%
%TO.N,N/C*%
X179190000Y-68230000D03*
%TD*%
%TO.P,REF\u002A\u002A912,1*%
%TO.N,N/C*%
X151250000Y-131730000D03*
%TD*%
%TO.P,REF\u002A\u002A874,1*%
%TO.N,N/C*%
X136010000Y-129190000D03*
%TD*%
%TO.P,REF\u002A\u002A395,1*%
%TO.N,N/C*%
X138550000Y-91090000D03*
%TD*%
%TO.P,REF\u002A\u002A955,1*%
%TO.N,N/C*%
X179190000Y-134270000D03*
%TD*%
%TO.P,REF\u002A\u002A424,1*%
%TO.N,N/C*%
X130930000Y-93630000D03*
%TD*%
%TO.P,REF\u002A\u002A917,1*%
%TO.N,N/C*%
X163950000Y-131730000D03*
%TD*%
%TO.P,REF\u002A\u002A803,1*%
%TO.N,N/C*%
X118230000Y-124110000D03*
%TD*%
%TO.P,REF\u002A\u002A469,1*%
%TO.N,N/C*%
X163950000Y-96170000D03*
%TD*%
%TO.P,REF\u002A\u002A592,1*%
%TO.N,N/C*%
X151250000Y-106330000D03*
%TD*%
%TO.P,REF\u002A\u002A775,1*%
%TO.N,N/C*%
X128390000Y-121570000D03*
%TD*%
%TO.P,REF\u002A\u002A490,1*%
%TO.N,N/C*%
X136010000Y-98710000D03*
%TD*%
%TO.P,REF\u002A\u002A729,1*%
%TO.N,N/C*%
X174110000Y-116490000D03*
%TD*%
%TO.P,REF\u002A\u002A669,1*%
%TO.N,N/C*%
X184270000Y-111410000D03*
%TD*%
%TO.P,REF\u002A\u002A796,1*%
%TO.N,N/C*%
X181730000Y-121570000D03*
%TD*%
%TO.P,REF\u002A\u002A644,1*%
%TO.N,N/C*%
X120770000Y-111410000D03*
%TD*%
%TO.P,REF\u002A\u002A178,1*%
%TO.N,N/C*%
X156330000Y-73310000D03*
%TD*%
%TO.P,REF\u002A\u002A725,1*%
%TO.N,N/C*%
X163950000Y-116490000D03*
%TD*%
%TO.P,REF\u002A\u002A829,1*%
%TO.N,N/C*%
X184270000Y-124110000D03*
%TD*%
%TO.P,REF\u002A\u002A605,1*%
%TO.N,N/C*%
X184270000Y-106330000D03*
%TD*%
%TO.P,REF\u002A\u002A90,1*%
%TO.N,N/C*%
X176650000Y-65690000D03*
%TD*%
%TO.P,REF\u002A\u002A879,1*%
%TO.N,N/C*%
X148710000Y-129190000D03*
%TD*%
%TO.P,REF\u002A\u002A487,1*%
%TO.N,N/C*%
X128390000Y-98710000D03*
%TD*%
%TO.P,REF\u002A\u002A235,1*%
%TO.N,N/C*%
X138550000Y-78390000D03*
%TD*%
%TO.P,REF\u002A\u002A291,1*%
%TO.N,N/C*%
X118230000Y-83470000D03*
%TD*%
%TO.P,REF\u002A\u002A491,1*%
%TO.N,N/C*%
X138550000Y-98710000D03*
%TD*%
%TO.P,REF\u002A\u002A264,1*%
%TO.N,N/C*%
X130930000Y-80930000D03*
%TD*%
%TO.P,REF\u002A\u002A519,1*%
%TO.N,N/C*%
X128390000Y-101250000D03*
%TD*%
%TO.P,REF\u002A\u002A500,1*%
%TO.N,N/C*%
X161410000Y-98710000D03*
%TD*%
%TO.P,REF\u002A\u002A81,1*%
%TO.N,N/C*%
X153790000Y-65690000D03*
%TD*%
%TO.P,REF\u002A\u002A170,1*%
%TO.N,N/C*%
X136010000Y-73310000D03*
%TD*%
%TO.P,REF\u002A\u002A397,1*%
%TO.N,N/C*%
X143630000Y-91090000D03*
%TD*%
%TO.P,REF\u002A\u002A73,1*%
%TO.N,N/C*%
X133470000Y-65690000D03*
%TD*%
%TO.P,REF\u002A\u002A436,1*%
%TO.N,N/C*%
X161410000Y-93630000D03*
%TD*%
%TO.P,REF\u002A\u002A748,1*%
%TO.N,N/C*%
X141090000Y-119030000D03*
%TD*%
%TO.P,REF\u002A\u002A815,1*%
%TO.N,N/C*%
X148710000Y-124110000D03*
%TD*%
%TO.P,REF\u002A\u002A808,1*%
%TO.N,N/C*%
X130930000Y-124110000D03*
%TD*%
%TO.P,REF\u002A\u002A379,1*%
%TO.N,N/C*%
X179190000Y-88550000D03*
%TD*%
%TO.P,REF\u002A\u002A265,1*%
%TO.N,N/C*%
X133470000Y-80930000D03*
%TD*%
%TO.P,REF\u002A\u002A697,1*%
%TO.N,N/C*%
X174110000Y-113950000D03*
%TD*%
%TO.P,REF\u002A\u002A695,1*%
%TO.N,N/C*%
X169030000Y-113950000D03*
%TD*%
%TO.P,REF\u002A\u002A262,1*%
%TO.N,N/C*%
X125850000Y-80930000D03*
%TD*%
%TO.P,REF\u002A\u002A464,1*%
%TO.N,N/C*%
X151250000Y-96170000D03*
%TD*%
%TO.P,REF\u002A\u002A103,1*%
%TO.N,N/C*%
X128390000Y-68230000D03*
%TD*%
%TO.P,REF\u002A\u002A723,1*%
%TO.N,N/C*%
X158870000Y-116490000D03*
%TD*%
%TO.P,REF\u002A\u002A551,1*%
%TO.N,N/C*%
X128390000Y-103790000D03*
%TD*%
%TO.P,REF\u002A\u002A144,1*%
%TO.N,N/C*%
X151250000Y-70770000D03*
%TD*%
%TO.P,REF\u002A\u002A686,1*%
%TO.N,N/C*%
X146170000Y-113950000D03*
%TD*%
%TO.P,REF\u002A\u002A406,1*%
%TO.N,N/C*%
X166490000Y-91090000D03*
%TD*%
%TO.P,REF\u002A\u002A953,1*%
%TO.N,N/C*%
X174110000Y-134270000D03*
%TD*%
%TO.P,REF\u002A\u002A610,1*%
%TO.N,N/C*%
X115690000Y-108870000D03*
%TD*%
%TO.P,REF\u002A\u002A900,1*%
%TO.N,N/C*%
X120770000Y-131730000D03*
%TD*%
%TO.P,REF\u002A\u002A530,1*%
%TO.N,N/C*%
X156330000Y-101250000D03*
%TD*%
%TO.P,REF\u002A\u002A797,1*%
%TO.N,N/C*%
X184270000Y-121570000D03*
%TD*%
%TO.P,REF\u002A\u002A58,1*%
%TO.N,N/C*%
X176650000Y-63150000D03*
%TD*%
%TO.P,REF\u002A\u002A622,1*%
%TO.N,N/C*%
X146170000Y-108870000D03*
%TD*%
%TO.P,REF\u002A\u002A375,1*%
%TO.N,N/C*%
X169030000Y-88550000D03*
%TD*%
%TO.P,REF\u002A\u002A580,1*%
%TO.N,N/C*%
X120770000Y-106330000D03*
%TD*%
%TO.P,REF\u002A\u002A209,1*%
%TO.N,N/C*%
X153790000Y-75850000D03*
%TD*%
%TO.P,REF\u002A\u002A541,1*%
%TO.N,N/C*%
X184270000Y-101250000D03*
%TD*%
%TO.P,REF\u002A\u002A186,1*%
%TO.N,N/C*%
X176650000Y-73310000D03*
%TD*%
%TO.P,REF\u002A\u002A515,1*%
%TO.N,N/C*%
X118230000Y-101250000D03*
%TD*%
%TO.P,REF\u002A\u002A54,1*%
%TO.N,N/C*%
X166490000Y-63150000D03*
%TD*%
%TO.P,REF\u002A\u002A278,1*%
%TO.N,N/C*%
X166490000Y-80930000D03*
%TD*%
%TO.P,REF\u002A\u002A120,1*%
%TO.N,N/C*%
X171570000Y-68230000D03*
%TD*%
%TO.P,REF\u002A\u002A247,1*%
%TO.N,N/C*%
X169030000Y-78390000D03*
%TD*%
%TO.P,REF\u002A\u002A74,1*%
%TO.N,N/C*%
X136010000Y-65690000D03*
%TD*%
%TO.P,REF\u002A\u002A324,1*%
%TO.N,N/C*%
X120770000Y-86010000D03*
%TD*%
%TO.P,REF\u002A\u002A679,1*%
%TO.N,N/C*%
X128390000Y-113950000D03*
%TD*%
%TO.P,REF\u002A\u002A887,1*%
%TO.N,N/C*%
X169030000Y-129190000D03*
%TD*%
%TO.P,REF\u002A\u002A116,1*%
%TO.N,N/C*%
X161410000Y-68230000D03*
%TD*%
%TO.P,REF\u002A\u002A621,1*%
%TO.N,N/C*%
X143630000Y-108870000D03*
%TD*%
%TO.P,REF\u002A\u002A292,1*%
%TO.N,N/C*%
X120770000Y-83470000D03*
%TD*%
%TO.P,REF\u002A\u002A633,1*%
%TO.N,N/C*%
X174110000Y-108870000D03*
%TD*%
%TO.P,REF\u002A\u002A104,1*%
%TO.N,N/C*%
X130930000Y-68230000D03*
%TD*%
%TO.P,REF\u002A\u002A589,1*%
%TO.N,N/C*%
X143630000Y-106330000D03*
%TD*%
%TO.P,REF\u002A\u002A411,1*%
%TO.N,N/C*%
X179190000Y-91090000D03*
%TD*%
%TO.P,REF\u002A\u002A536,1*%
%TO.N,N/C*%
X171570000Y-101250000D03*
%TD*%
%TO.P,REF\u002A\u002A106,1*%
%TO.N,N/C*%
X136010000Y-68230000D03*
%TD*%
%TO.P,REF\u002A\u002A595,1*%
%TO.N,N/C*%
X158870000Y-106330000D03*
%TD*%
%TO.P,REF\u002A\u002A69,1*%
%TO.N,N/C*%
X123310000Y-65690000D03*
%TD*%
%TO.P,REF\u002A\u002A131,1*%
%TO.N,N/C*%
X118230000Y-70770000D03*
%TD*%
%TO.P,REF\u002A\u002A870,1*%
%TO.N,N/C*%
X125850000Y-129190000D03*
%TD*%
%TO.P,REF\u002A\u002A368,1*%
%TO.N,N/C*%
X151250000Y-88550000D03*
%TD*%
%TO.P,REF\u002A\u002A521,1*%
%TO.N,N/C*%
X133470000Y-101250000D03*
%TD*%
%TO.P,REF\u002A\u002A585,1*%
%TO.N,N/C*%
X133470000Y-106330000D03*
%TD*%
%TO.P,REF\u002A\u002A342,1*%
%TO.N,N/C*%
X166490000Y-86010000D03*
%TD*%
%TO.P,REF\u002A\u002A389,1*%
%TO.N,N/C*%
X123310000Y-91090000D03*
%TD*%
%TO.P,REF\u002A\u002A312,1*%
%TO.N,N/C*%
X171570000Y-83470000D03*
%TD*%
%TO.P,REF\u002A\u002A529,1*%
%TO.N,N/C*%
X153790000Y-101250000D03*
%TD*%
%TO.P,REF\u002A\u002A849,1*%
%TO.N,N/C*%
X153790000Y-126650000D03*
%TD*%
%TO.P,REF\u002A\u002A347,1*%
%TO.N,N/C*%
X179190000Y-86010000D03*
%TD*%
%TO.P,REF\u002A\u002A461,1*%
%TO.N,N/C*%
X143630000Y-96170000D03*
%TD*%
%TO.P,REF\u002A\u002A561,1*%
%TO.N,N/C*%
X153790000Y-103790000D03*
%TD*%
%TO.P,REF\u002A\u002A189,1*%
%TO.N,N/C*%
X184270000Y-73310000D03*
%TD*%
%TO.P,REF\u002A\u002A514,1*%
%TO.N,N/C*%
X115690000Y-101250000D03*
%TD*%
%TO.P,REF\u002A\u002A454,1*%
%TO.N,N/C*%
X125850000Y-96170000D03*
%TD*%
%TO.P,REF\u002A\u002A843,1*%
%TO.N,N/C*%
X138550000Y-126650000D03*
%TD*%
%TO.P,REF\u002A\u002A586,1*%
%TO.N,N/C*%
X136010000Y-106330000D03*
%TD*%
%TO.P,REF\u002A\u002A35,1*%
%TO.N,N/C*%
X118230000Y-63150000D03*
%TD*%
%TO.P,REF\u002A\u002A228,1*%
%TO.N,N/C*%
X120770000Y-78390000D03*
%TD*%
%TO.P,REF\u002A\u002A88,1*%
%TO.N,N/C*%
X171570000Y-65690000D03*
%TD*%
%TO.P,REF\u002A\u002A493,1*%
%TO.N,N/C*%
X143630000Y-98710000D03*
%TD*%
%TO.P,REF\u002A\u002A518,1*%
%TO.N,N/C*%
X125850000Y-101250000D03*
%TD*%
%TO.P,REF\u002A\u002A838,1*%
%TO.N,N/C*%
X125850000Y-126650000D03*
%TD*%
%TO.P,REF\u002A\u002A40,1*%
%TO.N,N/C*%
X130930000Y-63150000D03*
%TD*%
%TO.P,REF\u002A\u002A364,1*%
%TO.N,N/C*%
X141090000Y-88550000D03*
%TD*%
%TO.P,REF\u002A\u002A647,1*%
%TO.N,N/C*%
X128390000Y-111410000D03*
%TD*%
%TO.P,REF\u002A\u002A823,1*%
%TO.N,N/C*%
X169030000Y-124110000D03*
%TD*%
%TO.P,REF\u002A\u002A885,1*%
%TO.N,N/C*%
X163950000Y-129190000D03*
%TD*%
%TO.P,REF\u002A\u002A989,1*%
%TO.N,N/C*%
X184270000Y-136810000D03*
%TD*%
D17*
%TO.P,J7,1,Pin_1*%
%TO.N,Net-(J7-Pin_1)*%
X112250000Y-63150000D03*
%TO.P,J7,2,Pin_2*%
%TO.N,Net-(J7-Pin_2)*%
X112250000Y-65690000D03*
%TO.P,J7,3,Pin_3*%
%TO.N,Net-(J7-Pin_3)*%
X112250000Y-68230000D03*
%TO.P,J7,4,Pin_4*%
%TO.N,Net-(J7-Pin_4)*%
X112250000Y-70770000D03*
%TO.P,J7,5,Pin_5*%
%TO.N,Net-(J7-Pin_5)*%
X112250000Y-73310000D03*
%TO.P,J7,6,Pin_6*%
%TO.N,Net-(J7-Pin_6)*%
X112250000Y-75850000D03*
%TO.P,J7,7,Pin_7*%
%TO.N,Net-(J7-Pin_7)*%
X112250000Y-78390000D03*
%TO.P,J7,8,Pin_8*%
%TO.N,Net-(J7-Pin_8)*%
X112250000Y-80930000D03*
%TO.P,J7,9,Pin_9*%
%TO.N,Net-(J7-Pin_9)*%
X112250000Y-83470000D03*
%TO.P,J7,10,Pin_10*%
%TO.N,Net-(J7-Pin_10)*%
X112250000Y-86010000D03*
%TO.P,J7,11,Pin_11*%
%TO.N,Net-(J7-Pin_11)*%
X112250000Y-88550000D03*
%TO.P,J7,12,Pin_12*%
%TO.N,Net-(J7-Pin_12)*%
X112250000Y-91090000D03*
%TO.P,J7,13,Pin_13*%
%TO.N,Net-(J7-Pin_13)*%
X112250000Y-93630000D03*
%TO.P,J7,14,Pin_14*%
%TO.N,Net-(J7-Pin_14)*%
X112250000Y-96170000D03*
%TO.P,J7,15,Pin_15*%
%TO.N,Net-(J7-Pin_15)*%
X112250000Y-98710000D03*
%TO.P,J7,16,Pin_16*%
%TO.N,Net-(J7-Pin_16)*%
X112250000Y-101250000D03*
%TO.P,J7,17,Pin_17*%
%TO.N,Net-(J7-Pin_17)*%
X112250000Y-103790000D03*
%TO.P,J7,18,Pin_18*%
%TO.N,Net-(J7-Pin_18)*%
X112250000Y-106330000D03*
%TO.P,J7,19,Pin_19*%
%TO.N,Net-(J7-Pin_19)*%
X112250000Y-108870000D03*
%TO.P,J7,20,Pin_20*%
%TO.N,Net-(J7-Pin_20)*%
X112250000Y-111410000D03*
%TO.P,J7,21,Pin_21*%
%TO.N,Net-(J7-Pin_21)*%
X112250000Y-113950000D03*
%TO.P,J7,22,Pin_22*%
%TO.N,Net-(J7-Pin_22)*%
X112250000Y-116490000D03*
%TO.P,J7,23,Pin_23*%
%TO.N,Net-(J7-Pin_23)*%
X112250000Y-119030000D03*
%TO.P,J7,24,Pin_24*%
%TO.N,Net-(J7-Pin_24)*%
X112250000Y-121570000D03*
%TO.P,J7,25,Pin_25*%
%TO.N,Net-(J7-Pin_25)*%
X112250000Y-124110000D03*
%TO.P,J7,26,Pin_26*%
%TO.N,Net-(J7-Pin_26)*%
X112250000Y-126650000D03*
%TO.P,J7,27,Pin_27*%
%TO.N,Net-(J7-Pin_27)*%
X112250000Y-129190000D03*
%TO.P,J7,28,Pin_28*%
%TO.N,Net-(J7-Pin_28)*%
X112250000Y-131730000D03*
%TO.P,J7,29,Pin_29*%
%TO.N,Net-(J7-Pin_29)*%
X112250000Y-134270000D03*
%TO.P,J7,30,Pin_30*%
%TO.N,Net-(J7-Pin_30)*%
X112250000Y-136810000D03*
%TD*%
%TO.P,J6,1,Pin_1*%
%TO.N,Net-(J5-Pin_3)*%
X187750000Y-63150000D03*
%TO.P,J6,2,Pin_2*%
%TO.N,Net-(J5-Pin_5)*%
X187750000Y-65690000D03*
%TO.P,J6,3,Pin_3*%
%TO.N,Net-(J5-Pin_7)*%
X187750000Y-68230000D03*
%TO.P,J6,4,Pin_4*%
%TO.N,Net-(J5-Pin_10)*%
X187750000Y-70770000D03*
%TO.P,J6,5,Pin_5*%
%TO.N,Net-(J5-Pin_9)*%
X187750000Y-73310000D03*
%TO.P,J6,6,Pin_6*%
%TO.N,Net-(J5-Pin_12)*%
X187750000Y-75850000D03*
%TO.P,J6,7,Pin_7*%
%TO.N,Net-(J5-Pin_11)*%
X187750000Y-78390000D03*
%TO.P,J6,8,Pin_8*%
%TO.N,Net-(J5-Pin_14)*%
X187750000Y-80930000D03*
%TO.P,J6,9,Pin_9*%
%TO.N,Net-(J5-Pin_13)*%
X187750000Y-83470000D03*
%TO.P,J6,10,Pin_10*%
%TO.N,Net-(J5-Pin_16)*%
X187750000Y-86010000D03*
%TO.P,J6,11,Pin_11*%
%TO.N,Net-(J5-Pin_15)*%
X187750000Y-88550000D03*
%TO.P,J6,12,Pin_12*%
%TO.N,Net-(J5-Pin_18)*%
X187750000Y-91090000D03*
%TO.P,J6,13,Pin_13*%
%TO.N,Net-(J5-Pin_17)*%
X187750000Y-93630000D03*
%TO.P,J6,14,Pin_14*%
%TO.N,Net-(J5-Pin_20)*%
X187750000Y-96170000D03*
%TO.P,J6,15,Pin_15*%
%TO.N,Net-(J5-Pin_19)*%
X187750000Y-98710000D03*
%TO.P,J6,16,Pin_16*%
%TO.N,Net-(J5-Pin_22)*%
X187750000Y-101250000D03*
%TO.P,J6,17,Pin_17*%
%TO.N,Net-(J5-Pin_21)*%
X187750000Y-103790000D03*
%TO.P,J6,18,Pin_18*%
%TO.N,Net-(J5-Pin_24)*%
X187750000Y-106330000D03*
%TO.P,J6,19,Pin_19*%
%TO.N,Net-(J5-Pin_23)*%
X187750000Y-108870000D03*
%TO.P,J6,20,Pin_20*%
%TO.N,Net-(J5-Pin_26)*%
X187750000Y-111410000D03*
%TO.P,J6,21,Pin_21*%
%TO.N,Net-(J5-Pin_25)*%
X187750000Y-113950000D03*
%TO.P,J6,22,Pin_22*%
%TO.N,Net-(J5-Pin_28)*%
X187750000Y-116490000D03*
%TO.P,J6,23,Pin_23*%
%TO.N,Net-(J5-Pin_27)*%
X187750000Y-119030000D03*
%TO.P,J6,24,Pin_24*%
%TO.N,Net-(J5-Pin_30)*%
X187750000Y-121570000D03*
%TO.P,J6,25,Pin_25*%
%TO.N,Net-(J5-Pin_29)*%
X187750000Y-124110000D03*
%TO.P,J6,26,Pin_26*%
%TO.N,Net-(J5-Pin_32)*%
X187750000Y-126650000D03*
%TO.P,J6,27,Pin_27*%
%TO.N,Net-(J5-Pin_31)*%
X187750000Y-129190000D03*
%TO.P,J6,28,Pin_28*%
%TO.N,Net-(J5-Pin_33)*%
X187750000Y-131730000D03*
%TO.P,J6,29,Pin_29*%
%TO.N,Net-(J5-Pin_35)*%
X187750000Y-134270000D03*
%TO.P,J6,30,Pin_30*%
%TO.N,Net-(J5-Pin_37)*%
X187750000Y-136810000D03*
%TD*%
D18*
%TO.P,R1,1*%
%TO.N,Net-(J11-CC1)*%
X195175000Y-134750000D03*
%TO.P,R1,2*%
%TO.N,GND*%
X196825000Y-134750000D03*
%TD*%
%TO.P,R2,1*%
%TO.N,Net-(J11-CC2)*%
X195175000Y-133250000D03*
%TO.P,R2,2*%
%TO.N,GND*%
X196825000Y-133250000D03*
%TD*%
D19*
%TO.N,VCC*%
X170000000Y-56000000D03*
X157000000Y-57000000D03*
X183000000Y-57000000D03*
X189000000Y-56000000D03*
X150000000Y-57000000D03*
X111000000Y-143000000D03*
X111000000Y-57000000D03*
X160000000Y-57000000D03*
X170000000Y-57000000D03*
X168000000Y-56000000D03*
X181000000Y-56000000D03*
X162000000Y-57000000D03*
X178000000Y-56000000D03*
X173000000Y-56000000D03*
X165000000Y-57000000D03*
X150000000Y-144000000D03*
X181000000Y-57000000D03*
X165000000Y-56000000D03*
X125000000Y-56000000D03*
X150000000Y-143000000D03*
X176000000Y-56000000D03*
X152000000Y-57000000D03*
X176000000Y-57000000D03*
X147000000Y-57000000D03*
X111000000Y-56000000D03*
X150000000Y-56000000D03*
X160000000Y-56000000D03*
X135000000Y-56000000D03*
X155000000Y-56000000D03*
X183000000Y-56000000D03*
X152000000Y-56000000D03*
X189000000Y-57000000D03*
X162000000Y-56000000D03*
X189000000Y-144000000D03*
X168000000Y-57000000D03*
X147000000Y-56000000D03*
X157000000Y-56000000D03*
X155000000Y-57000000D03*
X111000000Y-144000000D03*
X173000000Y-57000000D03*
X178000000Y-57000000D03*
X189000000Y-143000000D03*
%TO.N,Net-(J11-CC2)*%
X195175000Y-133250000D03*
%TO.N,Net-(J11-CC1)*%
X195175000Y-134750000D03*
%TD*%
D20*
%TO.N,Net-(J5-Pin_26)*%
X189530000Y-108506388D02*
X192926388Y-105110000D01*
X187750000Y-111410000D02*
X189530000Y-109630000D01*
X189530000Y-109630000D02*
X189530000Y-108506388D01*
X194990000Y-105110000D02*
X196250000Y-106370000D01*
X192926388Y-105110000D02*
X194990000Y-105110000D01*
%TO.N,Net-(J5-Pin_28)*%
X189340000Y-114900000D02*
X187750000Y-116490000D01*
X196250000Y-108910000D02*
X194930000Y-107590000D01*
X189340000Y-112856388D02*
X189340000Y-114900000D01*
X189811000Y-110765388D02*
X189811000Y-112385388D01*
X194930000Y-107590000D02*
X192986388Y-107590000D01*
X192986388Y-107590000D02*
X189811000Y-110765388D01*
X189811000Y-112385388D02*
X189340000Y-112856388D01*
%TO.N,Net-(J5-Pin_31)*%
X193710000Y-113990000D02*
X191095000Y-116605000D01*
X191095000Y-117670559D02*
X190453000Y-118312557D01*
X190453000Y-118312557D02*
X190453000Y-126487000D01*
X191095000Y-116605000D02*
X191095000Y-117670559D01*
X190453000Y-126487000D02*
X187750000Y-129190000D01*
%TO.N,Net-(J5-Pin_37)*%
X191506000Y-123814000D02*
X191506000Y-133054000D01*
X191506000Y-133054000D02*
X187750000Y-136810000D01*
X193710000Y-121610000D02*
X191506000Y-123814000D01*
%TO.N,Net-(J5-Pin_30)*%
X196250000Y-111450000D02*
X195030000Y-110230000D01*
X193100588Y-110230000D02*
X190042000Y-113288588D01*
X190042000Y-117234388D02*
X189400000Y-117876388D01*
X189400000Y-117876388D02*
X189400000Y-119920000D01*
X195030000Y-110230000D02*
X193100588Y-110230000D01*
X190042000Y-113288588D02*
X190042000Y-117234388D01*
X189400000Y-119920000D02*
X187750000Y-121570000D01*
%TO.N,Net-(J5-Pin_16)*%
X188164323Y-86010000D02*
X187750000Y-86010000D01*
X196250000Y-93670000D02*
X194960000Y-92380000D01*
X189753000Y-87598678D02*
X188164323Y-86010000D01*
X192290000Y-90135677D02*
X189753000Y-87598678D01*
X193040000Y-92380000D02*
X192290000Y-91630000D01*
X194960000Y-92380000D02*
X193040000Y-92380000D01*
X192290000Y-91630000D02*
X192290000Y-90135677D01*
%TO.N,Net-(J5-Pin_27)*%
X193710000Y-108910000D02*
X193710000Y-109124200D01*
X189691000Y-117089000D02*
X187750000Y-119030000D01*
X193710000Y-109124200D02*
X189691000Y-113143200D01*
X189691000Y-113143200D02*
X189691000Y-117089000D01*
%TO.N,Net-(J5-Pin_11)*%
X187750000Y-78390000D02*
X189608055Y-78390000D01*
X191056000Y-79837944D02*
X191056000Y-85661570D01*
X189608055Y-78390000D02*
X191056000Y-79837944D01*
X191056000Y-85661570D02*
X193710000Y-88315570D01*
X193710000Y-88315570D02*
X193710000Y-88590000D01*
%TO.N,Net-(J5-Pin_35)*%
X193710000Y-119070000D02*
X191155000Y-121625000D01*
X191155000Y-121625000D02*
X191155000Y-130865000D01*
X191155000Y-130865000D02*
X187750000Y-134270000D01*
%TO.N,Net-(J5-Pin_18)*%
X189086388Y-91090000D02*
X187750000Y-91090000D01*
X196250000Y-96210000D02*
X195099000Y-95059000D01*
X193055388Y-95059000D02*
X189086388Y-91090000D01*
X195099000Y-95059000D02*
X193055388Y-95059000D01*
%TO.N,Net-(J5-Pin_3)*%
X192559000Y-77279000D02*
X192559000Y-67959000D01*
X192559000Y-67959000D02*
X187750000Y-63150000D01*
X193710000Y-78430000D02*
X192559000Y-77279000D01*
%TO.N,Net-(J5-Pin_25)*%
X193710000Y-106370000D02*
X189460000Y-110620000D01*
X189460000Y-112240000D02*
X187750000Y-113950000D01*
X189460000Y-110620000D02*
X189460000Y-112240000D01*
%TO.N,Net-(J5-Pin_33)*%
X193710000Y-116530000D02*
X190804000Y-119436000D01*
X190804000Y-128676000D02*
X187750000Y-131730000D01*
X190804000Y-119436000D02*
X190804000Y-128676000D01*
%TO.N,Net-(J5-Pin_29)*%
X189751000Y-118021779D02*
X189751000Y-122109000D01*
X190393000Y-113433976D02*
X190393000Y-117379779D01*
X193710000Y-111450000D02*
X192376976Y-111450000D01*
X190393000Y-117379779D02*
X189751000Y-118021779D01*
X192376976Y-111450000D02*
X190393000Y-113433976D01*
X189751000Y-122109000D02*
X187750000Y-124110000D01*
%TO.N,Net-(J5-Pin_15)*%
X188590000Y-88550000D02*
X193710000Y-93670000D01*
X187750000Y-88550000D02*
X188590000Y-88550000D01*
%TO.N,Net-(J5-Pin_10)*%
X192109000Y-79401777D02*
X191506000Y-78798778D01*
X192109000Y-83952612D02*
X192109000Y-79401777D01*
X192956388Y-84800000D02*
X192109000Y-83952612D01*
X191506000Y-78798778D02*
X191506000Y-74526000D01*
X195000000Y-84800000D02*
X192956388Y-84800000D01*
X191506000Y-74526000D02*
X187750000Y-70770000D01*
X196250000Y-86050000D02*
X195000000Y-84800000D01*
%TO.N,Net-(J5-Pin_32)*%
X190744000Y-113579364D02*
X190744000Y-117525169D01*
X190102000Y-124298000D02*
X187750000Y-126650000D01*
X190744000Y-117525169D02*
X190102000Y-118167168D01*
X194940000Y-112680000D02*
X191643364Y-112680000D01*
X190102000Y-118167168D02*
X190102000Y-124298000D01*
X191643364Y-112680000D02*
X190744000Y-113579364D01*
X196250000Y-113990000D02*
X194940000Y-112680000D01*
%TO.N,Net-(J5-Pin_12)*%
X194861000Y-87201000D02*
X193091819Y-87201000D01*
X191407000Y-79692555D02*
X190754000Y-79039556D01*
X196250000Y-88590000D02*
X194861000Y-87201000D01*
X187750000Y-76035555D02*
X187750000Y-75850000D01*
X193091819Y-87201000D02*
X191407000Y-85516181D01*
X190754000Y-79039556D02*
X187750000Y-76035555D01*
X191407000Y-85516181D02*
X191407000Y-79692555D01*
%TO.N,Net-(J5-Pin_13)*%
X187750000Y-83470000D02*
X187750000Y-83540000D01*
X189410000Y-85200000D02*
X189410000Y-86759289D01*
X193710000Y-91059289D02*
X193710000Y-91130000D01*
X187750000Y-83540000D02*
X189410000Y-85200000D01*
X189410000Y-86759289D02*
X193710000Y-91059289D01*
%TO.N,Net-(J5-Pin_21)*%
X190250000Y-101290000D02*
X187750000Y-103790000D01*
X193710000Y-101290000D02*
X190250000Y-101290000D01*
%TO.N,Net-(J5-Pin_5)*%
X192208000Y-70148000D02*
X192208000Y-78508000D01*
X192208000Y-78508000D02*
X193710000Y-80010000D01*
X193710000Y-80010000D02*
X193710000Y-80970000D01*
X187750000Y-65690000D02*
X192208000Y-70148000D01*
%TO.N,Net-(J5-Pin_14)*%
X192997100Y-89850000D02*
X189761000Y-86613900D01*
X189761000Y-86613900D02*
X189761000Y-82396500D01*
X188294500Y-80930000D02*
X187750000Y-80930000D01*
X194970000Y-89850000D02*
X192997100Y-89850000D01*
X196250000Y-91130000D02*
X194970000Y-89850000D01*
X189761000Y-82396500D02*
X188294500Y-80930000D01*
%TO.N,Net-(J5-Pin_7)*%
X192460000Y-82260000D02*
X192460000Y-79256388D01*
X191857000Y-78653389D02*
X191857000Y-72337000D01*
X191857000Y-72337000D02*
X187750000Y-68230000D01*
X193710000Y-83510000D02*
X192460000Y-82260000D01*
X192460000Y-79256388D02*
X191857000Y-78653389D01*
%TO.N,Net-(J5-Pin_23)*%
X188670000Y-108870000D02*
X187750000Y-108870000D01*
X193710000Y-103830000D02*
X188670000Y-108870000D01*
%TO.N,Net-(J5-Pin_20)*%
X189080000Y-97500000D02*
X187750000Y-96170000D01*
X195000000Y-97500000D02*
X189080000Y-97500000D01*
X196250000Y-98750000D02*
X195000000Y-97500000D01*
%TO.N,Net-(J5-Pin_22)*%
X196250000Y-101290000D02*
X195010000Y-100050000D01*
X195010000Y-100050000D02*
X188950000Y-100050000D01*
X188950000Y-100050000D02*
X187750000Y-101250000D01*
%TO.N,Net-(J5-Pin_19)*%
X187790000Y-98750000D02*
X187750000Y-98710000D01*
X193710000Y-98750000D02*
X187790000Y-98750000D01*
%TO.N,Net-(J5-Pin_17)*%
X191130000Y-93630000D02*
X187750000Y-93630000D01*
X193710000Y-96210000D02*
X191130000Y-93630000D01*
%TO.N,Net-(J5-Pin_9)*%
X193710000Y-86050000D02*
X191758000Y-84098000D01*
X191758000Y-84098000D02*
X191758000Y-79547166D01*
X191155000Y-76715000D02*
X187750000Y-73310000D01*
X191155000Y-78944167D02*
X191155000Y-76715000D01*
X191758000Y-79547166D02*
X191155000Y-78944167D01*
%TO.N,Net-(J5-Pin_24)*%
X196250000Y-103830000D02*
X194940000Y-102520000D01*
X192370000Y-102520000D02*
X188560000Y-106330000D01*
X188560000Y-106330000D02*
X187750000Y-106330000D01*
X194940000Y-102520000D02*
X192370000Y-102520000D01*
%TO.N,Net-(J7-Pin_2)*%
X112250000Y-65690000D02*
X107817000Y-70123000D01*
X106265000Y-80285000D02*
X106265000Y-80955000D01*
X107817000Y-70123000D02*
X107817000Y-78733000D01*
X107817000Y-78733000D02*
X106265000Y-80285000D01*
%TO.N,Net-(J7-Pin_24)*%
X107086900Y-110284000D02*
X109486000Y-112683100D01*
X104876000Y-110284000D02*
X107086900Y-110284000D01*
X109486000Y-118806000D02*
X112250000Y-121570000D01*
X109486000Y-112683100D02*
X109486000Y-118806000D01*
X103725000Y-111435000D02*
X104876000Y-110284000D01*
%TO.N,Net-(J7-Pin_21)*%
X106265000Y-106355000D02*
X110539000Y-110629000D01*
X110539000Y-112239000D02*
X112250000Y-113950000D01*
X110539000Y-110629000D02*
X110539000Y-112239000D01*
%TO.N,Net-(J7-Pin_29)*%
X107731000Y-120521000D02*
X107731000Y-129751000D01*
X106265000Y-119055000D02*
X107731000Y-120521000D01*
X107731000Y-129751000D02*
X112250000Y-134270000D01*
%TO.N,Net-(J7-Pin_17)*%
X109735000Y-101275000D02*
X112250000Y-103790000D01*
X106265000Y-101275000D02*
X109735000Y-101275000D01*
%TO.N,Net-(J7-Pin_9)*%
X109566000Y-87814000D02*
X106265000Y-91115000D01*
X109566000Y-86154000D02*
X109566000Y-87814000D01*
X112250000Y-83470000D02*
X109566000Y-86154000D01*
%TO.N,Net-(J7-Pin_27)*%
X108433000Y-116143000D02*
X108433000Y-125373000D01*
X106265000Y-113975000D02*
X108433000Y-116143000D01*
X108433000Y-125373000D02*
X112250000Y-129190000D01*
%TO.N,Net-(J7-Pin_4)*%
X106503760Y-84884000D02*
X104876000Y-84884000D01*
X107811000Y-79731776D02*
X107811000Y-83576760D01*
X108519000Y-79023777D02*
X107811000Y-79731776D01*
X107811000Y-83576760D02*
X106503760Y-84884000D01*
X108519000Y-74501000D02*
X108519000Y-79023777D01*
X104876000Y-84884000D02*
X103725000Y-86035000D01*
X112250000Y-70770000D02*
X108519000Y-74501000D01*
%TO.N,Net-(J7-Pin_16)*%
X103725000Y-101275000D02*
X104990000Y-100010000D01*
X111010000Y-100010000D02*
X112250000Y-101250000D01*
X104990000Y-100010000D02*
X111010000Y-100010000D01*
%TO.N,Net-(J7-Pin_18)*%
X104876000Y-102664000D02*
X108584000Y-102664000D01*
X103725000Y-103815000D02*
X104876000Y-102664000D01*
X108584000Y-102664000D02*
X112250000Y-106330000D01*
%TO.N,Net-(J7-Pin_7)*%
X112250000Y-78390000D02*
X111665500Y-78390000D01*
X111665500Y-78390000D02*
X108864000Y-81191500D01*
X108864000Y-81191500D02*
X108864000Y-85976000D01*
X108864000Y-85976000D02*
X106265000Y-88575000D01*
%TO.N,Net-(J7-Pin_6)*%
X104876000Y-87424000D02*
X103725000Y-88575000D01*
X109221000Y-79314553D02*
X109221000Y-79314557D01*
X108513000Y-80022553D02*
X108513000Y-85414760D01*
X108513000Y-85414760D02*
X106503760Y-87424000D01*
X112250000Y-75850000D02*
X109840000Y-78260000D01*
X106503760Y-87424000D02*
X104876000Y-87424000D01*
X109221000Y-79314557D02*
X108513000Y-80022553D01*
X109840000Y-78260000D02*
X109840000Y-78695553D01*
X109840000Y-78695553D02*
X109221000Y-79314553D01*
%TO.N,Net-(J7-Pin_28)*%
X108082000Y-127562000D02*
X112250000Y-131730000D01*
X106265000Y-116515000D02*
X108082000Y-118332000D01*
X108082000Y-118332000D02*
X108082000Y-127562000D01*
%TO.N,Net-(J7-Pin_23)*%
X106265000Y-108895000D02*
X109837000Y-112467000D01*
X109837000Y-116617000D02*
X112250000Y-119030000D01*
X109837000Y-112467000D02*
X109837000Y-116617000D01*
%TO.N,Net-(J7-Pin_15)*%
X106290000Y-98710000D02*
X106265000Y-98735000D01*
X112250000Y-98710000D02*
X106290000Y-98710000D01*
%TO.N,Net-(J7-Pin_5)*%
X108870000Y-76690000D02*
X112250000Y-73310000D01*
X106265000Y-86035000D02*
X108162000Y-84138000D01*
X108870000Y-79169167D02*
X108870000Y-76690000D01*
X108162000Y-84138000D02*
X108162000Y-79877164D01*
X108162000Y-79877164D02*
X108870000Y-79169167D01*
%TO.N,Net-(J7-Pin_25)*%
X109135000Y-120995000D02*
X112250000Y-124110000D01*
X106265000Y-111435000D02*
X109135000Y-114305000D01*
X109135000Y-114305000D02*
X109135000Y-120995000D01*
%TO.N,Net-(J7-Pin_13)*%
X112250000Y-93630000D02*
X108830000Y-93630000D01*
X108830000Y-93630000D02*
X106265000Y-96195000D01*
%TO.N,Net-(J7-Pin_30)*%
X107366000Y-122696000D02*
X107366000Y-131926000D01*
X106265000Y-121595000D02*
X107366000Y-122696000D01*
X107366000Y-131926000D02*
X112250000Y-136810000D01*
%TO.N,Net-(J7-Pin_10)*%
X112250000Y-86010000D02*
X107416000Y-90844000D01*
X107416000Y-90844000D02*
X107416000Y-91591760D01*
X106503760Y-92504000D02*
X104876000Y-92504000D01*
X104876000Y-92504000D02*
X103725000Y-93655000D01*
X107416000Y-91591760D02*
X106503760Y-92504000D01*
%TO.N,Net-(J7-Pin_22)*%
X110188000Y-110774388D02*
X110188000Y-114428000D01*
X107003612Y-107590000D02*
X110188000Y-110774388D01*
X105030000Y-107590000D02*
X107003612Y-107590000D01*
X110188000Y-114428000D02*
X112250000Y-116490000D01*
X103725000Y-108895000D02*
X105030000Y-107590000D01*
%TO.N,Net-(J7-Pin_8)*%
X104980000Y-89860000D02*
X103725000Y-91115000D01*
X109215000Y-83965000D02*
X109215000Y-87252760D01*
X112250000Y-80930000D02*
X109215000Y-83965000D01*
X106607760Y-89860000D02*
X104980000Y-89860000D01*
X109215000Y-87252760D02*
X106607760Y-89860000D01*
%TO.N,Net-(J7-Pin_26)*%
X107157612Y-112824000D02*
X108784000Y-114450388D01*
X108784000Y-114450388D02*
X108784000Y-123184000D01*
X103725000Y-113975000D02*
X104876000Y-112824000D01*
X108784000Y-123184000D02*
X112250000Y-126650000D01*
X104876000Y-112824000D02*
X107157612Y-112824000D01*
%TO.N,Net-(J7-Pin_12)*%
X104876000Y-95044000D02*
X103725000Y-96195000D01*
X106606000Y-95044000D02*
X104876000Y-95044000D01*
X112250000Y-91090000D02*
X110560000Y-91090000D01*
X110560000Y-91090000D02*
X106606000Y-95044000D01*
%TO.N,Net-(J7-Pin_19)*%
X111320000Y-108870000D02*
X112250000Y-108870000D01*
X106265000Y-103815000D02*
X111320000Y-108870000D01*
%TO.N,Net-(J7-Pin_14)*%
X104970000Y-97490000D02*
X103725000Y-98735000D01*
X110930000Y-97490000D02*
X104970000Y-97490000D01*
X112250000Y-96170000D02*
X110930000Y-97490000D01*
%TO.N,Net-(J7-Pin_20)*%
X103725000Y-106355000D02*
X104876000Y-105204000D01*
X104876000Y-105204000D02*
X107157612Y-105204000D01*
X107157612Y-105204000D02*
X110090000Y-108136388D01*
X110090000Y-108136388D02*
X110090000Y-109250000D01*
X110090000Y-109250000D02*
X112250000Y-111410000D01*
%TO.N,Net-(J7-Pin_3)*%
X108168000Y-78878388D02*
X107460000Y-79586388D01*
X112250000Y-68230000D02*
X108168000Y-72312000D01*
X107460000Y-79586388D02*
X107460000Y-82300000D01*
X107460000Y-82300000D02*
X106265000Y-83495000D01*
X108168000Y-72312000D02*
X108168000Y-78878388D01*
%TO.N,Net-(J7-Pin_11)*%
X112250000Y-88550000D02*
X111370000Y-88550000D01*
X111370000Y-88550000D02*
X106265000Y-93655000D01*
%TO.N,Net-(J7-Pin_1)*%
X106265000Y-78415000D02*
X107416000Y-77264000D01*
X107416000Y-77264000D02*
X107416000Y-67984000D01*
X107416000Y-67984000D02*
X112250000Y-63150000D01*
%TD*%
%TA.AperFunction,Conductor*%
%TO.N,VCC*%
G36*
X194917253Y-121651473D02*
G01*
X194973925Y-121692339D01*
X194999506Y-121757357D01*
X195000000Y-121768410D01*
X195000000Y-123567106D01*
X194997071Y-123570035D01*
X194997070Y-123570034D01*
X194417106Y-124149999D01*
X194417106Y-124150000D01*
X194997056Y-124729951D01*
X194997071Y-124729965D01*
X195000000Y-124732894D01*
X195000000Y-124953035D01*
X195000000Y-128876000D01*
X194980315Y-128943039D01*
X194927511Y-128988794D01*
X194876000Y-129000000D01*
X192750000Y-129000000D01*
X192750000Y-129217270D01*
X192730315Y-129284309D01*
X192720478Y-129296516D01*
X192720914Y-129296874D01*
X192717048Y-129301584D01*
X192634919Y-129424498D01*
X192634912Y-129424511D01*
X192578343Y-129561082D01*
X192578340Y-129561092D01*
X192549500Y-129706079D01*
X192549500Y-129706082D01*
X192549500Y-129853918D01*
X192549500Y-129853920D01*
X192549499Y-129853920D01*
X192578340Y-129998907D01*
X192578343Y-129998917D01*
X192634912Y-130135488D01*
X192634919Y-130135501D01*
X192717048Y-130258415D01*
X192720914Y-130263126D01*
X192718955Y-130264733D01*
X192747152Y-130316306D01*
X192750000Y-130342729D01*
X192750000Y-132000000D01*
X194126000Y-132000000D01*
X194193039Y-132019685D01*
X194238794Y-132072489D01*
X194250000Y-132124000D01*
X194250000Y-136126000D01*
X194230315Y-136193039D01*
X194177511Y-136238794D01*
X194126000Y-136250000D01*
X192750000Y-136250000D01*
X192750000Y-137857270D01*
X192730315Y-137924309D01*
X192720478Y-137936516D01*
X192720914Y-137936874D01*
X192717048Y-137941584D01*
X192634919Y-138064498D01*
X192634912Y-138064511D01*
X192578343Y-138201082D01*
X192578340Y-138201092D01*
X192549500Y-138346079D01*
X192549500Y-138346082D01*
X192549500Y-138493918D01*
X192549500Y-138493920D01*
X192549499Y-138493920D01*
X192578340Y-138638907D01*
X192578343Y-138638917D01*
X192634912Y-138775488D01*
X192634919Y-138775501D01*
X192717048Y-138898415D01*
X192720914Y-138903126D01*
X192718955Y-138904733D01*
X192747152Y-138956306D01*
X192750000Y-138982729D01*
X192750000Y-139968149D01*
X192734651Y-140027907D01*
X190035333Y-144935758D01*
X189985777Y-144985013D01*
X189926682Y-145000000D01*
X110051362Y-145000000D01*
X109984323Y-144980315D01*
X109963681Y-144963681D01*
X105036319Y-140036319D01*
X105002834Y-139974996D01*
X105000000Y-139948638D01*
X105000000Y-124963036D01*
X105000000Y-124692894D01*
X105557894Y-124135000D01*
X105000000Y-123577106D01*
X105000000Y-121879095D01*
X105019685Y-121812056D01*
X105072489Y-121766301D01*
X105141647Y-121756357D01*
X105205203Y-121785382D01*
X105242977Y-121844160D01*
X105245617Y-121854904D01*
X105254868Y-121901412D01*
X105254870Y-121901420D01*
X105323703Y-122067598D01*
X105334059Y-122092598D01*
X105344082Y-122107598D01*
X105449024Y-122264657D01*
X105595342Y-122410975D01*
X105767405Y-122525943D01*
X105870043Y-122568456D01*
X105932108Y-122594164D01*
X105986511Y-122638005D01*
X106008576Y-122704299D01*
X105991297Y-122771998D01*
X105940160Y-122819609D01*
X105922974Y-122826656D01*
X105746781Y-122883905D01*
X105729709Y-122892603D01*
X106530872Y-123693766D01*
X106544736Y-123719156D01*
X106457993Y-123669075D01*
X106330826Y-123635000D01*
X106199174Y-123635000D01*
X106072007Y-123669075D01*
X105957993Y-123734901D01*
X105864901Y-123827993D01*
X105799075Y-123942007D01*
X105765000Y-124069174D01*
X105765000Y-124200826D01*
X105799075Y-124327993D01*
X105864901Y-124442007D01*
X105957993Y-124535099D01*
X106072007Y-124600925D01*
X106199174Y-124635000D01*
X106330826Y-124635000D01*
X106457993Y-124600925D01*
X106548634Y-124548592D01*
X106530871Y-124576233D01*
X105729708Y-125377396D01*
X105746780Y-125386094D01*
X105948871Y-125451757D01*
X106158754Y-125485000D01*
X106371246Y-125485000D01*
X106581127Y-125451757D01*
X106581130Y-125451757D01*
X106783219Y-125386094D01*
X106885204Y-125334130D01*
X106953873Y-125321233D01*
X107018614Y-125347509D01*
X107058871Y-125404615D01*
X107065500Y-125444614D01*
X107065500Y-131965562D01*
X107074728Y-132000000D01*
X107085979Y-132041990D01*
X107085980Y-132041991D01*
X107111097Y-132085495D01*
X107125540Y-132110511D01*
X107125542Y-132110513D01*
X109963681Y-134948652D01*
X109997166Y-135009975D01*
X110000000Y-135036333D01*
X110000000Y-140000000D01*
X112000000Y-142000000D01*
X187999998Y-142000000D01*
X188000000Y-142000000D01*
X189250000Y-140000000D01*
X189250000Y-135786332D01*
X189269685Y-135719293D01*
X189286319Y-135698651D01*
X190408550Y-134576420D01*
X191746460Y-133238511D01*
X191757436Y-133219500D01*
X191786021Y-133169989D01*
X191806500Y-133093562D01*
X191806500Y-125392396D01*
X193174708Y-125392396D01*
X193191780Y-125401094D01*
X193393871Y-125466757D01*
X193603754Y-125500000D01*
X193816246Y-125500000D01*
X194026127Y-125466757D01*
X194026130Y-125466757D01*
X194228218Y-125401094D01*
X194228220Y-125401093D01*
X194245289Y-125392395D01*
X194245290Y-125392395D01*
X193710001Y-124857106D01*
X193710000Y-124857106D01*
X193174708Y-125392396D01*
X191806500Y-125392396D01*
X191806500Y-123989832D01*
X191826185Y-123922793D01*
X191842814Y-123902156D01*
X192264454Y-123480515D01*
X192325774Y-123447033D01*
X192395465Y-123452017D01*
X192451399Y-123493888D01*
X192475816Y-123559353D01*
X192462622Y-123624484D01*
X192458905Y-123631779D01*
X192393242Y-123833869D01*
X192393242Y-123833872D01*
X192360000Y-124043753D01*
X192360000Y-124256246D01*
X192393242Y-124466127D01*
X192393242Y-124466130D01*
X192458903Y-124668213D01*
X192458908Y-124668225D01*
X192467602Y-124685289D01*
X192467603Y-124685290D01*
X193068719Y-124084174D01*
X193210000Y-124084174D01*
X193210000Y-124215826D01*
X193244075Y-124342993D01*
X193309901Y-124457007D01*
X193402993Y-124550099D01*
X193517007Y-124615925D01*
X193644174Y-124650000D01*
X193775826Y-124650000D01*
X193902993Y-124615925D01*
X194017007Y-124550099D01*
X194110099Y-124457007D01*
X194175925Y-124342993D01*
X194210000Y-124215826D01*
X194210000Y-124084174D01*
X194175925Y-123957007D01*
X194110099Y-123842993D01*
X194017007Y-123749901D01*
X193902993Y-123684075D01*
X193775826Y-123650000D01*
X193644174Y-123650000D01*
X193517007Y-123684075D01*
X193402993Y-123749901D01*
X193309901Y-123842993D01*
X193244075Y-123957007D01*
X193210000Y-124084174D01*
X193068719Y-124084174D01*
X194245290Y-122907603D01*
X194245289Y-122907602D01*
X194228225Y-122898908D01*
X194228216Y-122898904D01*
X194052025Y-122841656D01*
X193994350Y-122802218D01*
X193967152Y-122737859D01*
X193979067Y-122669013D01*
X194026311Y-122617537D01*
X194042882Y-122609168D01*
X194207598Y-122540941D01*
X194379655Y-122425977D01*
X194525977Y-122279655D01*
X194640941Y-122107598D01*
X194720130Y-121916420D01*
X194749571Y-121768410D01*
X194754383Y-121744219D01*
X194786768Y-121682308D01*
X194847483Y-121647734D01*
X194917253Y-121651473D01*
G37*
%TD.AperFunction*%
%TA.AperFunction,Conductor*%
G36*
X190015677Y-55019685D02*
G01*
X190036319Y-55036319D01*
X194963681Y-59963681D01*
X194997166Y-60025004D01*
X195000000Y-60051362D01*
X195000000Y-67137290D01*
X194980315Y-67204329D01*
X194927511Y-67250084D01*
X194858353Y-67260028D01*
X194836997Y-67254996D01*
X194702700Y-67210495D01*
X194702690Y-67210493D01*
X194599986Y-67200000D01*
X194500000Y-67200000D01*
X194500000Y-69799999D01*
X194599972Y-69799999D01*
X194599986Y-69799998D01*
X194702697Y-69789505D01*
X194836996Y-69745003D01*
X194906824Y-69742601D01*
X194966866Y-69778333D01*
X194998059Y-69840853D01*
X195000000Y-69862709D01*
X195000000Y-74497080D01*
X194980315Y-74564119D01*
X194927511Y-74609874D01*
X194858353Y-74619818D01*
X194810388Y-74599951D01*
X194809872Y-74600897D01*
X194802086Y-74596645D01*
X194667379Y-74546403D01*
X194667372Y-74546401D01*
X194607844Y-74540000D01*
X194210000Y-74540000D01*
X194210000Y-75766000D01*
X194201849Y-75793756D01*
X194175925Y-75697007D01*
X194110099Y-75582993D01*
X194017007Y-75489901D01*
X193902993Y-75424075D01*
X193775826Y-75390000D01*
X193644174Y-75390000D01*
X193517007Y-75424075D01*
X193402993Y-75489901D01*
X193309901Y-75582993D01*
X193244075Y-75697007D01*
X193216984Y-75798107D01*
X193210000Y-75766000D01*
X193210000Y-74540000D01*
X192983500Y-74540000D01*
X192916461Y-74520315D01*
X192870706Y-74467511D01*
X192859500Y-74416000D01*
X192859500Y-69789145D01*
X192879185Y-69722106D01*
X192931989Y-69676351D01*
X193001147Y-69666407D01*
X193048597Y-69683606D01*
X193130875Y-69734356D01*
X193130880Y-69734358D01*
X193297302Y-69789505D01*
X193297309Y-69789506D01*
X193400019Y-69799999D01*
X193500000Y-69799998D01*
X193500000Y-68447339D01*
X193600000Y-68447339D01*
X193600000Y-68552661D01*
X193627259Y-68654394D01*
X193679920Y-68745606D01*
X193754394Y-68820080D01*
X193845606Y-68872741D01*
X193947339Y-68900000D01*
X194052661Y-68900000D01*
X194154394Y-68872741D01*
X194245606Y-68820080D01*
X194320080Y-68745606D01*
X194372741Y-68654394D01*
X194400000Y-68552661D01*
X194400000Y-68447339D01*
X194372741Y-68345606D01*
X194320080Y-68254394D01*
X194245606Y-68179920D01*
X194154394Y-68127259D01*
X194052661Y-68100000D01*
X193947339Y-68100000D01*
X193845606Y-68127259D01*
X193754394Y-68179920D01*
X193679920Y-68254394D01*
X193627259Y-68345606D01*
X193600000Y-68447339D01*
X193500000Y-68447339D01*
X193500000Y-67199999D01*
X193400028Y-67200000D01*
X193400012Y-67200001D01*
X193297302Y-67210494D01*
X193130880Y-67265641D01*
X193130875Y-67265643D01*
X192981654Y-67357684D01*
X192857684Y-67481654D01*
X192806085Y-67565310D01*
X192754137Y-67612035D01*
X192685174Y-67623256D01*
X192621092Y-67595413D01*
X192612865Y-67587894D01*
X189286319Y-64261348D01*
X189252834Y-64200025D01*
X189250000Y-64173667D01*
X189250000Y-60000000D01*
X189227301Y-59963681D01*
X188000000Y-58000000D01*
X187999998Y-58000000D01*
X111999999Y-58000000D01*
X110000000Y-59999999D01*
X110000000Y-64923666D01*
X109980315Y-64990705D01*
X109963681Y-65011347D01*
X107231489Y-67743540D01*
X107175541Y-67799487D01*
X107175535Y-67799495D01*
X107135982Y-67868004D01*
X107135979Y-67868009D01*
X107115500Y-67944439D01*
X107115500Y-74590861D01*
X107095815Y-74657900D01*
X107043011Y-74703655D01*
X106973853Y-74713599D01*
X106935205Y-74701346D01*
X106783217Y-74623904D01*
X106581129Y-74558242D01*
X106371246Y-74525000D01*
X106158754Y-74525000D01*
X105948872Y-74558242D01*
X105948869Y-74558242D01*
X105746783Y-74623904D01*
X105729709Y-74632603D01*
X106530872Y-75433766D01*
X106544736Y-75459156D01*
X106457993Y-75409075D01*
X106330826Y-75375000D01*
X106199174Y-75375000D01*
X106072007Y-75409075D01*
X105957993Y-75474901D01*
X105864901Y-75567993D01*
X105799075Y-75682007D01*
X105765000Y-75809174D01*
X105765000Y-75940826D01*
X105799075Y-76067993D01*
X105864901Y-76182007D01*
X105957993Y-76275099D01*
X106072007Y-76340925D01*
X106199174Y-76375000D01*
X106330826Y-76375000D01*
X106457993Y-76340925D01*
X106548634Y-76288592D01*
X106530871Y-76316233D01*
X105729708Y-77117396D01*
X105746780Y-77126094D01*
X105922973Y-77183343D01*
X105980649Y-77222780D01*
X106007847Y-77287139D01*
X105995932Y-77355985D01*
X105948688Y-77407461D01*
X105932108Y-77415835D01*
X105767403Y-77484057D01*
X105595342Y-77599024D01*
X105449024Y-77745342D01*
X105334058Y-77917403D01*
X105254870Y-78108579D01*
X105254868Y-78108587D01*
X105245617Y-78155095D01*
X105213232Y-78217006D01*
X105152516Y-78251580D01*
X105082747Y-78247841D01*
X105026075Y-78206974D01*
X105000494Y-78141956D01*
X105000000Y-78130904D01*
X105000000Y-76703036D01*
X105000000Y-76432894D01*
X105557894Y-75875000D01*
X105000000Y-75317106D01*
X105000000Y-60051362D01*
X105019685Y-59984323D01*
X105036319Y-59963681D01*
X109963681Y-55036319D01*
X110025004Y-55002834D01*
X110051362Y-55000000D01*
X189948638Y-55000000D01*
X190015677Y-55019685D01*
G37*
%TD.AperFunction*%
%TD*%
%TA.AperFunction,Conductor*%
%TO.N,GND*%
G36*
X199442539Y-50520185D02*
G01*
X199488294Y-50572989D01*
X199499500Y-50624500D01*
X199499500Y-149375500D01*
X199479815Y-149442539D01*
X199427011Y-149488294D01*
X199375500Y-149499500D01*
X100624500Y-149499500D01*
X100557461Y-149479815D01*
X100511706Y-149427011D01*
X100500500Y-149375500D01*
X100500500Y-124028753D01*
X102375000Y-124028753D01*
X102375000Y-124241246D01*
X102408242Y-124451127D01*
X102408242Y-124451130D01*
X102473903Y-124653213D01*
X102473908Y-124653225D01*
X102482602Y-124670289D01*
X102482603Y-124670290D01*
X103017894Y-124135000D01*
X102482603Y-123599709D01*
X102473904Y-123616783D01*
X102408242Y-123818869D01*
X102408242Y-123818872D01*
X102375000Y-124028753D01*
X100500500Y-124028753D01*
X100500500Y-121488753D01*
X102375000Y-121488753D01*
X102375000Y-121701246D01*
X102408242Y-121911127D01*
X102408242Y-121911130D01*
X102473903Y-122113213D01*
X102473908Y-122113225D01*
X102482602Y-122130289D01*
X102482603Y-122130290D01*
X103017894Y-121595000D01*
X102482603Y-121059709D01*
X102473904Y-121076783D01*
X102408242Y-121278869D01*
X102408242Y-121278872D01*
X102375000Y-121488753D01*
X100500500Y-121488753D01*
X100500500Y-118948753D01*
X102375000Y-118948753D01*
X102375000Y-119161246D01*
X102408242Y-119371127D01*
X102408242Y-119371130D01*
X102473903Y-119573213D01*
X102473908Y-119573225D01*
X102482602Y-119590289D01*
X102482603Y-119590290D01*
X103017894Y-119055000D01*
X102482603Y-118519709D01*
X102473904Y-118536783D01*
X102408242Y-118738869D01*
X102408242Y-118738872D01*
X102375000Y-118948753D01*
X100500500Y-118948753D01*
X100500500Y-116408753D01*
X102375000Y-116408753D01*
X102375000Y-116621246D01*
X102408242Y-116831127D01*
X102408242Y-116831130D01*
X102473903Y-117033213D01*
X102473908Y-117033225D01*
X102482602Y-117050289D01*
X102482603Y-117050290D01*
X103017894Y-116515000D01*
X102482603Y-115979709D01*
X102473904Y-115996783D01*
X102408242Y-116198869D01*
X102408242Y-116198872D01*
X102375000Y-116408753D01*
X100500500Y-116408753D01*
X100500500Y-83388753D01*
X102375000Y-83388753D01*
X102375000Y-83601246D01*
X102408242Y-83811127D01*
X102408242Y-83811130D01*
X102473903Y-84013213D01*
X102473908Y-84013225D01*
X102482602Y-84030289D01*
X102482603Y-84030290D01*
X103017894Y-83495000D01*
X102482603Y-82959709D01*
X102473904Y-82976783D01*
X102408242Y-83178869D01*
X102408242Y-83178872D01*
X102375000Y-83388753D01*
X100500500Y-83388753D01*
X100500500Y-80848753D01*
X102375000Y-80848753D01*
X102375000Y-81061246D01*
X102408242Y-81271127D01*
X102408242Y-81271130D01*
X102473903Y-81473213D01*
X102473908Y-81473225D01*
X102482602Y-81490289D01*
X102482603Y-81490290D01*
X103017894Y-80955000D01*
X102482603Y-80419709D01*
X102473904Y-80436783D01*
X102408242Y-80638869D01*
X102408242Y-80638872D01*
X102375000Y-80848753D01*
X100500500Y-80848753D01*
X100500500Y-78308753D01*
X102375000Y-78308753D01*
X102375000Y-78521246D01*
X102408242Y-78731127D01*
X102408242Y-78731130D01*
X102473903Y-78933213D01*
X102473908Y-78933225D01*
X102482602Y-78950289D01*
X102482603Y-78950290D01*
X103017894Y-78415000D01*
X102482603Y-77879709D01*
X102473904Y-77896783D01*
X102408242Y-78098869D01*
X102408242Y-78098872D01*
X102375000Y-78308753D01*
X100500500Y-78308753D01*
X100500500Y-76375000D01*
X102375000Y-76375000D01*
X102375000Y-76772844D01*
X102381401Y-76832372D01*
X102381403Y-76832379D01*
X102431645Y-76967086D01*
X102431649Y-76967093D01*
X102517809Y-77082187D01*
X102517812Y-77082190D01*
X102632906Y-77168350D01*
X102632913Y-77168354D01*
X102767620Y-77218596D01*
X102767619Y-77218596D01*
X102822468Y-77224493D01*
X102944352Y-77102609D01*
X103005675Y-77069124D01*
X103075367Y-77074108D01*
X103119715Y-77102609D01*
X103990872Y-77973766D01*
X104004736Y-77999156D01*
X103917993Y-77949075D01*
X103790826Y-77915000D01*
X103659174Y-77915000D01*
X103532007Y-77949075D01*
X103417993Y-78014901D01*
X103324901Y-78107993D01*
X103259075Y-78222007D01*
X103225000Y-78349174D01*
X103225000Y-78480826D01*
X103259075Y-78607993D01*
X103324901Y-78722007D01*
X103417993Y-78815099D01*
X103532007Y-78880925D01*
X103659174Y-78915000D01*
X103790826Y-78915000D01*
X103917993Y-78880925D01*
X104008634Y-78828592D01*
X103990871Y-78856233D01*
X103189708Y-79657396D01*
X103191008Y-79665603D01*
X103191008Y-79704399D01*
X103189708Y-79712602D01*
X103990872Y-80513766D01*
X104004736Y-80539156D01*
X103917993Y-80489075D01*
X103790826Y-80455000D01*
X103659174Y-80455000D01*
X103532007Y-80489075D01*
X103417993Y-80554901D01*
X103324901Y-80647993D01*
X103259075Y-80762007D01*
X103225000Y-80889174D01*
X103225000Y-81020826D01*
X103259075Y-81147993D01*
X103324901Y-81262007D01*
X103417993Y-81355099D01*
X103532007Y-81420925D01*
X103659174Y-81455000D01*
X103790826Y-81455000D01*
X103917993Y-81420925D01*
X104008634Y-81368592D01*
X103990871Y-81396233D01*
X103189708Y-82197396D01*
X103191008Y-82205603D01*
X103191008Y-82244399D01*
X103189708Y-82252602D01*
X103990872Y-83053766D01*
X104004736Y-83079156D01*
X103917993Y-83029075D01*
X103790826Y-82995000D01*
X103659174Y-82995000D01*
X103532007Y-83029075D01*
X103417993Y-83094901D01*
X103324901Y-83187993D01*
X103259075Y-83302007D01*
X103225000Y-83429174D01*
X103225000Y-83560826D01*
X103259075Y-83687993D01*
X103324901Y-83802007D01*
X103417993Y-83895099D01*
X103532007Y-83960925D01*
X103659174Y-83995000D01*
X103790826Y-83995000D01*
X103917993Y-83960925D01*
X104008634Y-83908592D01*
X103990871Y-83936233D01*
X103189708Y-84737396D01*
X103206780Y-84746094D01*
X103382973Y-84803343D01*
X103440649Y-84842780D01*
X103467847Y-84907139D01*
X103455932Y-84975985D01*
X103408688Y-85027461D01*
X103392108Y-85035835D01*
X103227403Y-85104057D01*
X103055342Y-85219024D01*
X102909024Y-85365342D01*
X102794058Y-85537403D01*
X102714870Y-85728579D01*
X102714868Y-85728587D01*
X102674500Y-85931530D01*
X102674500Y-86138469D01*
X102714868Y-86341412D01*
X102714870Y-86341420D01*
X102783703Y-86507598D01*
X102794059Y-86532598D01*
X102804082Y-86547598D01*
X102909024Y-86704657D01*
X103055342Y-86850975D01*
X103055345Y-86850977D01*
X103227402Y-86965941D01*
X103418580Y-87045130D01*
X103617644Y-87084726D01*
X103621530Y-87085499D01*
X103621534Y-87085500D01*
X103621535Y-87085500D01*
X103828466Y-87085500D01*
X103828467Y-87085499D01*
X104031420Y-87045130D01*
X104222598Y-86965941D01*
X104394655Y-86850977D01*
X104540977Y-86704655D01*
X104567397Y-86665113D01*
X104621009Y-86620309D01*
X104690334Y-86611601D01*
X104753362Y-86641755D01*
X104790082Y-86701198D01*
X104794500Y-86734004D01*
X104794500Y-86999500D01*
X104797671Y-87028990D01*
X104798480Y-87036512D01*
X104786074Y-87105272D01*
X104738463Y-87156409D01*
X104737190Y-87157154D01*
X104691492Y-87183537D01*
X104691487Y-87183541D01*
X104287104Y-87587923D01*
X104225781Y-87621408D01*
X104156089Y-87616424D01*
X104151971Y-87614803D01*
X104031424Y-87564871D01*
X104031412Y-87564868D01*
X103828469Y-87524500D01*
X103828465Y-87524500D01*
X103621535Y-87524500D01*
X103621530Y-87524500D01*
X103418587Y-87564868D01*
X103418579Y-87564870D01*
X103227403Y-87644058D01*
X103055342Y-87759024D01*
X102909024Y-87905342D01*
X102794058Y-88077403D01*
X102714870Y-88268579D01*
X102714868Y-88268587D01*
X102674500Y-88471530D01*
X102674500Y-88678469D01*
X102714868Y-88881412D01*
X102714870Y-88881420D01*
X102783703Y-89047598D01*
X102794059Y-89072598D01*
X102804082Y-89087598D01*
X102909024Y-89244657D01*
X103055342Y-89390975D01*
X103055345Y-89390977D01*
X103227402Y-89505941D01*
X103418580Y-89585130D01*
X103591572Y-89619540D01*
X103621530Y-89625499D01*
X103621534Y-89625500D01*
X103621535Y-89625500D01*
X103828466Y-89625500D01*
X103828467Y-89625499D01*
X104031420Y-89585130D01*
X104222598Y-89505941D01*
X104394655Y-89390977D01*
X104540977Y-89244655D01*
X104567397Y-89205113D01*
X104621009Y-89160309D01*
X104690334Y-89151601D01*
X104753362Y-89181755D01*
X104790082Y-89241198D01*
X104794500Y-89274004D01*
X104794500Y-89435507D01*
X104799196Y-89479181D01*
X104809219Y-89525257D01*
X104804233Y-89594948D01*
X104775733Y-89639294D01*
X104287104Y-90127923D01*
X104225781Y-90161408D01*
X104156089Y-90156424D01*
X104151971Y-90154803D01*
X104031424Y-90104871D01*
X104031412Y-90104868D01*
X103828469Y-90064500D01*
X103828465Y-90064500D01*
X103621535Y-90064500D01*
X103621530Y-90064500D01*
X103418587Y-90104868D01*
X103418579Y-90104870D01*
X103227403Y-90184058D01*
X103055342Y-90299024D01*
X102909024Y-90445342D01*
X102794058Y-90617403D01*
X102714870Y-90808579D01*
X102714868Y-90808587D01*
X102674500Y-91011530D01*
X102674500Y-91218469D01*
X102714868Y-91421412D01*
X102714870Y-91421420D01*
X102783703Y-91587598D01*
X102794059Y-91612598D01*
X102804082Y-91627598D01*
X102909024Y-91784657D01*
X103055342Y-91930975D01*
X103055345Y-91930977D01*
X103227402Y-92045941D01*
X103418580Y-92125130D01*
X103617644Y-92164726D01*
X103621530Y-92165499D01*
X103621534Y-92165500D01*
X103621535Y-92165500D01*
X103828466Y-92165500D01*
X103828467Y-92165499D01*
X104031420Y-92125130D01*
X104222598Y-92045941D01*
X104394655Y-91930977D01*
X104540977Y-91784655D01*
X104567397Y-91745113D01*
X104621009Y-91700309D01*
X104690334Y-91691601D01*
X104753362Y-91721755D01*
X104790082Y-91781198D01*
X104794500Y-91814004D01*
X104794500Y-92079500D01*
X104798480Y-92116512D01*
X104795185Y-92134769D01*
X104796949Y-92153233D01*
X104789111Y-92168436D01*
X104786074Y-92185272D01*
X104773433Y-92198848D01*
X104764934Y-92215336D01*
X104739353Y-92235452D01*
X104738463Y-92236409D01*
X104737191Y-92237153D01*
X104702835Y-92256989D01*
X104702832Y-92256991D01*
X104691492Y-92263537D01*
X104691487Y-92263541D01*
X104287104Y-92667923D01*
X104225781Y-92701408D01*
X104156089Y-92696424D01*
X104151971Y-92694803D01*
X104031424Y-92644871D01*
X104031412Y-92644868D01*
X103828469Y-92604500D01*
X103828465Y-92604500D01*
X103621535Y-92604500D01*
X103621530Y-92604500D01*
X103418587Y-92644868D01*
X103418579Y-92644870D01*
X103227403Y-92724058D01*
X103055342Y-92839024D01*
X102909024Y-92985342D01*
X102794058Y-93157403D01*
X102714870Y-93348579D01*
X102714868Y-93348587D01*
X102674500Y-93551530D01*
X102674500Y-93758469D01*
X102714868Y-93961412D01*
X102714870Y-93961420D01*
X102783703Y-94127598D01*
X102794059Y-94152598D01*
X102804082Y-94167598D01*
X102909024Y-94324657D01*
X103055342Y-94470975D01*
X103055345Y-94470977D01*
X103227402Y-94585941D01*
X103418580Y-94665130D01*
X103617644Y-94704726D01*
X103621530Y-94705499D01*
X103621534Y-94705500D01*
X103621535Y-94705500D01*
X103828466Y-94705500D01*
X103828467Y-94705499D01*
X104031420Y-94665130D01*
X104222598Y-94585941D01*
X104394655Y-94470977D01*
X104540977Y-94324655D01*
X104567397Y-94285113D01*
X104621009Y-94240309D01*
X104690334Y-94231601D01*
X104753362Y-94261755D01*
X104790082Y-94321198D01*
X104794500Y-94354004D01*
X104794500Y-94619500D01*
X104798480Y-94656512D01*
X104786074Y-94725272D01*
X104738463Y-94776409D01*
X104737190Y-94777154D01*
X104691492Y-94803537D01*
X104691487Y-94803541D01*
X104287104Y-95207923D01*
X104225781Y-95241408D01*
X104156089Y-95236424D01*
X104151971Y-95234803D01*
X104031424Y-95184871D01*
X104031412Y-95184868D01*
X103828469Y-95144500D01*
X103828465Y-95144500D01*
X103621535Y-95144500D01*
X103621530Y-95144500D01*
X103418587Y-95184868D01*
X103418579Y-95184870D01*
X103227403Y-95264058D01*
X103055342Y-95379024D01*
X102909024Y-95525342D01*
X102794058Y-95697403D01*
X102714870Y-95888579D01*
X102714868Y-95888587D01*
X102674500Y-96091530D01*
X102674500Y-96298469D01*
X102714868Y-96501412D01*
X102714870Y-96501420D01*
X102783703Y-96667598D01*
X102794059Y-96692598D01*
X102804082Y-96707598D01*
X102909024Y-96864657D01*
X103055342Y-97010975D01*
X103055345Y-97010977D01*
X103227402Y-97125941D01*
X103418580Y-97205130D01*
X103603879Y-97241988D01*
X103621530Y-97245499D01*
X103621534Y-97245500D01*
X103621535Y-97245500D01*
X103828466Y-97245500D01*
X103828467Y-97245499D01*
X104031420Y-97205130D01*
X104222598Y-97125941D01*
X104394655Y-97010977D01*
X104540977Y-96864655D01*
X104567397Y-96825113D01*
X104621009Y-96780309D01*
X104690334Y-96771601D01*
X104753362Y-96801755D01*
X104790082Y-96861198D01*
X104794500Y-96894004D01*
X104794500Y-97065507D01*
X104799197Y-97109186D01*
X104807432Y-97147041D01*
X104802448Y-97216732D01*
X104773947Y-97261080D01*
X104287104Y-97747923D01*
X104225781Y-97781408D01*
X104156089Y-97776424D01*
X104151971Y-97774803D01*
X104031424Y-97724871D01*
X104031412Y-97724868D01*
X103828469Y-97684500D01*
X103828465Y-97684500D01*
X103621535Y-97684500D01*
X103621530Y-97684500D01*
X103418587Y-97724868D01*
X103418579Y-97724870D01*
X103227403Y-97804058D01*
X103055342Y-97919024D01*
X102909024Y-98065342D01*
X102794058Y-98237403D01*
X102714870Y-98428579D01*
X102714868Y-98428587D01*
X102674500Y-98631530D01*
X102674500Y-98838469D01*
X102714868Y-99041412D01*
X102714870Y-99041420D01*
X102783703Y-99207598D01*
X102794059Y-99232598D01*
X102804082Y-99247598D01*
X102909024Y-99404657D01*
X103055342Y-99550975D01*
X103055345Y-99550977D01*
X103227402Y-99665941D01*
X103418580Y-99745130D01*
X103621530Y-99785499D01*
X103621534Y-99785500D01*
X103621535Y-99785500D01*
X103828466Y-99785500D01*
X103828467Y-99785499D01*
X104031420Y-99745130D01*
X104222598Y-99665941D01*
X104394655Y-99550977D01*
X104540977Y-99404655D01*
X104567397Y-99365113D01*
X104621009Y-99320309D01*
X104690334Y-99311601D01*
X104753362Y-99341755D01*
X104790082Y-99401198D01*
X104794500Y-99434004D01*
X104794500Y-99585507D01*
X104799197Y-99629186D01*
X104810738Y-99682238D01*
X104810236Y-99682347D01*
X104807107Y-99750181D01*
X104777547Y-99797481D01*
X104287104Y-100287923D01*
X104225781Y-100321408D01*
X104156089Y-100316424D01*
X104151971Y-100314803D01*
X104031424Y-100264871D01*
X104031412Y-100264868D01*
X103828469Y-100224500D01*
X103828465Y-100224500D01*
X103621535Y-100224500D01*
X103621530Y-100224500D01*
X103418587Y-100264868D01*
X103418579Y-100264870D01*
X103227403Y-100344058D01*
X103055342Y-100459024D01*
X102909024Y-100605342D01*
X102794058Y-100777403D01*
X102714870Y-100968579D01*
X102714868Y-100968587D01*
X102674500Y-101171530D01*
X102674500Y-101378469D01*
X102714868Y-101581412D01*
X102714870Y-101581420D01*
X102783703Y-101747598D01*
X102794059Y-101772598D01*
X102804082Y-101787598D01*
X102909024Y-101944657D01*
X103055342Y-102090975D01*
X103055345Y-102090977D01*
X103227402Y-102205941D01*
X103418580Y-102285130D01*
X103595182Y-102320258D01*
X103621530Y-102325499D01*
X103621534Y-102325500D01*
X103621535Y-102325500D01*
X103828466Y-102325500D01*
X103828467Y-102325499D01*
X104031420Y-102285130D01*
X104222598Y-102205941D01*
X104394655Y-102090977D01*
X104540977Y-101944655D01*
X104567397Y-101905113D01*
X104621009Y-101860309D01*
X104690334Y-101851601D01*
X104753362Y-101881755D01*
X104790082Y-101941198D01*
X104794500Y-101974004D01*
X104794500Y-102239500D01*
X104798480Y-102276512D01*
X104795185Y-102294769D01*
X104796949Y-102313233D01*
X104789111Y-102328436D01*
X104786074Y-102345272D01*
X104773433Y-102358848D01*
X104764934Y-102375336D01*
X104739350Y-102395455D01*
X104738463Y-102396409D01*
X104737191Y-102397154D01*
X104711952Y-102411726D01*
X104711950Y-102411726D01*
X104691492Y-102423537D01*
X104691487Y-102423541D01*
X104287104Y-102827923D01*
X104225781Y-102861408D01*
X104156089Y-102856424D01*
X104151971Y-102854803D01*
X104031424Y-102804871D01*
X104031412Y-102804868D01*
X103828469Y-102764500D01*
X103828465Y-102764500D01*
X103621535Y-102764500D01*
X103621530Y-102764500D01*
X103418587Y-102804868D01*
X103418579Y-102804870D01*
X103227403Y-102884058D01*
X103055342Y-102999024D01*
X102909024Y-103145342D01*
X102794058Y-103317403D01*
X102714870Y-103508579D01*
X102714868Y-103508587D01*
X102674500Y-103711530D01*
X102674500Y-103918469D01*
X102714868Y-104121412D01*
X102714870Y-104121420D01*
X102783703Y-104287598D01*
X102794059Y-104312598D01*
X102804082Y-104327598D01*
X102909024Y-104484657D01*
X103055342Y-104630975D01*
X103055345Y-104630977D01*
X103227402Y-104745941D01*
X103418580Y-104825130D01*
X103617644Y-104864726D01*
X103621530Y-104865499D01*
X103621534Y-104865500D01*
X103621535Y-104865500D01*
X103828466Y-104865500D01*
X103828467Y-104865499D01*
X104031420Y-104825130D01*
X104222598Y-104745941D01*
X104394655Y-104630977D01*
X104540977Y-104484655D01*
X104567397Y-104445113D01*
X104621009Y-104400309D01*
X104690334Y-104391601D01*
X104753362Y-104421755D01*
X104790082Y-104481198D01*
X104794500Y-104514004D01*
X104794500Y-104779500D01*
X104798480Y-104816512D01*
X104795185Y-104834769D01*
X104796949Y-104853233D01*
X104789111Y-104868436D01*
X104786074Y-104885272D01*
X104773433Y-104898848D01*
X104764934Y-104915336D01*
X104739350Y-104935455D01*
X104738463Y-104936409D01*
X104737191Y-104937154D01*
X104708708Y-104953599D01*
X104708706Y-104953600D01*
X104691490Y-104963539D01*
X104691487Y-104963541D01*
X104287104Y-105367923D01*
X104225781Y-105401408D01*
X104156089Y-105396424D01*
X104151971Y-105394803D01*
X104031424Y-105344871D01*
X104031412Y-105344868D01*
X103828469Y-105304500D01*
X103828465Y-105304500D01*
X103621535Y-105304500D01*
X103621530Y-105304500D01*
X103418587Y-105344868D01*
X103418579Y-105344870D01*
X103227403Y-105424058D01*
X103055342Y-105539024D01*
X102909024Y-105685342D01*
X102794058Y-105857403D01*
X102714870Y-106048579D01*
X102714868Y-106048587D01*
X102674500Y-106251530D01*
X102674500Y-106458469D01*
X102714868Y-106661412D01*
X102714870Y-106661420D01*
X102783703Y-106827598D01*
X102794059Y-106852598D01*
X102846847Y-106931601D01*
X102909024Y-107024657D01*
X103055342Y-107170975D01*
X103055345Y-107170977D01*
X103227402Y-107285941D01*
X103418580Y-107365130D01*
X103621530Y-107405499D01*
X103621534Y-107405500D01*
X103621535Y-107405500D01*
X103828466Y-107405500D01*
X103828467Y-107405499D01*
X104031420Y-107365130D01*
X104222598Y-107285941D01*
X104394655Y-107170977D01*
X104540977Y-107024655D01*
X104567397Y-106985113D01*
X104621009Y-106940309D01*
X104690334Y-106931601D01*
X104753362Y-106961755D01*
X104790082Y-107021198D01*
X104794500Y-107054004D01*
X104794500Y-107165507D01*
X104799197Y-107209186D01*
X104810397Y-107260674D01*
X104811199Y-107263953D01*
X104812890Y-107270873D01*
X104812890Y-107270874D01*
X104812891Y-107270875D01*
X104814971Y-107276325D01*
X104820486Y-107345976D01*
X104787470Y-107407553D01*
X104786804Y-107408223D01*
X104287104Y-107907923D01*
X104225781Y-107941408D01*
X104156089Y-107936424D01*
X104151971Y-107934803D01*
X104031424Y-107884871D01*
X104031412Y-107884868D01*
X103828469Y-107844500D01*
X103828465Y-107844500D01*
X103621535Y-107844500D01*
X103621530Y-107844500D01*
X103418587Y-107884868D01*
X103418579Y-107884870D01*
X103227403Y-107964058D01*
X103055342Y-108079024D01*
X102909024Y-108225342D01*
X102794058Y-108397403D01*
X102714870Y-108588579D01*
X102714868Y-108588587D01*
X102674500Y-108791530D01*
X102674500Y-108998469D01*
X102714868Y-109201412D01*
X102714870Y-109201420D01*
X102783703Y-109367598D01*
X102794059Y-109392598D01*
X102846847Y-109471601D01*
X102909024Y-109564657D01*
X103055342Y-109710975D01*
X103055345Y-109710977D01*
X103227402Y-109825941D01*
X103418580Y-109905130D01*
X103617644Y-109944726D01*
X103621530Y-109945499D01*
X103621534Y-109945500D01*
X103621535Y-109945500D01*
X103828466Y-109945500D01*
X103828467Y-109945499D01*
X104031420Y-109905130D01*
X104222598Y-109825941D01*
X104394655Y-109710977D01*
X104540977Y-109564655D01*
X104567397Y-109525113D01*
X104621009Y-109480309D01*
X104690334Y-109471601D01*
X104753362Y-109501755D01*
X104790082Y-109561198D01*
X104794500Y-109594004D01*
X104794500Y-109859500D01*
X104798480Y-109896512D01*
X104786074Y-109965272D01*
X104738463Y-110016409D01*
X104737190Y-110017154D01*
X104691492Y-110043537D01*
X104691487Y-110043541D01*
X104287104Y-110447923D01*
X104225781Y-110481408D01*
X104156089Y-110476424D01*
X104151971Y-110474803D01*
X104031424Y-110424871D01*
X104031412Y-110424868D01*
X103828469Y-110384500D01*
X103828465Y-110384500D01*
X103621535Y-110384500D01*
X103621530Y-110384500D01*
X103418587Y-110424868D01*
X103418579Y-110424870D01*
X103227403Y-110504058D01*
X103055342Y-110619024D01*
X102909024Y-110765342D01*
X102794058Y-110937403D01*
X102714870Y-111128579D01*
X102714868Y-111128587D01*
X102674500Y-111331530D01*
X102674500Y-111538469D01*
X102714868Y-111741412D01*
X102714870Y-111741420D01*
X102783703Y-111907598D01*
X102794059Y-111932598D01*
X102804082Y-111947598D01*
X102909024Y-112104657D01*
X103055342Y-112250975D01*
X103055345Y-112250977D01*
X103227402Y-112365941D01*
X103418580Y-112445130D01*
X103617644Y-112484726D01*
X103621530Y-112485499D01*
X103621534Y-112485500D01*
X103621535Y-112485500D01*
X103828466Y-112485500D01*
X103828467Y-112485499D01*
X104031420Y-112445130D01*
X104222598Y-112365941D01*
X104394655Y-112250977D01*
X104540977Y-112104655D01*
X104567397Y-112065113D01*
X104621009Y-112020309D01*
X104690334Y-112011601D01*
X104753362Y-112041755D01*
X104790082Y-112101198D01*
X104794500Y-112134004D01*
X104794500Y-112399500D01*
X104798480Y-112436512D01*
X104795185Y-112454769D01*
X104796949Y-112473233D01*
X104789111Y-112488436D01*
X104786074Y-112505272D01*
X104773433Y-112518848D01*
X104764934Y-112535336D01*
X104739350Y-112555455D01*
X104738463Y-112556409D01*
X104737191Y-112557154D01*
X104711952Y-112571726D01*
X104711950Y-112571726D01*
X104691492Y-112583537D01*
X104691487Y-112583541D01*
X104287104Y-112987923D01*
X104225781Y-113021408D01*
X104156089Y-113016424D01*
X104151971Y-113014803D01*
X104031424Y-112964871D01*
X104031412Y-112964868D01*
X103828469Y-112924500D01*
X103828465Y-112924500D01*
X103621535Y-112924500D01*
X103621530Y-112924500D01*
X103418587Y-112964868D01*
X103418579Y-112964870D01*
X103227403Y-113044058D01*
X103055342Y-113159024D01*
X102909024Y-113305342D01*
X102794058Y-113477403D01*
X102714870Y-113668579D01*
X102714868Y-113668587D01*
X102674500Y-113871530D01*
X102674500Y-114078469D01*
X102714868Y-114281412D01*
X102714870Y-114281420D01*
X102783703Y-114447598D01*
X102794059Y-114472598D01*
X102804082Y-114487598D01*
X102909024Y-114644657D01*
X103055342Y-114790975D01*
X103227405Y-114905943D01*
X103330043Y-114948456D01*
X103392108Y-114974164D01*
X103446511Y-115018005D01*
X103468576Y-115084299D01*
X103451297Y-115151998D01*
X103400160Y-115199609D01*
X103382974Y-115206656D01*
X103206781Y-115263905D01*
X103189709Y-115272603D01*
X103990872Y-116073766D01*
X104004736Y-116099156D01*
X103917993Y-116049075D01*
X103790826Y-116015000D01*
X103659174Y-116015000D01*
X103532007Y-116049075D01*
X103417993Y-116114901D01*
X103324901Y-116207993D01*
X103259075Y-116322007D01*
X103225000Y-116449174D01*
X103225000Y-116580826D01*
X103259075Y-116707993D01*
X103324901Y-116822007D01*
X103417993Y-116915099D01*
X103532007Y-116980925D01*
X103659174Y-117015000D01*
X103790826Y-117015000D01*
X103917993Y-116980925D01*
X104008634Y-116928592D01*
X103990871Y-116956233D01*
X103189708Y-117757396D01*
X103191008Y-117765603D01*
X103191008Y-117804399D01*
X103189708Y-117812602D01*
X103990872Y-118613766D01*
X104004736Y-118639156D01*
X103917993Y-118589075D01*
X103790826Y-118555000D01*
X103659174Y-118555000D01*
X103532007Y-118589075D01*
X103417993Y-118654901D01*
X103324901Y-118747993D01*
X103259075Y-118862007D01*
X103225000Y-118989174D01*
X103225000Y-119120826D01*
X103259075Y-119247993D01*
X103324901Y-119362007D01*
X103417993Y-119455099D01*
X103532007Y-119520925D01*
X103659174Y-119555000D01*
X103790826Y-119555000D01*
X103917993Y-119520925D01*
X104008634Y-119468592D01*
X103990871Y-119496233D01*
X103189708Y-120297396D01*
X103191008Y-120305603D01*
X103191008Y-120344399D01*
X103189708Y-120352602D01*
X103990872Y-121153766D01*
X104004736Y-121179156D01*
X103917993Y-121129075D01*
X103790826Y-121095000D01*
X103659174Y-121095000D01*
X103532007Y-121129075D01*
X103417993Y-121194901D01*
X103324901Y-121287993D01*
X103259075Y-121402007D01*
X103225000Y-121529174D01*
X103225000Y-121660826D01*
X103259075Y-121787993D01*
X103324901Y-121902007D01*
X103417993Y-121995099D01*
X103532007Y-122060925D01*
X103659174Y-122095000D01*
X103790826Y-122095000D01*
X103917993Y-122060925D01*
X104008634Y-122008592D01*
X103990871Y-122036233D01*
X103189708Y-122837396D01*
X103191008Y-122845603D01*
X103191008Y-122884399D01*
X103189708Y-122892602D01*
X103990872Y-123693766D01*
X104004736Y-123719156D01*
X103917993Y-123669075D01*
X103790826Y-123635000D01*
X103659174Y-123635000D01*
X103532007Y-123669075D01*
X103417993Y-123734901D01*
X103324901Y-123827993D01*
X103259075Y-123942007D01*
X103225000Y-124069174D01*
X103225000Y-124200826D01*
X103259075Y-124327993D01*
X103324901Y-124442007D01*
X103417993Y-124535099D01*
X103532007Y-124600925D01*
X103659174Y-124635000D01*
X103790826Y-124635000D01*
X103917993Y-124600925D01*
X104008634Y-124548592D01*
X103990871Y-124576233D01*
X103189708Y-125377396D01*
X103206780Y-125386094D01*
X103408871Y-125451757D01*
X103618754Y-125485000D01*
X103831246Y-125485000D01*
X104041127Y-125451757D01*
X104041130Y-125451757D01*
X104243217Y-125386095D01*
X104432557Y-125289620D01*
X104597615Y-125169700D01*
X104663421Y-125146220D01*
X104731475Y-125162046D01*
X104780170Y-125212151D01*
X104794500Y-125270018D01*
X104794500Y-139948638D01*
X104795678Y-139970618D01*
X104798511Y-139996965D01*
X104798512Y-139996967D01*
X104822470Y-140073478D01*
X104822471Y-140073483D01*
X104825499Y-140079028D01*
X104855956Y-140134805D01*
X104855958Y-140134808D01*
X104855960Y-140134811D01*
X104890998Y-140181615D01*
X104891002Y-140181619D01*
X104891009Y-140181629D01*
X104891016Y-140181636D01*
X109818365Y-145108986D01*
X109818366Y-145108987D01*
X109834716Y-145123674D01*
X109834730Y-145123686D01*
X109834738Y-145123693D01*
X109843136Y-145130460D01*
X109855379Y-145140327D01*
X109926424Y-145177490D01*
X109993456Y-145197173D01*
X109993458Y-145197173D01*
X109993464Y-145197175D01*
X110051362Y-145205500D01*
X110051366Y-145205500D01*
X189926681Y-145205500D01*
X189926682Y-145205500D01*
X189977199Y-145199194D01*
X190036294Y-145184207D01*
X190053058Y-145179187D01*
X190130644Y-145130765D01*
X190180200Y-145081510D01*
X190215395Y-145034792D01*
X192914713Y-140126941D01*
X192933690Y-140079031D01*
X192949039Y-140019273D01*
X192955500Y-139968149D01*
X192955500Y-139573139D01*
X192975185Y-139506100D01*
X193027989Y-139460345D01*
X193097147Y-139450401D01*
X193099898Y-139450872D01*
X193100000Y-139450788D01*
X193100000Y-139450787D01*
X194100000Y-139450787D01*
X194206274Y-139429649D01*
X194206276Y-139429648D01*
X194397358Y-139350499D01*
X194397368Y-139350494D01*
X194569335Y-139235589D01*
X194569339Y-139235586D01*
X194715586Y-139089339D01*
X194715592Y-139089331D01*
X194828736Y-138920000D01*
X196171264Y-138920000D01*
X196284407Y-139089331D01*
X196284413Y-139089339D01*
X196430660Y-139235586D01*
X196430664Y-139235589D01*
X196602631Y-139350494D01*
X196602641Y-139350499D01*
X196793723Y-139429648D01*
X196793725Y-139429649D01*
X196900000Y-139450787D01*
X197900000Y-139450787D01*
X198006274Y-139429649D01*
X198006276Y-139429648D01*
X198197358Y-139350499D01*
X198197368Y-139350494D01*
X198369335Y-139235589D01*
X198369339Y-139235586D01*
X198515586Y-139089339D01*
X198515592Y-139089331D01*
X198628736Y-138920000D01*
X197900000Y-138920000D01*
X197900000Y-139450787D01*
X196900000Y-139450787D01*
X196900000Y-138920000D01*
X196171264Y-138920000D01*
X194828736Y-138920000D01*
X194100000Y-138920000D01*
X194100000Y-139450787D01*
X193100000Y-139450787D01*
X193100000Y-138644265D01*
X193115795Y-138660060D01*
X193184204Y-138699556D01*
X193260504Y-138720000D01*
X193939496Y-138720000D01*
X194015796Y-138699556D01*
X194084205Y-138660060D01*
X194140060Y-138604205D01*
X194179556Y-138535796D01*
X194200000Y-138459496D01*
X194200000Y-138380504D01*
X196800000Y-138380504D01*
X196800000Y-138459496D01*
X196820444Y-138535796D01*
X196859940Y-138604205D01*
X196915795Y-138660060D01*
X196984204Y-138699556D01*
X197060504Y-138720000D01*
X197739496Y-138720000D01*
X197815796Y-138699556D01*
X197884205Y-138660060D01*
X197940060Y-138604205D01*
X197979556Y-138535796D01*
X198000000Y-138459496D01*
X198000000Y-138380504D01*
X197979556Y-138304204D01*
X197940060Y-138235795D01*
X197884205Y-138179940D01*
X197815796Y-138140444D01*
X197739496Y-138120000D01*
X197060504Y-138120000D01*
X196984204Y-138140444D01*
X196915795Y-138179940D01*
X196859940Y-138235795D01*
X196820444Y-138304204D01*
X196800000Y-138380504D01*
X194200000Y-138380504D01*
X194179556Y-138304204D01*
X194140060Y-138235795D01*
X194084205Y-138179940D01*
X194015796Y-138140444D01*
X193939496Y-138120000D01*
X193260504Y-138120000D01*
X193184204Y-138140444D01*
X193115795Y-138179940D01*
X193100000Y-138195735D01*
X193100000Y-137920000D01*
X194100000Y-137920000D01*
X194828736Y-137920000D01*
X194828735Y-137919999D01*
X196171264Y-137919999D01*
X196171264Y-137920000D01*
X196900000Y-137920000D01*
X197900000Y-137920000D01*
X198628736Y-137920000D01*
X198628735Y-137919999D01*
X198515592Y-137750668D01*
X198515586Y-137750660D01*
X198369339Y-137604413D01*
X198369335Y-137604410D01*
X198197368Y-137489505D01*
X198197358Y-137489500D01*
X198006274Y-137410350D01*
X198006266Y-137410348D01*
X197900000Y-137389210D01*
X197900000Y-137920000D01*
X196900000Y-137920000D01*
X196900000Y-137389210D01*
X196793733Y-137410348D01*
X196793725Y-137410350D01*
X196602641Y-137489500D01*
X196602631Y-137489505D01*
X196430664Y-137604410D01*
X196430660Y-137604413D01*
X196284413Y-137750660D01*
X196284407Y-137750668D01*
X196171264Y-137919999D01*
X194828735Y-137919999D01*
X194715592Y-137750668D01*
X194715586Y-137750660D01*
X194569339Y-137604413D01*
X194569335Y-137604410D01*
X194397368Y-137489505D01*
X194397358Y-137489500D01*
X194206274Y-137410350D01*
X194206266Y-137410348D01*
X194100000Y-137389210D01*
X194100000Y-137920000D01*
X193100000Y-137920000D01*
X193100000Y-137411411D01*
X193029479Y-137380322D01*
X193004609Y-137359340D01*
X192978922Y-137339385D01*
X192978059Y-137336939D01*
X192976077Y-137335267D01*
X192966501Y-137304175D01*
X192955678Y-137273495D01*
X192955546Y-137268608D01*
X192955511Y-137268492D01*
X192955540Y-137268384D01*
X192955500Y-137266859D01*
X192955500Y-136579500D01*
X192975185Y-136512461D01*
X193027989Y-136466706D01*
X193079500Y-136455500D01*
X194125991Y-136455500D01*
X194126000Y-136455500D01*
X194169684Y-136450803D01*
X194198875Y-136444452D01*
X194221174Y-136439602D01*
X194221190Y-136439598D01*
X194221195Y-136439597D01*
X194231373Y-136437110D01*
X194312085Y-136394100D01*
X194364889Y-136348345D01*
X194382843Y-136330754D01*
X194427490Y-136250937D01*
X194447175Y-136183898D01*
X194455500Y-136126000D01*
X194455500Y-135371255D01*
X194475185Y-135304216D01*
X194527989Y-135258461D01*
X194597147Y-135248517D01*
X194660703Y-135277542D01*
X194667181Y-135283574D01*
X194736652Y-135353045D01*
X194736654Y-135353046D01*
X194736658Y-135353050D01*
X194849694Y-135410645D01*
X194849698Y-135410647D01*
X194943475Y-135425499D01*
X194943481Y-135425500D01*
X195406518Y-135425499D01*
X195500304Y-135410646D01*
X195613342Y-135353050D01*
X195703050Y-135263342D01*
X195727995Y-135214384D01*
X195775967Y-135163591D01*
X195843788Y-135146796D01*
X195909923Y-135169333D01*
X195953375Y-135224048D01*
X195956863Y-135233791D01*
X195981981Y-135314396D01*
X196069927Y-135459877D01*
X196190122Y-135580072D01*
X196335600Y-135668017D01*
X196424999Y-135695874D01*
X196425000Y-135695874D01*
X197225000Y-135695874D01*
X197314399Y-135668017D01*
X197459877Y-135580072D01*
X197580072Y-135459877D01*
X197668018Y-135314396D01*
X197718589Y-135152110D01*
X197718781Y-135150000D01*
X197225000Y-135150000D01*
X197225000Y-135695874D01*
X196425000Y-135695874D01*
X196425000Y-134350000D01*
X197225000Y-134350000D01*
X197718781Y-134350000D01*
X197718589Y-134347889D01*
X197668018Y-134185603D01*
X197594597Y-134064150D01*
X197576761Y-133996596D01*
X197594597Y-133935850D01*
X197668018Y-133814396D01*
X197718589Y-133652110D01*
X197718781Y-133650000D01*
X197225000Y-133650000D01*
X197225000Y-134350000D01*
X196425000Y-134350000D01*
X196425000Y-132850000D01*
X197225000Y-132850000D01*
X197718781Y-132850000D01*
X197718589Y-132847889D01*
X197668018Y-132685603D01*
X197580072Y-132540122D01*
X197459877Y-132419927D01*
X197314396Y-132331981D01*
X197314392Y-132331979D01*
X197225000Y-132304123D01*
X197225000Y-132850000D01*
X196425000Y-132850000D01*
X196425000Y-132304124D01*
X196424999Y-132304123D01*
X196335607Y-132331979D01*
X196335603Y-132331981D01*
X196190122Y-132419927D01*
X196069927Y-132540122D01*
X195981981Y-132685603D01*
X195956863Y-132766209D01*
X195918125Y-132824356D01*
X195854100Y-132852330D01*
X195785115Y-132841248D01*
X195733072Y-132794629D01*
X195728002Y-132785630D01*
X195703050Y-132736658D01*
X195703048Y-132736656D01*
X195703045Y-132736652D01*
X195613347Y-132646954D01*
X195613344Y-132646952D01*
X195613342Y-132646950D01*
X195536517Y-132607805D01*
X195500301Y-132589352D01*
X195406524Y-132574500D01*
X194943482Y-132574500D01*
X194862519Y-132587323D01*
X194849696Y-132589354D01*
X194736658Y-132646950D01*
X194736657Y-132646951D01*
X194736652Y-132646954D01*
X194667181Y-132716426D01*
X194605858Y-132749911D01*
X194536166Y-132744927D01*
X194480233Y-132703055D01*
X194455816Y-132637591D01*
X194455500Y-132628745D01*
X194455500Y-132124008D01*
X194455499Y-132123992D01*
X194450803Y-132080316D01*
X194441254Y-132036420D01*
X194439602Y-132028825D01*
X194439348Y-132027789D01*
X194437110Y-132018627D01*
X194394100Y-131937915D01*
X194348345Y-131885111D01*
X194348339Y-131885104D01*
X194330757Y-131867160D01*
X194330756Y-131867159D01*
X194330754Y-131867157D01*
X194330752Y-131867156D01*
X194330750Y-131867154D01*
X194250940Y-131822511D01*
X194250935Y-131822509D01*
X194183903Y-131802826D01*
X194183899Y-131802825D01*
X194183898Y-131802825D01*
X194126000Y-131794500D01*
X194125996Y-131794500D01*
X193079500Y-131794500D01*
X193012461Y-131774815D01*
X192966706Y-131722011D01*
X192955500Y-131670500D01*
X192955500Y-130933139D01*
X192975185Y-130866100D01*
X193027989Y-130820345D01*
X193097147Y-130810401D01*
X193099898Y-130810872D01*
X193100000Y-130810788D01*
X193100000Y-130810787D01*
X194100000Y-130810787D01*
X194206274Y-130789649D01*
X194206276Y-130789648D01*
X194397358Y-130710499D01*
X194397368Y-130710494D01*
X194569335Y-130595589D01*
X194569339Y-130595586D01*
X194715586Y-130449339D01*
X194715592Y-130449331D01*
X194828736Y-130280000D01*
X196171264Y-130280000D01*
X196284407Y-130449331D01*
X196284413Y-130449339D01*
X196430660Y-130595586D01*
X196430664Y-130595589D01*
X196602631Y-130710494D01*
X196602641Y-130710499D01*
X196793723Y-130789648D01*
X196793725Y-130789649D01*
X196900000Y-130810787D01*
X197900000Y-130810787D01*
X198006274Y-130789649D01*
X198006276Y-130789648D01*
X198197358Y-130710499D01*
X198197368Y-130710494D01*
X198369335Y-130595589D01*
X198369339Y-130595586D01*
X198515586Y-130449339D01*
X198515592Y-130449331D01*
X198628736Y-130280000D01*
X197900000Y-130280000D01*
X197900000Y-130810787D01*
X196900000Y-130810787D01*
X196900000Y-130280000D01*
X196171264Y-130280000D01*
X194828736Y-130280000D01*
X194100000Y-130280000D01*
X194100000Y-130810787D01*
X193100000Y-130810787D01*
X193100000Y-130004265D01*
X193115795Y-130020060D01*
X193184204Y-130059556D01*
X193260504Y-130080000D01*
X193939496Y-130080000D01*
X194015796Y-130059556D01*
X194084205Y-130020060D01*
X194140060Y-129964205D01*
X194179556Y-129895796D01*
X194200000Y-129819496D01*
X194200000Y-129740504D01*
X196800000Y-129740504D01*
X196800000Y-129819496D01*
X196820444Y-129895796D01*
X196859940Y-129964205D01*
X196915795Y-130020060D01*
X196984204Y-130059556D01*
X197060504Y-130080000D01*
X197739496Y-130080000D01*
X197815796Y-130059556D01*
X197884205Y-130020060D01*
X197940060Y-129964205D01*
X197979556Y-129895796D01*
X198000000Y-129819496D01*
X198000000Y-129740504D01*
X197979556Y-129664204D01*
X197940060Y-129595795D01*
X197884205Y-129539940D01*
X197815796Y-129500444D01*
X197739496Y-129480000D01*
X197060504Y-129480000D01*
X196984204Y-129500444D01*
X196915795Y-129539940D01*
X196859940Y-129595795D01*
X196820444Y-129664204D01*
X196800000Y-129740504D01*
X194200000Y-129740504D01*
X194179556Y-129664204D01*
X194140060Y-129595795D01*
X194084205Y-129539940D01*
X194015796Y-129500444D01*
X193939496Y-129480000D01*
X193600000Y-129480000D01*
X193600000Y-129404000D01*
X193619685Y-129336961D01*
X193672489Y-129291206D01*
X193724000Y-129280000D01*
X194828735Y-129280000D01*
X194828736Y-129279999D01*
X196171264Y-129279999D01*
X196171264Y-129280000D01*
X196900000Y-129280000D01*
X197900000Y-129280000D01*
X198628736Y-129280000D01*
X198628735Y-129279999D01*
X198515592Y-129110668D01*
X198515586Y-129110660D01*
X198369339Y-128964413D01*
X198369335Y-128964410D01*
X198197368Y-128849505D01*
X198197358Y-128849500D01*
X198006274Y-128770350D01*
X198006266Y-128770348D01*
X197900000Y-128749210D01*
X197900000Y-129280000D01*
X196900000Y-129280000D01*
X196900000Y-128749210D01*
X196793733Y-128770348D01*
X196793725Y-128770350D01*
X196602641Y-128849500D01*
X196602631Y-128849505D01*
X196430664Y-128964410D01*
X196430660Y-128964413D01*
X196284413Y-129110660D01*
X196284407Y-129110668D01*
X196171264Y-129279999D01*
X194828736Y-129279999D01*
X194837660Y-129263303D01*
X194857159Y-129243452D01*
X194874159Y-129221419D01*
X194882451Y-129217704D01*
X194886622Y-129213459D01*
X194905379Y-129204956D01*
X194915881Y-129201211D01*
X194919684Y-129200803D01*
X194971195Y-129189597D01*
X194981373Y-129187110D01*
X195062085Y-129144100D01*
X195114889Y-129098345D01*
X195132843Y-129080754D01*
X195177490Y-129000937D01*
X195197175Y-128933898D01*
X195205500Y-128876000D01*
X195205500Y-125303181D01*
X195225185Y-125236142D01*
X195277989Y-125190387D01*
X195347147Y-125180443D01*
X195402386Y-125202863D01*
X195542445Y-125304622D01*
X195731782Y-125401095D01*
X195933870Y-125466757D01*
X196143754Y-125500000D01*
X196356246Y-125500000D01*
X196566127Y-125466757D01*
X196566130Y-125466757D01*
X196768218Y-125401094D01*
X196768220Y-125401093D01*
X196785289Y-125392395D01*
X196785290Y-125392395D01*
X195984128Y-124591233D01*
X195970264Y-124565844D01*
X196057007Y-124615925D01*
X196184174Y-124650000D01*
X196315826Y-124650000D01*
X196442993Y-124615925D01*
X196557007Y-124550099D01*
X196650099Y-124457007D01*
X196715925Y-124342993D01*
X196750000Y-124215826D01*
X196750000Y-124149999D01*
X196957106Y-124149999D01*
X196957106Y-124150001D01*
X197492395Y-124685290D01*
X197492395Y-124685289D01*
X197501093Y-124668220D01*
X197501094Y-124668218D01*
X197566757Y-124466130D01*
X197566757Y-124466127D01*
X197600000Y-124256246D01*
X197600000Y-124043753D01*
X197566757Y-123833872D01*
X197566757Y-123833869D01*
X197501094Y-123631781D01*
X197501094Y-123631780D01*
X197492396Y-123614708D01*
X196957106Y-124149999D01*
X196750000Y-124149999D01*
X196750000Y-124084174D01*
X196715925Y-123957007D01*
X196650099Y-123842993D01*
X196557007Y-123749901D01*
X196442993Y-123684075D01*
X196315826Y-123650000D01*
X196184174Y-123650000D01*
X196057007Y-123684075D01*
X195966362Y-123736408D01*
X195984128Y-123708766D01*
X196785290Y-122907603D01*
X196783991Y-122899399D01*
X196783991Y-122860603D01*
X196785290Y-122852395D01*
X195984128Y-122051233D01*
X195970264Y-122025844D01*
X196057007Y-122075925D01*
X196184174Y-122110000D01*
X196315826Y-122110000D01*
X196442993Y-122075925D01*
X196557007Y-122010099D01*
X196650099Y-121917007D01*
X196715925Y-121802993D01*
X196750000Y-121675826D01*
X196750000Y-121609999D01*
X196957106Y-121609999D01*
X196957106Y-121610001D01*
X197492395Y-122145290D01*
X197492395Y-122145289D01*
X197501093Y-122128220D01*
X197501094Y-122128218D01*
X197566757Y-121926130D01*
X197566757Y-121926127D01*
X197600000Y-121716246D01*
X197600000Y-121503753D01*
X197566757Y-121293872D01*
X197566757Y-121293869D01*
X197501094Y-121091781D01*
X197501094Y-121091780D01*
X197492396Y-121074708D01*
X196957106Y-121609999D01*
X196750000Y-121609999D01*
X196750000Y-121544174D01*
X196715925Y-121417007D01*
X196650099Y-121302993D01*
X196557007Y-121209901D01*
X196442993Y-121144075D01*
X196315826Y-121110000D01*
X196184174Y-121110000D01*
X196057007Y-121144075D01*
X195966362Y-121196408D01*
X195984128Y-121168766D01*
X196785290Y-120367603D01*
X196783991Y-120359399D01*
X196783991Y-120320603D01*
X196785290Y-120312395D01*
X195984128Y-119511233D01*
X195970264Y-119485844D01*
X196057007Y-119535925D01*
X196184174Y-119570000D01*
X196315826Y-119570000D01*
X196442993Y-119535925D01*
X196557007Y-119470099D01*
X196650099Y-119377007D01*
X196715925Y-119262993D01*
X196750000Y-119135826D01*
X196750000Y-119069999D01*
X196957106Y-119069999D01*
X196957106Y-119070001D01*
X197492395Y-119605290D01*
X197492395Y-119605289D01*
X197501093Y-119588220D01*
X197501094Y-119588218D01*
X197566757Y-119386130D01*
X197566757Y-119386127D01*
X197600000Y-119176246D01*
X197600000Y-118963753D01*
X197566757Y-118753872D01*
X197566757Y-118753869D01*
X197501094Y-118551781D01*
X197501094Y-118551780D01*
X197492396Y-118534708D01*
X196957106Y-119069999D01*
X196750000Y-119069999D01*
X196750000Y-119004174D01*
X196715925Y-118877007D01*
X196650099Y-118762993D01*
X196557007Y-118669901D01*
X196442993Y-118604075D01*
X196315826Y-118570000D01*
X196184174Y-118570000D01*
X196057007Y-118604075D01*
X195966362Y-118656408D01*
X195984128Y-118628766D01*
X196785290Y-117827603D01*
X196783991Y-117819399D01*
X196783991Y-117780603D01*
X196785290Y-117772395D01*
X195984128Y-116971233D01*
X195970264Y-116945844D01*
X196057007Y-116995925D01*
X196184174Y-117030000D01*
X196315826Y-117030000D01*
X196442993Y-116995925D01*
X196557007Y-116930099D01*
X196650099Y-116837007D01*
X196715925Y-116722993D01*
X196750000Y-116595826D01*
X196750000Y-116529999D01*
X196957106Y-116529999D01*
X196957106Y-116530001D01*
X197492395Y-117065290D01*
X197492395Y-117065289D01*
X197501093Y-117048220D01*
X197501094Y-117048218D01*
X197566757Y-116846130D01*
X197566757Y-116846127D01*
X197600000Y-116636246D01*
X197600000Y-116423753D01*
X197566757Y-116213872D01*
X197566757Y-116213869D01*
X197501094Y-116011781D01*
X197501094Y-116011780D01*
X197492396Y-115994708D01*
X196957106Y-116529999D01*
X196750000Y-116529999D01*
X196750000Y-116464174D01*
X196715925Y-116337007D01*
X196650099Y-116222993D01*
X196557007Y-116129901D01*
X196442993Y-116064075D01*
X196315826Y-116030000D01*
X196184174Y-116030000D01*
X196057007Y-116064075D01*
X195966362Y-116116408D01*
X195984128Y-116088766D01*
X196785290Y-115287603D01*
X196785289Y-115287602D01*
X196768225Y-115278908D01*
X196768216Y-115278904D01*
X196592025Y-115221656D01*
X196534350Y-115182218D01*
X196507152Y-115117859D01*
X196519067Y-115049013D01*
X196566311Y-114997537D01*
X196582882Y-114989168D01*
X196747598Y-114920941D01*
X196919655Y-114805977D01*
X197065977Y-114659655D01*
X197180941Y-114487598D01*
X197260130Y-114296420D01*
X197300500Y-114093465D01*
X197300500Y-113886535D01*
X197260130Y-113683580D01*
X197180941Y-113492402D01*
X197065977Y-113320345D01*
X197065975Y-113320342D01*
X196919657Y-113174024D01*
X196752616Y-113062412D01*
X196747598Y-113059059D01*
X196710378Y-113043642D01*
X196556420Y-112979870D01*
X196556412Y-112979868D01*
X196353469Y-112939500D01*
X196353465Y-112939500D01*
X196146535Y-112939500D01*
X196146530Y-112939500D01*
X195943587Y-112979868D01*
X195943579Y-112979870D01*
X195823029Y-113029804D01*
X195753559Y-113037273D01*
X195691080Y-113005998D01*
X195687895Y-113002924D01*
X195203238Y-112518267D01*
X195169753Y-112456944D01*
X195168439Y-112411233D01*
X195171657Y-112390863D01*
X195177490Y-112380437D01*
X195197175Y-112313398D01*
X195205500Y-112255500D01*
X195205500Y-112176685D01*
X195207020Y-112167066D01*
X195217974Y-112143935D01*
X195225185Y-112119380D01*
X195232679Y-112112885D01*
X195236926Y-112103920D01*
X195258650Y-112090381D01*
X195277989Y-112073625D01*
X195287804Y-112072213D01*
X195296224Y-112066967D01*
X195321814Y-112067323D01*
X195347147Y-112063681D01*
X195356170Y-112067801D01*
X195366087Y-112067940D01*
X195387420Y-112082073D01*
X195410703Y-112092706D01*
X195420875Y-112104236D01*
X195424334Y-112106528D01*
X195425764Y-112109778D01*
X195432606Y-112117534D01*
X195434024Y-112119657D01*
X195580342Y-112265975D01*
X195580345Y-112265977D01*
X195752402Y-112380941D01*
X195943580Y-112460130D01*
X196085885Y-112488436D01*
X196146530Y-112500499D01*
X196146534Y-112500500D01*
X196146535Y-112500500D01*
X196353466Y-112500500D01*
X196353467Y-112500499D01*
X196556420Y-112460130D01*
X196747598Y-112380941D01*
X196919655Y-112265977D01*
X197065977Y-112119655D01*
X197180941Y-111947598D01*
X197260130Y-111756420D01*
X197300500Y-111553465D01*
X197300500Y-111346535D01*
X197260130Y-111143580D01*
X197180941Y-110952402D01*
X197065977Y-110780345D01*
X197065975Y-110780342D01*
X196919657Y-110634024D01*
X196806038Y-110558107D01*
X196747598Y-110519059D01*
X196732999Y-110513012D01*
X196556420Y-110439870D01*
X196556412Y-110439868D01*
X196353469Y-110399500D01*
X196353465Y-110399500D01*
X196146535Y-110399500D01*
X196146530Y-110399500D01*
X195943587Y-110439868D01*
X195943575Y-110439871D01*
X195823028Y-110489803D01*
X195753559Y-110497272D01*
X195691080Y-110465996D01*
X195687895Y-110462923D01*
X195224502Y-109999530D01*
X195191017Y-109938207D01*
X195193208Y-109876908D01*
X195197172Y-109863407D01*
X195197175Y-109863398D01*
X195205500Y-109805500D01*
X195205500Y-109646419D01*
X195225185Y-109579380D01*
X195277989Y-109533625D01*
X195347147Y-109523681D01*
X195410703Y-109552706D01*
X195432606Y-109577534D01*
X195434024Y-109579657D01*
X195580342Y-109725975D01*
X195580345Y-109725977D01*
X195752402Y-109840941D01*
X195943580Y-109920130D01*
X196117351Y-109954695D01*
X196146530Y-109960499D01*
X196146534Y-109960500D01*
X196146535Y-109960500D01*
X196353466Y-109960500D01*
X196353467Y-109960499D01*
X196556420Y-109920130D01*
X196747598Y-109840941D01*
X196919655Y-109725977D01*
X197065977Y-109579655D01*
X197180941Y-109407598D01*
X197260130Y-109216420D01*
X197300500Y-109013465D01*
X197300500Y-108806535D01*
X197260130Y-108603580D01*
X197180941Y-108412402D01*
X197065977Y-108240345D01*
X197065975Y-108240342D01*
X196919657Y-108094024D01*
X196793462Y-108009704D01*
X196747598Y-107979059D01*
X196695002Y-107957273D01*
X196556420Y-107899870D01*
X196556412Y-107899868D01*
X196353469Y-107859500D01*
X196353465Y-107859500D01*
X196146535Y-107859500D01*
X196146530Y-107859500D01*
X195943587Y-107899868D01*
X195943579Y-107899870D01*
X195823029Y-107949804D01*
X195753559Y-107957273D01*
X195691080Y-107925998D01*
X195687895Y-107922924D01*
X195200035Y-107435064D01*
X195166550Y-107373741D01*
X195165539Y-107326197D01*
X195169156Y-107305334D01*
X195177490Y-107290437D01*
X195197175Y-107223398D01*
X195205500Y-107165500D01*
X195205500Y-107095746D01*
X195207323Y-107085233D01*
X195218228Y-107063071D01*
X195225185Y-107039380D01*
X195233381Y-107032277D01*
X195238172Y-107022543D01*
X195259327Y-107009795D01*
X195277989Y-106993625D01*
X195288724Y-106992081D01*
X195298017Y-106986482D01*
X195322703Y-106987195D01*
X195347147Y-106983681D01*
X195357014Y-106988187D01*
X195367858Y-106988501D01*
X195388237Y-107002446D01*
X195410703Y-107012706D01*
X195422083Y-107025606D01*
X195425520Y-107027958D01*
X195426769Y-107030918D01*
X195432606Y-107037534D01*
X195434024Y-107039657D01*
X195580342Y-107185975D01*
X195580345Y-107185977D01*
X195752402Y-107300941D01*
X195943580Y-107380130D01*
X196146530Y-107420499D01*
X196146534Y-107420500D01*
X196146535Y-107420500D01*
X196353466Y-107420500D01*
X196353467Y-107420499D01*
X196556420Y-107380130D01*
X196747598Y-107300941D01*
X196919655Y-107185977D01*
X197065977Y-107039655D01*
X197180941Y-106867598D01*
X197260130Y-106676420D01*
X197300500Y-106473465D01*
X197300500Y-106266535D01*
X197260130Y-106063580D01*
X197180941Y-105872402D01*
X197065977Y-105700345D01*
X197065975Y-105700342D01*
X196919657Y-105554024D01*
X196752616Y-105442412D01*
X196747598Y-105439059D01*
X196710378Y-105423642D01*
X196556420Y-105359870D01*
X196556412Y-105359868D01*
X196353469Y-105319500D01*
X196353465Y-105319500D01*
X196146535Y-105319500D01*
X196146530Y-105319500D01*
X195943587Y-105359868D01*
X195943579Y-105359870D01*
X195823029Y-105409804D01*
X195753559Y-105417273D01*
X195691080Y-105385998D01*
X195687895Y-105382924D01*
X195215422Y-104910451D01*
X195181937Y-104849128D01*
X195184126Y-104787834D01*
X195197175Y-104743398D01*
X195205500Y-104685500D01*
X195205500Y-104566419D01*
X195225185Y-104499380D01*
X195277989Y-104453625D01*
X195347147Y-104443681D01*
X195410703Y-104472706D01*
X195432606Y-104497534D01*
X195434024Y-104499657D01*
X195580342Y-104645975D01*
X195580345Y-104645977D01*
X195752402Y-104760941D01*
X195943580Y-104840130D01*
X196117351Y-104874695D01*
X196146530Y-104880499D01*
X196146534Y-104880500D01*
X196146535Y-104880500D01*
X196353466Y-104880500D01*
X196353467Y-104880499D01*
X196556420Y-104840130D01*
X196747598Y-104760941D01*
X196919655Y-104645977D01*
X197065977Y-104499655D01*
X197180941Y-104327598D01*
X197260130Y-104136420D01*
X197300500Y-103933465D01*
X197300500Y-103726535D01*
X197260130Y-103523580D01*
X197180941Y-103332402D01*
X197065977Y-103160345D01*
X197065975Y-103160342D01*
X196919657Y-103014024D01*
X196752616Y-102902412D01*
X196747598Y-102899059D01*
X196710378Y-102883642D01*
X196556420Y-102819870D01*
X196556412Y-102819868D01*
X196353469Y-102779500D01*
X196353465Y-102779500D01*
X196146535Y-102779500D01*
X196146530Y-102779500D01*
X195943587Y-102819868D01*
X195943579Y-102819870D01*
X195823029Y-102869804D01*
X195753559Y-102877273D01*
X195691080Y-102845998D01*
X195687895Y-102842924D01*
X195203238Y-102358267D01*
X195169753Y-102296944D01*
X195168439Y-102251233D01*
X195171657Y-102230863D01*
X195177490Y-102220437D01*
X195197175Y-102153398D01*
X195205500Y-102095500D01*
X195205500Y-102016685D01*
X195207020Y-102007066D01*
X195217974Y-101983935D01*
X195225185Y-101959380D01*
X195232679Y-101952885D01*
X195236926Y-101943920D01*
X195258650Y-101930381D01*
X195277989Y-101913625D01*
X195287804Y-101912213D01*
X195296224Y-101906967D01*
X195321814Y-101907323D01*
X195347147Y-101903681D01*
X195356170Y-101907801D01*
X195366087Y-101907940D01*
X195387420Y-101922073D01*
X195410703Y-101932706D01*
X195420875Y-101944236D01*
X195424334Y-101946528D01*
X195425764Y-101949778D01*
X195432606Y-101957534D01*
X195434024Y-101959657D01*
X195580342Y-102105975D01*
X195580345Y-102105977D01*
X195752402Y-102220941D01*
X195943580Y-102300130D01*
X196085885Y-102328436D01*
X196146530Y-102340499D01*
X196146534Y-102340500D01*
X196146535Y-102340500D01*
X196353466Y-102340500D01*
X196353467Y-102340499D01*
X196556420Y-102300130D01*
X196747598Y-102220941D01*
X196919655Y-102105977D01*
X197065977Y-101959655D01*
X197180941Y-101787598D01*
X197260130Y-101596420D01*
X197300500Y-101393465D01*
X197300500Y-101186535D01*
X197260130Y-100983580D01*
X197180941Y-100792402D01*
X197065977Y-100620345D01*
X197065975Y-100620342D01*
X196919657Y-100474024D01*
X196752616Y-100362412D01*
X196747598Y-100359059D01*
X196726966Y-100350513D01*
X196556420Y-100279870D01*
X196556412Y-100279868D01*
X196353469Y-100239500D01*
X196353465Y-100239500D01*
X196146535Y-100239500D01*
X196146530Y-100239500D01*
X195943587Y-100279868D01*
X195943579Y-100279870D01*
X195823029Y-100329804D01*
X195753559Y-100337273D01*
X195691080Y-100305998D01*
X195687895Y-100302924D01*
X195219962Y-99834991D01*
X195186477Y-99773668D01*
X195188666Y-99712372D01*
X195197175Y-99683398D01*
X195205500Y-99625500D01*
X195205500Y-99486419D01*
X195225185Y-99419380D01*
X195277989Y-99373625D01*
X195347147Y-99363681D01*
X195410703Y-99392706D01*
X195432606Y-99417534D01*
X195434024Y-99419657D01*
X195580342Y-99565975D01*
X195580345Y-99565977D01*
X195752402Y-99680941D01*
X195943580Y-99760130D01*
X196146530Y-99800499D01*
X196146534Y-99800500D01*
X196146535Y-99800500D01*
X196353466Y-99800500D01*
X196353467Y-99800499D01*
X196556420Y-99760130D01*
X196747598Y-99680941D01*
X196919655Y-99565977D01*
X197065977Y-99419655D01*
X197180941Y-99247598D01*
X197260130Y-99056420D01*
X197300500Y-98853465D01*
X197300500Y-98646535D01*
X197260130Y-98443580D01*
X197180941Y-98252402D01*
X197065977Y-98080345D01*
X197065975Y-98080342D01*
X196919657Y-97934024D01*
X196771144Y-97834792D01*
X196747598Y-97819059D01*
X196723620Y-97809127D01*
X196556420Y-97739870D01*
X196556412Y-97739868D01*
X196353469Y-97699500D01*
X196353465Y-97699500D01*
X196146535Y-97699500D01*
X196146530Y-97699500D01*
X195943587Y-97739868D01*
X195943579Y-97739870D01*
X195823029Y-97789804D01*
X195753559Y-97797273D01*
X195691080Y-97765998D01*
X195687895Y-97762924D01*
X195217692Y-97292721D01*
X195184207Y-97231398D01*
X195186396Y-97170103D01*
X195197175Y-97133398D01*
X195205500Y-97075500D01*
X195205500Y-96946419D01*
X195225185Y-96879380D01*
X195277989Y-96833625D01*
X195347147Y-96823681D01*
X195410703Y-96852706D01*
X195432606Y-96877534D01*
X195434024Y-96879657D01*
X195580342Y-97025975D01*
X195580345Y-97025977D01*
X195752402Y-97140941D01*
X195943580Y-97220130D01*
X196141709Y-97259540D01*
X196146530Y-97260499D01*
X196146534Y-97260500D01*
X196146535Y-97260500D01*
X196353466Y-97260500D01*
X196353467Y-97260499D01*
X196556420Y-97220130D01*
X196747598Y-97140941D01*
X196919655Y-97025977D01*
X197065977Y-96879655D01*
X197180941Y-96707598D01*
X197260130Y-96516420D01*
X197300500Y-96313465D01*
X197300500Y-96106535D01*
X197260130Y-95903580D01*
X197180941Y-95712402D01*
X197065977Y-95540345D01*
X197065975Y-95540342D01*
X196919657Y-95394024D01*
X196752616Y-95282412D01*
X196747598Y-95279059D01*
X196695002Y-95257273D01*
X196556420Y-95199870D01*
X196556412Y-95199868D01*
X196353469Y-95159500D01*
X196353465Y-95159500D01*
X196146535Y-95159500D01*
X196146530Y-95159500D01*
X195943587Y-95199868D01*
X195943579Y-95199870D01*
X195823029Y-95249804D01*
X195753559Y-95257273D01*
X195691080Y-95225998D01*
X195687895Y-95222924D01*
X195283512Y-94818541D01*
X195283507Y-94818537D01*
X195259727Y-94804808D01*
X195211512Y-94754241D01*
X195198288Y-94685634D01*
X195198986Y-94679796D01*
X195205500Y-94634500D01*
X195205500Y-94406419D01*
X195225185Y-94339380D01*
X195277989Y-94293625D01*
X195347147Y-94283681D01*
X195410703Y-94312706D01*
X195432606Y-94337534D01*
X195434024Y-94339657D01*
X195580342Y-94485975D01*
X195580345Y-94485977D01*
X195752402Y-94600941D01*
X195943580Y-94680130D01*
X196117351Y-94714695D01*
X196146530Y-94720499D01*
X196146534Y-94720500D01*
X196146535Y-94720500D01*
X196353466Y-94720500D01*
X196353467Y-94720499D01*
X196556420Y-94680130D01*
X196747598Y-94600941D01*
X196919655Y-94485977D01*
X197065977Y-94339655D01*
X197180941Y-94167598D01*
X197260130Y-93976420D01*
X197300500Y-93773465D01*
X197300500Y-93566535D01*
X197260130Y-93363580D01*
X197180941Y-93172402D01*
X197065977Y-93000345D01*
X197065975Y-93000342D01*
X196919657Y-92854024D01*
X196752616Y-92742412D01*
X196747598Y-92739059D01*
X196675693Y-92709275D01*
X196556420Y-92659870D01*
X196556412Y-92659868D01*
X196353469Y-92619500D01*
X196353465Y-92619500D01*
X196146535Y-92619500D01*
X196146530Y-92619500D01*
X195943587Y-92659868D01*
X195943575Y-92659871D01*
X195823028Y-92709803D01*
X195753559Y-92717272D01*
X195691080Y-92685996D01*
X195687895Y-92682923D01*
X195208613Y-92203641D01*
X195175128Y-92142318D01*
X195177318Y-92081023D01*
X195197172Y-92013409D01*
X195197172Y-92013407D01*
X195197175Y-92013398D01*
X195205500Y-91955500D01*
X195205500Y-91866419D01*
X195225185Y-91799380D01*
X195277989Y-91753625D01*
X195347147Y-91743681D01*
X195410703Y-91772706D01*
X195432606Y-91797534D01*
X195434024Y-91799657D01*
X195580342Y-91945975D01*
X195580345Y-91945977D01*
X195752402Y-92060941D01*
X195943580Y-92140130D01*
X196085885Y-92168436D01*
X196146530Y-92180499D01*
X196146534Y-92180500D01*
X196146535Y-92180500D01*
X196353466Y-92180500D01*
X196353467Y-92180499D01*
X196556420Y-92140130D01*
X196747598Y-92060941D01*
X196919655Y-91945977D01*
X197065977Y-91799655D01*
X197180941Y-91627598D01*
X197260130Y-91436420D01*
X197300500Y-91233465D01*
X197300500Y-91026535D01*
X197260130Y-90823580D01*
X197180941Y-90632402D01*
X197065977Y-90460345D01*
X197065975Y-90460342D01*
X196919657Y-90314024D01*
X196752616Y-90202412D01*
X196747598Y-90199059D01*
X196740814Y-90196249D01*
X196556420Y-90119870D01*
X196556412Y-90119868D01*
X196353469Y-90079500D01*
X196353465Y-90079500D01*
X196146535Y-90079500D01*
X196146530Y-90079500D01*
X195943587Y-90119868D01*
X195943579Y-90119870D01*
X195823029Y-90169804D01*
X195753559Y-90177273D01*
X195691080Y-90145998D01*
X195687895Y-90142924D01*
X195210883Y-89665912D01*
X195177398Y-89604589D01*
X195179587Y-89543294D01*
X195180298Y-89540873D01*
X195197175Y-89483398D01*
X195205500Y-89425500D01*
X195205500Y-89326419D01*
X195225185Y-89259380D01*
X195277989Y-89213625D01*
X195347147Y-89203681D01*
X195410703Y-89232706D01*
X195432606Y-89257534D01*
X195434024Y-89259657D01*
X195580342Y-89405975D01*
X195580345Y-89405977D01*
X195752402Y-89520941D01*
X195943580Y-89600130D01*
X196112761Y-89633782D01*
X196146530Y-89640499D01*
X196146534Y-89640500D01*
X196146535Y-89640500D01*
X196353466Y-89640500D01*
X196353467Y-89640499D01*
X196556420Y-89600130D01*
X196747598Y-89520941D01*
X196919655Y-89405977D01*
X197065977Y-89259655D01*
X197180941Y-89087598D01*
X197260130Y-88896420D01*
X197300500Y-88693465D01*
X197300500Y-88486535D01*
X197260130Y-88283580D01*
X197180941Y-88092402D01*
X197065977Y-87920345D01*
X197065975Y-87920342D01*
X196919657Y-87774024D01*
X196752616Y-87662412D01*
X196747598Y-87659059D01*
X196747501Y-87659019D01*
X196556420Y-87579870D01*
X196556412Y-87579868D01*
X196353469Y-87539500D01*
X196353465Y-87539500D01*
X196146535Y-87539500D01*
X196146530Y-87539500D01*
X195943587Y-87579868D01*
X195943579Y-87579870D01*
X195823029Y-87629804D01*
X195753559Y-87637273D01*
X195691080Y-87605998D01*
X195687895Y-87602924D01*
X195175284Y-87090313D01*
X195141799Y-87028990D01*
X195144370Y-86966421D01*
X195148252Y-86953706D01*
X195177490Y-86901437D01*
X195197175Y-86834398D01*
X195205500Y-86776500D01*
X195205500Y-86766216D01*
X195210550Y-86749677D01*
X195222363Y-86731721D01*
X195229874Y-86711583D01*
X195241186Y-86703113D01*
X195248954Y-86691308D01*
X195268599Y-86682590D01*
X195285805Y-86669709D01*
X195299901Y-86668699D01*
X195312818Y-86662968D01*
X195334056Y-86666254D01*
X195355496Y-86664720D01*
X195367900Y-86671492D01*
X195381866Y-86673654D01*
X195397957Y-86687903D01*
X195416821Y-86698202D01*
X195432249Y-86717000D01*
X195434023Y-86719656D01*
X195580342Y-86865975D01*
X195580345Y-86865977D01*
X195752402Y-86980941D01*
X195943580Y-87060130D01*
X196117351Y-87094695D01*
X196146530Y-87100499D01*
X196146534Y-87100500D01*
X196146535Y-87100500D01*
X196353466Y-87100500D01*
X196353467Y-87100499D01*
X196556420Y-87060130D01*
X196747598Y-86980941D01*
X196919655Y-86865977D01*
X197065977Y-86719655D01*
X197180941Y-86547598D01*
X197260130Y-86356420D01*
X197300500Y-86153465D01*
X197300500Y-85946535D01*
X197260130Y-85743580D01*
X197180941Y-85552402D01*
X197065977Y-85380345D01*
X197065975Y-85380342D01*
X196919657Y-85234024D01*
X196752616Y-85122412D01*
X196747598Y-85119059D01*
X196582890Y-85050834D01*
X196528488Y-85006994D01*
X196506423Y-84940700D01*
X196523702Y-84873001D01*
X196574839Y-84825390D01*
X196592026Y-84818343D01*
X196768218Y-84761094D01*
X196768220Y-84761093D01*
X196785289Y-84752395D01*
X196785290Y-84752395D01*
X195984128Y-83951233D01*
X195970264Y-83925844D01*
X196057007Y-83975925D01*
X196184174Y-84010000D01*
X196315826Y-84010000D01*
X196442993Y-83975925D01*
X196557007Y-83910099D01*
X196650099Y-83817007D01*
X196715925Y-83702993D01*
X196750000Y-83575826D01*
X196750000Y-83509999D01*
X196957106Y-83509999D01*
X196957106Y-83510001D01*
X197492395Y-84045290D01*
X197492395Y-84045289D01*
X197501093Y-84028220D01*
X197501094Y-84028218D01*
X197566757Y-83826130D01*
X197566757Y-83826127D01*
X197600000Y-83616246D01*
X197600000Y-83403753D01*
X197566757Y-83193872D01*
X197566757Y-83193869D01*
X197501094Y-82991781D01*
X197501094Y-82991780D01*
X197492396Y-82974708D01*
X196957106Y-83509999D01*
X196750000Y-83509999D01*
X196750000Y-83444174D01*
X196715925Y-83317007D01*
X196650099Y-83202993D01*
X196557007Y-83109901D01*
X196442993Y-83044075D01*
X196315826Y-83010000D01*
X196184174Y-83010000D01*
X196057007Y-83044075D01*
X195966362Y-83096408D01*
X195984128Y-83068766D01*
X196785290Y-82267603D01*
X196783991Y-82259399D01*
X196783991Y-82220603D01*
X196785290Y-82212395D01*
X195984128Y-81411233D01*
X195970264Y-81385844D01*
X196057007Y-81435925D01*
X196184174Y-81470000D01*
X196315826Y-81470000D01*
X196442993Y-81435925D01*
X196557007Y-81370099D01*
X196650099Y-81277007D01*
X196715925Y-81162993D01*
X196750000Y-81035826D01*
X196750000Y-80969999D01*
X196957106Y-80969999D01*
X196957106Y-80970001D01*
X197492395Y-81505290D01*
X197492395Y-81505289D01*
X197501093Y-81488220D01*
X197501094Y-81488218D01*
X197566757Y-81286130D01*
X197566757Y-81286127D01*
X197600000Y-81076246D01*
X197600000Y-80863753D01*
X197566757Y-80653872D01*
X197566757Y-80653869D01*
X197501094Y-80451781D01*
X197501094Y-80451780D01*
X197492396Y-80434708D01*
X196957106Y-80969999D01*
X196750000Y-80969999D01*
X196750000Y-80904174D01*
X196715925Y-80777007D01*
X196650099Y-80662993D01*
X196557007Y-80569901D01*
X196442993Y-80504075D01*
X196315826Y-80470000D01*
X196184174Y-80470000D01*
X196057007Y-80504075D01*
X195966362Y-80556408D01*
X195984128Y-80528766D01*
X196785290Y-79727603D01*
X196783991Y-79719399D01*
X196783991Y-79680603D01*
X196785290Y-79672395D01*
X195984128Y-78871233D01*
X195970264Y-78845844D01*
X196057007Y-78895925D01*
X196184174Y-78930000D01*
X196315826Y-78930000D01*
X196442993Y-78895925D01*
X196557007Y-78830099D01*
X196650099Y-78737007D01*
X196715925Y-78622993D01*
X196750000Y-78495826D01*
X196750000Y-78429999D01*
X196957106Y-78429999D01*
X196957106Y-78430001D01*
X197492395Y-78965290D01*
X197492395Y-78965289D01*
X197501093Y-78948220D01*
X197501094Y-78948218D01*
X197566757Y-78746130D01*
X197566757Y-78746127D01*
X197600000Y-78536246D01*
X197600000Y-78323753D01*
X197566757Y-78113872D01*
X197566757Y-78113869D01*
X197501094Y-77911781D01*
X197501094Y-77911780D01*
X197492396Y-77894708D01*
X196957106Y-78429999D01*
X196750000Y-78429999D01*
X196750000Y-78364174D01*
X196715925Y-78237007D01*
X196650099Y-78122993D01*
X196557007Y-78029901D01*
X196442993Y-77964075D01*
X196315826Y-77930000D01*
X196184174Y-77930000D01*
X196057007Y-77964075D01*
X195966362Y-78016408D01*
X195984128Y-77988766D01*
X196785290Y-77187603D01*
X196783991Y-77179399D01*
X196783991Y-77140603D01*
X196785290Y-77132395D01*
X196250001Y-76597106D01*
X196250000Y-76597106D01*
X195707186Y-77139918D01*
X195701444Y-77150690D01*
X195699751Y-77163794D01*
X195685325Y-77180930D01*
X195674792Y-77200691D01*
X195658813Y-77212423D01*
X195654754Y-77217246D01*
X195646752Y-77222125D01*
X195583118Y-77257708D01*
X195559279Y-77263145D01*
X195402251Y-77377233D01*
X195336445Y-77400713D01*
X195268391Y-77384887D01*
X195219696Y-77334781D01*
X195206195Y-77286737D01*
X195205983Y-77286764D01*
X195205805Y-77285348D01*
X195205607Y-77284643D01*
X195205500Y-77282939D01*
X195205500Y-77282919D01*
X195199116Y-77232094D01*
X195183946Y-77172663D01*
X195178795Y-77155608D01*
X195130135Y-77078172D01*
X195130132Y-77078168D01*
X195080738Y-77028778D01*
X195061896Y-77012113D01*
X195055904Y-77008176D01*
X195010688Y-76954909D01*
X195000000Y-76904547D01*
X195000000Y-76733036D01*
X195000000Y-76432892D01*
X195017440Y-76415452D01*
X195017440Y-76415451D01*
X195017441Y-76415451D01*
X195542894Y-75890000D01*
X195477068Y-75824174D01*
X195750000Y-75824174D01*
X195750000Y-75955826D01*
X195784075Y-76082993D01*
X195849901Y-76197007D01*
X195942993Y-76290099D01*
X196057007Y-76355925D01*
X196184174Y-76390000D01*
X196315826Y-76390000D01*
X196442993Y-76355925D01*
X196557007Y-76290099D01*
X196650099Y-76197007D01*
X196715925Y-76082993D01*
X196750000Y-75955826D01*
X196750000Y-75889999D01*
X196957106Y-75889999D01*
X196957106Y-75890001D01*
X197492395Y-76425290D01*
X197492395Y-76425289D01*
X197501093Y-76408220D01*
X197501094Y-76408218D01*
X197566757Y-76206130D01*
X197566757Y-76206127D01*
X197600000Y-75996246D01*
X197600000Y-75783753D01*
X197566757Y-75573872D01*
X197566757Y-75573869D01*
X197501094Y-75371781D01*
X197501094Y-75371780D01*
X197492396Y-75354708D01*
X196957106Y-75889999D01*
X196750000Y-75889999D01*
X196750000Y-75824174D01*
X196715925Y-75697007D01*
X196650099Y-75582993D01*
X196557007Y-75489901D01*
X196442993Y-75424075D01*
X196315826Y-75390000D01*
X196184174Y-75390000D01*
X196057007Y-75424075D01*
X195942993Y-75489901D01*
X195849901Y-75582993D01*
X195784075Y-75697007D01*
X195750000Y-75824174D01*
X195477068Y-75824174D01*
X195000000Y-75347106D01*
X195000000Y-74872693D01*
X195019685Y-74805654D01*
X195030141Y-74791660D01*
X195045263Y-74774143D01*
X195062085Y-74765180D01*
X195114889Y-74719425D01*
X195132843Y-74701834D01*
X195163178Y-74647603D01*
X195714709Y-74647603D01*
X196250000Y-75182894D01*
X196250001Y-75182894D01*
X196785290Y-74647603D01*
X196785289Y-74647602D01*
X196768225Y-74638908D01*
X196768213Y-74638903D01*
X196566128Y-74573242D01*
X196356246Y-74540000D01*
X196143754Y-74540000D01*
X195933872Y-74573242D01*
X195933869Y-74573242D01*
X195731783Y-74638904D01*
X195714709Y-74647603D01*
X195163178Y-74647603D01*
X195177490Y-74622017D01*
X195197175Y-74554978D01*
X195205500Y-74497080D01*
X195205500Y-69862709D01*
X195204904Y-69849275D01*
X195204695Y-69844547D01*
X195204694Y-69844541D01*
X195204694Y-69844530D01*
X195202753Y-69822674D01*
X195181943Y-69749108D01*
X195159983Y-69705093D01*
X196002011Y-69705093D01*
X196195588Y-69767990D01*
X196397683Y-69800000D01*
X196602317Y-69800000D01*
X196804411Y-69767990D01*
X196997987Y-69705093D01*
X196500001Y-69207106D01*
X196500000Y-69207106D01*
X196002011Y-69705093D01*
X195159983Y-69705093D01*
X195150750Y-69686588D01*
X195138174Y-69664826D01*
X195071960Y-69601739D01*
X195043564Y-69584840D01*
X195030543Y-69569908D01*
X195023880Y-69555439D01*
X195013042Y-69543767D01*
X195007318Y-69519475D01*
X195001318Y-69506444D01*
X195002413Y-69498653D01*
X195000000Y-69488411D01*
X195000000Y-69115398D01*
X195000385Y-69107163D01*
X195000365Y-69107163D01*
X195000500Y-69104277D01*
X195000500Y-68874809D01*
X195020185Y-68807770D01*
X195072989Y-68762015D01*
X195142147Y-68752071D01*
X195205703Y-68781096D01*
X195242431Y-68836491D01*
X195294904Y-68997987D01*
X195294905Y-68997987D01*
X195792893Y-68500000D01*
X195792893Y-68499999D01*
X195740233Y-68447339D01*
X196100000Y-68447339D01*
X196100000Y-68552661D01*
X196127259Y-68654394D01*
X196179920Y-68745606D01*
X196254394Y-68820080D01*
X196345606Y-68872741D01*
X196447339Y-68900000D01*
X196552661Y-68900000D01*
X196654394Y-68872741D01*
X196745606Y-68820080D01*
X196820080Y-68745606D01*
X196872741Y-68654394D01*
X196900000Y-68552661D01*
X196900000Y-68499999D01*
X197207106Y-68499999D01*
X197207106Y-68500000D01*
X197705093Y-68997986D01*
X197767990Y-68804411D01*
X197800000Y-68602317D01*
X197800000Y-68397682D01*
X197767990Y-68195588D01*
X197705093Y-68002011D01*
X197207106Y-68499999D01*
X196900000Y-68499999D01*
X196900000Y-68447339D01*
X196872741Y-68345606D01*
X196820080Y-68254394D01*
X196745606Y-68179920D01*
X196654394Y-68127259D01*
X196552661Y-68100000D01*
X196447339Y-68100000D01*
X196345606Y-68127259D01*
X196254394Y-68179920D01*
X196179920Y-68254394D01*
X196127259Y-68345606D01*
X196100000Y-68447339D01*
X195740233Y-68447339D01*
X195294904Y-68002011D01*
X195242431Y-68163508D01*
X195233421Y-68176684D01*
X195228955Y-68192013D01*
X195214102Y-68204936D01*
X195202993Y-68221184D01*
X195188288Y-68227398D01*
X195176246Y-68237877D01*
X195156768Y-68240718D01*
X195138635Y-68248382D01*
X195122903Y-68245659D01*
X195107108Y-68247964D01*
X195089184Y-68239823D01*
X195069788Y-68236467D01*
X195058028Y-68225673D01*
X195043492Y-68219072D01*
X195032814Y-68202532D01*
X195018313Y-68189223D01*
X195013807Y-68173090D01*
X195005596Y-68160372D01*
X195000577Y-68125725D01*
X195000500Y-68125448D01*
X195000500Y-67895734D01*
X195000011Y-67890527D01*
X195000000Y-67884860D01*
X195000010Y-67884824D01*
X195000000Y-67884602D01*
X195000000Y-67512903D01*
X195019685Y-67445864D01*
X195057503Y-67411013D01*
X195056347Y-67409330D01*
X195062076Y-67405394D01*
X195062085Y-67405390D01*
X195114889Y-67359635D01*
X195132843Y-67342044D01*
X195159212Y-67294904D01*
X196002011Y-67294904D01*
X196500000Y-67792893D01*
X196500001Y-67792893D01*
X196997987Y-67294905D01*
X196997987Y-67294904D01*
X196804419Y-67232010D01*
X196602317Y-67200000D01*
X196397683Y-67200000D01*
X196195581Y-67232010D01*
X196195578Y-67232010D01*
X196002011Y-67294904D01*
X195159212Y-67294904D01*
X195177490Y-67262227D01*
X195197175Y-67195188D01*
X195205500Y-67137290D01*
X195205500Y-60051362D01*
X195204322Y-60029393D01*
X195201488Y-60003035D01*
X195177529Y-59926518D01*
X195144044Y-59865195D01*
X195144039Y-59865188D01*
X195109001Y-59818384D01*
X195108998Y-59818381D01*
X195108991Y-59818371D01*
X193496120Y-58205500D01*
X190181634Y-54891013D01*
X190181633Y-54891012D01*
X190165283Y-54876325D01*
X190165269Y-54876313D01*
X190144620Y-54859672D01*
X190073575Y-54822509D01*
X190006543Y-54802826D01*
X190005894Y-54802732D01*
X189948638Y-54794500D01*
X110051362Y-54794500D01*
X110051361Y-54794500D01*
X110029381Y-54795678D01*
X110003034Y-54798511D01*
X110003032Y-54798512D01*
X109926521Y-54822470D01*
X109926516Y-54822471D01*
X109865188Y-54855960D01*
X109818384Y-54890998D01*
X109818363Y-54891016D01*
X104891013Y-59818365D01*
X104891012Y-59818366D01*
X104876325Y-59834716D01*
X104876313Y-59834730D01*
X104859672Y-59855379D01*
X104822509Y-59926424D01*
X104802826Y-59993456D01*
X104802825Y-59993464D01*
X104794501Y-60051361D01*
X104794500Y-60051365D01*
X104794500Y-74405410D01*
X104774815Y-74472449D01*
X104722011Y-74518204D01*
X104657246Y-74528700D01*
X104622830Y-74525000D01*
X104225000Y-74525000D01*
X104225000Y-75751000D01*
X104216849Y-75778756D01*
X104190925Y-75682007D01*
X104125099Y-75567993D01*
X104032007Y-75474901D01*
X103917993Y-75409075D01*
X103790826Y-75375000D01*
X103659174Y-75375000D01*
X103532007Y-75409075D01*
X103417993Y-75474901D01*
X103324901Y-75567993D01*
X103259075Y-75682007D01*
X103225000Y-75809174D01*
X103225000Y-75940826D01*
X103259075Y-76067993D01*
X103324901Y-76182007D01*
X103417993Y-76275099D01*
X103532007Y-76340925D01*
X103633107Y-76368015D01*
X103601000Y-76375000D01*
X102375000Y-76375000D01*
X100500500Y-76375000D01*
X100500500Y-74977155D01*
X102375000Y-74977155D01*
X102375000Y-75375000D01*
X103225000Y-75375000D01*
X103225000Y-74525000D01*
X102827155Y-74525000D01*
X102767627Y-74531401D01*
X102767620Y-74531403D01*
X102632913Y-74581645D01*
X102632906Y-74581649D01*
X102517812Y-74667809D01*
X102517809Y-74667812D01*
X102431649Y-74782906D01*
X102431645Y-74782913D01*
X102381403Y-74917620D01*
X102381401Y-74917627D01*
X102375000Y-74977155D01*
X100500500Y-74977155D01*
X100500500Y-52130247D01*
X145199500Y-52130247D01*
X145199500Y-53869752D01*
X145211131Y-53928229D01*
X145211132Y-53928230D01*
X145255447Y-53994552D01*
X145321769Y-54038867D01*
X145321770Y-54038868D01*
X145380247Y-54050499D01*
X145380250Y-54050500D01*
X145380252Y-54050500D01*
X147119750Y-54050500D01*
X147119751Y-54050499D01*
X147134568Y-54047552D01*
X147178229Y-54038868D01*
X147178229Y-54038867D01*
X147178231Y-54038867D01*
X147244552Y-53994552D01*
X147288867Y-53928231D01*
X147288867Y-53928229D01*
X147288868Y-53928229D01*
X147300499Y-53869752D01*
X147300500Y-53869750D01*
X147300500Y-52896530D01*
X147739500Y-52896530D01*
X147739500Y-53103469D01*
X147779868Y-53306412D01*
X147779870Y-53306420D01*
X147859058Y-53497596D01*
X147974024Y-53669657D01*
X148120342Y-53815975D01*
X148120345Y-53815977D01*
X148292402Y-53930941D01*
X148483580Y-54010130D01*
X148628052Y-54038867D01*
X148686530Y-54050499D01*
X148686534Y-54050500D01*
X148686535Y-54050500D01*
X148893466Y-54050500D01*
X148893467Y-54050499D01*
X149096420Y-54010130D01*
X149287598Y-53930941D01*
X149459655Y-53815977D01*
X149605977Y-53669655D01*
X149720941Y-53497598D01*
X149800130Y-53306420D01*
X149840500Y-53103465D01*
X149840500Y-52896535D01*
X149840499Y-52896530D01*
X150279500Y-52896530D01*
X150279500Y-53103469D01*
X150319868Y-53306412D01*
X150319870Y-53306420D01*
X150399058Y-53497596D01*
X150514024Y-53669657D01*
X150660342Y-53815975D01*
X150660345Y-53815977D01*
X150832402Y-53930941D01*
X151023580Y-54010130D01*
X151168052Y-54038867D01*
X151226530Y-54050499D01*
X151226534Y-54050500D01*
X151226535Y-54050500D01*
X151433466Y-54050500D01*
X151433467Y-54050499D01*
X151636420Y-54010130D01*
X151827598Y-53930941D01*
X151999655Y-53815977D01*
X152145977Y-53669655D01*
X152260941Y-53497598D01*
X152340130Y-53306420D01*
X152380500Y-53103465D01*
X152380500Y-52896535D01*
X152380499Y-52896530D01*
X152819500Y-52896530D01*
X152819500Y-53103469D01*
X152859868Y-53306412D01*
X152859870Y-53306420D01*
X152939058Y-53497596D01*
X153054024Y-53669657D01*
X153200342Y-53815975D01*
X153200345Y-53815977D01*
X153372402Y-53930941D01*
X153563580Y-54010130D01*
X153708052Y-54038867D01*
X153766530Y-54050499D01*
X153766534Y-54050500D01*
X153766535Y-54050500D01*
X153973466Y-54050500D01*
X153973467Y-54050499D01*
X154176420Y-54010130D01*
X154367598Y-53930941D01*
X154539655Y-53815977D01*
X154685977Y-53669655D01*
X154800941Y-53497598D01*
X154880130Y-53306420D01*
X154920500Y-53103465D01*
X154920500Y-52896535D01*
X154920499Y-52896530D01*
X155359500Y-52896530D01*
X155359500Y-53103469D01*
X155399868Y-53306412D01*
X155399870Y-53306420D01*
X155479058Y-53497596D01*
X155594024Y-53669657D01*
X155740342Y-53815975D01*
X155740345Y-53815977D01*
X155912402Y-53930941D01*
X156103580Y-54010130D01*
X156248052Y-54038867D01*
X156306530Y-54050499D01*
X156306534Y-54050500D01*
X156306535Y-54050500D01*
X156513466Y-54050500D01*
X156513467Y-54050499D01*
X156716420Y-54010130D01*
X156907598Y-53930941D01*
X157079655Y-53815977D01*
X157225977Y-53669655D01*
X157340941Y-53497598D01*
X157420130Y-53306420D01*
X157460500Y-53103465D01*
X157460500Y-52896535D01*
X157460499Y-52896530D01*
X157899500Y-52896530D01*
X157899500Y-53103469D01*
X157939868Y-53306412D01*
X157939870Y-53306420D01*
X158019058Y-53497596D01*
X158134024Y-53669657D01*
X158280342Y-53815975D01*
X158280345Y-53815977D01*
X158452402Y-53930941D01*
X158643580Y-54010130D01*
X158788052Y-54038867D01*
X158846530Y-54050499D01*
X158846534Y-54050500D01*
X158846535Y-54050500D01*
X159053466Y-54050500D01*
X159053467Y-54050499D01*
X159256420Y-54010130D01*
X159447598Y-53930941D01*
X159619655Y-53815977D01*
X159765977Y-53669655D01*
X159880941Y-53497598D01*
X159960130Y-53306420D01*
X160000500Y-53103465D01*
X160000500Y-52896535D01*
X160000499Y-52896530D01*
X160439500Y-52896530D01*
X160439500Y-53103469D01*
X160479868Y-53306412D01*
X160479870Y-53306420D01*
X160559058Y-53497596D01*
X160674024Y-53669657D01*
X160820342Y-53815975D01*
X160820345Y-53815977D01*
X160992402Y-53930941D01*
X161183580Y-54010130D01*
X161328052Y-54038867D01*
X161386530Y-54050499D01*
X161386534Y-54050500D01*
X161386535Y-54050500D01*
X161593466Y-54050500D01*
X161593467Y-54050499D01*
X161796420Y-54010130D01*
X161987598Y-53930941D01*
X162159655Y-53815977D01*
X162305977Y-53669655D01*
X162420941Y-53497598D01*
X162500130Y-53306420D01*
X162540500Y-53103465D01*
X162540500Y-52896535D01*
X162540499Y-52896530D01*
X162979500Y-52896530D01*
X162979500Y-53103469D01*
X163019868Y-53306412D01*
X163019870Y-53306420D01*
X163099058Y-53497596D01*
X163214024Y-53669657D01*
X163360342Y-53815975D01*
X163360345Y-53815977D01*
X163532402Y-53930941D01*
X163723580Y-54010130D01*
X163868052Y-54038867D01*
X163926530Y-54050499D01*
X163926534Y-54050500D01*
X163926535Y-54050500D01*
X164133466Y-54050500D01*
X164133467Y-54050499D01*
X164336420Y-54010130D01*
X164527598Y-53930941D01*
X164699655Y-53815977D01*
X164845977Y-53669655D01*
X164960941Y-53497598D01*
X165040130Y-53306420D01*
X165080500Y-53103465D01*
X165080500Y-52896535D01*
X165080499Y-52896530D01*
X165519500Y-52896530D01*
X165519500Y-53103469D01*
X165559868Y-53306412D01*
X165559870Y-53306420D01*
X165639058Y-53497596D01*
X165754024Y-53669657D01*
X165900342Y-53815975D01*
X165900345Y-53815977D01*
X166072402Y-53930941D01*
X166263580Y-54010130D01*
X166408052Y-54038867D01*
X166466530Y-54050499D01*
X166466534Y-54050500D01*
X166466535Y-54050500D01*
X166673466Y-54050500D01*
X166673467Y-54050499D01*
X166876420Y-54010130D01*
X167067598Y-53930941D01*
X167239655Y-53815977D01*
X167385977Y-53669655D01*
X167500941Y-53497598D01*
X167580130Y-53306420D01*
X167620500Y-53103465D01*
X167620500Y-52896535D01*
X167620499Y-52896530D01*
X168059500Y-52896530D01*
X168059500Y-53103469D01*
X168099868Y-53306412D01*
X168099870Y-53306420D01*
X168179058Y-53497596D01*
X168294024Y-53669657D01*
X168440342Y-53815975D01*
X168440345Y-53815977D01*
X168612402Y-53930941D01*
X168803580Y-54010130D01*
X168948052Y-54038867D01*
X169006530Y-54050499D01*
X169006534Y-54050500D01*
X169006535Y-54050500D01*
X169213466Y-54050500D01*
X169213467Y-54050499D01*
X169416420Y-54010130D01*
X169607598Y-53930941D01*
X169779655Y-53815977D01*
X169925977Y-53669655D01*
X170040941Y-53497598D01*
X170120130Y-53306420D01*
X170160500Y-53103465D01*
X170160500Y-52896535D01*
X170160499Y-52896530D01*
X170599500Y-52896530D01*
X170599500Y-53103469D01*
X170639868Y-53306412D01*
X170639870Y-53306420D01*
X170719058Y-53497596D01*
X170834024Y-53669657D01*
X170980342Y-53815975D01*
X170980345Y-53815977D01*
X171152402Y-53930941D01*
X171343580Y-54010130D01*
X171488052Y-54038867D01*
X171546530Y-54050499D01*
X171546534Y-54050500D01*
X171546535Y-54050500D01*
X171753466Y-54050500D01*
X171753467Y-54050499D01*
X171956420Y-54010130D01*
X172147598Y-53930941D01*
X172319655Y-53815977D01*
X172465977Y-53669655D01*
X172580941Y-53497598D01*
X172660130Y-53306420D01*
X172700500Y-53103465D01*
X172700500Y-52896535D01*
X172700499Y-52896530D01*
X173139500Y-52896530D01*
X173139500Y-53103469D01*
X173179868Y-53306412D01*
X173179870Y-53306420D01*
X173259058Y-53497596D01*
X173374024Y-53669657D01*
X173520342Y-53815975D01*
X173520345Y-53815977D01*
X173692402Y-53930941D01*
X173883580Y-54010130D01*
X174028052Y-54038867D01*
X174086530Y-54050499D01*
X174086534Y-54050500D01*
X174086535Y-54050500D01*
X174293466Y-54050500D01*
X174293467Y-54050499D01*
X174496420Y-54010130D01*
X174687598Y-53930941D01*
X174859655Y-53815977D01*
X175005977Y-53669655D01*
X175120941Y-53497598D01*
X175200130Y-53306420D01*
X175240500Y-53103465D01*
X175240500Y-52896535D01*
X175240499Y-52896530D01*
X175679500Y-52896530D01*
X175679500Y-53103469D01*
X175719868Y-53306412D01*
X175719870Y-53306420D01*
X175799058Y-53497596D01*
X175914024Y-53669657D01*
X176060342Y-53815975D01*
X176060345Y-53815977D01*
X176232402Y-53930941D01*
X176423580Y-54010130D01*
X176568052Y-54038867D01*
X176626530Y-54050499D01*
X176626534Y-54050500D01*
X176626535Y-54050500D01*
X176833466Y-54050500D01*
X176833467Y-54050499D01*
X177036420Y-54010130D01*
X177227598Y-53930941D01*
X177399655Y-53815977D01*
X177545977Y-53669655D01*
X177660941Y-53497598D01*
X177740130Y-53306420D01*
X177780500Y-53103465D01*
X177780500Y-52896535D01*
X177780499Y-52896530D01*
X178219500Y-52896530D01*
X178219500Y-53103469D01*
X178259868Y-53306412D01*
X178259870Y-53306420D01*
X178339058Y-53497596D01*
X178454024Y-53669657D01*
X178600342Y-53815975D01*
X178600345Y-53815977D01*
X178772402Y-53930941D01*
X178963580Y-54010130D01*
X179108052Y-54038867D01*
X179166530Y-54050499D01*
X179166534Y-54050500D01*
X179166535Y-54050500D01*
X179373466Y-54050500D01*
X179373467Y-54050499D01*
X179576420Y-54010130D01*
X179767598Y-53930941D01*
X179939655Y-53815977D01*
X180085977Y-53669655D01*
X180200941Y-53497598D01*
X180280130Y-53306420D01*
X180320500Y-53103465D01*
X180320500Y-52896535D01*
X180320499Y-52896530D01*
X180759500Y-52896530D01*
X180759500Y-53103469D01*
X180799868Y-53306412D01*
X180799870Y-53306420D01*
X180879058Y-53497596D01*
X180994024Y-53669657D01*
X181140342Y-53815975D01*
X181140345Y-53815977D01*
X181312402Y-53930941D01*
X181503580Y-54010130D01*
X181648052Y-54038867D01*
X181706530Y-54050499D01*
X181706534Y-54050500D01*
X181706535Y-54050500D01*
X181913466Y-54050500D01*
X181913467Y-54050499D01*
X182116420Y-54010130D01*
X182307598Y-53930941D01*
X182479655Y-53815977D01*
X182625977Y-53669655D01*
X182740941Y-53497598D01*
X182820130Y-53306420D01*
X182860500Y-53103465D01*
X182860500Y-52896535D01*
X182860499Y-52896530D01*
X183299500Y-52896530D01*
X183299500Y-53103469D01*
X183339868Y-53306412D01*
X183339870Y-53306420D01*
X183419058Y-53497596D01*
X183534024Y-53669657D01*
X183680342Y-53815975D01*
X183680345Y-53815977D01*
X183852402Y-53930941D01*
X184043580Y-54010130D01*
X184188052Y-54038867D01*
X184246530Y-54050499D01*
X184246534Y-54050500D01*
X184246535Y-54050500D01*
X184453466Y-54050500D01*
X184453467Y-54050499D01*
X184656420Y-54010130D01*
X184847598Y-53930941D01*
X185019655Y-53815977D01*
X185165977Y-53669655D01*
X185280941Y-53497598D01*
X185360130Y-53306420D01*
X185400500Y-53103465D01*
X185400500Y-52896535D01*
X185360130Y-52693580D01*
X185280941Y-52502402D01*
X185165977Y-52330345D01*
X185165975Y-52330342D01*
X185019657Y-52184024D01*
X184851655Y-52071770D01*
X184847598Y-52069059D01*
X184656420Y-51989870D01*
X184656412Y-51989868D01*
X184453469Y-51949500D01*
X184453465Y-51949500D01*
X184246535Y-51949500D01*
X184246530Y-51949500D01*
X184043587Y-51989868D01*
X184043579Y-51989870D01*
X183852403Y-52069058D01*
X183680342Y-52184024D01*
X183534024Y-52330342D01*
X183419058Y-52502403D01*
X183339870Y-52693579D01*
X183339868Y-52693587D01*
X183299500Y-52896530D01*
X182860499Y-52896530D01*
X182820130Y-52693580D01*
X182740941Y-52502402D01*
X182625977Y-52330345D01*
X182625975Y-52330342D01*
X182479657Y-52184024D01*
X182311655Y-52071770D01*
X182307598Y-52069059D01*
X182116420Y-51989870D01*
X182116412Y-51989868D01*
X181913469Y-51949500D01*
X181913465Y-51949500D01*
X181706535Y-51949500D01*
X181706530Y-51949500D01*
X181503587Y-51989868D01*
X181503579Y-51989870D01*
X181312403Y-52069058D01*
X181140342Y-52184024D01*
X180994024Y-52330342D01*
X180879058Y-52502403D01*
X180799870Y-52693579D01*
X180799868Y-52693587D01*
X180759500Y-52896530D01*
X180320499Y-52896530D01*
X180280130Y-52693580D01*
X180200941Y-52502402D01*
X180085977Y-52330345D01*
X180085975Y-52330342D01*
X179939657Y-52184024D01*
X179771655Y-52071770D01*
X179767598Y-52069059D01*
X179576420Y-51989870D01*
X179576412Y-51989868D01*
X179373469Y-51949500D01*
X179373465Y-51949500D01*
X179166535Y-51949500D01*
X179166530Y-51949500D01*
X178963587Y-51989868D01*
X178963579Y-51989870D01*
X178772403Y-52069058D01*
X178600342Y-52184024D01*
X178454024Y-52330342D01*
X178339058Y-52502403D01*
X178259870Y-52693579D01*
X178259868Y-52693587D01*
X178219500Y-52896530D01*
X177780499Y-52896530D01*
X177740130Y-52693580D01*
X177660941Y-52502402D01*
X177545977Y-52330345D01*
X177545975Y-52330342D01*
X177399657Y-52184024D01*
X177231655Y-52071770D01*
X177227598Y-52069059D01*
X177036420Y-51989870D01*
X177036412Y-51989868D01*
X176833469Y-51949500D01*
X176833465Y-51949500D01*
X176626535Y-51949500D01*
X176626530Y-51949500D01*
X176423587Y-51989868D01*
X176423579Y-51989870D01*
X176232403Y-52069058D01*
X176060342Y-52184024D01*
X175914024Y-52330342D01*
X175799058Y-52502403D01*
X175719870Y-52693579D01*
X175719868Y-52693587D01*
X175679500Y-52896530D01*
X175240499Y-52896530D01*
X175200130Y-52693580D01*
X175120941Y-52502402D01*
X175005977Y-52330345D01*
X175005975Y-52330342D01*
X174859657Y-52184024D01*
X174691655Y-52071770D01*
X174687598Y-52069059D01*
X174496420Y-51989870D01*
X174496412Y-51989868D01*
X174293469Y-51949500D01*
X174293465Y-51949500D01*
X174086535Y-51949500D01*
X174086530Y-51949500D01*
X173883587Y-51989868D01*
X173883579Y-51989870D01*
X173692403Y-52069058D01*
X173520342Y-52184024D01*
X173374024Y-52330342D01*
X173259058Y-52502403D01*
X173179870Y-52693579D01*
X173179868Y-52693587D01*
X173139500Y-52896530D01*
X172700499Y-52896530D01*
X172660130Y-52693580D01*
X172580941Y-52502402D01*
X172465977Y-52330345D01*
X172465975Y-52330342D01*
X172319657Y-52184024D01*
X172151655Y-52071770D01*
X172147598Y-52069059D01*
X171956420Y-51989870D01*
X171956412Y-51989868D01*
X171753469Y-51949500D01*
X171753465Y-51949500D01*
X171546535Y-51949500D01*
X171546530Y-51949500D01*
X171343587Y-51989868D01*
X171343579Y-51989870D01*
X171152403Y-52069058D01*
X170980342Y-52184024D01*
X170834024Y-52330342D01*
X170719058Y-52502403D01*
X170639870Y-52693579D01*
X170639868Y-52693587D01*
X170599500Y-52896530D01*
X170160499Y-52896530D01*
X170120130Y-52693580D01*
X170040941Y-52502402D01*
X169925977Y-52330345D01*
X169925975Y-52330342D01*
X169779657Y-52184024D01*
X169611655Y-52071770D01*
X169607598Y-52069059D01*
X169416420Y-51989870D01*
X169416412Y-51989868D01*
X169213469Y-51949500D01*
X169213465Y-51949500D01*
X169006535Y-51949500D01*
X169006530Y-51949500D01*
X168803587Y-51989868D01*
X168803579Y-51989870D01*
X168612403Y-52069058D01*
X168440342Y-52184024D01*
X168294024Y-52330342D01*
X168179058Y-52502403D01*
X168099870Y-52693579D01*
X168099868Y-52693587D01*
X168059500Y-52896530D01*
X167620499Y-52896530D01*
X167580130Y-52693580D01*
X167500941Y-52502402D01*
X167385977Y-52330345D01*
X167385975Y-52330342D01*
X167239657Y-52184024D01*
X167071655Y-52071770D01*
X167067598Y-52069059D01*
X166876420Y-51989870D01*
X166876412Y-51989868D01*
X166673469Y-51949500D01*
X166673465Y-51949500D01*
X166466535Y-51949500D01*
X166466530Y-51949500D01*
X166263587Y-51989868D01*
X166263579Y-51989870D01*
X166072403Y-52069058D01*
X165900342Y-52184024D01*
X165754024Y-52330342D01*
X165639058Y-52502403D01*
X165559870Y-52693579D01*
X165559868Y-52693587D01*
X165519500Y-52896530D01*
X165080499Y-52896530D01*
X165040130Y-52693580D01*
X164960941Y-52502402D01*
X164845977Y-52330345D01*
X164845975Y-52330342D01*
X164699657Y-52184024D01*
X164531655Y-52071770D01*
X164527598Y-52069059D01*
X164336420Y-51989870D01*
X164336412Y-51989868D01*
X164133469Y-51949500D01*
X164133465Y-51949500D01*
X163926535Y-51949500D01*
X163926530Y-51949500D01*
X163723587Y-51989868D01*
X163723579Y-51989870D01*
X163532403Y-52069058D01*
X163360342Y-52184024D01*
X163214024Y-52330342D01*
X163099058Y-52502403D01*
X163019870Y-52693579D01*
X163019868Y-52693587D01*
X162979500Y-52896530D01*
X162540499Y-52896530D01*
X162500130Y-52693580D01*
X162420941Y-52502402D01*
X162305977Y-52330345D01*
X162305975Y-52330342D01*
X162159657Y-52184024D01*
X161991655Y-52071770D01*
X161987598Y-52069059D01*
X161796420Y-51989870D01*
X161796412Y-51989868D01*
X161593469Y-51949500D01*
X161593465Y-51949500D01*
X161386535Y-51949500D01*
X161386530Y-51949500D01*
X161183587Y-51989868D01*
X161183579Y-51989870D01*
X160992403Y-52069058D01*
X160820342Y-52184024D01*
X160674024Y-52330342D01*
X160559058Y-52502403D01*
X160479870Y-52693579D01*
X160479868Y-52693587D01*
X160439500Y-52896530D01*
X160000499Y-52896530D01*
X159960130Y-52693580D01*
X159880941Y-52502402D01*
X159765977Y-52330345D01*
X159765975Y-52330342D01*
X159619657Y-52184024D01*
X159451655Y-52071770D01*
X159447598Y-52069059D01*
X159256420Y-51989870D01*
X159256412Y-51989868D01*
X159053469Y-51949500D01*
X159053465Y-51949500D01*
X158846535Y-51949500D01*
X158846530Y-51949500D01*
X158643587Y-51989868D01*
X158643579Y-51989870D01*
X158452403Y-52069058D01*
X158280342Y-52184024D01*
X158134024Y-52330342D01*
X158019058Y-52502403D01*
X157939870Y-52693579D01*
X157939868Y-52693587D01*
X157899500Y-52896530D01*
X157460499Y-52896530D01*
X157420130Y-52693580D01*
X157340941Y-52502402D01*
X157225977Y-52330345D01*
X157225975Y-52330342D01*
X157079657Y-52184024D01*
X156911655Y-52071770D01*
X156907598Y-52069059D01*
X156716420Y-51989870D01*
X156716412Y-51989868D01*
X156513469Y-51949500D01*
X156513465Y-51949500D01*
X156306535Y-51949500D01*
X156306530Y-51949500D01*
X156103587Y-51989868D01*
X156103579Y-51989870D01*
X155912403Y-52069058D01*
X155740342Y-52184024D01*
X155594024Y-52330342D01*
X155479058Y-52502403D01*
X155399870Y-52693579D01*
X155399868Y-52693587D01*
X155359500Y-52896530D01*
X154920499Y-52896530D01*
X154880130Y-52693580D01*
X154800941Y-52502402D01*
X154685977Y-52330345D01*
X154685975Y-52330342D01*
X154539657Y-52184024D01*
X154371655Y-52071770D01*
X154367598Y-52069059D01*
X154176420Y-51989870D01*
X154176412Y-51989868D01*
X153973469Y-51949500D01*
X153973465Y-51949500D01*
X153766535Y-51949500D01*
X153766530Y-51949500D01*
X153563587Y-51989868D01*
X153563579Y-51989870D01*
X153372403Y-52069058D01*
X153200342Y-52184024D01*
X153054024Y-52330342D01*
X152939058Y-52502403D01*
X152859870Y-52693579D01*
X152859868Y-52693587D01*
X152819500Y-52896530D01*
X152380499Y-52896530D01*
X152340130Y-52693580D01*
X152260941Y-52502402D01*
X152145977Y-52330345D01*
X152145975Y-52330342D01*
X151999657Y-52184024D01*
X151831655Y-52071770D01*
X151827598Y-52069059D01*
X151636420Y-51989870D01*
X151636412Y-51989868D01*
X151433469Y-51949500D01*
X151433465Y-51949500D01*
X151226535Y-51949500D01*
X151226530Y-51949500D01*
X151023587Y-51989868D01*
X151023579Y-51989870D01*
X150832403Y-52069058D01*
X150660342Y-52184024D01*
X150514024Y-52330342D01*
X150399058Y-52502403D01*
X150319870Y-52693579D01*
X150319868Y-52693587D01*
X150279500Y-52896530D01*
X149840499Y-52896530D01*
X149800130Y-52693580D01*
X149720941Y-52502402D01*
X149605977Y-52330345D01*
X149605975Y-52330342D01*
X149459657Y-52184024D01*
X149291655Y-52071770D01*
X149287598Y-52069059D01*
X149096420Y-51989870D01*
X149096412Y-51989868D01*
X148893469Y-51949500D01*
X148893465Y-51949500D01*
X148686535Y-51949500D01*
X148686530Y-51949500D01*
X148483587Y-51989868D01*
X148483579Y-51989870D01*
X148292403Y-52069058D01*
X148120342Y-52184024D01*
X147974024Y-52330342D01*
X147859058Y-52502403D01*
X147779870Y-52693579D01*
X147779868Y-52693587D01*
X147739500Y-52896530D01*
X147300500Y-52896530D01*
X147300500Y-52130249D01*
X147300499Y-52130247D01*
X147288868Y-52071770D01*
X147288867Y-52071769D01*
X147244552Y-52005447D01*
X147178230Y-51961132D01*
X147178229Y-51961131D01*
X147119752Y-51949500D01*
X147119748Y-51949500D01*
X145380252Y-51949500D01*
X145380247Y-51949500D01*
X145321770Y-51961131D01*
X145321769Y-51961132D01*
X145255447Y-52005447D01*
X145211132Y-52071769D01*
X145211131Y-52071770D01*
X145199500Y-52130247D01*
X100500500Y-52130247D01*
X100500500Y-50624500D01*
X100520185Y-50557461D01*
X100572989Y-50511706D01*
X100624500Y-50500500D01*
X199375500Y-50500500D01*
X199442539Y-50520185D01*
G37*
%TD.AperFunction*%
%TD*%
M02*
