M48
; DRILL file {KiCad 9.0.7} date 2026-04-01T19:53:43+0900
; FORMAT={-:-/ absolute / metric / decimal}
; #@! TF.CreationDate,2026-04-01T19:53:43+09:00
; #@! TF.GenerationSoftware,Kicad,Pcbnew,9.0.7
; #@! TF.FileFunction,Plated,1,2,PTH
FMAT,2
METRIC
; #@! TA.AperFunction,Plated,PTH,ViaDrill
T1C0.300
%
G90
G05
T1
X88.5Y-86.57
X88.5Y-91.65
X90.346Y-94.753
X91.625Y-85.825
X91.625Y-89.975
X92.1Y-91.2
X92.425Y-104.925
X92.5Y-82.8
X93.062Y-80.95
X93.1Y-84.6
X93.3Y-115.0
X93.5Y-111.0
X93.6Y-82.8
X94.3Y-84.6
X94.3Y-92.2
X94.57Y-115.0
X95.4Y-86.085
X95.728Y-107.728
X95.84Y-115.0
X95.9Y-83.545
X95.9Y-84.815
X95.9Y-91.965
X95.9Y-93.235
X96.575Y-104.925
X97.11Y-115.0
X97.5Y-90.825
X97.5Y-94.425
X97.5Y-111.0
X97.6Y-83.625
X97.6Y-87.225
X97.9Y-105.5
X98.2Y-90.825
X98.2Y-94.425
X98.3Y-83.625
X98.3Y-87.225
X98.848Y-107.398
X98.9Y-90.825
X98.9Y-94.425
X99.0Y-83.625
X99.0Y-87.225
X99.45Y-99.85
X99.45Y-104.05
X99.525Y-107.429
X99.6Y-90.825
X99.6Y-94.425
X99.7Y-83.625
X99.7Y-87.225
X100.05Y-101.95
X100.1Y-82.125
X100.1Y-89.225
X100.174Y-107.455
X100.65Y-99.85
X100.65Y-104.05
X100.824Y-107.45
X100.847Y-93.893
X101.25Y-101.95
X101.3Y-84.815
X101.3Y-91.965
X101.3Y-93.235
X101.3Y-94.505
X101.8Y-86.085
X102.151Y-87.355
X102.73Y-96.198
X103.3Y-95.3
X103.69Y-82.885
X103.69Y-86.815
X104.5Y-95.3
X104.5Y-98.35
X104.713Y-93.586
X105.2Y-109.3
X105.6Y-87.1
X105.6Y-87.6
X105.8Y-101.95
X106.4Y-87.1
X106.4Y-87.6
X106.8Y-100.9
X106.8Y-101.65
X106.8Y-102.4
X106.8Y-103.15
X107.05Y-90.5
X107.3Y-110.9
X107.55Y-100.9
X107.55Y-101.65
X107.55Y-102.4
X107.55Y-103.15
X107.65Y-92.85
X107.65Y-94.05
X107.747Y-110.254
X107.949Y-91.15
X107.949Y-91.75
X108.3Y-100.9
X108.3Y-101.65
X108.3Y-102.4
X108.3Y-103.15
X108.4Y-110.2
X108.65Y-108.1
X108.65Y-109.3
X109.05Y-100.9
X109.05Y-101.65
X109.05Y-102.4
X109.05Y-103.15
X109.161Y-106.251
X109.3Y-91.15
X109.3Y-91.75
X109.305Y-107.8
X109.55Y-93.7
X109.55Y-94.35
X109.55Y-99.95
X109.847Y-106.248
X110.0Y-102.05
X110.05Y-90.5
X110.1Y-104.2
X110.65Y-109.15
X110.65Y-112.0
X110.65Y-113.0
X110.65Y-114.0
X110.7Y-109.8
X111.2Y-87.1
X111.2Y-87.7
X111.25Y-115.25
X111.4Y-90.1
X111.4Y-112.0
X111.4Y-113.2
X111.6Y-109.8
X111.7Y-94.65
X111.7Y-95.65
X111.95Y-109.15
X112.0Y-87.1
X112.0Y-87.7
X112.0Y-108.2
X112.0Y-115.25
X112.95Y-112.7
X113.0Y-108.2
X113.0Y-115.25
X113.3Y-95.8
X113.91Y-82.885
X113.91Y-86.815
X114.0Y-108.2
X114.0Y-115.25
X114.05Y-102.05
X114.65Y-110.5
X115.0Y-108.2
X115.0Y-115.25
X115.25Y-98.25
X115.25Y-102.05
X115.3Y-89.6
X115.3Y-90.25
X115.4Y-106.2
X115.7Y-98.95
X116.0Y-108.2
X116.0Y-112.5
X116.0Y-113.5
X116.0Y-114.5
X116.0Y-115.25
X116.1Y-102.3
X116.196Y-98.45
X116.258Y-102.931
X116.85Y-86.05
X116.898Y-100.25
X117.15Y-108.2
X117.15Y-109.0
X117.15Y-110.0
X117.15Y-111.0
X117.15Y-111.95
X118.85Y-90.4
X119.0Y-86.57
X119.0Y-87.84
X119.0Y-89.11
X119.0Y-94.19
X119.0Y-98.0
X119.0Y-99.27
M30
