M48
; DRILL file {KiCad 9.0.6} date 2025-11-25T16:23:32+0900
; FORMAT={-:-/ absolute / metric / decimal}
; #@! TF.CreationDate,2025-11-25T16:23:32+09:00
; #@! TF.GenerationSoftware,Kicad,Pcbnew,9.0.6
; #@! TF.FileFunction,Plated,1,2,PTH
FMAT,2
METRIC
; #@! TA.AperFunction,Plated,PTH,ComponentDrill
T1C0.200
; #@! TA.AperFunction,Plated,PTH,ViaDrill
T2C0.300
; #@! TA.AperFunction,Plated,PTH,ComponentDrill
T3C0.600
; #@! TA.AperFunction,Plated,PTH,ComponentDrill
T4C1.000
; #@! TA.AperFunction,Plated,PTH,ComponentDrill
T5C3.200
%
G90
G05
T1
X154.66Y-112.95
X154.66Y-114.05
X155.21Y-112.4
X155.21Y-113.5
X155.21Y-114.6
X155.76Y-112.95
X155.76Y-114.05
X156.31Y-112.4
X156.31Y-113.5
X156.31Y-114.6
X156.86Y-112.95
X156.86Y-114.05
T2
X122.5Y-105.0
X122.5Y-110.0
X122.5Y-115.0
X122.5Y-120.0
X122.5Y-125.0
X122.5Y-130.0
X122.5Y-135.0
X122.5Y-140.0
X122.5Y-145.0
X122.5Y-147.5
X127.34Y-104.4
X127.34Y-110.8
X127.5Y-147.5
X128.32Y-107.641
X129.6Y-107.425
X132.5Y-102.5
X132.5Y-147.5
X133.2Y-136.0
X133.25Y-138.0
X137.5Y-102.5
X137.5Y-147.5
X142.5Y-147.5
X146.05Y-114.8
X146.05Y-119.3
X147.5Y-147.5
X148.4Y-114.8
X149.2Y-107.225
X149.2Y-107.975
X152.5Y-147.5
X155.05Y-126.35
X157.5Y-147.5
X162.5Y-147.5
X163.55Y-110.3
X163.55Y-111.8
X167.5Y-147.5
X172.5Y-102.5
X172.5Y-147.5
X177.5Y-102.5
X177.5Y-147.5
X182.5Y-102.5
X182.5Y-147.5
X187.5Y-102.5
X187.5Y-107.5
X187.5Y-112.5
X187.5Y-117.5
X187.5Y-130.0
X187.5Y-132.5
X187.5Y-137.5
X187.5Y-142.5
X187.5Y-147.5
T4
X129.9Y-116.4
X131.9Y-116.4
X133.9Y-116.4
X140.5Y-123.0
X140.5Y-125.0
X140.5Y-127.0
X176.15Y-116.4
X178.15Y-116.4
X180.15Y-116.4
X186.75Y-123.0
X186.75Y-125.0
X186.75Y-127.0
T5
X185.0Y-105.0
T3
G00X122.985Y-103.28
M15
G01X122.185Y-103.28
M16
G05
G00X122.985Y-111.92
M15
G01X122.185Y-111.92
M16
G05
G00X127.315Y-103.28
M15
G01X126.215Y-103.28
M16
G05
G00X127.315Y-111.92
M15
G01X126.215Y-111.92
M16
G05
M30
