%TF.GenerationSoftware,KiCad,Pcbnew,9.0.6*%
%TF.CreationDate,2025-11-25T16:23:35+09:00*%
%TF.ProjectId,controller,636f6e74-726f-46c6-9c65-722e6b696361,rev?*%
%TF.SameCoordinates,Original*%
%TF.FileFunction,Legend,Top*%
%TF.FilePolarity,Positive*%
%FSLAX46Y46*%
G04 Gerber Fmt 4.6, Leading zero omitted, Abs format (unit mm)*
G04 Created by KiCad (PCBNEW 9.0.6) date 2025-11-25 16:23:35*
%MOMM*%
%LPD*%
G01*
G04 APERTURE LIST*
%ADD10C,0.500000*%
%ADD11C,0.100000*%
%ADD12C,0.125000*%
%ADD13C,0.150000*%
%ADD14C,0.120000*%
%ADD15C,0.200000*%
%ADD16C,0.127000*%
G04 APERTURE END LIST*
D10*
G36*
X166675135Y-140414078D02*
G01*
X166844701Y-140395001D01*
X167006944Y-140338258D01*
X167159761Y-140243853D01*
X167299579Y-140111583D01*
X167339628Y-140062827D01*
X167288490Y-139831712D01*
X167236666Y-139889187D01*
X167179230Y-139938181D01*
X167118486Y-139977141D01*
X167053622Y-140006836D01*
X166987629Y-140026156D01*
X166918887Y-140035734D01*
X166888237Y-140036723D01*
X166823309Y-140031901D01*
X166765157Y-140017686D01*
X166716295Y-139995785D01*
X166673913Y-139966046D01*
X166609937Y-139885611D01*
X166572431Y-139774451D01*
X166565989Y-139627995D01*
X166582628Y-139511143D01*
X166606901Y-139417981D01*
X166639118Y-139332988D01*
X166677495Y-139258939D01*
X166722488Y-139193622D01*
X166771511Y-139139623D01*
X166825877Y-139094606D01*
X166882814Y-139060236D01*
X166944019Y-139034993D01*
X167007463Y-139019563D01*
X167074349Y-139013566D01*
X167082410Y-139013498D01*
X167149850Y-139018313D01*
X167211186Y-139032473D01*
X167264250Y-139054615D01*
X167310916Y-139084694D01*
X167382675Y-139165513D01*
X167413511Y-139230722D01*
X167594556Y-138960833D01*
X167567339Y-138892957D01*
X167532466Y-138832717D01*
X167491869Y-138782107D01*
X167444512Y-138738805D01*
X167331093Y-138674961D01*
X167188954Y-138640843D01*
X167101644Y-138635990D01*
X166917635Y-138655106D01*
X166743312Y-138711634D01*
X166581350Y-138804731D01*
X166435354Y-138933611D01*
X166309809Y-139096921D01*
X166209691Y-139292265D01*
X166170691Y-139400969D01*
X166139901Y-139516105D01*
X166134900Y-139539231D01*
X166115792Y-139654925D01*
X166107602Y-139764065D01*
X166109773Y-139863224D01*
X166121588Y-139955456D01*
X166141813Y-140037420D01*
X166170439Y-140112263D01*
X166205753Y-140177385D01*
X166248385Y-140235265D01*
X166296758Y-140284430D01*
X166351629Y-140326142D01*
X166479001Y-140385783D01*
X166631415Y-140412827D01*
X166675135Y-140414078D01*
G37*
G36*
X167286658Y-140375000D02*
G01*
X167565858Y-140375000D01*
X168104108Y-137786025D01*
X167679736Y-137786025D01*
X167206210Y-140063895D01*
X167286658Y-140375000D01*
G37*
G36*
X168842027Y-140414078D02*
G01*
X169082964Y-140394952D01*
X169212002Y-140370141D01*
X169339785Y-140335627D01*
X169454924Y-140295315D01*
X169422409Y-139986653D01*
X169311473Y-140024088D01*
X169199491Y-140051566D01*
X169091000Y-140068155D01*
X168985344Y-140073968D01*
X168983382Y-140073970D01*
X168892236Y-140069095D01*
X168811260Y-140054505D01*
X168746744Y-140032944D01*
X168690711Y-140003496D01*
X168646142Y-139968948D01*
X168609062Y-139927605D01*
X168558156Y-139826510D01*
X168536625Y-139693721D01*
X168549915Y-139519117D01*
X168558247Y-139475117D01*
X168584891Y-139370592D01*
X168618852Y-139277939D01*
X168656786Y-139202628D01*
X168700644Y-139137944D01*
X168746813Y-139087257D01*
X168797829Y-139046144D01*
X168851031Y-139015901D01*
X168908386Y-138994680D01*
X169021698Y-138979610D01*
X169086302Y-138984452D01*
X169142600Y-138998812D01*
X169186741Y-139020124D01*
X169223569Y-139049028D01*
X169273350Y-139125468D01*
X169294419Y-139232051D01*
X169280595Y-139378489D01*
X168518100Y-139378489D01*
X168461466Y-139651125D01*
X169615819Y-139651125D01*
X169687565Y-139397112D01*
X169704581Y-139291436D01*
X169710542Y-139192431D01*
X169706163Y-139104663D01*
X169692188Y-139023515D01*
X169670110Y-138952543D01*
X169639674Y-138888087D01*
X169602457Y-138832175D01*
X169557754Y-138782802D01*
X169447643Y-138705114D01*
X169307319Y-138655072D01*
X169133031Y-138636028D01*
X169124280Y-138635990D01*
X168930216Y-138655070D01*
X168746346Y-138711434D01*
X168576017Y-138803852D01*
X168423367Y-138930812D01*
X168293133Y-139090045D01*
X168237916Y-139180856D01*
X168190198Y-139278280D01*
X168150423Y-139381930D01*
X168119053Y-139491369D01*
X168109756Y-139532820D01*
X168091762Y-139643183D01*
X168084810Y-139747202D01*
X168088281Y-139840285D01*
X168101433Y-139927168D01*
X168122961Y-140004428D01*
X168153062Y-140075617D01*
X168190407Y-140138849D01*
X168235568Y-140195997D01*
X168348028Y-140290901D01*
X168492477Y-140360741D01*
X168672760Y-140403138D01*
X168842027Y-140414078D01*
G37*
G36*
X170394190Y-140414078D02*
G01*
X170513155Y-140409241D01*
X170624733Y-140394916D01*
X170725383Y-140372265D01*
X170818367Y-140341238D01*
X170900458Y-140303611D01*
X170974755Y-140258660D01*
X171038872Y-140208452D01*
X171095104Y-140151821D01*
X171142122Y-140090527D01*
X171181070Y-140023503D01*
X171211450Y-139951581D01*
X171233361Y-139874405D01*
X171235149Y-139866058D01*
X171246206Y-139789581D01*
X171246357Y-139721598D01*
X171237088Y-139663560D01*
X171219454Y-139612299D01*
X171161165Y-139526487D01*
X171069253Y-139456247D01*
X170933436Y-139397240D01*
X170736318Y-139343958D01*
X170614216Y-139312909D01*
X170515911Y-139276144D01*
X170479784Y-139253035D01*
X170454528Y-139225399D01*
X170441783Y-139192202D01*
X170443191Y-139152411D01*
X170476572Y-139085808D01*
X170547930Y-139032495D01*
X170666047Y-138995709D01*
X170799786Y-138984952D01*
X171008650Y-139003333D01*
X171240034Y-139058836D01*
X171399249Y-138723460D01*
X171209308Y-138668374D01*
X170965371Y-138638104D01*
X170880539Y-138635990D01*
X170755154Y-138640840D01*
X170637918Y-138655246D01*
X170533577Y-138677822D01*
X170437434Y-138708793D01*
X170353601Y-138746027D01*
X170277866Y-138790579D01*
X170213131Y-138840021D01*
X170156388Y-138895898D01*
X170109171Y-138956207D01*
X170069995Y-139022322D01*
X170039361Y-139093399D01*
X170017095Y-139169914D01*
X170014392Y-139182331D01*
X170003358Y-139258729D01*
X170003291Y-139326310D01*
X170012629Y-139383482D01*
X170030299Y-139433712D01*
X170088375Y-139516884D01*
X170179887Y-139584093D01*
X170315776Y-139639849D01*
X170496130Y-139686137D01*
X170621141Y-139716839D01*
X170722125Y-139754614D01*
X170759217Y-139779078D01*
X170785034Y-139808817D01*
X170797819Y-139845003D01*
X170795817Y-139888804D01*
X170761392Y-139961045D01*
X170691268Y-140017337D01*
X170579878Y-140054861D01*
X170460899Y-140065269D01*
X170262570Y-140046876D01*
X170024792Y-139986852D01*
X169927534Y-139949254D01*
X169762059Y-140281271D01*
X169953114Y-140353251D01*
X170190720Y-140401298D01*
X170394190Y-140414078D01*
G37*
G36*
X171434665Y-140375000D02*
G01*
X171871249Y-140375000D01*
X172224638Y-138675069D01*
X171788053Y-138675069D01*
X171434665Y-140375000D01*
G37*
G36*
X172073970Y-138362438D02*
G01*
X172132600Y-138357643D01*
X172187321Y-138343612D01*
X172282741Y-138289786D01*
X172355172Y-138204603D01*
X172381031Y-138151302D01*
X172398883Y-138091787D01*
X172399729Y-138087818D01*
X172407450Y-138027146D01*
X172404428Y-137972843D01*
X172392349Y-137928491D01*
X172371703Y-137890579D01*
X172344275Y-137860755D01*
X172309656Y-137837615D01*
X172218316Y-137812780D01*
X172188459Y-137811518D01*
X172129829Y-137816317D01*
X172075104Y-137830370D01*
X171979800Y-137884250D01*
X171907385Y-137969612D01*
X171881429Y-138023157D01*
X171863418Y-138083035D01*
X171862395Y-138087818D01*
X171854775Y-138147926D01*
X171857871Y-138201807D01*
X171870021Y-138245932D01*
X171890742Y-138283686D01*
X171918282Y-138313437D01*
X171953036Y-138336522D01*
X172044710Y-138361229D01*
X172073970Y-138362438D01*
G37*
G36*
X172714192Y-141176116D02*
G01*
X172823492Y-141171290D01*
X172929151Y-141157050D01*
X173031405Y-141133565D01*
X173129102Y-141101261D01*
X173222198Y-141060304D01*
X173309815Y-141011183D01*
X173391589Y-140954206D01*
X173466988Y-140889785D01*
X173535383Y-140818501D01*
X173596560Y-140740546D01*
X173649770Y-140656831D01*
X173694988Y-140567246D01*
X173731509Y-140472970D01*
X173759329Y-140373623D01*
X173764131Y-140351644D01*
X174112635Y-138675069D01*
X173803668Y-138675069D01*
X173616669Y-139001744D01*
X173331821Y-140372099D01*
X173309340Y-140456288D01*
X173278839Y-140531750D01*
X173242748Y-140595028D01*
X173199758Y-140650348D01*
X173151642Y-140696299D01*
X173097299Y-140734641D01*
X172970091Y-140788326D01*
X172813662Y-140810836D01*
X172786243Y-140811278D01*
X172597735Y-140792543D01*
X172494678Y-140767941D01*
X172395294Y-140734150D01*
X172346454Y-140713276D01*
X172191359Y-141044988D01*
X172286023Y-141090684D01*
X172383380Y-141126620D01*
X172481598Y-141152375D01*
X172582802Y-141168771D01*
X172714192Y-141176116D01*
G37*
G36*
X172864859Y-140414078D02*
G01*
X173033256Y-140394983D01*
X173194446Y-140338165D01*
X173346562Y-140243490D01*
X173486265Y-140110478D01*
X173583544Y-139980242D01*
X173488900Y-139822705D01*
X173440038Y-139880256D01*
X173385147Y-139929753D01*
X173326040Y-139969895D01*
X173262285Y-140001147D01*
X173196258Y-140022500D01*
X173126889Y-140034355D01*
X173078114Y-140036723D01*
X173013597Y-140031901D01*
X172955781Y-140017686D01*
X172907147Y-139995767D01*
X172864949Y-139965998D01*
X172801189Y-139885398D01*
X172763842Y-139773930D01*
X172757608Y-139627076D01*
X172774184Y-139511143D01*
X172798455Y-139417981D01*
X172830657Y-139332988D01*
X172869044Y-139258854D01*
X172914028Y-139193474D01*
X172963044Y-139139403D01*
X173017368Y-139094350D01*
X173074211Y-139059985D01*
X173135265Y-139034784D01*
X173198447Y-139019439D01*
X173264989Y-139013552D01*
X173272134Y-139013498D01*
X173338902Y-139018332D01*
X173399563Y-139032632D01*
X173451362Y-139054812D01*
X173496884Y-139085062D01*
X173566377Y-139166446D01*
X173607968Y-139275754D01*
X173801988Y-139019910D01*
X173781842Y-138945112D01*
X173753405Y-138878039D01*
X173718883Y-138821675D01*
X173677140Y-138772522D01*
X173575038Y-138697686D01*
X173444469Y-138651394D01*
X173289689Y-138635990D01*
X173107579Y-138655115D01*
X172934039Y-138711827D01*
X172772144Y-138805409D01*
X172625917Y-138935039D01*
X172500195Y-139099166D01*
X172446563Y-139193545D01*
X172400164Y-139295131D01*
X172361349Y-139403924D01*
X172330767Y-139519192D01*
X172326456Y-139539231D01*
X172307263Y-139655216D01*
X172299005Y-139764551D01*
X172301117Y-139863807D01*
X172312872Y-139956071D01*
X172333035Y-140038023D01*
X172361586Y-140112815D01*
X172396823Y-140177881D01*
X172439359Y-140235681D01*
X172487643Y-140284780D01*
X172542402Y-140326414D01*
X172669551Y-140385926D01*
X172821716Y-140412856D01*
X172864859Y-140414078D01*
G37*
G36*
X175335070Y-140375000D02*
G01*
X175771654Y-140375000D01*
X175989641Y-139326282D01*
X176006268Y-139222592D01*
X176011699Y-139126326D01*
X176006776Y-139042502D01*
X175992307Y-138965889D01*
X175970042Y-138900339D01*
X175939620Y-138841727D01*
X175902845Y-138792135D01*
X175858861Y-138749392D01*
X175750921Y-138685711D01*
X175612910Y-138651020D01*
X175523748Y-138645760D01*
X175346183Y-138664983D01*
X175166995Y-138723456D01*
X174992938Y-138821510D01*
X174844295Y-138945263D01*
X174852843Y-139216830D01*
X174926896Y-139158527D01*
X175003476Y-139110947D01*
X175078497Y-139075865D01*
X175154999Y-139051184D01*
X175292328Y-139033954D01*
X175360946Y-139038820D01*
X175419173Y-139053348D01*
X175461914Y-139074110D01*
X175496525Y-139102239D01*
X175539703Y-139175313D01*
X175553579Y-139278946D01*
X175540387Y-139387648D01*
X175335070Y-140375000D01*
G37*
G36*
X174238572Y-140375000D02*
G01*
X174675157Y-140375000D01*
X174966264Y-138974725D01*
X174904440Y-138675069D01*
X174591961Y-138675069D01*
X174238572Y-140375000D01*
G37*
G36*
X177011950Y-140414078D02*
G01*
X177252887Y-140394952D01*
X177381925Y-140370141D01*
X177509708Y-140335627D01*
X177624847Y-140295315D01*
X177592332Y-139986653D01*
X177481396Y-140024088D01*
X177369415Y-140051566D01*
X177260923Y-140068155D01*
X177155267Y-140073968D01*
X177153306Y-140073970D01*
X177062159Y-140069095D01*
X176981183Y-140054505D01*
X176916667Y-140032944D01*
X176860634Y-140003496D01*
X176816065Y-139968948D01*
X176778985Y-139927605D01*
X176728079Y-139826510D01*
X176706548Y-139693721D01*
X176719838Y-139519117D01*
X176728170Y-139475117D01*
X176754814Y-139370592D01*
X176788776Y-139277939D01*
X176826709Y-139202628D01*
X176870567Y-139137944D01*
X176916737Y-139087257D01*
X176967752Y-139046144D01*
X177020954Y-139015901D01*
X177078309Y-138994680D01*
X177191621Y-138979610D01*
X177256225Y-138984452D01*
X177312523Y-138998812D01*
X177356664Y-139020124D01*
X177393492Y-139049028D01*
X177443273Y-139125468D01*
X177464342Y-139232051D01*
X177450519Y-139378489D01*
X176688023Y-139378489D01*
X176631389Y-139651125D01*
X177785742Y-139651125D01*
X177857488Y-139397112D01*
X177874505Y-139291436D01*
X177880465Y-139192431D01*
X177876086Y-139104663D01*
X177862111Y-139023515D01*
X177840033Y-138952543D01*
X177809597Y-138888087D01*
X177772380Y-138832175D01*
X177727677Y-138782802D01*
X177617566Y-138705114D01*
X177477242Y-138655072D01*
X177302955Y-138636028D01*
X177294203Y-138635990D01*
X177100140Y-138655070D01*
X176916270Y-138711434D01*
X176745940Y-138803852D01*
X176593290Y-138930812D01*
X176463056Y-139090045D01*
X176407840Y-139180856D01*
X176360122Y-139278280D01*
X176320346Y-139381930D01*
X176288976Y-139491369D01*
X176279679Y-139532820D01*
X176261685Y-139643183D01*
X176254733Y-139747202D01*
X176258204Y-139840285D01*
X176271356Y-139927168D01*
X176292884Y-140004428D01*
X176322985Y-140075617D01*
X176360330Y-140138849D01*
X176405491Y-140195997D01*
X176517951Y-140290901D01*
X176662400Y-140360741D01*
X176842683Y-140403138D01*
X177011950Y-140414078D01*
G37*
G36*
X178638149Y-140414078D02*
G01*
X178807715Y-140395001D01*
X178969959Y-140338258D01*
X179122775Y-140243853D01*
X179262593Y-140111583D01*
X179302643Y-140062827D01*
X179251504Y-139831712D01*
X179199680Y-139889187D01*
X179142245Y-139938181D01*
X179081500Y-139977141D01*
X179016637Y-140006836D01*
X178950643Y-140026156D01*
X178881901Y-140035734D01*
X178851251Y-140036723D01*
X178786324Y-140031901D01*
X178728171Y-140017686D01*
X178679309Y-139995785D01*
X178636927Y-139966046D01*
X178572952Y-139885611D01*
X178535445Y-139774451D01*
X178529004Y-139627995D01*
X178545642Y-139511143D01*
X178569916Y-139417981D01*
X178602132Y-139332988D01*
X178640509Y-139258939D01*
X178685503Y-139193622D01*
X178734526Y-139139623D01*
X178788892Y-139094606D01*
X178845829Y-139060236D01*
X178907034Y-139034993D01*
X178970478Y-139019563D01*
X179037363Y-139013566D01*
X179045424Y-139013498D01*
X179112864Y-139018313D01*
X179174200Y-139032473D01*
X179227264Y-139054615D01*
X179273930Y-139084694D01*
X179345689Y-139165513D01*
X179376526Y-139230722D01*
X179557571Y-138960833D01*
X179530353Y-138892957D01*
X179495481Y-138832717D01*
X179454884Y-138782107D01*
X179407527Y-138738805D01*
X179294107Y-138674961D01*
X179151969Y-138640843D01*
X179064658Y-138635990D01*
X178880650Y-138655106D01*
X178706327Y-138711634D01*
X178544365Y-138804731D01*
X178398369Y-138933611D01*
X178272823Y-139096921D01*
X178172706Y-139292265D01*
X178133705Y-139400969D01*
X178102916Y-139516105D01*
X178097915Y-139539231D01*
X178078806Y-139654925D01*
X178070617Y-139764065D01*
X178072787Y-139863224D01*
X178084603Y-139955456D01*
X178104828Y-140037420D01*
X178133454Y-140112263D01*
X178168768Y-140177385D01*
X178211399Y-140235265D01*
X178259773Y-140284430D01*
X178314644Y-140326142D01*
X178442016Y-140385783D01*
X178594429Y-140412827D01*
X178638149Y-140414078D01*
G37*
G36*
X179249672Y-140375000D02*
G01*
X179528873Y-140375000D01*
X180067123Y-137786025D01*
X179642751Y-137786025D01*
X179169225Y-140063895D01*
X179249672Y-140375000D01*
G37*
G36*
X181652411Y-140414078D02*
G01*
X181836291Y-140394974D01*
X182010832Y-140338431D01*
X182173298Y-140245246D01*
X182319971Y-140116207D01*
X182446228Y-139952762D01*
X182546964Y-139757489D01*
X182586205Y-139648996D01*
X182617205Y-139534173D01*
X182622971Y-139507632D01*
X182641951Y-139392661D01*
X182650003Y-139284125D01*
X182647679Y-139185691D01*
X182635691Y-139094058D01*
X182615304Y-139012726D01*
X182586476Y-138938378D01*
X182550947Y-138873678D01*
X182508024Y-138816083D01*
X182459258Y-138767057D01*
X182403868Y-138725360D01*
X182274821Y-138665340D01*
X182119587Y-138637506D01*
X182070219Y-138635990D01*
X181981273Y-138640828D01*
X181895272Y-138655152D01*
X181732414Y-138711462D01*
X181582431Y-138804268D01*
X181447171Y-138933978D01*
X181338559Y-139086313D01*
X181435493Y-139257588D01*
X181477289Y-139196798D01*
X181524609Y-139144675D01*
X181634017Y-139065983D01*
X181759467Y-139022287D01*
X181851622Y-139013498D01*
X181919982Y-139018323D01*
X181981172Y-139032560D01*
X182032333Y-139054394D01*
X182076726Y-139084043D01*
X182143398Y-139163522D01*
X182182869Y-139272367D01*
X182191418Y-139415166D01*
X182174481Y-139539078D01*
X182150125Y-139632691D01*
X182117852Y-139717940D01*
X182079544Y-139791890D01*
X182034641Y-139857042D01*
X181985756Y-139910806D01*
X181931518Y-139955610D01*
X181874604Y-139989863D01*
X181813368Y-140015046D01*
X181749633Y-140030533D01*
X181682353Y-140036637D01*
X181673172Y-140036723D01*
X181606348Y-140031898D01*
X181545527Y-140017663D01*
X181493148Y-139995468D01*
X181447043Y-139965244D01*
X181376247Y-139883902D01*
X181335964Y-139784848D01*
X181140570Y-140013825D01*
X181160095Y-140092264D01*
X181187971Y-140162491D01*
X181221678Y-140220846D01*
X181262604Y-140271733D01*
X181309092Y-140313820D01*
X181362230Y-140348690D01*
X181489487Y-140396677D01*
X181652411Y-140414078D01*
G37*
G36*
X180838014Y-140375000D02*
G01*
X181117214Y-140375000D01*
X181327111Y-140063895D01*
X181800636Y-137786025D01*
X181376264Y-137786025D01*
X180838014Y-140375000D01*
G37*
G36*
X182762648Y-141137037D02*
G01*
X183233884Y-141137037D01*
X183658714Y-140377289D01*
X184650950Y-138675069D01*
X184216045Y-138675069D01*
X183442712Y-140137626D01*
X183551094Y-140139458D01*
X183412029Y-138675069D01*
X182928733Y-138675069D01*
X183221977Y-140377289D01*
X182762648Y-141137037D01*
G37*
G36*
X169951347Y-144575000D02*
G01*
X170387626Y-144575000D01*
X170811235Y-142537556D01*
X171577547Y-142537556D01*
X171659674Y-142142341D01*
X169696114Y-142142341D01*
X169613987Y-142537556D01*
X170374956Y-142537556D01*
X169951347Y-144575000D01*
G37*
G36*
X172084351Y-144614078D02*
G01*
X172325288Y-144594952D01*
X172454326Y-144570141D01*
X172582109Y-144535627D01*
X172697248Y-144495315D01*
X172664733Y-144186653D01*
X172553797Y-144224088D01*
X172441815Y-144251566D01*
X172333324Y-144268155D01*
X172227668Y-144273968D01*
X172225706Y-144273970D01*
X172134560Y-144269095D01*
X172053584Y-144254505D01*
X171989068Y-144232944D01*
X171933035Y-144203496D01*
X171888466Y-144168948D01*
X171851386Y-144127605D01*
X171800480Y-144026510D01*
X171778949Y-143893721D01*
X171792239Y-143719117D01*
X171800571Y-143675117D01*
X171827215Y-143570592D01*
X171861176Y-143477939D01*
X171899110Y-143402628D01*
X171942968Y-143337944D01*
X171989137Y-143287257D01*
X172040153Y-143246144D01*
X172093355Y-143215901D01*
X172150710Y-143194680D01*
X172264022Y-143179610D01*
X172328626Y-143184452D01*
X172384924Y-143198812D01*
X172429065Y-143220124D01*
X172465893Y-143249028D01*
X172515674Y-143325468D01*
X172536743Y-143432051D01*
X172522919Y-143578489D01*
X171760424Y-143578489D01*
X171703790Y-143851125D01*
X172858143Y-143851125D01*
X172929889Y-143597112D01*
X172946905Y-143491436D01*
X172952866Y-143392431D01*
X172948487Y-143304663D01*
X172934512Y-143223515D01*
X172912434Y-143152543D01*
X172881998Y-143088087D01*
X172844781Y-143032175D01*
X172800078Y-142982802D01*
X172689967Y-142905114D01*
X172549643Y-142855072D01*
X172375355Y-142836028D01*
X172366604Y-142835990D01*
X172172540Y-142855070D01*
X171988670Y-142911434D01*
X171818341Y-143003852D01*
X171665691Y-143130812D01*
X171535457Y-143290045D01*
X171480240Y-143380856D01*
X171432522Y-143478280D01*
X171392747Y-143581930D01*
X171361377Y-143691369D01*
X171352080Y-143732820D01*
X171334086Y-143843183D01*
X171327134Y-143947202D01*
X171330605Y-144040285D01*
X171343757Y-144127168D01*
X171365285Y-144204428D01*
X171395386Y-144275617D01*
X171432731Y-144338849D01*
X171477892Y-144395997D01*
X171590352Y-144490901D01*
X171734801Y-144560741D01*
X171915084Y-144603138D01*
X172084351Y-144614078D01*
G37*
G36*
X173099180Y-144575000D02*
G01*
X173535764Y-144575000D01*
X173779091Y-143404924D01*
X173799241Y-142875069D01*
X173452569Y-142875069D01*
X173099180Y-144575000D01*
G37*
G36*
X173653000Y-143604745D02*
G01*
X173707876Y-143530801D01*
X173768366Y-143465305D01*
X173833762Y-143408642D01*
X173903166Y-143361374D01*
X173974534Y-143324505D01*
X174048222Y-143297606D01*
X174121036Y-143281479D01*
X174194600Y-143275503D01*
X174199952Y-143275475D01*
X174343936Y-143293375D01*
X174403589Y-143312417D01*
X174590282Y-142903005D01*
X174462298Y-142864576D01*
X174353214Y-142855530D01*
X174200152Y-142874587D01*
X174043044Y-142933147D01*
X173889592Y-143032076D01*
X173817239Y-143096253D01*
X173749969Y-143169095D01*
X173741538Y-143179304D01*
X173653000Y-143604745D01*
G37*
G36*
X174320394Y-144575000D02*
G01*
X174756978Y-144575000D01*
X175000305Y-143404924D01*
X175020455Y-142875069D01*
X174673783Y-142875069D01*
X174320394Y-144575000D01*
G37*
G36*
X174874215Y-143604745D02*
G01*
X174929090Y-143530801D01*
X174989581Y-143465305D01*
X175054976Y-143408642D01*
X175124380Y-143361374D01*
X175195748Y-143324505D01*
X175269436Y-143297606D01*
X175342250Y-143281479D01*
X175415814Y-143275503D01*
X175421166Y-143275475D01*
X175565150Y-143293375D01*
X175624803Y-143312417D01*
X175811497Y-142903005D01*
X175683513Y-142864576D01*
X175574428Y-142855530D01*
X175421366Y-142874587D01*
X175264258Y-142933147D01*
X175110807Y-143032076D01*
X175038453Y-143096253D01*
X174971184Y-143169095D01*
X174962753Y-143179304D01*
X174874215Y-143604745D01*
G37*
G36*
X176586357Y-144575000D02*
G01*
X176898683Y-144575000D01*
X177111174Y-143553148D01*
X177128613Y-143445218D01*
X177134414Y-143345635D01*
X177129533Y-143261671D01*
X177114919Y-143184948D01*
X177092582Y-143120081D01*
X177061861Y-143061663D01*
X177024410Y-143011610D01*
X176979249Y-142967673D01*
X176865254Y-142898144D01*
X176713244Y-142852830D01*
X176512168Y-142835990D01*
X176272896Y-142854860D01*
X176016222Y-142913486D01*
X175790125Y-143000702D01*
X175828899Y-143311806D01*
X175961815Y-143267029D01*
X176089321Y-143234538D01*
X176205241Y-143215007D01*
X176315517Y-143206556D01*
X176343641Y-143206171D01*
X176436257Y-143211046D01*
X176515235Y-143225633D01*
X176572626Y-143246157D01*
X176619386Y-143273938D01*
X176652014Y-143304826D01*
X176675947Y-143341435D01*
X176697170Y-143428519D01*
X176689092Y-143517123D01*
X176536898Y-144248630D01*
X176586357Y-144575000D01*
G37*
G36*
X175998037Y-144614078D02*
G01*
X176092324Y-144609232D01*
X176183655Y-144594844D01*
X176271517Y-144571189D01*
X176355687Y-144538480D01*
X176511855Y-144446516D01*
X176649519Y-144319941D01*
X176765476Y-144159484D01*
X176831211Y-144028659D01*
X176703441Y-143963019D01*
X176621334Y-144080583D01*
X176508930Y-144175433D01*
X176443795Y-144211492D01*
X176374549Y-144238601D01*
X176303333Y-144255932D01*
X176230115Y-144263349D01*
X176214345Y-144263590D01*
X176149749Y-144258820D01*
X176094152Y-144244972D01*
X176050917Y-144224411D01*
X176016760Y-144197075D01*
X175993624Y-144166022D01*
X175979336Y-144130041D01*
X175978956Y-144046214D01*
X175993157Y-144002318D01*
X176016762Y-143963442D01*
X176089437Y-143902768D01*
X176211583Y-143855883D01*
X176413685Y-143823782D01*
X176701914Y-143812962D01*
X176753358Y-143565055D01*
X176534770Y-143569987D01*
X176339132Y-143584969D01*
X176185936Y-143606611D01*
X176049551Y-143636393D01*
X175941649Y-143670022D01*
X175846550Y-143710427D01*
X175770720Y-143753313D01*
X175705091Y-143802054D01*
X175652416Y-143853405D01*
X175608418Y-143910127D01*
X175546497Y-144037722D01*
X175528022Y-144106816D01*
X175516941Y-144183841D01*
X175516537Y-144255703D01*
X175525827Y-144319121D01*
X175544298Y-144377219D01*
X175570724Y-144428177D01*
X175605296Y-144473573D01*
X175697868Y-144546541D01*
X175824282Y-144594985D01*
X175988278Y-144614027D01*
X175998037Y-144614078D01*
G37*
G36*
X177292829Y-144575000D02*
G01*
X177729414Y-144575000D01*
X177972741Y-143404924D01*
X177992891Y-142875069D01*
X177646218Y-142875069D01*
X177292829Y-144575000D01*
G37*
G36*
X177846650Y-143604745D02*
G01*
X177901526Y-143530801D01*
X177962016Y-143465305D01*
X178027411Y-143408642D01*
X178096816Y-143361374D01*
X178168184Y-143324505D01*
X178241872Y-143297606D01*
X178314685Y-143281479D01*
X178388250Y-143275503D01*
X178393601Y-143275475D01*
X178537586Y-143293375D01*
X178597239Y-143312417D01*
X178783932Y-142903005D01*
X178655948Y-142864576D01*
X178546864Y-142855530D01*
X178393802Y-142874587D01*
X178236693Y-142933147D01*
X178083242Y-143032076D01*
X178010889Y-143096253D01*
X177943619Y-143169095D01*
X177935188Y-143179304D01*
X177846650Y-143604745D01*
G37*
G36*
X178514044Y-144575000D02*
G01*
X178950628Y-144575000D01*
X179304017Y-142875069D01*
X178867433Y-142875069D01*
X178514044Y-144575000D01*
G37*
G36*
X179153349Y-142562438D02*
G01*
X179211979Y-142557643D01*
X179266700Y-142543612D01*
X179362120Y-142489786D01*
X179434551Y-142404603D01*
X179460410Y-142351302D01*
X179478262Y-142291787D01*
X179479108Y-142287818D01*
X179486829Y-142227146D01*
X179483807Y-142172843D01*
X179471728Y-142128491D01*
X179451082Y-142090579D01*
X179423654Y-142060755D01*
X179389035Y-142037615D01*
X179297695Y-142012780D01*
X179267838Y-142011518D01*
X179209208Y-142016317D01*
X179154483Y-142030370D01*
X179059179Y-142084250D01*
X178986764Y-142169612D01*
X178960808Y-142223157D01*
X178942797Y-142283035D01*
X178941774Y-142287818D01*
X178934154Y-142347926D01*
X178937250Y-142401807D01*
X178949400Y-142445932D01*
X178970122Y-142483686D01*
X178997661Y-142513437D01*
X179032415Y-142536522D01*
X179124090Y-142561229D01*
X179153349Y-142562438D01*
G37*
G36*
X180379448Y-144575000D02*
G01*
X180691774Y-144575000D01*
X180904265Y-143553148D01*
X180921705Y-143445218D01*
X180927505Y-143345635D01*
X180922624Y-143261671D01*
X180908010Y-143184948D01*
X180885673Y-143120081D01*
X180854952Y-143061663D01*
X180817502Y-143011610D01*
X180772341Y-142967673D01*
X180658345Y-142898144D01*
X180506335Y-142852830D01*
X180305260Y-142835990D01*
X180065988Y-142854860D01*
X179809314Y-142913486D01*
X179583217Y-143000702D01*
X179621990Y-143311806D01*
X179754907Y-143267029D01*
X179882413Y-143234538D01*
X179998332Y-143215007D01*
X180108608Y-143206556D01*
X180136732Y-143206171D01*
X180229349Y-143211046D01*
X180308326Y-143225633D01*
X180365717Y-143246157D01*
X180412477Y-143273938D01*
X180445106Y-143304826D01*
X180469039Y-143341435D01*
X180490262Y-143428519D01*
X180482183Y-143517123D01*
X180329989Y-144248630D01*
X180379448Y-144575000D01*
G37*
G36*
X179791129Y-144614078D02*
G01*
X179885416Y-144609232D01*
X179976747Y-144594844D01*
X180064609Y-144571189D01*
X180148779Y-144538480D01*
X180304947Y-144446516D01*
X180442611Y-144319941D01*
X180558567Y-144159484D01*
X180624302Y-144028659D01*
X180496532Y-143963019D01*
X180414425Y-144080583D01*
X180302022Y-144175433D01*
X180236886Y-144211492D01*
X180167641Y-144238601D01*
X180096425Y-144255932D01*
X180023206Y-144263349D01*
X180007436Y-144263590D01*
X179942840Y-144258820D01*
X179887244Y-144244972D01*
X179844008Y-144224411D01*
X179809851Y-144197075D01*
X179786715Y-144166022D01*
X179772428Y-144130041D01*
X179772047Y-144046214D01*
X179786248Y-144002318D01*
X179809853Y-143963442D01*
X179882528Y-143902768D01*
X180004675Y-143855883D01*
X180206776Y-143823782D01*
X180495006Y-143812962D01*
X180546450Y-143565055D01*
X180327861Y-143569987D01*
X180132224Y-143584969D01*
X179979028Y-143606611D01*
X179842642Y-143636393D01*
X179734741Y-143670022D01*
X179639641Y-143710427D01*
X179563811Y-143753313D01*
X179498183Y-143802054D01*
X179445507Y-143853405D01*
X179401510Y-143910127D01*
X179339588Y-144037722D01*
X179321114Y-144106816D01*
X179310032Y-144183841D01*
X179309628Y-144255703D01*
X179318918Y-144319121D01*
X179337390Y-144377219D01*
X179363816Y-144428177D01*
X179398387Y-144473573D01*
X179490959Y-144546541D01*
X179617374Y-144594985D01*
X179781369Y-144614027D01*
X179791129Y-144614078D01*
G37*
D11*
X149703884Y-132348609D02*
X150037217Y-132348609D01*
X150180074Y-132872419D02*
X149703884Y-132872419D01*
X149703884Y-132872419D02*
X149703884Y-131872419D01*
X149703884Y-131872419D02*
X150180074Y-131872419D01*
X150608646Y-132872419D02*
X150608646Y-131872419D01*
X150608646Y-131872419D02*
X151180074Y-132872419D01*
X151180074Y-132872419D02*
X151180074Y-131872419D01*
D12*
X128947309Y-138746335D02*
X128994928Y-138603478D01*
X128994928Y-138603478D02*
X129042547Y-138555859D01*
X129042547Y-138555859D02*
X129137785Y-138508240D01*
X129137785Y-138508240D02*
X129280642Y-138508240D01*
X129280642Y-138508240D02*
X129375880Y-138555859D01*
X129375880Y-138555859D02*
X129423500Y-138603478D01*
X129423500Y-138603478D02*
X129471119Y-138698716D01*
X129471119Y-138698716D02*
X129471119Y-139079668D01*
X129471119Y-139079668D02*
X128471119Y-139079668D01*
X128471119Y-139079668D02*
X128471119Y-138746335D01*
X128471119Y-138746335D02*
X128518738Y-138651097D01*
X128518738Y-138651097D02*
X128566357Y-138603478D01*
X128566357Y-138603478D02*
X128661595Y-138555859D01*
X128661595Y-138555859D02*
X128756833Y-138555859D01*
X128756833Y-138555859D02*
X128852071Y-138603478D01*
X128852071Y-138603478D02*
X128899690Y-138651097D01*
X128899690Y-138651097D02*
X128947309Y-138746335D01*
X128947309Y-138746335D02*
X128947309Y-139079668D01*
X129185404Y-138127287D02*
X129185404Y-137651097D01*
X129471119Y-138222525D02*
X128471119Y-137889192D01*
X128471119Y-137889192D02*
X129471119Y-137555859D01*
X128471119Y-137365382D02*
X128471119Y-136793954D01*
X129471119Y-137079668D02*
X128471119Y-137079668D01*
X129090166Y-136460620D02*
X129090166Y-135698716D01*
X129471119Y-136079668D02*
X128709214Y-136079668D01*
X128947309Y-143746335D02*
X128994928Y-143603478D01*
X128994928Y-143603478D02*
X129042547Y-143555859D01*
X129042547Y-143555859D02*
X129137785Y-143508240D01*
X129137785Y-143508240D02*
X129280642Y-143508240D01*
X129280642Y-143508240D02*
X129375880Y-143555859D01*
X129375880Y-143555859D02*
X129423500Y-143603478D01*
X129423500Y-143603478D02*
X129471119Y-143698716D01*
X129471119Y-143698716D02*
X129471119Y-144079668D01*
X129471119Y-144079668D02*
X128471119Y-144079668D01*
X128471119Y-144079668D02*
X128471119Y-143746335D01*
X128471119Y-143746335D02*
X128518738Y-143651097D01*
X128518738Y-143651097D02*
X128566357Y-143603478D01*
X128566357Y-143603478D02*
X128661595Y-143555859D01*
X128661595Y-143555859D02*
X128756833Y-143555859D01*
X128756833Y-143555859D02*
X128852071Y-143603478D01*
X128852071Y-143603478D02*
X128899690Y-143651097D01*
X128899690Y-143651097D02*
X128947309Y-143746335D01*
X128947309Y-143746335D02*
X128947309Y-144079668D01*
X129185404Y-143127287D02*
X129185404Y-142651097D01*
X129471119Y-143222525D02*
X128471119Y-142889192D01*
X128471119Y-142889192D02*
X129471119Y-142555859D01*
X128471119Y-142365382D02*
X128471119Y-141793954D01*
X129471119Y-142079668D02*
X128471119Y-142079668D01*
X129090166Y-141460620D02*
X129090166Y-140698716D01*
D11*
X144837217Y-132348609D02*
X144980074Y-132396228D01*
X144980074Y-132396228D02*
X145027693Y-132443847D01*
X145027693Y-132443847D02*
X145075312Y-132539085D01*
X145075312Y-132539085D02*
X145075312Y-132681942D01*
X145075312Y-132681942D02*
X145027693Y-132777180D01*
X145027693Y-132777180D02*
X144980074Y-132824800D01*
X144980074Y-132824800D02*
X144884836Y-132872419D01*
X144884836Y-132872419D02*
X144503884Y-132872419D01*
X144503884Y-132872419D02*
X144503884Y-131872419D01*
X144503884Y-131872419D02*
X144837217Y-131872419D01*
X144837217Y-131872419D02*
X144932455Y-131920038D01*
X144932455Y-131920038D02*
X144980074Y-131967657D01*
X144980074Y-131967657D02*
X145027693Y-132062895D01*
X145027693Y-132062895D02*
X145027693Y-132158133D01*
X145027693Y-132158133D02*
X144980074Y-132253371D01*
X144980074Y-132253371D02*
X144932455Y-132300990D01*
X144932455Y-132300990D02*
X144837217Y-132348609D01*
X144837217Y-132348609D02*
X144503884Y-132348609D01*
X145646741Y-132872419D02*
X145551503Y-132824800D01*
X145551503Y-132824800D02*
X145503884Y-132777180D01*
X145503884Y-132777180D02*
X145456265Y-132681942D01*
X145456265Y-132681942D02*
X145456265Y-132396228D01*
X145456265Y-132396228D02*
X145503884Y-132300990D01*
X145503884Y-132300990D02*
X145551503Y-132253371D01*
X145551503Y-132253371D02*
X145646741Y-132205752D01*
X145646741Y-132205752D02*
X145789598Y-132205752D01*
X145789598Y-132205752D02*
X145884836Y-132253371D01*
X145884836Y-132253371D02*
X145932455Y-132300990D01*
X145932455Y-132300990D02*
X145980074Y-132396228D01*
X145980074Y-132396228D02*
X145980074Y-132681942D01*
X145980074Y-132681942D02*
X145932455Y-132777180D01*
X145932455Y-132777180D02*
X145884836Y-132824800D01*
X145884836Y-132824800D02*
X145789598Y-132872419D01*
X145789598Y-132872419D02*
X145646741Y-132872419D01*
X146551503Y-132872419D02*
X146456265Y-132824800D01*
X146456265Y-132824800D02*
X146408646Y-132777180D01*
X146408646Y-132777180D02*
X146361027Y-132681942D01*
X146361027Y-132681942D02*
X146361027Y-132396228D01*
X146361027Y-132396228D02*
X146408646Y-132300990D01*
X146408646Y-132300990D02*
X146456265Y-132253371D01*
X146456265Y-132253371D02*
X146551503Y-132205752D01*
X146551503Y-132205752D02*
X146694360Y-132205752D01*
X146694360Y-132205752D02*
X146789598Y-132253371D01*
X146789598Y-132253371D02*
X146837217Y-132300990D01*
X146837217Y-132300990D02*
X146884836Y-132396228D01*
X146884836Y-132396228D02*
X146884836Y-132681942D01*
X146884836Y-132681942D02*
X146837217Y-132777180D01*
X146837217Y-132777180D02*
X146789598Y-132824800D01*
X146789598Y-132824800D02*
X146694360Y-132872419D01*
X146694360Y-132872419D02*
X146551503Y-132872419D01*
X147170551Y-132205752D02*
X147551503Y-132205752D01*
X147313408Y-131872419D02*
X147313408Y-132729561D01*
X147313408Y-132729561D02*
X147361027Y-132824800D01*
X147361027Y-132824800D02*
X147456265Y-132872419D01*
X147456265Y-132872419D02*
X147551503Y-132872419D01*
D13*
X138709580Y-140466666D02*
X138757200Y-140514285D01*
X138757200Y-140514285D02*
X138804819Y-140657142D01*
X138804819Y-140657142D02*
X138804819Y-140752380D01*
X138804819Y-140752380D02*
X138757200Y-140895237D01*
X138757200Y-140895237D02*
X138661961Y-140990475D01*
X138661961Y-140990475D02*
X138566723Y-141038094D01*
X138566723Y-141038094D02*
X138376247Y-141085713D01*
X138376247Y-141085713D02*
X138233390Y-141085713D01*
X138233390Y-141085713D02*
X138042914Y-141038094D01*
X138042914Y-141038094D02*
X137947676Y-140990475D01*
X137947676Y-140990475D02*
X137852438Y-140895237D01*
X137852438Y-140895237D02*
X137804819Y-140752380D01*
X137804819Y-140752380D02*
X137804819Y-140657142D01*
X137804819Y-140657142D02*
X137852438Y-140514285D01*
X137852438Y-140514285D02*
X137900057Y-140466666D01*
X137900057Y-140085713D02*
X137852438Y-140038094D01*
X137852438Y-140038094D02*
X137804819Y-139942856D01*
X137804819Y-139942856D02*
X137804819Y-139704761D01*
X137804819Y-139704761D02*
X137852438Y-139609523D01*
X137852438Y-139609523D02*
X137900057Y-139561904D01*
X137900057Y-139561904D02*
X137995295Y-139514285D01*
X137995295Y-139514285D02*
X138090533Y-139514285D01*
X138090533Y-139514285D02*
X138233390Y-139561904D01*
X138233390Y-139561904D02*
X138804819Y-140133332D01*
X138804819Y-140133332D02*
X138804819Y-139514285D01*
X145833333Y-122859580D02*
X145785714Y-122907200D01*
X145785714Y-122907200D02*
X145642857Y-122954819D01*
X145642857Y-122954819D02*
X145547619Y-122954819D01*
X145547619Y-122954819D02*
X145404762Y-122907200D01*
X145404762Y-122907200D02*
X145309524Y-122811961D01*
X145309524Y-122811961D02*
X145261905Y-122716723D01*
X145261905Y-122716723D02*
X145214286Y-122526247D01*
X145214286Y-122526247D02*
X145214286Y-122383390D01*
X145214286Y-122383390D02*
X145261905Y-122192914D01*
X145261905Y-122192914D02*
X145309524Y-122097676D01*
X145309524Y-122097676D02*
X145404762Y-122002438D01*
X145404762Y-122002438D02*
X145547619Y-121954819D01*
X145547619Y-121954819D02*
X145642857Y-121954819D01*
X145642857Y-121954819D02*
X145785714Y-122002438D01*
X145785714Y-122002438D02*
X145833333Y-122050057D01*
X146166667Y-121954819D02*
X146785714Y-121954819D01*
X146785714Y-121954819D02*
X146452381Y-122335771D01*
X146452381Y-122335771D02*
X146595238Y-122335771D01*
X146595238Y-122335771D02*
X146690476Y-122383390D01*
X146690476Y-122383390D02*
X146738095Y-122431009D01*
X146738095Y-122431009D02*
X146785714Y-122526247D01*
X146785714Y-122526247D02*
X146785714Y-122764342D01*
X146785714Y-122764342D02*
X146738095Y-122859580D01*
X146738095Y-122859580D02*
X146690476Y-122907200D01*
X146690476Y-122907200D02*
X146595238Y-122954819D01*
X146595238Y-122954819D02*
X146309524Y-122954819D01*
X146309524Y-122954819D02*
X146214286Y-122907200D01*
X146214286Y-122907200D02*
X146166667Y-122859580D01*
X150333333Y-122959580D02*
X150285714Y-123007200D01*
X150285714Y-123007200D02*
X150142857Y-123054819D01*
X150142857Y-123054819D02*
X150047619Y-123054819D01*
X150047619Y-123054819D02*
X149904762Y-123007200D01*
X149904762Y-123007200D02*
X149809524Y-122911961D01*
X149809524Y-122911961D02*
X149761905Y-122816723D01*
X149761905Y-122816723D02*
X149714286Y-122626247D01*
X149714286Y-122626247D02*
X149714286Y-122483390D01*
X149714286Y-122483390D02*
X149761905Y-122292914D01*
X149761905Y-122292914D02*
X149809524Y-122197676D01*
X149809524Y-122197676D02*
X149904762Y-122102438D01*
X149904762Y-122102438D02*
X150047619Y-122054819D01*
X150047619Y-122054819D02*
X150142857Y-122054819D01*
X150142857Y-122054819D02*
X150285714Y-122102438D01*
X150285714Y-122102438D02*
X150333333Y-122150057D01*
X151190476Y-122388152D02*
X151190476Y-123054819D01*
X150952381Y-122007200D02*
X150714286Y-122721485D01*
X150714286Y-122721485D02*
X151333333Y-122721485D01*
D11*
X130466667Y-108284895D02*
X130200000Y-107903942D01*
X130009524Y-108284895D02*
X130009524Y-107484895D01*
X130009524Y-107484895D02*
X130314286Y-107484895D01*
X130314286Y-107484895D02*
X130390476Y-107522990D01*
X130390476Y-107522990D02*
X130428571Y-107561085D01*
X130428571Y-107561085D02*
X130466667Y-107637276D01*
X130466667Y-107637276D02*
X130466667Y-107751561D01*
X130466667Y-107751561D02*
X130428571Y-107827752D01*
X130428571Y-107827752D02*
X130390476Y-107865847D01*
X130390476Y-107865847D02*
X130314286Y-107903942D01*
X130314286Y-107903942D02*
X130009524Y-107903942D01*
X130771428Y-107561085D02*
X130809524Y-107522990D01*
X130809524Y-107522990D02*
X130885714Y-107484895D01*
X130885714Y-107484895D02*
X131076190Y-107484895D01*
X131076190Y-107484895D02*
X131152381Y-107522990D01*
X131152381Y-107522990D02*
X131190476Y-107561085D01*
X131190476Y-107561085D02*
X131228571Y-107637276D01*
X131228571Y-107637276D02*
X131228571Y-107713466D01*
X131228571Y-107713466D02*
X131190476Y-107827752D01*
X131190476Y-107827752D02*
X130733333Y-108284895D01*
X130733333Y-108284895D02*
X131228571Y-108284895D01*
D13*
X156761905Y-124954819D02*
X156761905Y-123954819D01*
X156761905Y-123954819D02*
X157000000Y-123954819D01*
X157000000Y-123954819D02*
X157142857Y-124002438D01*
X157142857Y-124002438D02*
X157238095Y-124097676D01*
X157238095Y-124097676D02*
X157285714Y-124192914D01*
X157285714Y-124192914D02*
X157333333Y-124383390D01*
X157333333Y-124383390D02*
X157333333Y-124526247D01*
X157333333Y-124526247D02*
X157285714Y-124716723D01*
X157285714Y-124716723D02*
X157238095Y-124811961D01*
X157238095Y-124811961D02*
X157142857Y-124907200D01*
X157142857Y-124907200D02*
X157000000Y-124954819D01*
X157000000Y-124954819D02*
X156761905Y-124954819D01*
X158285714Y-124954819D02*
X157714286Y-124954819D01*
X158000000Y-124954819D02*
X158000000Y-123954819D01*
X158000000Y-123954819D02*
X157904762Y-124097676D01*
X157904762Y-124097676D02*
X157809524Y-124192914D01*
X157809524Y-124192914D02*
X157714286Y-124240533D01*
X153728571Y-126762295D02*
X153271428Y-126762295D01*
X153500000Y-126762295D02*
X153500000Y-125962295D01*
X153500000Y-125962295D02*
X153423809Y-126076580D01*
X153423809Y-126076580D02*
X153347619Y-126152771D01*
X153347619Y-126152771D02*
X153271428Y-126190866D01*
X144454819Y-111166666D02*
X143978628Y-111499999D01*
X144454819Y-111738094D02*
X143454819Y-111738094D01*
X143454819Y-111738094D02*
X143454819Y-111357142D01*
X143454819Y-111357142D02*
X143502438Y-111261904D01*
X143502438Y-111261904D02*
X143550057Y-111214285D01*
X143550057Y-111214285D02*
X143645295Y-111166666D01*
X143645295Y-111166666D02*
X143788152Y-111166666D01*
X143788152Y-111166666D02*
X143883390Y-111214285D01*
X143883390Y-111214285D02*
X143931009Y-111261904D01*
X143931009Y-111261904D02*
X143978628Y-111357142D01*
X143978628Y-111357142D02*
X143978628Y-111738094D01*
X143454819Y-110833332D02*
X143454819Y-110214285D01*
X143454819Y-110214285D02*
X143835771Y-110547618D01*
X143835771Y-110547618D02*
X143835771Y-110404761D01*
X143835771Y-110404761D02*
X143883390Y-110309523D01*
X143883390Y-110309523D02*
X143931009Y-110261904D01*
X143931009Y-110261904D02*
X144026247Y-110214285D01*
X144026247Y-110214285D02*
X144264342Y-110214285D01*
X144264342Y-110214285D02*
X144359580Y-110261904D01*
X144359580Y-110261904D02*
X144407200Y-110309523D01*
X144407200Y-110309523D02*
X144454819Y-110404761D01*
X144454819Y-110404761D02*
X144454819Y-110690475D01*
X144454819Y-110690475D02*
X144407200Y-110785713D01*
X144407200Y-110785713D02*
X144359580Y-110833332D01*
X131559580Y-137141666D02*
X131607200Y-137189285D01*
X131607200Y-137189285D02*
X131654819Y-137332142D01*
X131654819Y-137332142D02*
X131654819Y-137427380D01*
X131654819Y-137427380D02*
X131607200Y-137570237D01*
X131607200Y-137570237D02*
X131511961Y-137665475D01*
X131511961Y-137665475D02*
X131416723Y-137713094D01*
X131416723Y-137713094D02*
X131226247Y-137760713D01*
X131226247Y-137760713D02*
X131083390Y-137760713D01*
X131083390Y-137760713D02*
X130892914Y-137713094D01*
X130892914Y-137713094D02*
X130797676Y-137665475D01*
X130797676Y-137665475D02*
X130702438Y-137570237D01*
X130702438Y-137570237D02*
X130654819Y-137427380D01*
X130654819Y-137427380D02*
X130654819Y-137332142D01*
X130654819Y-137332142D02*
X130702438Y-137189285D01*
X130702438Y-137189285D02*
X130750057Y-137141666D01*
X131654819Y-136189285D02*
X131654819Y-136760713D01*
X131654819Y-136474999D02*
X130654819Y-136474999D01*
X130654819Y-136474999D02*
X130797676Y-136570237D01*
X130797676Y-136570237D02*
X130892914Y-136665475D01*
X130892914Y-136665475D02*
X130940533Y-136760713D01*
X146407200Y-129333332D02*
X146454819Y-129190475D01*
X146454819Y-129190475D02*
X146454819Y-128952380D01*
X146454819Y-128952380D02*
X146407200Y-128857142D01*
X146407200Y-128857142D02*
X146359580Y-128809523D01*
X146359580Y-128809523D02*
X146264342Y-128761904D01*
X146264342Y-128761904D02*
X146169104Y-128761904D01*
X146169104Y-128761904D02*
X146073866Y-128809523D01*
X146073866Y-128809523D02*
X146026247Y-128857142D01*
X146026247Y-128857142D02*
X145978628Y-128952380D01*
X145978628Y-128952380D02*
X145931009Y-129142856D01*
X145931009Y-129142856D02*
X145883390Y-129238094D01*
X145883390Y-129238094D02*
X145835771Y-129285713D01*
X145835771Y-129285713D02*
X145740533Y-129333332D01*
X145740533Y-129333332D02*
X145645295Y-129333332D01*
X145645295Y-129333332D02*
X145550057Y-129285713D01*
X145550057Y-129285713D02*
X145502438Y-129238094D01*
X145502438Y-129238094D02*
X145454819Y-129142856D01*
X145454819Y-129142856D02*
X145454819Y-128904761D01*
X145454819Y-128904761D02*
X145502438Y-128761904D01*
X145454819Y-128428570D02*
X146454819Y-128190475D01*
X146454819Y-128190475D02*
X145740533Y-127999999D01*
X145740533Y-127999999D02*
X146454819Y-127809523D01*
X146454819Y-127809523D02*
X145454819Y-127571428D01*
X146454819Y-126666666D02*
X146454819Y-127238094D01*
X146454819Y-126952380D02*
X145454819Y-126952380D01*
X145454819Y-126952380D02*
X145597676Y-127047618D01*
X145597676Y-127047618D02*
X145692914Y-127142856D01*
X145692914Y-127142856D02*
X145740533Y-127238094D01*
D11*
X125233333Y-139564895D02*
X125233333Y-140136323D01*
X125233333Y-140136323D02*
X125195238Y-140250609D01*
X125195238Y-140250609D02*
X125119047Y-140326800D01*
X125119047Y-140326800D02*
X125004762Y-140364895D01*
X125004762Y-140364895D02*
X124928571Y-140364895D01*
X125576190Y-139641085D02*
X125614286Y-139602990D01*
X125614286Y-139602990D02*
X125690476Y-139564895D01*
X125690476Y-139564895D02*
X125880952Y-139564895D01*
X125880952Y-139564895D02*
X125957143Y-139602990D01*
X125957143Y-139602990D02*
X125995238Y-139641085D01*
X125995238Y-139641085D02*
X126033333Y-139717276D01*
X126033333Y-139717276D02*
X126033333Y-139793466D01*
X126033333Y-139793466D02*
X125995238Y-139907752D01*
X125995238Y-139907752D02*
X125538095Y-140364895D01*
X125538095Y-140364895D02*
X126033333Y-140364895D01*
X133719048Y-141064895D02*
X133719048Y-140264895D01*
X134557143Y-140988704D02*
X134519047Y-141026800D01*
X134519047Y-141026800D02*
X134404762Y-141064895D01*
X134404762Y-141064895D02*
X134328571Y-141064895D01*
X134328571Y-141064895D02*
X134214285Y-141026800D01*
X134214285Y-141026800D02*
X134138095Y-140950609D01*
X134138095Y-140950609D02*
X134100000Y-140874419D01*
X134100000Y-140874419D02*
X134061904Y-140722038D01*
X134061904Y-140722038D02*
X134061904Y-140607752D01*
X134061904Y-140607752D02*
X134100000Y-140455371D01*
X134100000Y-140455371D02*
X134138095Y-140379180D01*
X134138095Y-140379180D02*
X134214285Y-140302990D01*
X134214285Y-140302990D02*
X134328571Y-140264895D01*
X134328571Y-140264895D02*
X134404762Y-140264895D01*
X134404762Y-140264895D02*
X134519047Y-140302990D01*
X134519047Y-140302990D02*
X134557143Y-140341085D01*
X135319047Y-141064895D02*
X134861904Y-141064895D01*
X135090476Y-141064895D02*
X135090476Y-140264895D01*
X135090476Y-140264895D02*
X135014285Y-140379180D01*
X135014285Y-140379180D02*
X134938095Y-140455371D01*
X134938095Y-140455371D02*
X134861904Y-140493466D01*
D13*
X140833333Y-107429580D02*
X140785714Y-107477200D01*
X140785714Y-107477200D02*
X140642857Y-107524819D01*
X140642857Y-107524819D02*
X140547619Y-107524819D01*
X140547619Y-107524819D02*
X140404762Y-107477200D01*
X140404762Y-107477200D02*
X140309524Y-107381961D01*
X140309524Y-107381961D02*
X140261905Y-107286723D01*
X140261905Y-107286723D02*
X140214286Y-107096247D01*
X140214286Y-107096247D02*
X140214286Y-106953390D01*
X140214286Y-106953390D02*
X140261905Y-106762914D01*
X140261905Y-106762914D02*
X140309524Y-106667676D01*
X140309524Y-106667676D02*
X140404762Y-106572438D01*
X140404762Y-106572438D02*
X140547619Y-106524819D01*
X140547619Y-106524819D02*
X140642857Y-106524819D01*
X140642857Y-106524819D02*
X140785714Y-106572438D01*
X140785714Y-106572438D02*
X140833333Y-106620057D01*
X141738095Y-106524819D02*
X141261905Y-106524819D01*
X141261905Y-106524819D02*
X141214286Y-107001009D01*
X141214286Y-107001009D02*
X141261905Y-106953390D01*
X141261905Y-106953390D02*
X141357143Y-106905771D01*
X141357143Y-106905771D02*
X141595238Y-106905771D01*
X141595238Y-106905771D02*
X141690476Y-106953390D01*
X141690476Y-106953390D02*
X141738095Y-107001009D01*
X141738095Y-107001009D02*
X141785714Y-107096247D01*
X141785714Y-107096247D02*
X141785714Y-107334342D01*
X141785714Y-107334342D02*
X141738095Y-107429580D01*
X141738095Y-107429580D02*
X141690476Y-107477200D01*
X141690476Y-107477200D02*
X141595238Y-107524819D01*
X141595238Y-107524819D02*
X141357143Y-107524819D01*
X141357143Y-107524819D02*
X141261905Y-107477200D01*
X141261905Y-107477200D02*
X141214286Y-107429580D01*
X150907200Y-129333332D02*
X150954819Y-129190475D01*
X150954819Y-129190475D02*
X150954819Y-128952380D01*
X150954819Y-128952380D02*
X150907200Y-128857142D01*
X150907200Y-128857142D02*
X150859580Y-128809523D01*
X150859580Y-128809523D02*
X150764342Y-128761904D01*
X150764342Y-128761904D02*
X150669104Y-128761904D01*
X150669104Y-128761904D02*
X150573866Y-128809523D01*
X150573866Y-128809523D02*
X150526247Y-128857142D01*
X150526247Y-128857142D02*
X150478628Y-128952380D01*
X150478628Y-128952380D02*
X150431009Y-129142856D01*
X150431009Y-129142856D02*
X150383390Y-129238094D01*
X150383390Y-129238094D02*
X150335771Y-129285713D01*
X150335771Y-129285713D02*
X150240533Y-129333332D01*
X150240533Y-129333332D02*
X150145295Y-129333332D01*
X150145295Y-129333332D02*
X150050057Y-129285713D01*
X150050057Y-129285713D02*
X150002438Y-129238094D01*
X150002438Y-129238094D02*
X149954819Y-129142856D01*
X149954819Y-129142856D02*
X149954819Y-128904761D01*
X149954819Y-128904761D02*
X150002438Y-128761904D01*
X149954819Y-128428570D02*
X150954819Y-128190475D01*
X150954819Y-128190475D02*
X150240533Y-127999999D01*
X150240533Y-127999999D02*
X150954819Y-127809523D01*
X150954819Y-127809523D02*
X149954819Y-127571428D01*
X150050057Y-127238094D02*
X150002438Y-127190475D01*
X150002438Y-127190475D02*
X149954819Y-127095237D01*
X149954819Y-127095237D02*
X149954819Y-126857142D01*
X149954819Y-126857142D02*
X150002438Y-126761904D01*
X150002438Y-126761904D02*
X150050057Y-126714285D01*
X150050057Y-126714285D02*
X150145295Y-126666666D01*
X150145295Y-126666666D02*
X150240533Y-126666666D01*
X150240533Y-126666666D02*
X150383390Y-126714285D01*
X150383390Y-126714285D02*
X150954819Y-127285713D01*
X150954819Y-127285713D02*
X150954819Y-126666666D01*
D11*
X130466667Y-105284895D02*
X130200000Y-104903942D01*
X130009524Y-105284895D02*
X130009524Y-104484895D01*
X130009524Y-104484895D02*
X130314286Y-104484895D01*
X130314286Y-104484895D02*
X130390476Y-104522990D01*
X130390476Y-104522990D02*
X130428571Y-104561085D01*
X130428571Y-104561085D02*
X130466667Y-104637276D01*
X130466667Y-104637276D02*
X130466667Y-104751561D01*
X130466667Y-104751561D02*
X130428571Y-104827752D01*
X130428571Y-104827752D02*
X130390476Y-104865847D01*
X130390476Y-104865847D02*
X130314286Y-104903942D01*
X130314286Y-104903942D02*
X130009524Y-104903942D01*
X131228571Y-105284895D02*
X130771428Y-105284895D01*
X131000000Y-105284895D02*
X131000000Y-104484895D01*
X131000000Y-104484895D02*
X130923809Y-104599180D01*
X130923809Y-104599180D02*
X130847619Y-104675371D01*
X130847619Y-104675371D02*
X130771428Y-104713466D01*
D14*
%TO.C,C2*%
X137830000Y-137975580D02*
X137830000Y-137694420D01*
X138850000Y-137975580D02*
X138850000Y-137694420D01*
D11*
%TO.C,IC2*%
X169400000Y-116250000D02*
X169400000Y-133750000D01*
X169400000Y-133750000D02*
X186900000Y-133750000D01*
X174650000Y-116250000D02*
X169400000Y-116250000D01*
D15*
X180150000Y-114600000D02*
X180150000Y-114600000D01*
X180150000Y-114700000D02*
X180150000Y-114700000D01*
X180150000Y-114700000D02*
X180150000Y-114700000D01*
D11*
X186900000Y-116250000D02*
X181400000Y-116250000D01*
X186900000Y-121900000D02*
X186900000Y-116250000D01*
X186900000Y-133750000D02*
X186900000Y-128150000D01*
D15*
X180150000Y-114600000D02*
G75*
G02*
X180150000Y-114700000I0J-50000D01*
G01*
X180150000Y-114600000D02*
G75*
G02*
X180150000Y-114700000I0J-50000D01*
G01*
X180150000Y-114700000D02*
G75*
G02*
X180150000Y-114600000I0J50000D01*
G01*
D14*
%TO.C,C3*%
X146140580Y-123490000D02*
X145859420Y-123490000D01*
X146140580Y-124510000D02*
X145859420Y-124510000D01*
%TO.C,C4*%
X150640580Y-123490000D02*
X150359420Y-123490000D01*
X150640580Y-124510000D02*
X150359420Y-124510000D01*
%TO.C,R2*%
X130362742Y-108827500D02*
X130837258Y-108827500D01*
X130362742Y-109872500D02*
X130837258Y-109872500D01*
%TO.C,D1*%
X154000000Y-125250000D02*
X154000000Y-130750000D01*
X154000000Y-125250000D02*
X161000000Y-125250000D01*
X154000000Y-130750000D02*
X160550000Y-130750000D01*
X154800000Y-128900000D02*
X154800000Y-127100000D01*
X160200000Y-128900000D02*
X160200000Y-127100000D01*
X160550000Y-130750000D02*
X161000000Y-130300000D01*
X161000000Y-130300000D02*
X161000000Y-125250000D01*
D11*
%TO.C,IC3*%
X123150000Y-116250000D02*
X123150000Y-133750000D01*
X123150000Y-133750000D02*
X140650000Y-133750000D01*
X128400000Y-116250000D02*
X123150000Y-116250000D01*
D15*
X133900000Y-114600000D02*
X133900000Y-114600000D01*
X133900000Y-114700000D02*
X133900000Y-114700000D01*
X133900000Y-114700000D02*
X133900000Y-114700000D01*
D11*
X140650000Y-116250000D02*
X135150000Y-116250000D01*
X140650000Y-121900000D02*
X140650000Y-116250000D01*
X140650000Y-133750000D02*
X140650000Y-128150000D01*
D15*
X133900000Y-114600000D02*
G75*
G02*
X133900000Y-114700000I0J-50000D01*
G01*
X133900000Y-114600000D02*
G75*
G02*
X133900000Y-114700000I0J-50000D01*
G01*
X133900000Y-114700000D02*
G75*
G02*
X133900000Y-114600000I0J50000D01*
G01*
D14*
%TO.C,R3*%
X143302500Y-107962742D02*
X143302500Y-108437258D01*
X144347500Y-107962742D02*
X144347500Y-108437258D01*
%TO.C,C1*%
X130740000Y-139640580D02*
X130740000Y-139359420D01*
X131760000Y-139640580D02*
X131760000Y-139359420D01*
D16*
%TO.C,SW1*%
X144400000Y-129230000D02*
X144400000Y-126770000D01*
X147600000Y-129230000D02*
X147600000Y-126770000D01*
D15*
X144970000Y-131218000D02*
G75*
G02*
X144770000Y-131218000I-100000J0D01*
G01*
X144770000Y-131218000D02*
G75*
G02*
X144970000Y-131218000I100000J0D01*
G01*
D14*
%TO.C,U1*%
X145690000Y-100090000D02*
X145690000Y-105900000D01*
X145690000Y-100090000D02*
X163910000Y-100090000D01*
X145690000Y-120010000D02*
X145690000Y-120310000D01*
X145690000Y-120310000D02*
X163910000Y-120310000D01*
X163910000Y-100090000D02*
X163910000Y-106590000D01*
X163910000Y-120010000D02*
X163910000Y-120310000D01*
X145700000Y-106600000D02*
X145200000Y-106600000D01*
X145700000Y-106100000D01*
X145700000Y-106600000D01*
G36*
X145700000Y-106600000D02*
G01*
X145200000Y-106600000D01*
X145700000Y-106100000D01*
X145700000Y-106600000D01*
G37*
D15*
%TO.C,IC1*%
X132625000Y-136486000D02*
X133875000Y-136486000D01*
X134225000Y-136552000D02*
X134775000Y-136552000D01*
X134225000Y-139448000D02*
X134225000Y-136552000D01*
X134775000Y-136552000D02*
X134775000Y-139448000D01*
X134775000Y-139448000D02*
X134225000Y-139448000D01*
D14*
%TO.C,C5*%
X140859420Y-107990000D02*
X141140580Y-107990000D01*
X140859420Y-109010000D02*
X141140580Y-109010000D01*
D16*
%TO.C,SW2*%
X148900000Y-129230000D02*
X148900000Y-126770000D01*
X152100000Y-129230000D02*
X152100000Y-126770000D01*
D15*
X149470000Y-131218000D02*
G75*
G02*
X149270000Y-131218000I-100000J0D01*
G01*
X149270000Y-131218000D02*
G75*
G02*
X149470000Y-131218000I100000J0D01*
G01*
D14*
%TO.C,J1*%
X123760000Y-102930000D02*
X125460000Y-102930000D01*
X123760000Y-112270000D02*
X125460000Y-112270000D01*
%TO.C,R1*%
X130362742Y-105827500D02*
X130837258Y-105827500D01*
X130362742Y-106872500D02*
X130837258Y-106872500D01*
%TD*%
M02*
