%TF.GenerationSoftware,KiCad,Pcbnew,10.0.2*%
%TF.CreationDate,2026-05-17T14:25:31+09:00*%
%TF.ProjectId,rp2354b,72703233-3534-4622-9e6b-696361645f70,rev?*%
%TF.SameCoordinates,Original*%
%TF.FileFunction,Legend,Top*%
%TF.FilePolarity,Positive*%
%FSLAX46Y46*%
G04 Gerber Fmt 4.6, Leading zero omitted, Abs format (unit mm)*
G04 Created by KiCad (PCBNEW 10.0.2) date 2026-05-17 14:25:31*
%MOMM*%
%LPD*%
G01*
G04 APERTURE LIST*
%ADD10C,0.062500*%
%ADD11C,0.075000*%
%ADD12C,0.080000*%
%ADD13C,0.100000*%
%ADD14C,0.200000*%
%ADD15C,0.120000*%
%ADD16C,0.127000*%
G04 APERTURE END LIST*
D10*
X144214440Y-67245879D02*
X144452535Y-67079213D01*
X144214440Y-66960165D02*
X144714440Y-66960165D01*
X144714440Y-66960165D02*
X144714440Y-67150641D01*
X144714440Y-67150641D02*
X144690630Y-67198260D01*
X144690630Y-67198260D02*
X144666821Y-67222070D01*
X144666821Y-67222070D02*
X144619202Y-67245879D01*
X144619202Y-67245879D02*
X144547773Y-67245879D01*
X144547773Y-67245879D02*
X144500154Y-67222070D01*
X144500154Y-67222070D02*
X144476345Y-67198260D01*
X144476345Y-67198260D02*
X144452535Y-67150641D01*
X144452535Y-67150641D02*
X144452535Y-66960165D01*
X144214440Y-67674451D02*
X144476345Y-67674451D01*
X144476345Y-67674451D02*
X144523964Y-67650641D01*
X144523964Y-67650641D02*
X144547773Y-67603022D01*
X144547773Y-67603022D02*
X144547773Y-67507784D01*
X144547773Y-67507784D02*
X144523964Y-67460165D01*
X144238250Y-67674451D02*
X144214440Y-67626832D01*
X144214440Y-67626832D02*
X144214440Y-67507784D01*
X144214440Y-67507784D02*
X144238250Y-67460165D01*
X144238250Y-67460165D02*
X144285869Y-67436356D01*
X144285869Y-67436356D02*
X144333488Y-67436356D01*
X144333488Y-67436356D02*
X144381107Y-67460165D01*
X144381107Y-67460165D02*
X144404916Y-67507784D01*
X144404916Y-67507784D02*
X144404916Y-67626832D01*
X144404916Y-67626832D02*
X144428726Y-67674451D01*
X144238250Y-67888737D02*
X144214440Y-67936356D01*
X144214440Y-67936356D02*
X144214440Y-68031594D01*
X144214440Y-68031594D02*
X144238250Y-68079213D01*
X144238250Y-68079213D02*
X144285869Y-68103022D01*
X144285869Y-68103022D02*
X144309678Y-68103022D01*
X144309678Y-68103022D02*
X144357297Y-68079213D01*
X144357297Y-68079213D02*
X144381107Y-68031594D01*
X144381107Y-68031594D02*
X144381107Y-67960165D01*
X144381107Y-67960165D02*
X144404916Y-67912546D01*
X144404916Y-67912546D02*
X144452535Y-67888737D01*
X144452535Y-67888737D02*
X144476345Y-67888737D01*
X144476345Y-67888737D02*
X144523964Y-67912546D01*
X144523964Y-67912546D02*
X144547773Y-67960165D01*
X144547773Y-67960165D02*
X144547773Y-68031594D01*
X144547773Y-68031594D02*
X144523964Y-68079213D01*
X144547773Y-68317308D02*
X144047773Y-68317308D01*
X144523964Y-68317308D02*
X144547773Y-68364927D01*
X144547773Y-68364927D02*
X144547773Y-68460165D01*
X144547773Y-68460165D02*
X144523964Y-68507784D01*
X144523964Y-68507784D02*
X144500154Y-68531594D01*
X144500154Y-68531594D02*
X144452535Y-68555403D01*
X144452535Y-68555403D02*
X144309678Y-68555403D01*
X144309678Y-68555403D02*
X144262059Y-68531594D01*
X144262059Y-68531594D02*
X144238250Y-68507784D01*
X144238250Y-68507784D02*
X144214440Y-68460165D01*
X144214440Y-68460165D02*
X144214440Y-68364927D01*
X144214440Y-68364927D02*
X144238250Y-68317308D01*
X144214440Y-68769689D02*
X144714440Y-68769689D01*
X144523964Y-68769689D02*
X144547773Y-68817308D01*
X144547773Y-68817308D02*
X144547773Y-68912546D01*
X144547773Y-68912546D02*
X144523964Y-68960165D01*
X144523964Y-68960165D02*
X144500154Y-68983975D01*
X144500154Y-68983975D02*
X144452535Y-69007784D01*
X144452535Y-69007784D02*
X144309678Y-69007784D01*
X144309678Y-69007784D02*
X144262059Y-68983975D01*
X144262059Y-68983975D02*
X144238250Y-68960165D01*
X144238250Y-68960165D02*
X144214440Y-68912546D01*
X144214440Y-68912546D02*
X144214440Y-68817308D01*
X144214440Y-68817308D02*
X144238250Y-68769689D01*
X144238250Y-69412546D02*
X144214440Y-69364927D01*
X144214440Y-69364927D02*
X144214440Y-69269689D01*
X144214440Y-69269689D02*
X144238250Y-69222070D01*
X144238250Y-69222070D02*
X144285869Y-69198261D01*
X144285869Y-69198261D02*
X144476345Y-69198261D01*
X144476345Y-69198261D02*
X144523964Y-69222070D01*
X144523964Y-69222070D02*
X144547773Y-69269689D01*
X144547773Y-69269689D02*
X144547773Y-69364927D01*
X144547773Y-69364927D02*
X144523964Y-69412546D01*
X144523964Y-69412546D02*
X144476345Y-69436356D01*
X144476345Y-69436356D02*
X144428726Y-69436356D01*
X144428726Y-69436356D02*
X144381107Y-69198261D01*
X144214440Y-69650641D02*
X144547773Y-69650641D01*
X144452535Y-69650641D02*
X144500154Y-69674451D01*
X144500154Y-69674451D02*
X144523964Y-69698260D01*
X144523964Y-69698260D02*
X144547773Y-69745879D01*
X144547773Y-69745879D02*
X144547773Y-69793498D01*
X144214440Y-69960165D02*
X144547773Y-69960165D01*
X144452535Y-69960165D02*
X144500154Y-69983975D01*
X144500154Y-69983975D02*
X144523964Y-70007784D01*
X144523964Y-70007784D02*
X144547773Y-70055403D01*
X144547773Y-70055403D02*
X144547773Y-70103022D01*
X144547773Y-70222070D02*
X144214440Y-70341118D01*
X144547773Y-70460165D02*
X144214440Y-70341118D01*
X144214440Y-70341118D02*
X144095392Y-70293499D01*
X144095392Y-70293499D02*
X144071583Y-70269689D01*
X144071583Y-70269689D02*
X144047773Y-70222070D01*
X144214440Y-71031593D02*
X144714440Y-71031593D01*
X144714440Y-71031593D02*
X144714440Y-71222069D01*
X144714440Y-71222069D02*
X144690630Y-71269688D01*
X144690630Y-71269688D02*
X144666821Y-71293498D01*
X144666821Y-71293498D02*
X144619202Y-71317307D01*
X144619202Y-71317307D02*
X144547773Y-71317307D01*
X144547773Y-71317307D02*
X144500154Y-71293498D01*
X144500154Y-71293498D02*
X144476345Y-71269688D01*
X144476345Y-71269688D02*
X144452535Y-71222069D01*
X144452535Y-71222069D02*
X144452535Y-71031593D01*
X144214440Y-71531593D02*
X144547773Y-71531593D01*
X144714440Y-71531593D02*
X144690630Y-71507784D01*
X144690630Y-71507784D02*
X144666821Y-71531593D01*
X144666821Y-71531593D02*
X144690630Y-71555403D01*
X144690630Y-71555403D02*
X144714440Y-71531593D01*
X144714440Y-71531593D02*
X144666821Y-71531593D01*
X144476345Y-72317307D02*
X144476345Y-72150640D01*
X144214440Y-72150640D02*
X144714440Y-72150640D01*
X144714440Y-72150640D02*
X144714440Y-72388735D01*
X144238250Y-72769687D02*
X144214440Y-72722068D01*
X144214440Y-72722068D02*
X144214440Y-72626830D01*
X144214440Y-72626830D02*
X144238250Y-72579211D01*
X144238250Y-72579211D02*
X144285869Y-72555402D01*
X144285869Y-72555402D02*
X144476345Y-72555402D01*
X144476345Y-72555402D02*
X144523964Y-72579211D01*
X144523964Y-72579211D02*
X144547773Y-72626830D01*
X144547773Y-72626830D02*
X144547773Y-72722068D01*
X144547773Y-72722068D02*
X144523964Y-72769687D01*
X144523964Y-72769687D02*
X144476345Y-72793497D01*
X144476345Y-72793497D02*
X144428726Y-72793497D01*
X144428726Y-72793497D02*
X144381107Y-72555402D01*
X144214440Y-73007782D02*
X144547773Y-73007782D01*
X144500154Y-73007782D02*
X144523964Y-73031592D01*
X144523964Y-73031592D02*
X144547773Y-73079211D01*
X144547773Y-73079211D02*
X144547773Y-73150639D01*
X144547773Y-73150639D02*
X144523964Y-73198258D01*
X144523964Y-73198258D02*
X144476345Y-73222068D01*
X144476345Y-73222068D02*
X144214440Y-73222068D01*
X144476345Y-73222068D02*
X144523964Y-73245877D01*
X144523964Y-73245877D02*
X144547773Y-73293496D01*
X144547773Y-73293496D02*
X144547773Y-73364925D01*
X144547773Y-73364925D02*
X144523964Y-73412544D01*
X144523964Y-73412544D02*
X144476345Y-73436354D01*
X144476345Y-73436354D02*
X144214440Y-73436354D01*
X144547773Y-73603021D02*
X144547773Y-73793497D01*
X144714440Y-73674449D02*
X144285869Y-73674449D01*
X144285869Y-73674449D02*
X144238250Y-73698259D01*
X144238250Y-73698259D02*
X144214440Y-73745878D01*
X144214440Y-73745878D02*
X144214440Y-73793497D01*
X144214440Y-74031592D02*
X144238250Y-73983973D01*
X144238250Y-73983973D02*
X144262059Y-73960163D01*
X144262059Y-73960163D02*
X144309678Y-73936354D01*
X144309678Y-73936354D02*
X144452535Y-73936354D01*
X144452535Y-73936354D02*
X144500154Y-73960163D01*
X144500154Y-73960163D02*
X144523964Y-73983973D01*
X144523964Y-73983973D02*
X144547773Y-74031592D01*
X144547773Y-74031592D02*
X144547773Y-74103020D01*
X144547773Y-74103020D02*
X144523964Y-74150639D01*
X144523964Y-74150639D02*
X144500154Y-74174449D01*
X144500154Y-74174449D02*
X144452535Y-74198258D01*
X144452535Y-74198258D02*
X144309678Y-74198258D01*
X144309678Y-74198258D02*
X144262059Y-74174449D01*
X144262059Y-74174449D02*
X144238250Y-74150639D01*
X144238250Y-74150639D02*
X144214440Y-74103020D01*
X144214440Y-74103020D02*
X144214440Y-74031592D01*
D11*
X140635056Y-53472671D02*
X141006484Y-53472671D01*
X141006484Y-53472671D02*
X140806484Y-53701242D01*
X140806484Y-53701242D02*
X140892199Y-53701242D01*
X140892199Y-53701242D02*
X140949342Y-53729814D01*
X140949342Y-53729814D02*
X140977913Y-53758385D01*
X140977913Y-53758385D02*
X141006484Y-53815528D01*
X141006484Y-53815528D02*
X141006484Y-53958385D01*
X141006484Y-53958385D02*
X140977913Y-54015528D01*
X140977913Y-54015528D02*
X140949342Y-54044100D01*
X140949342Y-54044100D02*
X140892199Y-54072671D01*
X140892199Y-54072671D02*
X140720770Y-54072671D01*
X140720770Y-54072671D02*
X140663627Y-54044100D01*
X140663627Y-54044100D02*
X140635056Y-54015528D01*
X141206485Y-53672671D02*
X141349342Y-54072671D01*
X141349342Y-54072671D02*
X141492199Y-53672671D01*
X141663628Y-53472671D02*
X142035056Y-53472671D01*
X142035056Y-53472671D02*
X141835056Y-53701242D01*
X141835056Y-53701242D02*
X141920771Y-53701242D01*
X141920771Y-53701242D02*
X141977914Y-53729814D01*
X141977914Y-53729814D02*
X142006485Y-53758385D01*
X142006485Y-53758385D02*
X142035056Y-53815528D01*
X142035056Y-53815528D02*
X142035056Y-53958385D01*
X142035056Y-53958385D02*
X142006485Y-54015528D01*
X142006485Y-54015528D02*
X141977914Y-54044100D01*
X141977914Y-54044100D02*
X141920771Y-54072671D01*
X141920771Y-54072671D02*
X141749342Y-54072671D01*
X141749342Y-54072671D02*
X141692199Y-54044100D01*
X141692199Y-54044100D02*
X141663628Y-54015528D01*
D12*
X140985964Y-52693506D02*
X140919297Y-52660173D01*
X140919297Y-52660173D02*
X140819297Y-52660173D01*
X140819297Y-52660173D02*
X140719297Y-52693506D01*
X140719297Y-52693506D02*
X140652631Y-52760173D01*
X140652631Y-52760173D02*
X140619297Y-52826840D01*
X140619297Y-52826840D02*
X140585964Y-52960173D01*
X140585964Y-52960173D02*
X140585964Y-53060173D01*
X140585964Y-53060173D02*
X140619297Y-53193506D01*
X140619297Y-53193506D02*
X140652631Y-53260173D01*
X140652631Y-53260173D02*
X140719297Y-53326840D01*
X140719297Y-53326840D02*
X140819297Y-53360173D01*
X140819297Y-53360173D02*
X140885964Y-53360173D01*
X140885964Y-53360173D02*
X140985964Y-53326840D01*
X140985964Y-53326840D02*
X141019297Y-53293506D01*
X141019297Y-53293506D02*
X141019297Y-53060173D01*
X141019297Y-53060173D02*
X140885964Y-53060173D01*
X142252631Y-56760173D02*
X142319297Y-56760173D01*
X142319297Y-56760173D02*
X142385964Y-56793506D01*
X142385964Y-56793506D02*
X142419297Y-56826840D01*
X142419297Y-56826840D02*
X142452631Y-56893506D01*
X142452631Y-56893506D02*
X142485964Y-57026840D01*
X142485964Y-57026840D02*
X142485964Y-57193506D01*
X142485964Y-57193506D02*
X142452631Y-57326840D01*
X142452631Y-57326840D02*
X142419297Y-57393506D01*
X142419297Y-57393506D02*
X142385964Y-57426840D01*
X142385964Y-57426840D02*
X142319297Y-57460173D01*
X142319297Y-57460173D02*
X142252631Y-57460173D01*
X142252631Y-57460173D02*
X142185964Y-57426840D01*
X142185964Y-57426840D02*
X142152631Y-57393506D01*
X142152631Y-57393506D02*
X142119297Y-57326840D01*
X142119297Y-57326840D02*
X142085964Y-57193506D01*
X142085964Y-57193506D02*
X142085964Y-57026840D01*
X142085964Y-57026840D02*
X142119297Y-56893506D01*
X142119297Y-56893506D02*
X142152631Y-56826840D01*
X142152631Y-56826840D02*
X142185964Y-56793506D01*
X142185964Y-56793506D02*
X142252631Y-56760173D01*
X142085964Y-59326840D02*
X142119297Y-59293506D01*
X142119297Y-59293506D02*
X142185964Y-59260173D01*
X142185964Y-59260173D02*
X142352631Y-59260173D01*
X142352631Y-59260173D02*
X142419297Y-59293506D01*
X142419297Y-59293506D02*
X142452631Y-59326840D01*
X142452631Y-59326840D02*
X142485964Y-59393506D01*
X142485964Y-59393506D02*
X142485964Y-59460173D01*
X142485964Y-59460173D02*
X142452631Y-59560173D01*
X142452631Y-59560173D02*
X142052631Y-59960173D01*
X142052631Y-59960173D02*
X142485964Y-59960173D01*
X142535964Y-58710173D02*
X142135964Y-58710173D01*
X142335964Y-58710173D02*
X142335964Y-58010173D01*
X142335964Y-58010173D02*
X142269297Y-58110173D01*
X142269297Y-58110173D02*
X142202631Y-58176840D01*
X142202631Y-58176840D02*
X142135964Y-58210173D01*
X142402631Y-65610173D02*
X142869297Y-65610173D01*
X142869297Y-65610173D02*
X142569297Y-66310173D01*
X142569297Y-67190173D02*
X142502631Y-67156840D01*
X142502631Y-67156840D02*
X142469297Y-67123506D01*
X142469297Y-67123506D02*
X142435964Y-67056840D01*
X142435964Y-67056840D02*
X142435964Y-67023506D01*
X142435964Y-67023506D02*
X142469297Y-66956840D01*
X142469297Y-66956840D02*
X142502631Y-66923506D01*
X142502631Y-66923506D02*
X142569297Y-66890173D01*
X142569297Y-66890173D02*
X142702631Y-66890173D01*
X142702631Y-66890173D02*
X142769297Y-66923506D01*
X142769297Y-66923506D02*
X142802631Y-66956840D01*
X142802631Y-66956840D02*
X142835964Y-67023506D01*
X142835964Y-67023506D02*
X142835964Y-67056840D01*
X142835964Y-67056840D02*
X142802631Y-67123506D01*
X142802631Y-67123506D02*
X142769297Y-67156840D01*
X142769297Y-67156840D02*
X142702631Y-67190173D01*
X142702631Y-67190173D02*
X142569297Y-67190173D01*
X142569297Y-67190173D02*
X142502631Y-67223506D01*
X142502631Y-67223506D02*
X142469297Y-67256840D01*
X142469297Y-67256840D02*
X142435964Y-67323506D01*
X142435964Y-67323506D02*
X142435964Y-67456840D01*
X142435964Y-67456840D02*
X142469297Y-67523506D01*
X142469297Y-67523506D02*
X142502631Y-67556840D01*
X142502631Y-67556840D02*
X142569297Y-67590173D01*
X142569297Y-67590173D02*
X142702631Y-67590173D01*
X142702631Y-67590173D02*
X142769297Y-67556840D01*
X142769297Y-67556840D02*
X142802631Y-67523506D01*
X142802631Y-67523506D02*
X142835964Y-67456840D01*
X142835964Y-67456840D02*
X142835964Y-67323506D01*
X142835964Y-67323506D02*
X142802631Y-67256840D01*
X142802631Y-67256840D02*
X142769297Y-67223506D01*
X142769297Y-67223506D02*
X142702631Y-67190173D01*
X142502631Y-68860173D02*
X142635964Y-68860173D01*
X142635964Y-68860173D02*
X142702631Y-68826840D01*
X142702631Y-68826840D02*
X142735964Y-68793506D01*
X142735964Y-68793506D02*
X142802631Y-68693506D01*
X142802631Y-68693506D02*
X142835964Y-68560173D01*
X142835964Y-68560173D02*
X142835964Y-68293506D01*
X142835964Y-68293506D02*
X142802631Y-68226840D01*
X142802631Y-68226840D02*
X142769297Y-68193506D01*
X142769297Y-68193506D02*
X142702631Y-68160173D01*
X142702631Y-68160173D02*
X142569297Y-68160173D01*
X142569297Y-68160173D02*
X142502631Y-68193506D01*
X142502631Y-68193506D02*
X142469297Y-68226840D01*
X142469297Y-68226840D02*
X142435964Y-68293506D01*
X142435964Y-68293506D02*
X142435964Y-68460173D01*
X142435964Y-68460173D02*
X142469297Y-68526840D01*
X142469297Y-68526840D02*
X142502631Y-68560173D01*
X142502631Y-68560173D02*
X142569297Y-68593506D01*
X142569297Y-68593506D02*
X142702631Y-68593506D01*
X142702631Y-68593506D02*
X142769297Y-68560173D01*
X142769297Y-68560173D02*
X142802631Y-68526840D01*
X142802631Y-68526840D02*
X142835964Y-68460173D01*
X142835964Y-70130173D02*
X142435964Y-70130173D01*
X142635964Y-70130173D02*
X142635964Y-69430173D01*
X142635964Y-69430173D02*
X142569297Y-69530173D01*
X142569297Y-69530173D02*
X142502631Y-69596840D01*
X142502631Y-69596840D02*
X142435964Y-69630173D01*
X143269298Y-69430173D02*
X143335964Y-69430173D01*
X143335964Y-69430173D02*
X143402631Y-69463506D01*
X143402631Y-69463506D02*
X143435964Y-69496840D01*
X143435964Y-69496840D02*
X143469298Y-69563506D01*
X143469298Y-69563506D02*
X143502631Y-69696840D01*
X143502631Y-69696840D02*
X143502631Y-69863506D01*
X143502631Y-69863506D02*
X143469298Y-69996840D01*
X143469298Y-69996840D02*
X143435964Y-70063506D01*
X143435964Y-70063506D02*
X143402631Y-70096840D01*
X143402631Y-70096840D02*
X143335964Y-70130173D01*
X143335964Y-70130173D02*
X143269298Y-70130173D01*
X143269298Y-70130173D02*
X143202631Y-70096840D01*
X143202631Y-70096840D02*
X143169298Y-70063506D01*
X143169298Y-70063506D02*
X143135964Y-69996840D01*
X143135964Y-69996840D02*
X143102631Y-69863506D01*
X143102631Y-69863506D02*
X143102631Y-69696840D01*
X143102631Y-69696840D02*
X143135964Y-69563506D01*
X143135964Y-69563506D02*
X143169298Y-69496840D01*
X143169298Y-69496840D02*
X143202631Y-69463506D01*
X143202631Y-69463506D02*
X143269298Y-69430173D01*
X142835964Y-71400173D02*
X142435964Y-71400173D01*
X142635964Y-71400173D02*
X142635964Y-70700173D01*
X142635964Y-70700173D02*
X142569297Y-70800173D01*
X142569297Y-70800173D02*
X142502631Y-70866840D01*
X142502631Y-70866840D02*
X142435964Y-70900173D01*
X143502631Y-71400173D02*
X143102631Y-71400173D01*
X143302631Y-71400173D02*
X143302631Y-70700173D01*
X143302631Y-70700173D02*
X143235964Y-70800173D01*
X143235964Y-70800173D02*
X143169298Y-70866840D01*
X143169298Y-70866840D02*
X143102631Y-70900173D01*
X142835964Y-72670173D02*
X142435964Y-72670173D01*
X142635964Y-72670173D02*
X142635964Y-71970173D01*
X142635964Y-71970173D02*
X142569297Y-72070173D01*
X142569297Y-72070173D02*
X142502631Y-72136840D01*
X142502631Y-72136840D02*
X142435964Y-72170173D01*
X143102631Y-72036840D02*
X143135964Y-72003506D01*
X143135964Y-72003506D02*
X143202631Y-71970173D01*
X143202631Y-71970173D02*
X143369298Y-71970173D01*
X143369298Y-71970173D02*
X143435964Y-72003506D01*
X143435964Y-72003506D02*
X143469298Y-72036840D01*
X143469298Y-72036840D02*
X143502631Y-72103506D01*
X143502631Y-72103506D02*
X143502631Y-72170173D01*
X143502631Y-72170173D02*
X143469298Y-72270173D01*
X143469298Y-72270173D02*
X143069298Y-72670173D01*
X143069298Y-72670173D02*
X143502631Y-72670173D01*
X142835964Y-73940173D02*
X142435964Y-73940173D01*
X142635964Y-73940173D02*
X142635964Y-73240173D01*
X142635964Y-73240173D02*
X142569297Y-73340173D01*
X142569297Y-73340173D02*
X142502631Y-73406840D01*
X142502631Y-73406840D02*
X142435964Y-73440173D01*
X143069298Y-73240173D02*
X143502631Y-73240173D01*
X143502631Y-73240173D02*
X143269298Y-73506840D01*
X143269298Y-73506840D02*
X143369298Y-73506840D01*
X143369298Y-73506840D02*
X143435964Y-73540173D01*
X143435964Y-73540173D02*
X143469298Y-73573506D01*
X143469298Y-73573506D02*
X143502631Y-73640173D01*
X143502631Y-73640173D02*
X143502631Y-73806840D01*
X143502631Y-73806840D02*
X143469298Y-73873506D01*
X143469298Y-73873506D02*
X143435964Y-73906840D01*
X143435964Y-73906840D02*
X143369298Y-73940173D01*
X143369298Y-73940173D02*
X143169298Y-73940173D01*
X143169298Y-73940173D02*
X143102631Y-73906840D01*
X143102631Y-73906840D02*
X143069298Y-73873506D01*
X142835964Y-75210173D02*
X142435964Y-75210173D01*
X142635964Y-75210173D02*
X142635964Y-74510173D01*
X142635964Y-74510173D02*
X142569297Y-74610173D01*
X142569297Y-74610173D02*
X142502631Y-74676840D01*
X142502631Y-74676840D02*
X142435964Y-74710173D01*
X143435964Y-74743506D02*
X143435964Y-75210173D01*
X143269298Y-74476840D02*
X143102631Y-74976840D01*
X143102631Y-74976840D02*
X143535964Y-74976840D01*
X142835964Y-76480173D02*
X142435964Y-76480173D01*
X142635964Y-76480173D02*
X142635964Y-75780173D01*
X142635964Y-75780173D02*
X142569297Y-75880173D01*
X142569297Y-75880173D02*
X142502631Y-75946840D01*
X142502631Y-75946840D02*
X142435964Y-75980173D01*
X143469298Y-75780173D02*
X143135964Y-75780173D01*
X143135964Y-75780173D02*
X143102631Y-76113506D01*
X143102631Y-76113506D02*
X143135964Y-76080173D01*
X143135964Y-76080173D02*
X143202631Y-76046840D01*
X143202631Y-76046840D02*
X143369298Y-76046840D01*
X143369298Y-76046840D02*
X143435964Y-76080173D01*
X143435964Y-76080173D02*
X143469298Y-76113506D01*
X143469298Y-76113506D02*
X143502631Y-76180173D01*
X143502631Y-76180173D02*
X143502631Y-76346840D01*
X143502631Y-76346840D02*
X143469298Y-76413506D01*
X143469298Y-76413506D02*
X143435964Y-76446840D01*
X143435964Y-76446840D02*
X143369298Y-76480173D01*
X143369298Y-76480173D02*
X143202631Y-76480173D01*
X143202631Y-76480173D02*
X143135964Y-76446840D01*
X143135964Y-76446840D02*
X143102631Y-76413506D01*
X142835964Y-77760173D02*
X142435964Y-77760173D01*
X142635964Y-77760173D02*
X142635964Y-77060173D01*
X142635964Y-77060173D02*
X142569297Y-77160173D01*
X142569297Y-77160173D02*
X142502631Y-77226840D01*
X142502631Y-77226840D02*
X142435964Y-77260173D01*
X143435964Y-77060173D02*
X143302631Y-77060173D01*
X143302631Y-77060173D02*
X143235964Y-77093506D01*
X143235964Y-77093506D02*
X143202631Y-77126840D01*
X143202631Y-77126840D02*
X143135964Y-77226840D01*
X143135964Y-77226840D02*
X143102631Y-77360173D01*
X143102631Y-77360173D02*
X143102631Y-77626840D01*
X143102631Y-77626840D02*
X143135964Y-77693506D01*
X143135964Y-77693506D02*
X143169298Y-77726840D01*
X143169298Y-77726840D02*
X143235964Y-77760173D01*
X143235964Y-77760173D02*
X143369298Y-77760173D01*
X143369298Y-77760173D02*
X143435964Y-77726840D01*
X143435964Y-77726840D02*
X143469298Y-77693506D01*
X143469298Y-77693506D02*
X143502631Y-77626840D01*
X143502631Y-77626840D02*
X143502631Y-77460173D01*
X143502631Y-77460173D02*
X143469298Y-77393506D01*
X143469298Y-77393506D02*
X143435964Y-77360173D01*
X143435964Y-77360173D02*
X143369298Y-77326840D01*
X143369298Y-77326840D02*
X143235964Y-77326840D01*
X143235964Y-77326840D02*
X143169298Y-77360173D01*
X143169298Y-77360173D02*
X143135964Y-77393506D01*
X143135964Y-77393506D02*
X143102631Y-77460173D01*
X142502631Y-60610173D02*
X142935964Y-60610173D01*
X142935964Y-60610173D02*
X142702631Y-60876840D01*
X142702631Y-60876840D02*
X142802631Y-60876840D01*
X142802631Y-60876840D02*
X142869297Y-60910173D01*
X142869297Y-60910173D02*
X142902631Y-60943506D01*
X142902631Y-60943506D02*
X142935964Y-61010173D01*
X142935964Y-61010173D02*
X142935964Y-61176840D01*
X142935964Y-61176840D02*
X142902631Y-61243506D01*
X142902631Y-61243506D02*
X142869297Y-61276840D01*
X142869297Y-61276840D02*
X142802631Y-61310173D01*
X142802631Y-61310173D02*
X142602631Y-61310173D01*
X142602631Y-61310173D02*
X142535964Y-61276840D01*
X142535964Y-61276840D02*
X142502631Y-61243506D01*
X142869297Y-61993506D02*
X142869297Y-62460173D01*
X142702631Y-61726840D02*
X142535964Y-62226840D01*
X142535964Y-62226840D02*
X142969297Y-62226840D01*
X143335964Y-79810173D02*
X142935964Y-79810173D01*
X143135964Y-79810173D02*
X143135964Y-79110173D01*
X143135964Y-79110173D02*
X143069297Y-79210173D01*
X143069297Y-79210173D02*
X143002631Y-79276840D01*
X143002631Y-79276840D02*
X142935964Y-79310173D01*
X143569298Y-79110173D02*
X144035964Y-79110173D01*
X144035964Y-79110173D02*
X143735964Y-79810173D01*
X143702631Y-63160173D02*
X143369297Y-63160173D01*
X143369297Y-63160173D02*
X143335964Y-63493506D01*
X143335964Y-63493506D02*
X143369297Y-63460173D01*
X143369297Y-63460173D02*
X143435964Y-63426840D01*
X143435964Y-63426840D02*
X143602631Y-63426840D01*
X143602631Y-63426840D02*
X143669297Y-63460173D01*
X143669297Y-63460173D02*
X143702631Y-63493506D01*
X143702631Y-63493506D02*
X143735964Y-63560173D01*
X143735964Y-63560173D02*
X143735964Y-63726840D01*
X143735964Y-63726840D02*
X143702631Y-63793506D01*
X143702631Y-63793506D02*
X143669297Y-63826840D01*
X143669297Y-63826840D02*
X143602631Y-63860173D01*
X143602631Y-63860173D02*
X143435964Y-63860173D01*
X143435964Y-63860173D02*
X143369297Y-63826840D01*
X143369297Y-63826840D02*
X143335964Y-63793506D01*
X143669297Y-64410173D02*
X143535964Y-64410173D01*
X143535964Y-64410173D02*
X143469297Y-64443506D01*
X143469297Y-64443506D02*
X143435964Y-64476840D01*
X143435964Y-64476840D02*
X143369297Y-64576840D01*
X143369297Y-64576840D02*
X143335964Y-64710173D01*
X143335964Y-64710173D02*
X143335964Y-64976840D01*
X143335964Y-64976840D02*
X143369297Y-65043506D01*
X143369297Y-65043506D02*
X143402631Y-65076840D01*
X143402631Y-65076840D02*
X143469297Y-65110173D01*
X143469297Y-65110173D02*
X143602631Y-65110173D01*
X143602631Y-65110173D02*
X143669297Y-65076840D01*
X143669297Y-65076840D02*
X143702631Y-65043506D01*
X143702631Y-65043506D02*
X143735964Y-64976840D01*
X143735964Y-64976840D02*
X143735964Y-64810173D01*
X143735964Y-64810173D02*
X143702631Y-64743506D01*
X143702631Y-64743506D02*
X143669297Y-64710173D01*
X143669297Y-64710173D02*
X143602631Y-64676840D01*
X143602631Y-64676840D02*
X143469297Y-64676840D01*
X143469297Y-64676840D02*
X143402631Y-64710173D01*
X143402631Y-64710173D02*
X143369297Y-64743506D01*
X143369297Y-64743506D02*
X143335964Y-64810173D01*
X145385964Y-79810173D02*
X144985964Y-79810173D01*
X145185964Y-79810173D02*
X145185964Y-79110173D01*
X145185964Y-79110173D02*
X145119297Y-79210173D01*
X145119297Y-79210173D02*
X145052631Y-79276840D01*
X145052631Y-79276840D02*
X144985964Y-79310173D01*
X145785964Y-79410173D02*
X145719298Y-79376840D01*
X145719298Y-79376840D02*
X145685964Y-79343506D01*
X145685964Y-79343506D02*
X145652631Y-79276840D01*
X145652631Y-79276840D02*
X145652631Y-79243506D01*
X145652631Y-79243506D02*
X145685964Y-79176840D01*
X145685964Y-79176840D02*
X145719298Y-79143506D01*
X145719298Y-79143506D02*
X145785964Y-79110173D01*
X145785964Y-79110173D02*
X145919298Y-79110173D01*
X145919298Y-79110173D02*
X145985964Y-79143506D01*
X145985964Y-79143506D02*
X146019298Y-79176840D01*
X146019298Y-79176840D02*
X146052631Y-79243506D01*
X146052631Y-79243506D02*
X146052631Y-79276840D01*
X146052631Y-79276840D02*
X146019298Y-79343506D01*
X146019298Y-79343506D02*
X145985964Y-79376840D01*
X145985964Y-79376840D02*
X145919298Y-79410173D01*
X145919298Y-79410173D02*
X145785964Y-79410173D01*
X145785964Y-79410173D02*
X145719298Y-79443506D01*
X145719298Y-79443506D02*
X145685964Y-79476840D01*
X145685964Y-79476840D02*
X145652631Y-79543506D01*
X145652631Y-79543506D02*
X145652631Y-79676840D01*
X145652631Y-79676840D02*
X145685964Y-79743506D01*
X145685964Y-79743506D02*
X145719298Y-79776840D01*
X145719298Y-79776840D02*
X145785964Y-79810173D01*
X145785964Y-79810173D02*
X145919298Y-79810173D01*
X145919298Y-79810173D02*
X145985964Y-79776840D01*
X145985964Y-79776840D02*
X146019298Y-79743506D01*
X146019298Y-79743506D02*
X146052631Y-79676840D01*
X146052631Y-79676840D02*
X146052631Y-79543506D01*
X146052631Y-79543506D02*
X146019298Y-79476840D01*
X146019298Y-79476840D02*
X145985964Y-79443506D01*
X145985964Y-79443506D02*
X145919298Y-79410173D01*
X146435964Y-78460173D02*
X146035964Y-78460173D01*
X146235964Y-78460173D02*
X146235964Y-77760173D01*
X146235964Y-77760173D02*
X146169297Y-77860173D01*
X146169297Y-77860173D02*
X146102631Y-77926840D01*
X146102631Y-77926840D02*
X146035964Y-77960173D01*
X146769298Y-78460173D02*
X146902631Y-78460173D01*
X146902631Y-78460173D02*
X146969298Y-78426840D01*
X146969298Y-78426840D02*
X147002631Y-78393506D01*
X147002631Y-78393506D02*
X147069298Y-78293506D01*
X147069298Y-78293506D02*
X147102631Y-78160173D01*
X147102631Y-78160173D02*
X147102631Y-77893506D01*
X147102631Y-77893506D02*
X147069298Y-77826840D01*
X147069298Y-77826840D02*
X147035964Y-77793506D01*
X147035964Y-77793506D02*
X146969298Y-77760173D01*
X146969298Y-77760173D02*
X146835964Y-77760173D01*
X146835964Y-77760173D02*
X146769298Y-77793506D01*
X146769298Y-77793506D02*
X146735964Y-77826840D01*
X146735964Y-77826840D02*
X146702631Y-77893506D01*
X146702631Y-77893506D02*
X146702631Y-78060173D01*
X146702631Y-78060173D02*
X146735964Y-78126840D01*
X146735964Y-78126840D02*
X146769298Y-78160173D01*
X146769298Y-78160173D02*
X146835964Y-78193506D01*
X146835964Y-78193506D02*
X146969298Y-78193506D01*
X146969298Y-78193506D02*
X147035964Y-78160173D01*
X147035964Y-78160173D02*
X147069298Y-78126840D01*
X147069298Y-78126840D02*
X147102631Y-78060173D01*
X147235964Y-79226840D02*
X147269297Y-79193506D01*
X147269297Y-79193506D02*
X147335964Y-79160173D01*
X147335964Y-79160173D02*
X147502631Y-79160173D01*
X147502631Y-79160173D02*
X147569297Y-79193506D01*
X147569297Y-79193506D02*
X147602631Y-79226840D01*
X147602631Y-79226840D02*
X147635964Y-79293506D01*
X147635964Y-79293506D02*
X147635964Y-79360173D01*
X147635964Y-79360173D02*
X147602631Y-79460173D01*
X147602631Y-79460173D02*
X147202631Y-79860173D01*
X147202631Y-79860173D02*
X147635964Y-79860173D01*
X148069298Y-79160173D02*
X148135964Y-79160173D01*
X148135964Y-79160173D02*
X148202631Y-79193506D01*
X148202631Y-79193506D02*
X148235964Y-79226840D01*
X148235964Y-79226840D02*
X148269298Y-79293506D01*
X148269298Y-79293506D02*
X148302631Y-79426840D01*
X148302631Y-79426840D02*
X148302631Y-79593506D01*
X148302631Y-79593506D02*
X148269298Y-79726840D01*
X148269298Y-79726840D02*
X148235964Y-79793506D01*
X148235964Y-79793506D02*
X148202631Y-79826840D01*
X148202631Y-79826840D02*
X148135964Y-79860173D01*
X148135964Y-79860173D02*
X148069298Y-79860173D01*
X148069298Y-79860173D02*
X148002631Y-79826840D01*
X148002631Y-79826840D02*
X147969298Y-79793506D01*
X147969298Y-79793506D02*
X147935964Y-79726840D01*
X147935964Y-79726840D02*
X147902631Y-79593506D01*
X147902631Y-79593506D02*
X147902631Y-79426840D01*
X147902631Y-79426840D02*
X147935964Y-79293506D01*
X147935964Y-79293506D02*
X147969298Y-79226840D01*
X147969298Y-79226840D02*
X148002631Y-79193506D01*
X148002631Y-79193506D02*
X148069298Y-79160173D01*
X148885964Y-79276840D02*
X148919297Y-79243506D01*
X148919297Y-79243506D02*
X148985964Y-79210173D01*
X148985964Y-79210173D02*
X149152631Y-79210173D01*
X149152631Y-79210173D02*
X149219297Y-79243506D01*
X149219297Y-79243506D02*
X149252631Y-79276840D01*
X149252631Y-79276840D02*
X149285964Y-79343506D01*
X149285964Y-79343506D02*
X149285964Y-79410173D01*
X149285964Y-79410173D02*
X149252631Y-79510173D01*
X149252631Y-79510173D02*
X148852631Y-79910173D01*
X148852631Y-79910173D02*
X149285964Y-79910173D01*
X149952631Y-79910173D02*
X149552631Y-79910173D01*
X149752631Y-79910173D02*
X149752631Y-79210173D01*
X149752631Y-79210173D02*
X149685964Y-79310173D01*
X149685964Y-79310173D02*
X149619298Y-79376840D01*
X149619298Y-79376840D02*
X149552631Y-79410173D01*
X150185964Y-79176840D02*
X150219297Y-79143506D01*
X150219297Y-79143506D02*
X150285964Y-79110173D01*
X150285964Y-79110173D02*
X150452631Y-79110173D01*
X150452631Y-79110173D02*
X150519297Y-79143506D01*
X150519297Y-79143506D02*
X150552631Y-79176840D01*
X150552631Y-79176840D02*
X150585964Y-79243506D01*
X150585964Y-79243506D02*
X150585964Y-79310173D01*
X150585964Y-79310173D02*
X150552631Y-79410173D01*
X150552631Y-79410173D02*
X150152631Y-79810173D01*
X150152631Y-79810173D02*
X150585964Y-79810173D01*
X150852631Y-79176840D02*
X150885964Y-79143506D01*
X150885964Y-79143506D02*
X150952631Y-79110173D01*
X150952631Y-79110173D02*
X151119298Y-79110173D01*
X151119298Y-79110173D02*
X151185964Y-79143506D01*
X151185964Y-79143506D02*
X151219298Y-79176840D01*
X151219298Y-79176840D02*
X151252631Y-79243506D01*
X151252631Y-79243506D02*
X151252631Y-79310173D01*
X151252631Y-79310173D02*
X151219298Y-79410173D01*
X151219298Y-79410173D02*
X150819298Y-79810173D01*
X150819298Y-79810173D02*
X151252631Y-79810173D01*
X151435964Y-79176840D02*
X151469297Y-79143506D01*
X151469297Y-79143506D02*
X151535964Y-79110173D01*
X151535964Y-79110173D02*
X151702631Y-79110173D01*
X151702631Y-79110173D02*
X151769297Y-79143506D01*
X151769297Y-79143506D02*
X151802631Y-79176840D01*
X151802631Y-79176840D02*
X151835964Y-79243506D01*
X151835964Y-79243506D02*
X151835964Y-79310173D01*
X151835964Y-79310173D02*
X151802631Y-79410173D01*
X151802631Y-79410173D02*
X151402631Y-79810173D01*
X151402631Y-79810173D02*
X151835964Y-79810173D01*
X152069298Y-79110173D02*
X152502631Y-79110173D01*
X152502631Y-79110173D02*
X152269298Y-79376840D01*
X152269298Y-79376840D02*
X152369298Y-79376840D01*
X152369298Y-79376840D02*
X152435964Y-79410173D01*
X152435964Y-79410173D02*
X152469298Y-79443506D01*
X152469298Y-79443506D02*
X152502631Y-79510173D01*
X152502631Y-79510173D02*
X152502631Y-79676840D01*
X152502631Y-79676840D02*
X152469298Y-79743506D01*
X152469298Y-79743506D02*
X152435964Y-79776840D01*
X152435964Y-79776840D02*
X152369298Y-79810173D01*
X152369298Y-79810173D02*
X152169298Y-79810173D01*
X152169298Y-79810173D02*
X152102631Y-79776840D01*
X152102631Y-79776840D02*
X152069298Y-79743506D01*
X152685964Y-79176840D02*
X152719297Y-79143506D01*
X152719297Y-79143506D02*
X152785964Y-79110173D01*
X152785964Y-79110173D02*
X152952631Y-79110173D01*
X152952631Y-79110173D02*
X153019297Y-79143506D01*
X153019297Y-79143506D02*
X153052631Y-79176840D01*
X153052631Y-79176840D02*
X153085964Y-79243506D01*
X153085964Y-79243506D02*
X153085964Y-79310173D01*
X153085964Y-79310173D02*
X153052631Y-79410173D01*
X153052631Y-79410173D02*
X152652631Y-79810173D01*
X152652631Y-79810173D02*
X153085964Y-79810173D01*
X153685964Y-79343506D02*
X153685964Y-79810173D01*
X153519298Y-79076840D02*
X153352631Y-79576840D01*
X153352631Y-79576840D02*
X153785964Y-79576840D01*
X153985964Y-79176840D02*
X154019297Y-79143506D01*
X154019297Y-79143506D02*
X154085964Y-79110173D01*
X154085964Y-79110173D02*
X154252631Y-79110173D01*
X154252631Y-79110173D02*
X154319297Y-79143506D01*
X154319297Y-79143506D02*
X154352631Y-79176840D01*
X154352631Y-79176840D02*
X154385964Y-79243506D01*
X154385964Y-79243506D02*
X154385964Y-79310173D01*
X154385964Y-79310173D02*
X154352631Y-79410173D01*
X154352631Y-79410173D02*
X153952631Y-79810173D01*
X153952631Y-79810173D02*
X154385964Y-79810173D01*
X155019298Y-79110173D02*
X154685964Y-79110173D01*
X154685964Y-79110173D02*
X154652631Y-79443506D01*
X154652631Y-79443506D02*
X154685964Y-79410173D01*
X154685964Y-79410173D02*
X154752631Y-79376840D01*
X154752631Y-79376840D02*
X154919298Y-79376840D01*
X154919298Y-79376840D02*
X154985964Y-79410173D01*
X154985964Y-79410173D02*
X155019298Y-79443506D01*
X155019298Y-79443506D02*
X155052631Y-79510173D01*
X155052631Y-79510173D02*
X155052631Y-79676840D01*
X155052631Y-79676840D02*
X155019298Y-79743506D01*
X155019298Y-79743506D02*
X154985964Y-79776840D01*
X154985964Y-79776840D02*
X154919298Y-79810173D01*
X154919298Y-79810173D02*
X154752631Y-79810173D01*
X154752631Y-79810173D02*
X154685964Y-79776840D01*
X154685964Y-79776840D02*
X154652631Y-79743506D01*
X155235964Y-79176840D02*
X155269297Y-79143506D01*
X155269297Y-79143506D02*
X155335964Y-79110173D01*
X155335964Y-79110173D02*
X155502631Y-79110173D01*
X155502631Y-79110173D02*
X155569297Y-79143506D01*
X155569297Y-79143506D02*
X155602631Y-79176840D01*
X155602631Y-79176840D02*
X155635964Y-79243506D01*
X155635964Y-79243506D02*
X155635964Y-79310173D01*
X155635964Y-79310173D02*
X155602631Y-79410173D01*
X155602631Y-79410173D02*
X155202631Y-79810173D01*
X155202631Y-79810173D02*
X155635964Y-79810173D01*
X156235964Y-79110173D02*
X156102631Y-79110173D01*
X156102631Y-79110173D02*
X156035964Y-79143506D01*
X156035964Y-79143506D02*
X156002631Y-79176840D01*
X156002631Y-79176840D02*
X155935964Y-79276840D01*
X155935964Y-79276840D02*
X155902631Y-79410173D01*
X155902631Y-79410173D02*
X155902631Y-79676840D01*
X155902631Y-79676840D02*
X155935964Y-79743506D01*
X155935964Y-79743506D02*
X155969298Y-79776840D01*
X155969298Y-79776840D02*
X156035964Y-79810173D01*
X156035964Y-79810173D02*
X156169298Y-79810173D01*
X156169298Y-79810173D02*
X156235964Y-79776840D01*
X156235964Y-79776840D02*
X156269298Y-79743506D01*
X156269298Y-79743506D02*
X156302631Y-79676840D01*
X156302631Y-79676840D02*
X156302631Y-79510173D01*
X156302631Y-79510173D02*
X156269298Y-79443506D01*
X156269298Y-79443506D02*
X156235964Y-79410173D01*
X156235964Y-79410173D02*
X156169298Y-79376840D01*
X156169298Y-79376840D02*
X156035964Y-79376840D01*
X156035964Y-79376840D02*
X155969298Y-79410173D01*
X155969298Y-79410173D02*
X155935964Y-79443506D01*
X155935964Y-79443506D02*
X155902631Y-79510173D01*
X156435964Y-79176840D02*
X156469297Y-79143506D01*
X156469297Y-79143506D02*
X156535964Y-79110173D01*
X156535964Y-79110173D02*
X156702631Y-79110173D01*
X156702631Y-79110173D02*
X156769297Y-79143506D01*
X156769297Y-79143506D02*
X156802631Y-79176840D01*
X156802631Y-79176840D02*
X156835964Y-79243506D01*
X156835964Y-79243506D02*
X156835964Y-79310173D01*
X156835964Y-79310173D02*
X156802631Y-79410173D01*
X156802631Y-79410173D02*
X156402631Y-79810173D01*
X156402631Y-79810173D02*
X156835964Y-79810173D01*
X157069298Y-79110173D02*
X157535964Y-79110173D01*
X157535964Y-79110173D02*
X157235964Y-79810173D01*
X157785964Y-79176840D02*
X157819297Y-79143506D01*
X157819297Y-79143506D02*
X157885964Y-79110173D01*
X157885964Y-79110173D02*
X158052631Y-79110173D01*
X158052631Y-79110173D02*
X158119297Y-79143506D01*
X158119297Y-79143506D02*
X158152631Y-79176840D01*
X158152631Y-79176840D02*
X158185964Y-79243506D01*
X158185964Y-79243506D02*
X158185964Y-79310173D01*
X158185964Y-79310173D02*
X158152631Y-79410173D01*
X158152631Y-79410173D02*
X157752631Y-79810173D01*
X157752631Y-79810173D02*
X158185964Y-79810173D01*
X158585964Y-79410173D02*
X158519298Y-79376840D01*
X158519298Y-79376840D02*
X158485964Y-79343506D01*
X158485964Y-79343506D02*
X158452631Y-79276840D01*
X158452631Y-79276840D02*
X158452631Y-79243506D01*
X158452631Y-79243506D02*
X158485964Y-79176840D01*
X158485964Y-79176840D02*
X158519298Y-79143506D01*
X158519298Y-79143506D02*
X158585964Y-79110173D01*
X158585964Y-79110173D02*
X158719298Y-79110173D01*
X158719298Y-79110173D02*
X158785964Y-79143506D01*
X158785964Y-79143506D02*
X158819298Y-79176840D01*
X158819298Y-79176840D02*
X158852631Y-79243506D01*
X158852631Y-79243506D02*
X158852631Y-79276840D01*
X158852631Y-79276840D02*
X158819298Y-79343506D01*
X158819298Y-79343506D02*
X158785964Y-79376840D01*
X158785964Y-79376840D02*
X158719298Y-79410173D01*
X158719298Y-79410173D02*
X158585964Y-79410173D01*
X158585964Y-79410173D02*
X158519298Y-79443506D01*
X158519298Y-79443506D02*
X158485964Y-79476840D01*
X158485964Y-79476840D02*
X158452631Y-79543506D01*
X158452631Y-79543506D02*
X158452631Y-79676840D01*
X158452631Y-79676840D02*
X158485964Y-79743506D01*
X158485964Y-79743506D02*
X158519298Y-79776840D01*
X158519298Y-79776840D02*
X158585964Y-79810173D01*
X158585964Y-79810173D02*
X158719298Y-79810173D01*
X158719298Y-79810173D02*
X158785964Y-79776840D01*
X158785964Y-79776840D02*
X158819298Y-79743506D01*
X158819298Y-79743506D02*
X158852631Y-79676840D01*
X158852631Y-79676840D02*
X158852631Y-79543506D01*
X158852631Y-79543506D02*
X158819298Y-79476840D01*
X158819298Y-79476840D02*
X158785964Y-79443506D01*
X158785964Y-79443506D02*
X158719298Y-79410173D01*
X159035964Y-79176840D02*
X159069297Y-79143506D01*
X159069297Y-79143506D02*
X159135964Y-79110173D01*
X159135964Y-79110173D02*
X159302631Y-79110173D01*
X159302631Y-79110173D02*
X159369297Y-79143506D01*
X159369297Y-79143506D02*
X159402631Y-79176840D01*
X159402631Y-79176840D02*
X159435964Y-79243506D01*
X159435964Y-79243506D02*
X159435964Y-79310173D01*
X159435964Y-79310173D02*
X159402631Y-79410173D01*
X159402631Y-79410173D02*
X159002631Y-79810173D01*
X159002631Y-79810173D02*
X159435964Y-79810173D01*
X159769298Y-79810173D02*
X159902631Y-79810173D01*
X159902631Y-79810173D02*
X159969298Y-79776840D01*
X159969298Y-79776840D02*
X160002631Y-79743506D01*
X160002631Y-79743506D02*
X160069298Y-79643506D01*
X160069298Y-79643506D02*
X160102631Y-79510173D01*
X160102631Y-79510173D02*
X160102631Y-79243506D01*
X160102631Y-79243506D02*
X160069298Y-79176840D01*
X160069298Y-79176840D02*
X160035964Y-79143506D01*
X160035964Y-79143506D02*
X159969298Y-79110173D01*
X159969298Y-79110173D02*
X159835964Y-79110173D01*
X159835964Y-79110173D02*
X159769298Y-79143506D01*
X159769298Y-79143506D02*
X159735964Y-79176840D01*
X159735964Y-79176840D02*
X159702631Y-79243506D01*
X159702631Y-79243506D02*
X159702631Y-79410173D01*
X159702631Y-79410173D02*
X159735964Y-79476840D01*
X159735964Y-79476840D02*
X159769298Y-79510173D01*
X159769298Y-79510173D02*
X159835964Y-79543506D01*
X159835964Y-79543506D02*
X159969298Y-79543506D01*
X159969298Y-79543506D02*
X160035964Y-79510173D01*
X160035964Y-79510173D02*
X160069298Y-79476840D01*
X160069298Y-79476840D02*
X160102631Y-79410173D01*
X159885964Y-66150173D02*
X160219297Y-66150173D01*
X159819297Y-66350173D02*
X160052631Y-65650173D01*
X160052631Y-65650173D02*
X160285964Y-66350173D01*
X160652631Y-65650173D02*
X160719297Y-65650173D01*
X160719297Y-65650173D02*
X160785964Y-65683506D01*
X160785964Y-65683506D02*
X160819297Y-65716840D01*
X160819297Y-65716840D02*
X160852631Y-65783506D01*
X160852631Y-65783506D02*
X160885964Y-65916840D01*
X160885964Y-65916840D02*
X160885964Y-66083506D01*
X160885964Y-66083506D02*
X160852631Y-66216840D01*
X160852631Y-66216840D02*
X160819297Y-66283506D01*
X160819297Y-66283506D02*
X160785964Y-66316840D01*
X160785964Y-66316840D02*
X160719297Y-66350173D01*
X160719297Y-66350173D02*
X160652631Y-66350173D01*
X160652631Y-66350173D02*
X160585964Y-66316840D01*
X160585964Y-66316840D02*
X160552631Y-66283506D01*
X160552631Y-66283506D02*
X160519297Y-66216840D01*
X160519297Y-66216840D02*
X160485964Y-66083506D01*
X160485964Y-66083506D02*
X160485964Y-65916840D01*
X160485964Y-65916840D02*
X160519297Y-65783506D01*
X160519297Y-65783506D02*
X160552631Y-65716840D01*
X160552631Y-65716840D02*
X160585964Y-65683506D01*
X160585964Y-65683506D02*
X160652631Y-65650173D01*
X160252631Y-79110173D02*
X160685964Y-79110173D01*
X160685964Y-79110173D02*
X160452631Y-79376840D01*
X160452631Y-79376840D02*
X160552631Y-79376840D01*
X160552631Y-79376840D02*
X160619297Y-79410173D01*
X160619297Y-79410173D02*
X160652631Y-79443506D01*
X160652631Y-79443506D02*
X160685964Y-79510173D01*
X160685964Y-79510173D02*
X160685964Y-79676840D01*
X160685964Y-79676840D02*
X160652631Y-79743506D01*
X160652631Y-79743506D02*
X160619297Y-79776840D01*
X160619297Y-79776840D02*
X160552631Y-79810173D01*
X160552631Y-79810173D02*
X160352631Y-79810173D01*
X160352631Y-79810173D02*
X160285964Y-79776840D01*
X160285964Y-79776840D02*
X160252631Y-79743506D01*
X161119298Y-79110173D02*
X161185964Y-79110173D01*
X161185964Y-79110173D02*
X161252631Y-79143506D01*
X161252631Y-79143506D02*
X161285964Y-79176840D01*
X161285964Y-79176840D02*
X161319298Y-79243506D01*
X161319298Y-79243506D02*
X161352631Y-79376840D01*
X161352631Y-79376840D02*
X161352631Y-79543506D01*
X161352631Y-79543506D02*
X161319298Y-79676840D01*
X161319298Y-79676840D02*
X161285964Y-79743506D01*
X161285964Y-79743506D02*
X161252631Y-79776840D01*
X161252631Y-79776840D02*
X161185964Y-79810173D01*
X161185964Y-79810173D02*
X161119298Y-79810173D01*
X161119298Y-79810173D02*
X161052631Y-79776840D01*
X161052631Y-79776840D02*
X161019298Y-79743506D01*
X161019298Y-79743506D02*
X160985964Y-79676840D01*
X160985964Y-79676840D02*
X160952631Y-79543506D01*
X160952631Y-79543506D02*
X160952631Y-79376840D01*
X160952631Y-79376840D02*
X160985964Y-79243506D01*
X160985964Y-79243506D02*
X161019298Y-79176840D01*
X161019298Y-79176840D02*
X161052631Y-79143506D01*
X161052631Y-79143506D02*
X161119298Y-79110173D01*
X161752631Y-69480173D02*
X162185964Y-69480173D01*
X162185964Y-69480173D02*
X161952631Y-69746840D01*
X161952631Y-69746840D02*
X162052631Y-69746840D01*
X162052631Y-69746840D02*
X162119297Y-69780173D01*
X162119297Y-69780173D02*
X162152631Y-69813506D01*
X162152631Y-69813506D02*
X162185964Y-69880173D01*
X162185964Y-69880173D02*
X162185964Y-70046840D01*
X162185964Y-70046840D02*
X162152631Y-70113506D01*
X162152631Y-70113506D02*
X162119297Y-70146840D01*
X162119297Y-70146840D02*
X162052631Y-70180173D01*
X162052631Y-70180173D02*
X161852631Y-70180173D01*
X161852631Y-70180173D02*
X161785964Y-70146840D01*
X161785964Y-70146840D02*
X161752631Y-70113506D01*
X162419298Y-69480173D02*
X162885964Y-69480173D01*
X162885964Y-69480173D02*
X162585964Y-70180173D01*
X161752631Y-73300173D02*
X162185964Y-73300173D01*
X162185964Y-73300173D02*
X161952631Y-73566840D01*
X161952631Y-73566840D02*
X162052631Y-73566840D01*
X162052631Y-73566840D02*
X162119297Y-73600173D01*
X162119297Y-73600173D02*
X162152631Y-73633506D01*
X162152631Y-73633506D02*
X162185964Y-73700173D01*
X162185964Y-73700173D02*
X162185964Y-73866840D01*
X162185964Y-73866840D02*
X162152631Y-73933506D01*
X162152631Y-73933506D02*
X162119297Y-73966840D01*
X162119297Y-73966840D02*
X162052631Y-74000173D01*
X162052631Y-74000173D02*
X161852631Y-74000173D01*
X161852631Y-74000173D02*
X161785964Y-73966840D01*
X161785964Y-73966840D02*
X161752631Y-73933506D01*
X162785964Y-73533506D02*
X162785964Y-74000173D01*
X162619298Y-73266840D02*
X162452631Y-73766840D01*
X162452631Y-73766840D02*
X162885964Y-73766840D01*
X161835964Y-61090173D02*
X162169297Y-61090173D01*
X161769297Y-61290173D02*
X162002631Y-60590173D01*
X162002631Y-60590173D02*
X162235964Y-61290173D01*
X162769297Y-60823506D02*
X162769297Y-61290173D01*
X162602631Y-60556840D02*
X162435964Y-61056840D01*
X162435964Y-61056840D02*
X162869297Y-61056840D01*
X161802631Y-68210173D02*
X162235964Y-68210173D01*
X162235964Y-68210173D02*
X162002631Y-68476840D01*
X162002631Y-68476840D02*
X162102631Y-68476840D01*
X162102631Y-68476840D02*
X162169297Y-68510173D01*
X162169297Y-68510173D02*
X162202631Y-68543506D01*
X162202631Y-68543506D02*
X162235964Y-68610173D01*
X162235964Y-68610173D02*
X162235964Y-68776840D01*
X162235964Y-68776840D02*
X162202631Y-68843506D01*
X162202631Y-68843506D02*
X162169297Y-68876840D01*
X162169297Y-68876840D02*
X162102631Y-68910173D01*
X162102631Y-68910173D02*
X161902631Y-68910173D01*
X161902631Y-68910173D02*
X161835964Y-68876840D01*
X161835964Y-68876840D02*
X161802631Y-68843506D01*
X162635964Y-68510173D02*
X162569298Y-68476840D01*
X162569298Y-68476840D02*
X162535964Y-68443506D01*
X162535964Y-68443506D02*
X162502631Y-68376840D01*
X162502631Y-68376840D02*
X162502631Y-68343506D01*
X162502631Y-68343506D02*
X162535964Y-68276840D01*
X162535964Y-68276840D02*
X162569298Y-68243506D01*
X162569298Y-68243506D02*
X162635964Y-68210173D01*
X162635964Y-68210173D02*
X162769298Y-68210173D01*
X162769298Y-68210173D02*
X162835964Y-68243506D01*
X162835964Y-68243506D02*
X162869298Y-68276840D01*
X162869298Y-68276840D02*
X162902631Y-68343506D01*
X162902631Y-68343506D02*
X162902631Y-68376840D01*
X162902631Y-68376840D02*
X162869298Y-68443506D01*
X162869298Y-68443506D02*
X162835964Y-68476840D01*
X162835964Y-68476840D02*
X162769298Y-68510173D01*
X162769298Y-68510173D02*
X162635964Y-68510173D01*
X162635964Y-68510173D02*
X162569298Y-68543506D01*
X162569298Y-68543506D02*
X162535964Y-68576840D01*
X162535964Y-68576840D02*
X162502631Y-68643506D01*
X162502631Y-68643506D02*
X162502631Y-68776840D01*
X162502631Y-68776840D02*
X162535964Y-68843506D01*
X162535964Y-68843506D02*
X162569298Y-68876840D01*
X162569298Y-68876840D02*
X162635964Y-68910173D01*
X162635964Y-68910173D02*
X162769298Y-68910173D01*
X162769298Y-68910173D02*
X162835964Y-68876840D01*
X162835964Y-68876840D02*
X162869298Y-68843506D01*
X162869298Y-68843506D02*
X162902631Y-68776840D01*
X162902631Y-68776840D02*
X162902631Y-68643506D01*
X162902631Y-68643506D02*
X162869298Y-68576840D01*
X162869298Y-68576840D02*
X162835964Y-68543506D01*
X162835964Y-68543506D02*
X162769298Y-68510173D01*
X161802631Y-70750173D02*
X162235964Y-70750173D01*
X162235964Y-70750173D02*
X162002631Y-71016840D01*
X162002631Y-71016840D02*
X162102631Y-71016840D01*
X162102631Y-71016840D02*
X162169297Y-71050173D01*
X162169297Y-71050173D02*
X162202631Y-71083506D01*
X162202631Y-71083506D02*
X162235964Y-71150173D01*
X162235964Y-71150173D02*
X162235964Y-71316840D01*
X162235964Y-71316840D02*
X162202631Y-71383506D01*
X162202631Y-71383506D02*
X162169297Y-71416840D01*
X162169297Y-71416840D02*
X162102631Y-71450173D01*
X162102631Y-71450173D02*
X161902631Y-71450173D01*
X161902631Y-71450173D02*
X161835964Y-71416840D01*
X161835964Y-71416840D02*
X161802631Y-71383506D01*
X162835964Y-70750173D02*
X162702631Y-70750173D01*
X162702631Y-70750173D02*
X162635964Y-70783506D01*
X162635964Y-70783506D02*
X162602631Y-70816840D01*
X162602631Y-70816840D02*
X162535964Y-70916840D01*
X162535964Y-70916840D02*
X162502631Y-71050173D01*
X162502631Y-71050173D02*
X162502631Y-71316840D01*
X162502631Y-71316840D02*
X162535964Y-71383506D01*
X162535964Y-71383506D02*
X162569298Y-71416840D01*
X162569298Y-71416840D02*
X162635964Y-71450173D01*
X162635964Y-71450173D02*
X162769298Y-71450173D01*
X162769298Y-71450173D02*
X162835964Y-71416840D01*
X162835964Y-71416840D02*
X162869298Y-71383506D01*
X162869298Y-71383506D02*
X162902631Y-71316840D01*
X162902631Y-71316840D02*
X162902631Y-71150173D01*
X162902631Y-71150173D02*
X162869298Y-71083506D01*
X162869298Y-71083506D02*
X162835964Y-71050173D01*
X162835964Y-71050173D02*
X162769298Y-71016840D01*
X162769298Y-71016840D02*
X162635964Y-71016840D01*
X162635964Y-71016840D02*
X162569298Y-71050173D01*
X162569298Y-71050173D02*
X162535964Y-71083506D01*
X162535964Y-71083506D02*
X162502631Y-71150173D01*
X161802631Y-72000173D02*
X162235964Y-72000173D01*
X162235964Y-72000173D02*
X162002631Y-72266840D01*
X162002631Y-72266840D02*
X162102631Y-72266840D01*
X162102631Y-72266840D02*
X162169297Y-72300173D01*
X162169297Y-72300173D02*
X162202631Y-72333506D01*
X162202631Y-72333506D02*
X162235964Y-72400173D01*
X162235964Y-72400173D02*
X162235964Y-72566840D01*
X162235964Y-72566840D02*
X162202631Y-72633506D01*
X162202631Y-72633506D02*
X162169297Y-72666840D01*
X162169297Y-72666840D02*
X162102631Y-72700173D01*
X162102631Y-72700173D02*
X161902631Y-72700173D01*
X161902631Y-72700173D02*
X161835964Y-72666840D01*
X161835964Y-72666840D02*
X161802631Y-72633506D01*
X162869298Y-72000173D02*
X162535964Y-72000173D01*
X162535964Y-72000173D02*
X162502631Y-72333506D01*
X162502631Y-72333506D02*
X162535964Y-72300173D01*
X162535964Y-72300173D02*
X162602631Y-72266840D01*
X162602631Y-72266840D02*
X162769298Y-72266840D01*
X162769298Y-72266840D02*
X162835964Y-72300173D01*
X162835964Y-72300173D02*
X162869298Y-72333506D01*
X162869298Y-72333506D02*
X162902631Y-72400173D01*
X162902631Y-72400173D02*
X162902631Y-72566840D01*
X162902631Y-72566840D02*
X162869298Y-72633506D01*
X162869298Y-72633506D02*
X162835964Y-72666840D01*
X162835964Y-72666840D02*
X162769298Y-72700173D01*
X162769298Y-72700173D02*
X162602631Y-72700173D01*
X162602631Y-72700173D02*
X162535964Y-72666840D01*
X162535964Y-72666840D02*
X162502631Y-72633506D01*
X161802631Y-74560173D02*
X162235964Y-74560173D01*
X162235964Y-74560173D02*
X162002631Y-74826840D01*
X162002631Y-74826840D02*
X162102631Y-74826840D01*
X162102631Y-74826840D02*
X162169297Y-74860173D01*
X162169297Y-74860173D02*
X162202631Y-74893506D01*
X162202631Y-74893506D02*
X162235964Y-74960173D01*
X162235964Y-74960173D02*
X162235964Y-75126840D01*
X162235964Y-75126840D02*
X162202631Y-75193506D01*
X162202631Y-75193506D02*
X162169297Y-75226840D01*
X162169297Y-75226840D02*
X162102631Y-75260173D01*
X162102631Y-75260173D02*
X161902631Y-75260173D01*
X161902631Y-75260173D02*
X161835964Y-75226840D01*
X161835964Y-75226840D02*
X161802631Y-75193506D01*
X162469298Y-74560173D02*
X162902631Y-74560173D01*
X162902631Y-74560173D02*
X162669298Y-74826840D01*
X162669298Y-74826840D02*
X162769298Y-74826840D01*
X162769298Y-74826840D02*
X162835964Y-74860173D01*
X162835964Y-74860173D02*
X162869298Y-74893506D01*
X162869298Y-74893506D02*
X162902631Y-74960173D01*
X162902631Y-74960173D02*
X162902631Y-75126840D01*
X162902631Y-75126840D02*
X162869298Y-75193506D01*
X162869298Y-75193506D02*
X162835964Y-75226840D01*
X162835964Y-75226840D02*
X162769298Y-75260173D01*
X162769298Y-75260173D02*
X162569298Y-75260173D01*
X162569298Y-75260173D02*
X162502631Y-75226840D01*
X162502631Y-75226840D02*
X162469298Y-75193506D01*
X161885964Y-57260173D02*
X162219297Y-57260173D01*
X161819297Y-57460173D02*
X162052631Y-56760173D01*
X162052631Y-56760173D02*
X162285964Y-57460173D01*
X162452631Y-56760173D02*
X162919297Y-56760173D01*
X162919297Y-56760173D02*
X162619297Y-57460173D01*
X161885964Y-58550173D02*
X162219297Y-58550173D01*
X161819297Y-58750173D02*
X162052631Y-58050173D01*
X162052631Y-58050173D02*
X162285964Y-58750173D01*
X162819297Y-58050173D02*
X162685964Y-58050173D01*
X162685964Y-58050173D02*
X162619297Y-58083506D01*
X162619297Y-58083506D02*
X162585964Y-58116840D01*
X162585964Y-58116840D02*
X162519297Y-58216840D01*
X162519297Y-58216840D02*
X162485964Y-58350173D01*
X162485964Y-58350173D02*
X162485964Y-58616840D01*
X162485964Y-58616840D02*
X162519297Y-58683506D01*
X162519297Y-58683506D02*
X162552631Y-58716840D01*
X162552631Y-58716840D02*
X162619297Y-58750173D01*
X162619297Y-58750173D02*
X162752631Y-58750173D01*
X162752631Y-58750173D02*
X162819297Y-58716840D01*
X162819297Y-58716840D02*
X162852631Y-58683506D01*
X162852631Y-58683506D02*
X162885964Y-58616840D01*
X162885964Y-58616840D02*
X162885964Y-58450173D01*
X162885964Y-58450173D02*
X162852631Y-58383506D01*
X162852631Y-58383506D02*
X162819297Y-58350173D01*
X162819297Y-58350173D02*
X162752631Y-58316840D01*
X162752631Y-58316840D02*
X162619297Y-58316840D01*
X162619297Y-58316840D02*
X162552631Y-58350173D01*
X162552631Y-58350173D02*
X162519297Y-58383506D01*
X162519297Y-58383506D02*
X162485964Y-58450173D01*
X161885964Y-59820173D02*
X162219297Y-59820173D01*
X161819297Y-60020173D02*
X162052631Y-59320173D01*
X162052631Y-59320173D02*
X162285964Y-60020173D01*
X162852631Y-59320173D02*
X162519297Y-59320173D01*
X162519297Y-59320173D02*
X162485964Y-59653506D01*
X162485964Y-59653506D02*
X162519297Y-59620173D01*
X162519297Y-59620173D02*
X162585964Y-59586840D01*
X162585964Y-59586840D02*
X162752631Y-59586840D01*
X162752631Y-59586840D02*
X162819297Y-59620173D01*
X162819297Y-59620173D02*
X162852631Y-59653506D01*
X162852631Y-59653506D02*
X162885964Y-59720173D01*
X162885964Y-59720173D02*
X162885964Y-59886840D01*
X162885964Y-59886840D02*
X162852631Y-59953506D01*
X162852631Y-59953506D02*
X162819297Y-59986840D01*
X162819297Y-59986840D02*
X162752631Y-60020173D01*
X162752631Y-60020173D02*
X162585964Y-60020173D01*
X162585964Y-60020173D02*
X162519297Y-59986840D01*
X162519297Y-59986840D02*
X162485964Y-59953506D01*
X161885964Y-62360173D02*
X162219297Y-62360173D01*
X161819297Y-62560173D02*
X162052631Y-61860173D01*
X162052631Y-61860173D02*
X162285964Y-62560173D01*
X162452631Y-61860173D02*
X162885964Y-61860173D01*
X162885964Y-61860173D02*
X162652631Y-62126840D01*
X162652631Y-62126840D02*
X162752631Y-62126840D01*
X162752631Y-62126840D02*
X162819297Y-62160173D01*
X162819297Y-62160173D02*
X162852631Y-62193506D01*
X162852631Y-62193506D02*
X162885964Y-62260173D01*
X162885964Y-62260173D02*
X162885964Y-62426840D01*
X162885964Y-62426840D02*
X162852631Y-62493506D01*
X162852631Y-62493506D02*
X162819297Y-62526840D01*
X162819297Y-62526840D02*
X162752631Y-62560173D01*
X162752631Y-62560173D02*
X162552631Y-62560173D01*
X162552631Y-62560173D02*
X162485964Y-62526840D01*
X162485964Y-62526840D02*
X162452631Y-62493506D01*
X161885964Y-63630173D02*
X162219297Y-63630173D01*
X161819297Y-63830173D02*
X162052631Y-63130173D01*
X162052631Y-63130173D02*
X162285964Y-63830173D01*
X162485964Y-63196840D02*
X162519297Y-63163506D01*
X162519297Y-63163506D02*
X162585964Y-63130173D01*
X162585964Y-63130173D02*
X162752631Y-63130173D01*
X162752631Y-63130173D02*
X162819297Y-63163506D01*
X162819297Y-63163506D02*
X162852631Y-63196840D01*
X162852631Y-63196840D02*
X162885964Y-63263506D01*
X162885964Y-63263506D02*
X162885964Y-63330173D01*
X162885964Y-63330173D02*
X162852631Y-63430173D01*
X162852631Y-63430173D02*
X162452631Y-63830173D01*
X162452631Y-63830173D02*
X162885964Y-63830173D01*
X161885964Y-64900173D02*
X162219297Y-64900173D01*
X161819297Y-65100173D02*
X162052631Y-64400173D01*
X162052631Y-64400173D02*
X162285964Y-65100173D01*
X162885964Y-65100173D02*
X162485964Y-65100173D01*
X162685964Y-65100173D02*
X162685964Y-64400173D01*
X162685964Y-64400173D02*
X162619297Y-64500173D01*
X162619297Y-64500173D02*
X162552631Y-64566840D01*
X162552631Y-64566840D02*
X162485964Y-64600173D01*
X161852631Y-67010173D02*
X162285964Y-67010173D01*
X162285964Y-67010173D02*
X162052631Y-67276840D01*
X162052631Y-67276840D02*
X162152631Y-67276840D01*
X162152631Y-67276840D02*
X162219297Y-67310173D01*
X162219297Y-67310173D02*
X162252631Y-67343506D01*
X162252631Y-67343506D02*
X162285964Y-67410173D01*
X162285964Y-67410173D02*
X162285964Y-67576840D01*
X162285964Y-67576840D02*
X162252631Y-67643506D01*
X162252631Y-67643506D02*
X162219297Y-67676840D01*
X162219297Y-67676840D02*
X162152631Y-67710173D01*
X162152631Y-67710173D02*
X161952631Y-67710173D01*
X161952631Y-67710173D02*
X161885964Y-67676840D01*
X161885964Y-67676840D02*
X161852631Y-67643506D01*
X162619298Y-67710173D02*
X162752631Y-67710173D01*
X162752631Y-67710173D02*
X162819298Y-67676840D01*
X162819298Y-67676840D02*
X162852631Y-67643506D01*
X162852631Y-67643506D02*
X162919298Y-67543506D01*
X162919298Y-67543506D02*
X162952631Y-67410173D01*
X162952631Y-67410173D02*
X162952631Y-67143506D01*
X162952631Y-67143506D02*
X162919298Y-67076840D01*
X162919298Y-67076840D02*
X162885964Y-67043506D01*
X162885964Y-67043506D02*
X162819298Y-67010173D01*
X162819298Y-67010173D02*
X162685964Y-67010173D01*
X162685964Y-67010173D02*
X162619298Y-67043506D01*
X162619298Y-67043506D02*
X162585964Y-67076840D01*
X162585964Y-67076840D02*
X162552631Y-67143506D01*
X162552631Y-67143506D02*
X162552631Y-67310173D01*
X162552631Y-67310173D02*
X162585964Y-67376840D01*
X162585964Y-67376840D02*
X162619298Y-67410173D01*
X162619298Y-67410173D02*
X162685964Y-67443506D01*
X162685964Y-67443506D02*
X162819298Y-67443506D01*
X162819298Y-67443506D02*
X162885964Y-67410173D01*
X162885964Y-67410173D02*
X162919298Y-67376840D01*
X162919298Y-67376840D02*
X162952631Y-67310173D01*
X162302631Y-55510173D02*
X161969297Y-55510173D01*
X161969297Y-55510173D02*
X161935964Y-55843506D01*
X161935964Y-55843506D02*
X161969297Y-55810173D01*
X161969297Y-55810173D02*
X162035964Y-55776840D01*
X162035964Y-55776840D02*
X162202631Y-55776840D01*
X162202631Y-55776840D02*
X162269297Y-55810173D01*
X162269297Y-55810173D02*
X162302631Y-55843506D01*
X162302631Y-55843506D02*
X162335964Y-55910173D01*
X162335964Y-55910173D02*
X162335964Y-56076840D01*
X162335964Y-56076840D02*
X162302631Y-56143506D01*
X162302631Y-56143506D02*
X162269297Y-56176840D01*
X162269297Y-56176840D02*
X162202631Y-56210173D01*
X162202631Y-56210173D02*
X162035964Y-56210173D01*
X162035964Y-56210173D02*
X161969297Y-56176840D01*
X161969297Y-56176840D02*
X161935964Y-56143506D01*
X162569298Y-55743506D02*
X162735964Y-56210173D01*
X162735964Y-56210173D02*
X162902631Y-55743506D01*
X161902631Y-75840173D02*
X162335964Y-75840173D01*
X162335964Y-75840173D02*
X162102631Y-76106840D01*
X162102631Y-76106840D02*
X162202631Y-76106840D01*
X162202631Y-76106840D02*
X162269297Y-76140173D01*
X162269297Y-76140173D02*
X162302631Y-76173506D01*
X162302631Y-76173506D02*
X162335964Y-76240173D01*
X162335964Y-76240173D02*
X162335964Y-76406840D01*
X162335964Y-76406840D02*
X162302631Y-76473506D01*
X162302631Y-76473506D02*
X162269297Y-76506840D01*
X162269297Y-76506840D02*
X162202631Y-76540173D01*
X162202631Y-76540173D02*
X162002631Y-76540173D01*
X162002631Y-76540173D02*
X161935964Y-76506840D01*
X161935964Y-76506840D02*
X161902631Y-76473506D01*
X162602631Y-75906840D02*
X162635964Y-75873506D01*
X162635964Y-75873506D02*
X162702631Y-75840173D01*
X162702631Y-75840173D02*
X162869298Y-75840173D01*
X162869298Y-75840173D02*
X162935964Y-75873506D01*
X162935964Y-75873506D02*
X162969298Y-75906840D01*
X162969298Y-75906840D02*
X163002631Y-75973506D01*
X163002631Y-75973506D02*
X163002631Y-76040173D01*
X163002631Y-76040173D02*
X162969298Y-76140173D01*
X162969298Y-76140173D02*
X162569298Y-76540173D01*
X162569298Y-76540173D02*
X163002631Y-76540173D01*
X161902631Y-77110173D02*
X162335964Y-77110173D01*
X162335964Y-77110173D02*
X162102631Y-77376840D01*
X162102631Y-77376840D02*
X162202631Y-77376840D01*
X162202631Y-77376840D02*
X162269297Y-77410173D01*
X162269297Y-77410173D02*
X162302631Y-77443506D01*
X162302631Y-77443506D02*
X162335964Y-77510173D01*
X162335964Y-77510173D02*
X162335964Y-77676840D01*
X162335964Y-77676840D02*
X162302631Y-77743506D01*
X162302631Y-77743506D02*
X162269297Y-77776840D01*
X162269297Y-77776840D02*
X162202631Y-77810173D01*
X162202631Y-77810173D02*
X162002631Y-77810173D01*
X162002631Y-77810173D02*
X161935964Y-77776840D01*
X161935964Y-77776840D02*
X161902631Y-77743506D01*
X163002631Y-77810173D02*
X162602631Y-77810173D01*
X162802631Y-77810173D02*
X162802631Y-77110173D01*
X162802631Y-77110173D02*
X162735964Y-77210173D01*
X162735964Y-77210173D02*
X162669298Y-77276840D01*
X162669298Y-77276840D02*
X162602631Y-77310173D01*
X162835964Y-54343506D02*
X162769297Y-54310173D01*
X162769297Y-54310173D02*
X162669297Y-54310173D01*
X162669297Y-54310173D02*
X162569297Y-54343506D01*
X162569297Y-54343506D02*
X162502631Y-54410173D01*
X162502631Y-54410173D02*
X162469297Y-54476840D01*
X162469297Y-54476840D02*
X162435964Y-54610173D01*
X162435964Y-54610173D02*
X162435964Y-54710173D01*
X162435964Y-54710173D02*
X162469297Y-54843506D01*
X162469297Y-54843506D02*
X162502631Y-54910173D01*
X162502631Y-54910173D02*
X162569297Y-54976840D01*
X162569297Y-54976840D02*
X162669297Y-55010173D01*
X162669297Y-55010173D02*
X162735964Y-55010173D01*
X162735964Y-55010173D02*
X162835964Y-54976840D01*
X162835964Y-54976840D02*
X162869297Y-54943506D01*
X162869297Y-54943506D02*
X162869297Y-54710173D01*
X162869297Y-54710173D02*
X162735964Y-54710173D01*
D13*
X148206265Y-73196895D02*
X148206265Y-72396895D01*
X148206265Y-72396895D02*
X148396741Y-72396895D01*
X148396741Y-72396895D02*
X148511027Y-72434990D01*
X148511027Y-72434990D02*
X148587217Y-72511180D01*
X148587217Y-72511180D02*
X148625312Y-72587371D01*
X148625312Y-72587371D02*
X148663408Y-72739752D01*
X148663408Y-72739752D02*
X148663408Y-72854038D01*
X148663408Y-72854038D02*
X148625312Y-73006419D01*
X148625312Y-73006419D02*
X148587217Y-73082609D01*
X148587217Y-73082609D02*
X148511027Y-73158800D01*
X148511027Y-73158800D02*
X148396741Y-73196895D01*
X148396741Y-73196895D02*
X148206265Y-73196895D01*
X149006265Y-73196895D02*
X149006265Y-72396895D01*
X149539598Y-72396895D02*
X149691979Y-72396895D01*
X149691979Y-72396895D02*
X149768169Y-72434990D01*
X149768169Y-72434990D02*
X149844360Y-72511180D01*
X149844360Y-72511180D02*
X149882455Y-72663561D01*
X149882455Y-72663561D02*
X149882455Y-72930228D01*
X149882455Y-72930228D02*
X149844360Y-73082609D01*
X149844360Y-73082609D02*
X149768169Y-73158800D01*
X149768169Y-73158800D02*
X149691979Y-73196895D01*
X149691979Y-73196895D02*
X149539598Y-73196895D01*
X149539598Y-73196895D02*
X149463407Y-73158800D01*
X149463407Y-73158800D02*
X149387217Y-73082609D01*
X149387217Y-73082609D02*
X149349121Y-72930228D01*
X149349121Y-72930228D02*
X149349121Y-72663561D01*
X149349121Y-72663561D02*
X149387217Y-72511180D01*
X149387217Y-72511180D02*
X149463407Y-72434990D01*
X149463407Y-72434990D02*
X149539598Y-72396895D01*
X149975312Y-78034990D02*
X149899122Y-77996895D01*
X149899122Y-77996895D02*
X149784836Y-77996895D01*
X149784836Y-77996895D02*
X149670550Y-78034990D01*
X149670550Y-78034990D02*
X149594360Y-78111180D01*
X149594360Y-78111180D02*
X149556265Y-78187371D01*
X149556265Y-78187371D02*
X149518169Y-78339752D01*
X149518169Y-78339752D02*
X149518169Y-78454038D01*
X149518169Y-78454038D02*
X149556265Y-78606419D01*
X149556265Y-78606419D02*
X149594360Y-78682609D01*
X149594360Y-78682609D02*
X149670550Y-78758800D01*
X149670550Y-78758800D02*
X149784836Y-78796895D01*
X149784836Y-78796895D02*
X149861027Y-78796895D01*
X149861027Y-78796895D02*
X149975312Y-78758800D01*
X149975312Y-78758800D02*
X150013408Y-78720704D01*
X150013408Y-78720704D02*
X150013408Y-78454038D01*
X150013408Y-78454038D02*
X149861027Y-78454038D01*
X150213408Y-76670704D02*
X150175312Y-76708800D01*
X150175312Y-76708800D02*
X150061027Y-76746895D01*
X150061027Y-76746895D02*
X149984836Y-76746895D01*
X149984836Y-76746895D02*
X149870550Y-76708800D01*
X149870550Y-76708800D02*
X149794360Y-76632609D01*
X149794360Y-76632609D02*
X149756265Y-76556419D01*
X149756265Y-76556419D02*
X149718169Y-76404038D01*
X149718169Y-76404038D02*
X149718169Y-76289752D01*
X149718169Y-76289752D02*
X149756265Y-76137371D01*
X149756265Y-76137371D02*
X149794360Y-76061180D01*
X149794360Y-76061180D02*
X149870550Y-75984990D01*
X149870550Y-75984990D02*
X149984836Y-75946895D01*
X149984836Y-75946895D02*
X150061027Y-75946895D01*
X150061027Y-75946895D02*
X150175312Y-75984990D01*
X150175312Y-75984990D02*
X150213408Y-76023085D01*
X150937217Y-76746895D02*
X150556265Y-76746895D01*
X150556265Y-76746895D02*
X150556265Y-75946895D01*
X151203884Y-76746895D02*
X151203884Y-75946895D01*
X151661027Y-76746895D02*
X151318169Y-76289752D01*
X151661027Y-75946895D02*
X151203884Y-76404038D01*
D10*
X159116666Y-56928059D02*
X158878571Y-56928059D01*
X158878571Y-56928059D02*
X158878571Y-56428059D01*
X159545238Y-56928059D02*
X159259524Y-56928059D01*
X159402381Y-56928059D02*
X159402381Y-56428059D01*
X159402381Y-56428059D02*
X159354762Y-56499488D01*
X159354762Y-56499488D02*
X159307143Y-56547107D01*
X159307143Y-56547107D02*
X159259524Y-56570916D01*
X161116666Y-53828059D02*
X160950000Y-53589964D01*
X160830952Y-53828059D02*
X160830952Y-53328059D01*
X160830952Y-53328059D02*
X161021428Y-53328059D01*
X161021428Y-53328059D02*
X161069047Y-53351869D01*
X161069047Y-53351869D02*
X161092857Y-53375678D01*
X161092857Y-53375678D02*
X161116666Y-53423297D01*
X161116666Y-53423297D02*
X161116666Y-53494726D01*
X161116666Y-53494726D02*
X161092857Y-53542345D01*
X161092857Y-53542345D02*
X161069047Y-53566154D01*
X161069047Y-53566154D02*
X161021428Y-53589964D01*
X161021428Y-53589964D02*
X160830952Y-53589964D01*
X161592857Y-53828059D02*
X161307143Y-53828059D01*
X161450000Y-53828059D02*
X161450000Y-53328059D01*
X161450000Y-53328059D02*
X161402381Y-53399488D01*
X161402381Y-53399488D02*
X161354762Y-53447107D01*
X161354762Y-53447107D02*
X161307143Y-53470916D01*
X152666666Y-59978059D02*
X152500000Y-59739964D01*
X152380952Y-59978059D02*
X152380952Y-59478059D01*
X152380952Y-59478059D02*
X152571428Y-59478059D01*
X152571428Y-59478059D02*
X152619047Y-59501869D01*
X152619047Y-59501869D02*
X152642857Y-59525678D01*
X152642857Y-59525678D02*
X152666666Y-59573297D01*
X152666666Y-59573297D02*
X152666666Y-59644726D01*
X152666666Y-59644726D02*
X152642857Y-59692345D01*
X152642857Y-59692345D02*
X152619047Y-59716154D01*
X152619047Y-59716154D02*
X152571428Y-59739964D01*
X152571428Y-59739964D02*
X152380952Y-59739964D01*
X153095238Y-59644726D02*
X153095238Y-59978059D01*
X152976190Y-59454250D02*
X152857143Y-59811392D01*
X152857143Y-59811392D02*
X153166666Y-59811392D01*
X153518665Y-60936516D02*
X153518665Y-60970187D01*
X153518665Y-60970187D02*
X153484993Y-61037531D01*
X153484993Y-61037531D02*
X153451321Y-61071203D01*
X153451321Y-61071203D02*
X153383978Y-61104874D01*
X153383978Y-61104874D02*
X153316634Y-61104874D01*
X153316634Y-61104874D02*
X153266127Y-61088038D01*
X153266127Y-61088038D02*
X153181947Y-61037531D01*
X153181947Y-61037531D02*
X153131440Y-60987023D01*
X153131440Y-60987023D02*
X153080932Y-60902844D01*
X153080932Y-60902844D02*
X153064096Y-60852336D01*
X153064096Y-60852336D02*
X153064096Y-60784993D01*
X153064096Y-60784993D02*
X153097768Y-60717649D01*
X153097768Y-60717649D02*
X153131440Y-60683977D01*
X153131440Y-60683977D02*
X153198783Y-60650306D01*
X153198783Y-60650306D02*
X153232455Y-60650306D01*
X153518665Y-60296752D02*
X153350306Y-60465111D01*
X153350306Y-60465111D02*
X153501829Y-60650306D01*
X153501829Y-60650306D02*
X153501829Y-60616634D01*
X153501829Y-60616634D02*
X153518665Y-60566126D01*
X153518665Y-60566126D02*
X153602844Y-60481947D01*
X153602844Y-60481947D02*
X153653352Y-60465111D01*
X153653352Y-60465111D02*
X153687024Y-60465111D01*
X153687024Y-60465111D02*
X153737531Y-60481947D01*
X153737531Y-60481947D02*
X153821711Y-60566126D01*
X153821711Y-60566126D02*
X153838546Y-60616634D01*
X153838546Y-60616634D02*
X153838546Y-60650306D01*
X153838546Y-60650306D02*
X153821711Y-60700813D01*
X153821711Y-60700813D02*
X153737531Y-60784993D01*
X153737531Y-60784993D02*
X153687024Y-60801829D01*
X153687024Y-60801829D02*
X153653352Y-60801829D01*
X156578571Y-74278059D02*
X156411905Y-74039964D01*
X156292857Y-74278059D02*
X156292857Y-73778059D01*
X156292857Y-73778059D02*
X156483333Y-73778059D01*
X156483333Y-73778059D02*
X156530952Y-73801869D01*
X156530952Y-73801869D02*
X156554762Y-73825678D01*
X156554762Y-73825678D02*
X156578571Y-73873297D01*
X156578571Y-73873297D02*
X156578571Y-73944726D01*
X156578571Y-73944726D02*
X156554762Y-73992345D01*
X156554762Y-73992345D02*
X156530952Y-74016154D01*
X156530952Y-74016154D02*
X156483333Y-74039964D01*
X156483333Y-74039964D02*
X156292857Y-74039964D01*
X157054762Y-74278059D02*
X156769048Y-74278059D01*
X156911905Y-74278059D02*
X156911905Y-73778059D01*
X156911905Y-73778059D02*
X156864286Y-73849488D01*
X156864286Y-73849488D02*
X156816667Y-73897107D01*
X156816667Y-73897107D02*
X156769048Y-73920916D01*
X157364285Y-73778059D02*
X157411904Y-73778059D01*
X157411904Y-73778059D02*
X157459523Y-73801869D01*
X157459523Y-73801869D02*
X157483333Y-73825678D01*
X157483333Y-73825678D02*
X157507142Y-73873297D01*
X157507142Y-73873297D02*
X157530952Y-73968535D01*
X157530952Y-73968535D02*
X157530952Y-74087583D01*
X157530952Y-74087583D02*
X157507142Y-74182821D01*
X157507142Y-74182821D02*
X157483333Y-74230440D01*
X157483333Y-74230440D02*
X157459523Y-74254250D01*
X157459523Y-74254250D02*
X157411904Y-74278059D01*
X157411904Y-74278059D02*
X157364285Y-74278059D01*
X157364285Y-74278059D02*
X157316666Y-74254250D01*
X157316666Y-74254250D02*
X157292857Y-74230440D01*
X157292857Y-74230440D02*
X157269047Y-74182821D01*
X157269047Y-74182821D02*
X157245238Y-74087583D01*
X157245238Y-74087583D02*
X157245238Y-73968535D01*
X157245238Y-73968535D02*
X157269047Y-73873297D01*
X157269047Y-73873297D02*
X157292857Y-73825678D01*
X157292857Y-73825678D02*
X157316666Y-73801869D01*
X157316666Y-73801869D02*
X157364285Y-73778059D01*
X144478571Y-64980440D02*
X144454762Y-65004250D01*
X144454762Y-65004250D02*
X144383333Y-65028059D01*
X144383333Y-65028059D02*
X144335714Y-65028059D01*
X144335714Y-65028059D02*
X144264286Y-65004250D01*
X144264286Y-65004250D02*
X144216667Y-64956630D01*
X144216667Y-64956630D02*
X144192857Y-64909011D01*
X144192857Y-64909011D02*
X144169048Y-64813773D01*
X144169048Y-64813773D02*
X144169048Y-64742345D01*
X144169048Y-64742345D02*
X144192857Y-64647107D01*
X144192857Y-64647107D02*
X144216667Y-64599488D01*
X144216667Y-64599488D02*
X144264286Y-64551869D01*
X144264286Y-64551869D02*
X144335714Y-64528059D01*
X144335714Y-64528059D02*
X144383333Y-64528059D01*
X144383333Y-64528059D02*
X144454762Y-64551869D01*
X144454762Y-64551869D02*
X144478571Y-64575678D01*
X144954762Y-65028059D02*
X144669048Y-65028059D01*
X144811905Y-65028059D02*
X144811905Y-64528059D01*
X144811905Y-64528059D02*
X144764286Y-64599488D01*
X144764286Y-64599488D02*
X144716667Y-64647107D01*
X144716667Y-64647107D02*
X144669048Y-64670916D01*
X145264285Y-64528059D02*
X145311904Y-64528059D01*
X145311904Y-64528059D02*
X145359523Y-64551869D01*
X145359523Y-64551869D02*
X145383333Y-64575678D01*
X145383333Y-64575678D02*
X145407142Y-64623297D01*
X145407142Y-64623297D02*
X145430952Y-64718535D01*
X145430952Y-64718535D02*
X145430952Y-64837583D01*
X145430952Y-64837583D02*
X145407142Y-64932821D01*
X145407142Y-64932821D02*
X145383333Y-64980440D01*
X145383333Y-64980440D02*
X145359523Y-65004250D01*
X145359523Y-65004250D02*
X145311904Y-65028059D01*
X145311904Y-65028059D02*
X145264285Y-65028059D01*
X145264285Y-65028059D02*
X145216666Y-65004250D01*
X145216666Y-65004250D02*
X145192857Y-64980440D01*
X145192857Y-64980440D02*
X145169047Y-64932821D01*
X145169047Y-64932821D02*
X145145238Y-64837583D01*
X145145238Y-64837583D02*
X145145238Y-64718535D01*
X145145238Y-64718535D02*
X145169047Y-64623297D01*
X145169047Y-64623297D02*
X145192857Y-64575678D01*
X145192857Y-64575678D02*
X145216666Y-64551869D01*
X145216666Y-64551869D02*
X145264285Y-64528059D01*
X160478571Y-74380440D02*
X160454762Y-74404250D01*
X160454762Y-74404250D02*
X160383333Y-74428059D01*
X160383333Y-74428059D02*
X160335714Y-74428059D01*
X160335714Y-74428059D02*
X160264286Y-74404250D01*
X160264286Y-74404250D02*
X160216667Y-74356630D01*
X160216667Y-74356630D02*
X160192857Y-74309011D01*
X160192857Y-74309011D02*
X160169048Y-74213773D01*
X160169048Y-74213773D02*
X160169048Y-74142345D01*
X160169048Y-74142345D02*
X160192857Y-74047107D01*
X160192857Y-74047107D02*
X160216667Y-73999488D01*
X160216667Y-73999488D02*
X160264286Y-73951869D01*
X160264286Y-73951869D02*
X160335714Y-73928059D01*
X160335714Y-73928059D02*
X160383333Y-73928059D01*
X160383333Y-73928059D02*
X160454762Y-73951869D01*
X160454762Y-73951869D02*
X160478571Y-73975678D01*
X160954762Y-74428059D02*
X160669048Y-74428059D01*
X160811905Y-74428059D02*
X160811905Y-73928059D01*
X160811905Y-73928059D02*
X160764286Y-73999488D01*
X160764286Y-73999488D02*
X160716667Y-74047107D01*
X160716667Y-74047107D02*
X160669048Y-74070916D01*
X161192857Y-74428059D02*
X161288095Y-74428059D01*
X161288095Y-74428059D02*
X161335714Y-74404250D01*
X161335714Y-74404250D02*
X161359523Y-74380440D01*
X161359523Y-74380440D02*
X161407142Y-74309011D01*
X161407142Y-74309011D02*
X161430952Y-74213773D01*
X161430952Y-74213773D02*
X161430952Y-74023297D01*
X161430952Y-74023297D02*
X161407142Y-73975678D01*
X161407142Y-73975678D02*
X161383333Y-73951869D01*
X161383333Y-73951869D02*
X161335714Y-73928059D01*
X161335714Y-73928059D02*
X161240476Y-73928059D01*
X161240476Y-73928059D02*
X161192857Y-73951869D01*
X161192857Y-73951869D02*
X161169047Y-73975678D01*
X161169047Y-73975678D02*
X161145238Y-74023297D01*
X161145238Y-74023297D02*
X161145238Y-74142345D01*
X161145238Y-74142345D02*
X161169047Y-74189964D01*
X161169047Y-74189964D02*
X161192857Y-74213773D01*
X161192857Y-74213773D02*
X161240476Y-74237583D01*
X161240476Y-74237583D02*
X161335714Y-74237583D01*
X161335714Y-74237583D02*
X161383333Y-74213773D01*
X161383333Y-74213773D02*
X161407142Y-74189964D01*
X161407142Y-74189964D02*
X161430952Y-74142345D01*
X150778571Y-72980440D02*
X150754762Y-73004250D01*
X150754762Y-73004250D02*
X150683333Y-73028059D01*
X150683333Y-73028059D02*
X150635714Y-73028059D01*
X150635714Y-73028059D02*
X150564286Y-73004250D01*
X150564286Y-73004250D02*
X150516667Y-72956630D01*
X150516667Y-72956630D02*
X150492857Y-72909011D01*
X150492857Y-72909011D02*
X150469048Y-72813773D01*
X150469048Y-72813773D02*
X150469048Y-72742345D01*
X150469048Y-72742345D02*
X150492857Y-72647107D01*
X150492857Y-72647107D02*
X150516667Y-72599488D01*
X150516667Y-72599488D02*
X150564286Y-72551869D01*
X150564286Y-72551869D02*
X150635714Y-72528059D01*
X150635714Y-72528059D02*
X150683333Y-72528059D01*
X150683333Y-72528059D02*
X150754762Y-72551869D01*
X150754762Y-72551869D02*
X150778571Y-72575678D01*
X151254762Y-73028059D02*
X150969048Y-73028059D01*
X151111905Y-73028059D02*
X151111905Y-72528059D01*
X151111905Y-72528059D02*
X151064286Y-72599488D01*
X151064286Y-72599488D02*
X151016667Y-72647107D01*
X151016667Y-72647107D02*
X150969048Y-72670916D01*
X151683333Y-72528059D02*
X151588095Y-72528059D01*
X151588095Y-72528059D02*
X151540476Y-72551869D01*
X151540476Y-72551869D02*
X151516666Y-72575678D01*
X151516666Y-72575678D02*
X151469047Y-72647107D01*
X151469047Y-72647107D02*
X151445238Y-72742345D01*
X151445238Y-72742345D02*
X151445238Y-72932821D01*
X151445238Y-72932821D02*
X151469047Y-72980440D01*
X151469047Y-72980440D02*
X151492857Y-73004250D01*
X151492857Y-73004250D02*
X151540476Y-73028059D01*
X151540476Y-73028059D02*
X151635714Y-73028059D01*
X151635714Y-73028059D02*
X151683333Y-73004250D01*
X151683333Y-73004250D02*
X151707142Y-72980440D01*
X151707142Y-72980440D02*
X151730952Y-72932821D01*
X151730952Y-72932821D02*
X151730952Y-72813773D01*
X151730952Y-72813773D02*
X151707142Y-72766154D01*
X151707142Y-72766154D02*
X151683333Y-72742345D01*
X151683333Y-72742345D02*
X151635714Y-72718535D01*
X151635714Y-72718535D02*
X151540476Y-72718535D01*
X151540476Y-72718535D02*
X151492857Y-72742345D01*
X151492857Y-72742345D02*
X151469047Y-72766154D01*
X151469047Y-72766154D02*
X151445238Y-72813773D01*
X155578571Y-76080440D02*
X155554762Y-76104250D01*
X155554762Y-76104250D02*
X155483333Y-76128059D01*
X155483333Y-76128059D02*
X155435714Y-76128059D01*
X155435714Y-76128059D02*
X155364286Y-76104250D01*
X155364286Y-76104250D02*
X155316667Y-76056630D01*
X155316667Y-76056630D02*
X155292857Y-76009011D01*
X155292857Y-76009011D02*
X155269048Y-75913773D01*
X155269048Y-75913773D02*
X155269048Y-75842345D01*
X155269048Y-75842345D02*
X155292857Y-75747107D01*
X155292857Y-75747107D02*
X155316667Y-75699488D01*
X155316667Y-75699488D02*
X155364286Y-75651869D01*
X155364286Y-75651869D02*
X155435714Y-75628059D01*
X155435714Y-75628059D02*
X155483333Y-75628059D01*
X155483333Y-75628059D02*
X155554762Y-75651869D01*
X155554762Y-75651869D02*
X155578571Y-75675678D01*
X155769048Y-75675678D02*
X155792857Y-75651869D01*
X155792857Y-75651869D02*
X155840476Y-75628059D01*
X155840476Y-75628059D02*
X155959524Y-75628059D01*
X155959524Y-75628059D02*
X156007143Y-75651869D01*
X156007143Y-75651869D02*
X156030952Y-75675678D01*
X156030952Y-75675678D02*
X156054762Y-75723297D01*
X156054762Y-75723297D02*
X156054762Y-75770916D01*
X156054762Y-75770916D02*
X156030952Y-75842345D01*
X156030952Y-75842345D02*
X155745238Y-76128059D01*
X155745238Y-76128059D02*
X156054762Y-76128059D01*
X156364285Y-75628059D02*
X156411904Y-75628059D01*
X156411904Y-75628059D02*
X156459523Y-75651869D01*
X156459523Y-75651869D02*
X156483333Y-75675678D01*
X156483333Y-75675678D02*
X156507142Y-75723297D01*
X156507142Y-75723297D02*
X156530952Y-75818535D01*
X156530952Y-75818535D02*
X156530952Y-75937583D01*
X156530952Y-75937583D02*
X156507142Y-76032821D01*
X156507142Y-76032821D02*
X156483333Y-76080440D01*
X156483333Y-76080440D02*
X156459523Y-76104250D01*
X156459523Y-76104250D02*
X156411904Y-76128059D01*
X156411904Y-76128059D02*
X156364285Y-76128059D01*
X156364285Y-76128059D02*
X156316666Y-76104250D01*
X156316666Y-76104250D02*
X156292857Y-76080440D01*
X156292857Y-76080440D02*
X156269047Y-76032821D01*
X156269047Y-76032821D02*
X156245238Y-75937583D01*
X156245238Y-75937583D02*
X156245238Y-75818535D01*
X156245238Y-75818535D02*
X156269047Y-75723297D01*
X156269047Y-75723297D02*
X156292857Y-75675678D01*
X156292857Y-75675678D02*
X156316666Y-75651869D01*
X156316666Y-75651869D02*
X156364285Y-75628059D01*
X145616666Y-51780440D02*
X145592857Y-51804250D01*
X145592857Y-51804250D02*
X145521428Y-51828059D01*
X145521428Y-51828059D02*
X145473809Y-51828059D01*
X145473809Y-51828059D02*
X145402381Y-51804250D01*
X145402381Y-51804250D02*
X145354762Y-51756630D01*
X145354762Y-51756630D02*
X145330952Y-51709011D01*
X145330952Y-51709011D02*
X145307143Y-51613773D01*
X145307143Y-51613773D02*
X145307143Y-51542345D01*
X145307143Y-51542345D02*
X145330952Y-51447107D01*
X145330952Y-51447107D02*
X145354762Y-51399488D01*
X145354762Y-51399488D02*
X145402381Y-51351869D01*
X145402381Y-51351869D02*
X145473809Y-51328059D01*
X145473809Y-51328059D02*
X145521428Y-51328059D01*
X145521428Y-51328059D02*
X145592857Y-51351869D01*
X145592857Y-51351869D02*
X145616666Y-51375678D01*
X146092857Y-51828059D02*
X145807143Y-51828059D01*
X145950000Y-51828059D02*
X145950000Y-51328059D01*
X145950000Y-51328059D02*
X145902381Y-51399488D01*
X145902381Y-51399488D02*
X145854762Y-51447107D01*
X145854762Y-51447107D02*
X145807143Y-51470916D01*
X157480440Y-59883333D02*
X157504250Y-59907142D01*
X157504250Y-59907142D02*
X157528059Y-59978571D01*
X157528059Y-59978571D02*
X157528059Y-60026190D01*
X157528059Y-60026190D02*
X157504250Y-60097618D01*
X157504250Y-60097618D02*
X157456630Y-60145237D01*
X157456630Y-60145237D02*
X157409011Y-60169047D01*
X157409011Y-60169047D02*
X157313773Y-60192856D01*
X157313773Y-60192856D02*
X157242345Y-60192856D01*
X157242345Y-60192856D02*
X157147107Y-60169047D01*
X157147107Y-60169047D02*
X157099488Y-60145237D01*
X157099488Y-60145237D02*
X157051869Y-60097618D01*
X157051869Y-60097618D02*
X157028059Y-60026190D01*
X157028059Y-60026190D02*
X157028059Y-59978571D01*
X157028059Y-59978571D02*
X157051869Y-59907142D01*
X157051869Y-59907142D02*
X157075678Y-59883333D01*
X157194726Y-59454761D02*
X157528059Y-59454761D01*
X157004250Y-59573809D02*
X157361392Y-59692856D01*
X157361392Y-59692856D02*
X157361392Y-59383333D01*
X157480440Y-60683333D02*
X157504250Y-60707142D01*
X157504250Y-60707142D02*
X157528059Y-60778571D01*
X157528059Y-60778571D02*
X157528059Y-60826190D01*
X157528059Y-60826190D02*
X157504250Y-60897618D01*
X157504250Y-60897618D02*
X157456630Y-60945237D01*
X157456630Y-60945237D02*
X157409011Y-60969047D01*
X157409011Y-60969047D02*
X157313773Y-60992856D01*
X157313773Y-60992856D02*
X157242345Y-60992856D01*
X157242345Y-60992856D02*
X157147107Y-60969047D01*
X157147107Y-60969047D02*
X157099488Y-60945237D01*
X157099488Y-60945237D02*
X157051869Y-60897618D01*
X157051869Y-60897618D02*
X157028059Y-60826190D01*
X157028059Y-60826190D02*
X157028059Y-60778571D01*
X157028059Y-60778571D02*
X157051869Y-60707142D01*
X157051869Y-60707142D02*
X157075678Y-60683333D01*
X157028059Y-60516666D02*
X157028059Y-60183333D01*
X157028059Y-60183333D02*
X157528059Y-60397618D01*
X145328571Y-67130440D02*
X145304762Y-67154250D01*
X145304762Y-67154250D02*
X145233333Y-67178059D01*
X145233333Y-67178059D02*
X145185714Y-67178059D01*
X145185714Y-67178059D02*
X145114286Y-67154250D01*
X145114286Y-67154250D02*
X145066667Y-67106630D01*
X145066667Y-67106630D02*
X145042857Y-67059011D01*
X145042857Y-67059011D02*
X145019048Y-66963773D01*
X145019048Y-66963773D02*
X145019048Y-66892345D01*
X145019048Y-66892345D02*
X145042857Y-66797107D01*
X145042857Y-66797107D02*
X145066667Y-66749488D01*
X145066667Y-66749488D02*
X145114286Y-66701869D01*
X145114286Y-66701869D02*
X145185714Y-66678059D01*
X145185714Y-66678059D02*
X145233333Y-66678059D01*
X145233333Y-66678059D02*
X145304762Y-66701869D01*
X145304762Y-66701869D02*
X145328571Y-66725678D01*
X145804762Y-67178059D02*
X145519048Y-67178059D01*
X145661905Y-67178059D02*
X145661905Y-66678059D01*
X145661905Y-66678059D02*
X145614286Y-66749488D01*
X145614286Y-66749488D02*
X145566667Y-66797107D01*
X145566667Y-66797107D02*
X145519048Y-66820916D01*
X145971428Y-66678059D02*
X146280952Y-66678059D01*
X146280952Y-66678059D02*
X146114285Y-66868535D01*
X146114285Y-66868535D02*
X146185714Y-66868535D01*
X146185714Y-66868535D02*
X146233333Y-66892345D01*
X146233333Y-66892345D02*
X146257142Y-66916154D01*
X146257142Y-66916154D02*
X146280952Y-66963773D01*
X146280952Y-66963773D02*
X146280952Y-67082821D01*
X146280952Y-67082821D02*
X146257142Y-67130440D01*
X146257142Y-67130440D02*
X146233333Y-67154250D01*
X146233333Y-67154250D02*
X146185714Y-67178059D01*
X146185714Y-67178059D02*
X146042857Y-67178059D01*
X146042857Y-67178059D02*
X145995238Y-67154250D01*
X145995238Y-67154250D02*
X145971428Y-67130440D01*
X144104250Y-62045165D02*
X144128059Y-61973737D01*
X144128059Y-61973737D02*
X144128059Y-61854689D01*
X144128059Y-61854689D02*
X144104250Y-61807070D01*
X144104250Y-61807070D02*
X144080440Y-61783261D01*
X144080440Y-61783261D02*
X144032821Y-61759451D01*
X144032821Y-61759451D02*
X143985202Y-61759451D01*
X143985202Y-61759451D02*
X143937583Y-61783261D01*
X143937583Y-61783261D02*
X143913773Y-61807070D01*
X143913773Y-61807070D02*
X143889964Y-61854689D01*
X143889964Y-61854689D02*
X143866154Y-61949927D01*
X143866154Y-61949927D02*
X143842345Y-61997546D01*
X143842345Y-61997546D02*
X143818535Y-62021356D01*
X143818535Y-62021356D02*
X143770916Y-62045165D01*
X143770916Y-62045165D02*
X143723297Y-62045165D01*
X143723297Y-62045165D02*
X143675678Y-62021356D01*
X143675678Y-62021356D02*
X143651869Y-61997546D01*
X143651869Y-61997546D02*
X143628059Y-61949927D01*
X143628059Y-61949927D02*
X143628059Y-61830880D01*
X143628059Y-61830880D02*
X143651869Y-61759451D01*
X143628059Y-61592785D02*
X144128059Y-61473737D01*
X144128059Y-61473737D02*
X143770916Y-61378499D01*
X143770916Y-61378499D02*
X144128059Y-61283261D01*
X144128059Y-61283261D02*
X143628059Y-61164214D01*
X144128059Y-60711832D02*
X144128059Y-60997546D01*
X144128059Y-60854689D02*
X143628059Y-60854689D01*
X143628059Y-60854689D02*
X143699488Y-60902308D01*
X143699488Y-60902308D02*
X143747107Y-60949927D01*
X143747107Y-60949927D02*
X143770916Y-60997546D01*
X160428571Y-68330440D02*
X160404762Y-68354250D01*
X160404762Y-68354250D02*
X160333333Y-68378059D01*
X160333333Y-68378059D02*
X160285714Y-68378059D01*
X160285714Y-68378059D02*
X160214286Y-68354250D01*
X160214286Y-68354250D02*
X160166667Y-68306630D01*
X160166667Y-68306630D02*
X160142857Y-68259011D01*
X160142857Y-68259011D02*
X160119048Y-68163773D01*
X160119048Y-68163773D02*
X160119048Y-68092345D01*
X160119048Y-68092345D02*
X160142857Y-67997107D01*
X160142857Y-67997107D02*
X160166667Y-67949488D01*
X160166667Y-67949488D02*
X160214286Y-67901869D01*
X160214286Y-67901869D02*
X160285714Y-67878059D01*
X160285714Y-67878059D02*
X160333333Y-67878059D01*
X160333333Y-67878059D02*
X160404762Y-67901869D01*
X160404762Y-67901869D02*
X160428571Y-67925678D01*
X160904762Y-68378059D02*
X160619048Y-68378059D01*
X160761905Y-68378059D02*
X160761905Y-67878059D01*
X160761905Y-67878059D02*
X160714286Y-67949488D01*
X160714286Y-67949488D02*
X160666667Y-67997107D01*
X160666667Y-67997107D02*
X160619048Y-68020916D01*
X161095238Y-67925678D02*
X161119047Y-67901869D01*
X161119047Y-67901869D02*
X161166666Y-67878059D01*
X161166666Y-67878059D02*
X161285714Y-67878059D01*
X161285714Y-67878059D02*
X161333333Y-67901869D01*
X161333333Y-67901869D02*
X161357142Y-67925678D01*
X161357142Y-67925678D02*
X161380952Y-67973297D01*
X161380952Y-67973297D02*
X161380952Y-68020916D01*
X161380952Y-68020916D02*
X161357142Y-68092345D01*
X161357142Y-68092345D02*
X161071428Y-68378059D01*
X161071428Y-68378059D02*
X161380952Y-68378059D01*
X160871428Y-74769559D02*
X160895237Y-74745750D01*
X160895237Y-74745750D02*
X160966666Y-74721940D01*
X160966666Y-74721940D02*
X161014285Y-74721940D01*
X161014285Y-74721940D02*
X161085713Y-74745750D01*
X161085713Y-74745750D02*
X161133332Y-74793369D01*
X161133332Y-74793369D02*
X161157142Y-74840988D01*
X161157142Y-74840988D02*
X161180951Y-74936226D01*
X161180951Y-74936226D02*
X161180951Y-75007654D01*
X161180951Y-75007654D02*
X161157142Y-75102892D01*
X161157142Y-75102892D02*
X161133332Y-75150511D01*
X161133332Y-75150511D02*
X161085713Y-75198130D01*
X161085713Y-75198130D02*
X161014285Y-75221940D01*
X161014285Y-75221940D02*
X160966666Y-75221940D01*
X160966666Y-75221940D02*
X160895237Y-75198130D01*
X160895237Y-75198130D02*
X160871428Y-75174321D01*
X160395237Y-74721940D02*
X160680951Y-74721940D01*
X160538094Y-74721940D02*
X160538094Y-75221940D01*
X160538094Y-75221940D02*
X160585713Y-75150511D01*
X160585713Y-75150511D02*
X160633332Y-75102892D01*
X160633332Y-75102892D02*
X160680951Y-75079083D01*
X160109523Y-75007654D02*
X160157142Y-75031464D01*
X160157142Y-75031464D02*
X160180952Y-75055273D01*
X160180952Y-75055273D02*
X160204761Y-75102892D01*
X160204761Y-75102892D02*
X160204761Y-75126702D01*
X160204761Y-75126702D02*
X160180952Y-75174321D01*
X160180952Y-75174321D02*
X160157142Y-75198130D01*
X160157142Y-75198130D02*
X160109523Y-75221940D01*
X160109523Y-75221940D02*
X160014285Y-75221940D01*
X160014285Y-75221940D02*
X159966666Y-75198130D01*
X159966666Y-75198130D02*
X159942857Y-75174321D01*
X159942857Y-75174321D02*
X159919047Y-75126702D01*
X159919047Y-75126702D02*
X159919047Y-75102892D01*
X159919047Y-75102892D02*
X159942857Y-75055273D01*
X159942857Y-75055273D02*
X159966666Y-75031464D01*
X159966666Y-75031464D02*
X160014285Y-75007654D01*
X160014285Y-75007654D02*
X160109523Y-75007654D01*
X160109523Y-75007654D02*
X160157142Y-74983845D01*
X160157142Y-74983845D02*
X160180952Y-74960035D01*
X160180952Y-74960035D02*
X160204761Y-74912416D01*
X160204761Y-74912416D02*
X160204761Y-74817178D01*
X160204761Y-74817178D02*
X160180952Y-74769559D01*
X160180952Y-74769559D02*
X160157142Y-74745750D01*
X160157142Y-74745750D02*
X160109523Y-74721940D01*
X160109523Y-74721940D02*
X160014285Y-74721940D01*
X160014285Y-74721940D02*
X159966666Y-74745750D01*
X159966666Y-74745750D02*
X159942857Y-74769559D01*
X159942857Y-74769559D02*
X159919047Y-74817178D01*
X159919047Y-74817178D02*
X159919047Y-74912416D01*
X159919047Y-74912416D02*
X159942857Y-74960035D01*
X159942857Y-74960035D02*
X159966666Y-74983845D01*
X159966666Y-74983845D02*
X160014285Y-75007654D01*
X147366666Y-62628059D02*
X147200000Y-62389964D01*
X147080952Y-62628059D02*
X147080952Y-62128059D01*
X147080952Y-62128059D02*
X147271428Y-62128059D01*
X147271428Y-62128059D02*
X147319047Y-62151869D01*
X147319047Y-62151869D02*
X147342857Y-62175678D01*
X147342857Y-62175678D02*
X147366666Y-62223297D01*
X147366666Y-62223297D02*
X147366666Y-62294726D01*
X147366666Y-62294726D02*
X147342857Y-62342345D01*
X147342857Y-62342345D02*
X147319047Y-62366154D01*
X147319047Y-62366154D02*
X147271428Y-62389964D01*
X147271428Y-62389964D02*
X147080952Y-62389964D01*
X147652381Y-62342345D02*
X147604762Y-62318535D01*
X147604762Y-62318535D02*
X147580952Y-62294726D01*
X147580952Y-62294726D02*
X147557143Y-62247107D01*
X147557143Y-62247107D02*
X147557143Y-62223297D01*
X147557143Y-62223297D02*
X147580952Y-62175678D01*
X147580952Y-62175678D02*
X147604762Y-62151869D01*
X147604762Y-62151869D02*
X147652381Y-62128059D01*
X147652381Y-62128059D02*
X147747619Y-62128059D01*
X147747619Y-62128059D02*
X147795238Y-62151869D01*
X147795238Y-62151869D02*
X147819047Y-62175678D01*
X147819047Y-62175678D02*
X147842857Y-62223297D01*
X147842857Y-62223297D02*
X147842857Y-62247107D01*
X147842857Y-62247107D02*
X147819047Y-62294726D01*
X147819047Y-62294726D02*
X147795238Y-62318535D01*
X147795238Y-62318535D02*
X147747619Y-62342345D01*
X147747619Y-62342345D02*
X147652381Y-62342345D01*
X147652381Y-62342345D02*
X147604762Y-62366154D01*
X147604762Y-62366154D02*
X147580952Y-62389964D01*
X147580952Y-62389964D02*
X147557143Y-62437583D01*
X147557143Y-62437583D02*
X147557143Y-62532821D01*
X147557143Y-62532821D02*
X147580952Y-62580440D01*
X147580952Y-62580440D02*
X147604762Y-62604250D01*
X147604762Y-62604250D02*
X147652381Y-62628059D01*
X147652381Y-62628059D02*
X147747619Y-62628059D01*
X147747619Y-62628059D02*
X147795238Y-62604250D01*
X147795238Y-62604250D02*
X147819047Y-62580440D01*
X147819047Y-62580440D02*
X147842857Y-62532821D01*
X147842857Y-62532821D02*
X147842857Y-62437583D01*
X147842857Y-62437583D02*
X147819047Y-62389964D01*
X147819047Y-62389964D02*
X147795238Y-62366154D01*
X147795238Y-62366154D02*
X147747619Y-62342345D01*
X155602337Y-60220187D02*
X155316127Y-60169680D01*
X155400306Y-60422218D02*
X155046753Y-60068664D01*
X155046753Y-60068664D02*
X155181440Y-59933977D01*
X155181440Y-59933977D02*
X155231947Y-59917142D01*
X155231947Y-59917142D02*
X155265619Y-59917142D01*
X155265619Y-59917142D02*
X155316127Y-59933977D01*
X155316127Y-59933977D02*
X155366634Y-59984485D01*
X155366634Y-59984485D02*
X155383470Y-60034993D01*
X155383470Y-60034993D02*
X155383470Y-60068664D01*
X155383470Y-60068664D02*
X155366634Y-60119172D01*
X155366634Y-60119172D02*
X155231947Y-60253859D01*
X155551829Y-59563588D02*
X155484485Y-59630932D01*
X155484485Y-59630932D02*
X155467650Y-59681439D01*
X155467650Y-59681439D02*
X155467650Y-59715111D01*
X155467650Y-59715111D02*
X155484485Y-59799290D01*
X155484485Y-59799290D02*
X155534993Y-59883470D01*
X155534993Y-59883470D02*
X155669680Y-60018157D01*
X155669680Y-60018157D02*
X155720188Y-60034993D01*
X155720188Y-60034993D02*
X155753859Y-60034993D01*
X155753859Y-60034993D02*
X155804367Y-60018157D01*
X155804367Y-60018157D02*
X155871711Y-59950813D01*
X155871711Y-59950813D02*
X155888546Y-59900306D01*
X155888546Y-59900306D02*
X155888546Y-59866634D01*
X155888546Y-59866634D02*
X155871711Y-59816126D01*
X155871711Y-59816126D02*
X155787531Y-59731947D01*
X155787531Y-59731947D02*
X155737024Y-59715111D01*
X155737024Y-59715111D02*
X155703352Y-59715111D01*
X155703352Y-59715111D02*
X155652844Y-59731947D01*
X155652844Y-59731947D02*
X155585501Y-59799290D01*
X155585501Y-59799290D02*
X155568665Y-59849798D01*
X155568665Y-59849798D02*
X155568665Y-59883470D01*
X155568665Y-59883470D02*
X155585501Y-59933977D01*
X160630952Y-51778059D02*
X160630952Y-51278059D01*
X160630952Y-51278059D02*
X160750000Y-51278059D01*
X160750000Y-51278059D02*
X160821428Y-51301869D01*
X160821428Y-51301869D02*
X160869047Y-51349488D01*
X160869047Y-51349488D02*
X160892857Y-51397107D01*
X160892857Y-51397107D02*
X160916666Y-51492345D01*
X160916666Y-51492345D02*
X160916666Y-51563773D01*
X160916666Y-51563773D02*
X160892857Y-51659011D01*
X160892857Y-51659011D02*
X160869047Y-51706630D01*
X160869047Y-51706630D02*
X160821428Y-51754250D01*
X160821428Y-51754250D02*
X160750000Y-51778059D01*
X160750000Y-51778059D02*
X160630952Y-51778059D01*
X161392857Y-51778059D02*
X161107143Y-51778059D01*
X161250000Y-51778059D02*
X161250000Y-51278059D01*
X161250000Y-51278059D02*
X161202381Y-51349488D01*
X161202381Y-51349488D02*
X161154762Y-51397107D01*
X161154762Y-51397107D02*
X161107143Y-51420916D01*
X147016666Y-61178059D02*
X146850000Y-60939964D01*
X146730952Y-61178059D02*
X146730952Y-60678059D01*
X146730952Y-60678059D02*
X146921428Y-60678059D01*
X146921428Y-60678059D02*
X146969047Y-60701869D01*
X146969047Y-60701869D02*
X146992857Y-60725678D01*
X146992857Y-60725678D02*
X147016666Y-60773297D01*
X147016666Y-60773297D02*
X147016666Y-60844726D01*
X147016666Y-60844726D02*
X146992857Y-60892345D01*
X146992857Y-60892345D02*
X146969047Y-60916154D01*
X146969047Y-60916154D02*
X146921428Y-60939964D01*
X146921428Y-60939964D02*
X146730952Y-60939964D01*
X147183333Y-60678059D02*
X147516666Y-60678059D01*
X147516666Y-60678059D02*
X147302381Y-61178059D01*
X160466666Y-62430440D02*
X160442857Y-62454250D01*
X160442857Y-62454250D02*
X160371428Y-62478059D01*
X160371428Y-62478059D02*
X160323809Y-62478059D01*
X160323809Y-62478059D02*
X160252381Y-62454250D01*
X160252381Y-62454250D02*
X160204762Y-62406630D01*
X160204762Y-62406630D02*
X160180952Y-62359011D01*
X160180952Y-62359011D02*
X160157143Y-62263773D01*
X160157143Y-62263773D02*
X160157143Y-62192345D01*
X160157143Y-62192345D02*
X160180952Y-62097107D01*
X160180952Y-62097107D02*
X160204762Y-62049488D01*
X160204762Y-62049488D02*
X160252381Y-62001869D01*
X160252381Y-62001869D02*
X160323809Y-61978059D01*
X160323809Y-61978059D02*
X160371428Y-61978059D01*
X160371428Y-61978059D02*
X160442857Y-62001869D01*
X160442857Y-62001869D02*
X160466666Y-62025678D01*
X160704762Y-62478059D02*
X160800000Y-62478059D01*
X160800000Y-62478059D02*
X160847619Y-62454250D01*
X160847619Y-62454250D02*
X160871428Y-62430440D01*
X160871428Y-62430440D02*
X160919047Y-62359011D01*
X160919047Y-62359011D02*
X160942857Y-62263773D01*
X160942857Y-62263773D02*
X160942857Y-62073297D01*
X160942857Y-62073297D02*
X160919047Y-62025678D01*
X160919047Y-62025678D02*
X160895238Y-62001869D01*
X160895238Y-62001869D02*
X160847619Y-61978059D01*
X160847619Y-61978059D02*
X160752381Y-61978059D01*
X160752381Y-61978059D02*
X160704762Y-62001869D01*
X160704762Y-62001869D02*
X160680952Y-62025678D01*
X160680952Y-62025678D02*
X160657143Y-62073297D01*
X160657143Y-62073297D02*
X160657143Y-62192345D01*
X160657143Y-62192345D02*
X160680952Y-62239964D01*
X160680952Y-62239964D02*
X160704762Y-62263773D01*
X160704762Y-62263773D02*
X160752381Y-62287583D01*
X160752381Y-62287583D02*
X160847619Y-62287583D01*
X160847619Y-62287583D02*
X160895238Y-62263773D01*
X160895238Y-62263773D02*
X160919047Y-62239964D01*
X160919047Y-62239964D02*
X160942857Y-62192345D01*
X155252337Y-57770187D02*
X154966127Y-57719680D01*
X155050306Y-57972218D02*
X154696753Y-57618664D01*
X154696753Y-57618664D02*
X154831440Y-57483977D01*
X154831440Y-57483977D02*
X154881947Y-57467142D01*
X154881947Y-57467142D02*
X154915619Y-57467142D01*
X154915619Y-57467142D02*
X154966127Y-57483977D01*
X154966127Y-57483977D02*
X155016634Y-57534485D01*
X155016634Y-57534485D02*
X155033470Y-57584993D01*
X155033470Y-57584993D02*
X155033470Y-57618664D01*
X155033470Y-57618664D02*
X155016634Y-57669172D01*
X155016634Y-57669172D02*
X154881947Y-57803859D01*
X155067142Y-57315619D02*
X155067142Y-57281947D01*
X155067142Y-57281947D02*
X155083978Y-57231439D01*
X155083978Y-57231439D02*
X155168157Y-57147260D01*
X155168157Y-57147260D02*
X155218665Y-57130424D01*
X155218665Y-57130424D02*
X155252337Y-57130424D01*
X155252337Y-57130424D02*
X155302844Y-57147260D01*
X155302844Y-57147260D02*
X155336516Y-57180932D01*
X155336516Y-57180932D02*
X155370188Y-57248275D01*
X155370188Y-57248275D02*
X155370188Y-57652336D01*
X155370188Y-57652336D02*
X155589054Y-57433470D01*
X146116666Y-57530440D02*
X146092857Y-57554250D01*
X146092857Y-57554250D02*
X146021428Y-57578059D01*
X146021428Y-57578059D02*
X145973809Y-57578059D01*
X145973809Y-57578059D02*
X145902381Y-57554250D01*
X145902381Y-57554250D02*
X145854762Y-57506630D01*
X145854762Y-57506630D02*
X145830952Y-57459011D01*
X145830952Y-57459011D02*
X145807143Y-57363773D01*
X145807143Y-57363773D02*
X145807143Y-57292345D01*
X145807143Y-57292345D02*
X145830952Y-57197107D01*
X145830952Y-57197107D02*
X145854762Y-57149488D01*
X145854762Y-57149488D02*
X145902381Y-57101869D01*
X145902381Y-57101869D02*
X145973809Y-57078059D01*
X145973809Y-57078059D02*
X146021428Y-57078059D01*
X146021428Y-57078059D02*
X146092857Y-57101869D01*
X146092857Y-57101869D02*
X146116666Y-57125678D01*
X146283333Y-57078059D02*
X146592857Y-57078059D01*
X146592857Y-57078059D02*
X146426190Y-57268535D01*
X146426190Y-57268535D02*
X146497619Y-57268535D01*
X146497619Y-57268535D02*
X146545238Y-57292345D01*
X146545238Y-57292345D02*
X146569047Y-57316154D01*
X146569047Y-57316154D02*
X146592857Y-57363773D01*
X146592857Y-57363773D02*
X146592857Y-57482821D01*
X146592857Y-57482821D02*
X146569047Y-57530440D01*
X146569047Y-57530440D02*
X146545238Y-57554250D01*
X146545238Y-57554250D02*
X146497619Y-57578059D01*
X146497619Y-57578059D02*
X146354762Y-57578059D01*
X146354762Y-57578059D02*
X146307143Y-57554250D01*
X146307143Y-57554250D02*
X146283333Y-57530440D01*
X149078059Y-58930952D02*
X149482821Y-58930952D01*
X149482821Y-58930952D02*
X149530440Y-58907142D01*
X149530440Y-58907142D02*
X149554250Y-58883333D01*
X149554250Y-58883333D02*
X149578059Y-58835714D01*
X149578059Y-58835714D02*
X149578059Y-58740476D01*
X149578059Y-58740476D02*
X149554250Y-58692857D01*
X149554250Y-58692857D02*
X149530440Y-58669047D01*
X149530440Y-58669047D02*
X149482821Y-58645238D01*
X149482821Y-58645238D02*
X149078059Y-58645238D01*
X149578059Y-58145237D02*
X149578059Y-58430951D01*
X149578059Y-58288094D02*
X149078059Y-58288094D01*
X149078059Y-58288094D02*
X149149488Y-58335713D01*
X149149488Y-58335713D02*
X149197107Y-58383332D01*
X149197107Y-58383332D02*
X149220916Y-58430951D01*
X144116666Y-58480440D02*
X144092857Y-58504250D01*
X144092857Y-58504250D02*
X144021428Y-58528059D01*
X144021428Y-58528059D02*
X143973809Y-58528059D01*
X143973809Y-58528059D02*
X143902381Y-58504250D01*
X143902381Y-58504250D02*
X143854762Y-58456630D01*
X143854762Y-58456630D02*
X143830952Y-58409011D01*
X143830952Y-58409011D02*
X143807143Y-58313773D01*
X143807143Y-58313773D02*
X143807143Y-58242345D01*
X143807143Y-58242345D02*
X143830952Y-58147107D01*
X143830952Y-58147107D02*
X143854762Y-58099488D01*
X143854762Y-58099488D02*
X143902381Y-58051869D01*
X143902381Y-58051869D02*
X143973809Y-58028059D01*
X143973809Y-58028059D02*
X144021428Y-58028059D01*
X144021428Y-58028059D02*
X144092857Y-58051869D01*
X144092857Y-58051869D02*
X144116666Y-58075678D01*
X144307143Y-58075678D02*
X144330952Y-58051869D01*
X144330952Y-58051869D02*
X144378571Y-58028059D01*
X144378571Y-58028059D02*
X144497619Y-58028059D01*
X144497619Y-58028059D02*
X144545238Y-58051869D01*
X144545238Y-58051869D02*
X144569047Y-58075678D01*
X144569047Y-58075678D02*
X144592857Y-58123297D01*
X144592857Y-58123297D02*
X144592857Y-58170916D01*
X144592857Y-58170916D02*
X144569047Y-58242345D01*
X144569047Y-58242345D02*
X144283333Y-58528059D01*
X144283333Y-58528059D02*
X144592857Y-58528059D01*
X145854250Y-77766665D02*
X145878059Y-77695237D01*
X145878059Y-77695237D02*
X145878059Y-77576189D01*
X145878059Y-77576189D02*
X145854250Y-77528570D01*
X145854250Y-77528570D02*
X145830440Y-77504761D01*
X145830440Y-77504761D02*
X145782821Y-77480951D01*
X145782821Y-77480951D02*
X145735202Y-77480951D01*
X145735202Y-77480951D02*
X145687583Y-77504761D01*
X145687583Y-77504761D02*
X145663773Y-77528570D01*
X145663773Y-77528570D02*
X145639964Y-77576189D01*
X145639964Y-77576189D02*
X145616154Y-77671427D01*
X145616154Y-77671427D02*
X145592345Y-77719046D01*
X145592345Y-77719046D02*
X145568535Y-77742856D01*
X145568535Y-77742856D02*
X145520916Y-77766665D01*
X145520916Y-77766665D02*
X145473297Y-77766665D01*
X145473297Y-77766665D02*
X145425678Y-77742856D01*
X145425678Y-77742856D02*
X145401869Y-77719046D01*
X145401869Y-77719046D02*
X145378059Y-77671427D01*
X145378059Y-77671427D02*
X145378059Y-77552380D01*
X145378059Y-77552380D02*
X145401869Y-77480951D01*
X145378059Y-77314285D02*
X145878059Y-77195237D01*
X145878059Y-77195237D02*
X145520916Y-77099999D01*
X145520916Y-77099999D02*
X145878059Y-77004761D01*
X145878059Y-77004761D02*
X145378059Y-76885714D01*
X145425678Y-76719046D02*
X145401869Y-76695237D01*
X145401869Y-76695237D02*
X145378059Y-76647618D01*
X145378059Y-76647618D02*
X145378059Y-76528570D01*
X145378059Y-76528570D02*
X145401869Y-76480951D01*
X145401869Y-76480951D02*
X145425678Y-76457142D01*
X145425678Y-76457142D02*
X145473297Y-76433332D01*
X145473297Y-76433332D02*
X145520916Y-76433332D01*
X145520916Y-76433332D02*
X145592345Y-76457142D01*
X145592345Y-76457142D02*
X145878059Y-76742856D01*
X145878059Y-76742856D02*
X145878059Y-76433332D01*
X151366666Y-60230440D02*
X151342857Y-60254250D01*
X151342857Y-60254250D02*
X151271428Y-60278059D01*
X151271428Y-60278059D02*
X151223809Y-60278059D01*
X151223809Y-60278059D02*
X151152381Y-60254250D01*
X151152381Y-60254250D02*
X151104762Y-60206630D01*
X151104762Y-60206630D02*
X151080952Y-60159011D01*
X151080952Y-60159011D02*
X151057143Y-60063773D01*
X151057143Y-60063773D02*
X151057143Y-59992345D01*
X151057143Y-59992345D02*
X151080952Y-59897107D01*
X151080952Y-59897107D02*
X151104762Y-59849488D01*
X151104762Y-59849488D02*
X151152381Y-59801869D01*
X151152381Y-59801869D02*
X151223809Y-59778059D01*
X151223809Y-59778059D02*
X151271428Y-59778059D01*
X151271428Y-59778059D02*
X151342857Y-59801869D01*
X151342857Y-59801869D02*
X151366666Y-59825678D01*
X151652381Y-59992345D02*
X151604762Y-59968535D01*
X151604762Y-59968535D02*
X151580952Y-59944726D01*
X151580952Y-59944726D02*
X151557143Y-59897107D01*
X151557143Y-59897107D02*
X151557143Y-59873297D01*
X151557143Y-59873297D02*
X151580952Y-59825678D01*
X151580952Y-59825678D02*
X151604762Y-59801869D01*
X151604762Y-59801869D02*
X151652381Y-59778059D01*
X151652381Y-59778059D02*
X151747619Y-59778059D01*
X151747619Y-59778059D02*
X151795238Y-59801869D01*
X151795238Y-59801869D02*
X151819047Y-59825678D01*
X151819047Y-59825678D02*
X151842857Y-59873297D01*
X151842857Y-59873297D02*
X151842857Y-59897107D01*
X151842857Y-59897107D02*
X151819047Y-59944726D01*
X151819047Y-59944726D02*
X151795238Y-59968535D01*
X151795238Y-59968535D02*
X151747619Y-59992345D01*
X151747619Y-59992345D02*
X151652381Y-59992345D01*
X151652381Y-59992345D02*
X151604762Y-60016154D01*
X151604762Y-60016154D02*
X151580952Y-60039964D01*
X151580952Y-60039964D02*
X151557143Y-60087583D01*
X151557143Y-60087583D02*
X151557143Y-60182821D01*
X151557143Y-60182821D02*
X151580952Y-60230440D01*
X151580952Y-60230440D02*
X151604762Y-60254250D01*
X151604762Y-60254250D02*
X151652381Y-60278059D01*
X151652381Y-60278059D02*
X151747619Y-60278059D01*
X151747619Y-60278059D02*
X151795238Y-60254250D01*
X151795238Y-60254250D02*
X151819047Y-60230440D01*
X151819047Y-60230440D02*
X151842857Y-60182821D01*
X151842857Y-60182821D02*
X151842857Y-60087583D01*
X151842857Y-60087583D02*
X151819047Y-60039964D01*
X151819047Y-60039964D02*
X151795238Y-60016154D01*
X151795238Y-60016154D02*
X151747619Y-59992345D01*
X153506547Y-64028059D02*
X153506547Y-64432821D01*
X153506547Y-64432821D02*
X153530357Y-64480440D01*
X153530357Y-64480440D02*
X153554166Y-64504250D01*
X153554166Y-64504250D02*
X153601785Y-64528059D01*
X153601785Y-64528059D02*
X153697023Y-64528059D01*
X153697023Y-64528059D02*
X153744642Y-64504250D01*
X153744642Y-64504250D02*
X153768452Y-64480440D01*
X153768452Y-64480440D02*
X153792261Y-64432821D01*
X153792261Y-64432821D02*
X153792261Y-64028059D01*
X154006548Y-64075678D02*
X154030357Y-64051869D01*
X154030357Y-64051869D02*
X154077976Y-64028059D01*
X154077976Y-64028059D02*
X154197024Y-64028059D01*
X154197024Y-64028059D02*
X154244643Y-64051869D01*
X154244643Y-64051869D02*
X154268452Y-64075678D01*
X154268452Y-64075678D02*
X154292262Y-64123297D01*
X154292262Y-64123297D02*
X154292262Y-64170916D01*
X154292262Y-64170916D02*
X154268452Y-64242345D01*
X154268452Y-64242345D02*
X153982738Y-64528059D01*
X153982738Y-64528059D02*
X154292262Y-64528059D01*
X160428571Y-71580440D02*
X160404762Y-71604250D01*
X160404762Y-71604250D02*
X160333333Y-71628059D01*
X160333333Y-71628059D02*
X160285714Y-71628059D01*
X160285714Y-71628059D02*
X160214286Y-71604250D01*
X160214286Y-71604250D02*
X160166667Y-71556630D01*
X160166667Y-71556630D02*
X160142857Y-71509011D01*
X160142857Y-71509011D02*
X160119048Y-71413773D01*
X160119048Y-71413773D02*
X160119048Y-71342345D01*
X160119048Y-71342345D02*
X160142857Y-71247107D01*
X160142857Y-71247107D02*
X160166667Y-71199488D01*
X160166667Y-71199488D02*
X160214286Y-71151869D01*
X160214286Y-71151869D02*
X160285714Y-71128059D01*
X160285714Y-71128059D02*
X160333333Y-71128059D01*
X160333333Y-71128059D02*
X160404762Y-71151869D01*
X160404762Y-71151869D02*
X160428571Y-71175678D01*
X160904762Y-71628059D02*
X160619048Y-71628059D01*
X160761905Y-71628059D02*
X160761905Y-71128059D01*
X160761905Y-71128059D02*
X160714286Y-71199488D01*
X160714286Y-71199488D02*
X160666667Y-71247107D01*
X160666667Y-71247107D02*
X160619048Y-71270916D01*
X161333333Y-71294726D02*
X161333333Y-71628059D01*
X161214285Y-71104250D02*
X161095238Y-71461392D01*
X161095238Y-71461392D02*
X161404761Y-71461392D01*
X160728571Y-65280440D02*
X160704762Y-65304250D01*
X160704762Y-65304250D02*
X160633333Y-65328059D01*
X160633333Y-65328059D02*
X160585714Y-65328059D01*
X160585714Y-65328059D02*
X160514286Y-65304250D01*
X160514286Y-65304250D02*
X160466667Y-65256630D01*
X160466667Y-65256630D02*
X160442857Y-65209011D01*
X160442857Y-65209011D02*
X160419048Y-65113773D01*
X160419048Y-65113773D02*
X160419048Y-65042345D01*
X160419048Y-65042345D02*
X160442857Y-64947107D01*
X160442857Y-64947107D02*
X160466667Y-64899488D01*
X160466667Y-64899488D02*
X160514286Y-64851869D01*
X160514286Y-64851869D02*
X160585714Y-64828059D01*
X160585714Y-64828059D02*
X160633333Y-64828059D01*
X160633333Y-64828059D02*
X160704762Y-64851869D01*
X160704762Y-64851869D02*
X160728571Y-64875678D01*
X161204762Y-65328059D02*
X160919048Y-65328059D01*
X161061905Y-65328059D02*
X161061905Y-64828059D01*
X161061905Y-64828059D02*
X161014286Y-64899488D01*
X161014286Y-64899488D02*
X160966667Y-64947107D01*
X160966667Y-64947107D02*
X160919048Y-64970916D01*
X161680952Y-65328059D02*
X161395238Y-65328059D01*
X161538095Y-65328059D02*
X161538095Y-64828059D01*
X161538095Y-64828059D02*
X161490476Y-64899488D01*
X161490476Y-64899488D02*
X161442857Y-64947107D01*
X161442857Y-64947107D02*
X161395238Y-64970916D01*
X158966666Y-60630440D02*
X158942857Y-60654250D01*
X158942857Y-60654250D02*
X158871428Y-60678059D01*
X158871428Y-60678059D02*
X158823809Y-60678059D01*
X158823809Y-60678059D02*
X158752381Y-60654250D01*
X158752381Y-60654250D02*
X158704762Y-60606630D01*
X158704762Y-60606630D02*
X158680952Y-60559011D01*
X158680952Y-60559011D02*
X158657143Y-60463773D01*
X158657143Y-60463773D02*
X158657143Y-60392345D01*
X158657143Y-60392345D02*
X158680952Y-60297107D01*
X158680952Y-60297107D02*
X158704762Y-60249488D01*
X158704762Y-60249488D02*
X158752381Y-60201869D01*
X158752381Y-60201869D02*
X158823809Y-60178059D01*
X158823809Y-60178059D02*
X158871428Y-60178059D01*
X158871428Y-60178059D02*
X158942857Y-60201869D01*
X158942857Y-60201869D02*
X158966666Y-60225678D01*
X159395238Y-60178059D02*
X159300000Y-60178059D01*
X159300000Y-60178059D02*
X159252381Y-60201869D01*
X159252381Y-60201869D02*
X159228571Y-60225678D01*
X159228571Y-60225678D02*
X159180952Y-60297107D01*
X159180952Y-60297107D02*
X159157143Y-60392345D01*
X159157143Y-60392345D02*
X159157143Y-60582821D01*
X159157143Y-60582821D02*
X159180952Y-60630440D01*
X159180952Y-60630440D02*
X159204762Y-60654250D01*
X159204762Y-60654250D02*
X159252381Y-60678059D01*
X159252381Y-60678059D02*
X159347619Y-60678059D01*
X159347619Y-60678059D02*
X159395238Y-60654250D01*
X159395238Y-60654250D02*
X159419047Y-60630440D01*
X159419047Y-60630440D02*
X159442857Y-60582821D01*
X159442857Y-60582821D02*
X159442857Y-60463773D01*
X159442857Y-60463773D02*
X159419047Y-60416154D01*
X159419047Y-60416154D02*
X159395238Y-60392345D01*
X159395238Y-60392345D02*
X159347619Y-60368535D01*
X159347619Y-60368535D02*
X159252381Y-60368535D01*
X159252381Y-60368535D02*
X159204762Y-60392345D01*
X159204762Y-60392345D02*
X159180952Y-60416154D01*
X159180952Y-60416154D02*
X159157143Y-60463773D01*
X159816666Y-58578059D02*
X159650000Y-58339964D01*
X159530952Y-58578059D02*
X159530952Y-58078059D01*
X159530952Y-58078059D02*
X159721428Y-58078059D01*
X159721428Y-58078059D02*
X159769047Y-58101869D01*
X159769047Y-58101869D02*
X159792857Y-58125678D01*
X159792857Y-58125678D02*
X159816666Y-58173297D01*
X159816666Y-58173297D02*
X159816666Y-58244726D01*
X159816666Y-58244726D02*
X159792857Y-58292345D01*
X159792857Y-58292345D02*
X159769047Y-58316154D01*
X159769047Y-58316154D02*
X159721428Y-58339964D01*
X159721428Y-58339964D02*
X159530952Y-58339964D01*
X160269047Y-58078059D02*
X160030952Y-58078059D01*
X160030952Y-58078059D02*
X160007143Y-58316154D01*
X160007143Y-58316154D02*
X160030952Y-58292345D01*
X160030952Y-58292345D02*
X160078571Y-58268535D01*
X160078571Y-58268535D02*
X160197619Y-58268535D01*
X160197619Y-58268535D02*
X160245238Y-58292345D01*
X160245238Y-58292345D02*
X160269047Y-58316154D01*
X160269047Y-58316154D02*
X160292857Y-58363773D01*
X160292857Y-58363773D02*
X160292857Y-58482821D01*
X160292857Y-58482821D02*
X160269047Y-58530440D01*
X160269047Y-58530440D02*
X160245238Y-58554250D01*
X160245238Y-58554250D02*
X160197619Y-58578059D01*
X160197619Y-58578059D02*
X160078571Y-58578059D01*
X160078571Y-58578059D02*
X160030952Y-58554250D01*
X160030952Y-58554250D02*
X160007143Y-58530440D01*
X153928571Y-74680440D02*
X153904762Y-74704250D01*
X153904762Y-74704250D02*
X153833333Y-74728059D01*
X153833333Y-74728059D02*
X153785714Y-74728059D01*
X153785714Y-74728059D02*
X153714286Y-74704250D01*
X153714286Y-74704250D02*
X153666667Y-74656630D01*
X153666667Y-74656630D02*
X153642857Y-74609011D01*
X153642857Y-74609011D02*
X153619048Y-74513773D01*
X153619048Y-74513773D02*
X153619048Y-74442345D01*
X153619048Y-74442345D02*
X153642857Y-74347107D01*
X153642857Y-74347107D02*
X153666667Y-74299488D01*
X153666667Y-74299488D02*
X153714286Y-74251869D01*
X153714286Y-74251869D02*
X153785714Y-74228059D01*
X153785714Y-74228059D02*
X153833333Y-74228059D01*
X153833333Y-74228059D02*
X153904762Y-74251869D01*
X153904762Y-74251869D02*
X153928571Y-74275678D01*
X154404762Y-74728059D02*
X154119048Y-74728059D01*
X154261905Y-74728059D02*
X154261905Y-74228059D01*
X154261905Y-74228059D02*
X154214286Y-74299488D01*
X154214286Y-74299488D02*
X154166667Y-74347107D01*
X154166667Y-74347107D02*
X154119048Y-74370916D01*
X154571428Y-74228059D02*
X154904761Y-74228059D01*
X154904761Y-74228059D02*
X154690476Y-74728059D01*
X150816666Y-58528059D02*
X150650000Y-58289964D01*
X150530952Y-58528059D02*
X150530952Y-58028059D01*
X150530952Y-58028059D02*
X150721428Y-58028059D01*
X150721428Y-58028059D02*
X150769047Y-58051869D01*
X150769047Y-58051869D02*
X150792857Y-58075678D01*
X150792857Y-58075678D02*
X150816666Y-58123297D01*
X150816666Y-58123297D02*
X150816666Y-58194726D01*
X150816666Y-58194726D02*
X150792857Y-58242345D01*
X150792857Y-58242345D02*
X150769047Y-58266154D01*
X150769047Y-58266154D02*
X150721428Y-58289964D01*
X150721428Y-58289964D02*
X150530952Y-58289964D01*
X150983333Y-58028059D02*
X151292857Y-58028059D01*
X151292857Y-58028059D02*
X151126190Y-58218535D01*
X151126190Y-58218535D02*
X151197619Y-58218535D01*
X151197619Y-58218535D02*
X151245238Y-58242345D01*
X151245238Y-58242345D02*
X151269047Y-58266154D01*
X151269047Y-58266154D02*
X151292857Y-58313773D01*
X151292857Y-58313773D02*
X151292857Y-58432821D01*
X151292857Y-58432821D02*
X151269047Y-58480440D01*
X151269047Y-58480440D02*
X151245238Y-58504250D01*
X151245238Y-58504250D02*
X151197619Y-58528059D01*
X151197619Y-58528059D02*
X151054762Y-58528059D01*
X151054762Y-58528059D02*
X151007143Y-58504250D01*
X151007143Y-58504250D02*
X150983333Y-58480440D01*
X146166666Y-72678059D02*
X146000000Y-72439964D01*
X145880952Y-72678059D02*
X145880952Y-72178059D01*
X145880952Y-72178059D02*
X146071428Y-72178059D01*
X146071428Y-72178059D02*
X146119047Y-72201869D01*
X146119047Y-72201869D02*
X146142857Y-72225678D01*
X146142857Y-72225678D02*
X146166666Y-72273297D01*
X146166666Y-72273297D02*
X146166666Y-72344726D01*
X146166666Y-72344726D02*
X146142857Y-72392345D01*
X146142857Y-72392345D02*
X146119047Y-72416154D01*
X146119047Y-72416154D02*
X146071428Y-72439964D01*
X146071428Y-72439964D02*
X145880952Y-72439964D01*
X146404762Y-72678059D02*
X146500000Y-72678059D01*
X146500000Y-72678059D02*
X146547619Y-72654250D01*
X146547619Y-72654250D02*
X146571428Y-72630440D01*
X146571428Y-72630440D02*
X146619047Y-72559011D01*
X146619047Y-72559011D02*
X146642857Y-72463773D01*
X146642857Y-72463773D02*
X146642857Y-72273297D01*
X146642857Y-72273297D02*
X146619047Y-72225678D01*
X146619047Y-72225678D02*
X146595238Y-72201869D01*
X146595238Y-72201869D02*
X146547619Y-72178059D01*
X146547619Y-72178059D02*
X146452381Y-72178059D01*
X146452381Y-72178059D02*
X146404762Y-72201869D01*
X146404762Y-72201869D02*
X146380952Y-72225678D01*
X146380952Y-72225678D02*
X146357143Y-72273297D01*
X146357143Y-72273297D02*
X146357143Y-72392345D01*
X146357143Y-72392345D02*
X146380952Y-72439964D01*
X146380952Y-72439964D02*
X146404762Y-72463773D01*
X146404762Y-72463773D02*
X146452381Y-72487583D01*
X146452381Y-72487583D02*
X146547619Y-72487583D01*
X146547619Y-72487583D02*
X146595238Y-72463773D01*
X146595238Y-72463773D02*
X146619047Y-72439964D01*
X146619047Y-72439964D02*
X146642857Y-72392345D01*
X145178570Y-70380440D02*
X145154761Y-70404250D01*
X145154761Y-70404250D02*
X145083332Y-70428059D01*
X145083332Y-70428059D02*
X145035713Y-70428059D01*
X145035713Y-70428059D02*
X144964285Y-70404250D01*
X144964285Y-70404250D02*
X144916666Y-70356630D01*
X144916666Y-70356630D02*
X144892856Y-70309011D01*
X144892856Y-70309011D02*
X144869047Y-70213773D01*
X144869047Y-70213773D02*
X144869047Y-70142345D01*
X144869047Y-70142345D02*
X144892856Y-70047107D01*
X144892856Y-70047107D02*
X144916666Y-69999488D01*
X144916666Y-69999488D02*
X144964285Y-69951869D01*
X144964285Y-69951869D02*
X145035713Y-69928059D01*
X145035713Y-69928059D02*
X145083332Y-69928059D01*
X145083332Y-69928059D02*
X145154761Y-69951869D01*
X145154761Y-69951869D02*
X145178570Y-69975678D01*
X145654761Y-70428059D02*
X145369047Y-70428059D01*
X145511904Y-70428059D02*
X145511904Y-69928059D01*
X145511904Y-69928059D02*
X145464285Y-69999488D01*
X145464285Y-69999488D02*
X145416666Y-70047107D01*
X145416666Y-70047107D02*
X145369047Y-70070916D01*
X146107141Y-69928059D02*
X145869046Y-69928059D01*
X145869046Y-69928059D02*
X145845237Y-70166154D01*
X145845237Y-70166154D02*
X145869046Y-70142345D01*
X145869046Y-70142345D02*
X145916665Y-70118535D01*
X145916665Y-70118535D02*
X146035713Y-70118535D01*
X146035713Y-70118535D02*
X146083332Y-70142345D01*
X146083332Y-70142345D02*
X146107141Y-70166154D01*
X146107141Y-70166154D02*
X146130951Y-70213773D01*
X146130951Y-70213773D02*
X146130951Y-70332821D01*
X146130951Y-70332821D02*
X146107141Y-70380440D01*
X146107141Y-70380440D02*
X146083332Y-70404250D01*
X146083332Y-70404250D02*
X146035713Y-70428059D01*
X146035713Y-70428059D02*
X145916665Y-70428059D01*
X145916665Y-70428059D02*
X145869046Y-70404250D01*
X145869046Y-70404250D02*
X145845237Y-70380440D01*
X144128059Y-56788094D02*
X143628059Y-56788094D01*
X144080440Y-56264285D02*
X144104250Y-56288094D01*
X144104250Y-56288094D02*
X144128059Y-56359523D01*
X144128059Y-56359523D02*
X144128059Y-56407142D01*
X144128059Y-56407142D02*
X144104250Y-56478570D01*
X144104250Y-56478570D02*
X144056630Y-56526189D01*
X144056630Y-56526189D02*
X144009011Y-56549999D01*
X144009011Y-56549999D02*
X143913773Y-56573808D01*
X143913773Y-56573808D02*
X143842345Y-56573808D01*
X143842345Y-56573808D02*
X143747107Y-56549999D01*
X143747107Y-56549999D02*
X143699488Y-56526189D01*
X143699488Y-56526189D02*
X143651869Y-56478570D01*
X143651869Y-56478570D02*
X143628059Y-56407142D01*
X143628059Y-56407142D02*
X143628059Y-56359523D01*
X143628059Y-56359523D02*
X143651869Y-56288094D01*
X143651869Y-56288094D02*
X143675678Y-56264285D01*
X144128059Y-55788094D02*
X144128059Y-56073808D01*
X144128059Y-55930951D02*
X143628059Y-55930951D01*
X143628059Y-55930951D02*
X143699488Y-55978570D01*
X143699488Y-55978570D02*
X143747107Y-56026189D01*
X143747107Y-56026189D02*
X143770916Y-56073808D01*
%TO.C,L1*%
D14*
X155300000Y-58350000D02*
X155300000Y-58350000D01*
X155300000Y-58550000D02*
X155300000Y-58550000D01*
X157300000Y-57650000D02*
X157300000Y-59250000D01*
X155300000Y-58350000D02*
G75*
G02*
X155300000Y-58550000I0J-100000D01*
G01*
X155300000Y-58550000D02*
G75*
G02*
X155300000Y-58350000I0J100000D01*
G01*
%TO.C,J1*%
D15*
X147920000Y-52935000D02*
X147920000Y-54345000D01*
X155460000Y-57015000D02*
X156260000Y-57015000D01*
X156260000Y-57015000D02*
X156260000Y-56865000D01*
X157080000Y-52935000D02*
X157080000Y-54345000D01*
%TO.C,SW1*%
D16*
X142300000Y-62608500D02*
X142300000Y-60148500D01*
X145500000Y-62608500D02*
X145500000Y-60148500D01*
D14*
X142870000Y-64596500D02*
G75*
G02*
X142670000Y-64596500I-100000J0D01*
G01*
X142670000Y-64596500D02*
G75*
G02*
X142870000Y-64596500I100000J0D01*
G01*
%TO.C,Y1*%
D15*
X161760000Y-75440000D02*
X157640000Y-75440000D01*
X161760000Y-78860000D02*
X161760000Y-75440000D01*
%TO.C,D1*%
D13*
X160150000Y-50350000D02*
G75*
G02*
X160050000Y-50350000I-50000J0D01*
G01*
X160050000Y-50350000D02*
G75*
G02*
X160150000Y-50350000I50000J0D01*
G01*
%TO.C,U1*%
D15*
X147664432Y-57415000D02*
X150460000Y-57415000D01*
X150460000Y-59685000D02*
X147240000Y-59685000D01*
X147370000Y-57410000D02*
X147230000Y-57220000D01*
X147510000Y-57220000D01*
X147370000Y-57410000D01*
G36*
X147370000Y-57410000D02*
G01*
X147230000Y-57220000D01*
X147510000Y-57220000D01*
X147370000Y-57410000D01*
G37*
%TO.C,J5*%
X149250000Y-76350000D02*
G75*
G02*
X147850000Y-76350000I-700000J0D01*
G01*
X147850000Y-76350000D02*
G75*
G02*
X149250000Y-76350000I700000J0D01*
G01*
%TO.C,SW2*%
D16*
X144050000Y-78330000D02*
X144050000Y-75870000D01*
X147250000Y-78330000D02*
X147250000Y-75870000D01*
%TO.C,U2*%
D15*
X148777500Y-61690000D02*
X149727500Y-61690000D01*
X148777500Y-62640000D02*
X148777500Y-61690000D01*
X148777500Y-71910000D02*
X148777500Y-70960000D01*
X149727500Y-71910000D02*
X148777500Y-71910000D01*
X158047500Y-61690000D02*
X158997500Y-61690000D01*
X158997500Y-61690000D02*
X158997500Y-62640000D01*
X158997500Y-70960000D02*
X158997500Y-71910000D01*
X158997500Y-71910000D02*
X158047500Y-71910000D01*
X148277500Y-63000000D02*
X147947500Y-63240000D01*
X147947500Y-62760000D01*
X148277500Y-63000000D01*
G36*
X148277500Y-63000000D02*
G01*
X147947500Y-63240000D01*
X147947500Y-62760000D01*
X148277500Y-63000000D01*
G37*
%TO.C,IC1*%
D14*
X142452000Y-54825000D02*
X145348000Y-54825000D01*
X142452000Y-55375000D02*
X142452000Y-54825000D01*
X145348000Y-54825000D02*
X145348000Y-55375000D01*
X145348000Y-55375000D02*
X142452000Y-55375000D01*
X145414000Y-53225000D02*
X145414000Y-54475000D01*
%TO.C,J4*%
D15*
X149250000Y-74050000D02*
G75*
G02*
X147850000Y-74050000I-700000J0D01*
G01*
X147850000Y-74050000D02*
G75*
G02*
X149250000Y-74050000I700000J0D01*
G01*
%TD*%
M02*
